<?xml version="1.0" encoding="UTF-8" standalone="no"?>
<!-- Created with Inkscape (http://www.inkscape.org/) -->

<svg
   version="1.1"
   id="svg1"
   width="414.71997"
   height="225.27998"
   viewBox="0 0 414.71997 225.27998"
   sodipodi:docname="sql-2.pdf"
   xmlns:inkscape="http://www.inkscape.org/namespaces/inkscape"
   xmlns:sodipodi="http://sodipodi.sourceforge.net/DTD/sodipodi-0.dtd"
   xmlns="http://www.w3.org/2000/svg"
   xmlns:svg="http://www.w3.org/2000/svg">
  <defs
     id="defs1">
    <clipPath
       clipPathUnits="userSpaceOnUse"
       id="clipPath2">
      <path
         d="M 0,0 H 1295.8333 V 701.66089 H 0 Z"
         transform="scale(0.33491962)"
         clip-rule="evenodd"
         id="path2" />
    </clipPath>
    <clipPath
       clipPathUnits="userSpaceOnUse"
       id="clipPath4">
      <path
         d="M 0,0 H 1295.8333 V 698.67511 H 0 Z"
         transform="matrix(0.33491962,0,0,0.33491962,-0.49999999,-0.49999999)"
         clip-rule="evenodd"
         id="path4" />
    </clipPath>
    <clipPath
       clipPathUnits="userSpaceOnUse"
       id="clipPath6">
      <path
         d="M 0,0 H 1295.8333 V 698.67511 H 0 Z"
         transform="matrix(0.33491962,0,0,0.33491962,-0.49999999,-0.49999999)"
         clip-rule="evenodd"
         id="path6" />
    </clipPath>
    <clipPath
       clipPathUnits="userSpaceOnUse"
       id="clipPath8">
      <path
         d="M 0,0 H 1295.8333 V 698.67511 H 0 Z"
         transform="matrix(0.33491962,0,0,0.33491962,-0.49999999,-0.49999999)"
         clip-rule="evenodd"
         id="path8" />
    </clipPath>
    <clipPath
       clipPathUnits="userSpaceOnUse"
       id="clipPath9">
      <path
         d="M 0,0 H 1295.8333 V 698.67511 H 0 Z"
         transform="matrix(0.33491628,0,0,0.33491628,-18.0625,-108)"
         clip-rule="evenodd"
         id="path9" />
    </clipPath>
    <clipPath
       clipPathUnits="userSpaceOnUse"
       id="clipPath10">
      <path
         d="M 0,0 H 1295.8333 V 698.67511 H 0 Z"
         transform="matrix(0.33491628,0,0,0.33491628,-24.953125,-126)"
         clip-rule="evenodd"
         id="path10" />
    </clipPath>
    <clipPath
       clipPathUnits="userSpaceOnUse"
       id="clipPath12">
      <path
         d="M 0,0 H 1295.8333 V 698.67511 H 0 Z"
         transform="matrix(0.33491962,0,0,0.33491962,-0.49999999,-0.49999999)"
         clip-rule="evenodd"
         id="path12" />
    </clipPath>
    <clipPath
       clipPathUnits="userSpaceOnUse"
       id="clipPath13">
      <path
         d="M 0,0 H 1295.8333 V 698.67511 H 0 Z"
         transform="matrix(0.33491628,0,0,0.33491628,-25.78125,-198)"
         clip-rule="evenodd"
         id="path13" />
    </clipPath>
    <clipPath
       clipPathUnits="userSpaceOnUse"
       id="clipPath14">
      <path
         d="M 0,0 H 1295.8333 V 698.67511 H 0 Z"
         transform="matrix(0.33491628,0,0,0.33491628,-54.71875,-216)"
         clip-rule="evenodd"
         id="path14" />
    </clipPath>
    <clipPath
       clipPathUnits="userSpaceOnUse"
       id="clipPath16">
      <path
         d="M 0,0 H 1295.8333 V 698.67511 H 0 Z"
         transform="matrix(0.33491962,0,0,0.33491962,-0.49999999,-0.49999999)"
         clip-rule="evenodd"
         id="path16" />
    </clipPath>
    <clipPath
       clipPathUnits="userSpaceOnUse"
       id="clipPath17">
      <path
         d="M 0,0 H 1295.8333 V 698.67511 H 0 Z"
         transform="matrix(0.33491628,0,0,0.33491628,-72.734374,-37.999999)"
         clip-rule="evenodd"
         id="path17" />
    </clipPath>
    <clipPath
       clipPathUnits="userSpaceOnUse"
       id="clipPath19">
      <path
         d="M 0,0 H 1295.8333 V 698.67511 H 0 Z"
         transform="matrix(0.33491962,0,0,0.33491962,-0.49999999,-0.49999999)"
         clip-rule="evenodd"
         id="path19" />
    </clipPath>
    <clipPath
       clipPathUnits="userSpaceOnUse"
       id="clipPath20">
      <path
         d="M 0,0 H 1295.8333 V 698.67511 H 0 Z"
         transform="matrix(0.33491628,0,0,0.33491628,-213,-99)"
         clip-rule="evenodd"
         id="path20" />
    </clipPath>
    <clipPath
       clipPathUnits="userSpaceOnUse"
       id="clipPath21">
      <path
         d="M 0,0 H 1295.8333 V 698.67511 H 0 Z"
         transform="matrix(0.33491628,0,0,0.33491628,-273.4209,-99)"
         clip-rule="evenodd"
         id="path21" />
    </clipPath>
    <clipPath
       clipPathUnits="userSpaceOnUse"
       id="clipPath22">
      <path
         d="M 0,0 H 1295.8333 V 698.67511 H 0 Z"
         transform="matrix(0.33491628,0,0,0.33491628,-213,-116)"
         clip-rule="evenodd"
         id="path22" />
    </clipPath>
    <clipPath
       clipPathUnits="userSpaceOnUse"
       id="clipPath23">
      <path
         d="M 0,0 H 1295.8333 V 698.67511 H 0 Z"
         transform="matrix(0.33491628,0,0,0.33491628,-244.12402,-116)"
         clip-rule="evenodd"
         id="path23" />
    </clipPath>
    <clipPath
       clipPathUnits="userSpaceOnUse"
       id="clipPath24">
      <path
         d="M 0,0 H 1295.8333 V 698.67511 H 0 Z"
         transform="matrix(0.33491628,0,0,0.33491628,-213,-133)"
         clip-rule="evenodd"
         id="path24" />
    </clipPath>
    <clipPath
       clipPathUnits="userSpaceOnUse"
       id="clipPath25">
      <path
         d="M 0,0 H 1295.8333 V 698.67511 H 0 Z"
         transform="matrix(0.33491628,0,0,0.33491628,-269.01465,-133)"
         clip-rule="evenodd"
         id="path25" />
    </clipPath>
    <clipPath
       clipPathUnits="userSpaceOnUse"
       id="clipPath27">
      <path
         d="M 0,0 H 1295.8333 V 698.67511 H 0 Z"
         transform="matrix(0.33491962,0,0,0.33491962,-0.49999999,-0.49999999)"
         clip-rule="evenodd"
         id="path27" />
    </clipPath>
    <clipPath
       clipPathUnits="userSpaceOnUse"
       id="clipPath29">
      <path
         d="M 0,0 H 1295.8333 V 698.67511 H 0 Z"
         transform="matrix(0.33491962,0,0,0.33491962,-0.49999999,-0.49999999)"
         clip-rule="evenodd"
         id="path29" />
    </clipPath>
    <clipPath
       clipPathUnits="userSpaceOnUse"
       id="clipPath31">
      <path
         d="M 0,0 H 1295.8333 V 698.67511 H 0 Z"
         transform="matrix(0.33491962,0,0,0.33491962,-0.49999999,-0.49999999)"
         clip-rule="evenodd"
         id="path31" />
    </clipPath>
    <clipPath
       clipPathUnits="userSpaceOnUse"
       id="clipPath32">
      <path
         d="M 0,0 H 1295.8333 V 698.67511 H 0 Z"
         transform="matrix(0.33491628,0,0,0.33491628,-213,-188.99999)"
         clip-rule="evenodd"
         id="path32" />
    </clipPath>
    <clipPath
       clipPathUnits="userSpaceOnUse"
       id="clipPath33">
      <path
         d="M 0,0 H 1295.8333 V 698.67511 H 0 Z"
         transform="matrix(0.33491628,0,0,0.33491628,-273.4209,-188.99999)"
         clip-rule="evenodd"
         id="path33" />
    </clipPath>
    <clipPath
       clipPathUnits="userSpaceOnUse"
       id="clipPath34">
      <path
         d="M 0,0 H 1295.8333 V 698.67511 H 0 Z"
         transform="matrix(0.33491628,0,0,0.33491628,-213,-206)"
         clip-rule="evenodd"
         id="path34" />
    </clipPath>
    <clipPath
       clipPathUnits="userSpaceOnUse"
       id="clipPath35">
      <path
         d="M 0,0 H 1295.8333 V 698.67511 H 0 Z"
         transform="matrix(0.33491628,0,0,0.33491628,-244.12402,-206)"
         clip-rule="evenodd"
         id="path35" />
    </clipPath>
    <clipPath
       clipPathUnits="userSpaceOnUse"
       id="clipPath36">
      <path
         d="M 0,0 H 1295.8333 V 698.67511 H 0 Z"
         transform="matrix(0.33491628,0,0,0.33491628,-213,-223)"
         clip-rule="evenodd"
         id="path36" />
    </clipPath>
    <clipPath
       clipPathUnits="userSpaceOnUse"
       id="clipPath37">
      <path
         d="M 0,0 H 1295.8333 V 698.67511 H 0 Z"
         transform="matrix(0.33491628,0,0,0.33491628,-269.01465,-223)"
         clip-rule="evenodd"
         id="path37" />
    </clipPath>
  </defs>
  <sodipodi:namedview
     id="namedview1"
     pagecolor="#ffffff"
     bordercolor="#000000"
     borderopacity="0.25"
     inkscape:showpageshadow="2"
     inkscape:pageopacity="0.0"
     inkscape:pagecheckerboard="0"
     inkscape:deskcolor="#d1d1d1">
    <inkscape:page
       x="0"
       y="0"
       inkscape:label="1"
       id="page1"
       width="414.71997"
       height="225.27998"
       margin="0"
       bleed="0" />
  </sodipodi:namedview>
  <g
     id="g1"
     inkscape:groupmode="layer"
     inkscape:label="1">
    <path
       id="path1"
       d="M 0,0 H 434 V 235 H 0 Z"
       style="fill:#ffffff;fill-opacity:1;fill-rule:nonzero;stroke:none"
       transform="scale(0.95545308)"
       clip-path="url(#clipPath2)" />
    <path
       id="path3"
       d="m 161,111 h 20 13.63"
       style="fill:none;stroke:#000000;stroke-width:1;stroke-linecap:butt;stroke-linejoin:miter;stroke-miterlimit:10;stroke-dasharray:none;stroke-opacity:1"
       transform="matrix(0.95545308,0,0,0.95545308,0.47772653,0.47772653)"
       clip-path="url(#clipPath4)" />
    <path
       id="path5"
       d="m 199.88,111 -7,3.5 1.75,-3.5 -1.75,-3.5 z"
       style="fill:#000000;fill-opacity:1;fill-rule:nonzero;stroke:#000000;stroke-width:1;stroke-linecap:butt;stroke-linejoin:miter;stroke-miterlimit:10;stroke-dasharray:none;stroke-opacity:1"
       transform="matrix(0.95545308,0,0,0.95545308,0.47772653,0.47772653)"
       clip-path="url(#clipPath6)" />
    <path
       id="path7"
       d="m 1,81 h 160 v 60 H 1 Z"
       style="fill:#ffffff;fill-opacity:1;fill-rule:nonzero;stroke:#000000;stroke-width:1;stroke-linecap:butt;stroke-linejoin:miter;stroke-miterlimit:10;stroke-dasharray:none;stroke-opacity:1"
       transform="matrix(0.95545308,0,0,0.95545308,0.47772653,0.47772653)"
       clip-path="url(#clipPath8)" />
    <text
       id="text8"
       xml:space="preserve"
       transform="matrix(0.95546262,0,0,0.95546262,17.258044,103.18996)"
       clip-path="url(#clipPath9)"><tspan
         style="font-variant:normal;font-weight:normal;font-size:15px;font-family:Helvetica;writing-mode:lr-tb;fill:#000000;fill-opacity:1;fill-rule:nonzero;stroke:none"
         x="0 14.157715 17.490234 21.657715 30 38.342285 43.337402 51.679688 62.512207 66.679688 75.021973 83.364258 91.706543 95.874023 100.0415 105.03662 113.37891"
         y="0"
         sodipodi:role="line"
         id="tspan8">Withdraw $50 from</tspan></text>
    <text
       id="text9"
       xml:space="preserve"
       transform="matrix(0.95546262,0,0,0.95546262,23.841778,120.38829)"
       clip-path="url(#clipPath10)"><tspan
         style="font-variant:normal;font-weight:normal;font-size:15px;font-family:Helvetica;writing-mode:lr-tb;fill:#000000;fill-opacity:1;fill-rule:nonzero;stroke:none"
         x="0 10.004883 13.337402 20.837402 28.337402 36.679688 45.021973 47.885742 55.385742 59.553223 67.895508 75.395508 82.895508 91.237793 99.580078 107.92236"
         y="0"
         sodipodi:role="line"
         id="tspan9">Alyson's account</tspan></text>
    <path
       id="path11"
       d="m 1,171 h 160 v 60 H 1 Z"
       style="fill:#ffffff;fill-opacity:1;fill-rule:nonzero;stroke:#000000;stroke-width:1;stroke-linecap:butt;stroke-linejoin:miter;stroke-miterlimit:10;stroke-dasharray:none;stroke-opacity:1"
       transform="matrix(0.95545308,0,0,0.95545308,0.47772653,0.47772653)"
       clip-path="url(#clipPath12)" />
    <text
       id="text12"
       xml:space="preserve"
       transform="matrix(0.95546262,0,0,0.95546262,24.633021,189.1816)"
       clip-path="url(#clipPath13)"><tspan
         style="font-variant:normal;font-weight:normal;font-size:15px;font-family:Helvetica;writing-mode:lr-tb;fill:#000000;fill-opacity:1;fill-rule:nonzero;stroke:none"
         x="0 10.004883 18.347168 26.689453 30.856934 39.199219 47.541504 55.883789 60.05127 64.21875 72.561035 76.728516 88.395996 91.728516 100.0708 102.93457"
         y="0"
         sodipodi:role="line"
         id="tspan12">Add $50 to Gia's</tspan></text>
    <text
       id="text13"
       xml:space="preserve"
       transform="matrix(0.95546262,0,0,0.95546262,52.28172,206.37993)"
       clip-path="url(#clipPath14)"><tspan
         style="font-variant:normal;font-weight:normal;font-size:15px;font-family:Helvetica;writing-mode:lr-tb;fill:#000000;fill-opacity:1;fill-rule:nonzero;stroke:none"
         x="0 8.3422852 15.842285 23.342285 31.68457 40.026855 48.369141"
         y="0"
         sodipodi:role="line"
         id="tspan13">account</tspan></text>
    <path
       id="path15"
       d="M 1,1 H 431 V 61 H 1 Z"
       style="fill:#dae8fc;fill-opacity:1;fill-rule:nonzero;stroke:#6c8ebf;stroke-width:1;stroke-linecap:butt;stroke-linejoin:miter;stroke-miterlimit:10;stroke-dasharray:none;stroke-opacity:1"
       transform="matrix(0.95545308,0,0,0.95545308,0.47772653,0.47772653)"
       clip-path="url(#clipPath16)" />
    <text
       id="text16"
       xml:space="preserve"
       transform="matrix(0.95546262,0,0,0.95546262,69.494976,36.307579)"
       clip-path="url(#clipPath17)"><tspan
         style="font-variant:normal;font-weight:700;font-size:19px;font-family:Helvetica;writing-mode:lr-tb;fill:#000000;fill-opacity:1;fill-rule:nonzero;stroke:none"
         x="0 10.566895 17.960938 28.527832 40.133789 50.700684 57.027832 67.594727 74.98877 80.267578 90.834473 101.40137 111.96826 117.24707 123.57422 130.96826 142.57422 159.46826 164.05127 177.77246 183.05127 193.61816 204.18506 215.79102 227.39697 232.67578 239.00293 250.60889 255.8877 270.6665 275.94531"
         y="0"
         sodipodi:role="line"
         id="tspan16">Transfer $50 from Alyson to Gia</tspan></text>
    <path
       id="path18"
       d="m 201,81 h 230 v 60 H 201 Z"
       style="fill:#f5f5f5;fill-opacity:1;fill-rule:nonzero;stroke:#666666;stroke-width:1;stroke-linecap:butt;stroke-linejoin:miter;stroke-miterlimit:10;stroke-dasharray:none;stroke-opacity:1"
       transform="matrix(0.95545308,0,0,0.95545308,0.47772653,0.47772653)"
       clip-path="url(#clipPath19)" />
    <text
       id="text19"
       xml:space="preserve"
       transform="matrix(0.95546262,0,0,0.95546262,203.51354,94.590799)"
       clip-path="url(#clipPath20)"><tspan
         style="font-variant:normal;font-weight:700;font-size:14px;font-family:Helvetica;writing-mode:lr-tb;fill:#333333;fill-opacity:1;fill-rule:nonzero;stroke:none"
         x="0 10.110352 19.448242 29.558594 38.636719 47.188477"
         y="0"
         sodipodi:role="line"
         id="tspan19">UPDATE</tspan></text>
    <text
       id="text20"
       xml:space="preserve"
       transform="matrix(0.95546262,0,0,0.95546262,261.24345,94.590799)"
       clip-path="url(#clipPath21)"><tspan
         style="font-variant:normal;font-weight:normal;font-size:14px;font-family:Helvetica;writing-mode:lr-tb;fill:#333333;fill-opacity:1;fill-rule:nonzero;stroke:none"
         x="0 7.7861328 14.786133 21.786133 29.572266 37.358398 45.144531 49.03418"
         y="0"
         sodipodi:role="line"
         id="tspan20">accounts</tspan></text>
    <text
       id="text21"
       xml:space="preserve"
       transform="matrix(0.95546262,0,0,0.95546262,203.51354,110.83366)"
       clip-path="url(#clipPath22)"><tspan
         style="font-variant:normal;font-weight:700;font-size:14px;font-family:Helvetica;writing-mode:lr-tb;fill:#333333;fill-opacity:1;fill-rule:nonzero;stroke:none"
         x="0 9.3378906 18.675781"
         y="0"
         sodipodi:role="line"
         id="tspan21">SET</tspan></text>
    <text
       id="text22"
       xml:space="preserve"
       transform="matrix(0.95546262,0,0,0.95546262,233.25138,110.83366)"
       clip-path="url(#clipPath23)"><tspan
         style="font-variant:normal;font-weight:normal;font-size:14px;font-family:Helvetica;writing-mode:lr-tb;fill:#333333;fill-opacity:1;fill-rule:nonzero;stroke:none"
         x="0 7.7861328 15.572266 18.682617 26.46875 34.254883 41.254883 49.041016 52.930664 61.106445 64.996094 72.782227 80.568359 83.678711 91.464844 99.250977 106.25098 114.03711 117.92676 122.58887 126.47852 134.26465"
         y="0"
         sodipodi:role="line"
         id="tspan22">balance = balance - 50</tspan></text>
    <text
       id="text23"
       xml:space="preserve"
       transform="matrix(0.95546262,0,0,0.95546262,203.51354,127.07653)"
       clip-path="url(#clipPath24)"><tspan
         style="font-variant:normal;font-weight:700;font-size:14px;font-family:Helvetica;writing-mode:lr-tb;fill:#333333;fill-opacity:1;fill-rule:nonzero;stroke:none"
         x="0 13.213867 23.324219 32.662109 42.772461"
         y="0"
         sodipodi:role="line"
         id="tspan23">WHERE</tspan></text>
    <text
       id="text24"
       xml:space="preserve"
       transform="matrix(0.95546262,0,0,0.95546262,257.03344,127.07653)"
       clip-path="url(#clipPath25)"><tspan
         style="font-variant:normal;font-weight:normal;font-size:14px;font-family:Helvetica;writing-mode:lr-tb;fill:#333333;fill-opacity:1;fill-rule:nonzero;stroke:none"
         x="0 7.7861328 15.572266 27.234375 35.020508 38.910156 47.085938 50.975586 53.648438 62.986328 66.09668 73.09668 80.09668 87.882812 95.668945 98.341797"
         y="0"
         sodipodi:role="line"
         id="tspan24">name = 'Alyson';</tspan></text>
    <path
       id="path26"
       d="m 161,201 21,0.5 12.64,-0.33"
       style="fill:none;stroke:#000000;stroke-width:1;stroke-linecap:butt;stroke-linejoin:miter;stroke-miterlimit:10;stroke-dasharray:none;stroke-opacity:1"
       transform="matrix(0.95545308,0,0,0.95545308,0.47772653,0.47772653)"
       clip-path="url(#clipPath27)" />
    <path
       id="path28"
       d="m 199.88,201.03 -6.9,3.68001 1.66,-3.54001 -1.84,-3.45 z"
       style="fill:#000000;fill-opacity:1;fill-rule:nonzero;stroke:#000000;stroke-width:1;stroke-linecap:butt;stroke-linejoin:miter;stroke-miterlimit:10;stroke-dasharray:none;stroke-opacity:1"
       transform="matrix(0.95545308,0,0,0.95545308,0.47772653,0.47772653)"
       clip-path="url(#clipPath29)" />
    <path
       id="path30"
       d="m 201,171 h 230 v 60 H 201 Z"
       style="fill:#f5f5f5;fill-opacity:1;fill-rule:nonzero;stroke:#666666;stroke-width:1;stroke-linecap:butt;stroke-linejoin:miter;stroke-miterlimit:10;stroke-dasharray:none;stroke-opacity:1"
       transform="matrix(0.95545308,0,0,0.95545308,0.47772653,0.47772653)"
       clip-path="url(#clipPath31)" />
    <text
       id="text31"
       xml:space="preserve"
       transform="matrix(0.95546262,0,0,0.95546262,203.51354,180.58243)"
       clip-path="url(#clipPath32)"><tspan
         style="font-variant:normal;font-weight:700;font-size:14px;font-family:Helvetica;writing-mode:lr-tb;fill:#333333;fill-opacity:1;fill-rule:nonzero;stroke:none"
         x="0 10.110352 19.448242 29.558594 38.636719 47.188477"
         y="0"
         sodipodi:role="line"
         id="tspan31">UPDATE</tspan></text>
    <text
       id="text32"
       xml:space="preserve"
       transform="matrix(0.95546262,0,0,0.95546262,261.24345,180.58243)"
       clip-path="url(#clipPath33)"><tspan
         style="font-variant:normal;font-weight:normal;font-size:14px;font-family:Helvetica;writing-mode:lr-tb;fill:#333333;fill-opacity:1;fill-rule:nonzero;stroke:none"
         x="0 7.7861328 14.786133 21.786133 29.572266 37.358398 45.144531 49.03418"
         y="0"
         sodipodi:role="line"
         id="tspan32">accounts</tspan></text>
    <text
       id="text33"
       xml:space="preserve"
       transform="matrix(0.95546262,0,0,0.95546262,203.51354,196.8253)"
       clip-path="url(#clipPath34)"><tspan
         style="font-variant:normal;font-weight:700;font-size:14px;font-family:Helvetica;writing-mode:lr-tb;fill:#333333;fill-opacity:1;fill-rule:nonzero;stroke:none"
         x="0 9.3378906 18.675781"
         y="0"
         sodipodi:role="line"
         id="tspan33">SET</tspan></text>
    <text
       id="text34"
       xml:space="preserve"
       transform="matrix(0.95546262,0,0,0.95546262,233.25138,196.8253)"
       clip-path="url(#clipPath35)"><tspan
         style="font-variant:normal;font-weight:normal;font-size:14px;font-family:Helvetica;writing-mode:lr-tb;fill:#333333;fill-opacity:1;fill-rule:nonzero;stroke:none"
         x="0 7.7861328 15.572266 18.682617 26.46875 34.254883 41.254883 49.041016 52.930664 61.106445 64.996094 72.782227 80.568359 83.678711 91.464844 99.250977 106.25098 114.03711 117.92676 126.10254 129.99219 137.77832"
         y="0"
         sodipodi:role="line"
         id="tspan34">balance = balance + 50</tspan></text>
    <text
       id="text35"
       xml:space="preserve"
       transform="matrix(0.95546262,0,0,0.95546262,203.51354,213.06816)"
       clip-path="url(#clipPath36)"><tspan
         style="font-variant:normal;font-weight:700;font-size:14px;font-family:Helvetica;writing-mode:lr-tb;fill:#333333;fill-opacity:1;fill-rule:nonzero;stroke:none"
         x="0 13.213867 23.324219 32.662109 42.772461"
         y="0"
         sodipodi:role="line"
         id="tspan35">WHERE</tspan></text>
    <text
       id="text36"
       xml:space="preserve"
       transform="matrix(0.95546262,0,0,0.95546262,257.03344,213.06816)"
       clip-path="url(#clipPath37)"><tspan
         style="font-variant:normal;font-weight:normal;font-size:14px;font-family:Helvetica;writing-mode:lr-tb;fill:#333333;fill-opacity:1;fill-rule:nonzero;stroke:none"
         x="0 7.7861328 15.572266 27.234375 35.020508 38.910156 47.085938 50.975586 53.648438 64.538086 67.648438 75.43457 78.107422"
         y="0"
         sodipodi:role="line"
         id="tspan36">name = 'Gia';</tspan></text>
  </g>
</svg>
