<?xml version="1.0" encoding="UTF-8" standalone="no"?>
<!-- Created with Inkscape (http://www.inkscape.org/) -->

<svg
   version="1.1"
   id="svg1"
   width="741.44"
   height="426.55997"
   viewBox="0 0 741.44 426.55997"
   sodipodi:docname="sql-11.pdf"
   xmlns:inkscape="http://www.inkscape.org/namespaces/inkscape"
   xmlns:sodipodi="http://sodipodi.sourceforge.net/DTD/sodipodi-0.dtd"
   xmlns="http://www.w3.org/2000/svg"
   xmlns:svg="http://www.w3.org/2000/svg">
  <defs
     id="defs1">
    <clipPath
       clipPathUnits="userSpaceOnUse"
       id="clipPath2">
      <path
         d="M 0,0 H 2316.6665 V 1331.9336 H 0 Z"
         transform="scale(0.33410074)"
         clip-rule="evenodd"
         id="path2" />
    </clipPath>
    <clipPath
       clipPathUnits="userSpaceOnUse"
       id="clipPath4">
      <path
         d="M 0,0 H 2316.6665 V 1328.9406 H 0 Z"
         transform="matrix(0.33410074,0,0,0.33410074,-0.50000001,-0.50000001)"
         clip-rule="evenodd"
         id="path4" />
    </clipPath>
    <clipPath
       clipPathUnits="userSpaceOnUse"
       id="clipPath6">
      <path
         d="M 0,0 H 2316.6665 V 1328.9406 H 0 Z"
         transform="matrix(0.33410074,0,0,0.33410074,-0.50000001,-0.50000001)"
         clip-rule="evenodd"
         id="path6" />
    </clipPath>
    <clipPath
       clipPathUnits="userSpaceOnUse"
       id="clipPath7">
      <path
         d="M 0,0 H 2316.6665 V 1328.9406 H 0 Z"
         transform="matrix(0.33409738,0,0,0.33409738,-63.5,-28)"
         clip-rule="evenodd"
         id="path7" />
    </clipPath>
    <clipPath
       clipPathUnits="userSpaceOnUse"
       id="clipPath8">
      <path
         d="M 0,0 H 2316.6665 V 1328.9406 H 0 Z"
         transform="matrix(0.33409738,0,0,0.33409738,-30.46875,-105)"
         clip-rule="evenodd"
         id="path8" />
    </clipPath>
    <clipPath
       clipPathUnits="userSpaceOnUse"
       id="clipPath9">
      <path
         d="M 0,0 H 2316.6665 V 1328.9406 H 0 Z"
         transform="matrix(0.33409738,0,0,0.33409738,-26.453125,-127)"
         clip-rule="evenodd"
         id="path9" />
    </clipPath>
    <clipPath
       clipPathUnits="userSpaceOnUse"
       id="clipPath10">
      <path
         d="M 0,0 H 2316.6665 V 1328.9406 H 0 Z"
         transform="matrix(0.33409738,0,0,0.33409738,-31.953125,-149)"
         clip-rule="evenodd"
         id="path10" />
    </clipPath>
    <clipPath
       clipPathUnits="userSpaceOnUse"
       id="clipPath11">
      <path
         d="M 0,0 H 2316.6665 V 1328.9406 H 0 Z"
         transform="matrix(0.33409738,0,0,0.33409738,-42.984374,-170)"
         clip-rule="evenodd"
         id="path11" />
    </clipPath>
    <clipPath
       clipPathUnits="userSpaceOnUse"
       id="clipPath13">
      <path
         d="M 0,0 H 2316.6665 V 1328.9406 H 0 Z"
         transform="matrix(0.33410074,0,0,0.33410074,-0.50000001,-0.50000001)"
         clip-rule="evenodd"
         id="path13" />
    </clipPath>
    <clipPath
       clipPathUnits="userSpaceOnUse"
       id="clipPath15">
      <path
         d="M 0,0 H 2316.6665 V 1328.9406 H 0 Z"
         transform="matrix(0.33410074,0,0,0.33410074,-0.50000001,-0.50000001)"
         clip-rule="evenodd"
         id="path15" />
    </clipPath>
    <clipPath
       clipPathUnits="userSpaceOnUse"
       id="clipPath16">
      <path
         d="M 0,0 H 2316.6665 V 1328.9406 H 0 Z"
         transform="matrix(0.33409738,0,0,0.33409738,-235.73438,-106)"
         clip-rule="evenodd"
         id="path16" />
    </clipPath>
    <clipPath
       clipPathUnits="userSpaceOnUse"
       id="clipPath17">
      <path
         d="M 0,0 H 2316.6665 V 1328.9406 H 0 Z"
         transform="matrix(0.33409738,0,0,0.33409738,-200.625,-119.99999)"
         clip-rule="evenodd"
         id="path17" />
    </clipPath>
    <clipPath
       clipPathUnits="userSpaceOnUse"
       id="clipPath19">
      <path
         d="M 0,0 H 2316.6665 V 1328.9406 H 0 Z"
         transform="matrix(0.33410074,0,0,0.33410074,-0.50000001,-0.50000001)"
         clip-rule="evenodd"
         id="path19" />
    </clipPath>
    <clipPath
       clipPathUnits="userSpaceOnUse"
       id="clipPath20">
      <path
         d="M 0,0 H 2316.6665 V 1328.9406 H 0 Z"
         transform="matrix(0.33409738,0,0,0.33409738,-190.125,-138)"
         clip-rule="evenodd"
         id="path20" />
    </clipPath>
    <clipPath
       clipPathUnits="userSpaceOnUse"
       id="clipPath22">
      <path
         d="M 0,0 H 2316.6665 V 1328.9406 H 0 Z"
         transform="matrix(0.33410074,0,0,0.33410074,-0.50000001,-0.50000001)"
         clip-rule="evenodd"
         id="path22" />
    </clipPath>
    <clipPath
       clipPathUnits="userSpaceOnUse"
       id="clipPath23">
      <path
         d="M 0,0 H 2316.6665 V 1328.9406 H 0 Z"
         transform="matrix(0.33409738,0,0,0.33409738,-457.96875,-28)"
         clip-rule="evenodd"
         id="path23" />
    </clipPath>
    <clipPath
       clipPathUnits="userSpaceOnUse"
       id="clipPath25">
      <path
         d="M 0,0 H 2316.6665 V 1328.9406 H 0 Z"
         transform="matrix(0.33410074,0,0,0.33410074,-0.50000001,-0.50000001)"
         clip-rule="evenodd"
         id="path25" />
    </clipPath>
    <clipPath
       clipPathUnits="userSpaceOnUse"
       id="clipPath26">
      <path
         d="M 0,0 H 2316.6665 V 1328.9406 H 0 Z"
         transform="matrix(0.33409738,0,0,0.33409738,-395.29687,-67.999999)"
         clip-rule="evenodd"
         id="path26" />
    </clipPath>
    <clipPath
       clipPathUnits="userSpaceOnUse"
       id="clipPath27">
      <path
         d="M 0,0 H 2316.6665 V 1328.9406 H 0 Z"
         transform="matrix(0.33409738,0,0,0.33409738,-472.64063,-82)"
         clip-rule="evenodd"
         id="path27" />
    </clipPath>
    <clipPath
       clipPathUnits="userSpaceOnUse"
       id="clipPath29">
      <path
         d="M 0,0 H 2316.6665 V 1328.9406 H 0 Z"
         transform="matrix(0.33410074,0,0,0.33410074,-0.50000001,-0.50000001)"
         clip-rule="evenodd"
         id="path29" />
    </clipPath>
    <clipPath
       clipPathUnits="userSpaceOnUse"
       id="clipPath30">
      <path
         d="M 0,0 H 2316.6665 V 1328.9406 H 0 Z"
         transform="matrix(0.33409738,0,0,0.33409738,-390.70313,-115)"
         clip-rule="evenodd"
         id="path30" />
    </clipPath>
    <clipPath
       clipPathUnits="userSpaceOnUse"
       id="clipPath31">
      <path
         d="M 0,0 H 2316.6665 V 1328.9406 H 0 Z"
         transform="matrix(0.33409738,0,0,0.33409738,-407.53125,-129)"
         clip-rule="evenodd"
         id="path31" />
    </clipPath>
    <clipPath
       clipPathUnits="userSpaceOnUse"
       id="clipPath33">
      <path
         d="M 0,0 H 2316.6665 V 1328.9406 H 0 Z"
         transform="matrix(0.33410074,0,0,0.33410074,-0.50000001,-0.50000001)"
         clip-rule="evenodd"
         id="path33" />
    </clipPath>
    <clipPath
       clipPathUnits="userSpaceOnUse"
       id="clipPath35">
      <path
         d="M 0,0 H 2316.6665 V 1328.9406 H 0 Z"
         transform="matrix(0.33410074,0,0,0.33410074,-0.50000001,-0.50000001)"
         clip-rule="evenodd"
         id="path35" />
    </clipPath>
    <clipPath
       clipPathUnits="userSpaceOnUse"
       id="clipPath37">
      <path
         d="M 0,0 H 2316.6665 V 1328.9406 H 0 Z"
         transform="matrix(0.33410074,0,0,0.33410074,-0.50000001,-0.50000001)"
         clip-rule="evenodd"
         id="path37" />
    </clipPath>
    <clipPath
       clipPathUnits="userSpaceOnUse"
       id="clipPath38">
      <path
         d="M 0,0 H 2316.6665 V 1328.9406 H 0 Z"
         transform="matrix(0.33409738,0,0,0.33409738,-416.125,-168)"
         clip-rule="evenodd"
         id="path38" />
    </clipPath>
    <clipPath
       clipPathUnits="userSpaceOnUse"
       id="clipPath40">
      <path
         d="M 0,0 H 2316.6665 V 1328.9406 H 0 Z"
         transform="matrix(0.33410074,0,0,0.33410074,-0.50000001,-0.50000001)"
         clip-rule="evenodd"
         id="path40" />
    </clipPath>
    <clipPath
       clipPathUnits="userSpaceOnUse"
       id="clipPath42">
      <path
         d="M 0,0 H 2316.6665 V 1328.9406 H 0 Z"
         transform="matrix(0.33410074,0,0,0.33410074,-0.50000001,-0.50000001)"
         clip-rule="evenodd"
         id="path42" />
    </clipPath>
    <clipPath
       clipPathUnits="userSpaceOnUse"
       id="clipPath44">
      <path
         d="M 0,0 H 2316.6665 V 1328.9406 H 0 Z"
         transform="matrix(0.33410074,0,0,0.33410074,-0.50000001,-0.50000001)"
         clip-rule="evenodd"
         id="path44" />
    </clipPath>
    <clipPath
       clipPathUnits="userSpaceOnUse"
       id="clipPath46">
      <path
         d="M 0,0 H 2316.6665 V 1328.9406 H 0 Z"
         transform="matrix(0.33410074,0,0,0.33410074,-0.50000001,-0.50000001)"
         clip-rule="evenodd"
         id="path46" />
    </clipPath>
    <clipPath
       clipPathUnits="userSpaceOnUse"
       id="clipPath47">
      <path
         d="M 0,0 H 2316.6665 V 1328.9406 H 0 Z"
         transform="matrix(0.33409738,0,0,0.33409738,-415.51563,-215)"
         clip-rule="evenodd"
         id="path47" />
    </clipPath>
    <clipPath
       clipPathUnits="userSpaceOnUse"
       id="clipPath49">
      <path
         d="M 0,0 H 2316.6665 V 1328.9406 H 0 Z"
         transform="matrix(0.33410074,0,0,0.33410074,-0.50000001,-0.50000001)"
         clip-rule="evenodd"
         id="path49" />
    </clipPath>
    <clipPath
       clipPathUnits="userSpaceOnUse"
       id="clipPath51">
      <path
         d="M 0,0 H 2316.6665 V 1328.9406 H 0 Z"
         transform="matrix(0.33410074,0,0,0.33410074,-0.50000001,-0.50000001)"
         clip-rule="evenodd"
         id="path51" />
    </clipPath>
    <clipPath
       clipPathUnits="userSpaceOnUse"
       id="clipPath53">
      <path
         d="M 0,0 H 2316.6665 V 1328.9406 H 0 Z"
         transform="matrix(0.33410074,0,0,0.33410074,-0.50000001,-0.50000001)"
         clip-rule="evenodd"
         id="path53" />
    </clipPath>
    <clipPath
       clipPathUnits="userSpaceOnUse"
       id="clipPath55">
      <path
         d="M 0,0 H 2316.6665 V 1328.9406 H 0 Z"
         transform="matrix(0.33410074,0,0,0.33410074,-0.50000001,-0.50000001)"
         clip-rule="evenodd"
         id="path55" />
    </clipPath>
    <clipPath
       clipPathUnits="userSpaceOnUse"
       id="clipPath56">
      <path
         d="M 0,0 H 2316.6665 V 1328.9406 H 0 Z"
         transform="matrix(0.33409738,0,0,0.33409738,-455.5625,-265)"
         clip-rule="evenodd"
         id="path56" />
    </clipPath>
    <clipPath
       clipPathUnits="userSpaceOnUse"
       id="clipPath58">
      <path
         d="M 0,0 H 2316.6665 V 1328.9406 H 0 Z"
         transform="matrix(0.33410074,0,0,0.33410074,-0.50000001,-0.50000001)"
         clip-rule="evenodd"
         id="path58" />
    </clipPath>
    <clipPath
       clipPathUnits="userSpaceOnUse"
       id="clipPath60">
      <path
         d="M 0,0 H 2316.6665 V 1328.9406 H 0 Z"
         transform="matrix(0.33410074,0,0,0.33410074,-0.50000001,-0.50000001)"
         clip-rule="evenodd"
         id="path60" />
    </clipPath>
    <clipPath
       clipPathUnits="userSpaceOnUse"
       id="clipPath62">
      <path
         d="M 0,0 H 2316.6665 V 1328.9406 H 0 Z"
         transform="matrix(0.33410074,0,0,0.33410074,-0.50000001,-0.50000001)"
         clip-rule="evenodd"
         id="path62" />
    </clipPath>
    <clipPath
       clipPathUnits="userSpaceOnUse"
       id="clipPath64">
      <path
         d="M 0,0 H 2316.6665 V 1328.9406 H 0 Z"
         transform="matrix(0.33410074,0,0,0.33410074,-0.50000001,-0.50000001)"
         clip-rule="evenodd"
         id="path64" />
    </clipPath>
    <clipPath
       clipPathUnits="userSpaceOnUse"
       id="clipPath65">
      <path
         d="M 0,0 H 2316.6665 V 1328.9406 H 0 Z"
         transform="matrix(0.33409738,0,0,0.33409738,-427.4375,-315)"
         clip-rule="evenodd"
         id="path65" />
    </clipPath>
    <clipPath
       clipPathUnits="userSpaceOnUse"
       id="clipPath67">
      <path
         d="M 0,0 H 2316.6665 V 1328.9406 H 0 Z"
         transform="matrix(0.33410074,0,0,0.33410074,-0.50000001,-0.50000001)"
         clip-rule="evenodd"
         id="path67" />
    </clipPath>
    <clipPath
       clipPathUnits="userSpaceOnUse"
       id="clipPath69">
      <path
         d="M 0,0 H 2316.6665 V 1328.9406 H 0 Z"
         transform="matrix(0.33410074,0,0,0.33410074,-0.50000001,-0.50000001)"
         clip-rule="evenodd"
         id="path69" />
    </clipPath>
    <clipPath
       clipPathUnits="userSpaceOnUse"
       id="clipPath71">
      <path
         d="M 0,0 H 2316.6665 V 1328.9406 H 0 Z"
         transform="matrix(0.33410074,0,0,0.33410074,-0.50000001,-0.50000001)"
         clip-rule="evenodd"
         id="path71" />
    </clipPath>
    <clipPath
       clipPathUnits="userSpaceOnUse"
       id="clipPath73">
      <path
         d="M 0,0 H 2316.6665 V 1328.9406 H 0 Z"
         transform="matrix(0.33410074,0,0,0.33410074,-0.50000001,-0.50000001)"
         clip-rule="evenodd"
         id="path73" />
    </clipPath>
    <clipPath
       clipPathUnits="userSpaceOnUse"
       id="clipPath74">
      <path
         d="M 0,0 H 2316.6665 V 1328.9406 H 0 Z"
         transform="matrix(0.33409738,0,0,0.33409738,-437.51563,-365)"
         clip-rule="evenodd"
         id="path74" />
    </clipPath>
    <clipPath
       clipPathUnits="userSpaceOnUse"
       id="clipPath76">
      <path
         d="M 0,0 H 2316.6665 V 1328.9406 H 0 Z"
         transform="matrix(0.33410074,0,0,0.33410074,-0.50000001,-0.50000001)"
         clip-rule="evenodd"
         id="path76" />
    </clipPath>
    <clipPath
       clipPathUnits="userSpaceOnUse"
       id="clipPath78">
      <path
         d="M 0,0 H 2316.6665 V 1328.9406 H 0 Z"
         transform="matrix(0.33410074,0,0,0.33410074,-0.50000001,-0.50000001)"
         clip-rule="evenodd"
         id="path78" />
    </clipPath>
    <clipPath
       clipPathUnits="userSpaceOnUse"
       id="clipPath80">
      <path
         d="M 0,0 H 2316.6665 V 1328.9406 H 0 Z"
         transform="matrix(0.33410074,0,0,0.33410074,-0.50000001,-0.50000001)"
         clip-rule="evenodd"
         id="path80" />
    </clipPath>
    <clipPath
       clipPathUnits="userSpaceOnUse"
       id="clipPath82">
      <path
         d="M 0,0 H 2316.6665 V 1328.9406 H 0 Z"
         transform="matrix(0.33410074,0,0,0.33410074,-0.50000001,-0.50000001)"
         clip-rule="evenodd"
         id="path82" />
    </clipPath>
    <clipPath
       clipPathUnits="userSpaceOnUse"
       id="clipPath83">
      <path
         d="M 0,0 H 2316.6665 V 1328.9406 H 0 Z"
         transform="matrix(0.33409738,0,0,0.33409738,-712.99999,-275)"
         clip-rule="evenodd"
         id="path83" />
    </clipPath>
    <clipPath
       clipPathUnits="userSpaceOnUse"
       id="clipPath85">
      <path
         d="M 0,0 H 2316.6665 V 1328.9406 H 0 Z"
         transform="matrix(0.33410074,0,0,0.33410074,-0.50000001,-0.50000001)"
         clip-rule="evenodd"
         id="path85" />
    </clipPath>
    <clipPath
       clipPathUnits="userSpaceOnUse"
       id="clipPath86">
      <path
         d="M 0,0 H 2316.6665 V 1328.9406 H 0 Z"
         transform="matrix(0.33409738,0,0,0.33409738,-418.23438,-415)"
         clip-rule="evenodd"
         id="path86" />
    </clipPath>
    <clipPath
       clipPathUnits="userSpaceOnUse"
       id="clipPath88">
      <path
         d="M 0,0 H 2316.6665 V 1328.9406 H 0 Z"
         transform="matrix(0.33410074,0,0,0.33410074,-0.50000001,-0.50000001)"
         clip-rule="evenodd"
         id="path88" />
    </clipPath>
    <clipPath
       clipPathUnits="userSpaceOnUse"
       id="clipPath90">
      <path
         d="M 0,0 H 2316.6665 V 1328.9406 H 0 Z"
         transform="matrix(0.33410074,0,0,0.33410074,-0.50000001,-0.50000001)"
         clip-rule="evenodd"
         id="path90" />
    </clipPath>
    <clipPath
       clipPathUnits="userSpaceOnUse"
       id="clipPath92">
      <path
         d="M 0,0 H 2316.6665 V 1328.9406 H 0 Z"
         transform="matrix(0.33410074,0,0,0.33410074,-0.50000001,-0.50000001)"
         clip-rule="evenodd"
         id="path92" />
    </clipPath>
    <clipPath
       clipPathUnits="userSpaceOnUse"
       id="clipPath94">
      <path
         d="M 0,0 H 2316.6665 V 1328.9406 H 0 Z"
         transform="matrix(0.33410074,0,0,0.33410074,-0.50000001,-0.50000001)"
         clip-rule="evenodd"
         id="path94" />
    </clipPath>
  </defs>
  <sodipodi:namedview
     id="namedview1"
     pagecolor="#ffffff"
     bordercolor="#000000"
     borderopacity="0.25"
     inkscape:showpageshadow="2"
     inkscape:pageopacity="0.0"
     inkscape:pagecheckerboard="0"
     inkscape:deskcolor="#d1d1d1">
    <inkscape:page
       x="0"
       y="0"
       inkscape:label="1"
       id="page1"
       width="741.44"
       height="426.55997"
       margin="0"
       bleed="0" />
  </sodipodi:namedview>
  <g
     id="g1"
     inkscape:groupmode="layer"
     inkscape:label="1">
    <path
       id="path1"
       d="M 0,0 H 774 V 445 H 0 Z"
       style="fill:#ffffff;fill-opacity:1;fill-rule:nonzero;stroke:none"
       transform="scale(0.9577949)"
       clip-path="url(#clipPath2)" />
    <path
       id="path3"
       d="M 1,41 H 161 V 441 H 1 Z"
       style="fill:#f5f5f5;fill-opacity:1;fill-rule:nonzero;stroke:#666666;stroke-width:1;stroke-linecap:butt;stroke-linejoin:miter;stroke-miterlimit:10;stroke-dasharray:none;stroke-opacity:1"
       transform="matrix(0.9577949,0,0,0.9577949,0.47889746,0.47889746)"
       clip-path="url(#clipPath4)" />
    <path
       id="path5"
       d="M 1,1 H 161 V 41 H 1 Z"
       style="fill:#dae8fc;fill-opacity:1;fill-rule:nonzero;stroke:#6c8ebf;stroke-width:1;stroke-linecap:butt;stroke-linejoin:miter;stroke-miterlimit:10;stroke-dasharray:none;stroke-opacity:1"
       transform="matrix(0.9577949,0,0,0.9577949,0.47889746,0.47889746)"
       clip-path="url(#clipPath6)" />
    <text
       id="text6"
       xml:space="preserve"
       transform="matrix(0.95780454,0,0,0.95780454,60.820588,26.818527)"
       clip-path="url(#clipPath7)"><tspan
         style="font-variant:normal;font-weight:700;font-size:18px;font-family:Helvetica;writing-mode:lr-tb;fill:#000000;fill-opacity:1;fill-rule:nonzero;stroke:none"
         x="0 12.999023 23.994141"
         y="0"
         sodipodi:role="line"
         id="tspan6">App</tspan></text>
    <text
       id="text7"
       xml:space="preserve"
       transform="matrix(0.95780454,0,0,0.95780454,29.183107,100.56948)"
       clip-path="url(#clipPath8)"><tspan
         style="font-style:oblique;font-variant:normal;font-weight:normal;font-size:18px;font-family:Helvetica;writing-mode:lr-tb;fill:#000000;fill-opacity:1;fill-rule:nonzero;stroke:none"
         x="0 12.999023 21.999023 32.009766 38.003906 43.004883 48.005859 58.016602 67.016602 77.027344 86.027344 91.02832"
         y="0"
         sodipodi:role="line"
         id="tspan7">User takes a</tspan></text>
    <text
       id="text8"
       xml:space="preserve"
       transform="matrix(0.95780454,0,0,0.95780454,25.336923,121.64118)"
       clip-path="url(#clipPath9)"><tspan
         style="font-style:oblique;font-variant:normal;font-weight:normal;font-size:18px;font-family:Helvetica;writing-mode:lr-tb;fill:#000000;fill-opacity:1;fill-rule:nonzero;stroke:none"
         x="0 10.010742 20.021484 30.032227 35.033203 45.043945 50.044922 55.045898 65.056641 75.067383 85.078125 94.078125 99.079102"
         y="0"
         sodipodi:role="line"
         id="tspan8">photo, adds a</tspan></text>
    <text
       id="text9"
       xml:space="preserve"
       transform="matrix(0.95780454,0,0,0.95780454,30.604848,142.71288)"
       clip-path="url(#clipPath10)"><tspan
         style="font-style:oblique;font-variant:normal;font-weight:normal;font-size:18px;font-family:Helvetica;writing-mode:lr-tb;fill:#000000;fill-opacity:1;fill-rule:nonzero;stroke:none"
         x="0 9 19.010742 29.021484 34.022461 38.021484 48.032227 58.042969 63.043945 68.044922 78.055664 88.066406"
         y="0"
         sodipodi:role="line"
         id="tspan9">caption, and</tspan></text>
    <text
       id="text10"
       xml:space="preserve"
       transform="matrix(0.95780454,0,0,0.95780454,41.170629,162.82677)"
       clip-path="url(#clipPath11)"><tspan
         style="font-style:oblique;font-variant:normal;font-weight:normal;font-size:18px;font-family:Helvetica;writing-mode:lr-tb;fill:#000000;fill-opacity:1;fill-rule:nonzero;stroke:none"
         x="0 9 19.010742 29.021484 44.015625 48.014648 53.015625 62.015625 67.016602 71.015625"
         y="0"
         sodipodi:role="line"
         id="tspan10">submits it</tspan></text>
    <path
       id="path12"
       d="M 361,41 H 611 V 441 H 361 Z"
       style="fill:#f5f5f5;fill-opacity:1;fill-rule:nonzero;stroke:#666666;stroke-width:1;stroke-linecap:butt;stroke-linejoin:miter;stroke-miterlimit:10;stroke-dasharray:none;stroke-opacity:1"
       transform="matrix(0.9577949,0,0,0.9577949,0.47889746,0.47889746)"
       clip-path="url(#clipPath13)" />
    <path
       id="path14"
       d="m 181,96 h 159 v 25 H 181 Z"
       style="fill:#d5e8d4;fill-opacity:1;fill-rule:nonzero;stroke:#82b366;stroke-width:1;stroke-linecap:butt;stroke-linejoin:miter;stroke-miterlimit:10;stroke-dasharray:none;stroke-opacity:1"
       transform="matrix(0.9577949,0,0,0.9577949,0.47889746,0.47889746)"
       clip-path="url(#clipPath15)" />
    <text
       id="text15"
       xml:space="preserve"
       transform="matrix(0.95780454,0,0,0.95780454,225.78746,101.52728)"
       clip-path="url(#clipPath16)"><tspan
         style="font-variant:normal;font-weight:normal;font-size:11px;font-family:Helvetica;writing-mode:lr-tb;fill:#000000;fill-opacity:1;fill-rule:nonzero;stroke:none"
         x="0 3.6630859 9.7807617 17.724609 25.061523 31.179199 37.296875 40.353027 46.470703"
         y="0"
         sodipodi:role="line"
         id="tspan15">rawPhoto:</tspan></text>
    <g
       id="g16" />
    <g
       id="g17" />
    <text
       id="text17"
       xml:space="preserve"
       transform="matrix(0.95780454,0,0,0.95780454,192.15954,114.93654)"
       clip-path="url(#clipPath17)"><tspan
         style="font-variant:normal;font-weight:normal;font-size:11px;font-family:Helvetica;writing-mode:lr-tb;fill:#000000;fill-opacity:1;fill-rule:nonzero;stroke:none"
         x="0 2.1000977 4.5439453 10.043945 12.487793 17.987793 23.487793 29.605469 32.049316 38.166992 40.61084 43.666992 49.166992 55.284668 57.728516 63.228516 68.728516 74.228516 76.672363 82.790039 88.907715 95.025391 97.469238 102.96924 109.08691 111.53076 117.64844"
         y="0"
         sodipodi:role="line"
         id="tspan17">'lkjﬂkajdlfkajsﬂkj235lk2j3'</tspan></text>
    <path
       id="path18"
       d="m 181,121 h 159 v 25 H 181 Z"
       style="fill:#d5e8d4;fill-opacity:1;fill-rule:nonzero;stroke:#82b366;stroke-width:1;stroke-linecap:butt;stroke-linejoin:miter;stroke-miterlimit:10;stroke-dasharray:none;stroke-opacity:1"
       transform="matrix(0.9577949,0,0,0.9577949,0.47889746,0.47889746)"
       clip-path="url(#clipPath19)" />
    <text
       id="text19"
       xml:space="preserve"
       transform="matrix(0.95780454,0,0,0.95780454,182.10259,132.17703)"
       clip-path="url(#clipPath20)"><tspan
         style="font-variant:normal;font-weight:normal;font-size:11px;font-family:Helvetica;writing-mode:lr-tb;fill:#000000;fill-opacity:1;fill-rule:nonzero;stroke:none"
         x="0 5.5 11.617676 17.735352 20.791504 23.235352 29.353027 35.470703 38.526855 41.583008 43.683105 54.849609 62.793457 68.293457 74.411133 80.528809 86.646484 92.76416 98.881836 101.93799 108.05566 114.17334 120.29102 122.73486 128.85254 132.51562 138.6333"
         y="0"
         sodipodi:role="line"
         id="tspan19">caption: '@Ryann41 #dolore'</tspan></text>
    <path
       id="path21"
       d="M 361,1 H 611 V 41 H 361 Z"
       style="fill:#dae8fc;fill-opacity:1;fill-rule:nonzero;stroke:#6c8ebf;stroke-width:1;stroke-linecap:butt;stroke-linejoin:miter;stroke-miterlimit:10;stroke-dasharray:none;stroke-opacity:1"
       transform="matrix(0.9577949,0,0,0.9577949,0.47889746,0.47889746)"
       clip-path="url(#clipPath22)" />
    <text
       id="text22"
       xml:space="preserve"
       transform="matrix(0.95780454,0,0,0.95780454,438.64455,26.818527)"
       clip-path="url(#clipPath23)"><tspan
         style="font-variant:normal;font-weight:700;font-size:18px;font-family:Helvetica;writing-mode:lr-tb;fill:#000000;fill-opacity:1;fill-rule:nonzero;stroke:none"
         x="0 12.005859 22.016602 29.021484 39.032227 49.042969"
         y="0"
         sodipodi:role="line"
         id="tspan22">Server</tspan></text>
    <path
       id="path24"
       d="M 381,51 H 601 V 91 H 381 Z"
       style="fill:#ffffff;fill-opacity:1;fill-rule:nonzero;stroke:#000000;stroke-width:1;stroke-linecap:butt;stroke-linejoin:miter;stroke-miterlimit:10;stroke-dasharray:none;stroke-opacity:1"
       transform="matrix(0.9577949,0,0,0.9577949,0.47889746,0.47889746)"
       clip-path="url(#clipPath25)" />
    <text
       id="text25"
       xml:space="preserve"
       transform="matrix(0.95780454,0,0,0.95780454,378.61714,65.130708)"
       clip-path="url(#clipPath26)"><tspan
         style="font-variant:normal;font-weight:normal;font-size:11px;font-family:Helvetica;writing-mode:lr-tb;fill:#000000;fill-opacity:1;fill-rule:nonzero;stroke:none"
         x="0 7.9438477 14.061523 16.505371 22.623047 28.740723 34.858398 37.914551 41.577637 47.695312 55.63916 58.695312 64.812988 70.930664 77.04834 80.104492 86.222168 89.27832 95.395996 101.51367 104.56982 110.6875 113.74365 116.7998 122.91748 125.97363 131.47363 137.59131 146.75439 152.87207 155.92822 162.0459 168.16357 171.21973 176.71973 179.16357 185.28125"
         y="0"
         sodipodi:role="line"
         id="tspan25">Upload raw photo data to some outside</tspan></text>
    <text
       id="text26"
       xml:space="preserve"
       transform="matrix(0.95780454,0,0,0.95780454,452.69734,78.539972)"
       clip-path="url(#clipPath27)"><tspan
         style="font-variant:normal;font-weight:normal;font-size:11px;font-family:Helvetica;writing-mode:lr-tb;fill:#000000;fill-opacity:1;fill-rule:nonzero;stroke:none"
         x="0 5.5 8.5561523 14.673828 18.336914 24.45459 30.572266"
         y="0"
         sodipodi:role="line"
         id="tspan26">storage</tspan></text>
    <path
       id="path28"
       d="m 381,98 h 220 v 40 H 381 Z"
       style="fill:#ffffff;fill-opacity:1;fill-rule:nonzero;stroke:#000000;stroke-width:1;stroke-linecap:butt;stroke-linejoin:miter;stroke-miterlimit:10;stroke-dasharray:none;stroke-opacity:1"
       transform="matrix(0.9577949,0,0,0.9577949,0.47889746,0.47889746)"
       clip-path="url(#clipPath29)" />
    <text
       id="text29"
       xml:space="preserve"
       transform="matrix(0.95780454,0,0,0.95780454,374.21723,110.14752)"
       clip-path="url(#clipPath30)"><tspan
         style="font-variant:normal;font-weight:normal;font-size:11px;font-family:Helvetica;writing-mode:lr-tb;fill:#000000;fill-opacity:1;fill-rule:nonzero;stroke:none"
         x="0 7.3369141 13.45459 17.117676 22.617676 28.735352 31.791504 37.291504 43.40918 49.526855 52.583008 55.026855 61.144531 67.262207 70.318359 73.374512 81.318359 87.436035 93.553711 99.053711 102.10986 104.55371 107.60986 110.66602 116.78369 122.90137 128.40137 134.51904 137.5752 143.69287 149.81055 155.31055 158.3667 164.48438 166.92822 173.0459 179.16357 182.21973 185.27588 191.39355 197.51123"
         y="0"
         sodipodi:role="line"
         id="tspan29">Parse caption. Does it have anything that</tspan></text>
    <text
       id="text30"
       xml:space="preserve"
       transform="matrix(0.95780454,0,0,0.95780454,390.33528,123.55679)"
       clip-path="url(#clipPath31)"><tspan
         style="font-variant:normal;font-weight:normal;font-size:11px;font-family:Helvetica;writing-mode:lr-tb;fill:#000000;fill-opacity:1;fill-rule:nonzero;stroke:none"
         x="0 2.4438477 8.5615234 14.679199 20.179199 25.679199 28.735352 31.179199 33.623047 39.123047 45.240723 48.296875 54.414551 57.470703 66.633789 72.751465 78.869141 81.925293 84.369141 90.486816 96.604492 99.660645 105.77832 109.44141 112.49756 118.61523 121.67139 127.78906 133.90674 139.40674 145.52441 148.58057 154.69824 160.81592"
         y="0"
         sodipodi:role="line"
         id="tspan30">looks like a mention or a hashtag?</tspan></text>
    <path
       id="path32"
       d="M 371,51 V 364.64001"
       style="fill:none;stroke:#000000;stroke-width:1;stroke-linecap:butt;stroke-linejoin:miter;stroke-miterlimit:10;stroke-dasharray:none;stroke-opacity:1"
       transform="matrix(0.9577949,0,0,0.9577949,0.47889746,0.47889746)"
       clip-path="url(#clipPath33)" />
    <path
       id="path34"
       d="m 371,369.89001 -3.5,-7 3.5,1.75 3.5,-1.75 z"
       style="fill:#000000;fill-opacity:1;fill-rule:nonzero;stroke:#000000;stroke-width:1;stroke-linecap:butt;stroke-linejoin:miter;stroke-miterlimit:10;stroke-dasharray:none;stroke-opacity:1"
       transform="matrix(0.9577949,0,0,0.9577949,0.47889746,0.47889746)"
       clip-path="url(#clipPath35)" />
    <path
       id="path36"
       d="m 381,144 h 220 v 40 H 381 Z"
       style="fill:#ffffff;fill-opacity:1;fill-rule:nonzero;stroke:#000000;stroke-width:1;stroke-linecap:butt;stroke-linejoin:miter;stroke-miterlimit:10;stroke-dasharray:none;stroke-opacity:1"
       transform="matrix(0.9577949,0,0,0.9577949,0.47889746,0.47889746)"
       clip-path="url(#clipPath37)" />
    <text
       id="text37"
       xml:space="preserve"
       transform="matrix(0.95780454,0,0,0.95780454,398.56641,160.91116)"
       clip-path="url(#clipPath38)"><tspan
         style="font-variant:normal;font-weight:normal;font-size:11px;font-family:Helvetica;writing-mode:lr-tb;fill:#000000;fill-opacity:1;fill-rule:nonzero;stroke:none"
         x="0 7.3369141 13.45459 19.572266 22.628418 25.072266 28.128418 31.18457 33.284668 41.228516 46.728516 52.846191 58.963867 65.081543 71.199219 77.316895 79.416992 82.473145 84.916992 90.416992 93.473145 99.59082 102.64697 108.14697 114.26465 116.7085 119.15234 125.27002 128.32617 134.44385 139.94385 146.06152"
         y="0"
         sodipodi:role="line"
         id="tspan37">See if 'Ryann41' is a valid user</tspan></text>
    <path
       id="path39"
       d="m 607.37,163.75999 h 67.27001"
       style="fill:none;stroke:#000000;stroke-width:1;stroke-linecap:butt;stroke-linejoin:miter;stroke-miterlimit:10;stroke-dasharray:none;stroke-opacity:1"
       transform="matrix(0.9577949,0,0,0.9577949,0.47889746,0.47889746)"
       clip-path="url(#clipPath40)" />
    <path
       id="path41"
       d="m 602.12,163.75999 7,-3.5 -1.75,3.5 1.75,3.5 z"
       style="fill:#000000;fill-opacity:1;fill-rule:nonzero;stroke:#000000;stroke-width:1;stroke-linecap:butt;stroke-linejoin:miter;stroke-miterlimit:10;stroke-dasharray:none;stroke-opacity:1"
       transform="matrix(0.9577949,0,0,0.9577949,0.47889746,0.47889746)"
       clip-path="url(#clipPath42)" />
    <path
       id="path43"
       d="m 679.89001,163.75999 -7,3.5 1.75,-3.5 -1.75,-3.5 z"
       style="fill:#000000;fill-opacity:1;fill-rule:nonzero;stroke:#000000;stroke-width:1;stroke-linecap:butt;stroke-linejoin:miter;stroke-miterlimit:10;stroke-dasharray:none;stroke-opacity:1"
       transform="matrix(0.9577949,0,0,0.9577949,0.47889746,0.47889746)"
       clip-path="url(#clipPath44)" />
    <path
       id="path45"
       d="m 381,191 h 220 v 40 H 381 Z"
       style="fill:#ffffff;fill-opacity:1;fill-rule:nonzero;stroke:#000000;stroke-width:1;stroke-linecap:butt;stroke-linejoin:miter;stroke-miterlimit:10;stroke-dasharray:none;stroke-opacity:1"
       transform="matrix(0.9577949,0,0,0.9577949,0.47889746,0.47889746)"
       clip-path="url(#clipPath46)" />
    <text
       id="text46"
       xml:space="preserve"
       transform="matrix(0.95780454,0,0,0.95780454,397.98276,205.92798)"
       clip-path="url(#clipPath47)"><tspan
         style="font-variant:normal;font-weight:normal;font-size:11px;font-family:Helvetica;writing-mode:lr-tb;fill:#000000;fill-opacity:1;fill-rule:nonzero;stroke:none"
         x="0 7.3369141 13.45459 19.572266 22.628418 25.072266 28.128418 31.18457 33.284668 39.402344 45.52002 47.963867 54.081543 57.744629 63.862305 65.962402 69.018555 71.462402 76.962402 80.018555 86.13623 89.192383 94.692383 100.81006 103.25391 105.69775 111.81543 114.87158 120.98926 127.10693 132.60693 138.72461 144.84229"
         y="0"
         sodipodi:role="line"
         id="tspan46">See if 'dolore' is a valid hashag</tspan></text>
    <path
       id="path48"
       d="m 607.37,211 h 67.27001"
       style="fill:none;stroke:#000000;stroke-width:1;stroke-linecap:butt;stroke-linejoin:miter;stroke-miterlimit:10;stroke-dasharray:none;stroke-opacity:1"
       transform="matrix(0.9577949,0,0,0.9577949,0.47889746,0.47889746)"
       clip-path="url(#clipPath49)" />
    <path
       id="path50"
       d="m 602.12,211 7,-3.5 -1.75,3.5 1.75,3.5 z"
       style="fill:#000000;fill-opacity:1;fill-rule:nonzero;stroke:#000000;stroke-width:1;stroke-linecap:butt;stroke-linejoin:miter;stroke-miterlimit:10;stroke-dasharray:none;stroke-opacity:1"
       transform="matrix(0.9577949,0,0,0.9577949,0.47889746,0.47889746)"
       clip-path="url(#clipPath51)" />
    <path
       id="path52"
       d="m 679.89001,211 -7,3.5 1.75,-3.5 -1.75,-3.5 z"
       style="fill:#000000;fill-opacity:1;fill-rule:nonzero;stroke:#000000;stroke-width:1;stroke-linecap:butt;stroke-linejoin:miter;stroke-miterlimit:10;stroke-dasharray:none;stroke-opacity:1"
       transform="matrix(0.9577949,0,0,0.9577949,0.47889746,0.47889746)"
       clip-path="url(#clipPath53)" />
    <path
       id="path54"
       d="m 381,241 h 220 v 40 H 381 Z"
       style="fill:#ffffff;fill-opacity:1;fill-rule:nonzero;stroke:#000000;stroke-width:1;stroke-linecap:butt;stroke-linejoin:miter;stroke-miterlimit:10;stroke-dasharray:none;stroke-opacity:1"
       transform="matrix(0.9577949,0,0,0.9577949,0.47889746,0.47889746)"
       clip-path="url(#clipPath55)" />
    <text
       id="text55"
       xml:space="preserve"
       transform="matrix(0.95780454,0,0,0.95780454,436.33983,253.8182)"
       clip-path="url(#clipPath56)"><tspan
         style="font-variant:normal;font-weight:normal;font-size:11px;font-family:Helvetica;writing-mode:lr-tb;fill:#000000;fill-opacity:1;fill-rule:nonzero;stroke:none"
         x="0 7.3369141 13.45459 19.572266 22.628418 28.746094 34.86377 42.807617 45.86377 47.963867 54.081543 60.199219 65.699219 68.755371"
         y="0"
         sodipodi:role="line"
         id="tspan55">Add new 'post'</tspan></text>
    <path
       id="path57"
       d="m 607.37,261 h 67.27001"
       style="fill:none;stroke:#000000;stroke-width:1;stroke-linecap:butt;stroke-linejoin:miter;stroke-miterlimit:10;stroke-dasharray:none;stroke-opacity:1"
       transform="matrix(0.9577949,0,0,0.9577949,0.47889746,0.47889746)"
       clip-path="url(#clipPath58)" />
    <path
       id="path59"
       d="m 602.12,261 7,-3.5 -1.75,3.5 1.75,3.5 z"
       style="fill:#000000;fill-opacity:1;fill-rule:nonzero;stroke:#000000;stroke-width:1;stroke-linecap:butt;stroke-linejoin:miter;stroke-miterlimit:10;stroke-dasharray:none;stroke-opacity:1"
       transform="matrix(0.9577949,0,0,0.9577949,0.47889746,0.47889746)"
       clip-path="url(#clipPath60)" />
    <path
       id="path61"
       d="m 679.89001,261 -7,3.5 1.75,-3.5 -1.75,-3.5 z"
       style="fill:#000000;fill-opacity:1;fill-rule:nonzero;stroke:#000000;stroke-width:1;stroke-linecap:butt;stroke-linejoin:miter;stroke-miterlimit:10;stroke-dasharray:none;stroke-opacity:1"
       transform="matrix(0.9577949,0,0,0.9577949,0.47889746,0.47889746)"
       clip-path="url(#clipPath62)" />
    <path
       id="path63"
       d="m 381,291 h 220 v 40 H 381 Z"
       style="fill:#ffffff;fill-opacity:1;fill-rule:nonzero;stroke:#000000;stroke-width:1;stroke-linecap:butt;stroke-linejoin:miter;stroke-miterlimit:10;stroke-dasharray:none;stroke-opacity:1"
       transform="matrix(0.9577949,0,0,0.9577949,0.47889746,0.47889746)"
       clip-path="url(#clipPath64)" />
    <text
       id="text64"
       xml:space="preserve"
       transform="matrix(0.95780454,0,0,0.95780454,409.40158,301.70843)"
       clip-path="url(#clipPath65)"><tspan
         style="font-variant:normal;font-weight:normal;font-size:11px;font-family:Helvetica;writing-mode:lr-tb;fill:#000000;fill-opacity:1;fill-rule:nonzero;stroke:none"
         x="0 7.3369141 13.45459 19.572266 22.628418 28.746094 34.86377 42.807617 45.86377 47.963867 54.081543 60.199219 65.699219 71.816895 74.873047 80.990723 87.108398 92.608398 98.726074 104.84375 110.96143 116.46143 119.51758 125.01758"
         y="0"
         sodipodi:role="line"
         id="tspan64">Add new 'hashtags_posts'</tspan></text>
    <path
       id="path66"
       d="m 607.37,310.76001 h 67.27001"
       style="fill:none;stroke:#000000;stroke-width:1;stroke-linecap:butt;stroke-linejoin:miter;stroke-miterlimit:10;stroke-dasharray:none;stroke-opacity:1"
       transform="matrix(0.9577949,0,0,0.9577949,0.47889746,0.47889746)"
       clip-path="url(#clipPath67)" />
    <path
       id="path68"
       d="m 602.12,310.76001 7,-3.5 -1.75,3.5 1.75,3.5 z"
       style="fill:#000000;fill-opacity:1;fill-rule:nonzero;stroke:#000000;stroke-width:1;stroke-linecap:butt;stroke-linejoin:miter;stroke-miterlimit:10;stroke-dasharray:none;stroke-opacity:1"
       transform="matrix(0.9577949,0,0,0.9577949,0.47889746,0.47889746)"
       clip-path="url(#clipPath69)" />
    <path
       id="path70"
       d="m 679.89001,310.76001 -7,3.5 1.75,-3.5 -1.75,-3.5 z"
       style="fill:#000000;fill-opacity:1;fill-rule:nonzero;stroke:#000000;stroke-width:1;stroke-linecap:butt;stroke-linejoin:miter;stroke-miterlimit:10;stroke-dasharray:none;stroke-opacity:1"
       transform="matrix(0.9577949,0,0,0.9577949,0.47889746,0.47889746)"
       clip-path="url(#clipPath71)" />
    <path
       id="path72"
       d="m 381,341 h 220 v 40 H 381 Z"
       style="fill:#ffffff;fill-opacity:1;fill-rule:nonzero;stroke:#000000;stroke-width:1;stroke-linecap:butt;stroke-linejoin:miter;stroke-miterlimit:10;stroke-dasharray:none;stroke-opacity:1"
       transform="matrix(0.9577949,0,0,0.9577949,0.47889746,0.47889746)"
       clip-path="url(#clipPath73)" />
    <text
       id="text73"
       xml:space="preserve"
       transform="matrix(0.95780454,0,0,0.95780454,419.05446,349.59866)"
       clip-path="url(#clipPath74)"><tspan
         style="font-variant:normal;font-weight:normal;font-size:11px;font-family:Helvetica;writing-mode:lr-tb;fill:#000000;fill-opacity:1;fill-rule:nonzero;stroke:none"
         x="0 7.3369141 13.45459 19.572266 22.628418 28.746094 34.86377 42.807617 45.86377 47.963867 53.463867 59.581543 65.699219 68.755371 71.199219 77.316895 83.43457 89.552246 92.608398 98.726074 104.84375"
         y="0"
         sodipodi:role="line"
         id="tspan73">Add new 'caption_tag'</tspan></text>
    <path
       id="path75"
       d="m 607.37,360.76001 h 67.27001"
       style="fill:none;stroke:#000000;stroke-width:1;stroke-linecap:butt;stroke-linejoin:miter;stroke-miterlimit:10;stroke-dasharray:none;stroke-opacity:1"
       transform="matrix(0.9577949,0,0,0.9577949,0.47889746,0.47889746)"
       clip-path="url(#clipPath76)" />
    <path
       id="path77"
       d="m 602.12,360.76001 7,-3.5 -1.75,3.5 1.75,3.5 z"
       style="fill:#000000;fill-opacity:1;fill-rule:nonzero;stroke:#000000;stroke-width:1;stroke-linecap:butt;stroke-linejoin:miter;stroke-miterlimit:10;stroke-dasharray:none;stroke-opacity:1"
       transform="matrix(0.9577949,0,0,0.9577949,0.47889746,0.47889746)"
       clip-path="url(#clipPath78)" />
    <path
       id="path79"
       d="m 679.89001,360.76001 -7,3.5 1.75,-3.5 -1.75,-3.5 z"
       style="fill:#000000;fill-opacity:1;fill-rule:nonzero;stroke:#000000;stroke-width:1;stroke-linecap:butt;stroke-linejoin:miter;stroke-miterlimit:10;stroke-dasharray:none;stroke-opacity:1"
       transform="matrix(0.9577949,0,0,0.9577949,0.47889746,0.47889746)"
       clip-path="url(#clipPath80)" />
    <path
       id="path81"
       d="m 681.01001,138 h 90 v 260 h -90 z"
       style="fill:#dae8fc;fill-opacity:1;fill-rule:nonzero;stroke:#6c8ebf;stroke-width:1;stroke-linecap:butt;stroke-linejoin:miter;stroke-miterlimit:10;stroke-dasharray:none;stroke-opacity:1"
       transform="matrix(0.9577949,0,0,0.9577949,0.47889746,0.47889746)"
       clip-path="url(#clipPath82)" />
    <text
       id="text82"
       xml:space="preserve"
       transform="matrix(0.95780454,0,0,0.95780454,682.91463,263.39625)"
       clip-path="url(#clipPath83)"><tspan
         style="font-variant:normal;font-weight:700;font-size:18px;font-family:Helvetica;writing-mode:lr-tb;fill:#000000;fill-opacity:1;fill-rule:nonzero;stroke:none"
         x="0 12.999023"
         y="0"
         sodipodi:role="line"
         id="tspan82">DB</tspan></text>
    <path
       id="path84"
       d="m 381,391 h 220 v 40 H 381 Z"
       style="fill:#ffffff;fill-opacity:1;fill-rule:nonzero;stroke:#000000;stroke-width:1;stroke-linecap:butt;stroke-linejoin:miter;stroke-miterlimit:10;stroke-dasharray:none;stroke-opacity:1"
       transform="matrix(0.9577949,0,0,0.9577949,0.47889746,0.47889746)"
       clip-path="url(#clipPath85)" />
    <text
       id="text85"
       xml:space="preserve"
       transform="matrix(0.95780454,0,0,0.95780454,400.58679,397.48888)"
       clip-path="url(#clipPath86)"><tspan
         style="font-variant:normal;font-weight:normal;font-size:11px;font-family:Helvetica;writing-mode:lr-tb;fill:#000000;fill-opacity:1;fill-rule:nonzero;stroke:none"
         x="0 5.5 11.617676 14.061523 16.505371 19.561523 25.679199 31.179199 37.296875 40.959961 44.016113 47.072266 53.189941 59.307617 62.36377 68.481445 74.599121 80.099121 83.155273 86.211426 94.155273 100.27295 105.77295 108.8291 114.3291 117.99219 124.10986 130.22754 133.28369 139.40137"
         y="0"
         sodipodi:role="line"
         id="tspan85">Tell user the post was created</tspan></text>
    <path
       id="path87"
       d="M 160.5,96 H 354.14001"
       style="fill:none;stroke:#000000;stroke-width:1;stroke-linecap:butt;stroke-linejoin:miter;stroke-miterlimit:10;stroke-dasharray:none;stroke-opacity:1"
       transform="matrix(0.9577949,0,0,0.9577949,0.47889746,0.47889746)"
       clip-path="url(#clipPath88)" />
    <path
       id="path89"
       d="m 359.39001,96 -7,3.5 1.75,-3.5 -1.75,-3.5 z"
       style="fill:#000000;fill-opacity:1;fill-rule:nonzero;stroke:#000000;stroke-width:1;stroke-linecap:butt;stroke-linejoin:miter;stroke-miterlimit:10;stroke-dasharray:none;stroke-opacity:1"
       transform="matrix(0.9577949,0,0,0.9577949,0.47889746,0.47889746)"
       clip-path="url(#clipPath90)" />
    <path
       id="path91"
       d="M 381,401 H 167.36999"
       style="fill:none;stroke:#000000;stroke-width:1;stroke-linecap:butt;stroke-linejoin:miter;stroke-miterlimit:10;stroke-dasharray:none;stroke-opacity:1"
       transform="matrix(0.9577949,0,0,0.9577949,0.47889746,0.47889746)"
       clip-path="url(#clipPath92)" />
    <path
       id="path93"
       d="m 162.11999,401 7.00001,-3.5 -1.75001,3.5 1.75001,3.5 z"
       style="fill:#000000;fill-opacity:1;fill-rule:nonzero;stroke:#000000;stroke-width:1;stroke-linecap:butt;stroke-linejoin:miter;stroke-miterlimit:10;stroke-dasharray:none;stroke-opacity:1"
       transform="matrix(0.9577949,0,0,0.9577949,0.47889746,0.47889746)"
       clip-path="url(#clipPath94)" />
  </g>
</svg>
