<?xml version="1.0" encoding="UTF-8" standalone="no"?>
<!-- Created with Inkscape (http://www.inkscape.org/) -->

<svg
   version="1.1"
   id="svg1"
   width="608"
   height="312"
   viewBox="0 0 608 312"
   sodipodi:docname="sql-9.pdf"
   xmlns:inkscape="http://www.inkscape.org/namespaces/inkscape"
   xmlns:sodipodi="http://sodipodi.sourceforge.net/DTD/sodipodi-0.dtd"
   xmlns="http://www.w3.org/2000/svg"
   xmlns:svg="http://www.w3.org/2000/svg">
  <defs
     id="defs1">
    <clipPath
       clipPathUnits="userSpaceOnUse"
       id="clipPath2">
      <path
         d="M 0,0 H 1900 V 973.97479 H 0 Z"
         transform="scale(0.3336842)"
         clip-rule="evenodd"
         id="path2" />
    </clipPath>
    <clipPath
       clipPathUnits="userSpaceOnUse"
       id="clipPath4">
      <path
         d="M 0,0 H 1900 V 970.97797 H 0 Z"
         transform="matrix(0.3336842,0,0,0.3336842,-0.5,-0.5)"
         clip-rule="evenodd"
         id="path4" />
    </clipPath>
    <clipPath
       clipPathUnits="userSpaceOnUse"
       id="clipPath5">
      <path
         d="M 0,0 H 1900 V 970.97797 H 0 Z"
         transform="matrix(0.33368086,0,0,0.33368086,-13.5,-118)"
         clip-rule="evenodd"
         id="path5" />
    </clipPath>
    <clipPath
       clipPathUnits="userSpaceOnUse"
       id="clipPath6">
      <path
         d="M 0,0 H 1900 V 970.97797 H 0 Z"
         transform="matrix(0.33368086,0,0,0.33368086,-44.203125,-135)"
         clip-rule="evenodd"
         id="path6" />
    </clipPath>
    <clipPath
       clipPathUnits="userSpaceOnUse"
       id="clipPath8">
      <path
         d="M 0,0 H 1900 V 970.97797 H 0 Z"
         transform="matrix(0.3336842,0,0,0.3336842,-0.5,-0.5)"
         clip-rule="evenodd"
         id="path8" />
    </clipPath>
    <clipPath
       clipPathUnits="userSpaceOnUse"
       id="clipPath9">
      <path
         d="M 0,0 H 1900 V 970.97797 H 0 Z"
         transform="matrix(0.33368086,0,0,0.33368086,-270.625,-22)"
         clip-rule="evenodd"
         id="path9" />
    </clipPath>
    <clipPath
       clipPathUnits="userSpaceOnUse"
       id="clipPath11">
      <path
         d="M 0,0 H 1900 V 970.97797 H 0 Z"
         transform="matrix(0.3336842,0,0,0.3336842,-0.5,-0.5)"
         clip-rule="evenodd"
         id="path11" />
    </clipPath>
    <clipPath
       clipPathUnits="userSpaceOnUse"
       id="clipPath13">
      <path
         d="M 0,0 H 1900 V 970.97797 H 0 Z"
         transform="matrix(0.3336842,0,0,0.3336842,-0.5,-0.5)"
         clip-rule="evenodd"
         id="path13" />
    </clipPath>
    <clipPath
       clipPathUnits="userSpaceOnUse"
       id="clipPath14">
      <path
         d="M 0,0 H 1900 V 970.97797 H 0 Z"
         transform="matrix(0.33368086,0,0,0.33368086,-208.3125,-66)"
         clip-rule="evenodd"
         id="path14" />
    </clipPath>
    <clipPath
       clipPathUnits="userSpaceOnUse"
       id="clipPath16">
      <path
         d="M 0,0 H 1900 V 970.97797 H 0 Z"
         transform="matrix(0.3336842,0,0,0.3336842,-0.5,-0.5)"
         clip-rule="evenodd"
         id="path16" />
    </clipPath>
    <clipPath
       clipPathUnits="userSpaceOnUse"
       id="clipPath18">
      <path
         d="M 0,0 H 1900 V 970.97797 H 0 Z"
         transform="matrix(0.3336842,0,0,0.3336842,-0.5,-0.5)"
         clip-rule="evenodd"
         id="path18" />
    </clipPath>
    <clipPath
       clipPathUnits="userSpaceOnUse"
       id="clipPath20">
      <path
         d="M 0,0 H 1900 V 970.97797 H 0 Z"
         transform="matrix(0.3336842,0,0,0.3336842,-0.5,-0.5)"
         clip-rule="evenodd"
         id="path20" />
    </clipPath>
    <clipPath
       clipPathUnits="userSpaceOnUse"
       id="clipPath22">
      <path
         d="M 0,0 H 1900 V 970.97797 H 0 Z"
         transform="matrix(0.3336842,0,0,0.3336842,-0.5,-0.5)"
         clip-rule="evenodd"
         id="path22" />
    </clipPath>
    <clipPath
       clipPathUnits="userSpaceOnUse"
       id="clipPath24">
      <path
         d="M 0,0 H 1900 V 970.97797 H 0 Z"
         transform="matrix(0.3336842,0,0,0.3336842,-0.5,-0.5)"
         clip-rule="evenodd"
         id="path24" />
    </clipPath>
    <clipPath
       clipPathUnits="userSpaceOnUse"
       id="clipPath26">
      <path
         d="M 0,0 H 1900 V 970.97797 H 0 Z"
         transform="matrix(0.3336842,0,0,0.3336842,-0.5,-0.5)"
         clip-rule="evenodd"
         id="path26" />
    </clipPath>
    <clipPath
       clipPathUnits="userSpaceOnUse"
       id="clipPath27">
      <path
         d="M 0,0 H 1900 V 970.97797 H 0 Z"
         transform="matrix(0.33368086,0,0,0.33368086,-13.5,-213)"
         clip-rule="evenodd"
         id="path27" />
    </clipPath>
    <clipPath
       clipPathUnits="userSpaceOnUse"
       id="clipPath28">
      <path
         d="M 0,0 H 1900 V 970.97797 H 0 Z"
         transform="matrix(0.33368086,0,0,0.33368086,-44.203125,-230)"
         clip-rule="evenodd"
         id="path28" />
    </clipPath>
    <clipPath
       clipPathUnits="userSpaceOnUse"
       id="clipPath30">
      <path
         d="M 0,0 H 1900 V 970.97797 H 0 Z"
         transform="matrix(0.3336842,0,0,0.3336842,-0.5,-0.5)"
         clip-rule="evenodd"
         id="path30" />
    </clipPath>
    <clipPath
       clipPathUnits="userSpaceOnUse"
       id="clipPath31">
      <path
         d="M 0,0 H 1900 V 970.97797 H 0 Z"
         transform="matrix(0.33368086,0,0,0.33368086,-119.82813,-116)"
         clip-rule="evenodd"
         id="path31" />
    </clipPath>
    <clipPath
       clipPathUnits="userSpaceOnUse"
       id="clipPath33">
      <path
         d="M 0,0 H 1900 V 970.97797 H 0 Z"
         transform="matrix(0.3336842,0,0,0.3336842,-0.5,-0.5)"
         clip-rule="evenodd"
         id="path33" />
    </clipPath>
    <clipPath
       clipPathUnits="userSpaceOnUse"
       id="clipPath35">
      <path
         d="M 0,0 H 1900 V 970.97797 H 0 Z"
         transform="matrix(0.3336842,0,0,0.3336842,-0.5,-0.5)"
         clip-rule="evenodd"
         id="path35" />
    </clipPath>
    <clipPath
       clipPathUnits="userSpaceOnUse"
       id="clipPath37">
      <path
         d="M 0,0 H 1900 V 970.97797 H 0 Z"
         transform="matrix(0.3336842,0,0,0.3336842,-0.5,-0.5)"
         clip-rule="evenodd"
         id="path37" />
    </clipPath>
    <clipPath
       clipPathUnits="userSpaceOnUse"
       id="clipPath38">
      <path
         d="M 0,0 H 1900 V 970.97797 H 0 Z"
         transform="matrix(0.33368086,0,0,0.33368086,-13.5,-248)"
         clip-rule="evenodd"
         id="path38" />
    </clipPath>
    <clipPath
       clipPathUnits="userSpaceOnUse"
       id="clipPath39">
      <path
         d="M 0,0 H 1900 V 970.97797 H 0 Z"
         transform="matrix(0.33368086,0,0,0.33368086,-44.203125,-265)"
         clip-rule="evenodd"
         id="path39" />
    </clipPath>
    <clipPath
       clipPathUnits="userSpaceOnUse"
       id="clipPath41">
      <path
         d="M 0,0 H 1900 V 970.97797 H 0 Z"
         transform="matrix(0.3336842,0,0,0.3336842,-0.5,-0.5)"
         clip-rule="evenodd"
         id="path41" />
    </clipPath>
    <clipPath
       clipPathUnits="userSpaceOnUse"
       id="clipPath43">
      <path
         d="M 0,0 H 1900 V 970.97797 H 0 Z"
         transform="matrix(0.3336842,0,0,0.3336842,-0.5,-0.5)"
         clip-rule="evenodd"
         id="path43" />
    </clipPath>
    <clipPath
       clipPathUnits="userSpaceOnUse"
       id="clipPath45">
      <path
         d="M 0,0 H 1900 V 970.97797 H 0 Z"
         transform="matrix(0.3336842,0,0,0.3336842,-0.5,-0.5)"
         clip-rule="evenodd"
         id="path45" />
    </clipPath>
    <clipPath
       clipPathUnits="userSpaceOnUse"
       id="clipPath46">
      <path
         d="M 0,0 H 1900 V 970.97797 H 0 Z"
         transform="matrix(0.33368086,0,0,0.33368086,-13.5,-283)"
         clip-rule="evenodd"
         id="path46" />
    </clipPath>
    <clipPath
       clipPathUnits="userSpaceOnUse"
       id="clipPath47">
      <path
         d="M 0,0 H 1900 V 970.97797 H 0 Z"
         transform="matrix(0.33368086,0,0,0.33368086,-44.203125,-300)"
         clip-rule="evenodd"
         id="path47" />
    </clipPath>
    <clipPath
       clipPathUnits="userSpaceOnUse"
       id="clipPath49">
      <path
         d="M 0,0 H 1900 V 970.97797 H 0 Z"
         transform="matrix(0.3336842,0,0,0.3336842,-0.5,-0.5)"
         clip-rule="evenodd"
         id="path49" />
    </clipPath>
    <clipPath
       clipPathUnits="userSpaceOnUse"
       id="clipPath50">
      <path
         d="M 0,0 H 1900 V 970.97797 H 0 Z"
         transform="matrix(0.33368086,0,0,0.33368086,-256.8125,-306)"
         clip-rule="evenodd"
         id="path50" />
    </clipPath>
    <clipPath
       clipPathUnits="userSpaceOnUse"
       id="clipPath52">
      <path
         d="M 0,0 H 1900 V 970.97797 H 0 Z"
         transform="matrix(0.3336842,0,0,0.3336842,-0.5,-0.5)"
         clip-rule="evenodd"
         id="path52" />
    </clipPath>
    <clipPath
       clipPathUnits="userSpaceOnUse"
       id="clipPath54">
      <path
         d="M 0,0 H 1900 V 970.97797 H 0 Z"
         transform="matrix(0.3336842,0,0,0.3336842,-0.5,-0.5)"
         clip-rule="evenodd"
         id="path54" />
    </clipPath>
    <clipPath
       clipPathUnits="userSpaceOnUse"
       id="clipPath55">
      <path
         d="M 0,0 H 1900 V 970.97797 H 0 Z"
         transform="matrix(0.33368086,0,0,0.33368086,-257.98438,-256)"
         clip-rule="evenodd"
         id="path55" />
    </clipPath>
    <clipPath
       clipPathUnits="userSpaceOnUse"
       id="clipPath57">
      <path
         d="M 0,0 H 1900 V 970.97797 H 0 Z"
         transform="matrix(0.3336842,0,0,0.3336842,-0.5,-0.5)"
         clip-rule="evenodd"
         id="path57" />
    </clipPath>
    <clipPath
       clipPathUnits="userSpaceOnUse"
       id="clipPath58">
      <path
         d="M 0,0 H 1900 V 970.97797 H 0 Z"
         transform="matrix(0.33368086,0,0,0.33368086,-467.32813,-149)"
         clip-rule="evenodd"
         id="path58" />
    </clipPath>
    <clipPath
       clipPathUnits="userSpaceOnUse"
       id="clipPath59">
      <path
         d="M 0,0 H 1900 V 970.97797 H 0 Z"
         transform="matrix(0.33368086,0,0,0.33368086,-494.9375,-166)"
         clip-rule="evenodd"
         id="path59" />
    </clipPath>
    <clipPath
       clipPathUnits="userSpaceOnUse"
       id="clipPath60">
      <path
         d="M 0,0 H 1900 V 970.97797 H 0 Z"
         transform="matrix(0.33368086,0,0,0.33368086,-456.01563,-183)"
         clip-rule="evenodd"
         id="path60" />
    </clipPath>
    <clipPath
       clipPathUnits="userSpaceOnUse"
       id="clipPath61">
      <path
         d="M 0,0 H 1900 V 970.97797 H 0 Z"
         transform="matrix(0.33368086,0,0,0.33368086,-504.26563,-199)"
         clip-rule="evenodd"
         id="path61" />
    </clipPath>
    <clipPath
       clipPathUnits="userSpaceOnUse"
       id="clipPath63">
      <path
         d="M 0,0 H 1900 V 970.97797 H 0 Z"
         transform="matrix(0.3336842,0,0,0.3336842,-0.5,-0.5)"
         clip-rule="evenodd"
         id="path63" />
    </clipPath>
    <clipPath
       clipPathUnits="userSpaceOnUse"
       id="clipPath64">
      <path
         d="M 0,0 H 1900 V 970.97797 H 0 Z"
         transform="matrix(0.33368086,0,0,0.33368086,-276.65625,-116)"
         clip-rule="evenodd"
         id="path64" />
    </clipPath>
    <clipPath
       clipPathUnits="userSpaceOnUse"
       id="clipPath65">
      <path
         d="M 0,0 H 1900 V 970.97797 H 0 Z"
         transform="matrix(0.33368086,0,0,0.33368086,-257.98438,-133)"
         clip-rule="evenodd"
         id="path65" />
    </clipPath>
    <clipPath
       clipPathUnits="userSpaceOnUse"
       id="clipPath67">
      <path
         d="M 0,0 H 1900 V 970.97797 H 0 Z"
         transform="scale(0.3336842)"
         clip-rule="evenodd"
         id="path67" />
    </clipPath>
    <clipPath
       clipPathUnits="userSpaceOnUse"
       id="clipPath69">
      <path
         d="M 0,0 H 1900 V 970.97797 H 0 Z"
         transform="scale(0.3336842)"
         clip-rule="evenodd"
         id="path69" />
    </clipPath>
  </defs>
  <sodipodi:namedview
     id="namedview1"
     pagecolor="#ffffff"
     bordercolor="#000000"
     borderopacity="0.25"
     inkscape:showpageshadow="2"
     inkscape:pageopacity="0.0"
     inkscape:pagecheckerboard="0"
     inkscape:deskcolor="#d1d1d1">
    <inkscape:page
       x="0"
       y="0"
       inkscape:label="1"
       id="page1"
       width="608"
       height="312"
       margin="0"
       bleed="0" />
  </sodipodi:namedview>
  <g
     id="g1"
     inkscape:groupmode="layer"
     inkscape:label="1">
    <path
       id="path1"
       d="M 0,0 H 634 V 325 H 0 Z"
       style="fill:#ffffff;fill-opacity:1;fill-rule:nonzero;stroke:none"
       transform="scale(0.95899052)"
       clip-path="url(#clipPath2)" />
    <path
       id="path3"
       d="m 2,91 h 100 v 60 H 2 Z"
       style="fill:#ffffff;fill-opacity:1;fill-rule:nonzero;stroke:#000000;stroke-width:1;stroke-linecap:butt;stroke-linejoin:miter;stroke-miterlimit:10;stroke-dasharray:none;stroke-opacity:1"
       transform="matrix(0.95899052,0,0,0.95899052,0.47949526,0.47949526)"
       clip-path="url(#clipPath4)" />
    <text
       id="text4"
       xml:space="preserve"
       transform="matrix(0.95900012,0,0,0.95900012,12.946502,113.16201)"
       clip-path="url(#clipPath5)"><tspan
         style="font-variant:normal;font-weight:700;font-size:14px;font-family:Helvetica;writing-mode:lr-tb;fill:#000000;fill-opacity:1;fill-rule:nonzero;stroke:none"
         x="0 10.110352 18.662109 27.213867 35.765625 43.551758 51.337891 56 59.889648 68.441406"
         y="0"
         sodipodi:role="line"
         id="tspan4">Connection</tspan></text>
    <text
       id="text5"
       xml:space="preserve"
       transform="matrix(0.95900012,0,0,0.95900012,42.390802,129.46502)"
       clip-path="url(#clipPath6)"><tspan
         style="font-variant:normal;font-weight:700;font-size:14px;font-family:Helvetica;writing-mode:lr-tb;fill:#000000;fill-opacity:1;fill-rule:nonzero;stroke:none"
         x="0 7.7861328"
         y="0"
         sodipodi:role="line"
         id="tspan5">#1</tspan></text>
    <path
       id="path7"
       d="M 182,1 H 432 V 31 H 182 Z"
       style="fill:#dae8fc;fill-opacity:1;fill-rule:nonzero;stroke:#6c8ebf;stroke-width:1;stroke-linecap:butt;stroke-linejoin:miter;stroke-miterlimit:10;stroke-dasharray:none;stroke-opacity:1"
       transform="matrix(0.95899052,0,0,0.95899052,0.47949526,0.47949526)"
       clip-path="url(#clipPath8)" />
    <text
       id="text8"
       xml:space="preserve"
       transform="matrix(0.95900012,0,0,0.95900012,259.52941,21.098003)"
       clip-path="url(#clipPath9)"><tspan
         style="font-variant:normal;font-weight:700;font-size:17px;font-family:Helvetica;writing-mode:lr-tb;fill:#000000;fill-opacity:1;fill-rule:nonzero;stroke:none"
         x="0 11.338867 21.723145 31.177734 36.838867 47.223145 53.838867 63.293457"
         y="0"
         sodipodi:role="line"
         id="tspan8">Postgres</tspan></text>
    <path
       id="path10"
       d="M 182,31 H 432 V 321 H 182 Z"
       style="fill:#dae8fc;fill-opacity:1;fill-rule:nonzero;stroke:#6c8ebf;stroke-width:1;stroke-linecap:butt;stroke-linejoin:miter;stroke-miterlimit:10;stroke-dasharray:none;stroke-opacity:1"
       transform="matrix(0.95899052,0,0,0.95899052,0.47949526,0.47949526)"
       clip-path="url(#clipPath11)" />
    <path
       id="path12"
       d="M 197,51 H 417 V 71 H 197 Z"
       style="fill:#ffffff;fill-opacity:1;fill-rule:nonzero;stroke:#000000;stroke-width:1;stroke-linecap:butt;stroke-linejoin:miter;stroke-miterlimit:10;stroke-dasharray:none;stroke-opacity:1"
       transform="matrix(0.95899052,0,0,0.95899052,0.47949526,0.47949526)"
       clip-path="url(#clipPath13)" />
    <text
       id="text13"
       xml:space="preserve"
       transform="matrix(0.95900012,0,0,0.95900012,199.77171,63.294008)"
       clip-path="url(#clipPath14)"><tspan
         style="font-variant:normal;font-weight:700;font-size:14px;font-family:Helvetica;writing-mode:lr-tb;fill:#000000;fill-opacity:1;fill-rule:nonzero;stroke:none"
         x="0 12.967773 21.519531 26.967773 34.753906 42.540039 51.091797 58.87793 66.664062 74.450195 78.339844 83.001953 91.553711 97.001953 100.8916 111.00195 119.55371 128.10547 136.65723 144.44336 152.22949 156.8916 160.78125 169.33301 177.88477 181.77441 189.56055"
         y="0"
         sodipodi:role="line"
         id="tspan13">Workspace for Connection #1</tspan></text>
    <path
       id="path15"
       d="M 197,71 H 417 V 171 H 197 Z"
       style="fill:#ffffff;fill-opacity:1;fill-rule:nonzero;stroke:#000000;stroke-width:1;stroke-linecap:butt;stroke-linejoin:miter;stroke-miterlimit:10;stroke-dasharray:none;stroke-opacity:1"
       transform="matrix(0.95899052,0,0,0.95899052,0.47949526,0.47949526)"
       clip-path="url(#clipPath16)" />
    <path
       id="path17"
       d="m 102,121 h 88.63"
       style="fill:none;stroke:#000000;stroke-width:1;stroke-linecap:butt;stroke-linejoin:miter;stroke-miterlimit:10;stroke-dasharray:none;stroke-opacity:1"
       transform="matrix(0.95899052,0,0,0.95899052,0.47949526,0.47949526)"
       clip-path="url(#clipPath18)" />
    <path
       id="path19"
       d="m 195.88,121 -7,3.5 1.75,-3.5 -1.75,-3.5 z"
       style="fill:#000000;fill-opacity:1;fill-rule:nonzero;stroke:#000000;stroke-width:1;stroke-linecap:butt;stroke-linejoin:miter;stroke-miterlimit:10;stroke-dasharray:none;stroke-opacity:1"
       transform="matrix(0.95899052,0,0,0.95899052,0.47949526,0.47949526)"
       clip-path="url(#clipPath20)" />
    <path
       id="path21"
       d="m 102,216 h 47.5 v 35 h 41.13"
       style="fill:none;stroke:#000000;stroke-width:1;stroke-linecap:butt;stroke-linejoin:miter;stroke-miterlimit:10;stroke-dasharray:none;stroke-opacity:1"
       transform="matrix(0.95899052,0,0,0.95899052,0.47949526,0.47949526)"
       clip-path="url(#clipPath22)" />
    <path
       id="path23"
       d="m 195.88,251 -7,3.5 1.75,-3.5 -1.75,-3.5 z"
       style="fill:#000000;fill-opacity:1;fill-rule:nonzero;stroke:#000000;stroke-width:1;stroke-linecap:butt;stroke-linejoin:miter;stroke-miterlimit:10;stroke-dasharray:none;stroke-opacity:1"
       transform="matrix(0.95899052,0,0,0.95899052,0.47949526,0.47949526)"
       clip-path="url(#clipPath24)" />
    <path
       id="path25"
       d="m 2,198.5 h 100 v 35 H 2 Z"
       style="fill:#ffffff;fill-opacity:1;fill-rule:nonzero;stroke:#000000;stroke-width:1;stroke-linecap:butt;stroke-linejoin:miter;stroke-miterlimit:10;stroke-dasharray:none;stroke-opacity:1"
       transform="matrix(0.95899052,0,0,0.95899052,0.47949526,0.47949526)"
       clip-path="url(#clipPath26)" />
    <text
       id="text26"
       xml:space="preserve"
       transform="matrix(0.95900012,0,0,0.95900012,12.946502,204.26703)"
       clip-path="url(#clipPath27)"><tspan
         style="font-variant:normal;font-weight:700;font-size:14px;font-family:Helvetica;writing-mode:lr-tb;fill:#000000;fill-opacity:1;fill-rule:nonzero;stroke:none"
         x="0 10.110352 18.662109 27.213867 35.765625 43.551758 51.337891 56 59.889648 68.441406"
         y="0"
         sodipodi:role="line"
         id="tspan26">Connection</tspan></text>
    <text
       id="text27"
       xml:space="preserve"
       transform="matrix(0.95900012,0,0,0.95900012,42.390802,220.57003)"
       clip-path="url(#clipPath28)"><tspan
         style="font-variant:normal;font-weight:700;font-size:14px;font-family:Helvetica;writing-mode:lr-tb;fill:#000000;fill-opacity:1;fill-rule:nonzero;stroke:none"
         x="0 7.7861328"
         y="0"
         sodipodi:role="line"
         id="tspan27">#2</tspan></text>
    <path
       id="path29"
       d="m 112,101 h 60 v 20 h -60 z"
       style="fill:#d5e8d4;fill-opacity:1;fill-rule:nonzero;stroke:#82b366;stroke-width:1;stroke-linecap:butt;stroke-linejoin:miter;stroke-miterlimit:10;stroke-dasharray:none;stroke-opacity:1"
       transform="matrix(0.95899052,0,0,0.95899052,0.47949526,0.47949526)"
       clip-path="url(#clipPath30)" />
    <text
       id="text30"
       xml:space="preserve"
       transform="matrix(0.95900012,0,0,0.95900012,114.91519,111.24401)"
       clip-path="url(#clipPath31)"><tspan
         style="font-variant:normal;font-weight:700;font-size:14px;font-family:Helvetica;writing-mode:lr-tb;fill:#000000;fill-opacity:1;fill-rule:nonzero;stroke:none"
         x="0 10.110352 19.448242 30.337891 34.227539"
         y="0"
         sodipodi:role="line"
         id="tspan30">BEGIN</tspan></text>
    <path
       id="path32"
       d="m 102,251 h 88.63"
       style="fill:none;stroke:#000000;stroke-width:1;stroke-linecap:butt;stroke-linejoin:miter;stroke-miterlimit:10;stroke-dasharray:none;stroke-opacity:1"
       transform="matrix(0.95899052,0,0,0.95899052,0.47949526,0.47949526)"
       clip-path="url(#clipPath33)" />
    <path
       id="path34"
       d="m 195.88,251 -7,3.5 1.75,-3.5 -1.75,-3.5 z"
       style="fill:#000000;fill-opacity:1;fill-rule:nonzero;stroke:#000000;stroke-width:1;stroke-linecap:butt;stroke-linejoin:miter;stroke-miterlimit:10;stroke-dasharray:none;stroke-opacity:1"
       transform="matrix(0.95899052,0,0,0.95899052,0.47949526,0.47949526)"
       clip-path="url(#clipPath35)" />
    <path
       id="path36"
       d="m 2,233.5 h 100 v 35 H 2 Z"
       style="fill:#ffffff;fill-opacity:1;fill-rule:nonzero;stroke:#000000;stroke-width:1;stroke-linecap:butt;stroke-linejoin:miter;stroke-miterlimit:10;stroke-dasharray:none;stroke-opacity:1"
       transform="matrix(0.95899052,0,0,0.95899052,0.47949526,0.47949526)"
       clip-path="url(#clipPath37)" />
    <text
       id="text37"
       xml:space="preserve"
       transform="matrix(0.95900012,0,0,0.95900012,12.946502,237.83203)"
       clip-path="url(#clipPath38)"><tspan
         style="font-variant:normal;font-weight:700;font-size:14px;font-family:Helvetica;writing-mode:lr-tb;fill:#000000;fill-opacity:1;fill-rule:nonzero;stroke:none"
         x="0 10.110352 18.662109 27.213867 35.765625 43.551758 51.337891 56 59.889648 68.441406"
         y="0"
         sodipodi:role="line"
         id="tspan37">Connection</tspan></text>
    <text
       id="text38"
       xml:space="preserve"
       transform="matrix(0.95900012,0,0,0.95900012,42.390802,254.13503)"
       clip-path="url(#clipPath39)"><tspan
         style="font-variant:normal;font-weight:700;font-size:14px;font-family:Helvetica;writing-mode:lr-tb;fill:#000000;fill-opacity:1;fill-rule:nonzero;stroke:none"
         x="0 7.7861328"
         y="0"
         sodipodi:role="line"
         id="tspan38">#3</tspan></text>
    <path
       id="path40"
       d="m 102,286 h 47.5 v -35 h 41.13"
       style="fill:none;stroke:#000000;stroke-width:1;stroke-linecap:butt;stroke-linejoin:miter;stroke-miterlimit:10;stroke-dasharray:none;stroke-opacity:1"
       transform="matrix(0.95899052,0,0,0.95899052,0.47949526,0.47949526)"
       clip-path="url(#clipPath41)" />
    <path
       id="path42"
       d="m 195.88,251 -7,3.5 1.75,-3.5 -1.75,-3.5 z"
       style="fill:#000000;fill-opacity:1;fill-rule:nonzero;stroke:#000000;stroke-width:1;stroke-linecap:butt;stroke-linejoin:miter;stroke-miterlimit:10;stroke-dasharray:none;stroke-opacity:1"
       transform="matrix(0.95899052,0,0,0.95899052,0.47949526,0.47949526)"
       clip-path="url(#clipPath43)" />
    <path
       id="path44"
       d="m 2,268.5 h 100 v 35 H 2 Z"
       style="fill:#ffffff;fill-opacity:1;fill-rule:nonzero;stroke:#000000;stroke-width:1;stroke-linecap:butt;stroke-linejoin:miter;stroke-miterlimit:10;stroke-dasharray:none;stroke-opacity:1"
       transform="matrix(0.95899052,0,0,0.95899052,0.47949526,0.47949526)"
       clip-path="url(#clipPath45)" />
    <text
       id="text45"
       xml:space="preserve"
       transform="matrix(0.95900012,0,0,0.95900012,12.946502,271.39703)"
       clip-path="url(#clipPath46)"><tspan
         style="font-variant:normal;font-weight:700;font-size:14px;font-family:Helvetica;writing-mode:lr-tb;fill:#000000;fill-opacity:1;fill-rule:nonzero;stroke:none"
         x="0 10.110352 18.662109 27.213867 35.765625 43.551758 51.337891 56 59.889648 68.441406"
         y="0"
         sodipodi:role="line"
         id="tspan45">Connection</tspan></text>
    <text
       id="text46"
       xml:space="preserve"
       transform="matrix(0.95900012,0,0,0.95900012,42.390802,287.70004)"
       clip-path="url(#clipPath47)"><tspan
         style="font-variant:normal;font-weight:700;font-size:14px;font-family:Helvetica;writing-mode:lr-tb;fill:#000000;fill-opacity:1;fill-rule:nonzero;stroke:none"
         x="0 7.7861328"
         y="0"
         sodipodi:role="line"
         id="tspan46">#4</tspan></text>
    <path
       id="path48"
       d="m 197,291 h 220 v 20 H 197 Z"
       style="fill:#ffffff;fill-opacity:1;fill-rule:nonzero;stroke:#000000;stroke-width:1;stroke-linecap:butt;stroke-linejoin:miter;stroke-miterlimit:10;stroke-dasharray:none;stroke-opacity:1"
       transform="matrix(0.95899052,0,0,0.95899052,0.47949526,0.47949526)"
       clip-path="url(#clipPath49)" />
    <text
       id="text49"
       xml:space="preserve"
       transform="matrix(0.95900012,0,0,0.95900012,246.28322,293.45404)"
       clip-path="url(#clipPath50)"><tspan
         style="font-variant:normal;font-weight:700;font-size:14px;font-family:Helvetica;writing-mode:lr-tb;fill:#000000;fill-opacity:1;fill-rule:nonzero;stroke:none"
         x="0 11.662109 19.448242 23.337891 31.889648 35.779297 45.889648 53.675781 58.337891 66.124023 70.013672 79.351562 87.90332 96.455078"
         y="0"
         sodipodi:role="line"
         id="tspan49">Main Data Pool</tspan></text>
    <path
       id="path51"
       d="m 197,211 h 220 v 80 H 197 Z"
       style="fill:#ffffff;fill-opacity:1;fill-rule:nonzero;stroke:#000000;stroke-width:1;stroke-linecap:butt;stroke-linejoin:miter;stroke-miterlimit:10;stroke-dasharray:none;stroke-opacity:1"
       transform="matrix(0.95899052,0,0,0.95899052,0.47949526,0.47949526)"
       clip-path="url(#clipPath52)" />
    <path
       id="path53"
       d="m 247,236 h 120 v 30 H 247 Z"
       style="fill:#ffe6cc;fill-opacity:1;fill-rule:nonzero;stroke:#d79b00;stroke-width:1;stroke-linecap:butt;stroke-linejoin:miter;stroke-miterlimit:10;stroke-dasharray:none;stroke-opacity:1"
       transform="matrix(0.95899052,0,0,0.95899052,0.47949526,0.47949526)"
       clip-path="url(#clipPath54)" />
    <text
       id="text54"
       xml:space="preserve"
       transform="matrix(0.95900012,0,0,0.95900012,247.40705,245.50403)"
       clip-path="url(#clipPath55)"><tspan
         style="font-variant:normal;font-weight:700;font-size:14px;font-family:Helvetica;writing-mode:lr-tb;fill:#000000;fill-opacity:1;fill-rule:nonzero;stroke:none"
         x="0 7.7861328 15.572266 23.358398 31.910156 40.461914 49.013672 53.675781 61.461914 65.351562 70.013672 77.799805 86.351562 90.241211"
         y="0"
         sodipodi:role="line"
         id="tspan54">accounts table</tspan></text>
    <path
       id="path56"
       d="m 452,126 h 180 v 85 H 452 Z"
       style="fill:#f8cecc;fill-opacity:1;fill-rule:nonzero;stroke:#b85450;stroke-width:1;stroke-linecap:butt;stroke-linejoin:miter;stroke-miterlimit:10;stroke-dasharray:none;stroke-opacity:1"
       transform="matrix(0.95899052,0,0,0.95899052,0.47949526,0.47949526)"
       clip-path="url(#clipPath57)" />
    <text
       id="text57"
       xml:space="preserve"
       transform="matrix(0.95900012,0,0,0.95900012,448.16773,142.89102)"
       clip-path="url(#clipPath58)"><tspan
         style="font-variant:normal;font-weight:700;font-size:14px;font-family:Helvetica;writing-mode:lr-tb;fill:#000000;fill-opacity:1;fill-rule:nonzero;stroke:none"
         x="0 8.5517578 17.103516 24.889648 28.779297 37.331055 45.882812 49.772461 54.43457 62.986328 70.772461 74.662109 82.448242 91 99.551758 108.10352 115.88965 123.67578 128.33789 132.22754 140.7793"
         y="0"
         sodipodi:role="line"
         id="tspan57">Losing the connection</tspan></text>
    <text
       id="text58"
       xml:space="preserve"
       transform="matrix(0.95900012,0,0,0.95900012,474.64512,159.19402)"
       clip-path="url(#clipPath59)"><tspan
         style="font-variant:normal;font-weight:700;font-size:14px;font-family:Helvetica;writing-mode:lr-tb;fill:#000000;fill-opacity:1;fill-rule:nonzero;stroke:none"
         x="0 4.6621094 12.448242 17.896484 25.682617 33.46875 42.020508 45.910156 54.461914 63.013672 67.675781 71.56543 82.455078 86.344727 90.234375"
         y="0"
         sodipodi:role="line"
         id="tspan58">(crashing) will</tspan></text>
    <text
       id="text59"
       xml:space="preserve"
       transform="matrix(0.95900012,0,0,0.95900012,437.31904,175.49702)"
       clip-path="url(#clipPath60)"><tspan
         style="font-variant:normal;font-weight:700;font-size:14px;font-family:Helvetica;writing-mode:lr-tb;fill:#000000;fill-opacity:1;fill-rule:nonzero;stroke:none"
         x="0 7.7861328 16.337891 21 29.551758 42 49.786133 54.448242 58.337891 66.124023 73.910156 77.799805 81.689453 89.475586 93.365234 98.813477 107.36523 111.25488 115.14453 123.69629 131.48242 139.26855 147.05469 150.94434 155.60645 164.1582"
         y="0"
         sodipodi:role="line"
         id="tspan59">automatically rollback the</tspan></text>
    <text
       id="text60"
       xml:space="preserve"
       transform="matrix(0.95900012,0,0,0.95900012,483.5908,190.84102)"
       clip-path="url(#clipPath61)"><tspan
         style="font-variant:normal;font-weight:700;font-size:14px;font-family:Helvetica;writing-mode:lr-tb;fill:#000000;fill-opacity:1;fill-rule:nonzero;stroke:none"
         x="0 4.6621094 10.110352 17.896484 26.448242 34.234375 42.020508 49.806641 54.46875 58.358398 66.910156"
         y="0"
         sodipodi:role="line"
         id="tspan60">transaction</tspan></text>
    <path
       id="path62"
       d="m 247,101 h 120 v 35 H 247 Z"
       style="fill:#ffe6cc;fill-opacity:1;fill-rule:nonzero;stroke:#d79b00;stroke-width:1;stroke-linecap:butt;stroke-linejoin:miter;stroke-miterlimit:10;stroke-dasharray:none;stroke-opacity:1"
       transform="matrix(0.95899052,0,0,0.95899052,0.47949526,0.47949526)"
       clip-path="url(#clipPath63)" />
    <text
       id="text63"
       xml:space="preserve"
       transform="matrix(0.95900012,0,0,0.95900012,265.31338,111.24401)"
       clip-path="url(#clipPath64)"><tspan
         style="font-variant:normal;font-weight:700;font-size:14px;font-family:Helvetica;writing-mode:lr-tb;fill:#000000;fill-opacity:1;fill-rule:nonzero;stroke:none"
         x="0 10.110352 18.662109 27.213867 35 39.662109 47.448242 56"
         y="0"
         sodipodi:role="line"
         id="tspan63">Updated!</tspan></text>
    <text
       id="text64"
       xml:space="preserve"
       transform="matrix(0.95900012,0,0,0.95900012,247.40705,127.54702)"
       clip-path="url(#clipPath65)"><tspan
         style="font-variant:normal;font-weight:700;font-size:14px;font-family:Helvetica;writing-mode:lr-tb;fill:#000000;fill-opacity:1;fill-rule:nonzero;stroke:none"
         x="0 7.7861328 15.572266 23.358398 31.910156 40.461914 49.013672 53.675781 61.461914 65.351562 70.013672 77.799805 86.351562 90.241211"
         y="0"
         sodipodi:role="line"
         id="tspan64">accounts table</tspan></text>
    <path
       id="path66"
       d="M 2,171 222,71"
       style="fill:none;stroke:#b85450;stroke-width:1;stroke-linecap:butt;stroke-linejoin:miter;stroke-miterlimit:10;stroke-dasharray:none;stroke-opacity:1"
       transform="scale(0.95899052)"
       clip-path="url(#clipPath67)" />
    <path
       id="path68"
       d="M 2,71 222,171"
       style="fill:none;stroke:#b85450;stroke-width:1;stroke-linecap:butt;stroke-linejoin:miter;stroke-miterlimit:10;stroke-dasharray:none;stroke-opacity:1"
       transform="scale(0.95899052)"
       clip-path="url(#clipPath69)" />
  </g>
</svg>
