<?xml version="1.0" encoding="UTF-8" standalone="no"?>
<!-- Created with Inkscape (http://www.inkscape.org/) -->

<svg
   version="1.1"
   id="svg1"
   width="281.28"
   height="344"
   viewBox="0 0 281.28 344"
   sodipodi:docname="sql-7.pdf"
   xmlns:inkscape="http://www.inkscape.org/namespaces/inkscape"
   xmlns:sodipodi="http://sodipodi.sourceforge.net/DTD/sodipodi-0.dtd"
   xmlns="http://www.w3.org/2000/svg"
   xmlns:svg="http://www.w3.org/2000/svg">
  <defs
     id="defs1">
    <clipPath
       clipPathUnits="userSpaceOnUse"
       id="clipPath2">
      <path
         d="M 0,0 H 879.16663 V 1073.5402 H 0 Z"
         transform="scale(0.33440761)"
         clip-rule="evenodd"
         id="path2" />
    </clipPath>
    <clipPath
       clipPathUnits="userSpaceOnUse"
       id="clipPath4">
      <path
         d="M 0,0 H 879.16663 V 1070.5498 H 0 Z"
         transform="matrix(0.33440761,0,0,0.33440761,-0.50000001,-0.50000001)"
         clip-rule="evenodd"
         id="path4" />
    </clipPath>
    <clipPath
       clipPathUnits="userSpaceOnUse"
       id="clipPath6">
      <path
         d="M 0,0 H 879.16663 V 1070.5498 H 0 Z"
         transform="matrix(0.33440761,0,0,0.33440761,-0.50000001,-0.50000001)"
         clip-rule="evenodd"
         id="path6" />
    </clipPath>
    <clipPath
       clipPathUnits="userSpaceOnUse"
       id="clipPath8">
      <path
         d="M 0,0 H 879.16663 V 1070.5498 H 0 Z"
         transform="matrix(0.33440761,0,0,0.33440761,-0.50000001,-0.50000001)"
         clip-rule="evenodd"
         id="path8" />
    </clipPath>
    <clipPath
       clipPathUnits="userSpaceOnUse"
       id="clipPath9">
      <path
         d="M 0,0 H 879.16663 V 1070.5498 H 0 Z"
         transform="matrix(0.33440424,0,0,0.33440424,-30.921876,-36)"
         clip-rule="evenodd"
         id="path9" />
    </clipPath>
    <clipPath
       clipPathUnits="userSpaceOnUse"
       id="clipPath10">
      <path
         d="M 0,0 H 879.16663 V 1070.5498 H 0 Z"
         transform="matrix(0.33440424,0,0,0.33440424,-12.406251,-58)"
         clip-rule="evenodd"
         id="path10" />
    </clipPath>
    <clipPath
       clipPathUnits="userSpaceOnUse"
       id="clipPath11">
      <path
         d="M 0,0 H 879.16663 V 1070.5498 H 0 Z"
         transform="matrix(0.33440424,0,0,0.33440424,-152.5,-58)"
         clip-rule="evenodd"
         id="path11" />
    </clipPath>
    <clipPath
       clipPathUnits="userSpaceOnUse"
       id="clipPath12">
      <path
         d="M 0,0 H 879.16663 V 1070.5498 H 0 Z"
         transform="matrix(0.33440424,0,0,0.33440424,-30.984375,-80)"
         clip-rule="evenodd"
         id="path12" />
    </clipPath>
    <clipPath
       clipPathUnits="userSpaceOnUse"
       id="clipPath13">
      <path
         d="M 0,0 H 879.16663 V 1070.5498 H 0 Z"
         transform="matrix(0.33440424,0,0,0.33440424,-100.46875,-101)"
         clip-rule="evenodd"
         id="path13" />
    </clipPath>
    <clipPath
       clipPathUnits="userSpaceOnUse"
       id="clipPath15">
      <path
         d="M 0,0 H 879.16663 V 1070.5498 H 0 Z"
         transform="matrix(0.33440761,0,0,0.33440761,-0.50000001,-0.50000001)"
         clip-rule="evenodd"
         id="path15" />
    </clipPath>
    <clipPath
       clipPathUnits="userSpaceOnUse"
       id="clipPath16">
      <path
         d="M 0,0 H 879.16663 V 1070.5498 H 0 Z"
         transform="matrix(0.33440424,0,0,0.33440424,-35,-174)"
         clip-rule="evenodd"
         id="path16" />
    </clipPath>
    <clipPath
       clipPathUnits="userSpaceOnUse"
       id="clipPath17">
      <path
         d="M 0,0 H 879.16663 V 1070.5498 H 0 Z"
         transform="matrix(0.33440424,0,0,0.33440424,-157.01562,-174)"
         clip-rule="evenodd"
         id="path17" />
    </clipPath>
    <clipPath
       clipPathUnits="userSpaceOnUse"
       id="clipPath18">
      <path
         d="M 0,0 H 879.16663 V 1070.5498 H 0 Z"
         transform="matrix(0.33440424,0,0,0.33440424,-196.03125,-174)"
         clip-rule="evenodd"
         id="path18" />
    </clipPath>
    <clipPath
       clipPathUnits="userSpaceOnUse"
       id="clipPath19">
      <path
         d="M 0,0 H 879.16663 V 1070.5498 H 0 Z"
         transform="matrix(0.33440424,0,0,0.33440424,-35,-196)"
         clip-rule="evenodd"
         id="path19" />
    </clipPath>
    <clipPath
       clipPathUnits="userSpaceOnUse"
       id="clipPath20">
      <path
         d="M 0,0 H 879.16663 V 1070.5498 H 0 Z"
         transform="matrix(0.33440424,0,0,0.33440424,-93,-196)"
         clip-rule="evenodd"
         id="path20" />
    </clipPath>
    <clipPath
       clipPathUnits="userSpaceOnUse"
       id="clipPath21">
      <path
         d="M 0,0 H 879.16663 V 1070.5498 H 0 Z"
         transform="matrix(0.33440424,0,0,0.33440424,-35,-217)"
         clip-rule="evenodd"
         id="path21" />
    </clipPath>
    <clipPath
       clipPathUnits="userSpaceOnUse"
       id="clipPath22">
      <path
         d="M 0,0 H 879.16663 V 1070.5498 H 0 Z"
         transform="matrix(0.33440424,0,0,0.33440424,-102,-217)"
         clip-rule="evenodd"
         id="path22" />
    </clipPath>
    <clipPath
       clipPathUnits="userSpaceOnUse"
       id="clipPath24">
      <path
         d="M 0,0 H 879.16663 V 1070.5498 H 0 Z"
         transform="matrix(0.33440761,0,0,0.33440761,-0.50000001,-0.50000001)"
         clip-rule="evenodd"
         id="path24" />
    </clipPath>
    <clipPath
       clipPathUnits="userSpaceOnUse"
       id="clipPath25">
      <path
         d="M 0,0 H 879.16663 V 1070.5498 H 0 Z"
         transform="matrix(0.33440424,0,0,0.33440424,-35,-294)"
         clip-rule="evenodd"
         id="path25" />
    </clipPath>
    <clipPath
       clipPathUnits="userSpaceOnUse"
       id="clipPath26">
      <path
         d="M 0,0 H 879.16663 V 1070.5498 H 0 Z"
         transform="matrix(0.33440424,0,0,0.33440424,-111.0166,-294)"
         clip-rule="evenodd"
         id="path26" />
    </clipPath>
    <clipPath
       clipPathUnits="userSpaceOnUse"
       id="clipPath27">
      <path
         d="M 0,0 H 879.16663 V 1070.5498 H 0 Z"
         transform="matrix(0.33440424,0,0,0.33440424,-35,-316)"
         clip-rule="evenodd"
         id="path27" />
    </clipPath>
    <clipPath
       clipPathUnits="userSpaceOnUse"
       id="clipPath28">
      <path
         d="M 0,0 H 879.16663 V 1070.5498 H 0 Z"
         transform="matrix(0.33440424,0,0,0.33440424,-93.000977,-316)"
         clip-rule="evenodd"
         id="path28" />
    </clipPath>
    <clipPath
       clipPathUnits="userSpaceOnUse"
       id="clipPath29">
      <path
         d="M 0,0 H 879.16663 V 1070.5498 H 0 Z"
         transform="matrix(0.33440424,0,0,0.33440424,-35,-337.00001)"
         clip-rule="evenodd"
         id="path29" />
    </clipPath>
    <clipPath
       clipPathUnits="userSpaceOnUse"
       id="clipPath30">
      <path
         d="M 0,0 H 879.16663 V 1070.5498 H 0 Z"
         transform="matrix(0.33440424,0,0,0.33440424,-107.00098,-337.00001)"
         clip-rule="evenodd"
         id="path30" />
    </clipPath>
    <clipPath
       clipPathUnits="userSpaceOnUse"
       id="clipPath32">
      <path
         d="M 0,0 H 879.16663 V 1070.5498 H 0 Z"
         transform="matrix(0.33440761,0,0,0.33440761,-0.50000001,-0.50000001)"
         clip-rule="evenodd"
         id="path32" />
    </clipPath>
    <clipPath
       clipPathUnits="userSpaceOnUse"
       id="clipPath34">
      <path
         d="M 0,0 H 879.16663 V 1070.5498 H 0 Z"
         transform="matrix(0.33440761,0,0,0.33440761,-0.50000001,-0.50000001)"
         clip-rule="evenodd"
         id="path34" />
    </clipPath>
    <clipPath
       clipPathUnits="userSpaceOnUse"
       id="clipPath36">
      <path
         d="M 0,0 H 879.16663 V 1070.5498 H 0 Z"
         transform="matrix(0.33440761,0,0,0.33440761,-0.50000001,-0.50000001)"
         clip-rule="evenodd"
         id="path36" />
    </clipPath>
  </defs>
  <sodipodi:namedview
     id="namedview1"
     pagecolor="#ffffff"
     bordercolor="#000000"
     borderopacity="0.25"
     inkscape:showpageshadow="2"
     inkscape:pageopacity="0.0"
     inkscape:pagecheckerboard="0"
     inkscape:deskcolor="#d1d1d1">
    <inkscape:page
       x="0"
       y="0"
       inkscape:label="1"
       id="page1"
       width="281.28"
       height="344"
       margin="0"
       bleed="0" />
  </sodipodi:namedview>
  <g
     id="g1"
     inkscape:groupmode="layer"
     inkscape:label="1">
    <path
       id="path1"
       d="M 0,0 H 294 V 359 H 0 Z"
       style="fill:#ffffff;fill-opacity:1;fill-rule:nonzero;stroke:none"
       transform="scale(0.95691599)"
       clip-path="url(#clipPath2)" />
    <path
       id="path3"
       d="m 146,123 v 20 -20 13.63"
       style="fill:none;stroke:#000000;stroke-width:1;stroke-linecap:butt;stroke-linejoin:miter;stroke-miterlimit:10;stroke-dasharray:none;stroke-opacity:1"
       transform="matrix(0.95691599,0,0,0.95691599,0.478458,0.478458)"
       clip-path="url(#clipPath4)" />
    <path
       id="path5"
       d="m 146,141.88 -3.5,-7 3.5,1.75 3.5,-1.75 z"
       style="fill:#000000;fill-opacity:1;fill-rule:nonzero;stroke:#000000;stroke-width:1;stroke-linecap:butt;stroke-linejoin:miter;stroke-miterlimit:10;stroke-dasharray:none;stroke-opacity:1"
       transform="matrix(0.95691599,0,0,0.95691599,0.478458,0.478458)"
       clip-path="url(#clipPath6)" />
    <path
       id="path7"
       d="M 1,1 H 291 V 123 H 1 Z"
       style="fill:#dae8fc;fill-opacity:1;fill-rule:nonzero;stroke:#6c8ebf;stroke-width:1;stroke-linecap:butt;stroke-linejoin:miter;stroke-miterlimit:10;stroke-dasharray:none;stroke-opacity:1"
       transform="matrix(0.95691599,0,0,0.95691599,0.478458,0.478458)"
       clip-path="url(#clipPath8)" />
    <text
       id="text8"
       xml:space="preserve"
       transform="matrix(0.95692562,0,0,0.95692562,29.589935,34.449322)"
       clip-path="url(#clipPath9)"><tspan
         style="font-variant:normal;font-weight:normal;font-size:18px;font-family:Helvetica;writing-mode:lr-tb;fill:#000000;fill-opacity:1;fill-rule:nonzero;stroke:none"
         x="0 10.010742 14.009766 23.009766 28.010742 33.011719 38.012695 48.023438 58.03418 63.035156 73.045898 83.056641 98.050781 108.06152 113.0625 123.07324 133.08398 143.09473 148.0957 158.10645 164.10059 168.09961 177.09961 187.11035 192.11133 202.12207 207.12305 212.12402 222.13477 226.13379"
         y="0"
         sodipodi:role="line"
         id="tspan8">List the name and price of all</tspan></text>
    <text
       id="text9"
       xml:space="preserve"
       transform="matrix(0.95692562,0,0,0.95692562,11.871859,55.501686)"
       clip-path="url(#clipPath10)"><tspan
         style="font-variant:normal;font-weight:normal;font-size:18px;font-family:Helvetica;writing-mode:lr-tb;fill:#000000;fill-opacity:1;fill-rule:nonzero;stroke:none"
         x="0 10.010742 16.004883 26.015625 36.026367 46.037109 55.037109 60.038086 69.038086 74.039062 79.040039 89.050781 99.061523 104.0625 109.06348 119.07422 125.06836 135.0791"
         y="0"
         sodipodi:role="line"
         id="tspan9">products that are </tspan></text>
    <text
       id="text10"
       xml:space="preserve"
       transform="matrix(0.95692562,0,0,0.95692562,145.93116,55.501686)"
       clip-path="url(#clipPath11)"><tspan
         style="font-style:oblique;font-variant:normal;font-weight:normal;font-size:18px;font-family:Helvetica;writing-mode:lr-tb;fill:#000000;fill-opacity:1;fill-rule:nonzero;stroke:none"
         x="0 14.994141 25.004883 30.999023 41.009766 46.010742 56.021484 65.021484 75.032227 85.042969 95.053711 104.05371 108.05273 117.05273"
         y="0"
         sodipodi:role="line"
         id="tspan10">more expensive</tspan></text>
    <text
       id="text11"
       xml:space="preserve"
       transform="matrix(0.95692562,0,0,0.95692562,29.649742,76.55405)"
       clip-path="url(#clipPath12)"><tspan
         style="font-style:oblique;font-variant:normal;font-weight:normal;font-size:18px;font-family:Helvetica;writing-mode:lr-tb;fill:#000000;fill-opacity:1;fill-rule:nonzero;stroke:none"
         x="0 5.0009766 15.011719 25.022461 35.033203 40.03418 50.044922 54.043945 58.042969 63.043945 73.054688 79.048828 89.05957 99.070312 109.08105 118.08105 123.08203 132.08203 137.08301 141.08203 151.09277 156.09375 161.09473 171.10547 181.11621 186.11719 189.55371 198.55371 208.56445 217.56445 226.56445"
         y="0"
         sodipodi:role="line"
         id="tspan11">than all products in the 'Toys'</tspan></text>
    <text
       id="text12"
       xml:space="preserve"
       transform="matrix(0.95692562,0,0,0.95692562,96.141121,96.649488)"
       clip-path="url(#clipPath13)"><tspan
         style="font-style:oblique;font-variant:normal;font-weight:normal;font-size:18px;font-family:Helvetica;writing-mode:lr-tb;fill:#000000;fill-opacity:1;fill-rule:nonzero;stroke:none"
         x="0 10.010742 20.021484 30.032227 40.042969 46.037109 51.038086 66.032227 76.042969 86.053711"
         y="0"
         sodipodi:role="line"
         id="tspan12">department</tspan></text>
    <path
       id="path14"
       d="m 18.5,143 h 255 v 92 h -255 z"
       style="fill:#dae8fc;fill-opacity:1;fill-rule:nonzero;stroke:#6c8ebf;stroke-width:1;stroke-linecap:butt;stroke-linejoin:miter;stroke-miterlimit:10;stroke-dasharray:none;stroke-opacity:1"
       transform="matrix(0.95691599,0,0,0.95691599,0.478458,0.478458)"
       clip-path="url(#clipPath15)" />
    <text
       id="text15"
       xml:space="preserve"
       transform="matrix(0.95692562,0,0,0.95692562,33.492397,166.50506)"
       clip-path="url(#clipPath16)"><tspan
         style="font-variant:normal;font-weight:700;font-size:18px;font-family:Helvetica;writing-mode:lr-tb;fill:#000000;fill-opacity:1;fill-rule:nonzero;stroke:none"
         x="0 12.005859 24.011719 35.006836 47.012695 60.011719 71.006836 76.007812 91.001953 104.00098 116.00684"
         y="0"
         sodipodi:role="line"
         id="tspan15">SELECT MAX(</tspan></text>
    <text
       id="text16"
       xml:space="preserve"
       transform="matrix(0.95692562,0,0,0.95692562,150.25227,166.50506)"
       clip-path="url(#clipPath17)"><tspan
         style="font-variant:normal;font-weight:normal;font-size:18px;font-family:Helvetica;writing-mode:lr-tb;fill:#000000;fill-opacity:1;fill-rule:nonzero;stroke:none"
         x="0 10.010742 16.004883 20.003906 29.003906"
         y="0"
         sodipodi:role="line"
         id="tspan16">price</tspan></text>
    <text
       id="text17"
       xml:space="preserve"
       transform="matrix(0.95692562,0,0,0.95692562,187.58733,166.50506)"
       clip-path="url(#clipPath18)"><tspan
         style="font-variant:normal;font-weight:700;font-size:18px;font-family:Helvetica;writing-mode:lr-tb;fill:#000000;fill-opacity:1;fill-rule:nonzero;stroke:none"
         x="0"
         y="0"
         id="tspan17">)</tspan></text>
    <text
       id="text18"
       xml:space="preserve"
       transform="matrix(0.95692562,0,0,0.95692562,33.492397,187.55742)"
       clip-path="url(#clipPath19)"><tspan
         style="font-variant:normal;font-weight:700;font-size:18px;font-family:Helvetica;writing-mode:lr-tb;fill:#000000;fill-opacity:1;fill-rule:nonzero;stroke:none"
         x="0 10.995117 23.994141 37.995117 52.989258"
         y="0"
         sodipodi:role="line"
         id="tspan18">FROM </tspan></text>
    <text
       id="text19"
       xml:space="preserve"
       transform="matrix(0.95692562,0,0,0.95692562,88.994083,187.55742)"
       clip-path="url(#clipPath20)"><tspan
         style="font-variant:normal;font-weight:normal;font-size:18px;font-family:Helvetica;writing-mode:lr-tb;fill:#000000;fill-opacity:1;fill-rule:nonzero;stroke:none"
         x="0 10.010742 16.004883 26.015625 36.026367 46.037109 55.037109 60.038086"
         y="0"
         sodipodi:role="line"
         id="tspan19">products</tspan></text>
    <text
       id="text20"
       xml:space="preserve"
       transform="matrix(0.95692562,0,0,0.95692562,33.492397,207.65286)"
       clip-path="url(#clipPath21)"><tspan
         style="font-variant:normal;font-weight:700;font-size:18px;font-family:Helvetica;writing-mode:lr-tb;fill:#000000;fill-opacity:1;fill-rule:nonzero;stroke:none"
         x="0 16.989258 29.988281 41.994141 54.993164"
         y="0"
         sodipodi:role="line"
         id="tspan20">WHERE</tspan></text>
    <text
       id="text21"
       xml:space="preserve"
       transform="matrix(0.95692562,0,0,0.95692562,97.606414,207.65286)"
       clip-path="url(#clipPath22)"><tspan
         style="font-variant:normal;font-weight:normal;font-size:18px;font-family:Helvetica;writing-mode:lr-tb;fill:#000000;fill-opacity:1;fill-rule:nonzero;stroke:none"
         x="0 5.0009766 15.011719 25.022461 35.033203 45.043945 51.038086 56.039062 71.033203 81.043945 91.054688 96.055664 101.05664 111.56836 116.56934 120.00586 129.00586 139.0166 148.0166 157.0166 160.45312"
         y="0"
         sodipodi:role="line"
         id="tspan21"> department = 'Toys';</tspan></text>
    <path
       id="path23"
       d="M 18.5,263 H 271 v 92 H 18.5 Z"
       style="fill:#dae8fc;fill-opacity:1;fill-rule:nonzero;stroke:#6c8ebf;stroke-width:1;stroke-linecap:butt;stroke-linejoin:miter;stroke-miterlimit:10;stroke-dasharray:none;stroke-opacity:1"
       transform="matrix(0.95691599,0,0,0.95691599,0.478458,0.478458)"
       clip-path="url(#clipPath24)" />
    <text
       id="text24"
       xml:space="preserve"
       transform="matrix(0.95692562,0,0,0.95692562,33.492397,281.33613)"
       clip-path="url(#clipPath25)"><tspan
         style="font-variant:normal;font-weight:700;font-size:18px;font-family:Helvetica;writing-mode:lr-tb;fill:#000000;fill-opacity:1;fill-rule:nonzero;stroke:none"
         x="0 12.005859 24.011719 35.006836 47.012695 60.011719"
         y="0"
         sodipodi:role="line"
         id="tspan24">SELECT</tspan></text>
    <text
       id="text25"
       xml:space="preserve"
       transform="matrix(0.95692562,0,0,0.95692562,106.23463,281.33613)"
       clip-path="url(#clipPath26)"><tspan
         style="font-variant:normal;font-weight:normal;font-size:18px;font-family:Helvetica;writing-mode:lr-tb;fill:#000000;fill-opacity:1;fill-rule:nonzero;stroke:none"
         x="0 10.010742 20.021484 35.015625 45.026367 50.027344 55.02832 65.039062 71.033203 75.032227 84.032227"
         y="0"
         sodipodi:role="line"
         id="tspan25">name, price</tspan></text>
    <text
       id="text26"
       xml:space="preserve"
       transform="matrix(0.95692562,0,0,0.95692562,33.492397,302.3885)"
       clip-path="url(#clipPath27)"><tspan
         style="font-variant:normal;font-weight:700;font-size:18px;font-family:Helvetica;writing-mode:lr-tb;fill:#000000;fill-opacity:1;fill-rule:nonzero;stroke:none"
         x="0 10.995117 23.994141 37.995117"
         y="0"
         sodipodi:role="line"
         id="tspan26">FROM</tspan></text>
    <text
       id="text27"
       xml:space="preserve"
       transform="matrix(0.95692562,0,0,0.95692562,88.995018,302.3885)"
       clip-path="url(#clipPath28)"><tspan
         style="font-variant:normal;font-weight:normal;font-size:18px;font-family:Helvetica;writing-mode:lr-tb;fill:#000000;fill-opacity:1;fill-rule:nonzero;stroke:none"
         x="0 10.010742 16.004883 26.015625 36.026367 46.037109 55.037109 60.038086"
         y="0"
         sodipodi:role="line"
         id="tspan27">products</tspan></text>
    <text
       id="text28"
       xml:space="preserve"
       transform="matrix(0.95692562,0,0,0.95692562,33.492397,322.48394)"
       clip-path="url(#clipPath29)"><tspan
         style="font-variant:normal;font-weight:700;font-size:18px;font-family:Helvetica;writing-mode:lr-tb;fill:#000000;fill-opacity:1;fill-rule:nonzero;stroke:none"
         x="0 16.989258 29.988281 41.994141 54.993164"
         y="0"
         sodipodi:role="line"
         id="tspan28">WHERE</tspan></text>
    <text
       id="text29"
       xml:space="preserve"
       transform="matrix(0.95692562,0,0,0.95692562,102.39198,322.48394)"
       clip-path="url(#clipPath30)"><tspan
         style="font-variant:normal;font-weight:normal;font-size:18px;font-family:Helvetica;writing-mode:lr-tb;fill:#000000;fill-opacity:1;fill-rule:nonzero;stroke:none"
         x="0 10.010742 16.004883 20.003906 29.003906 39.014648 44.015625 54.527344 59.52832 64.529297 69.530273 74.53125 79.532227 84.533203 89.53418 94.535156 99.536133 104.53711 109.53809 114.53906 119.54004 124.54102"
         y="0"
         sodipodi:role="line"
         id="tspan29">price &gt;              ;</tspan></text>
    <path
       id="path31"
       d="m 169,317 h 60 v 30 h -60 z"
       style="fill:#dae8fc;fill-opacity:1;fill-rule:nonzero;stroke:#6c8ebf;stroke-width:1;stroke-linecap:butt;stroke-linejoin:miter;stroke-miterlimit:10;stroke-dasharray:none;stroke-opacity:1"
       transform="matrix(0.95691599,0,0,0.95691599,0.478458,0.478458)"
       clip-path="url(#clipPath32)" />
    <path
       id="path33"
       d="m 146,235 v 41 h 53 v 30.89999"
       style="fill:none;stroke:#000000;stroke-width:1;stroke-linecap:butt;stroke-linejoin:miter;stroke-miterlimit:10;stroke-dasharray:none;stroke-opacity:1"
       transform="matrix(0.95691599,0,0,0.95691599,0.478458,0.478458)"
       clip-path="url(#clipPath34)" />
    <path
       id="path35"
       d="m 199,313.64999 -4.5,-9 4.5,2.25 4.5,-2.25 z"
       style="fill:#000000;fill-opacity:1;fill-rule:nonzero;stroke:#000000;stroke-width:1;stroke-linecap:butt;stroke-linejoin:miter;stroke-miterlimit:10;stroke-dasharray:none;stroke-opacity:1"
       transform="matrix(0.95691599,0,0,0.95691599,0.478458,0.478458)"
       clip-path="url(#clipPath36)" />
  </g>
</svg>
