<?xml version="1.0" encoding="UTF-8" standalone="no"?>
<!-- Created with Inkscape (http://www.inkscape.org/) -->

<svg
   version="1.1"
   id="svg1"
   width="462.71997"
   height="216"
   viewBox="0 0 462.71997 216"
   sodipodi:docname="sql-30.pdf"
   xmlns:inkscape="http://www.inkscape.org/namespaces/inkscape"
   xmlns:sodipodi="http://sodipodi.sourceforge.net/DTD/sodipodi-0.dtd"
   xmlns="http://www.w3.org/2000/svg"
   xmlns:svg="http://www.w3.org/2000/svg">
  <defs
     id="defs1">
    <clipPath
       clipPathUnits="userSpaceOnUse"
       id="clipPath2">
      <path
         d="M 0,0 H 1445.8333 V 672.13318 H 0 Z"
         transform="scale(0.33475507)"
         clip-rule="evenodd"
         id="path2" />
    </clipPath>
    <clipPath
       clipPathUnits="userSpaceOnUse"
       id="clipPath4">
      <path
         d="M 0,0 H 1445.8333 V 669.14594 H 0 Z"
         transform="matrix(0.33475507,0,0,0.33475507,-0.5,-0.5)"
         clip-rule="evenodd"
         id="path4" />
    </clipPath>
    <clipPath
       clipPathUnits="userSpaceOnUse"
       id="clipPath5">
      <path
         d="M 0,0 H 1445.8333 V 669.14594 H 0 Z"
         transform="matrix(0.33475173,0,0,0.33475173,-17,-67)"
         clip-rule="evenodd"
         id="path5" />
    </clipPath>
    <clipPath
       clipPathUnits="userSpaceOnUse"
       id="clipPath6">
      <path
         d="M 0,0 H 1445.8333 V 669.14594 H 0 Z"
         transform="matrix(0.33475173,0,0,0.33475173,-88.015625,-67)"
         clip-rule="evenodd"
         id="path6" />
    </clipPath>
    <clipPath
       clipPathUnits="userSpaceOnUse"
       id="clipPath8">
      <path
         d="M 0,0 H 1445.8333 V 669.14594 H 0 Z"
         transform="matrix(0.33475507,0,0,0.33475507,-0.5,-0.5)"
         clip-rule="evenodd"
         id="path8" />
    </clipPath>
    <clipPath
       clipPathUnits="userSpaceOnUse"
       id="clipPath10">
      <path
         d="M 0,0 H 1445.8333 V 669.14594 H 0 Z"
         transform="matrix(0.33475507,0,0,0.33475507,-0.5,-0.5)"
         clip-rule="evenodd"
         id="path10" />
    </clipPath>
    <clipPath
       clipPathUnits="userSpaceOnUse"
       id="clipPath12">
      <path
         d="M 0,0 H 1445.8333 V 669.14594 H 0 Z"
         transform="matrix(0.33475507,0,0,0.33475507,-0.5,-0.5)"
         clip-rule="evenodd"
         id="path12" />
    </clipPath>
    <clipPath
       clipPathUnits="userSpaceOnUse"
       id="clipPath14">
      <path
         d="M 0,0 H 1445.8333 V 669.14594 H 0 Z"
         transform="matrix(0.33475507,0,0,0.33475507,-0.5,-0.5)"
         clip-rule="evenodd"
         id="path14" />
    </clipPath>
    <clipPath
       clipPathUnits="userSpaceOnUse"
       id="clipPath15">
      <path
         d="M 0,0 H 1445.8333 V 669.14594 H 0 Z"
         transform="matrix(0.33475173,0,0,0.33475173,-290.39063,-55)"
         clip-rule="evenodd"
         id="path15" />
    </clipPath>
    <clipPath
       clipPathUnits="userSpaceOnUse"
       id="clipPath16">
      <path
         d="M 0,0 H 1445.8333 V 669.14594 H 0 Z"
         transform="matrix(0.33475173,0,0,0.33475173,-267.04688,-79)"
         clip-rule="evenodd"
         id="path16" />
    </clipPath>
    <clipPath
       clipPathUnits="userSpaceOnUse"
       id="clipPath17">
      <path
         d="M 0,0 H 1445.8333 V 669.14594 H 0 Z"
         transform="matrix(0.33475173,0,0,0.33475173,-369.3125,-79)"
         clip-rule="evenodd"
         id="path17" />
    </clipPath>
    <clipPath
       clipPathUnits="userSpaceOnUse"
       id="clipPath19">
      <path
         d="M 0,0 H 1445.8333 V 669.14594 H 0 Z"
         transform="matrix(0.33475507,0,0,0.33475507,-0.5,-0.5)"
         clip-rule="evenodd"
         id="path19" />
    </clipPath>
    <clipPath
       clipPathUnits="userSpaceOnUse"
       id="clipPath21">
      <path
         d="M 0,0 H 1445.8333 V 669.14594 H 0 Z"
         transform="matrix(0.33475507,0,0,0.33475507,-0.5,-0.5)"
         clip-rule="evenodd"
         id="path21" />
    </clipPath>
    <clipPath
       clipPathUnits="userSpaceOnUse"
       id="clipPath23">
      <path
         d="M 0,0 H 1445.8333 V 669.14594 H 0 Z"
         transform="matrix(0.33475507,0,0,0.33475507,-0.5,-0.5)"
         clip-rule="evenodd"
         id="path23" />
    </clipPath>
  </defs>
  <sodipodi:namedview
     id="namedview1"
     pagecolor="#ffffff"
     bordercolor="#000000"
     borderopacity="0.25"
     inkscape:showpageshadow="2"
     inkscape:pageopacity="0.0"
     inkscape:pagecheckerboard="0"
     inkscape:deskcolor="#d1d1d1">
    <inkscape:page
       x="0"
       y="0"
       inkscape:label="1"
       id="page1"
       width="462.71997"
       height="216"
       margin="0"
       bleed="0" />
  </sodipodi:namedview>
  <g
     id="g1"
     inkscape:groupmode="layer"
     inkscape:label="1">
    <path
       id="path1"
       d="M 0,0 H 484 V 225 H 0 Z"
       style="fill:#ffffff;fill-opacity:1;fill-rule:nonzero;stroke:none"
       transform="scale(0.95592274)"
       clip-path="url(#clipPath2)" />
    <path
       id="path3"
       d="M 1,1 H 231 V 119 H 1 Z"
       style="fill:#dae8fc;fill-opacity:1;fill-rule:nonzero;stroke:#6c8ebf;stroke-width:1;stroke-linecap:butt;stroke-linejoin:miter;stroke-miterlimit:10;stroke-dasharray:none;stroke-opacity:1"
       transform="matrix(0.95592274,0,0,0.95592274,0.47796137,0.47796137)"
       clip-path="url(#clipPath4)" />
    <text
       id="text4"
       xml:space="preserve"
       transform="matrix(0.95593228,0,0,0.95593228,16.250849,64.047463)"
       clip-path="url(#clipPath5)"><tspan
         style="font-variant:normal;font-weight:700;font-size:18px;font-family:Helvetica;writing-mode:lr-tb;fill:#000000;fill-opacity:1;fill-rule:nonzero;stroke:none"
         x="0 12.005859 24.011719 35.006836 47.012695 60.011719"
         y="0"
         sodipodi:role="line"
         id="tspan4">SELECT</tspan></text>
    <text
       id="text5"
       xml:space="preserve"
       transform="matrix(0.95593228,0,0,0.95593228,84.136977,64.047463)"
       clip-path="url(#clipPath6)"><tspan
         style="font-variant:normal;font-weight:normal;font-size:18px;font-family:Helvetica;writing-mode:lr-tb;fill:#000000;fill-opacity:1;fill-rule:nonzero;stroke:none"
         x="0"
         y="0"
         id="tspan5"> </tspan></text>
    <path
       id="path7"
       d="m 101,45 h 83 v 30 h -83 z"
       style="fill:none;stroke:#6c8ebf;stroke-width:1;stroke-linecap:butt;stroke-linejoin:miter;stroke-miterlimit:10;stroke-dasharray:none;stroke-opacity:1"
       transform="matrix(0.95592274,0,0,0.95592274,0.47796137,0.47796137)"
       clip-path="url(#clipPath8)" />
    <path
       id="path9"
       d="M 261,60 H 190.37"
       style="fill:none;stroke:#000000;stroke-width:1;stroke-linecap:butt;stroke-linejoin:miter;stroke-miterlimit:10;stroke-dasharray:none;stroke-opacity:1"
       transform="matrix(0.95592274,0,0,0.95592274,0.47796137,0.47796137)"
       clip-path="url(#clipPath10)" />
    <path
       id="path11"
       d="m 185.12,60 7,-3.5 -1.75,3.5 1.75,3.5 z"
       style="fill:#000000;fill-opacity:1;fill-rule:nonzero;stroke:#000000;stroke-width:1;stroke-linecap:butt;stroke-linejoin:miter;stroke-miterlimit:10;stroke-dasharray:none;stroke-opacity:1"
       transform="matrix(0.95592274,0,0,0.95592274,0.47796137,0.47796137)"
       clip-path="url(#clipPath12)" />
    <path
       id="path13"
       d="M 261,30 H 481 V 90 H 261 Z"
       style="fill:#f5f5f5;fill-opacity:1;fill-rule:nonzero;stroke:#666666;stroke-width:1;stroke-linecap:butt;stroke-linejoin:miter;stroke-miterlimit:10;stroke-dasharray:none;stroke-opacity:1"
       transform="matrix(0.95592274,0,0,0.95592274,0.47796137,0.47796137)"
       clip-path="url(#clipPath14)" />
    <text
       id="text14"
       xml:space="preserve"
       transform="matrix(0.95593228,0,0,0.95593228,277.59378,52.576275)"
       clip-path="url(#clipPath15)"><tspan
         style="font-variant:normal;font-weight:normal;font-size:20px;font-family:Helvetica;writing-mode:lr-tb;fill:#333333;fill-opacity:1;fill-rule:nonzero;stroke:none"
         x="0 13.339844 24.462891 34.462891 40.019531 50.019531 61.142578 72.265625 83.388672 94.511719 105.63477 112.29492 122.29492 127.85156 133.4082 144.53125 155.6543"
         y="0"
         sodipodi:role="line"
         id="tspan14">Any subquery that</tspan></text>
    <text
       id="text15"
       xml:space="preserve"
       transform="matrix(0.95593228,0,0,0.95593228,255.27873,75.51865)"
       clip-path="url(#clipPath16)"><tspan
         style="font-variant:normal;font-weight:normal;font-size:20px;font-family:Helvetica;writing-mode:lr-tb;fill:#333333;fill-opacity:1;fill-rule:nonzero;stroke:none"
         x="0 6.6601562 17.783203 27.783203 38.90625 43.349609 48.90625 58.90625 64.462891 68.90625 80.029297 85.585938 96.708984"
         y="0"
         sodipodi:role="line"
         id="tspan15">results in a </tspan></text>
    <text
       id="text16"
       xml:space="preserve"
       transform="matrix(0.95593228,0,0,0.95593228,353.03774,75.51865)"
       clip-path="url(#clipPath17)"><tspan
         style="font-style:oblique;font-variant:normal;font-weight:normal;font-size:20px;font-family:Helvetica;writing-mode:lr-tb;fill:#333333;fill-opacity:1;fill-rule:nonzero;stroke:none"
         x="0 10 14.443359 25.566406 36.689453 41.132812 52.255859 57.8125 67.8125 78.935547 83.378906 94.501953"
         y="0"
         sodipodi:role="line"
         id="tspan16">single value</tspan></text>
    <path
       id="path18"
       d="M 371,146 V 96.370003"
       style="fill:none;stroke:#000000;stroke-width:1;stroke-linecap:butt;stroke-linejoin:miter;stroke-miterlimit:10;stroke-dasharray:none;stroke-opacity:1"
       transform="matrix(0.95592274,0,0,0.95592274,0.47796137,0.47796137)"
       clip-path="url(#clipPath19)" />
    <path
       id="path20"
       d="m 371,91.120003 3.5,7 -3.5,-1.75 -3.5,1.75 z"
       style="fill:#000000;fill-opacity:1;fill-rule:nonzero;stroke:#000000;stroke-width:1;stroke-linecap:butt;stroke-linejoin:miter;stroke-miterlimit:10;stroke-dasharray:none;stroke-opacity:1"
       transform="matrix(0.95592274,0,0,0.95592274,0.47796137,0.47796137)"
       clip-path="url(#clipPath21)" />
    <path
       id="path22"
       d="m 266,146 h 210 v 75 H 266 Z"
       style="fill:#dae8fc;fill-opacity:1;fill-rule:nonzero;stroke:#6c8ebf;stroke-width:1;stroke-linecap:butt;stroke-linejoin:miter;stroke-miterlimit:10;stroke-dasharray:none;stroke-opacity:1"
       transform="matrix(0.95592274,0,0,0.95592274,0.47796137,0.47796137)"
       clip-path="url(#clipPath23)" />
  </g>
</svg>
