<?xml version="1.0" encoding="UTF-8" standalone="no"?>
<!-- Created with Inkscape (http://www.inkscape.org/) -->

<svg
   version="1.1"
   id="svg1"
   width="777.27997"
   height="436.16"
   viewBox="0 0 777.27997 436.16"
   sodipodi:docname="sql-20.pdf"
   xmlns:inkscape="http://www.inkscape.org/namespaces/inkscape"
   xmlns:sodipodi="http://sodipodi.sourceforge.net/DTD/sodipodi-0.dtd"
   xmlns="http://www.w3.org/2000/svg"
   xmlns:svg="http://www.w3.org/2000/svg">
  <defs
     id="defs1">
    <clipPath
       clipPathUnits="userSpaceOnUse"
       id="clipPath2">
      <path
         d="M 0,0 H 2429.1665 V 1359.854 H 0 Z"
         transform="scale(0.33385937)"
         clip-rule="evenodd"
         id="path2" />
    </clipPath>
    <clipPath
       clipPathUnits="userSpaceOnUse"
       id="clipPath4">
      <path
         d="M 0,0 H 2429.1665 V 1359.854 H 0 Z"
         transform="matrix(0.33385937,0,0,0.33385937,-0.50000001,-0.50000001)"
         clip-rule="evenodd"
         id="path4" />
    </clipPath>
    <clipPath
       clipPathUnits="userSpaceOnUse"
       id="clipPath5">
      <path
         d="M 0,0 H 2429.1665 V 1359.854 H 0 Z"
         transform="matrix(0.33385602,0,0,0.33385602,-17,-271)"
         clip-rule="evenodd"
         id="path5" />
    </clipPath>
    <clipPath
       clipPathUnits="userSpaceOnUse"
       id="clipPath6">
      <path
         d="M 0,0 H 2429.1665 V 1359.854 H 0 Z"
         transform="matrix(0.33385602,0,0,0.33385602,-93.016602,-271)"
         clip-rule="evenodd"
         id="path6" />
    </clipPath>
    <clipPath
       clipPathUnits="userSpaceOnUse"
       id="clipPath7">
      <path
         d="M 0,0 H 2429.1665 V 1359.854 H 0 Z"
         transform="matrix(0.33385602,0,0,0.33385602,-17,-315)"
         clip-rule="evenodd"
         id="path7" />
    </clipPath>
    <clipPath
       clipPathUnits="userSpaceOnUse"
       id="clipPath8">
      <path
         d="M 0,0 H 2429.1665 V 1359.854 H 0 Z"
         transform="matrix(0.33385602,0,0,0.33385602,-75.000977,-315)"
         clip-rule="evenodd"
         id="path8" />
    </clipPath>
    <clipPath
       clipPathUnits="userSpaceOnUse"
       id="clipPath9">
      <path
         d="M 0,0 H 2429.1665 V 1359.854 H 0 Z"
         transform="matrix(0.33385602,0,0,0.33385602,-17,-358)"
         clip-rule="evenodd"
         id="path9" />
    </clipPath>
    <clipPath
       clipPathUnits="userSpaceOnUse"
       id="clipPath10">
      <path
         d="M 0,0 H 2429.1665 V 1359.854 H 0 Z"
         transform="matrix(0.33385602,0,0,0.33385602,-17,-401)"
         clip-rule="evenodd"
         id="path10" />
    </clipPath>
    <clipPath
       clipPathUnits="userSpaceOnUse"
       id="clipPath11">
      <path
         d="M 0,0 H 2429.1665 V 1359.854 H 0 Z"
         transform="matrix(0.33385602,0,0,0.33385602,-17,-444)"
         clip-rule="evenodd"
         id="path11" />
    </clipPath>
    <clipPath
       clipPathUnits="userSpaceOnUse"
       id="clipPath13">
      <path
         d="M 0,0 H 2429.1665 V 1359.854 H 0 Z"
         transform="matrix(0.33385937,0,0,0.33385937,-0.50000001,-0.50000001)"
         clip-rule="evenodd"
         id="path13" />
    </clipPath>
    <clipPath
       clipPathUnits="userSpaceOnUse"
       id="clipPath15">
      <path
         d="M 0,0 H 2429.1665 V 1359.854 H 0 Z"
         transform="matrix(0.33385937,0,0,0.33385937,-0.50000001,-0.50000001)"
         clip-rule="evenodd"
         id="path15" />
    </clipPath>
    <clipPath
       clipPathUnits="userSpaceOnUse"
       id="clipPath17">
      <path
         d="M 0,0 H 2429.1665 V 1359.854 H 0 Z"
         transform="matrix(0.33385937,0,0,0.33385937,-0.50000001,-0.50000001)"
         clip-rule="evenodd"
         id="path17" />
    </clipPath>
    <clipPath
       clipPathUnits="userSpaceOnUse"
       id="clipPath19">
      <path
         d="M 0,0 H 2429.1665 V 1359.854 H 0 Z"
         transform="matrix(0.33385937,0,0,0.33385937,-0.50000001,-0.50000001)"
         clip-rule="evenodd"
         id="path19" />
    </clipPath>
    <clipPath
       clipPathUnits="userSpaceOnUse"
       id="clipPath20">
      <path
         d="M 0,0 H 2429.1665 V 1359.854 H 0 Z"
         transform="matrix(0.33385602,0,0,0.33385602,-350.39063,-337)"
         clip-rule="evenodd"
         id="path20" />
    </clipPath>
    <clipPath
       clipPathUnits="userSpaceOnUse"
       id="clipPath21">
      <path
         d="M 0,0 H 2429.1665 V 1359.854 H 0 Z"
         transform="matrix(0.33385602,0,0,0.33385602,-326.48438,-361)"
         clip-rule="evenodd"
         id="path21" />
    </clipPath>
    <clipPath
       clipPathUnits="userSpaceOnUse"
       id="clipPath22">
      <path
         d="M 0,0 H 2429.1665 V 1359.854 H 0 Z"
         transform="matrix(0.33385602,0,0,0.33385602,-343.25,-385)"
         clip-rule="evenodd"
         id="path22" />
    </clipPath>
    <clipPath
       clipPathUnits="userSpaceOnUse"
       id="clipPath24">
      <path
         d="M 0,0 H 2429.1665 V 1359.854 H 0 Z"
         transform="matrix(0.33385937,0,0,0.33385937,-0.50000001,-0.50000001)"
         clip-rule="evenodd"
         id="path24" />
    </clipPath>
    <clipPath
       clipPathUnits="userSpaceOnUse"
       id="clipPath26">
      <path
         d="M 0,0 H 2429.1665 V 1359.854 H 0 Z"
         transform="matrix(0.33385937,0,0,0.33385937,-0.50000001,-0.50000001)"
         clip-rule="evenodd"
         id="path26" />
    </clipPath>
    <clipPath
       clipPathUnits="userSpaceOnUse"
       id="clipPath28">
      <path
         d="M 0,0 H 2429.1665 V 1359.854 H 0 Z"
         transform="matrix(0.33385937,0,0,0.33385937,-0.50000001,-0.50000001)"
         clip-rule="evenodd"
         id="path28" />
    </clipPath>
    <clipPath
       clipPathUnits="userSpaceOnUse"
       id="clipPath29">
      <path
         d="M 0,0 H 2429.1665 V 1359.854 H 0 Z"
         transform="matrix(0.33385602,0,0,0.33385602,-597,-339)"
         clip-rule="evenodd"
         id="path29" />
    </clipPath>
    <clipPath
       clipPathUnits="userSpaceOnUse"
       id="clipPath30">
      <path
         d="M 0,0 H 2429.1665 V 1359.854 H 0 Z"
         transform="matrix(0.33385602,0,0,0.33385602,-673.01661,-339)"
         clip-rule="evenodd"
         id="path30" />
    </clipPath>
    <clipPath
       clipPathUnits="userSpaceOnUse"
       id="clipPath31">
      <path
         d="M 0,0 H 2429.1665 V 1359.854 H 0 Z"
         transform="matrix(0.33385602,0,0,0.33385602,-597,-361)"
         clip-rule="evenodd"
         id="path31" />
    </clipPath>
    <clipPath
       clipPathUnits="userSpaceOnUse"
       id="clipPath32">
      <path
         d="M 0,0 H 2429.1665 V 1359.854 H 0 Z"
         transform="matrix(0.33385602,0,0,0.33385602,-655,-361)"
         clip-rule="evenodd"
         id="path32" />
    </clipPath>
    <clipPath
       clipPathUnits="userSpaceOnUse"
       id="clipPath33">
      <path
         d="M 0,0 H 2429.1665 V 1359.854 H 0 Z"
         transform="matrix(0.33385602,0,0,0.33385602,-597,-382)"
         clip-rule="evenodd"
         id="path33" />
    </clipPath>
    <clipPath
       clipPathUnits="userSpaceOnUse"
       id="clipPath34">
      <path
         d="M 0,0 H 2429.1665 V 1359.854 H 0 Z"
         transform="matrix(0.33385602,0,0,0.33385602,-669,-382)"
         clip-rule="evenodd"
         id="path34" />
    </clipPath>
    <clipPath
       clipPathUnits="userSpaceOnUse"
       id="clipPath36">
      <path
         d="M 0,0 H 2429.1665 V 1359.854 H 0 Z"
         transform="matrix(0.33385937,0,0,0.33385937,-0.50000001,-0.50000001)"
         clip-rule="evenodd"
         id="path36" />
    </clipPath>
    <clipPath
       clipPathUnits="userSpaceOnUse"
       id="clipPath37">
      <path
         d="M 0,0 H 2429.1665 V 1359.854 H 0 Z"
         transform="matrix(0.33385602,0,0,0.33385602,-400.96875,-23)"
         clip-rule="evenodd"
         id="path37" />
    </clipPath>
    <clipPath
       clipPathUnits="userSpaceOnUse"
       id="clipPath39">
      <path
         d="M 0,0 H 2429.1665 V 1359.854 H 0 Z"
         transform="matrix(0.33385937,0,0,0.33385937,-0.50000001,-0.50000001)"
         clip-rule="evenodd"
         id="path39" />
    </clipPath>
    <clipPath
       clipPathUnits="userSpaceOnUse"
       id="clipPath41">
      <path
         d="M 0,0 H 2429.1665 V 1359.854 H 0 Z"
         transform="matrix(0.33385937,0,0,0.33385937,-0.50000001,-0.50000001)"
         clip-rule="evenodd"
         id="path41" />
    </clipPath>
    <clipPath
       clipPathUnits="userSpaceOnUse"
       id="clipPath42">
      <path
         d="M 0,0 H 2429.1665 V 1359.854 H 0 Z"
         transform="matrix(0.33385602,0,0,0.33385602,-304.64064,-69)"
         clip-rule="evenodd"
         id="path42" />
    </clipPath>
    <clipPath
       clipPathUnits="userSpaceOnUse"
       id="clipPath44">
      <path
         d="M 0,0 H 2429.1665 V 1359.854 H 0 Z"
         transform="matrix(0.33385937,0,0,0.33385937,-0.50000001,-0.50000001)"
         clip-rule="evenodd"
         id="path44" />
    </clipPath>
    <clipPath
       clipPathUnits="userSpaceOnUse"
       id="clipPath45">
      <path
         d="M 0,0 H 2429.1665 V 1359.854 H 0 Z"
         transform="matrix(0.33385602,0,0,0.33385602,-511.09375,-69)"
         clip-rule="evenodd"
         id="path45" />
    </clipPath>
    <clipPath
       clipPathUnits="userSpaceOnUse"
       id="clipPath47">
      <path
         d="M 0,0 H 2429.1665 V 1359.854 H 0 Z"
         transform="matrix(0.33385937,0,0,0.33385937,-0.50000001,-0.50000001)"
         clip-rule="evenodd"
         id="path47" />
    </clipPath>
    <clipPath
       clipPathUnits="userSpaceOnUse"
       id="clipPath48">
      <path
         d="M 0,0 H 2429.1665 V 1359.854 H 0 Z"
         transform="matrix(0.33385602,0,0,0.33385602,-241.32813,-93.000001)"
         clip-rule="evenodd"
         id="path48" />
    </clipPath>
    <clipPath
       clipPathUnits="userSpaceOnUse"
       id="clipPath50">
      <path
         d="M 0,0 H 2429.1665 V 1359.854 H 0 Z"
         transform="matrix(0.33385937,0,0,0.33385937,-0.50000001,-0.50000001)"
         clip-rule="evenodd"
         id="path50" />
    </clipPath>
    <clipPath
       clipPathUnits="userSpaceOnUse"
       id="clipPath51">
      <path
         d="M 0,0 H 2429.1665 V 1359.854 H 0 Z"
         transform="matrix(0.33385602,0,0,0.33385602,-282.98438,-93.000001)"
         clip-rule="evenodd"
         id="path51" />
    </clipPath>
    <clipPath
       clipPathUnits="userSpaceOnUse"
       id="clipPath53">
      <path
         d="M 0,0 H 2429.1665 V 1359.854 H 0 Z"
         transform="matrix(0.33385937,0,0,0.33385937,-0.50000001,-0.50000001)"
         clip-rule="evenodd"
         id="path53" />
    </clipPath>
    <clipPath
       clipPathUnits="userSpaceOnUse"
       id="clipPath54">
      <path
         d="M 0,0 H 2429.1665 V 1359.854 H 0 Z"
         transform="matrix(0.33385602,0,0,0.33385602,-363.31251,-93.000001)"
         clip-rule="evenodd"
         id="path54" />
    </clipPath>
    <clipPath
       clipPathUnits="userSpaceOnUse"
       id="clipPath56">
      <path
         d="M 0,0 H 2429.1665 V 1359.854 H 0 Z"
         transform="matrix(0.33385937,0,0,0.33385937,-0.50000001,-0.50000001)"
         clip-rule="evenodd"
         id="path56" />
    </clipPath>
    <clipPath
       clipPathUnits="userSpaceOnUse"
       id="clipPath57">
      <path
         d="M 0,0 H 2429.1665 V 1359.854 H 0 Z"
         transform="matrix(0.33385602,0,0,0.33385602,-451.32813,-93.000001)"
         clip-rule="evenodd"
         id="path57" />
    </clipPath>
    <clipPath
       clipPathUnits="userSpaceOnUse"
       id="clipPath59">
      <path
         d="M 0,0 H 2429.1665 V 1359.854 H 0 Z"
         transform="matrix(0.33385937,0,0,0.33385937,-0.50000001,-0.50000001)"
         clip-rule="evenodd"
         id="path59" />
    </clipPath>
    <clipPath
       clipPathUnits="userSpaceOnUse"
       id="clipPath60">
      <path
         d="M 0,0 H 2429.1665 V 1359.854 H 0 Z"
         transform="matrix(0.33385602,0,0,0.33385602,-242.9375,-213)"
         clip-rule="evenodd"
         id="path60" />
    </clipPath>
    <clipPath
       clipPathUnits="userSpaceOnUse"
       id="clipPath62">
      <path
         d="M 0,0 H 2429.1665 V 1359.854 H 0 Z"
         transform="matrix(0.33385937,0,0,0.33385937,-0.50000001,-0.50000001)"
         clip-rule="evenodd"
         id="path62" />
    </clipPath>
    <clipPath
       clipPathUnits="userSpaceOnUse"
       id="clipPath63">
      <path
         d="M 0,0 H 2429.1665 V 1359.854 H 0 Z"
         transform="matrix(0.33385602,0,0,0.33385602,-292.34375,-213)"
         clip-rule="evenodd"
         id="path63" />
    </clipPath>
    <clipPath
       clipPathUnits="userSpaceOnUse"
       id="clipPath65">
      <path
         d="M 0,0 H 2429.1665 V 1359.854 H 0 Z"
         transform="matrix(0.33385937,0,0,0.33385937,-0.50000001,-0.50000001)"
         clip-rule="evenodd"
         id="path65" />
    </clipPath>
    <clipPath
       clipPathUnits="userSpaceOnUse"
       id="clipPath66">
      <path
         d="M 0,0 H 2429.1665 V 1359.854 H 0 Z"
         transform="matrix(0.33385602,0,0,0.33385602,-373.26563,-213)"
         clip-rule="evenodd"
         id="path66" />
    </clipPath>
    <clipPath
       clipPathUnits="userSpaceOnUse"
       id="clipPath68">
      <path
         d="M 0,0 H 2429.1665 V 1359.854 H 0 Z"
         transform="matrix(0.33385937,0,0,0.33385937,-0.50000001,-0.50000001)"
         clip-rule="evenodd"
         id="path68" />
    </clipPath>
    <clipPath
       clipPathUnits="userSpaceOnUse"
       id="clipPath69">
      <path
         d="M 0,0 H 2429.1665 V 1359.854 H 0 Z"
         transform="matrix(0.33385602,0,0,0.33385602,-452.9375,-213)"
         clip-rule="evenodd"
         id="path69" />
    </clipPath>
    <clipPath
       clipPathUnits="userSpaceOnUse"
       id="clipPath71">
      <path
         d="M 0,0 H 2429.1665 V 1359.854 H 0 Z"
         transform="matrix(0.33385937,0,0,0.33385937,-0.50000001,-0.50000001)"
         clip-rule="evenodd"
         id="path71" />
    </clipPath>
    <clipPath
       clipPathUnits="userSpaceOnUse"
       id="clipPath72">
      <path
         d="M 0,0 H 2429.1665 V 1359.854 H 0 Z"
         transform="matrix(0.33385602,0,0,0.33385602,-486.3125,-93.000001)"
         clip-rule="evenodd"
         id="path72" />
    </clipPath>
    <clipPath
       clipPathUnits="userSpaceOnUse"
       id="clipPath74">
      <path
         d="M 0,0 H 2429.1665 V 1359.854 H 0 Z"
         transform="matrix(0.33385937,0,0,0.33385937,-0.50000001,-0.50000001)"
         clip-rule="evenodd"
         id="path74" />
    </clipPath>
    <clipPath
       clipPathUnits="userSpaceOnUse"
       id="clipPath75">
      <path
         d="M 0,0 H 2429.1665 V 1359.854 H 0 Z"
         transform="matrix(0.33385602,0,0,0.33385602,-502.93751,-213)"
         clip-rule="evenodd"
         id="path75" />
    </clipPath>
    <clipPath
       clipPathUnits="userSpaceOnUse"
       id="clipPath77">
      <path
         d="M 0,0 H 2429.1665 V 1359.854 H 0 Z"
         transform="matrix(0.33385937,0,0,0.33385937,-0.50000001,-0.50000001)"
         clip-rule="evenodd"
         id="path77" />
    </clipPath>
    <clipPath
       clipPathUnits="userSpaceOnUse"
       id="clipPath78">
      <path
         d="M 0,0 H 2429.1665 V 1359.854 H 0 Z"
         transform="matrix(0.33385602,0,0,0.33385602,-533.96876,-93.000001)"
         clip-rule="evenodd"
         id="path78" />
    </clipPath>
    <clipPath
       clipPathUnits="userSpaceOnUse"
       id="clipPath80">
      <path
         d="M 0,0 H 2429.1665 V 1359.854 H 0 Z"
         transform="matrix(0.33385937,0,0,0.33385937,-0.50000001,-0.50000001)"
         clip-rule="evenodd"
         id="path80" />
    </clipPath>
    <clipPath
       clipPathUnits="userSpaceOnUse"
       id="clipPath81">
      <path
         d="M 0,0 H 2429.1665 V 1359.854 H 0 Z"
         transform="matrix(0.33385602,0,0,0.33385602,-558.9375,-213)"
         clip-rule="evenodd"
         id="path81" />
    </clipPath>
    <clipPath
       clipPathUnits="userSpaceOnUse"
       id="clipPath83">
      <path
         d="M 0,0 H 2429.1665 V 1359.854 H 0 Z"
         transform="matrix(0.33385937,0,0,0.33385937,-0.50000001,-0.50000001)"
         clip-rule="evenodd"
         id="path83" />
    </clipPath>
    <clipPath
       clipPathUnits="userSpaceOnUse"
       id="clipPath84">
      <path
         d="M 0,0 H 2429.1665 V 1359.854 H 0 Z"
         transform="matrix(0.33385602,0,0,0.33385602,-605.65625,-93.000001)"
         clip-rule="evenodd"
         id="path84" />
    </clipPath>
    <clipPath
       clipPathUnits="userSpaceOnUse"
       id="clipPath86">
      <path
         d="M 0,0 H 2429.1665 V 1359.854 H 0 Z"
         transform="matrix(0.33385937,0,0,0.33385937,-0.50000001,-0.50000001)"
         clip-rule="evenodd"
         id="path86" />
    </clipPath>
    <clipPath
       clipPathUnits="userSpaceOnUse"
       id="clipPath87">
      <path
         d="M 0,0 H 2429.1665 V 1359.854 H 0 Z"
         transform="matrix(0.33385602,0,0,0.33385602,-607.51563,-213)"
         clip-rule="evenodd"
         id="path87" />
    </clipPath>
  </defs>
  <sodipodi:namedview
     id="namedview1"
     pagecolor="#ffffff"
     bordercolor="#000000"
     borderopacity="0.25"
     inkscape:showpageshadow="2"
     inkscape:pageopacity="0.0"
     inkscape:pagecheckerboard="0"
     inkscape:deskcolor="#d1d1d1">
    <inkscape:page
       x="0"
       y="0"
       inkscape:label="1"
       id="page1"
       width="777.27997"
       height="436.16"
       margin="0"
       bleed="0" />
  </sodipodi:namedview>
  <g
     id="g1"
     inkscape:groupmode="layer"
     inkscape:label="1">
    <path
       id="path1"
       d="M 0,0 H 811 V 454 H 0 Z"
       style="fill:#ffffff;fill-opacity:1;fill-rule:nonzero;stroke:none"
       transform="scale(0.95848735)"
       clip-path="url(#clipPath2)" />
    <path
       id="path3"
       d="M 1,251 H 291 V 451 H 1 Z"
       style="fill:#dae8fc;fill-opacity:1;fill-rule:nonzero;stroke:#6c8ebf;stroke-width:1;stroke-linecap:butt;stroke-linejoin:miter;stroke-miterlimit:10;stroke-dasharray:none;stroke-opacity:1"
       transform="matrix(0.95848735,0,0,0.95848735,0.47924368,0.47924368)"
       clip-path="url(#clipPath4)" />
    <text
       id="text4"
       xml:space="preserve"
       transform="matrix(0.95849698,0,0,0.95849698,16.294449,259.75268)"
       clip-path="url(#clipPath5)"><tspan
         style="font-variant:normal;font-weight:700;font-size:18px;font-family:Helvetica;writing-mode:lr-tb;fill:#000000;fill-opacity:1;fill-rule:nonzero;stroke:none"
         x="0 12.005859 24.011719 35.006836 47.012695 60.011719"
         y="0"
         sodipodi:role="line"
         id="tspan4">SELECT</tspan></text>
    <g
       id="g5" />
    <text
       id="text5"
       xml:space="preserve"
       transform="matrix(0.95849698,0,0,0.95849698,89.156132,259.75268)"
       clip-path="url(#clipPath6)"><tspan
         style="font-variant:normal;font-weight:normal;font-size:18px;font-family:Helvetica;writing-mode:lr-tb;fill:#000000;fill-opacity:1;fill-rule:nonzero;stroke:none"
         x="0 9 14.994141 23.994141 28.995117 39.005859 49.016602 59.027344 74.021484 84.032227"
         y="0"
         sodipodi:role="line"
         id="tspan5">ﬁrst_name </tspan></text>
    <text
       id="text6"
       xml:space="preserve"
       transform="matrix(0.95849698,0,0,0.95849698,16.294449,301.92655)"
       clip-path="url(#clipPath7)"><tspan
         style="font-variant:normal;font-weight:700;font-size:18px;font-family:Helvetica;writing-mode:lr-tb;fill:#000000;fill-opacity:1;fill-rule:nonzero;stroke:none"
         x="0 10.995117 23.994141 37.995117"
         y="0"
         sodipodi:role="line"
         id="tspan6">FROM</tspan></text>
    <text
       id="text7"
       xml:space="preserve"
       transform="matrix(0.95849698,0,0,0.95849698,71.88821,301.92655)"
       clip-path="url(#clipPath8)"><tspan
         style="font-variant:normal;font-weight:normal;font-size:18px;font-family:Helvetica;writing-mode:lr-tb;fill:#000000;fill-opacity:1;fill-rule:nonzero;stroke:none"
         x="0 10.010742 16.004883 26.015625 36.026367 46.037109 55.037109 60.038086"
         y="0"
         sodipodi:role="line"
         id="tspan7">products</tspan></text>
    <text
       id="text8"
       xml:space="preserve"
       transform="matrix(0.95849698,0,0,0.95849698,16.294449,343.14192)"
       clip-path="url(#clipPath9)"><tspan
         style="font-variant:normal;font-weight:700;font-size:18px;font-family:Helvetica;writing-mode:lr-tb;fill:#000000;fill-opacity:1;fill-rule:nonzero;stroke:none"
         x="0 10.010742 24.011719 29.012695 42.011719 47.012695"
         y="0"
         sodipodi:role="line"
         id="tspan8">JOIN (</tspan></text>
    <text
       id="text9"
       xml:space="preserve"
       transform="matrix(0.95849698,0,0,0.95849698,16.294449,384.35729)"
       clip-path="url(#clipPath10)"><tspan
         style="font-variant:normal;font-weight:700;font-size:18px;font-family:Helvetica;writing-mode:lr-tb;fill:#000000;fill-opacity:1;fill-rule:nonzero;stroke:none"
         x="0 5.9941406 10.335938 23.334961 35.34082 40.341797"
         y="0"
         sodipodi:role="line"
         id="tspan9">) AS o</tspan></text>
    <text
       id="text10"
       xml:space="preserve"
       transform="matrix(0.95849698,0,0,0.95849698,16.294449,425.57266)"
       clip-path="url(#clipPath11)"><tspan
         style="font-variant:normal;font-weight:700;font-size:18px;font-family:Helvetica;writing-mode:lr-tb;fill:#000000;fill-opacity:1;fill-rule:nonzero;stroke:none"
         x="0 14.000977 27 32.000977 42.996094 47.99707 52.998047 63.993164 68.994141 79.505859 84.506836 95.501953 102.50684 113.50195 124.49707 135.49219 145.50293 151.49707 161.50781 166.50879 177.50391 187.51465 197.52539 204.53027 214.54102 219.54199"
         y="0"
         sodipodi:role="line"
         id="tspan10">ON o.id = products.user_id</tspan></text>
    <path
       id="path12"
       d="m 77,339 h 134 v 30 H 77 Z"
       style="fill:none;stroke:#6c8ebf;stroke-width:1;stroke-linecap:butt;stroke-linejoin:miter;stroke-miterlimit:10;stroke-dasharray:none;stroke-opacity:1"
       transform="matrix(0.95848735,0,0,0.95848735,0.47924368,0.47924368)"
       clip-path="url(#clipPath13)" />
    <path
       id="path14"
       d="M 321,354 H 217.37"
       style="fill:none;stroke:#000000;stroke-width:1;stroke-linecap:butt;stroke-linejoin:miter;stroke-miterlimit:10;stroke-dasharray:none;stroke-opacity:1"
       transform="matrix(0.95848735,0,0,0.95848735,0.47924368,0.47924368)"
       clip-path="url(#clipPath15)" />
    <path
       id="path16"
       d="m 212.12,354 7,-3.5 -1.75,3.5 1.75,3.5 z"
       style="fill:#000000;fill-opacity:1;fill-rule:nonzero;stroke:#000000;stroke-width:1;stroke-linecap:butt;stroke-linejoin:miter;stroke-miterlimit:10;stroke-dasharray:none;stroke-opacity:1"
       transform="matrix(0.95848735,0,0,0.95848735,0.47924368,0.47924368)"
       clip-path="url(#clipPath17)" />
    <path
       id="path18"
       d="m 321,312.5 h 220 v 83 H 321 Z"
       style="fill:#f5f5f5;fill-opacity:1;fill-rule:nonzero;stroke:#666666;stroke-width:1;stroke-linecap:butt;stroke-linejoin:miter;stroke-miterlimit:10;stroke-dasharray:none;stroke-opacity:1"
       transform="matrix(0.95848735,0,0,0.95848735,0.47924368,0.47924368)"
       clip-path="url(#clipPath19)" />
    <text
       id="text19"
       xml:space="preserve"
       transform="matrix(0.95849698,0,0,0.95849698,335.84836,323.01348)"
       clip-path="url(#clipPath20)"><tspan
         style="font-variant:normal;font-weight:normal;font-size:20px;font-family:Helvetica;writing-mode:lr-tb;fill:#333333;fill-opacity:1;fill-rule:nonzero;stroke:none"
         x="0 13.339844 24.462891 34.462891 40.019531 50.019531 61.142578 72.265625 83.388672 94.511719 105.63477 112.29492 122.29492 127.85156 133.4082 144.53125 155.6543"
         y="0"
         sodipodi:role="line"
         id="tspan19">Any subquery that</tspan></text>
    <text
       id="text20"
       xml:space="preserve"
       transform="matrix(0.95849698,0,0,0.95849698,312.93429,346.01741)"
       clip-path="url(#clipPath21)"><tspan
         style="font-variant:normal;font-weight:normal;font-size:20px;font-family:Helvetica;writing-mode:lr-tb;fill:#333333;fill-opacity:1;fill-rule:nonzero;stroke:none"
         x="0 6.6601562 17.783203 23.339844 34.462891 41.123047 52.246094 62.246094 67.802734 78.925781 90.048828 95.605469 106.72852 112.28516 122.28516 133.4082 150.06836 161.19141 172.31445 177.87109 182.31445 193.4375 197.88086"
         y="0"
         sodipodi:role="line"
         id="tspan20">returns data compatible</tspan></text>
    <text
       id="text21"
       xml:space="preserve"
       transform="matrix(0.95849698,0,0,0.95849698,329.00409,369.02134)"
       clip-path="url(#clipPath22)"><tspan
         style="font-variant:normal;font-weight:normal;font-size:20px;font-family:Helvetica;writing-mode:lr-tb;fill:#333333;fill-opacity:1;fill-rule:nonzero;stroke:none"
         x="0 14.443359 18.886719 24.443359 35.566406 41.123047 46.679688 57.802734 68.925781 74.482422 78.300781 93.857422 108.30078 112.11914 117.67578 127.67578 132.11914 143.24219 154.36523 164.36523"
         y="0"
         sodipodi:role="line"
         id="tspan21">with the 'ON' clause</tspan></text>
    <path
       id="path23"
       d="M 581.01001,354 H 547.37"
       style="fill:none;stroke:#000000;stroke-width:1;stroke-linecap:butt;stroke-linejoin:miter;stroke-miterlimit:10;stroke-dasharray:none;stroke-opacity:1"
       transform="matrix(0.95848735,0,0,0.95848735,0.47924368,0.47924368)"
       clip-path="url(#clipPath24)" />
    <path
       id="path25"
       d="m 542.12,354 7,-3.5 -1.75,3.5 1.75,3.5 z"
       style="fill:#000000;fill-opacity:1;fill-rule:nonzero;stroke:#000000;stroke-width:1;stroke-linecap:butt;stroke-linejoin:miter;stroke-miterlimit:10;stroke-dasharray:none;stroke-opacity:1"
       transform="matrix(0.95848735,0,0,0.95848735,0.47924368,0.47924368)"
       clip-path="url(#clipPath26)" />
    <path
       id="path27"
       d="m 581.01001,316.5 h 227.5 v 75 h -227.5 z"
       style="fill:#dae8fc;fill-opacity:1;fill-rule:nonzero;stroke:#6c8ebf;stroke-width:1;stroke-linecap:butt;stroke-linejoin:miter;stroke-miterlimit:10;stroke-dasharray:none;stroke-opacity:1"
       transform="matrix(0.95848735,0,0,0.95848735,0.47924368,0.47924368)"
       clip-path="url(#clipPath28)" />
    <text
       id="text28"
       xml:space="preserve"
       transform="matrix(0.95849698,0,0,0.95849698,572.2227,324.93048)"
       clip-path="url(#clipPath29)"><tspan
         style="font-variant:normal;font-weight:700;font-size:18px;font-family:Helvetica;writing-mode:lr-tb;fill:#000000;fill-opacity:1;fill-rule:nonzero;stroke:none"
         x="0 12.005859 24.011719 35.006836 47.012695 60.011719"
         y="0"
         sodipodi:role="line"
         id="tspan28">SELECT</tspan></text>
    <text
       id="text29"
       xml:space="preserve"
       transform="matrix(0.95849698,0,0,0.95849698,645.08439,324.93048)"
       clip-path="url(#clipPath30)"><tspan
         style="font-variant:normal;font-weight:normal;font-size:18px;font-family:Helvetica;writing-mode:lr-tb;fill:#000000;fill-opacity:1;fill-rule:nonzero;stroke:none"
         x="0 10.010742 19.010742 29.021484 35.015625 45.026367 49.025391"
         y="0"
         sodipodi:role="line"
         id="tspan29">user_id</tspan></text>
    <text
       id="text30"
       xml:space="preserve"
       transform="matrix(0.95849698,0,0,0.95849698,572.2227,346.01741)"
       clip-path="url(#clipPath31)"><tspan
         style="font-variant:normal;font-weight:700;font-size:18px;font-family:Helvetica;writing-mode:lr-tb;fill:#000000;fill-opacity:1;fill-rule:nonzero;stroke:none"
         x="0 10.995117 23.994141 37.995117 52.989258"
         y="0"
         sodipodi:role="line"
         id="tspan30">FROM </tspan></text>
    <text
       id="text31"
       xml:space="preserve"
       transform="matrix(0.95849698,0,0,0.95849698,627.81552,346.01741)"
       clip-path="url(#clipPath32)"><tspan
         style="font-variant:normal;font-weight:normal;font-size:18px;font-family:Helvetica;writing-mode:lr-tb;fill:#000000;fill-opacity:1;fill-rule:nonzero;stroke:none"
         x="0 10.010742 16.004883 26.015625 36.026367 42.020508"
         y="0"
         sodipodi:role="line"
         id="tspan31">orders</tspan></text>
    <text
       id="text32"
       xml:space="preserve"
       transform="matrix(0.95849698,0,0,0.95849698,572.2227,366.14585)"
       clip-path="url(#clipPath33)"><tspan
         style="font-variant:normal;font-weight:700;font-size:18px;font-family:Helvetica;writing-mode:lr-tb;fill:#000000;fill-opacity:1;fill-rule:nonzero;stroke:none"
         x="0 16.989258 29.988281 41.994141 54.993164 66.999023"
         y="0"
         sodipodi:role="line"
         id="tspan32">WHERE </tspan></text>
    <text
       id="text33"
       xml:space="preserve"
       transform="matrix(0.95849698,0,0,0.95849698,641.23448,366.14585)"
       clip-path="url(#clipPath34)"><tspan
         style="font-variant:normal;font-weight:normal;font-size:18px;font-family:Helvetica;writing-mode:lr-tb;fill:#000000;fill-opacity:1;fill-rule:nonzero;stroke:none"
         x="0 10.010742 16.004883 26.015625 36.026367 46.037109 55.037109 60.038086 70.048828 74.047852 84.058594 89.05957 99.571289 104.57227"
         y="0"
         sodipodi:role="line"
         id="tspan33">product_id = 3</tspan></text>
    <path
       id="path35"
       d="M 211,1 H 671 V 31 H 211 Z"
       style="fill:#d5e8d4;fill-opacity:1;fill-rule:nonzero;stroke:#82b366;stroke-width:1;stroke-linecap:butt;stroke-linejoin:miter;stroke-miterlimit:10;stroke-dasharray:none;stroke-opacity:1"
       transform="matrix(0.95848735,0,0,0.95848735,0.47924368,0.47924368)"
       clip-path="url(#clipPath36)" />
    <text
       id="text36"
       xml:space="preserve"
       transform="matrix(0.95849698,0,0,0.95849698,384.32734,22.045431)"
       clip-path="url(#clipPath37)"><tspan
         style="font-variant:normal;font-weight:700;font-size:18px;font-family:Helvetica;writing-mode:lr-tb;fill:#000000;fill-opacity:1;fill-rule:nonzero;stroke:none"
         x="0 12.999023 23.009766 29.003906 39.014648 50.009766 60.020508 70.03125"
         y="0"
         sodipodi:role="line"
         id="tspan36">Database</tspan></text>
    <path
       id="path38"
       d="M 211,31 H 671 V 231 H 211 Z"
       style="fill:#d5e8d4;fill-opacity:1;fill-rule:nonzero;stroke:#82b366;stroke-width:1;stroke-linecap:butt;stroke-linejoin:miter;stroke-miterlimit:10;stroke-dasharray:none;stroke-opacity:1"
       transform="matrix(0.95848735,0,0,0.95848735,0.47924368,0.47924368)"
       clip-path="url(#clipPath39)" />
    <path
       id="path40"
       d="M 221,51 H 431 V 77 H 221 Z"
       style="fill:#ffe6cc;fill-opacity:1;fill-rule:nonzero;stroke:#d79b00;stroke-width:1;stroke-linecap:butt;stroke-linejoin:miter;stroke-miterlimit:10;stroke-dasharray:none;stroke-opacity:1"
       transform="matrix(0.95848735,0,0,0.95848735,0.47924368,0.47924368)"
       clip-path="url(#clipPath41)" />
    <text
       id="text41"
       xml:space="preserve"
       transform="matrix(0.95849698,0,0,0.95849698,291.99713,66.136292)"
       clip-path="url(#clipPath42)"><tspan
         style="font-variant:normal;font-weight:700;font-size:16px;font-family:Helvetica;writing-mode:lr-tb;fill:#000000;fill-opacity:1;fill-rule:nonzero;stroke:none"
         x="0 9.7734375 18.671875 27.570312 33.796875"
         y="0"
         sodipodi:role="line"
         id="tspan41">users</tspan></text>
    <path
       id="path43"
       d="M 431,51 H 641 V 77 H 431 Z"
       style="fill:#ffe6cc;fill-opacity:1;fill-rule:nonzero;stroke:#d79b00;stroke-width:1;stroke-linecap:butt;stroke-linejoin:miter;stroke-miterlimit:10;stroke-dasharray:none;stroke-opacity:1"
       transform="matrix(0.95848735,0,0,0.95848735,0.47924368,0.47924368)"
       clip-path="url(#clipPath44)" />
    <text
       id="text44"
       xml:space="preserve"
       transform="matrix(0.95849698,0,0,0.95849698,489.88182,66.136292)"
       clip-path="url(#clipPath45)"><tspan
         style="font-variant:normal;font-weight:700;font-size:16px;font-family:Helvetica;writing-mode:lr-tb;fill:#000000;fill-opacity:1;fill-rule:nonzero;stroke:none"
         x="0 9.7734375 16 25.773438 34.671875 40.898438"
         y="0"
         sodipodi:role="line"
         id="tspan44">orders</tspan></text>
    <path
       id="path46"
       d="m 221,77 h 50 v 24 h -50 z"
       style="fill:#f5f5f5;fill-opacity:1;fill-rule:nonzero;stroke:#666666;stroke-width:1;stroke-linecap:butt;stroke-linejoin:miter;stroke-miterlimit:10;stroke-dasharray:none;stroke-opacity:1"
       transform="matrix(0.95848735,0,0,0.95848735,0.47924368,0.47924368)"
       clip-path="url(#clipPath47)" />
    <text
       id="text47"
       xml:space="preserve"
       transform="matrix(0.95849698,0,0,0.95849698,231.31228,89.14022)"
       clip-path="url(#clipPath48)"><tspan
         style="font-style:oblique;font-variant:normal;font-weight:normal;font-size:12px;font-family:Helvetica;writing-mode:lr-tb;fill:#333333;fill-opacity:1;fill-rule:nonzero;stroke:none"
         x="0 2.6660156"
         y="0"
         sodipodi:role="line"
         id="tspan47">id</tspan></text>
    <path
       id="path49"
       d="m 271,77 h 80 v 24 h -80 z"
       style="fill:#f5f5f5;fill-opacity:1;fill-rule:nonzero;stroke:#666666;stroke-width:1;stroke-linecap:butt;stroke-linejoin:miter;stroke-miterlimit:10;stroke-dasharray:none;stroke-opacity:1"
       transform="matrix(0.95848735,0,0,0.95848735,0.47924368,0.47924368)"
       clip-path="url(#clipPath50)" />
    <g
       id="g50" />
    <text
       id="text50"
       xml:space="preserve"
       transform="matrix(0.95849698,0,0,0.95849698,271.23967,89.14022)"
       clip-path="url(#clipPath51)"><tspan
         style="font-style:oblique;font-variant:normal;font-weight:normal;font-size:12px;font-family:Helvetica;writing-mode:lr-tb;fill:#333333;fill-opacity:1;fill-rule:nonzero;stroke:none"
         x="0 6 9.9960938 15.996094 19.330078 26.003906 32.677734 39.351562 49.347656"
         y="0"
         sodipodi:role="line"
         id="tspan50">ﬁrst_name</tspan></text>
    <path
       id="path52"
       d="m 351,77 h 80 v 24 h -80 z"
       style="fill:#f5f5f5;fill-opacity:1;fill-rule:nonzero;stroke:#666666;stroke-width:1;stroke-linecap:butt;stroke-linejoin:miter;stroke-miterlimit:10;stroke-dasharray:none;stroke-opacity:1"
       transform="matrix(0.95848735,0,0,0.95848735,0.47924368,0.47924368)"
       clip-path="url(#clipPath53)" />
    <text
       id="text53"
       xml:space="preserve"
       transform="matrix(0.95849698,0,0,0.95849698,348.23394,89.14022)"
       clip-path="url(#clipPath54)"><tspan
         style="font-style:oblique;font-variant:normal;font-weight:normal;font-size:12px;font-family:Helvetica;writing-mode:lr-tb;fill:#333333;fill-opacity:1;fill-rule:nonzero;stroke:none"
         x="0 2.6660156 9.3398438 15.339844 18.673828 25.347656 32.021484 38.695312 48.691406"
         y="0"
         sodipodi:role="line"
         id="tspan53">last_name</tspan></text>
    <path
       id="path55"
       d="m 431,77 h 50 v 24 h -50 z"
       style="fill:#f5f5f5;fill-opacity:1;fill-rule:nonzero;stroke:#666666;stroke-width:1;stroke-linecap:butt;stroke-linejoin:miter;stroke-miterlimit:10;stroke-dasharray:none;stroke-opacity:1"
       transform="matrix(0.95848735,0,0,0.95848735,0.47924368,0.47924368)"
       clip-path="url(#clipPath56)" />
    <text
       id="text56"
       xml:space="preserve"
       transform="matrix(0.95849698,0,0,0.95849698,432.59665,89.14022)"
       clip-path="url(#clipPath57)"><tspan
         style="font-style:oblique;font-variant:normal;font-weight:normal;font-size:12px;font-family:Helvetica;writing-mode:lr-tb;fill:#333333;fill-opacity:1;fill-rule:nonzero;stroke:none"
         x="0 2.6660156"
         y="0"
         sodipodi:role="line"
         id="tspan56">id</tspan></text>
    <path
       id="path58"
       d="m 221,197 h 50 v 24 h -50 z"
       style="fill:#ffffff;fill-opacity:1;fill-rule:nonzero;stroke:#000000;stroke-width:1;stroke-linecap:butt;stroke-linejoin:miter;stroke-miterlimit:10;stroke-dasharray:none;stroke-opacity:1"
       transform="matrix(0.95848735,0,0,0.95848735,0.47924368,0.47924368)"
       clip-path="url(#clipPath59)" />
    <text
       id="text59"
       xml:space="preserve"
       transform="matrix(0.95849698,0,0,0.95849698,232.85486,204.15986)"
       clip-path="url(#clipPath60)"><tspan
         style="font-variant:normal;font-weight:normal;font-size:11px;font-family:Helvetica;writing-mode:lr-tb;fill:#000000;fill-opacity:1;fill-rule:nonzero;stroke:none"
         x="0"
         y="0"
         id="tspan59">5</tspan></text>
    <path
       id="path61"
       d="m 271,197 h 80 v 24 h -80 z"
       style="fill:#ffffff;fill-opacity:1;fill-rule:nonzero;stroke:#000000;stroke-width:1;stroke-linecap:butt;stroke-linejoin:miter;stroke-miterlimit:10;stroke-dasharray:none;stroke-opacity:1"
       transform="matrix(0.95848735,0,0,0.95848735,0.47924368,0.47924368)"
       clip-path="url(#clipPath62)" />
    <text
       id="text62"
       xml:space="preserve"
       transform="matrix(0.95849698,0,0,0.95849698,280.2106,204.15986)"
       clip-path="url(#clipPath63)"><tspan
         style="font-variant:normal;font-weight:normal;font-size:11px;font-family:Helvetica;writing-mode:lr-tb;fill:#000000;fill-opacity:1;fill-rule:nonzero;stroke:none"
         x="0 9.1630859 11.606934 17.106934 23.224609 28.724609 31.168457"
         y="0"
         sodipodi:role="line"
         id="tspan62">Mikayla</tspan></text>
    <path
       id="path64"
       d="m 351,197 h 80 v 24 h -80 z"
       style="fill:#ffffff;fill-opacity:1;fill-rule:nonzero;stroke:#000000;stroke-width:1;stroke-linecap:butt;stroke-linejoin:miter;stroke-miterlimit:10;stroke-dasharray:none;stroke-opacity:1"
       transform="matrix(0.95848735,0,0,0.95848735,0.47924368,0.47924368)"
       clip-path="url(#clipPath65)" />
    <text
       id="text65"
       xml:space="preserve"
       transform="matrix(0.95849698,0,0,0.95849698,357.77398,204.15986)"
       clip-path="url(#clipPath66)"><tspan
         style="font-variant:normal;font-weight:normal;font-size:11px;font-family:Helvetica;writing-mode:lr-tb;fill:#000000;fill-opacity:1;fill-rule:nonzero;stroke:none"
         x="0 7.9438477 14.061523 19.561523 25.679199 31.796875"
         y="0"
         sodipodi:role="line"
         id="tspan65">Casper</tspan></text>
    <path
       id="path67"
       d="m 431,197 h 50 v 24 h -50 z"
       style="fill:#ffffff;fill-opacity:1;fill-rule:nonzero;stroke:#000000;stroke-width:1;stroke-linecap:butt;stroke-linejoin:miter;stroke-miterlimit:10;stroke-dasharray:none;stroke-opacity:1"
       transform="matrix(0.95848735,0,0,0.95848735,0.47924368,0.47924368)"
       clip-path="url(#clipPath68)" />
    <text
       id="text68"
       xml:space="preserve"
       transform="matrix(0.95849698,0,0,0.95849698,434.13923,204.15986)"
       clip-path="url(#clipPath69)"><tspan
         style="font-variant:normal;font-weight:normal;font-size:11px;font-family:Helvetica;writing-mode:lr-tb;fill:#000000;fill-opacity:1;fill-rule:nonzero;stroke:none"
         x="0"
         y="0"
         id="tspan68">4</tspan></text>
    <path
       id="path70"
       d="m 481,77 h 50 v 24 h -50 z"
       style="fill:#f5f5f5;fill-opacity:1;fill-rule:nonzero;stroke:#666666;stroke-width:1;stroke-linecap:butt;stroke-linejoin:miter;stroke-miterlimit:10;stroke-dasharray:none;stroke-opacity:1"
       transform="matrix(0.95848735,0,0,0.95848735,0.47924368,0.47924368)"
       clip-path="url(#clipPath71)" />
    <text
       id="text71"
       xml:space="preserve"
       transform="matrix(0.95849698,0,0,0.95849698,466.12906,89.14022)"
       clip-path="url(#clipPath72)"><tspan
         style="font-style:oblique;font-variant:normal;font-weight:normal;font-size:12px;font-family:Helvetica;writing-mode:lr-tb;fill:#333333;fill-opacity:1;fill-rule:nonzero;stroke:none"
         x="0 6.6738281 12.673828 19.347656 23.34375 30.017578 32.683594"
         y="0"
         sodipodi:role="line"
         id="tspan71">user_id</tspan></text>
    <path
       id="path73"
       d="m 481,197 h 50 v 24 h -50 z"
       style="fill:#ffffff;fill-opacity:1;fill-rule:nonzero;stroke:#000000;stroke-width:1;stroke-linecap:butt;stroke-linejoin:miter;stroke-miterlimit:10;stroke-dasharray:none;stroke-opacity:1"
       transform="matrix(0.95848735,0,0,0.95848735,0.47924368,0.47924368)"
       clip-path="url(#clipPath74)" />
    <text
       id="text74"
       xml:space="preserve"
       transform="matrix(0.95849698,0,0,0.95849698,482.06408,204.15986)"
       clip-path="url(#clipPath75)"><tspan
         style="font-variant:normal;font-weight:normal;font-size:11px;font-family:Helvetica;writing-mode:lr-tb;fill:#000000;fill-opacity:1;fill-rule:nonzero;stroke:none"
         x="0"
         y="0"
         id="tspan74">5</tspan></text>
    <path
       id="path76"
       d="m 531.01001,77 h 62 v 24 h -62 z"
       style="fill:#f5f5f5;fill-opacity:1;fill-rule:nonzero;stroke:#666666;stroke-width:1;stroke-linecap:butt;stroke-linejoin:miter;stroke-miterlimit:10;stroke-dasharray:none;stroke-opacity:1"
       transform="matrix(0.95848735,0,0,0.95848735,0.47924368,0.47924368)"
       clip-path="url(#clipPath77)" />
    <text
       id="text77"
       xml:space="preserve"
       transform="matrix(0.95849698,0,0,0.95849698,511.80744,89.14022)"
       clip-path="url(#clipPath78)"><tspan
         style="font-style:oblique;font-variant:normal;font-weight:normal;font-size:12px;font-family:Helvetica;writing-mode:lr-tb;fill:#333333;fill-opacity:1;fill-rule:nonzero;stroke:none"
         x="0 6.6738281 10.669922 17.34375 24.017578 30.691406 36.691406 40.025391 46.699219 49.365234"
         y="0"
         sodipodi:role="line"
         id="tspan77">product_id</tspan></text>
    <path
       id="path79"
       d="m 531.01001,197 h 62 v 24 h -62 z"
       style="fill:#ffffff;fill-opacity:1;fill-rule:nonzero;stroke:#000000;stroke-width:1;stroke-linecap:butt;stroke-linejoin:miter;stroke-miterlimit:10;stroke-dasharray:none;stroke-opacity:1"
       transform="matrix(0.95848735,0,0,0.95848735,0.47924368,0.47924368)"
       clip-path="url(#clipPath80)" />
    <text
       id="text80"
       xml:space="preserve"
       transform="matrix(0.95849698,0,0,0.95849698,535.73991,204.15986)"
       clip-path="url(#clipPath81)"><tspan
         style="font-variant:normal;font-weight:normal;font-size:11px;font-family:Helvetica;writing-mode:lr-tb;fill:#000000;fill-opacity:1;fill-rule:nonzero;stroke:none"
         x="0"
         y="0"
         id="tspan80">3</tspan></text>
    <path
       id="path82"
       d="m 593.01001,77 h 48 v 24 h -48 z"
       style="fill:#f5f5f5;fill-opacity:1;fill-rule:nonzero;stroke:#666666;stroke-width:1;stroke-linecap:butt;stroke-linejoin:miter;stroke-miterlimit:10;stroke-dasharray:none;stroke-opacity:1"
       transform="matrix(0.95848735,0,0,0.95848735,0.47924368,0.47924368)"
       clip-path="url(#clipPath83)" />
    <text
       id="text83"
       xml:space="preserve"
       transform="matrix(0.95849698,0,0,0.95849698,580.51969,89.14022)"
       clip-path="url(#clipPath84)"><tspan
         style="font-style:oblique;font-variant:normal;font-weight:normal;font-size:12px;font-family:Helvetica;writing-mode:lr-tb;fill:#333333;fill-opacity:1;fill-rule:nonzero;stroke:none"
         x="0 6.6738281 13.347656 16.013672"
         y="0"
         sodipodi:role="line"
         id="tspan83">paid</tspan></text>
    <path
       id="path85"
       d="m 593.01001,197 h 48 v 24 h -48 z"
       style="fill:#ffffff;fill-opacity:1;fill-rule:nonzero;stroke:#000000;stroke-width:1;stroke-linecap:butt;stroke-linejoin:miter;stroke-miterlimit:10;stroke-dasharray:none;stroke-opacity:1"
       transform="matrix(0.95848735,0,0,0.95848735,0.47924368,0.47924368)"
       clip-path="url(#clipPath86)" />
    <text
       id="text86"
       xml:space="preserve"
       transform="matrix(0.95849698,0,0,0.95849698,582.3019,204.15986)"
       clip-path="url(#clipPath87)"><tspan
         style="font-variant:normal;font-weight:normal;font-size:11px;font-family:Helvetica;writing-mode:lr-tb;fill:#000000;fill-opacity:1;fill-rule:nonzero;stroke:none"
         x="0 3.0561523 6.7192383 12.836914"
         y="0"
         sodipodi:role="line"
         id="tspan86">true</tspan></text>
  </g>
</svg>
