<?xml version="1.0" encoding="UTF-8" standalone="no"?>
<!-- Created with Inkscape (http://www.inkscape.org/) -->

<svg
   version="1.1"
   id="svg1"
   width="606.71997"
   height="445.44"
   viewBox="0 0 606.71997 445.44"
   sodipodi:docname="sql-22.pdf"
   xmlns:inkscape="http://www.inkscape.org/namespaces/inkscape"
   xmlns:sodipodi="http://sodipodi.sourceforge.net/DTD/sodipodi-0.dtd"
   xmlns="http://www.w3.org/2000/svg"
   xmlns:svg="http://www.w3.org/2000/svg">
  <defs
     id="defs1">
    <clipPath
       clipPathUnits="userSpaceOnUse"
       id="clipPath2">
      <path
         d="M 0,0 H 1895.8333 V 1390.4771 H 0 Z"
         transform="scale(0.33441761)"
         clip-rule="evenodd"
         id="path2" />
    </clipPath>
    <clipPath
       clipPathUnits="userSpaceOnUse"
       id="clipPath4">
      <path
         d="M 0,0 H 1895.8333 V 1387.4868 H 0 Z"
         transform="matrix(0.33441761,0,0,0.33441761,-0.50000001,-0.50000001)"
         clip-rule="evenodd"
         id="path4" />
    </clipPath>
    <clipPath
       clipPathUnits="userSpaceOnUse"
       id="clipPath5">
      <path
         d="M 0,0 H 1895.8333 V 1387.4868 H 0 Z"
         transform="matrix(0.33441424,0,0,0.33441424,-270.96875,-23)"
         clip-rule="evenodd"
         id="path5" />
    </clipPath>
    <clipPath
       clipPathUnits="userSpaceOnUse"
       id="clipPath7">
      <path
         d="M 0,0 H 1895.8333 V 1387.4868 H 0 Z"
         transform="matrix(0.33441761,0,0,0.33441761,-0.50000001,-0.50000001)"
         clip-rule="evenodd"
         id="path7" />
    </clipPath>
    <clipPath
       clipPathUnits="userSpaceOnUse"
       id="clipPath9">
      <path
         d="M 0,0 H 1895.8333 V 1387.4868 H 0 Z"
         transform="matrix(0.33441761,0,0,0.33441761,-0.50000001,-0.50000001)"
         clip-rule="evenodd"
         id="path9" />
    </clipPath>
    <clipPath
       clipPathUnits="userSpaceOnUse"
       id="clipPath10">
      <path
         d="M 0,0 H 1895.8333 V 1387.4868 H 0 Z"
         transform="matrix(0.33441424,0,0,0.33441424,-91.09375,-59)"
         clip-rule="evenodd"
         id="path10" />
    </clipPath>
    <clipPath
       clipPathUnits="userSpaceOnUse"
       id="clipPath12">
      <path
         d="M 0,0 H 1895.8333 V 1387.4868 H 0 Z"
         transform="matrix(0.33441761,0,0,0.33441761,-0.50000001,-0.50000001)"
         clip-rule="evenodd"
         id="path12" />
    </clipPath>
    <clipPath
       clipPathUnits="userSpaceOnUse"
       id="clipPath13">
      <path
         d="M 0,0 H 1895.8333 V 1387.4868 H 0 Z"
         transform="matrix(0.33441424,0,0,0.33441424,-391.76563,-60)"
         clip-rule="evenodd"
         id="path13" />
    </clipPath>
    <clipPath
       clipPathUnits="userSpaceOnUse"
       id="clipPath15">
      <path
         d="M 0,0 H 1895.8333 V 1387.4868 H 0 Z"
         transform="matrix(0.33441761,0,0,0.33441761,-0.50000001,-0.50000001)"
         clip-rule="evenodd"
         id="path15" />
    </clipPath>
    <clipPath
       clipPathUnits="userSpaceOnUse"
       id="clipPath16">
      <path
         d="M 0,0 H 1895.8333 V 1387.4868 H 0 Z"
         transform="matrix(0.33441424,0,0,0.33441424,-31.328125,-82.999999)"
         clip-rule="evenodd"
         id="path16" />
    </clipPath>
    <clipPath
       clipPathUnits="userSpaceOnUse"
       id="clipPath18">
      <path
         d="M 0,0 H 1895.8333 V 1387.4868 H 0 Z"
         transform="matrix(0.33441761,0,0,0.33441761,-0.50000001,-0.50000001)"
         clip-rule="evenodd"
         id="path18" />
    </clipPath>
    <clipPath
       clipPathUnits="userSpaceOnUse"
       id="clipPath19">
      <path
         d="M 0,0 H 1895.8333 V 1387.4868 H 0 Z"
         transform="matrix(0.33441424,0,0,0.33441424,-32.937499,-107)"
         clip-rule="evenodd"
         id="path19" />
    </clipPath>
    <clipPath
       clipPathUnits="userSpaceOnUse"
       id="clipPath21">
      <path
         d="M 0,0 H 1895.8333 V 1387.4868 H 0 Z"
         transform="matrix(0.33441761,0,0,0.33441761,-0.50000001,-0.50000001)"
         clip-rule="evenodd"
         id="path21" />
    </clipPath>
    <clipPath
       clipPathUnits="userSpaceOnUse"
       id="clipPath22">
      <path
         d="M 0,0 H 1895.8333 V 1387.4868 H 0 Z"
         transform="matrix(0.33441424,0,0,0.33441424,-32.937499,-131)"
         clip-rule="evenodd"
         id="path22" />
    </clipPath>
    <clipPath
       clipPathUnits="userSpaceOnUse"
       id="clipPath24">
      <path
         d="M 0,0 H 1895.8333 V 1387.4868 H 0 Z"
         transform="matrix(0.33441761,0,0,0.33441761,-0.50000001,-0.50000001)"
         clip-rule="evenodd"
         id="path24" />
    </clipPath>
    <clipPath
       clipPathUnits="userSpaceOnUse"
       id="clipPath25">
      <path
         d="M 0,0 H 1895.8333 V 1387.4868 H 0 Z"
         transform="matrix(0.33441424,0,0,0.33441424,-32.937499,-155)"
         clip-rule="evenodd"
         id="path25" />
    </clipPath>
    <clipPath
       clipPathUnits="userSpaceOnUse"
       id="clipPath27">
      <path
         d="M 0,0 H 1895.8333 V 1387.4868 H 0 Z"
         transform="matrix(0.33441761,0,0,0.33441761,-0.50000001,-0.50000001)"
         clip-rule="evenodd"
         id="path27" />
    </clipPath>
    <clipPath
       clipPathUnits="userSpaceOnUse"
       id="clipPath28">
      <path
         d="M 0,0 H 1895.8333 V 1387.4868 H 0 Z"
         transform="matrix(0.33441424,0,0,0.33441424,-32.937499,-179)"
         clip-rule="evenodd"
         id="path28" />
    </clipPath>
    <clipPath
       clipPathUnits="userSpaceOnUse"
       id="clipPath30">
      <path
         d="M 0,0 H 1895.8333 V 1387.4868 H 0 Z"
         transform="matrix(0.33441761,0,0,0.33441761,-0.50000001,-0.50000001)"
         clip-rule="evenodd"
         id="path30" />
    </clipPath>
    <clipPath
       clipPathUnits="userSpaceOnUse"
       id="clipPath31">
      <path
         d="M 0,0 H 1895.8333 V 1387.4868 H 0 Z"
         transform="matrix(0.33441424,0,0,0.33441424,-261.32813,-83.999999)"
         clip-rule="evenodd"
         id="path31" />
    </clipPath>
    <clipPath
       clipPathUnits="userSpaceOnUse"
       id="clipPath33">
      <path
         d="M 0,0 H 1895.8333 V 1387.4868 H 0 Z"
         transform="matrix(0.33441761,0,0,0.33441761,-0.50000001,-0.50000001)"
         clip-rule="evenodd"
         id="path33" />
    </clipPath>
    <clipPath
       clipPathUnits="userSpaceOnUse"
       id="clipPath34">
      <path
         d="M 0,0 H 1895.8333 V 1387.4868 H 0 Z"
         transform="matrix(0.33441424,0,0,0.33441424,-262.9375,-108)"
         clip-rule="evenodd"
         id="path34" />
    </clipPath>
    <clipPath
       clipPathUnits="userSpaceOnUse"
       id="clipPath36">
      <path
         d="M 0,0 H 1895.8333 V 1387.4868 H 0 Z"
         transform="matrix(0.33441761,0,0,0.33441761,-0.50000001,-0.50000001)"
         clip-rule="evenodd"
         id="path36" />
    </clipPath>
    <clipPath
       clipPathUnits="userSpaceOnUse"
       id="clipPath37">
      <path
         d="M 0,0 H 1895.8333 V 1387.4868 H 0 Z"
         transform="matrix(0.33441424,0,0,0.33441424,-262.9375,-132)"
         clip-rule="evenodd"
         id="path37" />
    </clipPath>
    <clipPath
       clipPathUnits="userSpaceOnUse"
       id="clipPath39">
      <path
         d="M 0,0 H 1895.8333 V 1387.4868 H 0 Z"
         transform="matrix(0.33441761,0,0,0.33441761,-0.50000001,-0.50000001)"
         clip-rule="evenodd"
         id="path39" />
    </clipPath>
    <clipPath
       clipPathUnits="userSpaceOnUse"
       id="clipPath40">
      <path
         d="M 0,0 H 1895.8333 V 1387.4868 H 0 Z"
         transform="matrix(0.33441424,0,0,0.33441424,-262.9375,-155.99999)"
         clip-rule="evenodd"
         id="path40" />
    </clipPath>
    <clipPath
       clipPathUnits="userSpaceOnUse"
       id="clipPath42">
      <path
         d="M 0,0 H 1895.8333 V 1387.4868 H 0 Z"
         transform="matrix(0.33441761,0,0,0.33441761,-0.50000001,-0.50000001)"
         clip-rule="evenodd"
         id="path42" />
    </clipPath>
    <clipPath
       clipPathUnits="userSpaceOnUse"
       id="clipPath43">
      <path
         d="M 0,0 H 1895.8333 V 1387.4868 H 0 Z"
         transform="matrix(0.33441424,0,0,0.33441424,-262.9375,-180)"
         clip-rule="evenodd"
         id="path43" />
    </clipPath>
    <clipPath
       clipPathUnits="userSpaceOnUse"
       id="clipPath45">
      <path
         d="M 0,0 H 1895.8333 V 1387.4868 H 0 Z"
         transform="matrix(0.33441761,0,0,0.33441761,-0.50000001,-0.50000001)"
         clip-rule="evenodd"
         id="path45" />
    </clipPath>
    <clipPath
       clipPathUnits="userSpaceOnUse"
       id="clipPath46">
      <path
         d="M 0,0 H 1895.8333 V 1387.4868 H 0 Z"
         transform="matrix(0.33441424,0,0,0.33441424,-262.9375,-228)"
         clip-rule="evenodd"
         id="path46" />
    </clipPath>
    <clipPath
       clipPathUnits="userSpaceOnUse"
       id="clipPath48">
      <path
         d="M 0,0 H 1895.8333 V 1387.4868 H 0 Z"
         transform="matrix(0.33441761,0,0,0.33441761,-0.50000001,-0.50000001)"
         clip-rule="evenodd"
         id="path48" />
    </clipPath>
    <clipPath
       clipPathUnits="userSpaceOnUse"
       id="clipPath49">
      <path
         d="M 0,0 H 1895.8333 V 1387.4868 H 0 Z"
         transform="matrix(0.33441424,0,0,0.33441424,-262.9375,-204)"
         clip-rule="evenodd"
         id="path49" />
    </clipPath>
    <clipPath
       clipPathUnits="userSpaceOnUse"
       id="clipPath51">
      <path
         d="M 0,0 H 1895.8333 V 1387.4868 H 0 Z"
         transform="matrix(0.33441761,0,0,0.33441761,-0.50000001,-0.50000001)"
         clip-rule="evenodd"
         id="path51" />
    </clipPath>
    <clipPath
       clipPathUnits="userSpaceOnUse"
       id="clipPath52">
      <path
         d="M 0,0 H 1895.8333 V 1387.4868 H 0 Z"
         transform="matrix(0.33441424,0,0,0.33441424,-17,-346)"
         clip-rule="evenodd"
         id="path52" />
    </clipPath>
    <clipPath
       clipPathUnits="userSpaceOnUse"
       id="clipPath53">
      <path
         d="M 0,0 H 1895.8333 V 1387.4868 H 0 Z"
         transform="matrix(0.33441424,0,0,0.33441424,-88.015625,-346)"
         clip-rule="evenodd"
         id="path53" />
    </clipPath>
    <clipPath
       clipPathUnits="userSpaceOnUse"
       id="clipPath54">
      <path
         d="M 0,0 H 1895.8333 V 1387.4868 H 0 Z"
         transform="matrix(0.33441424,0,0,0.33441424,-17,-389)"
         clip-rule="evenodd"
         id="path54" />
    </clipPath>
    <clipPath
       clipPathUnits="userSpaceOnUse"
       id="clipPath55">
      <path
         d="M 0,0 H 1895.8333 V 1387.4868 H 0 Z"
         transform="matrix(0.33441424,0,0,0.33441424,-74.999999,-389)"
         clip-rule="evenodd"
         id="path55" />
    </clipPath>
    <clipPath
       clipPathUnits="userSpaceOnUse"
       id="clipPath56">
      <path
         d="M 0,0 H 1895.8333 V 1387.4868 H 0 Z"
         transform="matrix(0.33441424,0,0,0.33441424,-17,-432)"
         clip-rule="evenodd"
         id="path56" />
    </clipPath>
    <clipPath
       clipPathUnits="userSpaceOnUse"
       id="clipPath57">
      <path
         d="M 0,0 H 1895.8333 V 1387.4868 H 0 Z"
         transform="matrix(0.33441424,0,0,0.33441424,-89.000976,-432)"
         clip-rule="evenodd"
         id="path57" />
    </clipPath>
    <clipPath
       clipPathUnits="userSpaceOnUse"
       id="clipPath58">
      <path
         d="M 0,0 H 1895.8333 V 1387.4868 H 0 Z"
         transform="matrix(0.33441424,0,0,0.33441424,-178.06249,-432)"
         clip-rule="evenodd"
         id="path58" />
    </clipPath>
    <clipPath
       clipPathUnits="userSpaceOnUse"
       id="clipPath59">
      <path
         d="M 0,0 H 1895.8333 V 1387.4868 H 0 Z"
         transform="matrix(0.33441424,0,0,0.33441424,-196.0625,-432)"
         clip-rule="evenodd"
         id="path59" />
    </clipPath>
    <clipPath
       clipPathUnits="userSpaceOnUse"
       id="clipPath61">
      <path
         d="M 0,0 H 1895.8333 V 1387.4868 H 0 Z"
         transform="matrix(0.33441761,0,0,0.33441761,-0.50000001,-0.50000001)"
         clip-rule="evenodd"
         id="path61" />
    </clipPath>
    <clipPath
       clipPathUnits="userSpaceOnUse"
       id="clipPath63">
      <path
         d="M 0,0 H 1895.8333 V 1387.4868 H 0 Z"
         transform="matrix(0.33441761,0,0,0.33441761,-0.50000001,-0.50000001)"
         clip-rule="evenodd"
         id="path63" />
    </clipPath>
    <clipPath
       clipPathUnits="userSpaceOnUse"
       id="clipPath65">
      <path
         d="M 0,0 H 1895.8333 V 1387.4868 H 0 Z"
         transform="matrix(0.33441761,0,0,0.33441761,-0.50000001,-0.50000001)"
         clip-rule="evenodd"
         id="path65" />
    </clipPath>
    <clipPath
       clipPathUnits="userSpaceOnUse"
       id="clipPath67">
      <path
         d="M 0,0 H 1895.8333 V 1387.4868 H 0 Z"
         transform="matrix(0.33441761,0,0,0.33441761,-0.50000001,-0.50000001)"
         clip-rule="evenodd"
         id="path67" />
    </clipPath>
    <clipPath
       clipPathUnits="userSpaceOnUse"
       id="clipPath68">
      <path
         d="M 0,0 H 1895.8333 V 1387.4868 H 0 Z"
         transform="matrix(0.33441424,0,0,0.33441424,-366.99999,-412)"
         clip-rule="evenodd"
         id="path68" />
    </clipPath>
    <clipPath
       clipPathUnits="userSpaceOnUse"
       id="clipPath69">
      <path
         d="M 0,0 H 1895.8333 V 1387.4868 H 0 Z"
         transform="matrix(0.33441424,0,0,0.33441424,-426.1875,-412)"
         clip-rule="evenodd"
         id="path69" />
    </clipPath>
    <clipPath
       clipPathUnits="userSpaceOnUse"
       id="clipPath70">
      <path
         d="M 0,0 H 1895.8333 V 1387.4868 H 0 Z"
         transform="matrix(0.33441424,0,0,0.33441424,-366.99999,-430)"
         clip-rule="evenodd"
         id="path70" />
    </clipPath>
    <clipPath
       clipPathUnits="userSpaceOnUse"
       id="clipPath71">
      <path
         d="M 0,0 H 1895.8333 V 1387.4868 H 0 Z"
         transform="matrix(0.33441424,0,0,0.33441424,-415.32813,-430)"
         clip-rule="evenodd"
         id="path71" />
    </clipPath>
    <clipPath
       clipPathUnits="userSpaceOnUse"
       id="clipPath72">
      <path
         d="M 0,0 H 1895.8333 V 1387.4868 H 0 Z"
         transform="matrix(0.33441424,0,0,0.33441424,-366.99999,-447.99999)"
         clip-rule="evenodd"
         id="path72" />
    </clipPath>
    <clipPath
       clipPathUnits="userSpaceOnUse"
       id="clipPath73">
      <path
         d="M 0,0 H 1895.8333 V 1387.4868 H 0 Z"
         transform="matrix(0.33441424,0,0,0.33441424,-427,-447.99999)"
         clip-rule="evenodd"
         id="path73" />
    </clipPath>
    <clipPath
       clipPathUnits="userSpaceOnUse"
       id="clipPath75">
      <path
         d="M 0,0 H 1895.8333 V 1387.4868 H 0 Z"
         transform="matrix(0.33441761,0,0,0.33441761,-0.50000001,-0.50000001)"
         clip-rule="evenodd"
         id="path75" />
    </clipPath>
  </defs>
  <sodipodi:namedview
     id="namedview1"
     pagecolor="#ffffff"
     bordercolor="#000000"
     borderopacity="0.25"
     inkscape:showpageshadow="2"
     inkscape:pageopacity="0.0"
     inkscape:pagecheckerboard="0"
     inkscape:deskcolor="#d1d1d1">
    <inkscape:page
       x="0"
       y="0"
       inkscape:label="1"
       id="page1"
       width="606.71997"
       height="445.44"
       margin="0"
       bleed="0" />
  </sodipodi:namedview>
  <g
     id="g1"
     inkscape:groupmode="layer"
     inkscape:label="1">
    <path
       id="path1"
       d="M 0,0 H 634 V 465 H 0 Z"
       style="fill:#ffffff;fill-opacity:1;fill-rule:nonzero;stroke:none"
       transform="scale(0.95688738)"
       clip-path="url(#clipPath2)" />
    <path
       id="path3"
       d="M 1,1 H 621.01001 V 31 H 1 Z"
       style="fill:#d5e8d4;fill-opacity:1;fill-rule:nonzero;stroke:#82b366;stroke-width:1;stroke-linecap:butt;stroke-linejoin:miter;stroke-miterlimit:10;stroke-dasharray:none;stroke-opacity:1"
       transform="matrix(0.95688738,0,0,0.95688738,0.4784437,0.4784437)"
       clip-path="url(#clipPath4)" />
    <text
       id="text4"
       xml:space="preserve"
       transform="matrix(0.95689702,0,0,0.95689702,259.28919,22.008631)"
       clip-path="url(#clipPath5)"><tspan
         style="font-variant:normal;font-weight:700;font-size:18px;font-family:Helvetica;writing-mode:lr-tb;fill:#000000;fill-opacity:1;fill-rule:nonzero;stroke:none"
         x="0 12.999023 23.009766 29.003906 39.014648 50.009766 60.020508 70.03125"
         y="0"
         sodipodi:role="line"
         id="tspan4">Database</tspan></text>
    <path
       id="path6"
       d="M 1,31 H 621.01001 V 271 H 1 Z"
       style="fill:#d5e8d4;fill-opacity:1;fill-rule:nonzero;stroke:#82b366;stroke-width:1;stroke-linecap:butt;stroke-linejoin:miter;stroke-miterlimit:10;stroke-dasharray:none;stroke-opacity:1"
       transform="matrix(0.95688738,0,0,0.95688738,0.4784437,0.4784437)"
       clip-path="url(#clipPath7)" />
    <path
       id="path8"
       d="M 11,41 H 221 V 67 H 11 Z"
       style="fill:#ffe6cc;fill-opacity:1;fill-rule:nonzero;stroke:#d79b00;stroke-width:1;stroke-linecap:butt;stroke-linejoin:miter;stroke-miterlimit:10;stroke-dasharray:none;stroke-opacity:1"
       transform="matrix(0.95688738,0,0,0.95688738,0.4784437,0.4784437)"
       clip-path="url(#clipPath9)" />
    <text
       id="text9"
       xml:space="preserve"
       transform="matrix(0.95689702,0,0,0.95689702,87.167338,56.456924)"
       clip-path="url(#clipPath10)"><tspan
         style="font-variant:normal;font-weight:700;font-size:16px;font-family:Helvetica;writing-mode:lr-tb;fill:#000000;fill-opacity:1;fill-rule:nonzero;stroke:none"
         x="0 9.7734375 16 25.773438 34.671875 40.898438"
         y="0"
         sodipodi:role="line"
         id="tspan9">orders</tspan></text>
    <path
       id="path11"
       d="M 241,42 H 611 V 68 H 241 Z"
       style="fill:#ffe6cc;fill-opacity:1;fill-rule:nonzero;stroke:#d79b00;stroke-width:1;stroke-linecap:butt;stroke-linejoin:miter;stroke-miterlimit:10;stroke-dasharray:none;stroke-opacity:1"
       transform="matrix(0.95688738,0,0,0.95688738,0.4784437,0.4784437)"
       clip-path="url(#clipPath12)" />
    <text
       id="text12"
       xml:space="preserve"
       transform="matrix(0.95689702,0,0,0.95689702,374.87936,57.413821)"
       clip-path="url(#clipPath13)"><tspan
         style="font-variant:normal;font-weight:700;font-size:16px;font-family:Helvetica;writing-mode:lr-tb;fill:#000000;fill-opacity:1;fill-rule:nonzero;stroke:none"
         x="0 9.7734375 16 25.773438 35.546875 45.320312 54.21875 59.546875"
         y="0"
         sodipodi:role="line"
         id="tspan12">products</tspan></text>
    <path
       id="path14"
       d="M 11,67 H 61 V 91 H 11 Z"
       style="fill:#f5f5f5;fill-opacity:1;fill-rule:nonzero;stroke:#666666;stroke-width:1;stroke-linecap:butt;stroke-linejoin:miter;stroke-miterlimit:10;stroke-dasharray:none;stroke-opacity:1"
       transform="matrix(0.95688738,0,0,0.95688738,0.4784437,0.4784437)"
       clip-path="url(#clipPath15)" />
    <text
       id="text15"
       xml:space="preserve"
       transform="matrix(0.95689702,0,0,0.95689702,29.977789,79.422452)"
       clip-path="url(#clipPath16)"><tspan
         style="font-style:oblique;font-variant:normal;font-weight:normal;font-size:12px;font-family:Helvetica;writing-mode:lr-tb;fill:#333333;fill-opacity:1;fill-rule:nonzero;stroke:none"
         x="0 2.6660156"
         y="0"
         sodipodi:role="line"
         id="tspan15">id</tspan></text>
    <path
       id="path17"
       d="m 11,91 h 50 v 24 H 11 Z"
       style="fill:#ffffff;fill-opacity:1;fill-rule:nonzero;stroke:#000000;stroke-width:1;stroke-linecap:butt;stroke-linejoin:miter;stroke-miterlimit:10;stroke-dasharray:none;stroke-opacity:1"
       transform="matrix(0.95688738,0,0,0.95688738,0.4784437,0.4784437)"
       clip-path="url(#clipPath18)" />
    <text
       id="text18"
       xml:space="preserve"
       transform="matrix(0.95689702,0,0,0.95689702,31.517795,102.38798)"
       clip-path="url(#clipPath19)"><tspan
         style="font-variant:normal;font-weight:normal;font-size:11px;font-family:Helvetica;writing-mode:lr-tb;fill:#000000;fill-opacity:1;fill-rule:nonzero;stroke:none"
         x="0"
         y="0"
         id="tspan18">1</tspan></text>
    <path
       id="path20"
       d="m 11,115 h 50 v 24 H 11 Z"
       style="fill:#ffffff;fill-opacity:1;fill-rule:nonzero;stroke:#000000;stroke-width:1;stroke-linecap:butt;stroke-linejoin:miter;stroke-miterlimit:10;stroke-dasharray:none;stroke-opacity:1"
       transform="matrix(0.95688738,0,0,0.95688738,0.4784437,0.4784437)"
       clip-path="url(#clipPath21)" />
    <text
       id="text21"
       xml:space="preserve"
       transform="matrix(0.95689702,0,0,0.95689702,31.517795,125.35351)"
       clip-path="url(#clipPath22)"><tspan
         style="font-variant:normal;font-weight:normal;font-size:11px;font-family:Helvetica;writing-mode:lr-tb;fill:#000000;fill-opacity:1;fill-rule:nonzero;stroke:none"
         x="0"
         y="0"
         id="tspan21">2</tspan></text>
    <path
       id="path23"
       d="m 11,139 h 50 v 24 H 11 Z"
       style="fill:#ffffff;fill-opacity:1;fill-rule:nonzero;stroke:#000000;stroke-width:1;stroke-linecap:butt;stroke-linejoin:miter;stroke-miterlimit:10;stroke-dasharray:none;stroke-opacity:1"
       transform="matrix(0.95688738,0,0,0.95688738,0.4784437,0.4784437)"
       clip-path="url(#clipPath24)" />
    <text
       id="text24"
       xml:space="preserve"
       transform="matrix(0.95689702,0,0,0.95689702,31.517795,148.31904)"
       clip-path="url(#clipPath25)"><tspan
         style="font-variant:normal;font-weight:normal;font-size:11px;font-family:Helvetica;writing-mode:lr-tb;fill:#000000;fill-opacity:1;fill-rule:nonzero;stroke:none"
         x="0"
         y="0"
         id="tspan24">3</tspan></text>
    <path
       id="path26"
       d="m 11,163 h 50 v 24 H 11 Z"
       style="fill:#ffffff;fill-opacity:1;fill-rule:nonzero;stroke:#000000;stroke-width:1;stroke-linecap:butt;stroke-linejoin:miter;stroke-miterlimit:10;stroke-dasharray:none;stroke-opacity:1"
       transform="matrix(0.95688738,0,0,0.95688738,0.4784437,0.4784437)"
       clip-path="url(#clipPath27)" />
    <text
       id="text27"
       xml:space="preserve"
       transform="matrix(0.95689702,0,0,0.95689702,31.517795,171.28457)"
       clip-path="url(#clipPath28)"><tspan
         style="font-variant:normal;font-weight:normal;font-size:11px;font-family:Helvetica;writing-mode:lr-tb;fill:#000000;fill-opacity:1;fill-rule:nonzero;stroke:none"
         x="0"
         y="0"
         id="tspan27">5</tspan></text>
    <path
       id="path29"
       d="m 241,68 h 50 v 24 h -50 z"
       style="fill:#f5f5f5;fill-opacity:1;fill-rule:nonzero;stroke:#666666;stroke-width:1;stroke-linecap:butt;stroke-linejoin:miter;stroke-miterlimit:10;stroke-dasharray:none;stroke-opacity:1"
       transform="matrix(0.95688738,0,0,0.95688738,0.4784437,0.4784437)"
       clip-path="url(#clipPath30)" />
    <text
       id="text30"
       xml:space="preserve"
       transform="matrix(0.95689702,0,0,0.95689702,250.06411,80.379349)"
       clip-path="url(#clipPath31)"><tspan
         style="font-style:oblique;font-variant:normal;font-weight:normal;font-size:12px;font-family:Helvetica;writing-mode:lr-tb;fill:#333333;fill-opacity:1;fill-rule:nonzero;stroke:none"
         x="0 2.6660156"
         y="0"
         sodipodi:role="line"
         id="tspan30">id</tspan></text>
    <path
       id="path32"
       d="m 241,92 h 50 v 24 h -50 z"
       style="fill:#ffffff;fill-opacity:1;fill-rule:nonzero;stroke:#000000;stroke-width:1;stroke-linecap:butt;stroke-linejoin:miter;stroke-miterlimit:10;stroke-dasharray:none;stroke-opacity:1"
       transform="matrix(0.95688738,0,0,0.95688738,0.4784437,0.4784437)"
       clip-path="url(#clipPath33)" />
    <text
       id="text33"
       xml:space="preserve"
       transform="matrix(0.95689702,0,0,0.95689702,251.60411,103.34488)"
       clip-path="url(#clipPath34)"><tspan
         style="font-variant:normal;font-weight:normal;font-size:11px;font-family:Helvetica;writing-mode:lr-tb;fill:#000000;fill-opacity:1;fill-rule:nonzero;stroke:none"
         x="0"
         y="0"
         id="tspan33">1</tspan></text>
    <path
       id="path35"
       d="m 241,116 h 50 v 24 h -50 z"
       style="fill:#ffffff;fill-opacity:1;fill-rule:nonzero;stroke:#000000;stroke-width:1;stroke-linecap:butt;stroke-linejoin:miter;stroke-miterlimit:10;stroke-dasharray:none;stroke-opacity:1"
       transform="matrix(0.95688738,0,0,0.95688738,0.4784437,0.4784437)"
       clip-path="url(#clipPath36)" />
    <text
       id="text36"
       xml:space="preserve"
       transform="matrix(0.95689702,0,0,0.95689702,251.60411,126.31041)"
       clip-path="url(#clipPath37)"><tspan
         style="font-variant:normal;font-weight:normal;font-size:11px;font-family:Helvetica;writing-mode:lr-tb;fill:#000000;fill-opacity:1;fill-rule:nonzero;stroke:none"
         x="0"
         y="0"
         id="tspan36">2</tspan></text>
    <path
       id="path38"
       d="m 241,140 h 50 v 24 h -50 z"
       style="fill:#ffffff;fill-opacity:1;fill-rule:nonzero;stroke:#000000;stroke-width:1;stroke-linecap:butt;stroke-linejoin:miter;stroke-miterlimit:10;stroke-dasharray:none;stroke-opacity:1"
       transform="matrix(0.95688738,0,0,0.95688738,0.4784437,0.4784437)"
       clip-path="url(#clipPath39)" />
    <text
       id="text39"
       xml:space="preserve"
       transform="matrix(0.95689702,0,0,0.95689702,251.60411,149.27593)"
       clip-path="url(#clipPath40)"><tspan
         style="font-variant:normal;font-weight:normal;font-size:11px;font-family:Helvetica;writing-mode:lr-tb;fill:#000000;fill-opacity:1;fill-rule:nonzero;stroke:none"
         x="0"
         y="0"
         id="tspan39">4</tspan></text>
    <path
       id="path41"
       d="m 241,164 h 50 v 24 h -50 z"
       style="fill:#ffffff;fill-opacity:1;fill-rule:nonzero;stroke:#000000;stroke-width:1;stroke-linecap:butt;stroke-linejoin:miter;stroke-miterlimit:10;stroke-dasharray:none;stroke-opacity:1"
       transform="matrix(0.95688738,0,0,0.95688738,0.4784437,0.4784437)"
       clip-path="url(#clipPath42)" />
    <text
       id="text42"
       xml:space="preserve"
       transform="matrix(0.95689702,0,0,0.95689702,251.60411,172.24146)"
       clip-path="url(#clipPath43)"><tspan
         style="font-variant:normal;font-weight:normal;font-size:11px;font-family:Helvetica;writing-mode:lr-tb;fill:#000000;fill-opacity:1;fill-rule:nonzero;stroke:none"
         x="0"
         y="0"
         id="tspan42">5</tspan></text>
    <path
       id="path44"
       d="m 241,212 h 50 v 24 h -50 z"
       style="fill:#ffffff;fill-opacity:1;fill-rule:nonzero;stroke:#000000;stroke-width:1;stroke-linecap:butt;stroke-linejoin:miter;stroke-miterlimit:10;stroke-dasharray:none;stroke-opacity:1"
       transform="matrix(0.95688738,0,0,0.95688738,0.4784437,0.4784437)"
       clip-path="url(#clipPath45)" />
    <text
       id="text45"
       xml:space="preserve"
       transform="matrix(0.95689702,0,0,0.95689702,251.60411,218.17252)"
       clip-path="url(#clipPath46)"><tspan
         style="font-variant:normal;font-weight:normal;font-size:11px;font-family:Helvetica;writing-mode:lr-tb;fill:#000000;fill-opacity:1;fill-rule:nonzero;stroke:none"
         x="0"
         y="0"
         id="tspan45">7</tspan></text>
    <path
       id="path47"
       d="m 241,188 h 50 v 24 h -50 z"
       style="fill:#ffffff;fill-opacity:1;fill-rule:nonzero;stroke:#000000;stroke-width:1;stroke-linecap:butt;stroke-linejoin:miter;stroke-miterlimit:10;stroke-dasharray:none;stroke-opacity:1"
       transform="matrix(0.95688738,0,0,0.95688738,0.4784437,0.4784437)"
       clip-path="url(#clipPath48)" />
    <text
       id="text48"
       xml:space="preserve"
       transform="matrix(0.95689702,0,0,0.95689702,251.60411,195.20699)"
       clip-path="url(#clipPath49)"><tspan
         style="font-variant:normal;font-weight:normal;font-size:11px;font-family:Helvetica;writing-mode:lr-tb;fill:#000000;fill-opacity:1;fill-rule:nonzero;stroke:none"
         x="0"
         y="0"
         id="tspan48">6</tspan></text>
    <path
       id="path50"
       d="M 1,308 H 321 V 456 H 1 Z"
       style="fill:#dae8fc;fill-opacity:1;fill-rule:nonzero;stroke:#6c8ebf;stroke-width:1;stroke-linecap:butt;stroke-linejoin:miter;stroke-miterlimit:10;stroke-dasharray:none;stroke-opacity:1"
       transform="matrix(0.95688738,0,0,0.95688738,0.4784437,0.4784437)"
       clip-path="url(#clipPath51)" />
    <text
       id="text51"
       xml:space="preserve"
       transform="matrix(0.95689702,0,0,0.95689702,16.267249,331.08637)"
       clip-path="url(#clipPath52)"><tspan
         style="font-variant:normal;font-weight:700;font-size:18px;font-family:Helvetica;writing-mode:lr-tb;fill:#000000;fill-opacity:1;fill-rule:nonzero;stroke:none"
         x="0 12.005859 24.011719 35.006836 47.012695 60.011719"
         y="0"
         sodipodi:role="line"
         id="tspan51">SELECT</tspan></text>
    <text
       id="text52"
       xml:space="preserve"
       transform="matrix(0.95689702,0,0,0.95689702,84.221889,331.08637)"
       clip-path="url(#clipPath53)"><tspan
         style="font-variant:normal;font-weight:normal;font-size:18px;font-family:Helvetica;writing-mode:lr-tb;fill:#000000;fill-opacity:1;fill-rule:nonzero;stroke:none"
         x="0 5.0009766 9 19.010742"
         y="0"
         sodipodi:role="line"
         id="tspan52"> id </tspan></text>
    <text
       id="text53"
       xml:space="preserve"
       transform="matrix(0.95689702,0,0,0.95689702,16.267249,372.23294)"
       clip-path="url(#clipPath54)"><tspan
         style="font-variant:normal;font-weight:700;font-size:18px;font-family:Helvetica;writing-mode:lr-tb;fill:#000000;fill-opacity:1;fill-rule:nonzero;stroke:none"
         x="0 10.995117 23.994141 37.995117 52.989258"
         y="0"
         sodipodi:role="line"
         id="tspan53">FROM </tspan></text>
    <text
       id="text54"
       xml:space="preserve"
       transform="matrix(0.95689702,0,0,0.95689702,71.767276,372.23294)"
       clip-path="url(#clipPath55)"><tspan
         style="font-variant:normal;font-weight:normal;font-size:18px;font-family:Helvetica;writing-mode:lr-tb;fill:#000000;fill-opacity:1;fill-rule:nonzero;stroke:none"
         x="0 10.010742 16.004883 26.015625 36.026367 42.020508"
         y="0"
         sodipodi:role="line"
         id="tspan54">orders</tspan></text>
    <text
       id="text55"
       xml:space="preserve"
       transform="matrix(0.95689702,0,0,0.95689702,16.267249,413.37951)"
       clip-path="url(#clipPath56)"><tspan
         style="font-variant:normal;font-weight:700;font-size:18px;font-family:Helvetica;writing-mode:lr-tb;fill:#000000;fill-opacity:1;fill-rule:nonzero;stroke:none"
         x="0 16.989258 29.988281 41.994141 54.993164"
         y="0"
         sodipodi:role="line"
         id="tspan55">WHERE</tspan></text>
    <text
       id="text56"
       xml:space="preserve"
       transform="matrix(0.95689702,0,0,0.95689702,85.164769,413.37951)"
       clip-path="url(#clipPath57)"><tspan
         style="font-variant:normal;font-weight:normal;font-size:18px;font-family:Helvetica;writing-mode:lr-tb;fill:#000000;fill-opacity:1;fill-rule:nonzero;stroke:none"
         x="0 10.010742 16.004883 26.015625 36.026367 46.037109 55.037109 60.038086 70.048828 74.047852 84.058594"
         y="0"
         sodipodi:role="line"
         id="tspan56">product_id </tspan></text>
    <text
       id="text57"
       xml:space="preserve"
       transform="matrix(0.95689702,0,0,0.95689702,170.38747,413.37951)"
       clip-path="url(#clipPath58)"><tspan
         style="font-variant:normal;font-weight:700;font-size:18px;font-family:Helvetica;writing-mode:lr-tb;fill:#000000;fill-opacity:1;fill-rule:nonzero;stroke:none"
         x="0 5.0009766"
         y="0"
         sodipodi:role="line"
         id="tspan57">IN</tspan></text>
    <text
       id="text58"
       xml:space="preserve"
       transform="matrix(0.95689702,0,0,0.95689702,187.61162,413.37951)"
       clip-path="url(#clipPath59)"><tspan
         style="font-variant:normal;font-weight:normal;font-size:18px;font-family:Helvetica;writing-mode:lr-tb;fill:#000000;fill-opacity:1;fill-rule:nonzero;stroke:none"
         x="0"
         y="0"
         id="tspan58"> </tspan></text>
    <path
       id="path60"
       d="m 205,409 h 100 v 30 H 205 Z"
       style="fill:none;stroke:#6c8ebf;stroke-width:1;stroke-linecap:butt;stroke-linejoin:miter;stroke-miterlimit:10;stroke-dasharray:none;stroke-opacity:1"
       transform="matrix(0.95688738,0,0,0.95688738,0.4784437,0.4784437)"
       clip-path="url(#clipPath61)" />
    <path
       id="path62"
       d="M 351,424 H 311.37"
       style="fill:none;stroke:#000000;stroke-width:1;stroke-linecap:butt;stroke-linejoin:miter;stroke-miterlimit:10;stroke-dasharray:none;stroke-opacity:1"
       transform="matrix(0.95688738,0,0,0.95688738,0.4784437,0.4784437)"
       clip-path="url(#clipPath63)" />
    <path
       id="path64"
       d="m 306.12,424 7,-3.5 -1.75,3.5 1.75,3.5 z"
       style="fill:#000000;fill-opacity:1;fill-rule:nonzero;stroke:#000000;stroke-width:1;stroke-linecap:butt;stroke-linejoin:miter;stroke-miterlimit:10;stroke-dasharray:none;stroke-opacity:1"
       transform="matrix(0.95688738,0,0,0.95688738,0.4784437,0.4784437)"
       clip-path="url(#clipPath65)" />
    <path
       id="path66"
       d="m 351,386.5 h 280 v 75 H 351 Z"
       style="fill:#dae8fc;fill-opacity:1;fill-rule:nonzero;stroke:#6c8ebf;stroke-width:1;stroke-linecap:butt;stroke-linejoin:miter;stroke-miterlimit:10;stroke-dasharray:none;stroke-opacity:1"
       transform="matrix(0.95688738,0,0,0.95688738,0.4784437,0.4784437)"
       clip-path="url(#clipPath67)" />
    <text
       id="text67"
       xml:space="preserve"
       transform="matrix(0.95689702,0,0,0.95689702,351.1812,394.24157)"
       clip-path="url(#clipPath68)"><tspan
         style="font-variant:normal;font-weight:700;font-size:15px;font-family:Helvetica;writing-mode:lr-tb;fill:#000000;fill-opacity:1;fill-rule:nonzero;stroke:none"
         x="0 10.004883 20.009766 29.172363 39.177246 50.009766"
         y="0"
         sodipodi:role="line"
         id="tspan67">SELECT</tspan></text>
    <text
       id="text68"
       xml:space="preserve"
       transform="matrix(0.95689702,0,0,0.95689702,407.81755,394.24157)"
       clip-path="url(#clipPath69)"><tspan
         style="font-variant:normal;font-weight:normal;font-size:15px;font-family:Helvetica;writing-mode:lr-tb;fill:#000000;fill-opacity:1;fill-rule:nonzero;stroke:none"
         x="0 4.1674805 7.5"
         y="0"
         sodipodi:role="line"
         id="tspan68"> id</tspan></text>
    <text
       id="text69"
       xml:space="preserve"
       transform="matrix(0.95689702,0,0,0.95689702,351.1812,411.46572)"
       clip-path="url(#clipPath70)"><tspan
         style="font-variant:normal;font-weight:700;font-size:15px;font-family:Helvetica;writing-mode:lr-tb;fill:#000000;fill-opacity:1;fill-rule:nonzero;stroke:none"
         x="0 9.1625977 19.995117 31.662598 44.157715"
         y="0"
         sodipodi:role="line"
         id="tspan69">FROM </tspan></text>
    <text
       id="text70"
       xml:space="preserve"
       transform="matrix(0.95689702,0,0,0.95689702,397.42625,411.46572)"
       clip-path="url(#clipPath71)"><tspan
         style="font-variant:normal;font-weight:normal;font-size:15px;font-family:Helvetica;writing-mode:lr-tb;fill:#000000;fill-opacity:1;fill-rule:nonzero;stroke:none"
         x="0 8.3422852 13.337402 21.679688 30.021973 38.364258 45.864258 50.031738"
         y="0"
         sodipodi:role="line"
         id="tspan70">products</tspan></text>
    <text
       id="text71"
       xml:space="preserve"
       transform="matrix(0.95689702,0,0,0.95689702,351.1812,428.68986)"
       clip-path="url(#clipPath72)"><tspan
         style="font-variant:normal;font-weight:700;font-size:15px;font-family:Helvetica;writing-mode:lr-tb;fill:#000000;fill-opacity:1;fill-rule:nonzero;stroke:none"
         x="0 14.157715 24.990234 34.995117 45.827637 55.83252"
         y="0"
         sodipodi:role="line"
         id="tspan71">WHERE </tspan></text>
    <text
       id="text72"
       xml:space="preserve"
       transform="matrix(0.95689702,0,0,0.95689702,408.59503,428.68986)"
       clip-path="url(#clipPath73)"><tspan
         style="font-variant:normal;font-weight:normal;font-size:15px;font-family:Helvetica;writing-mode:lr-tb;fill:#000000;fill-opacity:1;fill-rule:nonzero;stroke:none"
         x="0 8.3422852 13.337402 16.669922 24.169922 32.512207 36.679688 40.847168 45.014648 55.847168 64.189453 67.521973 75.864258 84.206543 88.374023 92.541504 101.30127 105.46875"
         y="0"
         sodipodi:role="line"
         id="tspan72">price / weight &gt; 5</tspan></text>
    <path
       id="path74"
       d="m 175,409 h 30 v 30 h -30 z"
       style="fill:none;stroke:#6c8ebf;stroke-width:1;stroke-linecap:butt;stroke-linejoin:miter;stroke-miterlimit:10;stroke-dasharray:none;stroke-opacity:1"
       transform="matrix(0.95688738,0,0,0.95688738,0.4784437,0.4784437)"
       clip-path="url(#clipPath75)" />
  </g>
</svg>
