<?xml version="1.0" encoding="UTF-8" standalone="no"?>
<!-- Created with Inkscape (http://www.inkscape.org/) -->

<svg
   version="1.1"
   id="svg1"
   width="523.84003"
   height="258.56"
   viewBox="0 0 523.84003 258.56"
   sodipodi:docname="sql-19.pdf"
   xmlns:inkscape="http://www.inkscape.org/namespaces/inkscape"
   xmlns:sodipodi="http://sodipodi.sourceforge.net/DTD/sodipodi-0.dtd"
   xmlns="http://www.w3.org/2000/svg"
   xmlns:svg="http://www.w3.org/2000/svg">
  <defs
     id="defs1">
    <clipPath
       clipPathUnits="userSpaceOnUse"
       id="clipPath2">
      <path
         d="M 0,0 H 1637.5 V 808.2724 H 0 Z"
         transform="scale(0.33404579)"
         clip-rule="evenodd"
         id="path2" />
    </clipPath>
    <clipPath
       clipPathUnits="userSpaceOnUse"
       id="clipPath4">
      <path
         d="M 0,0 H 1637.5 V 805.27881 H 0 Z"
         transform="matrix(0.33404579,0,0,0.33404579,-0.49999999,-0.49999999)"
         clip-rule="evenodd"
         id="path4" />
    </clipPath>
    <clipPath
       clipPathUnits="userSpaceOnUse"
       id="clipPath5">
      <path
         d="M 0,0 H 1637.5 V 805.27881 H 0 Z"
         transform="matrix(0.33404244,0,0,0.33404244,-17,-21.000001)"
         clip-rule="evenodd"
         id="path5" />
    </clipPath>
    <clipPath
       clipPathUnits="userSpaceOnUse"
       id="clipPath6">
      <path
         d="M 0,0 H 1637.5 V 805.27881 H 0 Z"
         transform="matrix(0.33404244,0,0,0.33404244,-93.016601,-21.000001)"
         clip-rule="evenodd"
         id="path6" />
    </clipPath>
    <clipPath
       clipPathUnits="userSpaceOnUse"
       id="clipPath7">
      <path
         d="M 0,0 H 1637.5 V 805.27881 H 0 Z"
         transform="matrix(0.33404244,0,0,0.33404244,-17,-65)"
         clip-rule="evenodd"
         id="path7" />
    </clipPath>
    <clipPath
       clipPathUnits="userSpaceOnUse"
       id="clipPath8">
      <path
         d="M 0,0 H 1637.5 V 805.27881 H 0 Z"
         transform="matrix(0.33404244,0,0,0.33404244,-75.000977,-65)"
         clip-rule="evenodd"
         id="path8" />
    </clipPath>
    <clipPath
       clipPathUnits="userSpaceOnUse"
       id="clipPath9">
      <path
         d="M 0,0 H 1637.5 V 805.27881 H 0 Z"
         transform="matrix(0.33404244,0,0,0.33404244,-17,-108)"
         clip-rule="evenodd"
         id="path9" />
    </clipPath>
    <clipPath
       clipPathUnits="userSpaceOnUse"
       id="clipPath10">
      <path
         d="M 0,0 H 1637.5 V 805.27881 H 0 Z"
         transform="matrix(0.33404244,0,0,0.33404244,-17,-151)"
         clip-rule="evenodd"
         id="path10" />
    </clipPath>
    <clipPath
       clipPathUnits="userSpaceOnUse"
       id="clipPath11">
      <path
         d="M 0,0 H 1637.5 V 805.27881 H 0 Z"
         transform="matrix(0.33404244,0,0,0.33404244,-17,-194)"
         clip-rule="evenodd"
         id="path11" />
    </clipPath>
    <clipPath
       clipPathUnits="userSpaceOnUse"
       id="clipPath13">
      <path
         d="M 0,0 H 1637.5 V 805.27881 H 0 Z"
         transform="matrix(0.33404579,0,0,0.33404579,-0.49999999,-0.49999999)"
         clip-rule="evenodd"
         id="path13" />
    </clipPath>
    <clipPath
       clipPathUnits="userSpaceOnUse"
       id="clipPath15">
      <path
         d="M 0,0 H 1637.5 V 805.27881 H 0 Z"
         transform="matrix(0.33404579,0,0,0.33404579,-0.49999999,-0.49999999)"
         clip-rule="evenodd"
         id="path15" />
    </clipPath>
    <clipPath
       clipPathUnits="userSpaceOnUse"
       id="clipPath17">
      <path
         d="M 0,0 H 1637.5 V 805.27881 H 0 Z"
         transform="matrix(0.33404579,0,0,0.33404579,-0.49999999,-0.49999999)"
         clip-rule="evenodd"
         id="path17" />
    </clipPath>
    <clipPath
       clipPathUnits="userSpaceOnUse"
       id="clipPath19">
      <path
         d="M 0,0 H 1637.5 V 805.27881 H 0 Z"
         transform="matrix(0.33404579,0,0,0.33404579,-0.49999999,-0.49999999)"
         clip-rule="evenodd"
         id="path19" />
    </clipPath>
    <clipPath
       clipPathUnits="userSpaceOnUse"
       id="clipPath20">
      <path
         d="M 0,0 H 1637.5 V 805.27881 H 0 Z"
         transform="matrix(0.33404244,0,0,0.33404244,-350.39063,-87)"
         clip-rule="evenodd"
         id="path20" />
    </clipPath>
    <clipPath
       clipPathUnits="userSpaceOnUse"
       id="clipPath21">
      <path
         d="M 0,0 H 1637.5 V 805.27881 H 0 Z"
         transform="matrix(0.33404244,0,0,0.33404244,-326.48438,-111)"
         clip-rule="evenodd"
         id="path21" />
    </clipPath>
    <clipPath
       clipPathUnits="userSpaceOnUse"
       id="clipPath22">
      <path
         d="M 0,0 H 1637.5 V 805.27881 H 0 Z"
         transform="matrix(0.33404244,0,0,0.33404244,-343.25,-135)"
         clip-rule="evenodd"
         id="path22" />
    </clipPath>
    <clipPath
       clipPathUnits="userSpaceOnUse"
       id="clipPath24">
      <path
         d="M 0,0 H 1637.5 V 805.27881 H 0 Z"
         transform="matrix(0.33404579,0,0,0.33404579,-0.49999999,-0.49999999)"
         clip-rule="evenodd"
         id="path24" />
    </clipPath>
    <clipPath
       clipPathUnits="userSpaceOnUse"
       id="clipPath26">
      <path
         d="M 0,0 H 1637.5 V 805.27881 H 0 Z"
         transform="matrix(0.33404579,0,0,0.33404579,-0.49999999,-0.49999999)"
         clip-rule="evenodd"
         id="path26" />
    </clipPath>
    <clipPath
       clipPathUnits="userSpaceOnUse"
       id="clipPath28">
      <path
         d="M 0,0 H 1637.5 V 805.27881 H 0 Z"
         transform="matrix(0.33404579,0,0,0.33404579,-0.49999999,-0.49999999)"
         clip-rule="evenodd"
         id="path28" />
    </clipPath>
    <clipPath
       clipPathUnits="userSpaceOnUse"
       id="clipPath29">
      <path
         d="M 0,0 H 1637.5 V 805.27881 H 0 Z"
         transform="matrix(0.33404244,0,0,0.33404244,-333,-214)"
         clip-rule="evenodd"
         id="path29" />
    </clipPath>
    <clipPath
       clipPathUnits="userSpaceOnUse"
       id="clipPath30">
      <path
         d="M 0,0 H 1637.5 V 805.27881 H 0 Z"
         transform="matrix(0.33404244,0,0,0.33404244,-409.01661,-214)"
         clip-rule="evenodd"
         id="path30" />
    </clipPath>
    <clipPath
       clipPathUnits="userSpaceOnUse"
       id="clipPath31">
      <path
         d="M 0,0 H 1637.5 V 805.27881 H 0 Z"
         transform="matrix(0.33404244,0,0,0.33404244,-333,-236)"
         clip-rule="evenodd"
         id="path31" />
    </clipPath>
    <clipPath
       clipPathUnits="userSpaceOnUse"
       id="clipPath32">
      <path
         d="M 0,0 H 1637.5 V 805.27881 H 0 Z"
         transform="matrix(0.33404244,0,0,0.33404244,-391,-236)"
         clip-rule="evenodd"
         id="path32" />
    </clipPath>
    <clipPath
       clipPathUnits="userSpaceOnUse"
       id="clipPath33">
      <path
         d="M 0,0 H 1637.5 V 805.27881 H 0 Z"
         transform="matrix(0.33404244,0,0,0.33404244,-333,-257)"
         clip-rule="evenodd"
         id="path33" />
    </clipPath>
    <clipPath
       clipPathUnits="userSpaceOnUse"
       id="clipPath34">
      <path
         d="M 0,0 H 1637.5 V 805.27881 H 0 Z"
         transform="matrix(0.33404244,0,0,0.33404244,-405,-257)"
         clip-rule="evenodd"
         id="path34" />
    </clipPath>
  </defs>
  <sodipodi:namedview
     id="namedview1"
     pagecolor="#ffffff"
     bordercolor="#000000"
     borderopacity="0.25"
     inkscape:showpageshadow="2"
     inkscape:pageopacity="0.0"
     inkscape:pagecheckerboard="0"
     inkscape:deskcolor="#d1d1d1">
    <inkscape:page
       x="0"
       y="0"
       inkscape:label="1"
       id="page1"
       width="523.84003"
       height="258.56"
       margin="0"
       bleed="0" />
  </sodipodi:namedview>
  <g
     id="g1"
     inkscape:groupmode="layer"
     inkscape:label="1">
    <path
       id="path1"
       d="M 0,0 H 547 V 270 H 0 Z"
       style="fill:#ffffff;fill-opacity:1;fill-rule:nonzero;stroke:none"
       transform="scale(0.95795247)"
       clip-path="url(#clipPath2)" />
    <path
       id="path3"
       d="M 1,1 H 291 V 201 H 1 Z"
       style="fill:#dae8fc;fill-opacity:1;fill-rule:nonzero;stroke:#6c8ebf;stroke-width:1;stroke-linecap:butt;stroke-linejoin:miter;stroke-miterlimit:10;stroke-dasharray:none;stroke-opacity:1"
       transform="matrix(0.95795247,0,0,0.95795247,0.47897623,0.47897623)"
       clip-path="url(#clipPath4)" />
    <text
       id="text4"
       xml:space="preserve"
       transform="matrix(0.95796207,0,0,0.95796207,16.285355,20.117204)"
       clip-path="url(#clipPath5)"><tspan
         style="font-variant:normal;font-weight:700;font-size:18px;font-family:Helvetica;writing-mode:lr-tb;fill:#000000;fill-opacity:1;fill-rule:nonzero;stroke:none"
         x="0 12.005859 24.011719 35.006836 47.012695 60.011719"
         y="0"
         sodipodi:role="line"
         id="tspan4">SELECT</tspan></text>
    <g
       id="g5" />
    <text
       id="text5"
       xml:space="preserve"
       transform="matrix(0.95796207,0,0,0.95796207,89.106376,20.117204)"
       clip-path="url(#clipPath6)"><tspan
         style="font-variant:normal;font-weight:normal;font-size:18px;font-family:Helvetica;writing-mode:lr-tb;fill:#000000;fill-opacity:1;fill-rule:nonzero;stroke:none"
         x="0 9 14.994141 23.994141 28.995117 39.005859 49.016602 59.027344 74.021484 84.032227"
         y="0"
         sodipodi:role="line"
         id="tspan5">ﬁrst_name </tspan></text>
    <text
       id="text6"
       xml:space="preserve"
       transform="matrix(0.95796207,0,0,0.95796207,16.285355,62.267535)"
       clip-path="url(#clipPath7)"><tspan
         style="font-variant:normal;font-weight:700;font-size:18px;font-family:Helvetica;writing-mode:lr-tb;fill:#000000;fill-opacity:1;fill-rule:nonzero;stroke:none"
         x="0 10.995117 23.994141 37.995117"
         y="0"
         sodipodi:role="line"
         id="tspan6">FROM</tspan></text>
    <text
       id="text7"
       xml:space="preserve"
       transform="matrix(0.95796207,0,0,0.95796207,71.848091,62.267535)"
       clip-path="url(#clipPath8)"><tspan
         style="font-variant:normal;font-weight:normal;font-size:18px;font-family:Helvetica;writing-mode:lr-tb;fill:#000000;fill-opacity:1;fill-rule:nonzero;stroke:none"
         x="0 10.010742 19.010742 29.021484 35.015625"
         y="0"
         sodipodi:role="line"
         id="tspan7">users</tspan></text>
    <text
       id="text8"
       xml:space="preserve"
       transform="matrix(0.95796207,0,0,0.95796207,16.285355,103.4599)"
       clip-path="url(#clipPath9)"><tspan
         style="font-variant:normal;font-weight:700;font-size:18px;font-family:Helvetica;writing-mode:lr-tb;fill:#000000;fill-opacity:1;fill-rule:nonzero;stroke:none"
         x="0 10.010742 24.011719 29.012695 42.011719 47.012695"
         y="0"
         sodipodi:role="line"
         id="tspan8">JOIN (</tspan></text>
    <text
       id="text9"
       xml:space="preserve"
       transform="matrix(0.95796207,0,0,0.95796207,16.285355,144.65227)"
       clip-path="url(#clipPath10)"><tspan
         style="font-variant:normal;font-weight:700;font-size:18px;font-family:Helvetica;writing-mode:lr-tb;fill:#000000;fill-opacity:1;fill-rule:nonzero;stroke:none"
         x="0 5.9941406 10.335938 23.334961 35.34082 40.341797"
         y="0"
         sodipodi:role="line"
         id="tspan9">) AS o</tspan></text>
    <text
       id="text10"
       xml:space="preserve"
       transform="matrix(0.95796207,0,0,0.95796207,16.285355,185.84464)"
       clip-path="url(#clipPath11)"><tspan
         style="font-variant:normal;font-weight:700;font-size:18px;font-family:Helvetica;writing-mode:lr-tb;fill:#000000;fill-opacity:1;fill-rule:nonzero;stroke:none"
         x="0 14.000977 27 32.000977 42.996094 47.99707 58.992188 69.00293 79.013672 86.018555 96.029297 101.03027 112.02539 117.02637 127.53809 132.53906 143.53418 153.54492 163.55566 170.56055 180.57129 185.57227 190.57324"
         y="0"
         sodipodi:role="line"
         id="tspan10">ON o.user_id = users.id</tspan></text>
    <path
       id="path12"
       d="m 77,89 h 134 v 30 H 77 Z"
       style="fill:none;stroke:#6c8ebf;stroke-width:1;stroke-linecap:butt;stroke-linejoin:miter;stroke-miterlimit:10;stroke-dasharray:none;stroke-opacity:1"
       transform="matrix(0.95795247,0,0,0.95795247,0.47897623,0.47897623)"
       clip-path="url(#clipPath13)" />
    <path
       id="path14"
       d="M 321,104 H 217.37"
       style="fill:none;stroke:#000000;stroke-width:1;stroke-linecap:butt;stroke-linejoin:miter;stroke-miterlimit:10;stroke-dasharray:none;stroke-opacity:1"
       transform="matrix(0.95795247,0,0,0.95795247,0.47897623,0.47897623)"
       clip-path="url(#clipPath15)" />
    <path
       id="path16"
       d="m 212.12,104 7,-3.5 -1.75,3.5 1.75,3.5 z"
       style="fill:#000000;fill-opacity:1;fill-rule:nonzero;stroke:#000000;stroke-width:1;stroke-linecap:butt;stroke-linejoin:miter;stroke-miterlimit:10;stroke-dasharray:none;stroke-opacity:1"
       transform="matrix(0.95795247,0,0,0.95795247,0.47897623,0.47897623)"
       clip-path="url(#clipPath17)" />
    <path
       id="path18"
       d="m 321,62.5 h 220 v 83 H 321 Z"
       style="fill:#f5f5f5;fill-opacity:1;fill-rule:nonzero;stroke:#666666;stroke-width:1;stroke-linecap:butt;stroke-linejoin:miter;stroke-miterlimit:10;stroke-dasharray:none;stroke-opacity:1"
       transform="matrix(0.95795247,0,0,0.95795247,0.47897623,0.47897623)"
       clip-path="url(#clipPath19)" />
    <text
       id="text19"
       xml:space="preserve"
       transform="matrix(0.95796207,0,0,0.95796207,335.66093,83.3427)"
       clip-path="url(#clipPath20)"><tspan
         style="font-variant:normal;font-weight:normal;font-size:20px;font-family:Helvetica;writing-mode:lr-tb;fill:#333333;fill-opacity:1;fill-rule:nonzero;stroke:none"
         x="0 13.339844 24.462891 34.462891 40.019531 50.019531 61.142578 72.265625 83.388672 94.511719 105.63477 112.29492 122.29492 127.85156 133.4082 144.53125 155.6543"
         y="0"
         sodipodi:role="line"
         id="tspan19">Any subquery that</tspan></text>
    <text
       id="text20"
       xml:space="preserve"
       transform="matrix(0.95796207,0,0,0.95796207,312.75965,106.33379)"
       clip-path="url(#clipPath21)"><tspan
         style="font-variant:normal;font-weight:normal;font-size:20px;font-family:Helvetica;writing-mode:lr-tb;fill:#333333;fill-opacity:1;fill-rule:nonzero;stroke:none"
         x="0 6.6601562 17.783203 23.339844 34.462891 41.123047 52.246094 62.246094 67.802734 78.925781 90.048828 95.605469 106.72852 112.28516 122.28516 133.4082 150.06836 161.19141 172.31445 177.87109 182.31445 193.4375 197.88086"
         y="0"
         sodipodi:role="line"
         id="tspan20">returns data compatible</tspan></text>
    <text
       id="text21"
       xml:space="preserve"
       transform="matrix(0.95796207,0,0,0.95796207,328.82048,129.32488)"
       clip-path="url(#clipPath22)"><tspan
         style="font-variant:normal;font-weight:normal;font-size:20px;font-family:Helvetica;writing-mode:lr-tb;fill:#333333;fill-opacity:1;fill-rule:nonzero;stroke:none"
         x="0 14.443359 18.886719 24.443359 35.566406 41.123047 46.679688 57.802734 68.925781 74.482422 78.300781 93.857422 108.30078 112.11914 117.67578 127.67578 132.11914 143.24219 154.36523 164.36523"
         y="0"
         sodipodi:role="line"
         id="tspan21">with the 'ON' clause</tspan></text>
    <path
       id="path23"
       d="M 431,191 V 151.86999"
       style="fill:none;stroke:#000000;stroke-width:1;stroke-linecap:butt;stroke-linejoin:miter;stroke-miterlimit:10;stroke-dasharray:none;stroke-opacity:1"
       transform="matrix(0.95795247,0,0,0.95795247,0.47897623,0.47897623)"
       clip-path="url(#clipPath24)" />
    <path
       id="path25"
       d="m 431,146.61999 3.5,7 -3.5,-1.75 -3.5,1.75 z"
       style="fill:#000000;fill-opacity:1;fill-rule:nonzero;stroke:#000000;stroke-width:1;stroke-linecap:butt;stroke-linejoin:miter;stroke-miterlimit:10;stroke-dasharray:none;stroke-opacity:1"
       transform="matrix(0.95795247,0,0,0.95795247,0.47897623,0.47897623)"
       clip-path="url(#clipPath26)" />
    <path
       id="path27"
       d="m 317.25,191 h 227.5 v 75 h -227.5 z"
       style="fill:#dae8fc;fill-opacity:1;fill-rule:nonzero;stroke:#6c8ebf;stroke-width:1;stroke-linecap:butt;stroke-linejoin:miter;stroke-miterlimit:10;stroke-dasharray:none;stroke-opacity:1"
       transform="matrix(0.95795247,0,0,0.95795247,0.47897623,0.47897623)"
       clip-path="url(#clipPath28)" />
    <text
       id="text28"
       xml:space="preserve"
       transform="matrix(0.95796207,0,0,0.95796207,319.00137,205.00388)"
       clip-path="url(#clipPath29)"><tspan
         style="font-variant:normal;font-weight:700;font-size:18px;font-family:Helvetica;writing-mode:lr-tb;fill:#000000;fill-opacity:1;fill-rule:nonzero;stroke:none"
         x="0 12.005859 24.011719 35.006836 47.012695 60.011719"
         y="0"
         sodipodi:role="line"
         id="tspan28">SELECT</tspan></text>
    <text
       id="text29"
       xml:space="preserve"
       transform="matrix(0.95796207,0,0,0.95796207,391.8224,205.00388)"
       clip-path="url(#clipPath30)"><tspan
         style="font-variant:normal;font-weight:normal;font-size:18px;font-family:Helvetica;writing-mode:lr-tb;fill:#000000;fill-opacity:1;fill-rule:nonzero;stroke:none"
         x="0 10.010742 19.010742 29.021484 35.015625 45.026367 49.025391"
         y="0"
         sodipodi:role="line"
         id="tspan29">user_id</tspan></text>
    <text
       id="text30"
       xml:space="preserve"
       transform="matrix(0.95796207,0,0,0.95796207,319.00137,226.07905)"
       clip-path="url(#clipPath31)"><tspan
         style="font-variant:normal;font-weight:700;font-size:18px;font-family:Helvetica;writing-mode:lr-tb;fill:#000000;fill-opacity:1;fill-rule:nonzero;stroke:none"
         x="0 10.995117 23.994141 37.995117 52.989258"
         y="0"
         sodipodi:role="line"
         id="tspan30">FROM </tspan></text>
    <text
       id="text31"
       xml:space="preserve"
       transform="matrix(0.95796207,0,0,0.95796207,374.56317,226.07905)"
       clip-path="url(#clipPath32)"><tspan
         style="font-variant:normal;font-weight:normal;font-size:18px;font-family:Helvetica;writing-mode:lr-tb;fill:#000000;fill-opacity:1;fill-rule:nonzero;stroke:none"
         x="0 10.010742 16.004883 26.015625 36.026367 42.020508"
         y="0"
         sodipodi:role="line"
         id="tspan31">orders</tspan></text>
    <text
       id="text32"
       xml:space="preserve"
       transform="matrix(0.95796207,0,0,0.95796207,319.00137,246.19625)"
       clip-path="url(#clipPath33)"><tspan
         style="font-variant:normal;font-weight:700;font-size:18px;font-family:Helvetica;writing-mode:lr-tb;fill:#000000;fill-opacity:1;fill-rule:nonzero;stroke:none"
         x="0 16.989258 29.988281 41.994141 54.993164 66.999023"
         y="0"
         sodipodi:role="line"
         id="tspan32">WHERE </tspan></text>
    <text
       id="text33"
       xml:space="preserve"
       transform="matrix(0.95796207,0,0,0.95796207,387.97464,246.19625)"
       clip-path="url(#clipPath34)"><tspan
         style="font-variant:normal;font-weight:normal;font-size:18px;font-family:Helvetica;writing-mode:lr-tb;fill:#000000;fill-opacity:1;fill-rule:nonzero;stroke:none"
         x="0 10.010742 16.004883 26.015625 36.026367 46.037109 55.037109 60.038086 70.048828 74.047852 84.058594 89.05957 99.571289 104.57227"
         y="0"
         sodipodi:role="line"
         id="tspan33">product_id = 3</tspan></text>
  </g>
</svg>
