<?xml version="1.0" encoding="UTF-8" standalone="no"?>
<!-- Created with Inkscape (http://www.inkscape.org/) -->

<svg
   version="1.1"
   id="svg1"
   width="722.56"
   height="369.28"
   viewBox="0 0 722.56 369.28"
   sodipodi:docname="sql-13.pdf"
   xmlns:inkscape="http://www.inkscape.org/namespaces/inkscape"
   xmlns:sodipodi="http://sodipodi.sourceforge.net/DTD/sodipodi-0.dtd"
   xmlns="http://www.w3.org/2000/svg"
   xmlns:svg="http://www.w3.org/2000/svg">
  <defs
     id="defs1">
    <clipPath
       clipPathUnits="userSpaceOnUse"
       id="clipPath2">
      <path
         d="M 0,0 H 2258.3333 V 1153.1277 H 0 Z"
         transform="scale(0.33387454)"
         clip-rule="evenodd"
         id="path2" />
    </clipPath>
    <clipPath
       clipPathUnits="userSpaceOnUse"
       id="clipPath4">
      <path
         d="M 0,0 H 2258.3333 V 1150.1326 H 0 Z"
         transform="matrix(0.33387454,0,0,0.33387454,-0.5,-0.5)"
         clip-rule="evenodd"
         id="path4" />
    </clipPath>
    <clipPath
       clipPathUnits="userSpaceOnUse"
       id="clipPath6">
      <path
         d="M 0,0 H 2258.3333 V 1150.1326 H 0 Z"
         transform="matrix(0.33387454,0,0,0.33387454,-0.5,-0.5)"
         clip-rule="evenodd"
         id="path6" />
    </clipPath>
    <clipPath
       clipPathUnits="userSpaceOnUse"
       id="clipPath8">
      <path
         d="M 0,0 H 2258.3333 V 1150.1326 H 0 Z"
         transform="matrix(0.33387454,0,0,0.33387454,-0.5,-0.5)"
         clip-rule="evenodd"
         id="path8" />
    </clipPath>
    <clipPath
       clipPathUnits="userSpaceOnUse"
       id="clipPath10">
      <path
         d="M 0,0 H 2258.3333 V 1150.1326 H 0 Z"
         transform="matrix(0.33387454,0,0,0.33387454,-0.5,-0.5)"
         clip-rule="evenodd"
         id="path10" />
    </clipPath>
    <clipPath
       clipPathUnits="userSpaceOnUse"
       id="clipPath12">
      <path
         d="M 0,0 H 2258.3333 V 1150.1326 H 0 Z"
         transform="matrix(0.33387454,0,0,0.33387454,-0.5,-0.5)"
         clip-rule="evenodd"
         id="path12" />
    </clipPath>
    <clipPath
       clipPathUnits="userSpaceOnUse"
       id="clipPath13">
      <path
         d="M 0,0 H 2258.3333 V 1150.1326 H 0 Z"
         transform="matrix(0.3338712,0,0,0.3338712,-421.98438,-37)"
         clip-rule="evenodd"
         id="path13" />
    </clipPath>
    <clipPath
       clipPathUnits="userSpaceOnUse"
       id="clipPath14">
      <path
         d="M 0,0 H 2258.3333 V 1150.1326 H 0 Z"
         transform="matrix(0.3338712,0,0,0.3338712,-416.73438,-59)"
         clip-rule="evenodd"
         id="path14" />
    </clipPath>
    <clipPath
       clipPathUnits="userSpaceOnUse"
       id="clipPath16">
      <path
         d="M 0,0 H 2258.3333 V 1150.1326 H 0 Z"
         transform="matrix(0.33387454,0,0,0.33387454,-0.5,-0.5)"
         clip-rule="evenodd"
         id="path16" />
    </clipPath>
    <clipPath
       clipPathUnits="userSpaceOnUse"
       id="clipPath18">
      <path
         d="M 0,0 H 2258.3333 V 1150.1326 H 0 Z"
         transform="matrix(0.33387454,0,0,0.33387454,-0.5,-0.5)"
         clip-rule="evenodd"
         id="path18" />
    </clipPath>
    <clipPath
       clipPathUnits="userSpaceOnUse"
       id="clipPath20">
      <path
         d="M 0,0 H 2258.3333 V 1150.1326 H 0 Z"
         transform="matrix(0.33387454,0,0,0.33387454,-0.5,-0.5)"
         clip-rule="evenodd"
         id="path20" />
    </clipPath>
    <clipPath
       clipPathUnits="userSpaceOnUse"
       id="clipPath21">
      <path
         d="M 0,0 H 2258.3333 V 1150.1326 H 0 Z"
         transform="matrix(0.3338712,0,0,0.3338712,-281.98438,-147)"
         clip-rule="evenodd"
         id="path21" />
    </clipPath>
    <clipPath
       clipPathUnits="userSpaceOnUse"
       id="clipPath22">
      <path
         d="M 0,0 H 2258.3333 V 1150.1326 H 0 Z"
         transform="matrix(0.3338712,0,0,0.3338712,-276.73438,-169)"
         clip-rule="evenodd"
         id="path22" />
    </clipPath>
    <clipPath
       clipPathUnits="userSpaceOnUse"
       id="clipPath24">
      <path
         d="M 0,0 H 2258.3333 V 1150.1326 H 0 Z"
         transform="matrix(0.33387454,0,0,0.33387454,-0.5,-0.5)"
         clip-rule="evenodd"
         id="path24" />
    </clipPath>
    <clipPath
       clipPathUnits="userSpaceOnUse"
       id="clipPath26">
      <path
         d="M 0,0 H 2258.3333 V 1150.1326 H 0 Z"
         transform="matrix(0.33387454,0,0,0.33387454,-0.5,-0.5)"
         clip-rule="evenodd"
         id="path26" />
    </clipPath>
    <clipPath
       clipPathUnits="userSpaceOnUse"
       id="clipPath28">
      <path
         d="M 0,0 H 2258.3333 V 1150.1326 H 0 Z"
         transform="matrix(0.33387454,0,0,0.33387454,-0.5,-0.5)"
         clip-rule="evenodd"
         id="path28" />
    </clipPath>
    <clipPath
       clipPathUnits="userSpaceOnUse"
       id="clipPath30">
      <path
         d="M 0,0 H 2258.3333 V 1150.1326 H 0 Z"
         transform="matrix(0.33387454,0,0,0.33387454,-0.5,-0.5)"
         clip-rule="evenodd"
         id="path30" />
    </clipPath>
    <clipPath
       clipPathUnits="userSpaceOnUse"
       id="clipPath32">
      <path
         d="M 0,0 H 2258.3333 V 1150.1326 H 0 Z"
         transform="matrix(0.33387454,0,0,0.33387454,-0.5,-0.5)"
         clip-rule="evenodd"
         id="path32" />
    </clipPath>
    <clipPath
       clipPathUnits="userSpaceOnUse"
       id="clipPath33">
      <path
         d="M 0,0 H 2258.3333 V 1150.1326 H 0 Z"
         transform="matrix(0.3338712,0,0,0.3338712,-534.98438,-147)"
         clip-rule="evenodd"
         id="path33" />
    </clipPath>
    <clipPath
       clipPathUnits="userSpaceOnUse"
       id="clipPath34">
      <path
         d="M 0,0 H 2258.3333 V 1150.1326 H 0 Z"
         transform="matrix(0.3338712,0,0,0.3338712,-529.73438,-169)"
         clip-rule="evenodd"
         id="path34" />
    </clipPath>
    <clipPath
       clipPathUnits="userSpaceOnUse"
       id="clipPath36">
      <path
         d="M 0,0 H 2258.3333 V 1150.1326 H 0 Z"
         transform="matrix(0.33387454,0,0,0.33387454,-0.5,-0.5)"
         clip-rule="evenodd"
         id="path36" />
    </clipPath>
    <clipPath
       clipPathUnits="userSpaceOnUse"
       id="clipPath38">
      <path
         d="M 0,0 H 2258.3333 V 1150.1326 H 0 Z"
         transform="matrix(0.33387454,0,0,0.33387454,-0.5,-0.5)"
         clip-rule="evenodd"
         id="path38" />
    </clipPath>
    <clipPath
       clipPathUnits="userSpaceOnUse"
       id="clipPath40">
      <path
         d="M 0,0 H 2258.3333 V 1150.1326 H 0 Z"
         transform="matrix(0.33387454,0,0,0.33387454,-0.5,-0.5)"
         clip-rule="evenodd"
         id="path40" />
    </clipPath>
    <clipPath
       clipPathUnits="userSpaceOnUse"
       id="clipPath41">
      <path
         d="M 0,0 H 2258.3333 V 1150.1326 H 0 Z"
         transform="matrix(0.3338712,0,0,0.3338712,-461.98438,-247)"
         clip-rule="evenodd"
         id="path41" />
    </clipPath>
    <clipPath
       clipPathUnits="userSpaceOnUse"
       id="clipPath42">
      <path
         d="M 0,0 H 2258.3333 V 1150.1326 H 0 Z"
         transform="matrix(0.3338712,0,0,0.3338712,-456.73438,-269)"
         clip-rule="evenodd"
         id="path42" />
    </clipPath>
    <clipPath
       clipPathUnits="userSpaceOnUse"
       id="clipPath44">
      <path
         d="M 0,0 H 2258.3333 V 1150.1326 H 0 Z"
         transform="matrix(0.33387454,0,0,0.33387454,-0.5,-0.5)"
         clip-rule="evenodd"
         id="path44" />
    </clipPath>
    <clipPath
       clipPathUnits="userSpaceOnUse"
       id="clipPath46">
      <path
         d="M 0,0 H 2258.3333 V 1150.1326 H 0 Z"
         transform="matrix(0.33387454,0,0,0.33387454,-0.5,-0.5)"
         clip-rule="evenodd"
         id="path46" />
    </clipPath>
    <clipPath
       clipPathUnits="userSpaceOnUse"
       id="clipPath48">
      <path
         d="M 0,0 H 2258.3333 V 1150.1326 H 0 Z"
         transform="matrix(0.33387454,0,0,0.33387454,-0.5,-0.5)"
         clip-rule="evenodd"
         id="path48" />
    </clipPath>
    <clipPath
       clipPathUnits="userSpaceOnUse"
       id="clipPath49">
      <path
         d="M 0,0 H 2258.3333 V 1150.1326 H 0 Z"
         transform="matrix(0.3338712,0,0,0.3338712,-611.98438,-247)"
         clip-rule="evenodd"
         id="path49" />
    </clipPath>
    <clipPath
       clipPathUnits="userSpaceOnUse"
       id="clipPath50">
      <path
         d="M 0,0 H 2258.3333 V 1150.1326 H 0 Z"
         transform="matrix(0.3338712,0,0,0.3338712,-606.73438,-269)"
         clip-rule="evenodd"
         id="path50" />
    </clipPath>
    <clipPath
       clipPathUnits="userSpaceOnUse"
       id="clipPath52">
      <path
         d="M 0,0 H 2258.3333 V 1150.1326 H 0 Z"
         transform="matrix(0.33387454,0,0,0.33387454,-0.5,-0.5)"
         clip-rule="evenodd"
         id="path52" />
    </clipPath>
    <clipPath
       clipPathUnits="userSpaceOnUse"
       id="clipPath54">
      <path
         d="M 0,0 H 2258.3333 V 1150.1326 H 0 Z"
         transform="matrix(0.33387454,0,0,0.33387454,-0.5,-0.5)"
         clip-rule="evenodd"
         id="path54" />
    </clipPath>
    <clipPath
       clipPathUnits="userSpaceOnUse"
       id="clipPath56">
      <path
         d="M 0,0 H 2258.3333 V 1150.1326 H 0 Z"
         transform="matrix(0.33387454,0,0,0.33387454,-0.5,-0.5)"
         clip-rule="evenodd"
         id="path56" />
    </clipPath>
    <clipPath
       clipPathUnits="userSpaceOnUse"
       id="clipPath58">
      <path
         d="M 0,0 H 2258.3333 V 1150.1326 H 0 Z"
         transform="matrix(0.33387454,0,0,0.33387454,-0.5,-0.5)"
         clip-rule="evenodd"
         id="path58" />
    </clipPath>
    <clipPath
       clipPathUnits="userSpaceOnUse"
       id="clipPath60">
      <path
         d="M 0,0 H 2258.3333 V 1150.1326 H 0 Z"
         transform="matrix(0.33387454,0,0,0.33387454,-0.5,-0.5)"
         clip-rule="evenodd"
         id="path60" />
    </clipPath>
    <clipPath
       clipPathUnits="userSpaceOnUse"
       id="clipPath61">
      <path
         d="M 0,0 H 2258.3333 V 1150.1326 H 0 Z"
         transform="matrix(0.3338712,0,0,0.3338712,-281.98438,-247)"
         clip-rule="evenodd"
         id="path61" />
    </clipPath>
    <clipPath
       clipPathUnits="userSpaceOnUse"
       id="clipPath62">
      <path
         d="M 0,0 H 2258.3333 V 1150.1326 H 0 Z"
         transform="matrix(0.3338712,0,0,0.3338712,-276.73438,-269)"
         clip-rule="evenodd"
         id="path62" />
    </clipPath>
    <clipPath
       clipPathUnits="userSpaceOnUse"
       id="clipPath64">
      <path
         d="M 0,0 H 2258.3333 V 1150.1326 H 0 Z"
         transform="matrix(0.33387454,0,0,0.33387454,-0.5,-0.5)"
         clip-rule="evenodd"
         id="path64" />
    </clipPath>
    <clipPath
       clipPathUnits="userSpaceOnUse"
       id="clipPath65">
      <path
         d="M 0,0 H 2258.3333 V 1150.1326 H 0 Z"
         transform="matrix(0.3338712,0,0,0.3338712,-521.98438,-347)"
         clip-rule="evenodd"
         id="path65" />
    </clipPath>
    <clipPath
       clipPathUnits="userSpaceOnUse"
       id="clipPath66">
      <path
         d="M 0,0 H 2258.3333 V 1150.1326 H 0 Z"
         transform="matrix(0.3338712,0,0,0.3338712,-511.71875,-369)"
         clip-rule="evenodd"
         id="path66" />
    </clipPath>
    <clipPath
       clipPathUnits="userSpaceOnUse"
       id="clipPath68">
      <path
         d="M 0,0 H 2258.3333 V 1150.1326 H 0 Z"
         transform="matrix(0.33387454,0,0,0.33387454,-0.5,-0.5)"
         clip-rule="evenodd"
         id="path68" />
    </clipPath>
    <clipPath
       clipPathUnits="userSpaceOnUse"
       id="clipPath69">
      <path
         d="M 0,0 H 2258.3333 V 1150.1326 H 0 Z"
         transform="matrix(0.3338712,0,0,0.3338712,-671.98438,-347)"
         clip-rule="evenodd"
         id="path69" />
    </clipPath>
    <clipPath
       clipPathUnits="userSpaceOnUse"
       id="clipPath70">
      <path
         d="M 0,0 H 2258.3333 V 1150.1326 H 0 Z"
         transform="matrix(0.3338712,0,0,0.3338712,-661.71875,-369)"
         clip-rule="evenodd"
         id="path70" />
    </clipPath>
    <clipPath
       clipPathUnits="userSpaceOnUse"
       id="clipPath72">
      <path
         d="M 0,0 H 2258.3333 V 1150.1326 H 0 Z"
         transform="matrix(0.33387454,0,0,0.33387454,-0.5,-0.5)"
         clip-rule="evenodd"
         id="path72" />
    </clipPath>
    <clipPath
       clipPathUnits="userSpaceOnUse"
       id="clipPath73">
      <path
         d="M 0,0 H 2258.3333 V 1150.1326 H 0 Z"
         transform="matrix(0.3338712,0,0,0.3338712,-381.98438,-347)"
         clip-rule="evenodd"
         id="path73" />
    </clipPath>
    <clipPath
       clipPathUnits="userSpaceOnUse"
       id="clipPath74">
      <path
         d="M 0,0 H 2258.3333 V 1150.1326 H 0 Z"
         transform="matrix(0.3338712,0,0,0.3338712,-371.71875,-369)"
         clip-rule="evenodd"
         id="path74" />
    </clipPath>
    <clipPath
       clipPathUnits="userSpaceOnUse"
       id="clipPath76">
      <path
         d="M 0,0 H 2258.3333 V 1150.1326 H 0 Z"
         transform="matrix(0.33387454,0,0,0.33387454,-0.5,-0.5)"
         clip-rule="evenodd"
         id="path76" />
    </clipPath>
    <clipPath
       clipPathUnits="userSpaceOnUse"
       id="clipPath77">
      <path
         d="M 0,0 H 2258.3333 V 1150.1326 H 0 Z"
         transform="matrix(0.3338712,0,0,0.3338712,-241.98438,-347)"
         clip-rule="evenodd"
         id="path77" />
    </clipPath>
    <clipPath
       clipPathUnits="userSpaceOnUse"
       id="clipPath78">
      <path
         d="M 0,0 H 2258.3333 V 1150.1326 H 0 Z"
         transform="matrix(0.3338712,0,0,0.3338712,-231.71875,-369)"
         clip-rule="evenodd"
         id="path78" />
    </clipPath>
    <clipPath
       clipPathUnits="userSpaceOnUse"
       id="clipPath80">
      <path
         d="M 0,0 H 2258.3333 V 1150.1326 H 0 Z"
         transform="matrix(0.33387454,0,0,0.33387454,-0.5,-0.5)"
         clip-rule="evenodd"
         id="path80" />
    </clipPath>
    <clipPath
       clipPathUnits="userSpaceOnUse"
       id="clipPath82">
      <path
         d="M 0,0 H 2258.3333 V 1150.1326 H 0 Z"
         transform="matrix(0.33387454,0,0,0.33387454,-0.5,-0.5)"
         clip-rule="evenodd"
         id="path82" />
    </clipPath>
    <clipPath
       clipPathUnits="userSpaceOnUse"
       id="clipPath83">
      <path
         d="M 0,0 H 2258.3333 V 1150.1326 H 0 Z"
         transform="matrix(0.3338712,0,0,0.3338712,-137.03125,-157)"
         clip-rule="evenodd"
         id="path83" />
    </clipPath>
    <clipPath
       clipPathUnits="userSpaceOnUse"
       id="clipPath85">
      <path
         d="M 0,0 H 2258.3333 V 1150.1326 H 0 Z"
         transform="matrix(0.33387454,0,0,0.33387454,-0.5,-0.5)"
         clip-rule="evenodd"
         id="path85" />
    </clipPath>
    <clipPath
       clipPathUnits="userSpaceOnUse"
       id="clipPath87">
      <path
         d="M 0,0 H 2258.3333 V 1150.1326 H 0 Z"
         transform="matrix(0.33387454,0,0,0.33387454,-0.5,-0.5)"
         clip-rule="evenodd"
         id="path87" />
    </clipPath>
    <clipPath
       clipPathUnits="userSpaceOnUse"
       id="clipPath88">
      <path
         d="M 0,0 H 2258.3333 V 1150.1326 H 0 Z"
         transform="matrix(0.3338712,0,0,0.3338712,-122.03125,-257)"
         clip-rule="evenodd"
         id="path88" />
    </clipPath>
    <clipPath
       clipPathUnits="userSpaceOnUse"
       id="clipPath90">
      <path
         d="M 0,0 H 2258.3333 V 1150.1326 H 0 Z"
         transform="matrix(0.33387454,0,0,0.33387454,-0.5,-0.5)"
         clip-rule="evenodd"
         id="path90" />
    </clipPath>
    <clipPath
       clipPathUnits="userSpaceOnUse"
       id="clipPath92">
      <path
         d="M 0,0 H 2258.3333 V 1150.1326 H 0 Z"
         transform="matrix(0.33387454,0,0,0.33387454,-0.5,-0.5)"
         clip-rule="evenodd"
         id="path92" />
    </clipPath>
    <clipPath
       clipPathUnits="userSpaceOnUse"
       id="clipPath93">
      <path
         d="M 0,0 H 2258.3333 V 1150.1326 H 0 Z"
         transform="matrix(0.3338712,0,0,0.3338712,-97.03125,-357)"
         clip-rule="evenodd"
         id="path93" />
    </clipPath>
    <clipPath
       clipPathUnits="userSpaceOnUse"
       id="clipPath95">
      <path
         d="M 0,0 H 2258.3333 V 1150.1326 H 0 Z"
         transform="matrix(0.33387454,0,0,0.33387454,-0.5,-0.5)"
         clip-rule="evenodd"
         id="path95" />
    </clipPath>
    <clipPath
       clipPathUnits="userSpaceOnUse"
       id="clipPath96">
      <path
         d="M 0,0 H 2258.3333 V 1150.1326 H 0 Z"
         transform="matrix(0.3338712,0,0,0.3338712,-13.46875,-32)"
         clip-rule="evenodd"
         id="path96" />
    </clipPath>
    <clipPath
       clipPathUnits="userSpaceOnUse"
       id="clipPath97">
      <path
         d="M 0,0 H 2258.3333 V 1150.1326 H 0 Z"
         transform="matrix(0.3338712,0,0,0.3338712,-67.234375,-54)"
         clip-rule="evenodd"
         id="path97" />
    </clipPath>
  </defs>
  <sodipodi:namedview
     id="namedview1"
     pagecolor="#ffffff"
     bordercolor="#000000"
     borderopacity="0.25"
     inkscape:showpageshadow="2"
     inkscape:pageopacity="0.0"
     inkscape:pagecheckerboard="0"
     inkscape:deskcolor="#d1d1d1">
    <inkscape:page
       x="0"
       y="0"
       inkscape:label="1"
       id="page1"
       width="722.56"
       height="369.28"
       margin="0"
       bleed="0" />
  </sodipodi:namedview>
  <g
     id="g1"
     inkscape:groupmode="layer"
     inkscape:label="1">
    <path
       id="path1"
       d="M 0,0 H 754 V 385 H 0 Z"
       style="fill:#ffffff;fill-opacity:1;fill-rule:nonzero;stroke:none"
       transform="scale(0.9584438)"
       clip-path="url(#clipPath2)" />
    <path
       id="path3"
       d="M 441,71 V 96 H 301 v 18.63"
       style="fill:none;stroke:#000000;stroke-width:1;stroke-linecap:butt;stroke-linejoin:miter;stroke-miterlimit:10;stroke-dasharray:none;stroke-opacity:1"
       transform="matrix(0.9584438,0,0,0.9584438,0.4792219,0.4792219)"
       clip-path="url(#clipPath4)" />
    <path
       id="path5"
       d="m 301,119.88 -3.5,-7 3.5,1.75 3.5,-1.75 z"
       style="fill:#000000;fill-opacity:1;fill-rule:nonzero;stroke:#000000;stroke-width:1;stroke-linecap:butt;stroke-linejoin:miter;stroke-miterlimit:10;stroke-dasharray:none;stroke-opacity:1"
       transform="matrix(0.9584438,0,0,0.9584438,0.4792219,0.4792219)"
       clip-path="url(#clipPath6)" />
    <path
       id="path7"
       d="m 441,71 v 25 h 113 v 18.63"
       style="fill:none;stroke:#000000;stroke-width:1;stroke-linecap:butt;stroke-linejoin:miter;stroke-miterlimit:10;stroke-dasharray:none;stroke-opacity:1"
       transform="matrix(0.9584438,0,0,0.9584438,0.4792219,0.4792219)"
       clip-path="url(#clipPath8)" />
    <path
       id="path9"
       d="m 554,119.88 -3.5,-7 3.5,1.75 3.5,-1.75 z"
       style="fill:#000000;fill-opacity:1;fill-rule:nonzero;stroke:#000000;stroke-width:1;stroke-linecap:butt;stroke-linejoin:miter;stroke-miterlimit:10;stroke-dasharray:none;stroke-opacity:1"
       transform="matrix(0.9584438,0,0,0.9584438,0.4792219,0.4792219)"
       clip-path="url(#clipPath10)" />
    <path
       id="path11"
       d="M 381,11 H 501 V 71 H 381 Z"
       style="fill:#ffffff;fill-opacity:1;fill-rule:nonzero;stroke:#000000;stroke-width:1;stroke-linecap:butt;stroke-linejoin:miter;stroke-miterlimit:10;stroke-dasharray:none;stroke-opacity:1"
       transform="matrix(0.9584438,0,0,0.9584438,0.4792219,0.4792219)"
       clip-path="url(#clipPath12)" />
    <text
       id="text12"
       xml:space="preserve"
       transform="matrix(0.9584534,0,0,0.9584534,404.45236,35.462776)"
       clip-path="url(#clipPath13)"><tspan
         style="font-variant:normal;font-weight:normal;font-size:18px;font-family:Helvetica;writing-mode:lr-tb;fill:#000000;fill-opacity:1;fill-rule:nonzero;stroke:none"
         x="0 12.999023 21.999023 32.009766"
         y="0"
         sodipodi:role="line"
         id="tspan12">User</tspan></text>
    <text
       id="text13"
       xml:space="preserve"
       transform="matrix(0.9584534,0,0,0.9584534,399.42048,56.548751)"
       clip-path="url(#clipPath14)"><tspan
         style="font-variant:normal;font-weight:normal;font-size:18px;font-family:Helvetica;writing-mode:lr-tb;fill:#000000;fill-opacity:1;fill-rule:nonzero;stroke:none"
         x="0 5.0009766 18 23.000977 33.512695 38.513672"
         y="0"
         sodipodi:role="line"
         id="tspan13">ID = 1</tspan></text>
    <path
       id="path15"
       d="m 301,181 v 33.63"
       style="fill:none;stroke:#000000;stroke-width:1;stroke-linecap:butt;stroke-linejoin:miter;stroke-miterlimit:10;stroke-dasharray:none;stroke-opacity:1"
       transform="matrix(0.9584438,0,0,0.9584438,0.4792219,0.4792219)"
       clip-path="url(#clipPath16)" />
    <path
       id="path17"
       d="m 301,219.88 -3.5,-7 3.5,1.75 3.5,-1.75 z"
       style="fill:#000000;fill-opacity:1;fill-rule:nonzero;stroke:#000000;stroke-width:1;stroke-linecap:butt;stroke-linejoin:miter;stroke-miterlimit:10;stroke-dasharray:none;stroke-opacity:1"
       transform="matrix(0.9584438,0,0,0.9584438,0.4792219,0.4792219)"
       clip-path="url(#clipPath18)" />
    <path
       id="path19"
       d="m 241,121 h 120 v 60 H 241 Z"
       style="fill:#dae8fc;fill-opacity:1;fill-rule:nonzero;stroke:#6c8ebf;stroke-width:1;stroke-linecap:butt;stroke-linejoin:miter;stroke-miterlimit:10;stroke-dasharray:none;stroke-opacity:1"
       transform="matrix(0.9584438,0,0,0.9584438,0.4792219,0.4792219)"
       clip-path="url(#clipPath20)" />
    <text
       id="text20"
       xml:space="preserve"
       transform="matrix(0.9584534,0,0,0.9584534,270.26889,140.89265)"
       clip-path="url(#clipPath21)"><tspan
         style="font-variant:normal;font-weight:normal;font-size:18px;font-family:Helvetica;writing-mode:lr-tb;fill:#000000;fill-opacity:1;fill-rule:nonzero;stroke:none"
         x="0 12.999023 21.999023 32.009766"
         y="0"
         sodipodi:role="line"
         id="tspan20">User</tspan></text>
    <text
       id="text21"
       xml:space="preserve"
       transform="matrix(0.9584534,0,0,0.9584534,265.23701,161.97862)"
       clip-path="url(#clipPath22)"><tspan
         style="font-variant:normal;font-weight:normal;font-size:18px;font-family:Helvetica;writing-mode:lr-tb;fill:#000000;fill-opacity:1;fill-rule:nonzero;stroke:none"
         x="0 5.0009766 18 23.000977 33.512695 38.513672"
         y="0"
         sodipodi:role="line"
         id="tspan21">ID = 4</tspan></text>
    <path
       id="path23"
       d="m 554.01001,181 -0.01,20 h -73 v 13.63"
       style="fill:none;stroke:#000000;stroke-width:1;stroke-linecap:butt;stroke-linejoin:miter;stroke-miterlimit:10;stroke-dasharray:none;stroke-opacity:1"
       transform="matrix(0.9584438,0,0,0.9584438,0.4792219,0.4792219)"
       clip-path="url(#clipPath24)" />
    <path
       id="path25"
       d="m 481,219.88 -3.5,-7 3.5,1.75 3.5,-1.75 z"
       style="fill:#000000;fill-opacity:1;fill-rule:nonzero;stroke:#000000;stroke-width:1;stroke-linecap:butt;stroke-linejoin:miter;stroke-miterlimit:10;stroke-dasharray:none;stroke-opacity:1"
       transform="matrix(0.9584438,0,0,0.9584438,0.4792219,0.4792219)"
       clip-path="url(#clipPath26)" />
    <path
       id="path27"
       d="m 554.01001,181 -0.01,20 h 77 v 13.63"
       style="fill:none;stroke:#000000;stroke-width:1;stroke-linecap:butt;stroke-linejoin:miter;stroke-miterlimit:10;stroke-dasharray:none;stroke-opacity:1"
       transform="matrix(0.9584438,0,0,0.9584438,0.4792219,0.4792219)"
       clip-path="url(#clipPath28)" />
    <path
       id="path29"
       d="m 631,219.88 -3.5,-7 3.5,1.75 3.5,-1.75 z"
       style="fill:#000000;fill-opacity:1;fill-rule:nonzero;stroke:#000000;stroke-width:1;stroke-linecap:butt;stroke-linejoin:miter;stroke-miterlimit:10;stroke-dasharray:none;stroke-opacity:1"
       transform="matrix(0.9584438,0,0,0.9584438,0.4792219,0.4792219)"
       clip-path="url(#clipPath30)" />
    <path
       id="path31"
       d="m 494,121 h 120 v 60 H 494 Z"
       style="fill:#dae8fc;fill-opacity:1;fill-rule:nonzero;stroke:#6c8ebf;stroke-width:1;stroke-linecap:butt;stroke-linejoin:miter;stroke-miterlimit:10;stroke-dasharray:none;stroke-opacity:1"
       transform="matrix(0.9584438,0,0,0.9584438,0.4792219,0.4792219)"
       clip-path="url(#clipPath32)" />
    <text
       id="text32"
       xml:space="preserve"
       transform="matrix(0.9584534,0,0,0.9584534,512.7576,140.89265)"
       clip-path="url(#clipPath33)"><tspan
         style="font-variant:normal;font-weight:normal;font-size:18px;font-family:Helvetica;writing-mode:lr-tb;fill:#000000;fill-opacity:1;fill-rule:nonzero;stroke:none"
         x="0 12.999023 21.999023 32.009766"
         y="0"
         sodipodi:role="line"
         id="tspan32">User</tspan></text>
    <text
       id="text33"
       xml:space="preserve"
       transform="matrix(0.9584534,0,0,0.9584534,507.72572,161.97862)"
       clip-path="url(#clipPath34)"><tspan
         style="font-variant:normal;font-weight:normal;font-size:18px;font-family:Helvetica;writing-mode:lr-tb;fill:#000000;fill-opacity:1;fill-rule:nonzero;stroke:none"
         x="0 5.0009766 18 23.000977 33.512695 38.513672"
         y="0"
         sodipodi:role="line"
         id="tspan33">ID = 5</tspan></text>
    <path
       id="path35"
       d="m 481,281 v 20 h 60 v 13.64001"
       style="fill:none;stroke:#000000;stroke-width:1;stroke-linecap:butt;stroke-linejoin:miter;stroke-miterlimit:10;stroke-dasharray:none;stroke-opacity:1"
       transform="matrix(0.9584438,0,0,0.9584438,0.4792219,0.4792219)"
       clip-path="url(#clipPath36)" />
    <path
       id="path37"
       d="m 541.01001,319.89001 -3.51001,-7 3.5,1.75 3.5,-1.76001 z"
       style="fill:#000000;fill-opacity:1;fill-rule:nonzero;stroke:#000000;stroke-width:1;stroke-linecap:butt;stroke-linejoin:miter;stroke-miterlimit:10;stroke-dasharray:none;stroke-opacity:1"
       transform="matrix(0.9584438,0,0,0.9584438,0.4792219,0.4792219)"
       clip-path="url(#clipPath38)" />
    <path
       id="path39"
       d="m 421,221 h 120 v 60 H 421 Z"
       style="fill:#e1d5e7;fill-opacity:1;fill-rule:nonzero;stroke:#9673a6;stroke-width:1;stroke-linecap:butt;stroke-linejoin:miter;stroke-miterlimit:10;stroke-dasharray:none;stroke-opacity:1"
       transform="matrix(0.9584438,0,0,0.9584438,0.4792219,0.4792219)"
       clip-path="url(#clipPath40)" />
    <text
       id="text40"
       xml:space="preserve"
       transform="matrix(0.9584534,0,0,0.9584534,442.7905,236.73799)"
       clip-path="url(#clipPath41)"><tspan
         style="font-variant:normal;font-weight:normal;font-size:18px;font-family:Helvetica;writing-mode:lr-tb;fill:#000000;fill-opacity:1;fill-rule:nonzero;stroke:none"
         x="0 12.999023 21.999023 32.009766"
         y="0"
         sodipodi:role="line"
         id="tspan40">User</tspan></text>
    <text
       id="text41"
       xml:space="preserve"
       transform="matrix(0.9584534,0,0,0.9584534,437.75862,257.82396)"
       clip-path="url(#clipPath42)"><tspan
         style="font-variant:normal;font-weight:normal;font-size:18px;font-family:Helvetica;writing-mode:lr-tb;fill:#000000;fill-opacity:1;fill-rule:nonzero;stroke:none"
         x="0 5.0009766 18 23.000977 33.512695 38.513672"
         y="0"
         sodipodi:role="line"
         id="tspan41">ID = 2</tspan></text>
    <path
       id="path43"
       d="m 631.01001,281 -0.01,20 h 60 v 13.64001"
       style="fill:none;stroke:#000000;stroke-width:1;stroke-linecap:butt;stroke-linejoin:miter;stroke-miterlimit:10;stroke-dasharray:none;stroke-opacity:1"
       transform="matrix(0.9584438,0,0,0.9584438,0.4792219,0.4792219)"
       clip-path="url(#clipPath44)" />
    <path
       id="path45"
       d="m 691.01001,319.89001 -3.51001,-7 3.5,1.75 3.5,-1.76001 z"
       style="fill:#000000;fill-opacity:1;fill-rule:nonzero;stroke:#000000;stroke-width:1;stroke-linecap:butt;stroke-linejoin:miter;stroke-miterlimit:10;stroke-dasharray:none;stroke-opacity:1"
       transform="matrix(0.9584438,0,0,0.9584438,0.4792219,0.4792219)"
       clip-path="url(#clipPath46)" />
    <path
       id="path47"
       d="m 571.01001,221 h 120 v 60 h -120 z"
       style="fill:#e1d5e7;fill-opacity:1;fill-rule:nonzero;stroke:#9673a6;stroke-width:1;stroke-linecap:butt;stroke-linejoin:miter;stroke-miterlimit:10;stroke-dasharray:none;stroke-opacity:1"
       transform="matrix(0.9584438,0,0,0.9584438,0.4792219,0.4792219)"
       clip-path="url(#clipPath48)" />
    <text
       id="text48"
       xml:space="preserve"
       transform="matrix(0.9584534,0,0,0.9584534,586.55851,236.73799)"
       clip-path="url(#clipPath49)"><tspan
         style="font-variant:normal;font-weight:normal;font-size:18px;font-family:Helvetica;writing-mode:lr-tb;fill:#000000;fill-opacity:1;fill-rule:nonzero;stroke:none"
         x="0 12.999023 21.999023 32.009766"
         y="0"
         sodipodi:role="line"
         id="tspan48">User</tspan></text>
    <text
       id="text49"
       xml:space="preserve"
       transform="matrix(0.9584534,0,0,0.9584534,581.52663,257.82396)"
       clip-path="url(#clipPath50)"><tspan
         style="font-variant:normal;font-weight:normal;font-size:18px;font-family:Helvetica;writing-mode:lr-tb;fill:#000000;fill-opacity:1;fill-rule:nonzero;stroke:none"
         x="0 5.0009766 18 23.000977 33.512695 38.513672"
         y="0"
         sodipodi:role="line"
         id="tspan49">ID = 6</tspan></text>
    <path
       id="path51"
       d="m 301,281 v 20 h 100 v 13.64001"
       style="fill:none;stroke:#000000;stroke-width:1;stroke-linecap:butt;stroke-linejoin:miter;stroke-miterlimit:10;stroke-dasharray:none;stroke-opacity:1"
       transform="matrix(0.9584438,0,0,0.9584438,0.4792219,0.4792219)"
       clip-path="url(#clipPath52)" />
    <path
       id="path53"
       d="m 401,319.89001 -3.5,-7 3.5,1.75 3.5,-1.76001 z"
       style="fill:#000000;fill-opacity:1;fill-rule:nonzero;stroke:#000000;stroke-width:1;stroke-linecap:butt;stroke-linejoin:miter;stroke-miterlimit:10;stroke-dasharray:none;stroke-opacity:1"
       transform="matrix(0.9584438,0,0,0.9584438,0.4792219,0.4792219)"
       clip-path="url(#clipPath54)" />
    <path
       id="path55"
       d="m 301,281 v 20 h -40 v 13.64001"
       style="fill:none;stroke:#000000;stroke-width:1;stroke-linecap:butt;stroke-linejoin:miter;stroke-miterlimit:10;stroke-dasharray:none;stroke-opacity:1"
       transform="matrix(0.9584438,0,0,0.9584438,0.4792219,0.4792219)"
       clip-path="url(#clipPath56)" />
    <path
       id="path57"
       d="m 261,319.89001 -3.5,-7 3.5,1.75 3.5,-1.75 z"
       style="fill:#000000;fill-opacity:1;fill-rule:nonzero;stroke:#000000;stroke-width:1;stroke-linecap:butt;stroke-linejoin:miter;stroke-miterlimit:10;stroke-dasharray:none;stroke-opacity:1"
       transform="matrix(0.9584438,0,0,0.9584438,0.4792219,0.4792219)"
       clip-path="url(#clipPath58)" />
    <path
       id="path59"
       d="m 241,221 h 120 v 60 H 241 Z"
       style="fill:#e1d5e7;fill-opacity:1;fill-rule:nonzero;stroke:#9673a6;stroke-width:1;stroke-linecap:butt;stroke-linejoin:miter;stroke-miterlimit:10;stroke-dasharray:none;stroke-opacity:1"
       transform="matrix(0.9584438,0,0,0.9584438,0.4792219,0.4792219)"
       clip-path="url(#clipPath60)" />
    <text
       id="text60"
       xml:space="preserve"
       transform="matrix(0.9584534,0,0,0.9584534,270.26889,236.73799)"
       clip-path="url(#clipPath61)"><tspan
         style="font-variant:normal;font-weight:normal;font-size:18px;font-family:Helvetica;writing-mode:lr-tb;fill:#000000;fill-opacity:1;fill-rule:nonzero;stroke:none"
         x="0 12.999023 21.999023 32.009766"
         y="0"
         sodipodi:role="line"
         id="tspan60">User</tspan></text>
    <text
       id="text61"
       xml:space="preserve"
       transform="matrix(0.9584534,0,0,0.9584534,265.23701,257.82396)"
       clip-path="url(#clipPath62)"><tspan
         style="font-variant:normal;font-weight:normal;font-size:18px;font-family:Helvetica;writing-mode:lr-tb;fill:#000000;fill-opacity:1;fill-rule:nonzero;stroke:none"
         x="0 5.0009766 18 23.000977 33.512695 38.513672"
         y="0"
         sodipodi:role="line"
         id="tspan61">ID = 3</tspan></text>
    <path
       id="path63"
       d="m 481,321 h 120 v 60 H 481 Z"
       style="fill:#fff2cc;fill-opacity:1;fill-rule:nonzero;stroke:#d6b656;stroke-width:1;stroke-linecap:butt;stroke-linejoin:miter;stroke-miterlimit:10;stroke-dasharray:none;stroke-opacity:1"
       transform="matrix(0.9584438,0,0,0.9584438,0.4792219,0.4792219)"
       clip-path="url(#clipPath64)" />
    <text
       id="text64"
       xml:space="preserve"
       transform="matrix(0.9584534,0,0,0.9584534,500.2977,332.58333)"
       clip-path="url(#clipPath65)"><tspan
         style="font-variant:normal;font-weight:normal;font-size:18px;font-family:Helvetica;writing-mode:lr-tb;fill:#000000;fill-opacity:1;fill-rule:nonzero;stroke:none"
         x="0 12.999023 21.999023 32.009766"
         y="0"
         sodipodi:role="line"
         id="tspan64">User</tspan></text>
    <text
       id="text65"
       xml:space="preserve"
       transform="matrix(0.9584534,0,0,0.9584534,490.45858,353.6693)"
       clip-path="url(#clipPath66)"><tspan
         style="font-variant:normal;font-weight:normal;font-size:18px;font-family:Helvetica;writing-mode:lr-tb;fill:#000000;fill-opacity:1;fill-rule:nonzero;stroke:none"
         x="0 5.0009766 18 23.000977 33.512695 38.513672 48.524414"
         y="0"
         sodipodi:role="line"
         id="tspan65">ID = 25</tspan></text>
    <path
       id="path67"
       d="m 631.01001,321 h 120 v 60 h -120 z"
       style="fill:#fff2cc;fill-opacity:1;fill-rule:nonzero;stroke:#d6b656;stroke-width:1;stroke-linecap:butt;stroke-linejoin:miter;stroke-miterlimit:10;stroke-dasharray:none;stroke-opacity:1"
       transform="matrix(0.9584438,0,0,0.9584438,0.4792219,0.4792219)"
       clip-path="url(#clipPath68)" />
    <text
       id="text68"
       xml:space="preserve"
       transform="matrix(0.9584534,0,0,0.9584534,644.06571,332.58333)"
       clip-path="url(#clipPath69)"><tspan
         style="font-variant:normal;font-weight:normal;font-size:18px;font-family:Helvetica;writing-mode:lr-tb;fill:#000000;fill-opacity:1;fill-rule:nonzero;stroke:none"
         x="0 12.999023 21.999023 32.009766"
         y="0"
         sodipodi:role="line"
         id="tspan68">User</tspan></text>
    <text
       id="text69"
       xml:space="preserve"
       transform="matrix(0.9584534,0,0,0.9584534,634.22659,353.6693)"
       clip-path="url(#clipPath70)"><tspan
         style="font-variant:normal;font-weight:normal;font-size:18px;font-family:Helvetica;writing-mode:lr-tb;fill:#000000;fill-opacity:1;fill-rule:nonzero;stroke:none"
         x="0 5.0009766 18 23.000977 33.512695 38.513672 48.524414"
         y="0"
         sodipodi:role="line"
         id="tspan69">ID = 60</tspan></text>
    <path
       id="path71"
       d="m 341,321 h 120 v 60 H 341 Z"
       style="fill:#fff2cc;fill-opacity:1;fill-rule:nonzero;stroke:#d6b656;stroke-width:1;stroke-linecap:butt;stroke-linejoin:miter;stroke-miterlimit:10;stroke-dasharray:none;stroke-opacity:1"
       transform="matrix(0.9584438,0,0,0.9584438,0.4792219,0.4792219)"
       clip-path="url(#clipPath72)" />
    <text
       id="text72"
       xml:space="preserve"
       transform="matrix(0.9584534,0,0,0.9584534,366.11423,332.58333)"
       clip-path="url(#clipPath73)"><tspan
         style="font-variant:normal;font-weight:normal;font-size:18px;font-family:Helvetica;writing-mode:lr-tb;fill:#000000;fill-opacity:1;fill-rule:nonzero;stroke:none"
         x="0 12.999023 21.999023 32.009766"
         y="0"
         sodipodi:role="line"
         id="tspan72">User</tspan></text>
    <text
       id="text73"
       xml:space="preserve"
       transform="matrix(0.9584534,0,0,0.9584534,356.2751,353.6693)"
       clip-path="url(#clipPath74)"><tspan
         style="font-variant:normal;font-weight:normal;font-size:18px;font-family:Helvetica;writing-mode:lr-tb;fill:#000000;fill-opacity:1;fill-rule:nonzero;stroke:none"
         x="0 5.0009766 18 23.000977 33.512695 38.513672 48.524414"
         y="0"
         sodipodi:role="line"
         id="tspan73">ID = 43</tspan></text>
    <path
       id="path75"
       d="m 201,321 h 120 v 60 H 201 Z"
       style="fill:#fff2cc;fill-opacity:1;fill-rule:nonzero;stroke:#d6b656;stroke-width:1;stroke-linecap:butt;stroke-linejoin:miter;stroke-miterlimit:10;stroke-dasharray:none;stroke-opacity:1"
       transform="matrix(0.9584438,0,0,0.9584438,0.4792219,0.4792219)"
       clip-path="url(#clipPath76)" />
    <text
       id="text76"
       xml:space="preserve"
       transform="matrix(0.9584534,0,0,0.9584534,231.93075,332.58333)"
       clip-path="url(#clipPath77)"><tspan
         style="font-variant:normal;font-weight:normal;font-size:18px;font-family:Helvetica;writing-mode:lr-tb;fill:#000000;fill-opacity:1;fill-rule:nonzero;stroke:none"
         x="0 12.999023 21.999023 32.009766"
         y="0"
         sodipodi:role="line"
         id="tspan76">User</tspan></text>
    <text
       id="text77"
       xml:space="preserve"
       transform="matrix(0.9584534,0,0,0.9584534,222.09162,353.6693)"
       clip-path="url(#clipPath78)"><tspan
         style="font-variant:normal;font-weight:normal;font-size:18px;font-family:Helvetica;writing-mode:lr-tb;fill:#000000;fill-opacity:1;fill-rule:nonzero;stroke:none"
         x="0 5.0009766 18 23.000977 33.512695 38.513672 48.524414"
         y="0"
         sodipodi:role="line"
         id="tspan77">ID = 13</tspan></text>
    <path
       id="path79"
       d="m 211,151 h 23.63"
       style="fill:none;stroke:#000000;stroke-width:1;stroke-linecap:butt;stroke-linejoin:miter;stroke-miterlimit:10;stroke-dasharray:none;stroke-opacity:1"
       transform="matrix(0.9584438,0,0,0.9584438,0.4792219,0.4792219)"
       clip-path="url(#clipPath80)" />
    <path
       id="path81"
       d="m 239.88,151 -7,3.5 1.75,-3.5 -1.75,-3.5 z"
       style="fill:#000000;fill-opacity:1;fill-rule:nonzero;stroke:#000000;stroke-width:1;stroke-linecap:butt;stroke-linejoin:miter;stroke-miterlimit:10;stroke-dasharray:none;stroke-opacity:1"
       transform="matrix(0.9584438,0,0,0.9584438,0.4792219,0.4792219)"
       clip-path="url(#clipPath82)" />
    <text
       id="text82"
       xml:space="preserve"
       transform="matrix(0.9584534,0,0,0.9584534,131.33807,150.47718)"
       clip-path="url(#clipPath83)"><tspan
         style="font-variant:normal;font-weight:700;font-size:15px;font-family:Helvetica;writing-mode:lr-tb;fill:#000000;fill-opacity:1;fill-rule:nonzero;stroke:none"
         x="0 10.83252 19.174805 28.337402 33.33252 42.495117 46.662598 55.422363 59.589844"
         y="0"
         sodipodi:role="line"
         id="tspan82">Depth = 1</tspan></text>
    <path
       id="path84"
       d="m 201,251 h 33.63"
       style="fill:none;stroke:#000000;stroke-width:1;stroke-linecap:butt;stroke-linejoin:miter;stroke-miterlimit:10;stroke-dasharray:none;stroke-opacity:1"
       transform="matrix(0.9584438,0,0,0.9584438,0.4792219,0.4792219)"
       clip-path="url(#clipPath85)" />
    <path
       id="path86"
       d="m 239.88,251 -7,3.5 1.75,-3.5 -1.75,-3.5 z"
       style="fill:#000000;fill-opacity:1;fill-rule:nonzero;stroke:#000000;stroke-width:1;stroke-linecap:butt;stroke-linejoin:miter;stroke-miterlimit:10;stroke-dasharray:none;stroke-opacity:1"
       transform="matrix(0.9584438,0,0,0.9584438,0.4792219,0.4792219)"
       clip-path="url(#clipPath87)" />
    <text
       id="text87"
       xml:space="preserve"
       transform="matrix(0.9584534,0,0,0.9584534,116.96127,246.32252)"
       clip-path="url(#clipPath88)"><tspan
         style="font-variant:normal;font-weight:700;font-size:15px;font-family:Helvetica;writing-mode:lr-tb;fill:#000000;fill-opacity:1;fill-rule:nonzero;stroke:none"
         x="0 10.83252 19.174805 28.337402 33.33252 42.495117 46.662598 55.422363 59.589844"
         y="0"
         sodipodi:role="line"
         id="tspan87">Depth = 2</tspan></text>
    <path
       id="path89"
       d="m 171,351 h 20 -10 13.63"
       style="fill:none;stroke:#000000;stroke-width:1;stroke-linecap:butt;stroke-linejoin:miter;stroke-miterlimit:10;stroke-dasharray:none;stroke-opacity:1"
       transform="matrix(0.9584438,0,0,0.9584438,0.4792219,0.4792219)"
       clip-path="url(#clipPath90)" />
    <path
       id="path91"
       d="m 199.88,351 -7,3.5 1.75,-3.5 -1.75,-3.5 z"
       style="fill:#000000;fill-opacity:1;fill-rule:nonzero;stroke:#000000;stroke-width:1;stroke-linecap:butt;stroke-linejoin:miter;stroke-miterlimit:10;stroke-dasharray:none;stroke-opacity:1"
       transform="matrix(0.9584438,0,0,0.9584438,0.4792219,0.4792219)"
       clip-path="url(#clipPath92)" />
    <text
       id="text92"
       xml:space="preserve"
       transform="matrix(0.9584534,0,0,0.9584534,92.999931,342.16786)"
       clip-path="url(#clipPath93)"><tspan
         style="font-variant:normal;font-weight:700;font-size:15px;font-family:Helvetica;writing-mode:lr-tb;fill:#000000;fill-opacity:1;fill-rule:nonzero;stroke:none"
         x="0 10.83252 19.174805 28.337402 33.33252 42.495117 46.662598 55.422363 59.589844"
         y="0"
         sodipodi:role="line"
         id="tspan92">Depth = 3</tspan></text>
    <path
       id="path94"
       d="M 1,1 H 251 V 71 H 1 Z"
       style="fill:#f8cecc;fill-opacity:1;fill-rule:nonzero;stroke:#b85450;stroke-width:1;stroke-linecap:butt;stroke-linejoin:miter;stroke-miterlimit:10;stroke-dasharray:none;stroke-opacity:1"
       transform="matrix(0.9584438,0,0,0.9584438,0.4792219,0.4792219)"
       clip-path="url(#clipPath95)" />
    <g
       id="g95" />
    <text
       id="text95"
       xml:space="preserve"
       transform="matrix(0.9584534,0,0,0.9584534,12.909169,30.670509)"
       clip-path="url(#clipPath96)"><tspan
         style="font-variant:normal;font-weight:700;font-size:18px;font-family:Helvetica;writing-mode:lr-tb;fill:#000000;fill-opacity:1;fill-rule:nonzero;stroke:none"
         x="0 14.000977 24.996094 29.99707 40.007812 45.008789 56.003906 66.999023 77.994141 82.995117 93.990234 104.00098 114.01172 121.0166 131.02734 136.02832 150.0293 161.02441 172.01953 177.02051 187.03125 194.03613 204.04688 209.04785 219.05859"
         y="0"
         sodipodi:role="line"
         id="tspan95">Only ﬁnd users who are at</tspan></text>
    <text
       id="text96"
       xml:space="preserve"
       transform="matrix(0.9584534,0,0,0.9584534,64.441015,51.756484)"
       clip-path="url(#clipPath97)"><tspan
         style="font-variant:normal;font-weight:700;font-size:18px;font-family:Helvetica;writing-mode:lr-tb;fill:#000000;fill-opacity:1;fill-rule:nonzero;stroke:none"
         x="0 10.995117 21.005859 32.000977 37.995117 48.990234 53.991211 64.50293 69.503906 79.514648 84.515625 95.510742 102.51562 107.5166"
         y="0"
         sodipodi:role="line"
         id="tspan96">depth = 2 or 3</tspan></text>
  </g>
</svg>
