<?xml version="1.0" encoding="UTF-8" standalone="no"?>
<!-- Created with Inkscape (http://www.inkscape.org/) -->

<svg
   version="1.1"
   id="svg1"
   width="434.55997"
   height="360"
   viewBox="0 0 434.55997 360"
   sodipodi:docname="sql-8.pdf"
   xmlns:inkscape="http://www.inkscape.org/namespaces/inkscape"
   xmlns:sodipodi="http://sodipodi.sourceforge.net/DTD/sodipodi-0.dtd"
   xmlns="http://www.w3.org/2000/svg"
   xmlns:svg="http://www.w3.org/2000/svg">
  <defs
     id="defs1">
    <clipPath
       clipPathUnits="userSpaceOnUse"
       id="clipPath2">
      <path
         d="M 0,0 H 1358.3333 V 1124.9633 H 0 Z"
         transform="scale(0.33423313)"
         clip-rule="evenodd"
         id="path2" />
    </clipPath>
    <clipPath
       clipPathUnits="userSpaceOnUse"
       id="clipPath4">
      <path
         d="M 0,0 H 1358.3333 V 1118.9794 H 0 Z"
         transform="matrix(0.33423313,0,0,0.33423313,-0.49999999,-0.49999999)"
         clip-rule="evenodd"
         id="path4" />
    </clipPath>
    <clipPath
       clipPathUnits="userSpaceOnUse"
       id="clipPath6">
      <path
         d="M 0,0 H 1358.3333 V 1118.9794 H 0 Z"
         transform="matrix(0.33423313,0,0,0.33423313,-0.49999999,-0.49999999)"
         clip-rule="evenodd"
         id="path6" />
    </clipPath>
    <clipPath
       clipPathUnits="userSpaceOnUse"
       id="clipPath8">
      <path
         d="M 0,0 H 1358.3333 V 1118.9794 H 0 Z"
         transform="matrix(0.33423313,0,0,0.33423313,-0.49999999,-0.49999999)"
         clip-rule="evenodd"
         id="path8" />
    </clipPath>
    <clipPath
       clipPathUnits="userSpaceOnUse"
       id="clipPath10">
      <path
         d="M 0,0 H 1358.3333 V 1118.9794 H 0 Z"
         transform="matrix(0.33423313,0,0,0.33423313,-0.49999999,-0.49999999)"
         clip-rule="evenodd"
         id="path10" />
    </clipPath>
    <clipPath
       clipPathUnits="userSpaceOnUse"
       id="clipPath12">
      <path
         d="M 0,0 H 1358.3333 V 1118.9794 H 0 Z"
         transform="matrix(0.33423313,0,0,0.33423313,-0.49999999,-0.49999999)"
         clip-rule="evenodd"
         id="path12" />
    </clipPath>
    <clipPath
       clipPathUnits="userSpaceOnUse"
       id="clipPath13">
      <path
         d="M 0,0 H 1358.3333 V 1118.9794 H 0 Z"
         transform="matrix(0.33422978,0,0,0.33422978,-181.48438,-27)"
         clip-rule="evenodd"
         id="path13" />
    </clipPath>
    <clipPath
       clipPathUnits="userSpaceOnUse"
       id="clipPath14">
      <path
         d="M 0,0 H 1358.3333 V 1118.9794 H 0 Z"
         transform="matrix(0.33422978,0,0,0.33422978,-173.96875,-49)"
         clip-rule="evenodd"
         id="path14" />
    </clipPath>
    <clipPath
       clipPathUnits="userSpaceOnUse"
       id="clipPath16">
      <path
         d="M 0,0 H 1358.3333 V 1118.9794 H 0 Z"
         transform="matrix(0.33423313,0,0,0.33423313,-0.49999999,-0.49999999)"
         clip-rule="evenodd"
         id="path16" />
    </clipPath>
    <clipPath
       clipPathUnits="userSpaceOnUse"
       id="clipPath18">
      <path
         d="M 0,0 H 1358.3333 V 1118.9794 H 0 Z"
         transform="matrix(0.33423313,0,0,0.33423313,-0.49999999,-0.49999999)"
         clip-rule="evenodd"
         id="path18" />
    </clipPath>
    <clipPath
       clipPathUnits="userSpaceOnUse"
       id="clipPath20">
      <path
         d="M 0,0 H 1358.3333 V 1118.9794 H 0 Z"
         transform="matrix(0.33423313,0,0,0.33423313,-0.49999999,-0.49999999)"
         clip-rule="evenodd"
         id="path20" />
    </clipPath>
    <clipPath
       clipPathUnits="userSpaceOnUse"
       id="clipPath21">
      <path
         d="M 0,0 H 1358.3333 V 1118.9794 H 0 Z"
         transform="matrix(0.33422978,0,0,0.33422978,-22.484375,-148)"
         clip-rule="evenodd"
         id="path21" />
    </clipPath>
    <clipPath
       clipPathUnits="userSpaceOnUse"
       id="clipPath23">
      <path
         d="M 0,0 H 1358.3333 V 1118.9794 H 0 Z"
         transform="matrix(0.33423313,0,0,0.33423313,-0.49999999,-0.49999999)"
         clip-rule="evenodd"
         id="path23" />
    </clipPath>
    <clipPath
       clipPathUnits="userSpaceOnUse"
       id="clipPath25">
      <path
         d="M 0,0 H 1358.3333 V 1118.9794 H 0 Z"
         transform="matrix(0.33423313,0,0,0.33423313,-0.49999999,-0.49999999)"
         clip-rule="evenodd"
         id="path25" />
    </clipPath>
    <clipPath
       clipPathUnits="userSpaceOnUse"
       id="clipPath27">
      <path
         d="M 0,0 H 1358.3333 V 1118.9794 H 0 Z"
         transform="matrix(0.33423313,0,0,0.33423313,-0.49999999,-0.49999999)"
         clip-rule="evenodd"
         id="path27" />
    </clipPath>
    <clipPath
       clipPathUnits="userSpaceOnUse"
       id="clipPath29">
      <path
         d="M 0,0 H 1358.3333 V 1118.9794 H 0 Z"
         transform="matrix(0.33423313,0,0,0.33423313,-0.49999999,-0.49999999)"
         clip-rule="evenodd"
         id="path29" />
    </clipPath>
    <clipPath
       clipPathUnits="userSpaceOnUse"
       id="clipPath31">
      <path
         d="M 0,0 H 1358.3333 V 1118.9794 H 0 Z"
         transform="matrix(0.33423313,0,0,0.33423313,-0.49999999,-0.49999999)"
         clip-rule="evenodd"
         id="path31" />
    </clipPath>
    <clipPath
       clipPathUnits="userSpaceOnUse"
       id="clipPath32">
      <path
         d="M 0,0 H 1358.3333 V 1118.9794 H 0 Z"
         transform="matrix(0.33422978,0,0,0.33422978,-271.96875,-148)"
         clip-rule="evenodd"
         id="path32" />
    </clipPath>
    <clipPath
       clipPathUnits="userSpaceOnUse"
       id="clipPath34">
      <path
         d="M 0,0 H 1358.3333 V 1118.9794 H 0 Z"
         transform="matrix(0.33423313,0,0,0.33423313,-0.49999999,-0.49999999)"
         clip-rule="evenodd"
         id="path34" />
    </clipPath>
    <clipPath
       clipPathUnits="userSpaceOnUse"
       id="clipPath35">
      <path
         d="M 0,0 H 1358.3333 V 1118.9794 H 0 Z"
         transform="matrix(0.33422978,0,0,0.33422978,-208.96875,-237)"
         clip-rule="evenodd"
         id="path35" />
    </clipPath>
    <clipPath
       clipPathUnits="userSpaceOnUse"
       id="clipPath36">
      <path
         d="M 0,0 H 1358.3333 V 1118.9794 H 0 Z"
         transform="matrix(0.33422978,0,0,0.33422978,-216.46875,-259)"
         clip-rule="evenodd"
         id="path36" />
    </clipPath>
    <clipPath
       clipPathUnits="userSpaceOnUse"
       id="clipPath38">
      <path
         d="M 0,0 H 1358.3333 V 1118.9794 H 0 Z"
         transform="matrix(0.33423313,0,0,0.33423313,-0.49999999,-0.49999999)"
         clip-rule="evenodd"
         id="path38" />
    </clipPath>
    <clipPath
       clipPathUnits="userSpaceOnUse"
       id="clipPath39">
      <path
         d="M 0,0 H 1358.3333 V 1118.9794 H 0 Z"
         transform="matrix(0.33422978,0,0,0.33422978,-340.95313,-248)"
         clip-rule="evenodd"
         id="path39" />
    </clipPath>
    <clipPath
       clipPathUnits="userSpaceOnUse"
       id="clipPath41">
      <path
         d="M 0,0 H 1358.3333 V 1118.9794 H 0 Z"
         transform="matrix(0.33423313,0,0,0.33423313,-0.49999999,-0.49999999)"
         clip-rule="evenodd"
         id="path41" />
    </clipPath>
    <clipPath
       clipPathUnits="userSpaceOnUse"
       id="clipPath43">
      <path
         d="M 0,0 H 1358.3333 V 1118.9794 H 0 Z"
         transform="matrix(0.33423313,0,0,0.33423313,-0.49999999,-0.49999999)"
         clip-rule="evenodd"
         id="path43" />
    </clipPath>
    <clipPath
       clipPathUnits="userSpaceOnUse"
       id="clipPath45">
      <path
         d="M 0,0 H 1358.3333 V 1118.9794 H 0 Z"
         transform="matrix(0.33423313,0,0,0.33423313,-0.49999999,-0.49999999)"
         clip-rule="evenodd"
         id="path45" />
    </clipPath>
    <clipPath
       clipPathUnits="userSpaceOnUse"
       id="clipPath46">
      <path
         d="M 0,0 H 1358.3333 V 1118.9794 H 0 Z"
         transform="matrix(0.33422978,0,0,0.33422978,-8.96875,-248)"
         clip-rule="evenodd"
         id="path46" />
    </clipPath>
    <clipPath
       clipPathUnits="userSpaceOnUse"
       id="clipPath48">
      <path
         d="M 0,0 H 1358.3333 V 1118.9794 H 0 Z"
         transform="matrix(0.33423313,0,0,0.33423313,-0.49999999,-0.49999999)"
         clip-rule="evenodd"
         id="path48" />
    </clipPath>
    <clipPath
       clipPathUnits="userSpaceOnUse"
       id="clipPath49">
      <path
         d="M 0,0 H 1358.3333 V 1118.9794 H 0 Z"
         transform="matrix(0.33422978,0,0,0.33422978,-13.984375,-348)"
         clip-rule="evenodd"
         id="path49" />
    </clipPath>
    <clipPath
       clipPathUnits="userSpaceOnUse"
       id="clipPath51">
      <path
         d="M 0,0 H 1358.3333 V 1118.9794 H 0 Z"
         transform="matrix(0.33423313,0,0,0.33423313,-0.49999999,-0.49999999)"
         clip-rule="evenodd"
         id="path51" />
    </clipPath>
    <clipPath
       clipPathUnits="userSpaceOnUse"
       id="clipPath53">
      <path
         d="M 0,0 H 1358.3333 V 1118.9794 H 0 Z"
         transform="matrix(0.33423313,0,0,0.33423313,-0.49999999,-0.49999999)"
         clip-rule="evenodd"
         id="path53" />
    </clipPath>
    <clipPath
       clipPathUnits="userSpaceOnUse"
       id="clipPath55">
      <path
         d="M 0,0 H 1358.3333 V 1118.9794 H 0 Z"
         transform="matrix(0.33423313,0,0,0.33423313,-0.49999999,-0.49999999)"
         clip-rule="evenodd"
         id="path55" />
    </clipPath>
    <clipPath
       clipPathUnits="userSpaceOnUse"
       id="clipPath56">
      <path
         d="M 0,0 H 1358.3333 V 1118.9794 H 0 Z"
         transform="matrix(0.33422978,0,0,0.33422978,-217.48438,-337)"
         clip-rule="evenodd"
         id="path56" />
    </clipPath>
    <clipPath
       clipPathUnits="userSpaceOnUse"
       id="clipPath57">
      <path
         d="M 0,0 H 1358.3333 V 1118.9794 H 0 Z"
         transform="matrix(0.33422978,0,0,0.33422978,-196.8125,-359.00001)"
         clip-rule="evenodd"
         id="path57" />
    </clipPath>
    <clipPath
       clipPathUnits="userSpaceOnUse"
       id="clipPath59">
      <path
         d="M 0,0 H 1358.3333 V 1118.9794 H 0 Z"
         transform="matrix(0.33423313,0,0,0.33423313,-0.49999999,-0.49999999)"
         clip-rule="evenodd"
         id="path59" />
    </clipPath>
    <clipPath
       clipPathUnits="userSpaceOnUse"
       id="clipPath61">
      <path
         d="M 0,0 H 1358.3333 V 1118.9794 H 0 Z"
         transform="matrix(0.33423313,0,0,0.33423313,-0.49999999,-0.49999999)"
         clip-rule="evenodd"
         id="path61" />
    </clipPath>
    <clipPath
       clipPathUnits="userSpaceOnUse"
       id="clipPath63">
      <path
         d="M 0,0 H 1358.3333 V 1118.9794 H 0 Z"
         transform="matrix(0.33423313,0,0,0.33423313,-0.49999999,-0.49999999)"
         clip-rule="evenodd"
         id="path63" />
    </clipPath>
    <clipPath
       clipPathUnits="userSpaceOnUse"
       id="clipPath64">
      <path
         d="M 0,0 H 1358.3333 V 1118.9794 H 0 Z"
         transform="matrix(0.33422978,0,0,0.33422978,-362.96875,-337)"
         clip-rule="evenodd"
         id="path64" />
    </clipPath>
    <clipPath
       clipPathUnits="userSpaceOnUse"
       id="clipPath65">
      <path
         d="M 0,0 H 1358.3333 V 1118.9794 H 0 Z"
         transform="matrix(0.33422978,0,0,0.33422978,-361.98439,-359.00001)"
         clip-rule="evenodd"
         id="path65" />
    </clipPath>
  </defs>
  <sodipodi:namedview
     id="namedview1"
     pagecolor="#ffffff"
     bordercolor="#000000"
     borderopacity="0.25"
     inkscape:showpageshadow="2"
     inkscape:pageopacity="0.0"
     inkscape:pagecheckerboard="0"
     inkscape:deskcolor="#d1d1d1">
    <inkscape:page
       x="0"
       y="0"
       inkscape:label="1"
       id="page1"
       width="434.55997"
       height="360"
       margin="0"
       bleed="0" />
  </sodipodi:namedview>
  <g
     id="g1"
     inkscape:groupmode="layer"
     inkscape:label="1">
    <path
       id="path1"
       d="M 0,0 H 454 V 376 H 0 Z"
       style="fill:#ffffff;fill-opacity:1;fill-rule:nonzero;stroke:none"
       transform="scale(0.95741551)"
       clip-path="url(#clipPath2)" />
    <path
       id="path3"
       d="M 194,61 V 86 H 61 v 18.63"
       style="fill:none;stroke:#000000;stroke-width:1;stroke-linecap:butt;stroke-linejoin:miter;stroke-miterlimit:10;stroke-dasharray:none;stroke-opacity:1"
       transform="matrix(0.95741551,0,0,0.95741551,0.47870775,0.47870775)"
       clip-path="url(#clipPath4)" />
    <path
       id="path5"
       d="m 61,109.88 -3.5,-7 3.5,1.75 3.5,-1.75 z"
       style="fill:#000000;fill-opacity:1;fill-rule:nonzero;stroke:#000000;stroke-width:1;stroke-linecap:butt;stroke-linejoin:miter;stroke-miterlimit:10;stroke-dasharray:none;stroke-opacity:1"
       transform="matrix(0.95741551,0,0,0.95741551,0.47870775,0.47870775)"
       clip-path="url(#clipPath6)" />
    <path
       id="path7"
       d="m 194,61 v 25 h 120 v 18.63"
       style="fill:none;stroke:#000000;stroke-width:1;stroke-linecap:butt;stroke-linejoin:miter;stroke-miterlimit:10;stroke-dasharray:none;stroke-opacity:1"
       transform="matrix(0.95741551,0,0,0.95741551,0.47870775,0.47870775)"
       clip-path="url(#clipPath8)" />
    <path
       id="path9"
       d="m 314,109.88 -3.5,-7 3.5,1.75 3.5,-1.75 z"
       style="fill:#000000;fill-opacity:1;fill-rule:nonzero;stroke:#000000;stroke-width:1;stroke-linecap:butt;stroke-linejoin:miter;stroke-miterlimit:10;stroke-dasharray:none;stroke-opacity:1"
       transform="matrix(0.95741551,0,0,0.95741551,0.47870775,0.47870775)"
       clip-path="url(#clipPath10)" />
    <path
       id="path11"
       d="M 134,1 H 254 V 61 H 134 Z"
       style="fill:#ffffff;fill-opacity:1;fill-rule:nonzero;stroke:#000000;stroke-width:1;stroke-linecap:butt;stroke-linejoin:miter;stroke-miterlimit:10;stroke-dasharray:none;stroke-opacity:1"
       transform="matrix(0.95741551,0,0,0.95741551,0.47870775,0.47870775)"
       clip-path="url(#clipPath12)" />
    <text
       id="text12"
       xml:space="preserve"
       transform="matrix(0.95742511,0,0,0.95742511,173.7577,25.850478)"
       clip-path="url(#clipPath13)"><tspan
         style="font-variant:normal;font-weight:normal;font-size:18px;font-family:Helvetica;writing-mode:lr-tb;fill:#000000;fill-opacity:1;fill-rule:nonzero;stroke:none"
         x="0 14.994141"
         y="0"
         sodipodi:role="line"
         id="tspan12">me</tspan></text>
    <text
       id="text13"
       xml:space="preserve"
       transform="matrix(0.95742511,0,0,0.95742511,166.56205,46.91383)"
       clip-path="url(#clipPath14)"><tspan
         style="font-variant:normal;font-weight:normal;font-size:18px;font-family:Helvetica;writing-mode:lr-tb;fill:#000000;fill-opacity:1;fill-rule:nonzero;stroke:none"
         x="0 10.010742 20.021484 30.032227"
         y="0"
         sodipodi:role="line"
         id="tspan13">1000</tspan></text>
    <path
       id="path15"
       d="m 61,171 v 33.63"
       style="fill:none;stroke:#000000;stroke-width:1;stroke-linecap:butt;stroke-linejoin:miter;stroke-miterlimit:10;stroke-dasharray:none;stroke-opacity:1"
       transform="matrix(0.95741551,0,0,0.95741551,0.47870775,0.47870775)"
       clip-path="url(#clipPath16)" />
    <path
       id="path17"
       d="m 61,209.88 -3.5,-7 3.5,1.75 3.5,-1.75 z"
       style="fill:#000000;fill-opacity:1;fill-rule:nonzero;stroke:#000000;stroke-width:1;stroke-linecap:butt;stroke-linejoin:miter;stroke-miterlimit:10;stroke-dasharray:none;stroke-opacity:1"
       transform="matrix(0.95741551,0,0,0.95741551,0.47870775,0.47870775)"
       clip-path="url(#clipPath18)" />
    <path
       id="path19"
       d="m 1,111 h 120 v 60 H 1 Z"
       style="fill:#dae8fc;fill-opacity:1;fill-rule:nonzero;stroke:#6c8ebf;stroke-width:1;stroke-linecap:butt;stroke-linejoin:miter;stroke-miterlimit:10;stroke-dasharray:none;stroke-opacity:1"
       transform="matrix(0.95741551,0,0,0.95741551,0.47870775,0.47870775)"
       clip-path="url(#clipPath20)" />
    <text
       id="text20"
       xml:space="preserve"
       transform="matrix(0.95742511,0,0,0.95742511,21.527105,141.69892)"
       clip-path="url(#clipPath21)"><tspan
         style="font-variant:normal;font-weight:normal;font-size:18px;font-family:Helvetica;writing-mode:lr-tb;fill:#000000;fill-opacity:1;fill-rule:nonzero;stroke:none"
         x="0 10.995117 21.005859 31.016602 36.017578 49.016602 59.027344 68.027344"
         y="0"
         sodipodi:role="line"
         id="tspan20">The Rock</tspan></text>
    <path
       id="path22"
       d="m 314,171 v 20 h -73 v 13.63"
       style="fill:none;stroke:#000000;stroke-width:1;stroke-linecap:butt;stroke-linejoin:miter;stroke-miterlimit:10;stroke-dasharray:none;stroke-opacity:1"
       transform="matrix(0.95741551,0,0,0.95741551,0.47870775,0.47870775)"
       clip-path="url(#clipPath23)" />
    <path
       id="path24"
       d="m 241,209.88 -3.5,-7 3.5,1.75 3.5,-1.75 z"
       style="fill:#000000;fill-opacity:1;fill-rule:nonzero;stroke:#000000;stroke-width:1;stroke-linecap:butt;stroke-linejoin:miter;stroke-miterlimit:10;stroke-dasharray:none;stroke-opacity:1"
       transform="matrix(0.95741551,0,0,0.95741551,0.47870775,0.47870775)"
       clip-path="url(#clipPath25)" />
    <path
       id="path26"
       d="m 314,171 v 20 h 77 v 13.63"
       style="fill:none;stroke:#000000;stroke-width:1;stroke-linecap:butt;stroke-linejoin:miter;stroke-miterlimit:10;stroke-dasharray:none;stroke-opacity:1"
       transform="matrix(0.95741551,0,0,0.95741551,0.47870775,0.47870775)"
       clip-path="url(#clipPath27)" />
    <path
       id="path28"
       d="m 391,209.88 -3.5,-7 3.5,1.75 3.5,-1.75 z"
       style="fill:#000000;fill-opacity:1;fill-rule:nonzero;stroke:#000000;stroke-width:1;stroke-linecap:butt;stroke-linejoin:miter;stroke-miterlimit:10;stroke-dasharray:none;stroke-opacity:1"
       transform="matrix(0.95741551,0,0,0.95741551,0.47870775,0.47870775)"
       clip-path="url(#clipPath29)" />
    <path
       id="path30"
       d="m 254,111 h 120 v 60 H 254 Z"
       style="fill:#dae8fc;fill-opacity:1;fill-rule:nonzero;stroke:#6c8ebf;stroke-width:1;stroke-linecap:butt;stroke-linejoin:miter;stroke-miterlimit:10;stroke-dasharray:none;stroke-opacity:1"
       transform="matrix(0.95741551,0,0,0.95741551,0.47870775,0.47870775)"
       clip-path="url(#clipPath31)" />
    <text
       id="text31"
       xml:space="preserve"
       transform="matrix(0.95742511,0,0,0.95742511,260.38971,141.69892)"
       clip-path="url(#clipPath32)"><tspan
         style="font-variant:normal;font-weight:normal;font-size:18px;font-family:Helvetica;writing-mode:lr-tb;fill:#000000;fill-opacity:1;fill-rule:nonzero;stroke:none"
         x="0 12.005859 22.016602 31.016602 35.015625 45.026367 50.027344 63.026367 73.037109 79.03125"
         y="0"
         sodipodi:role="line"
         id="tspan31">Kevin Hart</tspan></text>
    <path
       id="path33"
       d="m 181,211 h 120 v 60 H 181 Z"
       style="fill:#e1d5e7;fill-opacity:1;fill-rule:nonzero;stroke:#9673a6;stroke-width:1;stroke-linecap:butt;stroke-linejoin:miter;stroke-miterlimit:10;stroke-dasharray:none;stroke-opacity:1"
       transform="matrix(0.95741551,0,0,0.95741551,0.47870775,0.47870775)"
       clip-path="url(#clipPath34)" />
    <text
       id="text34"
       xml:space="preserve"
       transform="matrix(0.95742511,0,0,0.95742511,200.07193,226.90975)"
       clip-path="url(#clipPath35)"><tspan
         style="font-variant:normal;font-weight:normal;font-size:18px;font-family:Helvetica;writing-mode:lr-tb;fill:#000000;fill-opacity:1;fill-rule:nonzero;stroke:none"
         x="0 9 19.010742 29.021484 39.032227 43.03125 48.032227 58.042969"
         y="0"
         sodipodi:role="line"
         id="tspan34">Jennifer</tspan></text>
    <text
       id="text35"
       xml:space="preserve"
       transform="matrix(0.95742511,0,0,0.95742511,207.25262,247.9731)"
       clip-path="url(#clipPath36)"><tspan
         style="font-variant:normal;font-weight:normal;font-size:18px;font-family:Helvetica;writing-mode:lr-tb;fill:#000000;fill-opacity:1;fill-rule:nonzero;stroke:none"
         x="0 10.010742 20.021484 30.032227 40.042969"
         y="0"
         sodipodi:role="line"
         id="tspan35">Lopez</tspan></text>
    <path
       id="path37"
       d="m 331,211 h 120 v 60 H 331 Z"
       style="fill:#e1d5e7;fill-opacity:1;fill-rule:nonzero;stroke:#9673a6;stroke-width:1;stroke-linecap:butt;stroke-linejoin:miter;stroke-miterlimit:10;stroke-dasharray:none;stroke-opacity:1"
       transform="matrix(0.95741551,0,0,0.95741551,0.47870775,0.47870775)"
       clip-path="url(#clipPath38)" />
    <text
       id="text38"
       xml:space="preserve"
       transform="matrix(0.95742511,0,0,0.95742511,326.43709,237.44143)"
       clip-path="url(#clipPath39)"><tspan
         style="font-variant:normal;font-weight:normal;font-size:18px;font-family:Helvetica;writing-mode:lr-tb;fill:#000000;fill-opacity:1;fill-rule:nonzero;stroke:none"
         x="0 12.005859 22.016602 32.027344 42.038086 52.048828 57.049805 70.048828 80.05957 90.070312"
         y="0"
         sodipodi:role="line"
         id="tspan38">Snoop Dogg</tspan></text>
    <path
       id="path40"
       d="m 61,271 v 33.64001"
       style="fill:none;stroke:#000000;stroke-width:1;stroke-linecap:butt;stroke-linejoin:miter;stroke-miterlimit:10;stroke-dasharray:none;stroke-opacity:1"
       transform="matrix(0.95741551,0,0,0.95741551,0.47870775,0.47870775)"
       clip-path="url(#clipPath41)" />
    <path
       id="path42"
       d="m 61,309.89001 -3.5,-7 3.5,1.75 3.5,-1.75 z"
       style="fill:#000000;fill-opacity:1;fill-rule:nonzero;stroke:#000000;stroke-width:1;stroke-linecap:butt;stroke-linejoin:miter;stroke-miterlimit:10;stroke-dasharray:none;stroke-opacity:1"
       transform="matrix(0.95741551,0,0,0.95741551,0.47870775,0.47870775)"
       clip-path="url(#clipPath43)" />
    <path
       id="path44"
       d="m 1,211 h 120 v 60 H 1 Z"
       style="fill:#e1d5e7;fill-opacity:1;fill-rule:nonzero;stroke:#9673a6;stroke-width:1;stroke-linecap:butt;stroke-linejoin:miter;stroke-miterlimit:10;stroke-dasharray:none;stroke-opacity:1"
       transform="matrix(0.95741551,0,0,0.95741551,0.47870775,0.47870775)"
       clip-path="url(#clipPath45)" />
    <text
       id="text45"
       xml:space="preserve"
       transform="matrix(0.95742511,0,0,0.95742511,8.5869065,237.44143)"
       clip-path="url(#clipPath46)"><tspan
         style="font-variant:normal;font-weight:normal;font-size:18px;font-family:Helvetica;writing-mode:lr-tb;fill:#000000;fill-opacity:1;fill-rule:nonzero;stroke:none"
         x="0 9 19.010742 28.010742 33.011719 37.010742 47.021484 52.022461 64.02832 74.039062 78.038086 88.048828 98.05957"
         y="0"
         sodipodi:role="line"
         id="tspan45">Justin Beiber</tspan></text>
    <path
       id="path47"
       d="m 1,311 h 120 v 60 H 1 Z"
       style="fill:#fff2cc;fill-opacity:1;fill-rule:nonzero;stroke:#d6b656;stroke-width:1;stroke-linecap:butt;stroke-linejoin:miter;stroke-miterlimit:10;stroke-dasharray:none;stroke-opacity:1"
       transform="matrix(0.95741551,0,0,0.95741551,0.47870775,0.47870775)"
       clip-path="url(#clipPath48)" />
    <text
       id="text48"
       xml:space="preserve"
       transform="matrix(0.95742511,0,0,0.95742511,13.388992,333.18394)"
       clip-path="url(#clipPath49)"><tspan
         style="font-variant:normal;font-weight:normal;font-size:18px;font-family:Helvetica;writing-mode:lr-tb;fill:#000000;fill-opacity:1;fill-rule:nonzero;stroke:none"
         x="0 14.994141 18.993164 22.992188 33.00293 42.00293 47.003906 60.00293 69.00293 74.99707 85.007812"
         y="0"
         sodipodi:role="line"
         id="tspan48">Miley Cyrus</tspan></text>
    <path
       id="path50"
       d="m 241,271 0.5,21 -0.33,12.64001"
       style="fill:none;stroke:#000000;stroke-width:1;stroke-linecap:butt;stroke-linejoin:miter;stroke-miterlimit:10;stroke-dasharray:none;stroke-opacity:1"
       transform="matrix(0.95741551,0,0,0.95741551,0.47870775,0.47870775)"
       clip-path="url(#clipPath51)" />
    <path
       id="path52"
       d="m 241.03,309.89001 -3.31999,-7.09002 3.45999,1.84002 3.54001,-1.66 z"
       style="fill:#000000;fill-opacity:1;fill-rule:nonzero;stroke:#000000;stroke-width:1;stroke-linecap:butt;stroke-linejoin:miter;stroke-miterlimit:10;stroke-dasharray:none;stroke-opacity:1"
       transform="matrix(0.95741551,0,0,0.95741551,0.47870775,0.47870775)"
       clip-path="url(#clipPath53)" />
    <path
       id="path54"
       d="m 181,311 h 120 v 60 H 181 Z"
       style="fill:#fff2cc;fill-opacity:1;fill-rule:nonzero;stroke:#d6b656;stroke-width:1;stroke-linecap:butt;stroke-linejoin:miter;stroke-miterlimit:10;stroke-dasharray:none;stroke-opacity:1"
       transform="matrix(0.95741551,0,0,0.95741551,0.47870775,0.47870775)"
       clip-path="url(#clipPath55)" />
    <text
       id="text55"
       xml:space="preserve"
       transform="matrix(0.95742511,0,0,0.95742511,208.22501,322.65226)"
       clip-path="url(#clipPath56)"><tspan
         style="font-variant:normal;font-weight:normal;font-size:18px;font-family:Helvetica;writing-mode:lr-tb;fill:#000000;fill-opacity:1;fill-rule:nonzero;stroke:none"
         x="0 9 19.010742 28.010742 33.011719 37.010742"
         y="0"
         sodipodi:role="line"
         id="tspan55">Justin</tspan></text>
    <text
       id="text56"
       xml:space="preserve"
       transform="matrix(0.95742511,0,0,0.95742511,188.43323,343.71562)"
       clip-path="url(#clipPath57)"><tspan
         style="font-variant:normal;font-weight:normal;font-size:18px;font-family:Helvetica;writing-mode:lr-tb;fill:#000000;fill-opacity:1;fill-rule:nonzero;stroke:none"
         x="0 10.335938 14.334961 29.329102 39.339844 49.350586 55.344727 59.34375 69.354492 78.354492"
         y="0"
         sodipodi:role="line"
         id="tspan56">Timberlake</tspan></text>
    <path
       id="path58"
       d="m 391,271 0.5,21 -0.32999,12.64001"
       style="fill:none;stroke:#000000;stroke-width:1;stroke-linecap:butt;stroke-linejoin:miter;stroke-miterlimit:10;stroke-dasharray:none;stroke-opacity:1"
       transform="matrix(0.95741551,0,0,0.95741551,0.47870775,0.47870775)"
       clip-path="url(#clipPath59)" />
    <path
       id="path60"
       d="m 391.03,309.89001 -3.32001,-7.09002 3.46002,1.84002 3.53998,-1.66 z"
       style="fill:#000000;fill-opacity:1;fill-rule:nonzero;stroke:#000000;stroke-width:1;stroke-linecap:butt;stroke-linejoin:miter;stroke-miterlimit:10;stroke-dasharray:none;stroke-opacity:1"
       transform="matrix(0.95741551,0,0,0.95741551,0.47870775,0.47870775)"
       clip-path="url(#clipPath61)" />
    <path
       id="path62"
       d="m 331,311 h 120 v 60 H 331 Z"
       style="fill:#fff2cc;fill-opacity:1;fill-rule:nonzero;stroke:#d6b656;stroke-width:1;stroke-linecap:butt;stroke-linejoin:miter;stroke-miterlimit:10;stroke-dasharray:none;stroke-opacity:1"
       transform="matrix(0.95741551,0,0,0.95741551,0.47870775,0.47870775)"
       clip-path="url(#clipPath63)" />
    <text
       id="text63"
       xml:space="preserve"
       transform="matrix(0.95742511,0,0,0.95742511,347.5154,322.65226)"
       clip-path="url(#clipPath64)"><tspan
         style="font-variant:normal;font-weight:normal;font-size:18px;font-family:Helvetica;writing-mode:lr-tb;fill:#000000;fill-opacity:1;fill-rule:nonzero;stroke:none"
         x="0 12.005859 22.016602 26.015625 36.026367 46.037109"
         y="0"
         sodipodi:role="line"
         id="tspan63">Selena</tspan></text>
    <text
       id="text64"
       xml:space="preserve"
       transform="matrix(0.95742511,0,0,0.95742511,346.57294,343.71562)"
       clip-path="url(#clipPath65)"><tspan
         style="font-variant:normal;font-weight:normal;font-size:18px;font-family:Helvetica;writing-mode:lr-tb;fill:#000000;fill-opacity:1;fill-rule:nonzero;stroke:none"
         x="0 14.000977 24.011719 39.005859 49.016602"
         y="0"
         sodipodi:role="line"
         id="tspan64">Gomez</tspan></text>
  </g>
</svg>
