<?xml version="1.0" encoding="UTF-8" standalone="no"?>
<!-- Created with Inkscape (http://www.inkscape.org/) -->

<svg
   version="1.1"
   id="svg1"
   width="682.56"
   height="360"
   viewBox="0 0 682.56 360"
   sodipodi:docname="sql-12.pdf"
   xmlns:inkscape="http://www.inkscape.org/namespaces/inkscape"
   xmlns:sodipodi="http://sodipodi.sourceforge.net/DTD/sodipodi-0.dtd"
   xmlns="http://www.w3.org/2000/svg"
   xmlns:svg="http://www.w3.org/2000/svg">
  <defs
     id="defs1">
    <clipPath
       clipPathUnits="userSpaceOnUse"
       id="clipPath2">
      <path
         d="M 0,0 H 2133.3333 V 1123.5955 H 0 Z"
         transform="scale(0.33375)"
         clip-rule="evenodd"
         id="path2" />
    </clipPath>
    <clipPath
       clipPathUnits="userSpaceOnUse"
       id="clipPath4">
      <path
         d="M 0,0 H 2133.3333 V 1120.5992 H 0 Z"
         transform="matrix(0.33375,0,0,0.33375,-0.5,-0.5)"
         clip-rule="evenodd"
         id="path4" />
    </clipPath>
    <clipPath
       clipPathUnits="userSpaceOnUse"
       id="clipPath6">
      <path
         d="M 0,0 H 2133.3333 V 1120.5992 H 0 Z"
         transform="matrix(0.33375,0,0,0.33375,-0.5,-0.5)"
         clip-rule="evenodd"
         id="path6" />
    </clipPath>
    <clipPath
       clipPathUnits="userSpaceOnUse"
       id="clipPath8">
      <path
         d="M 0,0 H 2133.3333 V 1120.5992 H 0 Z"
         transform="matrix(0.33375,0,0,0.33375,-0.5,-0.5)"
         clip-rule="evenodd"
         id="path8" />
    </clipPath>
    <clipPath
       clipPathUnits="userSpaceOnUse"
       id="clipPath10">
      <path
         d="M 0,0 H 2133.3333 V 1120.5992 H 0 Z"
         transform="matrix(0.33375,0,0,0.33375,-0.5,-0.5)"
         clip-rule="evenodd"
         id="path10" />
    </clipPath>
    <clipPath
       clipPathUnits="userSpaceOnUse"
       id="clipPath12">
      <path
         d="M 0,0 H 2133.3333 V 1120.5992 H 0 Z"
         transform="matrix(0.33375,0,0,0.33375,-0.5,-0.5)"
         clip-rule="evenodd"
         id="path12" />
    </clipPath>
    <clipPath
       clipPathUnits="userSpaceOnUse"
       id="clipPath13">
      <path
         d="M 0,0 H 2133.3333 V 1120.5992 H 0 Z"
         transform="matrix(0.33374666,0,0,0.33374666,-380.98438,-27)"
         clip-rule="evenodd"
         id="path13" />
    </clipPath>
    <clipPath
       clipPathUnits="userSpaceOnUse"
       id="clipPath14">
      <path
         d="M 0,0 H 2133.3333 V 1120.5992 H 0 Z"
         transform="matrix(0.33374666,0,0,0.33374666,-375.73438,-49)"
         clip-rule="evenodd"
         id="path14" />
    </clipPath>
    <clipPath
       clipPathUnits="userSpaceOnUse"
       id="clipPath16">
      <path
         d="M 0,0 H 2133.3333 V 1120.5992 H 0 Z"
         transform="matrix(0.33375,0,0,0.33375,-0.5,-0.5)"
         clip-rule="evenodd"
         id="path16" />
    </clipPath>
    <clipPath
       clipPathUnits="userSpaceOnUse"
       id="clipPath18">
      <path
         d="M 0,0 H 2133.3333 V 1120.5992 H 0 Z"
         transform="matrix(0.33375,0,0,0.33375,-0.5,-0.5)"
         clip-rule="evenodd"
         id="path18" />
    </clipPath>
    <clipPath
       clipPathUnits="userSpaceOnUse"
       id="clipPath20">
      <path
         d="M 0,0 H 2133.3333 V 1120.5992 H 0 Z"
         transform="matrix(0.33375,0,0,0.33375,-0.5,-0.5)"
         clip-rule="evenodd"
         id="path20" />
    </clipPath>
    <clipPath
       clipPathUnits="userSpaceOnUse"
       id="clipPath21">
      <path
         d="M 0,0 H 2133.3333 V 1120.5992 H 0 Z"
         transform="matrix(0.33374666,0,0,0.33374666,-240.98438,-137)"
         clip-rule="evenodd"
         id="path21" />
    </clipPath>
    <clipPath
       clipPathUnits="userSpaceOnUse"
       id="clipPath22">
      <path
         d="M 0,0 H 2133.3333 V 1120.5992 H 0 Z"
         transform="matrix(0.33374666,0,0,0.33374666,-235.73438,-159)"
         clip-rule="evenodd"
         id="path22" />
    </clipPath>
    <clipPath
       clipPathUnits="userSpaceOnUse"
       id="clipPath24">
      <path
         d="M 0,0 H 2133.3333 V 1120.5992 H 0 Z"
         transform="matrix(0.33375,0,0,0.33375,-0.5,-0.5)"
         clip-rule="evenodd"
         id="path24" />
    </clipPath>
    <clipPath
       clipPathUnits="userSpaceOnUse"
       id="clipPath26">
      <path
         d="M 0,0 H 2133.3333 V 1120.5992 H 0 Z"
         transform="matrix(0.33375,0,0,0.33375,-0.5,-0.5)"
         clip-rule="evenodd"
         id="path26" />
    </clipPath>
    <clipPath
       clipPathUnits="userSpaceOnUse"
       id="clipPath28">
      <path
         d="M 0,0 H 2133.3333 V 1120.5992 H 0 Z"
         transform="matrix(0.33375,0,0,0.33375,-0.5,-0.5)"
         clip-rule="evenodd"
         id="path28" />
    </clipPath>
    <clipPath
       clipPathUnits="userSpaceOnUse"
       id="clipPath30">
      <path
         d="M 0,0 H 2133.3333 V 1120.5992 H 0 Z"
         transform="matrix(0.33375,0,0,0.33375,-0.5,-0.5)"
         clip-rule="evenodd"
         id="path30" />
    </clipPath>
    <clipPath
       clipPathUnits="userSpaceOnUse"
       id="clipPath32">
      <path
         d="M 0,0 H 2133.3333 V 1120.5992 H 0 Z"
         transform="matrix(0.33375,0,0,0.33375,-0.5,-0.5)"
         clip-rule="evenodd"
         id="path32" />
    </clipPath>
    <clipPath
       clipPathUnits="userSpaceOnUse"
       id="clipPath33">
      <path
         d="M 0,0 H 2133.3333 V 1120.5992 H 0 Z"
         transform="matrix(0.33374666,0,0,0.33374666,-493.98438,-137)"
         clip-rule="evenodd"
         id="path33" />
    </clipPath>
    <clipPath
       clipPathUnits="userSpaceOnUse"
       id="clipPath34">
      <path
         d="M 0,0 H 2133.3333 V 1120.5992 H 0 Z"
         transform="matrix(0.33374666,0,0,0.33374666,-488.73438,-159)"
         clip-rule="evenodd"
         id="path34" />
    </clipPath>
    <clipPath
       clipPathUnits="userSpaceOnUse"
       id="clipPath36">
      <path
         d="M 0,0 H 2133.3333 V 1120.5992 H 0 Z"
         transform="matrix(0.33375,0,0,0.33375,-0.5,-0.5)"
         clip-rule="evenodd"
         id="path36" />
    </clipPath>
    <clipPath
       clipPathUnits="userSpaceOnUse"
       id="clipPath38">
      <path
         d="M 0,0 H 2133.3333 V 1120.5992 H 0 Z"
         transform="matrix(0.33375,0,0,0.33375,-0.5,-0.5)"
         clip-rule="evenodd"
         id="path38" />
    </clipPath>
    <clipPath
       clipPathUnits="userSpaceOnUse"
       id="clipPath40">
      <path
         d="M 0,0 H 2133.3333 V 1120.5992 H 0 Z"
         transform="matrix(0.33375,0,0,0.33375,-0.5,-0.5)"
         clip-rule="evenodd"
         id="path40" />
    </clipPath>
    <clipPath
       clipPathUnits="userSpaceOnUse"
       id="clipPath41">
      <path
         d="M 0,0 H 2133.3333 V 1120.5992 H 0 Z"
         transform="matrix(0.33374666,0,0,0.33374666,-420.98438,-237)"
         clip-rule="evenodd"
         id="path41" />
    </clipPath>
    <clipPath
       clipPathUnits="userSpaceOnUse"
       id="clipPath42">
      <path
         d="M 0,0 H 2133.3333 V 1120.5992 H 0 Z"
         transform="matrix(0.33374666,0,0,0.33374666,-415.73438,-259.00001)"
         clip-rule="evenodd"
         id="path42" />
    </clipPath>
    <clipPath
       clipPathUnits="userSpaceOnUse"
       id="clipPath44">
      <path
         d="M 0,0 H 2133.3333 V 1120.5992 H 0 Z"
         transform="matrix(0.33375,0,0,0.33375,-0.5,-0.5)"
         clip-rule="evenodd"
         id="path44" />
    </clipPath>
    <clipPath
       clipPathUnits="userSpaceOnUse"
       id="clipPath46">
      <path
         d="M 0,0 H 2133.3333 V 1120.5992 H 0 Z"
         transform="matrix(0.33375,0,0,0.33375,-0.5,-0.5)"
         clip-rule="evenodd"
         id="path46" />
    </clipPath>
    <clipPath
       clipPathUnits="userSpaceOnUse"
       id="clipPath48">
      <path
         d="M 0,0 H 2133.3333 V 1120.5992 H 0 Z"
         transform="matrix(0.33375,0,0,0.33375,-0.5,-0.5)"
         clip-rule="evenodd"
         id="path48" />
    </clipPath>
    <clipPath
       clipPathUnits="userSpaceOnUse"
       id="clipPath49">
      <path
         d="M 0,0 H 2133.3333 V 1120.5992 H 0 Z"
         transform="matrix(0.33374666,0,0,0.33374666,-570.98438,-237)"
         clip-rule="evenodd"
         id="path49" />
    </clipPath>
    <clipPath
       clipPathUnits="userSpaceOnUse"
       id="clipPath50">
      <path
         d="M 0,0 H 2133.3333 V 1120.5992 H 0 Z"
         transform="matrix(0.33374666,0,0,0.33374666,-565.73438,-259.00001)"
         clip-rule="evenodd"
         id="path50" />
    </clipPath>
    <clipPath
       clipPathUnits="userSpaceOnUse"
       id="clipPath52">
      <path
         d="M 0,0 H 2133.3333 V 1120.5992 H 0 Z"
         transform="matrix(0.33375,0,0,0.33375,-0.5,-0.5)"
         clip-rule="evenodd"
         id="path52" />
    </clipPath>
    <clipPath
       clipPathUnits="userSpaceOnUse"
       id="clipPath54">
      <path
         d="M 0,0 H 2133.3333 V 1120.5992 H 0 Z"
         transform="matrix(0.33375,0,0,0.33375,-0.5,-0.5)"
         clip-rule="evenodd"
         id="path54" />
    </clipPath>
    <clipPath
       clipPathUnits="userSpaceOnUse"
       id="clipPath56">
      <path
         d="M 0,0 H 2133.3333 V 1120.5992 H 0 Z"
         transform="matrix(0.33375,0,0,0.33375,-0.5,-0.5)"
         clip-rule="evenodd"
         id="path56" />
    </clipPath>
    <clipPath
       clipPathUnits="userSpaceOnUse"
       id="clipPath58">
      <path
         d="M 0,0 H 2133.3333 V 1120.5992 H 0 Z"
         transform="matrix(0.33375,0,0,0.33375,-0.5,-0.5)"
         clip-rule="evenodd"
         id="path58" />
    </clipPath>
    <clipPath
       clipPathUnits="userSpaceOnUse"
       id="clipPath60">
      <path
         d="M 0,0 H 2133.3333 V 1120.5992 H 0 Z"
         transform="matrix(0.33375,0,0,0.33375,-0.5,-0.5)"
         clip-rule="evenodd"
         id="path60" />
    </clipPath>
    <clipPath
       clipPathUnits="userSpaceOnUse"
       id="clipPath61">
      <path
         d="M 0,0 H 2133.3333 V 1120.5992 H 0 Z"
         transform="matrix(0.33374666,0,0,0.33374666,-240.98438,-237)"
         clip-rule="evenodd"
         id="path61" />
    </clipPath>
    <clipPath
       clipPathUnits="userSpaceOnUse"
       id="clipPath62">
      <path
         d="M 0,0 H 2133.3333 V 1120.5992 H 0 Z"
         transform="matrix(0.33374666,0,0,0.33374666,-235.73438,-259.00001)"
         clip-rule="evenodd"
         id="path62" />
    </clipPath>
    <clipPath
       clipPathUnits="userSpaceOnUse"
       id="clipPath64">
      <path
         d="M 0,0 H 2133.3333 V 1120.5992 H 0 Z"
         transform="matrix(0.33375,0,0,0.33375,-0.5,-0.5)"
         clip-rule="evenodd"
         id="path64" />
    </clipPath>
    <clipPath
       clipPathUnits="userSpaceOnUse"
       id="clipPath65">
      <path
         d="M 0,0 H 2133.3333 V 1120.5992 H 0 Z"
         transform="matrix(0.33374666,0,0,0.33374666,-480.98439,-337)"
         clip-rule="evenodd"
         id="path65" />
    </clipPath>
    <clipPath
       clipPathUnits="userSpaceOnUse"
       id="clipPath66">
      <path
         d="M 0,0 H 2133.3333 V 1120.5992 H 0 Z"
         transform="matrix(0.33374666,0,0,0.33374666,-470.71876,-359)"
         clip-rule="evenodd"
         id="path66" />
    </clipPath>
    <clipPath
       clipPathUnits="userSpaceOnUse"
       id="clipPath68">
      <path
         d="M 0,0 H 2133.3333 V 1120.5992 H 0 Z"
         transform="matrix(0.33375,0,0,0.33375,-0.5,-0.5)"
         clip-rule="evenodd"
         id="path68" />
    </clipPath>
    <clipPath
       clipPathUnits="userSpaceOnUse"
       id="clipPath69">
      <path
         d="M 0,0 H 2133.3333 V 1120.5992 H 0 Z"
         transform="matrix(0.33374666,0,0,0.33374666,-630.98438,-337)"
         clip-rule="evenodd"
         id="path69" />
    </clipPath>
    <clipPath
       clipPathUnits="userSpaceOnUse"
       id="clipPath70">
      <path
         d="M 0,0 H 2133.3333 V 1120.5992 H 0 Z"
         transform="matrix(0.33374666,0,0,0.33374666,-620.71876,-359)"
         clip-rule="evenodd"
         id="path70" />
    </clipPath>
    <clipPath
       clipPathUnits="userSpaceOnUse"
       id="clipPath72">
      <path
         d="M 0,0 H 2133.3333 V 1120.5992 H 0 Z"
         transform="matrix(0.33375,0,0,0.33375,-0.5,-0.5)"
         clip-rule="evenodd"
         id="path72" />
    </clipPath>
    <clipPath
       clipPathUnits="userSpaceOnUse"
       id="clipPath73">
      <path
         d="M 0,0 H 2133.3333 V 1120.5992 H 0 Z"
         transform="matrix(0.33374666,0,0,0.33374666,-340.98439,-337)"
         clip-rule="evenodd"
         id="path73" />
    </clipPath>
    <clipPath
       clipPathUnits="userSpaceOnUse"
       id="clipPath74">
      <path
         d="M 0,0 H 2133.3333 V 1120.5992 H 0 Z"
         transform="matrix(0.33374666,0,0,0.33374666,-330.71875,-359)"
         clip-rule="evenodd"
         id="path74" />
    </clipPath>
    <clipPath
       clipPathUnits="userSpaceOnUse"
       id="clipPath76">
      <path
         d="M 0,0 H 2133.3333 V 1120.5992 H 0 Z"
         transform="matrix(0.33375,0,0,0.33375,-0.5,-0.5)"
         clip-rule="evenodd"
         id="path76" />
    </clipPath>
    <clipPath
       clipPathUnits="userSpaceOnUse"
       id="clipPath77">
      <path
         d="M 0,0 H 2133.3333 V 1120.5992 H 0 Z"
         transform="matrix(0.33374666,0,0,0.33374666,-200.98438,-337)"
         clip-rule="evenodd"
         id="path77" />
    </clipPath>
    <clipPath
       clipPathUnits="userSpaceOnUse"
       id="clipPath78">
      <path
         d="M 0,0 H 2133.3333 V 1120.5992 H 0 Z"
         transform="matrix(0.33374666,0,0,0.33374666,-190.71875,-359)"
         clip-rule="evenodd"
         id="path78" />
    </clipPath>
    <clipPath
       clipPathUnits="userSpaceOnUse"
       id="clipPath80">
      <path
         d="M 0,0 H 2133.3333 V 1120.5992 H 0 Z"
         transform="matrix(0.33375,0,0,0.33375,-0.5,-0.5)"
         clip-rule="evenodd"
         id="path80" />
    </clipPath>
    <clipPath
       clipPathUnits="userSpaceOnUse"
       id="clipPath82">
      <path
         d="M 0,0 H 2133.3333 V 1120.5992 H 0 Z"
         transform="matrix(0.33375,0,0,0.33375,-0.5,-0.5)"
         clip-rule="evenodd"
         id="path82" />
    </clipPath>
    <clipPath
       clipPathUnits="userSpaceOnUse"
       id="clipPath83">
      <path
         d="M 0,0 H 2133.3333 V 1120.5992 H 0 Z"
         transform="matrix(0.33374666,0,0,0.33374666,-17.046875,-147)"
         clip-rule="evenodd"
         id="path83" />
    </clipPath>
    <clipPath
       clipPathUnits="userSpaceOnUse"
       id="clipPath85">
      <path
         d="M 0,0 H 2133.3333 V 1120.5992 H 0 Z"
         transform="matrix(0.33375,0,0,0.33375,-0.5,-0.5)"
         clip-rule="evenodd"
         id="path85" />
    </clipPath>
    <clipPath
       clipPathUnits="userSpaceOnUse"
       id="clipPath87">
      <path
         d="M 0,0 H 2133.3333 V 1120.5992 H 0 Z"
         transform="matrix(0.33375,0,0,0.33375,-0.5,-0.5)"
         clip-rule="evenodd"
         id="path87" />
    </clipPath>
    <clipPath
       clipPathUnits="userSpaceOnUse"
       id="clipPath88">
      <path
         d="M 0,0 H 2133.3333 V 1120.5992 H 0 Z"
         transform="matrix(0.33374666,0,0,0.33374666,-36.625,-247)"
         clip-rule="evenodd"
         id="path88" />
    </clipPath>
    <clipPath
       clipPathUnits="userSpaceOnUse"
       id="clipPath90">
      <path
         d="M 0,0 H 2133.3333 V 1120.5992 H 0 Z"
         transform="matrix(0.33375,0,0,0.33375,-0.5,-0.5)"
         clip-rule="evenodd"
         id="path90" />
    </clipPath>
    <clipPath
       clipPathUnits="userSpaceOnUse"
       id="clipPath92">
      <path
         d="M 0,0 H 2133.3333 V 1120.5992 H 0 Z"
         transform="matrix(0.33375,0,0,0.33375,-0.5,-0.5)"
         clip-rule="evenodd"
         id="path92" />
    </clipPath>
    <clipPath
       clipPathUnits="userSpaceOnUse"
       id="clipPath93">
      <path
         d="M 0,0 H 2133.3333 V 1120.5992 H 0 Z"
         transform="matrix(0.33374666,0,0,0.33374666,-6.625,-347)"
         clip-rule="evenodd"
         id="path93" />
    </clipPath>
  </defs>
  <sodipodi:namedview
     id="namedview1"
     pagecolor="#ffffff"
     bordercolor="#000000"
     borderopacity="0.25"
     inkscape:showpageshadow="2"
     inkscape:pageopacity="0.0"
     inkscape:pagecheckerboard="0"
     inkscape:deskcolor="#d1d1d1">
    <inkscape:page
       x="0"
       y="0"
       inkscape:label="1"
       id="page1"
       width="682.56"
       height="360"
       margin="0"
       bleed="0" />
  </sodipodi:namedview>
  <g
     id="g1"
     inkscape:groupmode="layer"
     inkscape:label="1">
    <path
       id="path1"
       d="M 0,0 H 712 V 375 H 0 Z"
       style="fill:#ffffff;fill-opacity:1;fill-rule:nonzero;stroke:none"
       transform="scale(0.95880146)"
       clip-path="url(#clipPath2)" />
    <path
       id="path3"
       d="M 400,61 V 86 H 260 v 18.63"
       style="fill:none;stroke:#000000;stroke-width:1;stroke-linecap:butt;stroke-linejoin:miter;stroke-miterlimit:10;stroke-dasharray:none;stroke-opacity:1"
       transform="matrix(0.95880146,0,0,0.95880146,0.47940073,0.47940073)"
       clip-path="url(#clipPath4)" />
    <path
       id="path5"
       d="m 260,109.88 -3.5,-7 3.5,1.75 3.5,-1.75 z"
       style="fill:#000000;fill-opacity:1;fill-rule:nonzero;stroke:#000000;stroke-width:1;stroke-linecap:butt;stroke-linejoin:miter;stroke-miterlimit:10;stroke-dasharray:none;stroke-opacity:1"
       transform="matrix(0.95880146,0,0,0.95880146,0.47940073,0.47940073)"
       clip-path="url(#clipPath6)" />
    <path
       id="path7"
       d="m 400,61 v 25 h 113 v 18.63"
       style="fill:none;stroke:#000000;stroke-width:1;stroke-linecap:butt;stroke-linejoin:miter;stroke-miterlimit:10;stroke-dasharray:none;stroke-opacity:1"
       transform="matrix(0.95880146,0,0,0.95880146,0.47940073,0.47940073)"
       clip-path="url(#clipPath8)" />
    <path
       id="path9"
       d="m 513,109.88 -3.5,-7 3.5,1.75 3.5,-1.75 z"
       style="fill:#000000;fill-opacity:1;fill-rule:nonzero;stroke:#000000;stroke-width:1;stroke-linecap:butt;stroke-linejoin:miter;stroke-miterlimit:10;stroke-dasharray:none;stroke-opacity:1"
       transform="matrix(0.95880146,0,0,0.95880146,0.47940073,0.47940073)"
       clip-path="url(#clipPath10)" />
    <path
       id="path11"
       d="M 340,1 H 460 V 61 H 340 Z"
       style="fill:#ffffff;fill-opacity:1;fill-rule:nonzero;stroke:#000000;stroke-width:1;stroke-linecap:butt;stroke-linejoin:miter;stroke-miterlimit:10;stroke-dasharray:none;stroke-opacity:1"
       transform="matrix(0.95880146,0,0,0.95880146,0.47940073,0.47940073)"
       clip-path="url(#clipPath12)" />
    <text
       id="text12"
       xml:space="preserve"
       transform="matrix(0.95881106,0,0,0.95881106,365.29204,25.887899)"
       clip-path="url(#clipPath13)"><tspan
         style="font-variant:normal;font-weight:normal;font-size:18px;font-family:Helvetica;writing-mode:lr-tb;fill:#000000;fill-opacity:1;fill-rule:nonzero;stroke:none"
         x="0 12.999023 21.999023 32.009766"
         y="0"
         sodipodi:role="line"
         id="tspan12">User</tspan></text>
    <text
       id="text13"
       xml:space="preserve"
       transform="matrix(0.95881106,0,0,0.95881106,360.25828,46.981742)"
       clip-path="url(#clipPath14)"><tspan
         style="font-variant:normal;font-weight:normal;font-size:18px;font-family:Helvetica;writing-mode:lr-tb;fill:#000000;fill-opacity:1;fill-rule:nonzero;stroke:none"
         x="0 5.0009766 18 23.000977 33.512695 38.513672"
         y="0"
         sodipodi:role="line"
         id="tspan13">ID = 1</tspan></text>
    <path
       id="path15"
       d="m 260,171 v 33.63"
       style="fill:none;stroke:#000000;stroke-width:1;stroke-linecap:butt;stroke-linejoin:miter;stroke-miterlimit:10;stroke-dasharray:none;stroke-opacity:1"
       transform="matrix(0.95880146,0,0,0.95880146,0.47940073,0.47940073)"
       clip-path="url(#clipPath16)" />
    <path
       id="path17"
       d="m 260,209.88 -3.5,-7 3.5,1.75 3.5,-1.75 z"
       style="fill:#000000;fill-opacity:1;fill-rule:nonzero;stroke:#000000;stroke-width:1;stroke-linecap:butt;stroke-linejoin:miter;stroke-miterlimit:10;stroke-dasharray:none;stroke-opacity:1"
       transform="matrix(0.95880146,0,0,0.95880146,0.47940073,0.47940073)"
       clip-path="url(#clipPath18)" />
    <path
       id="path19"
       d="m 200,111 h 120 v 60 H 200 Z"
       style="fill:#dae8fc;fill-opacity:1;fill-rule:nonzero;stroke:#6c8ebf;stroke-width:1;stroke-linecap:butt;stroke-linejoin:miter;stroke-miterlimit:10;stroke-dasharray:none;stroke-opacity:1"
       transform="matrix(0.95880146,0,0,0.95880146,0.47940073,0.47940073)"
       clip-path="url(#clipPath20)" />
    <text
       id="text20"
       xml:space="preserve"
       transform="matrix(0.95881106,0,0,0.95881106,231.05849,131.35712)"
       clip-path="url(#clipPath21)"><tspan
         style="font-variant:normal;font-weight:normal;font-size:18px;font-family:Helvetica;writing-mode:lr-tb;fill:#000000;fill-opacity:1;fill-rule:nonzero;stroke:none"
         x="0 12.999023 21.999023 32.009766"
         y="0"
         sodipodi:role="line"
         id="tspan20">User</tspan></text>
    <text
       id="text21"
       xml:space="preserve"
       transform="matrix(0.95881106,0,0,0.95881106,226.02473,152.45096)"
       clip-path="url(#clipPath22)"><tspan
         style="font-variant:normal;font-weight:normal;font-size:18px;font-family:Helvetica;writing-mode:lr-tb;fill:#000000;fill-opacity:1;fill-rule:nonzero;stroke:none"
         x="0 5.0009766 18 23.000977 33.512695 38.513672"
         y="0"
         sodipodi:role="line"
         id="tspan21">ID = 4</tspan></text>
    <path
       id="path23"
       d="m 513.01001,171 -0.01,20 h -73 v 13.63"
       style="fill:none;stroke:#000000;stroke-width:1;stroke-linecap:butt;stroke-linejoin:miter;stroke-miterlimit:10;stroke-dasharray:none;stroke-opacity:1"
       transform="matrix(0.95880146,0,0,0.95880146,0.47940073,0.47940073)"
       clip-path="url(#clipPath24)" />
    <path
       id="path25"
       d="m 440,209.88 -3.5,-7 3.5,1.75 3.5,-1.75 z"
       style="fill:#000000;fill-opacity:1;fill-rule:nonzero;stroke:#000000;stroke-width:1;stroke-linecap:butt;stroke-linejoin:miter;stroke-miterlimit:10;stroke-dasharray:none;stroke-opacity:1"
       transform="matrix(0.95880146,0,0,0.95880146,0.47940073,0.47940073)"
       clip-path="url(#clipPath26)" />
    <path
       id="path27"
       d="m 513.01001,171 -0.01,20 h 77 v 13.63"
       style="fill:none;stroke:#000000;stroke-width:1;stroke-linecap:butt;stroke-linejoin:miter;stroke-miterlimit:10;stroke-dasharray:none;stroke-opacity:1"
       transform="matrix(0.95880146,0,0,0.95880146,0.47940073,0.47940073)"
       clip-path="url(#clipPath28)" />
    <path
       id="path29"
       d="m 590,209.88 -3.5,-7 3.5,1.75 3.5,-1.75 z"
       style="fill:#000000;fill-opacity:1;fill-rule:nonzero;stroke:#000000;stroke-width:1;stroke-linecap:butt;stroke-linejoin:miter;stroke-miterlimit:10;stroke-dasharray:none;stroke-opacity:1"
       transform="matrix(0.95880146,0,0,0.95880146,0.47940073,0.47940073)"
       clip-path="url(#clipPath30)" />
    <path
       id="path31"
       d="m 453,111 h 120 v 60 H 453 Z"
       style="fill:#dae8fc;fill-opacity:1;fill-rule:nonzero;stroke:#6c8ebf;stroke-width:1;stroke-linecap:butt;stroke-linejoin:miter;stroke-miterlimit:10;stroke-dasharray:none;stroke-opacity:1"
       transform="matrix(0.95880146,0,0,0.95880146,0.47940073,0.47940073)"
       clip-path="url(#clipPath32)" />
    <text
       id="text32"
       xml:space="preserve"
       transform="matrix(0.95881106,0,0,0.95881106,473.63769,131.35712)"
       clip-path="url(#clipPath33)"><tspan
         style="font-variant:normal;font-weight:normal;font-size:18px;font-family:Helvetica;writing-mode:lr-tb;fill:#000000;fill-opacity:1;fill-rule:nonzero;stroke:none"
         x="0 12.999023 21.999023 32.009766"
         y="0"
         sodipodi:role="line"
         id="tspan32">User</tspan></text>
    <text
       id="text33"
       xml:space="preserve"
       transform="matrix(0.95881106,0,0,0.95881106,468.60393,152.45096)"
       clip-path="url(#clipPath34)"><tspan
         style="font-variant:normal;font-weight:normal;font-size:18px;font-family:Helvetica;writing-mode:lr-tb;fill:#000000;fill-opacity:1;fill-rule:nonzero;stroke:none"
         x="0 5.0009766 18 23.000977 33.512695 38.513672"
         y="0"
         sodipodi:role="line"
         id="tspan33">ID = 5</tspan></text>
    <path
       id="path35"
       d="m 440,271 v 20 h 60 v 13.64001"
       style="fill:none;stroke:#000000;stroke-width:1;stroke-linecap:butt;stroke-linejoin:miter;stroke-miterlimit:10;stroke-dasharray:none;stroke-opacity:1"
       transform="matrix(0.95880146,0,0,0.95880146,0.47940073,0.47940073)"
       clip-path="url(#clipPath36)" />
    <path
       id="path37"
       d="m 500,309.89001 -3.5,-7 3.5,1.75 3.5,-1.76001 z"
       style="fill:#000000;fill-opacity:1;fill-rule:nonzero;stroke:#000000;stroke-width:1;stroke-linecap:butt;stroke-linejoin:miter;stroke-miterlimit:10;stroke-dasharray:none;stroke-opacity:1"
       transform="matrix(0.95880146,0,0,0.95880146,0.47940073,0.47940073)"
       clip-path="url(#clipPath38)" />
    <path
       id="path39"
       d="m 380,211 h 120 v 60 H 380 Z"
       style="fill:#e1d5e7;fill-opacity:1;fill-rule:nonzero;stroke:#9673a6;stroke-width:1;stroke-linecap:butt;stroke-linejoin:miter;stroke-miterlimit:10;stroke-dasharray:none;stroke-opacity:1"
       transform="matrix(0.95880146,0,0,0.95880146,0.47940073,0.47940073)"
       clip-path="url(#clipPath40)" />
    <text
       id="text40"
       xml:space="preserve"
       transform="matrix(0.95881106,0,0,0.95881106,403.64448,227.23822)"
       clip-path="url(#clipPath41)"><tspan
         style="font-variant:normal;font-weight:normal;font-size:18px;font-family:Helvetica;writing-mode:lr-tb;fill:#000000;fill-opacity:1;fill-rule:nonzero;stroke:none"
         x="0 12.999023 21.999023 32.009766"
         y="0"
         sodipodi:role="line"
         id="tspan40">User</tspan></text>
    <text
       id="text41"
       xml:space="preserve"
       transform="matrix(0.95881106,0,0,0.95881106,398.61072,248.33207)"
       clip-path="url(#clipPath42)"><tspan
         style="font-variant:normal;font-weight:normal;font-size:18px;font-family:Helvetica;writing-mode:lr-tb;fill:#000000;fill-opacity:1;fill-rule:nonzero;stroke:none"
         x="0 5.0009766 18 23.000977 33.512695 38.513672"
         y="0"
         sodipodi:role="line"
         id="tspan41">ID = 2</tspan></text>
    <path
       id="path43"
       d="m 590.01001,271 -0.01,20 h 60 v 13.64001"
       style="fill:none;stroke:#000000;stroke-width:1;stroke-linecap:butt;stroke-linejoin:miter;stroke-miterlimit:10;stroke-dasharray:none;stroke-opacity:1"
       transform="matrix(0.95880146,0,0,0.95880146,0.47940073,0.47940073)"
       clip-path="url(#clipPath44)" />
    <path
       id="path45"
       d="m 650.01001,309.89001 -3.51001,-7 3.5,1.75 3.5,-1.76001 z"
       style="fill:#000000;fill-opacity:1;fill-rule:nonzero;stroke:#000000;stroke-width:1;stroke-linecap:butt;stroke-linejoin:miter;stroke-miterlimit:10;stroke-dasharray:none;stroke-opacity:1"
       transform="matrix(0.95880146,0,0,0.95880146,0.47940073,0.47940073)"
       clip-path="url(#clipPath46)" />
    <path
       id="path47"
       d="m 530.01001,211 h 120 v 60 h -120 z"
       style="fill:#e1d5e7;fill-opacity:1;fill-rule:nonzero;stroke:#9673a6;stroke-width:1;stroke-linecap:butt;stroke-linejoin:miter;stroke-miterlimit:10;stroke-dasharray:none;stroke-opacity:1"
       transform="matrix(0.95880146,0,0,0.95880146,0.47940073,0.47940073)"
       clip-path="url(#clipPath48)" />
    <text
       id="text48"
       xml:space="preserve"
       transform="matrix(0.95881106,0,0,0.95881106,547.46614,227.23822)"
       clip-path="url(#clipPath49)"><tspan
         style="font-variant:normal;font-weight:normal;font-size:18px;font-family:Helvetica;writing-mode:lr-tb;fill:#000000;fill-opacity:1;fill-rule:nonzero;stroke:none"
         x="0 12.999023 21.999023 32.009766"
         y="0"
         sodipodi:role="line"
         id="tspan48">User</tspan></text>
    <text
       id="text49"
       xml:space="preserve"
       transform="matrix(0.95881106,0,0,0.95881106,542.43238,248.33207)"
       clip-path="url(#clipPath50)"><tspan
         style="font-variant:normal;font-weight:normal;font-size:18px;font-family:Helvetica;writing-mode:lr-tb;fill:#000000;fill-opacity:1;fill-rule:nonzero;stroke:none"
         x="0 5.0009766 18 23.000977 33.512695 38.513672"
         y="0"
         sodipodi:role="line"
         id="tspan49">ID = 6</tspan></text>
    <path
       id="path51"
       d="m 260,271 v 20 h 100 v 13.64001"
       style="fill:none;stroke:#000000;stroke-width:1;stroke-linecap:butt;stroke-linejoin:miter;stroke-miterlimit:10;stroke-dasharray:none;stroke-opacity:1"
       transform="matrix(0.95880146,0,0,0.95880146,0.47940073,0.47940073)"
       clip-path="url(#clipPath52)" />
    <path
       id="path53"
       d="m 360,309.89001 -3.5,-7 3.5,1.75 3.5,-1.76001 z"
       style="fill:#000000;fill-opacity:1;fill-rule:nonzero;stroke:#000000;stroke-width:1;stroke-linecap:butt;stroke-linejoin:miter;stroke-miterlimit:10;stroke-dasharray:none;stroke-opacity:1"
       transform="matrix(0.95880146,0,0,0.95880146,0.47940073,0.47940073)"
       clip-path="url(#clipPath54)" />
    <path
       id="path55"
       d="m 260,271 v 20 h -40 v 13.64001"
       style="fill:none;stroke:#000000;stroke-width:1;stroke-linecap:butt;stroke-linejoin:miter;stroke-miterlimit:10;stroke-dasharray:none;stroke-opacity:1"
       transform="matrix(0.95880146,0,0,0.95880146,0.47940073,0.47940073)"
       clip-path="url(#clipPath56)" />
    <path
       id="path57"
       d="m 220,309.89001 -3.5,-7 3.5,1.75 3.5,-1.75 z"
       style="fill:#000000;fill-opacity:1;fill-rule:nonzero;stroke:#000000;stroke-width:1;stroke-linecap:butt;stroke-linejoin:miter;stroke-miterlimit:10;stroke-dasharray:none;stroke-opacity:1"
       transform="matrix(0.95880146,0,0,0.95880146,0.47940073,0.47940073)"
       clip-path="url(#clipPath58)" />
    <path
       id="path59"
       d="m 200,211 h 120 v 60 H 200 Z"
       style="fill:#e1d5e7;fill-opacity:1;fill-rule:nonzero;stroke:#9673a6;stroke-width:1;stroke-linecap:butt;stroke-linejoin:miter;stroke-miterlimit:10;stroke-dasharray:none;stroke-opacity:1"
       transform="matrix(0.95880146,0,0,0.95880146,0.47940073,0.47940073)"
       clip-path="url(#clipPath60)" />
    <text
       id="text60"
       xml:space="preserve"
       transform="matrix(0.95881106,0,0,0.95881106,231.05849,227.23822)"
       clip-path="url(#clipPath61)"><tspan
         style="font-variant:normal;font-weight:normal;font-size:18px;font-family:Helvetica;writing-mode:lr-tb;fill:#000000;fill-opacity:1;fill-rule:nonzero;stroke:none"
         x="0 12.999023 21.999023 32.009766"
         y="0"
         sodipodi:role="line"
         id="tspan60">User</tspan></text>
    <text
       id="text61"
       xml:space="preserve"
       transform="matrix(0.95881106,0,0,0.95881106,226.02473,248.33207)"
       clip-path="url(#clipPath62)"><tspan
         style="font-variant:normal;font-weight:normal;font-size:18px;font-family:Helvetica;writing-mode:lr-tb;fill:#000000;fill-opacity:1;fill-rule:nonzero;stroke:none"
         x="0 5.0009766 18 23.000977 33.512695 38.513672"
         y="0"
         sodipodi:role="line"
         id="tspan61">ID = 3</tspan></text>
    <path
       id="path63"
       d="m 440,311 h 120 v 60 H 440 Z"
       style="fill:#fff2cc;fill-opacity:1;fill-rule:nonzero;stroke:#d6b656;stroke-width:1;stroke-linecap:butt;stroke-linejoin:miter;stroke-miterlimit:10;stroke-dasharray:none;stroke-opacity:1"
       transform="matrix(0.95880146,0,0,0.95880146,0.47940073,0.47940073)"
       clip-path="url(#clipPath64)" />
    <text
       id="text64"
       xml:space="preserve"
       transform="matrix(0.95881106,0,0,0.95881106,461.17315,323.11933)"
       clip-path="url(#clipPath65)"><tspan
         style="font-variant:normal;font-weight:normal;font-size:18px;font-family:Helvetica;writing-mode:lr-tb;fill:#000000;fill-opacity:1;fill-rule:nonzero;stroke:none"
         x="0 12.999023 21.999023 32.009766"
         y="0"
         sodipodi:role="line"
         id="tspan64">User</tspan></text>
    <text
       id="text65"
       xml:space="preserve"
       transform="matrix(0.95881106,0,0,0.95881106,451.33035,344.21317)"
       clip-path="url(#clipPath66)"><tspan
         style="font-variant:normal;font-weight:normal;font-size:18px;font-family:Helvetica;writing-mode:lr-tb;fill:#000000;fill-opacity:1;fill-rule:nonzero;stroke:none"
         x="0 5.0009766 18 23.000977 33.512695 38.513672 48.524414"
         y="0"
         sodipodi:role="line"
         id="tspan65">ID = 25</tspan></text>
    <path
       id="path67"
       d="m 590.01001,311 h 120 v 60 h -120 z"
       style="fill:#fff2cc;fill-opacity:1;fill-rule:nonzero;stroke:#d6b656;stroke-width:1;stroke-linecap:butt;stroke-linejoin:miter;stroke-miterlimit:10;stroke-dasharray:none;stroke-opacity:1"
       transform="matrix(0.95880146,0,0,0.95880146,0.47940073,0.47940073)"
       clip-path="url(#clipPath68)" />
    <text
       id="text68"
       xml:space="preserve"
       transform="matrix(0.95881106,0,0,0.95881106,604.9948,323.11933)"
       clip-path="url(#clipPath69)"><tspan
         style="font-variant:normal;font-weight:normal;font-size:18px;font-family:Helvetica;writing-mode:lr-tb;fill:#000000;fill-opacity:1;fill-rule:nonzero;stroke:none"
         x="0 12.999023 21.999023 32.009766"
         y="0"
         sodipodi:role="line"
         id="tspan68">User</tspan></text>
    <text
       id="text69"
       xml:space="preserve"
       transform="matrix(0.95881106,0,0,0.95881106,595.15201,344.21317)"
       clip-path="url(#clipPath70)"><tspan
         style="font-variant:normal;font-weight:normal;font-size:18px;font-family:Helvetica;writing-mode:lr-tb;fill:#000000;fill-opacity:1;fill-rule:nonzero;stroke:none"
         x="0 5.0009766 18 23.000977 33.512695 38.513672 48.524414"
         y="0"
         sodipodi:role="line"
         id="tspan69">ID = 60</tspan></text>
    <path
       id="path71"
       d="m 300,311 h 120 v 60 H 300 Z"
       style="fill:#fff2cc;fill-opacity:1;fill-rule:nonzero;stroke:#d6b656;stroke-width:1;stroke-linecap:butt;stroke-linejoin:miter;stroke-miterlimit:10;stroke-dasharray:none;stroke-opacity:1"
       transform="matrix(0.95880146,0,0,0.95880146,0.47940073,0.47940073)"
       clip-path="url(#clipPath72)" />
    <text
       id="text72"
       xml:space="preserve"
       transform="matrix(0.95881106,0,0,0.95881106,326.9396,323.11933)"
       clip-path="url(#clipPath73)"><tspan
         style="font-variant:normal;font-weight:normal;font-size:18px;font-family:Helvetica;writing-mode:lr-tb;fill:#000000;fill-opacity:1;fill-rule:nonzero;stroke:none"
         x="0 12.999023 21.999023 32.009766"
         y="0"
         sodipodi:role="line"
         id="tspan72">User</tspan></text>
    <text
       id="text73"
       xml:space="preserve"
       transform="matrix(0.95881106,0,0,0.95881106,317.0968,344.21317)"
       clip-path="url(#clipPath74)"><tspan
         style="font-variant:normal;font-weight:normal;font-size:18px;font-family:Helvetica;writing-mode:lr-tb;fill:#000000;fill-opacity:1;fill-rule:nonzero;stroke:none"
         x="0 5.0009766 18 23.000977 33.512695 38.513672 48.524414"
         y="0"
         sodipodi:role="line"
         id="tspan73">ID = 43</tspan></text>
    <path
       id="path75"
       d="m 160,311 h 120 v 60 H 160 Z"
       style="fill:#fff2cc;fill-opacity:1;fill-rule:nonzero;stroke:#d6b656;stroke-width:1;stroke-linecap:butt;stroke-linejoin:miter;stroke-miterlimit:10;stroke-dasharray:none;stroke-opacity:1"
       transform="matrix(0.95880146,0,0,0.95880146,0.47940073,0.47940073)"
       clip-path="url(#clipPath76)" />
    <text
       id="text76"
       xml:space="preserve"
       transform="matrix(0.95881106,0,0,0.95881106,192.70605,323.11933)"
       clip-path="url(#clipPath77)"><tspan
         style="font-variant:normal;font-weight:normal;font-size:18px;font-family:Helvetica;writing-mode:lr-tb;fill:#000000;fill-opacity:1;fill-rule:nonzero;stroke:none"
         x="0 12.999023 21.999023 32.009766"
         y="0"
         sodipodi:role="line"
         id="tspan76">User</tspan></text>
    <text
       id="text77"
       xml:space="preserve"
       transform="matrix(0.95881106,0,0,0.95881106,182.86325,344.21317)"
       clip-path="url(#clipPath78)"><tspan
         style="font-variant:normal;font-weight:normal;font-size:18px;font-family:Helvetica;writing-mode:lr-tb;fill:#000000;fill-opacity:1;fill-rule:nonzero;stroke:none"
         x="0 5.0009766 18 23.000977 33.512695 38.513672 48.524414"
         y="0"
         sodipodi:role="line"
         id="tspan77">ID = 13</tspan></text>
    <path
       id="path79"
       d="m 170,141 h 23.63"
       style="fill:none;stroke:#000000;stroke-width:1;stroke-linecap:butt;stroke-linejoin:miter;stroke-miterlimit:10;stroke-dasharray:none;stroke-opacity:1"
       transform="matrix(0.95880146,0,0,0.95880146,0.47940073,0.47940073)"
       clip-path="url(#clipPath80)" />
    <path
       id="path81"
       d="m 198.88,141 -7,3.5 1.75,-3.5 -1.75,-3.5 z"
       style="fill:#000000;fill-opacity:1;fill-rule:nonzero;stroke:#000000;stroke-width:1;stroke-linecap:butt;stroke-linejoin:miter;stroke-miterlimit:10;stroke-dasharray:none;stroke-opacity:1"
       transform="matrix(0.95880146,0,0,0.95880146,0.47940073,0.47940073)"
       clip-path="url(#clipPath82)" />
    <text
       id="text82"
       xml:space="preserve"
       transform="matrix(0.95881106,0,0,0.95881106,16.344732,140.94523)"
       clip-path="url(#clipPath83)"><tspan
         style="font-variant:normal;font-weight:700;font-size:15px;font-family:Helvetica;writing-mode:lr-tb;fill:#000000;fill-opacity:1;fill-rule:nonzero;stroke:none"
         x="0 10.83252 19.995117 29.157715 34.152832 39.990234 48.33252 56.674805 65.837402 71.674805 80.01709 84.18457 92.526855 100.86914 105.03662 114.19922 123.36182 131.7041 137.5415"
         y="0"
         sodipodi:role="line"
         id="tspan82">Non-recursive query</tspan></text>
    <path
       id="path84"
       d="m 160,241 h 33.63"
       style="fill:none;stroke:#000000;stroke-width:1;stroke-linecap:butt;stroke-linejoin:miter;stroke-miterlimit:10;stroke-dasharray:none;stroke-opacity:1"
       transform="matrix(0.95880146,0,0,0.95880146,0.47940073,0.47940073)"
       clip-path="url(#clipPath85)" />
    <path
       id="path86"
       d="m 198.88,241 -7,3.5 1.75,-3.5 -1.75,-3.5 z"
       style="fill:#000000;fill-opacity:1;fill-rule:nonzero;stroke:#000000;stroke-width:1;stroke-linecap:butt;stroke-linejoin:miter;stroke-miterlimit:10;stroke-dasharray:none;stroke-opacity:1"
       transform="matrix(0.95880146,0,0,0.95880146,0.47940073,0.47940073)"
       clip-path="url(#clipPath87)" />
    <text
       id="text87"
       xml:space="preserve"
       transform="matrix(0.95881106,0,0,0.95881106,35.116455,236.82633)"
       clip-path="url(#clipPath88)"><tspan
         style="font-variant:normal;font-weight:700;font-size:15px;font-family:Helvetica;writing-mode:lr-tb;fill:#000000;fill-opacity:1;fill-rule:nonzero;stroke:none"
         x="0 10.83252 19.174805 27.51709 36.679688 42.51709 50.859375 55.026855 63.369141 71.711426 75.878906 85.041504 94.204102 102.54639 108.38379"
         y="0"
         sodipodi:role="line"
         id="tspan87">Recursive query</tspan></text>
    <path
       id="path89"
       d="m 130,341 h 20 -10 13.63"
       style="fill:none;stroke:#000000;stroke-width:1;stroke-linecap:butt;stroke-linejoin:miter;stroke-miterlimit:10;stroke-dasharray:none;stroke-opacity:1"
       transform="matrix(0.95880146,0,0,0.95880146,0.47940073,0.47940073)"
       clip-path="url(#clipPath90)" />
    <path
       id="path91"
       d="m 158.88,341 -7,3.5 1.75,-3.5 -1.75,-3.5 z"
       style="fill:#000000;fill-opacity:1;fill-rule:nonzero;stroke:#000000;stroke-width:1;stroke-linecap:butt;stroke-linejoin:miter;stroke-miterlimit:10;stroke-dasharray:none;stroke-opacity:1"
       transform="matrix(0.95880146,0,0,0.95880146,0.47940073,0.47940073)"
       clip-path="url(#clipPath92)" />
    <text
       id="text92"
       xml:space="preserve"
       transform="matrix(0.95881106,0,0,0.95881106,6.3521233,332.70744)"
       clip-path="url(#clipPath93)"><tspan
         style="font-variant:normal;font-weight:700;font-size:15px;font-family:Helvetica;writing-mode:lr-tb;fill:#000000;fill-opacity:1;fill-rule:nonzero;stroke:none"
         x="0 10.83252 19.174805 27.51709 36.679688 42.51709 50.859375 55.026855 63.369141 71.711426 75.878906 85.041504 94.204102 102.54639 108.38379"
         y="0"
         sodipodi:role="line"
         id="tspan92">Recursive query</tspan></text>
  </g>
</svg>
