<?xml version="1.0" encoding="UTF-8" standalone="no"?>
<!-- Created with Inkscape (http://www.inkscape.org/) -->

<svg
   version="1.1"
   id="svg1"
   width="1258.5601"
   height="360"
   viewBox="0 0 1258.5601 360"
   sodipodi:docname="sql-5.pdf"
   xmlns:inkscape="http://www.inkscape.org/namespaces/inkscape"
   xmlns:sodipodi="http://sodipodi.sourceforge.net/DTD/sodipodi-0.dtd"
   xmlns="http://www.w3.org/2000/svg"
   xmlns:svg="http://www.w3.org/2000/svg">
  <defs
     id="defs1">
    <clipPath
       clipPathUnits="userSpaceOnUse"
       id="clipPath2">
      <path
         d="M 0,0 H 3933.333 V 1122.5266 H 0 Z"
         transform="scale(0.33406782)"
         clip-rule="evenodd"
         id="path2" />
    </clipPath>
    <clipPath
       clipPathUnits="userSpaceOnUse"
       id="clipPath4">
      <path
         d="M 0,0 H 3933.333 V 1119.5332 H 0 Z"
         transform="matrix(0.33406782,0,0,0.33406782,-0.5,-0.5)"
         clip-rule="evenodd"
         id="path4" />
    </clipPath>
    <clipPath
       clipPathUnits="userSpaceOnUse"
       id="clipPath5">
      <path
         d="M 0,0 H 3933.333 V 1119.5332 H 0 Z"
         transform="matrix(0.33406447,0,0,0.33406447,-468.00001,-27)"
         clip-rule="evenodd"
         id="path5" />
    </clipPath>
    <clipPath
       clipPathUnits="userSpaceOnUse"
       id="clipPath6">
      <path
         d="M 0,0 H 3933.333 V 1119.5332 H 0 Z"
         transform="matrix(0.33406447,0,0,0.33406447,-629.01661,-27)"
         clip-rule="evenodd"
         id="path6" />
    </clipPath>
    <clipPath
       clipPathUnits="userSpaceOnUse"
       id="clipPath7">
      <path
         d="M 0,0 H 3933.333 V 1119.5332 H 0 Z"
         transform="matrix(0.33406447,0,0,0.33406447,-756.09375,-27)"
         clip-rule="evenodd"
         id="path7" />
    </clipPath>
    <clipPath
       clipPathUnits="userSpaceOnUse"
       id="clipPath8">
      <path
         d="M 0,0 H 3933.333 V 1119.5332 H 0 Z"
         transform="matrix(0.33406447,0,0,0.33406447,-786.11036,-27)"
         clip-rule="evenodd"
         id="path8" />
    </clipPath>
    <clipPath
       clipPathUnits="userSpaceOnUse"
       id="clipPath9">
      <path
         d="M 0,0 H 3933.333 V 1119.5332 H 0 Z"
         transform="matrix(0.33406447,0,0,0.33406447,-468.00001,-49)"
         clip-rule="evenodd"
         id="path9" />
    </clipPath>
    <clipPath
       clipPathUnits="userSpaceOnUse"
       id="clipPath10">
      <path
         d="M 0,0 H 3933.333 V 1119.5332 H 0 Z"
         transform="matrix(0.33406447,0,0,0.33406447,-488.01564,-49)"
         clip-rule="evenodd"
         id="path10" />
    </clipPath>
    <clipPath
       clipPathUnits="userSpaceOnUse"
       id="clipPath11">
      <path
         d="M 0,0 H 3933.333 V 1119.5332 H 0 Z"
         transform="matrix(0.33406447,0,0,0.33406447,-559.03125,-49)"
         clip-rule="evenodd"
         id="path11" />
    </clipPath>
    <clipPath
       clipPathUnits="userSpaceOnUse"
       id="clipPath12">
      <path
         d="M 0,0 H 3933.333 V 1119.5332 H 0 Z"
         transform="matrix(0.33406447,0,0,0.33406447,-579.04688,-49)"
         clip-rule="evenodd"
         id="path12" />
    </clipPath>
    <clipPath
       clipPathUnits="userSpaceOnUse"
       id="clipPath13">
      <path
         d="M 0,0 H 3933.333 V 1119.5332 H 0 Z"
         transform="matrix(0.33406447,0,0,0.33406447,-604.06251,-49)"
         clip-rule="evenodd"
         id="path13" />
    </clipPath>
    <clipPath
       clipPathUnits="userSpaceOnUse"
       id="clipPath14">
      <path
         d="M 0,0 H 3933.333 V 1119.5332 H 0 Z"
         transform="matrix(0.33406447,0,0,0.33406447,-468.00001,-70)"
         clip-rule="evenodd"
         id="path14" />
    </clipPath>
    <clipPath
       clipPathUnits="userSpaceOnUse"
       id="clipPath15">
      <path
         d="M 0,0 H 3933.333 V 1119.5332 H 0 Z"
         transform="matrix(0.33406447,0,0,0.33406447,-488.01564,-70)"
         clip-rule="evenodd"
         id="path15" />
    </clipPath>
    <clipPath
       clipPathUnits="userSpaceOnUse"
       id="clipPath16">
      <path
         d="M 0,0 H 3933.333 V 1119.5332 H 0 Z"
         transform="matrix(0.33406447,0,0,0.33406447,-468.00001,-92)"
         clip-rule="evenodd"
         id="path16" />
    </clipPath>
    <clipPath
       clipPathUnits="userSpaceOnUse"
       id="clipPath17">
      <path
         d="M 0,0 H 3933.333 V 1119.5332 H 0 Z"
         transform="matrix(0.33406447,0,0,0.33406447,-488.01564,-92)"
         clip-rule="evenodd"
         id="path17" />
    </clipPath>
    <clipPath
       clipPathUnits="userSpaceOnUse"
       id="clipPath18">
      <path
         d="M 0,0 H 3933.333 V 1119.5332 H 0 Z"
         transform="matrix(0.33406447,0,0,0.33406447,-559.03125,-92)"
         clip-rule="evenodd"
         id="path18" />
    </clipPath>
    <clipPath
       clipPathUnits="userSpaceOnUse"
       id="clipPath19">
      <path
         d="M 0,0 H 3933.333 V 1119.5332 H 0 Z"
         transform="matrix(0.33406447,0,0,0.33406447,-618.0625,-92)"
         clip-rule="evenodd"
         id="path19" />
    </clipPath>
    <clipPath
       clipPathUnits="userSpaceOnUse"
       id="clipPath20">
      <path
         d="M 0,0 H 3933.333 V 1119.5332 H 0 Z"
         transform="matrix(0.33406447,0,0,0.33406447,-468.00001,-114.00001)"
         clip-rule="evenodd"
         id="path20" />
    </clipPath>
    <clipPath
       clipPathUnits="userSpaceOnUse"
       id="clipPath21">
      <path
         d="M 0,0 H 3933.333 V 1119.5332 H 0 Z"
         transform="matrix(0.33406447,0,0,0.33406447,-626.71875,-114.00001)"
         clip-rule="evenodd"
         id="path21" />
    </clipPath>
    <clipPath
       clipPathUnits="userSpaceOnUse"
       id="clipPath22">
      <path
         d="M 0,0 H 3933.333 V 1119.5332 H 0 Z"
         transform="matrix(0.33406447,0,0,0.33406447,-693.71875,-114.00001)"
         clip-rule="evenodd"
         id="path22" />
    </clipPath>
    <clipPath
       clipPathUnits="userSpaceOnUse"
       id="clipPath23">
      <path
         d="M 0,0 H 3933.333 V 1119.5332 H 0 Z"
         transform="matrix(0.33406447,0,0,0.33406447,-468.00001,-135)"
         clip-rule="evenodd"
         id="path23" />
    </clipPath>
    <clipPath
       clipPathUnits="userSpaceOnUse"
       id="clipPath24">
      <path
         d="M 0,0 H 3933.333 V 1119.5332 H 0 Z"
         transform="matrix(0.33406447,0,0,0.33406447,-468.00001,-157)"
         clip-rule="evenodd"
         id="path24" />
    </clipPath>
    <clipPath
       clipPathUnits="userSpaceOnUse"
       id="clipPath25">
      <path
         d="M 0,0 H 3933.333 V 1119.5332 H 0 Z"
         transform="matrix(0.33406447,0,0,0.33406447,-544.01661,-157)"
         clip-rule="evenodd"
         id="path25" />
    </clipPath>
    <clipPath
       clipPathUnits="userSpaceOnUse"
       id="clipPath26">
      <path
         d="M 0,0 H 3933.333 V 1119.5332 H 0 Z"
         transform="matrix(0.33406447,0,0,0.33406447,-468.00001,-178)"
         clip-rule="evenodd"
         id="path26" />
    </clipPath>
    <clipPath
       clipPathUnits="userSpaceOnUse"
       id="clipPath27">
      <path
         d="M 0,0 H 3933.333 V 1119.5332 H 0 Z"
         transform="matrix(0.33406447,0,0,0.33406447,-526.00098,-178)"
         clip-rule="evenodd"
         id="path27" />
    </clipPath>
    <clipPath
       clipPathUnits="userSpaceOnUse"
       id="clipPath29">
      <path
         d="M 0,0 H 3933.333 V 1119.5332 H 0 Z"
         transform="matrix(0.33406782,0,0,0.33406782,-0.5,-0.5)"
         clip-rule="evenodd"
         id="path29" />
    </clipPath>
    <clipPath
       clipPathUnits="userSpaceOnUse"
       id="clipPath31">
      <path
         d="M 0,0 H 3933.333 V 1119.5332 H 0 Z"
         transform="matrix(0.33406782,0,0,0.33406782,-0.5,-0.5)"
         clip-rule="evenodd"
         id="path31" />
    </clipPath>
    <clipPath
       clipPathUnits="userSpaceOnUse"
       id="clipPath32">
      <path
         d="M 0,0 H 3933.333 V 1119.5332 H 0 Z"
         transform="matrix(0.33406447,0,0,0.33406447,-1144.6094,-44)"
         clip-rule="evenodd"
         id="path32" />
    </clipPath>
    <clipPath
       clipPathUnits="userSpaceOnUse"
       id="clipPath34">
      <path
         d="M 0,0 H 3933.333 V 1119.5332 H 0 Z"
         transform="matrix(0.33406782,0,0,0.33406782,-0.5,-0.5)"
         clip-rule="evenodd"
         id="path34" />
    </clipPath>
    <clipPath
       clipPathUnits="userSpaceOnUse"
       id="clipPath35">
      <path
         d="M 0,0 H 3933.333 V 1119.5332 H 0 Z"
         transform="matrix(0.33406447,0,0,0.33406447,-83.40625,-233)"
         clip-rule="evenodd"
         id="path35" />
    </clipPath>
    <clipPath
       clipPathUnits="userSpaceOnUse"
       id="clipPath37">
      <path
         d="M 0,0 H 3933.333 V 1119.5332 H 0 Z"
         transform="matrix(0.33406782,0,0,0.33406782,-0.5,-0.5)"
         clip-rule="evenodd"
         id="path37" />
    </clipPath>
    <clipPath
       clipPathUnits="userSpaceOnUse"
       id="clipPath38">
      <path
         d="M 0,0 H 3933.333 V 1119.5332 H 0 Z"
         transform="matrix(0.33406447,0,0,0.33406447,-7.8750001,-282)"
         clip-rule="evenodd"
         id="path38" />
    </clipPath>
    <clipPath
       clipPathUnits="userSpaceOnUse"
       id="clipPath39">
      <path
         d="M 0,0 H 3933.333 V 1119.5332 H 0 Z"
         transform="matrix(0.33406447,0,0,0.33406447,-121.95312,-282)"
         clip-rule="evenodd"
         id="path39" />
    </clipPath>
    <clipPath
       clipPathUnits="userSpaceOnUse"
       id="clipPath40">
      <path
         d="M 0,0 H 3933.333 V 1119.5332 H 0 Z"
         transform="matrix(0.33406447,0,0,0.33406447,-331.03125,-282)"
         clip-rule="evenodd"
         id="path40" />
    </clipPath>
    <clipPath
       clipPathUnits="userSpaceOnUse"
       id="clipPath41">
      <path
         d="M 0,0 H 3933.333 V 1119.5332 H 0 Z"
         transform="matrix(0.33406447,0,0,0.33406447,-77.40625,-304)"
         clip-rule="evenodd"
         id="path41" />
    </clipPath>
    <clipPath
       clipPathUnits="userSpaceOnUse"
       id="clipPath43">
      <path
         d="M 0,0 H 3933.333 V 1119.5332 H 0 Z"
         transform="matrix(0.33406782,0,0,0.33406782,-0.5,-0.5)"
         clip-rule="evenodd"
         id="path43" />
    </clipPath>
    <clipPath
       clipPathUnits="userSpaceOnUse"
       id="clipPath44">
      <path
         d="M 0,0 H 3933.333 V 1119.5332 H 0 Z"
         transform="matrix(0.33406447,0,0,0.33406447,-475.85938,-222)"
         clip-rule="evenodd"
         id="path44" />
    </clipPath>
    <clipPath
       clipPathUnits="userSpaceOnUse"
       id="clipPath45">
      <path
         d="M 0,0 H 3933.333 V 1119.5332 H 0 Z"
         transform="matrix(0.33406447,0,0,0.33406447,-543.90625,-222)"
         clip-rule="evenodd"
         id="path45" />
    </clipPath>
    <clipPath
       clipPathUnits="userSpaceOnUse"
       id="clipPath46">
      <path
         d="M 0,0 H 3933.333 V 1119.5332 H 0 Z"
         transform="matrix(0.33406447,0,0,0.33406447,-719.00098,-222)"
         clip-rule="evenodd"
         id="path46" />
    </clipPath>
    <clipPath
       clipPathUnits="userSpaceOnUse"
       id="clipPath47">
      <path
         d="M 0,0 H 3933.333 V 1119.5332 H 0 Z"
         transform="matrix(0.33406447,0,0,0.33406447,-501.9375,-244)"
         clip-rule="evenodd"
         id="path47" />
    </clipPath>
    <clipPath
       clipPathUnits="userSpaceOnUse"
       id="clipPath49">
      <path
         d="M 0,0 H 3933.333 V 1119.5332 H 0 Z"
         transform="matrix(0.33406782,0,0,0.33406782,-0.5,-0.5)"
         clip-rule="evenodd"
         id="path49" />
    </clipPath>
    <clipPath
       clipPathUnits="userSpaceOnUse"
       id="clipPath50">
      <path
         d="M 0,0 H 3933.333 V 1119.5332 H 0 Z"
         transform="matrix(0.33406447,0,0,0.33406447,-475.89063,-282)"
         clip-rule="evenodd"
         id="path50" />
    </clipPath>
    <clipPath
       clipPathUnits="userSpaceOnUse"
       id="clipPath51">
      <path
         d="M 0,0 H 3933.333 V 1119.5332 H 0 Z"
         transform="matrix(0.33406447,0,0,0.33406447,-525.39063,-304)"
         clip-rule="evenodd"
         id="path51" />
    </clipPath>
    <clipPath
       clipPathUnits="userSpaceOnUse"
       id="clipPath53">
      <path
         d="M 0,0 H 3933.333 V 1119.5332 H 0 Z"
         transform="matrix(0.33406782,0,0,0.33406782,-0.5,-0.5)"
         clip-rule="evenodd"
         id="path53" />
    </clipPath>
    <clipPath
       clipPathUnits="userSpaceOnUse"
       id="clipPath54">
      <path
         d="M 0,0 H 3933.333 V 1119.5332 H 0 Z"
         transform="matrix(0.33406447,0,0,0.33406447,-486.40625,-353)"
         clip-rule="evenodd"
         id="path54" />
    </clipPath>
    <clipPath
       clipPathUnits="userSpaceOnUse"
       id="clipPath56">
      <path
         d="M 0,0 H 3933.333 V 1119.5332 H 0 Z"
         transform="matrix(0.33406782,0,0,0.33406782,-0.5,-0.5)"
         clip-rule="evenodd"
         id="path56" />
    </clipPath>
    <clipPath
       clipPathUnits="userSpaceOnUse"
       id="clipPath57">
      <path
         d="M 0,0 H 3933.333 V 1119.5332 H 0 Z"
         transform="matrix(0.33406447,0,0,0.33406447,-1205.7657,-79)"
         clip-rule="evenodd"
         id="path57" />
    </clipPath>
    <clipPath
       clipPathUnits="userSpaceOnUse"
       id="clipPath59">
      <path
         d="M 0,0 H 3933.333 V 1119.5332 H 0 Z"
         transform="matrix(0.33406782,0,0,0.33406782,-0.5,-0.5)"
         clip-rule="evenodd"
         id="path59" />
    </clipPath>
    <clipPath
       clipPathUnits="userSpaceOnUse"
       id="clipPath60">
      <path
         d="M 0,0 H 3933.333 V 1119.5332 H 0 Z"
         transform="matrix(0.33406447,0,0,0.33406447,-958.5,-44)"
         clip-rule="evenodd"
         id="path60" />
    </clipPath>
    <clipPath
       clipPathUnits="userSpaceOnUse"
       id="clipPath62">
      <path
         d="M 0,0 H 3933.333 V 1119.5332 H 0 Z"
         transform="matrix(0.33406782,0,0,0.33406782,-0.5,-0.5)"
         clip-rule="evenodd"
         id="path62" />
    </clipPath>
    <clipPath
       clipPathUnits="userSpaceOnUse"
       id="clipPath63">
      <path
         d="M 0,0 H 3933.333 V 1119.5332 H 0 Z"
         transform="matrix(0.33406447,0,0,0.33406447,-1015.7656,-79)"
         clip-rule="evenodd"
         id="path63" />
    </clipPath>
    <clipPath
       clipPathUnits="userSpaceOnUse"
       id="clipPath65">
      <path
         d="M 0,0 H 3933.333 V 1119.5332 H 0 Z"
         transform="matrix(0.33406782,0,0,0.33406782,-0.5,-0.5)"
         clip-rule="evenodd"
         id="path65" />
    </clipPath>
    <clipPath
       clipPathUnits="userSpaceOnUse"
       id="clipPath66">
      <path
         d="M 0,0 H 3933.333 V 1119.5332 H 0 Z"
         transform="matrix(0.33406447,0,0,0.33406447,-1021.5469,-104)"
         clip-rule="evenodd"
         id="path66" />
    </clipPath>
    <clipPath
       clipPathUnits="userSpaceOnUse"
       id="clipPath68">
      <path
         d="M 0,0 H 3933.333 V 1119.5332 H 0 Z"
         transform="matrix(0.33406782,0,0,0.33406782,-0.5,-0.5)"
         clip-rule="evenodd"
         id="path68" />
    </clipPath>
    <clipPath
       clipPathUnits="userSpaceOnUse"
       id="clipPath69">
      <path
         d="M 0,0 H 3933.333 V 1119.5332 H 0 Z"
         transform="matrix(0.33406447,0,0,0.33406447,-1021.5469,-129)"
         clip-rule="evenodd"
         id="path69" />
    </clipPath>
    <clipPath
       clipPathUnits="userSpaceOnUse"
       id="clipPath71">
      <path
         d="M 0,0 H 3933.333 V 1119.5332 H 0 Z"
         transform="matrix(0.33406782,0,0,0.33406782,-0.5,-0.5)"
         clip-rule="evenodd"
         id="path71" />
    </clipPath>
    <clipPath
       clipPathUnits="userSpaceOnUse"
       id="clipPath72">
      <path
         d="M 0,0 H 3933.333 V 1119.5332 H 0 Z"
         transform="matrix(0.33406447,0,0,0.33406447,-1211.5469,-104)"
         clip-rule="evenodd"
         id="path72" />
    </clipPath>
    <clipPath
       clipPathUnits="userSpaceOnUse"
       id="clipPath74">
      <path
         d="M 0,0 H 3933.333 V 1119.5332 H 0 Z"
         transform="matrix(0.33406782,0,0,0.33406782,-0.5,-0.5)"
         clip-rule="evenodd"
         id="path74" />
    </clipPath>
    <clipPath
       clipPathUnits="userSpaceOnUse"
       id="clipPath75">
      <path
         d="M 0,0 H 3933.333 V 1119.5332 H 0 Z"
         transform="matrix(0.33406447,0,0,0.33406447,-1021.5469,-154)"
         clip-rule="evenodd"
         id="path75" />
    </clipPath>
  </defs>
  <sodipodi:namedview
     id="namedview1"
     pagecolor="#ffffff"
     bordercolor="#000000"
     borderopacity="0.25"
     inkscape:showpageshadow="2"
     inkscape:pageopacity="0.0"
     inkscape:pagecheckerboard="0"
     inkscape:deskcolor="#d1d1d1">
    <inkscape:page
       x="0"
       y="0"
       inkscape:label="1"
       id="page1"
       width="1258.5601"
       height="360"
       margin="0"
       bleed="0" />
  </sodipodi:namedview>
  <g
     id="g1"
     inkscape:groupmode="layer"
     inkscape:label="1">
    <path
       id="path1"
       d="M 0,0 H 1314 V 375 H 0 Z"
       style="fill:#ffffff;fill-opacity:1;fill-rule:nonzero;stroke:none"
       transform="scale(0.9578893)"
       clip-path="url(#clipPath2)" />
    <path
       id="path3"
       d="M 456,1 H 926 V 191 H 456 Z"
       style="fill:#dae8fc;fill-opacity:1;fill-rule:nonzero;stroke:#6c8ebf;stroke-width:1;stroke-linecap:butt;stroke-linejoin:miter;stroke-miterlimit:10;stroke-dasharray:none;stroke-opacity:1"
       transform="matrix(0.9578893,0,0,0.9578893,0.47894465,0.47894465)"
       clip-path="url(#clipPath4)" />
    <text
       id="text4"
       xml:space="preserve"
       transform="matrix(0.9578989,0,0,0.9578989,448.29669,25.86327)"
       clip-path="url(#clipPath5)"><tspan
         style="font-variant:normal;font-weight:700;font-size:18px;font-family:Helvetica;writing-mode:lr-tb;fill:#000000;fill-opacity:1;fill-rule:nonzero;stroke:none"
         x="0 16.989258 21.990234 32.985352 45.984375 50.985352 63.984375 75.990234 88.989258 101.98828 114.9873 126.99316 131.99414 144"
         y="0"
         sodipodi:role="line"
         id="tspan4">WITH RECURSIVE</tspan></text>
    <text
       id="text5"
       xml:space="preserve"
       transform="matrix(0.9578989,0,0,0.9578989,602.53432,25.86327)"
       clip-path="url(#clipPath6)"><tspan
         style="font-variant:normal;font-weight:normal;font-size:18px;font-family:Helvetica;writing-mode:lr-tb;fill:#000000;fill-opacity:1;fill-rule:nonzero;stroke:none"
         x="0 9 19.010742 29.021484 39.032227 44.033203 54.043945 64.054688 77.053711 87.064453 93.058594 102.05859 112.06934 116.06836 122.0625"
         y="0"
         sodipodi:role="line"
         id="tspan5">countdown(val) </tspan></text>
    <text
       id="text6"
       xml:space="preserve"
       transform="matrix(0.9578989,0,0,0.9578989,724.26137,25.86327)"
       clip-path="url(#clipPath7)"><tspan
         style="font-variant:normal;font-weight:700;font-size:18px;font-family:Helvetica;writing-mode:lr-tb;fill:#000000;fill-opacity:1;fill-rule:nonzero;stroke:none"
         x="0 12.999023"
         y="0"
         sodipodi:role="line"
         id="tspan6">AS</tspan></text>
    <text
       id="text7"
       xml:space="preserve"
       transform="matrix(0.9578989,0,0,0.9578989,753.01425,25.86327)"
       clip-path="url(#clipPath8)"><tspan
         style="font-variant:normal;font-weight:normal;font-size:18px;font-family:Helvetica;writing-mode:lr-tb;fill:#000000;fill-opacity:1;fill-rule:nonzero;stroke:none"
         x="0"
         y="0"
         id="tspan7">(</tspan></text>
    <text
       id="text8"
       xml:space="preserve"
       transform="matrix(0.9578989,0,0,0.9578989,448.29669,46.937046)"
       clip-path="url(#clipPath9)"><tspan
         style="font-variant:normal;font-weight:normal;font-size:18px;font-family:Helvetica;writing-mode:lr-tb;fill:#000000;fill-opacity:1;fill-rule:nonzero;stroke:none"
         x="0 5.0009766 10.001953 15.00293"
         y="0"
         sodipodi:role="line"
         id="tspan8">    </tspan></text>
    <text
       id="text9"
       xml:space="preserve"
       transform="matrix(0.9578989,0,0,0.9578989,467.46964,46.937046)"
       clip-path="url(#clipPath10)"><tspan
         style="font-variant:normal;font-weight:700;font-size:18px;font-family:Helvetica;writing-mode:lr-tb;fill:#000000;fill-opacity:1;fill-rule:nonzero;stroke:none"
         x="0 12.005859 24.011719 35.006836 47.012695 60.011719"
         y="0"
         sodipodi:role="line"
         id="tspan9">SELECT</tspan></text>
    <text
       id="text10"
       xml:space="preserve"
       transform="matrix(0.9578989,0,0,0.9578989,535.49542,46.937046)"
       clip-path="url(#clipPath11)"><tspan
         style="font-variant:normal;font-weight:normal;font-size:18px;font-family:Helvetica;writing-mode:lr-tb;fill:#000000;fill-opacity:1;fill-rule:nonzero;stroke:none"
         x="0 5.0009766 15.011719"
         y="0"
         sodipodi:role="line"
         id="tspan10"> 3 </tspan></text>
    <text
       id="text11"
       xml:space="preserve"
       transform="matrix(0.9578989,0,0,0.9578989,554.66837,46.937046)"
       clip-path="url(#clipPath12)"><tspan
         style="font-variant:normal;font-weight:700;font-size:18px;font-family:Helvetica;writing-mode:lr-tb;fill:#000000;fill-opacity:1;fill-rule:nonzero;stroke:none"
         x="0 12.999023"
         y="0"
         sodipodi:role="line"
         id="tspan11">AS</tspan></text>
    <text
       id="text12"
       xml:space="preserve"
       transform="matrix(0.9578989,0,0,0.9578989,578.63081,46.937046)"
       clip-path="url(#clipPath13)"><tspan
         style="font-variant:normal;font-weight:normal;font-size:18px;font-family:Helvetica;writing-mode:lr-tb;fill:#000000;fill-opacity:1;fill-rule:nonzero;stroke:none"
         x="0 5.0009766 14.000977 24.011719"
         y="0"
         sodipodi:role="line"
         id="tspan12"> val</tspan></text>
    <text
       id="text13"
       xml:space="preserve"
       transform="matrix(0.9578989,0,0,0.9578989,448.29669,67.052923)"
       clip-path="url(#clipPath14)"><tspan
         style="font-variant:normal;font-weight:normal;font-size:18px;font-family:Helvetica;writing-mode:lr-tb;fill:#000000;fill-opacity:1;fill-rule:nonzero;stroke:none"
         x="0 5.0009766 10.001953 15.00293"
         y="0"
         sodipodi:role="line"
         id="tspan13">    </tspan></text>
    <text
       id="text14"
       xml:space="preserve"
       transform="matrix(0.9578989,0,0,0.9578989,467.46964,67.052923)"
       clip-path="url(#clipPath15)"><tspan
         style="font-variant:normal;font-weight:700;font-size:18px;font-family:Helvetica;writing-mode:lr-tb;fill:#000000;fill-opacity:1;fill-rule:nonzero;stroke:none"
         x="0 12.999023 25.998047 30.999023 45"
         y="0"
         sodipodi:role="line"
         id="tspan14">UNION</tspan></text>
    <text
       id="text15"
       xml:space="preserve"
       transform="matrix(0.9578989,0,0,0.9578989,448.29669,88.126699)"
       clip-path="url(#clipPath16)"><tspan
         style="font-variant:normal;font-weight:normal;font-size:18px;font-family:Helvetica;writing-mode:lr-tb;fill:#000000;fill-opacity:1;fill-rule:nonzero;stroke:none"
         x="0 5.0009766 10.001953 15.00293"
         y="0"
         sodipodi:role="line"
         id="tspan15">    </tspan></text>
    <text
       id="text16"
       xml:space="preserve"
       transform="matrix(0.9578989,0,0,0.9578989,467.46964,88.126699)"
       clip-path="url(#clipPath17)"><tspan
         style="font-variant:normal;font-weight:700;font-size:18px;font-family:Helvetica;writing-mode:lr-tb;fill:#000000;fill-opacity:1;fill-rule:nonzero;stroke:none"
         x="0 12.005859 24.011719 35.006836 47.012695 60.011719"
         y="0"
         sodipodi:role="line"
         id="tspan16">SELECT</tspan></text>
    <text
       id="text17"
       xml:space="preserve"
       transform="matrix(0.9578989,0,0,0.9578989,535.49542,88.126699)"
       clip-path="url(#clipPath18)"><tspan
         style="font-variant:normal;font-weight:normal;font-size:18px;font-family:Helvetica;writing-mode:lr-tb;fill:#000000;fill-opacity:1;fill-rule:nonzero;stroke:none"
         x="0 5.0009766 14.000977 24.011719 28.010742 33.011719 39.005859 44.006836 54.017578"
         y="0"
         sodipodi:role="line"
         id="tspan17"> val - 1 </tspan></text>
    <text
       id="text18"
       xml:space="preserve"
       transform="matrix(0.9578989,0,0,0.9578989,592.04139,88.126699)"
       clip-path="url(#clipPath19)"><tspan
         style="font-variant:normal;font-weight:700;font-size:18px;font-family:Helvetica;writing-mode:lr-tb;fill:#000000;fill-opacity:1;fill-rule:nonzero;stroke:none"
         x="0 10.995117 23.994141 37.995117"
         y="0"
         sodipodi:role="line"
         id="tspan18">FROM</tspan></text>
    <text
       id="text19"
       xml:space="preserve"
       transform="matrix(0.9578989,0,0,0.9578989,448.29669,109.20048)"
       clip-path="url(#clipPath20)"><tspan
         style="font-variant:normal;font-weight:normal;font-size:18px;font-family:Helvetica;writing-mode:lr-tb;fill:#000000;fill-opacity:1;fill-rule:nonzero;stroke:none"
         x="0 16.989258 30.990234 43.989258 55.995117 60.996094 73.995117 87.996094 98.006836 107.6748 119.68066 131.68652 141.69727 153.70312"
         y="0"
         sodipodi:role="line"
         id="tspan19">WORKING_TABLE </tspan></text>
    <text
       id="text20"
       xml:space="preserve"
       transform="matrix(0.9578989,0,0,0.9578989,600.3332,109.20048)"
       clip-path="url(#clipPath21)"><tspan
         style="font-variant:normal;font-weight:700;font-size:18px;font-family:Helvetica;writing-mode:lr-tb;fill:#000000;fill-opacity:1;fill-rule:nonzero;stroke:none"
         x="0 16.989258 29.988281 41.994141 54.993164"
         y="0"
         sodipodi:role="line"
         id="tspan20">WHERE</tspan></text>
    <text
       id="text21"
       xml:space="preserve"
       transform="matrix(0.9578989,0,0,0.9578989,664.51243,109.20048)"
       clip-path="url(#clipPath22)"><tspan
         style="font-variant:normal;font-weight:normal;font-size:18px;font-family:Helvetica;writing-mode:lr-tb;fill:#000000;fill-opacity:1;fill-rule:nonzero;stroke:none"
         x="0 5.0009766 14.000977 24.011719 28.010742 33.011719 43.523438 48.524414"
         y="0"
         sodipodi:role="line"
         id="tspan21"> val &gt; 1</tspan></text>
    <text
       id="text22"
       xml:space="preserve"
       transform="matrix(0.9578989,0,0,0.9578989,448.29669,129.31635)"
       clip-path="url(#clipPath23)"><tspan
         style="font-variant:normal;font-weight:normal;font-size:18px;font-family:Helvetica;writing-mode:lr-tb;fill:#000000;fill-opacity:1;fill-rule:nonzero;stroke:none"
         x="0"
         y="0"
         id="tspan22">)</tspan></text>
    <text
       id="text23"
       xml:space="preserve"
       transform="matrix(0.9578989,0,0,0.9578989,448.29669,150.39013)"
       clip-path="url(#clipPath24)"><tspan
         style="font-variant:normal;font-weight:700;font-size:18px;font-family:Helvetica;writing-mode:lr-tb;fill:#000000;fill-opacity:1;fill-rule:nonzero;stroke:none"
         x="0 12.005859 24.011719 35.006836 47.012695 60.011719"
         y="0"
         sodipodi:role="line"
         id="tspan23">SELECT</tspan></text>
    <text
       id="text24"
       xml:space="preserve"
       transform="matrix(0.9578989,0,0,0.9578989,521.11291,150.39013)"
       clip-path="url(#clipPath25)"><tspan
         style="font-variant:normal;font-weight:normal;font-size:18px;font-family:Helvetica;writing-mode:lr-tb;fill:#000000;fill-opacity:1;fill-rule:nonzero;stroke:none"
         x="0"
         y="0"
         id="tspan24">*</tspan></text>
    <text
       id="text25"
       xml:space="preserve"
       transform="matrix(0.9578989,0,0,0.9578989,448.29669,170.506)"
       clip-path="url(#clipPath26)"><tspan
         style="font-variant:normal;font-weight:700;font-size:18px;font-family:Helvetica;writing-mode:lr-tb;fill:#000000;fill-opacity:1;fill-rule:nonzero;stroke:none"
         x="0 10.995117 23.994141 37.995117"
         y="0"
         sodipodi:role="line"
         id="tspan25">FROM</tspan></text>
    <text
       id="text26"
       xml:space="preserve"
       transform="matrix(0.9578989,0,0,0.9578989,503.85576,170.506)"
       clip-path="url(#clipPath27)"><tspan
         style="font-variant:normal;font-weight:normal;font-size:18px;font-family:Helvetica;writing-mode:lr-tb;fill:#000000;fill-opacity:1;fill-rule:nonzero;stroke:none"
         x="0 9 19.010742 29.021484 39.032227 44.033203 54.043945 64.054688 77.053711 87.064453"
         y="0"
         sodipodi:role="line"
         id="tspan26">countdown;</tspan></text>
    <path
       id="path28"
       d="M 931.01001,1 H 1311.01 V 281 H 931.01001 Z"
       style="fill:#d5e8d4;fill-opacity:1;fill-rule:nonzero;stroke:#82b366;stroke-width:1;stroke-linecap:butt;stroke-linejoin:miter;stroke-miterlimit:10;stroke-dasharray:none;stroke-opacity:1"
       transform="matrix(0.9578893,0,0,0.9578893,0.47894465,0.47894465)"
       clip-path="url(#clipPath29)" />
    <path
       id="path30"
       d="m 1131.01,12.25 h 170 V 61 h -170 z"
       style="fill:#ffe6cc;fill-opacity:1;fill-rule:nonzero;stroke:#d79b00;stroke-width:1;stroke-linecap:butt;stroke-linejoin:miter;stroke-miterlimit:10;stroke-dasharray:none;stroke-opacity:1"
       transform="matrix(0.9578893,0,0,0.9578893,0.47894465,0.47894465)"
       clip-path="url(#clipPath31)" />
    <text
       id="text31"
       xml:space="preserve"
       transform="matrix(0.9578989,0,0,0.9578989,1096.4201,42.147552)"
       clip-path="url(#clipPath32)"><tspan
         style="font-variant:normal;font-weight:700;font-size:21px;font-family:Helvetica;writing-mode:lr-tb;fill:#000000;fill-opacity:1;fill-rule:nonzero;stroke:none"
         x="0 19.45166 32.279297 40.45166 52.130859 57.965332 70.792969 83.620605 89.455078 100.73438 112.41357 125.24121 131.07568"
         y="0"
         sodipodi:role="line"
         id="tspan31">Working Table</tspan></text>
    <path
       id="path33"
       d="m 1,201 h 460 v 50 H 1 Z"
       style="fill:#f5f5f5;fill-opacity:1;fill-rule:nonzero;stroke:#666666;stroke-width:1;stroke-linecap:butt;stroke-linejoin:miter;stroke-miterlimit:10;stroke-dasharray:none;stroke-opacity:1"
       transform="matrix(0.9578893,0,0,0.9578893,0.47894465,0.47894465)"
       clip-path="url(#clipPath34)" />
    <g
       id="g34" />
    <text
       id="text34"
       xml:space="preserve"
       transform="matrix(0.9578989,0,0,0.9578989,79.894755,223.19044)"
       clip-path="url(#clipPath35)"><tspan
         style="font-variant:normal;font-weight:normal;font-size:18px;font-family:Helvetica;writing-mode:lr-tb;fill:#333333;fill-opacity:1;fill-rule:nonzero;stroke:none"
         x="0 12.999023 23.009766 32.009766 42.020508 52.03125 57.032227 62.033203 72.043945 82.054688 87.055664 93.049805 103.06055 112.06055 122.07129 126.07031 131.07129 140.07129 145.07227 155.08301 165.09375 175.10449 180.10547 193.10449 203.11523 209.10938 218.10938 222.1084 232.11914 242.12988 247.13086 252.13184 262.14258 272.15332 276.15234 286.16309"
         y="0"
         sodipodi:role="line"
         id="tspan34">Deﬁne the results and working tables</tspan></text>
    <path
       id="path36"
       d="m 1,261 h 460 v 50 H 1 Z"
       style="fill:#f5f5f5;fill-opacity:1;fill-rule:nonzero;stroke:#666666;stroke-width:1;stroke-linecap:butt;stroke-linejoin:miter;stroke-miterlimit:10;stroke-dasharray:none;stroke-opacity:1"
       transform="matrix(0.9578893,0,0,0.9578893,0.47894465,0.47894465)"
       clip-path="url(#clipPath37)" />
    <text
       id="text37"
       xml:space="preserve"
       transform="matrix(0.9578989,0,0,0.9578989,7.5434539,270.12749)"
       clip-path="url(#clipPath38)"><tspan
         style="font-variant:normal;font-weight:normal;font-size:18px;font-family:Helvetica;writing-mode:lr-tb;fill:#333333;fill-opacity:1;fill-rule:nonzero;stroke:none"
         x="0 12.999023 23.009766 33.020508 38.021484 43.022461 53.033203 63.043945 68.044922 72.043945 82.054688 86.053711 91.054688 95.053711 105.06445 109.06348"
         y="0"
         sodipodi:role="line"
         id="tspan37">Run the initial </tspan></text>
    <text
       id="text38"
       xml:space="preserve"
       transform="matrix(0.9578989,0,0,0.9578989,116.81876,270.12749)"
       clip-path="url(#clipPath39)"><tspan
         style="font-variant:normal;font-weight:700;font-size:18px;font-family:Helvetica;writing-mode:lr-tb;fill:#333333;fill-opacity:1;fill-rule:nonzero;stroke:none"
         x="0 10.995117 21.990234 32.985352 38.979492 45.984375 55.995117 66.005859 77.000977 84.005859 94.016602 99.017578 109.02832 119.03906 124.04004 134.05078 140.04492 150.05566 156.0498 166.06055 182.06543 192.07617 203.07129"
         y="0"
         sodipodi:role="line"
         id="tspan38">non-recursive statement</tspan></text>
    <text
       id="text39"
       xml:space="preserve"
       transform="matrix(0.9578989,0,0,0.9578989,317.09447,270.12749)"
       clip-path="url(#clipPath40)"><tspan
         style="font-variant:normal;font-weight:normal;font-size:18px;font-family:Helvetica;writing-mode:lr-tb;fill:#333333;fill-opacity:1;fill-rule:nonzero;stroke:none"
         x="0 5.0009766 10.001953 20.012695 30.023438 35.024414 40.025391 45.026367 55.037109 65.047852 70.048828 76.042969 86.053711 95.053711 105.06445 109.06348 114.06445"
         y="0"
         sodipodi:role="line"
         id="tspan39">, put the results</tspan></text>
    <text
       id="text40"
       xml:space="preserve"
       transform="matrix(0.9578989,0,0,0.9578989,74.147362,291.20127)"
       clip-path="url(#clipPath41)"><tspan
         style="font-variant:normal;font-weight:normal;font-size:18px;font-family:Helvetica;writing-mode:lr-tb;fill:#333333;fill-opacity:1;fill-rule:nonzero;stroke:none"
         x="0 3.9990234 14.009766 19.010742 29.021484 34.022461 39.023438 49.03418 59.044922 64.045898 70.040039 80.050781 89.050781 99.061523 103.06055 108.06152 117.06152 122.0625 127.06348 137.07422 147.08496 151.08398 161.09473 166.0957 176.10645 186.11719 196.12793 201.12891 214.12793 224.13867 230.13281 239.13281 243.13184 253.14258 263.15332 268.1543 273.15527 283.16602 293.17676 297.17578"
         y="0"
         sodipodi:role="line"
         id="tspan40">into the results table and working table</tspan></text>
    <path
       id="path42"
       d="m 466,201 h 460 v 50 H 466 Z"
       style="fill:#f5f5f5;fill-opacity:1;fill-rule:nonzero;stroke:#666666;stroke-width:1;stroke-linecap:butt;stroke-linejoin:miter;stroke-miterlimit:10;stroke-dasharray:none;stroke-opacity:1"
       transform="matrix(0.9578893,0,0,0.9578893,0.47894465,0.47894465)"
       clip-path="url(#clipPath43)" />
    <text
       id="text43"
       xml:space="preserve"
       transform="matrix(0.9578989,0,0,0.9578989,455.82518,212.65356)"
       clip-path="url(#clipPath44)"><tspan
         style="font-variant:normal;font-weight:normal;font-size:18px;font-family:Helvetica;writing-mode:lr-tb;fill:#333333;fill-opacity:1;fill-rule:nonzero;stroke:none"
         x="0 12.999023 23.009766 33.020508 38.021484 43.022461 53.033203 63.043945"
         y="0"
         sodipodi:role="line"
         id="tspan43">Run the </tspan></text>
    <text
       id="text44"
       xml:space="preserve"
       transform="matrix(0.9578989,0,0,0.9578989,521.0072,212.65356)"
       clip-path="url(#clipPath45)"><tspan
         style="font-variant:normal;font-weight:700;font-size:18px;font-family:Helvetica;writing-mode:lr-tb;fill:#333333;fill-opacity:1;fill-rule:nonzero;stroke:none"
         x="0 7.0048828 17.015625 27.026367 38.021484 45.026367 55.037109 60.038086 70.048828 80.05957 85.060547 95.071289 101.06543 111.07617 117.07031 127.08105 143.08594 153.09668 164.0918"
         y="0"
         sodipodi:role="line"
         id="tspan44">recursive statement</tspan></text>
    <text
       id="text45"
       xml:space="preserve"
       transform="matrix(0.9578989,0,0,0.9578989,688.73025,212.65356)"
       clip-path="url(#clipPath46)"><tspan
         style="font-variant:normal;font-weight:normal;font-size:18px;font-family:Helvetica;writing-mode:lr-tb;fill:#333333;fill-opacity:1;fill-rule:nonzero;stroke:none"
         x="0 5.9941406 16.004883 26.015625 30.014648 40.025391 49.025391 53.024414 63.035156 73.045898 78.046875 83.047852 93.058594 103.06934 108.07031 113.07129 123.08203 133.09277 137.0918 147.10254 152.10352 162.11426 172.125 187.11914"
         y="0"
         sodipodi:role="line"
         id="tspan45">replacing the table name</tspan></text>
    <text
       id="text46"
       xml:space="preserve"
       transform="matrix(0.9578989,0,0,0.9578989,480.80538,233.72733)"
       clip-path="url(#clipPath47)"><tspan
         style="font-variant:normal;font-weight:normal;font-size:18px;font-family:Helvetica;writing-mode:lr-tb;fill:#333333;fill-opacity:1;fill-rule:nonzero;stroke:none"
         x="0 3.4365234 12.436523 22.447266 32.458008 42.46875 47.469727 57.480469 67.491211 80.490234 90.500977 93.9375 98.938477 111.9375 115.93652 120.9375 130.94824 135.94922 145.95996 150.96094 156.95508 166.96582 171.9668 181.97754 187.97168 197.98242 207.99316 216.99316 227.00391 232.00488 237.00586 247.0166 252.01758 257.01855 267.0293 277.04004 282.04102 295.04004 305.05078 311.04492 320.04492 324.04395 334.05469 344.06543 349.06641 354.06738 364.07812 374.08887 378.08789"
         y="0"
         sodipodi:role="line"
         id="tspan46">'countdown' with a reference to the working table</tspan></text>
    <path
       id="path48"
       d="m 466,261 h 460 v 50 H 466 Z"
       style="fill:#f5f5f5;fill-opacity:1;fill-rule:nonzero;stroke:#666666;stroke-width:1;stroke-linecap:butt;stroke-linejoin:miter;stroke-miterlimit:10;stroke-dasharray:none;stroke-opacity:1"
       transform="matrix(0.9578893,0,0,0.9578893,0.47894465,0.47894465)"
       clip-path="url(#clipPath49)" />
    <text
       id="text49"
       xml:space="preserve"
       transform="matrix(0.9578989,0,0,0.9578989,455.85511,270.12749)"
       clip-path="url(#clipPath50)"><tspan
         style="font-variant:normal;font-weight:normal;font-size:18px;font-family:Helvetica;writing-mode:lr-tb;fill:#333333;fill-opacity:1;fill-rule:nonzero;stroke:none"
         x="0 5.0009766 10.001953 15.00293 20.99707 31.007812 40.007812 50.018555 56.012695 65.012695 69.011719 78.011719 88.022461 93.023438 102.02344 107.02441 117.03516 122.03613 132.04688 147.04102 157.05176 167.0625 172.06348 177.06445 183.05859 193.06934 198.07031 208.08105 214.0752 224.08594 233.08594 238.08691 247.08691 257.09766 272.0918 282.10254 287.10352 293.09766 303.1084 316.10742 325.10742 330.1084 335.10938 345.12012 355.13086 365.1416 375.15234 385.16309 395.17383 400.1748 405.17578 415.18652 425.19727"
         y="0"
         sodipodi:role="line"
         id="tspan49">If recursive statement returns some rows, append them</tspan></text>
    <text
       id="text50"
       xml:space="preserve"
       transform="matrix(0.9578989,0,0,0.9578989,503.27111,291.20127)"
       clip-path="url(#clipPath51)"><tspan
         style="font-variant:normal;font-weight:normal;font-size:18px;font-family:Helvetica;writing-mode:lr-tb;fill:#333333;fill-opacity:1;fill-rule:nonzero;stroke:none"
         x="0 5.0009766 15.011719 20.012695 25.013672 35.024414 45.035156 50.036133 56.030273 66.041016 75.041016 85.051758 89.050781 94.051758 103.05176 108.05273 113.05371 123.06445 133.0752 137.07422 147.08496 152.08594 162.09668 172.10742 182.11816 187.11914 193.11328 203.12402 213.13477 218.13574 224.12988 234.14062 243.14062 253.15137 259.14551 268.14551 272.14453 282.15527 292.16602 297.16699 307.17773 317.18848 327.19922 331.19824"
         y="0"
         sodipodi:role="line"
         id="tspan50">to the results table and run recursion again</tspan></text>
    <path
       id="path52"
       d="m 466,321 h 460 v 50 H 466 Z"
       style="fill:#f5f5f5;fill-opacity:1;fill-rule:nonzero;stroke:#666666;stroke-width:1;stroke-linecap:butt;stroke-linejoin:miter;stroke-miterlimit:10;stroke-dasharray:none;stroke-opacity:1"
       transform="matrix(0.9578893,0,0,0.9578893,0.47894465,0.47894465)"
       clip-path="url(#clipPath53)" />
    <text
       id="text53"
       xml:space="preserve"
       transform="matrix(0.9578989,0,0,0.9578989,465.92801,338.13831)"
       clip-path="url(#clipPath54)"><tspan
         style="font-variant:normal;font-weight:normal;font-size:18px;font-family:Helvetica;writing-mode:lr-tb;fill:#333333;fill-opacity:1;fill-rule:nonzero;stroke:none"
         x="0 5.0009766 10.001953 15.00293 20.99707 31.007812 40.007812 50.018555 56.012695 65.012695 69.011719 78.011719 88.022461 93.023438 102.02344 107.02441 117.03516 122.03613 132.04688 147.04102 157.05176 167.0625 172.06348 177.06445 183.05859 193.06934 198.07031 208.08105 214.0752 224.08594 233.08594 238.08691 248.09766 258.1084 263.10938 269.10352 279.11426 292.11328 301.11328 306.11426 315.11426 320.11523 330.12598 340.13672 345.1377 351.13184 361.14258 370.14258 380.15332 386.14746 395.14746 399.14648 409.15723"
         y="0"
         sodipodi:role="line"
         id="tspan53">If recursive statement returns no rows stop recursion</tspan></text>
    <path
       id="path55"
       d="m 1131.01,61 h 170 v 25 h -170 z"
       style="fill:#f5f5f5;fill-opacity:1;fill-rule:nonzero;stroke:#666666;stroke-width:1;stroke-linecap:butt;stroke-linejoin:miter;stroke-miterlimit:10;stroke-dasharray:none;stroke-opacity:1"
       transform="matrix(0.9578893,0,0,0.9578893,0.47894465,0.47894465)"
       clip-path="url(#clipPath56)" />
    <text
       id="text56"
       xml:space="preserve"
       transform="matrix(0.9578989,0,0,0.9578989,1155.0016,75.674013)"
       clip-path="url(#clipPath57)"><tspan
         style="font-style:oblique;font-variant:normal;font-weight:normal;font-size:16px;font-family:Helvetica;writing-mode:lr-tb;fill:#333333;fill-opacity:1;fill-rule:nonzero;stroke:none"
         x="0 8 16.898438"
         y="0"
         sodipodi:role="line"
         id="tspan56">val</tspan></text>
    <path
       id="path58"
       d="M 941.01001,12.25 H 1111.01 V 61 H 941.01001 Z"
       style="fill:#ffe6cc;fill-opacity:1;fill-rule:nonzero;stroke:#d79b00;stroke-width:1;stroke-linecap:butt;stroke-linejoin:miter;stroke-miterlimit:10;stroke-dasharray:none;stroke-opacity:1"
       transform="matrix(0.9578893,0,0,0.9578893,0.47894465,0.47894465)"
       clip-path="url(#clipPath59)" />
    <text
       id="text59"
       xml:space="preserve"
       transform="matrix(0.9578989,0,0,0.9578989,918.1461,42.147552)"
       clip-path="url(#clipPath60)"><tspan
         style="font-variant:normal;font-weight:700;font-size:21px;font-family:Helvetica;writing-mode:lr-tb;fill:#000000;fill-opacity:1;fill-rule:nonzero;stroke:none"
         x="0 15.165527 26.844727 38.523926 51.351562 57.186035 64.179199 75.858398 81.692871 92.972168 104.65137 117.479 123.31348"
         y="0"
         sodipodi:role="line"
         id="tspan59">Results Table</tspan></text>
    <path
       id="path61"
       d="M 941.01001,61 H 1111.01 V 86 H 941.01001 Z"
       style="fill:#f5f5f5;fill-opacity:1;fill-rule:nonzero;stroke:#666666;stroke-width:1;stroke-linecap:butt;stroke-linejoin:miter;stroke-miterlimit:10;stroke-dasharray:none;stroke-opacity:1"
       transform="matrix(0.9578893,0,0,0.9578893,0.47894465,0.47894465)"
       clip-path="url(#clipPath62)" />
    <text
       id="text62"
       xml:space="preserve"
       transform="matrix(0.9578989,0,0,0.9578989,973.00078,75.674013)"
       clip-path="url(#clipPath63)"><tspan
         style="font-style:oblique;font-variant:normal;font-weight:normal;font-size:16px;font-family:Helvetica;writing-mode:lr-tb;fill:#333333;fill-opacity:1;fill-rule:nonzero;stroke:none"
         x="0 8 16.898438"
         y="0"
         sodipodi:role="line"
         id="tspan62">val</tspan></text>
    <path
       id="path64"
       d="M 941.01001,86 H 1111.01 v 25 H 941.01001 Z"
       style="fill:#ffffff;fill-opacity:1;fill-rule:nonzero;stroke:#000000;stroke-width:1;stroke-linecap:butt;stroke-linejoin:miter;stroke-miterlimit:10;stroke-dasharray:none;stroke-opacity:1"
       transform="matrix(0.9578893,0,0,0.9578893,0.47894465,0.47894465)"
       clip-path="url(#clipPath65)" />
    <text
       id="text65"
       xml:space="preserve"
       transform="matrix(0.9578989,0,0,0.9578989,978.53864,99.621486)"
       clip-path="url(#clipPath66)"><tspan
         style="font-style:oblique;font-variant:normal;font-weight:normal;font-size:16px;font-family:Helvetica;writing-mode:lr-tb;fill:#000000;fill-opacity:1;fill-rule:nonzero;stroke:none"
         x="0"
         y="0"
         id="tspan65">3</tspan></text>
    <path
       id="path67"
       d="M 941.01001,111 H 1111.01 v 25 H 941.01001 Z"
       style="fill:#ffffff;fill-opacity:1;fill-rule:nonzero;stroke:#000000;stroke-width:1;stroke-linecap:butt;stroke-linejoin:miter;stroke-miterlimit:10;stroke-dasharray:none;stroke-opacity:1"
       transform="matrix(0.9578893,0,0,0.9578893,0.47894465,0.47894465)"
       clip-path="url(#clipPath68)" />
    <text
       id="text68"
       xml:space="preserve"
       transform="matrix(0.9578989,0,0,0.9578989,978.53864,123.56896)"
       clip-path="url(#clipPath69)"><tspan
         style="font-style:oblique;font-variant:normal;font-weight:normal;font-size:16px;font-family:Helvetica;writing-mode:lr-tb;fill:#000000;fill-opacity:1;fill-rule:nonzero;stroke:none"
         x="0"
         y="0"
         id="tspan68">2</tspan></text>
    <path
       id="path70"
       d="m 1131.01,86 h 170 v 25 h -170 z"
       style="fill:#ffffff;fill-opacity:1;fill-rule:nonzero;stroke:#000000;stroke-width:1;stroke-linecap:butt;stroke-linejoin:miter;stroke-miterlimit:10;stroke-dasharray:none;stroke-opacity:1"
       transform="matrix(0.9578893,0,0,0.9578893,0.47894465,0.47894465)"
       clip-path="url(#clipPath71)" />
    <text
       id="text71"
       xml:space="preserve"
       transform="matrix(0.9578989,0,0,0.9578989,1160.5394,99.621486)"
       clip-path="url(#clipPath72)"><tspan
         style="font-style:oblique;font-variant:normal;font-weight:normal;font-size:16px;font-family:Helvetica;writing-mode:lr-tb;fill:#000000;fill-opacity:1;fill-rule:nonzero;stroke:none"
         x="0"
         y="0"
         id="tspan71">1</tspan></text>
    <path
       id="path73"
       d="M 941.01001,136 H 1111.01 v 25 H 941.01001 Z"
       style="fill:#ffffff;fill-opacity:1;fill-rule:nonzero;stroke:#000000;stroke-width:1;stroke-linecap:butt;stroke-linejoin:miter;stroke-miterlimit:10;stroke-dasharray:none;stroke-opacity:1"
       transform="matrix(0.9578893,0,0,0.9578893,0.47894465,0.47894465)"
       clip-path="url(#clipPath74)" />
    <text
       id="text74"
       xml:space="preserve"
       transform="matrix(0.9578989,0,0,0.9578989,978.53864,147.51643)"
       clip-path="url(#clipPath75)"><tspan
         style="font-style:oblique;font-variant:normal;font-weight:normal;font-size:16px;font-family:Helvetica;writing-mode:lr-tb;fill:#000000;fill-opacity:1;fill-rule:nonzero;stroke:none"
         x="0"
         y="0"
         id="tspan74">1</tspan></text>
  </g>
</svg>
