<?xml version="1.0" encoding="UTF-8" standalone="no"?>
<!-- Created with Inkscape (http://www.inkscape.org/) -->

<svg
   version="1.1"
   id="svg1"
   width="530.56"
   height="360"
   viewBox="0 0 530.56 360"
   sodipodi:docname="sql-11.pdf"
   xmlns:inkscape="http://www.inkscape.org/namespaces/inkscape"
   xmlns:sodipodi="http://sodipodi.sourceforge.net/DTD/sodipodi-0.dtd"
   xmlns="http://www.w3.org/2000/svg"
   xmlns:svg="http://www.w3.org/2000/svg">
  <defs
     id="defs1">
    <clipPath
       clipPathUnits="userSpaceOnUse"
       id="clipPath2">
      <path
         d="M 0,0 H 1658.3334 V 1122.5181 H 0 Z"
         transform="scale(0.33407035)"
         clip-rule="evenodd"
         id="path2" />
    </clipPath>
    <clipPath
       clipPathUnits="userSpaceOnUse"
       id="clipPath4">
      <path
         d="M 0,0 H 1658.3334 V 1119.5247 H 0 Z"
         transform="matrix(0.33407035,0,0,0.33407035,-0.5,-0.5)"
         clip-rule="evenodd"
         id="path4" />
    </clipPath>
    <clipPath
       clipPathUnits="userSpaceOnUse"
       id="clipPath6">
      <path
         d="M 0,0 H 1658.3334 V 1119.5247 H 0 Z"
         transform="matrix(0.33407035,0,0,0.33407035,-0.5,-0.5)"
         clip-rule="evenodd"
         id="path6" />
    </clipPath>
    <clipPath
       clipPathUnits="userSpaceOnUse"
       id="clipPath8">
      <path
         d="M 0,0 H 1658.3334 V 1119.5247 H 0 Z"
         transform="matrix(0.33407035,0,0,0.33407035,-0.5,-0.5)"
         clip-rule="evenodd"
         id="path8" />
    </clipPath>
    <clipPath
       clipPathUnits="userSpaceOnUse"
       id="clipPath10">
      <path
         d="M 0,0 H 1658.3334 V 1119.5247 H 0 Z"
         transform="matrix(0.33407035,0,0,0.33407035,-0.5,-0.5)"
         clip-rule="evenodd"
         id="path10" />
    </clipPath>
    <clipPath
       clipPathUnits="userSpaceOnUse"
       id="clipPath12">
      <path
         d="M 0,0 H 1658.3334 V 1119.5247 H 0 Z"
         transform="matrix(0.33407035,0,0,0.33407035,-0.5,-0.5)"
         clip-rule="evenodd"
         id="path12" />
    </clipPath>
    <clipPath
       clipPathUnits="userSpaceOnUse"
       id="clipPath13">
      <path
         d="M 0,0 H 1658.3334 V 1119.5247 H 0 Z"
         transform="matrix(0.334067,0,0,0.334067,-221.98438,-27)"
         clip-rule="evenodd"
         id="path13" />
    </clipPath>
    <clipPath
       clipPathUnits="userSpaceOnUse"
       id="clipPath14">
      <path
         d="M 0,0 H 1658.3334 V 1119.5247 H 0 Z"
         transform="matrix(0.334067,0,0,0.334067,-216.73438,-49)"
         clip-rule="evenodd"
         id="path14" />
    </clipPath>
    <clipPath
       clipPathUnits="userSpaceOnUse"
       id="clipPath16">
      <path
         d="M 0,0 H 1658.3334 V 1119.5247 H 0 Z"
         transform="matrix(0.33407035,0,0,0.33407035,-0.5,-0.5)"
         clip-rule="evenodd"
         id="path16" />
    </clipPath>
    <clipPath
       clipPathUnits="userSpaceOnUse"
       id="clipPath18">
      <path
         d="M 0,0 H 1658.3334 V 1119.5247 H 0 Z"
         transform="matrix(0.33407035,0,0,0.33407035,-0.5,-0.5)"
         clip-rule="evenodd"
         id="path18" />
    </clipPath>
    <clipPath
       clipPathUnits="userSpaceOnUse"
       id="clipPath20">
      <path
         d="M 0,0 H 1658.3334 V 1119.5247 H 0 Z"
         transform="matrix(0.33407035,0,0,0.33407035,-0.5,-0.5)"
         clip-rule="evenodd"
         id="path20" />
    </clipPath>
    <clipPath
       clipPathUnits="userSpaceOnUse"
       id="clipPath21">
      <path
         d="M 0,0 H 1658.3334 V 1119.5247 H 0 Z"
         transform="matrix(0.334067,0,0,0.334067,-81.984375,-137)"
         clip-rule="evenodd"
         id="path21" />
    </clipPath>
    <clipPath
       clipPathUnits="userSpaceOnUse"
       id="clipPath22">
      <path
         d="M 0,0 H 1658.3334 V 1119.5247 H 0 Z"
         transform="matrix(0.334067,0,0,0.334067,-76.734375,-159)"
         clip-rule="evenodd"
         id="path22" />
    </clipPath>
    <clipPath
       clipPathUnits="userSpaceOnUse"
       id="clipPath24">
      <path
         d="M 0,0 H 1658.3334 V 1119.5247 H 0 Z"
         transform="matrix(0.33407035,0,0,0.33407035,-0.5,-0.5)"
         clip-rule="evenodd"
         id="path24" />
    </clipPath>
    <clipPath
       clipPathUnits="userSpaceOnUse"
       id="clipPath26">
      <path
         d="M 0,0 H 1658.3334 V 1119.5247 H 0 Z"
         transform="matrix(0.33407035,0,0,0.33407035,-0.5,-0.5)"
         clip-rule="evenodd"
         id="path26" />
    </clipPath>
    <clipPath
       clipPathUnits="userSpaceOnUse"
       id="clipPath28">
      <path
         d="M 0,0 H 1658.3334 V 1119.5247 H 0 Z"
         transform="matrix(0.33407035,0,0,0.33407035,-0.5,-0.5)"
         clip-rule="evenodd"
         id="path28" />
    </clipPath>
    <clipPath
       clipPathUnits="userSpaceOnUse"
       id="clipPath30">
      <path
         d="M 0,0 H 1658.3334 V 1119.5247 H 0 Z"
         transform="matrix(0.33407035,0,0,0.33407035,-0.5,-0.5)"
         clip-rule="evenodd"
         id="path30" />
    </clipPath>
    <clipPath
       clipPathUnits="userSpaceOnUse"
       id="clipPath32">
      <path
         d="M 0,0 H 1658.3334 V 1119.5247 H 0 Z"
         transform="matrix(0.33407035,0,0,0.33407035,-0.5,-0.5)"
         clip-rule="evenodd"
         id="path32" />
    </clipPath>
    <clipPath
       clipPathUnits="userSpaceOnUse"
       id="clipPath33">
      <path
         d="M 0,0 H 1658.3334 V 1119.5247 H 0 Z"
         transform="matrix(0.334067,0,0,0.334067,-334.98438,-137)"
         clip-rule="evenodd"
         id="path33" />
    </clipPath>
    <clipPath
       clipPathUnits="userSpaceOnUse"
       id="clipPath34">
      <path
         d="M 0,0 H 1658.3334 V 1119.5247 H 0 Z"
         transform="matrix(0.334067,0,0,0.334067,-329.73438,-159)"
         clip-rule="evenodd"
         id="path34" />
    </clipPath>
    <clipPath
       clipPathUnits="userSpaceOnUse"
       id="clipPath36">
      <path
         d="M 0,0 H 1658.3334 V 1119.5247 H 0 Z"
         transform="matrix(0.33407035,0,0,0.33407035,-0.5,-0.5)"
         clip-rule="evenodd"
         id="path36" />
    </clipPath>
    <clipPath
       clipPathUnits="userSpaceOnUse"
       id="clipPath38">
      <path
         d="M 0,0 H 1658.3334 V 1119.5247 H 0 Z"
         transform="matrix(0.33407035,0,0,0.33407035,-0.5,-0.5)"
         clip-rule="evenodd"
         id="path38" />
    </clipPath>
    <clipPath
       clipPathUnits="userSpaceOnUse"
       id="clipPath40">
      <path
         d="M 0,0 H 1658.3334 V 1119.5247 H 0 Z"
         transform="matrix(0.33407035,0,0,0.33407035,-0.5,-0.5)"
         clip-rule="evenodd"
         id="path40" />
    </clipPath>
    <clipPath
       clipPathUnits="userSpaceOnUse"
       id="clipPath41">
      <path
         d="M 0,0 H 1658.3334 V 1119.5247 H 0 Z"
         transform="matrix(0.334067,0,0,0.334067,-261.98438,-237)"
         clip-rule="evenodd"
         id="path41" />
    </clipPath>
    <clipPath
       clipPathUnits="userSpaceOnUse"
       id="clipPath42">
      <path
         d="M 0,0 H 1658.3334 V 1119.5247 H 0 Z"
         transform="matrix(0.334067,0,0,0.334067,-256.73438,-259)"
         clip-rule="evenodd"
         id="path42" />
    </clipPath>
    <clipPath
       clipPathUnits="userSpaceOnUse"
       id="clipPath44">
      <path
         d="M 0,0 H 1658.3334 V 1119.5247 H 0 Z"
         transform="matrix(0.33407035,0,0,0.33407035,-0.5,-0.5)"
         clip-rule="evenodd"
         id="path44" />
    </clipPath>
    <clipPath
       clipPathUnits="userSpaceOnUse"
       id="clipPath46">
      <path
         d="M 0,0 H 1658.3334 V 1119.5247 H 0 Z"
         transform="matrix(0.33407035,0,0,0.33407035,-0.5,-0.5)"
         clip-rule="evenodd"
         id="path46" />
    </clipPath>
    <clipPath
       clipPathUnits="userSpaceOnUse"
       id="clipPath48">
      <path
         d="M 0,0 H 1658.3334 V 1119.5247 H 0 Z"
         transform="matrix(0.33407035,0,0,0.33407035,-0.5,-0.5)"
         clip-rule="evenodd"
         id="path48" />
    </clipPath>
    <clipPath
       clipPathUnits="userSpaceOnUse"
       id="clipPath49">
      <path
         d="M 0,0 H 1658.3334 V 1119.5247 H 0 Z"
         transform="matrix(0.334067,0,0,0.334067,-411.98438,-237)"
         clip-rule="evenodd"
         id="path49" />
    </clipPath>
    <clipPath
       clipPathUnits="userSpaceOnUse"
       id="clipPath50">
      <path
         d="M 0,0 H 1658.3334 V 1119.5247 H 0 Z"
         transform="matrix(0.334067,0,0,0.334067,-406.73438,-259)"
         clip-rule="evenodd"
         id="path50" />
    </clipPath>
    <clipPath
       clipPathUnits="userSpaceOnUse"
       id="clipPath52">
      <path
         d="M 0,0 H 1658.3334 V 1119.5247 H 0 Z"
         transform="matrix(0.33407035,0,0,0.33407035,-0.5,-0.5)"
         clip-rule="evenodd"
         id="path52" />
    </clipPath>
    <clipPath
       clipPathUnits="userSpaceOnUse"
       id="clipPath54">
      <path
         d="M 0,0 H 1658.3334 V 1119.5247 H 0 Z"
         transform="matrix(0.33407035,0,0,0.33407035,-0.5,-0.5)"
         clip-rule="evenodd"
         id="path54" />
    </clipPath>
    <clipPath
       clipPathUnits="userSpaceOnUse"
       id="clipPath56">
      <path
         d="M 0,0 H 1658.3334 V 1119.5247 H 0 Z"
         transform="matrix(0.33407035,0,0,0.33407035,-0.5,-0.5)"
         clip-rule="evenodd"
         id="path56" />
    </clipPath>
    <clipPath
       clipPathUnits="userSpaceOnUse"
       id="clipPath58">
      <path
         d="M 0,0 H 1658.3334 V 1119.5247 H 0 Z"
         transform="matrix(0.33407035,0,0,0.33407035,-0.5,-0.5)"
         clip-rule="evenodd"
         id="path58" />
    </clipPath>
    <clipPath
       clipPathUnits="userSpaceOnUse"
       id="clipPath60">
      <path
         d="M 0,0 H 1658.3334 V 1119.5247 H 0 Z"
         transform="matrix(0.33407035,0,0,0.33407035,-0.5,-0.5)"
         clip-rule="evenodd"
         id="path60" />
    </clipPath>
    <clipPath
       clipPathUnits="userSpaceOnUse"
       id="clipPath61">
      <path
         d="M 0,0 H 1658.3334 V 1119.5247 H 0 Z"
         transform="matrix(0.334067,0,0,0.334067,-81.984375,-237)"
         clip-rule="evenodd"
         id="path61" />
    </clipPath>
    <clipPath
       clipPathUnits="userSpaceOnUse"
       id="clipPath62">
      <path
         d="M 0,0 H 1658.3334 V 1119.5247 H 0 Z"
         transform="matrix(0.334067,0,0,0.334067,-76.734375,-259)"
         clip-rule="evenodd"
         id="path62" />
    </clipPath>
    <clipPath
       clipPathUnits="userSpaceOnUse"
       id="clipPath64">
      <path
         d="M 0,0 H 1658.3334 V 1119.5247 H 0 Z"
         transform="matrix(0.33407035,0,0,0.33407035,-0.5,-0.5)"
         clip-rule="evenodd"
         id="path64" />
    </clipPath>
    <clipPath
       clipPathUnits="userSpaceOnUse"
       id="clipPath65">
      <path
         d="M 0,0 H 1658.3334 V 1119.5247 H 0 Z"
         transform="matrix(0.334067,0,0,0.334067,-321.98438,-337)"
         clip-rule="evenodd"
         id="path65" />
    </clipPath>
    <clipPath
       clipPathUnits="userSpaceOnUse"
       id="clipPath66">
      <path
         d="M 0,0 H 1658.3334 V 1119.5247 H 0 Z"
         transform="matrix(0.334067,0,0,0.334067,-311.71875,-359)"
         clip-rule="evenodd"
         id="path66" />
    </clipPath>
    <clipPath
       clipPathUnits="userSpaceOnUse"
       id="clipPath68">
      <path
         d="M 0,0 H 1658.3334 V 1119.5247 H 0 Z"
         transform="matrix(0.33407035,0,0,0.33407035,-0.5,-0.5)"
         clip-rule="evenodd"
         id="path68" />
    </clipPath>
    <clipPath
       clipPathUnits="userSpaceOnUse"
       id="clipPath69">
      <path
         d="M 0,0 H 1658.3334 V 1119.5247 H 0 Z"
         transform="matrix(0.334067,0,0,0.334067,-471.98438,-337)"
         clip-rule="evenodd"
         id="path69" />
    </clipPath>
    <clipPath
       clipPathUnits="userSpaceOnUse"
       id="clipPath70">
      <path
         d="M 0,0 H 1658.3334 V 1119.5247 H 0 Z"
         transform="matrix(0.334067,0,0,0.334067,-461.71875,-359)"
         clip-rule="evenodd"
         id="path70" />
    </clipPath>
    <clipPath
       clipPathUnits="userSpaceOnUse"
       id="clipPath72">
      <path
         d="M 0,0 H 1658.3334 V 1119.5247 H 0 Z"
         transform="matrix(0.33407035,0,0,0.33407035,-0.5,-0.5)"
         clip-rule="evenodd"
         id="path72" />
    </clipPath>
    <clipPath
       clipPathUnits="userSpaceOnUse"
       id="clipPath73">
      <path
         d="M 0,0 H 1658.3334 V 1119.5247 H 0 Z"
         transform="matrix(0.334067,0,0,0.334067,-181.98438,-337)"
         clip-rule="evenodd"
         id="path73" />
    </clipPath>
    <clipPath
       clipPathUnits="userSpaceOnUse"
       id="clipPath74">
      <path
         d="M 0,0 H 1658.3334 V 1119.5247 H 0 Z"
         transform="matrix(0.334067,0,0,0.334067,-171.71876,-359)"
         clip-rule="evenodd"
         id="path74" />
    </clipPath>
    <clipPath
       clipPathUnits="userSpaceOnUse"
       id="clipPath76">
      <path
         d="M 0,0 H 1658.3334 V 1119.5247 H 0 Z"
         transform="matrix(0.33407035,0,0,0.33407035,-0.5,-0.5)"
         clip-rule="evenodd"
         id="path76" />
    </clipPath>
    <clipPath
       clipPathUnits="userSpaceOnUse"
       id="clipPath77">
      <path
         d="M 0,0 H 1658.3334 V 1119.5247 H 0 Z"
         transform="matrix(0.334067,0,0,0.334067,-41.984375,-337)"
         clip-rule="evenodd"
         id="path77" />
    </clipPath>
    <clipPath
       clipPathUnits="userSpaceOnUse"
       id="clipPath78">
      <path
         d="M 0,0 H 1658.3334 V 1119.5247 H 0 Z"
         transform="matrix(0.334067,0,0,0.334067,-31.71875,-359)"
         clip-rule="evenodd"
         id="path78" />
    </clipPath>
  </defs>
  <sodipodi:namedview
     id="namedview1"
     pagecolor="#ffffff"
     bordercolor="#000000"
     borderopacity="0.25"
     inkscape:showpageshadow="2"
     inkscape:pageopacity="0.0"
     inkscape:pagecheckerboard="0"
     inkscape:deskcolor="#d1d1d1">
    <inkscape:page
       x="0"
       y="0"
       inkscape:label="1"
       id="page1"
       width="530.56"
       height="360"
       margin="0"
       bleed="0" />
  </sodipodi:namedview>
  <g
     id="g1"
     inkscape:groupmode="layer"
     inkscape:label="1">
    <path
       id="path1"
       d="M 0,0 H 554 V 375 H 0 Z"
       style="fill:#ffffff;fill-opacity:1;fill-rule:nonzero;stroke:none"
       transform="scale(0.95788204)"
       clip-path="url(#clipPath2)" />
    <path
       id="path3"
       d="M 241,61 V 86 H 101 v 18.63"
       style="fill:none;stroke:#000000;stroke-width:1;stroke-linecap:butt;stroke-linejoin:miter;stroke-miterlimit:10;stroke-dasharray:none;stroke-opacity:1"
       transform="matrix(0.95788204,0,0,0.95788204,0.47894102,0.47894102)"
       clip-path="url(#clipPath4)" />
    <path
       id="path5"
       d="m 101,109.88 -3.5,-7 3.5,1.75 3.5,-1.75 z"
       style="fill:#000000;fill-opacity:1;fill-rule:nonzero;stroke:#000000;stroke-width:1;stroke-linecap:butt;stroke-linejoin:miter;stroke-miterlimit:10;stroke-dasharray:none;stroke-opacity:1"
       transform="matrix(0.95788204,0,0,0.95788204,0.47894102,0.47894102)"
       clip-path="url(#clipPath6)" />
    <path
       id="path7"
       d="m 241,61 v 25 h 113 v 18.63"
       style="fill:none;stroke:#000000;stroke-width:1;stroke-linecap:butt;stroke-linejoin:miter;stroke-miterlimit:10;stroke-dasharray:none;stroke-opacity:1"
       transform="matrix(0.95788204,0,0,0.95788204,0.47894102,0.47894102)"
       clip-path="url(#clipPath8)" />
    <path
       id="path9"
       d="m 354,109.88 -3.5,-7 3.5,1.75 3.5,-1.75 z"
       style="fill:#000000;fill-opacity:1;fill-rule:nonzero;stroke:#000000;stroke-width:1;stroke-linecap:butt;stroke-linejoin:miter;stroke-miterlimit:10;stroke-dasharray:none;stroke-opacity:1"
       transform="matrix(0.95788204,0,0,0.95788204,0.47894102,0.47894102)"
       clip-path="url(#clipPath10)" />
    <path
       id="path11"
       d="M 181,1 H 301 V 61 H 181 Z"
       style="fill:#ffffff;fill-opacity:1;fill-rule:nonzero;stroke:#000000;stroke-width:1;stroke-linecap:butt;stroke-linejoin:miter;stroke-miterlimit:10;stroke-dasharray:none;stroke-opacity:1"
       transform="matrix(0.95788204,0,0,0.95788204,0.47894102,0.47894102)"
       clip-path="url(#clipPath12)" />
    <text
       id="text12"
       xml:space="preserve"
       transform="matrix(0.95789164,0,0,0.95789164,212.63698,25.863074)"
       clip-path="url(#clipPath13)"><tspan
         style="font-variant:normal;font-weight:normal;font-size:18px;font-family:Helvetica;writing-mode:lr-tb;fill:#000000;fill-opacity:1;fill-rule:nonzero;stroke:none"
         x="0 12.999023 21.999023 32.009766"
         y="0"
         sodipodi:role="line"
         id="tspan12">User</tspan></text>
    <text
       id="text13"
       xml:space="preserve"
       transform="matrix(0.95789164,0,0,0.95789164,207.60805,46.93669)"
       clip-path="url(#clipPath14)"><tspan
         style="font-variant:normal;font-weight:normal;font-size:18px;font-family:Helvetica;writing-mode:lr-tb;fill:#000000;fill-opacity:1;fill-rule:nonzero;stroke:none"
         x="0 5.0009766 18 23.000977 33.512695 38.513672"
         y="0"
         sodipodi:role="line"
         id="tspan13">ID = 1</tspan></text>
    <path
       id="path15"
       d="m 101,171 v 33.63"
       style="fill:none;stroke:#000000;stroke-width:1;stroke-linecap:butt;stroke-linejoin:miter;stroke-miterlimit:10;stroke-dasharray:none;stroke-opacity:1"
       transform="matrix(0.95788204,0,0,0.95788204,0.47894102,0.47894102)"
       clip-path="url(#clipPath16)" />
    <path
       id="path17"
       d="m 101,209.88 -3.5,-7 3.5,1.75 3.5,-1.75 z"
       style="fill:#000000;fill-opacity:1;fill-rule:nonzero;stroke:#000000;stroke-width:1;stroke-linecap:butt;stroke-linejoin:miter;stroke-miterlimit:10;stroke-dasharray:none;stroke-opacity:1"
       transform="matrix(0.95788204,0,0,0.95788204,0.47894102,0.47894102)"
       clip-path="url(#clipPath18)" />
    <path
       id="path19"
       d="m 41,111 h 120 v 60 H 41 Z"
       style="fill:#dae8fc;fill-opacity:1;fill-rule:nonzero;stroke:#6c8ebf;stroke-width:1;stroke-linecap:butt;stroke-linejoin:miter;stroke-miterlimit:10;stroke-dasharray:none;stroke-opacity:1"
       transform="matrix(0.95788204,0,0,0.95788204,0.47894102,0.47894102)"
       clip-path="url(#clipPath20)" />
    <text
       id="text20"
       xml:space="preserve"
       transform="matrix(0.95789164,0,0,0.95789164,78.532147,131.23115)"
       clip-path="url(#clipPath21)"><tspan
         style="font-variant:normal;font-weight:normal;font-size:18px;font-family:Helvetica;writing-mode:lr-tb;fill:#000000;fill-opacity:1;fill-rule:nonzero;stroke:none"
         x="0 12.999023 21.999023 32.009766"
         y="0"
         sodipodi:role="line"
         id="tspan20">User</tspan></text>
    <text
       id="text21"
       xml:space="preserve"
       transform="matrix(0.95789164,0,0,0.95789164,73.503216,152.30477)"
       clip-path="url(#clipPath22)"><tspan
         style="font-variant:normal;font-weight:normal;font-size:18px;font-family:Helvetica;writing-mode:lr-tb;fill:#000000;fill-opacity:1;fill-rule:nonzero;stroke:none"
         x="0 5.0009766 18 23.000977 33.512695 38.513672"
         y="0"
         sodipodi:role="line"
         id="tspan21">ID = 4</tspan></text>
    <path
       id="path23"
       d="m 354,171 v 20 h -73 v 13.63"
       style="fill:none;stroke:#000000;stroke-width:1;stroke-linecap:butt;stroke-linejoin:miter;stroke-miterlimit:10;stroke-dasharray:none;stroke-opacity:1"
       transform="matrix(0.95788204,0,0,0.95788204,0.47894102,0.47894102)"
       clip-path="url(#clipPath24)" />
    <path
       id="path25"
       d="m 281,209.88 -3.5,-7 3.5,1.75 3.5,-1.75 z"
       style="fill:#000000;fill-opacity:1;fill-rule:nonzero;stroke:#000000;stroke-width:1;stroke-linecap:butt;stroke-linejoin:miter;stroke-miterlimit:10;stroke-dasharray:none;stroke-opacity:1"
       transform="matrix(0.95788204,0,0,0.95788204,0.47894102,0.47894102)"
       clip-path="url(#clipPath26)" />
    <path
       id="path27"
       d="m 354,171 v 20 h 77 v 13.63"
       style="fill:none;stroke:#000000;stroke-width:1;stroke-linecap:butt;stroke-linejoin:miter;stroke-miterlimit:10;stroke-dasharray:none;stroke-opacity:1"
       transform="matrix(0.95788204,0,0,0.95788204,0.47894102,0.47894102)"
       clip-path="url(#clipPath28)" />
    <path
       id="path29"
       d="m 431,209.88 -3.5,-7 3.5,1.75 3.5,-1.75 z"
       style="fill:#000000;fill-opacity:1;fill-rule:nonzero;stroke:#000000;stroke-width:1;stroke-linecap:butt;stroke-linejoin:miter;stroke-miterlimit:10;stroke-dasharray:none;stroke-opacity:1"
       transform="matrix(0.95788204,0,0,0.95788204,0.47894102,0.47894102)"
       clip-path="url(#clipPath30)" />
    <path
       id="path31"
       d="m 294,111 h 120 v 60 H 294 Z"
       style="fill:#dae8fc;fill-opacity:1;fill-rule:nonzero;stroke:#6c8ebf;stroke-width:1;stroke-linecap:butt;stroke-linejoin:miter;stroke-miterlimit:10;stroke-dasharray:none;stroke-opacity:1"
       transform="matrix(0.95788204,0,0,0.95788204,0.47894102,0.47894102)"
       clip-path="url(#clipPath32)" />
    <text
       id="text32"
       xml:space="preserve"
       transform="matrix(0.95789164,0,0,0.95789164,320.87874,131.23115)"
       clip-path="url(#clipPath33)"><tspan
         style="font-variant:normal;font-weight:normal;font-size:18px;font-family:Helvetica;writing-mode:lr-tb;fill:#000000;fill-opacity:1;fill-rule:nonzero;stroke:none"
         x="0 12.999023 21.999023 32.009766"
         y="0"
         sodipodi:role="line"
         id="tspan32">User</tspan></text>
    <text
       id="text33"
       xml:space="preserve"
       transform="matrix(0.95789164,0,0,0.95789164,315.84981,152.30477)"
       clip-path="url(#clipPath34)"><tspan
         style="font-variant:normal;font-weight:normal;font-size:18px;font-family:Helvetica;writing-mode:lr-tb;fill:#000000;fill-opacity:1;fill-rule:nonzero;stroke:none"
         x="0 5.0009766 18 23.000977 33.512695 38.513672"
         y="0"
         sodipodi:role="line"
         id="tspan33">ID = 5</tspan></text>
    <path
       id="path35"
       d="m 281,271 v 20 h 60 v 13.64001"
       style="fill:none;stroke:#000000;stroke-width:1;stroke-linecap:butt;stroke-linejoin:miter;stroke-miterlimit:10;stroke-dasharray:none;stroke-opacity:1"
       transform="matrix(0.95788204,0,0,0.95788204,0.47894102,0.47894102)"
       clip-path="url(#clipPath36)" />
    <path
       id="path37"
       d="m 341,309.89001 -3.5,-7 3.5,1.75 3.5,-1.76001 z"
       style="fill:#000000;fill-opacity:1;fill-rule:nonzero;stroke:#000000;stroke-width:1;stroke-linecap:butt;stroke-linejoin:miter;stroke-miterlimit:10;stroke-dasharray:none;stroke-opacity:1"
       transform="matrix(0.95788204,0,0,0.95788204,0.47894102,0.47894102)"
       clip-path="url(#clipPath38)" />
    <path
       id="path39"
       d="m 221,211 h 120 v 60 H 221 Z"
       style="fill:#e1d5e7;fill-opacity:1;fill-rule:nonzero;stroke:#9673a6;stroke-width:1;stroke-linecap:butt;stroke-linejoin:miter;stroke-miterlimit:10;stroke-dasharray:none;stroke-opacity:1"
       transform="matrix(0.95788204,0,0,0.95788204,0.47894102,0.47894102)"
       clip-path="url(#clipPath40)" />
    <text
       id="text40"
       xml:space="preserve"
       transform="matrix(0.95789164,0,0,0.95789164,250.95265,227.02032)"
       clip-path="url(#clipPath41)"><tspan
         style="font-variant:normal;font-weight:normal;font-size:18px;font-family:Helvetica;writing-mode:lr-tb;fill:#000000;fill-opacity:1;fill-rule:nonzero;stroke:none"
         x="0 12.999023 21.999023 32.009766"
         y="0"
         sodipodi:role="line"
         id="tspan40">User</tspan></text>
    <text
       id="text41"
       xml:space="preserve"
       transform="matrix(0.95789164,0,0,0.95789164,245.92372,248.09393)"
       clip-path="url(#clipPath42)"><tspan
         style="font-variant:normal;font-weight:normal;font-size:18px;font-family:Helvetica;writing-mode:lr-tb;fill:#000000;fill-opacity:1;fill-rule:nonzero;stroke:none"
         x="0 5.0009766 18 23.000977 33.512695 38.513672"
         y="0"
         sodipodi:role="line"
         id="tspan41">ID = 2</tspan></text>
    <path
       id="path43"
       d="m 431,271 v 20 h 60 v 13.64001"
       style="fill:none;stroke:#000000;stroke-width:1;stroke-linecap:butt;stroke-linejoin:miter;stroke-miterlimit:10;stroke-dasharray:none;stroke-opacity:1"
       transform="matrix(0.95788204,0,0,0.95788204,0.47894102,0.47894102)"
       clip-path="url(#clipPath44)" />
    <path
       id="path45"
       d="m 491,309.89001 -3.5,-7 3.5,1.75 3.5,-1.76001 z"
       style="fill:#000000;fill-opacity:1;fill-rule:nonzero;stroke:#000000;stroke-width:1;stroke-linecap:butt;stroke-linejoin:miter;stroke-miterlimit:10;stroke-dasharray:none;stroke-opacity:1"
       transform="matrix(0.95788204,0,0,0.95788204,0.47894102,0.47894102)"
       clip-path="url(#clipPath46)" />
    <path
       id="path47"
       d="m 371,211 h 120 v 60 H 371 Z"
       style="fill:#e1d5e7;fill-opacity:1;fill-rule:nonzero;stroke:#9673a6;stroke-width:1;stroke-linecap:butt;stroke-linejoin:miter;stroke-miterlimit:10;stroke-dasharray:none;stroke-opacity:1"
       transform="matrix(0.95788204,0,0,0.95788204,0.47894102,0.47894102)"
       clip-path="url(#clipPath48)" />
    <text
       id="text48"
       xml:space="preserve"
       transform="matrix(0.95789164,0,0,0.95789164,394.63639,227.02032)"
       clip-path="url(#clipPath49)"><tspan
         style="font-variant:normal;font-weight:normal;font-size:18px;font-family:Helvetica;writing-mode:lr-tb;fill:#000000;fill-opacity:1;fill-rule:nonzero;stroke:none"
         x="0 12.999023 21.999023 32.009766"
         y="0"
         sodipodi:role="line"
         id="tspan48">User</tspan></text>
    <text
       id="text49"
       xml:space="preserve"
       transform="matrix(0.95789164,0,0,0.95789164,389.60746,248.09393)"
       clip-path="url(#clipPath50)"><tspan
         style="font-variant:normal;font-weight:normal;font-size:18px;font-family:Helvetica;writing-mode:lr-tb;fill:#000000;fill-opacity:1;fill-rule:nonzero;stroke:none"
         x="0 5.0009766 18 23.000977 33.512695 38.513672"
         y="0"
         sodipodi:role="line"
         id="tspan49">ID = 6</tspan></text>
    <path
       id="path51"
       d="m 101,271 v 20 h 100 v 13.64001"
       style="fill:none;stroke:#000000;stroke-width:1;stroke-linecap:butt;stroke-linejoin:miter;stroke-miterlimit:10;stroke-dasharray:none;stroke-opacity:1"
       transform="matrix(0.95788204,0,0,0.95788204,0.47894102,0.47894102)"
       clip-path="url(#clipPath52)" />
    <path
       id="path53"
       d="m 201,309.89001 -3.5,-7 3.5,1.75 3.5,-1.76001 z"
       style="fill:#000000;fill-opacity:1;fill-rule:nonzero;stroke:#000000;stroke-width:1;stroke-linecap:butt;stroke-linejoin:miter;stroke-miterlimit:10;stroke-dasharray:none;stroke-opacity:1"
       transform="matrix(0.95788204,0,0,0.95788204,0.47894102,0.47894102)"
       clip-path="url(#clipPath54)" />
    <path
       id="path55"
       d="m 101,271 v 20 H 61 v 13.64001"
       style="fill:none;stroke:#000000;stroke-width:1;stroke-linecap:butt;stroke-linejoin:miter;stroke-miterlimit:10;stroke-dasharray:none;stroke-opacity:1"
       transform="matrix(0.95788204,0,0,0.95788204,0.47894102,0.47894102)"
       clip-path="url(#clipPath56)" />
    <path
       id="path57"
       d="m 61,309.89001 -3.5,-7 3.5,1.75 3.5,-1.75 z"
       style="fill:#000000;fill-opacity:1;fill-rule:nonzero;stroke:#000000;stroke-width:1;stroke-linecap:butt;stroke-linejoin:miter;stroke-miterlimit:10;stroke-dasharray:none;stroke-opacity:1"
       transform="matrix(0.95788204,0,0,0.95788204,0.47894102,0.47894102)"
       clip-path="url(#clipPath58)" />
    <path
       id="path59"
       d="m 41,211 h 120 v 60 H 41 Z"
       style="fill:#e1d5e7;fill-opacity:1;fill-rule:nonzero;stroke:#9673a6;stroke-width:1;stroke-linecap:butt;stroke-linejoin:miter;stroke-miterlimit:10;stroke-dasharray:none;stroke-opacity:1"
       transform="matrix(0.95788204,0,0,0.95788204,0.47894102,0.47894102)"
       clip-path="url(#clipPath60)" />
    <text
       id="text60"
       xml:space="preserve"
       transform="matrix(0.95789164,0,0,0.95789164,78.532147,227.02032)"
       clip-path="url(#clipPath61)"><tspan
         style="font-variant:normal;font-weight:normal;font-size:18px;font-family:Helvetica;writing-mode:lr-tb;fill:#000000;fill-opacity:1;fill-rule:nonzero;stroke:none"
         x="0 12.999023 21.999023 32.009766"
         y="0"
         sodipodi:role="line"
         id="tspan60">User</tspan></text>
    <text
       id="text61"
       xml:space="preserve"
       transform="matrix(0.95789164,0,0,0.95789164,73.503216,248.09393)"
       clip-path="url(#clipPath62)"><tspan
         style="font-variant:normal;font-weight:normal;font-size:18px;font-family:Helvetica;writing-mode:lr-tb;fill:#000000;fill-opacity:1;fill-rule:nonzero;stroke:none"
         x="0 5.0009766 18 23.000977 33.512695 38.513672"
         y="0"
         sodipodi:role="line"
         id="tspan61">ID = 3</tspan></text>
    <path
       id="path63"
       d="m 281,311 h 120 v 60 H 281 Z"
       style="fill:#fff2cc;fill-opacity:1;fill-rule:nonzero;stroke:#d6b656;stroke-width:1;stroke-linecap:butt;stroke-linejoin:miter;stroke-miterlimit:10;stroke-dasharray:none;stroke-opacity:1"
       transform="matrix(0.95788204,0,0,0.95788204,0.47894102,0.47894102)"
       clip-path="url(#clipPath64)" />
    <text
       id="text64"
       xml:space="preserve"
       transform="matrix(0.95789164,0,0,0.95789164,308.42615,322.80948)"
       clip-path="url(#clipPath65)"><tspan
         style="font-variant:normal;font-weight:normal;font-size:18px;font-family:Helvetica;writing-mode:lr-tb;fill:#000000;fill-opacity:1;fill-rule:nonzero;stroke:none"
         x="0 12.999023 21.999023 32.009766"
         y="0"
         sodipodi:role="line"
         id="tspan64">User</tspan></text>
    <text
       id="text65"
       xml:space="preserve"
       transform="matrix(0.95789164,0,0,0.95789164,298.59278,343.8831)"
       clip-path="url(#clipPath66)"><tspan
         style="font-variant:normal;font-weight:normal;font-size:18px;font-family:Helvetica;writing-mode:lr-tb;fill:#000000;fill-opacity:1;fill-rule:nonzero;stroke:none"
         x="0 5.0009766 18 23.000977 33.512695 38.513672 48.524414"
         y="0"
         sodipodi:role="line"
         id="tspan65">ID = 25</tspan></text>
    <path
       id="path67"
       d="m 431,311 h 120 v 60 H 431 Z"
       style="fill:#fff2cc;fill-opacity:1;fill-rule:nonzero;stroke:#d6b656;stroke-width:1;stroke-linecap:butt;stroke-linejoin:miter;stroke-miterlimit:10;stroke-dasharray:none;stroke-opacity:1"
       transform="matrix(0.95788204,0,0,0.95788204,0.47894102,0.47894102)"
       clip-path="url(#clipPath68)" />
    <text
       id="text68"
       xml:space="preserve"
       transform="matrix(0.95789164,0,0,0.95789164,452.10989,322.80948)"
       clip-path="url(#clipPath69)"><tspan
         style="font-variant:normal;font-weight:normal;font-size:18px;font-family:Helvetica;writing-mode:lr-tb;fill:#000000;fill-opacity:1;fill-rule:nonzero;stroke:none"
         x="0 12.999023 21.999023 32.009766"
         y="0"
         sodipodi:role="line"
         id="tspan68">User</tspan></text>
    <text
       id="text69"
       xml:space="preserve"
       transform="matrix(0.95789164,0,0,0.95789164,442.27653,343.8831)"
       clip-path="url(#clipPath70)"><tspan
         style="font-variant:normal;font-weight:normal;font-size:18px;font-family:Helvetica;writing-mode:lr-tb;fill:#000000;fill-opacity:1;fill-rule:nonzero;stroke:none"
         x="0 5.0009766 18 23.000977 33.512695 38.513672 48.524414"
         y="0"
         sodipodi:role="line"
         id="tspan69">ID = 60</tspan></text>
    <path
       id="path71"
       d="m 141,311 h 120 v 60 H 141 Z"
       style="fill:#fff2cc;fill-opacity:1;fill-rule:nonzero;stroke:#d6b656;stroke-width:1;stroke-linecap:butt;stroke-linejoin:miter;stroke-miterlimit:10;stroke-dasharray:none;stroke-opacity:1"
       transform="matrix(0.95788204,0,0,0.95788204,0.47894102,0.47894102)"
       clip-path="url(#clipPath72)" />
    <text
       id="text72"
       xml:space="preserve"
       transform="matrix(0.95789164,0,0,0.95789164,174.32132,322.80948)"
       clip-path="url(#clipPath73)"><tspan
         style="font-variant:normal;font-weight:normal;font-size:18px;font-family:Helvetica;writing-mode:lr-tb;fill:#000000;fill-opacity:1;fill-rule:nonzero;stroke:none"
         x="0 12.999023 21.999023 32.009766"
         y="0"
         sodipodi:role="line"
         id="tspan72">User</tspan></text>
    <text
       id="text73"
       xml:space="preserve"
       transform="matrix(0.95789164,0,0,0.95789164,164.48796,343.8831)"
       clip-path="url(#clipPath74)"><tspan
         style="font-variant:normal;font-weight:normal;font-size:18px;font-family:Helvetica;writing-mode:lr-tb;fill:#000000;fill-opacity:1;fill-rule:nonzero;stroke:none"
         x="0 5.0009766 18 23.000977 33.512695 38.513672 48.524414"
         y="0"
         sodipodi:role="line"
         id="tspan73">ID = 43</tspan></text>
    <path
       id="path75"
       d="m 1,311 h 120 v 60 H 1 Z"
       style="fill:#fff2cc;fill-opacity:1;fill-rule:nonzero;stroke:#d6b656;stroke-width:1;stroke-linecap:butt;stroke-linejoin:miter;stroke-miterlimit:10;stroke-dasharray:none;stroke-opacity:1"
       transform="matrix(0.95788204,0,0,0.95788204,0.47894102,0.47894102)"
       clip-path="url(#clipPath76)" />
    <text
       id="text76"
       xml:space="preserve"
       transform="matrix(0.95789164,0,0,0.95789164,40.216482,322.80948)"
       clip-path="url(#clipPath77)"><tspan
         style="font-variant:normal;font-weight:normal;font-size:18px;font-family:Helvetica;writing-mode:lr-tb;fill:#000000;fill-opacity:1;fill-rule:nonzero;stroke:none"
         x="0 12.999023 21.999023 32.009766"
         y="0"
         sodipodi:role="line"
         id="tspan76">User</tspan></text>
    <text
       id="text77"
       xml:space="preserve"
       transform="matrix(0.95789164,0,0,0.95789164,30.383125,343.8831)"
       clip-path="url(#clipPath78)"><tspan
         style="font-variant:normal;font-weight:normal;font-size:18px;font-family:Helvetica;writing-mode:lr-tb;fill:#000000;fill-opacity:1;fill-rule:nonzero;stroke:none"
         x="0 5.0009766 18 23.000977 33.512695 38.513672 48.524414"
         y="0"
         sodipodi:role="line"
         id="tspan77">ID = 13</tspan></text>
  </g>
</svg>
