<?xml version="1.0" encoding="UTF-8" standalone="no"?>
<!-- Created with Inkscape (http://www.inkscape.org/) -->

<svg
   version="1.1"
   id="svg1"
   width="377.28"
   height="189.44"
   viewBox="0 0 377.28 189.44"
   sodipodi:docname="sql-1.pdf"
   xmlns:inkscape="http://www.inkscape.org/namespaces/inkscape"
   xmlns:sodipodi="http://sodipodi.sourceforge.net/DTD/sodipodi-0.dtd"
   xmlns="http://www.w3.org/2000/svg"
   xmlns:svg="http://www.w3.org/2000/svg">
  <defs
     id="defs1">
    <clipPath
       clipPathUnits="userSpaceOnUse"
       id="clipPath2">
      <path
         d="M 0,0 H 1179.1666 V 589.58331 H 0 Z"
         transform="scale(0.33413427)"
         clip-rule="evenodd"
         id="path2" />
    </clipPath>
    <clipPath
       clipPathUnits="userSpaceOnUse"
       id="clipPath4">
      <path
         d="M 0,0 H 1179.1666 V 583.59772 H 0 Z"
         transform="matrix(0.33413427,0,0,0.33413427,-0.5,-0.5)"
         clip-rule="evenodd"
         id="path4" />
    </clipPath>
    <clipPath
       clipPathUnits="userSpaceOnUse"
       id="clipPath5">
      <path
         d="M 0,0 H 1179.1666 V 583.59772 H 0 Z"
         transform="matrix(0.33413091,0,0,0.33413091,-17.671875,-45)"
         clip-rule="evenodd"
         id="path5" />
    </clipPath>
    <clipPath
       clipPathUnits="userSpaceOnUse"
       id="clipPath6">
      <path
         d="M 0,0 H 1179.1666 V 583.59772 H 0 Z"
         transform="matrix(0.33413091,0,0,0.33413091,-165.14063,-63)"
         clip-rule="evenodd"
         id="path6" />
    </clipPath>
    <clipPath
       clipPathUnits="userSpaceOnUse"
       id="clipPath7">
      <path
         d="M 0,0 H 1179.1666 V 583.59772 H 0 Z"
         transform="matrix(0.33413091,0,0,0.33413091,-115.6875,-16)"
         clip-rule="evenodd"
         id="path7" />
    </clipPath>
    <clipPath
       clipPathUnits="userSpaceOnUse"
       id="clipPath9">
      <path
         d="M 0,0 H 1179.1666 V 583.59772 H 0 Z"
         transform="matrix(0.33413427,0,0,0.33413427,-0.5,-0.5)"
         clip-rule="evenodd"
         id="path9" />
    </clipPath>
    <clipPath
       clipPathUnits="userSpaceOnUse"
       id="clipPath10">
      <path
         d="M 0,0 H 1179.1666 V 583.59772 H 0 Z"
         transform="matrix(0.33413091,0,0,0.33413091,-12.984375,-105)"
         clip-rule="evenodd"
         id="path10" />
    </clipPath>
    <clipPath
       clipPathUnits="userSpaceOnUse"
       id="clipPath11">
      <path
         d="M 0,0 H 1179.1666 V 583.59772 H 0 Z"
         transform="matrix(0.33413091,0,0,0.33413091,-126.78125,-123)"
         clip-rule="evenodd"
         id="path11" />
    </clipPath>
    <clipPath
       clipPathUnits="userSpaceOnUse"
       id="clipPath12">
      <path
         d="M 0,0 H 1179.1666 V 583.59772 H 0 Z"
         transform="matrix(0.33413091,0,0,0.33413091,-199.32813,-123)"
         clip-rule="evenodd"
         id="path12" />
    </clipPath>
    <clipPath
       clipPathUnits="userSpaceOnUse"
       id="clipPath13">
      <path
         d="M 0,0 H 1179.1666 V 583.59772 H 0 Z"
         transform="matrix(0.33413091,0,0,0.33413091,-215.17188,-123)"
         clip-rule="evenodd"
         id="path13" />
    </clipPath>
    <clipPath
       clipPathUnits="userSpaceOnUse"
       id="clipPath15">
      <path
         d="M 0,0 H 1179.1666 V 583.59772 H 0 Z"
         transform="matrix(0.33413427,0,0,0.33413427,-0.5,-0.5)"
         clip-rule="evenodd"
         id="path15" />
    </clipPath>
    <clipPath
       clipPathUnits="userSpaceOnUse"
       id="clipPath16">
      <path
         d="M 0,0 H 1179.1666 V 583.59772 H 0 Z"
         transform="matrix(0.33413091,0,0,0.33413091,-11.453125,-165)"
         clip-rule="evenodd"
         id="path16" />
    </clipPath>
    <clipPath
       clipPathUnits="userSpaceOnUse"
       id="clipPath17">
      <path
         d="M 0,0 H 1179.1666 V 583.59772 H 0 Z"
         transform="matrix(0.33413091,0,0,0.33413091,-175.15625,-183)"
         clip-rule="evenodd"
         id="path17" />
    </clipPath>
  </defs>
  <sodipodi:namedview
     id="namedview1"
     pagecolor="#ffffff"
     bordercolor="#000000"
     borderopacity="0.25"
     inkscape:showpageshadow="2"
     inkscape:pageopacity="0.0"
     inkscape:pagecheckerboard="0"
     inkscape:deskcolor="#d1d1d1">
    <inkscape:page
       x="0"
       y="0"
       inkscape:label="1"
       id="page1"
       width="377.28"
       height="189.44"
       margin="0"
       bleed="0" />
  </sodipodi:namedview>
  <g
     id="g1"
     inkscape:groupmode="layer"
     inkscape:label="1">
    <path
       id="path1"
       d="M 0,0 H 394 V 197 H 0 Z"
       style="fill:#ffffff;fill-opacity:1;fill-rule:nonzero;stroke:none"
       transform="scale(0.95769878)"
       clip-path="url(#clipPath2)" />
    <path
       id="path3"
       d="M 1,23 H 391 V 73 H 1 Z"
       style="fill:#dae8fc;fill-opacity:1;fill-rule:nonzero;stroke:#6c8ebf;stroke-width:1;stroke-linecap:butt;stroke-linejoin:miter;stroke-miterlimit:10;stroke-dasharray:none;stroke-opacity:1"
       transform="matrix(0.95769878,0,0,0.95769878,0.47884939,0.47884939)"
       clip-path="url(#clipPath4)" />
    <text
       id="text4"
       xml:space="preserve"
       transform="matrix(0.95770841,0,0,0.95770841,16.924503,43.096878)"
       clip-path="url(#clipPath5)"><tspan
         style="font-variant:normal;font-weight:normal;font-size:15px;font-family:Helvetica;writing-mode:lr-tb;fill:#000000;fill-opacity:1;fill-rule:nonzero;stroke:none"
         x="0 13.894043 22.236328 26.403809 34.746094 43.088379 51.430664 59.772949 63.94043 68.10791 76.450195 80.617676 88.959961 97.302246 101.46973 105.63721 109.80469 118.14697 125.64697 133.98926 138.15674 146.49902 154.84131 159.00879 167.35107 171.51855 174.85107 183.19336 187.36084 195.70312 199.87061 204.03809 212.38037 220.72266 224.89014 233.23242 241.57471 245.74219 254.08447 262.42676 270.76904 278.26904 286.61133 290.77881 294.94629 303.28857 308.28369 312.45117 316.61865 324.96094 332.46094 336.62842 339.96094 348.30322"
         y="0"
         sodipodi:role="line"
         id="tspan4">We need to put fake data into the database for testing</tspan></text>
    <text
       id="text5"
       xml:space="preserve"
       transform="matrix(0.95770841,0,0,0.95770841,158.15657,60.33563)"
       clip-path="url(#clipPath6)"><tspan
         style="font-variant:normal;font-weight:normal;font-size:15px;font-family:Helvetica;writing-mode:lr-tb;fill:#000000;fill-opacity:1;fill-rule:nonzero;stroke:none"
         x="0 8.3422852 16.68457 21.679688 30.021973 38.364258 45.864258 54.206543"
         y="0"
         sodipodi:role="line"
         id="tspan5">purposes</tspan></text>
    <text
       id="text6"
       xml:space="preserve"
       transform="matrix(0.95770841,0,0,0.95770841,110.79489,15.323335)"
       clip-path="url(#clipPath7)"><tspan
         style="font-variant:normal;font-weight:700;font-size:17px;font-family:Helvetica;writing-mode:lr-tb;fill:#000000;fill-opacity:1;fill-rule:nonzero;stroke:none"
         x="0 11.338867 20.793457 30.248047 40.632324 45.355469 55.739746 66.124023 70.847168 80.301758 85.024902 97.301758 106.75635 112.41748 121.87207 132.25635 141.71094 151.16553"
         y="0"
         sodipodi:role="line"
         id="tspan6">Seeding a Database</tspan></text>
    <path
       id="path8"
       d="m 1,83 h 390 v 50 H 1 Z"
       style="fill:#dae8fc;fill-opacity:1;fill-rule:nonzero;stroke:#6c8ebf;stroke-width:1;stroke-linecap:butt;stroke-linejoin:miter;stroke-miterlimit:10;stroke-dasharray:none;stroke-opacity:1"
       transform="matrix(0.95769878,0,0,0.95769878,0.47884939,0.47884939)"
       clip-path="url(#clipPath9)" />
    <text
       id="text9"
       xml:space="preserve"
       transform="matrix(0.95770841,0,0,0.95770841,12.435245,100.55938)"
       clip-path="url(#clipPath10)"><tspan
         style="font-variant:normal;font-weight:normal;font-size:15px;font-family:Helvetica;writing-mode:lr-tb;fill:#000000;fill-opacity:1;fill-rule:nonzero;stroke:none"
         x="0 10.83252 19.174805 27.51709 30.849609 39.191895 43.359375 55.854492 64.196777 72.539062 80.881348 89.223633 92.556152 95.888672 103.38867 107.55615 110.88867 119.23096 126.73096 135.07324 140.06836 144.23584 148.40332 156.74561 165.08789 169.25537 174.25049 182.59277 190.09277 198.43506 203.43018 211.77246 219.27246 223.43994 227.60742 235.94971 244.29199 248.45947 252.62695 256.79443 265.13672 272.63672 276.8042 280.13672 288.479 296.82129 300.98877 304.32129 311.82129 315.98877 324.33105 332.67334 336.84082 341.0083 349.35059 354.3457 358.51318 361.8457"
         y="0"
         sodipodi:role="line"
         id="tspan9">Could manually insert 10 records, but testing is better if</tspan></text>
    <text
       id="text10"
       xml:space="preserve"
       transform="matrix(0.95770841,0,0,0.95770841,121.41947,117.79813)"
       clip-path="url(#clipPath11)"><tspan
         style="font-variant:normal;font-weight:normal;font-size:15px;font-family:Helvetica;writing-mode:lr-tb;fill:#000000;fill-opacity:1;fill-rule:nonzero;stroke:none"
         x="0 10.83252 19.174805 23.342285 31.68457 40.026855 47.526855 55.869141 60.036621 68.378906"
         y="0"
         sodipodi:role="line"
         id="tspan10">we have a </tspan></text>
    <text
       id="text11"
       xml:space="preserve"
       transform="matrix(0.95770841,0,0,0.95770841,190.89823,117.79813)"
       clip-path="url(#clipPath12)"><tspan
         style="font-style:oblique;font-variant:normal;font-weight:normal;font-size:15px;font-family:Helvetica;writing-mode:lr-tb;fill:#000000;fill-opacity:1;fill-rule:nonzero;stroke:none"
         x="0 3.3325195 11.674805"
         y="0"
         sodipodi:role="line"
         id="tspan11">lot</tspan></text>
    <text
       id="text12"
       xml:space="preserve"
       transform="matrix(0.95770841,0,0,0.95770841,206.07192,117.79813)"
       clip-path="url(#clipPath13)"><tspan
         style="font-variant:normal;font-weight:normal;font-size:15px;font-family:Helvetica;writing-mode:lr-tb;fill:#000000;fill-opacity:1;fill-rule:nonzero;stroke:none"
         x="0 4.1674805 12.509766 16.677246 20.844727 29.187012 37.529297 41.696777"
         y="0"
         sodipodi:role="line"
         id="tspan12"> of data</tspan></text>
    <path
       id="path14"
       d="m 1,143 h 390 v 50 H 1 Z"
       style="fill:#dae8fc;fill-opacity:1;fill-rule:nonzero;stroke:#6c8ebf;stroke-width:1;stroke-linecap:butt;stroke-linejoin:miter;stroke-miterlimit:10;stroke-dasharray:none;stroke-opacity:1"
       transform="matrix(0.95769878,0,0,0.95769878,0.47884939,0.47884939)"
       clip-path="url(#clipPath15)" />
    <text
       id="text15"
       xml:space="preserve"
       transform="matrix(0.95770841,0,0,0.95770841,10.968754,158.02189)"
       clip-path="url(#clipPath16)"><tspan
         style="font-variant:normal;font-weight:normal;font-size:15px;font-family:Helvetica;writing-mode:lr-tb;fill:#000000;fill-opacity:1;fill-rule:nonzero;stroke:none"
         x="0 13.894043 22.236328 26.403809 33.903809 42.246094 50.588379 54.755859 65.588379 70.583496 73.916016 78.083496 86.425781 90.593262 98.935547 103.10303 110.60303 118.10303 123.09814 126.43066 134.77295 138.94043 143.10791 147.27539 155.61768 159.78516 168.12744 176.46973 180.63721 188.97949 201.47461 209.81689 213.98438 217.31689 224.81689 233.15918 236.4917 239.82422 247.32422 251.4917 259.83398 268.17627 276.51855 284.86084 289.85596 298.19824 302.36572 310.70801 314.87549 319.04297 327.38525 335.72754 339.89502 348.2373 356.57959 360.74707"
         y="0"
         sodipodi:role="line"
         id="tspan15">We can write a script to automatically generate the data</tspan></text>
    <text
       id="text16"
       xml:space="preserve"
       transform="matrix(0.95770841,0,0,0.95770841,167.74861,175.26064)"
       clip-path="url(#clipPath17)"><tspan
         style="font-variant:normal;font-weight:normal;font-size:15px;font-family:Helvetica;writing-mode:lr-tb;fill:#000000;fill-opacity:1;fill-rule:nonzero;stroke:none"
         x="0 4.1674805 12.509766 17.504883 21.672363 30.014648 37.514648"
         y="0"
         sodipodi:role="line"
         id="tspan16">for us!</tspan></text>
  </g>
</svg>
