<?xml version="1.0" encoding="UTF-8" standalone="no"?>
<!-- Created with Inkscape (http://www.inkscape.org/) -->

<svg
   version="1.1"
   id="svg1"
   width="425.28"
   height="158.72"
   viewBox="0 0 425.28 158.72"
   sodipodi:docname="sql-6.pdf"
   xmlns:inkscape="http://www.inkscape.org/namespaces/inkscape"
   xmlns:sodipodi="http://sodipodi.sourceforge.net/DTD/sodipodi-0.dtd"
   xmlns="http://www.w3.org/2000/svg"
   xmlns:svg="http://www.w3.org/2000/svg">
  <defs
     id="defs1">
    <clipPath
       clipPathUnits="userSpaceOnUse"
       id="clipPath2">
      <path
         d="M 0,0 H 1329.1666 V 493.94705 H 0 Z"
         transform="scale(0.3340439)"
         clip-rule="evenodd"
         id="path2" />
    </clipPath>
    <clipPath
       clipPathUnits="userSpaceOnUse"
       id="clipPath4">
      <path
         d="M 0,0 H 1329.1666 V 490.95343 H 0 Z"
         transform="matrix(0.3340439,0,0,0.3340439,-0.5,-0.5)"
         clip-rule="evenodd"
         id="path4" />
    </clipPath>
    <clipPath
       clipPathUnits="userSpaceOnUse"
       id="clipPath5">
      <path
         d="M 0,0 H 1329.1666 V 490.95343 H 0 Z"
         transform="matrix(0.33404055,0,0,0.33404055,-182.46875,-23)"
         clip-rule="evenodd"
         id="path5" />
    </clipPath>
    <clipPath
       clipPathUnits="userSpaceOnUse"
       id="clipPath7">
      <path
         d="M 0,0 H 1329.1666 V 490.95343 H 0 Z"
         transform="matrix(0.3340439,0,0,0.3340439,-0.5,-0.5)"
         clip-rule="evenodd"
         id="path7" />
    </clipPath>
    <clipPath
       clipPathUnits="userSpaceOnUse"
       id="clipPath9">
      <path
         d="M 0,0 H 1329.1666 V 490.95343 H 0 Z"
         transform="matrix(0.3340439,0,0,0.3340439,-0.5,-0.5)"
         clip-rule="evenodd"
         id="path9" />
    </clipPath>
    <clipPath
       clipPathUnits="userSpaceOnUse"
       id="clipPath10">
      <path
         d="M 0,0 H 1329.1666 V 490.95343 H 0 Z"
         transform="matrix(0.33404055,0,0,0.33404055,-93.640625,-56)"
         clip-rule="evenodd"
         id="path10" />
    </clipPath>
    <clipPath
       clipPathUnits="userSpaceOnUse"
       id="clipPath12">
      <path
         d="M 0,0 H 1329.1666 V 490.95343 H 0 Z"
         transform="matrix(0.3340439,0,0,0.3340439,-0.5,-0.5)"
         clip-rule="evenodd"
         id="path12" />
    </clipPath>
    <clipPath
       clipPathUnits="userSpaceOnUse"
       id="clipPath13">
      <path
         d="M 0,0 H 1329.1666 V 490.95343 H 0 Z"
         transform="matrix(0.33404055,0,0,0.33404055,-56.328125,-75)"
         clip-rule="evenodd"
         id="path13" />
    </clipPath>
    <clipPath
       clipPathUnits="userSpaceOnUse"
       id="clipPath15">
      <path
         d="M 0,0 H 1329.1666 V 490.95343 H 0 Z"
         transform="matrix(0.3340439,0,0,0.3340439,-0.5,-0.5)"
         clip-rule="evenodd"
         id="path15" />
    </clipPath>
    <clipPath
       clipPathUnits="userSpaceOnUse"
       id="clipPath16">
      <path
         d="M 0,0 H 1329.1666 V 490.95343 H 0 Z"
         transform="matrix(0.33404055,0,0,0.33404055,-134.3125,-75)"
         clip-rule="evenodd"
         id="path16" />
    </clipPath>
    <clipPath
       clipPathUnits="userSpaceOnUse"
       id="clipPath18">
      <path
         d="M 0,0 H 1329.1666 V 490.95343 H 0 Z"
         transform="matrix(0.3340439,0,0,0.3340439,-0.5,-0.5)"
         clip-rule="evenodd"
         id="path18" />
    </clipPath>
    <clipPath
       clipPathUnits="userSpaceOnUse"
       id="clipPath19">
      <path
         d="M 0,0 H 1329.1666 V 490.95343 H 0 Z"
         transform="matrix(0.33404055,0,0,0.33404055,-58.21875,-96)"
         clip-rule="evenodd"
         id="path19" />
    </clipPath>
    <clipPath
       clipPathUnits="userSpaceOnUse"
       id="clipPath21">
      <path
         d="M 0,0 H 1329.1666 V 490.95343 H 0 Z"
         transform="matrix(0.3340439,0,0,0.3340439,-0.5,-0.5)"
         clip-rule="evenodd"
         id="path21" />
    </clipPath>
    <clipPath
       clipPathUnits="userSpaceOnUse"
       id="clipPath22">
      <path
         d="M 0,0 H 1329.1666 V 490.95343 H 0 Z"
         transform="matrix(0.33404055,0,0,0.33404055,-140.14062,-96)"
         clip-rule="evenodd"
         id="path22" />
    </clipPath>
    <clipPath
       clipPathUnits="userSpaceOnUse"
       id="clipPath24">
      <path
         d="M 0,0 H 1329.1666 V 490.95343 H 0 Z"
         transform="matrix(0.3340439,0,0,0.3340439,-0.5,-0.5)"
         clip-rule="evenodd"
         id="path24" />
    </clipPath>
    <clipPath
       clipPathUnits="userSpaceOnUse"
       id="clipPath25">
      <path
         d="M 0,0 H 1329.1666 V 490.95343 H 0 Z"
         transform="matrix(0.33404055,0,0,0.33404055,-58.21875,-116)"
         clip-rule="evenodd"
         id="path25" />
    </clipPath>
    <clipPath
       clipPathUnits="userSpaceOnUse"
       id="clipPath27">
      <path
         d="M 0,0 H 1329.1666 V 490.95343 H 0 Z"
         transform="matrix(0.3340439,0,0,0.3340439,-0.5,-0.5)"
         clip-rule="evenodd"
         id="path27" />
    </clipPath>
    <clipPath
       clipPathUnits="userSpaceOnUse"
       id="clipPath28">
      <path
         d="M 0,0 H 1329.1666 V 490.95343 H 0 Z"
         transform="matrix(0.33404055,0,0,0.33404055,-138.46875,-116)"
         clip-rule="evenodd"
         id="path28" />
    </clipPath>
    <clipPath
       clipPathUnits="userSpaceOnUse"
       id="clipPath30">
      <path
         d="M 0,0 H 1329.1666 V 490.95343 H 0 Z"
         transform="matrix(0.3340439,0,0,0.3340439,-0.5,-0.5)"
         clip-rule="evenodd"
         id="path30" />
    </clipPath>
    <clipPath
       clipPathUnits="userSpaceOnUse"
       id="clipPath31">
      <path
         d="M 0,0 H 1329.1666 V 490.95343 H 0 Z"
         transform="matrix(0.33404055,0,0,0.33404055,-58.21875,-136)"
         clip-rule="evenodd"
         id="path31" />
    </clipPath>
    <clipPath
       clipPathUnits="userSpaceOnUse"
       id="clipPath33">
      <path
         d="M 0,0 H 1329.1666 V 490.95343 H 0 Z"
         transform="matrix(0.3340439,0,0,0.3340439,-0.5,-0.5)"
         clip-rule="evenodd"
         id="path33" />
    </clipPath>
    <clipPath
       clipPathUnits="userSpaceOnUse"
       id="clipPath34">
      <path
         d="M 0,0 H 1329.1666 V 490.95343 H 0 Z"
         transform="matrix(0.33404055,0,0,0.33404055,-140.23437,-136)"
         clip-rule="evenodd"
         id="path34" />
    </clipPath>
    <clipPath
       clipPathUnits="userSpaceOnUse"
       id="clipPath36">
      <path
         d="M 0,0 H 1329.1666 V 490.95343 H 0 Z"
         transform="matrix(0.3340439,0,0,0.3340439,-0.5,-0.5)"
         clip-rule="evenodd"
         id="path36" />
    </clipPath>
    <clipPath
       clipPathUnits="userSpaceOnUse"
       id="clipPath37">
      <path
         d="M 0,0 H 1329.1666 V 490.95343 H 0 Z"
         transform="matrix(0.33404055,0,0,0.33404055,-313.65625,-56)"
         clip-rule="evenodd"
         id="path37" />
    </clipPath>
    <clipPath
       clipPathUnits="userSpaceOnUse"
       id="clipPath39">
      <path
         d="M 0,0 H 1329.1666 V 490.95343 H 0 Z"
         transform="matrix(0.3340439,0,0,0.3340439,-0.5,-0.5)"
         clip-rule="evenodd"
         id="path39" />
    </clipPath>
    <clipPath
       clipPathUnits="userSpaceOnUse"
       id="clipPath40">
      <path
         d="M 0,0 H 1329.1666 V 490.95343 H 0 Z"
         transform="matrix(0.33404055,0,0,0.33404055,-246.82813,-75)"
         clip-rule="evenodd"
         id="path40" />
    </clipPath>
    <clipPath
       clipPathUnits="userSpaceOnUse"
       id="clipPath42">
      <path
         d="M 0,0 H 1329.1666 V 490.95343 H 0 Z"
         transform="matrix(0.3340439,0,0,0.3340439,-0.5,-0.5)"
         clip-rule="evenodd"
         id="path42" />
    </clipPath>
    <clipPath
       clipPathUnits="userSpaceOnUse"
       id="clipPath43">
      <path
         d="M 0,0 H 1329.1666 V 490.95343 H 0 Z"
         transform="matrix(0.33404055,0,0,0.33404055,-364.65625,-75)"
         clip-rule="evenodd"
         id="path43" />
    </clipPath>
    <clipPath
       clipPathUnits="userSpaceOnUse"
       id="clipPath45">
      <path
         d="M 0,0 H 1329.1666 V 490.95343 H 0 Z"
         transform="matrix(0.3340439,0,0,0.3340439,-0.5,-0.5)"
         clip-rule="evenodd"
         id="path45" />
    </clipPath>
    <clipPath
       clipPathUnits="userSpaceOnUse"
       id="clipPath46">
      <path
         d="M 0,0 H 1329.1666 V 490.95343 H 0 Z"
         transform="matrix(0.33404055,0,0,0.33404055,-248.71875,-96)"
         clip-rule="evenodd"
         id="path46" />
    </clipPath>
    <clipPath
       clipPathUnits="userSpaceOnUse"
       id="clipPath48">
      <path
         d="M 0,0 H 1329.1666 V 490.95343 H 0 Z"
         transform="matrix(0.3340439,0,0,0.3340439,-0.5,-0.5)"
         clip-rule="evenodd"
         id="path48" />
    </clipPath>
    <clipPath
       clipPathUnits="userSpaceOnUse"
       id="clipPath49">
      <path
         d="M 0,0 H 1329.1666 V 490.95343 H 0 Z"
         transform="matrix(0.33404055,0,0,0.33404055,-340.35938,-96)"
         clip-rule="evenodd"
         id="path49" />
    </clipPath>
    <clipPath
       clipPathUnits="userSpaceOnUse"
       id="clipPath51">
      <path
         d="M 0,0 H 1329.1666 V 490.95343 H 0 Z"
         transform="matrix(0.3340439,0,0,0.3340439,-0.5,-0.5)"
         clip-rule="evenodd"
         id="path51" />
    </clipPath>
    <clipPath
       clipPathUnits="userSpaceOnUse"
       id="clipPath52">
      <path
         d="M 0,0 H 1329.1666 V 490.95343 H 0 Z"
         transform="matrix(0.33404055,0,0,0.33404055,-248.71875,-116)"
         clip-rule="evenodd"
         id="path52" />
    </clipPath>
    <clipPath
       clipPathUnits="userSpaceOnUse"
       id="clipPath54">
      <path
         d="M 0,0 H 1329.1666 V 490.95343 H 0 Z"
         transform="matrix(0.3340439,0,0,0.3340439,-0.5,-0.5)"
         clip-rule="evenodd"
         id="path54" />
    </clipPath>
    <clipPath
       clipPathUnits="userSpaceOnUse"
       id="clipPath55">
      <path
         d="M 0,0 H 1329.1666 V 490.95343 H 0 Z"
         transform="matrix(0.33404055,0,0,0.33404055,-328.40625,-116)"
         clip-rule="evenodd"
         id="path55" />
    </clipPath>
    <clipPath
       clipPathUnits="userSpaceOnUse"
       id="clipPath57">
      <path
         d="M 0,0 H 1329.1666 V 490.95343 H 0 Z"
         transform="matrix(0.3340439,0,0,0.3340439,-0.5,-0.5)"
         clip-rule="evenodd"
         id="path57" />
    </clipPath>
    <clipPath
       clipPathUnits="userSpaceOnUse"
       id="clipPath58">
      <path
         d="M 0,0 H 1329.1666 V 490.95343 H 0 Z"
         transform="matrix(0.33404055,0,0,0.33404055,-248.71875,-136)"
         clip-rule="evenodd"
         id="path58" />
    </clipPath>
    <clipPath
       clipPathUnits="userSpaceOnUse"
       id="clipPath60">
      <path
         d="M 0,0 H 1329.1666 V 490.95343 H 0 Z"
         transform="matrix(0.3340439,0,0,0.3340439,-0.5,-0.5)"
         clip-rule="evenodd"
         id="path60" />
    </clipPath>
    <clipPath
       clipPathUnits="userSpaceOnUse"
       id="clipPath61">
      <path
         d="M 0,0 H 1329.1666 V 490.95343 H 0 Z"
         transform="matrix(0.33404055,0,0,0.33404055,-328.96875,-136)"
         clip-rule="evenodd"
         id="path61" />
    </clipPath>
    <clipPath
       clipPathUnits="userSpaceOnUse"
       id="clipPath63">
      <path
         d="M 0,0 H 1329.1666 V 490.95343 H 0 Z"
         transform="matrix(0.3340439,0,0,0.3340439,-0.5,-0.5)"
         clip-rule="evenodd"
         id="path63" />
    </clipPath>
    <clipPath
       clipPathUnits="userSpaceOnUse"
       id="clipPath64">
      <path
         d="M 0,0 H 1329.1666 V 490.95343 H 0 Z"
         transform="matrix(0.33404055,0,0,0.33404055,-274.8125,-75)"
         clip-rule="evenodd"
         id="path64" />
    </clipPath>
    <clipPath
       clipPathUnits="userSpaceOnUse"
       id="clipPath66">
      <path
         d="M 0,0 H 1329.1666 V 490.95343 H 0 Z"
         transform="matrix(0.3340439,0,0,0.3340439,-0.5,-0.5)"
         clip-rule="evenodd"
         id="path66" />
    </clipPath>
    <clipPath
       clipPathUnits="userSpaceOnUse"
       id="clipPath67">
      <path
         d="M 0,0 H 1329.1666 V 490.95343 H 0 Z"
         transform="matrix(0.33404055,0,0,0.33404055,-291.71875,-96)"
         clip-rule="evenodd"
         id="path67" />
    </clipPath>
    <clipPath
       clipPathUnits="userSpaceOnUse"
       id="clipPath69">
      <path
         d="M 0,0 H 1329.1666 V 490.95343 H 0 Z"
         transform="matrix(0.3340439,0,0,0.3340439,-0.5,-0.5)"
         clip-rule="evenodd"
         id="path69" />
    </clipPath>
    <clipPath
       clipPathUnits="userSpaceOnUse"
       id="clipPath70">
      <path
         d="M 0,0 H 1329.1666 V 490.95343 H 0 Z"
         transform="matrix(0.33404055,0,0,0.33404055,-291.71875,-116)"
         clip-rule="evenodd"
         id="path70" />
    </clipPath>
    <clipPath
       clipPathUnits="userSpaceOnUse"
       id="clipPath72">
      <path
         d="M 0,0 H 1329.1666 V 490.95343 H 0 Z"
         transform="matrix(0.3340439,0,0,0.3340439,-0.5,-0.5)"
         clip-rule="evenodd"
         id="path72" />
    </clipPath>
    <clipPath
       clipPathUnits="userSpaceOnUse"
       id="clipPath73">
      <path
         d="M 0,0 H 1329.1666 V 490.95343 H 0 Z"
         transform="matrix(0.33404055,0,0,0.33404055,-291.71875,-136)"
         clip-rule="evenodd"
         id="path73" />
    </clipPath>
  </defs>
  <sodipodi:namedview
     id="namedview1"
     pagecolor="#ffffff"
     bordercolor="#000000"
     borderopacity="0.25"
     inkscape:showpageshadow="2"
     inkscape:pageopacity="0.0"
     inkscape:pagecheckerboard="0"
     inkscape:deskcolor="#d1d1d1">
    <inkscape:page
       x="0"
       y="0"
       inkscape:label="1"
       id="page1"
       width="425.28"
       height="158.72"
       margin="0"
       bleed="0" />
  </sodipodi:namedview>
  <g
     id="g1"
     inkscape:groupmode="layer"
     inkscape:label="1">
    <path
       id="path1"
       d="M 0,0 H 444 V 165 H 0 Z"
       style="fill:#ffffff;fill-opacity:1;fill-rule:nonzero;stroke:none"
       transform="scale(0.95795788)"
       clip-path="url(#clipPath2)" />
    <path
       id="path3"
       d="M 1,1 H 441 V 31 H 1 Z"
       style="fill:#d5e8d4;fill-opacity:1;fill-rule:nonzero;stroke:#82b366;stroke-width:1;stroke-linecap:butt;stroke-linejoin:miter;stroke-miterlimit:10;stroke-dasharray:none;stroke-opacity:1"
       transform="matrix(0.95795788,0,0,0.95795788,0.47897894,0.47897894)"
       clip-path="url(#clipPath4)" />
    <text
       id="text4"
       xml:space="preserve"
       transform="matrix(0.95796748,0,0,0.95796748,174.79913,22.033252)"
       clip-path="url(#clipPath5)"><tspan
         style="font-variant:normal;font-weight:normal;font-size:18px;font-family:Helvetica;writing-mode:lr-tb;fill:#000000;fill-opacity:1;fill-rule:nonzero;stroke:none"
         x="0 12.999023 23.009766 28.010742 38.021484 48.032227 58.042969 67.042969"
         y="0"
         sodipodi:role="line"
         id="tspan4">Database</tspan></text>
    <path
       id="path6"
       d="M 1,31 H 441 V 161 H 1 Z"
       style="fill:#d5e8d4;fill-opacity:1;fill-rule:nonzero;stroke:#82b366;stroke-width:1;stroke-linecap:butt;stroke-linejoin:miter;stroke-miterlimit:10;stroke-dasharray:none;stroke-opacity:1"
       transform="matrix(0.95795788,0,0,0.95795788,0.47897894,0.47897894)"
       clip-path="url(#clipPath7)" />
    <path
       id="path8"
       d="M 11,41 H 211 V 61 H 11 Z"
       style="fill:#ffe6cc;fill-opacity:1;fill-rule:nonzero;stroke:#d79b00;stroke-width:1;stroke-linecap:butt;stroke-linejoin:miter;stroke-miterlimit:10;stroke-dasharray:none;stroke-opacity:1"
       transform="matrix(0.95795788,0,0,0.95795788,0.47897894,0.47897894)"
       clip-path="url(#clipPath9)" />
    <text
       id="text9"
       xml:space="preserve"
       transform="matrix(0.95796748,0,0,0.95796748,89.704674,53.646179)"
       clip-path="url(#clipPath10)"><tspan
         style="font-variant:normal;font-weight:700;font-size:13px;font-family:Helvetica;writing-mode:lr-tb;fill:#000000;fill-opacity:1;fill-rule:nonzero;stroke:none"
         x="0 7.940918 15.170898 22.400879 27.459961"
         y="0"
         sodipodi:role="line"
         id="tspan9">users</tspan></text>
    <path
       id="path11"
       d="M 11,61 H 111 V 81 H 11 Z"
       style="fill:#f5f5f5;fill-opacity:1;fill-rule:nonzero;stroke:#666666;stroke-width:1;stroke-linecap:butt;stroke-linejoin:miter;stroke-miterlimit:10;stroke-dasharray:none;stroke-opacity:1"
       transform="matrix(0.95795788,0,0,0.95795788,0.47897894,0.47897894)"
       clip-path="url(#clipPath12)" />
    <text
       id="text12"
       xml:space="preserve"
       transform="matrix(0.95796748,0,0,0.95796748,53.960512,71.847561)"
       clip-path="url(#clipPath13)"><tspan
         style="font-style:oblique;font-variant:normal;font-weight:normal;font-size:12px;font-family:Helvetica;writing-mode:lr-tb;fill:#333333;fill-opacity:1;fill-rule:nonzero;stroke:none"
         x="0 2.6660156"
         y="0"
         sodipodi:role="line"
         id="tspan12">id</tspan></text>
    <path
       id="path14"
       d="M 111,61 H 211 V 81 H 111 Z"
       style="fill:#f5f5f5;fill-opacity:1;fill-rule:nonzero;stroke:#666666;stroke-width:1;stroke-linecap:butt;stroke-linejoin:miter;stroke-miterlimit:10;stroke-dasharray:none;stroke-opacity:1"
       transform="matrix(0.95795788,0,0,0.95795788,0.47897894,0.47897894)"
       clip-path="url(#clipPath15)" />
    <text
       id="text15"
       xml:space="preserve"
       transform="matrix(0.95796748,0,0,0.95796748,128.66701,71.847561)"
       clip-path="url(#clipPath16)"><tspan
         style="font-style:oblique;font-variant:normal;font-weight:normal;font-size:12px;font-family:Helvetica;writing-mode:lr-tb;fill:#333333;fill-opacity:1;fill-rule:nonzero;stroke:none"
         x="0 6.6738281 12.673828 19.347656 23.34375 30.017578 36.691406 46.6875"
         y="0"
         sodipodi:role="line"
         id="tspan15">username</tspan></text>
    <path
       id="path17"
       d="m 11,81 h 100 v 20 H 11 Z"
       style="fill:#ffffff;fill-opacity:1;fill-rule:nonzero;stroke:#000000;stroke-width:1;stroke-linecap:butt;stroke-linejoin:miter;stroke-miterlimit:10;stroke-dasharray:none;stroke-opacity:1"
       transform="matrix(0.95795788,0,0,0.95795788,0.47897894,0.47897894)"
       clip-path="url(#clipPath18)" />
    <text
       id="text18"
       xml:space="preserve"
       transform="matrix(0.95796748,0,0,0.95796748,55.771669,91.964878)"
       clip-path="url(#clipPath19)"><tspan
         style="font-variant:normal;font-weight:normal;font-size:10px;font-family:Helvetica;writing-mode:lr-tb;fill:#000000;fill-opacity:1;fill-rule:nonzero;stroke:none"
         x="0"
         y="0"
         id="tspan18">5</tspan></text>
    <path
       id="path20"
       d="m 111,81 h 100 v 20 H 111 Z"
       style="fill:#ffffff;fill-opacity:1;fill-rule:nonzero;stroke:#000000;stroke-width:1;stroke-linecap:butt;stroke-linejoin:miter;stroke-miterlimit:10;stroke-dasharray:none;stroke-opacity:1"
       transform="matrix(0.95795788,0,0,0.95795788,0.47897894,0.47897894)"
       clip-path="url(#clipPath21)" />
    <text
       id="text21"
       xml:space="preserve"
       transform="matrix(0.95796748,0,0,0.95796748,134.25016,91.964878)"
       clip-path="url(#clipPath22)"><tspan
         style="font-variant:normal;font-weight:normal;font-size:10px;font-family:Helvetica;writing-mode:lr-tb;fill:#000000;fill-opacity:1;fill-rule:nonzero;stroke:none"
         x="0 7.2216797 12.783203 17.783203 20.004883 25.004883 30.566406 36.12793"
         y="0"
         sodipodi:role="line"
         id="tspan21">Roslyn57</tspan></text>
    <path
       id="path23"
       d="m 11,101 h 100 v 20 H 11 Z"
       style="fill:#ffffff;fill-opacity:1;fill-rule:nonzero;stroke:#000000;stroke-width:1;stroke-linecap:butt;stroke-linejoin:miter;stroke-miterlimit:10;stroke-dasharray:none;stroke-opacity:1"
       transform="matrix(0.95795788,0,0,0.95795788,0.47897894,0.47897894)"
       clip-path="url(#clipPath24)" />
    <text
       id="text24"
       xml:space="preserve"
       transform="matrix(0.95796748,0,0,0.95796748,55.771669,111.12423)"
       clip-path="url(#clipPath25)"><tspan
         style="font-variant:normal;font-weight:normal;font-size:10px;font-family:Helvetica;writing-mode:lr-tb;fill:#000000;fill-opacity:1;fill-rule:nonzero;stroke:none"
         x="0"
         y="0"
         id="tspan24">6</tspan></text>
    <path
       id="path26"
       d="m 111,101 h 100 v 20 H 111 Z"
       style="fill:#ffffff;fill-opacity:1;fill-rule:nonzero;stroke:#000000;stroke-width:1;stroke-linecap:butt;stroke-linejoin:miter;stroke-miterlimit:10;stroke-dasharray:none;stroke-opacity:1"
       transform="matrix(0.95795788,0,0,0.95795788,0.47897894,0.47897894)"
       clip-path="url(#clipPath27)" />
    <text
       id="text27"
       xml:space="preserve"
       transform="matrix(0.95796748,0,0,0.95796748,132.64856,111.12423)"
       clip-path="url(#clipPath28)"><tspan
         style="font-variant:normal;font-weight:normal;font-size:10px;font-family:Helvetica;writing-mode:lr-tb;fill:#000000;fill-opacity:1;fill-rule:nonzero;stroke:none"
         x="0 6.6699219 12.231445 17.231445 22.792969 28.354492 33.916016 39.477539"
         y="0"
         sodipodi:role="line"
         id="tspan27">Shyann12</tspan></text>
    <path
       id="path29"
       d="m 11,121 h 100 v 20 H 11 Z"
       style="fill:#ffffff;fill-opacity:1;fill-rule:nonzero;stroke:#000000;stroke-width:1;stroke-linecap:butt;stroke-linejoin:miter;stroke-miterlimit:10;stroke-dasharray:none;stroke-opacity:1"
       transform="matrix(0.95795788,0,0,0.95795788,0.47897894,0.47897894)"
       clip-path="url(#clipPath30)" />
    <text
       id="text30"
       xml:space="preserve"
       transform="matrix(0.95796748,0,0,0.95796748,55.771669,130.28358)"
       clip-path="url(#clipPath31)"><tspan
         style="font-variant:normal;font-weight:normal;font-size:10px;font-family:Helvetica;writing-mode:lr-tb;fill:#000000;fill-opacity:1;fill-rule:nonzero;stroke:none"
         x="0"
         y="0"
         id="tspan30">7</tspan></text>
    <path
       id="path32"
       d="m 111,121 h 100 v 20 H 111 Z"
       style="fill:#ffffff;fill-opacity:1;fill-rule:nonzero;stroke:#000000;stroke-width:1;stroke-linecap:butt;stroke-linejoin:miter;stroke-miterlimit:10;stroke-dasharray:none;stroke-opacity:1"
       transform="matrix(0.95795788,0,0,0.95795788,0.47897894,0.47897894)"
       clip-path="url(#clipPath33)" />
    <text
       id="text33"
       xml:space="preserve"
       transform="matrix(0.95796748,0,0,0.95796748,134.33997,130.28358)"
       clip-path="url(#clipPath34)"><tspan
         style="font-variant:normal;font-weight:normal;font-size:10px;font-family:Helvetica;writing-mode:lr-tb;fill:#000000;fill-opacity:1;fill-rule:nonzero;stroke:none"
         x="0 5.9326172 11.494141 13.71582 19.277344 22.607422 24.829102 30.390625 35.952148"
         y="0"
         sodipodi:role="line"
         id="tspan33">Valerie77</tspan></text>
    <path
       id="path35"
       d="M 231,41 H 431 V 61 H 231 Z"
       style="fill:#ffe6cc;fill-opacity:1;fill-rule:nonzero;stroke:#d79b00;stroke-width:1;stroke-linecap:butt;stroke-linejoin:miter;stroke-miterlimit:10;stroke-dasharray:none;stroke-opacity:1"
       transform="matrix(0.95795788,0,0,0.95795788,0.47897894,0.47897894)"
       clip-path="url(#clipPath36)" />
    <text
       id="text36"
       xml:space="preserve"
       transform="matrix(0.95796748,0,0,0.95796748,300.47249,53.646179)"
       clip-path="url(#clipPath37)"><tspan
         style="font-variant:normal;font-weight:700;font-size:13px;font-family:Helvetica;writing-mode:lr-tb;fill:#000000;fill-opacity:1;fill-rule:nonzero;stroke:none"
         x="0 7.940918 15.881836 23.111816 27.440918"
         y="0"
         sodipodi:role="line"
         id="tspan36">posts</tspan></text>
    <path
       id="path38"
       d="m 231,61 h 41 v 20 h -41 z"
       style="fill:#f5f5f5;fill-opacity:1;fill-rule:nonzero;stroke:#666666;stroke-width:1;stroke-linecap:butt;stroke-linejoin:miter;stroke-miterlimit:10;stroke-dasharray:none;stroke-opacity:1"
       transform="matrix(0.95795788,0,0,0.95795788,0.47897894,0.47897894)"
       clip-path="url(#clipPath39)" />
    <text
       id="text39"
       xml:space="preserve"
       transform="matrix(0.95796748,0,0,0.95796748,236.45332,71.847561)"
       clip-path="url(#clipPath40)"><tspan
         style="font-style:oblique;font-variant:normal;font-weight:normal;font-size:12px;font-family:Helvetica;writing-mode:lr-tb;fill:#333333;fill-opacity:1;fill-rule:nonzero;stroke:none"
         x="0 2.6660156"
         y="0"
         sodipodi:role="line"
         id="tspan39">id</tspan></text>
    <path
       id="path41"
       d="M 317,61 H 431 V 81 H 317 Z"
       style="fill:#f5f5f5;fill-opacity:1;fill-rule:nonzero;stroke:#666666;stroke-width:1;stroke-linecap:butt;stroke-linejoin:miter;stroke-miterlimit:10;stroke-dasharray:none;stroke-opacity:1"
       transform="matrix(0.95795788,0,0,0.95795788,0.47897894,0.47897894)"
       clip-path="url(#clipPath42)" />
    <text
       id="text42"
       xml:space="preserve"
       transform="matrix(0.95796748,0,0,0.95796748,349.32883,71.847561)"
       clip-path="url(#clipPath43)"><tspan
         style="font-style:oblique;font-variant:normal;font-weight:normal;font-size:12px;font-family:Helvetica;writing-mode:lr-tb;fill:#333333;fill-opacity:1;fill-rule:nonzero;stroke:none"
         x="0 3.3339844 6 9.3339844 12"
         y="0"
         sodipodi:role="line"
         id="tspan42">title</tspan></text>
    <path
       id="path44"
       d="m 231,81 h 41 v 20 h -41 z"
       style="fill:#ffffff;fill-opacity:1;fill-rule:nonzero;stroke:#000000;stroke-width:1;stroke-linecap:butt;stroke-linejoin:miter;stroke-miterlimit:10;stroke-dasharray:none;stroke-opacity:1"
       transform="matrix(0.95795788,0,0,0.95795788,0.47897894,0.47897894)"
       clip-path="url(#clipPath45)" />
    <text
       id="text45"
       xml:space="preserve"
       transform="matrix(0.95796748,0,0,0.95796748,238.26447,91.964878)"
       clip-path="url(#clipPath46)"><tspan
         style="font-variant:normal;font-weight:normal;font-size:10px;font-family:Helvetica;writing-mode:lr-tb;fill:#000000;fill-opacity:1;fill-rule:nonzero;stroke:none"
         x="0"
         y="0"
         id="tspan45">1</tspan></text>
    <path
       id="path47"
       d="m 317,81 h 114 v 20 H 317 Z"
       style="fill:#ffffff;fill-opacity:1;fill-rule:nonzero;stroke:#000000;stroke-width:1;stroke-linecap:butt;stroke-linejoin:miter;stroke-miterlimit:10;stroke-dasharray:none;stroke-opacity:1"
       transform="matrix(0.95795788,0,0,0.95795788,0.47897894,0.47897894)"
       clip-path="url(#clipPath48)" />
    <text
       id="text48"
       xml:space="preserve"
       transform="matrix(0.95796748,0,0,0.95796748,326.05322,91.964878)"
       clip-path="url(#clipPath49)"><tspan
         style="font-variant:normal;font-weight:normal;font-size:10px;font-family:Helvetica;writing-mode:lr-tb;fill:#000000;fill-opacity:1;fill-rule:nonzero;stroke:none"
         x="0 5.5615234 11.123047 13.344727 18.90625 22.236328 24.458008 30.019531 35.581055 40.581055 43.359375 48.920898 54.482422 56.704102 59.482422 61.704102"
         y="0"
         sodipodi:role="line"
         id="tspan48">doloribus qui in</tspan></text>
    <path
       id="path50"
       d="m 231,101 h 41 v 20 h -41 z"
       style="fill:#ffffff;fill-opacity:1;fill-rule:nonzero;stroke:#000000;stroke-width:1;stroke-linecap:butt;stroke-linejoin:miter;stroke-miterlimit:10;stroke-dasharray:none;stroke-opacity:1"
       transform="matrix(0.95795788,0,0,0.95795788,0.47897894,0.47897894)"
       clip-path="url(#clipPath51)" />
    <text
       id="text51"
       xml:space="preserve"
       transform="matrix(0.95796748,0,0,0.95796748,238.26447,111.12423)"
       clip-path="url(#clipPath52)"><tspan
         style="font-variant:normal;font-weight:normal;font-size:10px;font-family:Helvetica;writing-mode:lr-tb;fill:#000000;fill-opacity:1;fill-rule:nonzero;stroke:none"
         x="0"
         y="0"
         id="tspan51">2</tspan></text>
    <path
       id="path53"
       d="m 317,101 h 114 v 20 H 317 Z"
       style="fill:#ffffff;fill-opacity:1;fill-rule:nonzero;stroke:#000000;stroke-width:1;stroke-linecap:butt;stroke-linejoin:miter;stroke-miterlimit:10;stroke-dasharray:none;stroke-opacity:1"
       transform="matrix(0.95795788,0,0,0.95795788,0.47897894,0.47897894)"
       clip-path="url(#clipPath54)" />
    <text
       id="text54"
       xml:space="preserve"
       transform="matrix(0.95796748,0,0,0.95796748,314.60251,111.12423)"
       clip-path="url(#clipPath55)"><tspan
         style="font-variant:normal;font-weight:normal;font-size:10px;font-family:Helvetica;writing-mode:lr-tb;fill:#000000;fill-opacity:1;fill-rule:nonzero;stroke:none"
         x="0 2.2216797 7.7832031 12.783203 15.004883 20.566406 26.12793 31.689453 34.467773 37.246094 42.246094 47.807617 53.369141 56.147461 58.925781 64.487305 66.708984 72.270508 77.270508 82.832031 88.393555"
         y="0"
         sodipodi:role="line"
         id="tspan54">incidunt sunt placeat</tspan></text>
    <path
       id="path56"
       d="m 231,121 h 41 v 20 h -41 z"
       style="fill:#ffffff;fill-opacity:1;fill-rule:nonzero;stroke:#000000;stroke-width:1;stroke-linecap:butt;stroke-linejoin:miter;stroke-miterlimit:10;stroke-dasharray:none;stroke-opacity:1"
       transform="matrix(0.95795788,0,0,0.95795788,0.47897894,0.47897894)"
       clip-path="url(#clipPath57)" />
    <text
       id="text57"
       xml:space="preserve"
       transform="matrix(0.95796748,0,0,0.95796748,238.26447,130.28358)"
       clip-path="url(#clipPath58)"><tspan
         style="font-variant:normal;font-weight:normal;font-size:10px;font-family:Helvetica;writing-mode:lr-tb;fill:#000000;fill-opacity:1;fill-rule:nonzero;stroke:none"
         x="0"
         y="0"
         id="tspan57">3</tspan></text>
    <path
       id="path59"
       d="m 317,121 h 114 v 20 H 317 Z"
       style="fill:#ffffff;fill-opacity:1;fill-rule:nonzero;stroke:#000000;stroke-width:1;stroke-linecap:butt;stroke-linejoin:miter;stroke-miterlimit:10;stroke-dasharray:none;stroke-opacity:1"
       transform="matrix(0.95795788,0,0,0.95795788,0.47897894,0.47897894)"
       clip-path="url(#clipPath60)" />
    <text
       id="text60"
       xml:space="preserve"
       transform="matrix(0.95796748,0,0,0.95796748,315.14136,130.28358)"
       clip-path="url(#clipPath61)"><tspan
         style="font-variant:normal;font-weight:normal;font-size:10px;font-family:Helvetica;writing-mode:lr-tb;fill:#000000;fill-opacity:1;fill-rule:nonzero;stroke:none"
         x="0 5.5615234 11.123047 13.344727 18.90625 22.236328 27.797852 32.797852 35.576172 41.137695 43.916016 46.694336 52.255859 55.585938 60.585938 66.147461 68.369141 71.147461 76.708984 81.708984 84.487305"
         y="0"
         sodipodi:role="line"
         id="tspan60">dolores ut architecto</tspan></text>
    <path
       id="path62"
       d="m 272,61 h 45 v 20 h -45 z"
       style="fill:#f5f5f5;fill-opacity:1;fill-rule:nonzero;stroke:#666666;stroke-width:1;stroke-linecap:butt;stroke-linejoin:miter;stroke-miterlimit:10;stroke-dasharray:none;stroke-opacity:1"
       transform="matrix(0.95795788,0,0,0.95795788,0.47897894,0.47897894)"
       clip-path="url(#clipPath63)" />
    <text
       id="text63"
       xml:space="preserve"
       transform="matrix(0.95796748,0,0,0.95796748,263.26144,71.847561)"
       clip-path="url(#clipPath64)"><tspan
         style="font-style:oblique;font-variant:normal;font-weight:normal;font-size:12px;font-family:Helvetica;writing-mode:lr-tb;fill:#333333;fill-opacity:1;fill-rule:nonzero;stroke:none"
         x="0 6.6738281 12.673828 19.347656 23.34375 30.017578 32.683594"
         y="0"
         sodipodi:role="line"
         id="tspan63">user_id</tspan></text>
    <path
       id="path65"
       d="m 272,81 h 45 v 20 h -45 z"
       style="fill:#ffffff;fill-opacity:1;fill-rule:nonzero;stroke:#000000;stroke-width:1;stroke-linecap:butt;stroke-linejoin:miter;stroke-miterlimit:10;stroke-dasharray:none;stroke-opacity:1"
       transform="matrix(0.95795788,0,0,0.95795788,0.47897894,0.47897894)"
       clip-path="url(#clipPath66)" />
    <text
       id="text66"
       xml:space="preserve"
       transform="matrix(0.95796748,0,0,0.95796748,279.45708,91.964878)"
       clip-path="url(#clipPath67)"><tspan
         style="font-variant:normal;font-weight:normal;font-size:10px;font-family:Helvetica;writing-mode:lr-tb;fill:#000000;fill-opacity:1;fill-rule:nonzero;stroke:none"
         x="0"
         y="0"
         id="tspan66">7</tspan></text>
    <path
       id="path68"
       d="m 272,101 h 45 v 20 h -45 z"
       style="fill:#ffffff;fill-opacity:1;fill-rule:nonzero;stroke:#000000;stroke-width:1;stroke-linecap:butt;stroke-linejoin:miter;stroke-miterlimit:10;stroke-dasharray:none;stroke-opacity:1"
       transform="matrix(0.95795788,0,0,0.95795788,0.47897894,0.47897894)"
       clip-path="url(#clipPath69)" />
    <text
       id="text69"
       xml:space="preserve"
       transform="matrix(0.95796748,0,0,0.95796748,279.45708,111.12423)"
       clip-path="url(#clipPath70)"><tspan
         style="font-variant:normal;font-weight:normal;font-size:10px;font-family:Helvetica;writing-mode:lr-tb;fill:#000000;fill-opacity:1;fill-rule:nonzero;stroke:none"
         x="0"
         y="0"
         id="tspan69">6</tspan></text>
    <path
       id="path71"
       d="m 272,121 h 45 v 20 h -45 z"
       style="fill:#ffffff;fill-opacity:1;fill-rule:nonzero;stroke:#000000;stroke-width:1;stroke-linecap:butt;stroke-linejoin:miter;stroke-miterlimit:10;stroke-dasharray:none;stroke-opacity:1"
       transform="matrix(0.95795788,0,0,0.95795788,0.47897894,0.47897894)"
       clip-path="url(#clipPath72)" />
    <text
       id="text72"
       xml:space="preserve"
       transform="matrix(0.95796748,0,0,0.95796748,279.45708,130.28358)"
       clip-path="url(#clipPath73)"><tspan
         style="font-variant:normal;font-weight:normal;font-size:10px;font-family:Helvetica;writing-mode:lr-tb;fill:#000000;fill-opacity:1;fill-rule:nonzero;stroke:none"
         x="0"
         y="0"
         id="tspan72">5</tspan></text>
  </g>
</svg>
