<?xml version="1.0" encoding="UTF-8" standalone="no"?>
<!-- Created with Inkscape (http://www.inkscape.org/) -->

<svg
   version="1.1"
   id="svg1"
   width="414.71997"
   height="196.15999"
   viewBox="0 0 414.71997 196.15999"
   sodipodi:docname="sql-8.pdf"
   xmlns:inkscape="http://www.inkscape.org/namespaces/inkscape"
   xmlns:sodipodi="http://sodipodi.sourceforge.net/DTD/sodipodi-0.dtd"
   xmlns="http://www.w3.org/2000/svg"
   xmlns:svg="http://www.w3.org/2000/svg">
  <defs
     id="defs1">
    <clipPath
       clipPathUnits="userSpaceOnUse"
       id="clipPath2">
      <path
         d="M 0,0 H 1295.8333 V 612.08716 H 0 Z"
         transform="scale(0.33491962)"
         clip-rule="evenodd"
         id="path2" />
    </clipPath>
    <clipPath
       clipPathUnits="userSpaceOnUse"
       id="clipPath4">
      <path
         d="M 0,0 H 1295.8333 V 609.10138 H 0 Z"
         transform="matrix(0.33491962,0,0,0.33491962,-0.49999999,-0.49999999)"
         clip-rule="evenodd"
         id="path4" />
    </clipPath>
    <clipPath
       clipPathUnits="userSpaceOnUse"
       id="clipPath5">
      <path
         d="M 0,0 H 1295.8333 V 609.10138 H 0 Z"
         transform="matrix(0.33491628,0,0,0.33491628,-37.15625,-27)"
         clip-rule="evenodd"
         id="path5" />
    </clipPath>
    <clipPath
       clipPathUnits="userSpaceOnUse"
       id="clipPath6">
      <path
         d="M 0,0 H 1295.8333 V 609.10138 H 0 Z"
         transform="matrix(0.33491628,0,0,0.33491628,-30.8125,-50)"
         clip-rule="evenodd"
         id="path6" />
    </clipPath>
    <clipPath
       clipPathUnits="userSpaceOnUse"
       id="clipPath8">
      <path
         d="M 0,0 H 1295.8333 V 609.10138 H 0 Z"
         transform="matrix(0.33491962,0,0,0.33491962,-0.49999999,-0.49999999)"
         clip-rule="evenodd"
         id="path8" />
    </clipPath>
    <clipPath
       clipPathUnits="userSpaceOnUse"
       id="clipPath9">
      <path
         d="M 0,0 H 1295.8333 V 609.10138 H 0 Z"
         transform="matrix(0.33491628,0,0,0.33491628,-277.75,-27)"
         clip-rule="evenodd"
         id="path9" />
    </clipPath>
    <clipPath
       clipPathUnits="userSpaceOnUse"
       id="clipPath10">
      <path
         d="M 0,0 H 1295.8333 V 609.10138 H 0 Z"
         transform="matrix(0.33491628,0,0,0.33491628,-261.26563,-50)"
         clip-rule="evenodd"
         id="path10" />
    </clipPath>
    <clipPath
       clipPathUnits="userSpaceOnUse"
       id="clipPath12">
      <path
         d="M 0,0 H 1295.8333 V 609.10138 H 0 Z"
         transform="matrix(0.33491962,0,0,0.33491962,-0.49999999,-0.49999999)"
         clip-rule="evenodd"
         id="path12" />
    </clipPath>
    <clipPath
       clipPathUnits="userSpaceOnUse"
       id="clipPath13">
      <path
         d="M 0,0 H 1295.8333 V 609.10138 H 0 Z"
         transform="matrix(0.33491628,0,0,0.33491628,-41.890625,-97)"
         clip-rule="evenodd"
         id="path13" />
    </clipPath>
    <clipPath
       clipPathUnits="userSpaceOnUse"
       id="clipPath14">
      <path
         d="M 0,0 H 1295.8333 V 609.10138 H 0 Z"
         transform="matrix(0.33491628,0,0,0.33491628,-14.5625,-120)"
         clip-rule="evenodd"
         id="path14" />
    </clipPath>
    <clipPath
       clipPathUnits="userSpaceOnUse"
       id="clipPath16">
      <path
         d="M 0,0 H 1295.8333 V 609.10138 H 0 Z"
         transform="matrix(0.33491962,0,0,0.33491962,-0.49999999,-0.49999999)"
         clip-rule="evenodd"
         id="path16" />
    </clipPath>
    <clipPath
       clipPathUnits="userSpaceOnUse"
       id="clipPath17">
      <path
         d="M 0,0 H 1295.8333 V 609.10138 H 0 Z"
         transform="matrix(0.33491628,0,0,0.33491628,-44,-167)"
         clip-rule="evenodd"
         id="path17" />
    </clipPath>
    <clipPath
       clipPathUnits="userSpaceOnUse"
       id="clipPath18">
      <path
         d="M 0,0 H 1295.8333 V 609.10138 H 0 Z"
         transform="matrix(0.33491628,0,0,0.33491628,-88.125,-190)"
         clip-rule="evenodd"
         id="path18" />
    </clipPath>
    <clipPath
       clipPathUnits="userSpaceOnUse"
       id="clipPath20">
      <path
         d="M 0,0 H 1295.8333 V 609.10138 H 0 Z"
         transform="matrix(0.33491962,0,0,0.33491962,-0.49999999,-0.49999999)"
         clip-rule="evenodd"
         id="path20" />
    </clipPath>
    <clipPath
       clipPathUnits="userSpaceOnUse"
       id="clipPath21">
      <path
         d="M 0,0 H 1295.8333 V 609.10138 H 0 Z"
         transform="matrix(0.33491628,0,0,0.33491628,-291.89062,-97)"
         clip-rule="evenodd"
         id="path21" />
    </clipPath>
    <clipPath
       clipPathUnits="userSpaceOnUse"
       id="clipPath22">
      <path
         d="M 0,0 H 1295.8333 V 609.10138 H 0 Z"
         transform="matrix(0.33491628,0,0,0.33491628,-253.25,-120)"
         clip-rule="evenodd"
         id="path22" />
    </clipPath>
    <clipPath
       clipPathUnits="userSpaceOnUse"
       id="clipPath24">
      <path
         d="M 0,0 H 1295.8333 V 609.10138 H 0 Z"
         transform="matrix(0.33491962,0,0,0.33491962,-0.49999999,-0.49999999)"
         clip-rule="evenodd"
         id="path24" />
    </clipPath>
    <clipPath
       clipPathUnits="userSpaceOnUse"
       id="clipPath25">
      <path
         d="M 0,0 H 1295.8333 V 609.10138 H 0 Z"
         transform="matrix(0.33491628,0,0,0.33491628,-294,-167)"
         clip-rule="evenodd"
         id="path25" />
    </clipPath>
    <clipPath
       clipPathUnits="userSpaceOnUse"
       id="clipPath26">
      <path
         d="M 0,0 H 1295.8333 V 609.10138 H 0 Z"
         transform="matrix(0.33491628,0,0,0.33491628,-269.75,-190)"
         clip-rule="evenodd"
         id="path26" />
    </clipPath>
  </defs>
  <sodipodi:namedview
     id="namedview1"
     pagecolor="#ffffff"
     bordercolor="#000000"
     borderopacity="0.25"
     inkscape:showpageshadow="2"
     inkscape:pageopacity="0.0"
     inkscape:pagecheckerboard="0"
     inkscape:deskcolor="#d1d1d1">
    <inkscape:page
       x="0"
       y="0"
       inkscape:label="1"
       id="page1"
       width="414.71997"
       height="196.15999"
       margin="0"
       bleed="0" />
  </sodipodi:namedview>
  <g
     id="g1"
     inkscape:groupmode="layer"
     inkscape:label="1">
    <path
       id="path1"
       d="M 0,0 H 434 V 205 H 0 Z"
       style="fill:#ffffff;fill-opacity:1;fill-rule:nonzero;stroke:none"
       transform="scale(0.95545308)"
       clip-path="url(#clipPath2)" />
    <path
       id="path3"
       d="M 1,1 H 181 V 61 H 1 Z"
       style="fill:#dae8fc;fill-opacity:1;fill-rule:nonzero;stroke:#6c8ebf;stroke-width:1;stroke-linecap:butt;stroke-linejoin:miter;stroke-miterlimit:10;stroke-dasharray:none;stroke-opacity:1"
       transform="matrix(0.95545308,0,0,0.95545308,0.47772653,0.47772653)"
       clip-path="url(#clipPath4)" />
    <text
       id="text4"
       xml:space="preserve"
       transform="matrix(0.95546262,0,0,0.95546262,35.501408,25.797491)"
       clip-path="url(#clipPath5)"><tspan
         style="font-variant:normal;font-weight:700;font-size:19px;font-family:Helvetica;writing-mode:lr-tb;fill:#000000;fill-opacity:1;fill-rule:nonzero;stroke:none"
         x="0 15.827148 26.394043 36.960938 51.739746 64.412598 69.691406 84.470215 89.749023 96.076172"
         y="0"
         sodipodi:role="line"
         id="tspan4">MacOS with</tspan></text>
    <text
       id="text5"
       xml:space="preserve"
       transform="matrix(0.95546262,0,0,0.95546262,29.440192,47.773131)"
       clip-path="url(#clipPath6)"><tspan
         style="font-variant:normal;font-weight:700;font-size:19px;font-family:Helvetica;writing-mode:lr-tb;fill:#000000;fill-opacity:1;fill-rule:nonzero;stroke:none"
         x="0 12.672852 24.278809 34.845703 41.172852 52.778809 60.172852 70.739746 81.306641 86.585449 97.152344 108.7583"
         y="0"
         sodipodi:role="line"
         id="tspan5">Postgres.app</tspan></text>
    <path
       id="path7"
       d="M 251,1 H 431 V 61 H 251 Z"
       style="fill:#dae8fc;fill-opacity:1;fill-rule:nonzero;stroke:#6c8ebf;stroke-width:1;stroke-linecap:butt;stroke-linejoin:miter;stroke-miterlimit:10;stroke-dasharray:none;stroke-opacity:1"
       transform="matrix(0.95545308,0,0,0.95545308,0.47772653,0.47772653)"
       clip-path="url(#clipPath8)" />
    <text
       id="text8"
       xml:space="preserve"
       transform="matrix(0.95546262,0,0,0.95546262,265.37974,25.797491)"
       clip-path="url(#clipPath9)"><tspan
         style="font-variant:normal;font-weight:700;font-size:19px;font-family:Helvetica;writing-mode:lr-tb;fill:#000000;fill-opacity:1;fill-rule:nonzero;stroke:none"
         x="0 17.766113 23.044922 34.650879 46.256836 57.862793 72.641602 83.208496 88.487305 103.26611 108.54492 114.87207"
         y="0"
         sodipodi:role="line"
         id="tspan8">Windows with</tspan></text>
    <text
       id="text9"
       xml:space="preserve"
       transform="matrix(0.95546262,0,0,0.95546262,249.62954,47.773131)"
       clip-path="url(#clipPath10)"><tspan
         style="font-variant:normal;font-weight:700;font-size:19px;font-family:Helvetica;writing-mode:lr-tb;fill:#000000;fill-opacity:1;fill-rule:nonzero;stroke:none"
         x="0 12.672852 24.278809 34.845703 41.172852 52.778809 60.172852 70.739746 81.306641 86.585449 91.864258 103.47021 114.03711 120.36426 130.93115 136.20996 141.48877 152.05566"
         y="0"
         sodipodi:role="line"
         id="tspan9">Postgres Installer</tspan></text>
    <path
       id="path11"
       d="m 1,71 h 180 v 60 H 1 Z"
       style="fill:#f5f5f5;fill-opacity:1;fill-rule:nonzero;stroke:#666666;stroke-width:1;stroke-linecap:butt;stroke-linejoin:miter;stroke-miterlimit:10;stroke-dasharray:none;stroke-opacity:1"
       transform="matrix(0.95545308,0,0,0.95545308,0.47772653,0.47772653)"
       clip-path="url(#clipPath12)" />
    <text
       id="text12"
       xml:space="preserve"
       transform="matrix(0.95546262,0,0,0.95546262,40.024926,92.679874)"
       clip-path="url(#clipPath13)"><tspan
         style="font-variant:normal;font-weight:normal;font-size:19px;font-family:Helvetica;writing-mode:lr-tb;fill:#333333;fill-opacity:1;fill-rule:nonzero;stroke:none"
         x="0 13.721191 23.221191 33.788086 40.115234 50.682129 61.249023 77.076172 87.643066 92.921875"
         y="0"
         sodipodi:role="line"
         id="tspan12">Username: </tspan></text>
    <text
       id="text13"
       xml:space="preserve"
       transform="matrix(0.95546262,0,0,0.95546262,13.913924,114.65551)"
       clip-path="url(#clipPath14)"><tspan
         style="font-variant:normal;font-weight:normal;font-size:15px;font-family:Helvetica;writing-mode:lr-tb;fill:#333333;fill-opacity:1;fill-rule:nonzero;stroke:none"
         x="0 8.6279297 16.970215 25.3125 30.307617 34.475098 41.975098 49.475098 56.975098 61.142578 69.484863 81.97998 86.147461 94.489746 101.98975 110.33203 115.32715 123.66943 132.01172 144.50684"
         y="0"
         sodipodi:role="line"
         id="tspan13">Your system username</tspan></text>
    <path
       id="path15"
       d="m 1,141 h 180 v 60 H 1 Z"
       style="fill:#f5f5f5;fill-opacity:1;fill-rule:nonzero;stroke:#666666;stroke-width:1;stroke-linecap:butt;stroke-linejoin:miter;stroke-miterlimit:10;stroke-dasharray:none;stroke-opacity:1"
       transform="matrix(0.95545308,0,0,0.95545308,0.47772653,0.47772653)"
       clip-path="url(#clipPath16)" />
    <text
       id="text16"
       xml:space="preserve"
       transform="matrix(0.95546262,0,0,0.95546262,42.040355,159.56226)"
       clip-path="url(#clipPath17)"><tspan
         style="font-variant:normal;font-weight:normal;font-size:19px;font-family:Helvetica;writing-mode:lr-tb;fill:#333333;fill-opacity:1;fill-rule:nonzero;stroke:none"
         x="0 12.672852 23.239746 32.739746 42.239746 55.960938 66.527832 72.85498 83.421875 88.700684"
         y="0"
         sodipodi:role="line"
         id="tspan16">Password: </tspan></text>
    <text
       id="text17"
       xml:space="preserve"
       transform="matrix(0.95546262,0,0,0.95546262,84.200143,181.5379)"
       clip-path="url(#clipPath18)"><tspan
         style="font-variant:normal;font-weight:normal;font-size:15px;font-family:Helvetica;writing-mode:lr-tb;fill:#333333;fill-opacity:1;fill-rule:nonzero;stroke:none"
         x="0 2.8637695"
         y="0"
         sodipodi:role="line"
         id="tspan17">''</tspan></text>
    <path
       id="path19"
       d="m 251,71 h 180 v 60 H 251 Z"
       style="fill:#f5f5f5;fill-opacity:1;fill-rule:nonzero;stroke:#666666;stroke-width:1;stroke-linecap:butt;stroke-linejoin:miter;stroke-miterlimit:10;stroke-dasharray:none;stroke-opacity:1"
       transform="matrix(0.95545308,0,0,0.95545308,0.47772653,0.47772653)"
       clip-path="url(#clipPath20)" />
    <text
       id="text20"
       xml:space="preserve"
       transform="matrix(0.95546262,0,0,0.95546262,278.89058,92.679874)"
       clip-path="url(#clipPath21)"><tspan
         style="font-variant:normal;font-weight:normal;font-size:19px;font-family:Helvetica;writing-mode:lr-tb;fill:#333333;fill-opacity:1;fill-rule:nonzero;stroke:none"
         x="0 13.721191 23.221191 33.788086 40.115234 50.682129 61.249023 77.076172 87.643066 92.921875"
         y="0"
         sodipodi:role="line"
         id="tspan20">Username: </tspan></text>
    <text
       id="text21"
       xml:space="preserve"
       transform="matrix(0.95546262,0,0,0.95546262,241.97091,114.65551)"
       clip-path="url(#clipPath22)"><tspan
         style="font-variant:normal;font-weight:normal;font-size:11px;font-family:Helvetica;writing-mode:lr-tb;fill:#333333;fill-opacity:1;fill-rule:nonzero;stroke:none"
         x="0 7.9438477 13.443848 19.561523 23.224609 29.342285 35.459961 44.623047 50.740723 53.796875 59.296875 65.414551 71.532227 74.588379 80.706055 86.82373 89.879883 95.997559 99.660645 105.77832 111.896 114.95215 121.06982 127.1875 130.85059 133.29443 139.41211 145.52979 148.58594 154.08594 160.20361 163.25977 169.37744"
         y="0"
         sodipodi:role="line"
         id="tspan21">Username you entered during setup</tspan></text>
    <path
       id="path23"
       d="m 251,141 h 180 v 60 H 251 Z"
       style="fill:#f5f5f5;fill-opacity:1;fill-rule:nonzero;stroke:#666666;stroke-width:1;stroke-linecap:butt;stroke-linejoin:miter;stroke-miterlimit:10;stroke-dasharray:none;stroke-opacity:1"
       transform="matrix(0.95545308,0,0,0.95545308,0.47772653,0.47772653)"
       clip-path="url(#clipPath24)" />
    <text
       id="text24"
       xml:space="preserve"
       transform="matrix(0.95546262,0,0,0.95546262,280.90601,159.56226)"
       clip-path="url(#clipPath25)"><tspan
         style="font-variant:normal;font-weight:normal;font-size:19px;font-family:Helvetica;writing-mode:lr-tb;fill:#333333;fill-opacity:1;fill-rule:nonzero;stroke:none"
         x="0 12.672852 23.239746 32.739746 42.239746 55.960938 66.527832 72.85498 83.421875 88.700684"
         y="0"
         sodipodi:role="line"
         id="tspan24">Password: </tspan></text>
    <text
       id="text25"
       xml:space="preserve"
       transform="matrix(0.95546262,0,0,0.95546262,257.73604,181.5379)"
       clip-path="url(#clipPath26)"><tspan
         style="font-variant:normal;font-weight:normal;font-size:11px;font-family:Helvetica;writing-mode:lr-tb;fill:#333333;fill-opacity:1;fill-rule:nonzero;stroke:none"
         x="0 7.3369141 17.719238 20.775391 26.275391 32.393066 38.510742 41.566895 47.68457 53.802246 56.858398 62.976074 66.63916 72.756836 78.874512 81.930664 88.04834 94.166016 97.829102 100.27295 106.39062 112.5083 115.56445 121.06445 127.18213 130.23828 136.35596"
         y="0"
         sodipodi:role="line"
         id="tspan25">PW you entered during setup</tspan></text>
  </g>
</svg>
