<?xml version="1.0" encoding="UTF-8" standalone="no"?>
<!-- Created with Inkscape (http://www.inkscape.org/) -->

<svg
   version="1.1"
   id="svg1"
   width="486.71997"
   height="110.72"
   viewBox="0 0 486.71997 110.72"
   sodipodi:docname="sql-5.pdf"
   xmlns:inkscape="http://www.inkscape.org/namespaces/inkscape"
   xmlns:sodipodi="http://sodipodi.sourceforge.net/DTD/sodipodi-0.dtd"
   xmlns="http://www.w3.org/2000/svg"
   xmlns:svg="http://www.w3.org/2000/svg">
  <defs
     id="defs1">
    <clipPath
       clipPathUnits="userSpaceOnUse"
       id="clipPath2">
      <path
         d="M 0,0 H 1520.8333 V 344.96219 H 0 Z"
         transform="scale(0.33336987)"
         clip-rule="evenodd"
         id="path2" />
    </clipPath>
    <clipPath
       clipPathUnits="userSpaceOnUse"
       id="clipPath4">
      <path
         d="M 0,0 H 1520.8333 V 344.96219 H 0 Z"
         transform="matrix(0.33336987,0,0,0.33336987,-0.50000001,-0.50000001)"
         clip-rule="evenodd"
         id="path4" />
    </clipPath>
    <clipPath
       clipPathUnits="userSpaceOnUse"
       id="clipPath6">
      <path
         d="M 0,0 H 1520.8333 V 344.96219 H 0 Z"
         transform="matrix(0.33336987,0,0,0.33336987,-0.50000001,-0.50000001)"
         clip-rule="evenodd"
         id="path6" />
    </clipPath>
    <clipPath
       clipPathUnits="userSpaceOnUse"
       id="clipPath8">
      <path
         d="M 0,0 H 1520.8333 V 344.96219 H 0 Z"
         transform="matrix(0.33336987,0,0,0.33336987,-0.50000001,-0.50000001)"
         clip-rule="evenodd"
         id="path8" />
    </clipPath>
    <clipPath
       clipPathUnits="userSpaceOnUse"
       id="clipPath9">
      <path
         d="M 0,0 H 1520.8333 V 344.96219 H 0 Z"
         transform="matrix(0.33336652,0,0,0.33336652,-7.4999999,-87)"
         clip-rule="evenodd"
         id="path9" />
    </clipPath>
    <clipPath
       clipPathUnits="userSpaceOnUse"
       id="clipPath10">
      <path
         d="M 0,0 H 1520.8333 V 344.96219 H 0 Z"
         transform="matrix(0.33336652,0,0,0.33336652,-17.984375,-109)"
         clip-rule="evenodd"
         id="path10" />
    </clipPath>
    <clipPath
       clipPathUnits="userSpaceOnUse"
       id="clipPath12">
      <path
         d="M 0,0 H 1520.8333 V 344.96219 H 0 Z"
         transform="matrix(0.33336987,0,0,0.33336987,-0.50000001,-0.50000001)"
         clip-rule="evenodd"
         id="path12" />
    </clipPath>
    <clipPath
       clipPathUnits="userSpaceOnUse"
       id="clipPath13">
      <path
         d="M 0,0 H 1520.8333 V 344.96219 H 0 Z"
         transform="matrix(0.33336652,0,0,0.33336652,-15.421875,-16)"
         clip-rule="evenodd"
         id="path13" />
    </clipPath>
    <clipPath
       clipPathUnits="userSpaceOnUse"
       id="clipPath14">
      <path
         d="M 0,0 H 1520.8333 V 344.96219 H 0 Z"
         transform="matrix(0.33336652,0,0,0.33336652,-34.3125,-30)"
         clip-rule="evenodd"
         id="path14" />
    </clipPath>
    <clipPath
       clipPathUnits="userSpaceOnUse"
       id="clipPath15">
      <path
         d="M 0,0 H 1520.8333 V 344.96219 H 0 Z"
         transform="matrix(0.33336652,0,0,0.33336652,-35.984375,-45)"
         clip-rule="evenodd"
         id="path15" />
    </clipPath>
    <clipPath
       clipPathUnits="userSpaceOnUse"
       id="clipPath16">
      <path
         d="M 0,0 H 1520.8333 V 344.96219 H 0 Z"
         transform="matrix(0.33336652,0,0,0.33336652,-225.48438,-87)"
         clip-rule="evenodd"
         id="path16" />
    </clipPath>
    <clipPath
       clipPathUnits="userSpaceOnUse"
       id="clipPath17">
      <path
         d="M 0,0 H 1520.8333 V 344.96219 H 0 Z"
         transform="matrix(0.33336652,0,0,0.33336652,-221.98438,-109)"
         clip-rule="evenodd"
         id="path17" />
    </clipPath>
    <clipPath
       clipPathUnits="userSpaceOnUse"
       id="clipPath19">
      <path
         d="M 0,0 H 1520.8333 V 344.96219 H 0 Z"
         transform="matrix(0.33336987,0,0,0.33336987,-0.50000001,-0.50000001)"
         clip-rule="evenodd"
         id="path19" />
    </clipPath>
    <clipPath
       clipPathUnits="userSpaceOnUse"
       id="clipPath20">
      <path
         d="M 0,0 H 1520.8333 V 344.96219 H 0 Z"
         transform="matrix(0.33336652,0,0,0.33336652,-203.40625,-16)"
         clip-rule="evenodd"
         id="path20" />
    </clipPath>
    <clipPath
       clipPathUnits="userSpaceOnUse"
       id="clipPath21">
      <path
         d="M 0,0 H 1520.8333 V 344.96219 H 0 Z"
         transform="matrix(0.33336652,0,0,0.33336652,-209.64063,-30)"
         clip-rule="evenodd"
         id="path21" />
    </clipPath>
    <clipPath
       clipPathUnits="userSpaceOnUse"
       id="clipPath22">
      <path
         d="M 0,0 H 1520.8333 V 344.96219 H 0 Z"
         transform="matrix(0.33336652,0,0,0.33336652,-207.1875,-45)"
         clip-rule="evenodd"
         id="path22" />
    </clipPath>
    <clipPath
       clipPathUnits="userSpaceOnUse"
       id="clipPath23">
      <path
         d="M 0,0 H 1520.8333 V 344.96219 H 0 Z"
         transform="matrix(0.33336652,0,0,0.33336652,-361.45313,-87)"
         clip-rule="evenodd"
         id="path23" />
    </clipPath>
    <clipPath
       clipPathUnits="userSpaceOnUse"
       id="clipPath24">
      <path
         d="M 0,0 H 1520.8333 V 344.96219 H 0 Z"
         transform="matrix(0.33336652,0,0,0.33336652,-365.98438,-109)"
         clip-rule="evenodd"
         id="path24" />
    </clipPath>
    <clipPath
       clipPathUnits="userSpaceOnUse"
       id="clipPath26">
      <path
         d="M 0,0 H 1520.8333 V 344.96219 H 0 Z"
         transform="matrix(0.33336987,0,0,0.33336987,-0.50000001,-0.50000001)"
         clip-rule="evenodd"
         id="path26" />
    </clipPath>
    <clipPath
       clipPathUnits="userSpaceOnUse"
       id="clipPath27">
      <path
         d="M 0,0 H 1520.8333 V 344.96219 H 0 Z"
         transform="matrix(0.33336652,0,0,0.33336652,-388.75,-23)"
         clip-rule="evenodd"
         id="path27" />
    </clipPath>
    <clipPath
       clipPathUnits="userSpaceOnUse"
       id="clipPath28">
      <path
         d="M 0,0 H 1520.8333 V 344.96219 H 0 Z"
         transform="matrix(0.33336652,0,0,0.33336652,-392.53124,-38)"
         clip-rule="evenodd"
         id="path28" />
    </clipPath>
  </defs>
  <sodipodi:namedview
     id="namedview1"
     pagecolor="#ffffff"
     bordercolor="#000000"
     borderopacity="0.25"
     inkscape:showpageshadow="2"
     inkscape:pageopacity="0.0"
     inkscape:pagecheckerboard="0"
     inkscape:deskcolor="#d1d1d1">
    <inkscape:page
       x="0"
       y="0"
       inkscape:label="1"
       id="page1"
       width="486.71997"
       height="110.72"
       margin="0"
       bleed="0" />
  </sodipodi:namedview>
  <g
     id="g1"
     inkscape:groupmode="layer"
     inkscape:label="1">
    <path
       id="path1"
       d="M 0,0 H 507 V 115 H 0 Z"
       style="fill:#ffffff;fill-opacity:1;fill-rule:nonzero;stroke:none"
       transform="scale(0.95989474)"
       clip-path="url(#clipPath2)" />
    <path
       id="path3"
       d="M 56.369999,61 H 443.64001"
       style="fill:none;stroke:#000000;stroke-width:1;stroke-linecap:butt;stroke-linejoin:miter;stroke-miterlimit:10;stroke-dasharray:none;stroke-opacity:1"
       transform="matrix(0.95989474,0,0,0.95989474,0.47994738,0.47994738)"
       clip-path="url(#clipPath4)" />
    <path
       id="path5"
       d="m 51.119999,61 7,-3.5 -1.75,3.5 1.75,3.5 z"
       style="fill:#000000;fill-opacity:1;fill-rule:nonzero;stroke:#000000;stroke-width:1;stroke-linecap:butt;stroke-linejoin:miter;stroke-miterlimit:10;stroke-dasharray:none;stroke-opacity:1"
       transform="matrix(0.95989474,0,0,0.95989474,0.47994738,0.47994738)"
       clip-path="url(#clipPath6)" />
    <path
       id="path7"
       d="m 448.89001,61 -7,3.5 1.75,-3.5 -1.75,-3.5 z"
       style="fill:#000000;fill-opacity:1;fill-rule:nonzero;stroke:#000000;stroke-width:1;stroke-linecap:butt;stroke-linejoin:miter;stroke-miterlimit:10;stroke-dasharray:none;stroke-opacity:1"
       transform="matrix(0.95989474,0,0,0.95989474,0.47994738,0.47994738)"
       clip-path="url(#clipPath8)" />
    <text
       id="text8"
       xml:space="preserve"
       transform="matrix(0.95990438,0,0,0.95990438,7.1992828,83.511681)"
       clip-path="url(#clipPath9)"><tspan
         style="font-variant:normal;font-weight:normal;font-size:18px;font-family:Helvetica;writing-mode:lr-tb;fill:#000000;fill-opacity:1;fill-rule:nonzero;stroke:none"
         x="0 14.000977 27 41.994141 47.988281 51.987305 61.998047 70.998047 79.998047"
         y="0"
         sodipodi:role="line"
         id="tspan8">ORM-less,</tspan></text>
    <text
       id="text9"
       xml:space="preserve"
       transform="matrix(0.95990438,0,0,0.95990438,17.26328,104.62958)"
       clip-path="url(#clipPath10)"><tspan
         style="font-variant:normal;font-weight:normal;font-size:18px;font-family:Helvetica;writing-mode:lr-tb;fill:#000000;fill-opacity:1;fill-rule:nonzero;stroke:none"
         x="0 14.000977 26.006836 32.000977 36 46.010742 55.010742"
         y="0"
         sodipodi:role="line"
         id="tspan9">QB-less</tspan></text>
    <path
       id="path11"
       d="M 10,1 H 110 V 51 H 10 Z"
       style="fill:#ffffff;fill-opacity:1;fill-rule:nonzero;stroke:#000000;stroke-width:1;stroke-linecap:butt;stroke-linejoin:miter;stroke-miterlimit:10;stroke-dasharray:none;stroke-opacity:1"
       transform="matrix(0.95989474,0,0,0.95989474,0.47994738,0.47994738)"
       clip-path="url(#clipPath12)" />
    <text
       id="text12"
       xml:space="preserve"
       transform="matrix(0.95990438,0,0,0.95990438,14.803525,15.35847)"
       clip-path="url(#clipPath13)"><tspan
         style="font-style:oblique;font-variant:normal;font-weight:normal;font-size:12px;font-family:Helvetica;writing-mode:lr-tb;fill:#000000;fill-opacity:1;fill-rule:nonzero;stroke:none"
         x="0 11.115234 17.789062 21.123047 29.789062 33.785156 36.451172 39.785156 46.458984 49.792969 56.466797 59.132812 61.798828 65.132812 73.136719 82.470703"
         y="0"
         sodipodi:role="line"
         id="tspan12">We write all SQL</tspan></text>
    <text
       id="text13"
       xml:space="preserve"
       transform="matrix(0.95990438,0,0,0.95990438,32.936719,28.797131)"
       clip-path="url(#clipPath14)"><tspan
         style="font-style:oblique;font-variant:normal;font-weight:normal;font-size:12px;font-family:Helvetica;writing-mode:lr-tb;fill:#000000;fill-opacity:1;fill-rule:nonzero;stroke:none"
         x="0 6.6738281 13.347656 17.34375 23.34375 30.017578 32.683594 38.683594 45.357422"
         y="0"
         sodipodi:role="line"
         id="tspan13">ourselves</tspan></text>
    <text
       id="text14"
       xml:space="preserve"
       transform="matrix(0.95990438,0,0,0.95990438,34.541559,43.195697)"
       clip-path="url(#clipPath15)"><tspan
         style="font-style:oblique;font-variant:normal;font-weight:normal;font-size:12px;font-family:Helvetica;writing-mode:lr-tb;fill:#000000;fill-opacity:1;fill-rule:nonzero;stroke:none"
         x="0 9.9960938 16.669922 23.34375 30.017578 36.691406 39.357422 42.023438"
         y="0"
         sodipodi:role="line"
         id="tspan14">manually</tspan></text>
    <text
       id="text15"
       xml:space="preserve"
       transform="matrix(0.95990438,0,0,0.95990438,216.44344,83.511681)"
       clip-path="url(#clipPath16)"><tspan
         style="font-variant:normal;font-weight:normal;font-size:18px;font-family:Helvetica;writing-mode:lr-tb;fill:#000000;fill-opacity:1;fill-rule:nonzero;stroke:none"
         x="0 14.000977 24.011719 34.022461 40.016602"
         y="0"
         sodipodi:role="line"
         id="tspan15">Query</tspan></text>
    <text
       id="text16"
       xml:space="preserve"
       transform="matrix(0.95990438,0,0,0.95990438,213.08378,104.62958)"
       clip-path="url(#clipPath17)"><tspan
         style="font-variant:normal;font-weight:normal;font-size:18px;font-family:Helvetica;writing-mode:lr-tb;fill:#000000;fill-opacity:1;fill-rule:nonzero;stroke:none"
         x="0 12.005859 22.016602 26.015625 30.014648 40.025391 50.036133"
         y="0"
         sodipodi:role="line"
         id="tspan16">Builder</tspan></text>
    <path
       id="path18"
       d="M 200,1 H 300 V 51 H 200 Z"
       style="fill:#ffffff;fill-opacity:1;fill-rule:nonzero;stroke:#000000;stroke-width:1;stroke-linecap:butt;stroke-linejoin:miter;stroke-miterlimit:10;stroke-dasharray:none;stroke-opacity:1"
       transform="matrix(0.95989474,0,0,0.95989474,0.47994738,0.47994738)"
       clip-path="url(#clipPath19)" />
    <text
       id="text19"
       xml:space="preserve"
       transform="matrix(0.95990438,0,0,0.95990438,195.25055,15.35847)"
       clip-path="url(#clipPath20)"><tspan
         style="font-style:oblique;font-variant:normal;font-weight:normal;font-size:12px;font-family:Helvetica;writing-mode:lr-tb;fill:#000000;fill-opacity:1;fill-rule:nonzero;stroke:none"
         x="0 11.115234 17.789062 21.123047 29.789062 32.455078 35.121094 37.787109 41.121094 47.794922 53.794922 60.46875 63.802734 70.476562 73.810547 77.144531 83.818359 90.492188"
         y="0"
         sodipodi:role="line"
         id="tspan19">We will use a tool</tspan></text>
    <text
       id="text20"
       xml:space="preserve"
       transform="matrix(0.95990438,0,0,0.95990438,201.23496,28.797131)"
       clip-path="url(#clipPath21)"><tspan
         style="font-style:oblique;font-variant:normal;font-weight:normal;font-size:12px;font-family:Helvetica;writing-mode:lr-tb;fill:#000000;fill-opacity:1;fill-rule:nonzero;stroke:none"
         x="0 3.3339844 10.007812 13.341797 20.015625 26.689453 29.355469 36.029297 39.363281 46.037109 52.037109 55.371094 64.037109 68.033203 70.699219 74.033203"
         y="0"
         sodipodi:role="line"
         id="tspan20">to help us write</tspan></text>
    <text
       id="text21"
       xml:space="preserve"
       transform="matrix(0.95990438,0,0,0.95990438,198.88019,43.195697)"
       clip-path="url(#clipPath22)"><tspan
         style="font-style:oblique;font-variant:normal;font-weight:normal;font-size:12px;font-family:Helvetica;writing-mode:lr-tb;fill:#000000;fill-opacity:1;fill-rule:nonzero;stroke:none"
         x="0 8.0039062 17.337891 23.572266 26.90625 32.90625 36.240234 42.914062 46.248047 52.921875 62.917969 69.591797 76.265625 79.599609"
         y="0"
         sodipodi:role="line"
         id="tspan21">SQL statements</tspan></text>
    <text
       id="text22"
       xml:space="preserve"
       transform="matrix(0.95990438,0,0,0.95990438,346.96044,83.511681)"
       clip-path="url(#clipPath23)"><tspan
         style="font-variant:normal;font-weight:normal;font-size:18px;font-family:Helvetica;writing-mode:lr-tb;fill:#000000;fill-opacity:1;fill-rule:nonzero;stroke:none"
         x="0 14.000977 24.011719 28.010742 38.021484 47.021484 52.022461 57.023438 70.022461 80.033203 84.032227 94.042969 99.043945 103.04297 113.05371 123.06445 133.0752"
         y="0"
         sodipodi:role="line"
         id="tspan22">Object Relational</tspan></text>
    <text
       id="text23"
       xml:space="preserve"
       transform="matrix(0.95990438,0,0,0.95990438,351.31001,104.62958)"
       clip-path="url(#clipPath24)"><tspan
         style="font-variant:normal;font-weight:normal;font-size:18px;font-family:Helvetica;writing-mode:lr-tb;fill:#000000;fill-opacity:1;fill-rule:nonzero;stroke:none"
         x="0 14.994141 25.004883 35.015625 45.026367 49.025391 59.036133 69.046875 74.047852 80.041992 94.042969 107.04199 122.03613"
         y="0"
         sodipodi:role="line"
         id="tspan23">Mapping (ORM)</tspan></text>
    <path
       id="path25"
       d="M 380,1 H 480 V 51 H 380 Z"
       style="fill:#ffffff;fill-opacity:1;fill-rule:nonzero;stroke:#000000;stroke-width:1;stroke-linecap:butt;stroke-linejoin:miter;stroke-miterlimit:10;stroke-dasharray:none;stroke-opacity:1"
       transform="matrix(0.95989474,0,0,0.95989474,0.47994738,0.47994738)"
       clip-path="url(#clipPath26)" />
    <text
       id="text26"
       xml:space="preserve"
       transform="matrix(0.95990438,0,0,0.95990438,373.16283,22.077801)"
       clip-path="url(#clipPath27)"><tspan
         style="font-style:oblique;font-variant:normal;font-weight:normal;font-size:12px;font-family:Helvetica;writing-mode:lr-tb;fill:#000000;fill-opacity:1;fill-rule:nonzero;stroke:none"
         x="0 11.115234 17.789062 21.123047 27.796875 34.470703 38.466797 45.140625 47.806641 53.806641 57.140625 65.806641 69.802734 72.46875 75.802734"
         y="0"
         sodipodi:role="line"
         id="tspan26">We barely write</tspan></text>
    <text
       id="text27"
       xml:space="preserve"
       transform="matrix(0.95990438,0,0,0.95990438,376.79246,36.476366)"
       clip-path="url(#clipPath28)"><tspan
         style="font-style:oblique;font-variant:normal;font-weight:normal;font-size:12px;font-family:Helvetica;writing-mode:lr-tb;fill:#000000;fill-opacity:1;fill-rule:nonzero;stroke:none"
         x="0 6.6738281 13.347656 19.347656 22.681641 30.685547 40.019531 46.253906 49.587891 56.261719 59.595703 62.929688 69.603516 72.269531"
         y="0"
         sodipodi:role="line"
         id="tspan27">any SQL at all</tspan></text>
  </g>
</svg>
