<?xml version="1.0" encoding="UTF-8" standalone="no"?>
<!-- Created with Inkscape (http://www.inkscape.org/) -->

<svg
   version="1.1"
   id="svg1"
   width="405.44"
   height="186.56"
   viewBox="0 0 405.44 186.56"
   sodipodi:docname="sql-3.pdf"
   xmlns:inkscape="http://www.inkscape.org/namespaces/inkscape"
   xmlns:sodipodi="http://sodipodi.sourceforge.net/DTD/sodipodi-0.dtd"
   xmlns="http://www.w3.org/2000/svg"
   xmlns:svg="http://www.w3.org/2000/svg">
  <defs
     id="defs1">
    <clipPath
       clipPathUnits="userSpaceOnUse"
       id="clipPath2">
      <path
         d="M 0,0 H 1266.6666 V 582.54712 H 0 Z"
         transform="scale(0.33473685)"
         clip-rule="evenodd"
         id="path2" />
    </clipPath>
    <clipPath
       clipPathUnits="userSpaceOnUse"
       id="clipPath4">
      <path
         d="M 0,0 H 1266.6666 V 579.55975 H 0 Z"
         transform="matrix(0.33473685,0,0,0.33473685,-0.49999999,-0.49999999)"
         clip-rule="evenodd"
         id="path4" />
    </clipPath>
    <clipPath
       clipPathUnits="userSpaceOnUse"
       id="clipPath6">
      <path
         d="M 0,0 H 1266.6666 V 579.55975 H 0 Z"
         transform="matrix(0.33473685,0,0,0.33473685,-0.49999999,-0.49999999)"
         clip-rule="evenodd"
         id="path6" />
    </clipPath>
    <clipPath
       clipPathUnits="userSpaceOnUse"
       id="clipPath8">
      <path
         d="M 0,0 H 1266.6666 V 579.55975 H 0 Z"
         transform="matrix(0.33473685,0,0,0.33473685,-0.49999999,-0.49999999)"
         clip-rule="evenodd"
         id="path8" />
    </clipPath>
    <clipPath
       clipPathUnits="userSpaceOnUse"
       id="clipPath9">
      <path
         d="M 0,0 H 1266.6666 V 579.55975 H 0 Z"
         transform="matrix(0.33473351,0,0,0.33473351,-24.640625,-27)"
         clip-rule="evenodd"
         id="path9" />
    </clipPath>
    <clipPath
       clipPathUnits="userSpaceOnUse"
       id="clipPath10">
      <path
         d="M 0,0 H 1266.6666 V 579.55975 H 0 Z"
         transform="matrix(0.33473351,0,0,0.33473351,-185.96875,-49)"
         clip-rule="evenodd"
         id="path10" />
    </clipPath>
    <clipPath
       clipPathUnits="userSpaceOnUse"
       id="clipPath12">
      <path
         d="M 0,0 H 1266.6666 V 579.55975 H 0 Z"
         transform="matrix(0.33473685,0,0,0.33473685,-0.49999999,-0.49999999)"
         clip-rule="evenodd"
         id="path12" />
    </clipPath>
    <clipPath
       clipPathUnits="userSpaceOnUse"
       id="clipPath13">
      <path
         d="M 0,0 H 1266.6666 V 579.55975 H 0 Z"
         transform="matrix(0.33473351,0,0,0.33473351,-29.421875,-136)"
         clip-rule="evenodd"
         id="path13" />
    </clipPath>
    <clipPath
       clipPathUnits="userSpaceOnUse"
       id="clipPath14">
      <path
         d="M 0,0 H 1266.6666 V 579.55975 H 0 Z"
         transform="matrix(0.33473351,0,0,0.33473351,-17.687501,-158)"
         clip-rule="evenodd"
         id="path14" />
    </clipPath>
    <clipPath
       clipPathUnits="userSpaceOnUse"
       id="clipPath15">
      <path
         d="M 0,0 H 1266.6666 V 579.55975 H 0 Z"
         transform="matrix(0.33473351,0,0,0.33473351,-167.96875,-179)"
         clip-rule="evenodd"
         id="path15" />
    </clipPath>
  </defs>
  <sodipodi:namedview
     id="namedview1"
     pagecolor="#ffffff"
     bordercolor="#000000"
     borderopacity="0.25"
     inkscape:showpageshadow="2"
     inkscape:pageopacity="0.0"
     inkscape:pagecheckerboard="0"
     inkscape:deskcolor="#d1d1d1">
    <inkscape:page
       x="0"
       y="0"
       inkscape:label="1"
       id="page1"
       width="405.44"
       height="186.56"
       margin="0"
       bleed="0" />
  </sodipodi:namedview>
  <g
     id="g1"
     inkscape:groupmode="layer"
     inkscape:label="1">
    <path
       id="path1"
       d="M 0,0 H 424 V 195 H 0 Z"
       style="fill:#ffffff;fill-opacity:1;fill-rule:nonzero;stroke:none"
       transform="scale(0.95597478)"
       clip-path="url(#clipPath2)" />
    <path
       id="path3"
       d="m 211,61 v 43.63"
       style="fill:none;stroke:#000000;stroke-width:1;stroke-linecap:butt;stroke-linejoin:miter;stroke-miterlimit:10;stroke-dasharray:none;stroke-opacity:1"
       transform="matrix(0.95597478,0,0,0.95597478,0.47798738,0.47798738)"
       clip-path="url(#clipPath4)" />
    <path
       id="path5"
       d="m 211,109.88 -3.5,-7 3.5,1.75 3.5,-1.75 z"
       style="fill:#000000;fill-opacity:1;fill-rule:nonzero;stroke:#000000;stroke-width:1;stroke-linecap:butt;stroke-linejoin:miter;stroke-miterlimit:10;stroke-dasharray:none;stroke-opacity:1"
       transform="matrix(0.95597478,0,0,0.95597478,0.47798738,0.47798738)"
       clip-path="url(#clipPath6)" />
    <path
       id="path7"
       d="M 1,1 H 421 V 61 H 1 Z"
       style="fill:#f8cecc;fill-opacity:1;fill-rule:nonzero;stroke:#b85450;stroke-width:1;stroke-linecap:butt;stroke-linejoin:miter;stroke-miterlimit:10;stroke-dasharray:none;stroke-opacity:1"
       transform="matrix(0.95597478,0,0,0.95597478,0.47798738,0.47798738)"
       clip-path="url(#clipPath8)" />
    <text
       id="text8"
       xml:space="preserve"
       transform="matrix(0.95598431,0,0,0.95598431,23.556051,25.811576)"
       clip-path="url(#clipPath9)"><tspan
         style="font-variant:normal;font-weight:normal;font-size:18px;font-family:Helvetica;writing-mode:lr-tb;fill:#000000;fill-opacity:1;fill-rule:nonzero;stroke:none"
         x="0 12.999023 23.009766 33.020508 36.457031 41.458008 46.458984 59.458008 69.46875 79.479492 84.480469 89.481445 94.482422 104.49316 109.49414 122.49316 128.4873 132.48633 137.4873 147.49805 152.49902 161.49902 171.50977 180.50977 190.52051 199.52051 208.52051 214.51465 218.51367 228.52441 233.52539 243.53613 248.2207 259.21582 269.22656 279.2373 284.23828 287.6748 296.6748 301.67578 315.67676 327.68262 332.68359 337.68457 349.69043 358.69043 362.68945"
         y="0"
         sodipodi:role="line"
         id="tspan8">Don't want to write Javascript? That's OK! Skip</tspan></text>
    <text
       id="text9"
       xml:space="preserve"
       transform="matrix(0.95598431,0,0,0.95598431,177.78321,46.843231)"
       clip-path="url(#clipPath10)"><tspan
         style="font-variant:normal;font-weight:normal;font-size:18px;font-family:Helvetica;writing-mode:lr-tb;fill:#000000;fill-opacity:1;fill-rule:nonzero;stroke:none"
         x="0 10.010742 20.021484 30.032227 40.042969"
         y="0"
         sodipodi:role="line"
         id="tspan9">ahead</tspan></text>
    <path
       id="path11"
       d="m 1,111 h 420 v 80 H 1 Z"
       style="fill:#f8cecc;fill-opacity:1;fill-rule:nonzero;stroke:#b85450;stroke-width:1;stroke-linecap:butt;stroke-linejoin:miter;stroke-miterlimit:10;stroke-dasharray:none;stroke-opacity:1"
       transform="matrix(0.95597478,0,0,0.95597478,0.47798738,0.47798738)"
       clip-path="url(#clipPath12)" />
    <text
       id="text12"
       xml:space="preserve"
       transform="matrix(0.95598431,0,0,0.95598431,28.126851,130.01387)"
       clip-path="url(#clipPath13)"><tspan
         style="font-variant:normal;font-weight:normal;font-size:18px;font-family:Helvetica;writing-mode:lr-tb;fill:#000000;fill-opacity:1;fill-rule:nonzero;stroke:none"
         x="0 10.995117 21.005859 25.004883 34.004883 39.005859 48.005859 58.016602 67.016602 72.017578 76.016602 86.027344 96.038086 101.03906 105.03809 114.03809 119.03906 129.0498 133.04883 137.04785 142.04883 152.05957 162.07031 172.08105 182.0918 187.09277 192.09375 205.09277 215.10352 221.09766 230.09766 234.09668 244.10742 254.11816 259.11914 272.11816 276.11719 281.11816 291.12891 296.12988 308.13574 322.13672 327.1377 332.13867 338.13281 348.14355"
         y="0"
         sodipodi:role="line"
         id="tspan12">This section is all about working with PG from</tspan></text>
    <text
       id="text13"
       xml:space="preserve"
       transform="matrix(0.95598431,0,0,0.95598431,16.908973,151.04552)"
       clip-path="url(#clipPath14)"><tspan
         style="font-variant:normal;font-weight:normal;font-size:18px;font-family:Helvetica;writing-mode:lr-tb;fill:#000000;fill-opacity:1;fill-rule:nonzero;stroke:none"
         x="0 9 19.010742 28.010742 38.021484 47.021484 56.021484 62.015625 66.014648 76.025391 81.026367 86.027344 92.021484 97.022461 106.02246 116.0332 126.04395 131.04492 141.05566 147.0498 157.06055 167.07129 170.50781 175.50879 180.50977 195.50391 199.50293 208.50293 217.50293 221.50195 231.5127 241.52344 246.52441 261.51855 271.5293 280.5293 290.54004 295.54102 305.55176 315.5625 325.57324 335.58398 341.57812 351.58887 355.58789 360.58887 372.59473"
         y="0"
         sodipodi:role="line"
         id="tspan13">Javascript - you aren't missing much general PG</tspan></text>
    <text
       id="text14"
       xml:space="preserve"
       transform="matrix(0.95598431,0,0,0.95598431,160.57549,171.12119)"
       clip-path="url(#clipPath15)"><tspan
         style="font-variant:normal;font-weight:normal;font-size:18px;font-family:Helvetica;writing-mode:lr-tb;fill:#000000;fill-opacity:1;fill-rule:nonzero;stroke:none"
         x="0 9 19.010742 29.021484 42.020508 46.019531 56.030273 66.041016 76.051758"
         y="0"
         sodipodi:role="line"
         id="tspan14">knowledge</tspan></text>
  </g>
</svg>
