<?xml version="1.0" encoding="UTF-8" standalone="no"?>
<!-- Created with Inkscape (http://www.inkscape.org/) -->

<svg
   version="1.1"
   id="svg1"
   width="760"
   height="244.16"
   viewBox="0 0 760 244.16"
   sodipodi:docname="sql-8.pdf"
   xmlns:inkscape="http://www.inkscape.org/namespaces/inkscape"
   xmlns:sodipodi="http://sodipodi.sourceforge.net/DTD/sodipodi-0.dtd"
   xmlns="http://www.w3.org/2000/svg"
   xmlns:svg="http://www.w3.org/2000/svg">
  <defs
     id="defs1">
    <clipPath
       clipPathUnits="userSpaceOnUse"
       id="clipPath2">
      <path
         d="M 0,0 H 2375 V 759.76068 H 0 Z"
         transform="scale(0.3343158)"
         clip-rule="evenodd"
         id="path2" />
    </clipPath>
    <clipPath
       clipPathUnits="userSpaceOnUse"
       id="clipPath4">
      <path
         d="M 0,0 H 2375 V 759.76068 H 0 Z"
         transform="matrix(0.3343158,0,0,0.3343158,-0.49999999,-0.49999999)"
         clip-rule="evenodd"
         id="path4" />
    </clipPath>
    <clipPath
       clipPathUnits="userSpaceOnUse"
       id="clipPath6">
      <path
         d="M 0,0 H 2375 V 759.76068 H 0 Z"
         transform="matrix(0.3343158,0,0,0.3343158,-0.49999999,-0.49999999)"
         clip-rule="evenodd"
         id="path6" />
    </clipPath>
    <clipPath
       clipPathUnits="userSpaceOnUse"
       id="clipPath7">
      <path
         d="M 0,0 H 2375 V 759.76068 H 0 Z"
         transform="matrix(0.33431244,0,0,0.33431244,-725.98438,-88)"
         clip-rule="evenodd"
         id="path7" />
    </clipPath>
    <clipPath
       clipPathUnits="userSpaceOnUse"
       id="clipPath9">
      <path
         d="M 0,0 H 2375 V 759.76068 H 0 Z"
         transform="matrix(0.3343158,0,0,0.3343158,-0.49999999,-0.49999999)"
         clip-rule="evenodd"
         id="path9" />
    </clipPath>
    <clipPath
       clipPathUnits="userSpaceOnUse"
       id="clipPath10">
      <path
         d="M 0,0 H 2375 V 759.76068 H 0 Z"
         transform="matrix(0.33431244,0,0,0.33431244,-735.98437,-137)"
         clip-rule="evenodd"
         id="path10" />
    </clipPath>
    <clipPath
       clipPathUnits="userSpaceOnUse"
       id="clipPath12">
      <path
         d="M 0,0 H 2375 V 759.76068 H 0 Z"
         transform="matrix(0.3343158,0,0,0.3343158,-0.49999999,-0.49999999)"
         clip-rule="evenodd"
         id="path12" />
    </clipPath>
    <clipPath
       clipPathUnits="userSpaceOnUse"
       id="clipPath13">
      <path
         d="M 0,0 H 2375 V 759.76068 H 0 Z"
         transform="matrix(0.33431244,0,0,0.33431244,-470.73438,-21)"
         clip-rule="evenodd"
         id="path13" />
    </clipPath>
    <clipPath
       clipPathUnits="userSpaceOnUse"
       id="clipPath15">
      <path
         d="M 0,0 H 2375 V 759.76068 H 0 Z"
         transform="matrix(0.3343158,0,0,0.3343158,-0.49999999,-0.49999999)"
         clip-rule="evenodd"
         id="path15" />
    </clipPath>
    <clipPath
       clipPathUnits="userSpaceOnUse"
       id="clipPath17">
      <path
         d="M 0,0 H 2375 V 759.76068 H 0 Z"
         transform="matrix(0.3343158,0,0,0.3343158,-0.49999999,-0.49999999)"
         clip-rule="evenodd"
         id="path17" />
    </clipPath>
    <clipPath
       clipPathUnits="userSpaceOnUse"
       id="clipPath19">
      <path
         d="M 0,0 H 2375 V 759.76068 H 0 Z"
         transform="matrix(0.3343158,0,0,0.3343158,-0.49999999,-0.49999999)"
         clip-rule="evenodd"
         id="path19" />
    </clipPath>
    <clipPath
       clipPathUnits="userSpaceOnUse"
       id="clipPath21">
      <path
         d="M 0,0 H 2375 V 759.76068 H 0 Z"
         transform="matrix(0.3343158,0,0,0.3343158,-0.49999999,-0.49999999)"
         clip-rule="evenodd"
         id="path21" />
    </clipPath>
    <clipPath
       clipPathUnits="userSpaceOnUse"
       id="clipPath22">
      <path
         d="M 0,0 H 2375 V 759.76068 H 0 Z"
         transform="matrix(0.33431244,0,0,0.33431244,-608.89062,-118)"
         clip-rule="evenodd"
         id="path22" />
    </clipPath>
    <clipPath
       clipPathUnits="userSpaceOnUse"
       id="clipPath23">
      <path
         d="M 0,0 H 2375 V 759.76068 H 0 Z"
         transform="matrix(0.33431244,0,0,0.33431244,-614.67188,-134)"
         clip-rule="evenodd"
         id="path23" />
    </clipPath>
    <clipPath
       clipPathUnits="userSpaceOnUse"
       id="clipPath24">
      <path
         d="M 0,0 H 2375 V 759.76068 H 0 Z"
         transform="matrix(0.33431244,0,0,0.33431244,-613.23438,-149)"
         clip-rule="evenodd"
         id="path24" />
    </clipPath>
    <clipPath
       clipPathUnits="userSpaceOnUse"
       id="clipPath26">
      <path
         d="M 0,0 H 2375 V 759.76068 H 0 Z"
         transform="matrix(0.3343158,0,0,0.3343158,-0.49999999,-0.49999999)"
         clip-rule="evenodd"
         id="path26" />
    </clipPath>
    <clipPath
       clipPathUnits="userSpaceOnUse"
       id="clipPath28">
      <path
         d="M 0,0 H 2375 V 759.76068 H 0 Z"
         transform="matrix(0.3343158,0,0,0.3343158,-0.49999999,-0.49999999)"
         clip-rule="evenodd"
         id="path28" />
    </clipPath>
    <clipPath
       clipPathUnits="userSpaceOnUse"
       id="clipPath30">
      <path
         d="M 0,0 H 2375 V 759.76068 H 0 Z"
         transform="matrix(0.3343158,0,0,0.3343158,-0.49999999,-0.49999999)"
         clip-rule="evenodd"
         id="path30" />
    </clipPath>
    <clipPath
       clipPathUnits="userSpaceOnUse"
       id="clipPath31">
      <path
         d="M 0,0 H 2375 V 759.76068 H 0 Z"
         transform="matrix(0.33431244,0,0,0.33431244,-375.76563,-77.999999)"
         clip-rule="evenodd"
         id="path31" />
    </clipPath>
    <clipPath
       clipPathUnits="userSpaceOnUse"
       id="clipPath32">
      <path
         d="M 0,0 H 2375 V 759.76068 H 0 Z"
         transform="matrix(0.33431244,0,0,0.33431244,-412.98438,-93.999999)"
         clip-rule="evenodd"
         id="path32" />
    </clipPath>
    <clipPath
       clipPathUnits="userSpaceOnUse"
       id="clipPath34">
      <path
         d="M 0,0 H 2375 V 759.76068 H 0 Z"
         transform="matrix(0.3343158,0,0,0.3343158,-0.49999999,-0.49999999)"
         clip-rule="evenodd"
         id="path34" />
    </clipPath>
    <clipPath
       clipPathUnits="userSpaceOnUse"
       id="clipPath36">
      <path
         d="M 0,0 H 2375 V 759.76068 H 0 Z"
         transform="matrix(0.3343158,0,0,0.3343158,-0.49999999,-0.49999999)"
         clip-rule="evenodd"
         id="path36" />
    </clipPath>
    <clipPath
       clipPathUnits="userSpaceOnUse"
       id="clipPath38">
      <path
         d="M 0,0 H 2375 V 759.76068 H 0 Z"
         transform="matrix(0.3343158,0,0,0.3343158,-0.49999999,-0.49999999)"
         clip-rule="evenodd"
         id="path38" />
    </clipPath>
    <clipPath
       clipPathUnits="userSpaceOnUse"
       id="clipPath39">
      <path
         d="M 0,0 H 2375 V 759.76068 H 0 Z"
         transform="matrix(0.33431244,0,0,0.33431244,-522.98438,-85.999999)"
         clip-rule="evenodd"
         id="path39" />
    </clipPath>
    <clipPath
       clipPathUnits="userSpaceOnUse"
       id="clipPath41">
      <path
         d="M 0,0 H 2375 V 759.76068 H 0 Z"
         transform="matrix(0.3343158,0,0,0.3343158,-0.49999999,-0.49999999)"
         clip-rule="evenodd"
         id="path41" />
    </clipPath>
    <clipPath
       clipPathUnits="userSpaceOnUse"
       id="clipPath42">
      <path
         d="M 0,0 H 2375 V 759.76068 H 0 Z"
         transform="matrix(0.33431244,0,0,0.33431244,-522.26563,-189)"
         clip-rule="evenodd"
         id="path42" />
    </clipPath>
    <clipPath
       clipPathUnits="userSpaceOnUse"
       id="clipPath44">
      <path
         d="M 0,0 H 2375 V 759.76068 H 0 Z"
         transform="matrix(0.3343158,0,0,0.3343158,-0.49999999,-0.49999999)"
         clip-rule="evenodd"
         id="path44" />
    </clipPath>
    <clipPath
       clipPathUnits="userSpaceOnUse"
       id="clipPath45">
      <path
         d="M 0,0 H 2375 V 759.76068 H 0 Z"
         transform="matrix(0.33431244,0,0,0.33431244,-380.10938,-173)"
         clip-rule="evenodd"
         id="path45" />
    </clipPath>
    <clipPath
       clipPathUnits="userSpaceOnUse"
       id="clipPath46">
      <path
         d="M 0,0 H 2375 V 759.76068 H 0 Z"
         transform="matrix(0.33431244,0,0,0.33431244,-388.06249,-189)"
         clip-rule="evenodd"
         id="path46" />
    </clipPath>
    <clipPath
       clipPathUnits="userSpaceOnUse"
       id="clipPath48">
      <path
         d="M 0,0 H 2375 V 759.76068 H 0 Z"
         transform="matrix(0.3343158,0,0,0.3343158,-0.49999999,-0.49999999)"
         clip-rule="evenodd"
         id="path48" />
    </clipPath>
    <clipPath
       clipPathUnits="userSpaceOnUse"
       id="clipPath50">
      <path
         d="M 0,0 H 2375 V 759.76068 H 0 Z"
         transform="matrix(0.3343158,0,0,0.3343158,-0.49999999,-0.49999999)"
         clip-rule="evenodd"
         id="path50" />
    </clipPath>
    <clipPath
       clipPathUnits="userSpaceOnUse"
       id="clipPath52">
      <path
         d="M 0,0 H 2375 V 759.76068 H 0 Z"
         transform="matrix(0.3343158,0,0,0.3343158,-0.49999999,-0.49999999)"
         clip-rule="evenodd"
         id="path52" />
    </clipPath>
    <clipPath
       clipPathUnits="userSpaceOnUse"
       id="clipPath54">
      <path
         d="M 0,0 H 2375 V 759.76068 H 0 Z"
         transform="matrix(0.3343158,0,0,0.3343158,-0.49999999,-0.49999999)"
         clip-rule="evenodd"
         id="path54" />
    </clipPath>
    <clipPath
       clipPathUnits="userSpaceOnUse"
       id="clipPath56">
      <path
         d="M 0,0 H 2375 V 759.76068 H 0 Z"
         transform="matrix(0.3343158,0,0,0.3343158,-0.49999999,-0.49999999)"
         clip-rule="evenodd"
         id="path56" />
    </clipPath>
    <clipPath
       clipPathUnits="userSpaceOnUse"
       id="clipPath58">
      <path
         d="M 0,0 H 2375 V 759.76068 H 0 Z"
         transform="matrix(0.3343158,0,0,0.3343158,-0.49999999,-0.49999999)"
         clip-rule="evenodd"
         id="path58" />
    </clipPath>
    <clipPath
       clipPathUnits="userSpaceOnUse"
       id="clipPath60">
      <path
         d="M 0,0 H 2375 V 759.76068 H 0 Z"
         transform="matrix(0.3343158,0,0,0.3343158,-0.49999999,-0.49999999)"
         clip-rule="evenodd"
         id="path60" />
    </clipPath>
    <clipPath
       clipPathUnits="userSpaceOnUse"
       id="clipPath62">
      <path
         d="M 0,0 H 2375 V 759.76068 H 0 Z"
         transform="matrix(0.3343158,0,0,0.3343158,-0.49999999,-0.49999999)"
         clip-rule="evenodd"
         id="path62" />
    </clipPath>
    <clipPath
       clipPathUnits="userSpaceOnUse"
       id="clipPath64">
      <path
         d="M 0,0 H 2375 V 759.76068 H 0 Z"
         transform="matrix(0.3343158,0,0,0.3343158,-0.49999999,-0.49999999)"
         clip-rule="evenodd"
         id="path64" />
    </clipPath>
    <clipPath
       clipPathUnits="userSpaceOnUse"
       id="clipPath66">
      <path
         d="M 0,0 H 2375 V 759.76068 H 0 Z"
         transform="matrix(0.3343158,0,0,0.3343158,-0.49999999,-0.49999999)"
         clip-rule="evenodd"
         id="path66" />
    </clipPath>
    <clipPath
       clipPathUnits="userSpaceOnUse"
       id="clipPath68">
      <path
         d="M 0,0 H 2375 V 759.76068 H 0 Z"
         transform="matrix(0.3343158,0,0,0.3343158,-0.49999999,-0.49999999)"
         clip-rule="evenodd"
         id="path68" />
    </clipPath>
    <clipPath
       clipPathUnits="userSpaceOnUse"
       id="clipPath70">
      <path
         d="M 0,0 H 2375 V 759.76068 H 0 Z"
         transform="matrix(0.3343158,0,0,0.3343158,-0.49999999,-0.49999999)"
         clip-rule="evenodd"
         id="path70" />
    </clipPath>
    <clipPath
       clipPathUnits="userSpaceOnUse"
       id="clipPath72">
      <path
         d="M 0,0 H 2375 V 759.76068 H 0 Z"
         transform="matrix(0.3343158,0,0,0.3343158,-0.49999999,-0.49999999)"
         clip-rule="evenodd"
         id="path72" />
    </clipPath>
    <clipPath
       clipPathUnits="userSpaceOnUse"
       id="clipPath73">
      <path
         d="M 0,0 H 2375 V 759.76068 H 0 Z"
         transform="matrix(0.33431244,0,0,0.33431244,-13.984375,-105)"
         clip-rule="evenodd"
         id="path73" />
    </clipPath>
    <clipPath
       clipPathUnits="userSpaceOnUse"
       id="clipPath74">
      <path
         d="M 0,0 H 2375 V 759.76068 H 0 Z"
         transform="matrix(0.33431244,0,0,0.33431244,-9.484375,-127)"
         clip-rule="evenodd"
         id="path74" />
    </clipPath>
    <clipPath
       clipPathUnits="userSpaceOnUse"
       id="clipPath75">
      <path
         d="M 0,0 H 2375 V 759.76068 H 0 Z"
         transform="matrix(0.33431244,0,0,0.33431244,-34.984375,-149)"
         clip-rule="evenodd"
         id="path75" />
    </clipPath>
    <clipPath
       clipPathUnits="userSpaceOnUse"
       id="clipPath76">
      <path
         d="M 0,0 H 2375 V 759.76068 H 0 Z"
         transform="matrix(0.33431244,0,0,0.33431244,-29.984375,-170)"
         clip-rule="evenodd"
         id="path76" />
    </clipPath>
    <clipPath
       clipPathUnits="userSpaceOnUse"
       id="clipPath78">
      <path
         d="M 0,0 H 2375 V 759.76068 H 0 Z"
         transform="matrix(0.3343158,0,0,0.3343158,-0.49999999,-0.49999999)"
         clip-rule="evenodd"
         id="path78" />
    </clipPath>
    <clipPath
       clipPathUnits="userSpaceOnUse"
       id="clipPath80">
      <path
         d="M 0,0 H 2375 V 759.76068 H 0 Z"
         transform="matrix(0.3343158,0,0,0.3343158,-0.49999999,-0.49999999)"
         clip-rule="evenodd"
         id="path80" />
    </clipPath>
    <clipPath
       clipPathUnits="userSpaceOnUse"
       id="clipPath82">
      <path
         d="M 0,0 H 2375 V 759.76068 H 0 Z"
         transform="matrix(0.3343158,0,0,0.3343158,-0.49999999,-0.49999999)"
         clip-rule="evenodd"
         id="path82" />
    </clipPath>
    <clipPath
       clipPathUnits="userSpaceOnUse"
       id="clipPath83">
      <path
         d="M 0,0 H 2375 V 759.76068 H 0 Z"
         transform="matrix(0.33431244,0,0,0.33431244,-199.375,-77.999999)"
         clip-rule="evenodd"
         id="path83" />
    </clipPath>
    <clipPath
       clipPathUnits="userSpaceOnUse"
       id="clipPath84">
      <path
         d="M 0,0 H 2375 V 759.76068 H 0 Z"
         transform="matrix(0.33431244,0,0,0.33431244,-211.1875,-93.999999)"
         clip-rule="evenodd"
         id="path84" />
    </clipPath>
    <clipPath
       clipPathUnits="userSpaceOnUse"
       id="clipPath86">
      <path
         d="M 0,0 H 2375 V 759.76068 H 0 Z"
         transform="matrix(0.3343158,0,0,0.3343158,-0.49999999,-0.49999999)"
         clip-rule="evenodd"
         id="path86" />
    </clipPath>
    <clipPath
       clipPathUnits="userSpaceOnUse"
       id="clipPath88">
      <path
         d="M 0,0 H 2375 V 759.76068 H 0 Z"
         transform="matrix(0.3343158,0,0,0.3343158,-0.49999999,-0.49999999)"
         clip-rule="evenodd"
         id="path88" />
    </clipPath>
    <clipPath
       clipPathUnits="userSpaceOnUse"
       id="clipPath90">
      <path
         d="M 0,0 H 2375 V 759.76068 H 0 Z"
         transform="matrix(0.3343158,0,0,0.3343158,-0.49999999,-0.49999999)"
         clip-rule="evenodd"
         id="path90" />
    </clipPath>
    <clipPath
       clipPathUnits="userSpaceOnUse"
       id="clipPath91">
      <path
         d="M 0,0 H 2375 V 759.76068 H 0 Z"
         transform="matrix(0.33431244,0,0,0.33431244,-199.375,-156)"
         clip-rule="evenodd"
         id="path91" />
    </clipPath>
    <clipPath
       clipPathUnits="userSpaceOnUse"
       id="clipPath92">
      <path
         d="M 0,0 H 2375 V 759.76068 H 0 Z"
         transform="matrix(0.33431244,0,0,0.33431244,-211.1875,-172)"
         clip-rule="evenodd"
         id="path92" />
    </clipPath>
    <clipPath
       clipPathUnits="userSpaceOnUse"
       id="clipPath94">
      <path
         d="M 0,0 H 2375 V 759.76068 H 0 Z"
         transform="matrix(0.3343158,0,0,0.3343158,-0.49999999,-0.49999999)"
         clip-rule="evenodd"
         id="path94" />
    </clipPath>
    <clipPath
       clipPathUnits="userSpaceOnUse"
       id="clipPath96">
      <path
         d="M 0,0 H 2375 V 759.76068 H 0 Z"
         transform="matrix(0.3343158,0,0,0.3343158,-0.49999999,-0.49999999)"
         clip-rule="evenodd"
         id="path96" />
    </clipPath>
    <clipPath
       clipPathUnits="userSpaceOnUse"
       id="clipPath98">
      <path
         d="M 0,0 H 2375 V 759.76068 H 0 Z"
         transform="matrix(0.3343158,0,0,0.3343158,-0.49999999,-0.49999999)"
         clip-rule="evenodd"
         id="path98" />
    </clipPath>
    <clipPath
       clipPathUnits="userSpaceOnUse"
       id="clipPath99">
      <path
         d="M 0,0 H 2375 V 759.76068 H 0 Z"
         transform="matrix(0.33431244,0,0,0.33431244,-207.34375,-221)"
         clip-rule="evenodd"
         id="path99" />
    </clipPath>
    <clipPath
       clipPathUnits="userSpaceOnUse"
       id="clipPath100">
      <path
         d="M 0,0 H 2375 V 759.76068 H 0 Z"
         transform="matrix(0.33431244,0,0,0.33431244,-219.85938,-237)"
         clip-rule="evenodd"
         id="path100" />
    </clipPath>
  </defs>
  <sodipodi:namedview
     id="namedview1"
     pagecolor="#ffffff"
     bordercolor="#000000"
     borderopacity="0.25"
     inkscape:showpageshadow="2"
     inkscape:pageopacity="0.0"
     inkscape:pagecheckerboard="0"
     inkscape:deskcolor="#d1d1d1">
    <inkscape:page
       x="0"
       y="0"
       inkscape:label="1"
       id="page1"
       width="760"
       height="244.16"
       margin="0"
       bleed="0" />
  </sodipodi:namedview>
  <g
     id="g1"
     inkscape:groupmode="layer"
     inkscape:label="1">
    <path
       id="path1"
       d="M 0,0 H 794 V 254 H 0 Z"
       style="fill:#ffffff;fill-opacity:1;fill-rule:nonzero;stroke:none"
       transform="scale(0.95717878)"
       clip-path="url(#clipPath2)" />
    <path
       id="path3"
       d="m 721.01001,93.5 h 70 V 176 h -70 z"
       style="fill:#d5e8d4;fill-opacity:1;fill-rule:nonzero;stroke:#82b366;stroke-width:1;stroke-linecap:butt;stroke-linejoin:miter;stroke-miterlimit:10;stroke-dasharray:none;stroke-opacity:1"
       transform="matrix(0.95717878,0,0,0.95717878,0.47858938,0.47858938)"
       clip-path="url(#clipPath4)" />
    <path
       id="path5"
       d="m 721.01001,76 h 70 v 17.5 h -70 z"
       style="fill:#d5e8d4;fill-opacity:1;fill-rule:nonzero;stroke:#82b366;stroke-width:1;stroke-linecap:butt;stroke-linejoin:miter;stroke-miterlimit:10;stroke-dasharray:none;stroke-opacity:1"
       transform="matrix(0.95717878,0,0,0.95717878,0.47858938,0.47858938)"
       clip-path="url(#clipPath6)" />
    <text
       id="text6"
       xml:space="preserve"
       transform="matrix(0.95718838,0,0,0.95718838,694.90381,84.232577)"
       clip-path="url(#clipPath7)"><tspan
         style="font-variant:normal;font-weight:700;font-size:9px;font-family:Helvetica;writing-mode:lr-tb;fill:#000000;fill-opacity:1;fill-rule:nonzero;stroke:none"
         x="0 5.0053711 10.50293 15.508301 18.008789 23.01416 25.514648 31.012207 36.017578 39.014648 46.015137 51.512695 55.015137"
         y="0"
         sodipodi:role="line"
         id="tspan6">socialnetwork</tspan></text>
    <path
       id="path8"
       d="m 732.26001,106 h 47.5 v 50 h -47.5 z"
       style="fill:#ffe6cc;fill-opacity:1;fill-rule:nonzero;stroke:#d79b00;stroke-width:1;stroke-linecap:butt;stroke-linejoin:miter;stroke-miterlimit:10;stroke-dasharray:none;stroke-opacity:1"
       transform="matrix(0.95717878,0,0,0.95717878,0.47858938,0.47858938)"
       clip-path="url(#clipPath9)" />
    <text
       id="text9"
       xml:space="preserve"
       transform="matrix(0.95718838,0,0,0.95718838,704.47569,131.13481)"
       clip-path="url(#clipPath10)"><tspan
         style="font-variant:normal;font-weight:700;font-size:15px;font-family:Helvetica;writing-mode:lr-tb;fill:#000000;fill-opacity:1;fill-rule:nonzero;stroke:none"
         x="0 9.1625977 17.504883 25.847168 31.68457"
         y="0"
         sodipodi:role="line"
         id="tspan9">users</tspan></text>
    <path
       id="path11"
       d="M 361,1 H 651 V 31 H 361 Z"
       style="fill:#dae8fc;fill-opacity:1;fill-rule:nonzero;stroke:#6c8ebf;stroke-width:1;stroke-linecap:butt;stroke-linejoin:miter;stroke-miterlimit:10;stroke-dasharray:none;stroke-opacity:1"
       transform="matrix(0.95717878,0,0,0.95717878,0.47858938,0.47858938)"
       clip-path="url(#clipPath12)" />
    <text
       id="text12"
       xml:space="preserve"
       transform="matrix(0.95718838,0,0,0.95718838,450.58148,20.100956)"
       clip-path="url(#clipPath13)"><tspan
         style="font-variant:normal;font-weight:700;font-size:16px;font-family:Helvetica;writing-mode:lr-tb;fill:#000000;fill-opacity:1;fill-rule:nonzero;stroke:none"
         x="0 11.554688 21.328125 31.101562 40 43.859375 55.414062 66.085938"
         y="0"
         sodipodi:role="line"
         id="tspan12">Node API</tspan></text>
    <path
       id="path14"
       d="M 361,31 H 651 V 221 H 361 Z"
       style="fill:#dae8fc;fill-opacity:1;fill-rule:nonzero;stroke:#6c8ebf;stroke-width:1;stroke-linecap:butt;stroke-linejoin:miter;stroke-miterlimit:10;stroke-dasharray:none;stroke-opacity:1"
       transform="matrix(0.95717878,0,0,0.95717878,0.47858938,0.47858938)"
       clip-path="url(#clipPath15)" />
    <path
       id="path16"
       d="M 601.01001,143.5 H 581 v 40 h -13.63"
       style="fill:none;stroke:#000000;stroke-width:1;stroke-linecap:butt;stroke-linejoin:miter;stroke-miterlimit:10;stroke-dasharray:none;stroke-opacity:1"
       transform="matrix(0.95717878,0,0,0.95717878,0.47858938,0.47858938)"
       clip-path="url(#clipPath17)" />
    <path
       id="path18"
       d="m 562.12,183.5 7,-3.5 -1.75,3.5 1.75,3.5 z"
       style="fill:#000000;fill-opacity:1;fill-rule:nonzero;stroke:#000000;stroke-width:1;stroke-linecap:butt;stroke-linejoin:miter;stroke-miterlimit:10;stroke-dasharray:none;stroke-opacity:1"
       transform="matrix(0.95717878,0,0,0.95717878,0.47858938,0.47858938)"
       clip-path="url(#clipPath19)" />
    <path
       id="path20"
       d="m 601.01001,98.5 h 70 v 60 h -70 z"
       style="fill:#ffffff;fill-opacity:1;fill-rule:nonzero;stroke:#000000;stroke-width:1;stroke-linecap:butt;stroke-linejoin:miter;stroke-miterlimit:10;stroke-dasharray:none;stroke-opacity:1"
       transform="matrix(0.95717878,0,0,0.95717878,0.47858938,0.47858938)"
       clip-path="url(#clipPath21)" />
    <text
       id="text21"
       xml:space="preserve"
       transform="matrix(0.95718838,0,0,0.95718838,582.82303,112.94823)"
       clip-path="url(#clipPath22)"><tspan
         style="font-variant:normal;font-weight:normal;font-size:13px;font-family:Helvetica;writing-mode:lr-tb;fill:#000000;fill-opacity:1;fill-rule:nonzero;stroke:none"
         x="0 7.2299805 10.118164 17.348145 21.677246 28.907227 33.236328 39.736328 43.348145 46.959961"
         y="0"
         sodipodi:role="line"
         id="tspan21">Library to</tspan></text>
    <text
       id="text22"
       xml:space="preserve"
       transform="matrix(0.95718838,0,0,0.95718838,588.35678,128.26324)"
       clip-path="url(#clipPath23)"><tspan
         style="font-variant:normal;font-weight:normal;font-size:13px;font-family:Helvetica;writing-mode:lr-tb;fill:#000000;fill-opacity:1;fill-rule:nonzero;stroke:none"
         x="0 2.8881836 10.118164 13.72998 20.959961 25.289062 32.519043 39.019043"
         y="0"
         sodipodi:role="line"
         id="tspan22">interact</tspan></text>
    <text
       id="text23"
       xml:space="preserve"
       transform="matrix(0.95718838,0,0,0.95718838,586.98082,142.62107)"
       clip-path="url(#clipPath24)"><tspan
         style="font-variant:normal;font-weight:normal;font-size:13px;font-family:Helvetica;writing-mode:lr-tb;fill:#000000;fill-opacity:1;fill-rule:nonzero;stroke:none"
         x="0 9.3881836 12.276367 15.888184 23.118164 26.72998 35.400879"
         y="0"
         sodipodi:role="line"
         id="tspan23">with PG</tspan></text>
    <path
       id="path25"
       d="m 481,81 h 23.64001"
       style="fill:none;stroke:#000000;stroke-width:1;stroke-linecap:butt;stroke-linejoin:miter;stroke-miterlimit:10;stroke-dasharray:none;stroke-opacity:1"
       transform="matrix(0.95717878,0,0,0.95717878,0.47858938,0.47858938)"
       clip-path="url(#clipPath26)" />
    <path
       id="path27"
       d="m 509.89001,81 -7,3.5 1.75,-3.5 -1.75,-3.5 z"
       style="fill:#000000;fill-opacity:1;fill-rule:nonzero;stroke:#000000;stroke-width:1;stroke-linecap:butt;stroke-linejoin:miter;stroke-miterlimit:10;stroke-dasharray:none;stroke-opacity:1"
       transform="matrix(0.95717878,0,0,0.95717878,0.47858938,0.47858938)"
       clip-path="url(#clipPath28)" />
    <path
       id="path29"
       d="m 371,46 h 110 v 70 H 371 Z"
       style="fill:#fff2cc;fill-opacity:1;fill-rule:nonzero;stroke:#d6b656;stroke-width:1;stroke-linecap:butt;stroke-linejoin:miter;stroke-miterlimit:10;stroke-dasharray:none;stroke-opacity:1"
       transform="matrix(0.95717878,0,0,0.95717878,0.47858938,0.47858938)"
       clip-path="url(#clipPath30)" />
    <text
       id="text30"
       xml:space="preserve"
       transform="matrix(0.95718838,0,0,0.95718838,359.67849,74.660693)"
       clip-path="url(#clipPath31)"><tspan
         style="font-variant:normal;font-weight:normal;font-size:13px;font-family:Helvetica;writing-mode:lr-tb;fill:#000000;fill-opacity:1;fill-rule:nonzero;stroke:none"
         x="0 9.3881836 16.618164 23.848145 31.078125 34.689941 38.301758 45.531738 49.143555 56.373535 63.603516 70.833496 78.063477 82.392578 89.622559 93.234375"
         y="0"
         sodipodi:role="line"
         id="tspan30">Code to generate</tspan></text>
    <text
       id="text31"
       xml:space="preserve"
       transform="matrix(0.95718838,0,0,0.95718838,395.30385,89.975707)"
       clip-path="url(#clipPath32)"><tspan
         style="font-variant:normal;font-weight:normal;font-size:13px;font-family:Helvetica;writing-mode:lr-tb;fill:#000000;fill-opacity:1;fill-rule:nonzero;stroke:none"
         x="0 8.6708984 18.782715"
         y="0"
         sodipodi:role="line"
         id="tspan31">SQL</tspan></text>
    <path
       id="path33"
       d="M 561.01001,81 H 581 v 32.5 h 13.64001"
       style="fill:none;stroke:#000000;stroke-width:1;stroke-linecap:butt;stroke-linejoin:miter;stroke-miterlimit:10;stroke-dasharray:none;stroke-opacity:1"
       transform="matrix(0.95717878,0,0,0.95717878,0.47858938,0.47858938)"
       clip-path="url(#clipPath34)" />
    <path
       id="path35"
       d="m 599.89001,113.5 -7,3.5 1.75,-3.5 -1.75,-3.5 z"
       style="fill:#000000;fill-opacity:1;fill-rule:nonzero;stroke:#000000;stroke-width:1;stroke-linecap:butt;stroke-linejoin:miter;stroke-miterlimit:10;stroke-dasharray:none;stroke-opacity:1"
       transform="matrix(0.95717878,0,0,0.95717878,0.47858938,0.47858938)"
       clip-path="url(#clipPath36)" />
    <path
       id="path37"
       d="m 531.01001,56 h 30 v 50 h -50 V 76 Z"
       style="fill:#f5f5f5;fill-opacity:1;fill-rule:nonzero;stroke:#666666;stroke-width:1;stroke-linecap:butt;stroke-linejoin:miter;stroke-miterlimit:10;stroke-dasharray:none;stroke-opacity:1"
       transform="matrix(0.95717878,0,0,0.95717878,0.47858938,0.47858938)"
       clip-path="url(#clipPath38)" />
    <text
       id="text38"
       xml:space="preserve"
       transform="matrix(0.95718838,0,0,0.95718838,500.59457,82.3182)"
       clip-path="url(#clipPath39)"><tspan
         style="font-style:oblique;font-variant:normal;font-weight:normal;font-size:13px;font-family:Helvetica;writing-mode:lr-tb;fill:#333333;fill-opacity:1;fill-rule:nonzero;stroke:none"
         x="0 8.6708984 18.782715"
         y="0"
         sodipodi:role="line"
         id="tspan38">SQL</tspan></text>
    <path
       id="path40"
       d="m 531.01001,158.5 h 30 v 50 h -50 v -30 z"
       style="fill:#f5f5f5;fill-opacity:1;fill-rule:nonzero;stroke:#666666;stroke-width:1;stroke-linecap:butt;stroke-linejoin:miter;stroke-miterlimit:10;stroke-dasharray:none;stroke-opacity:1"
       transform="matrix(0.95717878,0,0,0.95717878,0.47858938,0.47858938)"
       clip-path="url(#clipPath41)" />
    <text
       id="text41"
       xml:space="preserve"
       transform="matrix(0.95718838,0,0,0.95718838,499.90659,180.9086)"
       clip-path="url(#clipPath42)"><tspan
         style="font-style:oblique;font-variant:normal;font-weight:normal;font-size:13px;font-family:Helvetica;writing-mode:lr-tb;fill:#333333;fill-opacity:1;fill-rule:nonzero;stroke:none"
         x="0 9.3881836 16.618164 20.22998"
         y="0"
         sodipodi:role="line"
         id="tspan41">Data</tspan></text>
    <path
       id="path43"
       d="m 371,141 h 110 v 70 H 371 Z"
       style="fill:#fff2cc;fill-opacity:1;fill-rule:nonzero;stroke:#d6b656;stroke-width:1;stroke-linecap:butt;stroke-linejoin:miter;stroke-miterlimit:10;stroke-dasharray:none;stroke-opacity:1"
       transform="matrix(0.95717878,0,0,0.95717878,0.47858938,0.47858938)"
       clip-path="url(#clipPath44)" />
    <text
       id="text44"
       xml:space="preserve"
       transform="matrix(0.95718838,0,0,0.95718838,363.83628,165.59359)"
       clip-path="url(#clipPath45)"><tspan
         style="font-variant:normal;font-weight:normal;font-size:13px;font-family:Helvetica;writing-mode:lr-tb;fill:#000000;fill-opacity:1;fill-rule:nonzero;stroke:none"
         x="0 9.3881836 16.618164 23.848145 31.078125 34.689941 38.301758 45.531738 49.143555 52.031738 59.261719 62.873535 70.103516 74.432617 81.662598 88.162598"
         y="0"
         sodipodi:role="line"
         id="tspan44">Code to interact</tspan></text>
    <text
       id="text45"
       xml:space="preserve"
       transform="matrix(0.95718838,0,0,0.95718838,371.44891,180.9086)"
       clip-path="url(#clipPath46)"><tspan
         style="font-variant:normal;font-weight:normal;font-size:13px;font-family:Helvetica;writing-mode:lr-tb;fill:#000000;fill-opacity:1;fill-rule:nonzero;stroke:none"
         x="0 9.3881836 12.276367 15.888184 23.118164 26.72998 30.341797 37.571777 40.459961 46.959961 50.571777 57.801758 65.031738 68.643555"
         y="0"
         sodipodi:role="line"
         id="tspan45">with this data</tspan></text>
    <path
       id="path47"
       d="M 511.01001,183.3 H 487.37"
       style="fill:none;stroke:#000000;stroke-width:1;stroke-linecap:butt;stroke-linejoin:miter;stroke-miterlimit:10;stroke-dasharray:none;stroke-opacity:1"
       transform="matrix(0.95717878,0,0,0.95717878,0.47858938,0.47858938)"
       clip-path="url(#clipPath48)" />
    <path
       id="path49"
       d="m 482.12,183.3 7,-3.5 -1.75,3.5 1.75,3.5 z"
       style="fill:#000000;fill-opacity:1;fill-rule:nonzero;stroke:#000000;stroke-width:1;stroke-linecap:butt;stroke-linejoin:miter;stroke-miterlimit:10;stroke-dasharray:none;stroke-opacity:1"
       transform="matrix(0.95717878,0,0,0.95717878,0.47858938,0.47858938)"
       clip-path="url(#clipPath50)" />
    <path
       id="path51"
       d="m 671.01001,116 h 43.63"
       style="fill:none;stroke:#000000;stroke-width:1;stroke-linecap:butt;stroke-linejoin:miter;stroke-miterlimit:10;stroke-dasharray:none;stroke-opacity:1"
       transform="matrix(0.95717878,0,0,0.95717878,0.47858938,0.47858938)"
       clip-path="url(#clipPath52)" />
    <path
       id="path53"
       d="m 719.89001,116 -7,3.5 1.75,-3.5 -1.75,-3.5 z"
       style="fill:#000000;fill-opacity:1;fill-rule:nonzero;stroke:#000000;stroke-width:1;stroke-linecap:butt;stroke-linejoin:miter;stroke-miterlimit:10;stroke-dasharray:none;stroke-opacity:1"
       transform="matrix(0.95717878,0,0,0.95717878,0.47858938,0.47858938)"
       clip-path="url(#clipPath54)" />
    <path
       id="path55"
       d="M 721.01001,141 H 677.37"
       style="fill:none;stroke:#000000;stroke-width:1;stroke-linecap:butt;stroke-linejoin:miter;stroke-miterlimit:10;stroke-dasharray:none;stroke-opacity:1"
       transform="matrix(0.95717878,0,0,0.95717878,0.47858938,0.47858938)"
       clip-path="url(#clipPath56)" />
    <path
       id="path57"
       d="m 672.12,141 7,-3.5 -1.75,3.5 1.75,3.5 z"
       style="fill:#000000;fill-opacity:1;fill-rule:nonzero;stroke:#000000;stroke-width:1;stroke-linecap:butt;stroke-linejoin:miter;stroke-miterlimit:10;stroke-dasharray:none;stroke-opacity:1"
       transform="matrix(0.95717878,0,0,0.95717878,0.47858938,0.47858938)"
       clip-path="url(#clipPath58)" />
    <path
       id="path59"
       d="m 121,131.00999 35,-0.01 v -50 h 28.63"
       style="fill:none;stroke:#000000;stroke-width:1;stroke-linecap:butt;stroke-linejoin:miter;stroke-miterlimit:10;stroke-dasharray:none;stroke-opacity:1"
       transform="matrix(0.95717878,0,0,0.95717878,0.47858938,0.47858938)"
       clip-path="url(#clipPath60)" />
    <path
       id="path61"
       d="m 189.88,81 -7,3.5 1.75,-3.5 -1.75,-3.5 z"
       style="fill:#000000;fill-opacity:1;fill-rule:nonzero;stroke:#000000;stroke-width:1;stroke-linecap:butt;stroke-linejoin:miter;stroke-miterlimit:10;stroke-dasharray:none;stroke-opacity:1"
       transform="matrix(0.95717878,0,0,0.95717878,0.47858938,0.47858938)"
       clip-path="url(#clipPath62)" />
    <path
       id="path63"
       d="m 121,131.00999 35,-0.01 v 27.5 h 28.63"
       style="fill:none;stroke:#000000;stroke-width:1;stroke-linecap:butt;stroke-linejoin:miter;stroke-miterlimit:10;stroke-dasharray:none;stroke-opacity:1"
       transform="matrix(0.95717878,0,0,0.95717878,0.47858938,0.47858938)"
       clip-path="url(#clipPath64)" />
    <path
       id="path65"
       d="m 189.88,158.5 -7,3.5 1.75,-3.5 -1.75,-3.5 z"
       style="fill:#000000;fill-opacity:1;fill-rule:nonzero;stroke:#000000;stroke-width:1;stroke-linecap:butt;stroke-linejoin:miter;stroke-miterlimit:10;stroke-dasharray:none;stroke-opacity:1"
       transform="matrix(0.95717878,0,0,0.95717878,0.47858938,0.47858938)"
       clip-path="url(#clipPath66)" />
    <path
       id="path67"
       d="m 121,131.00999 35,-0.01 v 92.5 h 28.63"
       style="fill:none;stroke:#000000;stroke-width:1;stroke-linecap:butt;stroke-linejoin:miter;stroke-miterlimit:10;stroke-dasharray:none;stroke-opacity:1"
       transform="matrix(0.95717878,0,0,0.95717878,0.47858938,0.47858938)"
       clip-path="url(#clipPath68)" />
    <path
       id="path69"
       d="m 189.88,223.5 -7,3.5 1.75,-3.5 -1.75,-3.5 z"
       style="fill:#000000;fill-opacity:1;fill-rule:nonzero;stroke:#000000;stroke-width:1;stroke-linecap:butt;stroke-linejoin:miter;stroke-miterlimit:10;stroke-dasharray:none;stroke-opacity:1"
       transform="matrix(0.95717878,0,0,0.95717878,0.47858938,0.47858938)"
       clip-path="url(#clipPath70)" />
    <path
       id="path71"
       d="M 1,82.879997 H 121 V 179.13 H 1 Z"
       style="fill:#f8cecc;fill-opacity:1;fill-rule:nonzero;stroke:#b85450;stroke-width:1;stroke-linecap:butt;stroke-linejoin:miter;stroke-miterlimit:10;stroke-dasharray:none;stroke-opacity:1"
       transform="matrix(0.95717878,0,0,0.95717878,0.47858938,0.47858938)"
       clip-path="url(#clipPath72)" />
    <text
       id="text72"
       xml:space="preserve"
       transform="matrix(0.95718838,0,0,0.95718838,13.385681,100.50478)"
       clip-path="url(#clipPath73)"><tspan
         style="font-style:oblique;font-variant:normal;font-weight:700;font-size:18px;font-family:Helvetica;writing-mode:lr-tb;fill:#000000;fill-opacity:1;fill-rule:nonzero;stroke:none"
         x="0 12.999023 23.009766 34.004883 45 55.010742 60.011719 66.005859 77.000977 84.005859"
         y="0"
         sodipodi:role="line"
         id="tspan72">Repository</tspan></text>
    <text
       id="text73"
       xml:space="preserve"
       transform="matrix(0.95718838,0,0,0.95718838,9.0783335,121.56292)"
       clip-path="url(#clipPath74)"><tspan
         style="font-style:oblique;font-variant:normal;font-weight:700;font-size:18px;font-family:Helvetica;writing-mode:lr-tb;fill:#000000;fill-opacity:1;fill-rule:nonzero;stroke:none"
         x="0 12.005859 22.016602 28.010742 34.004883 44.015625 51.020508 62.015625 67.016602 81.017578 86.018555 92.012695"
         y="0"
         sodipodi:role="line"
         id="tspan73">Pattern with</tspan></text>
    <text
       id="text74"
       xml:space="preserve"
       transform="matrix(0.95718838,0,0,0.95718838,33.486637,142.62107)"
       clip-path="url(#clipPath75)"><tspan
         style="font-style:oblique;font-variant:normal;font-weight:700;font-size:18px;font-family:Helvetica;writing-mode:lr-tb;fill:#000000;fill-opacity:1;fill-rule:nonzero;stroke:none"
         x="0 14.000977 24.996094 35.006836 42.011719"
         y="0"
         sodipodi:role="line"
         id="tspan74">Query</tspan></text>
    <text
       id="text75"
       xml:space="preserve"
       transform="matrix(0.95718838,0,0,0.95718838,28.700695,162.72202)"
       clip-path="url(#clipPath76)"><tspan
         style="font-style:oblique;font-variant:normal;font-weight:700;font-size:18px;font-family:Helvetica;writing-mode:lr-tb;fill:#000000;fill-opacity:1;fill-rule:nonzero;stroke:none"
         x="0 12.999023 23.994141 28.995117 33.996094 44.991211 55.001953"
         y="0"
         sodipodi:role="line"
         id="tspan75">Builder</tspan></text>
    <path
       id="path77"
       d="m 321,81 h 43.64001"
       style="fill:none;stroke:#000000;stroke-width:1;stroke-linecap:butt;stroke-linejoin:miter;stroke-miterlimit:10;stroke-dasharray:none;stroke-opacity:1"
       transform="matrix(0.95717878,0,0,0.95717878,0.47858938,0.47858938)"
       clip-path="url(#clipPath78)" />
    <path
       id="path79"
       d="m 369.89001,81 -7,3.5 1.75,-3.5 -1.75,-3.5 z"
       style="fill:#000000;fill-opacity:1;fill-rule:nonzero;stroke:#000000;stroke-width:1;stroke-linecap:butt;stroke-linejoin:miter;stroke-miterlimit:10;stroke-dasharray:none;stroke-opacity:1"
       transform="matrix(0.95717878,0,0,0.95717878,0.47858938,0.47858938)"
       clip-path="url(#clipPath80)" />
    <path
       id="path81"
       d="m 191,53.5 h 130 v 55 H 191 Z"
       style="fill:#f5f5f5;fill-opacity:1;fill-rule:nonzero;stroke:#666666;stroke-width:1;stroke-linecap:butt;stroke-linejoin:miter;stroke-miterlimit:10;stroke-dasharray:none;stroke-opacity:1"
       transform="matrix(0.95717878,0,0,0.95717878,0.47858938,0.47858938)"
       clip-path="url(#clipPath82)" />
    <text
       id="text82"
       xml:space="preserve"
       transform="matrix(0.95718838,0,0,0.95718838,190.83943,74.660693)"
       clip-path="url(#clipPath83)"><tspan
         style="font-variant:normal;font-weight:normal;font-size:13px;font-family:Helvetica;writing-mode:lr-tb;fill:#333333;fill-opacity:1;fill-rule:nonzero;stroke:none"
         x="0 12.041504 19.271484 22.883301 30.113281 34.442383 41.672363 45.28418 52.51416 59.744141 62.632324 69.862305 77.092285 80.704102 84.315918 91.545898 95.157715 102.3877 109.61768"
         y="0"
         sodipodi:role="line"
         id="tspan82">We are going to get</tspan></text>
    <text
       id="text83"
       xml:space="preserve"
       transform="matrix(0.95718838,0,0,0.95718838,202.14622,89.975707)"
       clip-path="url(#clipPath84)"><tspan
         style="font-variant:normal;font-weight:normal;font-size:13px;font-family:Helvetica;writing-mode:lr-tb;fill:#333333;fill-opacity:1;fill-rule:nonzero;stroke:none"
         x="0 7.2299805 14.459961 17.348145 24.578125 28.189941 37.578125 41.907227 44.79541 48.407227 51.29541 58.525391 65.755371 69.367188 72.979004 80.208984 83.097168"
         y="0"
         sodipodi:role="line"
         id="tspan83">help writing this</tspan></text>
    <path
       id="path85"
       d="m 321,158.5 h 25 V 176 h 18.64001"
       style="fill:none;stroke:#000000;stroke-width:1;stroke-linecap:butt;stroke-linejoin:miter;stroke-miterlimit:10;stroke-dasharray:none;stroke-opacity:1"
       transform="matrix(0.95717878,0,0,0.95717878,0.47858938,0.47858938)"
       clip-path="url(#clipPath86)" />
    <path
       id="path87"
       d="m 369.89001,176 -7,3.5 1.75,-3.5 -1.75,-3.5 z"
       style="fill:#000000;fill-opacity:1;fill-rule:nonzero;stroke:#000000;stroke-width:1;stroke-linecap:butt;stroke-linejoin:miter;stroke-miterlimit:10;stroke-dasharray:none;stroke-opacity:1"
       transform="matrix(0.95717878,0,0,0.95717878,0.47858938,0.47858938)"
       clip-path="url(#clipPath88)" />
    <path
       id="path89"
       d="m 191,131 h 130 v 55 H 191 Z"
       style="fill:#f5f5f5;fill-opacity:1;fill-rule:nonzero;stroke:#666666;stroke-width:1;stroke-linecap:butt;stroke-linejoin:miter;stroke-miterlimit:10;stroke-dasharray:none;stroke-opacity:1"
       transform="matrix(0.95717878,0,0,0.95717878,0.47858938,0.47858938)"
       clip-path="url(#clipPath90)" />
    <text
       id="text90"
       xml:space="preserve"
       transform="matrix(0.95718838,0,0,0.95718838,190.83943,149.32139)"
       clip-path="url(#clipPath91)"><tspan
         style="font-variant:normal;font-weight:normal;font-size:13px;font-family:Helvetica;writing-mode:lr-tb;fill:#333333;fill-opacity:1;fill-rule:nonzero;stroke:none"
         x="0 12.041504 19.271484 22.883301 30.113281 34.442383 41.672363 45.28418 52.51416 59.744141 62.632324 69.862305 77.092285 80.704102 84.315918 91.545898 95.157715 102.3877 109.61768"
         y="0"
         sodipodi:role="line"
         id="tspan90">We are going to get</tspan></text>
    <text
       id="text91"
       xml:space="preserve"
       transform="matrix(0.95718838,0,0,0.95718838,202.14622,164.6364)"
       clip-path="url(#clipPath92)"><tspan
         style="font-variant:normal;font-weight:normal;font-size:13px;font-family:Helvetica;writing-mode:lr-tb;fill:#333333;fill-opacity:1;fill-rule:nonzero;stroke:none"
         x="0 7.2299805 14.459961 17.348145 24.578125 28.189941 37.578125 41.907227 44.79541 48.407227 51.29541 58.525391 65.755371 69.367188 72.979004 80.208984 83.097168"
         y="0"
         sodipodi:role="line"
         id="tspan91">help writing this</tspan></text>
    <path
       id="path93"
       d="m 321,223.5 h 25 V 176 h 18.64001"
       style="fill:none;stroke:#000000;stroke-width:1;stroke-linecap:butt;stroke-linejoin:miter;stroke-miterlimit:10;stroke-dasharray:none;stroke-opacity:1"
       transform="matrix(0.95717878,0,0,0.95717878,0.47858938,0.47858938)"
       clip-path="url(#clipPath94)" />
    <path
       id="path95"
       d="m 369.89001,176 -7,3.5 1.75,-3.5 -1.75,-3.5 z"
       style="fill:#000000;fill-opacity:1;fill-rule:nonzero;stroke:#000000;stroke-width:1;stroke-linecap:butt;stroke-linejoin:miter;stroke-miterlimit:10;stroke-dasharray:none;stroke-opacity:1"
       transform="matrix(0.95717878,0,0,0.95717878,0.47858938,0.47858938)"
       clip-path="url(#clipPath96)" />
    <path
       id="path97"
       d="m 191,196 h 130 v 55 H 191 Z"
       style="fill:#f5f5f5;fill-opacity:1;fill-rule:nonzero;stroke:#666666;stroke-width:1;stroke-linecap:butt;stroke-linejoin:miter;stroke-miterlimit:10;stroke-dasharray:none;stroke-opacity:1"
       transform="matrix(0.95717878,0,0,0.95717878,0.47858938,0.47858938)"
       clip-path="url(#clipPath98)" />
    <text
       id="text98"
       xml:space="preserve"
       transform="matrix(0.95718838,0,0,0.95718838,198.46703,211.53863)"
       clip-path="url(#clipPath99)"><tspan
         style="font-variant:normal;font-weight:normal;font-size:13px;font-family:Helvetica;writing-mode:lr-tb;fill:#333333;fill-opacity:1;fill-rule:nonzero;stroke:none"
         x="0 12.041504 19.271484 22.883301 26.495117 30.824219 38.054199 45.28418 48.895996 52.507812 56.836914 64.066895 73.455078 79.955078 83.566895 90.796875"
         y="0"
         sodipodi:role="line"
         id="tspan98">We treat rows as</tspan></text>
    <text
       id="text99"
       xml:space="preserve"
       transform="matrix(0.95718838,0,0,0.95718838,210.44684,226.85365)"
       clip-path="url(#clipPath100)"><tspan
         style="font-variant:normal;font-weight:normal;font-size:13px;font-family:Helvetica;writing-mode:lr-tb;fill:#333333;fill-opacity:1;fill-rule:nonzero;stroke:none"
         x="0 7.2299805 10.118164 17.348145 20.236328 27.466309 31.078125 38.308105 45.538086 48.42627 55.65625 62.15625 65.768066"
         y="0"
         sodipodi:role="line"
         id="tspan99">plain objects</tspan></text>
  </g>
</svg>
