<?xml version="1.0" encoding="UTF-8" standalone="no"?>
<!-- Created with Inkscape (http://www.inkscape.org/) -->

<svg
   version="1.1"
   id="svg1"
   width="425.28"
   height="121.28"
   viewBox="0 0 425.28 121.28"
   sodipodi:docname="sql-6.pdf"
   xmlns:inkscape="http://www.inkscape.org/namespaces/inkscape"
   xmlns:sodipodi="http://sodipodi.sourceforge.net/DTD/sodipodi-0.dtd"
   xmlns="http://www.w3.org/2000/svg"
   xmlns:svg="http://www.w3.org/2000/svg">
  <defs
     id="defs1">
    <clipPath
       clipPathUnits="userSpaceOnUse"
       id="clipPath2">
      <path
         d="M 0,0 H 1329.1666 V 377.19592 H 0 Z"
         transform="scale(0.3340439)"
         clip-rule="evenodd"
         id="path2" />
    </clipPath>
    <clipPath
       clipPathUnits="userSpaceOnUse"
       id="clipPath4">
      <path
         d="M 0,0 H 1329.1666 V 374.2023 H 0 Z"
         transform="matrix(0.3340439,0,0,0.3340439,-0.5,-0.5)"
         clip-rule="evenodd"
         id="path4" />
    </clipPath>
    <clipPath
       clipPathUnits="userSpaceOnUse"
       id="clipPath6">
      <path
         d="M 0,0 H 1329.1666 V 374.2023 H 0 Z"
         transform="matrix(0.3340439,0,0,0.3340439,-0.5,-0.5)"
         clip-rule="evenodd"
         id="path6" />
    </clipPath>
    <clipPath
       clipPathUnits="userSpaceOnUse"
       id="clipPath8">
      <path
         d="M 0,0 H 1329.1666 V 374.2023 H 0 Z"
         transform="matrix(0.3340439,0,0,0.3340439,-0.5,-0.5)"
         clip-rule="evenodd"
         id="path8" />
    </clipPath>
    <clipPath
       clipPathUnits="userSpaceOnUse"
       id="clipPath9">
      <path
         d="M 0,0 H 1329.1666 V 374.2023 H 0 Z"
         transform="matrix(0.33404055,0,0,0.33404055,-27.96875,-97)"
         clip-rule="evenodd"
         id="path9" />
    </clipPath>
    <clipPath
       clipPathUnits="userSpaceOnUse"
       id="clipPath10">
      <path
         d="M 0,0 H 1329.1666 V 374.2023 H 0 Z"
         transform="matrix(0.33404055,0,0,0.33404055,-41.96875,-119)"
         clip-rule="evenodd"
         id="path10" />
    </clipPath>
    <clipPath
       clipPathUnits="userSpaceOnUse"
       id="clipPath11">
      <path
         d="M 0,0 H 1329.1666 V 374.2023 H 0 Z"
         transform="matrix(0.33404055,0,0,0.33404055,-319.96875,-97)"
         clip-rule="evenodd"
         id="path11" />
    </clipPath>
    <clipPath
       clipPathUnits="userSpaceOnUse"
       id="clipPath12">
      <path
         d="M 0,0 H 1329.1666 V 374.2023 H 0 Z"
         transform="matrix(0.33404055,0,0,0.33404055,-346.96875,-119)"
         clip-rule="evenodd"
         id="path12" />
    </clipPath>
    <clipPath
       clipPathUnits="userSpaceOnUse"
       id="clipPath14">
      <path
         d="M 0,0 H 1329.1666 V 374.2023 H 0 Z"
         transform="matrix(0.3340439,0,0,0.3340439,-0.5,-0.5)"
         clip-rule="evenodd"
         id="path14" />
    </clipPath>
    <clipPath
       clipPathUnits="userSpaceOnUse"
       id="clipPath15">
      <path
         d="M 0,0 H 1329.1666 V 374.2023 H 0 Z"
         transform="matrix(0.33404055,0,0,0.33404055,-331.09375,-14)"
         clip-rule="evenodd"
         id="path15" />
    </clipPath>
    <clipPath
       clipPathUnits="userSpaceOnUse"
       id="clipPath16">
      <path
         d="M 0,0 H 1329.1666 V 374.2023 H 0 Z"
         transform="matrix(0.33404055,0,0,0.33404055,-318.29688,-28)"
         clip-rule="evenodd"
         id="path16" />
    </clipPath>
    <clipPath
       clipPathUnits="userSpaceOnUse"
       id="clipPath17">
      <path
         d="M 0,0 H 1329.1666 V 374.2023 H 0 Z"
         transform="matrix(0.33404055,0,0,0.33404055,-321.96875,-43)"
         clip-rule="evenodd"
         id="path17" />
    </clipPath>
    <clipPath
       clipPathUnits="userSpaceOnUse"
       id="clipPath18">
      <path
         d="M 0,0 H 1329.1666 V 374.2023 H 0 Z"
         transform="matrix(0.33404055,0,0,0.33404055,-344.64063,-57)"
         clip-rule="evenodd"
         id="path18" />
    </clipPath>
    <clipPath
       clipPathUnits="userSpaceOnUse"
       id="clipPath20">
      <path
         d="M 0,0 H 1329.1666 V 374.2023 H 0 Z"
         transform="matrix(0.3340439,0,0,0.3340439,-0.5,-0.5)"
         clip-rule="evenodd"
         id="path20" />
    </clipPath>
    <clipPath
       clipPathUnits="userSpaceOnUse"
       id="clipPath21">
      <path
         d="M 0,0 H 1329.1666 V 374.2023 H 0 Z"
         transform="matrix(0.33404055,0,0,0.33404055,-6.75,-28)"
         clip-rule="evenodd"
         id="path21" />
    </clipPath>
    <clipPath
       clipPathUnits="userSpaceOnUse"
       id="clipPath22">
      <path
         d="M 0,0 H 1329.1666 V 374.2023 H 0 Z"
         transform="matrix(0.33404055,0,0,0.33404055,-46.984375,-43)"
         clip-rule="evenodd"
         id="path22" />
    </clipPath>
  </defs>
  <sodipodi:namedview
     id="namedview1"
     pagecolor="#ffffff"
     bordercolor="#000000"
     borderopacity="0.25"
     inkscape:showpageshadow="2"
     inkscape:pageopacity="0.0"
     inkscape:pagecheckerboard="0"
     inkscape:deskcolor="#d1d1d1">
    <inkscape:page
       x="0"
       y="0"
       inkscape:label="1"
       id="page1"
       width="425.28"
       height="121.28"
       margin="0"
       bleed="0" />
  </sodipodi:namedview>
  <g
     id="g1"
     inkscape:groupmode="layer"
     inkscape:label="1">
    <path
       id="path1"
       d="M 0,0 H 444 V 126 H 0 Z"
       style="fill:#ffffff;fill-opacity:1;fill-rule:nonzero;stroke:none"
       transform="scale(0.95795788)"
       clip-path="url(#clipPath2)" />
    <path
       id="path3"
       d="M 57.369999,71 H 384.64001"
       style="fill:none;stroke:#000000;stroke-width:1;stroke-linecap:butt;stroke-linejoin:miter;stroke-miterlimit:10;stroke-dasharray:none;stroke-opacity:1"
       transform="matrix(0.95795788,0,0,0.95795788,0.47897894,0.47897894)"
       clip-path="url(#clipPath4)" />
    <path
       id="path5"
       d="m 52.119999,71 7,-3.5 -1.75,3.5 1.75,3.5 z"
       style="fill:#000000;fill-opacity:1;fill-rule:nonzero;stroke:#000000;stroke-width:1;stroke-linecap:butt;stroke-linejoin:miter;stroke-miterlimit:10;stroke-dasharray:none;stroke-opacity:1"
       transform="matrix(0.95795788,0,0,0.95795788,0.47897894,0.47897894)"
       clip-path="url(#clipPath6)" />
    <path
       id="path7"
       d="m 389.89001,71 -7,3.5 1.75,-3.5 -1.75,-3.5 z"
       style="fill:#000000;fill-opacity:1;fill-rule:nonzero;stroke:#000000;stroke-width:1;stroke-linecap:butt;stroke-linejoin:miter;stroke-miterlimit:10;stroke-dasharray:none;stroke-opacity:1"
       transform="matrix(0.95795788,0,0,0.95795788,0.47897894,0.47897894)"
       clip-path="url(#clipPath8)" />
    <text
       id="text8"
       xml:space="preserve"
       transform="matrix(0.95796748,0,0,0.95796748,26.793153,92.922846)"
       clip-path="url(#clipPath9)"><tspan
         style="font-variant:normal;font-weight:normal;font-size:18px;font-family:Helvetica;writing-mode:lr-tb;fill:#000000;fill-opacity:1;fill-rule:nonzero;stroke:none"
         x="0 12.999023 23.009766 33.020508 43.03125 52.03125 56.030273 61.03125 71.041992 77.036133"
         y="0"
         sodipodi:role="line"
         id="tspan8">Repository</tspan></text>
    <text
       id="text9"
       xml:space="preserve"
       transform="matrix(0.95796748,0,0,0.95796748,40.204698,113.99813)"
       clip-path="url(#clipPath10)"><tspan
         style="font-variant:normal;font-weight:normal;font-size:18px;font-family:Helvetica;writing-mode:lr-tb;fill:#000000;fill-opacity:1;fill-rule:nonzero;stroke:none"
         x="0 12.005859 22.016602 27.017578 32.018555 42.029297 48.023438"
         y="0"
         sodipodi:role="line"
         id="tspan9">Pattern</tspan></text>
    <text
       id="text10"
       xml:space="preserve"
       transform="matrix(0.95796748,0,0,0.95796748,306.51966,92.922846)"
       clip-path="url(#clipPath11)"><tspan
         style="font-variant:normal;font-weight:normal;font-size:18px;font-family:Helvetica;writing-mode:lr-tb;fill:#000000;fill-opacity:1;fill-rule:nonzero;stroke:none"
         x="0 12.005859 21.005859 26.006836 30.005859 39.005859 49.016602 54.017578 67.016602 77.027344 86.027344 96.038086 102.03223"
         y="0"
         sodipodi:role="line"
         id="tspan10">Active Record</tspan></text>
    <text
       id="text11"
       xml:space="preserve"
       transform="matrix(0.95796748,0,0,0.95796748,332.38478,113.99813)"
       clip-path="url(#clipPath12)"><tspan
         style="font-variant:normal;font-weight:normal;font-size:18px;font-family:Helvetica;writing-mode:lr-tb;fill:#000000;fill-opacity:1;fill-rule:nonzero;stroke:none"
         x="0 12.005859 22.016602 27.017578 32.018555 42.029297 48.023438"
         y="0"
         sodipodi:role="line"
         id="tspan11">Pattern</tspan></text>
    <path
       id="path13"
       d="M 311,1 H 441 V 61 H 311 Z"
       style="fill:#ffffff;fill-opacity:1;fill-rule:nonzero;stroke:#000000;stroke-width:1;stroke-linecap:butt;stroke-linejoin:miter;stroke-miterlimit:10;stroke-dasharray:none;stroke-opacity:1"
       transform="matrix(0.95795788,0,0,0.95795788,0.47897894,0.47897894)"
       clip-path="url(#clipPath14)" />
    <text
       id="text14"
       xml:space="preserve"
       transform="matrix(0.95796748,0,0,0.95796748,317.17705,13.411545)"
       clip-path="url(#clipPath15)"><tspan
         style="font-style:oblique;font-variant:normal;font-weight:normal;font-size:12px;font-family:Helvetica;writing-mode:lr-tb;fill:#000000;fill-opacity:1;fill-rule:nonzero;stroke:none"
         x="0 11.115234 17.789062 21.123047 24.457031 28.453125 35.126953 41.800781 45.134766 48.46875 52.464844 59.138672 67.804688 73.804688 77.138672 83.8125"
         y="0"
         sodipodi:role="line"
         id="tspan14">We treat rows as</tspan></text>
    <text
       id="text15"
       xml:space="preserve"
       transform="matrix(0.95796748,0,0,0.95796748,304.91806,26.823089)"
       clip-path="url(#clipPath16)"><tspan
         style="font-style:oblique;font-variant:normal;font-weight:normal;font-size:12px;font-family:Helvetica;writing-mode:lr-tb;fill:#000000;fill-opacity:1;fill-rule:nonzero;stroke:none"
         x="0 2.6660156 9.3398438 12.673828 19.347656 22.013672 24.679688 27.345703 34.019531 40.693359 47.367188 50.701172 54.035156 60.708984 67.382812 70.048828 76.722656 82.722656 86.056641 92.056641 95.390625 98.724609 105.39844 112.07227"
         y="0"
         sodipodi:role="line"
         id="tspan15">intelligent objects that</tspan></text>
    <text
       id="text16"
       xml:space="preserve"
       transform="matrix(0.95796748,0,0,0.95796748,308.43559,41.192602)"
       clip-path="url(#clipPath17)"><tspan
         style="font-style:oblique;font-variant:normal;font-weight:normal;font-size:12px;font-family:Helvetica;writing-mode:lr-tb;fill:#000000;fill-opacity:1;fill-rule:nonzero;stroke:none"
         x="0 6.6738281 13.347656 19.347656 26.021484 29.355469 39.351562 46.025391 52.699219 58.699219 62.033203 72.029297 78.703125 82.037109 88.710938 95.384766 102.05859"
         y="0"
         sodipodi:role="line"
         id="tspan16">have many methods</tspan></text>
    <text
       id="text17"
       xml:space="preserve"
       transform="matrix(0.95796748,0,0,0.95796748,330.15452,54.604146)"
       clip-path="url(#clipPath18)"><tspan
         style="font-style:oblique;font-variant:normal;font-weight:normal;font-size:12px;font-family:Helvetica;writing-mode:lr-tb;fill:#000000;fill-opacity:1;fill-rule:nonzero;stroke:none"
         x="0 3.3339844 6 12.673828 19.347656 22.681641 26.015625 32.689453 36.023438 39.357422 46.03125 52.705078"
         y="0"
         sodipodi:role="line"
         id="tspan17">tied to them</tspan></text>
    <path
       id="path19"
       d="M 1,1 H 131 V 61 H 1 Z"
       style="fill:#ffffff;fill-opacity:1;fill-rule:nonzero;stroke:#000000;stroke-width:1;stroke-linecap:butt;stroke-linejoin:miter;stroke-miterlimit:10;stroke-dasharray:none;stroke-opacity:1"
       transform="matrix(0.95795788,0,0,0.95795788,0.47897894,0.47897894)"
       clip-path="url(#clipPath20)" />
    <text
       id="text20"
       xml:space="preserve"
       transform="matrix(0.95796748,0,0,0.95796748,6.4662805,26.823089)"
       clip-path="url(#clipPath21)"><tspan
         style="font-style:oblique;font-variant:normal;font-weight:normal;font-size:12px;font-family:Helvetica;writing-mode:lr-tb;fill:#000000;fill-opacity:1;fill-rule:nonzero;stroke:none"
         x="0 11.115234 17.789062 21.123047 24.457031 28.453125 35.126953 41.800781 45.134766 48.46875 52.464844 59.138672 67.804688 73.804688 77.138672 83.8125 89.8125 93.146484 99.820312 102.48633 109.16016 111.82617"
         y="0"
         sodipodi:role="line"
         id="tspan20">We treat rows as plain</tspan></text>
    <text
       id="text21"
       xml:space="preserve"
       transform="matrix(0.95796748,0,0,0.95796748,45.009503,41.192602)"
       clip-path="url(#clipPath22)"><tspan
         style="font-style:oblique;font-variant:normal;font-weight:normal;font-size:12px;font-family:Helvetica;writing-mode:lr-tb;fill:#000000;fill-opacity:1;fill-rule:nonzero;stroke:none"
         x="0 6.6738281 13.347656 16.013672 22.6875 28.6875 32.021484"
         y="0"
         sodipodi:role="line"
         id="tspan21">objects</tspan></text>
  </g>
</svg>
