<?xml version="1.0" encoding="UTF-8" standalone="no"?>
<!-- Created with Inkscape (http://www.inkscape.org/) -->

<svg
   version="1.1"
   id="svg1"
   width="606.71997"
   height="216"
   viewBox="0 0 606.71997 216"
   sodipodi:docname="sql-4.pdf"
   xmlns:inkscape="http://www.inkscape.org/namespaces/inkscape"
   xmlns:sodipodi="http://sodipodi.sourceforge.net/DTD/sodipodi-0.dtd"
   xmlns="http://www.w3.org/2000/svg"
   xmlns:svg="http://www.w3.org/2000/svg">
  <defs
     id="defs1">
    <clipPath
       clipPathUnits="userSpaceOnUse"
       id="clipPath2">
      <path
         d="M 0,0 H 1895.8334 V 674.94067 H 0 Z"
         transform="scale(0.33336263)"
         clip-rule="evenodd"
         id="path2" />
    </clipPath>
    <clipPath
       clipPathUnits="userSpaceOnUse"
       id="clipPath4">
      <path
         d="M 0,0 H 1895.8334 V 671.94092 H 0 Z"
         transform="matrix(0.33336263,0,0,0.33336263,-0.5,-0.5)"
         clip-rule="evenodd"
         id="path4" />
    </clipPath>
    <clipPath
       clipPathUnits="userSpaceOnUse"
       id="clipPath6">
      <path
         d="M 0,0 H 1895.8334 V 671.94092 H 0 Z"
         transform="matrix(0.33336263,0,0,0.33336263,-0.5,-0.5)"
         clip-rule="evenodd"
         id="path6" />
    </clipPath>
    <clipPath
       clipPathUnits="userSpaceOnUse"
       id="clipPath7">
      <path
         d="M 0,0 H 1895.8334 V 671.94092 H 0 Z"
         transform="matrix(0.3333593,0,0,0.3333593,-564.98438,-87.999999)"
         clip-rule="evenodd"
         id="path7" />
    </clipPath>
    <clipPath
       clipPathUnits="userSpaceOnUse"
       id="clipPath9">
      <path
         d="M 0,0 H 1895.8334 V 671.94092 H 0 Z"
         transform="matrix(0.33336263,0,0,0.33336263,-0.5,-0.5)"
         clip-rule="evenodd"
         id="path9" />
    </clipPath>
    <clipPath
       clipPathUnits="userSpaceOnUse"
       id="clipPath10">
      <path
         d="M 0,0 H 1895.8334 V 671.94092 H 0 Z"
         transform="matrix(0.3333593,0,0,0.3333593,-574.98438,-137)"
         clip-rule="evenodd"
         id="path10" />
    </clipPath>
    <clipPath
       clipPathUnits="userSpaceOnUse"
       id="clipPath12">
      <path
         d="M 0,0 H 1895.8334 V 671.94092 H 0 Z"
         transform="matrix(0.33336263,0,0,0.33336263,-0.5,-0.5)"
         clip-rule="evenodd"
         id="path12" />
    </clipPath>
    <clipPath
       clipPathUnits="userSpaceOnUse"
       id="clipPath13">
      <path
         d="M 0,0 H 1895.8334 V 671.94092 H 0 Z"
         transform="matrix(0.3333593,0,0,0.3333593,-309.73438,-21)"
         clip-rule="evenodd"
         id="path13" />
    </clipPath>
    <clipPath
       clipPathUnits="userSpaceOnUse"
       id="clipPath15">
      <path
         d="M 0,0 H 1895.8334 V 671.94092 H 0 Z"
         transform="matrix(0.33336263,0,0,0.33336263,-0.5,-0.5)"
         clip-rule="evenodd"
         id="path15" />
    </clipPath>
    <clipPath
       clipPathUnits="userSpaceOnUse"
       id="clipPath17">
      <path
         d="M 0,0 H 1895.8334 V 671.94092 H 0 Z"
         transform="matrix(0.33336263,0,0,0.33336263,-0.5,-0.5)"
         clip-rule="evenodd"
         id="path17" />
    </clipPath>
    <clipPath
       clipPathUnits="userSpaceOnUse"
       id="clipPath19">
      <path
         d="M 0,0 H 1895.8334 V 671.94092 H 0 Z"
         transform="matrix(0.33336263,0,0,0.33336263,-0.5,-0.5)"
         clip-rule="evenodd"
         id="path19" />
    </clipPath>
    <clipPath
       clipPathUnits="userSpaceOnUse"
       id="clipPath21">
      <path
         d="M 0,0 H 1895.8334 V 671.94092 H 0 Z"
         transform="matrix(0.33336263,0,0,0.33336263,-0.5,-0.5)"
         clip-rule="evenodd"
         id="path21" />
    </clipPath>
    <clipPath
       clipPathUnits="userSpaceOnUse"
       id="clipPath22">
      <path
         d="M 0,0 H 1895.8334 V 671.94092 H 0 Z"
         transform="matrix(0.3333593,0,0,0.3333593,-447.89063,-118)"
         clip-rule="evenodd"
         id="path22" />
    </clipPath>
    <clipPath
       clipPathUnits="userSpaceOnUse"
       id="clipPath23">
      <path
         d="M 0,0 H 1895.8334 V 671.94092 H 0 Z"
         transform="matrix(0.3333593,0,0,0.3333593,-453.67188,-134)"
         clip-rule="evenodd"
         id="path23" />
    </clipPath>
    <clipPath
       clipPathUnits="userSpaceOnUse"
       id="clipPath24">
      <path
         d="M 0,0 H 1895.8334 V 671.94092 H 0 Z"
         transform="matrix(0.3333593,0,0,0.3333593,-452.23438,-149)"
         clip-rule="evenodd"
         id="path24" />
    </clipPath>
    <clipPath
       clipPathUnits="userSpaceOnUse"
       id="clipPath26">
      <path
         d="M 0,0 H 1895.8334 V 671.94092 H 0 Z"
         transform="matrix(0.33336263,0,0,0.33336263,-0.5,-0.5)"
         clip-rule="evenodd"
         id="path26" />
    </clipPath>
    <clipPath
       clipPathUnits="userSpaceOnUse"
       id="clipPath28">
      <path
         d="M 0,0 H 1895.8334 V 671.94092 H 0 Z"
         transform="matrix(0.33336263,0,0,0.33336263,-0.5,-0.5)"
         clip-rule="evenodd"
         id="path28" />
    </clipPath>
    <clipPath
       clipPathUnits="userSpaceOnUse"
       id="clipPath30">
      <path
         d="M 0,0 H 1895.8334 V 671.94092 H 0 Z"
         transform="matrix(0.33336263,0,0,0.33336263,-0.5,-0.5)"
         clip-rule="evenodd"
         id="path30" />
    </clipPath>
    <clipPath
       clipPathUnits="userSpaceOnUse"
       id="clipPath31">
      <path
         d="M 0,0 H 1895.8334 V 671.94092 H 0 Z"
         transform="matrix(0.3333593,0,0,0.3333593,-214.76563,-78)"
         clip-rule="evenodd"
         id="path31" />
    </clipPath>
    <clipPath
       clipPathUnits="userSpaceOnUse"
       id="clipPath32">
      <path
         d="M 0,0 H 1895.8334 V 671.94092 H 0 Z"
         transform="matrix(0.3333593,0,0,0.3333593,-251.98438,-94)"
         clip-rule="evenodd"
         id="path32" />
    </clipPath>
    <clipPath
       clipPathUnits="userSpaceOnUse"
       id="clipPath34">
      <path
         d="M 0,0 H 1895.8334 V 671.94092 H 0 Z"
         transform="matrix(0.33336263,0,0,0.33336263,-0.5,-0.5)"
         clip-rule="evenodd"
         id="path34" />
    </clipPath>
    <clipPath
       clipPathUnits="userSpaceOnUse"
       id="clipPath36">
      <path
         d="M 0,0 H 1895.8334 V 671.94092 H 0 Z"
         transform="matrix(0.33336263,0,0,0.33336263,-0.5,-0.5)"
         clip-rule="evenodd"
         id="path36" />
    </clipPath>
    <clipPath
       clipPathUnits="userSpaceOnUse"
       id="clipPath38">
      <path
         d="M 0,0 H 1895.8334 V 671.94092 H 0 Z"
         transform="matrix(0.33336263,0,0,0.33336263,-0.5,-0.5)"
         clip-rule="evenodd"
         id="path38" />
    </clipPath>
    <clipPath
       clipPathUnits="userSpaceOnUse"
       id="clipPath39">
      <path
         d="M 0,0 H 1895.8334 V 671.94092 H 0 Z"
         transform="matrix(0.3333593,0,0,0.3333593,-361.98438,-85.999999)"
         clip-rule="evenodd"
         id="path39" />
    </clipPath>
    <clipPath
       clipPathUnits="userSpaceOnUse"
       id="clipPath41">
      <path
         d="M 0,0 H 1895.8334 V 671.94092 H 0 Z"
         transform="matrix(0.33336263,0,0,0.33336263,-0.5,-0.5)"
         clip-rule="evenodd"
         id="path41" />
    </clipPath>
    <clipPath
       clipPathUnits="userSpaceOnUse"
       id="clipPath42">
      <path
         d="M 0,0 H 1895.8334 V 671.94092 H 0 Z"
         transform="matrix(0.3333593,0,0,0.3333593,-361.26562,-189)"
         clip-rule="evenodd"
         id="path42" />
    </clipPath>
    <clipPath
       clipPathUnits="userSpaceOnUse"
       id="clipPath44">
      <path
         d="M 0,0 H 1895.8334 V 671.94092 H 0 Z"
         transform="matrix(0.33336263,0,0,0.33336263,-0.5,-0.5)"
         clip-rule="evenodd"
         id="path44" />
    </clipPath>
    <clipPath
       clipPathUnits="userSpaceOnUse"
       id="clipPath45">
      <path
         d="M 0,0 H 1895.8334 V 671.94092 H 0 Z"
         transform="matrix(0.3333593,0,0,0.3333593,-219.10938,-173)"
         clip-rule="evenodd"
         id="path45" />
    </clipPath>
    <clipPath
       clipPathUnits="userSpaceOnUse"
       id="clipPath46">
      <path
         d="M 0,0 H 1895.8334 V 671.94092 H 0 Z"
         transform="matrix(0.3333593,0,0,0.3333593,-227.0625,-189)"
         clip-rule="evenodd"
         id="path46" />
    </clipPath>
    <clipPath
       clipPathUnits="userSpaceOnUse"
       id="clipPath48">
      <path
         d="M 0,0 H 1895.8334 V 671.94092 H 0 Z"
         transform="matrix(0.33336263,0,0,0.33336263,-0.5,-0.5)"
         clip-rule="evenodd"
         id="path48" />
    </clipPath>
    <clipPath
       clipPathUnits="userSpaceOnUse"
       id="clipPath50">
      <path
         d="M 0,0 H 1895.8334 V 671.94092 H 0 Z"
         transform="matrix(0.33336263,0,0,0.33336263,-0.5,-0.5)"
         clip-rule="evenodd"
         id="path50" />
    </clipPath>
    <clipPath
       clipPathUnits="userSpaceOnUse"
       id="clipPath52">
      <path
         d="M 0,0 H 1895.8334 V 671.94092 H 0 Z"
         transform="matrix(0.33336263,0,0,0.33336263,-0.5,-0.5)"
         clip-rule="evenodd"
         id="path52" />
    </clipPath>
    <clipPath
       clipPathUnits="userSpaceOnUse"
       id="clipPath54">
      <path
         d="M 0,0 H 1895.8334 V 671.94092 H 0 Z"
         transform="matrix(0.33336263,0,0,0.33336263,-0.5,-0.5)"
         clip-rule="evenodd"
         id="path54" />
    </clipPath>
    <clipPath
       clipPathUnits="userSpaceOnUse"
       id="clipPath56">
      <path
         d="M 0,0 H 1895.8334 V 671.94092 H 0 Z"
         transform="matrix(0.33336263,0,0,0.33336263,-0.5,-0.5)"
         clip-rule="evenodd"
         id="path56" />
    </clipPath>
    <clipPath
       clipPathUnits="userSpaceOnUse"
       id="clipPath58">
      <path
         d="M 0,0 H 1895.8334 V 671.94092 H 0 Z"
         transform="matrix(0.33336263,0,0,0.33336263,-0.5,-0.5)"
         clip-rule="evenodd"
         id="path58" />
    </clipPath>
    <clipPath
       clipPathUnits="userSpaceOnUse"
       id="clipPath60">
      <path
         d="M 0,0 H 1895.8334 V 671.94092 H 0 Z"
         transform="matrix(0.33336263,0,0,0.33336263,-0.5,-0.5)"
         clip-rule="evenodd"
         id="path60" />
    </clipPath>
    <clipPath
       clipPathUnits="userSpaceOnUse"
       id="clipPath62">
      <path
         d="M 0,0 H 1895.8334 V 671.94092 H 0 Z"
         transform="matrix(0.33336263,0,0,0.33336263,-0.5,-0.5)"
         clip-rule="evenodd"
         id="path62" />
    </clipPath>
    <clipPath
       clipPathUnits="userSpaceOnUse"
       id="clipPath63">
      <path
         d="M 0,0 H 1895.8334 V 671.94092 H 0 Z"
         transform="matrix(0.3333593,0,0,0.3333593,-39.28125,-85.999999)"
         clip-rule="evenodd"
         id="path63" />
    </clipPath>
    <clipPath
       clipPathUnits="userSpaceOnUse"
       id="clipPath64">
      <path
         d="M 0,0 H 1895.8334 V 671.94092 H 0 Z"
         transform="matrix(0.3333593,0,0,0.3333593,-36.609375,-162)"
         clip-rule="evenodd"
         id="path64" />
    </clipPath>
    <clipPath
       clipPathUnits="userSpaceOnUse"
       id="clipPath65">
      <path
         d="M 0,0 H 1895.8334 V 671.94092 H 0 Z"
         transform="matrix(0.3333593,0,0,0.3333593,-22.34375,-181)"
         clip-rule="evenodd"
         id="path65" />
    </clipPath>
    <clipPath
       clipPathUnits="userSpaceOnUse"
       id="clipPath66">
      <path
         d="M 0,0 H 1895.8334 V 671.94092 H 0 Z"
         transform="matrix(0.3333593,0,0,0.3333593,-49.921875,-200)"
         clip-rule="evenodd"
         id="path66" />
    </clipPath>
  </defs>
  <sodipodi:namedview
     id="namedview1"
     pagecolor="#ffffff"
     bordercolor="#000000"
     borderopacity="0.25"
     inkscape:showpageshadow="2"
     inkscape:pageopacity="0.0"
     inkscape:pagecheckerboard="0"
     inkscape:deskcolor="#d1d1d1">
    <inkscape:page
       x="0"
       y="0"
       inkscape:label="1"
       id="page1"
       width="606.71997"
       height="216"
       margin="0"
       bleed="0" />
  </sodipodi:namedview>
  <g
     id="g1"
     inkscape:groupmode="layer"
     inkscape:label="1">
    <path
       id="path1"
       d="M 0,0 H 632 V 225 H 0 Z"
       style="fill:#ffffff;fill-opacity:1;fill-rule:nonzero;stroke:none"
       transform="scale(0.95991558)"
       clip-path="url(#clipPath2)" />
    <path
       id="path3"
       d="m 560.01001,93.5 h 70 V 176 h -70 z"
       style="fill:#d5e8d4;fill-opacity:1;fill-rule:nonzero;stroke:#82b366;stroke-width:1;stroke-linecap:butt;stroke-linejoin:miter;stroke-miterlimit:10;stroke-dasharray:none;stroke-opacity:1"
       transform="matrix(0.95991558,0,0,0.95991558,0.47995779,0.47995779)"
       clip-path="url(#clipPath4)" />
    <path
       id="path5"
       d="m 560.01001,76 h 70 v 17.5 h -70 z"
       style="fill:#d5e8d4;fill-opacity:1;fill-rule:nonzero;stroke:#82b366;stroke-width:1;stroke-linecap:butt;stroke-linejoin:miter;stroke-miterlimit:10;stroke-dasharray:none;stroke-opacity:1"
       transform="matrix(0.95991558,0,0,0.95991558,0.47995779,0.47995779)"
       clip-path="url(#clipPath6)" />
    <text
       id="text6"
       xml:space="preserve"
       transform="matrix(0.95992518,0,0,0.95992518,542.34273,84.473415)"
       clip-path="url(#clipPath7)"><tspan
         style="font-variant:normal;font-weight:700;font-size:9px;font-family:Helvetica;writing-mode:lr-tb;fill:#000000;fill-opacity:1;fill-rule:nonzero;stroke:none"
         x="0 5.0053711 10.50293 15.508301 18.008789 23.01416 25.514648 31.012207 36.017578 39.014648 46.015137 51.512695 55.015137"
         y="0"
         sodipodi:role="line"
         id="tspan6">socialnetwork</tspan></text>
    <path
       id="path8"
       d="m 571.26001,106 h 47.5 v 50 h -47.5 z"
       style="fill:#ffe6cc;fill-opacity:1;fill-rule:nonzero;stroke:#d79b00;stroke-width:1;stroke-linecap:butt;stroke-linejoin:miter;stroke-miterlimit:10;stroke-dasharray:none;stroke-opacity:1"
       transform="matrix(0.95991558,0,0,0.95991558,0.47995779,0.47995779)"
       clip-path="url(#clipPath9)" />
    <text
       id="text9"
       xml:space="preserve"
       transform="matrix(0.95992518,0,0,0.95992518,551.94198,131.50975)"
       clip-path="url(#clipPath10)"><tspan
         style="font-variant:normal;font-weight:700;font-size:15px;font-family:Helvetica;writing-mode:lr-tb;fill:#000000;fill-opacity:1;fill-rule:nonzero;stroke:none"
         x="0 9.1625977 17.504883 25.847168 31.68457"
         y="0"
         sodipodi:role="line"
         id="tspan9">users</tspan></text>
    <path
       id="path11"
       d="M 200,1 H 490 V 31 H 200 Z"
       style="fill:#dae8fc;fill-opacity:1;fill-rule:nonzero;stroke:#6c8ebf;stroke-width:1;stroke-linecap:butt;stroke-linejoin:miter;stroke-miterlimit:10;stroke-dasharray:none;stroke-opacity:1"
       transform="matrix(0.95991558,0,0,0.95991558,0.47995779,0.47995779)"
       clip-path="url(#clipPath12)" />
    <text
       id="text12"
       xml:space="preserve"
       transform="matrix(0.95992518,0,0,0.95992518,297.32183,20.158429)"
       clip-path="url(#clipPath13)"><tspan
         style="font-variant:normal;font-weight:700;font-size:16px;font-family:Helvetica;writing-mode:lr-tb;fill:#000000;fill-opacity:1;fill-rule:nonzero;stroke:none"
         x="0 11.554688 21.328125 31.101562 40 43.859375 55.414062 66.085938"
         y="0"
         sodipodi:role="line"
         id="tspan12">Node API</tspan></text>
    <path
       id="path14"
       d="M 200,31 H 490 V 221 H 200 Z"
       style="fill:#dae8fc;fill-opacity:1;fill-rule:nonzero;stroke:#6c8ebf;stroke-width:1;stroke-linecap:butt;stroke-linejoin:miter;stroke-miterlimit:10;stroke-dasharray:none;stroke-opacity:1"
       transform="matrix(0.95991558,0,0,0.95991558,0.47995779,0.47995779)"
       clip-path="url(#clipPath15)" />
    <path
       id="path16"
       d="m 440,143.5 h -20 v 40 h -13.63"
       style="fill:none;stroke:#000000;stroke-width:1;stroke-linecap:butt;stroke-linejoin:miter;stroke-miterlimit:10;stroke-dasharray:none;stroke-opacity:1"
       transform="matrix(0.95991558,0,0,0.95991558,0.47995779,0.47995779)"
       clip-path="url(#clipPath17)" />
    <path
       id="path18"
       d="m 401.12,183.5 7,-3.5 -1.75,3.5 1.75,3.5 z"
       style="fill:#000000;fill-opacity:1;fill-rule:nonzero;stroke:#000000;stroke-width:1;stroke-linecap:butt;stroke-linejoin:miter;stroke-miterlimit:10;stroke-dasharray:none;stroke-opacity:1"
       transform="matrix(0.95991558,0,0,0.95991558,0.47995779,0.47995779)"
       clip-path="url(#clipPath19)" />
    <path
       id="path20"
       d="m 440,98.5 h 70 v 60 h -70 z"
       style="fill:#ffffff;fill-opacity:1;fill-rule:nonzero;stroke:#000000;stroke-width:1;stroke-linecap:butt;stroke-linejoin:miter;stroke-miterlimit:10;stroke-dasharray:none;stroke-opacity:1"
       transform="matrix(0.95991558,0,0,0.95991558,0.47995779,0.47995779)"
       clip-path="url(#clipPath21)" />
    <text
       id="text21"
       xml:space="preserve"
       transform="matrix(0.95992518,0,0,0.95992518,429.94149,113.27117)"
       clip-path="url(#clipPath22)"><tspan
         style="font-variant:normal;font-weight:normal;font-size:13px;font-family:Helvetica;writing-mode:lr-tb;fill:#000000;fill-opacity:1;fill-rule:nonzero;stroke:none"
         x="0 7.2299805 10.118164 17.348145 21.677246 28.907227 33.236328 39.736328 43.348145 46.959961"
         y="0"
         sodipodi:role="line"
         id="tspan21">Library to</tspan></text>
    <text
       id="text22"
       xml:space="preserve"
       transform="matrix(0.95992518,0,0,0.95992518,435.49106,128.62997)"
       clip-path="url(#clipPath23)"><tspan
         style="font-variant:normal;font-weight:normal;font-size:13px;font-family:Helvetica;writing-mode:lr-tb;fill:#000000;fill-opacity:1;fill-rule:nonzero;stroke:none"
         x="0 2.8881836 10.118164 13.72998 20.959961 25.289062 32.519043 39.019043"
         y="0"
         sodipodi:role="line"
         id="tspan22">interact</tspan></text>
    <text
       id="text23"
       xml:space="preserve"
       transform="matrix(0.95992518,0,0,0.95992518,434.11117,143.02885)"
       clip-path="url(#clipPath24)"><tspan
         style="font-variant:normal;font-weight:normal;font-size:13px;font-family:Helvetica;writing-mode:lr-tb;fill:#000000;fill-opacity:1;fill-rule:nonzero;stroke:none"
         x="0 9.3881836 12.276367 15.888184 23.118164 26.72998 35.400879"
         y="0"
         sodipodi:role="line"
         id="tspan23">with PG</tspan></text>
    <path
       id="path25"
       d="m 320,81 h 23.64001"
       style="fill:none;stroke:#000000;stroke-width:1;stroke-linecap:butt;stroke-linejoin:miter;stroke-miterlimit:10;stroke-dasharray:none;stroke-opacity:1"
       transform="matrix(0.95991558,0,0,0.95991558,0.47995779,0.47995779)"
       clip-path="url(#clipPath26)" />
    <path
       id="path27"
       d="m 348.89001,81 -7,3.5 1.75,-3.5 -1.75,-3.5 z"
       style="fill:#000000;fill-opacity:1;fill-rule:nonzero;stroke:#000000;stroke-width:1;stroke-linecap:butt;stroke-linejoin:miter;stroke-miterlimit:10;stroke-dasharray:none;stroke-opacity:1"
       transform="matrix(0.95991558,0,0,0.95991558,0.47995779,0.47995779)"
       clip-path="url(#clipPath28)" />
    <path
       id="path29"
       d="m 210,46 h 110 v 70 H 210 Z"
       style="fill:#fff2cc;fill-opacity:1;fill-rule:nonzero;stroke:#d6b656;stroke-width:1;stroke-linecap:butt;stroke-linejoin:miter;stroke-miterlimit:10;stroke-dasharray:none;stroke-opacity:1"
       transform="matrix(0.95991558,0,0,0.95991558,0.47995779,0.47995779)"
       clip-path="url(#clipPath30)" />
    <text
       id="text30"
       xml:space="preserve"
       transform="matrix(0.95992518,0,0,0.95992518,206.15894,74.874164)"
       clip-path="url(#clipPath31)"><tspan
         style="font-variant:normal;font-weight:normal;font-size:13px;font-family:Helvetica;writing-mode:lr-tb;fill:#000000;fill-opacity:1;fill-rule:nonzero;stroke:none"
         x="0 9.3881836 16.618164 23.848145 31.078125 34.689941 38.301758 45.531738 49.143555 56.373535 63.603516 70.833496 78.063477 82.392578 89.622559 93.234375"
         y="0"
         sodipodi:role="line"
         id="tspan30">Code to generate</tspan></text>
    <text
       id="text31"
       xml:space="preserve"
       transform="matrix(0.95992518,0,0,0.95992518,241.88615,90.232967)"
       clip-path="url(#clipPath32)"><tspan
         style="font-variant:normal;font-weight:normal;font-size:13px;font-family:Helvetica;writing-mode:lr-tb;fill:#000000;fill-opacity:1;fill-rule:nonzero;stroke:none"
         x="0 8.6708984 18.782715"
         y="0"
         sodipodi:role="line"
         id="tspan31">SQL</tspan></text>
    <path
       id="path33"
       d="m 400,81 h 20 v 32.5 h 13.64001"
       style="fill:none;stroke:#000000;stroke-width:1;stroke-linecap:butt;stroke-linejoin:miter;stroke-miterlimit:10;stroke-dasharray:none;stroke-opacity:1"
       transform="matrix(0.95991558,0,0,0.95991558,0.47995779,0.47995779)"
       clip-path="url(#clipPath34)" />
    <path
       id="path35"
       d="m 438.89001,113.5 -7,3.5 1.75,-3.5 -1.75,-3.5 z"
       style="fill:#000000;fill-opacity:1;fill-rule:nonzero;stroke:#000000;stroke-width:1;stroke-linecap:butt;stroke-linejoin:miter;stroke-miterlimit:10;stroke-dasharray:none;stroke-opacity:1"
       transform="matrix(0.95991558,0,0,0.95991558,0.47995779,0.47995779)"
       clip-path="url(#clipPath36)" />
    <path
       id="path37"
       d="m 370,56 h 30 v 50 H 350 V 76 Z"
       style="fill:#f5f5f5;fill-opacity:1;fill-rule:nonzero;stroke:#666666;stroke-width:1;stroke-linecap:butt;stroke-linejoin:miter;stroke-miterlimit:10;stroke-dasharray:none;stroke-opacity:1"
       transform="matrix(0.95991558,0,0,0.95991558,0.47995779,0.47995779)"
       clip-path="url(#clipPath38)" />
    <text
       id="text38"
       xml:space="preserve"
       transform="matrix(0.95992518,0,0,0.95992518,347.47792,82.553565)"
       clip-path="url(#clipPath39)"><tspan
         style="font-style:oblique;font-variant:normal;font-weight:normal;font-size:13px;font-family:Helvetica;writing-mode:lr-tb;fill:#333333;fill-opacity:1;fill-rule:nonzero;stroke:none"
         x="0 8.6708984 18.782715"
         y="0"
         sodipodi:role="line"
         id="tspan38">SQL</tspan></text>
    <path
       id="path40"
       d="m 370,158.5 h 30 v 50 h -50 v -30 z"
       style="fill:#f5f5f5;fill-opacity:1;fill-rule:nonzero;stroke:#666666;stroke-width:1;stroke-linecap:butt;stroke-linejoin:miter;stroke-miterlimit:10;stroke-dasharray:none;stroke-opacity:1"
       transform="matrix(0.95991558,0,0,0.95991558,0.47995779,0.47995779)"
       clip-path="url(#clipPath41)" />
    <text
       id="text41"
       xml:space="preserve"
       transform="matrix(0.95992518,0,0,0.95992518,346.78797,181.42586)"
       clip-path="url(#clipPath42)"><tspan
         style="font-style:oblique;font-variant:normal;font-weight:normal;font-size:13px;font-family:Helvetica;writing-mode:lr-tb;fill:#333333;fill-opacity:1;fill-rule:nonzero;stroke:none"
         x="0 9.3881836 16.618164 20.22998"
         y="0"
         sodipodi:role="line"
         id="tspan41">Data</tspan></text>
    <path
       id="path43"
       d="m 210,141 h 110 v 70 H 210 Z"
       style="fill:#fff2cc;fill-opacity:1;fill-rule:nonzero;stroke:#d6b656;stroke-width:1;stroke-linecap:butt;stroke-linejoin:miter;stroke-miterlimit:10;stroke-dasharray:none;stroke-opacity:1"
       transform="matrix(0.95991558,0,0,0.95991558,0.47995779,0.47995779)"
       clip-path="url(#clipPath44)" />
    <text
       id="text44"
       xml:space="preserve"
       transform="matrix(0.95992518,0,0,0.95992518,210.32861,166.06706)"
       clip-path="url(#clipPath45)"><tspan
         style="font-variant:normal;font-weight:normal;font-size:13px;font-family:Helvetica;writing-mode:lr-tb;fill:#000000;fill-opacity:1;fill-rule:nonzero;stroke:none"
         x="0 9.3881836 16.618164 23.848145 31.078125 34.689941 38.301758 45.531738 49.143555 52.031738 59.261719 62.873535 70.103516 74.432617 81.662598 88.162598"
         y="0"
         sodipodi:role="line"
         id="tspan44">Code to interact</tspan></text>
    <text
       id="text45"
       xml:space="preserve"
       transform="matrix(0.95992518,0,0,0.95992518,217.96301,181.42586)"
       clip-path="url(#clipPath46)"><tspan
         style="font-variant:normal;font-weight:normal;font-size:13px;font-family:Helvetica;writing-mode:lr-tb;fill:#000000;fill-opacity:1;fill-rule:nonzero;stroke:none"
         x="0 9.3881836 12.276367 15.888184 23.118164 26.72998 30.341797 37.571777 40.459961 46.959961 50.571777 57.801758 65.031738 68.643555"
         y="0"
         sodipodi:role="line"
         id="tspan45">with this data</tspan></text>
    <path
       id="path47"
       d="M 350,183.3 H 326.37"
       style="fill:none;stroke:#000000;stroke-width:1;stroke-linecap:butt;stroke-linejoin:miter;stroke-miterlimit:10;stroke-dasharray:none;stroke-opacity:1"
       transform="matrix(0.95991558,0,0,0.95991558,0.47995779,0.47995779)"
       clip-path="url(#clipPath48)" />
    <path
       id="path49"
       d="m 321.12,183.3 7,-3.5 -1.75,3.5 1.75,3.5 z"
       style="fill:#000000;fill-opacity:1;fill-rule:nonzero;stroke:#000000;stroke-width:1;stroke-linecap:butt;stroke-linejoin:miter;stroke-miterlimit:10;stroke-dasharray:none;stroke-opacity:1"
       transform="matrix(0.95991558,0,0,0.95991558,0.47995779,0.47995779)"
       clip-path="url(#clipPath50)" />
    <path
       id="path51"
       d="m 510.01001,116 h 43.63"
       style="fill:none;stroke:#000000;stroke-width:1;stroke-linecap:butt;stroke-linejoin:miter;stroke-miterlimit:10;stroke-dasharray:none;stroke-opacity:1"
       transform="matrix(0.95991558,0,0,0.95991558,0.47995779,0.47995779)"
       clip-path="url(#clipPath52)" />
    <path
       id="path53"
       d="m 558.89001,116 -7,3.5 1.75,-3.5 -1.75,-3.5 z"
       style="fill:#000000;fill-opacity:1;fill-rule:nonzero;stroke:#000000;stroke-width:1;stroke-linecap:butt;stroke-linejoin:miter;stroke-miterlimit:10;stroke-dasharray:none;stroke-opacity:1"
       transform="matrix(0.95991558,0,0,0.95991558,0.47995779,0.47995779)"
       clip-path="url(#clipPath54)" />
    <path
       id="path55"
       d="M 560.01001,141 H 516.37"
       style="fill:none;stroke:#000000;stroke-width:1;stroke-linecap:butt;stroke-linejoin:miter;stroke-miterlimit:10;stroke-dasharray:none;stroke-opacity:1"
       transform="matrix(0.95991558,0,0,0.95991558,0.47995779,0.47995779)"
       clip-path="url(#clipPath56)" />
    <path
       id="path57"
       d="m 511.12,141 7,-3.5 -1.75,3.5 1.75,3.5 z"
       style="fill:#000000;fill-opacity:1;fill-rule:nonzero;stroke:#000000;stroke-width:1;stroke-linecap:butt;stroke-linejoin:miter;stroke-miterlimit:10;stroke-dasharray:none;stroke-opacity:1"
       transform="matrix(0.95991558,0,0,0.95991558,0.47995779,0.47995779)"
       clip-path="url(#clipPath58)" />
    <path
       id="path59"
       d="m 206,46 h -6.5 c -4.33333,0 -6.5,3.333332 -6.5,10 v 15 c 0,6.666664 -2.16667,10 -6.5,10 h -3.25 c -2.16667,0 -1.08333,0 3.25,0 h 3.25 c 2.16667,0 3.25,3.333336 3.25,10 v 15 c 0,6.66666 2.16667,10 6.5,10 h 6.5"
       style="fill:none;stroke:#000000;stroke-width:1;stroke-linecap:butt;stroke-linejoin:miter;stroke-miterlimit:10;stroke-dasharray:none;stroke-opacity:1"
       transform="matrix(0.95991558,0,0,0.95991558,0.47995779,0.47995779)"
       clip-path="url(#clipPath60)" />
    <path
       id="path61"
       d="m 206,141 h -6.5 c -4.33333,0 -6.5,3.33333 -6.5,10 v 15 c 0,6.66667 -2.16667,10 -6.5,10 h -3.25 c -2.16667,0 -1.08333,0 3.25,0 h 3.25 c 2.16667,0 3.25,3.33333 3.25,10 v 15 c 0,6.66667 2.16667,10 6.5,10 h 6.5"
       style="fill:none;stroke:#000000;stroke-width:1;stroke-linecap:butt;stroke-linejoin:miter;stroke-miterlimit:10;stroke-dasharray:none;stroke-opacity:1"
       transform="matrix(0.95991558,0,0,0.95991558,0.47995779,0.47995779)"
       clip-path="url(#clipPath62)" />
    <text
       id="text62"
       xml:space="preserve"
       transform="matrix(0.95992518,0,0,0.95992518,37.707061,82.553565)"
       clip-path="url(#clipPath63)"><tspan
         style="font-variant:normal;font-weight:normal;font-size:16px;font-family:Helvetica;writing-mode:lr-tb;fill:#000000;fill-opacity:1;fill-rule:nonzero;stroke:none"
         x="0 10.671875 16 24.898438 29.34375 40.898438 49.796875 54.242188 65.796875 71.125 74.679688 79.125 82.679688 91.578125 100.47656 104.92188 109.36719 118.26562 121.82031 129.82031"
         y="0"
         sodipodi:role="line"
         id="tspan62">Are we writing this?</tspan></text>
    <text
       id="text63"
       xml:space="preserve"
       transform="matrix(0.95992518,0,0,0.95992518,35.142261,155.50788)"
       clip-path="url(#clipPath64)"><tspan
         style="font-variant:normal;font-weight:normal;font-size:16px;font-family:Helvetica;writing-mode:lr-tb;fill:#000000;fill-opacity:1;fill-rule:nonzero;stroke:none"
         x="0 11.554688 20.453125 24.898438 36.453125 45.351562 49.796875 54.242188 59.570312 68.46875 77.367188 81.8125 86.257812 91.585938 100.48438 112.03906 120.03906 124.48438 133.38281"
         y="0"
         sodipodi:role="line"
         id="tspan63">Do we treat rows as</tspan></text>
    <text
       id="text64"
       xml:space="preserve"
       transform="matrix(0.95992518,0,0,0.95992518,21.448328,173.74646)"
       clip-path="url(#clipPath65)"><tspan
         style="font-variant:normal;font-weight:normal;font-size:16px;font-family:Helvetica;writing-mode:lr-tb;fill:#000000;fill-opacity:1;fill-rule:nonzero;stroke:none"
         x="0 8.8984375 12.453125 21.351562 24.90625 33.804688 38.25 47.148438 56.046875 59.601562 68.5 76.5 80.945312 88.945312 93.390625 102.28906 107.61719 112.0625 120.96094 125.40625 129.85156 138.75 146.75"
         y="0"
         sodipodi:role="line"
         id="tspan64">plain objects or attach</tspan></text>
    <text
       id="text65"
       xml:space="preserve"
       transform="matrix(0.95992518,0,0,0.95992518,47.921265,191.98504)"
       clip-path="url(#clipPath66)"><tspan
         style="font-variant:normal;font-weight:normal;font-size:16px;font-family:Helvetica;writing-mode:lr-tb;fill:#000000;fill-opacity:1;fill-rule:nonzero;stroke:none"
         x="0 13.328125 22.226562 26.671875 35.570312 44.46875 53.367188 61.367188 65.8125 70.257812 79.15625 83.601562 88.046875 96.945312 105.84375 119.17188"
         y="0"
         sodipodi:role="line"
         id="tspan65">methods to them?</tspan></text>
  </g>
</svg>
