<?xml version="1.0" encoding="UTF-8" standalone="no"?>
<!-- Created with Inkscape (http://www.inkscape.org/) -->

<svg
   version="1.1"
   id="svg1"
   width="571.84003"
   height="285.44"
   viewBox="0 0 571.84003 285.44"
   sodipodi:docname="sql-11.pdf"
   xmlns:inkscape="http://www.inkscape.org/namespaces/inkscape"
   xmlns:sodipodi="http://sodipodi.sourceforge.net/DTD/sodipodi-0.dtd"
   xmlns="http://www.w3.org/2000/svg"
   xmlns:svg="http://www.w3.org/2000/svg">
  <defs
     id="defs1">
    <clipPath
       clipPathUnits="userSpaceOnUse"
       id="clipPath2">
      <path
         d="M 0,0 H 1787.4999 V 889.25873 H 0 Z"
         transform="scale(0.33398605)"
         clip-rule="evenodd"
         id="path2" />
    </clipPath>
    <clipPath
       clipPathUnits="userSpaceOnUse"
       id="clipPath4">
      <path
         d="M 0,0 H 1787.4999 V 886.26459 H 0 Z"
         transform="matrix(0.33398605,0,0,0.33398605,-0.50000001,-0.50000001)"
         clip-rule="evenodd"
         id="path4" />
    </clipPath>
    <clipPath
       clipPathUnits="userSpaceOnUse"
       id="clipPath5">
      <path
         d="M 0,0 H 1787.4999 V 886.26459 H 0 Z"
         transform="matrix(0.3339827,0,0,0.3339827,-252,-152)"
         clip-rule="evenodd"
         id="path5" />
    </clipPath>
    <clipPath
       clipPathUnits="userSpaceOnUse"
       id="clipPath6">
      <path
         d="M 0,0 H 1787.4999 V 886.26459 H 0 Z"
         transform="matrix(0.3339827,0,0,0.3339827,-323.78564,-152)"
         clip-rule="evenodd"
         id="path6" />
    </clipPath>
    <clipPath
       clipPathUnits="userSpaceOnUse"
       id="clipPath7">
      <path
         d="M 0,0 H 1787.4999 V 886.26459 H 0 Z"
         transform="matrix(0.3339827,0,0,0.3339827,-408.82813,-152)"
         clip-rule="evenodd"
         id="path7" />
    </clipPath>
    <clipPath
       clipPathUnits="userSpaceOnUse"
       id="clipPath8">
      <path
         d="M 0,0 H 1787.4999 V 886.26459 H 0 Z"
         transform="matrix(0.3339827,0,0,0.3339827,-469.28125,-152)"
         clip-rule="evenodd"
         id="path8" />
    </clipPath>
    <clipPath
       clipPathUnits="userSpaceOnUse"
       id="clipPath9">
      <path
         d="M 0,0 H 1787.4999 V 886.26459 H 0 Z"
         transform="matrix(0.3339827,0,0,0.3339827,-252,-172)"
         clip-rule="evenodd"
         id="path9" />
    </clipPath>
    <clipPath
       clipPathUnits="userSpaceOnUse"
       id="clipPath10">
      <path
         d="M 0,0 H 1787.4999 V 886.26459 H 0 Z"
         transform="matrix(0.3339827,0,0,0.3339827,-306.77003,-172)"
         clip-rule="evenodd"
         id="path10" />
    </clipPath>
    <clipPath
       clipPathUnits="userSpaceOnUse"
       id="clipPath11">
      <path
         d="M 0,0 H 1787.4999 V 886.26459 H 0 Z"
         transform="matrix(0.3339827,0,0,0.3339827,-252,-192)"
         clip-rule="evenodd"
         id="path11" />
    </clipPath>
    <clipPath
       clipPathUnits="userSpaceOnUse"
       id="clipPath12">
      <path
         d="M 0,0 H 1787.4999 V 886.26459 H 0 Z"
         transform="matrix(0.3339827,0,0,0.3339827,-296.41065,-192)"
         clip-rule="evenodd"
         id="path12" />
    </clipPath>
    <clipPath
       clipPathUnits="userSpaceOnUse"
       id="clipPath13">
      <path
         d="M 0,0 H 1787.4999 V 886.26459 H 0 Z"
         transform="matrix(0.3339827,0,0,0.3339827,-333.28125,-192)"
         clip-rule="evenodd"
         id="path13" />
    </clipPath>
    <clipPath
       clipPathUnits="userSpaceOnUse"
       id="clipPath14">
      <path
         d="M 0,0 H 1787.4999 V 886.26459 H 0 Z"
         transform="matrix(0.3339827,0,0,0.3339827,-363.50439,-192)"
         clip-rule="evenodd"
         id="path14" />
    </clipPath>
    <clipPath
       clipPathUnits="userSpaceOnUse"
       id="clipPath15">
      <path
         d="M 0,0 H 1787.4999 V 886.26459 H 0 Z"
         transform="matrix(0.3339827,0,0,0.3339827,-252,-213)"
         clip-rule="evenodd"
         id="path15" />
    </clipPath>
    <clipPath
       clipPathUnits="userSpaceOnUse"
       id="clipPath16">
      <path
         d="M 0,0 H 1787.4999 V 886.26459 H 0 Z"
         transform="matrix(0.3339827,0,0,0.3339827,-347.11377,-213)"
         clip-rule="evenodd"
         id="path16" />
    </clipPath>
    <clipPath
       clipPathUnits="userSpaceOnUse"
       id="clipPath17">
      <path
         d="M 0,0 H 1787.4999 V 886.26459 H 0 Z"
         transform="matrix(0.3339827,0,0,0.3339827,-252,-233)"
         clip-rule="evenodd"
         id="path17" />
    </clipPath>
    <clipPath
       clipPathUnits="userSpaceOnUse"
       id="clipPath19">
      <path
         d="M 0,0 H 1787.4999 V 886.26459 H 0 Z"
         transform="matrix(0.33398605,0,0,0.33398605,-0.50000001,-0.50000001)"
         clip-rule="evenodd"
         id="path19" />
    </clipPath>
    <clipPath
       clipPathUnits="userSpaceOnUse"
       id="clipPath20">
      <path
         d="M 0,0 H 1787.4999 V 886.26459 H 0 Z"
         transform="matrix(0.3339827,0,0,0.3339827,-252,-27)"
         clip-rule="evenodd"
         id="path20" />
    </clipPath>
    <clipPath
       clipPathUnits="userSpaceOnUse"
       id="clipPath21">
      <path
         d="M 0,0 H 1787.4999 V 886.26459 H 0 Z"
         transform="matrix(0.3339827,0,0,0.3339827,-300.16065,-27)"
         clip-rule="evenodd"
         id="path21" />
    </clipPath>
    <clipPath
       clipPathUnits="userSpaceOnUse"
       id="clipPath22">
      <path
         d="M 0,0 H 1787.4999 V 886.26459 H 0 Z"
         transform="matrix(0.3339827,0,0,0.3339827,-337.03125,-27)"
         clip-rule="evenodd"
         id="path22" />
    </clipPath>
    <clipPath
       clipPathUnits="userSpaceOnUse"
       id="clipPath23">
      <path
         d="M 0,0 H 1787.4999 V 886.26459 H 0 Z"
         transform="matrix(0.3339827,0,0,0.3339827,-365.37939,-27)"
         clip-rule="evenodd"
         id="path23" />
    </clipPath>
    <clipPath
       clipPathUnits="userSpaceOnUse"
       id="clipPath24">
      <path
         d="M 0,0 H 1787.4999 V 886.26459 H 0 Z"
         transform="matrix(0.3339827,0,0,0.3339827,-252,-47)"
         clip-rule="evenodd"
         id="path24" />
    </clipPath>
    <clipPath
       clipPathUnits="userSpaceOnUse"
       id="clipPath25">
      <path
         d="M 0,0 H 1787.4999 V 886.26459 H 0 Z"
         transform="matrix(0.3339827,0,0,0.3339827,-270.90626,-47)"
         clip-rule="evenodd"
         id="path25" />
    </clipPath>
    <clipPath
       clipPathUnits="userSpaceOnUse"
       id="clipPath26">
      <path
         d="M 0,0 H 1787.4999 V 886.26459 H 0 Z"
         transform="matrix(0.3339827,0,0,0.3339827,-342.69189,-47)"
         clip-rule="evenodd"
         id="path26" />
    </clipPath>
    <clipPath
       clipPathUnits="userSpaceOnUse"
       id="clipPath27">
      <path
         d="M 0,0 H 1787.4999 V 886.26459 H 0 Z"
         transform="matrix(0.3339827,0,0,0.3339827,-403.17188,-47)"
         clip-rule="evenodd"
         id="path27" />
    </clipPath>
    <clipPath
       clipPathUnits="userSpaceOnUse"
       id="clipPath28">
      <path
         d="M 0,0 H 1787.4999 V 886.26459 H 0 Z"
         transform="matrix(0.3339827,0,0,0.3339827,-457.9419,-47)"
         clip-rule="evenodd"
         id="path28" />
    </clipPath>
    <clipPath
       clipPathUnits="userSpaceOnUse"
       id="clipPath29">
      <path
         d="M 0,0 H 1787.4999 V 886.26459 H 0 Z"
         transform="matrix(0.3339827,0,0,0.3339827,-252,-67)"
         clip-rule="evenodd"
         id="path29" />
    </clipPath>
    <clipPath
       clipPathUnits="userSpaceOnUse"
       id="clipPath30">
      <path
         d="M 0,0 H 1787.4999 V 886.26459 H 0 Z"
         transform="matrix(0.3339827,0,0,0.3339827,-270.90626,-67)"
         clip-rule="evenodd"
         id="path30" />
    </clipPath>
    <clipPath
       clipPathUnits="userSpaceOnUse"
       id="clipPath31">
      <path
         d="M 0,0 H 1787.4999 V 886.26459 H 0 Z"
         transform="matrix(0.3339827,0,0,0.3339827,-252,-88)"
         clip-rule="evenodd"
         id="path31" />
    </clipPath>
    <clipPath
       clipPathUnits="userSpaceOnUse"
       id="clipPath32">
      <path
         d="M 0,0 H 1787.4999 V 886.26459 H 0 Z"
         transform="matrix(0.3339827,0,0,0.3339827,-270.90626,-88)"
         clip-rule="evenodd"
         id="path32" />
    </clipPath>
    <clipPath
       clipPathUnits="userSpaceOnUse"
       id="clipPath33">
      <path
         d="M 0,0 H 1787.4999 V 886.26459 H 0 Z"
         transform="matrix(0.3339827,0,0,0.3339827,-342.69189,-88)"
         clip-rule="evenodd"
         id="path33" />
    </clipPath>
    <clipPath
       clipPathUnits="userSpaceOnUse"
       id="clipPath34">
      <path
         d="M 0,0 H 1787.4999 V 886.26459 H 0 Z"
         transform="matrix(0.3339827,0,0,0.3339827,-403.17188,-88)"
         clip-rule="evenodd"
         id="path34" />
    </clipPath>
    <clipPath
       clipPathUnits="userSpaceOnUse"
       id="clipPath35">
      <path
         d="M 0,0 H 1787.4999 V 886.26459 H 0 Z"
         transform="matrix(0.3339827,0,0,0.3339827,-457.9419,-88)"
         clip-rule="evenodd"
         id="path35" />
    </clipPath>
    <clipPath
       clipPathUnits="userSpaceOnUse"
       id="clipPath36">
      <path
         d="M 0,0 H 1787.4999 V 886.26459 H 0 Z"
         transform="matrix(0.3339827,0,0,0.3339827,-252,-108)"
         clip-rule="evenodd"
         id="path36" />
    </clipPath>
    <clipPath
       clipPathUnits="userSpaceOnUse"
       id="clipPath37">
      <path
         d="M 0,0 H 1787.4999 V 886.26459 H 0 Z"
         transform="matrix(0.3339827,0,0,0.3339827,-19.46875,-188.00001)"
         clip-rule="evenodd"
         id="path37" />
    </clipPath>
    <clipPath
       clipPathUnits="userSpaceOnUse"
       id="clipPath38">
      <path
         d="M 0,0 H 1787.4999 V 886.26459 H 0 Z"
         transform="matrix(0.3339827,0,0,0.3339827,-7.96875,-213)"
         clip-rule="evenodd"
         id="path38" />
    </clipPath>
    <clipPath
       clipPathUnits="userSpaceOnUse"
       id="clipPath39">
      <path
         d="M 0,0 H 1787.4999 V 886.26459 H 0 Z"
         transform="matrix(0.3339827,0,0,0.3339827,-25.484375,-238)"
         clip-rule="evenodd"
         id="path39" />
    </clipPath>
    <clipPath
       clipPathUnits="userSpaceOnUse"
       id="clipPath40">
      <path
         d="M 0,0 H 1787.4999 V 886.26459 H 0 Z"
         transform="matrix(0.3339827,0,0,0.3339827,-44.71875,-263)"
         clip-rule="evenodd"
         id="path40" />
    </clipPath>
    <clipPath
       clipPathUnits="userSpaceOnUse"
       id="clipPath41">
      <path
         d="M 0,0 H 1787.4999 V 886.26459 H 0 Z"
         transform="matrix(0.3339827,0,0,0.3339827,-28.984375,-288)"
         clip-rule="evenodd"
         id="path41" />
    </clipPath>
    <clipPath
       clipPathUnits="userSpaceOnUse"
       id="clipPath42">
      <path
         d="M 0,0 H 1787.4999 V 886.26459 H 0 Z"
         transform="matrix(0.3339827,0,0,0.3339827,-158.09375,-62)"
         clip-rule="evenodd"
         id="path42" />
    </clipPath>
    <clipPath
       clipPathUnits="userSpaceOnUse"
       id="clipPath43">
      <path
         d="M 0,0 H 1787.4999 V 886.26459 H 0 Z"
         transform="matrix(0.3339827,0,0,0.3339827,-184.75,-81)"
         clip-rule="evenodd"
         id="path43" />
    </clipPath>
    <clipPath
       clipPathUnits="userSpaceOnUse"
       id="clipPath44">
      <path
         d="M 0,0 H 1787.4999 V 886.26459 H 0 Z"
         transform="matrix(0.3339827,0,0,0.3339827,-143.84375,-100)"
         clip-rule="evenodd"
         id="path44" />
    </clipPath>
  </defs>
  <sodipodi:namedview
     id="namedview1"
     pagecolor="#ffffff"
     bordercolor="#000000"
     borderopacity="0.25"
     inkscape:showpageshadow="2"
     inkscape:pageopacity="0.0"
     inkscape:pagecheckerboard="0"
     inkscape:deskcolor="#d1d1d1">
    <inkscape:page
       x="0"
       y="0"
       inkscape:label="1"
       id="page1"
       width="571.84003"
       height="285.44"
       margin="0"
       bleed="0" />
  </sodipodi:namedview>
  <g
     id="g1"
     inkscape:groupmode="layer"
     inkscape:label="1">
    <path
       id="path1"
       d="M 0,0 H 597 V 297 H 0 Z"
       style="fill:#ffffff;fill-opacity:1;fill-rule:nonzero;stroke:none"
       transform="scale(0.9581238)"
       clip-path="url(#clipPath2)" />
    <path
       id="path3"
       d="M 235,126 H 595 V 246 H 235 Z"
       style="fill:#dae8fc;fill-opacity:1;fill-rule:nonzero;stroke:#6c8ebf;stroke-width:1;stroke-linecap:butt;stroke-linejoin:miter;stroke-miterlimit:10;stroke-dasharray:none;stroke-opacity:1"
       transform="matrix(0.9581238,0,0,0.9581238,0.47906191,0.47906191)"
       clip-path="url(#clipPath4)" />
    <text
       id="text4"
       xml:space="preserve"
       transform="matrix(0.95813343,0,0,0.95813343,241.44962,145.63628)"
       clip-path="url(#clipPath5)"><tspan
         style="font-variant:normal;font-weight:700;font-size:17px;font-family:Helvetica;writing-mode:lr-tb;fill:#000000;fill-opacity:1;fill-rule:nonzero;stroke:none"
         x="0 11.338867 22.677734 33.062012 44.400879 56.677734"
         y="0"
         sodipodi:role="line"
         id="tspan4">SELECT</tspan></text>
    <text
       id="text5"
       xml:space="preserve"
       transform="matrix(0.95813343,0,0,0.95813343,310.22985,145.63628)"
       clip-path="url(#clipPath6)"><tspan
         style="font-variant:normal;font-weight:normal;font-size:17px;font-family:Helvetica;writing-mode:lr-tb;fill:#000000;fill-opacity:1;fill-rule:nonzero;stroke:none"
         x="0 9.4545898 17.95459 27.40918 33.070312 42.524902 51.979492 66.140625 75.595215 80.318359"
         y="0"
         sodipodi:role="line"
         id="tspan5">username, </tspan></text>
    <text
       id="text6"
       xml:space="preserve"
       transform="matrix(0.95813343,0,0,0.95813343,391.7119,145.63628)"
       clip-path="url(#clipPath7)"><tspan
         style="font-variant:normal;font-weight:700;font-size:17px;font-family:Helvetica;writing-mode:lr-tb;fill:#000000;fill-opacity:1;fill-rule:nonzero;stroke:none"
         x="0 12.276855 25.5 37.776855 50.053711"
         y="0"
         sodipodi:role="line"
         id="tspan6">COUNT</tspan></text>
    <text
       id="text7"
       xml:space="preserve"
       transform="matrix(0.95813343,0,0,0.95813343,449.63405,145.63628)"
       clip-path="url(#clipPath8)"><tspan
         style="font-variant:normal;font-weight:normal;font-size:17px;font-family:Helvetica;writing-mode:lr-tb;fill:#000000;fill-opacity:1;fill-rule:nonzero;stroke:none"
         x="0 5.6611328 12.276855"
         y="0"
         sodipodi:role="line"
         id="tspan7">(*)</tspan></text>
    <text
       id="text8"
       xml:space="preserve"
       transform="matrix(0.95813343,0,0,0.95813343,241.44962,164.79895)"
       clip-path="url(#clipPath9)"><tspan
         style="font-variant:normal;font-weight:700;font-size:17px;font-family:Helvetica;writing-mode:lr-tb;fill:#000000;fill-opacity:1;fill-rule:nonzero;stroke:none"
         x="0 10.384277 22.661133 35.884277"
         y="0"
         sodipodi:role="line"
         id="tspan8">FROM</tspan></text>
    <text
       id="text9"
       xml:space="preserve"
       transform="matrix(0.95813343,0,0,0.95813343,293.92662,164.79895)"
       clip-path="url(#clipPath10)"><tspan
         style="font-variant:normal;font-weight:normal;font-size:17px;font-family:Helvetica;writing-mode:lr-tb;fill:#000000;fill-opacity:1;fill-rule:nonzero;stroke:none"
         x="0 9.4545898 17.95459 27.40918 33.070312"
         y="0"
         sodipodi:role="line"
         id="tspan9">users</tspan></text>
    <text
       id="text10"
       xml:space="preserve"
       transform="matrix(0.95813343,0,0,0.95813343,241.44962,183.96162)"
       clip-path="url(#clipPath11)"><tspan
         style="font-variant:normal;font-weight:700;font-size:17px;font-family:Helvetica;writing-mode:lr-tb;fill:#000000;fill-opacity:1;fill-rule:nonzero;stroke:none"
         x="0 9.4545898 22.677734 27.400879"
         y="0"
         sodipodi:role="line"
         id="tspan10">JOIN</tspan></text>
    <text
       id="text11"
       xml:space="preserve"
       transform="matrix(0.95813343,0,0,0.95813343,284.00095,183.96162)"
       clip-path="url(#clipPath12)"><tspan
         style="font-variant:normal;font-weight:normal;font-size:17px;font-family:Helvetica;writing-mode:lr-tb;fill:#000000;fill-opacity:1;fill-rule:nonzero;stroke:none"
         x="0 4.7231445 14.177734 23.632324 32.132324"
         y="0"
         sodipodi:role="line"
         id="tspan11">tags </tspan></text>
    <text
       id="text12"
       xml:space="preserve"
       transform="matrix(0.95813343,0,0,0.95813343,319.32791,183.96162)"
       clip-path="url(#clipPath13)"><tspan
         style="font-variant:normal;font-weight:700;font-size:17px;font-family:Helvetica;writing-mode:lr-tb;fill:#000000;fill-opacity:1;fill-rule:nonzero;stroke:none"
         x="0 13.223145"
         y="0"
         sodipodi:role="line"
         id="tspan12">ON</tspan></text>
    <text
       id="text13"
       xml:space="preserve"
       transform="matrix(0.95813343,0,0,0.95813343,348.28571,183.96162)"
       clip-path="url(#clipPath14)"><tspan
         style="font-variant:normal;font-weight:normal;font-size:17px;font-family:Helvetica;writing-mode:lr-tb;fill:#000000;fill-opacity:1;fill-rule:nonzero;stroke:none"
         x="0 4.7231445 14.177734 23.632324 32.132324 36.855469 46.310059 54.810059 64.264648 69.925781 79.380371 83.157227 92.611816 97.334961 107.2627 111.98584 121.44043 129.94043 139.39502 145.05615 153.55615 158.2793 162.05615"
         y="0"
         sodipodi:role="line"
         id="tspan13">tags.user_id = users.id</tspan></text>
    <text
       id="text14"
       xml:space="preserve"
       transform="matrix(0.95813343,0,0,0.95813343,241.44962,204.08242)"
       clip-path="url(#clipPath15)"><tspan
         style="font-variant:normal;font-weight:700;font-size:17px;font-family:Helvetica;writing-mode:lr-tb;fill:#000000;fill-opacity:1;fill-rule:nonzero;stroke:none"
         x="0 13.223145 25.5 38.723145 51 62.040039 66.763184 79.040039"
         y="0"
         sodipodi:role="line"
         id="tspan14">GROUP BY</tspan></text>
    <text
       id="text15"
       xml:space="preserve"
       transform="matrix(0.95813343,0,0,0.95813343,332.58131,204.08242)"
       clip-path="url(#clipPath16)"><tspan
         style="font-variant:normal;font-weight:normal;font-size:17px;font-family:Helvetica;writing-mode:lr-tb;fill:#000000;fill-opacity:1;fill-rule:nonzero;stroke:none"
         x="0 9.4545898 17.95459 27.40918 33.070312 42.524902 51.979492 66.140625"
         y="0"
         sodipodi:role="line"
         id="tspan15">username</tspan></text>
    <text
       id="text16"
       xml:space="preserve"
       transform="matrix(0.95813343,0,0,0.95813343,241.44962,223.24509)"
       clip-path="url(#clipPath17)"><tspan
         style="font-variant:normal;font-weight:700;font-size:17px;font-family:Helvetica;writing-mode:lr-tb;fill:#000000;fill-opacity:1;fill-rule:nonzero;stroke:none"
         x="0 13.223145 25.5 37.776855 49.115723 61.392578 66.115723 78.392578 89.432617 94.155762 106.43262 119.65576 131.93262 144.20947 154.59375 160.25488 166.87061 172.53174 177.25488 189.53174 200.87061 212.20947 224.48633"
         y="0"
         sodipodi:role="line"
         id="tspan16">ORDER BY COUNT(*) DESC;</tspan></text>
    <path
       id="path18"
       d="M 235,1 H 595 V 121 H 235 Z"
       style="fill:#dae8fc;fill-opacity:1;fill-rule:nonzero;stroke:#6c8ebf;stroke-width:1;stroke-linecap:butt;stroke-linejoin:miter;stroke-miterlimit:10;stroke-dasharray:none;stroke-opacity:1"
       transform="matrix(0.9581238,0,0,0.9581238,0.47906191,0.47906191)"
       clip-path="url(#clipPath19)" />
    <text
       id="text19"
       xml:space="preserve"
       transform="matrix(0.95813343,0,0,0.95813343,241.44962,25.869603)"
       clip-path="url(#clipPath20)"><tspan
         style="font-variant:normal;font-weight:700;font-size:17px;font-family:Helvetica;writing-mode:lr-tb;fill:#000000;fill-opacity:1;fill-rule:nonzero;stroke:none"
         x="0 16.04541 20.768555 31.152832"
         y="0"
         sodipodi:role="line"
         id="tspan19">WITH</tspan></text>
    <text
       id="text20"
       xml:space="preserve"
       transform="matrix(0.95813343,0,0,0.95813343,287.59395,25.869603)"
       clip-path="url(#clipPath21)"><tspan
         style="font-variant:normal;font-weight:normal;font-size:17px;font-family:Helvetica;writing-mode:lr-tb;fill:#000000;fill-opacity:1;fill-rule:nonzero;stroke:none"
         x="0 4.7231445 14.177734 23.632324 32.132324"
         y="0"
         sodipodi:role="line"
         id="tspan20">tags </tspan></text>
    <text
       id="text21"
       xml:space="preserve"
       transform="matrix(0.95813343,0,0,0.95813343,322.92091,25.869603)"
       clip-path="url(#clipPath22)"><tspan
         style="font-variant:normal;font-weight:700;font-size:17px;font-family:Helvetica;writing-mode:lr-tb;fill:#000000;fill-opacity:1;fill-rule:nonzero;stroke:none"
         x="0 12.276855"
         y="0"
         sodipodi:role="line"
         id="tspan21">AS</tspan></text>
    <text
       id="text22"
       xml:space="preserve"
       transform="matrix(0.95813343,0,0,0.95813343,350.08221,25.869603)"
       clip-path="url(#clipPath23)"><tspan
         style="font-variant:normal;font-weight:normal;font-size:17px;font-family:Helvetica;writing-mode:lr-tb;fill:#000000;fill-opacity:1;fill-rule:nonzero;stroke:none"
         x="0"
         y="0"
         id="tspan22">(</tspan></text>
    <text
       id="text23"
       xml:space="preserve"
       transform="matrix(0.95813343,0,0,0.95813343,241.44962,45.032271)"
       clip-path="url(#clipPath24)"><tspan
         style="font-variant:normal;font-weight:normal;font-size:17px;font-family:Helvetica;writing-mode:lr-tb;fill:#000000;fill-opacity:1;fill-rule:nonzero;stroke:none"
         x="0 4.7231445 9.4462891 14.169434"
         y="0"
         sodipodi:role="line"
         id="tspan23">    </tspan></text>
    <text
       id="text24"
       xml:space="preserve"
       transform="matrix(0.95813343,0,0,0.95813343,259.56434,45.032271)"
       clip-path="url(#clipPath25)"><tspan
         style="font-variant:normal;font-weight:700;font-size:17px;font-family:Helvetica;writing-mode:lr-tb;fill:#000000;fill-opacity:1;fill-rule:nonzero;stroke:none"
         x="0 11.338867 22.677734 33.062012 44.400879 56.677734"
         y="0"
         sodipodi:role="line"
         id="tspan24">SELECT</tspan></text>
    <text
       id="text25"
       xml:space="preserve"
       transform="matrix(0.95813343,0,0,0.95813343,328.34456,45.032271)"
       clip-path="url(#clipPath26)"><tspan
         style="font-variant:normal;font-weight:normal;font-size:17px;font-family:Helvetica;writing-mode:lr-tb;fill:#000000;fill-opacity:1;fill-rule:nonzero;stroke:none"
         x="0 9.4545898 17.95459 27.40918 33.070312 42.524902 46.301758 55.756348"
         y="0"
         sodipodi:role="line"
         id="tspan25">user_id </tspan></text>
    <text
       id="text26"
       xml:space="preserve"
       transform="matrix(0.95813343,0,0,0.95813343,386.29246,45.032271)"
       clip-path="url(#clipPath27)"><tspan
         style="font-variant:normal;font-weight:700;font-size:17px;font-family:Helvetica;writing-mode:lr-tb;fill:#000000;fill-opacity:1;fill-rule:nonzero;stroke:none"
         x="0 10.384277 22.661133 35.884277"
         y="0"
         sodipodi:role="line"
         id="tspan26">FROM</tspan></text>
    <text
       id="text27"
       xml:space="preserve"
       transform="matrix(0.95813343,0,0,0.95813343,438.76944,45.032271)"
       clip-path="url(#clipPath28)"><tspan
         style="font-variant:normal;font-weight:normal;font-size:17px;font-family:Helvetica;writing-mode:lr-tb;fill:#000000;fill-opacity:1;fill-rule:nonzero;stroke:none"
         x="0 9.4545898 18.90918 28.36377 33.086914 42.541504 51.996094 56.719238 66.173828 75.628418"
         y="0"
         sodipodi:role="line"
         id="tspan27">photo_tags</tspan></text>
    <text
       id="text28"
       xml:space="preserve"
       transform="matrix(0.95813343,0,0,0.95813343,241.44962,64.19494)"
       clip-path="url(#clipPath29)"><tspan
         style="font-variant:normal;font-weight:normal;font-size:17px;font-family:Helvetica;writing-mode:lr-tb;fill:#000000;fill-opacity:1;fill-rule:nonzero;stroke:none"
         x="0 4.7231445 9.4462891 14.169434"
         y="0"
         sodipodi:role="line"
         id="tspan28">    </tspan></text>
    <text
       id="text29"
       xml:space="preserve"
       transform="matrix(0.95813343,0,0,0.95813343,259.56434,64.19494)"
       clip-path="url(#clipPath30)"><tspan
         style="font-variant:normal;font-weight:700;font-size:17px;font-family:Helvetica;writing-mode:lr-tb;fill:#000000;fill-opacity:1;fill-rule:nonzero;stroke:none"
         x="0 12.276855 24.553711 29.276855 42.5 54.776855 58.877441 71.154297 81.538574"
         y="0"
         sodipodi:role="line"
         id="tspan29">UNION ALL</tspan></text>
    <text
       id="text30"
       xml:space="preserve"
       transform="matrix(0.95813343,0,0,0.95813343,241.44962,84.315742)"
       clip-path="url(#clipPath31)"><tspan
         style="font-variant:normal;font-weight:normal;font-size:17px;font-family:Helvetica;writing-mode:lr-tb;fill:#000000;fill-opacity:1;fill-rule:nonzero;stroke:none"
         x="0 4.7231445 9.4462891 14.169434"
         y="0"
         sodipodi:role="line"
         id="tspan30">    </tspan></text>
    <text
       id="text31"
       xml:space="preserve"
       transform="matrix(0.95813343,0,0,0.95813343,259.56434,84.315742)"
       clip-path="url(#clipPath32)"><tspan
         style="font-variant:normal;font-weight:700;font-size:17px;font-family:Helvetica;writing-mode:lr-tb;fill:#000000;fill-opacity:1;fill-rule:nonzero;stroke:none"
         x="0 11.338867 22.677734 33.062012 44.400879 56.677734"
         y="0"
         sodipodi:role="line"
         id="tspan31">SELECT</tspan></text>
    <text
       id="text32"
       xml:space="preserve"
       transform="matrix(0.95813343,0,0,0.95813343,328.34456,84.315742)"
       clip-path="url(#clipPath33)"><tspan
         style="font-variant:normal;font-weight:normal;font-size:17px;font-family:Helvetica;writing-mode:lr-tb;fill:#000000;fill-opacity:1;fill-rule:nonzero;stroke:none"
         x="0 9.4545898 17.95459 27.40918 33.070312 42.524902 46.301758 55.756348"
         y="0"
         sodipodi:role="line"
         id="tspan32">user_id </tspan></text>
    <text
       id="text33"
       xml:space="preserve"
       transform="matrix(0.95813343,0,0,0.95813343,386.29246,84.315742)"
       clip-path="url(#clipPath34)"><tspan
         style="font-variant:normal;font-weight:700;font-size:17px;font-family:Helvetica;writing-mode:lr-tb;fill:#000000;fill-opacity:1;fill-rule:nonzero;stroke:none"
         x="0 10.384277 22.661133 35.884277"
         y="0"
         sodipodi:role="line"
         id="tspan33">FROM</tspan></text>
    <text
       id="text34"
       xml:space="preserve"
       transform="matrix(0.95813343,0,0,0.95813343,438.76944,84.315742)"
       clip-path="url(#clipPath35)"><tspan
         style="font-variant:normal;font-weight:normal;font-size:17px;font-family:Helvetica;writing-mode:lr-tb;fill:#000000;fill-opacity:1;fill-rule:nonzero;stroke:none"
         x="0 8.5 17.95459 27.40918 32.132324 35.90918 45.36377 54.818359 64.272949 68.996094 78.450684 87.905273"
         y="0"
         sodipodi:role="line"
         id="tspan34">caption_tags</tspan></text>
    <text
       id="text35"
       xml:space="preserve"
       transform="matrix(0.95813343,0,0,0.95813343,241.44962,103.47841)"
       clip-path="url(#clipPath36)"><tspan
         style="font-variant:normal;font-weight:normal;font-size:17px;font-family:Helvetica;writing-mode:lr-tb;fill:#000000;fill-opacity:1;fill-rule:nonzero;stroke:none"
         x="0"
         y="0"
         id="tspan35">)</tspan></text>
    <text
       id="text36"
       xml:space="preserve"
       transform="matrix(0.95813343,0,0,0.95813343,18.65366,180.12909)"
       clip-path="url(#clipPath37)"><tspan
         style="font-style:oblique;font-variant:normal;font-weight:700;font-size:21px;font-family:Helvetica;writing-mode:lr-tb;fill:#000000;fill-opacity:1;fill-rule:nonzero;stroke:none"
         x="0 15.165527 27.993164 42 46.993652 58.672852 64.507324 76.186523 87.865723 100.69336 106.52783 119.35547"
         y="0"
         sodipodi:role="line"
         id="tspan36">CTE's can be</tspan></text>
    <text
       id="text37"
       xml:space="preserve"
       transform="matrix(0.95813343,0,0,0.95813343,7.6351258,204.08242)"
       clip-path="url(#clipPath38)"><tspan
         style="font-style:oblique;font-variant:normal;font-weight:700;font-size:21px;font-family:Helvetica;writing-mode:lr-tb;fill:#000000;fill-opacity:1;fill-rule:nonzero;stroke:none"
         x="0 8.1723633 19.851562 26.844727 38.523926 46.696289 54.868652 66.547852 79.375488 85.209961 92.203125 105.03076 110.86523 123.69287 136.52051 142.35498"
         y="0"
         sodipodi:role="line"
         id="tspan37">referred to only</tspan></text>
    <text
       id="text38"
       xml:space="preserve"
       transform="matrix(0.95813343,0,0,0.95813343,24.417432,228.03576)"
       clip-path="url(#clipPath39)"><tspan
         style="font-style:oblique;font-variant:normal;font-weight:700;font-size:21px;font-family:Helvetica;writing-mode:lr-tb;fill:#000000;fill-opacity:1;fill-rule:nonzero;stroke:none"
         x="0 5.8344727 18.662109 24.496582 31.489746 44.317383 55.996582 61.831055 74.658691 87.486328 99.165527 107.33789"
         y="0"
         sodipodi:role="line"
         id="tspan38">in the query</tspan></text>
    <text
       id="text39"
       xml:space="preserve"
       transform="matrix(0.95813343,0,0,0.95813343,42.846529,251.98909)"
       clip-path="url(#clipPath40)"><tspan
         style="font-style:oblique;font-variant:normal;font-weight:700;font-size:21px;font-family:Helvetica;writing-mode:lr-tb;fill:#000000;fill-opacity:1;fill-rule:nonzero;stroke:none"
         x="0 6.9931641 19.820801 31.5 43.179199 49.013672 60.692871 68.865234"
         y="0"
         sodipodi:role="line"
         id="tspan39">they are</tspan></text>
    <text
       id="text40"
       xml:space="preserve"
       transform="matrix(0.95813343,0,0,0.95813343,27.770899,275.94243)"
       clip-path="url(#clipPath41)"><tspan
         style="font-style:oblique;font-variant:normal;font-weight:700;font-size:21px;font-family:Helvetica;writing-mode:lr-tb;fill:#000000;fill-opacity:1;fill-rule:nonzero;stroke:none"
         x="0 11.679199 18.672363 25.665527 37.344727 49.023926 61.851562 73.530762 86.358398 92.192871 99.186035"
         y="0"
         sodipodi:role="line"
         id="tspan40">attached to</tspan></text>
    <text
       id="text41"
       xml:space="preserve"
       transform="matrix(0.95813343,0,0,0.95813343,151.47491,59.404273)"
       clip-path="url(#clipPath42)"><tspan
         style="font-style:oblique;font-variant:normal;font-weight:normal;font-size:16px;font-family:Helvetica;writing-mode:lr-tb;fill:#000000;fill-opacity:1;fill-rule:nonzero;stroke:none"
         x="0 11.554688 20.453125 33.78125 47.109375 56.007812"
         y="0"
         sodipodi:role="line"
         id="tspan41">Common</tspan></text>
    <text
       id="text42"
       xml:space="preserve"
       transform="matrix(0.95813343,0,0,0.95813343,177.01515,77.608808)"
       clip-path="url(#clipPath43)"><tspan
         style="font-style:oblique;font-variant:normal;font-weight:normal;font-size:16px;font-family:Helvetica;writing-mode:lr-tb;fill:#000000;fill-opacity:1;fill-rule:nonzero;stroke:none"
         x="0 8 16.898438 25.796875 29.351562"
         y="0"
         sodipodi:role="line"
         id="tspan42">Table</tspan></text>
    <text
       id="text43"
       xml:space="preserve"
       transform="matrix(0.95813343,0,0,0.95813343,137.82151,95.813343)"
       clip-path="url(#clipPath44)"><tspan
         style="font-style:oblique;font-variant:normal;font-weight:normal;font-size:16px;font-family:Helvetica;writing-mode:lr-tb;fill:#000000;fill-opacity:1;fill-rule:nonzero;stroke:none"
         x="0 10.671875 18.671875 27.570312 32.898438 41.796875 49.796875 57.796875 61.351562 70.25"
         y="0"
         sodipodi:role="line"
         id="tspan43">Expression</tspan></text>
  </g>
</svg>
