<?xml version="1.0" encoding="UTF-8" standalone="no"?>
<!-- Created with Inkscape (http://www.inkscape.org/) -->

<svg
   version="1.1"
   id="svg1"
   width="570.56"
   height="357.44"
   viewBox="0 0 570.56 357.44"
   sodipodi:docname="sql-16.pdf"
   xmlns:inkscape="http://www.inkscape.org/namespaces/inkscape"
   xmlns:sodipodi="http://sodipodi.sourceforge.net/DTD/sodipodi-0.dtd"
   xmlns="http://www.w3.org/2000/svg"
   xmlns:svg="http://www.w3.org/2000/svg">
  <defs
     id="defs1">
    <clipPath
       clipPathUnits="userSpaceOnUse"
       id="clipPath2">
      <path
         d="M 0,0 H 1783.3333 V 1114.958 H 0 Z"
         transform="scale(0.33364487)"
         clip-rule="evenodd"
         id="path2" />
    </clipPath>
    <clipPath
       clipPathUnits="userSpaceOnUse"
       id="clipPath4">
      <path
         d="M 0,0 H 1783.3333 V 1111.9608 H 0 Z"
         transform="matrix(0.33364487,0,0,0.33364487,-0.5,-0.5)"
         clip-rule="evenodd"
         id="path4" />
    </clipPath>
    <clipPath
       clipPathUnits="userSpaceOnUse"
       id="clipPath5">
      <path
         d="M 0,0 H 1783.3333 V 1111.9608 H 0 Z"
         transform="matrix(0.33364152,0,0,0.33364152,-80,-38)"
         clip-rule="evenodd"
         id="path5" />
    </clipPath>
    <clipPath
       clipPathUnits="userSpaceOnUse"
       id="clipPath6">
      <path
         d="M 0,0 H 1783.3333 V 1111.9608 H 0 Z"
         transform="matrix(0.33364152,0,0,0.33364152,-201.53565,-38)"
         clip-rule="evenodd"
         id="path6" />
    </clipPath>
    <clipPath
       clipPathUnits="userSpaceOnUse"
       id="clipPath7">
      <path
         d="M 0,0 H 1783.3333 V 1111.9608 H 0 Z"
         transform="matrix(0.33364152,0,0,0.33364152,-303.59375,-38)"
         clip-rule="evenodd"
         id="path7" />
    </clipPath>
    <clipPath
       clipPathUnits="userSpaceOnUse"
       id="clipPath8">
      <path
         d="M 0,0 H 1783.3333 V 1111.9608 H 0 Z"
         transform="matrix(0.33364152,0,0,0.33364152,-331.9419,-38)"
         clip-rule="evenodd"
         id="path8" />
    </clipPath>
    <clipPath
       clipPathUnits="userSpaceOnUse"
       id="clipPath9">
      <path
         d="M 0,0 H 1783.3333 V 1111.9608 H 0 Z"
         transform="matrix(0.33364152,0,0,0.33364152,-80,-59)"
         clip-rule="evenodd"
         id="path9" />
    </clipPath>
    <clipPath
       clipPathUnits="userSpaceOnUse"
       id="clipPath10">
      <path
         d="M 0,0 H 1783.3333 V 1111.9608 H 0 Z"
         transform="matrix(0.33364152,0,0,0.33364152,-98.90625,-59)"
         clip-rule="evenodd"
         id="path10" />
    </clipPath>
    <clipPath
       clipPathUnits="userSpaceOnUse"
       id="clipPath11">
      <path
         d="M 0,0 H 1783.3333 V 1111.9608 H 0 Z"
         transform="matrix(0.33364152,0,0,0.33364152,-170.70313,-59)"
         clip-rule="evenodd"
         id="path11" />
    </clipPath>
    <clipPath
       clipPathUnits="userSpaceOnUse"
       id="clipPath12">
      <path
         d="M 0,0 H 1783.3333 V 1111.9608 H 0 Z"
         transform="matrix(0.33364152,0,0,0.33364152,-80,-78.999999)"
         clip-rule="evenodd"
         id="path12" />
    </clipPath>
    <clipPath
       clipPathUnits="userSpaceOnUse"
       id="clipPath13">
      <path
         d="M 0,0 H 1783.3333 V 1111.9608 H 0 Z"
         transform="matrix(0.33364152,0,0,0.33364152,-153.67188,-78.999999)"
         clip-rule="evenodd"
         id="path13" />
    </clipPath>
    <clipPath
       clipPathUnits="userSpaceOnUse"
       id="clipPath14">
      <path
         d="M 0,0 H 1783.3333 V 1111.9608 H 0 Z"
         transform="matrix(0.33364152,0,0,0.33364152,-80,-100)"
         clip-rule="evenodd"
         id="path14" />
    </clipPath>
    <clipPath
       clipPathUnits="userSpaceOnUse"
       id="clipPath15">
      <path
         d="M 0,0 H 1783.3333 V 1111.9608 H 0 Z"
         transform="matrix(0.33364152,0,0,0.33364152,-193.34815,-100)"
         clip-rule="evenodd"
         id="path15" />
    </clipPath>
    <clipPath
       clipPathUnits="userSpaceOnUse"
       id="clipPath16">
      <path
         d="M 0,0 H 1783.3333 V 1111.9608 H 0 Z"
         transform="matrix(0.33364152,0,0,0.33364152,-278.41065,-100)"
         clip-rule="evenodd"
         id="path16" />
    </clipPath>
    <clipPath
       clipPathUnits="userSpaceOnUse"
       id="clipPath17">
      <path
         d="M 0,0 H 1783.3333 V 1111.9608 H 0 Z"
         transform="matrix(0.33364152,0,0,0.33364152,-80,-119.99999)"
         clip-rule="evenodd"
         id="path17" />
    </clipPath>
    <clipPath
       clipPathUnits="userSpaceOnUse"
       id="clipPath18">
      <path
         d="M 0,0 H 1783.3333 V 1111.9608 H 0 Z"
         transform="matrix(0.33364152,0,0,0.33364152,-147.99999,-119.99999)"
         clip-rule="evenodd"
         id="path18" />
    </clipPath>
    <clipPath
       clipPathUnits="userSpaceOnUse"
       id="clipPath19">
      <path
         d="M 0,0 H 1783.3333 V 1111.9608 H 0 Z"
         transform="matrix(0.33364152,0,0,0.33364152,-80,-140)"
         clip-rule="evenodd"
         id="path19" />
    </clipPath>
    <clipPath
       clipPathUnits="userSpaceOnUse"
       id="clipPath21">
      <path
         d="M 0,0 H 1783.3333 V 1111.9608 H 0 Z"
         transform="matrix(0.33364487,0,0,0.33364487,-0.5,-0.5)"
         clip-rule="evenodd"
         id="path21" />
    </clipPath>
    <clipPath
       clipPathUnits="userSpaceOnUse"
       id="clipPath22">
      <path
         d="M 0,0 H 1783.3333 V 1111.9608 H 0 Z"
         transform="matrix(0.33364152,0,0,0.33364152,-80,-319)"
         clip-rule="evenodd"
         id="path22" />
    </clipPath>
    <clipPath
       clipPathUnits="userSpaceOnUse"
       id="clipPath23">
      <path
         d="M 0,0 H 1783.3333 V 1111.9608 H 0 Z"
         transform="matrix(0.33364152,0,0,0.33364152,-151.79688,-319)"
         clip-rule="evenodd"
         id="path23" />
    </clipPath>
    <clipPath
       clipPathUnits="userSpaceOnUse"
       id="clipPath24">
      <path
         d="M 0,0 H 1783.3333 V 1111.9608 H 0 Z"
         transform="matrix(0.33364152,0,0,0.33364152,-163.14502,-319)"
         clip-rule="evenodd"
         id="path24" />
    </clipPath>
    <clipPath
       clipPathUnits="userSpaceOnUse"
       id="clipPath25">
      <path
         d="M 0,0 H 1783.3333 V 1111.9608 H 0 Z"
         transform="matrix(0.33364152,0,0,0.33364152,-217.92188,-319)"
         clip-rule="evenodd"
         id="path25" />
    </clipPath>
    <clipPath
       clipPathUnits="userSpaceOnUse"
       id="clipPath27">
      <path
         d="M 0,0 H 1783.3333 V 1111.9608 H 0 Z"
         transform="matrix(0.33364487,0,0,0.33364487,-0.5,-0.5)"
         clip-rule="evenodd"
         id="path27" />
    </clipPath>
    <clipPath
       clipPathUnits="userSpaceOnUse"
       id="clipPath29">
      <path
         d="M 0,0 H 1783.3333 V 1111.9608 H 0 Z"
         transform="matrix(0.33364487,0,0,0.33364487,-0.5,-0.5)"
         clip-rule="evenodd"
         id="path29" />
    </clipPath>
    <clipPath
       clipPathUnits="userSpaceOnUse"
       id="clipPath30">
      <path
         d="M 0,0 H 1783.3333 V 1111.9608 H 0 Z"
         transform="matrix(0.33364152,0,0,0.33364152,0.15625,-25)"
         clip-rule="evenodd"
         id="path30" />
    </clipPath>
    <clipPath
       clipPathUnits="userSpaceOnUse"
       id="clipPath32">
      <path
         d="M 0,0 H 1783.3333 V 1111.9608 H 0 Z"
         transform="matrix(0.33364487,0,0,0.33364487,-0.5,-0.5)"
         clip-rule="evenodd"
         id="path32" />
    </clipPath>
    <clipPath
       clipPathUnits="userSpaceOnUse"
       id="clipPath33">
      <path
         d="M 0,0 H 1783.3333 V 1111.9608 H 0 Z"
         transform="matrix(0.33364152,0,0,0.33364152,-415,-154)"
         clip-rule="evenodd"
         id="path33" />
    </clipPath>
    <clipPath
       clipPathUnits="userSpaceOnUse"
       id="clipPath34">
      <path
         d="M 0,0 H 1783.3333 V 1111.9608 H 0 Z"
         transform="matrix(0.33364152,0,0,0.33364152,-415,-175)"
         clip-rule="evenodd"
         id="path34" />
    </clipPath>
    <clipPath
       clipPathUnits="userSpaceOnUse"
       id="clipPath35">
      <path
         d="M 0,0 H 1783.3333 V 1111.9608 H 0 Z"
         transform="matrix(0.33364152,0,0,0.33364152,-415,-324)"
         clip-rule="evenodd"
         id="path35" />
    </clipPath>
    <clipPath
       clipPathUnits="userSpaceOnUse"
       id="clipPath36">
      <path
         d="M 0,0 H 1783.3333 V 1111.9608 H 0 Z"
         transform="matrix(0.33364152,0,0,0.33364152,-415,-344)"
         clip-rule="evenodd"
         id="path36" />
    </clipPath>
    <clipPath
       clipPathUnits="userSpaceOnUse"
       id="clipPath37">
      <path
         d="M 0,0 H 1783.3333 V 1111.9608 H 0 Z"
         transform="matrix(0.33364152,0,0,0.33364152,-415,-365)"
         clip-rule="evenodd"
         id="path37" />
    </clipPath>
    <clipPath
       clipPathUnits="userSpaceOnUse"
       id="clipPath39">
      <path
         d="M 0,0 H 1783.3333 V 1111.9608 H 0 Z"
         transform="matrix(0.33364487,0,0,0.33364487,-0.5,-0.5)"
         clip-rule="evenodd"
         id="path39" />
    </clipPath>
    <clipPath
       clipPathUnits="userSpaceOnUse"
       id="clipPath40">
      <path
         d="M 0,0 H 1783.3333 V 1111.9608 H 0 Z"
         transform="matrix(0.33364152,0,0,0.33364152,-424.4375,-42)"
         clip-rule="evenodd"
         id="path40" />
    </clipPath>
    <clipPath
       clipPathUnits="userSpaceOnUse"
       id="clipPath41">
      <path
         d="M 0,0 H 1783.3333 V 1111.9608 H 0 Z"
         transform="matrix(0.33364152,0,0,0.33364152,-455.01563,-72)"
         clip-rule="evenodd"
         id="path41" />
    </clipPath>
  </defs>
  <sodipodi:namedview
     id="namedview1"
     pagecolor="#ffffff"
     bordercolor="#000000"
     borderopacity="0.25"
     inkscape:showpageshadow="2"
     inkscape:pageopacity="0.0"
     inkscape:pagecheckerboard="0"
     inkscape:deskcolor="#d1d1d1">
    <inkscape:page
       x="0"
       y="0"
       inkscape:label="1"
       id="page1"
       width="570.56"
       height="357.44"
       margin="0"
       bleed="0" />
  </sodipodi:namedview>
  <g
     id="g1"
     inkscape:groupmode="layer"
     inkscape:label="1">
    <path
       id="path1"
       d="M 0,0 H 595 V 372 H 0 Z"
       style="fill:#ffffff;fill-opacity:1;fill-rule:nonzero;stroke:none"
       transform="scale(0.95910358)"
       clip-path="url(#clipPath2)" />
    <path
       id="path3"
       d="M 63,8 H 353 V 158 H 63 Z"
       style="fill:#dae8fc;fill-opacity:1;fill-rule:nonzero;stroke:#6c8ebf;stroke-width:1;stroke-linecap:butt;stroke-linejoin:miter;stroke-miterlimit:10;stroke-dasharray:none;stroke-opacity:1"
       transform="matrix(0.95910358,0,0,0.95910358,0.47955179,0.47955179)"
       clip-path="url(#clipPath4)" />
    <text
       id="text4"
       xml:space="preserve"
       transform="matrix(0.95911321,0,0,0.95911321,76.729057,36.446302)"
       clip-path="url(#clipPath5)"><tspan
         style="font-variant:normal;font-weight:700;font-size:17px;font-family:Helvetica;writing-mode:lr-tb;fill:#000000;fill-opacity:1;fill-rule:nonzero;stroke:none"
         x="0 12.276855 24.553711 35.892578 46.916016 57.300293 68.63916 73.362305 84.701172 89.424316 100.76318"
         y="0"
         sodipodi:role="line"
         id="tspan4">CREATE VIEW</tspan></text>
    <text
       id="text5"
       xml:space="preserve"
       transform="matrix(0.95911321,0,0,0.95911321,193.2955,36.446302)"
       clip-path="url(#clipPath6)"><tspan
         style="font-variant:normal;font-weight:normal;font-size:17px;font-family:Helvetica;writing-mode:lr-tb;fill:#000000;fill-opacity:1;fill-rule:nonzero;stroke:none"
         x="0 5.6611328 15.115723 23.615723 33.070312 42.524902 47.248047 56.702637 66.157227 75.611816 84.111816 88.834961 97.334961"
         y="0"
         sodipodi:role="line"
         id="tspan5">recent_posts </tspan></text>
    <text
       id="text6"
       xml:space="preserve"
       transform="matrix(0.95911321,0,0,0.95911321,291.18078,36.446302)"
       clip-path="url(#clipPath7)"><tspan
         style="font-variant:normal;font-weight:700;font-size:17px;font-family:Helvetica;writing-mode:lr-tb;fill:#000000;fill-opacity:1;fill-rule:nonzero;stroke:none"
         x="0 12.276855"
         y="0"
         sodipodi:role="line"
         id="tspan6">AS</tspan></text>
    <text
       id="text7"
       xml:space="preserve"
       transform="matrix(0.95911321,0,0,0.95911321,318.36986,36.446302)"
       clip-path="url(#clipPath8)"><tspan
         style="font-variant:normal;font-weight:normal;font-size:17px;font-family:Helvetica;writing-mode:lr-tb;fill:#000000;fill-opacity:1;fill-rule:nonzero;stroke:none"
         x="0"
         y="0"
         id="tspan7">(</tspan></text>
    <text
       id="text8"
       xml:space="preserve"
       transform="matrix(0.95911321,0,0,0.95911321,76.729057,56.587679)"
       clip-path="url(#clipPath9)"><tspan
         style="font-variant:normal;font-weight:normal;font-size:17px;font-family:Helvetica;writing-mode:lr-tb;fill:#000000;fill-opacity:1;fill-rule:nonzero;stroke:none"
         x="0 4.7231445 9.4462891 14.169434"
         y="0"
         sodipodi:role="line"
         id="tspan8">    </tspan></text>
    <text
       id="text9"
       xml:space="preserve"
       transform="matrix(0.95911321,0,0,0.95911321,94.862291,56.587679)"
       clip-path="url(#clipPath10)"><tspan
         style="font-variant:normal;font-weight:700;font-size:17px;font-family:Helvetica;writing-mode:lr-tb;fill:#000000;fill-opacity:1;fill-rule:nonzero;stroke:none"
         x="0 11.338867 22.677734 33.062012 44.400879 56.677734 67.062012"
         y="0"
         sodipodi:role="line"
         id="tspan9">SELECT </tspan></text>
    <text
       id="text10"
       xml:space="preserve"
       transform="matrix(0.95911321,0,0,0.95911321,163.72363,56.587679)"
       clip-path="url(#clipPath11)"><tspan
         style="font-variant:normal;font-weight:normal;font-size:17px;font-family:Helvetica;writing-mode:lr-tb;fill:#000000;fill-opacity:1;fill-rule:nonzero;stroke:none"
         x="0"
         y="0"
         id="tspan10">*</tspan></text>
    <text
       id="text11"
       xml:space="preserve"
       transform="matrix(0.95911321,0,0,0.95911321,76.729057,75.769943)"
       clip-path="url(#clipPath12)"><tspan
         style="font-variant:normal;font-weight:700;font-size:17px;font-family:Helvetica;writing-mode:lr-tb;fill:#000000;fill-opacity:1;fill-rule:nonzero;stroke:none"
         x="0 4.7231445 9.4462891 14.169434 18.892578 29.276855 41.553711 54.776855 68.937988"
         y="0"
         sodipodi:role="line"
         id="tspan11">    FROM </tspan></text>
    <text
       id="text12"
       xml:space="preserve"
       transform="matrix(0.95911321,0,0,0.95911321,147.38873,75.769943)"
       clip-path="url(#clipPath13)"><tspan
         style="font-variant:normal;font-weight:normal;font-size:17px;font-family:Helvetica;writing-mode:lr-tb;fill:#000000;fill-opacity:1;fill-rule:nonzero;stroke:none"
         x="0 9.4545898 18.90918 27.40918 32.132324"
         y="0"
         sodipodi:role="line"
         id="tspan12">posts</tspan></text>
    <text
       id="text13"
       xml:space="preserve"
       transform="matrix(0.95911321,0,0,0.95911321,76.729057,95.911321)"
       clip-path="url(#clipPath14)"><tspan
         style="font-variant:normal;font-weight:700;font-size:17px;font-family:Helvetica;writing-mode:lr-tb;fill:#000000;fill-opacity:1;fill-rule:nonzero;stroke:none"
         x="0 4.7231445 9.4462891 14.169434 18.892578 32.115723 44.392578 56.669434 68.008301 80.285156 85.008301 97.285156"
         y="0"
         sodipodi:role="line"
         id="tspan13">    ORDER BY</tspan></text>
    <text
       id="text14"
       xml:space="preserve"
       transform="matrix(0.95911321,0,0,0.95911321,185.44276,95.911321)"
       clip-path="url(#clipPath15)"><tspan
         style="font-variant:normal;font-weight:normal;font-size:17px;font-family:Helvetica;writing-mode:lr-tb;fill:#000000;fill-opacity:1;fill-rule:nonzero;stroke:none"
         x="0 8.5 14.161133 23.615723 33.070312 37.793457 47.248047 56.702637 66.157227 75.611816"
         y="0"
         sodipodi:role="line"
         id="tspan14">created_at</tspan></text>
    <text
       id="text15"
       xml:space="preserve"
       transform="matrix(0.95911321,0,0,0.95911321,267.02733,95.911321)"
       clip-path="url(#clipPath16)"><tspan
         style="font-variant:normal;font-weight:700;font-size:17px;font-family:Helvetica;writing-mode:lr-tb;fill:#000000;fill-opacity:1;fill-rule:nonzero;stroke:none"
         x="0 12.276855 23.615723 34.95459"
         y="0"
         sodipodi:role="line"
         id="tspan15">DESC</tspan></text>
    <text
       id="text16"
       xml:space="preserve"
       transform="matrix(0.95911321,0,0,0.95911321,76.729057,115.09358)"
       clip-path="url(#clipPath17)"><tspan
         style="font-variant:normal;font-weight:700;font-size:17px;font-family:Helvetica;writing-mode:lr-tb;fill:#000000;fill-opacity:1;fill-rule:nonzero;stroke:none"
         x="0 4.7231445 9.4462891 14.169434 18.892578 29.276855 34 48.161133 52.884277 63.268555"
         y="0"
         sodipodi:role="line"
         id="tspan16">    LIMIT </tspan></text>
    <text
       id="text17"
       xml:space="preserve"
       transform="matrix(0.95911321,0,0,0.95911321,141.94875,115.09358)"
       clip-path="url(#clipPath18)"><tspan
         style="font-variant:normal;font-weight:normal;font-size:17px;font-family:Helvetica;writing-mode:lr-tb;fill:#000000;fill-opacity:1;fill-rule:nonzero;stroke:none"
         x="0 9.4545898"
         y="0"
         sodipodi:role="line"
         id="tspan17">15</tspan></text>
    <text
       id="text18"
       xml:space="preserve"
       transform="matrix(0.95911321,0,0,0.95911321,76.729057,134.27585)"
       clip-path="url(#clipPath19)"><tspan
         style="font-variant:normal;font-weight:normal;font-size:17px;font-family:Helvetica;writing-mode:lr-tb;fill:#000000;fill-opacity:1;fill-rule:nonzero;stroke:none"
         x="0 5.6611328"
         y="0"
         sodipodi:role="line"
         id="tspan18">);</tspan></text>
    <path
       id="path20"
       d="m 63,288 h 290 v 50 H 63 Z"
       style="fill:#dae8fc;fill-opacity:1;fill-rule:nonzero;stroke:#6c8ebf;stroke-width:1;stroke-linecap:butt;stroke-linejoin:miter;stroke-miterlimit:10;stroke-dasharray:none;stroke-opacity:1"
       transform="matrix(0.95910358,0,0,0.95910358,0.47955179,0.47955179)"
       clip-path="url(#clipPath21)" />
    <text
       id="text21"
       xml:space="preserve"
       transform="matrix(0.95911321,0,0,0.95911321,76.729057,305.95711)"
       clip-path="url(#clipPath22)"><tspan
         style="font-variant:normal;font-weight:700;font-size:17px;font-family:Helvetica;writing-mode:lr-tb;fill:#000000;fill-opacity:1;fill-rule:nonzero;stroke:none"
         x="0 11.338867 22.677734 33.062012 44.400879 56.677734 67.062012"
         y="0"
         sodipodi:role="line"
         id="tspan21">SELECT </tspan></text>
    <text
       id="text22"
       xml:space="preserve"
       transform="matrix(0.95911321,0,0,0.95911321,145.59039,305.95711)"
       clip-path="url(#clipPath23)"><tspan
         style="font-variant:normal;font-weight:normal;font-size:17px;font-family:Helvetica;writing-mode:lr-tb;fill:#000000;fill-opacity:1;fill-rule:nonzero;stroke:none"
         x="0"
         y="0"
         id="tspan22">*</tspan></text>
    <text
       id="text23"
       xml:space="preserve"
       transform="matrix(0.95911321,0,0,0.95911321,156.47454,305.95711)"
       clip-path="url(#clipPath24)"><tspan
         style="font-variant:normal;font-weight:700;font-size:17px;font-family:Helvetica;writing-mode:lr-tb;fill:#000000;fill-opacity:1;fill-rule:nonzero;stroke:none"
         x="0 10.384277 22.661133 35.884277 50.04541"
         y="0"
         sodipodi:role="line"
         id="tspan23">FROM </tspan></text>
    <text
       id="text24"
       xml:space="preserve"
       transform="matrix(0.95911321,0,0,0.95911321,209.01175,305.95711)"
       clip-path="url(#clipPath25)"><tspan
         style="font-variant:normal;font-weight:normal;font-size:17px;font-family:Helvetica;writing-mode:lr-tb;fill:#000000;fill-opacity:1;fill-rule:nonzero;stroke:none"
         x="0 5.6611328 15.115723 23.615723 33.070312 42.524902 47.248047 56.702637 66.157227 75.611816 84.111816 88.834961"
         y="0"
         sodipodi:role="line"
         id="tspan24">recent_posts</tspan></text>
    <path
       id="path26"
       d="M 53,8 V 331.64001"
       style="fill:none;stroke:#000000;stroke-width:1;stroke-linecap:butt;stroke-linejoin:miter;stroke-miterlimit:10;stroke-dasharray:none;stroke-opacity:1"
       transform="matrix(0.95910358,0,0,0.95910358,0.47955179,0.47955179)"
       clip-path="url(#clipPath27)" />
    <path
       id="path28"
       d="m 53,336.89001 -3.5,-7 3.5,1.75 3.5,-1.75 z"
       style="fill:#000000;fill-opacity:1;fill-rule:nonzero;stroke:#000000;stroke-width:1;stroke-linecap:butt;stroke-linejoin:miter;stroke-miterlimit:10;stroke-dasharray:none;stroke-opacity:1"
       transform="matrix(0.95910358,0,0,0.95910358,0.47955179,0.47955179)"
       clip-path="url(#clipPath29)" />
    <text
       id="text29"
       xml:space="preserve"
       transform="matrix(0.95911321,0,0,0.95911321,-0.14986144,23.97783)"
       clip-path="url(#clipPath30)"><tspan
         style="font-variant:normal;font-weight:700;font-size:20px;font-family:Helvetica;writing-mode:lr-tb;fill:#000000;fill-opacity:1;fill-rule:nonzero;stroke:none"
         x="0 11.865234 17.421875 35.205078"
         y="0"
         sodipodi:role="line"
         id="tspan29">Time</tspan></text>
    <path
       id="path31"
       d="m 63,337.5 h 3.000031 v 1 H 63 m 6.000061,-1 h 3.000031 v 1 h -3.000031 m 6.000061,-1 h 3.000031 v 1 h -3.000031 m 6.000061,-1 h 3.000031 v 1 h -3.000031 m 6.000061,-1 h 3.000031 v 1 h -3.000031 m 6.000061,-1 h 3.000031 v 1 h -3.000031 m 6.000054,-1 h 3.000031 v 1 h -3.000031 m 6.000061,-1 h 3.00003 v 1 h -3.00003 m 6.00006,-1 h 3.00003 v 1 h -3.00003 m 6.00006,-1 h 3.00003 v 1 h -3.00003 m 6.00006,-1 h 3.00003 v 1 h -3.00003 m 6.00007,-1 h 3.00003 v 1 h -3.00003 m 6.00005,-1 h 3.00003 v 1 h -3.00003 m 6.00006,-1 h 3.00003 v 1 h -3.00003 m 6.00006,-1 h 3.00003 v 1 h -3.00003 m 6.00006,-1 h 3.00003 v 1 h -3.00003 m 6.00006,-1 h 3.00003 v 1 h -3.00003 m 6.00006,-1 h 3.00003 v 1 h -3.00003 m 6.00006,-1 h 3.00003 v 1 h -3.00003 m 6.00006,-1 h 3.00003 v 1 h -3.00003 m 6.00007,-1 h 3.00001 v 1 h -3.00001 m 6.00004,-1 h 3.00005 v 1 h -3.00005 m 6.00008,-1 h 3.00003 v 1 h -3.00003 m 6.00006,-1 h 3.00003 v 1 h -3.00003 m 6.00004,-1 h 3.00003 v 1 h -3.00003 m 6.00007,-1 h 3.00003 v 1 h -3.00003 m 6.00006,-1 h 3.00003 v 1 h -3.00003 m 6.00006,-1 h 3.00003 v 1 h -3.00003 m 6.00006,-1 h 3.00003 v 1 h -3.00003 m 6.00006,-1 h 3.00003 v 1 h -3.00003 m 6.00006,-1 h 3.00003 v 1 h -3.00003 m 6.00006,-1 h 3.00003 v 1 h -3.00003 m 6.00006,-1 h 3.00003 v 1 h -3.00003 m 6.00006,-1 h 3.00003 v 1 h -3.00003 m 6.00006,-1 h 3.00004 v 1 h -3.00004 m 6.00007,-1 h 3.00003 v 1 h -3.00003 m 6.00006,-1 h 3.00003 v 1 h -3.00003 m 6.00006,-1 h 3.00003 v 1 h -3.00003 m 6.00006,-1 h 3.00003 v 1 h -3.00003 m 6.00006,-1 h 3.00003 v 1 h -3.00003 m 6.00006,-1 h 3.00003 v 1 h -3.00003 m 6.00003,-1 h 3.00006 v 1 h -3.00006 m 6.00006,-1 h 3.00006 v 1 h -3.00006 m 6.00009,-1 h 3.00003 v 1 h -3.00003 m 6.00007,-1 h 3.00003 v 1 h -3.00003 m 6.00006,-1 h 3.00003 v 1 h -3.00003 m 6.00006,-1 h 3.00003 v 1 h -3.00003 m 6.00006,-1 h 3.00003 v 1 h -3.00003 m 6.00003,-1 h 3.00003 v 1 h -3.00003 m 6.00006,-1 h 3.00003 v 1 h -3.00003 m 6.00006,-1 h 3.00003 v 1 h -3.00003 m 6.00006,-1 h 3.00003 v 1 h -3.00003 m 6.00006,-1 h 3.00003 v 1 h -3.00003 m 6.00006,-1 h 3.00003 v 1 h -3.00003 m 6.00006,-1 h 3.00004 v 1 h -3.00004 m 6.00007,-1 h 3.00003 v 1 h -3.00003 m 6.00006,-1 h 3.00003 v 1 h -3.00003 m 6.00006,-1 h 3.00003 v 1 h -3.00003 m 6.00006,-1 H 413 v 1 h -1.99652"
       style="fill:#000000;fill-opacity:1;fill-rule:nonzero;stroke:none"
       transform="matrix(0.95910358,0,0,0.95910358,0.47955179,0.47955179)"
       clip-path="url(#clipPath32)" />
    <text
       id="text32"
       xml:space="preserve"
       transform="matrix(0.95911321,0,0,0.95911321,398.03198,147.70343)"
       clip-path="url(#clipPath33)"><tspan
         style="font-style:oblique;font-variant:normal;font-weight:normal;font-size:17px;font-family:Helvetica;writing-mode:lr-tb;fill:#000000;fill-opacity:1;fill-rule:nonzero;stroke:none"
         x="0 11.040039 14.816895 24.271484 36.54834 41.271484 49.771484 55.432617 64.887207 74.341797 79.064941 88.519531 97.974121 102.69727 107.42041 116.875 126.32959 131.05273 135.77588 145.23047"
         y="0"
         sodipodi:role="line"
         id="tspan32">View created, but no</tspan></text>
    <text
       id="text33"
       xml:space="preserve"
       transform="matrix(0.95911321,0,0,0.95911321,398.03198,167.84481)"
       clip-path="url(#clipPath34)"><tspan
         style="font-style:oblique;font-variant:normal;font-weight:normal;font-size:17px;font-family:Helvetica;writing-mode:lr-tb;fill:#000000;fill-opacity:1;fill-rule:nonzero;stroke:none"
         x="0 9.4545898 18.90918 23.632324 33.086914 37.810059 47.264648 52.925781 62.380371 70.880371 80.334961 88.834961 97.334961 106.78955 116.24414 120.96729 129.46729 138.92188 143.64502"
         y="0"
         sodipodi:role="line"
         id="tspan33">data processed yet!</tspan></text>
    <text
       id="text34"
       xml:space="preserve"
       transform="matrix(0.95911321,0,0,0.95911321,398.03198,310.75268)"
       clip-path="url(#clipPath35)"><tspan
         style="font-style:oblique;font-variant:normal;font-weight:normal;font-size:17px;font-family:Helvetica;writing-mode:lr-tb;fill:#000000;fill-opacity:1;fill-rule:nonzero;stroke:none"
         x="0 12.276855 21.731445 26.45459 35.90918 41.570312 51.024902 60.479492 68.979492 78.434082 83.157227 87.880371 97.334961 102.05811 106.78125 116.23584 125.69043 130.41357 138.91357 142.69043 152.14502 164.42188"
         y="0"
         sodipodi:role="line"
         id="tspan34">Reference to the view!</tspan></text>
    <text
       id="text35"
       xml:space="preserve"
       transform="matrix(0.95911321,0,0,0.95911321,398.03198,329.93494)"
       clip-path="url(#clipPath36)"><tspan
         style="font-style:oblique;font-variant:normal;font-weight:normal;font-size:17px;font-family:Helvetica;writing-mode:lr-tb;fill:#000000;fill-opacity:1;fill-rule:nonzero;stroke:none"
         x="0 9.7617188 13.538574 27.699707 37.154297 41.877441 46.600586 56.055176 60.77832 66.439453 75.894043 85.348633 90.071777 94.794922 104.24951 113.7041 118.42725 127.88184 137.33643 146.79102 152.45215"
         y="0"
         sodipodi:role="line"
         id="tspan35">Time to run the query</tspan></text>
    <text
       id="text36"
       xml:space="preserve"
       transform="matrix(0.95911321,0,0,0.95911321,398.03198,350.07632)"
       clip-path="url(#clipPath37)"><tspan
         style="font-style:oblique;font-variant:normal;font-weight:normal;font-size:17px;font-family:Helvetica;writing-mode:lr-tb;fill:#000000;fill-opacity:1;fill-rule:nonzero;stroke:none"
         x="0 3.7768555 13.231445 17.95459 22.677734 32.132324 41.586914 46.310059 54.810059 58.586914 68.041504 80.318359"
         y="0"
         sodipodi:role="line"
         id="tspan36">in the view!</tspan></text>
    <path
       id="path38"
       d="m 63,157.5 h 3.000031 v 1 H 63 m 6.000061,-1 h 3.000031 v 1 h -3.000031 m 6.000061,-1 h 3.000031 v 1 h -3.000031 m 6.000061,-1 h 3.000031 v 1 h -3.000031 m 6.000061,-1 h 3.000031 v 1 h -3.000031 m 6.000061,-1 h 3.000031 v 1 h -3.000031 m 6.000054,-1 h 3.000031 v 1 h -3.000031 m 6.000061,-1 h 3.00003 v 1 h -3.00003 m 6.00006,-1 h 3.00003 v 1 h -3.00003 m 6.00006,-1 h 3.00003 v 1 h -3.00003 m 6.00006,-1 h 3.00003 v 1 h -3.00003 m 6.00007,-1 h 3.00003 v 1 h -3.00003 m 6.00005,-1 h 3.00003 v 1 h -3.00003 m 6.00006,-1 h 3.00003 v 1 h -3.00003 m 6.00006,-1 h 3.00003 v 1 h -3.00003 m 6.00006,-1 h 3.00003 v 1 h -3.00003 m 6.00006,-1 h 3.00003 v 1 h -3.00003 m 6.00006,-1 h 3.00003 v 1 h -3.00003 m 6.00006,-1 h 3.00003 v 1 h -3.00003 m 6.00006,-1 h 3.00003 v 1 h -3.00003 m 6.00007,-1 h 3.00001 v 1 h -3.00001 m 6.00004,-1 h 3.00005 v 1 h -3.00005 m 6.00008,-1 h 3.00003 v 1 h -3.00003 m 6.00006,-1 h 3.00003 v 1 h -3.00003 m 6.00004,-1 h 3.00003 v 1 h -3.00003 m 6.00007,-1 h 3.00003 v 1 h -3.00003 m 6.00006,-1 h 3.00003 v 1 h -3.00003 m 6.00006,-1 h 3.00003 v 1 h -3.00003 m 6.00006,-1 h 3.00003 v 1 h -3.00003 m 6.00006,-1 h 3.00003 v 1 h -3.00003 m 6.00006,-1 h 3.00003 v 1 h -3.00003 m 6.00006,-1 h 3.00003 v 1 h -3.00003 m 6.00006,-1 h 3.00003 v 1 h -3.00003 m 6.00006,-1 h 3.00003 v 1 h -3.00003 m 6.00006,-1 h 3.00004 v 1 h -3.00004 m 6.00007,-1 h 3.00003 v 1 h -3.00003 m 6.00006,-1 h 3.00003 v 1 h -3.00003 m 6.00006,-1 h 3.00003 v 1 h -3.00003 m 6.00006,-1 h 3.00003 v 1 h -3.00003 m 6.00006,-1 h 3.00003 v 1 h -3.00003 m 6.00006,-1 h 3.00003 v 1 h -3.00003 m 6.00003,-1 h 3.00006 v 1 h -3.00006 m 6.00006,-1 h 3.00006 v 1 h -3.00006 m 6.00009,-1 h 3.00003 v 1 h -3.00003 m 6.00007,-1 h 3.00003 v 1 h -3.00003 m 6.00006,-1 h 3.00003 v 1 h -3.00003 m 6.00006,-1 h 3.00003 v 1 h -3.00003 m 6.00006,-1 h 3.00003 v 1 h -3.00003 m 6.00003,-1 h 3.00003 v 1 h -3.00003 m 6.00006,-1 h 3.00003 v 1 h -3.00003 m 6.00006,-1 h 3.00003 v 1 h -3.00003 m 6.00006,-1 h 3.00003 v 1 h -3.00003 m 6.00006,-1 h 3.00003 v 1 h -3.00003 m 6.00006,-1 h 3.00003 v 1 h -3.00003 m 6.00006,-1 h 3.00004 v 1 h -3.00004 m 6.00007,-1 h 3.00003 v 1 h -3.00003 m 6.00006,-1 h 3.00003 v 1 h -3.00003 m 6.00006,-1 h 3.00003 v 1 h -3.00003 m 6.00006,-1 H 413 v 1 h -1.99652"
       style="fill:#000000;fill-opacity:1;fill-rule:nonzero;stroke:none"
       transform="matrix(0.95910358,0,0,0.95910358,0.47955179,0.47955179)"
       clip-path="url(#clipPath39)" />
    <text
       id="text39"
       xml:space="preserve"
       transform="matrix(0.95911321,0,0,0.95911321,407.08361,40.282755)"
       clip-path="url(#clipPath40)"><tspan
         style="font-variant:normal;font-weight:700;font-size:25px;font-family:Helvetica;writing-mode:lr-tb;fill:#000000;fill-opacity:1;fill-rule:nonzero;stroke:none"
         x="0 18.054199 33.325195 52.770996 59.716797 73.620605 80.566406 96.801758 103.74756 117.65137"
         y="0"
         sodipodi:role="line"
         id="tspan39">How a View</tspan></text>
    <text
       id="text40"
       xml:space="preserve"
       transform="matrix(0.95911321,0,0,0.95911321,436.4115,69.056151)"
       clip-path="url(#clipPath41)"><tspan
         style="font-variant:normal;font-weight:700;font-size:25px;font-family:Helvetica;writing-mode:lr-tb;fill:#000000;fill-opacity:1;fill-rule:nonzero;stroke:none"
         x="0 23.156738 38.427734 48.156738 62.060547"
         y="0"
         sodipodi:role="line"
         id="tspan40">Works</tspan></text>
  </g>
</svg>
