<?xml version="1.0" encoding="UTF-8" standalone="no"?>
<!-- Created with Inkscape (http://www.inkscape.org/) -->

<svg
   version="1.1"
   id="svg1"
   width="558.71997"
   height="349.44"
   viewBox="0 0 558.71997 349.44"
   sodipodi:docname="sql-6.pdf"
   xmlns:inkscape="http://www.inkscape.org/namespaces/inkscape"
   xmlns:sodipodi="http://sodipodi.sourceforge.net/DTD/sodipodi-0.dtd"
   xmlns="http://www.w3.org/2000/svg"
   xmlns:svg="http://www.w3.org/2000/svg">
  <defs
     id="defs1">
    <clipPath
       clipPathUnits="userSpaceOnUse"
       id="clipPath2">
      <path
         d="M 0,0 H 1745.8333 V 1091.1458 H 0 Z"
         transform="scale(0.33451077)"
         clip-rule="evenodd"
         id="path2" />
    </clipPath>
    <clipPath
       clipPathUnits="userSpaceOnUse"
       id="clipPath4">
      <path
         d="M 0,0 H 1745.8333 V 1088.1564 H 0 Z"
         transform="matrix(0.33451077,0,0,0.33451077,-0.50000001,-0.50000001)"
         clip-rule="evenodd"
         id="path4" />
    </clipPath>
    <clipPath
       clipPathUnits="userSpaceOnUse"
       id="clipPath5">
      <path
         d="M 0,0 H 1745.8333 V 1088.1564 H 0 Z"
         transform="matrix(0.3345074,0,0,0.3345074,-243.20313,-28)"
         clip-rule="evenodd"
         id="path5" />
    </clipPath>
    <clipPath
       clipPathUnits="userSpaceOnUse"
       id="clipPath7">
      <path
         d="M 0,0 H 1745.8333 V 1088.1564 H 0 Z"
         transform="matrix(0.33451077,0,0,0.33451077,-0.50000001,-0.50000001)"
         clip-rule="evenodd"
         id="path7" />
    </clipPath>
    <clipPath
       clipPathUnits="userSpaceOnUse"
       id="clipPath9">
      <path
         d="M 0,0 H 1745.8333 V 1088.1564 H 0 Z"
         transform="matrix(0.33451077,0,0,0.33451077,-0.50000001,-0.50000001)"
         clip-rule="evenodd"
         id="path9" />
    </clipPath>
    <clipPath
       clipPathUnits="userSpaceOnUse"
       id="clipPath10">
      <path
         d="M 0,0 H 1745.8333 V 1088.1564 H 0 Z"
         transform="matrix(0.3345074,0,0,0.3345074,-67.96875,-75)"
         clip-rule="evenodd"
         id="path10" />
    </clipPath>
    <clipPath
       clipPathUnits="userSpaceOnUse"
       id="clipPath12">
      <path
         d="M 0,0 H 1745.8333 V 1088.1564 H 0 Z"
         transform="matrix(0.33451077,0,0,0.33451077,-0.50000001,-0.50000001)"
         clip-rule="evenodd"
         id="path12" />
    </clipPath>
    <clipPath
       clipPathUnits="userSpaceOnUse"
       id="clipPath13">
      <path
         d="M 0,0 H 1745.8333 V 1088.1564 H 0 Z"
         transform="matrix(0.3345074,0,0,0.3345074,-44.765625,-100)"
         clip-rule="evenodd"
         id="path13" />
    </clipPath>
    <clipPath
       clipPathUnits="userSpaceOnUse"
       id="clipPath15">
      <path
         d="M 0,0 H 1745.8333 V 1088.1564 H 0 Z"
         transform="matrix(0.33451077,0,0,0.33451077,-0.50000001,-0.50000001)"
         clip-rule="evenodd"
         id="path15" />
    </clipPath>
    <clipPath
       clipPathUnits="userSpaceOnUse"
       id="clipPath16">
      <path
         d="M 0,0 H 1745.8333 V 1088.1564 H 0 Z"
         transform="matrix(0.3345074,0,0,0.3345074,-90.421875,-100)"
         clip-rule="evenodd"
         id="path16" />
    </clipPath>
    <clipPath
       clipPathUnits="userSpaceOnUse"
       id="clipPath18">
      <path
         d="M 0,0 H 1745.8333 V 1088.1564 H 0 Z"
         transform="matrix(0.33451077,0,0,0.33451077,-0.50000001,-0.50000001)"
         clip-rule="evenodd"
         id="path18" />
    </clipPath>
    <clipPath
       clipPathUnits="userSpaceOnUse"
       id="clipPath19">
      <path
         d="M 0,0 H 1745.8333 V 1088.1564 H 0 Z"
         transform="matrix(0.3345074,0,0,0.3345074,-229.40625,-75)"
         clip-rule="evenodd"
         id="path19" />
    </clipPath>
    <clipPath
       clipPathUnits="userSpaceOnUse"
       id="clipPath21">
      <path
         d="M 0,0 H 1745.8333 V 1088.1564 H 0 Z"
         transform="matrix(0.33451077,0,0,0.33451077,-0.50000001,-0.50000001)"
         clip-rule="evenodd"
         id="path21" />
    </clipPath>
    <clipPath
       clipPathUnits="userSpaceOnUse"
       id="clipPath22">
      <path
         d="M 0,0 H 1745.8333 V 1088.1564 H 0 Z"
         transform="matrix(0.3345074,0,0,0.3345074,-234.76563,-100)"
         clip-rule="evenodd"
         id="path22" />
    </clipPath>
    <clipPath
       clipPathUnits="userSpaceOnUse"
       id="clipPath24">
      <path
         d="M 0,0 H 1745.8333 V 1088.1564 H 0 Z"
         transform="matrix(0.33451077,0,0,0.33451077,-0.50000001,-0.50000001)"
         clip-rule="evenodd"
         id="path24" />
    </clipPath>
    <clipPath
       clipPathUnits="userSpaceOnUse"
       id="clipPath25">
      <path
         d="M 0,0 H 1745.8333 V 1088.1564 H 0 Z"
         transform="matrix(0.3345074,0,0,0.3345074,-289.75,-100)"
         clip-rule="evenodd"
         id="path25" />
    </clipPath>
    <clipPath
       clipPathUnits="userSpaceOnUse"
       id="clipPath27">
      <path
         d="M 0,0 H 1745.8333 V 1088.1564 H 0 Z"
         transform="matrix(0.33451077,0,0,0.33451077,-0.50000001,-0.50000001)"
         clip-rule="evenodd"
         id="path27" />
    </clipPath>
    <clipPath
       clipPathUnits="userSpaceOnUse"
       id="clipPath28">
      <path
         d="M 0,0 H 1745.8333 V 1088.1564 H 0 Z"
         transform="matrix(0.3345074,0,0,0.3345074,-47.375,-125.00001)"
         clip-rule="evenodd"
         id="path28" />
    </clipPath>
    <clipPath
       clipPathUnits="userSpaceOnUse"
       id="clipPath30">
      <path
         d="M 0,0 H 1745.8333 V 1088.1564 H 0 Z"
         transform="matrix(0.33451077,0,0,0.33451077,-0.50000001,-0.50000001)"
         clip-rule="evenodd"
         id="path30" />
    </clipPath>
    <clipPath
       clipPathUnits="userSpaceOnUse"
       id="clipPath31">
      <path
         d="M 0,0 H 1745.8333 V 1088.1564 H 0 Z"
         transform="matrix(0.3345074,0,0,0.3345074,-312.375,-125.00001)"
         clip-rule="evenodd"
         id="path31" />
    </clipPath>
    <clipPath
       clipPathUnits="userSpaceOnUse"
       id="clipPath33">
      <path
         d="M 0,0 H 1745.8333 V 1088.1564 H 0 Z"
         transform="matrix(0.33451077,0,0,0.33451077,-0.50000001,-0.50000001)"
         clip-rule="evenodd"
         id="path33" />
    </clipPath>
    <clipPath
       clipPathUnits="userSpaceOnUse"
       id="clipPath34">
      <path
         d="M 0,0 H 1745.8333 V 1088.1564 H 0 Z"
         transform="matrix(0.3345074,0,0,0.3345074,-237.375,-150)"
         clip-rule="evenodd"
         id="path34" />
    </clipPath>
    <clipPath
       clipPathUnits="userSpaceOnUse"
       id="clipPath36">
      <path
         d="M 0,0 H 1745.8333 V 1088.1564 H 0 Z"
         transform="matrix(0.33451077,0,0,0.33451077,-0.50000001,-0.50000001)"
         clip-rule="evenodd"
         id="path36" />
    </clipPath>
    <clipPath
       clipPathUnits="userSpaceOnUse"
       id="clipPath37">
      <path
         d="M 0,0 H 1745.8333 V 1088.1564 H 0 Z"
         transform="matrix(0.3345074,0,0,0.3345074,-312.375,-150)"
         clip-rule="evenodd"
         id="path37" />
    </clipPath>
    <clipPath
       clipPathUnits="userSpaceOnUse"
       id="clipPath39">
      <path
         d="M 0,0 H 1745.8333 V 1088.1564 H 0 Z"
         transform="matrix(0.33451077,0,0,0.33451077,-0.50000001,-0.50000001)"
         clip-rule="evenodd"
         id="path39" />
    </clipPath>
    <clipPath
       clipPathUnits="userSpaceOnUse"
       id="clipPath40">
      <path
         d="M 0,0 H 1745.8333 V 1088.1564 H 0 Z"
         transform="matrix(0.3345074,0,0,0.3345074,-237.375,-175)"
         clip-rule="evenodd"
         id="path40" />
    </clipPath>
    <clipPath
       clipPathUnits="userSpaceOnUse"
       id="clipPath42">
      <path
         d="M 0,0 H 1745.8333 V 1088.1564 H 0 Z"
         transform="matrix(0.33451077,0,0,0.33451077,-0.50000001,-0.50000001)"
         clip-rule="evenodd"
         id="path42" />
    </clipPath>
    <clipPath
       clipPathUnits="userSpaceOnUse"
       id="clipPath43">
      <path
         d="M 0,0 H 1745.8333 V 1088.1564 H 0 Z"
         transform="matrix(0.3345074,0,0,0.3345074,-312.375,-175)"
         clip-rule="evenodd"
         id="path43" />
    </clipPath>
    <clipPath
       clipPathUnits="userSpaceOnUse"
       id="clipPath45">
      <path
         d="M 0,0 H 1745.8333 V 1088.1564 H 0 Z"
         transform="matrix(0.33451077,0,0,0.33451077,-0.50000001,-0.50000001)"
         clip-rule="evenodd"
         id="path45" />
    </clipPath>
    <clipPath
       clipPathUnits="userSpaceOnUse"
       id="clipPath46">
      <path
         d="M 0,0 H 1745.8333 V 1088.1564 H 0 Z"
         transform="matrix(0.3345074,0,0,0.3345074,-237.375,-200)"
         clip-rule="evenodd"
         id="path46" />
    </clipPath>
    <clipPath
       clipPathUnits="userSpaceOnUse"
       id="clipPath48">
      <path
         d="M 0,0 H 1745.8333 V 1088.1564 H 0 Z"
         transform="matrix(0.33451077,0,0,0.33451077,-0.50000001,-0.50000001)"
         clip-rule="evenodd"
         id="path48" />
    </clipPath>
    <clipPath
       clipPathUnits="userSpaceOnUse"
       id="clipPath49">
      <path
         d="M 0,0 H 1745.8333 V 1088.1564 H 0 Z"
         transform="matrix(0.3345074,0,0,0.3345074,-312.375,-200)"
         clip-rule="evenodd"
         id="path49" />
    </clipPath>
    <clipPath
       clipPathUnits="userSpaceOnUse"
       id="clipPath51">
      <path
         d="M 0,0 H 1745.8333 V 1088.1564 H 0 Z"
         transform="matrix(0.33451077,0,0,0.33451077,-0.50000001,-0.50000001)"
         clip-rule="evenodd"
         id="path51" />
    </clipPath>
    <clipPath
       clipPathUnits="userSpaceOnUse"
       id="clipPath52">
      <path
         d="M 0,0 H 1745.8333 V 1088.1564 H 0 Z"
         transform="matrix(0.3345074,0,0,0.3345074,-47.375,-150)"
         clip-rule="evenodd"
         id="path52" />
    </clipPath>
    <clipPath
       clipPathUnits="userSpaceOnUse"
       id="clipPath54">
      <path
         d="M 0,0 H 1745.8333 V 1088.1564 H 0 Z"
         transform="matrix(0.33451077,0,0,0.33451077,-0.50000001,-0.50000001)"
         clip-rule="evenodd"
         id="path54" />
    </clipPath>
    <clipPath
       clipPathUnits="userSpaceOnUse"
       id="clipPath55">
      <path
         d="M 0,0 H 1745.8333 V 1088.1564 H 0 Z"
         transform="matrix(0.3345074,0,0,0.3345074,-47.375,-175)"
         clip-rule="evenodd"
         id="path55" />
    </clipPath>
    <clipPath
       clipPathUnits="userSpaceOnUse"
       id="clipPath57">
      <path
         d="M 0,0 H 1745.8333 V 1088.1564 H 0 Z"
         transform="matrix(0.33451077,0,0,0.33451077,-0.50000001,-0.50000001)"
         clip-rule="evenodd"
         id="path57" />
    </clipPath>
    <clipPath
       clipPathUnits="userSpaceOnUse"
       id="clipPath58">
      <path
         d="M 0,0 H 1745.8333 V 1088.1564 H 0 Z"
         transform="matrix(0.3345074,0,0,0.3345074,-47.375,-200)"
         clip-rule="evenodd"
         id="path58" />
    </clipPath>
    <clipPath
       clipPathUnits="userSpaceOnUse"
       id="clipPath60">
      <path
         d="M 0,0 H 1745.8333 V 1088.1564 H 0 Z"
         transform="matrix(0.33451077,0,0,0.33451077,-0.50000001,-0.50000001)"
         clip-rule="evenodd"
         id="path60" />
    </clipPath>
    <clipPath
       clipPathUnits="userSpaceOnUse"
       id="clipPath61">
      <path
         d="M 0,0 H 1745.8333 V 1088.1564 H 0 Z"
         transform="matrix(0.3345074,0,0,0.3345074,-237.375,-125.00001)"
         clip-rule="evenodd"
         id="path61" />
    </clipPath>
    <clipPath
       clipPathUnits="userSpaceOnUse"
       id="clipPath63">
      <path
         d="M 0,0 H 1745.8333 V 1088.1564 H 0 Z"
         transform="matrix(0.33451077,0,0,0.33451077,-0.50000001,-0.50000001)"
         clip-rule="evenodd"
         id="path63" />
    </clipPath>
    <clipPath
       clipPathUnits="userSpaceOnUse"
       id="clipPath64">
      <path
         d="M 0,0 H 1745.8333 V 1088.1564 H 0 Z"
         transform="matrix(0.3345074,0,0,0.3345074,-502.375,-125.00001)"
         clip-rule="evenodd"
         id="path64" />
    </clipPath>
    <clipPath
       clipPathUnits="userSpaceOnUse"
       id="clipPath66">
      <path
         d="M 0,0 H 1745.8333 V 1088.1564 H 0 Z"
         transform="matrix(0.33451077,0,0,0.33451077,-0.50000001,-0.50000001)"
         clip-rule="evenodd"
         id="path66" />
    </clipPath>
    <clipPath
       clipPathUnits="userSpaceOnUse"
       id="clipPath67">
      <path
         d="M 0,0 H 1745.8333 V 1088.1564 H 0 Z"
         transform="matrix(0.3345074,0,0,0.3345074,-427.375,-150)"
         clip-rule="evenodd"
         id="path67" />
    </clipPath>
    <clipPath
       clipPathUnits="userSpaceOnUse"
       id="clipPath69">
      <path
         d="M 0,0 H 1745.8333 V 1088.1564 H 0 Z"
         transform="matrix(0.33451077,0,0,0.33451077,-0.50000001,-0.50000001)"
         clip-rule="evenodd"
         id="path69" />
    </clipPath>
    <clipPath
       clipPathUnits="userSpaceOnUse"
       id="clipPath70">
      <path
         d="M 0,0 H 1745.8333 V 1088.1564 H 0 Z"
         transform="matrix(0.3345074,0,0,0.3345074,-502.375,-150)"
         clip-rule="evenodd"
         id="path70" />
    </clipPath>
    <clipPath
       clipPathUnits="userSpaceOnUse"
       id="clipPath72">
      <path
         d="M 0,0 H 1745.8333 V 1088.1564 H 0 Z"
         transform="matrix(0.33451077,0,0,0.33451077,-0.50000001,-0.50000001)"
         clip-rule="evenodd"
         id="path72" />
    </clipPath>
    <clipPath
       clipPathUnits="userSpaceOnUse"
       id="clipPath73">
      <path
         d="M 0,0 H 1745.8333 V 1088.1564 H 0 Z"
         transform="matrix(0.3345074,0,0,0.3345074,-427.375,-175)"
         clip-rule="evenodd"
         id="path73" />
    </clipPath>
    <clipPath
       clipPathUnits="userSpaceOnUse"
       id="clipPath75">
      <path
         d="M 0,0 H 1745.8333 V 1088.1564 H 0 Z"
         transform="matrix(0.33451077,0,0,0.33451077,-0.50000001,-0.50000001)"
         clip-rule="evenodd"
         id="path75" />
    </clipPath>
    <clipPath
       clipPathUnits="userSpaceOnUse"
       id="clipPath76">
      <path
         d="M 0,0 H 1745.8333 V 1088.1564 H 0 Z"
         transform="matrix(0.3345074,0,0,0.3345074,-502.375,-175)"
         clip-rule="evenodd"
         id="path76" />
    </clipPath>
    <clipPath
       clipPathUnits="userSpaceOnUse"
       id="clipPath78">
      <path
         d="M 0,0 H 1745.8333 V 1088.1564 H 0 Z"
         transform="matrix(0.33451077,0,0,0.33451077,-0.50000001,-0.50000001)"
         clip-rule="evenodd"
         id="path78" />
    </clipPath>
    <clipPath
       clipPathUnits="userSpaceOnUse"
       id="clipPath79">
      <path
         d="M 0,0 H 1745.8333 V 1088.1564 H 0 Z"
         transform="matrix(0.3345074,0,0,0.3345074,-427.375,-200)"
         clip-rule="evenodd"
         id="path79" />
    </clipPath>
    <clipPath
       clipPathUnits="userSpaceOnUse"
       id="clipPath81">
      <path
         d="M 0,0 H 1745.8333 V 1088.1564 H 0 Z"
         transform="matrix(0.33451077,0,0,0.33451077,-0.50000001,-0.50000001)"
         clip-rule="evenodd"
         id="path81" />
    </clipPath>
    <clipPath
       clipPathUnits="userSpaceOnUse"
       id="clipPath82">
      <path
         d="M 0,0 H 1745.8333 V 1088.1564 H 0 Z"
         transform="matrix(0.3345074,0,0,0.3345074,-502.375,-200)"
         clip-rule="evenodd"
         id="path82" />
    </clipPath>
    <clipPath
       clipPathUnits="userSpaceOnUse"
       id="clipPath84">
      <path
         d="M 0,0 H 1745.8333 V 1088.1564 H 0 Z"
         transform="matrix(0.33451077,0,0,0.33451077,-0.50000001,-0.50000001)"
         clip-rule="evenodd"
         id="path84" />
    </clipPath>
    <clipPath
       clipPathUnits="userSpaceOnUse"
       id="clipPath85">
      <path
         d="M 0,0 H 1745.8333 V 1088.1564 H 0 Z"
         transform="matrix(0.3345074,0,0,0.3345074,-427.375,-125.00001)"
         clip-rule="evenodd"
         id="path85" />
    </clipPath>
    <clipPath
       clipPathUnits="userSpaceOnUse"
       id="clipPath87">
      <path
         d="M 0,0 H 1745.8333 V 1088.1564 H 0 Z"
         transform="matrix(0.33451077,0,0,0.33451077,-0.50000001,-0.50000001)"
         clip-rule="evenodd"
         id="path87" />
    </clipPath>
    <clipPath
       clipPathUnits="userSpaceOnUse"
       id="clipPath88">
      <path
         d="M 0,0 H 1745.8333 V 1088.1564 H 0 Z"
         transform="matrix(0.3345074,0,0,0.3345074,-109.73437,-125.00001)"
         clip-rule="evenodd"
         id="path88" />
    </clipPath>
    <clipPath
       clipPathUnits="userSpaceOnUse"
       id="clipPath90">
      <path
         d="M 0,0 H 1745.8333 V 1088.1564 H 0 Z"
         transform="matrix(0.33451077,0,0,0.33451077,-0.50000001,-0.50000001)"
         clip-rule="evenodd"
         id="path90" />
    </clipPath>
    <clipPath
       clipPathUnits="userSpaceOnUse"
       id="clipPath91">
      <path
         d="M 0,0 H 1745.8333 V 1088.1564 H 0 Z"
         transform="matrix(0.3345074,0,0,0.3345074,-109.375,-150)"
         clip-rule="evenodd"
         id="path91" />
    </clipPath>
    <clipPath
       clipPathUnits="userSpaceOnUse"
       id="clipPath93">
      <path
         d="M 0,0 H 1745.8333 V 1088.1564 H 0 Z"
         transform="matrix(0.33451077,0,0,0.33451077,-0.50000001,-0.50000001)"
         clip-rule="evenodd"
         id="path93" />
    </clipPath>
    <clipPath
       clipPathUnits="userSpaceOnUse"
       id="clipPath94">
      <path
         d="M 0,0 H 1745.8333 V 1088.1564 H 0 Z"
         transform="matrix(0.3345074,0,0,0.3345074,-104.3125,-175)"
         clip-rule="evenodd"
         id="path94" />
    </clipPath>
    <clipPath
       clipPathUnits="userSpaceOnUse"
       id="clipPath96">
      <path
         d="M 0,0 H 1745.8333 V 1088.1564 H 0 Z"
         transform="matrix(0.33451077,0,0,0.33451077,-0.50000001,-0.50000001)"
         clip-rule="evenodd"
         id="path96" />
    </clipPath>
    <clipPath
       clipPathUnits="userSpaceOnUse"
       id="clipPath97">
      <path
         d="M 0,0 H 1745.8333 V 1088.1564 H 0 Z"
         transform="matrix(0.3345074,0,0,0.3345074,-115.51562,-200)"
         clip-rule="evenodd"
         id="path97" />
    </clipPath>
    <clipPath
       clipPathUnits="userSpaceOnUse"
       id="clipPath99">
      <path
         d="M 0,0 H 1745.8333 V 1088.1564 H 0 Z"
         transform="matrix(0.33451077,0,0,0.33451077,-0.50000001,-0.50000001)"
         clip-rule="evenodd"
         id="path99" />
    </clipPath>
    <clipPath
       clipPathUnits="userSpaceOnUse"
       id="clipPath100">
      <path
         d="M 0,0 H 1745.8333 V 1088.1564 H 0 Z"
         transform="matrix(0.3345074,0,0,0.3345074,-411.23438,-75)"
         clip-rule="evenodd"
         id="path100" />
    </clipPath>
    <clipPath
       clipPathUnits="userSpaceOnUse"
       id="clipPath102">
      <path
         d="M 0,0 H 1745.8333 V 1088.1564 H 0 Z"
         transform="matrix(0.33451077,0,0,0.33451077,-0.50000001,-0.50000001)"
         clip-rule="evenodd"
         id="path102" />
    </clipPath>
    <clipPath
       clipPathUnits="userSpaceOnUse"
       id="clipPath103">
      <path
         d="M 0,0 H 1745.8333 V 1088.1564 H 0 Z"
         transform="matrix(0.3345074,0,0,0.3345074,-424.76563,-100)"
         clip-rule="evenodd"
         id="path103" />
    </clipPath>
    <clipPath
       clipPathUnits="userSpaceOnUse"
       id="clipPath105">
      <path
         d="M 0,0 H 1745.8333 V 1088.1564 H 0 Z"
         transform="matrix(0.33451077,0,0,0.33451077,-0.50000001,-0.50000001)"
         clip-rule="evenodd"
         id="path105" />
    </clipPath>
    <clipPath
       clipPathUnits="userSpaceOnUse"
       id="clipPath106">
      <path
         d="M 0,0 H 1745.8333 V 1088.1564 H 0 Z"
         transform="matrix(0.3345074,0,0,0.3345074,-479.75,-100)"
         clip-rule="evenodd"
         id="path106" />
    </clipPath>
  </defs>
  <sodipodi:namedview
     id="namedview1"
     pagecolor="#ffffff"
     bordercolor="#000000"
     borderopacity="0.25"
     inkscape:showpageshadow="2"
     inkscape:pageopacity="0.0"
     inkscape:pagecheckerboard="0"
     inkscape:deskcolor="#d1d1d1">
    <inkscape:page
       x="0"
       y="0"
       inkscape:label="1"
       id="page1"
       width="558.71997"
       height="349.44"
       margin="0"
       bleed="0" />
  </sodipodi:namedview>
  <g
     id="g1"
     inkscape:groupmode="layer"
     inkscape:label="1">
    <path
       id="path1"
       d="M 0,0 H 584 V 365 H 0 Z"
       style="fill:#ffffff;fill-opacity:1;fill-rule:nonzero;stroke:none"
       transform="scale(0.95662089)"
       clip-path="url(#clipPath2)" />
    <path
       id="path3"
       d="M 1,1 H 581.01001 V 41 H 1 Z"
       style="fill:#d5e8d4;fill-opacity:1;fill-rule:nonzero;stroke:#82b366;stroke-width:1;stroke-linecap:butt;stroke-linejoin:miter;stroke-miterlimit:10;stroke-dasharray:none;stroke-opacity:1"
       transform="matrix(0.95662089,0,0,0.95662089,0.47831045,0.47831045)"
       clip-path="url(#clipPath4)" />
    <text
       id="text4"
       xml:space="preserve"
       transform="matrix(0.95663052,0,0,0.95663052,232.65554,26.785655)"
       clip-path="url(#clipPath5)"><tspan
         style="font-variant:normal;font-weight:700;font-size:20px;font-family:Helvetica;writing-mode:lr-tb;fill:#000000;fill-opacity:1;fill-rule:nonzero;stroke:none"
         x="0 5.5566406 17.773438 28.896484 35.556641 46.679688 58.896484 66.679688 77.802734"
         y="0"
         sodipodi:role="line"
         id="tspan4">instagram</tspan></text>
    <path
       id="path6"
       d="M 1,41 H 581.01001 V 361 H 1 Z"
       style="fill:#d5e8d4;fill-opacity:1;fill-rule:nonzero;stroke:#82b366;stroke-width:1;stroke-linecap:butt;stroke-linejoin:miter;stroke-miterlimit:10;stroke-dasharray:none;stroke-opacity:1"
       transform="matrix(0.95662089,0,0,0.95662089,0.47831045,0.47831045)"
       clip-path="url(#clipPath7)" />
    <path
       id="path8"
       d="M 21,52.880001 H 171 V 82.880005 H 21 Z"
       style="fill:#ffe6cc;fill-opacity:1;fill-rule:nonzero;stroke:#d79b00;stroke-width:1;stroke-linecap:butt;stroke-linejoin:miter;stroke-miterlimit:10;stroke-dasharray:none;stroke-opacity:1"
       transform="matrix(0.95662089,0,0,0.95662089,0.47831045,0.47831045)"
       clip-path="url(#clipPath9)" />
    <text
       id="text9"
       xml:space="preserve"
       transform="matrix(0.95663052,0,0,0.95663052,65.020981,71.747289)"
       clip-path="url(#clipPath10)"><tspan
         style="font-variant:normal;font-weight:700;font-size:21px;font-family:Helvetica;writing-mode:lr-tb;fill:#000000;fill-opacity:1;fill-rule:nonzero;stroke:none"
         x="0 12.827637 24.506836 36.186035 44.358398"
         y="0"
         sodipodi:role="line"
         id="tspan9">users</tspan></text>
    <path
       id="path11"
       d="M 21,82.879997 H 81 V 107.88 H 21 Z"
       style="fill:#f5f5f5;fill-opacity:1;fill-rule:nonzero;stroke:#666666;stroke-width:1;stroke-linecap:butt;stroke-linejoin:miter;stroke-miterlimit:10;stroke-dasharray:none;stroke-opacity:1"
       transform="matrix(0.95662089,0,0,0.95662089,0.47831045,0.47831045)"
       clip-path="url(#clipPath12)" />
    <text
       id="text12"
       xml:space="preserve"
       transform="matrix(0.95663052,0,0,0.95663052,42.824163,95.663052)"
       clip-path="url(#clipPath13)"><tspan
         style="font-style:oblique;font-variant:normal;font-weight:normal;font-size:16px;font-family:Helvetica;writing-mode:lr-tb;fill:#333333;fill-opacity:1;fill-rule:nonzero;stroke:none"
         x="0 3.5546875"
         y="0"
         sodipodi:role="line"
         id="tspan12">id</tspan></text>
    <path
       id="path14"
       d="m 81,82.879997 h 90 V 107.88 H 81 Z"
       style="fill:#f5f5f5;fill-opacity:1;fill-rule:nonzero;stroke:#666666;stroke-width:1;stroke-linecap:butt;stroke-linejoin:miter;stroke-miterlimit:10;stroke-dasharray:none;stroke-opacity:1"
       transform="matrix(0.95662089,0,0,0.95662089,0.47831045,0.47831045)"
       clip-path="url(#clipPath15)" />
    <text
       id="text15"
       xml:space="preserve"
       transform="matrix(0.95663052,0,0,0.95663052,86.500325,95.663052)"
       clip-path="url(#clipPath16)"><tspan
         style="font-style:oblique;font-variant:normal;font-weight:normal;font-size:16px;font-family:Helvetica;writing-mode:lr-tb;fill:#333333;fill-opacity:1;fill-rule:nonzero;stroke:none"
         x="0 8.8984375 16.898438 25.796875 31.125 40.023438 48.921875 62.25"
         y="0"
         sodipodi:role="line"
         id="tspan15">username</tspan></text>
    <path
       id="path17"
       d="M 211,52.880001 H 361 V 82.880005 H 211 Z"
       style="fill:#ffe6cc;fill-opacity:1;fill-rule:nonzero;stroke:#d79b00;stroke-width:1;stroke-linecap:butt;stroke-linejoin:miter;stroke-miterlimit:10;stroke-dasharray:none;stroke-opacity:1"
       transform="matrix(0.95662089,0,0,0.95662089,0.47831045,0.47831045)"
       clip-path="url(#clipPath18)" />
    <text
       id="text18"
       xml:space="preserve"
       transform="matrix(0.95663052,0,0,0.95663052,219.45702,71.747289)"
       clip-path="url(#clipPath19)"><tspan
         style="font-variant:normal;font-weight:700;font-size:21px;font-family:Helvetica;writing-mode:lr-tb;fill:#000000;fill-opacity:1;fill-rule:nonzero;stroke:none"
         x="0 12.827637 25.655273 38.48291 45.476074 58.303711 69.98291 76.976074 88.655273 101.48291"
         y="0"
         sodipodi:role="line"
         id="tspan18">photo_tags</tspan></text>
    <path
       id="path20"
       d="m 211,82.879997 h 60 V 107.88 h -60 z"
       style="fill:#f5f5f5;fill-opacity:1;fill-rule:nonzero;stroke:#666666;stroke-width:1;stroke-linecap:butt;stroke-linejoin:miter;stroke-miterlimit:10;stroke-dasharray:none;stroke-opacity:1"
       transform="matrix(0.95662089,0,0,0.95662089,0.47831045,0.47831045)"
       clip-path="url(#clipPath21)" />
    <text
       id="text21"
       xml:space="preserve"
       transform="matrix(0.95663052,0,0,0.95663052,224.58397,95.663052)"
       clip-path="url(#clipPath22)"><tspan
         style="font-style:oblique;font-variant:normal;font-weight:normal;font-size:16px;font-family:Helvetica;writing-mode:lr-tb;fill:#333333;fill-opacity:1;fill-rule:nonzero;stroke:none"
         x="0 3.5546875"
         y="0"
         sodipodi:role="line"
         id="tspan21">id</tspan></text>
    <path
       id="path23"
       d="m 271,82.879997 h 90 V 107.88 h -90 z"
       style="fill:#f5f5f5;fill-opacity:1;fill-rule:nonzero;stroke:#666666;stroke-width:1;stroke-linecap:butt;stroke-linejoin:miter;stroke-miterlimit:10;stroke-dasharray:none;stroke-opacity:1"
       transform="matrix(0.95662089,0,0,0.95662089,0.47831045,0.47831045)"
       clip-path="url(#clipPath24)" />
    <text
       id="text24"
       xml:space="preserve"
       transform="matrix(0.95663052,0,0,0.95663052,277.18369,95.663052)"
       clip-path="url(#clipPath25)"><tspan
         style="font-style:oblique;font-variant:normal;font-weight:normal;font-size:16px;font-family:Helvetica;writing-mode:lr-tb;fill:#333333;fill-opacity:1;fill-rule:nonzero;stroke:none"
         x="0 8.8984375 16.898438 25.796875 31.125 40.023438 43.578125"
         y="0"
         sodipodi:role="line"
         id="tspan24">user_id</tspan></text>
    <path
       id="path26"
       d="m 21,107.88 h 60 v 25 H 21 Z"
       style="fill:#ffffff;fill-opacity:1;fill-rule:nonzero;stroke:#000000;stroke-width:1;stroke-linecap:butt;stroke-linejoin:miter;stroke-miterlimit:10;stroke-dasharray:none;stroke-opacity:1"
       transform="matrix(0.95662089,0,0,0.95662089,0.47831045,0.47831045)"
       clip-path="url(#clipPath27)" />
    <text
       id="text27"
       xml:space="preserve"
       transform="matrix(0.95663052,0,0,0.95663052,45.320371,119.57882)"
       clip-path="url(#clipPath28)"><tspan
         style="font-variant:normal;font-weight:normal;font-size:13px;font-family:Helvetica;writing-mode:lr-tb;fill:#000000;fill-opacity:1;fill-rule:nonzero;stroke:none"
         x="0"
         y="0"
         id="tspan27">1</tspan></text>
    <path
       id="path29"
       d="m 271,107.88 h 90 v 25 h -90 z"
       style="fill:#ffffff;fill-opacity:1;fill-rule:nonzero;stroke:#000000;stroke-width:1;stroke-linecap:butt;stroke-linejoin:miter;stroke-miterlimit:10;stroke-dasharray:none;stroke-opacity:1"
       transform="matrix(0.95662089,0,0,0.95662089,0.47831045,0.47831045)"
       clip-path="url(#clipPath30)" />
    <text
       id="text30"
       xml:space="preserve"
       transform="matrix(0.95663052,0,0,0.95663052,298.82746,119.57882)"
       clip-path="url(#clipPath31)"><tspan
         style="font-variant:normal;font-weight:normal;font-size:13px;font-family:Helvetica;writing-mode:lr-tb;fill:#000000;fill-opacity:1;fill-rule:nonzero;stroke:none"
         x="0"
         y="0"
         id="tspan30">1</tspan></text>
    <path
       id="path32"
       d="m 211,132.88 h 60 v 25 h -60 z"
       style="fill:#ffffff;fill-opacity:1;fill-rule:nonzero;stroke:#000000;stroke-width:1;stroke-linecap:butt;stroke-linejoin:miter;stroke-miterlimit:10;stroke-dasharray:none;stroke-opacity:1"
       transform="matrix(0.95662089,0,0,0.95662089,0.47831045,0.47831045)"
       clip-path="url(#clipPath33)" />
    <text
       id="text33"
       xml:space="preserve"
       transform="matrix(0.95663052,0,0,0.95663052,227.08017,143.49458)"
       clip-path="url(#clipPath34)"><tspan
         style="font-variant:normal;font-weight:normal;font-size:13px;font-family:Helvetica;writing-mode:lr-tb;fill:#000000;fill-opacity:1;fill-rule:nonzero;stroke:none"
         x="0"
         y="0"
         id="tspan33">2</tspan></text>
    <path
       id="path35"
       d="m 271,132.88 h 90 v 25 h -90 z"
       style="fill:#ffffff;fill-opacity:1;fill-rule:nonzero;stroke:#000000;stroke-width:1;stroke-linecap:butt;stroke-linejoin:miter;stroke-miterlimit:10;stroke-dasharray:none;stroke-opacity:1"
       transform="matrix(0.95662089,0,0,0.95662089,0.47831045,0.47831045)"
       clip-path="url(#clipPath36)" />
    <text
       id="text36"
       xml:space="preserve"
       transform="matrix(0.95663052,0,0,0.95663052,298.82746,143.49458)"
       clip-path="url(#clipPath37)"><tspan
         style="font-variant:normal;font-weight:normal;font-size:13px;font-family:Helvetica;writing-mode:lr-tb;fill:#000000;fill-opacity:1;fill-rule:nonzero;stroke:none"
         x="0"
         y="0"
         id="tspan36">4</tspan></text>
    <path
       id="path38"
       d="m 211,157.88 h 60 v 25 h -60 z"
       style="fill:#ffffff;fill-opacity:1;fill-rule:nonzero;stroke:#000000;stroke-width:1;stroke-linecap:butt;stroke-linejoin:miter;stroke-miterlimit:10;stroke-dasharray:none;stroke-opacity:1"
       transform="matrix(0.95662089,0,0,0.95662089,0.47831045,0.47831045)"
       clip-path="url(#clipPath39)" />
    <text
       id="text39"
       xml:space="preserve"
       transform="matrix(0.95663052,0,0,0.95663052,227.08017,167.41034)"
       clip-path="url(#clipPath40)"><tspan
         style="font-variant:normal;font-weight:normal;font-size:13px;font-family:Helvetica;writing-mode:lr-tb;fill:#000000;fill-opacity:1;fill-rule:nonzero;stroke:none"
         x="0"
         y="0"
         id="tspan39">3</tspan></text>
    <path
       id="path41"
       d="m 271,157.88 h 90 v 25 h -90 z"
       style="fill:#ffffff;fill-opacity:1;fill-rule:nonzero;stroke:#000000;stroke-width:1;stroke-linecap:butt;stroke-linejoin:miter;stroke-miterlimit:10;stroke-dasharray:none;stroke-opacity:1"
       transform="matrix(0.95662089,0,0,0.95662089,0.47831045,0.47831045)"
       clip-path="url(#clipPath42)" />
    <text
       id="text42"
       xml:space="preserve"
       transform="matrix(0.95663052,0,0,0.95663052,298.82746,167.41034)"
       clip-path="url(#clipPath43)"><tspan
         style="font-variant:normal;font-weight:normal;font-size:13px;font-family:Helvetica;writing-mode:lr-tb;fill:#000000;fill-opacity:1;fill-rule:nonzero;stroke:none"
         x="0"
         y="0"
         id="tspan42">2</tspan></text>
    <path
       id="path44"
       d="m 211,182.88 h 60 v 25 h -60 z"
       style="fill:#ffffff;fill-opacity:1;fill-rule:nonzero;stroke:#000000;stroke-width:1;stroke-linecap:butt;stroke-linejoin:miter;stroke-miterlimit:10;stroke-dasharray:none;stroke-opacity:1"
       transform="matrix(0.95662089,0,0,0.95662089,0.47831045,0.47831045)"
       clip-path="url(#clipPath45)" />
    <text
       id="text45"
       xml:space="preserve"
       transform="matrix(0.95663052,0,0,0.95663052,227.08017,191.3261)"
       clip-path="url(#clipPath46)"><tspan
         style="font-variant:normal;font-weight:normal;font-size:13px;font-family:Helvetica;writing-mode:lr-tb;fill:#000000;fill-opacity:1;fill-rule:nonzero;stroke:none"
         x="0"
         y="0"
         id="tspan45">4</tspan></text>
    <path
       id="path47"
       d="m 271,182.88 h 90 v 25 h -90 z"
       style="fill:#ffffff;fill-opacity:1;fill-rule:nonzero;stroke:#000000;stroke-width:1;stroke-linecap:butt;stroke-linejoin:miter;stroke-miterlimit:10;stroke-dasharray:none;stroke-opacity:1"
       transform="matrix(0.95662089,0,0,0.95662089,0.47831045,0.47831045)"
       clip-path="url(#clipPath48)" />
    <text
       id="text48"
       xml:space="preserve"
       transform="matrix(0.95663052,0,0,0.95663052,298.82746,191.3261)"
       clip-path="url(#clipPath49)"><tspan
         style="font-variant:normal;font-weight:normal;font-size:13px;font-family:Helvetica;writing-mode:lr-tb;fill:#000000;fill-opacity:1;fill-rule:nonzero;stroke:none"
         x="0"
         y="0"
         id="tspan48">1</tspan></text>
    <path
       id="path50"
       d="m 21,132.88 h 60 v 25 H 21 Z"
       style="fill:#ffffff;fill-opacity:1;fill-rule:nonzero;stroke:#000000;stroke-width:1;stroke-linecap:butt;stroke-linejoin:miter;stroke-miterlimit:10;stroke-dasharray:none;stroke-opacity:1"
       transform="matrix(0.95662089,0,0,0.95662089,0.47831045,0.47831045)"
       clip-path="url(#clipPath51)" />
    <text
       id="text51"
       xml:space="preserve"
       transform="matrix(0.95663052,0,0,0.95663052,45.320371,143.49458)"
       clip-path="url(#clipPath52)"><tspan
         style="font-variant:normal;font-weight:normal;font-size:13px;font-family:Helvetica;writing-mode:lr-tb;fill:#000000;fill-opacity:1;fill-rule:nonzero;stroke:none"
         x="0"
         y="0"
         id="tspan51">2</tspan></text>
    <path
       id="path53"
       d="m 21,157.88 h 60 v 25 H 21 Z"
       style="fill:#ffffff;fill-opacity:1;fill-rule:nonzero;stroke:#000000;stroke-width:1;stroke-linecap:butt;stroke-linejoin:miter;stroke-miterlimit:10;stroke-dasharray:none;stroke-opacity:1"
       transform="matrix(0.95662089,0,0,0.95662089,0.47831045,0.47831045)"
       clip-path="url(#clipPath54)" />
    <text
       id="text54"
       xml:space="preserve"
       transform="matrix(0.95663052,0,0,0.95663052,45.320371,167.41034)"
       clip-path="url(#clipPath55)"><tspan
         style="font-variant:normal;font-weight:normal;font-size:13px;font-family:Helvetica;writing-mode:lr-tb;fill:#000000;fill-opacity:1;fill-rule:nonzero;stroke:none"
         x="0"
         y="0"
         id="tspan54">3</tspan></text>
    <path
       id="path56"
       d="m 21,182.88 h 60 v 25 H 21 Z"
       style="fill:#ffffff;fill-opacity:1;fill-rule:nonzero;stroke:#000000;stroke-width:1;stroke-linecap:butt;stroke-linejoin:miter;stroke-miterlimit:10;stroke-dasharray:none;stroke-opacity:1"
       transform="matrix(0.95662089,0,0,0.95662089,0.47831045,0.47831045)"
       clip-path="url(#clipPath57)" />
    <text
       id="text57"
       xml:space="preserve"
       transform="matrix(0.95663052,0,0,0.95663052,45.320371,191.3261)"
       clip-path="url(#clipPath58)"><tspan
         style="font-variant:normal;font-weight:normal;font-size:13px;font-family:Helvetica;writing-mode:lr-tb;fill:#000000;fill-opacity:1;fill-rule:nonzero;stroke:none"
         x="0"
         y="0"
         id="tspan57">4</tspan></text>
    <path
       id="path59"
       d="m 211,107.88 h 60 v 25 h -60 z"
       style="fill:#ffffff;fill-opacity:1;fill-rule:nonzero;stroke:#000000;stroke-width:1;stroke-linecap:butt;stroke-linejoin:miter;stroke-miterlimit:10;stroke-dasharray:none;stroke-opacity:1"
       transform="matrix(0.95662089,0,0,0.95662089,0.47831045,0.47831045)"
       clip-path="url(#clipPath60)" />
    <text
       id="text60"
       xml:space="preserve"
       transform="matrix(0.95663052,0,0,0.95663052,227.08017,119.57882)"
       clip-path="url(#clipPath61)"><tspan
         style="font-variant:normal;font-weight:normal;font-size:13px;font-family:Helvetica;writing-mode:lr-tb;fill:#000000;fill-opacity:1;fill-rule:nonzero;stroke:none"
         x="0"
         y="0"
         id="tspan60">1</tspan></text>
    <path
       id="path62"
       d="m 461,107.88 h 90 v 25 h -90 z"
       style="fill:#ffffff;fill-opacity:1;fill-rule:nonzero;stroke:#000000;stroke-width:1;stroke-linecap:butt;stroke-linejoin:miter;stroke-miterlimit:10;stroke-dasharray:none;stroke-opacity:1"
       transform="matrix(0.95662089,0,0,0.95662089,0.47831045,0.47831045)"
       clip-path="url(#clipPath63)" />
    <text
       id="text63"
       xml:space="preserve"
       transform="matrix(0.95663052,0,0,0.95663052,480.58726,119.57882)"
       clip-path="url(#clipPath64)"><tspan
         style="font-variant:normal;font-weight:normal;font-size:13px;font-family:Helvetica;writing-mode:lr-tb;fill:#000000;fill-opacity:1;fill-rule:nonzero;stroke:none"
         x="0"
         y="0"
         id="tspan63">1</tspan></text>
    <path
       id="path65"
       d="m 401,132.88 h 60 v 25 h -60 z"
       style="fill:#ffffff;fill-opacity:1;fill-rule:nonzero;stroke:#000000;stroke-width:1;stroke-linecap:butt;stroke-linejoin:miter;stroke-miterlimit:10;stroke-dasharray:none;stroke-opacity:1"
       transform="matrix(0.95662089,0,0,0.95662089,0.47831045,0.47831045)"
       clip-path="url(#clipPath66)" />
    <text
       id="text66"
       xml:space="preserve"
       transform="matrix(0.95663052,0,0,0.95663052,408.83997,143.49458)"
       clip-path="url(#clipPath67)"><tspan
         style="font-variant:normal;font-weight:normal;font-size:13px;font-family:Helvetica;writing-mode:lr-tb;fill:#000000;fill-opacity:1;fill-rule:nonzero;stroke:none"
         x="0"
         y="0"
         id="tspan66">2</tspan></text>
    <path
       id="path68"
       d="m 461,132.88 h 90 v 25 h -90 z"
       style="fill:#ffffff;fill-opacity:1;fill-rule:nonzero;stroke:#000000;stroke-width:1;stroke-linecap:butt;stroke-linejoin:miter;stroke-miterlimit:10;stroke-dasharray:none;stroke-opacity:1"
       transform="matrix(0.95662089,0,0,0.95662089,0.47831045,0.47831045)"
       clip-path="url(#clipPath69)" />
    <text
       id="text69"
       xml:space="preserve"
       transform="matrix(0.95663052,0,0,0.95663052,480.58726,143.49458)"
       clip-path="url(#clipPath70)"><tspan
         style="font-variant:normal;font-weight:normal;font-size:13px;font-family:Helvetica;writing-mode:lr-tb;fill:#000000;fill-opacity:1;fill-rule:nonzero;stroke:none"
         x="0"
         y="0"
         id="tspan69">2</tspan></text>
    <path
       id="path71"
       d="m 401,157.88 h 60 v 25 h -60 z"
       style="fill:#ffffff;fill-opacity:1;fill-rule:nonzero;stroke:#000000;stroke-width:1;stroke-linecap:butt;stroke-linejoin:miter;stroke-miterlimit:10;stroke-dasharray:none;stroke-opacity:1"
       transform="matrix(0.95662089,0,0,0.95662089,0.47831045,0.47831045)"
       clip-path="url(#clipPath72)" />
    <text
       id="text72"
       xml:space="preserve"
       transform="matrix(0.95663052,0,0,0.95663052,408.83997,167.41034)"
       clip-path="url(#clipPath73)"><tspan
         style="font-variant:normal;font-weight:normal;font-size:13px;font-family:Helvetica;writing-mode:lr-tb;fill:#000000;fill-opacity:1;fill-rule:nonzero;stroke:none"
         x="0"
         y="0"
         id="tspan72">3</tspan></text>
    <path
       id="path74"
       d="m 461,157.88 h 90 v 25 h -90 z"
       style="fill:#ffffff;fill-opacity:1;fill-rule:nonzero;stroke:#000000;stroke-width:1;stroke-linecap:butt;stroke-linejoin:miter;stroke-miterlimit:10;stroke-dasharray:none;stroke-opacity:1"
       transform="matrix(0.95662089,0,0,0.95662089,0.47831045,0.47831045)"
       clip-path="url(#clipPath75)" />
    <text
       id="text75"
       xml:space="preserve"
       transform="matrix(0.95663052,0,0,0.95663052,480.58726,167.41034)"
       clip-path="url(#clipPath76)"><tspan
         style="font-variant:normal;font-weight:normal;font-size:13px;font-family:Helvetica;writing-mode:lr-tb;fill:#000000;fill-opacity:1;fill-rule:nonzero;stroke:none"
         x="0"
         y="0"
         id="tspan75">2</tspan></text>
    <path
       id="path77"
       d="m 401,182.88 h 60 v 25 h -60 z"
       style="fill:#ffffff;fill-opacity:1;fill-rule:nonzero;stroke:#000000;stroke-width:1;stroke-linecap:butt;stroke-linejoin:miter;stroke-miterlimit:10;stroke-dasharray:none;stroke-opacity:1"
       transform="matrix(0.95662089,0,0,0.95662089,0.47831045,0.47831045)"
       clip-path="url(#clipPath78)" />
    <text
       id="text78"
       xml:space="preserve"
       transform="matrix(0.95663052,0,0,0.95663052,408.83997,191.3261)"
       clip-path="url(#clipPath79)"><tspan
         style="font-variant:normal;font-weight:normal;font-size:13px;font-family:Helvetica;writing-mode:lr-tb;fill:#000000;fill-opacity:1;fill-rule:nonzero;stroke:none"
         x="0"
         y="0"
         id="tspan78">4</tspan></text>
    <path
       id="path80"
       d="m 461,182.88 h 90 v 25 h -90 z"
       style="fill:#ffffff;fill-opacity:1;fill-rule:nonzero;stroke:#000000;stroke-width:1;stroke-linecap:butt;stroke-linejoin:miter;stroke-miterlimit:10;stroke-dasharray:none;stroke-opacity:1"
       transform="matrix(0.95662089,0,0,0.95662089,0.47831045,0.47831045)"
       clip-path="url(#clipPath81)" />
    <text
       id="text81"
       xml:space="preserve"
       transform="matrix(0.95663052,0,0,0.95663052,480.58726,191.3261)"
       clip-path="url(#clipPath82)"><tspan
         style="font-variant:normal;font-weight:normal;font-size:13px;font-family:Helvetica;writing-mode:lr-tb;fill:#000000;fill-opacity:1;fill-rule:nonzero;stroke:none"
         x="0"
         y="0"
         id="tspan81">3</tspan></text>
    <path
       id="path83"
       d="m 401,107.88 h 60 v 25 h -60 z"
       style="fill:#ffffff;fill-opacity:1;fill-rule:nonzero;stroke:#000000;stroke-width:1;stroke-linecap:butt;stroke-linejoin:miter;stroke-miterlimit:10;stroke-dasharray:none;stroke-opacity:1"
       transform="matrix(0.95662089,0,0,0.95662089,0.47831045,0.47831045)"
       clip-path="url(#clipPath84)" />
    <text
       id="text84"
       xml:space="preserve"
       transform="matrix(0.95663052,0,0,0.95663052,408.83997,119.57882)"
       clip-path="url(#clipPath85)"><tspan
         style="font-variant:normal;font-weight:normal;font-size:13px;font-family:Helvetica;writing-mode:lr-tb;fill:#000000;fill-opacity:1;fill-rule:nonzero;stroke:none"
         x="0"
         y="0"
         id="tspan84">1</tspan></text>
    <path
       id="path86"
       d="m 81,107.88 h 90 v 25 H 81 Z"
       style="fill:#ffffff;fill-opacity:1;fill-rule:nonzero;stroke:#000000;stroke-width:1;stroke-linecap:butt;stroke-linejoin:miter;stroke-miterlimit:10;stroke-dasharray:none;stroke-opacity:1"
       transform="matrix(0.95662089,0,0,0.95662089,0.47831045,0.47831045)"
       clip-path="url(#clipPath87)" />
    <text
       id="text87"
       xml:space="preserve"
       transform="matrix(0.95663052,0,0,0.95663052,104.97525,119.57882)"
       clip-path="url(#clipPath88)"><tspan
         style="font-variant:normal;font-weight:normal;font-size:13px;font-family:Helvetica;writing-mode:lr-tb;fill:#000000;fill-opacity:1;fill-rule:nonzero;stroke:none"
         x="0 9.3881836 16.618164 19.506348 22.394531 25.282715"
         y="0"
         sodipodi:role="line"
         id="tspan87">Hallie</tspan></text>
    <path
       id="path89"
       d="m 81,132.88 h 90 v 25 H 81 Z"
       style="fill:#ffffff;fill-opacity:1;fill-rule:nonzero;stroke:#000000;stroke-width:1;stroke-linecap:butt;stroke-linejoin:miter;stroke-miterlimit:10;stroke-dasharray:none;stroke-opacity:1"
       transform="matrix(0.95662089,0,0,0.95662089,0.47831045,0.47831045)"
       clip-path="url(#clipPath90)" />
    <text
       id="text90"
       xml:space="preserve"
       transform="matrix(0.95663052,0,0,0.95663052,104.63146,143.49458)"
       clip-path="url(#clipPath91)"><tspan
         style="font-variant:normal;font-weight:normal;font-size:13px;font-family:Helvetica;writing-mode:lr-tb;fill:#000000;fill-opacity:1;fill-rule:nonzero;stroke:none"
         x="0 8.6708984 11.559082 18.789062 26.019043"
         y="0"
         sodipodi:role="line"
         id="tspan90">Eldon</tspan></text>
    <path
       id="path92"
       d="m 81,157.88 h 90 v 25 H 81 Z"
       style="fill:#ffffff;fill-opacity:1;fill-rule:nonzero;stroke:#000000;stroke-width:1;stroke-linecap:butt;stroke-linejoin:miter;stroke-miterlimit:10;stroke-dasharray:none;stroke-opacity:1"
       transform="matrix(0.95662089,0,0,0.95662089,0.47831045,0.47831045)"
       clip-path="url(#clipPath93)" />
    <text
       id="text93"
       xml:space="preserve"
       transform="matrix(0.95663052,0,0,0.95663052,99.788521,167.41034)"
       clip-path="url(#clipPath94)"><tspan
         style="font-variant:normal;font-weight:normal;font-size:13px;font-family:Helvetica;writing-mode:lr-tb;fill:#000000;fill-opacity:1;fill-rule:nonzero;stroke:none"
         x="0 9.3881836 16.618164 23.118164 30.348145 33.236328 36.124512"
         y="0"
         sodipodi:role="line"
         id="tspan93">Rozella</tspan></text>
    <path
       id="path95"
       d="m 81,182.88 h 90 v 25 H 81 Z"
       style="fill:#ffffff;fill-opacity:1;fill-rule:nonzero;stroke:#000000;stroke-width:1;stroke-linecap:butt;stroke-linejoin:miter;stroke-miterlimit:10;stroke-dasharray:none;stroke-opacity:1"
       transform="matrix(0.95662089,0,0,0.95662089,0.47831045,0.47831045)"
       clip-path="url(#clipPath96)" />
    <text
       id="text96"
       xml:space="preserve"
       transform="matrix(0.95663052,0,0,0.95663052,110.50577,191.3261)"
       clip-path="url(#clipPath97)"><tspan
         style="font-variant:normal;font-weight:normal;font-size:13px;font-family:Helvetica;writing-mode:lr-tb;fill:#000000;fill-opacity:1;fill-rule:nonzero;stroke:none"
         x="0 6.5 13.72998"
         y="0"
         sodipodi:role="line"
         id="tspan96">Tad</tspan></text>
    <path
       id="path98"
       d="M 401,52.880001 H 551 V 82.880005 H 401 Z"
       style="fill:#ffe6cc;fill-opacity:1;fill-rule:nonzero;stroke:#d79b00;stroke-width:1;stroke-linecap:butt;stroke-linejoin:miter;stroke-miterlimit:10;stroke-dasharray:none;stroke-opacity:1"
       transform="matrix(0.95662089,0,0,0.95662089,0.47831045,0.47831045)"
       clip-path="url(#clipPath99)" />
    <text
       id="text99"
       xml:space="preserve"
       transform="matrix(0.95663052,0,0,0.95663052,393.39936,71.747289)"
       clip-path="url(#clipPath100)"><tspan
         style="font-variant:normal;font-weight:700;font-size:21px;font-family:Helvetica;writing-mode:lr-tb;fill:#000000;fill-opacity:1;fill-rule:nonzero;stroke:none"
         x="0 11.679199 23.358398 36.186035 43.179199 49.013672 61.841309 74.668945 86.348145 93.341309 105.02051 117.84814"
         y="0"
         sodipodi:role="line"
         id="tspan99">caption_tags</tspan></text>
    <path
       id="path101"
       d="m 401,82.879997 h 60 V 107.88 h -60 z"
       style="fill:#f5f5f5;fill-opacity:1;fill-rule:nonzero;stroke:#666666;stroke-width:1;stroke-linecap:butt;stroke-linejoin:miter;stroke-miterlimit:10;stroke-dasharray:none;stroke-opacity:1"
       transform="matrix(0.95662089,0,0,0.95662089,0.47831045,0.47831045)"
       clip-path="url(#clipPath102)" />
    <text
       id="text102"
       xml:space="preserve"
       transform="matrix(0.95663052,0,0,0.95663052,406.34377,95.663052)"
       clip-path="url(#clipPath103)"><tspan
         style="font-style:oblique;font-variant:normal;font-weight:normal;font-size:16px;font-family:Helvetica;writing-mode:lr-tb;fill:#333333;fill-opacity:1;fill-rule:nonzero;stroke:none"
         x="0 3.5546875"
         y="0"
         sodipodi:role="line"
         id="tspan102">id</tspan></text>
    <path
       id="path104"
       d="m 461,82.879997 h 90 V 107.88 h -90 z"
       style="fill:#f5f5f5;fill-opacity:1;fill-rule:nonzero;stroke:#666666;stroke-width:1;stroke-linecap:butt;stroke-linejoin:miter;stroke-miterlimit:10;stroke-dasharray:none;stroke-opacity:1"
       transform="matrix(0.95662089,0,0,0.95662089,0.47831045,0.47831045)"
       clip-path="url(#clipPath105)" />
    <text
       id="text105"
       xml:space="preserve"
       transform="matrix(0.95663052,0,0,0.95663052,458.94349,95.663052)"
       clip-path="url(#clipPath106)"><tspan
         style="font-style:oblique;font-variant:normal;font-weight:normal;font-size:16px;font-family:Helvetica;writing-mode:lr-tb;fill:#333333;fill-opacity:1;fill-rule:nonzero;stroke:none"
         x="0 8.8984375 16.898438 25.796875 31.125 40.023438 43.578125"
         y="0"
         sodipodi:role="line"
         id="tspan105">user_id</tspan></text>
  </g>
</svg>
