<?xml version="1.0" encoding="UTF-8" standalone="no"?>
<!-- Created with Inkscape (http://www.inkscape.org/) -->

<svg
   version="1.1"
   id="svg1"
   width="460.16"
   height="312"
   viewBox="0 0 460.16 312"
   sodipodi:docname="sql-15.pdf"
   xmlns:inkscape="http://www.inkscape.org/namespaces/inkscape"
   xmlns:sodipodi="http://sodipodi.sourceforge.net/DTD/sodipodi-0.dtd"
   xmlns="http://www.w3.org/2000/svg"
   xmlns:svg="http://www.w3.org/2000/svg">
  <defs
     id="defs1">
    <clipPath
       clipPathUnits="userSpaceOnUse"
       id="clipPath2">
      <path
         d="M 0,0 H 1437.5 V 974.27234 H 0 Z"
         transform="scale(0.3346087)"
         clip-rule="evenodd"
         id="path2" />
    </clipPath>
    <clipPath
       clipPathUnits="userSpaceOnUse"
       id="clipPath4">
      <path
         d="M 0,0 H 1437.5 V 968.29523 H 0 Z"
         transform="matrix(0.3346087,0,0,0.3346087,-0.50000001,-0.50000001)"
         clip-rule="evenodd"
         id="path4" />
    </clipPath>
    <clipPath
       clipPathUnits="userSpaceOnUse"
       id="clipPath6">
      <path
         d="M 0,0 H 1437.5 V 968.29523 H 0 Z"
         transform="matrix(0.3346087,0,0,0.3346087,-0.50000001,-0.50000001)"
         clip-rule="evenodd"
         id="path6" />
    </clipPath>
    <clipPath
       clipPathUnits="userSpaceOnUse"
       id="clipPath8">
      <path
         d="M 0,0 H 1437.5 V 968.29523 H 0 Z"
         transform="matrix(0.3346087,0,0,0.3346087,-0.50000001,-0.50000001)"
         clip-rule="evenodd"
         id="path8" />
    </clipPath>
    <clipPath
       clipPathUnits="userSpaceOnUse"
       id="clipPath10">
      <path
         d="M 0,0 H 1437.5 V 968.29523 H 0 Z"
         transform="matrix(0.3346087,0,0,0.3346087,-0.50000001,-0.50000001)"
         clip-rule="evenodd"
         id="path10" />
    </clipPath>
    <clipPath
       clipPathUnits="userSpaceOnUse"
       id="clipPath12">
      <path
         d="M 0,0 H 1437.5 V 968.29523 H 0 Z"
         transform="matrix(0.3346087,0,0,0.3346087,-0.50000001,-0.50000001)"
         clip-rule="evenodd"
         id="path12" />
    </clipPath>
    <clipPath
       clipPathUnits="userSpaceOnUse"
       id="clipPath14">
      <path
         d="M 0,0 H 1437.5 V 968.29523 H 0 Z"
         transform="matrix(0.3346087,0,0,0.3346087,-0.50000001,-0.50000001)"
         clip-rule="evenodd"
         id="path14" />
    </clipPath>
    <clipPath
       clipPathUnits="userSpaceOnUse"
       id="clipPath16">
      <path
         d="M 0,0 H 1437.5 V 968.29523 H 0 Z"
         transform="matrix(0.3346087,0,0,0.3346087,-0.50000001,-0.50000001)"
         clip-rule="evenodd"
         id="path16" />
    </clipPath>
    <clipPath
       clipPathUnits="userSpaceOnUse"
       id="clipPath18">
      <path
         d="M 0,0 H 1437.5 V 968.29523 H 0 Z"
         transform="matrix(0.3346087,0,0,0.3346087,-0.50000001,-0.50000001)"
         clip-rule="evenodd"
         id="path18" />
    </clipPath>
    <clipPath
       clipPathUnits="userSpaceOnUse"
       id="clipPath20">
      <path
         d="M 0,0 H 1437.5 V 968.29523 H 0 Z"
         transform="matrix(0.3346087,0,0,0.3346087,-0.50000001,-0.50000001)"
         clip-rule="evenodd"
         id="path20" />
    </clipPath>
    <clipPath
       clipPathUnits="userSpaceOnUse"
       id="clipPath21">
      <path
         d="M 0,0 H 1437.5 V 968.29523 H 0 Z"
         transform="matrix(0.33460534,0,0,0.33460534,-83.46875,-63)"
         clip-rule="evenodd"
         id="path21" />
    </clipPath>
    <clipPath
       clipPathUnits="userSpaceOnUse"
       id="clipPath22">
      <path
         d="M 0,0 H 1437.5 V 968.29523 H 0 Z"
         transform="matrix(0.33460534,0,0,0.33460534,-164.20312,-19)"
         clip-rule="evenodd"
         id="path22" />
    </clipPath>
    <clipPath
       clipPathUnits="userSpaceOnUse"
       id="clipPath24">
      <path
         d="M 0,0 H 1437.5 V 968.29523 H 0 Z"
         transform="matrix(0.3346087,0,0,0.3346087,-0.50000001,-0.50000001)"
         clip-rule="evenodd"
         id="path24" />
    </clipPath>
    <clipPath
       clipPathUnits="userSpaceOnUse"
       id="clipPath25">
      <path
         d="M 0,0 H 1437.5 V 968.29523 H 0 Z"
         transform="matrix(0.33460534,0,0,0.33460534,-140.10937,-123)"
         clip-rule="evenodd"
         id="path25" />
    </clipPath>
    <clipPath
       clipPathUnits="userSpaceOnUse"
       id="clipPath27">
      <path
         d="M 0,0 H 1437.5 V 968.29523 H 0 Z"
         transform="matrix(0.3346087,0,0,0.3346087,-0.50000001,-0.50000001)"
         clip-rule="evenodd"
         id="path27" />
    </clipPath>
    <clipPath
       clipPathUnits="userSpaceOnUse"
       id="clipPath28">
      <path
         d="M 0,0 H 1437.5 V 968.29523 H 0 Z"
         transform="matrix(0.33460534,0,0,0.33460534,-98.140625,-173)"
         clip-rule="evenodd"
         id="path28" />
    </clipPath>
    <clipPath
       clipPathUnits="userSpaceOnUse"
       id="clipPath29">
      <path
         d="M 0,0 H 1437.5 V 968.29523 H 0 Z"
         transform="matrix(0.33460534,0,0,0.33460534,-226.65625,-173)"
         clip-rule="evenodd"
         id="path29" />
    </clipPath>
    <clipPath
       clipPathUnits="userSpaceOnUse"
       id="clipPath30">
      <path
         d="M 0,0 H 1437.5 V 968.29523 H 0 Z"
         transform="matrix(0.33460534,0,0,0.33460534,-237.51563,-194)"
         clip-rule="evenodd"
         id="path30" />
    </clipPath>
    <clipPath
       clipPathUnits="userSpaceOnUse"
       id="clipPath32">
      <path
         d="M 0,0 H 1437.5 V 968.29523 H 0 Z"
         transform="matrix(0.3346087,0,0,0.3346087,-0.50000001,-0.50000001)"
         clip-rule="evenodd"
         id="path32" />
    </clipPath>
    <clipPath
       clipPathUnits="userSpaceOnUse"
       id="clipPath33">
      <path
         d="M 0,0 H 1437.5 V 968.29523 H 0 Z"
         transform="matrix(0.33460534,0,0,0.33460534,-142.0625,-243)"
         clip-rule="evenodd"
         id="path33" />
    </clipPath>
    <clipPath
       clipPathUnits="userSpaceOnUse"
       id="clipPath34">
      <path
         d="M 0,0 H 1437.5 V 968.29523 H 0 Z"
         transform="matrix(0.33460534,0,0,0.33460534,-239.10938,-243)"
         clip-rule="evenodd"
         id="path34" />
    </clipPath>
    <clipPath
       clipPathUnits="userSpaceOnUse"
       id="clipPath36">
      <path
         d="M 0,0 H 1437.5 V 968.29523 H 0 Z"
         transform="matrix(0.3346087,0,0,0.3346087,-0.50000001,-0.50000001)"
         clip-rule="evenodd"
         id="path36" />
    </clipPath>
    <clipPath
       clipPathUnits="userSpaceOnUse"
       id="clipPath37">
      <path
         d="M 0,0 H 1437.5 V 968.29523 H 0 Z"
         transform="matrix(0.33460534,0,0,0.33460534,-134.96875,-303)"
         clip-rule="evenodd"
         id="path37" />
    </clipPath>
    <clipPath
       clipPathUnits="userSpaceOnUse"
       id="clipPath38">
      <path
         d="M 0,0 H 1437.5 V 968.29523 H 0 Z"
         transform="matrix(0.33460534,0,0,0.33460534,-352.03125,-303)"
         clip-rule="evenodd"
         id="path38" />
    </clipPath>
  </defs>
  <sodipodi:namedview
     id="namedview1"
     pagecolor="#ffffff"
     bordercolor="#000000"
     borderopacity="0.25"
     inkscape:showpageshadow="2"
     inkscape:pageopacity="0.0"
     inkscape:pagecheckerboard="0"
     inkscape:deskcolor="#d1d1d1">
    <inkscape:page
       x="0"
       y="0"
       inkscape:label="1"
       id="page1"
       width="460.16"
       height="312"
       margin="0"
       bleed="0" />
  </sodipodi:namedview>
  <g
     id="g1"
     inkscape:groupmode="layer"
     inkscape:label="1">
    <path
       id="path1"
       d="M 0,0 H 481 V 326 H 0 Z"
       style="fill:#ffffff;fill-opacity:1;fill-rule:nonzero;stroke:none"
       transform="scale(0.95634089)"
       clip-path="url(#clipPath2)" />
    <path
       id="path3"
       d="m 8,82 v 35 h 63.629997"
       style="fill:none;stroke:#000000;stroke-width:1;stroke-linecap:butt;stroke-linejoin:miter;stroke-miterlimit:10;stroke-dasharray:none;stroke-opacity:1"
       transform="matrix(0.95634089,0,0,0.95634089,0.47817045,0.47817045)"
       clip-path="url(#clipPath4)" />
    <path
       id="path5"
       d="m 76.879997,117 -7,3.5 1.75,-3.5 -1.75,-3.5 z"
       style="fill:#000000;fill-opacity:1;fill-rule:nonzero;stroke:#000000;stroke-width:1;stroke-linecap:butt;stroke-linejoin:miter;stroke-miterlimit:10;stroke-dasharray:none;stroke-opacity:1"
       transform="matrix(0.95634089,0,0,0.95634089,0.47817045,0.47817045)"
       clip-path="url(#clipPath6)" />
    <path
       id="path7"
       d="m 8,82 v 95 h 63.629997"
       style="fill:none;stroke:#000000;stroke-width:1;stroke-linecap:butt;stroke-linejoin:miter;stroke-miterlimit:10;stroke-dasharray:none;stroke-opacity:1"
       transform="matrix(0.95634089,0,0,0.95634089,0.47817045,0.47817045)"
       clip-path="url(#clipPath8)" />
    <path
       id="path9"
       d="m 76.879997,177 -7,3.5 1.75,-3.5 -1.75,-3.5 z"
       style="fill:#000000;fill-opacity:1;fill-rule:nonzero;stroke:#000000;stroke-width:1;stroke-linecap:butt;stroke-linejoin:miter;stroke-miterlimit:10;stroke-dasharray:none;stroke-opacity:1"
       transform="matrix(0.95634089,0,0,0.95634089,0.47817045,0.47817045)"
       clip-path="url(#clipPath10)" />
    <path
       id="path11"
       d="M 8,82 V 237 H 71.629997"
       style="fill:none;stroke:#000000;stroke-width:1;stroke-linecap:butt;stroke-linejoin:miter;stroke-miterlimit:10;stroke-dasharray:none;stroke-opacity:1"
       transform="matrix(0.95634089,0,0,0.95634089,0.47817045,0.47817045)"
       clip-path="url(#clipPath12)" />
    <path
       id="path13"
       d="m 76.879997,237 -7,3.5 1.75,-3.5 -1.75,-3.5 z"
       style="fill:#000000;fill-opacity:1;fill-rule:nonzero;stroke:#000000;stroke-width:1;stroke-linecap:butt;stroke-linejoin:miter;stroke-miterlimit:10;stroke-dasharray:none;stroke-opacity:1"
       transform="matrix(0.95634089,0,0,0.95634089,0.47817045,0.47817045)"
       clip-path="url(#clipPath14)" />
    <path
       id="path15"
       d="M 8,82 V 297 H 71.629997"
       style="fill:none;stroke:#000000;stroke-width:1;stroke-linecap:butt;stroke-linejoin:miter;stroke-miterlimit:10;stroke-dasharray:none;stroke-opacity:1"
       transform="matrix(0.95634089,0,0,0.95634089,0.47817045,0.47817045)"
       clip-path="url(#clipPath16)" />
    <path
       id="path17"
       d="m 76.879997,297 -7,3.5 1.75,-3.5 -1.75,-3.5 z"
       style="fill:#000000;fill-opacity:1;fill-rule:nonzero;stroke:#000000;stroke-width:1;stroke-linecap:butt;stroke-linejoin:miter;stroke-miterlimit:10;stroke-dasharray:none;stroke-opacity:1"
       transform="matrix(0.95634089,0,0,0.95634089,0.47817045,0.47817045)"
       clip-path="url(#clipPath18)" />
    <path
       id="path19"
       d="M 8,32 H 478 V 82 H 8 Z"
       style="fill:#f5f5f5;fill-opacity:1;fill-rule:nonzero;stroke:#666666;stroke-width:1;stroke-linecap:butt;stroke-linejoin:miter;stroke-miterlimit:10;stroke-dasharray:none;stroke-opacity:1"
       transform="matrix(0.95634089,0,0,0.95634089,0.47817045,0.47817045)"
       clip-path="url(#clipPath20)" />
    <text
       id="text20"
       xml:space="preserve"
       transform="matrix(0.95635052,0,0,0.95635052,79.825382,60.250083)"
       clip-path="url(#clipPath21)"><tspan
         style="font-variant:normal;font-weight:normal;font-size:17px;font-family:Helvetica;writing-mode:lr-tb;fill:#333333;fill-opacity:1;fill-rule:nonzero;stroke:none"
         x="0 15.746582 25.201172 29.924316 38.424316 47.878906 57.333496 62.056641 65.833496 75.288086 83.788086 93.242676 98.903809 103.62695 108.3501 117.80469 123.46582 128.18896 137.64355 147.09814 156.55273 166.00732 170.73047 180.18506 184.9082 190.56934 200.02393 212.30078 220.80078 225.52393 229.30078 238.75537 243.47852 252.93311 257.65625 266.15625 269.93311 279.3877 291.66455 296.3877 300.16455 304.8877 309.61084 314.33398"
         y="0"
         sodipodi:role="line"
         id="tspan20">We can insert or update rows in a view if...</tspan></text>
    <text
       id="text21"
       xml:space="preserve"
       transform="matrix(0.95635052,0,0,0.95635052,157.03574,18.17066)"
       clip-path="url(#clipPath22)"><tspan
         style="font-variant:normal;font-weight:700;font-size:20px;font-family:Helvetica;writing-mode:lr-tb;fill:#000000;fill-opacity:1;fill-rule:nonzero;stroke:none"
         x="0 14.443359 26.660156 38.876953 50 56.660156 67.783203 80 85.556641 96.679688 102.23633 115.22461 120.78125 131.9043 147.46094"
         y="0"
         sodipodi:role="line"
         id="tspan21">Updatable Views</tspan></text>
    <path
       id="path23"
       d="m 78,92 h 400 v 50 H 78 Z"
       style="fill:#f5f5f5;fill-opacity:1;fill-rule:nonzero;stroke:#666666;stroke-width:1;stroke-linecap:butt;stroke-linejoin:miter;stroke-miterlimit:10;stroke-dasharray:none;stroke-opacity:1"
       transform="matrix(0.95634089,0,0,0.95634089,0.47817045,0.47817045)"
       clip-path="url(#clipPath24)" />
    <text
       id="text24"
       xml:space="preserve"
       transform="matrix(0.95635052,0,0,0.95635052,133.99367,117.63111)"
       clip-path="url(#clipPath25)"><tspan
         style="font-variant:normal;font-weight:normal;font-size:17px;font-family:Helvetica;writing-mode:lr-tb;fill:#333333;fill-opacity:1;fill-rule:nonzero;stroke:none"
         x="0 10.384277 19.838867 29.293457 34.016602 42.516602 46.293457 55.748047 68.024902 72.748047 82.202637 91.657227 100.15723 104.88037 114.33496 123.78955 133.24414 137.96729 142.69043 152.14502 161.59961 165.37646 174.83105 179.5542 183.33105 192.78564 197.50879 201.28564 206.00879 214.50879 219.23193 222.47754 232.86182 245.13867 258.36182 272.52295"
         y="0"
         sodipodi:role="line"
         id="tspan24">The view has one table in its 'FROM'</tspan></text>
    <path
       id="path26"
       d="m 78,152 h 400 v 50 H 78 Z"
       style="fill:#f5f5f5;fill-opacity:1;fill-rule:nonzero;stroke:#666666;stroke-width:1;stroke-linecap:butt;stroke-linejoin:miter;stroke-miterlimit:10;stroke-dasharray:none;stroke-opacity:1"
       transform="matrix(0.95634089,0,0,0.95634089,0.47817045,0.47817045)"
       clip-path="url(#clipPath27)" />
    <text
       id="text27"
       xml:space="preserve"
       transform="matrix(0.95635052,0,0,0.95635052,93.856838,165.44864)"
       clip-path="url(#clipPath28)"><tspan
         style="font-variant:normal;font-weight:normal;font-size:17px;font-family:Helvetica;writing-mode:lr-tb;fill:#333333;fill-opacity:1;fill-rule:nonzero;stroke:none"
         x="0 10.384277 19.838867 29.293457 34.016602 42.516602 46.293457 55.748047 68.024902 72.748047 82.202637 91.657227 100.15723 104.88037 114.33496 123.78955"
         y="0"
         sodipodi:role="line"
         id="tspan27">The view has no </tspan></text>
    <text
       id="text28"
       xml:space="preserve"
       transform="matrix(0.95635052,0,0,0.95635052,216.76282,165.44864)"
       clip-path="url(#clipPath29)"><tspan
         style="font-style:oblique;font-variant:normal;font-weight:normal;font-size:17px;font-family:Helvetica;writing-mode:lr-tb;fill:#333333;fill-opacity:1;fill-rule:nonzero;stroke:none"
         x="0 12.276855 16.053711 20.776855 30.231445 34.95459 39.677734 49.132324 52.90918 61.40918 66.132324 69.90918 79.36377 87.86377 92.586914 97.310059 102.0332 111.48779 117.14893 126.60352 136.05811 145.5127 150.23584 159.69043 166.93701 171.66016 176.3833 185.83789 195.29248 203.79248 207.56934 217.02393 226.47852"
         y="0"
         sodipodi:role="line"
         id="tspan28">with, distinct, group by, having,</tspan></text>
    <text
       id="text29"
       xml:space="preserve"
       transform="matrix(0.95635052,0,0,0.95635052,227.1482,185.532)"
       clip-path="url(#clipPath30)"><tspan
         style="font-style:oblique;font-variant:normal;font-weight:normal;font-size:17px;font-family:Helvetica;writing-mode:lr-tb;fill:#333333;fill-opacity:1;fill-rule:nonzero;stroke:none"
         x="0 3.7768555 7.5537109 21.714844 25.491699 30.214844 34.937988 39.661133 49.115723 53.540039 58.263184 66.763184 76.217773"
         y="0"
         sodipodi:role="line"
         id="tspan29">limit, offset</tspan></text>
    <path
       id="path31"
       d="m 78,212 h 400 v 50 H 78 Z"
       style="fill:#f5f5f5;fill-opacity:1;fill-rule:nonzero;stroke:#666666;stroke-width:1;stroke-linecap:butt;stroke-linejoin:miter;stroke-miterlimit:10;stroke-dasharray:none;stroke-opacity:1"
       transform="matrix(0.95634089,0,0,0.95634089,0.47817045,0.47817045)"
       clip-path="url(#clipPath32)" />
    <text
       id="text32"
       xml:space="preserve"
       transform="matrix(0.95635052,0,0,0.95635052,135.86155,232.39318)"
       clip-path="url(#clipPath33)"><tspan
         style="font-variant:normal;font-weight:normal;font-size:17px;font-family:Helvetica;writing-mode:lr-tb;fill:#333333;fill-opacity:1;fill-rule:nonzero;stroke:none"
         x="0 11.040039 14.816895 24.271484 36.54834 41.271484 50.726074 60.180664 68.680664 73.403809 82.858398 92.312988"
         y="0"
         sodipodi:role="line"
         id="tspan32">View has no </tspan></text>
    <text
       id="text33"
       xml:space="preserve"
       transform="matrix(0.95635052,0,0,0.95635052,228.67238,232.39318)"
       clip-path="url(#clipPath34)"><tspan
         style="font-style:oblique;font-variant:normal;font-weight:normal;font-size:17px;font-family:Helvetica;writing-mode:lr-tb;fill:#333333;fill-opacity:1;fill-rule:nonzero;stroke:none"
         x="0 9.4545898 18.90918 22.686035 32.140625 41.595215 46.318359 51.041504 54.818359 64.272949 68.996094 78.450684 84.111816 92.611816 102.06641 110.56641 115.28955 120.0127 124.73584 134.19043 142.69043 151.19043 160.64502 170.09961"
         y="0"
         sodipodi:role="line"
         id="tspan33">union, intersect, except</tspan></text>
    <path
       id="path35"
       d="m 78,272 h 400 v 50 H 78 Z"
       style="fill:#f5f5f5;fill-opacity:1;fill-rule:nonzero;stroke:#666666;stroke-width:1;stroke-linecap:butt;stroke-linejoin:miter;stroke-miterlimit:10;stroke-dasharray:none;stroke-opacity:1"
       transform="matrix(0.95634089,0,0,0.95634089,0.47817045,0.47817045)"
       clip-path="url(#clipPath36)" />
    <text
       id="text36"
       xml:space="preserve"
       transform="matrix(0.95635052,0,0,0.95635052,129.07743,289.77421)"
       clip-path="url(#clipPath37)"><tspan
         style="font-variant:normal;font-weight:normal;font-size:17px;font-family:Helvetica;writing-mode:lr-tb;fill:#333333;fill-opacity:1;fill-rule:nonzero;stroke:none"
         x="0 11.040039 14.816895 24.271484 36.54834 41.271484 50.726074 60.180664 68.680664 73.403809 82.858398 92.312988 97.036133 106.49072 115.94531 125.3999 131.06104 140.51562 149.97021 159.4248 164.14795 173.60254 182.10254 186.82568 190.60254 194.37939 202.87939 212.33398"
         y="0"
         sodipodi:role="line"
         id="tspan36">View has no aggregates like </tspan></text>
    <text
       id="text37"
       xml:space="preserve"
       transform="matrix(0.95635052,0,0,0.95635052,336.66527,289.77421)"
       clip-path="url(#clipPath38)"><tspan
         style="font-style:oblique;font-variant:normal;font-weight:normal;font-size:17px;font-family:Helvetica;writing-mode:lr-tb;fill:#333333;fill-opacity:1;fill-rule:nonzero;stroke:none"
         x="0 9.4545898 17.95459 27.40918 32.132324 36.855469 45.355469 54.810059"
         y="0"
         sodipodi:role="line"
         id="tspan37">avg, sum</tspan></text>
  </g>
</svg>
