<?xml version="1.0" encoding="UTF-8" standalone="no"?>
<!-- Created with Inkscape (http://www.inkscape.org/) -->

<svg
   version="1.1"
   id="svg1"
   width="504"
   height="430.71997"
   viewBox="0 0 504 430.71997"
   sodipodi:docname="sql-17.pdf"
   xmlns:inkscape="http://www.inkscape.org/namespaces/inkscape"
   xmlns:sodipodi="http://sodipodi.sourceforge.net/DTD/sodipodi-0.dtd"
   xmlns="http://www.w3.org/2000/svg"
   xmlns:svg="http://www.w3.org/2000/svg">
  <defs
     id="defs1">
    <clipPath
       clipPathUnits="userSpaceOnUse"
       id="clipPath2">
      <path
         d="M 0,0 H 1575 V 1344 H 0 Z"
         transform="scale(0.33333333)"
         clip-rule="evenodd"
         id="path2" />
    </clipPath>
    <clipPath
       clipPathUnits="userSpaceOnUse"
       id="clipPath4">
      <path
         d="M 0,0 H 1575 V 1341 H 0 Z"
         transform="matrix(0.33333333,0,0,0.33333333,-0.5,-0.5)"
         clip-rule="evenodd"
         id="path4" />
    </clipPath>
    <clipPath
       clipPathUnits="userSpaceOnUse"
       id="clipPath6">
      <path
         d="M 0,0 H 1575 V 1341 H 0 Z"
         transform="matrix(0.33333333,0,0,0.33333333,-0.5,-0.5)"
         clip-rule="evenodd"
         id="path6" />
    </clipPath>
    <clipPath
       clipPathUnits="userSpaceOnUse"
       id="clipPath8">
      <path
         d="M 0,0 H 1575 V 1341 H 0 Z"
         transform="matrix(0.33333333,0,0,0.33333333,-0.5,-0.5)"
         clip-rule="evenodd"
         id="path8" />
    </clipPath>
    <clipPath
       clipPathUnits="userSpaceOnUse"
       id="clipPath9">
      <path
         d="M 0,0 H 637 V 220 H 0 Z"
         transform="matrix(0.33333333,0,0,0.33333333,3.8333333,48.833333)"
         id="path9" />
    </clipPath>
    <clipPath
       clipPathUnits="userSpaceOnUse"
       id="clipPath11">
      <path
         d="M 0,0 H 1575 V 1341 H 0 Z"
         transform="scale(0.31999999)"
         clip-rule="evenodd"
         id="path11" />
    </clipPath>
    <clipPath
       clipPathUnits="userSpaceOnUse"
       id="clipPath13">
      <path
         d="M 0,0 H 1575 V 1341 H 0 Z"
         transform="matrix(0.33333333,0,0,0.33333333,-0.5,-0.5)"
         clip-rule="evenodd"
         id="path13" />
    </clipPath>
    <clipPath
       clipPathUnits="userSpaceOnUse"
       id="clipPath14">
      <path
         d="M 0,0 H 1575 V 1341 H 0 Z"
         transform="matrix(0.33333,0,0,0.33333,-46.84375,-97)"
         clip-rule="evenodd"
         id="path14" />
    </clipPath>
    <clipPath
       clipPathUnits="userSpaceOnUse"
       id="clipPath15">
      <path
         d="M 0,0 H 637 V 220 H 0 Z"
         transform="matrix(0.33333333,0,0,0.33333333,303.83333,48.833333)"
         id="path15" />
    </clipPath>
    <clipPath
       clipPathUnits="userSpaceOnUse"
       id="clipPath17">
      <path
         d="M 0,0 H 1575 V 1341 H 0 Z"
         transform="scale(0.31999999)"
         clip-rule="evenodd"
         id="path17" />
    </clipPath>
    <clipPath
       clipPathUnits="userSpaceOnUse"
       id="clipPath19">
      <path
         d="M 0,0 H 1575 V 1341 H 0 Z"
         transform="matrix(0.33333333,0,0,0.33333333,-0.5,-0.5)"
         clip-rule="evenodd"
         id="path19" />
    </clipPath>
    <clipPath
       clipPathUnits="userSpaceOnUse"
       id="clipPath20">
      <path
         d="M 0,0 H 1575 V 1341 H 0 Z"
         transform="matrix(0.33333,0,0,0.33333,-353.09375,-97)"
         clip-rule="evenodd"
         id="path20" />
    </clipPath>
    <clipPath
       clipPathUnits="userSpaceOnUse"
       id="clipPath21">
      <path
         d="M 0,0 H 1575 V 1341 H 0 Z"
         transform="matrix(0.33333,0,0,0.33333,-43.09375,-36)"
         clip-rule="evenodd"
         id="path21" />
    </clipPath>
    <clipPath
       clipPathUnits="userSpaceOnUse"
       id="clipPath23">
      <path
         d="M 0,0 H 1575 V 1341 H 0 Z"
         transform="matrix(0.33333333,0,0,0.33333333,-0.5,-0.5)"
         clip-rule="evenodd"
         id="path23" />
    </clipPath>
    <clipPath
       clipPathUnits="userSpaceOnUse"
       id="clipPath25">
      <path
         d="M 0,0 H 1575 V 1341 H 0 Z"
         transform="matrix(0.33333333,0,0,0.33333333,-0.5,-0.5)"
         clip-rule="evenodd"
         id="path25" />
    </clipPath>
    <clipPath
       clipPathUnits="userSpaceOnUse"
       id="clipPath27">
      <path
         d="M 0,0 H 1575 V 1341 H 0 Z"
         transform="matrix(0.33333333,0,0,0.33333333,-0.5,-0.5)"
         clip-rule="evenodd"
         id="path27" />
    </clipPath>
    <clipPath
       clipPathUnits="userSpaceOnUse"
       id="clipPath28">
      <path
         d="M 0,0 H 637 V 220 H 0 Z"
         transform="matrix(0.33333333,0,0,0.33333333,3.8333333,128.83333)"
         id="path28" />
    </clipPath>
    <clipPath
       clipPathUnits="userSpaceOnUse"
       id="clipPath30">
      <path
         d="M 0,0 H 1575 V 1341 H 0 Z"
         transform="scale(0.31999999)"
         clip-rule="evenodd"
         id="path30" />
    </clipPath>
    <clipPath
       clipPathUnits="userSpaceOnUse"
       id="clipPath32">
      <path
         d="M 0,0 H 1575 V 1341 H 0 Z"
         transform="matrix(0.33333333,0,0,0.33333333,-0.5,-0.5)"
         clip-rule="evenodd"
         id="path32" />
    </clipPath>
    <clipPath
       clipPathUnits="userSpaceOnUse"
       id="clipPath33">
      <path
         d="M 0,0 H 1575 V 1341 H 0 Z"
         transform="matrix(0.33333,0,0,0.33333,-69.09375,-177)"
         clip-rule="evenodd"
         id="path33" />
    </clipPath>
    <clipPath
       clipPathUnits="userSpaceOnUse"
       id="clipPath34">
      <path
         d="M 0,0 H 637 V 220 H 0 Z"
         transform="matrix(0.33333333,0,0,0.33333333,303.83333,128.83333)"
         id="path34" />
    </clipPath>
    <clipPath
       clipPathUnits="userSpaceOnUse"
       id="clipPath36">
      <path
         d="M 0,0 H 1575 V 1341 H 0 Z"
         transform="scale(0.31999999)"
         clip-rule="evenodd"
         id="path36" />
    </clipPath>
    <clipPath
       clipPathUnits="userSpaceOnUse"
       id="clipPath38">
      <path
         d="M 0,0 H 1575 V 1341 H 0 Z"
         transform="matrix(0.33333333,0,0,0.33333333,-0.5,-0.5)"
         clip-rule="evenodd"
         id="path38" />
    </clipPath>
    <clipPath
       clipPathUnits="userSpaceOnUse"
       id="clipPath39">
      <path
         d="M 0,0 H 1575 V 1341 H 0 Z"
         transform="matrix(0.33333,0,0,0.33333,-337.95313,-177)"
         clip-rule="evenodd"
         id="path39" />
    </clipPath>
    <clipPath
       clipPathUnits="userSpaceOnUse"
       id="clipPath41">
      <path
         d="M 0,0 H 1575 V 1341 H 0 Z"
         transform="matrix(0.33333333,0,0,0.33333333,-0.5,-0.5)"
         clip-rule="evenodd"
         id="path41" />
    </clipPath>
    <clipPath
       clipPathUnits="userSpaceOnUse"
       id="clipPath43">
      <path
         d="M 0,0 H 1575 V 1341 H 0 Z"
         transform="matrix(0.33333333,0,0,0.33333333,-0.5,-0.5)"
         clip-rule="evenodd"
         id="path43" />
    </clipPath>
    <clipPath
       clipPathUnits="userSpaceOnUse"
       id="clipPath45">
      <path
         d="M 0,0 H 1575 V 1341 H 0 Z"
         transform="matrix(0.33333333,0,0,0.33333333,-0.5,-0.5)"
         clip-rule="evenodd"
         id="path45" />
    </clipPath>
    <clipPath
       clipPathUnits="userSpaceOnUse"
       id="clipPath46">
      <path
         d="M 0,0 H 637 V 220 H 0 Z"
         transform="matrix(0.33333333,0,0,0.33333333,3.8333333,208.83333)"
         id="path46" />
    </clipPath>
    <clipPath
       clipPathUnits="userSpaceOnUse"
       id="clipPath48">
      <path
         d="M 0,0 H 1575 V 1341 H 0 Z"
         transform="scale(0.31999999)"
         clip-rule="evenodd"
         id="path48" />
    </clipPath>
    <clipPath
       clipPathUnits="userSpaceOnUse"
       id="clipPath50">
      <path
         d="M 0,0 H 1575 V 1341 H 0 Z"
         transform="matrix(0.33333333,0,0,0.33333333,-0.5,-0.5)"
         clip-rule="evenodd"
         id="path50" />
    </clipPath>
    <clipPath
       clipPathUnits="userSpaceOnUse"
       id="clipPath51">
      <path
         d="M 0,0 H 1575 V 1341 H 0 Z"
         transform="matrix(0.33333,0,0,0.33333,-56.640624,-256)"
         clip-rule="evenodd"
         id="path51" />
    </clipPath>
    <clipPath
       clipPathUnits="userSpaceOnUse"
       id="clipPath52">
      <path
         d="M 0,0 H 637 V 220 H 0 Z"
         transform="matrix(0.33333333,0,0,0.33333333,303.83333,208.83333)"
         id="path52" />
    </clipPath>
    <clipPath
       clipPathUnits="userSpaceOnUse"
       id="clipPath54">
      <path
         d="M 0,0 H 1575 V 1341 H 0 Z"
         transform="scale(0.31999999)"
         clip-rule="evenodd"
         id="path54" />
    </clipPath>
    <clipPath
       clipPathUnits="userSpaceOnUse"
       id="clipPath56">
      <path
         d="M 0,0 H 1575 V 1341 H 0 Z"
         transform="matrix(0.33333333,0,0,0.33333333,-0.5,-0.5)"
         clip-rule="evenodd"
         id="path56" />
    </clipPath>
    <clipPath
       clipPathUnits="userSpaceOnUse"
       id="clipPath57">
      <path
         d="M 0,0 H 1575 V 1341 H 0 Z"
         transform="matrix(0.33333,0,0,0.33333,-353.07813,-237)"
         clip-rule="evenodd"
         id="path57" />
    </clipPath>
    <clipPath
       clipPathUnits="userSpaceOnUse"
       id="clipPath58">
      <path
         d="M 0,0 H 1575 V 1341 H 0 Z"
         transform="matrix(0.33333,0,0,0.33333,-349.53125,-276)"
         clip-rule="evenodd"
         id="path58" />
    </clipPath>
    <clipPath
       clipPathUnits="userSpaceOnUse"
       id="clipPath60">
      <path
         d="M 0,0 H 1575 V 1341 H 0 Z"
         transform="matrix(0.33333333,0,0,0.33333333,-0.5,-0.5)"
         clip-rule="evenodd"
         id="path60" />
    </clipPath>
    <clipPath
       clipPathUnits="userSpaceOnUse"
       id="clipPath62">
      <path
         d="M 0,0 H 1575 V 1341 H 0 Z"
         transform="matrix(0.33333333,0,0,0.33333333,-0.5,-0.5)"
         clip-rule="evenodd"
         id="path62" />
    </clipPath>
    <clipPath
       clipPathUnits="userSpaceOnUse"
       id="clipPath64">
      <path
         d="M 0,0 H 1575 V 1341 H 0 Z"
         transform="matrix(0.33333333,0,0,0.33333333,-0.5,-0.5)"
         clip-rule="evenodd"
         id="path64" />
    </clipPath>
    <clipPath
       clipPathUnits="userSpaceOnUse"
       id="clipPath65">
      <path
         d="M 0,0 H 637 V 220 H 0 Z"
         transform="matrix(0.33333333,0,0,0.33333333,3.8333333,288.83333)"
         id="path65" />
    </clipPath>
    <clipPath
       clipPathUnits="userSpaceOnUse"
       id="clipPath67">
      <path
         d="M 0,0 H 1575 V 1341 H 0 Z"
         transform="scale(0.31999999)"
         clip-rule="evenodd"
         id="path67" />
    </clipPath>
    <clipPath
       clipPathUnits="userSpaceOnUse"
       id="clipPath69">
      <path
         d="M 0,0 H 1575 V 1341 H 0 Z"
         transform="matrix(0.33333333,0,0,0.33333333,-0.5,-0.5)"
         clip-rule="evenodd"
         id="path69" />
    </clipPath>
    <clipPath
       clipPathUnits="userSpaceOnUse"
       id="clipPath70">
      <path
         d="M 0,0 H 1575 V 1341 H 0 Z"
         transform="matrix(0.33333,0,0,0.33333,-59.3125,-337)"
         clip-rule="evenodd"
         id="path70" />
    </clipPath>
    <clipPath
       clipPathUnits="userSpaceOnUse"
       id="clipPath71">
      <path
         d="M 0,0 H 637 V 220 H 0 Z"
         transform="matrix(0.33333333,0,0,0.33333333,303.83333,288.83333)"
         id="path71" />
    </clipPath>
    <clipPath
       clipPathUnits="userSpaceOnUse"
       id="clipPath73">
      <path
         d="M 0,0 H 1575 V 1341 H 0 Z"
         transform="scale(0.31999999)"
         clip-rule="evenodd"
         id="path73" />
    </clipPath>
    <clipPath
       clipPathUnits="userSpaceOnUse"
       id="clipPath75">
      <path
         d="M 0,0 H 1575 V 1341 H 0 Z"
         transform="matrix(0.33333333,0,0,0.33333333,-0.5,-0.5)"
         clip-rule="evenodd"
         id="path75" />
    </clipPath>
    <clipPath
       clipPathUnits="userSpaceOnUse"
       id="clipPath76">
      <path
         d="M 0,0 H 1575 V 1341 H 0 Z"
         transform="matrix(0.33333,0,0,0.33333,-360.20313,-318)"
         clip-rule="evenodd"
         id="path76" />
    </clipPath>
    <clipPath
       clipPathUnits="userSpaceOnUse"
       id="clipPath77">
      <path
         d="M 0,0 H 1575 V 1341 H 0 Z"
         transform="matrix(0.33333,0,0,0.33333,-339.75,-357)"
         clip-rule="evenodd"
         id="path77" />
    </clipPath>
    <clipPath
       clipPathUnits="userSpaceOnUse"
       id="clipPath79">
      <path
         d="M 0,0 H 1575 V 1341 H 0 Z"
         transform="matrix(0.33333333,0,0,0.33333333,-0.5,-0.5)"
         clip-rule="evenodd"
         id="path79" />
    </clipPath>
    <clipPath
       clipPathUnits="userSpaceOnUse"
       id="clipPath81">
      <path
         d="M 0,0 H 1575 V 1341 H 0 Z"
         transform="matrix(0.33333333,0,0,0.33333333,-0.5,-0.5)"
         clip-rule="evenodd"
         id="path81" />
    </clipPath>
    <clipPath
       clipPathUnits="userSpaceOnUse"
       id="clipPath83">
      <path
         d="M 0,0 H 1575 V 1341 H 0 Z"
         transform="matrix(0.33333333,0,0,0.33333333,-0.5,-0.5)"
         clip-rule="evenodd"
         id="path83" />
    </clipPath>
    <clipPath
       clipPathUnits="userSpaceOnUse"
       id="clipPath84">
      <path
         d="M 0,0 H 637 V 220 H 0 Z"
         transform="matrix(0.33333333,0,0,0.33333333,3.8333333,368.83333)"
         id="path84" />
    </clipPath>
    <clipPath
       clipPathUnits="userSpaceOnUse"
       id="clipPath86">
      <path
         d="M 0,0 H 1575 V 1341 H 0 Z"
         transform="scale(0.31999999)"
         clip-rule="evenodd"
         id="path86" />
    </clipPath>
    <clipPath
       clipPathUnits="userSpaceOnUse"
       id="clipPath88">
      <path
         d="M 0,0 H 1575 V 1341 H 0 Z"
         transform="matrix(0.33333333,0,0,0.33333333,-0.5,-0.5)"
         clip-rule="evenodd"
         id="path88" />
    </clipPath>
    <clipPath
       clipPathUnits="userSpaceOnUse"
       id="clipPath89">
      <path
         d="M 0,0 H 1575 V 1341 H 0 Z"
         transform="matrix(0.33333,0,0,0.33333,-27.28125,-397.99999)"
         clip-rule="evenodd"
         id="path89" />
    </clipPath>
    <clipPath
       clipPathUnits="userSpaceOnUse"
       id="clipPath90">
      <path
         d="M 0,0 H 1575 V 1341 H 0 Z"
         transform="matrix(0.33333,0,0,0.33333,-74.4375,-437)"
         clip-rule="evenodd"
         id="path90" />
    </clipPath>
    <clipPath
       clipPathUnits="userSpaceOnUse"
       id="clipPath91">
      <path
         d="M 0,0 H 637 V 220 H 0 Z"
         transform="matrix(0.33333333,0,0,0.33333333,303.83333,368.83333)"
         id="path91" />
    </clipPath>
    <clipPath
       clipPathUnits="userSpaceOnUse"
       id="clipPath93">
      <path
         d="M 0,0 H 1575 V 1341 H 0 Z"
         transform="scale(0.31999999)"
         clip-rule="evenodd"
         id="path93" />
    </clipPath>
    <clipPath
       clipPathUnits="userSpaceOnUse"
       id="clipPath95">
      <path
         d="M 0,0 H 1575 V 1341 H 0 Z"
         transform="matrix(0.33333333,0,0,0.33333333,-0.5,-0.5)"
         clip-rule="evenodd"
         id="path95" />
    </clipPath>
    <clipPath
       clipPathUnits="userSpaceOnUse"
       id="clipPath96">
      <path
         d="M 0,0 H 1575 V 1341 H 0 Z"
         transform="matrix(0.33333,0,0,0.33333,-330.84375,-417)"
         clip-rule="evenodd"
         id="path96" />
    </clipPath>
  </defs>
  <sodipodi:namedview
     id="namedview1"
     pagecolor="#ffffff"
     bordercolor="#000000"
     borderopacity="0.25"
     inkscape:showpageshadow="2"
     inkscape:pageopacity="0.0"
     inkscape:pagecheckerboard="0"
     inkscape:deskcolor="#d1d1d1">
    <inkscape:page
       x="0"
       y="0"
       inkscape:label="1"
       id="page1"
       width="504"
       height="430.71997"
       margin="0"
       bleed="0" />
  </sodipodi:namedview>
  <g
     id="g1"
     inkscape:groupmode="layer"
     inkscape:label="1">
    <path
       id="path1"
       d="M 0,0 H 525 V 448 H 0 Z"
       style="fill:#ffffff;fill-opacity:1;fill-rule:nonzero;stroke:none"
       transform="scale(0.95999996)"
       clip-path="url(#clipPath2)" />
    <path
       id="path3"
       d="m 225.11,85.5 h 69.78999"
       style="fill:none;stroke:#000000;stroke-width:1;stroke-linecap:butt;stroke-linejoin:miter;stroke-miterlimit:10;stroke-dasharray:none;stroke-opacity:1"
       transform="matrix(0.95999996,0,0,0.95999996,0.47999998,0.47999998)"
       clip-path="url(#clipPath4)" />
    <path
       id="path5"
       d="m 218.36,85.5 9,-4.5 -2.25,4.5 2.25,4.5 z"
       style="fill:#000000;fill-opacity:1;fill-rule:nonzero;stroke:#000000;stroke-width:1;stroke-linecap:butt;stroke-linejoin:miter;stroke-miterlimit:10;stroke-dasharray:none;stroke-opacity:1"
       transform="matrix(0.95999996,0,0,0.95999996,0.47999998,0.47999998)"
       clip-path="url(#clipPath6)" />
    <path
       id="path7"
       d="m 301.64999,85.5 -9,4.5 2.25,-4.5 -2.25,-4.5 z"
       style="fill:#000000;fill-opacity:1;fill-rule:nonzero;stroke:#000000;stroke-width:1;stroke-linecap:butt;stroke-linejoin:miter;stroke-miterlimit:10;stroke-dasharray:none;stroke-opacity:1"
       transform="matrix(0.95999996,0,0,0.95999996,0.47999998,0.47999998)"
       clip-path="url(#clipPath8)" />
    <g
       opacity="0.25"
       id="g10"
       clip-path="url(#clipPath11)">
      <path
         d="m 5,50 h 210 v 71 H 5 Z"
         style="fill:#000000;fill-opacity:1;fill-rule:nonzero;stroke:#000000;stroke-width:1;stroke-linecap:butt;stroke-linejoin:miter;stroke-miterlimit:10;stroke-dasharray:none;stroke-opacity:1"
         transform="matrix(0.95999996,0,0,0.95999996,2.3999999,3.3599999)"
         clip-path="url(#clipPath9)"
         id="path10" />
    </g>
    <path
       id="path12"
       d="m 5,50 h 210 v 71 H 5 Z"
       style="fill:#dae8fc;fill-opacity:1;fill-rule:nonzero;stroke:#6c8ebf;stroke-width:1;stroke-linecap:butt;stroke-linejoin:miter;stroke-miterlimit:10;stroke-dasharray:none;stroke-opacity:1"
       transform="matrix(0.95999996,0,0,0.95999996,0.47999998,0.47999998)"
       clip-path="url(#clipPath13)" />
    <text
       id="text13"
       xml:space="preserve"
       transform="matrix(0.96000956,0,0,0.96000956,44.970448,93.120927)"
       clip-path="url(#clipPath14)"><tspan
         style="font-variant:normal;font-weight:normal;font-size:32px;font-family:Helvetica;writing-mode:lr-tb;fill:#000000;fill-opacity:1;fill-rule:nonzero;stroke:none"
         x="0 21.34375 30.234375 48.03125 65.828125 83.625 101.42188 110.3125"
         y="0"
         sodipodi:role="line"
         id="tspan13">Students</tspan></text>
    <g
       opacity="0.25"
       id="g16"
       clip-path="url(#clipPath17)">
      <path
         d="m 305,50 h 210 v 71 H 305 Z"
         style="fill:#000000;fill-opacity:1;fill-rule:nonzero;stroke:#000000;stroke-width:1;stroke-linecap:butt;stroke-linejoin:miter;stroke-miterlimit:10;stroke-dasharray:none;stroke-opacity:1"
         transform="matrix(0.95999996,0,0,0.95999996,2.3999999,3.3599999)"
         clip-path="url(#clipPath15)"
         id="path16" />
    </g>
    <path
       id="path18"
       d="m 305,50 h 210 v 71 H 305 Z"
       style="fill:#dae8fc;fill-opacity:1;fill-rule:nonzero;stroke:#6c8ebf;stroke-width:1;stroke-linecap:butt;stroke-linejoin:miter;stroke-miterlimit:10;stroke-dasharray:none;stroke-opacity:1"
       transform="matrix(0.95999996,0,0,0.95999996,0.47999998,0.47999998)"
       clip-path="url(#clipPath19)" />
    <text
       id="text19"
       xml:space="preserve"
       transform="matrix(0.96000956,0,0,0.96000956,338.97338,93.120927)"
       clip-path="url(#clipPath20)"><tspan
         style="font-variant:normal;font-weight:normal;font-size:32px;font-family:Helvetica;writing-mode:lr-tb;fill:#000000;fill-opacity:1;fill-rule:nonzero;stroke:none"
         x="0 23.109375 30.21875 48.015625 64.015625 80.015625 97.8125"
         y="0"
         sodipodi:role="line"
         id="tspan19">Classes</tspan></text>
    <text
       id="text20"
       xml:space="preserve"
       transform="matrix(0.96000956,0,0,0.96000956,41.370412,34.560344)"
       clip-path="url(#clipPath21)"><tspan
         style="font-variant:normal;font-weight:700;font-size:32px;font-family:Helvetica;writing-mode:lr-tb;fill:#000000;fill-opacity:1;fill-rule:nonzero;stroke:none"
         x="0 26.65625 44.453125 64 81.796875 92.453125 103.10938 122.65625 133.3125 159.96875 177.76562 197.3125 215.10938 224 247.10938 264.90625 273.79688 291.59375 302.25 311.14062 330.6875 350.23438 368.03125 387.57812 396.46875 416.01562"
         y="0"
         sodipodi:role="line"
         id="tspan20">Many-to-Many Relationships</tspan></text>
    <path
       id="path22"
       d="m 225.11,165.5 h 69.78999"
       style="fill:none;stroke:#000000;stroke-width:1;stroke-linecap:butt;stroke-linejoin:miter;stroke-miterlimit:10;stroke-dasharray:none;stroke-opacity:1"
       transform="matrix(0.95999996,0,0,0.95999996,0.47999998,0.47999998)"
       clip-path="url(#clipPath23)" />
    <path
       id="path24"
       d="m 218.36,165.5 9,-4.5 -2.25,4.5 2.25,4.5 z"
       style="fill:#000000;fill-opacity:1;fill-rule:nonzero;stroke:#000000;stroke-width:1;stroke-linecap:butt;stroke-linejoin:miter;stroke-miterlimit:10;stroke-dasharray:none;stroke-opacity:1"
       transform="matrix(0.95999996,0,0,0.95999996,0.47999998,0.47999998)"
       clip-path="url(#clipPath25)" />
    <path
       id="path26"
       d="m 301.64999,165.5 -9,4.5 2.25,-4.5 -2.25,-4.5 z"
       style="fill:#000000;fill-opacity:1;fill-rule:nonzero;stroke:#000000;stroke-width:1;stroke-linecap:butt;stroke-linejoin:miter;stroke-miterlimit:10;stroke-dasharray:none;stroke-opacity:1"
       transform="matrix(0.95999996,0,0,0.95999996,0.47999998,0.47999998)"
       clip-path="url(#clipPath27)" />
    <g
       opacity="0.25"
       id="g29"
       clip-path="url(#clipPath30)">
      <path
         d="m 5,130 h 210 v 71 H 5 Z"
         style="fill:#000000;fill-opacity:1;fill-rule:nonzero;stroke:#000000;stroke-width:1;stroke-linecap:butt;stroke-linejoin:miter;stroke-miterlimit:10;stroke-dasharray:none;stroke-opacity:1"
         transform="matrix(0.95999996,0,0,0.95999996,2.3999999,3.3599999)"
         clip-path="url(#clipPath28)"
         id="path29" />
    </g>
    <path
       id="path31"
       d="m 5,130 h 210 v 71 H 5 Z"
       style="fill:#dae8fc;fill-opacity:1;fill-rule:nonzero;stroke:#6c8ebf;stroke-width:1;stroke-linecap:butt;stroke-linejoin:miter;stroke-miterlimit:10;stroke-dasharray:none;stroke-opacity:1"
       transform="matrix(0.95999996,0,0,0.95999996,0.47999998,0.47999998)"
       clip-path="url(#clipPath32)" />
    <text
       id="text32"
       xml:space="preserve"
       transform="matrix(0.96000956,0,0,0.96000956,66.330661,169.92169)"
       clip-path="url(#clipPath33)"><tspan
         style="font-variant:normal;font-weight:normal;font-size:32px;font-family:Helvetica;writing-mode:lr-tb;fill:#000000;fill-opacity:1;fill-rule:nonzero;stroke:none"
         x="0 16 33.796875 49.796875 65.796875"
         y="0"
         sodipodi:role="line"
         id="tspan32">Tasks</tspan></text>
    <g
       opacity="0.25"
       id="g35"
       clip-path="url(#clipPath36)">
      <path
         d="m 305,130 h 210 v 71 H 305 Z"
         style="fill:#000000;fill-opacity:1;fill-rule:nonzero;stroke:#000000;stroke-width:1;stroke-linecap:butt;stroke-linejoin:miter;stroke-miterlimit:10;stroke-dasharray:none;stroke-opacity:1"
         transform="matrix(0.95999996,0,0,0.95999996,2.3999999,3.3599999)"
         clip-path="url(#clipPath34)"
         id="path35" />
    </g>
    <path
       id="path37"
       d="m 305,130 h 210 v 71 H 305 Z"
       style="fill:#dae8fc;fill-opacity:1;fill-rule:nonzero;stroke:#6c8ebf;stroke-width:1;stroke-linecap:butt;stroke-linejoin:miter;stroke-miterlimit:10;stroke-dasharray:none;stroke-opacity:1"
       transform="matrix(0.95999996,0,0,0.95999996,0.47999998,0.47999998)"
       clip-path="url(#clipPath38)" />
    <text
       id="text38"
       xml:space="preserve"
       transform="matrix(0.96000956,0,0,0.96000956,324.43824,169.92169)"
       clip-path="url(#clipPath39)"><tspan
         style="font-variant:normal;font-weight:normal;font-size:32px;font-family:Helvetica;writing-mode:lr-tb;fill:#000000;fill-opacity:1;fill-rule:nonzero;stroke:none"
         x="0 21.34375 39.140625 56.9375 64.046875 81.84375 99.640625 117.4375 128.09375"
         y="0"
         sodipodi:role="line"
         id="tspan38">Engineers</tspan></text>
    <path
       id="path40"
       d="m 225.11,245.5 h 69.78999"
       style="fill:none;stroke:#000000;stroke-width:1;stroke-linecap:butt;stroke-linejoin:miter;stroke-miterlimit:10;stroke-dasharray:none;stroke-opacity:1"
       transform="matrix(0.95999996,0,0,0.95999996,0.47999998,0.47999998)"
       clip-path="url(#clipPath41)" />
    <path
       id="path42"
       d="m 218.36,245.5 9,-4.5 -2.25,4.5 2.25,4.5 z"
       style="fill:#000000;fill-opacity:1;fill-rule:nonzero;stroke:#000000;stroke-width:1;stroke-linecap:butt;stroke-linejoin:miter;stroke-miterlimit:10;stroke-dasharray:none;stroke-opacity:1"
       transform="matrix(0.95999996,0,0,0.95999996,0.47999998,0.47999998)"
       clip-path="url(#clipPath43)" />
    <path
       id="path44"
       d="m 301.64999,245.5 -9,4.5 2.25,-4.5 -2.25,-4.5 z"
       style="fill:#000000;fill-opacity:1;fill-rule:nonzero;stroke:#000000;stroke-width:1;stroke-linecap:butt;stroke-linejoin:miter;stroke-miterlimit:10;stroke-dasharray:none;stroke-opacity:1"
       transform="matrix(0.95999996,0,0,0.95999996,0.47999998,0.47999998)"
       clip-path="url(#clipPath45)" />
    <g
       opacity="0.25"
       id="g47"
       clip-path="url(#clipPath48)">
      <path
         d="m 5,210 h 210 v 71 H 5 Z"
         style="fill:#000000;fill-opacity:1;fill-rule:nonzero;stroke:#000000;stroke-width:1;stroke-linecap:butt;stroke-linejoin:miter;stroke-miterlimit:10;stroke-dasharray:none;stroke-opacity:1"
         transform="matrix(0.95999996,0,0,0.95999996,2.3999999,3.3599999)"
         clip-path="url(#clipPath46)"
         id="path47" />
    </g>
    <path
       id="path49"
       d="m 5,210 h 210 v 71 H 5 Z"
       style="fill:#dae8fc;fill-opacity:1;fill-rule:nonzero;stroke:#6c8ebf;stroke-width:1;stroke-linecap:butt;stroke-linejoin:miter;stroke-miterlimit:10;stroke-dasharray:none;stroke-opacity:1"
       transform="matrix(0.95999996,0,0,0.95999996,0.47999998,0.47999998)"
       clip-path="url(#clipPath50)" />
    <text
       id="text50"
       xml:space="preserve"
       transform="matrix(0.96000956,0,0,0.96000956,54.375541,245.76245)"
       clip-path="url(#clipPath51)"><tspan
         style="font-variant:normal;font-weight:normal;font-size:32px;font-family:Helvetica;writing-mode:lr-tb;fill:#000000;fill-opacity:1;fill-rule:nonzero;stroke:none"
         x="0 21.34375 28.453125 46.25 62.25 80.046875 90.703125"
         y="0"
         sodipodi:role="line"
         id="tspan50">Players</tspan></text>
    <g
       opacity="0.25"
       id="g53"
       clip-path="url(#clipPath54)">
      <path
         d="m 305,210 h 210 v 71 H 305 Z"
         style="fill:#000000;fill-opacity:1;fill-rule:nonzero;stroke:#000000;stroke-width:1;stroke-linecap:butt;stroke-linejoin:miter;stroke-miterlimit:10;stroke-dasharray:none;stroke-opacity:1"
         transform="matrix(0.95999996,0,0,0.95999996,2.3999999,3.3599999)"
         clip-path="url(#clipPath52)"
         id="path53" />
    </g>
    <path
       id="path55"
       d="m 305,210 h 210 v 71 H 305 Z"
       style="fill:#dae8fc;fill-opacity:1;fill-rule:nonzero;stroke:#6c8ebf;stroke-width:1;stroke-linecap:butt;stroke-linejoin:miter;stroke-miterlimit:10;stroke-dasharray:none;stroke-opacity:1"
       transform="matrix(0.95999996,0,0,0.95999996,0.47999998,0.47999998)"
       clip-path="url(#clipPath56)" />
    <text
       id="text56"
       xml:space="preserve"
       transform="matrix(0.96000956,0,0,0.96000956,338.95838,227.52227)"
       clip-path="url(#clipPath57)"><tspan
         style="font-variant:normal;font-weight:normal;font-size:32px;font-family:Helvetica;writing-mode:lr-tb;fill:#000000;fill-opacity:1;fill-rule:nonzero;stroke:none"
         x="0 19.546875 37.34375 55.140625 64.03125 81.828125 99.625 106.73438"
         y="0"
         sodipodi:role="line"
         id="tspan56">Football</tspan></text>
    <text
       id="text57"
       xml:space="preserve"
       transform="matrix(0.96000956,0,0,0.96000956,335.55334,264.96264)"
       clip-path="url(#clipPath58)"><tspan
         style="font-variant:normal;font-weight:normal;font-size:32px;font-family:Helvetica;writing-mode:lr-tb;fill:#000000;fill-opacity:1;fill-rule:nonzero;stroke:none"
         x="0 26.65625 44.453125 53.34375 69.34375 87.140625 104.9375"
         y="0"
         sodipodi:role="line"
         id="tspan57">Matches</tspan></text>
    <path
       id="path59"
       d="m 225.11,325.5 h 69.78999"
       style="fill:none;stroke:#000000;stroke-width:1;stroke-linecap:butt;stroke-linejoin:miter;stroke-miterlimit:10;stroke-dasharray:none;stroke-opacity:1"
       transform="matrix(0.95999996,0,0,0.95999996,0.47999998,0.47999998)"
       clip-path="url(#clipPath60)" />
    <path
       id="path61"
       d="m 218.36,325.5 9,-4.5 -2.25,4.5 2.25,4.5 z"
       style="fill:#000000;fill-opacity:1;fill-rule:nonzero;stroke:#000000;stroke-width:1;stroke-linecap:butt;stroke-linejoin:miter;stroke-miterlimit:10;stroke-dasharray:none;stroke-opacity:1"
       transform="matrix(0.95999996,0,0,0.95999996,0.47999998,0.47999998)"
       clip-path="url(#clipPath62)" />
    <path
       id="path63"
       d="m 301.64999,325.5 -9,4.5 2.25,-4.5 -2.25,-4.5 z"
       style="fill:#000000;fill-opacity:1;fill-rule:nonzero;stroke:#000000;stroke-width:1;stroke-linecap:butt;stroke-linejoin:miter;stroke-miterlimit:10;stroke-dasharray:none;stroke-opacity:1"
       transform="matrix(0.95999996,0,0,0.95999996,0.47999998,0.47999998)"
       clip-path="url(#clipPath64)" />
    <g
       opacity="0.25"
       id="g66"
       clip-path="url(#clipPath67)">
      <path
         d="m 5,290 h 210 v 71 H 5 Z"
         style="fill:#000000;fill-opacity:1;fill-rule:nonzero;stroke:#000000;stroke-width:1;stroke-linecap:butt;stroke-linejoin:miter;stroke-miterlimit:10;stroke-dasharray:none;stroke-opacity:1"
         transform="matrix(0.95999996,0,0,0.95999996,2.3999999,3.3599999)"
         clip-path="url(#clipPath65)"
         id="path66" />
    </g>
    <path
       id="path68"
       d="m 5,290 h 210 v 71 H 5 Z"
       style="fill:#dae8fc;fill-opacity:1;fill-rule:nonzero;stroke:#6c8ebf;stroke-width:1;stroke-linecap:butt;stroke-linejoin:miter;stroke-miterlimit:10;stroke-dasharray:none;stroke-opacity:1"
       transform="matrix(0.95999996,0,0,0.95999996,0.47999998,0.47999998)"
       clip-path="url(#clipPath69)" />
    <text
       id="text69"
       xml:space="preserve"
       transform="matrix(0.96000956,0,0,0.96000956,56.940567,323.52322)"
       clip-path="url(#clipPath70)"><tspan
         style="font-variant:normal;font-weight:normal;font-size:32px;font-family:Helvetica;writing-mode:lr-tb;fill:#000000;fill-opacity:1;fill-rule:nonzero;stroke:none"
         x="0 26.65625 44.453125 60.453125 67.5625 85.359375"
         y="0"
         sodipodi:role="line"
         id="tspan69">Movies</tspan></text>
    <g
       opacity="0.25"
       id="g72"
       clip-path="url(#clipPath73)">
      <path
         d="m 305,290 h 210 v 71 H 305 Z"
         style="fill:#000000;fill-opacity:1;fill-rule:nonzero;stroke:#000000;stroke-width:1;stroke-linecap:butt;stroke-linejoin:miter;stroke-miterlimit:10;stroke-dasharray:none;stroke-opacity:1"
         transform="matrix(0.95999996,0,0,0.95999996,2.3999999,3.3599999)"
         clip-path="url(#clipPath71)"
         id="path72" />
    </g>
    <path
       id="path74"
       d="m 305,290 h 210 v 71 H 305 Z"
       style="fill:#dae8fc;fill-opacity:1;fill-rule:nonzero;stroke:#6c8ebf;stroke-width:1;stroke-linecap:butt;stroke-linejoin:miter;stroke-miterlimit:10;stroke-dasharray:none;stroke-opacity:1"
       transform="matrix(0.95999996,0,0,0.95999996,0.47999998,0.47999998)"
       clip-path="url(#clipPath75)" />
    <text
       id="text75"
       xml:space="preserve"
       transform="matrix(0.96000956,0,0,0.96000956,345.79845,305.28304)"
       clip-path="url(#clipPath76)"><tspan
         style="font-variant:normal;font-weight:normal;font-size:32px;font-family:Helvetica;writing-mode:lr-tb;fill:#000000;fill-opacity:1;fill-rule:nonzero;stroke:none"
         x="0 21.34375 37.34375 46.234375 64.03125 74.6875 90.6875"
         y="0"
         sodipodi:role="line"
         id="tspan75">Actors/</tspan></text>
    <text
       id="text76"
       xml:space="preserve"
       transform="matrix(0.96000956,0,0,0.96000956,326.16325,342.72341)"
       clip-path="url(#clipPath77)"><tspan
         style="font-variant:normal;font-weight:normal;font-size:32px;font-family:Helvetica;writing-mode:lr-tb;fill:#000000;fill-opacity:1;fill-rule:nonzero;stroke:none"
         x="0 21.34375 37.34375 46.234375 56.890625 74.6875 90.6875 106.6875 124.48438"
         y="0"
         sodipodi:role="line"
         id="tspan76">Actresses</tspan></text>
    <path
       id="path78"
       d="m 225.11,405.5 h 69.78999"
       style="fill:none;stroke:#000000;stroke-width:1;stroke-linecap:butt;stroke-linejoin:miter;stroke-miterlimit:10;stroke-dasharray:none;stroke-opacity:1"
       transform="matrix(0.95999996,0,0,0.95999996,0.47999998,0.47999998)"
       clip-path="url(#clipPath79)" />
    <path
       id="path80"
       d="m 218.36,405.5 9,-4.5 -2.25,4.5 2.25,4.5 z"
       style="fill:#000000;fill-opacity:1;fill-rule:nonzero;stroke:#000000;stroke-width:1;stroke-linecap:butt;stroke-linejoin:miter;stroke-miterlimit:10;stroke-dasharray:none;stroke-opacity:1"
       transform="matrix(0.95999996,0,0,0.95999996,0.47999998,0.47999998)"
       clip-path="url(#clipPath81)" />
    <path
       id="path82"
       d="m 301.64999,405.5 -9,4.5 2.25,-4.5 -2.25,-4.5 z"
       style="fill:#000000;fill-opacity:1;fill-rule:nonzero;stroke:#000000;stroke-width:1;stroke-linecap:butt;stroke-linejoin:miter;stroke-miterlimit:10;stroke-dasharray:none;stroke-opacity:1"
       transform="matrix(0.95999996,0,0,0.95999996,0.47999998,0.47999998)"
       clip-path="url(#clipPath83)" />
    <g
       opacity="0.25"
       id="g85"
       clip-path="url(#clipPath86)">
      <path
         d="m 5,370 h 210 v 71 H 5 Z"
         style="fill:#000000;fill-opacity:1;fill-rule:nonzero;stroke:#000000;stroke-width:1;stroke-linecap:butt;stroke-linejoin:miter;stroke-miterlimit:10;stroke-dasharray:none;stroke-opacity:1"
         transform="matrix(0.95999996,0,0,0.95999996,2.3999999,3.3599999)"
         clip-path="url(#clipPath84)"
         id="path85" />
    </g>
    <path
       id="path87"
       d="m 5,370 h 210 v 71 H 5 Z"
       style="fill:#dae8fc;fill-opacity:1;fill-rule:nonzero;stroke:#6c8ebf;stroke-width:1;stroke-linecap:butt;stroke-linejoin:miter;stroke-miterlimit:10;stroke-dasharray:none;stroke-opacity:1"
       transform="matrix(0.95999996,0,0,0.95999996,0.47999998,0.47999998)"
       clip-path="url(#clipPath88)" />
    <text
       id="text88"
       xml:space="preserve"
       transform="matrix(0.96000956,0,0,0.96000956,26.190261,382.0838)"
       clip-path="url(#clipPath89)"><tspan
         style="font-variant:normal;font-weight:normal;font-size:32px;font-family:Helvetica;writing-mode:lr-tb;fill:#000000;fill-opacity:1;fill-rule:nonzero;stroke:none"
         x="0 23.109375 40.90625 58.703125 67.59375 85.390625 96.046875 113.84375 131.64062 147.64062"
         y="0"
         sodipodi:role="line"
         id="tspan88">Conference</tspan></text>
    <text
       id="text89"
       xml:space="preserve"
       transform="matrix(0.96000956,0,0,0.96000956,71.460712,419.52418)"
       clip-path="url(#clipPath90)"><tspan
         style="font-variant:normal;font-weight:normal;font-size:32px;font-family:Helvetica;writing-mode:lr-tb;fill:#000000;fill-opacity:1;fill-rule:nonzero;stroke:none"
         x="0 23.109375 40.90625 48.015625 55.125"
         y="0"
         sodipodi:role="line"
         id="tspan89">Calls</tspan></text>
    <g
       opacity="0.25"
       id="g92"
       clip-path="url(#clipPath93)">
      <path
         d="m 305,370 h 210 v 71 H 305 Z"
         style="fill:#000000;fill-opacity:1;fill-rule:nonzero;stroke:#000000;stroke-width:1;stroke-linecap:butt;stroke-linejoin:miter;stroke-miterlimit:10;stroke-dasharray:none;stroke-opacity:1"
         transform="matrix(0.95999996,0,0,0.95999996,2.3999999,3.3599999)"
         clip-path="url(#clipPath91)"
         id="path92" />
    </g>
    <path
       id="path94"
       d="m 305,370 h 210 v 71 H 305 Z"
       style="fill:#dae8fc;fill-opacity:1;fill-rule:nonzero;stroke:#6c8ebf;stroke-width:1;stroke-linecap:butt;stroke-linejoin:miter;stroke-miterlimit:10;stroke-dasharray:none;stroke-opacity:1"
       transform="matrix(0.95999996,0,0,0.95999996,0.47999998,0.47999998)"
       clip-path="url(#clipPath95)" />
    <text
       id="text95"
       xml:space="preserve"
       transform="matrix(0.96000956,0,0,0.96000956,317.61316,400.32399)"
       clip-path="url(#clipPath96)"><tspan
         style="font-variant:normal;font-weight:normal;font-size:32px;font-family:Helvetica;writing-mode:lr-tb;fill:#000000;fill-opacity:1;fill-rule:nonzero;stroke:none"
         x="0 21.34375 48 65.796875 72.90625 90.703125 106.70312 124.5 142.29688"
         y="0"
         sodipodi:role="line"
         id="tspan95">Employees</tspan></text>
  </g>
</svg>
