<?xml version="1.0" encoding="UTF-8" standalone="no"?>
<!-- Created with Inkscape (http://www.inkscape.org/) -->

<svg
   version="1.1"
   id="svg1"
   width="494.71997"
   height="440"
   viewBox="0 0 494.71997 440"
   sodipodi:docname="sql-16.pdf"
   xmlns:inkscape="http://www.inkscape.org/namespaces/inkscape"
   xmlns:sodipodi="http://sodipodi.sourceforge.net/DTD/sodipodi-0.dtd"
   xmlns="http://www.w3.org/2000/svg"
   xmlns:svg="http://www.w3.org/2000/svg">
  <defs
     id="defs1">
    <clipPath
       clipPathUnits="userSpaceOnUse"
       id="clipPath2">
      <path
         d="M 0,0 H 1545.8333 V 1372.4128 H 0 Z"
         transform="scale(0.33444747)"
         clip-rule="evenodd"
         id="path2" />
    </clipPath>
    <clipPath
       clipPathUnits="userSpaceOnUse"
       id="clipPath4">
      <path
         d="M 0,0 H 1545.8333 V 1366.4329 H 0 Z"
         transform="matrix(0.33444747,0,0,0.33444747,-0.5,-0.5)"
         clip-rule="evenodd"
         id="path4" />
    </clipPath>
    <clipPath
       clipPathUnits="userSpaceOnUse"
       id="clipPath6">
      <path
         d="M 0,0 H 1545.8333 V 1366.4329 H 0 Z"
         transform="matrix(0.33444747,0,0,0.33444747,-0.5,-0.5)"
         clip-rule="evenodd"
         id="path6" />
    </clipPath>
    <clipPath
       clipPathUnits="userSpaceOnUse"
       id="clipPath8">
      <path
         d="M 0,0 H 1545.8333 V 1366.4329 H 0 Z"
         transform="matrix(0.33444747,0,0,0.33444747,-0.5,-0.5)"
         clip-rule="evenodd"
         id="path8" />
    </clipPath>
    <clipPath
       clipPathUnits="userSpaceOnUse"
       id="clipPath9">
      <path
         d="M 0,0 H 635 V 220 H 0 Z"
         transform="matrix(0.33444747,0,0,0.33444747,-0.15886777,58.707226)"
         id="path9" />
    </clipPath>
    <clipPath
       clipPathUnits="userSpaceOnUse"
       id="clipPath11">
      <path
         d="M 0,0 H 1545.8333 V 1366.4329 H 0 Z"
         transform="scale(0.31999999)"
         clip-rule="evenodd"
         id="path11" />
    </clipPath>
    <clipPath
       clipPathUnits="userSpaceOnUse"
       id="clipPath13">
      <path
         d="M 0,0 H 1545.8333 V 1366.4329 H 0 Z"
         transform="matrix(0.33444747,0,0,0.33444747,-0.5,-0.5)"
         clip-rule="evenodd"
         id="path13" />
    </clipPath>
    <clipPath
       clipPathUnits="userSpaceOnUse"
       id="clipPath14">
      <path
         d="M 0,0 H 1545.8333 V 1366.4329 H 0 Z"
         transform="matrix(0.33444411,0,0,0.33444411,-65.078125,-107.00001)"
         clip-rule="evenodd"
         id="path14" />
    </clipPath>
    <clipPath
       clipPathUnits="userSpaceOnUse"
       id="clipPath15">
      <path
         d="M 0,0 H 635 V 220 H 0 Z"
         transform="matrix(0.33444747,0,0,0.33444747,299.8405,58.707226)"
         id="path15" />
    </clipPath>
    <clipPath
       clipPathUnits="userSpaceOnUse"
       id="clipPath17">
      <path
         d="M 0,0 H 1545.8333 V 1366.4329 H 0 Z"
         transform="scale(0.31999999)"
         clip-rule="evenodd"
         id="path17" />
    </clipPath>
    <clipPath
       clipPathUnits="userSpaceOnUse"
       id="clipPath19">
      <path
         d="M 0,0 H 1545.8333 V 1366.4329 H 0 Z"
         transform="matrix(0.33444747,0,0,0.33444747,-0.5,-0.5)"
         clip-rule="evenodd"
         id="path19" />
    </clipPath>
    <clipPath
       clipPathUnits="userSpaceOnUse"
       id="clipPath20">
      <path
         d="M 0,0 H 1545.8333 V 1366.4329 H 0 Z"
         transform="matrix(0.33444411,0,0,0.33444411,-342.84375,-107.00001)"
         clip-rule="evenodd"
         id="path20" />
    </clipPath>
    <clipPath
       clipPathUnits="userSpaceOnUse"
       id="clipPath21">
      <path
         d="M 0,0 H 1545.8333 V 1366.4329 H 0 Z"
         transform="matrix(0.33444411,0,0,0.33444411,-55.390625,-41)"
         clip-rule="evenodd"
         id="path21" />
    </clipPath>
    <clipPath
       clipPathUnits="userSpaceOnUse"
       id="clipPath23">
      <path
         d="M 0,0 H 1545.8333 V 1366.4329 H 0 Z"
         transform="matrix(0.33444747,0,0,0.33444747,-0.5,-0.5)"
         clip-rule="evenodd"
         id="path23" />
    </clipPath>
    <clipPath
       clipPathUnits="userSpaceOnUse"
       id="clipPath25">
      <path
         d="M 0,0 H 1545.8333 V 1366.4329 H 0 Z"
         transform="matrix(0.33444747,0,0,0.33444747,-0.5,-0.5)"
         clip-rule="evenodd"
         id="path25" />
    </clipPath>
    <clipPath
       clipPathUnits="userSpaceOnUse"
       id="clipPath27">
      <path
         d="M 0,0 H 1545.8333 V 1366.4329 H 0 Z"
         transform="matrix(0.33444747,0,0,0.33444747,-0.5,-0.5)"
         clip-rule="evenodd"
         id="path27" />
    </clipPath>
    <clipPath
       clipPathUnits="userSpaceOnUse"
       id="clipPath28">
      <path
         d="M 0,0 H 635 V 219 H 0 Z"
         transform="matrix(0.33444747,0,0,0.33444747,-0.15886777,138.97462)"
         id="path28" />
    </clipPath>
    <clipPath
       clipPathUnits="userSpaceOnUse"
       id="clipPath30">
      <path
         d="M 0,0 H 1545.8333 V 1366.4329 H 0 Z"
         transform="scale(0.31999999)"
         clip-rule="evenodd"
         id="path30" />
    </clipPath>
    <clipPath
       clipPathUnits="userSpaceOnUse"
       id="clipPath32">
      <path
         d="M 0,0 H 1545.8333 V 1366.4329 H 0 Z"
         transform="matrix(0.33444747,0,0,0.33444747,-0.5,-0.5)"
         clip-rule="evenodd"
         id="path32" />
    </clipPath>
    <clipPath
       clipPathUnits="userSpaceOnUse"
       id="clipPath33">
      <path
         d="M 0,0 H 1545.8333 V 1366.4329 H 0 Z"
         transform="matrix(0.33444411,0,0,0.33444411,-37.515625,-187)"
         clip-rule="evenodd"
         id="path33" />
    </clipPath>
    <clipPath
       clipPathUnits="userSpaceOnUse"
       id="clipPath34">
      <path
         d="M 0,0 H 635 V 219 H 0 Z"
         transform="matrix(0.33444747,0,0,0.33444747,299.8405,138.97462)"
         id="path34" />
    </clipPath>
    <clipPath
       clipPathUnits="userSpaceOnUse"
       id="clipPath36">
      <path
         d="M 0,0 H 1545.8333 V 1366.4329 H 0 Z"
         transform="scale(0.31999999)"
         clip-rule="evenodd"
         id="path36" />
    </clipPath>
    <clipPath
       clipPathUnits="userSpaceOnUse"
       id="clipPath38">
      <path
         d="M 0,0 H 1545.8333 V 1366.4329 H 0 Z"
         transform="matrix(0.33444747,0,0,0.33444747,-0.5,-0.5)"
         clip-rule="evenodd"
         id="path38" />
    </clipPath>
    <clipPath
       clipPathUnits="userSpaceOnUse"
       id="clipPath39">
      <path
         d="M 0,0 H 1545.8333 V 1366.4329 H 0 Z"
         transform="matrix(0.33444411,0,0,0.33444411,-371.32813,-187)"
         clip-rule="evenodd"
         id="path39" />
    </clipPath>
    <clipPath
       clipPathUnits="userSpaceOnUse"
       id="clipPath41">
      <path
         d="M 0,0 H 1545.8333 V 1366.4329 H 0 Z"
         transform="matrix(0.33444747,0,0,0.33444747,-0.5,-0.5)"
         clip-rule="evenodd"
         id="path41" />
    </clipPath>
    <clipPath
       clipPathUnits="userSpaceOnUse"
       id="clipPath43">
      <path
         d="M 0,0 H 1545.8333 V 1366.4329 H 0 Z"
         transform="matrix(0.33444747,0,0,0.33444747,-0.5,-0.5)"
         clip-rule="evenodd"
         id="path43" />
    </clipPath>
    <clipPath
       clipPathUnits="userSpaceOnUse"
       id="clipPath45">
      <path
         d="M 0,0 H 1545.8333 V 1366.4329 H 0 Z"
         transform="matrix(0.33444747,0,0,0.33444747,-0.5,-0.5)"
         clip-rule="evenodd"
         id="path45" />
    </clipPath>
    <clipPath
       clipPathUnits="userSpaceOnUse"
       id="clipPath46">
      <path
         d="M 0,0 H 635 V 219 H 0 Z"
         transform="matrix(0.33444747,0,0,0.33444747,-0.15886777,218.90756)"
         id="path46" />
    </clipPath>
    <clipPath
       clipPathUnits="userSpaceOnUse"
       id="clipPath48">
      <path
         d="M 0,0 H 1545.8333 V 1366.4329 H 0 Z"
         transform="scale(0.31999999)"
         clip-rule="evenodd"
         id="path48" />
    </clipPath>
    <clipPath
       clipPathUnits="userSpaceOnUse"
       id="clipPath50">
      <path
         d="M 0,0 H 1545.8333 V 1366.4329 H 0 Z"
         transform="matrix(0.33444747,0,0,0.33444747,-0.5,-0.5)"
         clip-rule="evenodd"
         id="path50" />
    </clipPath>
    <clipPath
       clipPathUnits="userSpaceOnUse"
       id="clipPath51">
      <path
         d="M 0,0 H 1545.8333 V 1366.4329 H 0 Z"
         transform="matrix(0.33444411,0,0,0.33444411,-56.187501,-267)"
         clip-rule="evenodd"
         id="path51" />
    </clipPath>
    <clipPath
       clipPathUnits="userSpaceOnUse"
       id="clipPath52">
      <path
         d="M 0,0 H 635 V 219 H 0 Z"
         transform="matrix(0.33444747,0,0,0.33444747,299.8405,218.90756)"
         id="path52" />
    </clipPath>
    <clipPath
       clipPathUnits="userSpaceOnUse"
       id="clipPath54">
      <path
         d="M 0,0 H 1545.8333 V 1366.4329 H 0 Z"
         transform="scale(0.31999999)"
         clip-rule="evenodd"
         id="path54" />
    </clipPath>
    <clipPath
       clipPathUnits="userSpaceOnUse"
       id="clipPath56">
      <path
         d="M 0,0 H 1545.8333 V 1366.4329 H 0 Z"
         transform="matrix(0.33444747,0,0,0.33444747,-0.5,-0.5)"
         clip-rule="evenodd"
         id="path56" />
    </clipPath>
    <clipPath
       clipPathUnits="userSpaceOnUse"
       id="clipPath57">
      <path
         d="M 0,0 H 1545.8333 V 1366.4329 H 0 Z"
         transform="matrix(0.33444411,0,0,0.33444411,-349.96875,-267)"
         clip-rule="evenodd"
         id="path57" />
    </clipPath>
    <clipPath
       clipPathUnits="userSpaceOnUse"
       id="clipPath59">
      <path
         d="M 0,0 H 1545.8333 V 1366.4329 H 0 Z"
         transform="matrix(0.33444747,0,0,0.33444747,-0.5,-0.5)"
         clip-rule="evenodd"
         id="path59" />
    </clipPath>
    <clipPath
       clipPathUnits="userSpaceOnUse"
       id="clipPath61">
      <path
         d="M 0,0 H 1545.8333 V 1366.4329 H 0 Z"
         transform="matrix(0.33444747,0,0,0.33444747,-0.5,-0.5)"
         clip-rule="evenodd"
         id="path61" />
    </clipPath>
    <clipPath
       clipPathUnits="userSpaceOnUse"
       id="clipPath63">
      <path
         d="M 0,0 H 1545.8333 V 1366.4329 H 0 Z"
         transform="matrix(0.33444747,0,0,0.33444747,-0.5,-0.5)"
         clip-rule="evenodd"
         id="path63" />
    </clipPath>
    <clipPath
       clipPathUnits="userSpaceOnUse"
       id="clipPath64">
      <path
         d="M 0,0 H 635 V 219 H 0 Z"
         transform="matrix(0.33444747,0,0,0.33444747,-0.15886777,298.84051)"
         id="path64" />
    </clipPath>
    <clipPath
       clipPathUnits="userSpaceOnUse"
       id="clipPath66">
      <path
         d="M 0,0 H 1545.8333 V 1366.4329 H 0 Z"
         transform="scale(0.31999999)"
         clip-rule="evenodd"
         id="path66" />
    </clipPath>
    <clipPath
       clipPathUnits="userSpaceOnUse"
       id="clipPath68">
      <path
         d="M 0,0 H 1545.8333 V 1366.4329 H 0 Z"
         transform="matrix(0.33444747,0,0,0.33444747,-0.5,-0.5)"
         clip-rule="evenodd"
         id="path68" />
    </clipPath>
    <clipPath
       clipPathUnits="userSpaceOnUse"
       id="clipPath69">
      <path
         d="M 0,0 H 1545.8333 V 1366.4329 H 0 Z"
         transform="matrix(0.33444411,0,0,0.33444411,-50.84375,-347.00001)"
         clip-rule="evenodd"
         id="path69" />
    </clipPath>
    <clipPath
       clipPathUnits="userSpaceOnUse"
       id="clipPath70">
      <path
         d="M 0,0 H 635 V 219 H 0 Z"
         transform="matrix(0.33444747,0,0,0.33444747,299.8405,298.84051)"
         id="path70" />
    </clipPath>
    <clipPath
       clipPathUnits="userSpaceOnUse"
       id="clipPath72">
      <path
         d="M 0,0 H 1545.8333 V 1366.4329 H 0 Z"
         transform="scale(0.31999999)"
         clip-rule="evenodd"
         id="path72" />
    </clipPath>
    <clipPath
       clipPathUnits="userSpaceOnUse"
       id="clipPath74">
      <path
         d="M 0,0 H 1545.8333 V 1366.4329 H 0 Z"
         transform="matrix(0.33444747,0,0,0.33444747,-0.5,-0.5)"
         clip-rule="evenodd"
         id="path74" />
    </clipPath>
    <clipPath
       clipPathUnits="userSpaceOnUse"
       id="clipPath75">
      <path
         d="M 0,0 H 1545.8333 V 1366.4329 H 0 Z"
         transform="matrix(0.33444411,0,0,0.33444411,-369.54688,-347.00001)"
         clip-rule="evenodd"
         id="path75" />
    </clipPath>
    <clipPath
       clipPathUnits="userSpaceOnUse"
       id="clipPath77">
      <path
         d="M 0,0 H 1545.8333 V 1366.4329 H 0 Z"
         transform="matrix(0.33444747,0,0,0.33444747,-0.5,-0.5)"
         clip-rule="evenodd"
         id="path77" />
    </clipPath>
    <clipPath
       clipPathUnits="userSpaceOnUse"
       id="clipPath79">
      <path
         d="M 0,0 H 1545.8333 V 1366.4329 H 0 Z"
         transform="matrix(0.33444747,0,0,0.33444747,-0.5,-0.5)"
         clip-rule="evenodd"
         id="path79" />
    </clipPath>
    <clipPath
       clipPathUnits="userSpaceOnUse"
       id="clipPath81">
      <path
         d="M 0,0 H 1545.8333 V 1366.4329 H 0 Z"
         transform="matrix(0.33444747,0,0,0.33444747,-0.5,-0.5)"
         clip-rule="evenodd"
         id="path81" />
    </clipPath>
    <clipPath
       clipPathUnits="userSpaceOnUse"
       id="clipPath82">
      <path
         d="M 0,0 H 635 V 219 H 0 Z"
         transform="matrix(0.33444747,0,0,0.33444747,-0.15886777,378.77347)"
         id="path82" />
    </clipPath>
    <clipPath
       clipPathUnits="userSpaceOnUse"
       id="clipPath84">
      <path
         d="M 0,0 H 1545.8333 V 1366.4329 H 0 Z"
         transform="scale(0.31999999)"
         clip-rule="evenodd"
         id="path84" />
    </clipPath>
    <clipPath
       clipPathUnits="userSpaceOnUse"
       id="clipPath86">
      <path
         d="M 0,0 H 1545.8333 V 1366.4329 H 0 Z"
         transform="matrix(0.33444747,0,0,0.33444747,-0.5,-0.5)"
         clip-rule="evenodd"
         id="path86" />
    </clipPath>
    <clipPath
       clipPathUnits="userSpaceOnUse"
       id="clipPath87">
      <path
         d="M 0,0 H 1545.8333 V 1366.4329 H 0 Z"
         transform="matrix(0.33444411,0,0,0.33444411,-55.296875,-427)"
         clip-rule="evenodd"
         id="path87" />
    </clipPath>
    <clipPath
       clipPathUnits="userSpaceOnUse"
       id="clipPath88">
      <path
         d="M 0,0 H 635 V 219 H 0 Z"
         transform="matrix(0.33444747,0,0,0.33444747,299.8405,378.77347)"
         id="path88" />
    </clipPath>
    <clipPath
       clipPathUnits="userSpaceOnUse"
       id="clipPath90">
      <path
         d="M 0,0 H 1545.8333 V 1366.4329 H 0 Z"
         transform="scale(0.31999999)"
         clip-rule="evenodd"
         id="path90" />
    </clipPath>
    <clipPath
       clipPathUnits="userSpaceOnUse"
       id="clipPath92">
      <path
         d="M 0,0 H 1545.8333 V 1366.4329 H 0 Z"
         transform="matrix(0.33444747,0,0,0.33444747,-0.5,-0.5)"
         clip-rule="evenodd"
         id="path92" />
    </clipPath>
    <clipPath
       clipPathUnits="userSpaceOnUse"
       id="clipPath93">
      <path
         d="M 0,0 H 1545.8333 V 1366.4329 H 0 Z"
         transform="matrix(0.33444411,0,0,0.33444411,-352.28125,-408)"
         clip-rule="evenodd"
         id="path93" />
    </clipPath>
    <clipPath
       clipPathUnits="userSpaceOnUse"
       id="clipPath94">
      <path
         d="M 0,0 H 1545.8333 V 1366.4329 H 0 Z"
         transform="matrix(0.33444411,0,0,0.33444411,-350.84375,-447)"
         clip-rule="evenodd"
         id="path94" />
    </clipPath>
  </defs>
  <sodipodi:namedview
     id="namedview1"
     pagecolor="#ffffff"
     bordercolor="#000000"
     borderopacity="0.25"
     inkscape:showpageshadow="2"
     inkscape:pageopacity="0.0"
     inkscape:pagecheckerboard="0"
     inkscape:deskcolor="#d1d1d1">
    <inkscape:page
       x="0"
       y="0"
       inkscape:label="1"
       id="page1"
       width="494.71997"
       height="440"
       margin="0"
       bleed="0" />
  </sodipodi:namedview>
  <g
     id="g1"
     inkscape:groupmode="layer"
     inkscape:label="1">
    <path
       id="path1"
       d="M 0,0 H 517 V 459 H 0 Z"
       style="fill:#ffffff;fill-opacity:1;fill-rule:nonzero;stroke:none"
       transform="scale(0.95680194)"
       clip-path="url(#clipPath2)" />
    <path
       id="path3"
       d="m 221.11,95.5 h 69.78999"
       style="fill:none;stroke:#000000;stroke-width:1;stroke-linecap:butt;stroke-linejoin:miter;stroke-miterlimit:10;stroke-dasharray:none;stroke-opacity:1"
       transform="matrix(0.95680194,0,0,0.95680194,0.47840097,0.47840097)"
       clip-path="url(#clipPath4)" />
    <path
       id="path5"
       d="m 214.36,95.5 9,-4.5 -2.25,4.5 2.25,4.5 z"
       style="fill:#000000;fill-opacity:1;fill-rule:nonzero;stroke:#000000;stroke-width:1;stroke-linecap:butt;stroke-linejoin:miter;stroke-miterlimit:10;stroke-dasharray:none;stroke-opacity:1"
       transform="matrix(0.95680194,0,0,0.95680194,0.47840097,0.47840097)"
       clip-path="url(#clipPath6)" />
    <path
       id="path7"
       d="m 297.64999,95.5 -9,4.5 2.25,-4.5 -2.25,-4.5 z"
       style="fill:#000000;fill-opacity:1;fill-rule:nonzero;stroke:#000000;stroke-width:1;stroke-linecap:butt;stroke-linejoin:miter;stroke-miterlimit:10;stroke-dasharray:none;stroke-opacity:1"
       transform="matrix(0.95680194,0,0,0.95680194,0.47840097,0.47840097)"
       clip-path="url(#clipPath8)" />
    <g
       opacity="0.25"
       id="g10"
       clip-path="url(#clipPath11)">
      <path
         d="m 1,60 h 210 v 71 H 1 Z"
         style="fill:#000000;fill-opacity:1;fill-rule:nonzero;stroke:#000000;stroke-width:1;stroke-linecap:butt;stroke-linejoin:miter;stroke-miterlimit:10;stroke-dasharray:none;stroke-opacity:1"
         transform="matrix(0.95680194,0,0,0.95680194,2.3920049,3.3488095)"
         clip-path="url(#clipPath9)"
         id="path10" />
    </g>
    <path
       id="path12"
       d="m 1,60 h 210 v 71 H 1 Z"
       style="fill:#dae8fc;fill-opacity:1;fill-rule:nonzero;stroke:#6c8ebf;stroke-width:1;stroke-linecap:butt;stroke-linejoin:miter;stroke-miterlimit:10;stroke-dasharray:none;stroke-opacity:1"
       transform="matrix(0.95680194,0,0,0.95680194,0.47840097,0.47840097)"
       clip-path="url(#clipPath13)" />
    <text
       id="text13"
       xml:space="preserve"
       transform="matrix(0.95681154,0,0,0.95681154,62.267501,102.37884)"
       clip-path="url(#clipPath14)"><tspan
         style="font-variant:normal;font-weight:normal;font-size:32px;font-family:Helvetica;writing-mode:lr-tb;fill:#000000;fill-opacity:1;fill-rule:nonzero;stroke:none"
         x="0 21.34375 39.140625 56.9375 65.828125"
         y="0"
         sodipodi:role="line"
         id="tspan13">Boats</tspan></text>
    <g
       opacity="0.25"
       id="g16"
       clip-path="url(#clipPath17)">
      <path
         d="m 301,60 h 210 v 71 H 301 Z"
         style="fill:#000000;fill-opacity:1;fill-rule:nonzero;stroke:#000000;stroke-width:1;stroke-linecap:butt;stroke-linejoin:miter;stroke-miterlimit:10;stroke-dasharray:none;stroke-opacity:1"
         transform="matrix(0.95680194,0,0,0.95680194,2.3920127,3.3488095)"
         clip-path="url(#clipPath15)"
         id="path16" />
    </g>
    <path
       id="path18"
       d="m 301,60 h 210 v 71 H 301 Z"
       style="fill:#dae8fc;fill-opacity:1;fill-rule:nonzero;stroke:#6c8ebf;stroke-width:1;stroke-linecap:butt;stroke-linejoin:miter;stroke-miterlimit:10;stroke-dasharray:none;stroke-opacity:1"
       transform="matrix(0.95680194,0,0,0.95680194,0.47840097,0.47840097)"
       clip-path="url(#clipPath19)" />
    <text
       id="text19"
       xml:space="preserve"
       transform="matrix(0.95681154,0,0,0.95681154,328.03686,102.37884)"
       clip-path="url(#clipPath20)"><tspan
         style="font-variant:normal;font-weight:normal;font-size:32px;font-family:Helvetica;writing-mode:lr-tb;fill:#000000;fill-opacity:1;fill-rule:nonzero;stroke:none"
         x="0 23.109375 40.90625 58.703125 67.59375 85.390625 92.5 110.29688"
         y="0"
         sodipodi:role="line"
         id="tspan19">Captains</tspan></text>
    <text
       id="text20"
       xml:space="preserve"
       transform="matrix(0.95681154,0,0,0.95681154,52.998389,39.229273)"
       clip-path="url(#clipPath21)"><tspan
         style="font-variant:normal;font-weight:700;font-size:32px;font-family:Helvetica;writing-mode:lr-tb;fill:#000000;fill-opacity:1;fill-rule:nonzero;stroke:none"
         x="0 24.890625 44.4375 62.234375 72.890625 90.078125 109.625 120.28125 145.17188 164.71875 182.51562 191.40625 214.51562 232.3125 241.20312 259 269.65625 278.54688 298.09375 317.64062 335.4375 354.98438 363.875 383.42188"
         y="0"
         sodipodi:role="line"
         id="tspan20">One-To-One Relationships</tspan></text>
    <path
       id="path22"
       d="m 221.11,175.5 h 69.78999"
       style="fill:none;stroke:#000000;stroke-width:1;stroke-linecap:butt;stroke-linejoin:miter;stroke-miterlimit:10;stroke-dasharray:none;stroke-opacity:1"
       transform="matrix(0.95680194,0,0,0.95680194,0.47840097,0.47840097)"
       clip-path="url(#clipPath23)" />
    <path
       id="path24"
       d="m 214.36,175.5 9,-4.5 -2.25,4.5 2.25,4.5 z"
       style="fill:#000000;fill-opacity:1;fill-rule:nonzero;stroke:#000000;stroke-width:1;stroke-linecap:butt;stroke-linejoin:miter;stroke-miterlimit:10;stroke-dasharray:none;stroke-opacity:1"
       transform="matrix(0.95680194,0,0,0.95680194,0.47840097,0.47840097)"
       clip-path="url(#clipPath25)" />
    <path
       id="path26"
       d="m 297.64999,175.5 -9,4.5 2.25,-4.5 -2.25,-4.5 z"
       style="fill:#000000;fill-opacity:1;fill-rule:nonzero;stroke:#000000;stroke-width:1;stroke-linecap:butt;stroke-linejoin:miter;stroke-miterlimit:10;stroke-dasharray:none;stroke-opacity:1"
       transform="matrix(0.95680194,0,0,0.95680194,0.47840097,0.47840097)"
       clip-path="url(#clipPath27)" />
    <g
       opacity="0.25"
       id="g29"
       clip-path="url(#clipPath30)">
      <path
         d="m 1,140 h 210 v 71 H 1 Z"
         style="fill:#000000;fill-opacity:1;fill-rule:nonzero;stroke:#000000;stroke-width:1;stroke-linecap:butt;stroke-linejoin:miter;stroke-miterlimit:10;stroke-dasharray:none;stroke-opacity:1"
         transform="matrix(0.95680194,0,0,0.95680194,2.3920049,3.3488095)"
         clip-path="url(#clipPath28)"
         id="path29" />
    </g>
    <path
       id="path31"
       d="m 1,140 h 210 v 71 H 1 Z"
       style="fill:#dae8fc;fill-opacity:1;fill-rule:nonzero;stroke:#6c8ebf;stroke-width:1;stroke-linecap:butt;stroke-linejoin:miter;stroke-miterlimit:10;stroke-dasharray:none;stroke-opacity:1"
       transform="matrix(0.95680194,0,0,0.95680194,0.47840097,0.47840097)"
       clip-path="url(#clipPath32)" />
    <text
       id="text32"
       xml:space="preserve"
       transform="matrix(0.95681154,0,0,0.95681154,35.895383,178.92376)"
       clip-path="url(#clipPath33)"><tspan
         style="font-variant:normal;font-weight:normal;font-size:32px;font-family:Helvetica;writing-mode:lr-tb;fill:#000000;fill-opacity:1;fill-rule:nonzero;stroke:none"
         x="0 23.109375 40.90625 67.5625 85.359375 103.15625 120.95312"
         y="0"
         sodipodi:role="line"
         id="tspan32">Company</tspan></text>
    <g
       opacity="0.25"
       id="g35"
       clip-path="url(#clipPath36)">
      <path
         d="m 301,140 h 210 v 71 H 301 Z"
         style="fill:#000000;fill-opacity:1;fill-rule:nonzero;stroke:#000000;stroke-width:1;stroke-linecap:butt;stroke-linejoin:miter;stroke-miterlimit:10;stroke-dasharray:none;stroke-opacity:1"
         transform="matrix(0.95680194,0,0,0.95680194,2.3920127,3.3488095)"
         clip-path="url(#clipPath34)"
         id="path35" />
    </g>
    <path
       id="path37"
       d="m 301,140 h 210 v 71 H 301 Z"
       style="fill:#dae8fc;fill-opacity:1;fill-rule:nonzero;stroke:#6c8ebf;stroke-width:1;stroke-linecap:butt;stroke-linejoin:miter;stroke-miterlimit:10;stroke-dasharray:none;stroke-opacity:1"
       transform="matrix(0.95680194,0,0,0.95680194,0.47840097,0.47840097)"
       clip-path="url(#clipPath38)" />
    <text
       id="text38"
       xml:space="preserve"
       transform="matrix(0.95681154,0,0,0.95681154,355.29104,178.92376)"
       clip-path="url(#clipPath39)"><tspan
         style="font-variant:normal;font-weight:normal;font-size:32px;font-family:Helvetica;writing-mode:lr-tb;fill:#000000;fill-opacity:1;fill-rule:nonzero;stroke:none"
         x="0 23.109375 44.453125"
         y="0"
         sodipodi:role="line"
         id="tspan38">CEO</tspan></text>
    <path
       id="path40"
       d="m 221.11,255.5 h 69.78999"
       style="fill:none;stroke:#000000;stroke-width:1;stroke-linecap:butt;stroke-linejoin:miter;stroke-miterlimit:10;stroke-dasharray:none;stroke-opacity:1"
       transform="matrix(0.95680194,0,0,0.95680194,0.47840097,0.47840097)"
       clip-path="url(#clipPath41)" />
    <path
       id="path42"
       d="m 214.36,255.5 9,-4.5 -2.25,4.5 2.25,4.5 z"
       style="fill:#000000;fill-opacity:1;fill-rule:nonzero;stroke:#000000;stroke-width:1;stroke-linecap:butt;stroke-linejoin:miter;stroke-miterlimit:10;stroke-dasharray:none;stroke-opacity:1"
       transform="matrix(0.95680194,0,0,0.95680194,0.47840097,0.47840097)"
       clip-path="url(#clipPath43)" />
    <path
       id="path44"
       d="m 297.64999,255.5 -9,4.5 2.25,-4.5 -2.25,-4.5 z"
       style="fill:#000000;fill-opacity:1;fill-rule:nonzero;stroke:#000000;stroke-width:1;stroke-linecap:butt;stroke-linejoin:miter;stroke-miterlimit:10;stroke-dasharray:none;stroke-opacity:1"
       transform="matrix(0.95680194,0,0,0.95680194,0.47840097,0.47840097)"
       clip-path="url(#clipPath45)" />
    <g
       opacity="0.25"
       id="g47"
       clip-path="url(#clipPath48)">
      <path
         d="m 1,220 h 210 v 71 H 1 Z"
         style="fill:#000000;fill-opacity:1;fill-rule:nonzero;stroke:#000000;stroke-width:1;stroke-linecap:butt;stroke-linejoin:miter;stroke-miterlimit:10;stroke-dasharray:none;stroke-opacity:1"
         transform="matrix(0.95680194,0,0,0.95680194,2.3920049,3.3488095)"
         clip-path="url(#clipPath46)"
         id="path47" />
    </g>
    <path
       id="path49"
       d="m 1,220 h 210 v 71 H 1 Z"
       style="fill:#dae8fc;fill-opacity:1;fill-rule:nonzero;stroke:#6c8ebf;stroke-width:1;stroke-linecap:butt;stroke-linejoin:miter;stroke-miterlimit:10;stroke-dasharray:none;stroke-opacity:1"
       transform="matrix(0.95680194,0,0,0.95680194,0.47840097,0.47840097)"
       clip-path="url(#clipPath50)" />
    <text
       id="text50"
       xml:space="preserve"
       transform="matrix(0.95681154,0,0,0.95681154,53.760849,255.46868)"
       clip-path="url(#clipPath51)"><tspan
         style="font-variant:normal;font-weight:normal;font-size:32px;font-family:Helvetica;writing-mode:lr-tb;fill:#000000;fill-opacity:1;fill-rule:nonzero;stroke:none"
         x="0 23.109375 40.90625 58.703125 65.8125 74.703125 92.5"
         y="0"
         sodipodi:role="line"
         id="tspan50">Capitol</tspan></text>
    <g
       opacity="0.25"
       id="g53"
       clip-path="url(#clipPath54)">
      <path
         d="m 301,220 h 210 v 71 H 301 Z"
         style="fill:#000000;fill-opacity:1;fill-rule:nonzero;stroke:#000000;stroke-width:1;stroke-linecap:butt;stroke-linejoin:miter;stroke-miterlimit:10;stroke-dasharray:none;stroke-opacity:1"
         transform="matrix(0.95680194,0,0,0.95680194,2.3920127,3.3488095)"
         clip-path="url(#clipPath52)"
         id="path53" />
    </g>
    <path
       id="path55"
       d="m 301,220 h 210 v 71 H 301 Z"
       style="fill:#dae8fc;fill-opacity:1;fill-rule:nonzero;stroke:#6c8ebf;stroke-width:1;stroke-linecap:butt;stroke-linejoin:miter;stroke-miterlimit:10;stroke-dasharray:none;stroke-opacity:1"
       transform="matrix(0.95680194,0,0,0.95680194,0.47840097,0.47840097)"
       clip-path="url(#clipPath56)" />
    <text
       id="text56"
       xml:space="preserve"
       transform="matrix(0.95681154,0,0,0.95681154,334.85414,255.46868)"
       clip-path="url(#clipPath57)"><tspan
         style="font-variant:normal;font-weight:normal;font-size:32px;font-family:Helvetica;writing-mode:lr-tb;fill:#000000;fill-opacity:1;fill-rule:nonzero;stroke:none"
         x="0 23.109375 40.90625 58.703125 76.5 85.390625 96.046875"
         y="0"
         sodipodi:role="line"
         id="tspan56">Country</tspan></text>
    <path
       id="path58"
       d="m 221.11,335.5 h 69.78999"
       style="fill:none;stroke:#000000;stroke-width:1;stroke-linecap:butt;stroke-linejoin:miter;stroke-miterlimit:10;stroke-dasharray:none;stroke-opacity:1"
       transform="matrix(0.95680194,0,0,0.95680194,0.47840097,0.47840097)"
       clip-path="url(#clipPath59)" />
    <path
       id="path60"
       d="m 214.36,335.5 9,-4.5 -2.25,4.5 2.25,4.5 z"
       style="fill:#000000;fill-opacity:1;fill-rule:nonzero;stroke:#000000;stroke-width:1;stroke-linecap:butt;stroke-linejoin:miter;stroke-miterlimit:10;stroke-dasharray:none;stroke-opacity:1"
       transform="matrix(0.95680194,0,0,0.95680194,0.47840097,0.47840097)"
       clip-path="url(#clipPath61)" />
    <path
       id="path62"
       d="m 297.64999,335.5 -9,4.5 2.25,-4.5 -2.25,-4.5 z"
       style="fill:#000000;fill-opacity:1;fill-rule:nonzero;stroke:#000000;stroke-width:1;stroke-linecap:butt;stroke-linejoin:miter;stroke-miterlimit:10;stroke-dasharray:none;stroke-opacity:1"
       transform="matrix(0.95680194,0,0,0.95680194,0.47840097,0.47840097)"
       clip-path="url(#clipPath63)" />
    <g
       opacity="0.25"
       id="g65"
       clip-path="url(#clipPath66)">
      <path
         d="m 1,300 h 210 v 71 H 1 Z"
         style="fill:#000000;fill-opacity:1;fill-rule:nonzero;stroke:#000000;stroke-width:1;stroke-linecap:butt;stroke-linejoin:miter;stroke-miterlimit:10;stroke-dasharray:none;stroke-opacity:1"
         transform="matrix(0.95680194,0,0,0.95680194,2.3920049,3.3488095)"
         clip-path="url(#clipPath64)"
         id="path65" />
    </g>
    <path
       id="path67"
       d="m 1,300 h 210 v 71 H 1 Z"
       style="fill:#dae8fc;fill-opacity:1;fill-rule:nonzero;stroke:#6c8ebf;stroke-width:1;stroke-linecap:butt;stroke-linejoin:miter;stroke-miterlimit:10;stroke-dasharray:none;stroke-opacity:1"
       transform="matrix(0.95680194,0,0,0.95680194,0.47840097,0.47840097)"
       clip-path="url(#clipPath68)" />
    <text
       id="text68"
       xml:space="preserve"
       transform="matrix(0.95681154,0,0,0.95681154,48.647887,332.01361)"
       clip-path="url(#clipPath69)"><tspan
         style="font-variant:normal;font-weight:normal;font-size:32px;font-family:Helvetica;writing-mode:lr-tb;fill:#000000;fill-opacity:1;fill-rule:nonzero;stroke:none"
         x="0 21.34375 30.234375 48.03125 65.828125 83.625 101.42188"
         y="0"
         sodipodi:role="line"
         id="tspan68">Student</tspan></text>
    <g
       opacity="0.25"
       id="g71"
       clip-path="url(#clipPath72)">
      <path
         d="m 301,300 h 210 v 71 H 301 Z"
         style="fill:#000000;fill-opacity:1;fill-rule:nonzero;stroke:#000000;stroke-width:1;stroke-linecap:butt;stroke-linejoin:miter;stroke-miterlimit:10;stroke-dasharray:none;stroke-opacity:1"
         transform="matrix(0.95680194,0,0,0.95680194,2.3920127,3.3488095)"
         clip-path="url(#clipPath70)"
         id="path71" />
    </g>
    <path
       id="path73"
       d="m 301,300 h 210 v 71 H 301 Z"
       style="fill:#dae8fc;fill-opacity:1;fill-rule:nonzero;stroke:#6c8ebf;stroke-width:1;stroke-linecap:butt;stroke-linejoin:miter;stroke-miterlimit:10;stroke-dasharray:none;stroke-opacity:1"
       transform="matrix(0.95680194,0,0,0.95680194,0.47840097,0.47840097)"
       clip-path="url(#clipPath74)" />
    <text
       id="text74"
       xml:space="preserve"
       transform="matrix(0.95681154,0,0,0.95681154,353.58672,332.01361)"
       clip-path="url(#clipPath75)"><tspan
         style="font-variant:normal;font-weight:normal;font-size:32px;font-family:Helvetica;writing-mode:lr-tb;fill:#000000;fill-opacity:1;fill-rule:nonzero;stroke:none"
         x="0 23.109375 40.90625 56.90625"
         y="0"
         sodipodi:role="line"
         id="tspan74">Desk</tspan></text>
    <path
       id="path76"
       d="m 221.11,415.5 h 69.78999"
       style="fill:none;stroke:#000000;stroke-width:1;stroke-linecap:butt;stroke-linejoin:miter;stroke-miterlimit:10;stroke-dasharray:none;stroke-opacity:1"
       transform="matrix(0.95680194,0,0,0.95680194,0.47840097,0.47840097)"
       clip-path="url(#clipPath77)" />
    <path
       id="path78"
       d="m 214.36,415.5 9,-4.5 -2.25,4.5 2.25,4.5 z"
       style="fill:#000000;fill-opacity:1;fill-rule:nonzero;stroke:#000000;stroke-width:1;stroke-linecap:butt;stroke-linejoin:miter;stroke-miterlimit:10;stroke-dasharray:none;stroke-opacity:1"
       transform="matrix(0.95680194,0,0,0.95680194,0.47840097,0.47840097)"
       clip-path="url(#clipPath79)" />
    <path
       id="path80"
       d="m 297.64999,415.5 -9,4.5 2.25,-4.5 -2.25,-4.5 z"
       style="fill:#000000;fill-opacity:1;fill-rule:nonzero;stroke:#000000;stroke-width:1;stroke-linecap:butt;stroke-linejoin:miter;stroke-miterlimit:10;stroke-dasharray:none;stroke-opacity:1"
       transform="matrix(0.95680194,0,0,0.95680194,0.47840097,0.47840097)"
       clip-path="url(#clipPath81)" />
    <g
       opacity="0.25"
       id="g83"
       clip-path="url(#clipPath84)">
      <path
         d="m 1,380 h 210 v 71 H 1 Z"
         style="fill:#000000;fill-opacity:1;fill-rule:nonzero;stroke:#000000;stroke-width:1;stroke-linecap:butt;stroke-linejoin:miter;stroke-miterlimit:10;stroke-dasharray:none;stroke-opacity:1"
         transform="matrix(0.95680194,0,0,0.95680194,2.3920049,3.3487903)"
         clip-path="url(#clipPath82)"
         id="path83" />
    </g>
    <path
       id="path85"
       d="m 1,380 h 210 v 71 H 1 Z"
       style="fill:#dae8fc;fill-opacity:1;fill-rule:nonzero;stroke:#6c8ebf;stroke-width:1;stroke-linecap:butt;stroke-linejoin:miter;stroke-miterlimit:10;stroke-dasharray:none;stroke-opacity:1"
       transform="matrix(0.95680194,0,0,0.95680194,0.47840097,0.47840097)"
       clip-path="url(#clipPath86)" />
    <text
       id="text86"
       xml:space="preserve"
       transform="matrix(0.95681154,0,0,0.95681154,52.908688,408.55853)"
       clip-path="url(#clipPath87)"><tspan
         style="font-variant:normal;font-weight:normal;font-size:32px;font-family:Helvetica;writing-mode:lr-tb;fill:#000000;fill-opacity:1;fill-rule:nonzero;stroke:none"
         x="0 21.34375 39.140625 49.796875 65.796875 83.59375"
         y="0"
         sodipodi:role="line"
         id="tspan86">Person</tspan></text>
    <g
       opacity="0.25"
       id="g89"
       clip-path="url(#clipPath90)">
      <path
         d="m 301,380 h 210 v 71 H 301 Z"
         style="fill:#000000;fill-opacity:1;fill-rule:nonzero;stroke:#000000;stroke-width:1;stroke-linecap:butt;stroke-linejoin:miter;stroke-miterlimit:10;stroke-dasharray:none;stroke-opacity:1"
         transform="matrix(0.95680194,0,0,0.95680194,2.3920127,3.3487903)"
         clip-path="url(#clipPath88)"
         id="path89" />
    </g>
    <path
       id="path91"
       d="m 301,380 h 210 v 71 H 301 Z"
       style="fill:#dae8fc;fill-opacity:1;fill-rule:nonzero;stroke:#6c8ebf;stroke-width:1;stroke-linecap:butt;stroke-linejoin:miter;stroke-miterlimit:10;stroke-dasharray:none;stroke-opacity:1"
       transform="matrix(0.95680194,0,0,0.95680194,0.47840097,0.47840097)"
       clip-path="url(#clipPath92)" />
    <text
       id="text92"
       xml:space="preserve"
       transform="matrix(0.95681154,0,0,0.95681154,337.06677,390.37911)"
       clip-path="url(#clipPath93)"><tspan
         style="font-variant:normal;font-weight:normal;font-size:32px;font-family:Helvetica;writing-mode:lr-tb;fill:#000000;fill-opacity:1;fill-rule:nonzero;stroke:none"
         x="0 23.109375 33.765625 40.875 56.875 74.671875 85.328125 91.4375"
         y="0"
         sodipodi:role="line"
         id="tspan92">Driver's</tspan></text>
    <text
       id="text93"
       xml:space="preserve"
       transform="matrix(0.95681154,0,0,0.95681154,335.69135,427.69476)"
       clip-path="url(#clipPath94)"><tspan
         style="font-variant:normal;font-weight:normal;font-size:32px;font-family:Helvetica;writing-mode:lr-tb;fill:#000000;fill-opacity:1;fill-rule:nonzero;stroke:none"
         x="0 17.796875 24.90625 40.90625 58.703125 76.5 92.5"
         y="0"
         sodipodi:role="line"
         id="tspan93">License</tspan></text>
  </g>
</svg>
