<?xml version="1.0" encoding="UTF-8" standalone="no"?>
<!-- Created with Inkscape (http://www.inkscape.org/) -->

<svg
   version="1.1"
   id="svg1"
   width="494.71997"
   height="482.55997"
   viewBox="0 0 494.71997 482.55997"
   sodipodi:docname="sql-13.pdf"
   xmlns:inkscape="http://www.inkscape.org/namespaces/inkscape"
   xmlns:sodipodi="http://sodipodi.sourceforge.net/DTD/sodipodi-0.dtd"
   xmlns="http://www.w3.org/2000/svg"
   xmlns:svg="http://www.w3.org/2000/svg">
  <defs
     id="defs1">
    <clipPath
       clipPathUnits="userSpaceOnUse"
       id="clipPath2">
      <path
         d="M 0,0 H 1545.8333 V 1506.9631 H 0 Z"
         transform="scale(0.33444747)"
         clip-rule="evenodd"
         id="path2" />
    </clipPath>
    <clipPath
       clipPathUnits="userSpaceOnUse"
       id="clipPath4">
      <path
         d="M 0,0 H 1545.8333 V 1503.9731 H 0 Z"
         transform="matrix(0.33444747,0,0,0.33444747,-0.5,-0.5)"
         clip-rule="evenodd"
         id="path4" />
    </clipPath>
    <clipPath
       clipPathUnits="userSpaceOnUse"
       id="clipPath6">
      <path
         d="M 0,0 H 1545.8333 V 1503.9731 H 0 Z"
         transform="matrix(0.33444747,0,0,0.33444747,-0.5,-0.5)"
         clip-rule="evenodd"
         id="path6" />
    </clipPath>
    <clipPath
       clipPathUnits="userSpaceOnUse"
       id="clipPath8">
      <path
         d="M 0,0 H 1545.8333 V 1503.9731 H 0 Z"
         transform="matrix(0.33444747,0,0,0.33444747,-0.5,-0.5)"
         clip-rule="evenodd"
         id="path8" />
    </clipPath>
    <clipPath
       clipPathUnits="userSpaceOnUse"
       id="clipPath10">
      <path
         d="M 0,0 H 1545.8333 V 1503.9731 H 0 Z"
         transform="matrix(0.33444747,0,0,0.33444747,-0.5,-0.5)"
         clip-rule="evenodd"
         id="path10" />
    </clipPath>
    <clipPath
       clipPathUnits="userSpaceOnUse"
       id="clipPath12">
      <path
         d="M 0,0 H 1545.8333 V 1503.9731 H 0 Z"
         transform="matrix(0.33444747,0,0,0.33444747,-0.5,-0.5)"
         clip-rule="evenodd"
         id="path12" />
    </clipPath>
    <clipPath
       clipPathUnits="userSpaceOnUse"
       id="clipPath14">
      <path
         d="M 0,0 H 1545.8333 V 1503.9731 H 0 Z"
         transform="matrix(0.33444747,0,0,0.33444747,-0.5,-0.5)"
         clip-rule="evenodd"
         id="path14" />
    </clipPath>
    <clipPath
       clipPathUnits="userSpaceOnUse"
       id="clipPath15">
      <path
         d="M 0,0 H 635 V 219 H 0 Z"
         transform="matrix(0.33444747,0,0,0.33444747,-0.15886777,110.88103)"
         id="path15" />
    </clipPath>
    <clipPath
       clipPathUnits="userSpaceOnUse"
       id="clipPath17">
      <path
         d="M 0,0 H 1545.8333 V 1503.9731 H 0 Z"
         transform="scale(0.31999999)"
         clip-rule="evenodd"
         id="path17" />
    </clipPath>
    <clipPath
       clipPathUnits="userSpaceOnUse"
       id="clipPath19">
      <path
         d="M 0,0 H 1545.8333 V 1503.9731 H 0 Z"
         transform="matrix(0.33444747,0,0,0.33444747,-0.5,-0.5)"
         clip-rule="evenodd"
         id="path19" />
    </clipPath>
    <clipPath
       clipPathUnits="userSpaceOnUse"
       id="clipPath20">
      <path
         d="M 0,0 H 1545.8333 V 1503.9731 H 0 Z"
         transform="matrix(0.33444411,0,0,0.33444411,-73.078126,-159.00001)"
         clip-rule="evenodd"
         id="path20" />
    </clipPath>
    <clipPath
       clipPathUnits="userSpaceOnUse"
       id="clipPath21">
      <path
         d="M 0,0 H 635 V 118 H 0 Z"
         transform="matrix(0.33444747,0,0,0.33444747,299.8405,87.804156)"
         id="path21" />
    </clipPath>
    <clipPath
       clipPathUnits="userSpaceOnUse"
       id="clipPath23">
      <path
         d="M 0,0 H 1545.8333 V 1503.9731 H 0 Z"
         transform="scale(0.31999999)"
         clip-rule="evenodd"
         id="path23" />
    </clipPath>
    <clipPath
       clipPathUnits="userSpaceOnUse"
       id="clipPath25">
      <path
         d="M 0,0 H 1545.8333 V 1503.9731 H 0 Z"
         transform="matrix(0.33444747,0,0,0.33444747,-0.5,-0.5)"
         clip-rule="evenodd"
         id="path25" />
    </clipPath>
    <clipPath
       clipPathUnits="userSpaceOnUse"
       id="clipPath26">
      <path
         d="M 0,0 H 1545.8333 V 1503.9731 H 0 Z"
         transform="matrix(0.33444411,0,0,0.33444411,-336.92188,-115)"
         clip-rule="evenodd"
         id="path26" />
    </clipPath>
    <clipPath
       clipPathUnits="userSpaceOnUse"
       id="clipPath27">
      <path
         d="M 0,0 H 1545.8333 V 1503.9731 H 0 Z"
         transform="matrix(0.33444411,0,0,0.33444411,-57.109375,-31)"
         clip-rule="evenodd"
         id="path27" />
    </clipPath>
    <clipPath
       clipPathUnits="userSpaceOnUse"
       id="clipPath28">
      <path
         d="M 0,0 H 1545.8333 V 1503.9731 H 0 Z"
         transform="matrix(0.33444411,0,0,0.33444411,-161.09375,-70)"
         clip-rule="evenodd"
         id="path28" />
    </clipPath>
    <clipPath
       clipPathUnits="userSpaceOnUse"
       id="clipPath29">
      <path
         d="M 0,0 H 635 V 117 H 0 Z"
         transform="matrix(0.33444747,0,0,0.33444747,299.8405,127.93785)"
         id="path29" />
    </clipPath>
    <clipPath
       clipPathUnits="userSpaceOnUse"
       id="clipPath31">
      <path
         d="M 0,0 H 1545.8333 V 1503.9731 H 0 Z"
         transform="scale(0.31999999)"
         clip-rule="evenodd"
         id="path31" />
    </clipPath>
    <clipPath
       clipPathUnits="userSpaceOnUse"
       id="clipPath33">
      <path
         d="M 0,0 H 1545.8333 V 1503.9731 H 0 Z"
         transform="matrix(0.33444747,0,0,0.33444747,-0.5,-0.5)"
         clip-rule="evenodd"
         id="path33" />
    </clipPath>
    <clipPath
       clipPathUnits="userSpaceOnUse"
       id="clipPath34">
      <path
         d="M 0,0 H 1545.8333 V 1503.9731 H 0 Z"
         transform="matrix(0.33444411,0,0,0.33444411,-336.92188,-155)"
         clip-rule="evenodd"
         id="path34" />
    </clipPath>
    <clipPath
       clipPathUnits="userSpaceOnUse"
       id="clipPath35">
      <path
         d="M 0,0 H 635 V 118 H 0 Z"
         transform="matrix(0.33444747,0,0,0.33444747,299.8405,167.7371)"
         id="path35" />
    </clipPath>
    <clipPath
       clipPathUnits="userSpaceOnUse"
       id="clipPath37">
      <path
         d="M 0,0 H 1545.8333 V 1503.9731 H 0 Z"
         transform="scale(0.31999999)"
         clip-rule="evenodd"
         id="path37" />
    </clipPath>
    <clipPath
       clipPathUnits="userSpaceOnUse"
       id="clipPath39">
      <path
         d="M 0,0 H 1545.8333 V 1503.9731 H 0 Z"
         transform="matrix(0.33444747,0,0,0.33444747,-0.5,-0.5)"
         clip-rule="evenodd"
         id="path39" />
    </clipPath>
    <clipPath
       clipPathUnits="userSpaceOnUse"
       id="clipPath40">
      <path
         d="M 0,0 H 1545.8333 V 1503.9731 H 0 Z"
         transform="matrix(0.33444411,0,0,0.33444411,-336.92188,-195)"
         clip-rule="evenodd"
         id="path40" />
    </clipPath>
    <clipPath
       clipPathUnits="userSpaceOnUse"
       id="clipPath42">
      <path
         d="M 0,0 H 1545.8333 V 1503.9731 H 0 Z"
         transform="matrix(0.33444747,0,0,0.33444747,-0.5,-0.5)"
         clip-rule="evenodd"
         id="path42" />
    </clipPath>
    <clipPath
       clipPathUnits="userSpaceOnUse"
       id="clipPath44">
      <path
         d="M 0,0 H 1545.8333 V 1503.9731 H 0 Z"
         transform="matrix(0.33444747,0,0,0.33444747,-0.5,-0.5)"
         clip-rule="evenodd"
         id="path44" />
    </clipPath>
    <clipPath
       clipPathUnits="userSpaceOnUse"
       id="clipPath46">
      <path
         d="M 0,0 H 1545.8333 V 1503.9731 H 0 Z"
         transform="matrix(0.33444747,0,0,0.33444747,-0.5,-0.5)"
         clip-rule="evenodd"
         id="path46" />
    </clipPath>
    <clipPath
       clipPathUnits="userSpaceOnUse"
       id="clipPath48">
      <path
         d="M 0,0 H 1545.8333 V 1503.9731 H 0 Z"
         transform="matrix(0.33444747,0,0,0.33444747,-0.5,-0.5)"
         clip-rule="evenodd"
         id="path48" />
    </clipPath>
    <clipPath
       clipPathUnits="userSpaceOnUse"
       id="clipPath50">
      <path
         d="M 0,0 H 1545.8333 V 1503.9731 H 0 Z"
         transform="matrix(0.33444747,0,0,0.33444747,-0.5,-0.5)"
         clip-rule="evenodd"
         id="path50" />
    </clipPath>
    <clipPath
       clipPathUnits="userSpaceOnUse"
       id="clipPath52">
      <path
         d="M 0,0 H 1545.8333 V 1503.9731 H 0 Z"
         transform="matrix(0.33444747,0,0,0.33444747,-0.5,-0.5)"
         clip-rule="evenodd"
         id="path52" />
    </clipPath>
    <clipPath
       clipPathUnits="userSpaceOnUse"
       id="clipPath53">
      <path
         d="M 0,0 H 635 V 220 H 0 Z"
         transform="matrix(0.33444747,0,0,0.33444747,-0.15886777,253.6901)"
         id="path53" />
    </clipPath>
    <clipPath
       clipPathUnits="userSpaceOnUse"
       id="clipPath55">
      <path
         d="M 0,0 H 1545.8333 V 1503.9731 H 0 Z"
         transform="scale(0.31999999)"
         clip-rule="evenodd"
         id="path55" />
    </clipPath>
    <clipPath
       clipPathUnits="userSpaceOnUse"
       id="clipPath57">
      <path
         d="M 0,0 H 1545.8333 V 1503.9731 H 0 Z"
         transform="matrix(0.33444747,0,0,0.33444747,-0.5,-0.5)"
         clip-rule="evenodd"
         id="path57" />
    </clipPath>
    <clipPath
       clipPathUnits="userSpaceOnUse"
       id="clipPath58">
      <path
         d="M 0,0 H 1545.8333 V 1503.9731 H 0 Z"
         transform="matrix(0.33444411,0,0,0.33444411,-57.078125,-302.00001)"
         clip-rule="evenodd"
         id="path58" />
    </clipPath>
    <clipPath
       clipPathUnits="userSpaceOnUse"
       id="clipPath59">
      <path
         d="M 0,0 H 635 V 117 H 0 Z"
         transform="matrix(0.33444747,0,0,0.33444747,299.8405,230.94767)"
         id="path59" />
    </clipPath>
    <clipPath
       clipPathUnits="userSpaceOnUse"
       id="clipPath61">
      <path
         d="M 0,0 H 1545.8333 V 1503.9731 H 0 Z"
         transform="scale(0.31999999)"
         clip-rule="evenodd"
         id="path61" />
    </clipPath>
    <clipPath
       clipPathUnits="userSpaceOnUse"
       id="clipPath63">
      <path
         d="M 0,0 H 1545.8333 V 1503.9731 H 0 Z"
         transform="matrix(0.33444747,0,0,0.33444747,-0.5,-0.5)"
         clip-rule="evenodd"
         id="path63" />
    </clipPath>
    <clipPath
       clipPathUnits="userSpaceOnUse"
       id="clipPath64">
      <path
         d="M 0,0 H 1545.8333 V 1503.9731 H 0 Z"
         transform="matrix(0.33444411,0,0,0.33444411,-368.07813,-258)"
         clip-rule="evenodd"
         id="path64" />
    </clipPath>
    <clipPath
       clipPathUnits="userSpaceOnUse"
       id="clipPath65">
      <path
         d="M 0,0 H 635 V 118 H 0 Z"
         transform="matrix(0.33444747,0,0,0.33444747,299.8405,270.74692)"
         id="path65" />
    </clipPath>
    <clipPath
       clipPathUnits="userSpaceOnUse"
       id="clipPath67">
      <path
         d="M 0,0 H 1545.8333 V 1503.9731 H 0 Z"
         transform="scale(0.31999999)"
         clip-rule="evenodd"
         id="path67" />
    </clipPath>
    <clipPath
       clipPathUnits="userSpaceOnUse"
       id="clipPath69">
      <path
         d="M 0,0 H 1545.8333 V 1503.9731 H 0 Z"
         transform="matrix(0.33444747,0,0,0.33444747,-0.5,-0.5)"
         clip-rule="evenodd"
         id="path69" />
    </clipPath>
    <clipPath
       clipPathUnits="userSpaceOnUse"
       id="clipPath70">
      <path
         d="M 0,0 H 1545.8333 V 1503.9731 H 0 Z"
         transform="matrix(0.33444411,0,0,0.33444411,-368.07813,-298)"
         clip-rule="evenodd"
         id="path70" />
    </clipPath>
    <clipPath
       clipPathUnits="userSpaceOnUse"
       id="clipPath71">
      <path
         d="M 0,0 H 635 V 117 H 0 Z"
         transform="matrix(0.33444747,0,0,0.33444747,299.8405,310.88062)"
         id="path71" />
    </clipPath>
    <clipPath
       clipPathUnits="userSpaceOnUse"
       id="clipPath73">
      <path
         d="M 0,0 H 1545.8333 V 1503.9731 H 0 Z"
         transform="scale(0.31999999)"
         clip-rule="evenodd"
         id="path73" />
    </clipPath>
    <clipPath
       clipPathUnits="userSpaceOnUse"
       id="clipPath75">
      <path
         d="M 0,0 H 1545.8333 V 1503.9731 H 0 Z"
         transform="matrix(0.33444747,0,0,0.33444747,-0.5,-0.5)"
         clip-rule="evenodd"
         id="path75" />
    </clipPath>
    <clipPath
       clipPathUnits="userSpaceOnUse"
       id="clipPath76">
      <path
         d="M 0,0 H 1545.8333 V 1503.9731 H 0 Z"
         transform="matrix(0.33444411,0,0,0.33444411,-368.07813,-338)"
         clip-rule="evenodd"
         id="path76" />
    </clipPath>
    <clipPath
       clipPathUnits="userSpaceOnUse"
       id="clipPath78">
      <path
         d="M 0,0 H 1545.8333 V 1503.9731 H 0 Z"
         transform="matrix(0.33444747,0,0,0.33444747,-0.5,-0.5)"
         clip-rule="evenodd"
         id="path78" />
    </clipPath>
    <clipPath
       clipPathUnits="userSpaceOnUse"
       id="clipPath80">
      <path
         d="M 0,0 H 1545.8333 V 1503.9731 H 0 Z"
         transform="matrix(0.33444747,0,0,0.33444747,-0.5,-0.5)"
         clip-rule="evenodd"
         id="path80" />
    </clipPath>
    <clipPath
       clipPathUnits="userSpaceOnUse"
       id="clipPath82">
      <path
         d="M 0,0 H 1545.8333 V 1503.9731 H 0 Z"
         transform="matrix(0.33444747,0,0,0.33444747,-0.5,-0.5)"
         clip-rule="evenodd"
         id="path82" />
    </clipPath>
    <clipPath
       clipPathUnits="userSpaceOnUse"
       id="clipPath84">
      <path
         d="M 0,0 H 1545.8333 V 1503.9731 H 0 Z"
         transform="matrix(0.33444747,0,0,0.33444747,-0.5,-0.5)"
         clip-rule="evenodd"
         id="path84" />
    </clipPath>
    <clipPath
       clipPathUnits="userSpaceOnUse"
       id="clipPath86">
      <path
         d="M 0,0 H 1545.8333 V 1503.9731 H 0 Z"
         transform="matrix(0.33444747,0,0,0.33444747,-0.5,-0.5)"
         clip-rule="evenodd"
         id="path86" />
    </clipPath>
    <clipPath
       clipPathUnits="userSpaceOnUse"
       id="clipPath88">
      <path
         d="M 0,0 H 1545.8333 V 1503.9731 H 0 Z"
         transform="matrix(0.33444747,0,0,0.33444747,-0.5,-0.5)"
         clip-rule="evenodd"
         id="path88" />
    </clipPath>
    <clipPath
       clipPathUnits="userSpaceOnUse"
       id="clipPath89">
      <path
         d="M 0,0 H 635 V 219 H 0 Z"
         transform="matrix(0.33444747,0,0,0.33444747,-0.15886777,400.84701)"
         id="path89" />
    </clipPath>
    <clipPath
       clipPathUnits="userSpaceOnUse"
       id="clipPath91">
      <path
         d="M 0,0 H 1545.8333 V 1503.9731 H 0 Z"
         transform="scale(0.31999999)"
         clip-rule="evenodd"
         id="path91" />
    </clipPath>
    <clipPath
       clipPathUnits="userSpaceOnUse"
       id="clipPath93">
      <path
         d="M 0,0 H 1545.8333 V 1503.9731 H 0 Z"
         transform="matrix(0.33444747,0,0,0.33444747,-0.5,-0.5)"
         clip-rule="evenodd"
         id="path93" />
    </clipPath>
    <clipPath
       clipPathUnits="userSpaceOnUse"
       id="clipPath94">
      <path
         d="M 0,0 H 1545.8333 V 1503.9731 H 0 Z"
         transform="matrix(0.33444411,0,0,0.33444411,-37.515625,-449)"
         clip-rule="evenodd"
         id="path94" />
    </clipPath>
    <clipPath
       clipPathUnits="userSpaceOnUse"
       id="clipPath95">
      <path
         d="M 0,0 H 635 V 118 H 0 Z"
         transform="matrix(0.33444747,0,0,0.33444747,299.8405,377.77013)"
         id="path95" />
    </clipPath>
    <clipPath
       clipPathUnits="userSpaceOnUse"
       id="clipPath97">
      <path
         d="M 0,0 H 1545.8333 V 1503.9731 H 0 Z"
         transform="scale(0.31999999)"
         clip-rule="evenodd"
         id="path97" />
    </clipPath>
    <clipPath
       clipPathUnits="userSpaceOnUse"
       id="clipPath99">
      <path
         d="M 0,0 H 1545.8333 V 1503.9731 H 0 Z"
         transform="matrix(0.33444747,0,0,0.33444747,-0.5,-0.5)"
         clip-rule="evenodd"
         id="path99" />
    </clipPath>
    <clipPath
       clipPathUnits="userSpaceOnUse"
       id="clipPath100">
      <path
         d="M 0,0 H 1545.8333 V 1503.9731 H 0 Z"
         transform="matrix(0.33444411,0,0,0.33444411,-357.07813,-405.00001)"
         clip-rule="evenodd"
         id="path100" />
    </clipPath>
    <clipPath
       clipPathUnits="userSpaceOnUse"
       id="clipPath101">
      <path
         d="M 0,0 H 635 V 117 H 0 Z"
         transform="matrix(0.33444747,0,0,0.33444747,299.8405,417.90383)"
         id="path101" />
    </clipPath>
    <clipPath
       clipPathUnits="userSpaceOnUse"
       id="clipPath103">
      <path
         d="M 0,0 H 1545.8333 V 1503.9731 H 0 Z"
         transform="scale(0.31999999)"
         clip-rule="evenodd"
         id="path103" />
    </clipPath>
    <clipPath
       clipPathUnits="userSpaceOnUse"
       id="clipPath105">
      <path
         d="M 0,0 H 1545.8333 V 1503.9731 H 0 Z"
         transform="matrix(0.33444747,0,0,0.33444747,-0.5,-0.5)"
         clip-rule="evenodd"
         id="path105" />
    </clipPath>
    <clipPath
       clipPathUnits="userSpaceOnUse"
       id="clipPath106">
      <path
         d="M 0,0 H 1545.8333 V 1503.9731 H 0 Z"
         transform="matrix(0.33444411,0,0,0.33444411,-357.07813,-445)"
         clip-rule="evenodd"
         id="path106" />
    </clipPath>
    <clipPath
       clipPathUnits="userSpaceOnUse"
       id="clipPath107">
      <path
         d="M 0,0 H 635 V 118 H 0 Z"
         transform="matrix(0.33444747,0,0,0.33444747,299.8405,457.70308)"
         id="path107" />
    </clipPath>
    <clipPath
       clipPathUnits="userSpaceOnUse"
       id="clipPath109">
      <path
         d="M 0,0 H 1545.8333 V 1503.9731 H 0 Z"
         transform="scale(0.31999999)"
         clip-rule="evenodd"
         id="path109" />
    </clipPath>
    <clipPath
       clipPathUnits="userSpaceOnUse"
       id="clipPath111">
      <path
         d="M 0,0 H 1545.8333 V 1503.9731 H 0 Z"
         transform="matrix(0.33444747,0,0,0.33444747,-0.5,-0.5)"
         clip-rule="evenodd"
         id="path111" />
    </clipPath>
    <clipPath
       clipPathUnits="userSpaceOnUse"
       id="clipPath112">
      <path
         d="M 0,0 H 1545.8333 V 1503.9731 H 0 Z"
         transform="matrix(0.33444411,0,0,0.33444411,-357.07813,-484)"
         clip-rule="evenodd"
         id="path112" />
    </clipPath>
  </defs>
  <sodipodi:namedview
     id="namedview1"
     pagecolor="#ffffff"
     bordercolor="#000000"
     borderopacity="0.25"
     inkscape:showpageshadow="2"
     inkscape:pageopacity="0.0"
     inkscape:pagecheckerboard="0"
     inkscape:deskcolor="#d1d1d1">
    <inkscape:page
       x="0"
       y="0"
       inkscape:label="1"
       id="page1"
       width="494.71997"
       height="482.55997"
       margin="0"
       bleed="0" />
  </sodipodi:namedview>
  <g
     id="g1"
     inkscape:groupmode="layer"
     inkscape:label="1">
    <path
       id="path1"
       d="M 0,0 H 517 V 504 H 0 Z"
       style="fill:#ffffff;fill-opacity:1;fill-rule:nonzero;stroke:none"
       transform="scale(0.95680194)"
       clip-path="url(#clipPath2)" />
    <path
       id="path3"
       d="m 211,147.5 h 83.63"
       style="fill:none;stroke:#000000;stroke-width:1;stroke-linecap:butt;stroke-linejoin:miter;stroke-miterlimit:10;stroke-dasharray:none;stroke-opacity:1"
       transform="matrix(0.95680194,0,0,0.95680194,0.47840097,0.47840097)"
       clip-path="url(#clipPath4)" />
    <path
       id="path5"
       d="m 299.88,147.5 -7,3.5 1.75,-3.5 -1.75,-3.5 z"
       style="fill:#000000;fill-opacity:1;fill-rule:nonzero;stroke:#000000;stroke-width:1;stroke-linecap:butt;stroke-linejoin:miter;stroke-miterlimit:10;stroke-dasharray:none;stroke-opacity:1"
       transform="matrix(0.95680194,0,0,0.95680194,0.47840097,0.47840097)"
       clip-path="url(#clipPath6)" />
    <path
       id="path7"
       d="m 211,147.5 h 45 v 40 h 38.63"
       style="fill:none;stroke:#000000;stroke-width:1;stroke-linecap:butt;stroke-linejoin:miter;stroke-miterlimit:10;stroke-dasharray:none;stroke-opacity:1"
       transform="matrix(0.95680194,0,0,0.95680194,0.47840097,0.47840097)"
       clip-path="url(#clipPath8)" />
    <path
       id="path9"
       d="m 299.88,187.5 -7,3.5 1.75,-3.5 -1.75,-3.5 z"
       style="fill:#000000;fill-opacity:1;fill-rule:nonzero;stroke:#000000;stroke-width:1;stroke-linecap:butt;stroke-linejoin:miter;stroke-miterlimit:10;stroke-dasharray:none;stroke-opacity:1"
       transform="matrix(0.95680194,0,0,0.95680194,0.47840097,0.47840097)"
       clip-path="url(#clipPath10)" />
    <path
       id="path11"
       d="m 211,147.5 h 45 v -40 h 38.63"
       style="fill:none;stroke:#000000;stroke-width:1;stroke-linecap:butt;stroke-linejoin:miter;stroke-miterlimit:10;stroke-dasharray:none;stroke-opacity:1"
       transform="matrix(0.95680194,0,0,0.95680194,0.47840097,0.47840097)"
       clip-path="url(#clipPath12)" />
    <path
       id="path13"
       d="m 299.88,107.5 -7,3.5 1.75,-3.5 -1.75,-3.5 z"
       style="fill:#000000;fill-opacity:1;fill-rule:nonzero;stroke:#000000;stroke-width:1;stroke-linecap:butt;stroke-linejoin:miter;stroke-miterlimit:10;stroke-dasharray:none;stroke-opacity:1"
       transform="matrix(0.95680194,0,0,0.95680194,0.47840097,0.47840097)"
       clip-path="url(#clipPath14)" />
    <g
       opacity="0.25"
       id="g16"
       clip-path="url(#clipPath17)">
      <path
         d="m 1,112 h 210 v 71 H 1 Z"
         style="fill:#000000;fill-opacity:1;fill-rule:nonzero;stroke:#000000;stroke-width:1;stroke-linecap:butt;stroke-linejoin:miter;stroke-miterlimit:10;stroke-dasharray:none;stroke-opacity:1"
         transform="matrix(0.95680194,0,0,0.95680194,2.3920049,3.3488095)"
         clip-path="url(#clipPath15)"
         id="path16" />
    </g>
    <path
       id="path18"
       d="m 1,112 h 210 v 71 H 1 Z"
       style="fill:#dae8fc;fill-opacity:1;fill-rule:nonzero;stroke:#6c8ebf;stroke-width:1;stroke-linecap:butt;stroke-linejoin:miter;stroke-miterlimit:10;stroke-dasharray:none;stroke-opacity:1"
       transform="matrix(0.95680194,0,0,0.95680194,0.47840097,0.47840097)"
       clip-path="url(#clipPath19)" />
    <text
       id="text19"
       xml:space="preserve"
       transform="matrix(0.95681154,0,0,0.95681154,69.921994,152.13304)"
       clip-path="url(#clipPath20)"><tspan
         style="font-variant:normal;font-weight:normal;font-size:32px;font-family:Helvetica;writing-mode:lr-tb;fill:#000000;fill-opacity:1;fill-rule:nonzero;stroke:none"
         x="0 21.34375 39.140625 56.9375"
         y="0"
         sodipodi:role="line"
         id="tspan19">Boat</tspan></text>
    <g
       opacity="0.25"
       id="g22"
       clip-path="url(#clipPath23)">
      <path
         d="m 301,89 h 210 v 37 H 301 Z"
         style="fill:#000000;fill-opacity:1;fill-rule:nonzero;stroke:#000000;stroke-width:1;stroke-linecap:butt;stroke-linejoin:miter;stroke-miterlimit:10;stroke-dasharray:none;stroke-opacity:1"
         transform="matrix(0.95680194,0,0,0.95680194,2.3920127,3.3488095)"
         clip-path="url(#clipPath21)"
         id="path22" />
    </g>
    <path
       id="path24"
       d="m 301,89 h 210 v 37 H 301 Z"
       style="fill:#dae8fc;fill-opacity:1;fill-rule:nonzero;stroke:#6c8ebf;stroke-width:1;stroke-linecap:butt;stroke-linejoin:miter;stroke-miterlimit:10;stroke-dasharray:none;stroke-opacity:1"
       transform="matrix(0.95680194,0,0,0.95680194,0.47840097,0.47840097)"
       clip-path="url(#clipPath25)" />
    <text
       id="text25"
       xml:space="preserve"
       transform="matrix(0.95681154,0,0,0.95681154,322.37074,110.03333)"
       clip-path="url(#clipPath26)"><tspan
         style="font-variant:normal;font-weight:normal;font-size:22px;font-family:Helvetica;writing-mode:lr-tb;fill:#000000;fill-opacity:1;fill-rule:nonzero;stroke:none"
         x="0 15.887695 23.213867 35.449219 51.336914 57.449219 75.775391 88.010742 106.33691 118.57227 130.80762"
         y="0"
         sodipodi:role="line"
         id="tspan25">Crew member</tspan></text>
    <text
       id="text26"
       xml:space="preserve"
       transform="matrix(0.95681154,0,0,0.95681154,54.642909,29.661158)"
       clip-path="url(#clipPath27)"><tspan
         style="font-variant:normal;font-weight:700;font-size:32px;font-family:Helvetica;writing-mode:lr-tb;fill:#000000;fill-opacity:1;fill-rule:nonzero;stroke:none"
         x="0 24.890625 44.4375 62.234375 72.890625 83.546875 103.09375 113.75 140.40625 158.20312 177.75 195.54688 204.4375 213.32812 222.21875 248.875 266.67188 286.21875 304.01562 314.67188 325.32812 344.875 355.53125 380.42188 399.96875"
         y="0"
         sodipodi:role="line"
         id="tspan26">One-to-Many / Many-to-One</tspan></text>
    <text
       id="text27"
       xml:space="preserve"
       transform="matrix(0.95681154,0,0,0.95681154,154.13636,66.976808)"
       clip-path="url(#clipPath28)"><tspan
         style="font-variant:normal;font-weight:700;font-size:32px;font-family:Helvetica;writing-mode:lr-tb;fill:#000000;fill-opacity:1;fill-rule:nonzero;stroke:none"
         x="0 23.109375 40.90625 49.796875 67.59375 78.25 87.140625 106.6875 126.23438 144.03125 163.57812 172.46875 192.01562"
         y="0"
         sodipodi:role="line"
         id="tspan27">Relationships</tspan></text>
    <g
       opacity="0.25"
       id="g30"
       clip-path="url(#clipPath31)">
      <path
         d="m 301,129 h 210 v 37 H 301 Z"
         style="fill:#000000;fill-opacity:1;fill-rule:nonzero;stroke:#000000;stroke-width:1;stroke-linecap:butt;stroke-linejoin:miter;stroke-miterlimit:10;stroke-dasharray:none;stroke-opacity:1"
         transform="matrix(0.95680194,0,0,0.95680194,2.3920127,3.3488095)"
         clip-path="url(#clipPath29)"
         id="path30" />
    </g>
    <path
       id="path32"
       d="m 301,129 h 210 v 37 H 301 Z"
       style="fill:#dae8fc;fill-opacity:1;fill-rule:nonzero;stroke:#6c8ebf;stroke-width:1;stroke-linecap:butt;stroke-linejoin:miter;stroke-miterlimit:10;stroke-dasharray:none;stroke-opacity:1"
       transform="matrix(0.95680194,0,0,0.95680194,0.47840097,0.47840097)"
       clip-path="url(#clipPath33)" />
    <text
       id="text33"
       xml:space="preserve"
       transform="matrix(0.95681154,0,0,0.95681154,322.37074,148.30579)"
       clip-path="url(#clipPath34)"><tspan
         style="font-variant:normal;font-weight:normal;font-size:22px;font-family:Helvetica;writing-mode:lr-tb;fill:#000000;fill-opacity:1;fill-rule:nonzero;stroke:none"
         x="0 15.887695 23.213867 35.449219 51.336914 57.449219 75.775391 88.010742 106.33691 118.57227 130.80762"
         y="0"
         sodipodi:role="line"
         id="tspan33">Crew member</tspan></text>
    <g
       opacity="0.25"
       id="g36"
       clip-path="url(#clipPath37)">
      <path
         d="m 301,169 h 210 v 37 H 301 Z"
         style="fill:#000000;fill-opacity:1;fill-rule:nonzero;stroke:#000000;stroke-width:1;stroke-linecap:butt;stroke-linejoin:miter;stroke-miterlimit:10;stroke-dasharray:none;stroke-opacity:1"
         transform="matrix(0.95680194,0,0,0.95680194,2.3920127,3.3488095)"
         clip-path="url(#clipPath35)"
         id="path36" />
    </g>
    <path
       id="path38"
       d="m 301,169 h 210 v 37 H 301 Z"
       style="fill:#dae8fc;fill-opacity:1;fill-rule:nonzero;stroke:#6c8ebf;stroke-width:1;stroke-linecap:butt;stroke-linejoin:miter;stroke-miterlimit:10;stroke-dasharray:none;stroke-opacity:1"
       transform="matrix(0.95680194,0,0,0.95680194,0.47840097,0.47840097)"
       clip-path="url(#clipPath39)" />
    <text
       id="text39"
       xml:space="preserve"
       transform="matrix(0.95681154,0,0,0.95681154,322.37074,186.57825)"
       clip-path="url(#clipPath40)"><tspan
         style="font-variant:normal;font-weight:normal;font-size:22px;font-family:Helvetica;writing-mode:lr-tb;fill:#000000;fill-opacity:1;fill-rule:nonzero;stroke:none"
         x="0 15.887695 23.213867 35.449219 51.336914 57.449219 75.775391 88.010742 106.33691 118.57227 130.80762"
         y="0"
         sodipodi:role="line"
         id="tspan39">Crew member</tspan></text>
    <path
       id="path41"
       d="m 211,290.5 h 83.63"
       style="fill:none;stroke:#000000;stroke-width:1;stroke-linecap:butt;stroke-linejoin:miter;stroke-miterlimit:10;stroke-dasharray:none;stroke-opacity:1"
       transform="matrix(0.95680194,0,0,0.95680194,0.47840097,0.47840097)"
       clip-path="url(#clipPath42)" />
    <path
       id="path43"
       d="m 299.88,290.5 -7,3.5 1.75,-3.5 -1.75,-3.5 z"
       style="fill:#000000;fill-opacity:1;fill-rule:nonzero;stroke:#000000;stroke-width:1;stroke-linecap:butt;stroke-linejoin:miter;stroke-miterlimit:10;stroke-dasharray:none;stroke-opacity:1"
       transform="matrix(0.95680194,0,0,0.95680194,0.47840097,0.47840097)"
       clip-path="url(#clipPath44)" />
    <path
       id="path45"
       d="m 211,290.5 h 45 v 40 h 38.63"
       style="fill:none;stroke:#000000;stroke-width:1;stroke-linecap:butt;stroke-linejoin:miter;stroke-miterlimit:10;stroke-dasharray:none;stroke-opacity:1"
       transform="matrix(0.95680194,0,0,0.95680194,0.47840097,0.47840097)"
       clip-path="url(#clipPath46)" />
    <path
       id="path47"
       d="m 299.88,330.5 -7,3.5 1.75,-3.5 -1.75,-3.5 z"
       style="fill:#000000;fill-opacity:1;fill-rule:nonzero;stroke:#000000;stroke-width:1;stroke-linecap:butt;stroke-linejoin:miter;stroke-miterlimit:10;stroke-dasharray:none;stroke-opacity:1"
       transform="matrix(0.95680194,0,0,0.95680194,0.47840097,0.47840097)"
       clip-path="url(#clipPath48)" />
    <path
       id="path49"
       d="m 211,290.5 h 45 v -40 h 38.63"
       style="fill:none;stroke:#000000;stroke-width:1;stroke-linecap:butt;stroke-linejoin:miter;stroke-miterlimit:10;stroke-dasharray:none;stroke-opacity:1"
       transform="matrix(0.95680194,0,0,0.95680194,0.47840097,0.47840097)"
       clip-path="url(#clipPath50)" />
    <path
       id="path51"
       d="m 299.88,250.5 -7,3.5 1.75,-3.5 -1.75,-3.5 z"
       style="fill:#000000;fill-opacity:1;fill-rule:nonzero;stroke:#000000;stroke-width:1;stroke-linecap:butt;stroke-linejoin:miter;stroke-miterlimit:10;stroke-dasharray:none;stroke-opacity:1"
       transform="matrix(0.95680194,0,0,0.95680194,0.47840097,0.47840097)"
       clip-path="url(#clipPath52)" />
    <g
       opacity="0.25"
       id="g54"
       clip-path="url(#clipPath55)">
      <path
         d="m 1,255 h 210 v 71 H 1 Z"
         style="fill:#000000;fill-opacity:1;fill-rule:nonzero;stroke:#000000;stroke-width:1;stroke-linecap:butt;stroke-linejoin:miter;stroke-miterlimit:10;stroke-dasharray:none;stroke-opacity:1"
         transform="matrix(0.95680194,0,0,0.95680194,2.3920049,3.3488095)"
         clip-path="url(#clipPath53)"
         id="path54" />
    </g>
    <path
       id="path56"
       d="m 1,255 h 210 v 71 H 1 Z"
       style="fill:#dae8fc;fill-opacity:1;fill-rule:nonzero;stroke:#6c8ebf;stroke-width:1;stroke-linecap:butt;stroke-linejoin:miter;stroke-miterlimit:10;stroke-dasharray:none;stroke-opacity:1"
       transform="matrix(0.95680194,0,0,0.95680194,0.47840097,0.47840097)"
       clip-path="url(#clipPath57)" />
    <text
       id="text57"
       xml:space="preserve"
       transform="matrix(0.95681154,0,0,0.95681154,54.613009,288.95709)"
       clip-path="url(#clipPath58)"><tspan
         style="font-variant:normal;font-weight:normal;font-size:32px;font-family:Helvetica;writing-mode:lr-tb;fill:#000000;fill-opacity:1;fill-rule:nonzero;stroke:none"
         x="0 21.34375 37.34375 55.140625 72.9375 90.734375"
         y="0"
         sodipodi:role="line"
         id="tspan57">School</tspan></text>
    <g
       opacity="0.25"
       id="g60"
       clip-path="url(#clipPath61)">
      <path
         d="m 301,232 h 210 v 37 H 301 Z"
         style="fill:#000000;fill-opacity:1;fill-rule:nonzero;stroke:#000000;stroke-width:1;stroke-linecap:butt;stroke-linejoin:miter;stroke-miterlimit:10;stroke-dasharray:none;stroke-opacity:1"
         transform="matrix(0.95680194,0,0,0.95680194,2.3920127,3.3488095)"
         clip-path="url(#clipPath59)"
         id="path60" />
    </g>
    <path
       id="path62"
       d="m 301,232 h 210 v 37 H 301 Z"
       style="fill:#dae8fc;fill-opacity:1;fill-rule:nonzero;stroke:#6c8ebf;stroke-width:1;stroke-linecap:butt;stroke-linejoin:miter;stroke-miterlimit:10;stroke-dasharray:none;stroke-opacity:1"
       transform="matrix(0.95680194,0,0,0.95680194,0.47840097,0.47840097)"
       clip-path="url(#clipPath63)" />
    <text
       id="text63"
       xml:space="preserve"
       transform="matrix(0.95681154,0,0,0.95681154,352.1814,246.85738)"
       clip-path="url(#clipPath64)"><tspan
         style="font-variant:normal;font-weight:normal;font-size:22px;font-family:Helvetica;writing-mode:lr-tb;fill:#000000;fill-opacity:1;fill-rule:nonzero;stroke:none"
         x="0 14.673828 20.786133 33.021484 45.256836 57.492188 69.727539"
         y="0"
         sodipodi:role="line"
         id="tspan63">Student</tspan></text>
    <g
       opacity="0.25"
       id="g66"
       clip-path="url(#clipPath67)">
      <path
         d="m 301,272 h 210 v 37 H 301 Z"
         style="fill:#000000;fill-opacity:1;fill-rule:nonzero;stroke:#000000;stroke-width:1;stroke-linecap:butt;stroke-linejoin:miter;stroke-miterlimit:10;stroke-dasharray:none;stroke-opacity:1"
         transform="matrix(0.95680194,0,0,0.95680194,2.3920127,3.3488095)"
         clip-path="url(#clipPath65)"
         id="path66" />
    </g>
    <path
       id="path68"
       d="m 301,272 h 210 v 37 H 301 Z"
       style="fill:#dae8fc;fill-opacity:1;fill-rule:nonzero;stroke:#6c8ebf;stroke-width:1;stroke-linecap:butt;stroke-linejoin:miter;stroke-miterlimit:10;stroke-dasharray:none;stroke-opacity:1"
       transform="matrix(0.95680194,0,0,0.95680194,0.47840097,0.47840097)"
       clip-path="url(#clipPath69)" />
    <text
       id="text69"
       xml:space="preserve"
       transform="matrix(0.95681154,0,0,0.95681154,352.1814,285.12984)"
       clip-path="url(#clipPath70)"><tspan
         style="font-variant:normal;font-weight:normal;font-size:22px;font-family:Helvetica;writing-mode:lr-tb;fill:#000000;fill-opacity:1;fill-rule:nonzero;stroke:none"
         x="0 14.673828 20.786133 33.021484 45.256836 57.492188 69.727539"
         y="0"
         sodipodi:role="line"
         id="tspan69">Student</tspan></text>
    <g
       opacity="0.25"
       id="g72"
       clip-path="url(#clipPath73)">
      <path
         d="m 301,312 h 210 v 37 H 301 Z"
         style="fill:#000000;fill-opacity:1;fill-rule:nonzero;stroke:#000000;stroke-width:1;stroke-linecap:butt;stroke-linejoin:miter;stroke-miterlimit:10;stroke-dasharray:none;stroke-opacity:1"
         transform="matrix(0.95680194,0,0,0.95680194,2.3920127,3.3488095)"
         clip-path="url(#clipPath71)"
         id="path72" />
    </g>
    <path
       id="path74"
       d="m 301,312 h 210 v 37 H 301 Z"
       style="fill:#dae8fc;fill-opacity:1;fill-rule:nonzero;stroke:#6c8ebf;stroke-width:1;stroke-linecap:butt;stroke-linejoin:miter;stroke-miterlimit:10;stroke-dasharray:none;stroke-opacity:1"
       transform="matrix(0.95680194,0,0,0.95680194,0.47840097,0.47840097)"
       clip-path="url(#clipPath75)" />
    <text
       id="text75"
       xml:space="preserve"
       transform="matrix(0.95681154,0,0,0.95681154,352.1814,323.4023)"
       clip-path="url(#clipPath76)"><tspan
         style="font-variant:normal;font-weight:normal;font-size:22px;font-family:Helvetica;writing-mode:lr-tb;fill:#000000;fill-opacity:1;fill-rule:nonzero;stroke:none"
         x="0 14.673828 20.786133 33.021484 45.256836 57.492188 69.727539"
         y="0"
         sodipodi:role="line"
         id="tspan75">Student</tspan></text>
    <path
       id="path77"
       d="m 211,437.5 h 83.63"
       style="fill:none;stroke:#000000;stroke-width:1;stroke-linecap:butt;stroke-linejoin:miter;stroke-miterlimit:10;stroke-dasharray:none;stroke-opacity:1"
       transform="matrix(0.95680194,0,0,0.95680194,0.47840097,0.47840097)"
       clip-path="url(#clipPath78)" />
    <path
       id="path79"
       d="m 299.88,437.5 -7,3.5 1.75,-3.5 -1.75,-3.5 z"
       style="fill:#000000;fill-opacity:1;fill-rule:nonzero;stroke:#000000;stroke-width:1;stroke-linecap:butt;stroke-linejoin:miter;stroke-miterlimit:10;stroke-dasharray:none;stroke-opacity:1"
       transform="matrix(0.95680194,0,0,0.95680194,0.47840097,0.47840097)"
       clip-path="url(#clipPath80)" />
    <path
       id="path81"
       d="m 211,437.5 h 45 v 40 h 38.63"
       style="fill:none;stroke:#000000;stroke-width:1;stroke-linecap:butt;stroke-linejoin:miter;stroke-miterlimit:10;stroke-dasharray:none;stroke-opacity:1"
       transform="matrix(0.95680194,0,0,0.95680194,0.47840097,0.47840097)"
       clip-path="url(#clipPath82)" />
    <path
       id="path83"
       d="m 299.88,477.5 -7,3.5 1.75,-3.5 -1.75,-3.5 z"
       style="fill:#000000;fill-opacity:1;fill-rule:nonzero;stroke:#000000;stroke-width:1;stroke-linecap:butt;stroke-linejoin:miter;stroke-miterlimit:10;stroke-dasharray:none;stroke-opacity:1"
       transform="matrix(0.95680194,0,0,0.95680194,0.47840097,0.47840097)"
       clip-path="url(#clipPath84)" />
    <path
       id="path85"
       d="m 211,437.5 h 45 v -40 h 38.63"
       style="fill:none;stroke:#000000;stroke-width:1;stroke-linecap:butt;stroke-linejoin:miter;stroke-miterlimit:10;stroke-dasharray:none;stroke-opacity:1"
       transform="matrix(0.95680194,0,0,0.95680194,0.47840097,0.47840097)"
       clip-path="url(#clipPath86)" />
    <path
       id="path87"
       d="m 299.88,397.5 -7,3.5 1.75,-3.5 -1.75,-3.5 z"
       style="fill:#000000;fill-opacity:1;fill-rule:nonzero;stroke:#000000;stroke-width:1;stroke-linecap:butt;stroke-linejoin:miter;stroke-miterlimit:10;stroke-dasharray:none;stroke-opacity:1"
       transform="matrix(0.95680194,0,0,0.95680194,0.47840097,0.47840097)"
       clip-path="url(#clipPath88)" />
    <g
       opacity="0.25"
       id="g90"
       clip-path="url(#clipPath91)">
      <path
         d="m 1,402 h 210 v 71 H 1 Z"
         style="fill:#000000;fill-opacity:1;fill-rule:nonzero;stroke:#000000;stroke-width:1;stroke-linecap:butt;stroke-linejoin:miter;stroke-miterlimit:10;stroke-dasharray:none;stroke-opacity:1"
         transform="matrix(0.95680194,0,0,0.95680194,2.3920049,3.3487903)"
         clip-path="url(#clipPath89)"
         id="path90" />
    </g>
    <path
       id="path92"
       d="m 1,402 h 210 v 71 H 1 Z"
       style="fill:#dae8fc;fill-opacity:1;fill-rule:nonzero;stroke:#6c8ebf;stroke-width:1;stroke-linecap:butt;stroke-linejoin:miter;stroke-miterlimit:10;stroke-dasharray:none;stroke-opacity:1"
       transform="matrix(0.95680194,0,0,0.95680194,0.47840097,0.47840097)"
       clip-path="url(#clipPath93)" />
    <text
       id="text93"
       xml:space="preserve"
       transform="matrix(0.95681154,0,0,0.95681154,35.895383,429.60838)"
       clip-path="url(#clipPath94)"><tspan
         style="font-variant:normal;font-weight:normal;font-size:32px;font-family:Helvetica;writing-mode:lr-tb;fill:#000000;fill-opacity:1;fill-rule:nonzero;stroke:none"
         x="0 23.109375 40.90625 67.5625 85.359375 103.15625 120.95312"
         y="0"
         sodipodi:role="line"
         id="tspan93">Company</tspan></text>
    <g
       opacity="0.25"
       id="g96"
       clip-path="url(#clipPath97)">
      <path
         d="m 301,379 h 210 v 37 H 301 Z"
         style="fill:#000000;fill-opacity:1;fill-rule:nonzero;stroke:#000000;stroke-width:1;stroke-linecap:butt;stroke-linejoin:miter;stroke-miterlimit:10;stroke-dasharray:none;stroke-opacity:1"
         transform="matrix(0.95680194,0,0,0.95680194,2.3920127,3.3487903)"
         clip-path="url(#clipPath95)"
         id="path96" />
    </g>
    <path
       id="path98"
       d="m 301,379 h 210 v 37 H 301 Z"
       style="fill:#dae8fc;fill-opacity:1;fill-rule:nonzero;stroke:#6c8ebf;stroke-width:1;stroke-linecap:butt;stroke-linejoin:miter;stroke-miterlimit:10;stroke-dasharray:none;stroke-opacity:1"
       transform="matrix(0.95680194,0,0,0.95680194,0.47840097,0.47840097)"
       clip-path="url(#clipPath99)" />
    <text
       id="text99"
       xml:space="preserve"
       transform="matrix(0.95681154,0,0,0.95681154,341.65648,387.50868)"
       clip-path="url(#clipPath100)"><tspan
         style="font-variant:normal;font-weight:normal;font-size:22px;font-family:Helvetica;writing-mode:lr-tb;fill:#000000;fill-opacity:1;fill-rule:nonzero;stroke:none"
         x="0 14.673828 33 45.235352 50.123047 62.358398 73.358398 85.59375"
         y="0"
         sodipodi:role="line"
         id="tspan99">Employee</tspan></text>
    <g
       opacity="0.25"
       id="g102"
       clip-path="url(#clipPath103)">
      <path
         d="m 301,419 h 210 v 37 H 301 Z"
         style="fill:#000000;fill-opacity:1;fill-rule:nonzero;stroke:#000000;stroke-width:1;stroke-linecap:butt;stroke-linejoin:miter;stroke-miterlimit:10;stroke-dasharray:none;stroke-opacity:1"
         transform="matrix(0.95680194,0,0,0.95680194,2.3920127,3.3487903)"
         clip-path="url(#clipPath101)"
         id="path102" />
    </g>
    <path
       id="path104"
       d="m 301,419 h 210 v 37 H 301 Z"
       style="fill:#dae8fc;fill-opacity:1;fill-rule:nonzero;stroke:#6c8ebf;stroke-width:1;stroke-linecap:butt;stroke-linejoin:miter;stroke-miterlimit:10;stroke-dasharray:none;stroke-opacity:1"
       transform="matrix(0.95680194,0,0,0.95680194,0.47840097,0.47840097)"
       clip-path="url(#clipPath105)" />
    <text
       id="text105"
       xml:space="preserve"
       transform="matrix(0.95681154,0,0,0.95681154,341.65648,425.78114)"
       clip-path="url(#clipPath106)"><tspan
         style="font-variant:normal;font-weight:normal;font-size:22px;font-family:Helvetica;writing-mode:lr-tb;fill:#000000;fill-opacity:1;fill-rule:nonzero;stroke:none"
         x="0 14.673828 33 45.235352 50.123047 62.358398 73.358398 85.59375"
         y="0"
         sodipodi:role="line"
         id="tspan105">Employee</tspan></text>
    <g
       opacity="0.25"
       id="g108"
       clip-path="url(#clipPath109)">
      <path
         d="m 301,459 h 210 v 37 H 301 Z"
         style="fill:#000000;fill-opacity:1;fill-rule:nonzero;stroke:#000000;stroke-width:1;stroke-linecap:butt;stroke-linejoin:miter;stroke-miterlimit:10;stroke-dasharray:none;stroke-opacity:1"
         transform="matrix(0.95680194,0,0,0.95680194,2.3920127,3.3487903)"
         clip-path="url(#clipPath107)"
         id="path108" />
    </g>
    <path
       id="path110"
       d="m 301,459 h 210 v 37 H 301 Z"
       style="fill:#dae8fc;fill-opacity:1;fill-rule:nonzero;stroke:#6c8ebf;stroke-width:1;stroke-linecap:butt;stroke-linejoin:miter;stroke-miterlimit:10;stroke-dasharray:none;stroke-opacity:1"
       transform="matrix(0.95680194,0,0,0.95680194,0.47840097,0.47840097)"
       clip-path="url(#clipPath111)" />
    <text
       id="text111"
       xml:space="preserve"
       transform="matrix(0.95681154,0,0,0.95681154,341.65648,463.09679)"
       clip-path="url(#clipPath112)"><tspan
         style="font-variant:normal;font-weight:normal;font-size:22px;font-family:Helvetica;writing-mode:lr-tb;fill:#000000;fill-opacity:1;fill-rule:nonzero;stroke:none"
         x="0 14.673828 33 45.235352 50.123047 62.358398 73.358398 85.59375"
         y="0"
         sodipodi:role="line"
         id="tspan111">Employee</tspan></text>
  </g>
</svg>
