<?xml version="1.0" encoding="UTF-8" standalone="no"?>
<!-- Created with Inkscape (http://www.inkscape.org/) -->

<svg
   version="1.1"
   id="svg1"
   width="312"
   height="267.84"
   viewBox="0 0 312 267.84"
   sodipodi:docname="sql-8.pdf"
   xmlns:inkscape="http://www.inkscape.org/namespaces/inkscape"
   xmlns:sodipodi="http://sodipodi.sourceforge.net/DTD/sodipodi-0.dtd"
   xmlns="http://www.w3.org/2000/svg"
   xmlns:svg="http://www.w3.org/2000/svg">
  <defs
     id="defs1">
    <clipPath
       clipPathUnits="userSpaceOnUse"
       id="clipPath2">
      <path
         d="M 0,0 H 975 V 834.86237 H 0 Z"
         transform="scale(0.33538462)"
         clip-rule="evenodd"
         id="path2" />
    </clipPath>
    <clipPath
       clipPathUnits="userSpaceOnUse"
       id="clipPath4">
      <path
         d="M 0,0 H 975 V 828.89905 H 0 Z"
         transform="matrix(0.33538462,0,0,0.33538462,-0.5,-0.5)"
         clip-rule="evenodd"
         id="path4" />
    </clipPath>
    <clipPath
       clipPathUnits="userSpaceOnUse"
       id="clipPath6">
      <path
         d="M 0,0 H 975 V 828.89905 H 0 Z"
         transform="matrix(0.33538462,0,0,0.33538462,-0.5,-0.5)"
         clip-rule="evenodd"
         id="path6" />
    </clipPath>
    <clipPath
       clipPathUnits="userSpaceOnUse"
       id="clipPath8">
      <path
         d="M 0,0 H 975 V 828.89905 H 0 Z"
         transform="matrix(0.33538462,0,0,0.33538462,-0.5,-0.5)"
         clip-rule="evenodd"
         id="path8" />
    </clipPath>
    <clipPath
       clipPathUnits="userSpaceOnUse"
       id="clipPath10">
      <path
         d="M 0,0 H 975 V 828.89905 H 0 Z"
         transform="matrix(0.33538462,0,0,0.33538462,-0.5,-0.5)"
         clip-rule="evenodd"
         id="path10" />
    </clipPath>
    <clipPath
       clipPathUnits="userSpaceOnUse"
       id="clipPath12">
      <path
         d="M 0,0 H 975 V 828.89905 H 0 Z"
         transform="matrix(0.33538462,0,0,0.33538462,-0.5,-0.5)"
         clip-rule="evenodd"
         id="path12" />
    </clipPath>
    <clipPath
       clipPathUnits="userSpaceOnUse"
       id="clipPath14">
      <path
         d="M 0,0 H 975 V 828.89905 H 0 Z"
         transform="matrix(0.33538462,0,0,0.33538462,-0.5,-0.5)"
         clip-rule="evenodd"
         id="path14" />
    </clipPath>
    <clipPath
       clipPathUnits="userSpaceOnUse"
       id="clipPath16">
      <path
         d="M 0,0 H 975 V 828.89905 H 0 Z"
         transform="matrix(0.33538462,0,0,0.33538462,-0.5,-0.5)"
         clip-rule="evenodd"
         id="path16" />
    </clipPath>
    <clipPath
       clipPathUnits="userSpaceOnUse"
       id="clipPath18">
      <path
         d="M 0,0 H 975 V 828.89905 H 0 Z"
         transform="matrix(0.33538462,0,0,0.33538462,-0.5,-0.5)"
         clip-rule="evenodd"
         id="path18" />
    </clipPath>
    <clipPath
       clipPathUnits="userSpaceOnUse"
       id="clipPath19">
      <path
         d="M 0,0 H 365 V 186 H 0 Z"
         transform="matrix(0.33538462,0,0,0.33538462,-0.15230759,104.82923)"
         id="path19" />
    </clipPath>
    <clipPath
       clipPathUnits="userSpaceOnUse"
       id="clipPath21">
      <path
         d="M 0,0 H 975 V 828.89905 H 0 Z"
         transform="scale(0.31999999)"
         clip-rule="evenodd"
         id="path21" />
    </clipPath>
    <clipPath
       clipPathUnits="userSpaceOnUse"
       id="clipPath23">
      <path
         d="M 0,0 H 975 V 828.89905 H 0 Z"
         transform="matrix(0.33538462,0,0,0.33538462,-0.5,-0.5)"
         clip-rule="evenodd"
         id="path23" />
    </clipPath>
    <clipPath
       clipPathUnits="userSpaceOnUse"
       id="clipPath24">
      <path
         d="M 0,0 H 975 V 828.89905 H 0 Z"
         transform="matrix(0.33538127,0,0,0.33538127,-39.875,-132)"
         clip-rule="evenodd"
         id="path24" />
    </clipPath>
    <clipPath
       clipPathUnits="userSpaceOnUse"
       id="clipPath25">
      <path
         d="M 0,0 H 975 V 828.89905 H 0 Z"
         transform="matrix(0.33538127,0,0,0.33538127,-15.59375,-155)"
         clip-rule="evenodd"
         id="path25" />
    </clipPath>
    <clipPath
       clipPathUnits="userSpaceOnUse"
       id="clipPath26">
      <path
         d="M 0,0 H 365 V 186 H 0 Z"
         transform="matrix(0.33538462,0,0,0.33538462,199.73694,-0.14615374)"
         id="path26" />
    </clipPath>
    <clipPath
       clipPathUnits="userSpaceOnUse"
       id="clipPath28">
      <path
         d="M 0,0 H 975 V 828.89905 H 0 Z"
         transform="scale(0.31999999)"
         clip-rule="evenodd"
         id="path28" />
    </clipPath>
    <clipPath
       clipPathUnits="userSpaceOnUse"
       id="clipPath30">
      <path
         d="M 0,0 H 975 V 828.89905 H 0 Z"
         transform="matrix(0.33538462,0,0,0.33538462,-0.5,-0.5)"
         clip-rule="evenodd"
         id="path30" />
    </clipPath>
    <clipPath
       clipPathUnits="userSpaceOnUse"
       id="clipPath31">
      <path
         d="M 0,0 H 975 V 828.89905 H 0 Z"
         transform="matrix(0.33538127,0,0,0.33538127,-222.95313,-38)"
         clip-rule="evenodd"
         id="path31" />
    </clipPath>
    <clipPath
       clipPathUnits="userSpaceOnUse"
       id="clipPath32">
      <path
         d="M 0,0 H 365 V 186 H 0 Z"
         transform="matrix(0.33538462,0,0,0.33538462,199.73694,69.949232)"
         id="path32" />
    </clipPath>
    <clipPath
       clipPathUnits="userSpaceOnUse"
       id="clipPath34">
      <path
         d="M 0,0 H 975 V 828.89905 H 0 Z"
         transform="scale(0.31999999)"
         clip-rule="evenodd"
         id="path34" />
    </clipPath>
    <clipPath
       clipPathUnits="userSpaceOnUse"
       id="clipPath36">
      <path
         d="M 0,0 H 975 V 828.89905 H 0 Z"
         transform="matrix(0.33538462,0,0,0.33538462,-0.5,-0.5)"
         clip-rule="evenodd"
         id="path36" />
    </clipPath>
    <clipPath
       clipPathUnits="userSpaceOnUse"
       id="clipPath37">
      <path
         d="M 0,0 H 975 V 828.89905 H 0 Z"
         transform="matrix(0.33538127,0,0,0.33538127,-222.95313,-108)"
         clip-rule="evenodd"
         id="path37" />
    </clipPath>
    <clipPath
       clipPathUnits="userSpaceOnUse"
       id="clipPath38">
      <path
         d="M 0,0 H 365 V 186 H 0 Z"
         transform="matrix(0.33538462,0,0,0.33538462,199.73694,139.70923)"
         id="path38" />
    </clipPath>
    <clipPath
       clipPathUnits="userSpaceOnUse"
       id="clipPath40">
      <path
         d="M 0,0 H 975 V 828.89905 H 0 Z"
         transform="scale(0.31999999)"
         clip-rule="evenodd"
         id="path40" />
    </clipPath>
    <clipPath
       clipPathUnits="userSpaceOnUse"
       id="clipPath42">
      <path
         d="M 0,0 H 975 V 828.89905 H 0 Z"
         transform="matrix(0.33538462,0,0,0.33538462,-0.5,-0.5)"
         clip-rule="evenodd"
         id="path42" />
    </clipPath>
    <clipPath
       clipPathUnits="userSpaceOnUse"
       id="clipPath43">
      <path
         d="M 0,0 H 975 V 828.89905 H 0 Z"
         transform="matrix(0.33538127,0,0,0.33538127,-222.95313,-178)"
         clip-rule="evenodd"
         id="path43" />
    </clipPath>
    <clipPath
       clipPathUnits="userSpaceOnUse"
       id="clipPath44">
      <path
         d="M 0,0 H 365 V 186 H 0 Z"
         transform="matrix(0.33538462,0,0,0.33538462,199.73694,209.80462)"
         id="path44" />
    </clipPath>
    <clipPath
       clipPathUnits="userSpaceOnUse"
       id="clipPath46">
      <path
         d="M 0,0 H 975 V 828.89905 H 0 Z"
         transform="scale(0.31999999)"
         clip-rule="evenodd"
         id="path46" />
    </clipPath>
    <clipPath
       clipPathUnits="userSpaceOnUse"
       id="clipPath48">
      <path
         d="M 0,0 H 975 V 828.89905 H 0 Z"
         transform="matrix(0.33538462,0,0,0.33538462,-0.5,-0.5)"
         clip-rule="evenodd"
         id="path48" />
    </clipPath>
    <clipPath
       clipPathUnits="userSpaceOnUse"
       id="clipPath49">
      <path
         d="M 0,0 H 975 V 828.89905 H 0 Z"
         transform="matrix(0.33538127,0,0,0.33538127,-222.95313,-248)"
         clip-rule="evenodd"
         id="path49" />
    </clipPath>
  </defs>
  <sodipodi:namedview
     id="namedview1"
     pagecolor="#ffffff"
     bordercolor="#000000"
     borderopacity="0.25"
     inkscape:showpageshadow="2"
     inkscape:pageopacity="0.0"
     inkscape:pagecheckerboard="0"
     inkscape:deskcolor="#d1d1d1">
    <inkscape:page
       x="0"
       y="0"
       inkscape:label="1"
       id="page1"
       width="312"
       height="267.84"
       margin="0"
       bleed="0" />
  </sodipodi:namedview>
  <g
     id="g1"
     inkscape:groupmode="layer"
     inkscape:label="1">
    <path
       id="path1"
       d="M 0,0 H 327 V 280 H 0 Z"
       style="fill:#ffffff;fill-opacity:1;fill-rule:nonzero;stroke:none"
       transform="scale(0.95412838)"
       clip-path="url(#clipPath2)" />
    <path
       id="path3"
       d="m 121,136 h 40 V 31 h 33.63"
       style="fill:none;stroke:#000000;stroke-width:1;stroke-linecap:butt;stroke-linejoin:miter;stroke-miterlimit:10;stroke-dasharray:none;stroke-opacity:1"
       transform="matrix(0.95412838,0,0,0.95412838,0.47706419,0.47706419)"
       clip-path="url(#clipPath4)" />
    <path
       id="path5"
       d="m 199.88,31 -7,3.5 1.75,-3.5 -1.75,-3.5 z"
       style="fill:#000000;fill-opacity:1;fill-rule:nonzero;stroke:#000000;stroke-width:1;stroke-linecap:butt;stroke-linejoin:miter;stroke-miterlimit:10;stroke-dasharray:none;stroke-opacity:1"
       transform="matrix(0.95412838,0,0,0.95412838,0.47706419,0.47706419)"
       clip-path="url(#clipPath6)" />
    <path
       id="path7"
       d="m 121,136 h 40 v -35 h 33.63"
       style="fill:none;stroke:#000000;stroke-width:1;stroke-linecap:butt;stroke-linejoin:miter;stroke-miterlimit:10;stroke-dasharray:none;stroke-opacity:1"
       transform="matrix(0.95412838,0,0,0.95412838,0.47706419,0.47706419)"
       clip-path="url(#clipPath8)" />
    <path
       id="path9"
       d="m 199.88,101 -7,3.5 1.75,-3.5 -1.75,-3.5 z"
       style="fill:#000000;fill-opacity:1;fill-rule:nonzero;stroke:#000000;stroke-width:1;stroke-linecap:butt;stroke-linejoin:miter;stroke-miterlimit:10;stroke-dasharray:none;stroke-opacity:1"
       transform="matrix(0.95412838,0,0,0.95412838,0.47706419,0.47706419)"
       clip-path="url(#clipPath10)" />
    <path
       id="path11"
       d="m 121,136 h 40 v 35 h 33.63"
       style="fill:none;stroke:#000000;stroke-width:1;stroke-linecap:butt;stroke-linejoin:miter;stroke-miterlimit:10;stroke-dasharray:none;stroke-opacity:1"
       transform="matrix(0.95412838,0,0,0.95412838,0.47706419,0.47706419)"
       clip-path="url(#clipPath12)" />
    <path
       id="path13"
       d="m 199.88,171 -7,3.5 1.75,-3.5 -1.75,-3.5 z"
       style="fill:#000000;fill-opacity:1;fill-rule:nonzero;stroke:#000000;stroke-width:1;stroke-linecap:butt;stroke-linejoin:miter;stroke-miterlimit:10;stroke-dasharray:none;stroke-opacity:1"
       transform="matrix(0.95412838,0,0,0.95412838,0.47706419,0.47706419)"
       clip-path="url(#clipPath14)" />
    <path
       id="path15"
       d="m 121,136 h 40 v 105 h 33.63"
       style="fill:none;stroke:#000000;stroke-width:1;stroke-linecap:butt;stroke-linejoin:miter;stroke-miterlimit:10;stroke-dasharray:none;stroke-opacity:1"
       transform="matrix(0.95412838,0,0,0.95412838,0.47706419,0.47706419)"
       clip-path="url(#clipPath16)" />
    <path
       id="path17"
       d="m 199.88,241 -7,3.5 1.75,-3.5 -1.75,-3.5 z"
       style="fill:#000000;fill-opacity:1;fill-rule:nonzero;stroke:#000000;stroke-width:1;stroke-linecap:butt;stroke-linejoin:miter;stroke-miterlimit:10;stroke-dasharray:none;stroke-opacity:1"
       transform="matrix(0.95412838,0,0,0.95412838,0.47706419,0.47706419)"
       clip-path="url(#clipPath18)" />
    <g
       opacity="0.25"
       id="g20"
       clip-path="url(#clipPath21)">
      <path
         d="m 1,106 h 120 v 60 H 1 Z"
         style="fill:#000000;fill-opacity:1;fill-rule:nonzero;stroke:#000000;stroke-width:1;stroke-linecap:butt;stroke-linejoin:miter;stroke-miterlimit:10;stroke-dasharray:none;stroke-opacity:1"
         transform="matrix(0.95412838,0,0,0.95412838,2.3853209,3.3394527)"
         clip-path="url(#clipPath19)"
         id="path20" />
    </g>
    <path
       id="path22"
       d="m 1,106 h 120 v 60 H 1 Z"
       style="fill:#dae8fc;fill-opacity:1;fill-rule:nonzero;stroke:#6c8ebf;stroke-width:1;stroke-linecap:butt;stroke-linejoin:miter;stroke-miterlimit:10;stroke-dasharray:none;stroke-opacity:1"
       transform="matrix(0.95412838,0,0,0.95412838,0.47706419,0.47706419)"
       clip-path="url(#clipPath23)" />
    <text
       id="text23"
       xml:space="preserve"
       transform="matrix(0.95413791,0,0,0.95413791,38.046249,125.9462)"
       clip-path="url(#clipPath24)"><tspan
         style="font-variant:normal;font-weight:700;font-size:19px;font-family:Helvetica;writing-mode:lr-tb;fill:#000000;fill-opacity:1;fill-rule:nonzero;stroke:none"
         x="0 13.721191 24.288086 34.85498"
         y="0"
         sodipodi:role="line"
         id="tspan23">User</tspan></text>
    <text
       id="text24"
       xml:space="preserve"
       transform="matrix(0.95413791,0,0,0.95413791,14.878588,147.89138)"
       clip-path="url(#clipPath25)"><tspan
         style="font-variant:normal;font-weight:700;font-size:19px;font-family:Helvetica;writing-mode:lr-tb;fill:#000000;fill-opacity:1;fill-rule:nonzero;stroke:none"
         x="0 5.2788086 16.884766 27.45166 33.778809 44.345703 55.95166 63.345703 73.912598"
         y="0"
         sodipodi:role="line"
         id="tspan24">Instagram</tspan></text>
    <g
       opacity="0.25"
       id="g27"
       clip-path="url(#clipPath28)">
      <path
         d="M 201,1 H 321 V 61 H 201 Z"
         style="fill:#000000;fill-opacity:1;fill-rule:nonzero;stroke:#000000;stroke-width:1;stroke-linecap:butt;stroke-linejoin:miter;stroke-miterlimit:10;stroke-dasharray:none;stroke-opacity:1"
         transform="matrix(0.95412838,0,0,0.95412838,2.3853119,3.3394493)"
         clip-path="url(#clipPath26)"
         id="path27" />
    </g>
    <path
       id="path29"
       d="M 201,1 H 321 V 61 H 201 Z"
       style="fill:#ffffff;fill-opacity:1;fill-rule:nonzero;stroke:#000000;stroke-width:1;stroke-linecap:butt;stroke-linejoin:miter;stroke-miterlimit:10;stroke-dasharray:none;stroke-opacity:1"
       transform="matrix(0.95412838,0,0,0.95412838,0.47706419,0.47706419)"
       clip-path="url(#clipPath30)" />
    <text
       id="text30"
       xml:space="preserve"
       transform="matrix(0.95413791,0,0,0.95413791,212.72803,36.257241)"
       clip-path="url(#clipPath31)"><tspan
         style="font-variant:normal;font-weight:normal;font-size:19px;font-family:Helvetica;writing-mode:lr-tb;fill:#000000;fill-opacity:1;fill-rule:nonzero;stroke:none"
         x="0 12.672852 23.239746 33.806641 39.085449 49.652344 54.931152 65.498047"
         y="0"
         sodipodi:role="line"
         id="tspan30">Photo #1</tspan></text>
    <g
       opacity="0.25"
       id="g33"
       clip-path="url(#clipPath34)">
      <path
         d="m 201,71 h 120 v 60 H 201 Z"
         style="fill:#000000;fill-opacity:1;fill-rule:nonzero;stroke:#000000;stroke-width:1;stroke-linecap:butt;stroke-linejoin:miter;stroke-miterlimit:10;stroke-dasharray:none;stroke-opacity:1"
         transform="matrix(0.95412838,0,0,0.95412838,2.3853119,3.3394495)"
         clip-path="url(#clipPath32)"
         id="path33" />
    </g>
    <path
       id="path35"
       d="m 201,71 h 120 v 60 H 201 Z"
       style="fill:#ffffff;fill-opacity:1;fill-rule:nonzero;stroke:#000000;stroke-width:1;stroke-linecap:butt;stroke-linejoin:miter;stroke-miterlimit:10;stroke-dasharray:none;stroke-opacity:1"
       transform="matrix(0.95412838,0,0,0.95412838,0.47706419,0.47706419)"
       clip-path="url(#clipPath36)" />
    <text
       id="text36"
       xml:space="preserve"
       transform="matrix(0.95413791,0,0,0.95413791,212.72803,103.04689)"
       clip-path="url(#clipPath37)"><tspan
         style="font-variant:normal;font-weight:normal;font-size:19px;font-family:Helvetica;writing-mode:lr-tb;fill:#000000;fill-opacity:1;fill-rule:nonzero;stroke:none"
         x="0 12.672852 23.239746 33.806641 39.085449 49.652344 54.931152 65.498047"
         y="0"
         sodipodi:role="line"
         id="tspan36">Photo #2</tspan></text>
    <g
       opacity="0.25"
       id="g39"
       clip-path="url(#clipPath40)">
      <path
         d="m 201,141 h 120 v 60 H 201 Z"
         style="fill:#000000;fill-opacity:1;fill-rule:nonzero;stroke:#000000;stroke-width:1;stroke-linecap:butt;stroke-linejoin:miter;stroke-miterlimit:10;stroke-dasharray:none;stroke-opacity:1"
         transform="matrix(0.95412838,0,0,0.95412838,2.3853119,3.3394527)"
         clip-path="url(#clipPath38)"
         id="path39" />
    </g>
    <path
       id="path41"
       d="m 201,141 h 120 v 60 H 201 Z"
       style="fill:#ffffff;fill-opacity:1;fill-rule:nonzero;stroke:#000000;stroke-width:1;stroke-linecap:butt;stroke-linejoin:miter;stroke-miterlimit:10;stroke-dasharray:none;stroke-opacity:1"
       transform="matrix(0.95412838,0,0,0.95412838,0.47706419,0.47706419)"
       clip-path="url(#clipPath42)" />
    <text
       id="text42"
       xml:space="preserve"
       transform="matrix(0.95413791,0,0,0.95413791,212.72803,169.83655)"
       clip-path="url(#clipPath43)"><tspan
         style="font-variant:normal;font-weight:normal;font-size:19px;font-family:Helvetica;writing-mode:lr-tb;fill:#000000;fill-opacity:1;fill-rule:nonzero;stroke:none"
         x="0 12.672852 23.239746 33.806641 39.085449 49.652344 54.931152 65.498047"
         y="0"
         sodipodi:role="line"
         id="tspan42">Photo #3</tspan></text>
    <g
       opacity="0.25"
       id="g45"
       clip-path="url(#clipPath46)">
      <path
         d="m 201,211 h 120 v 60 H 201 Z"
         style="fill:#000000;fill-opacity:1;fill-rule:nonzero;stroke:#000000;stroke-width:1;stroke-linecap:butt;stroke-linejoin:miter;stroke-miterlimit:10;stroke-dasharray:none;stroke-opacity:1"
         transform="matrix(0.95412838,0,0,0.95412838,2.3853119,3.3394527)"
         clip-path="url(#clipPath44)"
         id="path45" />
    </g>
    <path
       id="path47"
       d="m 201,211 h 120 v 60 H 201 Z"
       style="fill:#ffffff;fill-opacity:1;fill-rule:nonzero;stroke:#000000;stroke-width:1;stroke-linecap:butt;stroke-linejoin:miter;stroke-miterlimit:10;stroke-dasharray:none;stroke-opacity:1"
       transform="matrix(0.95412838,0,0,0.95412838,0.47706419,0.47706419)"
       clip-path="url(#clipPath48)" />
    <text
       id="text48"
       xml:space="preserve"
       transform="matrix(0.95413791,0,0,0.95413791,212.72803,236.6262)"
       clip-path="url(#clipPath49)"><tspan
         style="font-variant:normal;font-weight:normal;font-size:19px;font-family:Helvetica;writing-mode:lr-tb;fill:#000000;fill-opacity:1;fill-rule:nonzero;stroke:none"
         x="0 12.672852 23.239746 33.806641 39.085449 49.652344 54.931152 65.498047"
         y="0"
         sodipodi:role="line"
         id="tspan48">Photo #4</tspan></text>
  </g>
</svg>
