<?xml version="1.0" encoding="UTF-8" standalone="no"?>
<!-- Created with Inkscape (http://www.inkscape.org/) -->

<svg
   version="1.1"
   id="svg1"
   width="408"
   height="267.84"
   viewBox="0 0 408 267.84"
   sodipodi:docname="sql-2.pdf"
   xmlns:inkscape="http://www.inkscape.org/namespaces/inkscape"
   xmlns:sodipodi="http://sodipodi.sourceforge.net/DTD/sodipodi-0.dtd"
   xmlns="http://www.w3.org/2000/svg"
   xmlns:svg="http://www.w3.org/2000/svg">
  <defs
     id="defs1">
    <clipPath
       clipPathUnits="userSpaceOnUse"
       id="clipPath2">
      <path
         d="M 0,0 H 1275 V 836.06561 H 0 Z"
         transform="scale(0.33490195)"
         clip-rule="evenodd"
         id="path2" />
    </clipPath>
    <clipPath
       clipPathUnits="userSpaceOnUse"
       id="clipPath3">
      <path
         d="M 0,0 H 1261 V 126 H 0 Z"
         transform="matrix(0.33490195,0,0,0.33490195,-0.15568639,-0.15098054)"
         id="path3" />
    </clipPath>
    <clipPath
       clipPathUnits="userSpaceOnUse"
       id="clipPath5">
      <path
         d="M 0,0 H 1275 V 830.09369 H 0 Z"
         transform="scale(0.31999999)"
         clip-rule="evenodd"
         id="path5" />
    </clipPath>
    <clipPath
       clipPathUnits="userSpaceOnUse"
       id="clipPath7">
      <path
         d="M 0,0 H 1275 V 830.09369 H 0 Z"
         transform="matrix(0.33490195,0,0,0.33490195,-0.49999999,-0.49999999)"
         clip-rule="evenodd"
         id="path7" />
    </clipPath>
    <clipPath
       clipPathUnits="userSpaceOnUse"
       id="clipPath8">
      <path
         d="M 0,0 H 1275 V 830.09369 H 0 Z"
         transform="matrix(0.3348986,0,0,0.3348986,-39.765625,-28)"
         clip-rule="evenodd"
         id="path8" />
    </clipPath>
    <clipPath
       clipPathUnits="userSpaceOnUse"
       id="clipPath9">
      <path
         d="M 0,0 H 1261 V 694 H 0 Z"
         transform="matrix(0.33490195,0,0,0.33490195,-0.15568639,39.702351)"
         id="path9" />
    </clipPath>
    <clipPath
       clipPathUnits="userSpaceOnUse"
       id="clipPath11">
      <path
         d="M 0,0 H 1275 V 830.09369 H 0 Z"
         transform="scale(0.31999999)"
         clip-rule="evenodd"
         id="path11" />
    </clipPath>
    <clipPath
       clipPathUnits="userSpaceOnUse"
       id="clipPath13">
      <path
         d="M 0,0 H 1275 V 830.09369 H 0 Z"
         transform="matrix(0.33490195,0,0,0.33490195,-0.49999999,-0.49999999)"
         clip-rule="evenodd"
         id="path13" />
    </clipPath>
    <clipPath
       clipPathUnits="userSpaceOnUse"
       id="clipPath14">
      <path
         d="M 0,0 H 568 V 82 H 0 Z"
         transform="matrix(0.33490195,0,0,0.33490195,11.900784,49.749409)"
         id="path14" />
    </clipPath>
    <clipPath
       clipPathUnits="userSpaceOnUse"
       id="clipPath16">
      <path
         d="M 0,0 H 1275 V 830.09369 H 0 Z"
         transform="scale(0.31999999)"
         clip-rule="evenodd"
         id="path16" />
    </clipPath>
    <clipPath
       clipPathUnits="userSpaceOnUse"
       id="clipPath18">
      <path
         d="M 0,0 H 1275 V 830.09369 H 0 Z"
         transform="matrix(0.33490195,0,0,0.33490195,-0.49999999,-0.49999999)"
         clip-rule="evenodd"
         id="path18" />
    </clipPath>
    <clipPath
       clipPathUnits="userSpaceOnUse"
       id="clipPath19">
      <path
         d="M 0,0 H 1275 V 830.09369 H 0 Z"
         transform="matrix(0.3348986,0,0,0.3348986,-82.546875,-70.999999)"
         clip-rule="evenodd"
         id="path19" />
    </clipPath>
    <clipPath
       clipPathUnits="userSpaceOnUse"
       id="clipPath20">
      <path
         d="M 0,0 H 568 V 201 H 0 Z"
         transform="matrix(0.33490195,0,0,0.33490195,11.900784,74.867056)"
         id="path20" />
    </clipPath>
    <clipPath
       clipPathUnits="userSpaceOnUse"
       id="clipPath22">
      <path
         d="M 0,0 H 1275 V 830.09369 H 0 Z"
         transform="scale(0.31999999)"
         clip-rule="evenodd"
         id="path22" />
    </clipPath>
    <clipPath
       clipPathUnits="userSpaceOnUse"
       id="clipPath24">
      <path
         d="M 0,0 H 1275 V 830.09369 H 0 Z"
         transform="matrix(0.33490195,0,0,0.33490195,-0.49999999,-0.49999999)"
         clip-rule="evenodd"
         id="path24" />
    </clipPath>
    <clipPath
       clipPathUnits="userSpaceOnUse"
       id="clipPath25">
      <path
         d="M 0,0 H 1275 V 830.09369 H 0 Z"
         transform="matrix(0.3348986,0,0,0.3348986,-51.296874,-113)"
         clip-rule="evenodd"
         id="path25" />
    </clipPath>
    <clipPath
       clipPathUnits="userSpaceOnUse"
       id="clipPath26">
      <path
         d="M 0,0 H 568 V 82 H 0 Z"
         transform="matrix(0.33490195,0,0,0.33490195,219.8749,49.749409)"
         id="path26" />
    </clipPath>
    <clipPath
       clipPathUnits="userSpaceOnUse"
       id="clipPath28">
      <path
         d="M 0,0 H 1275 V 830.09369 H 0 Z"
         transform="scale(0.31999999)"
         clip-rule="evenodd"
         id="path28" />
    </clipPath>
    <clipPath
       clipPathUnits="userSpaceOnUse"
       id="clipPath30">
      <path
         d="M 0,0 H 1275 V 830.09369 H 0 Z"
         transform="matrix(0.33490195,0,0,0.33490195,-0.49999999,-0.49999999)"
         clip-rule="evenodd"
         id="path30" />
    </clipPath>
    <clipPath
       clipPathUnits="userSpaceOnUse"
       id="clipPath31">
      <path
         d="M 0,0 H 1275 V 830.09369 H 0 Z"
         transform="matrix(0.3348986,0,0,0.3348986,-284.96875,-70.999999)"
         clip-rule="evenodd"
         id="path31" />
    </clipPath>
    <clipPath
       clipPathUnits="userSpaceOnUse"
       id="clipPath32">
      <path
         d="M 0,0 H 568 V 201 H 0 Z"
         transform="matrix(0.33490195,0,0,0.33490195,219.8749,74.867056)"
         id="path32" />
    </clipPath>
    <clipPath
       clipPathUnits="userSpaceOnUse"
       id="clipPath34">
      <path
         d="M 0,0 H 1275 V 830.09369 H 0 Z"
         transform="scale(0.31999999)"
         clip-rule="evenodd"
         id="path34" />
    </clipPath>
    <clipPath
       clipPathUnits="userSpaceOnUse"
       id="clipPath36">
      <path
         d="M 0,0 H 1275 V 830.09369 H 0 Z"
         transform="matrix(0.33490195,0,0,0.33490195,-0.49999999,-0.49999999)"
         clip-rule="evenodd"
         id="path36" />
    </clipPath>
    <clipPath
       clipPathUnits="userSpaceOnUse"
       id="clipPath37">
      <path
         d="M 0,0 H 1275 V 830.09369 H 0 Z"
         transform="matrix(0.3348986,0,0,0.3348986,-255.95313,-113)"
         clip-rule="evenodd"
         id="path37" />
    </clipPath>
    <clipPath
       clipPathUnits="userSpaceOnUse"
       id="clipPath38">
      <path
         d="M 0,0 H 568 V 81 H 0 Z"
         transform="matrix(0.33490195,0,0,0.33490195,11.900784,159.93215)"
         id="path38" />
    </clipPath>
    <clipPath
       clipPathUnits="userSpaceOnUse"
       id="clipPath40">
      <path
         d="M 0,0 H 1275 V 830.09369 H 0 Z"
         transform="scale(0.31999999)"
         clip-rule="evenodd"
         id="path40" />
    </clipPath>
    <clipPath
       clipPathUnits="userSpaceOnUse"
       id="clipPath42">
      <path
         d="M 0,0 H 1275 V 830.09369 H 0 Z"
         transform="matrix(0.33490195,0,0,0.33490195,-0.49999999,-0.49999999)"
         clip-rule="evenodd"
         id="path42" />
    </clipPath>
    <clipPath
       clipPathUnits="userSpaceOnUse"
       id="clipPath43">
      <path
         d="M 0,0 H 1275 V 830.09369 H 0 Z"
         transform="matrix(0.3348986,0,0,0.3348986,-60.875,-180)"
         clip-rule="evenodd"
         id="path43" />
    </clipPath>
    <clipPath
       clipPathUnits="userSpaceOnUse"
       id="clipPath44">
      <path
         d="M 0,0 H 568 V 201 H 0 Z"
         transform="matrix(0.33490195,0,0,0.33490195,11.900784,184.7149)"
         id="path44" />
    </clipPath>
    <clipPath
       clipPathUnits="userSpaceOnUse"
       id="clipPath46">
      <path
         d="M 0,0 H 1275 V 830.09369 H 0 Z"
         transform="scale(0.31999999)"
         clip-rule="evenodd"
         id="path46" />
    </clipPath>
    <clipPath
       clipPathUnits="userSpaceOnUse"
       id="clipPath48">
      <path
         d="M 0,0 H 1275 V 830.09369 H 0 Z"
         transform="matrix(0.33490195,0,0,0.33490195,-0.49999999,-0.49999999)"
         clip-rule="evenodd"
         id="path48" />
    </clipPath>
    <clipPath
       clipPathUnits="userSpaceOnUse"
       id="clipPath49">
      <path
         d="M 0,0 H 1275 V 830.09369 H 0 Z"
         transform="matrix(0.3348986,0,0,0.3348986,-38.296875,-223)"
         clip-rule="evenodd"
         id="path49" />
    </clipPath>
    <clipPath
       clipPathUnits="userSpaceOnUse"
       id="clipPath50">
      <path
         d="M 0,0 H 568 V 81 H 0 Z"
         transform="matrix(0.33490195,0,0,0.33490195,219.8749,159.93215)"
         id="path50" />
    </clipPath>
    <clipPath
       clipPathUnits="userSpaceOnUse"
       id="clipPath52">
      <path
         d="M 0,0 H 1275 V 830.09369 H 0 Z"
         transform="scale(0.31999999)"
         clip-rule="evenodd"
         id="path52" />
    </clipPath>
    <clipPath
       clipPathUnits="userSpaceOnUse"
       id="clipPath54">
      <path
         d="M 0,0 H 1275 V 830.09369 H 0 Z"
         transform="matrix(0.33490195,0,0,0.33490195,-0.49999999,-0.49999999)"
         clip-rule="evenodd"
         id="path54" />
    </clipPath>
    <clipPath
       clipPathUnits="userSpaceOnUse"
       id="clipPath55">
      <path
         d="M 0,0 H 1275 V 830.09369 H 0 Z"
         transform="matrix(0.3348986,0,0,0.3348986,-294.98438,-180)"
         clip-rule="evenodd"
         id="path55" />
    </clipPath>
    <clipPath
       clipPathUnits="userSpaceOnUse"
       id="clipPath56">
      <path
         d="M 0,0 H 568 V 201 H 0 Z"
         transform="matrix(0.33490195,0,0,0.33490195,219.8749,184.7149)"
         id="path56" />
    </clipPath>
    <clipPath
       clipPathUnits="userSpaceOnUse"
       id="clipPath58">
      <path
         d="M 0,0 H 1275 V 830.09369 H 0 Z"
         transform="scale(0.31999999)"
         clip-rule="evenodd"
         id="path58" />
    </clipPath>
    <clipPath
       clipPathUnits="userSpaceOnUse"
       id="clipPath60">
      <path
         d="M 0,0 H 1275 V 830.09369 H 0 Z"
         transform="matrix(0.33490195,0,0,0.33490195,-0.49999999,-0.49999999)"
         clip-rule="evenodd"
         id="path60" />
    </clipPath>
    <clipPath
       clipPathUnits="userSpaceOnUse"
       id="clipPath61">
      <path
         d="M 0,0 H 1275 V 830.09369 H 0 Z"
         transform="matrix(0.3348986,0,0,0.3348986,-261.96875,-223)"
         clip-rule="evenodd"
         id="path61" />
    </clipPath>
  </defs>
  <sodipodi:namedview
     id="namedview1"
     pagecolor="#ffffff"
     bordercolor="#000000"
     borderopacity="0.25"
     inkscape:showpageshadow="2"
     inkscape:pageopacity="0.0"
     inkscape:pagecheckerboard="0"
     inkscape:deskcolor="#d1d1d1">
    <inkscape:page
       x="0"
       y="0"
       inkscape:label="1"
       id="page1"
       width="408"
       height="267.84"
       margin="0"
       bleed="0" />
  </sodipodi:namedview>
  <g
     id="g1"
     inkscape:groupmode="layer"
     inkscape:label="1">
    <path
       id="path1"
       d="M 0,0 H 427 V 280 H 0 Z"
       style="fill:#ffffff;fill-opacity:1;fill-rule:nonzero;stroke:none"
       transform="scale(0.95550351)"
       clip-path="url(#clipPath2)" />
    <g
       opacity="0.25"
       id="g4"
       clip-path="url(#clipPath5)">
      <path
         d="M 1,1 H 421 V 41 H 1 Z"
         style="fill:#000000;fill-opacity:1;fill-rule:nonzero;stroke:#000000;stroke-width:1;stroke-linecap:butt;stroke-linejoin:miter;stroke-miterlimit:10;stroke-dasharray:none;stroke-opacity:1"
         transform="matrix(0.95550351,0,0,0.95550351,2.3887588,3.3442623)"
         clip-path="url(#clipPath3)"
         id="path4" />
    </g>
    <path
       id="path6"
       d="M 1,1 H 421 V 41 H 1 Z"
       style="fill:#d5e8d4;fill-opacity:1;fill-rule:nonzero;stroke:#82b366;stroke-width:1;stroke-linecap:butt;stroke-linejoin:miter;stroke-miterlimit:10;stroke-dasharray:none;stroke-opacity:1"
       transform="matrix(0.95550351,0,0,0.95550351,0.47775175,0.47775175)"
       clip-path="url(#clipPath7)" />
    <text
       id="text7"
       xml:space="preserve"
       transform="matrix(0.95551305,0,0,0.95551305,37.996574,26.754365)"
       clip-path="url(#clipPath8)"><tspan
         style="font-variant:normal;font-weight:normal;font-size:22px;font-family:Helvetica;writing-mode:lr-tb;fill:#000000;fill-opacity:1;fill-rule:nonzero;stroke:none"
         x="0 15.887695 28.123047 34.235352 46.470703 58.706055 70.941406 81.941406 94.176758 100.28906 113.72754 125.96289 133.28906 139.40137 151.63672 157.74902 172.42285 184.6582 196.89355 203.00586 215.24121 222.56738 237.24121 249.47656 261.71191 269.03809 273.92578 286.16113 298.39648 303.30566 317.97949 330.21484"
         y="0"
         sodipodi:role="line"
         id="tspan7">Database For a Photo-Sharing App</tspan></text>
    <g
       opacity="0.25"
       id="g10"
       clip-path="url(#clipPath11)">
      <path
         d="M 1,41 H 421 V 271 H 1 Z"
         style="fill:#000000;fill-opacity:1;fill-rule:nonzero;stroke:#000000;stroke-width:1;stroke-linecap:butt;stroke-linejoin:miter;stroke-miterlimit:10;stroke-dasharray:none;stroke-opacity:1"
         transform="matrix(0.95550351,0,0,0.95550351,2.3887588,3.3442626)"
         clip-path="url(#clipPath9)"
         id="path10" />
    </g>
    <path
       id="path12"
       d="M 1,41 H 421 V 271 H 1 Z"
       style="fill:#d5e8d4;fill-opacity:1;fill-rule:nonzero;stroke:#82b366;stroke-width:1;stroke-linecap:butt;stroke-linejoin:miter;stroke-miterlimit:10;stroke-dasharray:none;stroke-opacity:1"
       transform="matrix(0.95550351,0,0,0.95550351,0.47775175,0.47775175)"
       clip-path="url(#clipPath13)" />
    <g
       opacity="0.25"
       id="g15"
       clip-path="url(#clipPath16)">
      <path
         d="M 13,51 H 201 V 76 H 13 Z"
         style="fill:#000000;fill-opacity:1;fill-rule:nonzero;stroke:#000000;stroke-width:1;stroke-linecap:butt;stroke-linejoin:miter;stroke-miterlimit:10;stroke-dasharray:none;stroke-opacity:1"
         transform="matrix(0.95550351,0,0,0.95550351,2.3887583,3.3442626)"
         clip-path="url(#clipPath14)"
         id="path15" />
    </g>
    <path
       id="path17"
       d="M 13,51 H 201 V 76 H 13 Z"
       style="fill:#ffe6cc;fill-opacity:1;fill-rule:nonzero;stroke:#d79b00;stroke-width:1;stroke-linecap:butt;stroke-linejoin:miter;stroke-miterlimit:10;stroke-dasharray:none;stroke-opacity:1"
       transform="matrix(0.95550351,0,0,0.95550351,0.47775175,0.47775175)"
       clip-path="url(#clipPath18)" />
    <text
       id="text18"
       xml:space="preserve"
       transform="matrix(0.95551305,0,0,0.95551305,78.874616,67.841426)"
       clip-path="url(#clipPath19)"><tspan
         style="font-variant:normal;font-weight:normal;font-size:20px;font-family:Helvetica;writing-mode:lr-tb;fill:#000000;fill-opacity:1;fill-rule:nonzero;stroke:none"
         x="0 11.123047 21.123047 32.246094 38.90625"
         y="0"
         sodipodi:role="line"
         id="tspan18">users</tspan></text>
    <g
       opacity="0.25"
       id="g21"
       clip-path="url(#clipPath22)">
      <path
         d="m 13,76 h 188 v 65 H 13 Z"
         style="fill:#000000;fill-opacity:1;fill-rule:nonzero;stroke:#000000;stroke-width:1;stroke-linecap:butt;stroke-linejoin:miter;stroke-miterlimit:10;stroke-dasharray:none;stroke-opacity:1"
         transform="matrix(0.95550351,0,0,0.95550351,2.3887583,3.3442623)"
         clip-path="url(#clipPath20)"
         id="path21" />
    </g>
    <path
       id="path23"
       d="m 13,76 h 188 v 65 H 13 Z"
       style="fill:#f5f5f5;fill-opacity:1;fill-rule:nonzero;stroke:#666666;stroke-width:1;stroke-linecap:butt;stroke-linejoin:miter;stroke-miterlimit:10;stroke-dasharray:none;stroke-opacity:1"
       transform="matrix(0.95550351,0,0,0.95550351,0.47775175,0.47775175)"
       clip-path="url(#clipPath24)" />
    <text
       id="text24"
       xml:space="preserve"
       transform="matrix(0.95551305,0,0,0.95551305,49.014833,107.97297)"
       clip-path="url(#clipPath25)"><tspan
         style="font-style:oblique;font-variant:normal;font-weight:normal;font-size:12px;font-family:Helvetica;writing-mode:lr-tb;fill:#333333;fill-opacity:1;fill-rule:nonzero;stroke:none"
         x="0 8.6660156 15.339844 18.673828 25.347656 28.681641 32.677734 39.351562 42.017578 48.691406 52.025391 58.699219 65.373047 68.707031 72.041016 78.714844 82.048828 88.722656 94.722656 101.39648 105.39258"
         y="0"
         sodipodi:role="line"
         id="tspan24">Data related to users</tspan></text>
    <g
       opacity="0.25"
       id="g27"
       clip-path="url(#clipPath28)">
      <path
         d="M 221,51 H 409 V 76 H 221 Z"
         style="fill:#000000;fill-opacity:1;fill-rule:nonzero;stroke:#000000;stroke-width:1;stroke-linecap:butt;stroke-linejoin:miter;stroke-miterlimit:10;stroke-dasharray:none;stroke-opacity:1"
         transform="matrix(0.95550351,0,0,0.95550351,2.3887487,3.3442626)"
         clip-path="url(#clipPath26)"
         id="path27" />
    </g>
    <path
       id="path29"
       d="M 221,51 H 409 V 76 H 221 Z"
       style="fill:#ffe6cc;fill-opacity:1;fill-rule:nonzero;stroke:#d79b00;stroke-width:1;stroke-linecap:butt;stroke-linejoin:miter;stroke-miterlimit:10;stroke-dasharray:none;stroke-opacity:1"
       transform="matrix(0.95550351,0,0,0.95550351,0.47775175,0.47775175)"
       clip-path="url(#clipPath30)" />
    <text
       id="text30"
       xml:space="preserve"
       transform="matrix(0.95551305,0,0,0.95551305,272.29136,67.841426)"
       clip-path="url(#clipPath31)"><tspan
         style="font-variant:normal;font-weight:normal;font-size:20px;font-family:Helvetica;writing-mode:lr-tb;fill:#000000;fill-opacity:1;fill-rule:nonzero;stroke:none"
         x="0 11.123047 22.246094 33.369141 38.925781 50.048828"
         y="0"
         sodipodi:role="line"
         id="tspan30">photos</tspan></text>
    <g
       opacity="0.25"
       id="g33"
       clip-path="url(#clipPath34)">
      <path
         d="m 221,76 h 188 v 65 H 221 Z"
         style="fill:#000000;fill-opacity:1;fill-rule:nonzero;stroke:#000000;stroke-width:1;stroke-linecap:butt;stroke-linejoin:miter;stroke-miterlimit:10;stroke-dasharray:none;stroke-opacity:1"
         transform="matrix(0.95550351,0,0,0.95550351,2.3887487,3.3442623)"
         clip-path="url(#clipPath32)"
         id="path33" />
    </g>
    <path
       id="path35"
       d="m 221,76 h 188 v 65 H 221 Z"
       style="fill:#f5f5f5;fill-opacity:1;fill-rule:nonzero;stroke:#666666;stroke-width:1;stroke-linecap:butt;stroke-linejoin:miter;stroke-miterlimit:10;stroke-dasharray:none;stroke-opacity:1"
       transform="matrix(0.95550351,0,0,0.95550351,0.47775175,0.47775175)"
       clip-path="url(#clipPath36)" />
    <text
       id="text36"
       xml:space="preserve"
       transform="matrix(0.95551305,0,0,0.95551305,244.56656,107.97297)"
       clip-path="url(#clipPath37)"><tspan
         style="font-style:oblique;font-variant:normal;font-weight:normal;font-size:12px;font-family:Helvetica;writing-mode:lr-tb;fill:#333333;fill-opacity:1;fill-rule:nonzero;stroke:none"
         x="0 8.6660156 15.339844 18.673828 25.347656 28.681641 32.677734 39.351562 42.017578 48.691406 52.025391 58.699219 65.373047 68.707031 72.041016 78.714844 82.048828 88.722656 95.396484 102.07031 105.4043 112.07812"
         y="0"
         sodipodi:role="line"
         id="tspan36">Data related to photos</tspan></text>
    <g
       opacity="0.25"
       id="g39"
       clip-path="url(#clipPath40)">
      <path
         d="m 13,161 h 188 v 25 H 13 Z"
         style="fill:#000000;fill-opacity:1;fill-rule:nonzero;stroke:#000000;stroke-width:1;stroke-linecap:butt;stroke-linejoin:miter;stroke-miterlimit:10;stroke-dasharray:none;stroke-opacity:1"
         transform="matrix(0.95550351,0,0,0.95550351,2.3887583,3.3442591)"
         clip-path="url(#clipPath38)"
         id="path39" />
    </g>
    <path
       id="path41"
       d="m 13,161 h 188 v 25 H 13 Z"
       style="fill:#ffe6cc;fill-opacity:1;fill-rule:nonzero;stroke:#d79b00;stroke-width:1;stroke-linecap:butt;stroke-linejoin:miter;stroke-miterlimit:10;stroke-dasharray:none;stroke-opacity:1"
       transform="matrix(0.95550351,0,0,0.95550351,0.47775175,0.47775175)"
       clip-path="url(#clipPath42)" />
    <text
       id="text42"
       xml:space="preserve"
       transform="matrix(0.95551305,0,0,0.95551305,58.166857,171.99235)"
       clip-path="url(#clipPath43)"><tspan
         style="font-variant:normal;font-weight:normal;font-size:20px;font-family:Helvetica;writing-mode:lr-tb;fill:#000000;fill-opacity:1;fill-rule:nonzero;stroke:none"
         x="0 10 21.123047 37.783203 54.443359 65.566406 76.689453 82.246094"
         y="0"
         sodipodi:role="line"
         id="tspan42">comments</tspan></text>
    <g
       opacity="0.25"
       id="g45"
       clip-path="url(#clipPath46)">
      <path
         d="m 13,186 h 188 v 65 H 13 Z"
         style="fill:#000000;fill-opacity:1;fill-rule:nonzero;stroke:#000000;stroke-width:1;stroke-linecap:butt;stroke-linejoin:miter;stroke-miterlimit:10;stroke-dasharray:none;stroke-opacity:1"
         transform="matrix(0.95550351,0,0,0.95550351,2.3887583,3.3442591)"
         clip-path="url(#clipPath44)"
         id="path45" />
    </g>
    <path
       id="path47"
       d="m 13,186 h 188 v 65 H 13 Z"
       style="fill:#f5f5f5;fill-opacity:1;fill-rule:nonzero;stroke:#666666;stroke-width:1;stroke-linecap:butt;stroke-linejoin:miter;stroke-miterlimit:10;stroke-dasharray:none;stroke-opacity:1"
       transform="matrix(0.95550351,0,0,0.95550351,0.47775175,0.47775175)"
       clip-path="url(#clipPath48)" />
    <text
       id="text48"
       xml:space="preserve"
       transform="matrix(0.95551305,0,0,0.95551305,36.593164,213.07941)"
       clip-path="url(#clipPath49)"><tspan
         style="font-style:oblique;font-variant:normal;font-weight:normal;font-size:12px;font-family:Helvetica;writing-mode:lr-tb;fill:#333333;fill-opacity:1;fill-rule:nonzero;stroke:none"
         x="0 8.6660156 15.339844 18.673828 25.347656 28.681641 32.677734 39.351562 42.017578 48.691406 52.025391 58.699219 65.373047 68.707031 72.041016 78.714844 82.048828 88.048828 94.722656 104.71875 114.71484 121.38867 128.0625 131.39648"
         y="0"
         sodipodi:role="line"
         id="tspan48">Data related to comments</tspan></text>
    <g
       opacity="0.25"
       id="g51"
       clip-path="url(#clipPath52)">
      <path
         d="m 221,161 h 188 v 25 H 221 Z"
         style="fill:#000000;fill-opacity:1;fill-rule:nonzero;stroke:#000000;stroke-width:1;stroke-linecap:butt;stroke-linejoin:miter;stroke-miterlimit:10;stroke-dasharray:none;stroke-opacity:1"
         transform="matrix(0.95550351,0,0,0.95550351,2.3887487,3.3442591)"
         clip-path="url(#clipPath50)"
         id="path51" />
    </g>
    <path
       id="path53"
       d="m 221,161 h 188 v 25 H 221 Z"
       style="fill:#ffe6cc;fill-opacity:1;fill-rule:nonzero;stroke:#d79b00;stroke-width:1;stroke-linecap:butt;stroke-linejoin:miter;stroke-miterlimit:10;stroke-dasharray:none;stroke-opacity:1"
       transform="matrix(0.95550351,0,0,0.95550351,0.47775175,0.47775175)"
       clip-path="url(#clipPath54)" />
    <text
       id="text54"
       xml:space="preserve"
       transform="matrix(0.95551305,0,0,0.95551305,281.86142,171.99235)"
       clip-path="url(#clipPath55)"><tspan
         style="font-variant:normal;font-weight:normal;font-size:20px;font-family:Helvetica;writing-mode:lr-tb;fill:#000000;fill-opacity:1;fill-rule:nonzero;stroke:none"
         x="0 4.4433594 8.8867188 18.886719 30.009766"
         y="0"
         sodipodi:role="line"
         id="tspan54">likes</tspan></text>
    <g
       opacity="0.25"
       id="g57"
       clip-path="url(#clipPath58)">
      <path
         d="m 221,186 h 188 v 65 H 221 Z"
         style="fill:#000000;fill-opacity:1;fill-rule:nonzero;stroke:#000000;stroke-width:1;stroke-linecap:butt;stroke-linejoin:miter;stroke-miterlimit:10;stroke-dasharray:none;stroke-opacity:1"
         transform="matrix(0.95550351,0,0,0.95550351,2.3887487,3.3442591)"
         clip-path="url(#clipPath56)"
         id="path57" />
    </g>
    <path
       id="path59"
       d="m 221,186 h 188 v 65 H 221 Z"
       style="fill:#f5f5f5;fill-opacity:1;fill-rule:nonzero;stroke:#666666;stroke-width:1;stroke-linecap:butt;stroke-linejoin:miter;stroke-miterlimit:10;stroke-dasharray:none;stroke-opacity:1"
       transform="matrix(0.95550351,0,0,0.95550351,0.47775175,0.47775175)"
       clip-path="url(#clipPath60)" />
    <text
       id="text60"
       xml:space="preserve"
       transform="matrix(0.95551305,0,0,0.95551305,250.31456,213.07941)"
       clip-path="url(#clipPath61)"><tspan
         style="font-style:oblique;font-variant:normal;font-weight:normal;font-size:12px;font-family:Helvetica;writing-mode:lr-tb;fill:#333333;fill-opacity:1;fill-rule:nonzero;stroke:none"
         x="0 8.6660156 15.339844 18.673828 25.347656 28.681641 32.677734 39.351562 42.017578 48.691406 52.025391 58.699219 65.373047 68.707031 72.041016 78.714844 82.048828 84.714844 87.380859 93.380859 100.05469"
         y="0"
         sodipodi:role="line"
         id="tspan60">Data related to likes</tspan></text>
  </g>
</svg>
