<?xml version="1.0" encoding="UTF-8" standalone="no"?>
<!-- Created with Inkscape (http://www.inkscape.org/) -->

<svg
   version="1.1"
   id="svg1"
   width="408"
   height="301.44"
   viewBox="0 0 408 301.44"
   sodipodi:docname="sql-11.pdf"
   xmlns:inkscape="http://www.inkscape.org/namespaces/inkscape"
   xmlns:sodipodi="http://sodipodi.sourceforge.net/DTD/sodipodi-0.dtd"
   xmlns="http://www.w3.org/2000/svg"
   xmlns:svg="http://www.w3.org/2000/svg">
  <defs
     id="defs1">
    <clipPath
       clipPathUnits="userSpaceOnUse"
       id="clipPath2">
      <path
         d="M 0,0 H 1275 V 940.57379 H 0 Z"
         transform="scale(0.33490195)"
         clip-rule="evenodd"
         id="path2" />
    </clipPath>
    <clipPath
       clipPathUnits="userSpaceOnUse"
       id="clipPath4">
      <path
         d="M 0,0 H 1275 V 934.60193 H 0 Z"
         transform="matrix(0.33490195,0,0,0.33490195,-0.49999999,-0.49999999)"
         clip-rule="evenodd"
         id="path4" />
    </clipPath>
    <clipPath
       clipPathUnits="userSpaceOnUse"
       id="clipPath6">
      <path
         d="M 0,0 H 1275 V 934.60193 H 0 Z"
         transform="matrix(0.33490195,0,0,0.33490195,-0.49999999,-0.49999999)"
         clip-rule="evenodd"
         id="path6" />
    </clipPath>
    <clipPath
       clipPathUnits="userSpaceOnUse"
       id="clipPath8">
      <path
         d="M 0,0 H 1275 V 934.60193 H 0 Z"
         transform="matrix(0.33490195,0,0,0.33490195,-0.49999999,-0.49999999)"
         clip-rule="evenodd"
         id="path8" />
    </clipPath>
    <clipPath
       clipPathUnits="userSpaceOnUse"
       id="clipPath10">
      <path
         d="M 0,0 H 1275 V 934.60193 H 0 Z"
         transform="matrix(0.33490195,0,0,0.33490195,-0.49999999,-0.49999999)"
         clip-rule="evenodd"
         id="path10" />
    </clipPath>
    <clipPath
       clipPathUnits="userSpaceOnUse"
       id="clipPath12">
      <path
         d="M 0,0 H 1275 V 934.60193 H 0 Z"
         transform="matrix(0.33490195,0,0,0.33490195,-0.49999999,-0.49999999)"
         clip-rule="evenodd"
         id="path12" />
    </clipPath>
    <clipPath
       clipPathUnits="userSpaceOnUse"
       id="clipPath14">
      <path
         d="M 0,0 H 1275 V 934.60193 H 0 Z"
         transform="matrix(0.33490195,0,0,0.33490195,-0.49999999,-0.49999999)"
         clip-rule="evenodd"
         id="path14" />
    </clipPath>
    <clipPath
       clipPathUnits="userSpaceOnUse"
       id="clipPath16">
      <path
         d="M 0,0 H 1275 V 934.60193 H 0 Z"
         transform="matrix(0.33490195,0,0,0.33490195,-0.49999999,-0.49999999)"
         clip-rule="evenodd"
         id="path16" />
    </clipPath>
    <clipPath
       clipPathUnits="userSpaceOnUse"
       id="clipPath18">
      <path
         d="M 0,0 H 1275 V 934.60193 H 0 Z"
         transform="matrix(0.33490195,0,0,0.33490195,-0.49999999,-0.49999999)"
         clip-rule="evenodd"
         id="path18" />
    </clipPath>
    <clipPath
       clipPathUnits="userSpaceOnUse"
       id="clipPath19">
      <path
         d="M 0,0 H 365 V 186 H 0 Z"
         transform="matrix(0.33490195,0,0,0.33490195,99.979997,139.83804)"
         id="path19" />
    </clipPath>
    <clipPath
       clipPathUnits="userSpaceOnUse"
       id="clipPath21">
      <path
         d="M 0,0 H 1275 V 934.60193 H 0 Z"
         transform="scale(0.31999999)"
         clip-rule="evenodd"
         id="path21" />
    </clipPath>
    <clipPath
       clipPathUnits="userSpaceOnUse"
       id="clipPath23">
      <path
         d="M 0,0 H 1275 V 934.60193 H 0 Z"
         transform="matrix(0.33490195,0,0,0.33490195,-0.49999999,-0.49999999)"
         clip-rule="evenodd"
         id="path23" />
    </clipPath>
    <clipPath
       clipPathUnits="userSpaceOnUse"
       id="clipPath24">
      <path
         d="M 0,0 H 1275 V 934.60193 H 0 Z"
         transform="matrix(0.3348986,0,0,0.3348986,-134.07813,-178)"
         clip-rule="evenodd"
         id="path24" />
    </clipPath>
    <clipPath
       clipPathUnits="userSpaceOnUse"
       id="clipPath25">
      <path
         d="M 0,0 H 365 V 187 H 0 Z"
         transform="matrix(0.33490195,0,0,0.33490195,299.91647,34.678822)"
         id="path25" />
    </clipPath>
    <clipPath
       clipPathUnits="userSpaceOnUse"
       id="clipPath27">
      <path
         d="M 0,0 H 1275 V 934.60193 H 0 Z"
         transform="scale(0.31999999)"
         clip-rule="evenodd"
         id="path27" />
    </clipPath>
    <clipPath
       clipPathUnits="userSpaceOnUse"
       id="clipPath29">
      <path
         d="M 0,0 H 1275 V 934.60193 H 0 Z"
         transform="matrix(0.33490195,0,0,0.33490195,-0.49999999,-0.49999999)"
         clip-rule="evenodd"
         id="path29" />
    </clipPath>
    <clipPath
       clipPathUnits="userSpaceOnUse"
       id="clipPath30">
      <path
         d="M 0,0 H 1275 V 934.60193 H 0 Z"
         transform="matrix(0.3348986,0,0,0.3348986,-306.60938,-73)"
         clip-rule="evenodd"
         id="path30" />
    </clipPath>
    <clipPath
       clipPathUnits="userSpaceOnUse"
       id="clipPath31">
      <path
         d="M 0,0 H 365 V 187 H 0 Z"
         transform="matrix(0.33490195,0,0,0.33490195,299.91647,104.67333)"
         id="path31" />
    </clipPath>
    <clipPath
       clipPathUnits="userSpaceOnUse"
       id="clipPath33">
      <path
         d="M 0,0 H 1275 V 934.60193 H 0 Z"
         transform="scale(0.31999999)"
         clip-rule="evenodd"
         id="path33" />
    </clipPath>
    <clipPath
       clipPathUnits="userSpaceOnUse"
       id="clipPath35">
      <path
         d="M 0,0 H 1275 V 934.60193 H 0 Z"
         transform="matrix(0.33490195,0,0,0.33490195,-0.49999999,-0.49999999)"
         clip-rule="evenodd"
         id="path35" />
    </clipPath>
    <clipPath
       clipPathUnits="userSpaceOnUse"
       id="clipPath36">
      <path
         d="M 0,0 H 1275 V 934.60193 H 0 Z"
         transform="matrix(0.3348986,0,0,0.3348986,-306.60938,-143)"
         clip-rule="evenodd"
         id="path36" />
    </clipPath>
    <clipPath
       clipPathUnits="userSpaceOnUse"
       id="clipPath37">
      <path
         d="M 0,0 H 365 V 187 H 0 Z"
         transform="matrix(0.33490195,0,0,0.33490195,299.91647,174.66784)"
         id="path37" />
    </clipPath>
    <clipPath
       clipPathUnits="userSpaceOnUse"
       id="clipPath39">
      <path
         d="M 0,0 H 1275 V 934.60193 H 0 Z"
         transform="scale(0.31999999)"
         clip-rule="evenodd"
         id="path39" />
    </clipPath>
    <clipPath
       clipPathUnits="userSpaceOnUse"
       id="clipPath41">
      <path
         d="M 0,0 H 1275 V 934.60193 H 0 Z"
         transform="matrix(0.33490195,0,0,0.33490195,-0.49999999,-0.49999999)"
         clip-rule="evenodd"
         id="path41" />
    </clipPath>
    <clipPath
       clipPathUnits="userSpaceOnUse"
       id="clipPath42">
      <path
         d="M 0,0 H 1275 V 934.60193 H 0 Z"
         transform="matrix(0.3348986,0,0,0.3348986,-306.60938,-213)"
         clip-rule="evenodd"
         id="path42" />
    </clipPath>
    <clipPath
       clipPathUnits="userSpaceOnUse"
       id="clipPath43">
      <path
         d="M 0,0 H 365 V 186 H 0 Z"
         transform="matrix(0.33490195,0,0,0.33490195,299.91647,244.99725)"
         id="path43" />
    </clipPath>
    <clipPath
       clipPathUnits="userSpaceOnUse"
       id="clipPath45">
      <path
         d="M 0,0 H 1275 V 934.60193 H 0 Z"
         transform="scale(0.31999999)"
         clip-rule="evenodd"
         id="path45" />
    </clipPath>
    <clipPath
       clipPathUnits="userSpaceOnUse"
       id="clipPath47">
      <path
         d="M 0,0 H 1275 V 934.60193 H 0 Z"
         transform="matrix(0.33490195,0,0,0.33490195,-0.49999999,-0.49999999)"
         clip-rule="evenodd"
         id="path47" />
    </clipPath>
    <clipPath
       clipPathUnits="userSpaceOnUse"
       id="clipPath48">
      <path
         d="M 0,0 H 1275 V 934.60193 H 0 Z"
         transform="matrix(0.3348986,0,0,0.3348986,-306.60938,-283)"
         clip-rule="evenodd"
         id="path48" />
    </clipPath>
    <clipPath
       clipPathUnits="userSpaceOnUse"
       id="clipPath49">
      <path
         d="M 0,0 H 515 V 186 H 0 Z"
         transform="matrix(0.33490195,0,0,0.33490195,-0.15568639,-0.15098054)"
         id="path49" />
    </clipPath>
    <clipPath
       clipPathUnits="userSpaceOnUse"
       id="clipPath51">
      <path
         d="M 0,0 H 1275 V 934.60193 H 0 Z"
         transform="scale(0.31999999)"
         clip-rule="evenodd"
         id="path51" />
    </clipPath>
    <clipPath
       clipPathUnits="userSpaceOnUse"
       id="clipPath53">
      <path
         d="M 0,0 H 1275 V 934.60193 H 0 Z"
         transform="matrix(0.33490195,0,0,0.33490195,-0.49999999,-0.49999999)"
         clip-rule="evenodd"
         id="path53" />
    </clipPath>
    <clipPath
       clipPathUnits="userSpaceOnUse"
       id="clipPath54">
      <path
         d="M 0,0 H 1275 V 934.60193 H 0 Z"
         transform="matrix(0.3348986,0,0,0.3348986,-27.9375,-27)"
         clip-rule="evenodd"
         id="path54" />
    </clipPath>
    <clipPath
       clipPathUnits="userSpaceOnUse"
       id="clipPath55">
      <path
         d="M 0,0 H 1275 V 934.60193 H 0 Z"
         transform="matrix(0.3348986,0,0,0.3348986,-28.984375,-49.999999)"
         clip-rule="evenodd"
         id="path55" />
    </clipPath>
    <clipPath
       clipPathUnits="userSpaceOnUse"
       id="clipPath56">
      <path
         d="M 0,0 H 515 V 127 H 0 Z"
         transform="matrix(0.33490195,0,0,0.33490195,-0.15568639,59.796468)"
         id="path56" />
    </clipPath>
    <clipPath
       clipPathUnits="userSpaceOnUse"
       id="clipPath58">
      <path
         d="M 0,0 H 1275 V 934.60193 H 0 Z"
         transform="scale(0.31999999)"
         clip-rule="evenodd"
         id="path58" />
    </clipPath>
    <clipPath
       clipPathUnits="userSpaceOnUse"
       id="clipPath60">
      <path
         d="M 0,0 H 1275 V 934.60193 H 0 Z"
         transform="matrix(0.33490195,0,0,0.33490195,-0.49999999,-0.49999999)"
         clip-rule="evenodd"
         id="path60" />
    </clipPath>
    <clipPath
       clipPathUnits="userSpaceOnUse"
       id="clipPath61">
      <path
         d="M 0,0 H 1275 V 934.60193 H 0 Z"
         transform="matrix(0.3348986,0,0,0.3348986,-38.765625,-78)"
         clip-rule="evenodd"
         id="path61" />
    </clipPath>
    <clipPath
       clipPathUnits="userSpaceOnUse"
       id="clipPath62">
      <path
         d="M 0,0 H 1275 V 934.60193 H 0 Z"
         transform="matrix(0.3348986,0,0,0.3348986,-107.375,-78)"
         clip-rule="evenodd"
         id="path62" />
    </clipPath>
    <clipPath
       clipPathUnits="userSpaceOnUse"
       id="clipPath63">
      <path
         d="M 0,0 H 1275 V 934.60193 H 0 Z"
         transform="matrix(0.3348986,0,0,0.3348986,-26.796875,-96)"
         clip-rule="evenodd"
         id="path63" />
    </clipPath>
    <clipPath
       clipPathUnits="userSpaceOnUse"
       id="clipPath64">
      <path
         d="M 0,0 H 1275 V 934.60193 H 0 Z"
         transform="matrix(0.3348986,0,0,0.3348986,-65.984375,-96)"
         clip-rule="evenodd"
         id="path64" />
    </clipPath>
  </defs>
  <sodipodi:namedview
     id="namedview1"
     pagecolor="#ffffff"
     bordercolor="#000000"
     borderopacity="0.25"
     inkscape:showpageshadow="2"
     inkscape:pageopacity="0.0"
     inkscape:pagecheckerboard="0"
     inkscape:deskcolor="#d1d1d1">
    <inkscape:page
       x="0"
       y="0"
       inkscape:label="1"
       id="page1"
       width="408"
       height="301.44"
       margin="0"
       bleed="0" />
  </sodipodi:namedview>
  <g
     id="g1"
     inkscape:groupmode="layer"
     inkscape:label="1">
    <path
       id="path1"
       d="M 0,0 H 427 V 315 H 0 Z"
       style="fill:#ffffff;fill-opacity:1;fill-rule:nonzero;stroke:none"
       transform="scale(0.95550351)"
       clip-path="url(#clipPath2)" />
    <path
       id="path3"
       d="m 221,171 h 40 V 66 h 33.63"
       style="fill:none;stroke:#000000;stroke-width:1;stroke-linecap:butt;stroke-linejoin:miter;stroke-miterlimit:10;stroke-dasharray:none;stroke-opacity:1"
       transform="matrix(0.95550351,0,0,0.95550351,0.47775175,0.47775175)"
       clip-path="url(#clipPath4)" />
    <path
       id="path5"
       d="m 299.88,66 -7,3.5 1.75,-3.5 -1.75,-3.5 z"
       style="fill:#000000;fill-opacity:1;fill-rule:nonzero;stroke:#000000;stroke-width:1;stroke-linecap:butt;stroke-linejoin:miter;stroke-miterlimit:10;stroke-dasharray:none;stroke-opacity:1"
       transform="matrix(0.95550351,0,0,0.95550351,0.47775175,0.47775175)"
       clip-path="url(#clipPath6)" />
    <path
       id="path7"
       d="m 221,171 h 40 v -35 h 33.63"
       style="fill:none;stroke:#000000;stroke-width:1;stroke-linecap:butt;stroke-linejoin:miter;stroke-miterlimit:10;stroke-dasharray:none;stroke-opacity:1"
       transform="matrix(0.95550351,0,0,0.95550351,0.47775175,0.47775175)"
       clip-path="url(#clipPath8)" />
    <path
       id="path9"
       d="m 299.88,136 -7,3.5 1.75,-3.5 -1.75,-3.5 z"
       style="fill:#000000;fill-opacity:1;fill-rule:nonzero;stroke:#000000;stroke-width:1;stroke-linecap:butt;stroke-linejoin:miter;stroke-miterlimit:10;stroke-dasharray:none;stroke-opacity:1"
       transform="matrix(0.95550351,0,0,0.95550351,0.47775175,0.47775175)"
       clip-path="url(#clipPath10)" />
    <path
       id="path11"
       d="m 221,171 h 40 v 35 h 33.63"
       style="fill:none;stroke:#000000;stroke-width:1;stroke-linecap:butt;stroke-linejoin:miter;stroke-miterlimit:10;stroke-dasharray:none;stroke-opacity:1"
       transform="matrix(0.95550351,0,0,0.95550351,0.47775175,0.47775175)"
       clip-path="url(#clipPath12)" />
    <path
       id="path13"
       d="m 299.88,206 -7,3.5 1.75,-3.5 -1.75,-3.5 z"
       style="fill:#000000;fill-opacity:1;fill-rule:nonzero;stroke:#000000;stroke-width:1;stroke-linecap:butt;stroke-linejoin:miter;stroke-miterlimit:10;stroke-dasharray:none;stroke-opacity:1"
       transform="matrix(0.95550351,0,0,0.95550351,0.47775175,0.47775175)"
       clip-path="url(#clipPath14)" />
    <path
       id="path15"
       d="m 221,171 h 40 v 105 h 33.63"
       style="fill:none;stroke:#000000;stroke-width:1;stroke-linecap:butt;stroke-linejoin:miter;stroke-miterlimit:10;stroke-dasharray:none;stroke-opacity:1"
       transform="matrix(0.95550351,0,0,0.95550351,0.47775175,0.47775175)"
       clip-path="url(#clipPath16)" />
    <path
       id="path17"
       d="m 299.88,276 -7,3.5 1.75,-3.5 -1.73999,-3.5 z"
       style="fill:#000000;fill-opacity:1;fill-rule:nonzero;stroke:#000000;stroke-width:1;stroke-linecap:butt;stroke-linejoin:miter;stroke-miterlimit:10;stroke-dasharray:none;stroke-opacity:1"
       transform="matrix(0.95550351,0,0,0.95550351,0.47775175,0.47775175)"
       clip-path="url(#clipPath18)" />
    <g
       opacity="0.25"
       id="g20"
       clip-path="url(#clipPath21)">
      <path
         d="m 101,141 h 120 v 60 H 101 Z"
         style="fill:#000000;fill-opacity:1;fill-rule:nonzero;stroke:#000000;stroke-width:1;stroke-linecap:butt;stroke-linejoin:miter;stroke-miterlimit:10;stroke-dasharray:none;stroke-opacity:1"
         transform="matrix(0.95550351,0,0,0.95550351,2.3887583,3.3442591)"
         clip-path="url(#clipPath19)"
         id="path20" />
    </g>
    <path
       id="path22"
       d="m 101,141 h 120 v 60 H 101 Z"
       style="fill:#dae8fc;fill-opacity:1;fill-rule:nonzero;stroke:#6c8ebf;stroke-width:1;stroke-linecap:butt;stroke-linejoin:miter;stroke-miterlimit:10;stroke-dasharray:none;stroke-opacity:1"
       transform="matrix(0.95550351,0,0,0.95550351,0.47775175,0.47775175)"
       clip-path="url(#clipPath23)" />
    <text
       id="text23"
       xml:space="preserve"
       transform="matrix(0.95551305,0,0,0.95551305,128.1134,170.08132)"
       clip-path="url(#clipPath24)"><tspan
         style="font-variant:normal;font-weight:700;font-size:19px;font-family:Helvetica;writing-mode:lr-tb;fill:#000000;fill-opacity:1;fill-rule:nonzero;stroke:none"
         x="0 12.672852 24.278809 35.884766 42.211914"
         y="0"
         sodipodi:role="line"
         id="tspan23">Photo</tspan></text>
    <g
       opacity="0.25"
       id="g26"
       clip-path="url(#clipPath27)">
      <path
         d="M 301,36 H 421 V 96 H 301 Z"
         style="fill:#000000;fill-opacity:1;fill-rule:nonzero;stroke:#000000;stroke-width:1;stroke-linecap:butt;stroke-linejoin:miter;stroke-miterlimit:10;stroke-dasharray:none;stroke-opacity:1"
         transform="matrix(0.95550351,0,0,0.95550351,2.3887487,3.3442626)"
         clip-path="url(#clipPath25)"
         id="path26" />
    </g>
    <path
       id="path28"
       d="M 301,36 H 421 V 96 H 301 Z"
       style="fill:#ffffff;fill-opacity:1;fill-rule:nonzero;stroke:#000000;stroke-width:1;stroke-linecap:butt;stroke-linejoin:miter;stroke-miterlimit:10;stroke-dasharray:none;stroke-opacity:1"
       transform="matrix(0.95550351,0,0,0.95550351,0.47775175,0.47775175)"
       clip-path="url(#clipPath29)" />
    <text
       id="text29"
       xml:space="preserve"
       transform="matrix(0.95551305,0,0,0.95551305,292.96926,69.752453)"
       clip-path="url(#clipPath30)"><tspan
         style="font-variant:normal;font-weight:normal;font-size:19px;font-family:Helvetica;writing-mode:lr-tb;fill:#000000;fill-opacity:1;fill-rule:nonzero;stroke:none"
         x="0 13.721191 24.288086 40.115234 55.942383 66.509277 77.076172 82.35498 87.633789 98.200684"
         y="0"
         sodipodi:role="line"
         id="tspan29">Comment #1</tspan></text>
    <g
       opacity="0.25"
       id="g32"
       clip-path="url(#clipPath33)">
      <path
         d="m 301,106 h 120 v 60 H 301 Z"
         style="fill:#000000;fill-opacity:1;fill-rule:nonzero;stroke:#000000;stroke-width:1;stroke-linecap:butt;stroke-linejoin:miter;stroke-miterlimit:10;stroke-dasharray:none;stroke-opacity:1"
         transform="matrix(0.95550351,0,0,0.95550351,2.3887487,3.3442591)"
         clip-path="url(#clipPath31)"
         id="path32" />
    </g>
    <path
       id="path34"
       d="m 301,106 h 120 v 60 H 301 Z"
       style="fill:#ffffff;fill-opacity:1;fill-rule:nonzero;stroke:#000000;stroke-width:1;stroke-linecap:butt;stroke-linejoin:miter;stroke-miterlimit:10;stroke-dasharray:none;stroke-opacity:1"
       transform="matrix(0.95550351,0,0,0.95550351,0.47775175,0.47775175)"
       clip-path="url(#clipPath35)" />
    <text
       id="text35"
       xml:space="preserve"
       transform="matrix(0.95551305,0,0,0.95551305,292.96926,136.63837)"
       clip-path="url(#clipPath36)"><tspan
         style="font-variant:normal;font-weight:normal;font-size:19px;font-family:Helvetica;writing-mode:lr-tb;fill:#000000;fill-opacity:1;fill-rule:nonzero;stroke:none"
         x="0 13.721191 24.288086 40.115234 55.942383 66.509277 77.076172 82.35498 87.633789 98.200684"
         y="0"
         sodipodi:role="line"
         id="tspan35">Comment #2</tspan></text>
    <g
       opacity="0.25"
       id="g38"
       clip-path="url(#clipPath39)">
      <path
         d="m 301,176 h 120 v 60 H 301 Z"
         style="fill:#000000;fill-opacity:1;fill-rule:nonzero;stroke:#000000;stroke-width:1;stroke-linecap:butt;stroke-linejoin:miter;stroke-miterlimit:10;stroke-dasharray:none;stroke-opacity:1"
         transform="matrix(0.95550351,0,0,0.95550351,2.3887487,3.3442591)"
         clip-path="url(#clipPath37)"
         id="path38" />
    </g>
    <path
       id="path40"
       d="m 301,176 h 120 v 60 H 301 Z"
       style="fill:#ffffff;fill-opacity:1;fill-rule:nonzero;stroke:#000000;stroke-width:1;stroke-linecap:butt;stroke-linejoin:miter;stroke-miterlimit:10;stroke-dasharray:none;stroke-opacity:1"
       transform="matrix(0.95550351,0,0,0.95550351,0.47775175,0.47775175)"
       clip-path="url(#clipPath41)" />
    <text
       id="text41"
       xml:space="preserve"
       transform="matrix(0.95551305,0,0,0.95551305,292.96926,203.52428)"
       clip-path="url(#clipPath42)"><tspan
         style="font-variant:normal;font-weight:normal;font-size:19px;font-family:Helvetica;writing-mode:lr-tb;fill:#000000;fill-opacity:1;fill-rule:nonzero;stroke:none"
         x="0 13.721191 24.288086 40.115234 55.942383 66.509277 77.076172 82.35498 87.633789 98.200684"
         y="0"
         sodipodi:role="line"
         id="tspan41">Comment #3</tspan></text>
    <g
       opacity="0.25"
       id="g44"
       clip-path="url(#clipPath45)">
      <path
         d="m 301,246 h 120 v 60 H 301 Z"
         style="fill:#000000;fill-opacity:1;fill-rule:nonzero;stroke:#000000;stroke-width:1;stroke-linecap:butt;stroke-linejoin:miter;stroke-miterlimit:10;stroke-dasharray:none;stroke-opacity:1"
         transform="matrix(0.95550351,0,0,0.95550351,2.3887487,3.3442591)"
         clip-path="url(#clipPath43)"
         id="path44" />
    </g>
    <path
       id="path46"
       d="m 301,246 h 120 v 60 H 301 Z"
       style="fill:#ffffff;fill-opacity:1;fill-rule:nonzero;stroke:#000000;stroke-width:1;stroke-linecap:butt;stroke-linejoin:miter;stroke-miterlimit:10;stroke-dasharray:none;stroke-opacity:1"
       transform="matrix(0.95550351,0,0,0.95550351,0.47775175,0.47775175)"
       clip-path="url(#clipPath47)" />
    <text
       id="text47"
       xml:space="preserve"
       transform="matrix(0.95551305,0,0,0.95551305,292.96926,270.41019)"
       clip-path="url(#clipPath48)"><tspan
         style="font-variant:normal;font-weight:normal;font-size:19px;font-family:Helvetica;writing-mode:lr-tb;fill:#000000;fill-opacity:1;fill-rule:nonzero;stroke:none"
         x="0 13.721191 24.288086 40.115234 55.942383 66.509277 77.076172 82.35498 87.633789 98.200684"
         y="0"
         sodipodi:role="line"
         id="tspan47">Comment #4</tspan></text>
    <g
       opacity="0.25"
       id="g50"
       clip-path="url(#clipPath51)">
      <path
         d="M 1,1 H 171 V 61 H 1 Z"
         style="fill:#000000;fill-opacity:1;fill-rule:nonzero;stroke:#000000;stroke-width:1;stroke-linecap:butt;stroke-linejoin:miter;stroke-miterlimit:10;stroke-dasharray:none;stroke-opacity:1"
         transform="matrix(0.95550351,0,0,0.95550351,2.3887588,3.3442623)"
         clip-path="url(#clipPath49)"
         id="path50" />
    </g>
    <path
       id="path52"
       d="M 1,1 H 171 V 61 H 1 Z"
       style="fill:#f8cecc;fill-opacity:1;fill-rule:nonzero;stroke:#b85450;stroke-width:1;stroke-linecap:butt;stroke-linejoin:miter;stroke-miterlimit:10;stroke-dasharray:none;stroke-opacity:1"
       transform="matrix(0.95550351,0,0,0.95550351,0.47775175,0.47775175)"
       clip-path="url(#clipPath53)" />
    <text
       id="text53"
       xml:space="preserve"
       transform="matrix(0.95551305,0,0,0.95551305,26.694646,25.798852)"
       clip-path="url(#clipPath54)"><tspan
         style="font-variant:normal;font-weight:700;font-size:19px;font-family:Helvetica;writing-mode:lr-tb;fill:#000000;fill-opacity:1;fill-rule:nonzero;stroke:none"
         x="0 14.778809 26.384766 36.95166 43.278809 49.605957 61.211914 67.539062 83.366211 93.933105 105.53906"
         y="0"
         sodipodi:role="line"
         id="tspan53">One-to-Many</tspan></text>
    <text
       id="text54"
       xml:space="preserve"
       transform="matrix(0.95551305,0,0,0.95551305,27.694949,47.775652)"
       clip-path="url(#clipPath55)"><tspan
         style="font-variant:normal;font-weight:700;font-size:19px;font-family:Helvetica;writing-mode:lr-tb;fill:#000000;fill-opacity:1;fill-rule:nonzero;stroke:none"
         x="0 13.721191 24.288086 29.566895 40.133789 46.460938 51.739746 63.345703 74.95166 85.518555 97.124512 102.40332"
         y="0"
         sodipodi:role="line"
         id="tspan54">Relationship</tspan></text>
    <g
       opacity="0.25"
       id="g57"
       clip-path="url(#clipPath58)">
      <path
         d="m 1,61 h 170 v 40 H 1 Z"
         style="fill:#000000;fill-opacity:1;fill-rule:nonzero;stroke:#000000;stroke-width:1;stroke-linecap:butt;stroke-linejoin:miter;stroke-miterlimit:10;stroke-dasharray:none;stroke-opacity:1"
         transform="matrix(0.95550351,0,0,0.95550351,2.3887588,3.3442623)"
         clip-path="url(#clipPath56)"
         id="path57" />
    </g>
    <path
       id="path59"
       d="m 1,61 h 170 v 40 H 1 Z"
       style="fill:#f8cecc;fill-opacity:1;fill-rule:nonzero;stroke:#b85450;stroke-width:1;stroke-linecap:butt;stroke-linejoin:miter;stroke-miterlimit:10;stroke-dasharray:none;stroke-opacity:1"
       transform="matrix(0.95550351,0,0,0.95550351,0.47775175,0.47775175)"
       clip-path="url(#clipPath60)" />
    <text
       id="text60"
       xml:space="preserve"
       transform="matrix(0.95551305,0,0,0.95551305,37.041061,74.530018)"
       clip-path="url(#clipPath61)"><tspan
         style="font-variant:normal;font-weight:700;font-size:15px;font-family:Helvetica;writing-mode:lr-tb;fill:#000000;fill-opacity:1;fill-rule:nonzero;stroke:none"
         x="0 10.283203 14.450684 23.613281 32.775879 41.938477 46.933594 56.096191 64.438477"
         y="0"
         sodipodi:role="line"
         id="tspan60">A photos </tspan></text>
    <text
       id="text61"
       xml:space="preserve"
       transform="matrix(0.95551305,0,0,0.95551305,102.59821,74.530018)"
       clip-path="url(#clipPath62)"><tspan
         style="font-style:oblique;font-variant:normal;font-weight:700;font-size:15px;font-family:Helvetica;writing-mode:lr-tb;fill:#000000;fill-opacity:1;fill-rule:nonzero;stroke:none"
         x="0 9.1625977 17.504883"
         y="0"
         sodipodi:role="line"
         id="tspan61">has</tspan></text>
    <text
       id="text62"
       xml:space="preserve"
       transform="matrix(0.95551305,0,0,0.95551305,25.604764,91.729253)"
       clip-path="url(#clipPath63)"><tspan
         style="font-style:oblique;font-variant:normal;font-weight:700;font-size:15px;font-family:Helvetica;writing-mode:lr-tb;fill:#000000;fill-opacity:1;fill-rule:nonzero;stroke:none"
         x="0 13.337402 21.679688 30.842285"
         y="0"
         sodipodi:role="line"
         id="tspan62">many</tspan></text>
    <text
       id="text63"
       xml:space="preserve"
       transform="matrix(0.95551305,0,0,0.95551305,63.048931,91.729253)"
       clip-path="url(#clipPath64)"><tspan
         style="font-variant:normal;font-weight:700;font-size:15px;font-family:Helvetica;writing-mode:lr-tb;fill:#000000;fill-opacity:1;fill-rule:nonzero;stroke:none"
         x="0 4.1674805 12.509766 21.672363 35.009766 48.347168 56.689453 65.852051 70.847168"
         y="0"
         sodipodi:role="line"
         id="tspan63"> comments</tspan></text>
  </g>
</svg>
