<?xml version="1.0" encoding="UTF-8" standalone="no"?>
<!-- Created with Inkscape (http://www.inkscape.org/) -->

<svg
   version="1.1"
   id="svg1"
   width="780.15997"
   height="465.28"
   viewBox="0 0 780.15997 465.28"
   sodipodi:docname="sql-4.pdf"
   xmlns:inkscape="http://www.inkscape.org/namespaces/inkscape"
   xmlns:sodipodi="http://sodipodi.sourceforge.net/DTD/sodipodi-0.dtd"
   xmlns="http://www.w3.org/2000/svg"
   xmlns:svg="http://www.w3.org/2000/svg">
  <defs
     id="defs1">
    <clipPath
       clipPathUnits="userSpaceOnUse"
       id="clipPath2">
      <path
         d="M 0,0 H 2437.5 V 1452.3189 H 0 Z"
         transform="scale(0.33394871)"
         clip-rule="evenodd"
         id="path2" />
    </clipPath>
    <clipPath
       clipPathUnits="userSpaceOnUse"
       id="clipPath4">
      <path
         d="M 0,0 H 2437.5 V 1449.3243 H 0 Z"
         transform="matrix(0.33394871,0,0,0.33394871,-0.49999999,-0.49999999)"
         clip-rule="evenodd"
         id="path4" />
    </clipPath>
    <clipPath
       clipPathUnits="userSpaceOnUse"
       id="clipPath5">
      <path
         d="M 0,0 H 2437.5 V 1449.3243 H 0 Z"
         transform="matrix(0.33394536,0,0,0.33394536,-30.578125,-87.999999)"
         clip-rule="evenodd"
         id="path5" />
    </clipPath>
    <clipPath
       clipPathUnits="userSpaceOnUse"
       id="clipPath7">
      <path
         d="M 0,0 H 2437.5 V 1449.3243 H 0 Z"
         transform="matrix(0.33394871,0,0,0.33394871,-0.49999999,-0.49999999)"
         clip-rule="evenodd"
         id="path7" />
    </clipPath>
    <clipPath
       clipPathUnits="userSpaceOnUse"
       id="clipPath8">
      <path
         d="M 0,0 H 2437.5 V 1449.3243 H 0 Z"
         transform="matrix(0.33394536,0,0,0.33394536,-5.96875,-134)"
         clip-rule="evenodd"
         id="path8" />
    </clipPath>
    <clipPath
       clipPathUnits="userSpaceOnUse"
       id="clipPath9">
      <path
         d="M 0,0 H 2437.5 V 1449.3243 H 0 Z"
         transform="matrix(0.33394536,0,0,0.33394536,-17.46875,-156)"
         clip-rule="evenodd"
         id="path9" />
    </clipPath>
    <clipPath
       clipPathUnits="userSpaceOnUse"
       id="clipPath10">
      <path
         d="M 0,0 H 2437.5 V 1449.3243 H 0 Z"
         transform="matrix(0.33394536,0,0,0.33394536,-93.984375,-176.99999)"
         clip-rule="evenodd"
         id="path10" />
    </clipPath>
    <clipPath
       clipPathUnits="userSpaceOnUse"
       id="clipPath12">
      <path
         d="M 0,0 H 2437.5 V 1449.3243 H 0 Z"
         transform="matrix(0.33394871,0,0,0.33394871,-0.49999999,-0.49999999)"
         clip-rule="evenodd"
         id="path12" />
    </clipPath>
    <clipPath
       clipPathUnits="userSpaceOnUse"
       id="clipPath14">
      <path
         d="M 0,0 H 2437.5 V 1449.3243 H 0 Z"
         transform="matrix(0.33394871,0,0,0.33394871,-0.49999999,-0.49999999)"
         clip-rule="evenodd"
         id="path14" />
    </clipPath>
    <clipPath
       clipPathUnits="userSpaceOnUse"
       id="clipPath16">
      <path
         d="M 0,0 H 2437.5 V 1449.3243 H 0 Z"
         transform="matrix(0.33394871,0,0,0.33394871,-0.49999999,-0.49999999)"
         clip-rule="evenodd"
         id="path16" />
    </clipPath>
    <clipPath
       clipPathUnits="userSpaceOnUse"
       id="clipPath17">
      <path
         d="M 0,0 H 2437.5 V 1449.3243 H 0 Z"
         transform="matrix(0.33394536,0,0,0.33394536,-400.48438,-111)"
         clip-rule="evenodd"
         id="path17" />
    </clipPath>
    <clipPath
       clipPathUnits="userSpaceOnUse"
       id="clipPath19">
      <path
         d="M 0,0 H 2437.5 V 1449.3243 H 0 Z"
         transform="matrix(0.33394871,0,0,0.33394871,-0.49999999,-0.49999999)"
         clip-rule="evenodd"
         id="path19" />
    </clipPath>
    <clipPath
       clipPathUnits="userSpaceOnUse"
       id="clipPath20">
      <path
         d="M 0,0 H 2437.5 V 1449.3243 H 0 Z"
         transform="matrix(0.33394536,0,0,0.33394536,-386.85938,-71)"
         clip-rule="evenodd"
         id="path20" />
    </clipPath>
    <clipPath
       clipPathUnits="userSpaceOnUse"
       id="clipPath22">
      <path
         d="M 0,0 H 2437.5 V 1449.3243 H 0 Z"
         transform="matrix(0.33394871,0,0,0.33394871,-0.49999999,-0.49999999)"
         clip-rule="evenodd"
         id="path22" />
    </clipPath>
    <clipPath
       clipPathUnits="userSpaceOnUse"
       id="clipPath23">
      <path
         d="M 0,0 H 2437.5 V 1449.3243 H 0 Z"
         transform="matrix(0.33394536,0,0,0.33394536,-415.48438,-160)"
         clip-rule="evenodd"
         id="path23" />
    </clipPath>
    <clipPath
       clipPathUnits="userSpaceOnUse"
       id="clipPath25">
      <path
         d="M 0,0 H 2437.5 V 1449.3243 H 0 Z"
         transform="matrix(0.33394871,0,0,0.33394871,-0.49999999,-0.49999999)"
         clip-rule="evenodd"
         id="path25" />
    </clipPath>
    <clipPath
       clipPathUnits="userSpaceOnUse"
       id="clipPath27">
      <path
         d="M 0,0 H 2437.5 V 1449.3243 H 0 Z"
         transform="matrix(0.33394871,0,0,0.33394871,-0.49999999,-0.49999999)"
         clip-rule="evenodd"
         id="path27" />
    </clipPath>
    <clipPath
       clipPathUnits="userSpaceOnUse"
       id="clipPath28">
      <path
         d="M 0,0 H 2437.5 V 1449.3243 H 0 Z"
         transform="matrix(0.33394536,0,0,0.33394536,-414.48437,-256)"
         clip-rule="evenodd"
         id="path28" />
    </clipPath>
    <clipPath
       clipPathUnits="userSpaceOnUse"
       id="clipPath30">
      <path
         d="M 0,0 H 2437.5 V 1449.3243 H 0 Z"
         transform="matrix(0.33394871,0,0,0.33394871,-0.49999999,-0.49999999)"
         clip-rule="evenodd"
         id="path30" />
    </clipPath>
    <clipPath
       clipPathUnits="userSpaceOnUse"
       id="clipPath31">
      <path
         d="M 0,0 H 2437.5 V 1449.3243 H 0 Z"
         transform="matrix(0.33394536,0,0,0.33394536,-386.85938,-215)"
         clip-rule="evenodd"
         id="path31" />
    </clipPath>
    <clipPath
       clipPathUnits="userSpaceOnUse"
       id="clipPath33">
      <path
         d="M 0,0 H 2437.5 V 1449.3243 H 0 Z"
         transform="matrix(0.33394871,0,0,0.33394871,-0.49999999,-0.49999999)"
         clip-rule="evenodd"
         id="path33" />
    </clipPath>
    <clipPath
       clipPathUnits="userSpaceOnUse"
       id="clipPath34">
      <path
         d="M 0,0 H 2437.5 V 1449.3243 H 0 Z"
         transform="matrix(0.33394536,0,0,0.33394536,-402.48438,-305.99999)"
         clip-rule="evenodd"
         id="path34" />
    </clipPath>
    <clipPath
       clipPathUnits="userSpaceOnUse"
       id="clipPath36">
      <path
         d="M 0,0 H 2437.5 V 1449.3243 H 0 Z"
         transform="matrix(0.33394871,0,0,0.33394871,-0.49999999,-0.49999999)"
         clip-rule="evenodd"
         id="path36" />
    </clipPath>
    <clipPath
       clipPathUnits="userSpaceOnUse"
       id="clipPath37">
      <path
         d="M 0,0 H 2437.5 V 1449.3243 H 0 Z"
         transform="matrix(0.33394536,0,0,0.33394536,-339.8125,-26)"
         clip-rule="evenodd"
         id="path37" />
    </clipPath>
    <clipPath
       clipPathUnits="userSpaceOnUse"
       id="clipPath39">
      <path
         d="M 0,0 H 2437.5 V 1449.3243 H 0 Z"
         transform="matrix(0.33394871,0,0,0.33394871,-0.49999999,-0.49999999)"
         clip-rule="evenodd"
         id="path39" />
    </clipPath>
    <clipPath
       clipPathUnits="userSpaceOnUse"
       id="clipPath41">
      <path
         d="M 0,0 H 2437.5 V 1449.3243 H 0 Z"
         transform="matrix(0.33394871,0,0,0.33394871,-0.49999999,-0.49999999)"
         clip-rule="evenodd"
         id="path41" />
    </clipPath>
    <clipPath
       clipPathUnits="userSpaceOnUse"
       id="clipPath42">
      <path
         d="M 0,0 H 2437.5 V 1449.3243 H 0 Z"
         transform="matrix(0.33394536,0,0,0.33394536,-398.98438,-403)"
         clip-rule="evenodd"
         id="path42" />
    </clipPath>
    <clipPath
       clipPathUnits="userSpaceOnUse"
       id="clipPath44">
      <path
         d="M 0,0 H 2437.5 V 1449.3243 H 0 Z"
         transform="matrix(0.33394871,0,0,0.33394871,-0.49999999,-0.49999999)"
         clip-rule="evenodd"
         id="path44" />
    </clipPath>
    <clipPath
       clipPathUnits="userSpaceOnUse"
       id="clipPath45">
      <path
         d="M 0,0 H 2437.5 V 1449.3243 H 0 Z"
         transform="matrix(0.33394536,0,0,0.33394536,-386.85938,-362.99999)"
         clip-rule="evenodd"
         id="path45" />
    </clipPath>
    <clipPath
       clipPathUnits="userSpaceOnUse"
       id="clipPath47">
      <path
         d="M 0,0 H 2437.5 V 1449.3243 H 0 Z"
         transform="matrix(0.33394871,0,0,0.33394871,-0.49999999,-0.49999999)"
         clip-rule="evenodd"
         id="path47" />
    </clipPath>
    <clipPath
       clipPathUnits="userSpaceOnUse"
       id="clipPath48">
      <path
         d="M 0,0 H 2437.5 V 1449.3243 H 0 Z"
         transform="matrix(0.33394536,0,0,0.33394536,-396.46875,-453)"
         clip-rule="evenodd"
         id="path48" />
    </clipPath>
    <clipPath
       clipPathUnits="userSpaceOnUse"
       id="clipPath50">
      <path
         d="M 0,0 H 2437.5 V 1449.3243 H 0 Z"
         transform="matrix(0.33394871,0,0,0.33394871,-0.49999999,-0.49999999)"
         clip-rule="evenodd"
         id="path50" />
    </clipPath>
    <clipPath
       clipPathUnits="userSpaceOnUse"
       id="clipPath52">
      <path
         d="M 0,0 H 2437.5 V 1449.3243 H 0 Z"
         transform="matrix(0.33394871,0,0,0.33394871,-0.49999999,-0.49999999)"
         clip-rule="evenodd"
         id="path52" />
    </clipPath>
    <clipPath
       clipPathUnits="userSpaceOnUse"
       id="clipPath54">
      <path
         d="M 0,0 H 2437.5 V 1449.3243 H 0 Z"
         transform="matrix(0.33394871,0,0,0.33394871,-0.49999999,-0.49999999)"
         clip-rule="evenodd"
         id="path54" />
    </clipPath>
    <clipPath
       clipPathUnits="userSpaceOnUse"
       id="clipPath55">
      <path
         d="M 0,0 H 2437.5 V 1449.3243 H 0 Z"
         transform="matrix(0.33394536,0,0,0.33394536,-668.01563,-34)"
         clip-rule="evenodd"
         id="path55" />
    </clipPath>
    <clipPath
       clipPathUnits="userSpaceOnUse"
       id="clipPath57">
      <path
         d="M 0,0 H 2437.5 V 1449.3243 H 0 Z"
         transform="matrix(0.33394871,0,0,0.33394871,-0.49999999,-0.49999999)"
         clip-rule="evenodd"
         id="path57" />
    </clipPath>
    <clipPath
       clipPathUnits="userSpaceOnUse"
       id="clipPath58">
      <path
         d="M 0,0 H 2437.5 V 1449.3243 H 0 Z"
         transform="matrix(0.33394536,0,0,0.33394536,-658.56249,-87)"
         clip-rule="evenodd"
         id="path58" />
    </clipPath>
    <clipPath
       clipPathUnits="userSpaceOnUse"
       id="clipPath60">
      <path
         d="M 0,0 H 2437.5 V 1449.3243 H 0 Z"
         transform="matrix(0.33394871,0,0,0.33394871,-0.49999999,-0.49999999)"
         clip-rule="evenodd"
         id="path60" />
    </clipPath>
    <clipPath
       clipPathUnits="userSpaceOnUse"
       id="clipPath61">
      <path
         d="M 0,0 H 2437.5 V 1449.3243 H 0 Z"
         transform="matrix(0.33394536,0,0,0.33394536,-658.56249,-220)"
         clip-rule="evenodd"
         id="path61" />
    </clipPath>
    <clipPath
       clipPathUnits="userSpaceOnUse"
       id="clipPath63">
      <path
         d="M 0,0 H 2437.5 V 1449.3243 H 0 Z"
         transform="matrix(0.33394871,0,0,0.33394871,-0.49999999,-0.49999999)"
         clip-rule="evenodd"
         id="path63" />
    </clipPath>
    <clipPath
       clipPathUnits="userSpaceOnUse"
       id="clipPath64">
      <path
         d="M 0,0 H 2437.5 V 1449.3243 H 0 Z"
         transform="matrix(0.33394536,0,0,0.33394536,-658.56249,-367)"
         clip-rule="evenodd"
         id="path64" />
    </clipPath>
  </defs>
  <sodipodi:namedview
     id="namedview1"
     pagecolor="#ffffff"
     bordercolor="#000000"
     borderopacity="0.25"
     inkscape:showpageshadow="2"
     inkscape:pageopacity="0.0"
     inkscape:pagecheckerboard="0"
     inkscape:deskcolor="#d1d1d1">
    <inkscape:page
       x="0"
       y="0"
       inkscape:label="1"
       id="page1"
       width="780.15997"
       height="465.28"
       margin="0"
       bleed="0" />
  </sodipodi:namedview>
  <g
     id="g1"
     inkscape:groupmode="layer"
     inkscape:label="1">
    <path
       id="path1"
       d="M 0,0 H 814 V 485 H 0 Z"
       style="fill:#ffffff;fill-opacity:1;fill-rule:nonzero;stroke:none"
       transform="scale(0.95823094)"
       clip-path="url(#clipPath2)" />
    <path
       id="path3"
       d="m 1,58.5 h 260 v 40 H 1 Z"
       style="fill:#f8cecc;fill-opacity:1;fill-rule:nonzero;stroke:#b85450;stroke-width:1;stroke-linecap:butt;stroke-linejoin:miter;stroke-miterlimit:10;stroke-dasharray:none;stroke-opacity:1"
       transform="matrix(0.95823094,0,0,0.95823094,0.47911546,0.47911546)"
       clip-path="url(#clipPath4)" />
    <text
       id="text4"
       xml:space="preserve"
       transform="matrix(0.95824054,0,0,0.95824054,29.301199,84.325167)"
       clip-path="url(#clipPath5)"><tspan
         style="font-variant:normal;font-weight:700;font-size:26px;font-family:Helvetica;writing-mode:lr-tb;fill:#000000;fill-opacity:1;fill-rule:nonzero;stroke:none"
         x="0 17.341797 31.801758 47.683594 63.56543 78.025391 93.907227 102.56543 109.78906 124.24902 131.47266 138.69629 156.03809 170.49805 184.95801"
         y="0"
         sodipodi:role="line"
         id="tspan4">Sequential Scan</tspan></text>
    <path
       id="path6"
       d="m 1,98.5 h 260 v 100 H 1 Z"
       style="fill:#f8cecc;fill-opacity:1;fill-rule:nonzero;stroke:#b85450;stroke-width:1;stroke-linecap:butt;stroke-linejoin:miter;stroke-miterlimit:10;stroke-dasharray:none;stroke-opacity:1"
       transform="matrix(0.95823094,0,0,0.95823094,0.47911546,0.47911546)"
       clip-path="url(#clipPath7)" />
    <text
       id="text7"
       xml:space="preserve"
       transform="matrix(0.95824054,0,0,0.95824054,5.7194982,128.40423)"
       clip-path="url(#clipPath8)"><tspan
         style="font-variant:normal;font-weight:700;font-size:18px;font-family:Helvetica;writing-mode:lr-tb;fill:#000000;fill-opacity:1;fill-rule:nonzero;stroke:none"
         x="0 14.000977 24.996094 35.006836 46.001953 51.00293 61.998047 72.993164 77.994141 88.004883 98.015625 108.02637 119.02148 124.02246 135.01758 145.02832 156.02344 166.03418 171.03516 182.03027 188.02441 193.02539 203.03613 208.03711 219.03223 229.04297 239.05371"
         y="0"
         sodipodi:role="line"
         id="tspan7">Open up each page of a heap</tspan></text>
    <g
       id="g8" />
    <text
       id="text8"
       xml:space="preserve"
       transform="matrix(0.95824054,0,0,0.95824054,16.739264,149.48552)"
       clip-path="url(#clipPath9)"><tspan
         style="font-variant:normal;font-weight:700;font-size:18px;font-family:Helvetica;writing-mode:lr-tb;fill:#000000;fill-opacity:1;fill-rule:nonzero;stroke:none"
         x="0 10.995117 15.996094 26.006836 31.007812 42.00293 52.998047 63.008789 68.009766 79.004883 89.015625 94.016602 105.01172 116.00684 126.01758 131.01855 141.0293 152.02441 163.01953 168.02051 178.03125 188.04199 194.03613 201.04102 211.05176 221.0625"
         y="0"
         sodipodi:role="line"
         id="tspan8">ﬁle one by one and extract</tspan></text>
    <text
       id="text9"
       xml:space="preserve"
       transform="matrix(0.95824054,0,0,0.95824054,90.059638,169.60857)"
       clip-path="url(#clipPath10)"><tspan
         style="font-variant:normal;font-weight:700;font-size:18px;font-family:Helvetica;writing-mode:lr-tb;fill:#000000;fill-opacity:1;fill-rule:nonzero;stroke:none"
         x="0 5.9941406 16.989258 27 32.000977 39.005859 50.000977 64.001953"
         y="0"
         sodipodi:role="line"
         id="tspan9">the rows</tspan></text>
    <path
       id="path11"
       d="M 311,36 H 541 V 481 H 311 Z"
       style="fill:#ffffff;fill-opacity:1;fill-rule:nonzero;stroke:#000000;stroke-width:1;stroke-linecap:butt;stroke-linejoin:miter;stroke-miterlimit:10;stroke-dasharray:none;stroke-opacity:1"
       transform="matrix(0.95823094,0,0,0.95823094,0.47911546,0.47911546)"
       clip-path="url(#clipPath12)" />
    <path
       id="path13"
       d="m 321,78.5 h 210 v 100 H 321 Z"
       style="fill:#f5f5f5;fill-opacity:1;fill-rule:nonzero;stroke:#666666;stroke-width:1;stroke-linecap:butt;stroke-linejoin:miter;stroke-miterlimit:10;stroke-dasharray:none;stroke-opacity:1"
       transform="matrix(0.95823094,0,0,0.95823094,0.47911546,0.47911546)"
       clip-path="url(#clipPath14)" />
    <path
       id="path15"
       d="m 321,78.5 h 210 v 50 H 321 Z"
       style="fill:#fff2cc;fill-opacity:1;fill-rule:nonzero;stroke:#d6b656;stroke-width:1;stroke-linecap:butt;stroke-linejoin:miter;stroke-miterlimit:10;stroke-dasharray:none;stroke-opacity:1"
       transform="matrix(0.95823094,0,0,0.95823094,0.47911546,0.47911546)"
       clip-path="url(#clipPath16)" />
    <text
       id="text16"
       xml:space="preserve"
       transform="matrix(0.95824054,0,0,0.95824054,383.76037,106.3647)"
       clip-path="url(#clipPath17)"><tspan
         style="font-variant:normal;font-weight:normal;font-size:18px;font-family:Helvetica;writing-mode:lr-tb;fill:#000000;fill-opacity:1;fill-rule:nonzero;stroke:none"
         x="0 12.999023 23.009766 33.020508 42.020508"
         y="0"
         sodipodi:role="line"
         id="tspan16">Nancy</tspan></text>
    <path
       id="path18"
       d="m 321,48.5 h 210 v 30 H 321 Z"
       style="fill:#f5f5f5;fill-opacity:1;fill-rule:nonzero;stroke:#666666;stroke-width:1;stroke-linecap:butt;stroke-linejoin:miter;stroke-miterlimit:10;stroke-dasharray:none;stroke-opacity:1"
       transform="matrix(0.95823094,0,0,0.95823094,0.47911546,0.47911546)"
       clip-path="url(#clipPath19)" />
    <text
       id="text19"
       xml:space="preserve"
       transform="matrix(0.95824054,0,0,0.95824054,370.70434,68.035078)"
       clip-path="url(#clipPath20)"><tspan
         style="font-variant:normal;font-weight:700;font-size:22px;font-family:Helvetica;writing-mode:lr-tb;fill:#333333;fill-opacity:1;fill-rule:nonzero;stroke:none"
         x="0 15.887695 22 35.438477 47.673828 59.90918 66.021484"
         y="0"
         sodipodi:role="line"
         id="tspan19">Block 0</tspan></text>
    <path
       id="path21"
       d="m 321,128.5 h 210 v 50 H 321 Z"
       style="fill:#fff2cc;fill-opacity:1;fill-rule:nonzero;stroke:#d6b656;stroke-width:1;stroke-linecap:butt;stroke-linejoin:miter;stroke-miterlimit:10;stroke-dasharray:none;stroke-opacity:1"
       transform="matrix(0.95823094,0,0,0.95823094,0.47911546,0.47911546)"
       clip-path="url(#clipPath22)" />
    <text
       id="text22"
       xml:space="preserve"
       transform="matrix(0.95824054,0,0,0.95824054,398.13398,153.31849)"
       clip-path="url(#clipPath23)"><tspan
         style="font-variant:normal;font-weight:normal;font-size:18px;font-family:Helvetica;writing-mode:lr-tb;fill:#000000;fill-opacity:1;fill-rule:nonzero;stroke:none"
         x="0 12.005859 16.004883"
         y="0"
         sodipodi:role="line"
         id="tspan22">Alf</tspan></text>
    <path
       id="path24"
       d="m 321,223.5 h 210 v 100 H 321 Z"
       style="fill:#f5f5f5;fill-opacity:1;fill-rule:nonzero;stroke:#666666;stroke-width:1;stroke-linecap:butt;stroke-linejoin:miter;stroke-miterlimit:10;stroke-dasharray:none;stroke-opacity:1"
       transform="matrix(0.95823094,0,0,0.95823094,0.47911546,0.47911546)"
       clip-path="url(#clipPath25)" />
    <path
       id="path26"
       d="m 321,223.5 h 210 v 50 H 321 Z"
       style="fill:#fff2cc;fill-opacity:1;fill-rule:nonzero;stroke:#d6b656;stroke-width:1;stroke-linecap:butt;stroke-linejoin:miter;stroke-miterlimit:10;stroke-dasharray:none;stroke-opacity:1"
       transform="matrix(0.95823094,0,0,0.95823094,0.47911546,0.47911546)"
       clip-path="url(#clipPath27)" />
    <text
       id="text27"
       xml:space="preserve"
       transform="matrix(0.95824054,0,0,0.95824054,397.17573,245.30958)"
       clip-path="url(#clipPath28)"><tspan
         style="font-variant:normal;font-weight:normal;font-size:18px;font-family:Helvetica;writing-mode:lr-tb;fill:#000000;fill-opacity:1;fill-rule:nonzero;stroke:none"
         x="0 9 12.999023"
         y="0"
         sodipodi:role="line"
         id="tspan27">Jia</tspan></text>
    <path
       id="path29"
       d="m 321,193.5 h 210 v 30 H 321 Z"
       style="fill:#f5f5f5;fill-opacity:1;fill-rule:nonzero;stroke:#666666;stroke-width:1;stroke-linecap:butt;stroke-linejoin:miter;stroke-miterlimit:10;stroke-dasharray:none;stroke-opacity:1"
       transform="matrix(0.95823094,0,0,0.95823094,0.47911546,0.47911546)"
       clip-path="url(#clipPath30)" />
    <text
       id="text30"
       xml:space="preserve"
       transform="matrix(0.95824054,0,0,0.95824054,370.70434,206.02172)"
       clip-path="url(#clipPath31)"><tspan
         style="font-variant:normal;font-weight:700;font-size:22px;font-family:Helvetica;writing-mode:lr-tb;fill:#333333;fill-opacity:1;fill-rule:nonzero;stroke:none"
         x="0 15.887695 22 35.438477 47.673828 59.90918 66.021484"
         y="0"
         sodipodi:role="line"
         id="tspan30">Block 1</tspan></text>
    <path
       id="path32"
       d="m 321,273.5 h 210 v 50 H 321 Z"
       style="fill:#fff2cc;fill-opacity:1;fill-rule:nonzero;stroke:#d6b656;stroke-width:1;stroke-linecap:butt;stroke-linejoin:miter;stroke-miterlimit:10;stroke-dasharray:none;stroke-opacity:1"
       transform="matrix(0.95823094,0,0,0.95823094,0.47911546,0.47911546)"
       clip-path="url(#clipPath33)" />
    <text
       id="text33"
       xml:space="preserve"
       transform="matrix(0.95824054,0,0,0.95824054,385.67685,293.2216)"
       clip-path="url(#clipPath34)"><tspan
         style="font-variant:normal;font-weight:normal;font-size:18px;font-family:Helvetica;writing-mode:lr-tb;fill:#000000;fill-opacity:1;fill-rule:nonzero;stroke:none"
         x="0 12.999023 16.998047 27.008789 37.019531"
         y="0"
         sodipodi:role="line"
         id="tspan33">Riann</tspan></text>
    <path
       id="path35"
       d="M 311,1 H 541 V 36 H 311 Z"
       style="fill:#ffffff;fill-opacity:1;fill-rule:nonzero;stroke:#000000;stroke-width:1;stroke-linecap:butt;stroke-linejoin:miter;stroke-miterlimit:10;stroke-dasharray:none;stroke-opacity:1"
       transform="matrix(0.95823094,0,0,0.95823094,0.47911546,0.47911546)"
       clip-path="url(#clipPath36)" />
    <text
       id="text36"
       xml:space="preserve"
       transform="matrix(0.95824054,0,0,0.95824054,325.62211,24.914254)"
       clip-path="url(#clipPath37)"><tspan
         style="font-style:oblique;font-variant:normal;font-weight:700;font-size:22px;font-family:Helvetica;writing-mode:lr-tb;fill:#000000;fill-opacity:1;fill-rule:nonzero;stroke:none"
         x="0 15.887695 28.123047 40.358398 53.796875 59.90918 73.347656 79.459961 85.572266 97.807617 103.91992 121.03223 134.4707 140.58301 156.4707"
         y="0"
         sodipodi:role="line"
         id="tspan36">Heap File On HD</tspan></text>
    <path
       id="path38"
       d="M 321,371 H 531 V 471 H 321 Z"
       style="fill:#f5f5f5;fill-opacity:1;fill-rule:nonzero;stroke:#666666;stroke-width:1;stroke-linecap:butt;stroke-linejoin:miter;stroke-miterlimit:10;stroke-dasharray:none;stroke-opacity:1"
       transform="matrix(0.95823094,0,0,0.95823094,0.47911546,0.47911546)"
       clip-path="url(#clipPath39)" />
    <path
       id="path40"
       d="m 321,371 h 210 v 50 H 321 Z"
       style="fill:#fff2cc;fill-opacity:1;fill-rule:nonzero;stroke:#d6b656;stroke-width:1;stroke-linecap:butt;stroke-linejoin:miter;stroke-miterlimit:10;stroke-dasharray:none;stroke-opacity:1"
       transform="matrix(0.95823094,0,0,0.95823094,0.47911546,0.47911546)"
       clip-path="url(#clipPath41)" />
    <text
       id="text41"
       xml:space="preserve"
       transform="matrix(0.95824054,0,0,0.95824054,382.32301,386.17094)"
       clip-path="url(#clipPath42)"><tspan
         style="font-variant:normal;font-weight:normal;font-size:18px;font-family:Helvetica;writing-mode:lr-tb;fill:#000000;fill-opacity:1;fill-rule:nonzero;stroke:none"
         x="0 12.005859 16.004883 25.004883 34.004883 44.015625"
         y="0"
         sodipodi:role="line"
         id="tspan41">Alyson</tspan></text>
    <path
       id="path43"
       d="m 321,341 h 210 v 30 H 321 Z"
       style="fill:#f5f5f5;fill-opacity:1;fill-rule:nonzero;stroke:#666666;stroke-width:1;stroke-linecap:butt;stroke-linejoin:miter;stroke-miterlimit:10;stroke-dasharray:none;stroke-opacity:1"
       transform="matrix(0.95823094,0,0,0.95823094,0.47911546,0.47911546)"
       clip-path="url(#clipPath44)" />
    <text
       id="text44"
       xml:space="preserve"
       transform="matrix(0.95824054,0,0,0.95824054,370.70434,347.84131)"
       clip-path="url(#clipPath45)"><tspan
         style="font-variant:normal;font-weight:700;font-size:22px;font-family:Helvetica;writing-mode:lr-tb;fill:#333333;fill-opacity:1;fill-rule:nonzero;stroke:none"
         x="0 15.887695 22 35.438477 47.673828 59.90918 66.021484"
         y="0"
         sodipodi:role="line"
         id="tspan44">Block 2</tspan></text>
    <path
       id="path46"
       d="m 321,421 h 210 v 50 H 321 Z"
       style="fill:#fff2cc;fill-opacity:1;fill-rule:nonzero;stroke:#d6b656;stroke-width:1;stroke-linecap:butt;stroke-linejoin:miter;stroke-miterlimit:10;stroke-dasharray:none;stroke-opacity:1"
       transform="matrix(0.95823094,0,0,0.95823094,0.47911546,0.47911546)"
       clip-path="url(#clipPath47)" />
    <text
       id="text47"
       xml:space="preserve"
       transform="matrix(0.95824054,0,0,0.95824054,379.91243,434.08296)"
       clip-path="url(#clipPath48)"><tspan
         style="font-variant:normal;font-weight:normal;font-size:18px;font-family:Helvetica;writing-mode:lr-tb;fill:#000000;fill-opacity:1;fill-rule:nonzero;stroke:none"
         x="0 12.005859 22.016602 26.015625 30.014648 39.014648 49.025391"
         y="0"
         sodipodi:role="line"
         id="tspan47">Aaliyah</tspan></text>
    <path
       id="path49"
       d="M 591.01001,51 V 457.16"
       style="fill:none;stroke:#000000;stroke-width:1;stroke-linecap:butt;stroke-linejoin:miter;stroke-miterlimit:10;stroke-dasharray:none;stroke-opacity:1"
       transform="matrix(0.95823094,0,0,0.95823094,0.47911546,0.47911546)"
       clip-path="url(#clipPath50)" />
    <path
       id="path51"
       d="m 591.01001,465.41 -5.5,-11 5.5,2.75 5.5,-2.75 z"
       style="fill:#000000;fill-opacity:1;fill-rule:nonzero;stroke:#000000;stroke-width:1;stroke-linecap:butt;stroke-linejoin:miter;stroke-miterlimit:10;stroke-dasharray:none;stroke-opacity:1"
       transform="matrix(0.95823094,0,0,0.95823094,0.47911546,0.47911546)"
       clip-path="url(#clipPath52)" />
    <path
       id="path53"
       d="m 611.01001,8.5 h 200 v 40 h -200 z"
       style="fill:#dae8fc;fill-opacity:1;fill-rule:nonzero;stroke:#6c8ebf;stroke-width:1;stroke-linecap:butt;stroke-linejoin:miter;stroke-miterlimit:10;stroke-dasharray:none;stroke-opacity:1"
       transform="matrix(0.95823094,0,0,0.95823094,0.47911546,0.47911546)"
       clip-path="url(#clipPath54)" />
    <text
       id="text54"
       xml:space="preserve"
       transform="matrix(0.95824054,0,0,0.95824054,640.11966,32.580178)"
       clip-path="url(#clipPath55)"><tspan
         style="font-variant:normal;font-weight:700;font-size:17px;font-family:Helvetica;writing-mode:lr-tb;fill:#000000;fill-opacity:1;fill-rule:nonzero;stroke:none"
         x="0 11.338867 20.793457 31.177734 41.562012 51.016602 61.400879 67.062012 71.785156 81.239746"
         y="0"
         sodipodi:role="line"
         id="tspan54">Sequential</tspan></text>
    <path
       id="path56"
       d="m 611.01001,61 h 200 v 40 h -200 z"
       style="fill:#f5f5f5;fill-opacity:1;fill-rule:nonzero;stroke:#666666;stroke-width:1;stroke-linecap:butt;stroke-linejoin:miter;stroke-miterlimit:10;stroke-dasharray:none;stroke-opacity:1"
       transform="matrix(0.95823094,0,0,0.95823094,0.47911546,0.47911546)"
       clip-path="url(#clipPath57)" />
    <text
       id="text57"
       xml:space="preserve"
       transform="matrix(0.95824054,0,0,0.95824054,631.06128,83.366927)"
       clip-path="url(#clipPath58)"><tspan
         style="font-variant:normal;font-weight:700;font-size:17px;font-family:Helvetica;writing-mode:lr-tb;fill:#333333;fill-opacity:1;fill-rule:nonzero;stroke:none"
         x="0 12.276855 21.731445 31.186035 41.570312 46.293457 56.677734 61.400879 71.785156 81.239746 90.694336 95.41748"
         y="0"
         sodipodi:role="line"
         id="tspan57">Read block 0</tspan></text>
    <path
       id="path59"
       d="m 611.01001,193.5 h 200 v 40 h -200 z"
       style="fill:#f5f5f5;fill-opacity:1;fill-rule:nonzero;stroke:#666666;stroke-width:1;stroke-linecap:butt;stroke-linejoin:miter;stroke-miterlimit:10;stroke-dasharray:none;stroke-opacity:1"
       transform="matrix(0.95823094,0,0,0.95823094,0.47911546,0.47911546)"
       clip-path="url(#clipPath60)" />
    <text
       id="text60"
       xml:space="preserve"
       transform="matrix(0.95824054,0,0,0.95824054,631.06128,210.81292)"
       clip-path="url(#clipPath61)"><tspan
         style="font-variant:normal;font-weight:700;font-size:17px;font-family:Helvetica;writing-mode:lr-tb;fill:#333333;fill-opacity:1;fill-rule:nonzero;stroke:none"
         x="0 12.276855 21.731445 31.186035 41.570312 46.293457 56.677734 61.400879 71.785156 81.239746 90.694336 95.41748"
         y="0"
         sodipodi:role="line"
         id="tspan60">Read block 1</tspan></text>
    <path
       id="path62"
       d="m 611.01001,341 h 200 v 40 h -200 z"
       style="fill:#f5f5f5;fill-opacity:1;fill-rule:nonzero;stroke:#666666;stroke-width:1;stroke-linecap:butt;stroke-linejoin:miter;stroke-miterlimit:10;stroke-dasharray:none;stroke-opacity:1"
       transform="matrix(0.95823094,0,0,0.95823094,0.47911546,0.47911546)"
       clip-path="url(#clipPath63)" />
    <text
       id="text63"
       xml:space="preserve"
       transform="matrix(0.95824054,0,0,0.95824054,631.06128,351.67428)"
       clip-path="url(#clipPath64)"><tspan
         style="font-variant:normal;font-weight:700;font-size:17px;font-family:Helvetica;writing-mode:lr-tb;fill:#333333;fill-opacity:1;fill-rule:nonzero;stroke:none"
         x="0 12.276855 21.731445 31.186035 41.570312 46.293457 56.677734 61.400879 71.785156 81.239746 90.694336 95.41748"
         y="0"
         sodipodi:role="line"
         id="tspan63">Read block 2</tspan></text>
  </g>
</svg>
