<?xml version="1.0" encoding="UTF-8" standalone="no"?>
<!-- Created with Inkscape (http://www.inkscape.org/) -->

<svg
   version="1.1"
   id="svg1"
   width="889.27997"
   height="388.16"
   viewBox="0 0 889.27997 388.16"
   sodipodi:docname="sql-3.pdf"
   xmlns:inkscape="http://www.inkscape.org/namespaces/inkscape"
   xmlns:sodipodi="http://sodipodi.sourceforge.net/DTD/sodipodi-0.dtd"
   xmlns="http://www.w3.org/2000/svg"
   xmlns:svg="http://www.w3.org/2000/svg">
  <defs
     id="defs1">
    <clipPath
       clipPathUnits="userSpaceOnUse"
       id="clipPath2">
      <path
         d="M 0,0 H 2779.1665 V 1211.585 H 0 Z"
         transform="scale(0.33427287)"
         clip-rule="evenodd"
         id="path2" />
    </clipPath>
    <clipPath
       clipPathUnits="userSpaceOnUse"
       id="clipPath4">
      <path
         d="M 0,0 H 2779.1665 V 1208.5934 H 0 Z"
         transform="matrix(0.33427287,0,0,0.33427287,-0.49999999,-0.49999999)"
         clip-rule="evenodd"
         id="path4" />
    </clipPath>
    <clipPath
       clipPathUnits="userSpaceOnUse"
       id="clipPath6">
      <path
         d="M 0,0 H 2779.1665 V 1208.5934 H 0 Z"
         transform="matrix(0.33427287,0,0,0.33427287,-0.49999999,-0.49999999)"
         clip-rule="evenodd"
         id="path6" />
    </clipPath>
    <clipPath
       clipPathUnits="userSpaceOnUse"
       id="clipPath7">
      <path
         d="M 0,0 H 2779.1665 V 1208.5934 H 0 Z"
         transform="matrix(0.33426952,0,0,0.33426952,-99.203124,-30)"
         clip-rule="evenodd"
         id="path7" />
    </clipPath>
    <clipPath
       clipPathUnits="userSpaceOnUse"
       id="clipPath9">
      <path
         d="M 0,0 H 2779.1665 V 1208.5934 H 0 Z"
         transform="matrix(0.33427287,0,0,0.33427287,-0.49999999,-0.49999999)"
         clip-rule="evenodd"
         id="path9" />
    </clipPath>
    <clipPath
       clipPathUnits="userSpaceOnUse"
       id="clipPath10">
      <path
         d="M 0,0 H 2779.1665 V 1208.5934 H 0 Z"
         transform="matrix(0.33426952,0,0,0.33426952,-26.484375,-65)"
         clip-rule="evenodd"
         id="path10" />
    </clipPath>
    <clipPath
       clipPathUnits="userSpaceOnUse"
       id="clipPath11">
      <path
         d="M 0,0 H 2779.1665 V 1208.5934 H 0 Z"
         transform="matrix(0.33426952,0,0,0.33426952,-3.796875,-87)"
         clip-rule="evenodd"
         id="path11" />
    </clipPath>
    <clipPath
       clipPathUnits="userSpaceOnUse"
       id="clipPath12">
      <path
         d="M 0,0 H 2779.1665 V 1208.5934 H 0 Z"
         transform="matrix(0.33426952,0,0,0.33426952,-18.46875,-109)"
         clip-rule="evenodd"
         id="path12" />
    </clipPath>
    <clipPath
       clipPathUnits="userSpaceOnUse"
       id="clipPath13">
      <path
         d="M 0,0 H 2779.1665 V 1208.5934 H 0 Z"
         transform="matrix(0.33426952,0,0,0.33426952,-41.953125,-130)"
         clip-rule="evenodd"
         id="path13" />
    </clipPath>
    <clipPath
       clipPathUnits="userSpaceOnUse"
       id="clipPath15">
      <path
         d="M 0,0 H 2779.1665 V 1208.5934 H 0 Z"
         transform="matrix(0.33427287,0,0,0.33427287,-0.49999999,-0.49999999)"
         clip-rule="evenodd"
         id="path15" />
    </clipPath>
    <clipPath
       clipPathUnits="userSpaceOnUse"
       id="clipPath17">
      <path
         d="M 0,0 H 2779.1665 V 1208.5934 H 0 Z"
         transform="matrix(0.33427287,0,0,0.33427287,-0.49999999,-0.49999999)"
         clip-rule="evenodd"
         id="path17" />
    </clipPath>
    <clipPath
       clipPathUnits="userSpaceOnUse"
       id="clipPath18">
      <path
         d="M 0,0 H 2779.1665 V 1208.5934 H 0 Z"
         transform="matrix(0.33426952,0,0,0.33426952,-541.23438,-152)"
         clip-rule="evenodd"
         id="path18" />
    </clipPath>
    <clipPath
       clipPathUnits="userSpaceOnUse"
       id="clipPath20">
      <path
         d="M 0,0 H 2779.1665 V 1208.5934 H 0 Z"
         transform="matrix(0.33427287,0,0,0.33427287,-0.49999999,-0.49999999)"
         clip-rule="evenodd"
         id="path20" />
    </clipPath>
    <clipPath
       clipPathUnits="userSpaceOnUse"
       id="clipPath22">
      <path
         d="M 0,0 H 2779.1665 V 1208.5934 H 0 Z"
         transform="matrix(0.33427287,0,0,0.33427287,-0.49999999,-0.49999999)"
         clip-rule="evenodd"
         id="path22" />
    </clipPath>
    <clipPath
       clipPathUnits="userSpaceOnUse"
       id="clipPath24">
      <path
         d="M 0,0 H 2779.1665 V 1208.5934 H 0 Z"
         transform="matrix(0.33427287,0,0,0.33427287,-0.49999999,-0.49999999)"
         clip-rule="evenodd"
         id="path24" />
    </clipPath>
    <clipPath
       clipPathUnits="userSpaceOnUse"
       id="clipPath25">
      <path
         d="M 0,0 H 2779.1665 V 1208.5934 H 0 Z"
         transform="matrix(0.33426952,0,0,0.33426952,-361.14063,-218)"
         clip-rule="evenodd"
         id="path25" />
    </clipPath>
    <clipPath
       clipPathUnits="userSpaceOnUse"
       id="clipPath27">
      <path
         d="M 0,0 H 2779.1665 V 1208.5934 H 0 Z"
         transform="matrix(0.33427287,0,0,0.33427287,-0.49999999,-0.49999999)"
         clip-rule="evenodd"
         id="path27" />
    </clipPath>
    <clipPath
       clipPathUnits="userSpaceOnUse"
       id="clipPath29">
      <path
         d="M 0,0 H 2779.1665 V 1208.5934 H 0 Z"
         transform="matrix(0.33427287,0,0,0.33427287,-0.49999999,-0.49999999)"
         clip-rule="evenodd"
         id="path29" />
    </clipPath>
    <clipPath
       clipPathUnits="userSpaceOnUse"
       id="clipPath31">
      <path
         d="M 0,0 H 2779.1665 V 1208.5934 H 0 Z"
         transform="matrix(0.33427287,0,0,0.33427287,-0.49999999,-0.49999999)"
         clip-rule="evenodd"
         id="path31" />
    </clipPath>
    <clipPath
       clipPathUnits="userSpaceOnUse"
       id="clipPath32">
      <path
         d="M 0,0 H 2779.1665 V 1208.5934 H 0 Z"
         transform="matrix(0.33426952,0,0,0.33426952,-358.07813,-288)"
         clip-rule="evenodd"
         id="path32" />
    </clipPath>
    <clipPath
       clipPathUnits="userSpaceOnUse"
       id="clipPath34">
      <path
         d="M 0,0 H 2779.1665 V 1208.5934 H 0 Z"
         transform="matrix(0.33427287,0,0,0.33427287,-0.49999999,-0.49999999)"
         clip-rule="evenodd"
         id="path34" />
    </clipPath>
    <clipPath
       clipPathUnits="userSpaceOnUse"
       id="clipPath36">
      <path
         d="M 0,0 H 2779.1665 V 1208.5934 H 0 Z"
         transform="matrix(0.33427287,0,0,0.33427287,-0.49999999,-0.49999999)"
         clip-rule="evenodd"
         id="path36" />
    </clipPath>
    <clipPath
       clipPathUnits="userSpaceOnUse"
       id="clipPath38">
      <path
         d="M 0,0 H 2779.1665 V 1208.5934 H 0 Z"
         transform="matrix(0.33427287,0,0,0.33427287,-0.49999999,-0.49999999)"
         clip-rule="evenodd"
         id="path38" />
    </clipPath>
    <clipPath
       clipPathUnits="userSpaceOnUse"
       id="clipPath39">
      <path
         d="M 0,0 H 2779.1665 V 1208.5934 H 0 Z"
         transform="matrix(0.33426952,0,0,0.33426952,-349.51563,-358)"
         clip-rule="evenodd"
         id="path39" />
    </clipPath>
    <clipPath
       clipPathUnits="userSpaceOnUse"
       id="clipPath41">
      <path
         d="M 0,0 H 2779.1665 V 1208.5934 H 0 Z"
         transform="matrix(0.33427287,0,0,0.33427287,-0.49999999,-0.49999999)"
         clip-rule="evenodd"
         id="path41" />
    </clipPath>
    <clipPath
       clipPathUnits="userSpaceOnUse"
       id="clipPath42">
      <path
         d="M 0,0 H 2779.1665 V 1208.5934 H 0 Z"
         transform="matrix(0.33426952,0,0,0.33426952,-521.375,-207)"
         clip-rule="evenodd"
         id="path42" />
    </clipPath>
    <clipPath
       clipPathUnits="userSpaceOnUse"
       id="clipPath43">
      <path
         d="M 0,0 H 2779.1665 V 1208.5934 H 0 Z"
         transform="matrix(0.33426952,0,0,0.33426952,-571.07081,-207)"
         clip-rule="evenodd"
         id="path43" />
    </clipPath>
    <clipPath
       clipPathUnits="userSpaceOnUse"
       id="clipPath44">
      <path
         d="M 0,0 H 2779.1665 V 1208.5934 H 0 Z"
         transform="matrix(0.33426952,0,0,0.33426952,-488.42188,-228.99999)"
         clip-rule="evenodd"
         id="path44" />
    </clipPath>
    <clipPath
       clipPathUnits="userSpaceOnUse"
       id="clipPath46">
      <path
         d="M 0,0 H 2779.1665 V 1208.5934 H 0 Z"
         transform="matrix(0.33427287,0,0,0.33427287,-0.49999999,-0.49999999)"
         clip-rule="evenodd"
         id="path46" />
    </clipPath>
    <clipPath
       clipPathUnits="userSpaceOnUse"
       id="clipPath48">
      <path
         d="M 0,0 H 2779.1665 V 1208.5934 H 0 Z"
         transform="matrix(0.33427287,0,0,0.33427287,-0.49999999,-0.49999999)"
         clip-rule="evenodd"
         id="path48" />
    </clipPath>
    <clipPath
       clipPathUnits="userSpaceOnUse"
       id="clipPath50">
      <path
         d="M 0,0 H 2779.1665 V 1208.5934 H 0 Z"
         transform="matrix(0.33427287,0,0,0.33427287,-0.49999999,-0.49999999)"
         clip-rule="evenodd"
         id="path50" />
    </clipPath>
    <clipPath
       clipPathUnits="userSpaceOnUse"
       id="clipPath51">
      <path
         d="M 0,0 H 2779.1665 V 1208.5934 H 0 Z"
         transform="matrix(0.33426952,0,0,0.33426952,-493.1875,-272)"
         clip-rule="evenodd"
         id="path51" />
    </clipPath>
    <clipPath
       clipPathUnits="userSpaceOnUse"
       id="clipPath52">
      <path
         d="M 0,0 H 2779.1665 V 1208.5934 H 0 Z"
         transform="matrix(0.33426952,0,0,0.33426952,-514.20313,-272)"
         clip-rule="evenodd"
         id="path52" />
    </clipPath>
    <clipPath
       clipPathUnits="userSpaceOnUse"
       id="clipPath53">
      <path
         d="M 0,0 H 2779.1665 V 1208.5934 H 0 Z"
         transform="matrix(0.33426952,0,0,0.33426952,-520.95313,-294)"
         clip-rule="evenodd"
         id="path53" />
    </clipPath>
    <clipPath
       clipPathUnits="userSpaceOnUse"
       id="clipPath55">
      <path
         d="M 0,0 H 2779.1665 V 1208.5934 H 0 Z"
         transform="matrix(0.33427287,0,0,0.33427287,-0.49999999,-0.49999999)"
         clip-rule="evenodd"
         id="path55" />
    </clipPath>
    <clipPath
       clipPathUnits="userSpaceOnUse"
       id="clipPath56">
      <path
         d="M 0,0 H 2779.1665 V 1208.5934 H 0 Z"
         transform="matrix(0.33426952,0,0,0.33426952,-497.1875,-347)"
         clip-rule="evenodd"
         id="path56" />
    </clipPath>
    <clipPath
       clipPathUnits="userSpaceOnUse"
       id="clipPath57">
      <path
         d="M 0,0 H 2779.1665 V 1208.5934 H 0 Z"
         transform="matrix(0.33426952,0,0,0.33426952,-520.20313,-347)"
         clip-rule="evenodd"
         id="path57" />
    </clipPath>
    <clipPath
       clipPathUnits="userSpaceOnUse"
       id="clipPath58">
      <path
         d="M 0,0 H 2779.1665 V 1208.5934 H 0 Z"
         transform="matrix(0.33426952,0,0,0.33426952,-525.95313,-369)"
         clip-rule="evenodd"
         id="path58" />
    </clipPath>
    <clipPath
       clipPathUnits="userSpaceOnUse"
       id="clipPath60">
      <path
         d="M 0,0 H 2779.1665 V 1208.5934 H 0 Z"
         transform="matrix(0.33427287,0,0,0.33427287,-0.49999999,-0.49999999)"
         clip-rule="evenodd"
         id="path60" />
    </clipPath>
    <clipPath
       clipPathUnits="userSpaceOnUse"
       id="clipPath61">
      <path
         d="M 0,0 H 2779.1665 V 1208.5934 H 0 Z"
         transform="matrix(0.33426952,0,0,0.33426952,-710.17188,-272)"
         clip-rule="evenodd"
         id="path61" />
    </clipPath>
    <clipPath
       clipPathUnits="userSpaceOnUse"
       id="clipPath62">
      <path
         d="M 0,0 H 2779.1665 V 1208.5934 H 0 Z"
         transform="matrix(0.33426952,0,0,0.33426952,-757.20312,-272)"
         clip-rule="evenodd"
         id="path62" />
    </clipPath>
    <clipPath
       clipPathUnits="userSpaceOnUse"
       id="clipPath63">
      <path
         d="M 0,0 H 2779.1665 V 1208.5934 H 0 Z"
         transform="matrix(0.33426952,0,0,0.33426952,-750.95313,-294)"
         clip-rule="evenodd"
         id="path63" />
    </clipPath>
  </defs>
  <sodipodi:namedview
     id="namedview1"
     pagecolor="#ffffff"
     bordercolor="#000000"
     borderopacity="0.25"
     inkscape:showpageshadow="2"
     inkscape:pageopacity="0.0"
     inkscape:pagecheckerboard="0"
     inkscape:deskcolor="#d1d1d1">
    <inkscape:page
       x="0"
       y="0"
       inkscape:label="1"
       id="page1"
       width="889.27997"
       height="388.16"
       margin="0"
       bleed="0" />
  </sodipodi:namedview>
  <g
     id="g1"
     inkscape:groupmode="layer"
     inkscape:label="1">
    <path
       id="path1"
       d="M 0,0 H 929 V 405 H 0 Z"
       style="fill:#ffffff;fill-opacity:1;fill-rule:nonzero;stroke:none"
       transform="scale(0.95730169)"
       clip-path="url(#clipPath2)" />
    <path
       id="path3"
       d="M 56,171 H 266 V 271 H 56 Z"
       style="fill:#f5f5f5;fill-opacity:1;fill-rule:nonzero;stroke:#666666;stroke-width:1;stroke-linecap:butt;stroke-linejoin:miter;stroke-miterlimit:10;stroke-dasharray:none;stroke-opacity:1"
       transform="matrix(0.95730169,0,0,0.95730169,0.47865084,0.47865084)"
       clip-path="url(#clipPath4)" />
    <path
       id="path5"
       d="M 1,1 H 261 V 41 H 1 Z"
       style="fill:#f8cecc;fill-opacity:1;fill-rule:nonzero;stroke:#b85450;stroke-width:1;stroke-linecap:butt;stroke-linejoin:miter;stroke-miterlimit:10;stroke-dasharray:none;stroke-opacity:1"
       transform="matrix(0.95730169,0,0,0.95730169,0.47865084,0.47865084)"
       clip-path="url(#clipPath6)" />
    <text
       id="text6"
       xml:space="preserve"
       transform="matrix(0.95731129,0,0,0.95731129,94.968271,28.719339)"
       clip-path="url(#clipPath7)"><tspan
         style="font-variant:normal;font-weight:700;font-size:26px;font-family:Helvetica;writing-mode:lr-tb;fill:#000000;fill-opacity:1;fill-rule:nonzero;stroke:none"
         x="0 18.776367 33.236328 47.696289"
         y="0"
         sodipodi:role="line"
         id="tspan6">Hash</tspan></text>
    <path
       id="path8"
       d="M 1,41 H 261 V 141 H 1 Z"
       style="fill:#f8cecc;fill-opacity:1;fill-rule:nonzero;stroke:#b85450;stroke-width:1;stroke-linecap:butt;stroke-linejoin:miter;stroke-miterlimit:10;stroke-dasharray:none;stroke-opacity:1"
       transform="matrix(0.95730169,0,0,0.95730169,0.47865084,0.47865084)"
       clip-path="url(#clipPath9)" />
    <text
       id="text9"
       xml:space="preserve"
       transform="matrix(0.95731129,0,0,0.95731129,25.353791,62.225234)"
       clip-path="url(#clipPath10)"><tspan
         style="font-variant:normal;font-weight:700;font-size:18px;font-family:Helvetica;writing-mode:lr-tb;fill:#000000;fill-opacity:1;fill-rule:nonzero;stroke:none"
         x="0 12.999023 23.994141 28.995117 33.996094 44.991211 49.992188 60.00293 65.003906 75.999023 86.009766 96.020508 107.01562 112.0166 118.01074 128.02148 139.0166 144.01758 154.02832 159.0293 170.02441 181.01953 187.01367 192.01465 203.00977"
         y="0"
         sodipodi:role="line"
         id="tspan9">Build a hash table out of</tspan></text>
    <text
       id="text10"
       xml:space="preserve"
       transform="matrix(0.95731129,0,0,0.95731129,3.6347913,83.286082)"
       clip-path="url(#clipPath11)"><tspan
         style="font-variant:normal;font-weight:700;font-size:18px;font-family:Helvetica;writing-mode:lr-tb;fill:#000000;fill-opacity:1;fill-rule:nonzero;stroke:none"
         x="0 10.010742 21.005859 37.010742 47.021484 52.022461 63.017578 74.012695 90.017578 101.0127 111.02344 118.02832 123.0293 134.02441 140.01855 145.01953 152.02441 163.01953 177.02051 187.03125 192.03223 196.37402 209.37305 214.37402 219.375 230.37012 244.37109"
         y="0"
         sodipodi:role="line"
         id="tspan10">some number of rows. Allows</tspan></text>
    <text
       id="text11"
       xml:space="preserve"
       transform="matrix(0.95731129,0,0,0.95731129,17.680343,104.34693)"
       clip-path="url(#clipPath12)"><tspan
         style="font-variant:normal;font-weight:700;font-size:18px;font-family:Helvetica;writing-mode:lr-tb;fill:#000000;fill-opacity:1;fill-rule:nonzero;stroke:none"
         x="0 10.995117 21.005859 26.006836 32.000977 42.996094 47.99707 52.998047 63.993164 74.988281 84.999023 90 100.99512 111.99023 116.99121 123.99609 134.00684 144.01758 155.0127 162.01758 173.0127 183.02344 188.02441 198.03516 208.0459 215.05078"
         y="0"
         sodipodi:role="line"
         id="tspan11">us to look up records very</tspan></text>
    <text
       id="text12"
       xml:space="preserve"
       transform="matrix(0.95731129,0,0,0.95731129,40.1622,124.45047)"
       clip-path="url(#clipPath13)"><tspan
         style="font-variant:normal;font-weight:700;font-size:18px;font-family:Helvetica;writing-mode:lr-tb;fill:#000000;fill-opacity:1;fill-rule:nonzero;stroke:none"
         x="0 10.995117 21.990234 26.991211 37.001953 47.012695 52.013672 62.024414 67.025391 72.026367 83.021484 88.022461 93.023438 103.03418 109.02832 119.03906 126.04395 131.04492 141.05566 147.0498 157.06055 168.05566"
         y="0"
         sodipodi:role="line"
         id="tspan12">quickly in later steps</tspan></text>
    <path
       id="path14"
       d="M 316,161 H 926.01001 V 401 H 316 Z"
       style="fill:#f5f5f5;fill-opacity:1;fill-rule:nonzero;stroke:#666666;stroke-width:1;stroke-linecap:butt;stroke-linejoin:miter;stroke-miterlimit:10;stroke-dasharray:none;stroke-opacity:1"
       transform="matrix(0.95730169,0,0,0.95730169,0.47865084,0.47865084)"
       clip-path="url(#clipPath15)" />
    <path
       id="path16"
       d="m 316,121 h 610.01001 v 40 H 316 Z"
       style="fill:#f5f5f5;fill-opacity:1;fill-rule:nonzero;stroke:#666666;stroke-width:1;stroke-linecap:butt;stroke-linejoin:miter;stroke-miterlimit:10;stroke-dasharray:none;stroke-opacity:1"
       transform="matrix(0.95730169,0,0,0.95730169,0.47865084,0.47865084)"
       clip-path="url(#clipPath17)" />
    <text
       id="text17"
       xml:space="preserve"
       transform="matrix(0.95731129,0,0,0.95731129,518.12978,145.51132)"
       clip-path="url(#clipPath18)"><tspan
         style="font-variant:normal;font-weight:normal;font-size:32px;font-family:Helvetica;writing-mode:lr-tb;fill:#333333;fill-opacity:1;fill-rule:nonzero;stroke:none"
         x="0 23.109375 40.90625 56.90625 74.703125 83.03125 99.03125 116.82812 134.625 141.73438"
         y="0"
         sodipodi:role="line"
         id="tspan17">Hash Table</tspan></text>
    <path
       id="path19"
       d="m 456,211 h 20 -20 13.64001"
       style="fill:none;stroke:#000000;stroke-width:1;stroke-linecap:butt;stroke-linejoin:miter;stroke-miterlimit:10;stroke-dasharray:none;stroke-opacity:1"
       transform="matrix(0.95730169,0,0,0.95730169,0.47865084,0.47865084)"
       clip-path="url(#clipPath20)" />
    <path
       id="path21"
       d="m 474.89001,211 -7,3.5 1.75,-3.5 -1.75,-3.5 z"
       style="fill:#000000;fill-opacity:1;fill-rule:nonzero;stroke:#000000;stroke-width:1;stroke-linecap:butt;stroke-linejoin:miter;stroke-miterlimit:10;stroke-dasharray:none;stroke-opacity:1"
       transform="matrix(0.95730169,0,0,0.95730169,0.47865084,0.47865084)"
       clip-path="url(#clipPath22)" />
    <path
       id="path23"
       d="m 336,181 h 120 v 60 H 336 Z"
       style="fill:#ffffff;fill-opacity:1;fill-rule:nonzero;stroke:#000000;stroke-width:1;stroke-linecap:butt;stroke-linejoin:miter;stroke-miterlimit:10;stroke-dasharray:none;stroke-opacity:1"
       transform="matrix(0.95730169,0,0,0.95730169,0.47865084,0.47865084)"
       clip-path="url(#clipPath24)" />
    <text
       id="text24"
       xml:space="preserve"
       transform="matrix(0.95731129,0,0,0.95731129,345.724,208.69386)"
       clip-path="url(#clipPath25)"><tspan
         style="font-variant:normal;font-weight:normal;font-size:22px;font-family:Helvetica;writing-mode:lr-tb;fill:#000000;fill-opacity:1;fill-rule:nonzero;stroke:none"
         x="0 4.8876953 17.123047 29.358398 40.358398 52.59375 57.481445"
         y="0"
         sodipodi:role="line"
         id="tspan24">j41k2j4</tspan></text>
    <path
       id="path26"
       d="m 456,281 h 20 v 1.37"
       style="fill:none;stroke:#000000;stroke-width:1;stroke-linecap:butt;stroke-linejoin:miter;stroke-miterlimit:10;stroke-dasharray:none;stroke-opacity:1"
       transform="matrix(0.95730169,0,0,0.95730169,0.47865084,0.47865084)"
       clip-path="url(#clipPath27)" />
    <path
       id="path28"
       d="m 476,277.12 3.5,7 -3.5,-1.75 -3.5,1.75 z"
       style="fill:#000000;fill-opacity:1;fill-rule:nonzero;stroke:#000000;stroke-width:1;stroke-linecap:butt;stroke-linejoin:miter;stroke-miterlimit:10;stroke-dasharray:none;stroke-opacity:1"
       transform="matrix(0.95730169,0,0,0.95730169,0.47865084,0.47865084)"
       clip-path="url(#clipPath29)" />
    <path
       id="path30"
       d="m 336,251 h 120 v 60 H 336 Z"
       style="fill:#ffffff;fill-opacity:1;fill-rule:nonzero;stroke:#000000;stroke-width:1;stroke-linecap:butt;stroke-linejoin:miter;stroke-miterlimit:10;stroke-dasharray:none;stroke-opacity:1"
       transform="matrix(0.95730169,0,0,0.95730169,0.47865084,0.47865084)"
       clip-path="url(#clipPath31)" />
    <text
       id="text31"
       xml:space="preserve"
       transform="matrix(0.95731129,0,0,0.95731129,342.79224,275.70565)"
       clip-path="url(#clipPath32)"><tspan
         style="font-variant:normal;font-weight:normal;font-size:22px;font-family:Helvetica;writing-mode:lr-tb;fill:#000000;fill-opacity:1;fill-rule:nonzero;stroke:none"
         x="0 11 23.235352 35.470703 40.358398 52.59375 64.829102"
         y="0"
         sodipodi:role="line"
         id="tspan31">k32j52k</tspan></text>
    <path
       id="path33"
       d="m 456,351 h 20 -15 13.64001"
       style="fill:none;stroke:#000000;stroke-width:1;stroke-linecap:butt;stroke-linejoin:miter;stroke-miterlimit:10;stroke-dasharray:none;stroke-opacity:1"
       transform="matrix(0.95730169,0,0,0.95730169,0.47865084,0.47865084)"
       clip-path="url(#clipPath34)" />
    <path
       id="path35"
       d="m 479.89001,351 -7,3.5 1.75,-3.5 -1.75,-3.5 z"
       style="fill:#000000;fill-opacity:1;fill-rule:nonzero;stroke:#000000;stroke-width:1;stroke-linecap:butt;stroke-linejoin:miter;stroke-miterlimit:10;stroke-dasharray:none;stroke-opacity:1"
       transform="matrix(0.95730169,0,0,0.95730169,0.47865084,0.47865084)"
       clip-path="url(#clipPath36)" />
    <path
       id="path37"
       d="m 336,321 h 120 v 60 H 336 Z"
       style="fill:#ffffff;fill-opacity:1;fill-rule:nonzero;stroke:#000000;stroke-width:1;stroke-linecap:butt;stroke-linejoin:miter;stroke-miterlimit:10;stroke-dasharray:none;stroke-opacity:1"
       transform="matrix(0.95730169,0,0,0.95730169,0.47865084,0.47865084)"
       clip-path="url(#clipPath38)" />
    <text
       id="text38"
       xml:space="preserve"
       transform="matrix(0.95731129,0,0,0.95731129,334.59526,342.71744)"
       clip-path="url(#clipPath39)"><tspan
         style="font-variant:normal;font-weight:normal;font-size:22px;font-family:Helvetica;writing-mode:lr-tb;fill:#000000;fill-opacity:1;fill-rule:nonzero;stroke:none"
         x="0 12.235352 17.123047 22.010742 34.246094 46.481445 51.369141 63.604492 68.492188 80.727539"
         y="0"
         sodipodi:role="line"
         id="tspan38">2ij35i2j35</tspan></text>
    <path
       id="path40"
       d="m 476,186 h 210 v 50 H 476 Z"
       style="fill:#fff2cc;fill-opacity:1;fill-rule:nonzero;stroke:#d6b656;stroke-width:1;stroke-linecap:butt;stroke-linejoin:miter;stroke-miterlimit:10;stroke-dasharray:none;stroke-opacity:1"
       transform="matrix(0.95730169,0,0,0.95730169,0.47865084,0.47865084)"
       clip-path="url(#clipPath41)" />
    <text
       id="text41"
       xml:space="preserve"
       transform="matrix(0.95731129,0,0,0.95731129,499.11817,198.16344)"
       clip-path="url(#clipPath42)"><tspan
         style="font-variant:normal;font-weight:normal;font-size:18px;font-family:Helvetica;writing-mode:lr-tb;fill:#000000;fill-opacity:1;fill-rule:nonzero;stroke:none"
         x="0 12.999023 23.009766 33.020508 42.020508"
         y="0"
         sodipodi:role="line"
         id="tspan41">Nancy</tspan></text>
    <text
       id="text42"
       xml:space="preserve"
       transform="matrix(0.95731129,0,0,0.95731129,546.69253,198.16344)"
       clip-path="url(#clipPath43)"><tspan
         style="font-variant:normal;font-weight:normal;font-size:18px;font-family:Helvetica;writing-mode:lr-tb;fill:#000000;fill-opacity:1;fill-rule:nonzero;stroke:none"
         x="0 5.0009766 10.001953 14.000977 24.011719 29.012695 39.524414 44.525391 54.536133 64.546875"
         y="0"
         sodipodi:role="line"
         id="tspan42">, id = 40,</tspan></text>
    <text
       id="text43"
       xml:space="preserve"
       transform="matrix(0.95731129,0,0,0.95731129,467.57178,219.22428)"
       clip-path="url(#clipPath44)"><tspan
         style="font-variant:normal;font-weight:normal;font-size:18px;font-family:Helvetica;writing-mode:lr-tb;fill:#000000;fill-opacity:1;fill-rule:nonzero;stroke:none"
         x="0 9 14.994141 25.004883 35.015625 40.016602 50.027344 60.038086 70.048828 80.05957 85.060547 90.061523 95.0625 105.07324 115.08398 125.09473 135.10547 140.10645 150.11719 160.12793 170.13867 180.14941"
         y="0"
         sodipodi:role="line"
         id="tspan43">created_at, updated_at</tspan></text>
    <path
       id="path45"
       d="M 686.01001,276 H 706 686 699.64001"
       style="fill:none;stroke:#000000;stroke-width:1;stroke-linecap:butt;stroke-linejoin:miter;stroke-miterlimit:10;stroke-dasharray:none;stroke-opacity:1"
       transform="matrix(0.95730169,0,0,0.95730169,0.47865084,0.47865084)"
       clip-path="url(#clipPath46)" />
    <path
       id="path47"
       d="m 704.89001,276 -7,3.5 1.75,-3.5 -1.75,-3.5 z"
       style="fill:#000000;fill-opacity:1;fill-rule:nonzero;stroke:#000000;stroke-width:1;stroke-linecap:butt;stroke-linejoin:miter;stroke-miterlimit:10;stroke-dasharray:none;stroke-opacity:1"
       transform="matrix(0.95730169,0,0,0.95730169,0.47865084,0.47865084)"
       clip-path="url(#clipPath48)" />
    <path
       id="path49"
       d="m 476,251 h 210 v 50 H 476 Z"
       style="fill:#fff2cc;fill-opacity:1;fill-rule:nonzero;stroke:#d6b656;stroke-width:1;stroke-linecap:butt;stroke-linejoin:miter;stroke-miterlimit:10;stroke-dasharray:none;stroke-opacity:1"
       transform="matrix(0.95730169,0,0,0.95730169,0.47865084,0.47865084)"
       clip-path="url(#clipPath50)" />
    <text
       id="text50"
       xml:space="preserve"
       transform="matrix(0.95731129,0,0,0.95731129,472.13396,260.38867)"
       clip-path="url(#clipPath51)"><tspan
         style="font-variant:normal;font-weight:normal;font-size:18px;font-family:Helvetica;writing-mode:lr-tb;fill:#000000;fill-opacity:1;fill-rule:nonzero;stroke:none"
         x="0 12.005859 16.004883"
         y="0"
         sodipodi:role="line"
         id="tspan50">Alf</tspan></text>
    <text
       id="text51"
       xml:space="preserve"
       transform="matrix(0.95731129,0,0,0.95731129,492.25246,260.38867)"
       clip-path="url(#clipPath52)"><tspan
         style="font-variant:normal;font-weight:normal;font-size:18px;font-family:Helvetica;writing-mode:lr-tb;fill:#000000;fill-opacity:1;fill-rule:nonzero;stroke:none"
         x="0 5.0009766 10.001953 14.000977 24.011719 29.012695 39.524414 44.525391 54.536133 59.537109 64.538086 73.538086 79.532227 89.542969 99.553711 104.55469 114.56543 124.57617 134.58691 144.59766 149.59863"
         y="0"
         sodipodi:role="line"
         id="tspan51">, id = 2, created_at,</tspan></text>
    <text
       id="text52"
       xml:space="preserve"
       transform="matrix(0.95731129,0,0,0.95731129,498.71431,281.44952)"
       clip-path="url(#clipPath53)"><tspan
         style="font-variant:normal;font-weight:normal;font-size:18px;font-family:Helvetica;writing-mode:lr-tb;fill:#000000;fill-opacity:1;fill-rule:nonzero;stroke:none"
         x="0 10.010742 20.021484 30.032227 40.042969 45.043945 55.054688 65.06543 75.076172 85.086914 90.087891 95.088867 100.08984 110.10059 116.09473"
         y="0"
         sodipodi:role="line"
         id="tspan52">updated_at, url</tspan></text>
    <path
       id="path54"
       d="m 481,326 h 210 v 50 H 481 Z"
       style="fill:#fff2cc;fill-opacity:1;fill-rule:nonzero;stroke:#d6b656;stroke-width:1;stroke-linecap:butt;stroke-linejoin:miter;stroke-miterlimit:10;stroke-dasharray:none;stroke-opacity:1"
       transform="matrix(0.95730169,0,0,0.95730169,0.47865084,0.47865084)"
       clip-path="url(#clipPath55)" />
    <text
       id="text55"
       xml:space="preserve"
       transform="matrix(0.95731129,0,0,0.95731129,475.96321,332.18702)"
       clip-path="url(#clipPath56)"><tspan
         style="font-variant:normal;font-weight:normal;font-size:18px;font-family:Helvetica;writing-mode:lr-tb;fill:#000000;fill-opacity:1;fill-rule:nonzero;stroke:none"
         x="0 9 12.999023"
         y="0"
         sodipodi:role="line"
         id="tspan55">Jia</tspan></text>
    <text
       id="text56"
       xml:space="preserve"
       transform="matrix(0.95731129,0,0,0.95731129,497.99633,332.18702)"
       clip-path="url(#clipPath57)"><tspan
         style="font-variant:normal;font-weight:normal;font-size:18px;font-family:Helvetica;writing-mode:lr-tb;fill:#000000;fill-opacity:1;fill-rule:nonzero;stroke:none"
         x="0 5.0009766 10.001953 14.000977 24.011719 29.012695 39.524414 44.525391 54.536133 59.537109 64.538086 73.538086 79.532227 89.542969 99.553711 104.55469 114.56543 124.57617 134.58691 144.59766 149.59863"
         y="0"
         sodipodi:role="line"
         id="tspan56">, id = 5, created_at,</tspan></text>
    <text
       id="text57"
       xml:space="preserve"
       transform="matrix(0.95731129,0,0,0.95731129,503.50087,353.24787)"
       clip-path="url(#clipPath58)"><tspan
         style="font-variant:normal;font-weight:normal;font-size:18px;font-family:Helvetica;writing-mode:lr-tb;fill:#000000;fill-opacity:1;fill-rule:nonzero;stroke:none"
         x="0 10.010742 20.021484 30.032227 40.042969 45.043945 55.054688 65.06543 75.076172 85.086914 90.087891 95.088867 100.08984 110.10059 116.09473"
         y="0"
         sodipodi:role="line"
         id="tspan57">updated_at, url</tspan></text>
    <path
       id="path59"
       d="m 706.01001,251 h 210 v 50 h -210 z"
       style="fill:#fff2cc;fill-opacity:1;fill-rule:nonzero;stroke:#d6b656;stroke-width:1;stroke-linecap:butt;stroke-linejoin:miter;stroke-miterlimit:10;stroke-dasharray:none;stroke-opacity:1"
       transform="matrix(0.95730169,0,0,0.95730169,0.47865084,0.47865084)"
       clip-path="url(#clipPath60)" />
    <text
       id="text60"
       xml:space="preserve"
       transform="matrix(0.95731129,0,0,0.95731129,679.85556,260.38867)"
       clip-path="url(#clipPath61)"><tspan
         style="font-variant:normal;font-weight:normal;font-size:18px;font-family:Helvetica;writing-mode:lr-tb;fill:#000000;fill-opacity:1;fill-rule:nonzero;stroke:none"
         x="0 12.999023 16.998047 27.008789 37.019531"
         y="0"
         sodipodi:role="line"
         id="tspan60">Riann</tspan></text>
    <text
       id="text61"
       xml:space="preserve"
       transform="matrix(0.95731129,0,0,0.95731129,724.8791,260.38867)"
       clip-path="url(#clipPath62)"><tspan
         style="font-variant:normal;font-weight:normal;font-size:18px;font-family:Helvetica;writing-mode:lr-tb;fill:#000000;fill-opacity:1;fill-rule:nonzero;stroke:none"
         x="0 5.0009766 10.001953 14.000977 24.011719 29.012695 39.524414 44.525391 54.536133 59.537109 64.538086 73.538086 79.532227 89.542969 99.553711 104.55469 114.56543 124.57617 134.58691 144.59766 149.59863"
         y="0"
         sodipodi:role="line"
         id="tspan61">, id = 3, created_at,</tspan></text>
    <text
       id="text62"
       xml:space="preserve"
       transform="matrix(0.95731129,0,0,0.95731129,718.89591,281.44952)"
       clip-path="url(#clipPath63)"><tspan
         style="font-variant:normal;font-weight:normal;font-size:18px;font-family:Helvetica;writing-mode:lr-tb;fill:#000000;fill-opacity:1;fill-rule:nonzero;stroke:none"
         x="0 10.010742 20.021484 30.032227 40.042969 45.043945 55.054688 65.06543 75.076172 85.086914 90.087891 95.088867 100.08984 110.10059 116.09473"
         y="0"
         sodipodi:role="line"
         id="tspan62">updated_at, url</tspan></text>
  </g>
</svg>
