<?xml version="1.0" encoding="UTF-8" standalone="no"?>
<!-- Created with Inkscape (http://www.inkscape.org/) -->

<svg
   version="1.1"
   id="svg1"
   width="281.28"
   height="216"
   viewBox="0 0 281.28 216"
   sodipodi:docname="sql-3.pdf"
   xmlns:inkscape="http://www.inkscape.org/namespaces/inkscape"
   xmlns:sodipodi="http://sodipodi.sourceforge.net/DTD/sodipodi-0.dtd"
   xmlns="http://www.w3.org/2000/svg"
   xmlns:svg="http://www.w3.org/2000/svg">
  <defs
     id="defs1">
    <clipPath
       clipPathUnits="userSpaceOnUse"
       id="clipPath2">
      <path
         d="M 0,0 H 879.16663 V 672.8316 H 0 Z"
         transform="scale(0.33440761)"
         clip-rule="evenodd"
         id="path2" />
    </clipPath>
    <clipPath
       clipPathUnits="userSpaceOnUse"
       id="clipPath4">
      <path
         d="M 0,0 H 879.16663 V 669.84125 H 0 Z"
         transform="matrix(0.33440761,0,0,0.33440761,-0.50000001,-0.50000001)"
         clip-rule="evenodd"
         id="path4" />
    </clipPath>
    <clipPath
       clipPathUnits="userSpaceOnUse"
       id="clipPath6">
      <path
         d="M 0,0 H 879.16663 V 669.84125 H 0 Z"
         transform="matrix(0.33440761,0,0,0.33440761,-0.50000001,-0.50000001)"
         clip-rule="evenodd"
         id="path6" />
    </clipPath>
    <clipPath
       clipPathUnits="userSpaceOnUse"
       id="clipPath8">
      <path
         d="M 0,0 H 879.16663 V 669.84125 H 0 Z"
         transform="matrix(0.33440761,0,0,0.33440761,-0.50000001,-0.50000001)"
         clip-rule="evenodd"
         id="path8" />
    </clipPath>
    <clipPath
       clipPathUnits="userSpaceOnUse"
       id="clipPath9">
      <path
         d="M 0,0 H 879.16663 V 669.84125 H 0 Z"
         transform="matrix(0.33440424,0,0,0.33440424,-21.984375,-40)"
         clip-rule="evenodd"
         id="path9" />
    </clipPath>
    <clipPath
       clipPathUnits="userSpaceOnUse"
       id="clipPath10">
      <path
         d="M 0,0 H 879.16663 V 669.84125 H 0 Z"
         transform="matrix(0.33440424,0,0,0.33440424,-92.312501,-68)"
         clip-rule="evenodd"
         id="path10" />
    </clipPath>
    <clipPath
       clipPathUnits="userSpaceOnUse"
       id="clipPath12">
      <path
         d="M 0,0 H 879.16663 V 669.84125 H 0 Z"
         transform="matrix(0.33440761,0,0,0.33440761,-0.50000001,-0.50000001)"
         clip-rule="evenodd"
         id="path12" />
    </clipPath>
    <clipPath
       clipPathUnits="userSpaceOnUse"
       id="clipPath13">
      <path
         d="M 0,0 H 879.16663 V 669.84125 H 0 Z"
         transform="matrix(0.33440424,0,0,0.33440424,-7.3750001,-156)"
         clip-rule="evenodd"
         id="path13" />
    </clipPath>
    <clipPath
       clipPathUnits="userSpaceOnUse"
       id="clipPath14">
      <path
         d="M 0,0 H 879.16663 V 669.84125 H 0 Z"
         transform="matrix(0.33440424,0,0,0.33440424,-34.8125,-184)"
         clip-rule="evenodd"
         id="path14" />
    </clipPath>
    <clipPath
       clipPathUnits="userSpaceOnUse"
       id="clipPath15">
      <path
         d="M 0,0 H 879.16663 V 669.84125 H 0 Z"
         transform="matrix(0.33440424,0,0,0.33440424,-65.46875,-211)"
         clip-rule="evenodd"
         id="path15" />
    </clipPath>
  </defs>
  <sodipodi:namedview
     id="namedview1"
     pagecolor="#ffffff"
     bordercolor="#000000"
     borderopacity="0.25"
     inkscape:showpageshadow="2"
     inkscape:pageopacity="0.0"
     inkscape:pagecheckerboard="0"
     inkscape:deskcolor="#d1d1d1">
    <inkscape:page
       x="0"
       y="0"
       inkscape:label="1"
       id="page1"
       width="281.28"
       height="216"
       margin="0"
       bleed="0" />
  </sodipodi:namedview>
  <g
     id="g1"
     inkscape:groupmode="layer"
     inkscape:label="1">
    <path
       id="path1"
       d="M 0,0 H 294 V 225 H 0 Z"
       style="fill:#ffffff;fill-opacity:1;fill-rule:nonzero;stroke:none"
       transform="scale(0.95691599)"
       clip-path="url(#clipPath2)" />
    <path
       id="path3"
       d="m 146,91 v 33.63"
       style="fill:none;stroke:#000000;stroke-width:1;stroke-linecap:butt;stroke-linejoin:miter;stroke-miterlimit:10;stroke-dasharray:none;stroke-opacity:1"
       transform="matrix(0.95691599,0,0,0.95691599,0.478458,0.478458)"
       clip-path="url(#clipPath4)" />
    <path
       id="path5"
       d="m 146,129.88 -3.5,-7 3.5,1.75 3.5,-1.75 z"
       style="fill:#000000;fill-opacity:1;fill-rule:nonzero;stroke:#000000;stroke-width:1;stroke-linecap:butt;stroke-linejoin:miter;stroke-miterlimit:10;stroke-dasharray:none;stroke-opacity:1"
       transform="matrix(0.95691599,0,0,0.95691599,0.478458,0.478458)"
       clip-path="url(#clipPath6)" />
    <path
       id="path7"
       d="M 1,1 H 291 V 91 H 1 Z"
       style="fill:#f8cecc;fill-opacity:1;fill-rule:nonzero;stroke:#b85450;stroke-width:1;stroke-linecap:butt;stroke-linejoin:miter;stroke-miterlimit:10;stroke-dasharray:none;stroke-opacity:1"
       transform="matrix(0.95691599,0,0,0.95691599,0.478458,0.478458)"
       clip-path="url(#clipPath8)" />
    <text
       id="text8"
       xml:space="preserve"
       transform="matrix(0.95692562,0,0,0.95692562,21.037412,38.277025)"
       clip-path="url(#clipPath9)"><tspan
         style="font-variant:normal;font-weight:700;font-size:23px;font-family:Helvetica;writing-mode:lr-tb;fill:#000000;fill-opacity:1;fill-rule:nonzero;stroke:none"
         x="0 16.609863 23 31.950684 44.742188 57.533691 71.583008 84.374512 90.764648 104.81396 117.60547 130.39697 143.18848 149.57861 164.91943 178.96875 191.76025 199.41943 213.46875 222.41943 235.21094"
         y="0"
         sodipodi:role="line"
         id="tspan8">Already have Postgres</tspan></text>
    <text
       id="text9"
       xml:space="preserve"
       transform="matrix(0.95692562,0,0,0.95692562,88.336197,65.070942)"
       clip-path="url(#clipPath10)"><tspan
         style="font-variant:normal;font-weight:700;font-size:23px;font-family:Helvetica;writing-mode:lr-tb;fill:#000000;fill-opacity:1;fill-rule:nonzero;stroke:none"
         x="0 6.3901367 20.439453 33.230957 40.890137 53.681641 60.071777 66.461914 79.253418 93.302734"
         y="0"
         sodipodi:role="line"
         id="tspan9">installed?</tspan></text>
    <path
       id="path11"
       d="m 1,131 h 290 v 90 H 1 Z"
       style="fill:#f8cecc;fill-opacity:1;fill-rule:nonzero;stroke:#b85450;stroke-width:1;stroke-linecap:butt;stroke-linejoin:miter;stroke-miterlimit:10;stroke-dasharray:none;stroke-opacity:1"
       transform="matrix(0.95691599,0,0,0.95691599,0.478458,0.478458)"
       clip-path="url(#clipPath12)" />
    <g
       id="g12" />
    <text
       id="text12"
       xml:space="preserve"
       transform="matrix(0.95692562,0,0,0.95692562,7.0573265,149.2804)"
       clip-path="url(#clipPath13)"><tspan
         style="font-variant:normal;font-weight:700;font-size:23px;font-family:Helvetica;writing-mode:lr-tb;fill:#000000;fill-opacity:1;fill-rule:nonzero;stroke:none"
         x="0 6.3901367 14.049316 26.84082 33.230957 47.280273 61.32959 67.719727 75.378906 89.428223 95.818359 108.60986 122.65918 136.7085 143.09863 150.75781 164.80713 171.19727 185.24658 199.2959 213.34521 222.2959 235.0874 241.47754 255.52686 269.57617"
         y="0"
         sodipodi:role="line"
         id="tspan12">Its up to you to ﬁgure out</tspan></text>
    <text
       id="text13"
       xml:space="preserve"
       transform="matrix(0.95692562,0,0,0.95692562,33.312973,176.07431)"
       clip-path="url(#clipPath14)"><tspan
         style="font-variant:normal;font-weight:700;font-size:23px;font-family:Helvetica;writing-mode:lr-tb;fill:#000000;fill-opacity:1;fill-rule:nonzero;stroke:none"
         x="0 12.791504 26.84082 47.291504 60.083008 66.473145 79.264648 92.056152 99.715332 107.37451 113.76465 127.81396 141.86328 154.65479 161.04492 167.43506 181.48438 187.87451 195.53369 209.58301"
         y="0"
         sodipodi:role="line"
         id="tspan13">some settings in the</tspan></text>
    <text
       id="text14"
       xml:space="preserve"
       transform="matrix(0.95692562,0,0,0.95692562,62.648724,201.91131)"
       clip-path="url(#clipPath15)"><tspan
         style="font-variant:normal;font-weight:700;font-size:23px;font-family:Helvetica;writing-mode:lr-tb;fill:#000000;fill-opacity:1;fill-rule:nonzero;stroke:none"
         x="0 12.791504 26.84082 47.291504 53.681641 67.730957 81.780273 88.17041 100.96191 107.35205 121.40137 134.19287 148.24219"
         y="0"
         sodipodi:role="line"
         id="tspan14">coming videos</tspan></text>
  </g>
</svg>
