<?xml version="1.0" encoding="UTF-8" standalone="no"?>
<!-- Created with Inkscape (http://www.inkscape.org/) -->

<svg
   version="1.1"
   id="svg1"
   width="654.71997"
   height="360"
   viewBox="0 0 654.71997 360"
   sodipodi:docname="sql-8.pdf"
   xmlns:inkscape="http://www.inkscape.org/namespaces/inkscape"
   xmlns:sodipodi="http://sodipodi.sourceforge.net/DTD/sodipodi-0.dtd"
   xmlns="http://www.w3.org/2000/svg"
   xmlns:svg="http://www.w3.org/2000/svg">
  <defs
     id="defs1">
    <clipPath
       clipPathUnits="userSpaceOnUse"
       id="clipPath2">
      <path
         d="M 0,0 H 2045.8333 V 1124.6101 H 0 Z"
         transform="scale(0.33433811)"
         clip-rule="evenodd"
         id="path2" />
    </clipPath>
    <clipPath
       clipPathUnits="userSpaceOnUse"
       id="clipPath4">
      <path
         d="M 0,0 H 2045.8333 V 1118.6281 H 0 Z"
         transform="matrix(0.33433811,0,0,0.33433811,-0.5,-0.5)"
         clip-rule="evenodd"
         id="path4" />
    </clipPath>
    <clipPath
       clipPathUnits="userSpaceOnUse"
       id="clipPath6">
      <path
         d="M 0,0 H 2045.8333 V 1118.6281 H 0 Z"
         transform="matrix(0.33433811,0,0,0.33433811,-0.5,-0.5)"
         clip-rule="evenodd"
         id="path6" />
    </clipPath>
    <clipPath
       clipPathUnits="userSpaceOnUse"
       id="clipPath7">
      <path
         d="M 0,0 H 2045.8333 V 1118.6281 H 0 Z"
         transform="matrix(0.33433476,0,0,0.33433476,-279.75,-27.000001)"
         clip-rule="evenodd"
         id="path7" />
    </clipPath>
    <clipPath
       clipPathUnits="userSpaceOnUse"
       id="clipPath9">
      <path
         d="M 0,0 H 2045.8333 V 1118.6281 H 0 Z"
         transform="scale(0.33433811)"
         clip-rule="evenodd"
         id="path9" />
    </clipPath>
    <clipPath
       clipPathUnits="userSpaceOnUse"
       id="clipPath11">
      <path
         d="M 0,0 H 2045.8333 V 1118.6281 H 0 Z"
         transform="scale(0.33433811)"
         clip-rule="evenodd"
         id="path11" />
    </clipPath>
    <clipPath
       clipPathUnits="userSpaceOnUse"
       id="clipPath13">
      <path
         d="M 0,0 H 2045.8333 V 1118.6281 H 0 Z"
         transform="matrix(0.33433811,0,0,0.33433811,-0.5,-0.5)"
         clip-rule="evenodd"
         id="path13" />
    </clipPath>
    <clipPath
       clipPathUnits="userSpaceOnUse"
       id="clipPath15">
      <path
         d="M 0,0 H 2045.8333 V 1118.6281 H 0 Z"
         transform="matrix(0.33433811,0,0,0.33433811,-0.5,-0.5)"
         clip-rule="evenodd"
         id="path15" />
    </clipPath>
    <clipPath
       clipPathUnits="userSpaceOnUse"
       id="clipPath16">
      <path
         d="M 0,0 H 2045.8333 V 1118.6281 H 0 Z"
         transform="matrix(0.33433476,0,0,0.33433476,-538.81251,-87.000001)"
         clip-rule="evenodd"
         id="path16" />
    </clipPath>
    <clipPath
       clipPathUnits="userSpaceOnUse"
       id="clipPath18">
      <path
         d="M 0,0 H 2045.8333 V 1118.6281 H 0 Z"
         transform="scale(0.33433811)"
         clip-rule="evenodd"
         id="path18" />
    </clipPath>
    <clipPath
       clipPathUnits="userSpaceOnUse"
       id="clipPath20">
      <path
         d="M 0,0 H 2045.8333 V 1118.6281 H 0 Z"
         transform="scale(0.33433811)"
         clip-rule="evenodd"
         id="path20" />
    </clipPath>
    <clipPath
       clipPathUnits="userSpaceOnUse"
       id="clipPath22">
      <path
         d="M 0,0 H 2045.8333 V 1118.6281 H 0 Z"
         transform="matrix(0.33433811,0,0,0.33433811,-0.5,-0.5)"
         clip-rule="evenodd"
         id="path22" />
    </clipPath>
    <clipPath
       clipPathUnits="userSpaceOnUse"
       id="clipPath24">
      <path
         d="M 0,0 H 2045.8333 V 1118.6281 H 0 Z"
         transform="matrix(0.33433811,0,0,0.33433811,-0.5,-0.5)"
         clip-rule="evenodd"
         id="path24" />
    </clipPath>
    <clipPath
       clipPathUnits="userSpaceOnUse"
       id="clipPath25">
      <path
         d="M 0,0 H 2045.8333 V 1118.6281 H 0 Z"
         transform="matrix(0.33433476,0,0,0.33433476,-317.14063,-87.000001)"
         clip-rule="evenodd"
         id="path25" />
    </clipPath>
    <clipPath
       clipPathUnits="userSpaceOnUse"
       id="clipPath27">
      <path
         d="M 0,0 H 2045.8333 V 1118.6281 H 0 Z"
         transform="matrix(0.33433811,0,0,0.33433811,-0.5,-0.5)"
         clip-rule="evenodd"
         id="path27" />
    </clipPath>
    <clipPath
       clipPathUnits="userSpaceOnUse"
       id="clipPath29">
      <path
         d="M 0,0 H 2045.8333 V 1118.6281 H 0 Z"
         transform="matrix(0.33433811,0,0,0.33433811,-0.5,-0.5)"
         clip-rule="evenodd"
         id="path29" />
    </clipPath>
    <clipPath
       clipPathUnits="userSpaceOnUse"
       id="clipPath30">
      <path
         d="M 0,0 H 2045.8333 V 1118.6281 H 0 Z"
         transform="matrix(0.33433476,0,0,0.33433476,-98.546876,-87.000001)"
         clip-rule="evenodd"
         id="path30" />
    </clipPath>
    <clipPath
       clipPathUnits="userSpaceOnUse"
       id="clipPath32">
      <path
         d="M 0,0 H 2045.8333 V 1118.6281 H 0 Z"
         transform="matrix(0.33433811,0,0,0.33433811,-0.5,-0.5)"
         clip-rule="evenodd"
         id="path32" />
    </clipPath>
    <clipPath
       clipPathUnits="userSpaceOnUse"
       id="clipPath33">
      <path
         d="M 0,0 H 2045.8333 V 1118.6281 H 0 Z"
         transform="matrix(0.33433476,0,0,0.33433476,-79.625001,-152)"
         clip-rule="evenodd"
         id="path33" />
    </clipPath>
    <clipPath
       clipPathUnits="userSpaceOnUse"
       id="clipPath34">
      <path
         d="M 0,0 H 2045.8333 V 1118.6281 H 0 Z"
         transform="matrix(0.33433476,0,0,0.33433476,-71.265625,-173)"
         clip-rule="evenodd"
         id="path34" />
    </clipPath>
    <clipPath
       clipPathUnits="userSpaceOnUse"
       id="clipPath36">
      <path
         d="M 0,0 H 2045.8333 V 1118.6281 H 0 Z"
         transform="matrix(0.33433811,0,0,0.33433811,-0.5,-0.5)"
         clip-rule="evenodd"
         id="path36" />
    </clipPath>
    <clipPath
       clipPathUnits="userSpaceOnUse"
       id="clipPath37">
      <path
         d="M 0,0 H 2045.8333 V 1118.6281 H 0 Z"
         transform="matrix(0.33433476,0,0,0.33433476,-299.625,-152)"
         clip-rule="evenodd"
         id="path37" />
    </clipPath>
    <clipPath
       clipPathUnits="userSpaceOnUse"
       id="clipPath38">
      <path
         d="M 0,0 H 2045.8333 V 1118.6281 H 0 Z"
         transform="matrix(0.33433476,0,0,0.33433476,-291.26563,-173)"
         clip-rule="evenodd"
         id="path38" />
    </clipPath>
    <clipPath
       clipPathUnits="userSpaceOnUse"
       id="clipPath40">
      <path
         d="M 0,0 H 2045.8333 V 1118.6281 H 0 Z"
         transform="matrix(0.33433811,0,0,0.33433811,-0.5,-0.5)"
         clip-rule="evenodd"
         id="path40" />
    </clipPath>
    <clipPath
       clipPathUnits="userSpaceOnUse"
       id="clipPath41">
      <path
         d="M 0,0 H 2045.8333 V 1118.6281 H 0 Z"
         transform="matrix(0.33433476,0,0,0.33433476,-541.625,-152)"
         clip-rule="evenodd"
         id="path41" />
    </clipPath>
    <clipPath
       clipPathUnits="userSpaceOnUse"
       id="clipPath42">
      <path
         d="M 0,0 H 2045.8333 V 1118.6281 H 0 Z"
         transform="matrix(0.33433476,0,0,0.33433476,-533.26563,-173)"
         clip-rule="evenodd"
         id="path42" />
    </clipPath>
    <clipPath
       clipPathUnits="userSpaceOnUse"
       id="clipPath44">
      <path
         d="M 0,0 H 2045.8333 V 1118.6281 H 0 Z"
         transform="matrix(0,0.33433811,-0.33433811,0,465.75001,11.249999)"
         clip-rule="evenodd"
         id="path44" />
    </clipPath>
    <clipPath
       clipPathUnits="userSpaceOnUse"
       id="clipPath46">
      <path
         d="M 0,0 H 2045.8333 V 1118.6281 H 0 Z"
         transform="matrix(0,0.33433811,-0.33433811,0,817.50998,-340.51002)"
         clip-rule="evenodd"
         id="path46" />
    </clipPath>
    <clipPath
       clipPathUnits="userSpaceOnUse"
       id="clipPath48">
      <path
         d="M 0,0 H 2045.8333 V 1118.6281 H 0 Z"
         transform="scale(0.33433811)"
         clip-rule="evenodd"
         id="path48" />
    </clipPath>
    <clipPath
       clipPathUnits="userSpaceOnUse"
       id="clipPath50">
      <path
         d="M 0,0 H 2045.8333 V 1118.6281 H 0 Z"
         transform="scale(0.33433811)"
         clip-rule="evenodd"
         id="path50" />
    </clipPath>
    <clipPath
       clipPathUnits="userSpaceOnUse"
       id="clipPath52">
      <path
         d="M 0,0 H 2045.8333 V 1118.6281 H 0 Z"
         transform="scale(0.33433811)"
         clip-rule="evenodd"
         id="path52" />
    </clipPath>
    <clipPath
       clipPathUnits="userSpaceOnUse"
       id="clipPath54">
      <path
         d="M 0,0 H 2045.8333 V 1118.6281 H 0 Z"
         transform="scale(0.33433811)"
         clip-rule="evenodd"
         id="path54" />
    </clipPath>
    <clipPath
       clipPathUnits="userSpaceOnUse"
       id="clipPath56">
      <path
         d="M 0,0 H 2045.8333 V 1118.6281 H 0 Z"
         transform="matrix(0.33433811,0,0,0.33433811,-0.5,-0.5)"
         clip-rule="evenodd"
         id="path56" />
    </clipPath>
    <clipPath
       clipPathUnits="userSpaceOnUse"
       id="clipPath57">
      <path
         d="M 0,0 H 2045.8333 V 1118.6281 H 0 Z"
         transform="matrix(0.33433476,0,0,0.33433476,-338.5625,-297)"
         clip-rule="evenodd"
         id="path57" />
    </clipPath>
    <clipPath
       clipPathUnits="userSpaceOnUse"
       id="clipPath58">
      <path
         d="M 0,0 H 2045.8333 V 1118.6281 H 0 Z"
         transform="matrix(0.33433476,0,0,0.33433476,-322.67188,-317)"
         clip-rule="evenodd"
         id="path58" />
    </clipPath>
    <clipPath
       clipPathUnits="userSpaceOnUse"
       id="clipPath59">
      <path
         d="M 0,0 H 2045.8333 V 1118.6281 H 0 Z"
         transform="matrix(0.33433476,0,0,0.33433476,-393.5044,-317)"
         clip-rule="evenodd"
         id="path59" />
    </clipPath>
    <clipPath
       clipPathUnits="userSpaceOnUse"
       id="clipPath60">
      <path
         d="M 0,0 H 2045.8333 V 1118.6281 H 0 Z"
         transform="matrix(0.33433476,0,0,0.33433476,-315.40625,-338)"
         clip-rule="evenodd"
         id="path60" />
    </clipPath>
    <clipPath
       clipPathUnits="userSpaceOnUse"
       id="clipPath61">
      <path
         d="M 0,0 H 2045.8333 V 1118.6281 H 0 Z"
         transform="matrix(0.33433476,0,0,0.33433476,-348.01563,-358)"
         clip-rule="evenodd"
         id="path61" />
    </clipPath>
  </defs>
  <sodipodi:namedview
     id="namedview1"
     pagecolor="#ffffff"
     bordercolor="#000000"
     borderopacity="0.25"
     inkscape:showpageshadow="2"
     inkscape:pageopacity="0.0"
     inkscape:pagecheckerboard="0"
     inkscape:deskcolor="#d1d1d1">
    <inkscape:page
       x="0"
       y="0"
       inkscape:label="1"
       id="page1"
       width="654.71997"
       height="360"
       margin="0"
       bleed="0" />
  </sodipodi:namedview>
  <g
     id="g1"
     inkscape:groupmode="layer"
     inkscape:label="1">
    <path
       id="path1"
       d="M 0,0 H 684 V 376 H 0 Z"
       style="fill:#ffffff;fill-opacity:1;fill-rule:nonzero;stroke:none"
       transform="scale(0.9571149)"
       clip-path="url(#clipPath2)" />
    <path
       id="path3"
       d="M 1,41 H 681.01001 V 231 H 1 Z"
       style="fill:#f5f5f5;fill-opacity:1;fill-rule:nonzero;stroke:#666666;stroke-width:1;stroke-linecap:butt;stroke-linejoin:miter;stroke-miterlimit:10;stroke-dasharray:none;stroke-opacity:1"
       transform="matrix(0.9571149,0,0,0.9571149,0.47855745,0.47855745)"
       clip-path="url(#clipPath4)" />
    <path
       id="path5"
       d="M 1,1 H 681.01001 V 41 H 1 Z"
       style="fill:#f5f5f5;fill-opacity:1;fill-rule:nonzero;stroke:#666666;stroke-width:1;stroke-linecap:butt;stroke-linejoin:miter;stroke-miterlimit:10;stroke-dasharray:none;stroke-opacity:1"
       transform="matrix(0.9571149,0,0,0.9571149,0.47855745,0.47855745)"
       clip-path="url(#clipPath6)" />
    <text
       id="text6"
       xml:space="preserve"
       transform="matrix(0.9571245,0,0,0.9571245,267.75558,25.842362)"
       clip-path="url(#clipPath7)"><tspan
         style="font-variant:normal;font-weight:700;font-size:17px;font-family:Helvetica;writing-mode:lr-tb;fill:#333333;fill-opacity:1;fill-rule:nonzero;stroke:none"
         x="0 10.085449 20.469727 30.854004 37.469727 42.192871 54.469727 64.854004 79.969727 90.354004 100.73828 106.39941 115.854"
         y="0"
         sodipodi:role="line"
         id="tspan6">Your Computer</tspan></text>
    <path
       id="path8"
       d="M 491,136 H 431.73999"
       style="fill:none;stroke:#000000;stroke-width:1;stroke-linecap:butt;stroke-linejoin:miter;stroke-miterlimit:10;stroke-dasharray:none;stroke-opacity:1"
       transform="scale(0.9571149)"
       clip-path="url(#clipPath9)" />
    <path
       id="path10"
       d="m 425.73999,136 8,-4 -2,4 2,4 z"
       style="fill:#000000;fill-opacity:1;fill-rule:nonzero;stroke:#000000;stroke-width:1;stroke-linecap:butt;stroke-linejoin:miter;stroke-miterlimit:10;stroke-dasharray:none;stroke-opacity:1"
       transform="scale(0.9571149)"
       clip-path="url(#clipPath11)" />
    <path
       id="path12"
       d="M 491,61 H 666 V 211 H 491 Z"
       style="fill:#ffffff;fill-opacity:1;fill-rule:nonzero;stroke:#000000;stroke-width:1;stroke-linecap:butt;stroke-linejoin:miter;stroke-miterlimit:10;stroke-dasharray:none;stroke-opacity:1"
       transform="matrix(0.9571149,0,0,0.9571149,0.47855745,0.47855745)"
       clip-path="url(#clipPath13)" />
    <path
       id="path14"
       d="m 491,61 h 175 v 40 H 491 Z"
       style="fill:#ffffff;fill-opacity:1;fill-rule:nonzero;stroke:#000000;stroke-width:1;stroke-linecap:butt;stroke-linejoin:miter;stroke-miterlimit:10;stroke-dasharray:none;stroke-opacity:1"
       transform="matrix(0.9571149,0,0,0.9571149,0.47855745,0.47855745)"
       clip-path="url(#clipPath15)" />
    <text
       id="text15"
       xml:space="preserve"
       transform="matrix(0.9571245,0,0,0.9571245,515.71065,83.269832)"
       clip-path="url(#clipPath16)"><tspan
         style="font-variant:normal;font-weight:700;font-size:17px;font-family:Helvetica;writing-mode:lr-tb;fill:#000000;fill-opacity:1;fill-rule:nonzero;stroke:none"
         x="0 12.276855 21.731445 28.347168 38.731445 43.45459 55.731445 60.45459 69.90918"
         y="0"
         sodipodi:role="line"
         id="tspan15">Hard Disk</tspan></text>
    <path
       id="path17"
       d="M 248.5,136 H 211.74001"
       style="fill:none;stroke:#000000;stroke-width:1;stroke-linecap:butt;stroke-linejoin:miter;stroke-miterlimit:10;stroke-dasharray:none;stroke-opacity:1"
       transform="scale(0.9571149)"
       clip-path="url(#clipPath18)" />
    <path
       id="path19"
       d="m 205.74001,136 8,-4 -2,4 2,4 z"
       style="fill:#000000;fill-opacity:1;fill-rule:nonzero;stroke:#000000;stroke-width:1;stroke-linecap:butt;stroke-linejoin:miter;stroke-miterlimit:10;stroke-dasharray:none;stroke-opacity:1"
       transform="scale(0.9571149)"
       clip-path="url(#clipPath20)" />
    <path
       id="path21"
       d="m 248.5,61 h 175 v 150 h -175 z"
       style="fill:#ffffff;fill-opacity:1;fill-rule:nonzero;stroke:#000000;stroke-width:1;stroke-linecap:butt;stroke-linejoin:miter;stroke-miterlimit:10;stroke-dasharray:none;stroke-opacity:1"
       transform="matrix(0.9571149,0,0,0.9571149,0.47855745,0.47855745)"
       clip-path="url(#clipPath22)" />
    <path
       id="path23"
       d="m 248.5,61 h 175 v 40 h -175 z"
       style="fill:#ffffff;fill-opacity:1;fill-rule:nonzero;stroke:#000000;stroke-width:1;stroke-linecap:butt;stroke-linejoin:miter;stroke-miterlimit:10;stroke-dasharray:none;stroke-opacity:1"
       transform="matrix(0.9571149,0,0,0.9571149,0.47855745,0.47855745)"
       clip-path="url(#clipPath24)" />
    <text
       id="text24"
       xml:space="preserve"
       transform="matrix(0.9571245,0,0,0.9571245,303.54307,83.269832)"
       clip-path="url(#clipPath25)"><tspan
         style="font-variant:normal;font-weight:700;font-size:17px;font-family:Helvetica;writing-mode:lr-tb;fill:#000000;fill-opacity:1;fill-rule:nonzero;stroke:none"
         x="0 12.276855 24.553711"
         y="0"
         sodipodi:role="line"
         id="tspan24">RAM</tspan></text>
    <path
       id="path26"
       d="m 28.5,61 h 175 v 150 h -175 z"
       style="fill:#ffffff;fill-opacity:1;fill-rule:nonzero;stroke:#000000;stroke-width:1;stroke-linecap:butt;stroke-linejoin:miter;stroke-miterlimit:10;stroke-dasharray:none;stroke-opacity:1"
       transform="matrix(0.9571149,0,0,0.9571149,0.47855745,0.47855745)"
       clip-path="url(#clipPath27)" />
    <path
       id="path28"
       d="m 28.5,61 h 175 v 40 h -175 z"
       style="fill:#ffffff;fill-opacity:1;fill-rule:nonzero;stroke:#000000;stroke-width:1;stroke-linecap:butt;stroke-linejoin:miter;stroke-miterlimit:10;stroke-dasharray:none;stroke-opacity:1"
       transform="matrix(0.9571149,0,0,0.9571149,0.47855745,0.47855745)"
       clip-path="url(#clipPath29)" />
    <text
       id="text29"
       xml:space="preserve"
       transform="matrix(0.9571245,0,0,0.9571245,94.321629,83.269832)"
       clip-path="url(#clipPath30)"><tspan
         style="font-variant:normal;font-weight:700;font-size:17px;font-family:Helvetica;writing-mode:lr-tb;fill:#000000;fill-opacity:1;fill-rule:nonzero;stroke:none"
         x="0 12.276855 23.615723"
         y="0"
         sodipodi:role="line"
         id="tspan29">CPU</tspan></text>
    <path
       id="path31"
       d="m 56,131 h 120 v 50 H 56 Z"
       style="fill:#dae8fc;fill-opacity:1;fill-rule:nonzero;stroke:#6c8ebf;stroke-width:1;stroke-linecap:butt;stroke-linejoin:miter;stroke-miterlimit:10;stroke-dasharray:none;stroke-opacity:1"
       transform="matrix(0.9571149,0,0,0.9571149,0.47855745,0.47855745)"
       clip-path="url(#clipPath32)" />
    <text
       id="text32"
       xml:space="preserve"
       transform="matrix(0.9571245,0,0,0.9571245,76.211039,145.48292)"
       clip-path="url(#clipPath33)"><tspan
         style="font-variant:normal;font-weight:normal;font-size:17px;font-family:Helvetica;writing-mode:lr-tb;fill:#000000;fill-opacity:1;fill-rule:nonzero;stroke:none"
         x="0 12.276855 21.731445 34.008301 38.731445 43.45459 49.115723 58.570312"
         y="0"
         sodipodi:role="line"
         id="tspan32">Row from</tspan></text>
    <text
       id="text33"
       xml:space="preserve"
       transform="matrix(0.9571245,0,0,0.9571245,68.210076,165.58254)"
       clip-path="url(#clipPath34)"><tspan
         style="font-variant:normal;font-weight:normal;font-size:17px;font-family:Helvetica;writing-mode:lr-tb;fill:#000000;fill-opacity:1;fill-rule:nonzero;stroke:none"
         x="0 12.276855 20.776855 30.231445 35.892578 44.392578 48.816895 57.316895 66.771484 76.226074 80.00293"
         y="0"
         sodipodi:role="line"
         id="tspan33">Users Table</tspan></text>
    <path
       id="path35"
       d="m 276,131 h 120 v 50 H 276 Z"
       style="fill:#dae8fc;fill-opacity:1;fill-rule:nonzero;stroke:#6c8ebf;stroke-width:1;stroke-linecap:butt;stroke-linejoin:miter;stroke-miterlimit:10;stroke-dasharray:none;stroke-opacity:1"
       transform="matrix(0.9571149,0,0,0.9571149,0.47855745,0.47855745)"
       clip-path="url(#clipPath36)" />
    <text
       id="text36"
       xml:space="preserve"
       transform="matrix(0.9571245,0,0,0.9571245,286.77843,145.48292)"
       clip-path="url(#clipPath37)"><tspan
         style="font-variant:normal;font-weight:normal;font-size:17px;font-family:Helvetica;writing-mode:lr-tb;fill:#000000;fill-opacity:1;fill-rule:nonzero;stroke:none"
         x="0 12.276855 21.731445 34.008301 38.731445 43.45459 49.115723 58.570312"
         y="0"
         sodipodi:role="line"
         id="tspan36">Row from</tspan></text>
    <text
       id="text37"
       xml:space="preserve"
       transform="matrix(0.9571245,0,0,0.9571245,278.77747,165.58254)"
       clip-path="url(#clipPath38)"><tspan
         style="font-variant:normal;font-weight:normal;font-size:17px;font-family:Helvetica;writing-mode:lr-tb;fill:#000000;fill-opacity:1;fill-rule:nonzero;stroke:none"
         x="0 12.276855 20.776855 30.231445 35.892578 44.392578 48.816895 57.316895 66.771484 76.226074 80.00293"
         y="0"
         sodipodi:role="line"
         id="tspan37">Users Table</tspan></text>
    <path
       id="path39"
       d="m 518.51001,131 h 120 v 50 h -120 z"
       style="fill:#dae8fc;fill-opacity:1;fill-rule:nonzero;stroke:#6c8ebf;stroke-width:1;stroke-linecap:butt;stroke-linejoin:miter;stroke-miterlimit:10;stroke-dasharray:none;stroke-opacity:1"
       transform="matrix(0.9571149,0,0,0.9571149,0.47855745,0.47855745)"
       clip-path="url(#clipPath40)" />
    <text
       id="text40"
       xml:space="preserve"
       transform="matrix(0.9571245,0,0,0.9571245,518.40256,145.48292)"
       clip-path="url(#clipPath41)"><tspan
         style="font-variant:normal;font-weight:normal;font-size:17px;font-family:Helvetica;writing-mode:lr-tb;fill:#000000;fill-opacity:1;fill-rule:nonzero;stroke:none"
         x="0 12.276855 21.731445 34.008301 38.731445 43.45459 49.115723 58.570312"
         y="0"
         sodipodi:role="line"
         id="tspan40">Row from</tspan></text>
    <text
       id="text41"
       xml:space="preserve"
       transform="matrix(0.9571245,0,0,0.9571245,510.4016,165.58254)"
       clip-path="url(#clipPath42)"><tspan
         style="font-variant:normal;font-weight:normal;font-size:17px;font-family:Helvetica;writing-mode:lr-tb;fill:#000000;fill-opacity:1;fill-rule:nonzero;stroke:none"
         x="0 12.276855 20.776855 30.231445 35.892578 44.392578 48.816895 57.316895 66.771484 76.226074 80.00293"
         y="0"
         sodipodi:role="line"
         id="tspan41">Users Table</tspan></text>
    <path
       id="path43"
       d="m 244.25,39.75 h -8.75 c -5.83333,0 -8.75,3.333332 -8.75,10 V 228.5 c 0,6.66667 -2.91667,10 -8.75,10 h -4.37 c -2.91999,0 -1.46333,0 4.37,0 h 4.38 c 2.91333,0 4.37,3.33333 4.37,10 v 178.75 c 0,6.66666 2.91667,10 8.75,10 h 8.75"
       style="fill:none;stroke:#000000;stroke-width:1;stroke-linecap:butt;stroke-linejoin:miter;stroke-miterlimit:10;stroke-dasharray:none;stroke-opacity:1"
       transform="matrix(0,-0.9571149,0.9571149,0,-10.767542,445.77627)"
       clip-path="url(#clipPath44)" />
    <path
       id="path45"
       d="m 596.01001,153.5 h -8.75 c -5.83331,0 -8.75,3.33333 -8.75,10 v 65 c 0,6.66667 -2.91669,10 -8.75,10 H 565.38 c -2.91333,0 -1.4533,0 4.38001,0 H 574.13 c 2.91999,0 4.38001,3.33333 4.38001,10 v 65 c 0,6.66666 2.91669,10 8.75,10 h 8.75"
       style="fill:none;stroke:#000000;stroke-width:1;stroke-linecap:butt;stroke-linejoin:miter;stroke-miterlimit:10;stroke-dasharray:none;stroke-opacity:1"
       transform="matrix(0,-0.9571149,0.9571149,0,325.90721,782.45098)"
       clip-path="url(#clipPath46)" />
    <path
       id="path47"
       d="m 311,321 h -84.2 l -0.04,-60.26001"
       style="fill:none;stroke:#000000;stroke-width:1;stroke-linecap:butt;stroke-linejoin:miter;stroke-miterlimit:10;stroke-dasharray:none;stroke-opacity:1"
       transform="scale(0.9571149)"
       clip-path="url(#clipPath48)" />
    <path
       id="path49"
       d="m 226.75,254.74001 4.00999,7.99998 -4,-2 -4,2 z"
       style="fill:#000000;fill-opacity:1;fill-rule:nonzero;stroke:#000000;stroke-width:1;stroke-linecap:butt;stroke-linejoin:miter;stroke-miterlimit:10;stroke-dasharray:none;stroke-opacity:1"
       transform="scale(0.9571149)"
       clip-path="url(#clipPath50)" />
    <path
       id="path51"
       d="M 523.01001,321 H 578.5 l 0.01,-60.26001"
       style="fill:none;stroke:#000000;stroke-width:1;stroke-linecap:butt;stroke-linejoin:miter;stroke-miterlimit:10;stroke-dasharray:none;stroke-opacity:1"
       transform="scale(0.9571149)"
       clip-path="url(#clipPath52)" />
    <path
       id="path53"
       d="m 578.51001,254.74001 3.98999,7.99998 -3.98999,-2 -4.01001,2 z"
       style="fill:#000000;fill-opacity:1;fill-rule:nonzero;stroke:#000000;stroke-width:1;stroke-linecap:butt;stroke-linejoin:miter;stroke-miterlimit:10;stroke-dasharray:none;stroke-opacity:1"
       transform="scale(0.9571149)"
       clip-path="url(#clipPath54)" />
    <path
       id="path55"
       d="M 311,271 H 523 V 371 H 311 Z"
       style="fill:#f8cecc;fill-opacity:1;fill-rule:nonzero;stroke:#b85450;stroke-width:1;stroke-linecap:butt;stroke-linejoin:miter;stroke-miterlimit:10;stroke-dasharray:none;stroke-opacity:1"
       transform="matrix(0.9571149,0,0,0.9571149,0.47855745,0.47855745)"
       clip-path="url(#clipPath56)" />
    <text
       id="text56"
       xml:space="preserve"
       transform="matrix(0.9571245,0,0,0.9571245,324.04646,284.26598)"
       clip-path="url(#clipPath57)"><tspan
         style="font-variant:normal;font-weight:normal;font-size:17px;font-family:Helvetica;writing-mode:lr-tb;fill:#000000;fill-opacity:1;fill-rule:nonzero;stroke:none"
         x="0 13.223145 22.677734 32.132324 41.586914 47.248047 56.702637 60.479492 65.202637 74.657227 83.157227 91.657227 101.11182 115.27295 124.72754 129.45068 133.22754 142.68213 152.13672"
         y="0"
         sodipodi:role="line"
         id="tspan56">General assumption:</tspan></text>
    <text
       id="text57"
       xml:space="preserve"
       transform="matrix(0.9571245,0,0,0.9571245,308.83716,303.40847)"
       clip-path="url(#clipPath58)"><tspan
         style="font-variant:normal;font-weight:700;font-size:17px;font-family:Helvetica;writing-mode:lr-tb;fill:#000000;fill-opacity:1;fill-rule:nonzero;stroke:none"
         x="0 5.6611328 15.115723 20.776855 30.231445 40.615723 45.338867 55.723145"
         y="0"
         sodipodi:role="line"
         id="tspan57">fetching</tspan></text>
    <text
       id="text58"
       xml:space="preserve"
       transform="matrix(0.9571245,0,0,0.9571245,376.6327,303.40847)"
       clip-path="url(#clipPath59)"><tspan
         style="font-variant:normal;font-weight:normal;font-size:17px;font-family:Helvetica;writing-mode:lr-tb;fill:#000000;fill-opacity:1;fill-rule:nonzero;stroke:none"
         x="0 9.4545898 14.177734 19.838867 29.293457 41.570312 46.293457 55.748047 60.172363 64.895508 69.618652 79.073242 83.796387 93.250977 102.70557 108.3667"
         y="0"
         sodipodi:role="line"
         id="tspan58">a row off a hard</tspan></text>
    <text
       id="text59"
       xml:space="preserve"
       transform="matrix(0.9571245,0,0,0.9571245,301.88305,323.50808)"
       clip-path="url(#clipPath60)"><tspan
         style="font-variant:normal;font-weight:normal;font-size:17px;font-family:Helvetica;writing-mode:lr-tb;fill:#000000;fill-opacity:1;fill-rule:nonzero;stroke:none"
         x="0 9.4545898 13.231445 21.731445 30.231445 34.95459 39.677734 49.132324 57.632324 67.086914 75.586914 80.310059 89.764648 99.219238 108.67383 114.33496 123.78955 133.24414 142.69873 151.19873 155.92188 159.69873 169.15332 178.60791 188.0625 197.51709"
         y="0"
         sodipodi:role="line"
         id="tspan59">disk takes 100-400x longer</tspan></text>
    <text
       id="text60"
       xml:space="preserve"
       transform="matrix(0.9571245,0,0,0.9571245,333.09429,342.65057)"
       clip-path="url(#clipPath61)"><tspan
         style="font-variant:normal;font-weight:normal;font-size:17px;font-family:Helvetica;writing-mode:lr-tb;fill:#000000;fill-opacity:1;fill-rule:nonzero;stroke:none"
         x="0 4.7231445 14.177734 23.632324 33.086914 37.810059 47.264648 52.925781 62.380371 70.880371 80.334961 88.834961 97.334961 101.11182 110.56641 120.021 124.74414 128.521 133.24414"
         y="0"
         sodipodi:role="line"
         id="tspan60">than processing it </tspan></text>
  </g>
</svg>
