<?xml version="1.0" encoding="UTF-8" standalone="no"?>
<!-- Created with Inkscape (http://www.inkscape.org/) -->

<svg
   version="1.1"
   id="svg1"
   width="862.71997"
   height="465.28"
   viewBox="0 0 862.71997 465.28"
   sodipodi:docname="sql-10.pdf"
   xmlns:inkscape="http://www.inkscape.org/namespaces/inkscape"
   xmlns:sodipodi="http://sodipodi.sourceforge.net/DTD/sodipodi-0.dtd"
   xmlns="http://www.w3.org/2000/svg"
   xmlns:svg="http://www.w3.org/2000/svg">
  <defs
     id="defs1">
    <clipPath
       clipPathUnits="userSpaceOnUse"
       id="clipPath2">
      <path
         d="M 0,0 H 2695.8333 V 1452.7545 H 0 Z"
         transform="scale(0.33384856)"
         clip-rule="evenodd"
         id="path2" />
    </clipPath>
    <clipPath
       clipPathUnits="userSpaceOnUse"
       id="clipPath4">
      <path
         d="M 0,0 H 2695.8333 V 1449.7592 H 0 Z"
         transform="matrix(0.33384856,0,0,0.33384856,-0.50000001,-0.50000001)"
         clip-rule="evenodd"
         id="path4" />
    </clipPath>
    <clipPath
       clipPathUnits="userSpaceOnUse"
       id="clipPath6">
      <path
         d="M 0,0 H 2695.8333 V 1449.7592 H 0 Z"
         transform="matrix(0.33384856,0,0,0.33384856,-0.50000001,-0.50000001)"
         clip-rule="evenodd"
         id="path6" />
    </clipPath>
    <clipPath
       clipPathUnits="userSpaceOnUse"
       id="clipPath7">
      <path
         d="M 0,0 H 2695.8333 V 1449.7592 H 0 Z"
         transform="matrix(0.33384521,0,0,0.33384521,-539.35938,-27)"
         clip-rule="evenodd"
         id="path7" />
    </clipPath>
    <clipPath
       clipPathUnits="userSpaceOnUse"
       id="clipPath9">
      <path
         d="M 0,0 H 2695.8333 V 1449.7592 H 0 Z"
         transform="matrix(0.33384856,0,0,0.33384856,-0.50000001,-0.50000001)"
         clip-rule="evenodd"
         id="path9" />
    </clipPath>
    <clipPath
       clipPathUnits="userSpaceOnUse"
       id="clipPath11">
      <path
         d="M 0,0 H 2695.8333 V 1449.7592 H 0 Z"
         transform="matrix(0.33384856,0,0,0.33384856,-0.50000001,-0.50000001)"
         clip-rule="evenodd"
         id="path11" />
    </clipPath>
    <clipPath
       clipPathUnits="userSpaceOnUse"
       id="clipPath13">
      <path
         d="M 0,0 H 2695.8333 V 1449.7592 H 0 Z"
         transform="matrix(0.33384856,0,0,0.33384856,-0.50000001,-0.50000001)"
         clip-rule="evenodd"
         id="path13" />
    </clipPath>
    <clipPath
       clipPathUnits="userSpaceOnUse"
       id="clipPath15">
      <path
         d="M 0,0 H 2695.8333 V 1449.7592 H 0 Z"
         transform="matrix(0.33384856,0,0,0.33384856,-0.50000001,-0.50000001)"
         clip-rule="evenodd"
         id="path15" />
    </clipPath>
    <clipPath
       clipPathUnits="userSpaceOnUse"
       id="clipPath17">
      <path
         d="M 0,0 H 2695.8333 V 1449.7592 H 0 Z"
         transform="matrix(0.33384856,0,0,0.33384856,-0.50000001,-0.50000001)"
         clip-rule="evenodd"
         id="path17" />
    </clipPath>
    <clipPath
       clipPathUnits="userSpaceOnUse"
       id="clipPath18">
      <path
         d="M 0,0 H 2695.8333 V 1449.7592 H 0 Z"
         transform="matrix(0.33384521,0,0,0.33384521,-509.64064,-457.00001)"
         clip-rule="evenodd"
         id="path18" />
    </clipPath>
    <clipPath
       clipPathUnits="userSpaceOnUse"
       id="clipPath20">
      <path
         d="M 0,0 H 2695.8333 V 1449.7592 H 0 Z"
         transform="matrix(0.33384856,0,0,0.33384856,-0.50000001,-0.50000001)"
         clip-rule="evenodd"
         id="path20" />
    </clipPath>
    <clipPath
       clipPathUnits="userSpaceOnUse"
       id="clipPath21">
      <path
         d="M 0,0 H 2695.8333 V 1449.7592 H 0 Z"
         transform="matrix(0.33384521,0,0,0.33384521,-413.5,-122)"
         clip-rule="evenodd"
         id="path21" />
    </clipPath>
    <clipPath
       clipPathUnits="userSpaceOnUse"
       id="clipPath23">
      <path
         d="M 0,0 H 2695.8333 V 1449.7592 H 0 Z"
         transform="matrix(0.33384856,0,0,0.33384856,-0.50000001,-0.50000001)"
         clip-rule="evenodd"
         id="path23" />
    </clipPath>
    <clipPath
       clipPathUnits="userSpaceOnUse"
       id="clipPath24">
      <path
         d="M 0,0 H 2695.8333 V 1449.7592 H 0 Z"
         transform="matrix(0.33384521,0,0,0.33384521,-278.78125,-122)"
         clip-rule="evenodd"
         id="path24" />
    </clipPath>
    <clipPath
       clipPathUnits="userSpaceOnUse"
       id="clipPath26">
      <path
         d="M 0,0 H 2695.8333 V 1449.7592 H 0 Z"
         transform="matrix(0.33384856,0,0,0.33384856,-0.50000001,-0.50000001)"
         clip-rule="evenodd"
         id="path26" />
    </clipPath>
    <clipPath
       clipPathUnits="userSpaceOnUse"
       id="clipPath27">
      <path
         d="M 0,0 H 2695.8333 V 1449.7592 H 0 Z"
         transform="matrix(0.33384521,0,0,0.33384521,-543.5,-122)"
         clip-rule="evenodd"
         id="path27" />
    </clipPath>
    <clipPath
       clipPathUnits="userSpaceOnUse"
       id="clipPath29">
      <path
         d="M 0,0 H 2695.8333 V 1449.7592 H 0 Z"
         transform="matrix(0.33384856,0,0,0.33384856,-0.50000001,-0.50000001)"
         clip-rule="evenodd"
         id="path29" />
    </clipPath>
    <clipPath
       clipPathUnits="userSpaceOnUse"
       id="clipPath30">
      <path
         d="M 0,0 H 2695.8333 V 1449.7592 H 0 Z"
         transform="matrix(0.33384521,0,0,0.33384521,-673.5,-122)"
         clip-rule="evenodd"
         id="path30" />
    </clipPath>
    <clipPath
       clipPathUnits="userSpaceOnUse"
       id="clipPath32">
      <path
         d="M 0,0 H 2695.8333 V 1449.7592 H 0 Z"
         transform="matrix(0.33384856,0,0,0.33384856,-0.50000001,-0.50000001)"
         clip-rule="evenodd"
         id="path32" />
    </clipPath>
    <clipPath
       clipPathUnits="userSpaceOnUse"
       id="clipPath33">
      <path
         d="M 0,0 H 2695.8333 V 1449.7592 H 0 Z"
         transform="matrix(0.33384521,0,0,0.33384521,-410.20314,-242)"
         clip-rule="evenodd"
         id="path33" />
    </clipPath>
    <clipPath
       clipPathUnits="userSpaceOnUse"
       id="clipPath35">
      <path
         d="M 0,0 H 2695.8333 V 1449.7592 H 0 Z"
         transform="matrix(0.33384856,0,0,0.33384856,-0.50000001,-0.50000001)"
         clip-rule="evenodd"
         id="path35" />
    </clipPath>
    <clipPath
       clipPathUnits="userSpaceOnUse"
       id="clipPath36">
      <path
         d="M 0,0 H 2695.8333 V 1449.7592 H 0 Z"
         transform="matrix(0.33384521,0,0,0.33384521,-280.20313,-242)"
         clip-rule="evenodd"
         id="path36" />
    </clipPath>
    <clipPath
       clipPathUnits="userSpaceOnUse"
       id="clipPath38">
      <path
         d="M 0,0 H 2695.8333 V 1449.7592 H 0 Z"
         transform="matrix(0.33384856,0,0,0.33384856,-0.50000001,-0.50000001)"
         clip-rule="evenodd"
         id="path38" />
    </clipPath>
    <clipPath
       clipPathUnits="userSpaceOnUse"
       id="clipPath39">
      <path
         d="M 0,0 H 2695.8333 V 1449.7592 H 0 Z"
         transform="matrix(0.33384521,0,0,0.33384521,-540.20313,-242)"
         clip-rule="evenodd"
         id="path39" />
    </clipPath>
    <clipPath
       clipPathUnits="userSpaceOnUse"
       id="clipPath41">
      <path
         d="M 0,0 H 2695.8333 V 1449.7592 H 0 Z"
         transform="matrix(0.33384856,0,0,0.33384856,-0.50000001,-0.50000001)"
         clip-rule="evenodd"
         id="path41" />
    </clipPath>
    <clipPath
       clipPathUnits="userSpaceOnUse"
       id="clipPath42">
      <path
         d="M 0,0 H 2695.8333 V 1449.7592 H 0 Z"
         transform="matrix(0.33384521,0,0,0.33384521,-670.20313,-242)"
         clip-rule="evenodd"
         id="path42" />
    </clipPath>
    <clipPath
       clipPathUnits="userSpaceOnUse"
       id="clipPath44">
      <path
         d="M 0,0 H 2695.8333 V 1449.7592 H 0 Z"
         transform="matrix(0.33384856,0,0,0.33384856,-0.50000001,-0.50000001)"
         clip-rule="evenodd"
         id="path44" />
    </clipPath>
    <clipPath
       clipPathUnits="userSpaceOnUse"
       id="clipPath45">
      <path
         d="M 0,0 H 2695.8333 V 1449.7592 H 0 Z"
         transform="matrix(0.33384521,0,0,0.33384521,-410.20314,-362)"
         clip-rule="evenodd"
         id="path45" />
    </clipPath>
    <clipPath
       clipPathUnits="userSpaceOnUse"
       id="clipPath47">
      <path
         d="M 0,0 H 2695.8333 V 1449.7592 H 0 Z"
         transform="matrix(0.33384856,0,0,0.33384856,-0.50000001,-0.50000001)"
         clip-rule="evenodd"
         id="path47" />
    </clipPath>
    <clipPath
       clipPathUnits="userSpaceOnUse"
       id="clipPath48">
      <path
         d="M 0,0 H 2695.8333 V 1449.7592 H 0 Z"
         transform="matrix(0.33384521,0,0,0.33384521,-280.20313,-362)"
         clip-rule="evenodd"
         id="path48" />
    </clipPath>
    <clipPath
       clipPathUnits="userSpaceOnUse"
       id="clipPath50">
      <path
         d="M 0,0 H 2695.8333 V 1449.7592 H 0 Z"
         transform="matrix(0.33384856,0,0,0.33384856,-0.50000001,-0.50000001)"
         clip-rule="evenodd"
         id="path50" />
    </clipPath>
    <clipPath
       clipPathUnits="userSpaceOnUse"
       id="clipPath51">
      <path
         d="M 0,0 H 2695.8333 V 1449.7592 H 0 Z"
         transform="matrix(0.33384521,0,0,0.33384521,-540.20313,-362)"
         clip-rule="evenodd"
         id="path51" />
    </clipPath>
    <clipPath
       clipPathUnits="userSpaceOnUse"
       id="clipPath53">
      <path
         d="M 0,0 H 2695.8333 V 1449.7592 H 0 Z"
         transform="matrix(0.33384856,0,0,0.33384856,-0.50000001,-0.50000001)"
         clip-rule="evenodd"
         id="path53" />
    </clipPath>
    <clipPath
       clipPathUnits="userSpaceOnUse"
       id="clipPath54">
      <path
         d="M 0,0 H 2695.8333 V 1449.7592 H 0 Z"
         transform="matrix(0.33384521,0,0,0.33384521,-670.20313,-362)"
         clip-rule="evenodd"
         id="path54" />
    </clipPath>
    <clipPath
       clipPathUnits="userSpaceOnUse"
       id="clipPath55">
      <path
         d="M 0,0 H 2695.8333 V 1449.7592 H 0 Z"
         transform="matrix(0.33384521,0,0,0.33384521,-791.54689,-122)"
         clip-rule="evenodd"
         id="path55" />
    </clipPath>
    <clipPath
       clipPathUnits="userSpaceOnUse"
       id="clipPath56">
      <path
         d="M 0,0 H 2695.8333 V 1449.7592 H 0 Z"
         transform="matrix(0.33384521,0,0,0.33384521,-791.54689,-242)"
         clip-rule="evenodd"
         id="path56" />
    </clipPath>
    <clipPath
       clipPathUnits="userSpaceOnUse"
       id="clipPath57">
      <path
         d="M 0,0 H 2695.8333 V 1449.7592 H 0 Z"
         transform="matrix(0.33384521,0,0,0.33384521,-791.54689,-362)"
         clip-rule="evenodd"
         id="path57" />
    </clipPath>
    <clipPath
       clipPathUnits="userSpaceOnUse"
       id="clipPath59">
      <path
         d="M 0,0 H 2695.8333 V 1449.7592 H 0 Z"
         transform="matrix(0.33384856,0,0,0.33384856,-0.50000001,-0.50000001)"
         clip-rule="evenodd"
         id="path59" />
    </clipPath>
    <clipPath
       clipPathUnits="userSpaceOnUse"
       id="clipPath61">
      <path
         d="M 0,0 H 2695.8333 V 1449.7592 H 0 Z"
         transform="matrix(0.33384856,0,0,0.33384856,-0.50000001,-0.50000001)"
         clip-rule="evenodd"
         id="path61" />
    </clipPath>
    <clipPath
       clipPathUnits="userSpaceOnUse"
       id="clipPath62">
      <path
         d="M 0,0 H 2695.8333 V 1449.7592 H 0 Z"
         transform="matrix(0.33384521,0,0,0.33384521,-25.953126,-55)"
         clip-rule="evenodd"
         id="path62" />
    </clipPath>
    <clipPath
       clipPathUnits="userSpaceOnUse"
       id="clipPath64">
      <path
         d="M 0,0 H 2695.8333 V 1449.7592 H 0 Z"
         transform="matrix(0.33384856,0,0,0.33384856,-0.50000001,-0.50000001)"
         clip-rule="evenodd"
         id="path64" />
    </clipPath>
    <clipPath
       clipPathUnits="userSpaceOnUse"
       id="clipPath66">
      <path
         d="M 0,0 H 2695.8333 V 1449.7592 H 0 Z"
         transform="matrix(0.33384856,0,0,0.33384856,-0.50000001,-0.50000001)"
         clip-rule="evenodd"
         id="path66" />
    </clipPath>
    <clipPath
       clipPathUnits="userSpaceOnUse"
       id="clipPath68">
      <path
         d="M 0,0 H 2695.8333 V 1449.7592 H 0 Z"
         transform="matrix(0.33384856,0,0,0.33384856,-0.50000001,-0.50000001)"
         clip-rule="evenodd"
         id="path68" />
    </clipPath>
    <clipPath
       clipPathUnits="userSpaceOnUse"
       id="clipPath70">
      <path
         d="M 0,0 H 2695.8333 V 1449.7592 H 0 Z"
         transform="matrix(0.33384856,0,0,0.33384856,-0.50000001,-0.50000001)"
         clip-rule="evenodd"
         id="path70" />
    </clipPath>
    <clipPath
       clipPathUnits="userSpaceOnUse"
       id="clipPath71">
      <path
         d="M 0,0 H 2695.8333 V 1449.7592 H 0 Z"
         transform="matrix(0.33384521,0,0,0.33384521,-0.4375,-195)"
         clip-rule="evenodd"
         id="path71" />
    </clipPath>
    <clipPath
       clipPathUnits="userSpaceOnUse"
       id="clipPath73">
      <path
         d="M 0,0 H 2695.8333 V 1449.7592 H 0 Z"
         transform="matrix(0.33384856,0,0,0.33384856,-0.50000001,-0.50000001)"
         clip-rule="evenodd"
         id="path73" />
    </clipPath>
    <clipPath
       clipPathUnits="userSpaceOnUse"
       id="clipPath75">
      <path
         d="M 0,0 H 2695.8333 V 1449.7592 H 0 Z"
         transform="matrix(0.33384856,0,0,0.33384856,-0.50000001,-0.50000001)"
         clip-rule="evenodd"
         id="path75" />
    </clipPath>
    <clipPath
       clipPathUnits="userSpaceOnUse"
       id="clipPath76">
      <path
         d="M 0,0 H 2695.8333 V 1449.7592 H 0 Z"
         transform="matrix(0.33384521,0,0,0.33384521,-22.968751,-340)"
         clip-rule="evenodd"
         id="path76" />
    </clipPath>
  </defs>
  <sodipodi:namedview
     id="namedview1"
     pagecolor="#ffffff"
     bordercolor="#000000"
     borderopacity="0.25"
     inkscape:showpageshadow="2"
     inkscape:pageopacity="0.0"
     inkscape:pagecheckerboard="0"
     inkscape:deskcolor="#d1d1d1">
    <inkscape:page
       x="0"
       y="0"
       inkscape:label="1"
       id="page1"
       width="862.71997"
       height="465.28"
       margin="0"
       bleed="0" />
  </sodipodi:namedview>
  <g
     id="g1"
     inkscape:groupmode="layer"
     inkscape:label="1">
    <path
       id="path1"
       d="M 0,0 H 900 V 485 H 0 Z"
       style="fill:#ffffff;fill-opacity:1;fill-rule:nonzero;stroke:none"
       transform="scale(0.95851839)"
       clip-path="url(#clipPath2)" />
    <path
       id="path3"
       d="M 228,41 H 898.01001 V 481 H 228 Z"
       style="fill:#ffe6cc;fill-opacity:1;fill-rule:nonzero;stroke:#d79b00;stroke-width:1;stroke-linecap:butt;stroke-linejoin:miter;stroke-miterlimit:10;stroke-dasharray:none;stroke-opacity:1"
       transform="matrix(0.95851839,0,0,0.95851839,0.4792592,0.4792592)"
       clip-path="url(#clipPath4)" />
    <path
       id="path5"
       d="M 228,1 H 898.01001 V 41 H 228 Z"
       style="fill:#ffe6cc;fill-opacity:1;fill-rule:nonzero;stroke:#d79b00;stroke-width:1;stroke-linecap:butt;stroke-linejoin:miter;stroke-miterlimit:10;stroke-dasharray:none;stroke-opacity:1"
       transform="matrix(0.95851839,0,0,0.95851839,0.4792592,0.4792592)"
       clip-path="url(#clipPath6)" />
    <text
       id="text6"
       xml:space="preserve"
       transform="matrix(0.95852802,0,0,0.95852802,516.99108,25.880257)"
       clip-path="url(#clipPath7)"><tspan
         style="font-variant:normal;font-weight:700;font-size:17px;font-family:Helvetica;writing-mode:lr-tb;fill:#000000;fill-opacity:1;fill-rule:nonzero;stroke:none"
         x="0 9.4545898 18.90918 28.36377 37.818359"
         y="0"
         sodipodi:role="line"
         id="tspan6">22445</tspan></text>
    <path
       id="path8"
       d="M 248,61 H 878.01001 V 171 H 248 Z"
       style="fill:#ffffff;fill-opacity:1;fill-rule:nonzero;stroke:#000000;stroke-width:1;stroke-linecap:butt;stroke-linejoin:miter;stroke-miterlimit:10;stroke-dasharray:none;stroke-opacity:1"
       transform="matrix(0.95851839,0,0,0.95851839,0.4792592,0.4792592)"
       clip-path="url(#clipPath9)" />
    <path
       id="path10"
       d="M 248,181 H 878.01001 V 291 H 248 Z"
       style="fill:#ffffff;fill-opacity:1;fill-rule:nonzero;stroke:#000000;stroke-width:1;stroke-linecap:butt;stroke-linejoin:miter;stroke-miterlimit:10;stroke-dasharray:none;stroke-opacity:1"
       transform="matrix(0.95851839,0,0,0.95851839,0.4792592,0.4792592)"
       clip-path="url(#clipPath11)" />
    <path
       id="path12"
       d="m 563.01001,411 -0.10999,23.64001"
       style="fill:none;stroke:#000000;stroke-width:1;stroke-linecap:butt;stroke-linejoin:miter;stroke-miterlimit:10;stroke-dasharray:none;stroke-opacity:1"
       transform="matrix(0.95851839,0,0,0.95851839,0.4792592,0.4792592)"
       clip-path="url(#clipPath13)" />
    <path
       id="path14"
       d="m 562.88,439.89001 -3.47003,-7.02001 3.49005,1.77001 3.50995,-1.74002 z"
       style="fill:#000000;fill-opacity:1;fill-rule:nonzero;stroke:#000000;stroke-width:1;stroke-linecap:butt;stroke-linejoin:miter;stroke-miterlimit:10;stroke-dasharray:none;stroke-opacity:1"
       transform="matrix(0.95851839,0,0,0.95851839,0.4792592,0.4792592)"
       clip-path="url(#clipPath15)" />
    <path
       id="path16"
       d="M 248,301 H 878.01001 V 411 H 248 Z"
       style="fill:#ffffff;fill-opacity:1;fill-rule:nonzero;stroke:#000000;stroke-width:1;stroke-linecap:butt;stroke-linejoin:miter;stroke-miterlimit:10;stroke-dasharray:none;stroke-opacity:1"
       transform="matrix(0.95851839,0,0,0.95851839,0.4792592,0.4792592)"
       clip-path="url(#clipPath17)" />
    <text
       id="text17"
       xml:space="preserve"
       transform="matrix(0.95852802,0,0,0.95852802,488.50483,438.04731)"
       clip-path="url(#clipPath18)"><tspan
         style="font-style:oblique;font-variant:normal;font-weight:normal;font-size:17px;font-family:Helvetica;writing-mode:lr-tb;fill:#000000;fill-opacity:1;fill-rule:nonzero;stroke:none"
         x="0 14.161133 23.615723 29.276855 38.731445 43.45459 54.793457 58.570312 68.024902 76.524902 85.024902 93.524902 98.248047 102.97119"
         y="0"
         sodipodi:role="line"
         id="tspan17">More Blocks...</tspan></text>
    <path
       id="path19"
       d="m 388,86 h 120 v 60 H 388 Z"
       style="fill:#dae8fc;fill-opacity:1;fill-rule:nonzero;stroke:#6c8ebf;stroke-width:1;stroke-linecap:butt;stroke-linejoin:miter;stroke-miterlimit:10;stroke-dasharray:none;stroke-opacity:1"
       transform="matrix(0.95851839,0,0,0.95851839,0.4792592,0.4792592)"
       clip-path="url(#clipPath20)" />
    <text
       id="text20"
       xml:space="preserve"
       transform="matrix(0.95852802,0,0,0.95852802,396.35134,116.94042)"
       clip-path="url(#clipPath21)"><tspan
         style="font-variant:normal;font-weight:normal;font-size:17px;font-family:Helvetica;writing-mode:lr-tb;fill:#000000;fill-opacity:1;fill-rule:nonzero;stroke:none"
         x="0 12.276855 20.776855 30.231445 35.892578 40.615723 50.070312 59.524902"
         y="0"
         sodipodi:role="line"
         id="tspan20">User #50</tspan></text>
    <path
       id="path22"
       d="m 258,86 h 120 v 60 H 258 Z"
       style="fill:#dae8fc;fill-opacity:1;fill-rule:nonzero;stroke:#6c8ebf;stroke-width:1;stroke-linecap:butt;stroke-linejoin:miter;stroke-miterlimit:10;stroke-dasharray:none;stroke-opacity:1"
       transform="matrix(0.95851839,0,0,0.95851839,0.4792592,0.4792592)"
       clip-path="url(#clipPath23)" />
    <text
       id="text23"
       xml:space="preserve"
       transform="matrix(0.95852802,0,0,0.95852802,267.21964,116.94042)"
       clip-path="url(#clipPath24)"><tspan
         style="font-variant:normal;font-weight:normal;font-size:17px;font-family:Helvetica;writing-mode:lr-tb;fill:#000000;fill-opacity:1;fill-rule:nonzero;stroke:none"
         x="0 12.276855 20.776855 30.231445 35.892578 40.615723 50.070312 59.524902 68.979492"
         y="0"
         sodipodi:role="line"
         id="tspan23">User #203</tspan></text>
    <path
       id="path25"
       d="m 518.01001,86 h 120 v 60 h -120 z"
       style="fill:#dae8fc;fill-opacity:1;fill-rule:nonzero;stroke:#6c8ebf;stroke-width:1;stroke-linecap:butt;stroke-linejoin:miter;stroke-miterlimit:10;stroke-dasharray:none;stroke-opacity:1"
       transform="matrix(0.95851839,0,0,0.95851839,0.4792592,0.4792592)"
       clip-path="url(#clipPath26)" />
    <text
       id="text26"
       xml:space="preserve"
       transform="matrix(0.95852802,0,0,0.95852802,520.95998,116.94042)"
       clip-path="url(#clipPath27)"><tspan
         style="font-variant:normal;font-weight:normal;font-size:17px;font-family:Helvetica;writing-mode:lr-tb;fill:#000000;fill-opacity:1;fill-rule:nonzero;stroke:none"
         x="0 12.276855 20.776855 30.231445 35.892578 40.615723 50.070312 59.524902"
         y="0"
         sodipodi:role="line"
         id="tspan26">User #49</tspan></text>
    <path
       id="path28"
       d="m 648.01001,86 h 120 v 60 h -120 z"
       style="fill:#dae8fc;fill-opacity:1;fill-rule:nonzero;stroke:#6c8ebf;stroke-width:1;stroke-linecap:butt;stroke-linejoin:miter;stroke-miterlimit:10;stroke-dasharray:none;stroke-opacity:1"
       transform="matrix(0.95851839,0,0,0.95851839,0.4792592,0.4792592)"
       clip-path="url(#clipPath29)" />
    <text
       id="text29"
       xml:space="preserve"
       transform="matrix(0.95852802,0,0,0.95852802,645.56862,116.94042)"
       clip-path="url(#clipPath30)"><tspan
         style="font-variant:normal;font-weight:normal;font-size:17px;font-family:Helvetica;writing-mode:lr-tb;fill:#000000;fill-opacity:1;fill-rule:nonzero;stroke:none"
         x="0 12.276855 20.776855 30.231445 35.892578 40.615723 50.070312 59.524902"
         y="0"
         sodipodi:role="line"
         id="tspan29">User #48</tspan></text>
    <path
       id="path31"
       d="m 388,206 h 120 v 60 H 388 Z"
       style="fill:#dae8fc;fill-opacity:1;fill-rule:nonzero;stroke:#6c8ebf;stroke-width:1;stroke-linecap:butt;stroke-linejoin:miter;stroke-miterlimit:10;stroke-dasharray:none;stroke-opacity:1"
       transform="matrix(0.95851839,0,0,0.95851839,0.4792592,0.4792592)"
       clip-path="url(#clipPath32)" />
    <text
       id="text32"
       xml:space="preserve"
       transform="matrix(0.95852802,0,0,0.95852802,393.1912,231.96378)"
       clip-path="url(#clipPath33)"><tspan
         style="font-variant:normal;font-weight:normal;font-size:17px;font-family:Helvetica;writing-mode:lr-tb;fill:#000000;fill-opacity:1;fill-rule:nonzero;stroke:none"
         x="0 12.276855 20.776855 30.231445 35.892578 40.615723 50.070312 58.570312 67.070312"
         y="0"
         sodipodi:role="line"
         id="tspan32">User #xyz</tspan></text>
    <path
       id="path34"
       d="m 258,206 h 120 v 60 H 258 Z"
       style="fill:#dae8fc;fill-opacity:1;fill-rule:nonzero;stroke:#6c8ebf;stroke-width:1;stroke-linecap:butt;stroke-linejoin:miter;stroke-miterlimit:10;stroke-dasharray:none;stroke-opacity:1"
       transform="matrix(0.95851839,0,0,0.95851839,0.4792592,0.4792592)"
       clip-path="url(#clipPath35)" />
    <text
       id="text35"
       xml:space="preserve"
       transform="matrix(0.95852802,0,0,0.95852802,268.58255,231.96378)"
       clip-path="url(#clipPath36)"><tspan
         style="font-variant:normal;font-weight:normal;font-size:17px;font-family:Helvetica;writing-mode:lr-tb;fill:#000000;fill-opacity:1;fill-rule:nonzero;stroke:none"
         x="0 12.276855 20.776855 30.231445 35.892578 40.615723 50.070312 58.570312 67.070312"
         y="0"
         sodipodi:role="line"
         id="tspan35">User #xyz</tspan></text>
    <path
       id="path37"
       d="m 518.01001,206 h 120 v 60 h -120 z"
       style="fill:#dae8fc;fill-opacity:1;fill-rule:nonzero;stroke:#6c8ebf;stroke-width:1;stroke-linecap:butt;stroke-linejoin:miter;stroke-miterlimit:10;stroke-dasharray:none;stroke-opacity:1"
       transform="matrix(0.95851839,0,0,0.95851839,0.4792592,0.4792592)"
       clip-path="url(#clipPath38)" />
    <text
       id="text38"
       xml:space="preserve"
       transform="matrix(0.95852802,0,0,0.95852802,517.79984,231.96378)"
       clip-path="url(#clipPath39)"><tspan
         style="font-variant:normal;font-weight:normal;font-size:17px;font-family:Helvetica;writing-mode:lr-tb;fill:#000000;fill-opacity:1;fill-rule:nonzero;stroke:none"
         x="0 12.276855 20.776855 30.231445 35.892578 40.615723 50.070312 58.570312 67.070312"
         y="0"
         sodipodi:role="line"
         id="tspan38">User #xyz</tspan></text>
    <path
       id="path40"
       d="m 648.01001,206 h 120 v 60 h -120 z"
       style="fill:#dae8fc;fill-opacity:1;fill-rule:nonzero;stroke:#6c8ebf;stroke-width:1;stroke-linecap:butt;stroke-linejoin:miter;stroke-miterlimit:10;stroke-dasharray:none;stroke-opacity:1"
       transform="matrix(0.95851839,0,0,0.95851839,0.4792592,0.4792592)"
       clip-path="url(#clipPath41)" />
    <text
       id="text41"
       xml:space="preserve"
       transform="matrix(0.95852802,0,0,0.95852802,642.40848,231.96378)"
       clip-path="url(#clipPath42)"><tspan
         style="font-variant:normal;font-weight:normal;font-size:17px;font-family:Helvetica;writing-mode:lr-tb;fill:#000000;fill-opacity:1;fill-rule:nonzero;stroke:none"
         x="0 12.276855 20.776855 30.231445 35.892578 40.615723 50.070312 58.570312 67.070312"
         y="0"
         sodipodi:role="line"
         id="tspan41">User #xyz</tspan></text>
    <path
       id="path43"
       d="m 388,326 h 120 v 60 H 388 Z"
       style="fill:#dae8fc;fill-opacity:1;fill-rule:nonzero;stroke:#6c8ebf;stroke-width:1;stroke-linecap:butt;stroke-linejoin:miter;stroke-miterlimit:10;stroke-dasharray:none;stroke-opacity:1"
       transform="matrix(0.95851839,0,0,0.95851839,0.4792592,0.4792592)"
       clip-path="url(#clipPath44)" />
    <text
       id="text44"
       xml:space="preserve"
       transform="matrix(0.95852802,0,0,0.95852802,393.1912,346.98714)"
       clip-path="url(#clipPath45)"><tspan
         style="font-variant:normal;font-weight:normal;font-size:17px;font-family:Helvetica;writing-mode:lr-tb;fill:#000000;fill-opacity:1;fill-rule:nonzero;stroke:none"
         x="0 12.276855 20.776855 30.231445 35.892578 40.615723 50.070312 58.570312 67.070312"
         y="0"
         sodipodi:role="line"
         id="tspan44">User #xyz</tspan></text>
    <path
       id="path46"
       d="m 258,326 h 120 v 60 H 258 Z"
       style="fill:#dae8fc;fill-opacity:1;fill-rule:nonzero;stroke:#6c8ebf;stroke-width:1;stroke-linecap:butt;stroke-linejoin:miter;stroke-miterlimit:10;stroke-dasharray:none;stroke-opacity:1"
       transform="matrix(0.95851839,0,0,0.95851839,0.4792592,0.4792592)"
       clip-path="url(#clipPath47)" />
    <text
       id="text47"
       xml:space="preserve"
       transform="matrix(0.95852802,0,0,0.95852802,268.58255,346.98714)"
       clip-path="url(#clipPath48)"><tspan
         style="font-variant:normal;font-weight:normal;font-size:17px;font-family:Helvetica;writing-mode:lr-tb;fill:#000000;fill-opacity:1;fill-rule:nonzero;stroke:none"
         x="0 12.276855 20.776855 30.231445 35.892578 40.615723 50.070312 58.570312 67.070312"
         y="0"
         sodipodi:role="line"
         id="tspan47">User #xyz</tspan></text>
    <path
       id="path49"
       d="m 518.01001,326 h 120 v 60 h -120 z"
       style="fill:#dae8fc;fill-opacity:1;fill-rule:nonzero;stroke:#6c8ebf;stroke-width:1;stroke-linecap:butt;stroke-linejoin:miter;stroke-miterlimit:10;stroke-dasharray:none;stroke-opacity:1"
       transform="matrix(0.95851839,0,0,0.95851839,0.4792592,0.4792592)"
       clip-path="url(#clipPath50)" />
    <text
       id="text50"
       xml:space="preserve"
       transform="matrix(0.95852802,0,0,0.95852802,517.79984,346.98714)"
       clip-path="url(#clipPath51)"><tspan
         style="font-variant:normal;font-weight:normal;font-size:17px;font-family:Helvetica;writing-mode:lr-tb;fill:#000000;fill-opacity:1;fill-rule:nonzero;stroke:none"
         x="0 12.276855 20.776855 30.231445 35.892578 40.615723 50.070312 58.570312 67.070312"
         y="0"
         sodipodi:role="line"
         id="tspan50">User #xyz</tspan></text>
    <path
       id="path52"
       d="m 648.01001,326 h 120 v 60 h -120 z"
       style="fill:#dae8fc;fill-opacity:1;fill-rule:nonzero;stroke:#6c8ebf;stroke-width:1;stroke-linecap:butt;stroke-linejoin:miter;stroke-miterlimit:10;stroke-dasharray:none;stroke-opacity:1"
       transform="matrix(0.95851839,0,0,0.95851839,0.4792592,0.4792592)"
       clip-path="url(#clipPath53)" />
    <text
       id="text53"
       xml:space="preserve"
       transform="matrix(0.95852802,0,0,0.95852802,642.40848,346.98714)"
       clip-path="url(#clipPath54)"><tspan
         style="font-variant:normal;font-weight:normal;font-size:17px;font-family:Helvetica;writing-mode:lr-tb;fill:#000000;fill-opacity:1;fill-rule:nonzero;stroke:none"
         x="0 12.276855 20.776855 30.231445 35.892578 40.615723 50.070312 58.570312 67.070312"
         y="0"
         sodipodi:role="line"
         id="tspan53">User #xyz</tspan></text>
    <text
       id="text54"
       xml:space="preserve"
       transform="matrix(0.95852802,0,0,0.95852802,758.71987,116.94042)"
       clip-path="url(#clipPath55)"><tspan
         style="font-style:oblique;font-variant:normal;font-weight:normal;font-size:17px;font-family:Helvetica;writing-mode:lr-tb;fill:#000000;fill-opacity:1;fill-rule:nonzero;stroke:none"
         x="0 14.161133 23.615723 29.276855 38.731445 43.45459 48.177734"
         y="0"
         sodipodi:role="line"
         id="tspan54">more...</tspan></text>
    <text
       id="text55"
       xml:space="preserve"
       transform="matrix(0.95852802,0,0,0.95852802,758.71987,231.96378)"
       clip-path="url(#clipPath56)"><tspan
         style="font-style:oblique;font-variant:normal;font-weight:normal;font-size:17px;font-family:Helvetica;writing-mode:lr-tb;fill:#000000;fill-opacity:1;fill-rule:nonzero;stroke:none"
         x="0 14.161133 23.615723 29.276855 38.731445 43.45459 48.177734"
         y="0"
         sodipodi:role="line"
         id="tspan55">more...</tspan></text>
    <text
       id="text56"
       xml:space="preserve"
       transform="matrix(0.95852802,0,0,0.95852802,758.71987,346.98714)"
       clip-path="url(#clipPath57)"><tspan
         style="font-style:oblique;font-variant:normal;font-weight:normal;font-size:17px;font-family:Helvetica;writing-mode:lr-tb;fill:#000000;fill-opacity:1;fill-rule:nonzero;stroke:none"
         x="0 14.161133 23.615723 29.276855 38.731445 43.45459 48.177734"
         y="0"
         sodipodi:role="line"
         id="tspan56">more...</tspan></text>
    <path
       id="path58"
       d="m 148,46 h 40 V 21 h 33.63"
       style="fill:none;stroke:#000000;stroke-width:1;stroke-linecap:butt;stroke-linejoin:miter;stroke-miterlimit:10;stroke-dasharray:none;stroke-opacity:1"
       transform="matrix(0.95851839,0,0,0.95851839,0.4792592,0.4792592)"
       clip-path="url(#clipPath59)" />
    <path
       id="path60"
       d="m 226.88,21 -7,3.5 1.75,-3.5 -1.75,-3.5 z"
       style="fill:#000000;fill-opacity:1;fill-rule:nonzero;stroke:#000000;stroke-width:1;stroke-linecap:butt;stroke-linejoin:miter;stroke-miterlimit:10;stroke-dasharray:none;stroke-opacity:1"
       transform="matrix(0.95851839,0,0,0.95851839,0.4792592,0.4792592)"
       clip-path="url(#clipPath61)" />
    <text
       id="text61"
       xml:space="preserve"
       transform="matrix(0.95852802,0,0,0.95852802,24.876798,52.719041)"
       clip-path="url(#clipPath62)"><tspan
         style="font-variant:normal;font-weight:700;font-size:27px;font-family:Helvetica;writing-mode:lr-tb;fill:#000000;fill-opacity:1;fill-rule:nonzero;stroke:none"
         x="0 19.498535 34.514648 49.530762 66.023438 73.524902 90.017578 97.519043 105.02051"
         y="0"
         sodipodi:role="line"
         id="tspan61">Heap File</tspan></text>
    <path
       id="path63"
       d="m 148,186 h 50 v -26.89999 l 43,0.02"
       style="fill:none;stroke:#000000;stroke-width:1;stroke-linecap:butt;stroke-linejoin:miter;stroke-miterlimit:10;stroke-dasharray:none;stroke-opacity:1"
       transform="matrix(0.95851839,0,0,0.95851839,0.4792592,0.4792592)"
       clip-path="url(#clipPath64)" />
    <path
       id="path65"
       d="m 246.25,159.11999 -7,3.5 1.75,-3.5 -1.74001,-3.5 z"
       style="fill:#000000;fill-opacity:1;fill-rule:nonzero;stroke:#000000;stroke-width:1;stroke-linecap:butt;stroke-linejoin:miter;stroke-miterlimit:10;stroke-dasharray:none;stroke-opacity:1"
       transform="matrix(0.95851839,0,0,0.95851839,0.4792592,0.4792592)"
       clip-path="url(#clipPath66)" />
    <path
       id="path67"
       d="m 148,186 h 50 v 22.5 h 43.63"
       style="fill:none;stroke:#000000;stroke-width:1;stroke-linecap:butt;stroke-linejoin:miter;stroke-miterlimit:10;stroke-dasharray:none;stroke-opacity:1"
       transform="matrix(0.95851839,0,0,0.95851839,0.4792592,0.4792592)"
       clip-path="url(#clipPath68)" />
    <path
       id="path69"
       d="m 246.88,208.5 -7,3.5 1.75,-3.5 -1.75,-3.5 z"
       style="fill:#000000;fill-opacity:1;fill-rule:nonzero;stroke:#000000;stroke-width:1;stroke-linecap:butt;stroke-linejoin:miter;stroke-miterlimit:10;stroke-dasharray:none;stroke-opacity:1"
       transform="matrix(0.95851839,0,0,0.95851839,0.4792592,0.4792592)"
       clip-path="url(#clipPath70)" />
    <text
       id="text70"
       xml:space="preserve"
       transform="matrix(0.95852802,0,0,0.95852802,0.41935601,186.91296)"
       clip-path="url(#clipPath71)"><tspan
         style="font-variant:normal;font-weight:700;font-size:27px;font-family:Helvetica;writing-mode:lr-tb;fill:#000000;fill-opacity:1;fill-rule:nonzero;stroke:none"
         x="0 19.498535 27 43.492676 58.508789 73.524902 81.026367 99.035156 114.05127 130.54395"
         y="0"
         sodipodi:role="line"
         id="tspan70">Block/Page</tspan></text>
    <path
       id="path72"
       d="m 158,331 h 50 v 10 h 43.63"
       style="fill:none;stroke:#000000;stroke-width:1;stroke-linecap:butt;stroke-linejoin:miter;stroke-miterlimit:10;stroke-dasharray:none;stroke-opacity:1"
       transform="matrix(0.95851839,0,0,0.95851839,0.4792592,0.4792592)"
       clip-path="url(#clipPath73)" />
    <path
       id="path74"
       d="m 256.88,341 -7,3.5 1.75,-3.5 -1.75,-3.5 z"
       style="fill:#000000;fill-opacity:1;fill-rule:nonzero;stroke:#000000;stroke-width:1;stroke-linecap:butt;stroke-linejoin:miter;stroke-miterlimit:10;stroke-dasharray:none;stroke-opacity:1"
       transform="matrix(0.95851839,0,0,0.95851839,0.4792592,0.4792592)"
       clip-path="url(#clipPath75)" />
    <text
       id="text75"
       xml:space="preserve"
       transform="matrix(0.95852802,0,0,0.95852802,22.016191,325.89953)"
       clip-path="url(#clipPath76)"><tspan
         style="font-variant:normal;font-weight:700;font-size:27px;font-family:Helvetica;writing-mode:lr-tb;fill:#000000;fill-opacity:1;fill-rule:nonzero;stroke:none"
         x="0 14.501953 30.994629 47.487305 54.98877 70.004883 77.506348 85.007812 93.999023 109.01514"
         y="0"
         sodipodi:role="line"
         id="tspan75">Tuple/Item</tspan></text>
  </g>
</svg>
