<?xml version="1.0" encoding="UTF-8" standalone="no"?>
<!-- Created with Inkscape (http://www.inkscape.org/) -->

<svg
   version="1.1"
   id="svg1"
   width="377.28"
   height="282.56"
   viewBox="0 0 377.28 282.56"
   sodipodi:docname="sql-5.pdf"
   xmlns:inkscape="http://www.inkscape.org/namespaces/inkscape"
   xmlns:sodipodi="http://sodipodi.sourceforge.net/DTD/sodipodi-0.dtd"
   xmlns="http://www.w3.org/2000/svg"
   xmlns:svg="http://www.w3.org/2000/svg">
  <defs
     id="defs1">
    <clipPath
       clipPathUnits="userSpaceOnUse"
       id="clipPath2">
      <path
         d="M 0,0 H 1179.1666 V 882.8786 H 0 Z"
         transform="scale(0.33413427)"
         clip-rule="evenodd"
         id="path2" />
    </clipPath>
    <clipPath
       clipPathUnits="userSpaceOnUse"
       id="clipPath4">
      <path
         d="M 0,0 H 1179.1666 V 879.8858 H 0 Z"
         transform="matrix(0.33413427,0,0,0.33413427,-0.5,-0.5)"
         clip-rule="evenodd"
         id="path4" />
    </clipPath>
    <clipPath
       clipPathUnits="userSpaceOnUse"
       id="clipPath5">
      <path
         d="M 0,0 H 1179.1666 V 879.8858 H 0 Z"
         transform="matrix(0.33413091,0,0,0.33413091,-72.984375,-27.999999)"
         clip-rule="evenodd"
         id="path5" />
    </clipPath>
    <clipPath
       clipPathUnits="userSpaceOnUse"
       id="clipPath7">
      <path
         d="M 0,0 H 1179.1666 V 879.8858 H 0 Z"
         transform="matrix(0.33413427,0,0,0.33413427,-0.5,-0.5)"
         clip-rule="evenodd"
         id="path7" />
    </clipPath>
    <clipPath
       clipPathUnits="userSpaceOnUse"
       id="clipPath8">
      <path
         d="M 0,0 H 1179.1666 V 879.8858 H 0 Z"
         transform="matrix(0.33413091,0,0,0.33413091,-74.46875,-76)"
         clip-rule="evenodd"
         id="path8" />
    </clipPath>
    <clipPath
       clipPathUnits="userSpaceOnUse"
       id="clipPath10">
      <path
         d="M 0,0 H 1179.1666 V 879.8858 H 0 Z"
         transform="matrix(0.33413427,0,0,0.33413427,-0.5,-0.5)"
         clip-rule="evenodd"
         id="path10" />
    </clipPath>
    <clipPath
       clipPathUnits="userSpaceOnUse"
       id="clipPath11">
      <path
         d="M 0,0 H 1179.1666 V 879.8858 H 0 Z"
         transform="matrix(0.33413091,0,0,0.33413091,-18.21875,-118)"
         clip-rule="evenodd"
         id="path11" />
    </clipPath>
    <clipPath
       clipPathUnits="userSpaceOnUse"
       id="clipPath12">
      <path
         d="M 0,0 H 1179.1666 V 879.8858 H 0 Z"
         transform="matrix(0.33413091,0,0,0.33413091,-171.42188,-134)"
         clip-rule="evenodd"
         id="path12" />
    </clipPath>
    <clipPath
       clipPathUnits="userSpaceOnUse"
       id="clipPath14">
      <path
         d="M 0,0 H 1179.1666 V 879.8858 H 0 Z"
         transform="matrix(0.33413427,0,0,0.33413427,-0.5,-0.5)"
         clip-rule="evenodd"
         id="path14" />
    </clipPath>
    <clipPath
       clipPathUnits="userSpaceOnUse"
       id="clipPath15">
      <path
         d="M 0,0 H 1179.1666 V 879.8858 H 0 Z"
         transform="matrix(0.33413091,0,0,0.33413091,-59.40625,-176)"
         clip-rule="evenodd"
         id="path15" />
    </clipPath>
    <clipPath
       clipPathUnits="userSpaceOnUse"
       id="clipPath17">
      <path
         d="M 0,0 H 1179.1666 V 879.8858 H 0 Z"
         transform="matrix(0.33413427,0,0,0.33413427,-0.5,-0.5)"
         clip-rule="evenodd"
         id="path17" />
    </clipPath>
    <clipPath
       clipPathUnits="userSpaceOnUse"
       id="clipPath18">
      <path
         d="M 0,0 H 1179.1666 V 879.8858 H 0 Z"
         transform="matrix(0.33413091,0,0,0.33413091,-59.765625,-226)"
         clip-rule="evenodd"
         id="path18" />
    </clipPath>
    <clipPath
       clipPathUnits="userSpaceOnUse"
       id="clipPath20">
      <path
         d="M 0,0 H 1179.1666 V 879.8858 H 0 Z"
         transform="matrix(0.33413427,0,0,0.33413427,-0.5,-0.5)"
         clip-rule="evenodd"
         id="path20" />
    </clipPath>
    <clipPath
       clipPathUnits="userSpaceOnUse"
       id="clipPath21">
      <path
         d="M 0,0 H 1179.1666 V 879.8858 H 0 Z"
         transform="matrix(0.33413091,0,0,0.33413091,-25.078125,-276)"
         clip-rule="evenodd"
         id="path21" />
    </clipPath>
  </defs>
  <sodipodi:namedview
     id="namedview1"
     pagecolor="#ffffff"
     bordercolor="#000000"
     borderopacity="0.25"
     inkscape:showpageshadow="2"
     inkscape:pageopacity="0.0"
     inkscape:pagecheckerboard="0"
     inkscape:deskcolor="#d1d1d1">
    <inkscape:page
       x="0"
       y="0"
       inkscape:label="1"
       id="page1"
       width="377.28"
       height="282.56"
       margin="0"
       bleed="0" />
  </sodipodi:namedview>
  <g
     id="g1"
     inkscape:groupmode="layer"
     inkscape:label="1">
    <path
       id="path1"
       d="M 0,0 H 394 V 295 H 0 Z"
       style="fill:#ffffff;fill-opacity:1;fill-rule:nonzero;stroke:none"
       transform="scale(0.95769878)"
       clip-path="url(#clipPath2)" />
    <path
       id="path3"
       d="M 1,1 H 391 V 41 H 1 Z"
       style="fill:#dae8fc;fill-opacity:1;fill-rule:nonzero;stroke:#6c8ebf;stroke-width:1;stroke-linecap:butt;stroke-linejoin:miter;stroke-miterlimit:10;stroke-dasharray:none;stroke-opacity:1"
       transform="matrix(0.95769878,0,0,0.95769878,0.47884939,0.47884939)"
       clip-path="url(#clipPath4)" />
    <text
       id="text4"
       xml:space="preserve"
       transform="matrix(0.95770841,0,0,0.95770841,69.89775,26.815835)"
       clip-path="url(#clipPath5)"><tspan
         style="font-variant:normal;font-weight:700;font-size:19px;font-family:Helvetica;writing-mode:lr-tb;fill:#000000;fill-opacity:1;fill-rule:nonzero;stroke:none"
         x="0 12.672852 23.239746 30.633789 36.960938 48.566895 55.960938 72.85498 83.421875 95.027832 105.59473 116.16162 121.44043 136.21924 141.49805 147.8252 159.43115 164.70996 177.38281 188.98877 199.55566 205.88281 217.48877 224.88281 235.44971"
         y="0"
         sodipodi:role="line"
         id="tspan4">Performance with Postgres</tspan></text>
    <path
       id="path6"
       d="M 1,51 H 391 V 91 H 1 Z"
       style="fill:#f5f5f5;fill-opacity:1;fill-rule:nonzero;stroke:#666666;stroke-width:1;stroke-linecap:butt;stroke-linejoin:miter;stroke-miterlimit:10;stroke-dasharray:none;stroke-opacity:1"
       transform="matrix(0.95769878,0,0,0.95769878,0.47884939,0.47884939)"
       clip-path="url(#clipPath7)" />
    <text
       id="text7"
       xml:space="preserve"
       transform="matrix(0.95770841,0,0,0.95770841,71.319348,72.785839)"
       clip-path="url(#clipPath8)"><tspan
         style="font-variant:normal;font-weight:normal;font-size:13px;font-family:Helvetica;writing-mode:lr-tb;fill:#333333;fill-opacity:1;fill-rule:nonzero;stroke:none"
         x="0 7.4775391 14.70752 21.9375 25.549316 32.049316 39.279297 46.509277 50.121094 57.351074 64.581055 68.192871 71.804688 79.034668 88.422852 95.652832 102.15283 105.76465 115.15283 118.04102 121.65283 128.88281 132.49463 139.72461 146.95459 149.84277 156.34277 162.84277 166.45459 170.06641 172.95459 180.18457 186.68457 190.29639 197.52637 204.75635 211.98633 215.59814 222.82812 225.71631 232.94629 236.55811"
         y="0"
         sodipodi:role="line"
         id="tspan7">You can get away with quick tips and hints</tspan></text>
    <path
       id="path9"
       d="m 1,101 h 390 v 40 H 1 Z"
       style="fill:#f5f5f5;fill-opacity:1;fill-rule:nonzero;stroke:#666666;stroke-width:1;stroke-linecap:butt;stroke-linejoin:miter;stroke-miterlimit:10;stroke-dasharray:none;stroke-opacity:1"
       transform="matrix(0.95769878,0,0,0.95769878,0.47884939,0.47884939)"
       clip-path="url(#clipPath10)" />
    <text
       id="text10"
       xml:space="preserve"
       transform="matrix(0.95770841,0,0,0.95770841,17.44825,113.00959)"
       clip-path="url(#clipPath11)"><tspan
         style="font-variant:normal;font-weight:normal;font-size:13px;font-family:Helvetica;writing-mode:lr-tb;fill:#333333;fill-opacity:1;fill-rule:nonzero;stroke:none"
         x="0 10.829102 18.059082 24.559082 31.789062 35.400879 42.630859 49.86084 56.36084 59.249023 66.479004 70.808105 74.419922 78.031738 85.261719 88.873535 96.103516 103.3335 110.56348 117.79346 122.12256 128.62256 132.23438 139.46436 146.69434 153.92432 157.53613 164.76611 171.99609 176.3252 179.93701 187.16699 191.49609 202.3252 209.55518 216.78516 223.28516 230.51514 234.12695 237.01514 240.62695 244.23877 250.73877 257.96875 265.19873 268.81055 276.04053 283.27051 290.50049 297.73047 302.05957 308.55957 312.17139 319.40137 326.63135 333.86133 337.47314 341.08496 348.31494"
         y="0"
         sodipodi:role="line"
         id="tspan10">Much easier to understand performance if you understand the</tspan></text>
    <text
       id="text11"
       xml:space="preserve"
       transform="matrix(0.95770841,0,0,0.95770841,164.17218,128.33293)"
       clip-path="url(#clipPath12)"><tspan
         style="font-variant:normal;font-weight:normal;font-size:13px;font-family:Helvetica;writing-mode:lr-tb;fill:#333333;fill-opacity:1;fill-rule:nonzero;stroke:none"
         x="0 2.8881836 10.118164 13.72998 20.959961 25.289062 32.519043 39.749023 42.637207"
         y="0"
         sodipodi:role="line"
         id="tspan11">internals</tspan></text>
    <path
       id="path13"
       d="m 1,151 h 390 v 40 H 1 Z"
       style="fill:#f5f5f5;fill-opacity:1;fill-rule:nonzero;stroke:#666666;stroke-width:1;stroke-linecap:butt;stroke-linejoin:miter;stroke-miterlimit:10;stroke-dasharray:none;stroke-opacity:1"
       transform="matrix(0.95769878,0,0,0.95769878,0.47884939,0.47884939)"
       clip-path="url(#clipPath14)" />
    <text
       id="text14"
       xml:space="preserve"
       transform="matrix(0.95770841,0,0,0.95770841,56.893865,168.55668)"
       clip-path="url(#clipPath15)"><tspan
         style="font-variant:normal;font-weight:normal;font-size:13px;font-family:Helvetica;writing-mode:lr-tb;fill:#333333;fill-opacity:1;fill-rule:nonzero;stroke:none"
         x="0 6.5 13.72998 20.22998 27.459961 31.071777 38.301758 41.913574 44.801758 52.031738 59.261719 65.761719 69.373535 76.603516 80.215332 83.827148 91.057129 98.287109 107.67529 111.28711 118.51709 125.74707 129.35889 136.58887 140.20068 143.08887 149.58887 153.20068 159.70068 163.3125 170.54248 174.87158 182.10156 189.33154 192.94336 200.17334 207.40332 214.6333 218.24512 225.4751 231.9751 238.4751 245.70508 252.20508 258.70508 265.93506"
         y="0"
         sodipodi:role="line"
         id="tspan14">Take a look at how data is stored and accessed</tspan></text>
    <path
       id="path16"
       d="m 1,201 h 390 v 40 H 1 Z"
       style="fill:#f5f5f5;fill-opacity:1;fill-rule:nonzero;stroke:#666666;stroke-width:1;stroke-linecap:butt;stroke-linejoin:miter;stroke-miterlimit:10;stroke-dasharray:none;stroke-opacity:1"
       transform="matrix(0.95769878,0,0,0.95769878,0.47884939,0.47884939)"
       clip-path="url(#clipPath17)" />
    <text
       id="text17"
       xml:space="preserve"
       transform="matrix(0.95770841,0,0,0.95770841,57.238042,216.4421)"
       clip-path="url(#clipPath18)"><tspan
         style="font-variant:normal;font-weight:normal;font-size:13px;font-family:Helvetica;writing-mode:lr-tb;fill:#333333;fill-opacity:1;fill-rule:nonzero;stroke:none"
         x="0 3.6118164 10.841797 17.341797 24.571777 31.071777 34.683594 37.571777 44.801758 52.031738 55.643555 62.873535 66.485352 73.715332 77.327148 80.938965 88.168945 95.398926 104.78711 108.39893 111.28711 118.51709 125.74707 132.97705 139.47705 146.70703 153.20703 156.81885 164.04883 168.37793 175.60791 179.21973 185.71973 189.33154 196.56152 200.89062 208.12061 215.35059 218.9624 226.19238 233.42236 240.65234 244.26416 251.49414 257.99414 265.22412"
         y="0"
         sodipodi:role="line"
         id="tspan17">Investigate at how indexes are stored and used</tspan></text>
    <path
       id="path19"
       d="m 1,251 h 390 v 40 H 1 Z"
       style="fill:#f5f5f5;fill-opacity:1;fill-rule:nonzero;stroke:#666666;stroke-width:1;stroke-linecap:butt;stroke-linejoin:miter;stroke-miterlimit:10;stroke-dasharray:none;stroke-opacity:1"
       transform="matrix(0.95769878,0,0,0.95769878,0.47884939,0.47884939)"
       clip-path="url(#clipPath20)" />
    <text
       id="text20"
       xml:space="preserve"
       transform="matrix(0.95770841,0,0,0.95770841,24.017531,264.32752)"
       clip-path="url(#clipPath21)"><tspan
         style="font-variant:normal;font-weight:normal;font-size:13px;font-family:Helvetica;writing-mode:lr-tb;fill:#333333;fill-opacity:1;fill-rule:nonzero;stroke:none"
         x="0 8.6708984 15.900879 19.512695 23.124512 26.736328 33.966309 41.196289 47.696289 54.92627 58.538086 62.149902 69.379883 76.609863 83.839844 87.45166 94.681641 101.91162 106.24072 109.85254 113.46436 120.69434 124.30615 131.53613 138.76611 145.99609 153.22607 157.55518 164.05518 167.66699 174.89697 182.12695 189.35693 192.96875 200.19873 207.42871 216.81689 220.42871 227.65869 234.88867 242.11865 246.44775 249.33594 256.56592 263.06592 266.67773 273.90771 278.23682 285.4668 289.07861 296.30859 302.80859 310.03857 316.53857 323.76855 327.38037 334.61035"
         y="0"
         sodipodi:role="line"
         id="tspan20">Put these together to understand how queries are executed</tspan></text>
  </g>
</svg>
