<?xml version="1.0" encoding="UTF-8" standalone="no"?>
<!-- Created with Inkscape (http://www.inkscape.org/) -->

<svg
   version="1.1"
   id="svg1"
   width="444.16"
   height="267.84"
   viewBox="0 0 444.16 267.84"
   sodipodi:docname="sql-1.pdf"
   xmlns:inkscape="http://www.inkscape.org/namespaces/inkscape"
   xmlns:sodipodi="http://sodipodi.sourceforge.net/DTD/sodipodi-0.dtd"
   xmlns="http://www.w3.org/2000/svg"
   xmlns:svg="http://www.w3.org/2000/svg">
  <defs
     id="defs1">
    <clipPath
       clipPathUnits="userSpaceOnUse"
       id="clipPath2">
      <path
         d="M 0,0 H 1387.5 V 837.28442 H 0 Z"
         transform="scale(0.33441443)"
         clip-rule="evenodd"
         id="path2" />
    </clipPath>
    <clipPath
       clipPathUnits="userSpaceOnUse"
       id="clipPath4">
      <path
         d="M 0,0 H 1387.5 V 834.29413 H 0 Z"
         transform="matrix(0.33441443,0,0,0.33441443,-0.50000001,-0.50000001)"
         clip-rule="evenodd"
         id="path4" />
    </clipPath>
    <clipPath
       clipPathUnits="userSpaceOnUse"
       id="clipPath6">
      <path
         d="M 0,0 H 1387.5 V 834.29413 H 0 Z"
         transform="matrix(0.33441443,0,0,0.33441443,-0.50000001,-0.50000001)"
         clip-rule="evenodd"
         id="path6" />
    </clipPath>
    <clipPath
       clipPathUnits="userSpaceOnUse"
       id="clipPath7">
      <path
         d="M 0,0 H 1387.5 V 834.29413 H 0 Z"
         transform="matrix(0.33441107,0,0,0.33441107,-309.625,-25)"
         clip-rule="evenodd"
         id="path7" />
    </clipPath>
    <clipPath
       clipPathUnits="userSpaceOnUse"
       id="clipPath9">
      <path
         d="M 0,0 H 1387.5 V 834.29413 H 0 Z"
         transform="matrix(0.33441443,0,0,0.33441443,-0.50000001,-0.50000001)"
         clip-rule="evenodd"
         id="path9" />
    </clipPath>
    <clipPath
       clipPathUnits="userSpaceOnUse"
       id="clipPath10">
      <path
         d="M 0,0 H 1387.5 V 834.29413 H 0 Z"
         transform="matrix(0.33441107,0,0,0.33441107,-289.96875,-71)"
         clip-rule="evenodd"
         id="path10" />
    </clipPath>
    <clipPath
       clipPathUnits="userSpaceOnUse"
       id="clipPath12">
      <path
         d="M 0,0 H 1387.5 V 834.29413 H 0 Z"
         transform="matrix(0.33441443,0,0,0.33441443,-0.50000001,-0.50000001)"
         clip-rule="evenodd"
         id="path12" />
    </clipPath>
    <clipPath
       clipPathUnits="userSpaceOnUse"
       id="clipPath14">
      <path
         d="M 0,0 H 1387.5 V 834.29413 H 0 Z"
         transform="matrix(0.33441443,0,0,0.33441443,-0.50000001,-0.50000001)"
         clip-rule="evenodd"
         id="path14" />
    </clipPath>
    <clipPath
       clipPathUnits="userSpaceOnUse"
       id="clipPath15">
      <path
         d="M 0,0 H 1387.5 V 834.29413 H 0 Z"
         transform="matrix(0.33441107,0,0,0.33441107,-323.98438,-143)"
         clip-rule="evenodd"
         id="path15" />
    </clipPath>
    <clipPath
       clipPathUnits="userSpaceOnUse"
       id="clipPath17">
      <path
         d="M 0,0 H 1387.5 V 834.29413 H 0 Z"
         transform="matrix(0.33441443,0,0,0.33441443,-0.50000001,-0.50000001)"
         clip-rule="evenodd"
         id="path17" />
    </clipPath>
    <clipPath
       clipPathUnits="userSpaceOnUse"
       id="clipPath19">
      <path
         d="M 0,0 H 1387.5 V 834.29413 H 0 Z"
         transform="matrix(0.33441443,0,0,0.33441443,-0.50000001,-0.50000001)"
         clip-rule="evenodd"
         id="path19" />
    </clipPath>
    <clipPath
       clipPathUnits="userSpaceOnUse"
       id="clipPath21">
      <path
         d="M 0,0 H 1387.5 V 834.29413 H 0 Z"
         transform="matrix(0.33441443,0,0,0.33441443,-0.50000001,-0.50000001)"
         clip-rule="evenodd"
         id="path21" />
    </clipPath>
    <clipPath
       clipPathUnits="userSpaceOnUse"
       id="clipPath22">
      <path
         d="M 0,0 H 1387.5 V 834.29413 H 0 Z"
         transform="matrix(0.33441107,0,0,0.33441107,-31.375,-102)"
         clip-rule="evenodd"
         id="path22" />
    </clipPath>
    <clipPath
       clipPathUnits="userSpaceOnUse"
       id="clipPath24">
      <path
         d="M 0,0 H 1387.5 V 834.29413 H 0 Z"
         transform="matrix(0.33441443,0,0,0.33441443,-0.50000001,-0.50000001)"
         clip-rule="evenodd"
         id="path24" />
    </clipPath>
    <clipPath
       clipPathUnits="userSpaceOnUse"
       id="clipPath26">
      <path
         d="M 0,0 H 1387.5 V 834.29413 H 0 Z"
         transform="matrix(0.33441443,0,0,0.33441443,-0.50000001,-0.50000001)"
         clip-rule="evenodd"
         id="path26" />
    </clipPath>
    <clipPath
       clipPathUnits="userSpaceOnUse"
       id="clipPath28">
      <path
         d="M 0,0 H 1387.5 V 834.29413 H 0 Z"
         transform="matrix(0.33441443,0,0,0.33441443,-0.50000001,-0.50000001)"
         clip-rule="evenodd"
         id="path28" />
    </clipPath>
    <clipPath
       clipPathUnits="userSpaceOnUse"
       id="clipPath29">
      <path
         d="M 0,0 H 1387.5 V 834.29413 H 0 Z"
         transform="matrix(0.33441107,0,0,0.33441107,-13.921875,-162)"
         clip-rule="evenodd"
         id="path29" />
    </clipPath>
    <clipPath
       clipPathUnits="userSpaceOnUse"
       id="clipPath31">
      <path
         d="M 0,0 H 1387.5 V 834.29413 H 0 Z"
         transform="matrix(0.33441443,0,0,0.33441443,-0.50000001,-0.50000001)"
         clip-rule="evenodd"
         id="path31" />
    </clipPath>
    <clipPath
       clipPathUnits="userSpaceOnUse"
       id="clipPath33">
      <path
         d="M 0,0 H 1387.5 V 834.29413 H 0 Z"
         transform="matrix(0.33441443,0,0,0.33441443,-0.50000001,-0.50000001)"
         clip-rule="evenodd"
         id="path33" />
    </clipPath>
    <clipPath
       clipPathUnits="userSpaceOnUse"
       id="clipPath35">
      <path
         d="M 0,0 H 1387.5 V 834.29413 H 0 Z"
         transform="matrix(0.33441443,0,0,0.33441443,-0.50000001,-0.50000001)"
         clip-rule="evenodd"
         id="path35" />
    </clipPath>
    <clipPath
       clipPathUnits="userSpaceOnUse"
       id="clipPath36">
      <path
         d="M 0,0 H 1387.5 V 834.29413 H 0 Z"
         transform="matrix(0.33441107,0,0,0.33441107,-7.765625,-222)"
         clip-rule="evenodd"
         id="path36" />
    </clipPath>
  </defs>
  <sodipodi:namedview
     id="namedview1"
     pagecolor="#ffffff"
     bordercolor="#000000"
     borderopacity="0.25"
     inkscape:showpageshadow="2"
     inkscape:pageopacity="0.0"
     inkscape:pagecheckerboard="0"
     inkscape:deskcolor="#d1d1d1">
    <inkscape:page
       x="0"
       y="0"
       inkscape:label="1"
       id="page1"
       width="444.16"
       height="267.84"
       margin="0"
       bleed="0" />
  </sodipodi:namedview>
  <g
     id="g1"
     inkscape:groupmode="layer"
     inkscape:label="1">
    <path
       id="path1"
       d="M 0,0 H 464 V 280 H 0 Z"
       style="fill:#ffffff;fill-opacity:1;fill-rule:nonzero;stroke:none"
       transform="scale(0.95689647)"
       clip-path="url(#clipPath2)" />
    <path
       id="path3"
       d="M 231,36 H 461 V 276 H 231 Z"
       style="fill:#d5e8d4;fill-opacity:1;fill-rule:nonzero;stroke:#82b366;stroke-width:1;stroke-linecap:butt;stroke-linejoin:miter;stroke-miterlimit:10;stroke-dasharray:none;stroke-opacity:1"
       transform="matrix(0.95689647,0,0,0.95689647,0.47844824,0.47844824)"
       clip-path="url(#clipPath4)" />
    <path
       id="path5"
       d="M 231,1 H 461 V 36 H 231 Z"
       style="fill:#d5e8d4;fill-opacity:1;fill-rule:nonzero;stroke:#82b366;stroke-width:1;stroke-linecap:butt;stroke-linejoin:miter;stroke-miterlimit:10;stroke-dasharray:none;stroke-opacity:1"
       transform="matrix(0.95689647,0,0,0.95689647,0.47844824,0.47844824)"
       clip-path="url(#clipPath6)" />
    <text
       id="text6"
       xml:space="preserve"
       transform="matrix(0.95690607,0,0,0.95690607,296.28204,23.922652)"
       clip-path="url(#clipPath7)"><tspan
         style="font-variant:normal;font-weight:700;font-size:17px;font-family:Helvetica;writing-mode:lr-tb;fill:#000000;fill-opacity:1;fill-rule:nonzero;stroke:none"
         x="0 11.338867 21.723145 31.177734 36.838867 47.223145 53.838867 63.293457"
         y="0"
         sodipodi:role="line"
         id="tspan6">Postgres</tspan></text>
    <path
       id="path8"
       d="M 241,51 H 451 V 81 H 241 Z"
       style="fill:#ffffff;fill-opacity:1;fill-rule:nonzero;stroke:#000000;stroke-width:1;stroke-linecap:butt;stroke-linejoin:miter;stroke-miterlimit:10;stroke-dasharray:none;stroke-opacity:1"
       transform="matrix(0.95689647,0,0,0.95689647,0.47844824,0.47844824)"
       clip-path="url(#clipPath9)" />
    <text
       id="text9"
       xml:space="preserve"
       transform="matrix(0.95690607,0,0,0.95690607,277.47286,67.940331)"
       clip-path="url(#clipPath10)"><tspan
         style="font-style:oblique;font-variant:normal;font-weight:normal;font-size:14px;font-family:Helvetica;writing-mode:lr-tb;fill:#000000;fill-opacity:1;fill-rule:nonzero;stroke:none"
         x="0 7 14.786133 21.786133 24.896484 32.682617 35.792969 43.579102 51.365234 55.254883 65.365234 73.151367 77.813477 84.813477 89.475586 93.365234 101.15137 108.15137"
         y="0"
         sodipodi:role="line"
         id="tspan9">socialnetwork-test</tspan></text>
    <path
       id="path11"
       d="M 241,81 H 451 V 221 H 241 Z"
       style="fill:#ffffff;fill-opacity:1;fill-rule:nonzero;stroke:#000000;stroke-width:1;stroke-linecap:butt;stroke-linejoin:miter;stroke-miterlimit:10;stroke-dasharray:none;stroke-opacity:1"
       transform="matrix(0.95689647,0,0,0.95689647,0.47844824,0.47844824)"
       clip-path="url(#clipPath12)" />
    <path
       id="path13"
       d="m 261,111 h 170 v 50 H 261 Z"
       style="fill:#fff2cc;fill-opacity:1;fill-rule:nonzero;stroke:#d6b656;stroke-width:1;stroke-linecap:butt;stroke-linejoin:miter;stroke-miterlimit:10;stroke-dasharray:none;stroke-opacity:1"
       transform="matrix(0.95689647,0,0,0.95689647,0.47844824,0.47844824)"
       clip-path="url(#clipPath14)" />
    <text
       id="text14"
       xml:space="preserve"
       transform="matrix(0.95690607,0,0,0.95690607,310.02262,136.83757)"
       clip-path="url(#clipPath15)"><tspan
         style="font-variant:normal;font-weight:normal;font-size:18px;font-family:Helvetica;writing-mode:lr-tb;fill:#000000;fill-opacity:1;fill-rule:nonzero;stroke:none"
         x="0 10.010742 19.010742 29.021484 35.015625"
         y="0"
         sodipodi:role="line"
         id="tspan14">users</tspan></text>
    <path
       id="path16"
       d="m 161,96 h 50 v 40 h 43.63"
       style="fill:none;stroke:#000000;stroke-width:1;stroke-linecap:butt;stroke-linejoin:miter;stroke-miterlimit:10;stroke-dasharray:none;stroke-opacity:1"
       transform="matrix(0.95689647,0,0,0.95689647,0.47844824,0.47844824)"
       clip-path="url(#clipPath17)" />
    <path
       id="path18"
       d="m 259.88,136 -7,3.5 1.75,-3.5 -1.75,-3.5 z"
       style="fill:#000000;fill-opacity:1;fill-rule:nonzero;stroke:#000000;stroke-width:1;stroke-linecap:butt;stroke-linejoin:miter;stroke-miterlimit:10;stroke-dasharray:none;stroke-opacity:1"
       transform="matrix(0.95689647,0,0,0.95689647,0.47844824,0.47844824)"
       clip-path="url(#clipPath19)" />
    <path
       id="path20"
       d="m 1,71 h 160 v 50 H 1 Z"
       style="fill:#dae8fc;fill-opacity:1;fill-rule:nonzero;stroke:#6c8ebf;stroke-width:1;stroke-linecap:butt;stroke-linejoin:miter;stroke-miterlimit:10;stroke-dasharray:none;stroke-opacity:1"
       transform="matrix(0.95689647,0,0,0.95689647,0.47844824,0.47844824)"
       clip-path="url(#clipPath21)" />
    <text
       id="text21"
       xml:space="preserve"
       transform="matrix(0.95690607,0,0,0.95690607,30.022928,97.604419)"
       clip-path="url(#clipPath22)"><tspan
         style="font-variant:normal;font-weight:700;font-size:17px;font-family:Helvetica;writing-mode:lr-tb;fill:#000000;fill-opacity:1;fill-rule:nonzero;stroke:none"
         x="0 10.384277 19.838867 29.293457 35.90918 45.36377 50.086914 55.748047 65.202637 74.657227 80.318359 85.041504 89.764648"
         y="0"
         sodipodi:role="line"
         id="tspan21">users.test.js</tspan></text>
    <path
       id="path23"
       d="m 161,156 h 50 v -20 h 43.63"
       style="fill:none;stroke:#000000;stroke-width:1;stroke-linecap:butt;stroke-linejoin:miter;stroke-miterlimit:10;stroke-dasharray:none;stroke-opacity:1"
       transform="matrix(0.95689647,0,0,0.95689647,0.47844824,0.47844824)"
       clip-path="url(#clipPath24)" />
    <path
       id="path25"
       d="m 259.88,136 -7,3.5 1.75,-3.5 -1.75,-3.5 z"
       style="fill:#000000;fill-opacity:1;fill-rule:nonzero;stroke:#000000;stroke-width:1;stroke-linecap:butt;stroke-linejoin:miter;stroke-miterlimit:10;stroke-dasharray:none;stroke-opacity:1"
       transform="matrix(0.95689647,0,0,0.95689647,0.47844824,0.47844824)"
       clip-path="url(#clipPath26)" />
    <path
       id="path27"
       d="m 1,131 h 160 v 50 H 1 Z"
       style="fill:#dae8fc;fill-opacity:1;fill-rule:nonzero;stroke:#6c8ebf;stroke-width:1;stroke-linecap:butt;stroke-linejoin:miter;stroke-miterlimit:10;stroke-dasharray:none;stroke-opacity:1"
       transform="matrix(0.95689647,0,0,0.95689647,0.47844824,0.47844824)"
       clip-path="url(#clipPath28)" />
    <text
       id="text28"
       xml:space="preserve"
       transform="matrix(0.95690607,0,0,0.95690607,13.321927,155.01878)"
       clip-path="url(#clipPath29)"><tspan
         style="font-variant:normal;font-weight:700;font-size:17px;font-family:Helvetica;writing-mode:lr-tb;fill:#000000;fill-opacity:1;fill-rule:nonzero;stroke:none"
         x="0 10.384277 19.838867 29.293457 35.90918 45.36377 51.024902 56.686035 69.90918 80.293457 85.016602 90.677734 100.13232 109.58691 115.24805 119.97119 124.69434"
         y="0"
         sodipodi:role="line"
         id="tspan28">users-two.test.js</tspan></text>
    <path
       id="path30"
       d="m 161,216 h 50 v -80 h 43.63"
       style="fill:none;stroke:#000000;stroke-width:1;stroke-linecap:butt;stroke-linejoin:miter;stroke-miterlimit:10;stroke-dasharray:none;stroke-opacity:1"
       transform="matrix(0.95689647,0,0,0.95689647,0.47844824,0.47844824)"
       clip-path="url(#clipPath31)" />
    <path
       id="path32"
       d="m 259.88,136 -7,3.5 1.75,-3.5 -1.75,-3.5 z"
       style="fill:#000000;fill-opacity:1;fill-rule:nonzero;stroke:#000000;stroke-width:1;stroke-linecap:butt;stroke-linejoin:miter;stroke-miterlimit:10;stroke-dasharray:none;stroke-opacity:1"
       transform="matrix(0.95689647,0,0,0.95689647,0.47844824,0.47844824)"
       clip-path="url(#clipPath33)" />
    <path
       id="path34"
       d="m 1,191 h 160 v 50 H 1 Z"
       style="fill:#dae8fc;fill-opacity:1;fill-rule:nonzero;stroke:#6c8ebf;stroke-width:1;stroke-linecap:butt;stroke-linejoin:miter;stroke-miterlimit:10;stroke-dasharray:none;stroke-opacity:1"
       transform="matrix(0.95689647,0,0,0.95689647,0.47844824,0.47844824)"
       clip-path="url(#clipPath35)" />
    <text
       id="text35"
       xml:space="preserve"
       transform="matrix(0.95690607,0,0,0.95690607,7.4309737,212.43315)"
       clip-path="url(#clipPath36)"><tspan
         style="font-variant:normal;font-weight:700;font-size:17px;font-family:Helvetica;writing-mode:lr-tb;fill:#000000;fill-opacity:1;fill-rule:nonzero;stroke:none"
         x="0 10.384277 19.838867 29.293457 35.90918 45.36377 51.024902 56.686035 67.070312 73.686035 83.140625 92.595215 97.318359 102.97949 112.43408 121.88867 127.5498 132.27295 136.99609"
         y="0"
         sodipodi:role="line"
         id="tspan35">users-three.test.js</tspan></text>
  </g>
</svg>
