<?xml version="1.0" encoding="UTF-8" standalone="no"?>
<!-- Created with Inkscape (http://www.inkscape.org/) -->

<svg
   version="1.1"
   id="svg1"
   width="501.44"
   height="225.27998"
   viewBox="0 0 501.44 225.27998"
   sodipodi:docname="sql-4.pdf"
   xmlns:inkscape="http://www.inkscape.org/namespaces/inkscape"
   xmlns:sodipodi="http://sodipodi.sourceforge.net/DTD/sodipodi-0.dtd"
   xmlns="http://www.w3.org/2000/svg"
   xmlns:svg="http://www.w3.org/2000/svg">
  <defs
     id="defs1">
    <clipPath
       clipPathUnits="userSpaceOnUse"
       id="clipPath2">
      <path
         d="M 0,0 H 1566.6665 V 702.60809 H 0 Z"
         transform="scale(0.33446811)"
         clip-rule="evenodd"
         id="path2" />
    </clipPath>
    <clipPath
       clipPathUnits="userSpaceOnUse"
       id="clipPath4">
      <path
         d="M 0,0 H 1566.6665 V 699.61829 H 0 Z"
         transform="matrix(0.33446811,0,0,0.33446811,-0.5,-0.5)"
         clip-rule="evenodd"
         id="path4" />
    </clipPath>
    <clipPath
       clipPathUnits="userSpaceOnUse"
       id="clipPath5">
      <path
         d="M 0,0 H 1566.6665 V 699.61829 H 0 Z"
         transform="matrix(0.33446475,0,0,0.33446475,-329.96875,-21.000001)"
         clip-rule="evenodd"
         id="path5" />
    </clipPath>
    <clipPath
       clipPathUnits="userSpaceOnUse"
       id="clipPath7">
      <path
         d="M 0,0 H 1566.6665 V 699.61829 H 0 Z"
         transform="matrix(0.33446811,0,0,0.33446811,-0.5,-0.5)"
         clip-rule="evenodd"
         id="path7" />
    </clipPath>
    <clipPath
       clipPathUnits="userSpaceOnUse"
       id="clipPath9">
      <path
         d="M 0,0 H 1566.6665 V 699.61829 H 0 Z"
         transform="matrix(0.33446811,0,0,0.33446811,-0.5,-0.5)"
         clip-rule="evenodd"
         id="path9" />
    </clipPath>
    <clipPath
       clipPathUnits="userSpaceOnUse"
       id="clipPath10">
      <path
         d="M 0,0 H 1566.6665 V 699.61829 H 0 Z"
         transform="matrix(0.33446475,0,0,0.33446475,-326.78125,-57.000001)"
         clip-rule="evenodd"
         id="path10" />
    </clipPath>
    <clipPath
       clipPathUnits="userSpaceOnUse"
       id="clipPath12">
      <path
         d="M 0,0 H 1566.6665 V 699.61829 H 0 Z"
         transform="matrix(0.33446811,0,0,0.33446811,-0.5,-0.5)"
         clip-rule="evenodd"
         id="path12" />
    </clipPath>
    <clipPath
       clipPathUnits="userSpaceOnUse"
       id="clipPath14">
      <path
         d="M 0,0 H 1566.6665 V 699.61829 H 0 Z"
         transform="matrix(0.33446811,0,0,0.33446811,-0.5,-0.5)"
         clip-rule="evenodd"
         id="path14" />
    </clipPath>
    <clipPath
       clipPathUnits="userSpaceOnUse"
       id="clipPath15">
      <path
         d="M 0,0 H 1566.6665 V 699.61829 H 0 Z"
         transform="matrix(0.33446475,0,0,0.33446475,-308.26563,-96)"
         clip-rule="evenodd"
         id="path15" />
    </clipPath>
    <clipPath
       clipPathUnits="userSpaceOnUse"
       id="clipPath17">
      <path
         d="M 0,0 H 1566.6665 V 699.61829 H 0 Z"
         transform="matrix(0.33446811,0,0,0.33446811,-0.5,-0.5)"
         clip-rule="evenodd"
         id="path17" />
    </clipPath>
    <clipPath
       clipPathUnits="userSpaceOnUse"
       id="clipPath18">
      <path
         d="M 0,0 H 1566.6665 V 699.61829 H 0 Z"
         transform="matrix(0.33446475,0,0,0.33446475,-429.26564,-96)"
         clip-rule="evenodd"
         id="path18" />
    </clipPath>
    <clipPath
       clipPathUnits="userSpaceOnUse"
       id="clipPath20">
      <path
         d="M 0,0 H 1566.6665 V 699.61829 H 0 Z"
         transform="matrix(0.33446811,0,0,0.33446811,-0.5,-0.5)"
         clip-rule="evenodd"
         id="path20" />
    </clipPath>
    <clipPath
       clipPathUnits="userSpaceOnUse"
       id="clipPath21">
      <path
         d="M 0,0 H 1566.6665 V 699.61829 H 0 Z"
         transform="matrix(0.33446475,0,0,0.33446475,-316.76563,-157)"
         clip-rule="evenodd"
         id="path21" />
    </clipPath>
    <clipPath
       clipPathUnits="userSpaceOnUse"
       id="clipPath23">
      <path
         d="M 0,0 H 1566.6665 V 699.61829 H 0 Z"
         transform="matrix(0.33446811,0,0,0.33446811,-0.5,-0.5)"
         clip-rule="evenodd"
         id="path23" />
    </clipPath>
    <clipPath
       clipPathUnits="userSpaceOnUse"
       id="clipPath25">
      <path
         d="M 0,0 H 1566.6665 V 699.61829 H 0 Z"
         transform="matrix(0.33446811,0,0,0.33446811,-0.5,-0.5)"
         clip-rule="evenodd"
         id="path25" />
    </clipPath>
    <clipPath
       clipPathUnits="userSpaceOnUse"
       id="clipPath26">
      <path
         d="M 0,0 H 1566.6665 V 699.61829 H 0 Z"
         transform="matrix(0.33446475,0,0,0.33446475,-308.26563,-196)"
         clip-rule="evenodd"
         id="path26" />
    </clipPath>
    <clipPath
       clipPathUnits="userSpaceOnUse"
       id="clipPath28">
      <path
         d="M 0,0 H 1566.6665 V 699.61829 H 0 Z"
         transform="matrix(0.33446811,0,0,0.33446811,-0.5,-0.5)"
         clip-rule="evenodd"
         id="path28" />
    </clipPath>
    <clipPath
       clipPathUnits="userSpaceOnUse"
       id="clipPath29">
      <path
         d="M 0,0 H 1566.6665 V 699.61829 H 0 Z"
         transform="matrix(0.33446475,0,0,0.33446475,-429.26564,-196)"
         clip-rule="evenodd"
         id="path29" />
    </clipPath>
    <clipPath
       clipPathUnits="userSpaceOnUse"
       id="clipPath31">
      <path
         d="M 0,0 H 1566.6665 V 699.61829 H 0 Z"
         transform="matrix(0.33446811,0,0,0.33446811,-0.5,-0.5)"
         clip-rule="evenodd"
         id="path31" />
    </clipPath>
    <clipPath
       clipPathUnits="userSpaceOnUse"
       id="clipPath32">
      <path
         d="M 0,0 H 1566.6665 V 699.61829 H 0 Z"
         transform="matrix(0.33446475,0,0,0.33446475,-16.5625,-73.000001)"
         clip-rule="evenodd"
         id="path32" />
    </clipPath>
    <clipPath
       clipPathUnits="userSpaceOnUse"
       id="clipPath33">
      <path
         d="M 0,0 H 1566.6665 V 699.61829 H 0 Z"
         transform="matrix(0.33446475,0,0,0.33446475,-9.53125,-90)"
         clip-rule="evenodd"
         id="path33" />
    </clipPath>
    <clipPath
       clipPathUnits="userSpaceOnUse"
       id="clipPath35">
      <path
         d="M 0,0 H 1566.6665 V 699.61829 H 0 Z"
         transform="matrix(0.33446811,0,0,0.33446811,-0.5,-0.5)"
         clip-rule="evenodd"
         id="path35" />
    </clipPath>
    <clipPath
       clipPathUnits="userSpaceOnUse"
       id="clipPath36">
      <path
         d="M 0,0 H 1566.6665 V 699.61829 H 0 Z"
         transform="matrix(0.33446475,0,0,0.33446475,-8.375,-128)"
         clip-rule="evenodd"
         id="path36" />
    </clipPath>
    <clipPath
       clipPathUnits="userSpaceOnUse"
       id="clipPath37">
      <path
         d="M 0,0 H 1566.6665 V 699.61829 H 0 Z"
         transform="matrix(0.33446475,0,0,0.33446475,-33.34375,-145)"
         clip-rule="evenodd"
         id="path37" />
    </clipPath>
    <clipPath
       clipPathUnits="userSpaceOnUse"
       id="clipPath39">
      <path
         d="M 0,0 H 1566.6665 V 699.61829 H 0 Z"
         transform="matrix(0.33446811,0,0,0.33446811,-0.5,-0.5)"
         clip-rule="evenodd"
         id="path39" />
    </clipPath>
    <clipPath
       clipPathUnits="userSpaceOnUse"
       id="clipPath40">
      <path
         d="M 0,0 H 1566.6665 V 699.61829 H 0 Z"
         transform="matrix(0.33446475,0,0,0.33446475,-4.5000001,-183)"
         clip-rule="evenodd"
         id="path40" />
    </clipPath>
    <clipPath
       clipPathUnits="userSpaceOnUse"
       id="clipPath41">
      <path
         d="M 0,0 H 1566.6665 V 699.61829 H 0 Z"
         transform="matrix(0.33446475,0,0,0.33446475,-26.28125,-200)"
         clip-rule="evenodd"
         id="path41" />
    </clipPath>
  </defs>
  <sodipodi:namedview
     id="namedview1"
     pagecolor="#ffffff"
     bordercolor="#000000"
     borderopacity="0.25"
     inkscape:showpageshadow="2"
     inkscape:pageopacity="0.0"
     inkscape:pagecheckerboard="0"
     inkscape:deskcolor="#d1d1d1">
    <inkscape:page
       x="0"
       y="0"
       inkscape:label="1"
       id="page1"
       width="501.44"
       height="225.27998"
       margin="0"
       bleed="0" />
  </sodipodi:namedview>
  <g
     id="g1"
     inkscape:groupmode="layer"
     inkscape:label="1">
    <path
       id="path1"
       d="M 0,0 H 524 V 235 H 0 Z"
       style="fill:#ffffff;fill-opacity:1;fill-rule:nonzero;stroke:none"
       transform="scale(0.9567429)"
       clip-path="url(#clipPath2)" />
    <path
       id="path3"
       d="M 251,1 H 521 V 31 H 251 Z"
       style="fill:#ffffff;fill-opacity:1;fill-rule:nonzero;stroke:#000000;stroke-width:1;stroke-linecap:butt;stroke-linejoin:miter;stroke-miterlimit:10;stroke-dasharray:none;stroke-opacity:1"
       transform="matrix(0.9567429,0,0,0.9567429,0.47837145,0.47837145)"
       clip-path="url(#clipPath4)" />
    <text
       id="text4"
       xml:space="preserve"
       transform="matrix(0.9567525,0,0,0.9567525,315.69843,20.091803)"
       clip-path="url(#clipPath5)"><tspan
         style="font-style:oblique;font-variant:normal;font-weight:normal;font-size:14px;font-family:Helvetica;writing-mode:lr-tb;fill:#000000;fill-opacity:1;fill-rule:nonzero;stroke:none"
         x="0 7 14.786133 21.786133 24.896484 32.682617 35.792969 43.579102 51.365234 55.254883 65.365234 73.151367 77.813477 84.813477 89.475586 93.365234 101.15137 108.15137"
         y="0"
         sodipodi:role="line"
         id="tspan4">socialnetwork-test</tspan></text>
    <path
       id="path6"
       d="M 251,31 H 521 V 231 H 251 Z"
       style="fill:#ffffff;fill-opacity:1;fill-rule:nonzero;stroke:#000000;stroke-width:1;stroke-linecap:butt;stroke-linejoin:miter;stroke-miterlimit:10;stroke-dasharray:none;stroke-opacity:1"
       transform="matrix(0.9567429,0,0,0.9567429,0.47837145,0.47837145)"
       clip-path="url(#clipPath7)" />
    <path
       id="path8"
       d="M 261,41 H 511 V 61 H 261 Z"
       style="fill:#e1d5e7;fill-opacity:1;fill-rule:nonzero;stroke:#9673a6;stroke-width:1;stroke-linecap:butt;stroke-linejoin:miter;stroke-miterlimit:10;stroke-dasharray:none;stroke-opacity:1"
       transform="matrix(0.9567429,0,0,0.9567429,0.47837145,0.47837145)"
       clip-path="url(#clipPath9)" />
    <text
       id="text9"
       xml:space="preserve"
       transform="matrix(0.9567525,0,0,0.9567525,312.64878,54.534893)"
       clip-path="url(#clipPath10)"><tspan
         style="font-variant:normal;font-weight:700;font-size:15px;font-family:Helvetica;writing-mode:lr-tb;fill:#000000;fill-opacity:1;fill-rule:nonzero;stroke:none"
         x="0 7.1118164 16.274414 25.437012 34.599609 38.76709 42.93457 51.276855 58.388672 62.556152 70.898438 79.240723 88.40332 96.745605 110.08301"
         y="0"
         sodipodi:role="line"
         id="tspan9">&quot;public&quot; schema</tspan></text>
    <path
       id="path11"
       d="m 261,61 h 250 v 60 H 261 Z"
       style="fill:#e1d5e7;fill-opacity:1;fill-rule:nonzero;stroke:#9673a6;stroke-width:1;stroke-linecap:butt;stroke-linejoin:miter;stroke-miterlimit:10;stroke-dasharray:none;stroke-opacity:1"
       transform="matrix(0.9567429,0,0,0.9567429,0.47837145,0.47837145)"
       clip-path="url(#clipPath12)" />
    <path
       id="path13"
       d="m 270,81 h 110 v 20 H 270 Z"
       style="fill:#fff2cc;fill-opacity:1;fill-rule:nonzero;stroke:#d6b656;stroke-width:1;stroke-linecap:butt;stroke-linejoin:miter;stroke-miterlimit:10;stroke-dasharray:none;stroke-opacity:1"
       transform="matrix(0.9567429,0,0,0.9567429,0.47837145,0.47837145)"
       clip-path="url(#clipPath14)" />
    <text
       id="text14"
       xml:space="preserve"
       transform="matrix(0.9567525,0,0,0.9567525,294.93391,91.84824)"
       clip-path="url(#clipPath15)"><tspan
         style="font-variant:normal;font-weight:normal;font-size:14px;font-family:Helvetica;writing-mode:lr-tb;fill:#000000;fill-opacity:1;fill-rule:nonzero;stroke:none"
         x="0 7 14.786133 22.572266 25.682617"
         y="0"
         sodipodi:role="line"
         id="tspan14">Table</tspan></text>
    <path
       id="path16"
       d="m 391,81 h 110 v 20 H 391 Z"
       style="fill:#fff2cc;fill-opacity:1;fill-rule:nonzero;stroke:#d6b656;stroke-width:1;stroke-linecap:butt;stroke-linejoin:miter;stroke-miterlimit:10;stroke-dasharray:none;stroke-opacity:1"
       transform="matrix(0.9567429,0,0,0.9567429,0.47837145,0.47837145)"
       clip-path="url(#clipPath17)" />
    <text
       id="text17"
       xml:space="preserve"
       transform="matrix(0.9567525,0,0,0.9567525,410.70097,91.84824)"
       clip-path="url(#clipPath18)"><tspan
         style="font-variant:normal;font-weight:normal;font-size:14px;font-family:Helvetica;writing-mode:lr-tb;fill:#000000;fill-opacity:1;fill-rule:nonzero;stroke:none"
         x="0 7 14.786133 22.572266 25.682617"
         y="0"
         sodipodi:role="line"
         id="tspan17">Table</tspan></text>
    <path
       id="path19"
       d="m 261,141 h 250 v 20 H 261 Z"
       style="fill:#e1d5e7;fill-opacity:1;fill-rule:nonzero;stroke:#9673a6;stroke-width:1;stroke-linecap:butt;stroke-linejoin:miter;stroke-miterlimit:10;stroke-dasharray:none;stroke-opacity:1"
       transform="matrix(0.9567429,0,0,0.9567429,0.47837145,0.47837145)"
       clip-path="url(#clipPath20)" />
    <text
       id="text20"
       xml:space="preserve"
       transform="matrix(0.9567525,0,0,0.9567525,303.06631,150.21014)"
       clip-path="url(#clipPath21)"><tspan
         style="font-variant:normal;font-weight:700;font-size:15px;font-family:Helvetica;writing-mode:lr-tb;fill:#000000;fill-opacity:1;fill-rule:nonzero;stroke:none"
         x="0 7.1118164 15.454102 23.796387 27.963867 37.126465 45.46875 50.463867 54.631348 58.798828 67.141113 71.308594 78.42041 82.587891 90.930176 99.272461 108.43506 116.77734 130.11475"
         y="0"
         sodipodi:role="line"
         id="tspan20">&quot;asldkfjlkj&quot; schema</tspan></text>
    <path
       id="path22"
       d="m 261,161 h 250 v 60 H 261 Z"
       style="fill:#e1d5e7;fill-opacity:1;fill-rule:nonzero;stroke:#9673a6;stroke-width:1;stroke-linecap:butt;stroke-linejoin:miter;stroke-miterlimit:10;stroke-dasharray:none;stroke-opacity:1"
       transform="matrix(0.9567429,0,0,0.9567429,0.47837145,0.47837145)"
       clip-path="url(#clipPath23)" />
    <path
       id="path24"
       d="m 270,181 h 110 v 20 H 270 Z"
       style="fill:#fff2cc;fill-opacity:1;fill-rule:nonzero;stroke:#d6b656;stroke-width:1;stroke-linecap:butt;stroke-linejoin:miter;stroke-miterlimit:10;stroke-dasharray:none;stroke-opacity:1"
       transform="matrix(0.9567429,0,0,0.9567429,0.47837145,0.47837145)"
       clip-path="url(#clipPath25)" />
    <text
       id="text25"
       xml:space="preserve"
       transform="matrix(0.9567525,0,0,0.9567525,294.93391,187.52349)"
       clip-path="url(#clipPath26)"><tspan
         style="font-variant:normal;font-weight:normal;font-size:14px;font-family:Helvetica;writing-mode:lr-tb;fill:#000000;fill-opacity:1;fill-rule:nonzero;stroke:none"
         x="0 7 14.786133 22.572266 25.682617"
         y="0"
         sodipodi:role="line"
         id="tspan25">Table</tspan></text>
    <path
       id="path27"
       d="m 391,181 h 110 v 20 H 391 Z"
       style="fill:#fff2cc;fill-opacity:1;fill-rule:nonzero;stroke:#d6b656;stroke-width:1;stroke-linecap:butt;stroke-linejoin:miter;stroke-miterlimit:10;stroke-dasharray:none;stroke-opacity:1"
       transform="matrix(0.9567429,0,0,0.9567429,0.47837145,0.47837145)"
       clip-path="url(#clipPath28)" />
    <text
       id="text28"
       xml:space="preserve"
       transform="matrix(0.9567525,0,0,0.9567525,410.70097,187.52349)"
       clip-path="url(#clipPath29)"><tspan
         style="font-variant:normal;font-weight:normal;font-size:14px;font-family:Helvetica;writing-mode:lr-tb;fill:#000000;fill-opacity:1;fill-rule:nonzero;stroke:none"
         x="0 7 14.786133 22.572266 25.682617"
         y="0"
         sodipodi:role="line"
         id="tspan28">Table</tspan></text>
    <path
       id="path30"
       d="m 1,51 h 200 v 50 H 1 Z"
       style="fill:#f5f5f5;fill-opacity:1;fill-rule:nonzero;stroke:#666666;stroke-width:1;stroke-linecap:butt;stroke-linejoin:miter;stroke-miterlimit:10;stroke-dasharray:none;stroke-opacity:1"
       transform="matrix(0.9567429,0,0,0.9567429,0.47837145,0.47837145)"
       clip-path="url(#clipPath31)" />
    <text
       id="text31"
       xml:space="preserve"
       transform="matrix(0.9567525,0,0,0.9567525,15.846213,69.842933)"
       clip-path="url(#clipPath32)"><tspan
         style="font-variant:normal;font-weight:normal;font-size:14px;font-family:Helvetica;writing-mode:lr-tb;fill:#333333;fill-opacity:1;fill-rule:nonzero;stroke:none"
         x="0 9.3378906 16.337891 24.124023 31.910156 43.572266 51.358398 58.358398 62.248047 70.03418 74.696289 82.482422 86.37207 89.482422 92.592773 99.592773 107.37891 111.26855 115.1582 122.94434 126.05469 133.84082 141.62695 146.28906 153.28906 157.17871 161.06836"
         y="0"
         sodipodi:role="line"
         id="tspan31">Schemas are like folders to</tspan></text>
    <text
       id="text32"
       xml:space="preserve"
       transform="matrix(0.9567525,0,0,0.9567525,9.1190473,86.107725)"
       clip-path="url(#clipPath33)"><tspan
         style="font-variant:normal;font-weight:normal;font-size:14px;font-family:Helvetica;writing-mode:lr-tb;fill:#333333;fill-opacity:1;fill-rule:nonzero;stroke:none"
         x="0 7.7861328 12.448242 20.234375 28.020508 35.806641 38.916992 45.916992 53.703125 57.592773 61.482422 69.268555 72.378906 80.165039 87.951172 94.951172 98.84082 101.95117 109.7373 113.62695 121.41309 125.30273 133.08887 140.875 144.76465 152.55078 160.33691 168.12305 175.12305"
         y="0"
         sodipodi:role="line"
         id="tspan32">organize things in a database</tspan></text>
    <path
       id="path34"
       d="m 1,106 h 200 v 50 H 1 Z"
       style="fill:#f5f5f5;fill-opacity:1;fill-rule:nonzero;stroke:#666666;stroke-width:1;stroke-linecap:butt;stroke-linejoin:miter;stroke-miterlimit:10;stroke-dasharray:none;stroke-opacity:1"
       transform="matrix(0.9567429,0,0,0.9567429,0.47837145,0.47837145)"
       clip-path="url(#clipPath35)" />
    <text
       id="text35"
       xml:space="preserve"
       transform="matrix(0.9567525,0,0,0.9567525,8.0128022,122.46432)"
       clip-path="url(#clipPath36)"><tspan
         style="font-variant:normal;font-weight:normal;font-size:14px;font-family:Helvetica;writing-mode:lr-tb;fill:#333333;fill-opacity:1;fill-rule:nonzero;stroke:none"
         x="0 9.3378906 16.337891 24.124023 28.786133 35.786133 39.675781 47.461914 55.248047 59.137695 66.923828 74.709961 82.496094 89.496094 97.282227 101.17188 108.95801 116.74414 120.63379 127.63379 131.52344 139.30957 143.19922 150.98535 158.77148 162.66113 170.44727 178.2334 181.34375"
         y="0"
         sodipodi:role="line"
         id="tspan35">Every database gets a default</tspan></text>
    <text
       id="text36"
       xml:space="preserve"
       transform="matrix(0.9567525,0,0,0.9567525,31.901716,138.72911)"
       clip-path="url(#clipPath37)"><tspan
         style="font-variant:normal;font-weight:normal;font-size:14px;font-family:Helvetica;writing-mode:lr-tb;fill:#333333;fill-opacity:1;fill-rule:nonzero;stroke:none"
         x="0 7 14 21.786133 29.572266 41.234375 49.020508 52.910156 59.910156 67.696289 70.806641 73.916992 81.703125 89.489258 93.378906 96.051758 103.83789 111.62402 119.41016 122.52051 125.63086 132.63086"
         y="0"
         sodipodi:role="line"
         id="tspan36">schema called 'public'</tspan></text>
    <path
       id="path38"
       d="m 1,161 h 200 v 50 H 1 Z"
       style="fill:#f5f5f5;fill-opacity:1;fill-rule:nonzero;stroke:#666666;stroke-width:1;stroke-linecap:butt;stroke-linejoin:miter;stroke-miterlimit:10;stroke-dasharray:none;stroke-opacity:1"
       transform="matrix(0.9567429,0,0,0.9567429,0.47837145,0.47837145)"
       clip-path="url(#clipPath39)" />
    <text
       id="text39"
       xml:space="preserve"
       transform="matrix(0.9567525,0,0,0.9567525,4.3053863,175.08571)"
       clip-path="url(#clipPath40)"><tspan
         style="font-variant:normal;font-weight:normal;font-size:14px;font-family:Helvetica;writing-mode:lr-tb;fill:#333333;fill-opacity:1;fill-rule:nonzero;stroke:none"
         x="0 9.3378906 17.124023 24.124023 31.910156 35.799805 42.799805 49.799805 57.585938 65.37207 77.03418 84.820312 88.709961 95.709961 103.49609 111.28223 115.17188 122.95801 130.74414 137.74414 145.53027 149.41992 152.53027 156.41992 163.41992 167.30957 175.0957 185.20605"
         y="0"
         sodipodi:role="line"
         id="tspan39">Each schema can have its own</tspan></text>
    <text
       id="text40"
       xml:space="preserve"
       transform="matrix(0.9567525,0,0,0.9567525,25.144652,191.3505)"
       clip-path="url(#clipPath41)"><tspan
         style="font-variant:normal;font-weight:normal;font-size:14px;font-family:Helvetica;writing-mode:lr-tb;fill:#333333;fill-opacity:1;fill-rule:nonzero;stroke:none"
         x="0 7 14.786133 22.572266 30.358398 35.020508 42.806641 46.696289 54.482422 58.37207 65.37207 73.158203 80.944336 87.944336 91.833984 99.620117 103.50977 107.39941 115.18555 119.0752 122.96484 130.75098 138.53711 141.64746"
         y="0"
         sodipodi:role="line"
         id="tspan40">separate copy of a table</tspan></text>
  </g>
</svg>
