<?xml version="1.0" encoding="UTF-8" standalone="no"?>
<!-- Created with Inkscape (http://www.inkscape.org/) -->

<svg
   version="1.1"
   id="svg1"
   width="558.71997"
   height="360"
   viewBox="0 0 558.71997 360"
   sodipodi:docname="sql-3.pdf"
   xmlns:inkscape="http://www.inkscape.org/namespaces/inkscape"
   xmlns:sodipodi="http://sodipodi.sourceforge.net/DTD/sodipodi-0.dtd"
   xmlns="http://www.w3.org/2000/svg"
   xmlns:svg="http://www.w3.org/2000/svg">
  <defs
     id="defs1">
    <clipPath
       clipPathUnits="userSpaceOnUse"
       id="clipPath2">
      <path
         d="M 0,0 H 1745.8333 V 1124.0297 H 0 Z"
         transform="scale(0.33451077)"
         clip-rule="evenodd"
         id="path2" />
    </clipPath>
    <clipPath
       clipPathUnits="userSpaceOnUse"
       id="clipPath4">
      <path
         d="M 0,0 H 1745.8333 V 1118.0508 H 0 Z"
         transform="matrix(0.33451077,0,0,0.33451077,-0.50000001,-0.50000001)"
         clip-rule="evenodd"
         id="path4" />
    </clipPath>
    <clipPath
       clipPathUnits="userSpaceOnUse"
       id="clipPath6">
      <path
         d="M 0,0 H 1745.8333 V 1118.0508 H 0 Z"
         transform="matrix(0.33451077,0,0,0.33451077,-0.50000001,-0.50000001)"
         clip-rule="evenodd"
         id="path6" />
    </clipPath>
    <clipPath
       clipPathUnits="userSpaceOnUse"
       id="clipPath7">
      <path
         d="M 0,0 H 1745.8333 V 1118.0508 H 0 Z"
         transform="matrix(0.3345074,0,0,0.3345074,-417.45312,-35)"
         clip-rule="evenodd"
         id="path7" />
    </clipPath>
    <clipPath
       clipPathUnits="userSpaceOnUse"
       id="clipPath9">
      <path
         d="M 0,0 H 1745.8333 V 1118.0508 H 0 Z"
         transform="matrix(0.33451077,0,0,0.33451077,-0.50000001,-0.50000001)"
         clip-rule="evenodd"
         id="path9" />
    </clipPath>
    <clipPath
       clipPathUnits="userSpaceOnUse"
       id="clipPath10">
      <path
         d="M 0,0 H 1745.8333 V 1118.0508 H 0 Z"
         transform="matrix(0.3345074,0,0,0.3345074,-394.96875,-81)"
         clip-rule="evenodd"
         id="path10" />
    </clipPath>
    <clipPath
       clipPathUnits="userSpaceOnUse"
       id="clipPath12">
      <path
         d="M 0,0 H 1745.8333 V 1118.0508 H 0 Z"
         transform="matrix(0.33451077,0,0,0.33451077,-0.50000001,-0.50000001)"
         clip-rule="evenodd"
         id="path12" />
    </clipPath>
    <clipPath
       clipPathUnits="userSpaceOnUse"
       id="clipPath14">
      <path
         d="M 0,0 H 1745.8333 V 1118.0508 H 0 Z"
         transform="matrix(0.33451077,0,0,0.33451077,-0.50000001,-0.50000001)"
         clip-rule="evenodd"
         id="path14" />
    </clipPath>
    <clipPath
       clipPathUnits="userSpaceOnUse"
       id="clipPath15">
      <path
         d="M 0,0 H 1745.8333 V 1118.0508 H 0 Z"
         transform="matrix(0.3345074,0,0,0.3345074,-74.484375,-26.000001)"
         clip-rule="evenodd"
         id="path15" />
    </clipPath>
    <clipPath
       clipPathUnits="userSpaceOnUse"
       id="clipPath16">
      <path
         d="M 0,0 H 1745.8333 V 1118.0508 H 0 Z"
         transform="matrix(0.3345074,0,0,0.3345074,-5.96875,-48)"
         clip-rule="evenodd"
         id="path16" />
    </clipPath>
    <clipPath
       clipPathUnits="userSpaceOnUse"
       id="clipPath17">
      <path
         d="M 0,0 H 1745.8333 V 1118.0508 H 0 Z"
         transform="matrix(0.3345074,0,0,0.3345074,-82.46875,-69)"
         clip-rule="evenodd"
         id="path17" />
    </clipPath>
    <clipPath
       clipPathUnits="userSpaceOnUse"
       id="clipPath19">
      <path
         d="M 0,0 H 1745.8333 V 1118.0508 H 0 Z"
         transform="matrix(0.33451077,0,0,0.33451077,-0.50000001,-0.50000001)"
         clip-rule="evenodd"
         id="path19" />
    </clipPath>
    <clipPath
       clipPathUnits="userSpaceOnUse"
       id="clipPath20">
      <path
         d="M 0,0 H 1745.8333 V 1118.0508 H 0 Z"
         transform="matrix(0.3345074,0,0,0.3345074,-410.20313,-121)"
         clip-rule="evenodd"
         id="path20" />
    </clipPath>
    <clipPath
       clipPathUnits="userSpaceOnUse"
       id="clipPath22">
      <path
         d="M 0,0 H 1745.8333 V 1118.0508 H 0 Z"
         transform="matrix(0.33451077,0,0,0.33451077,-0.50000001,-0.50000001)"
         clip-rule="evenodd"
         id="path22" />
    </clipPath>
    <clipPath
       clipPathUnits="userSpaceOnUse"
       id="clipPath24">
      <path
         d="M 0,0 H 1745.8333 V 1118.0508 H 0 Z"
         transform="matrix(0.33451077,0,0,0.33451077,-0.50000001,-0.50000001)"
         clip-rule="evenodd"
         id="path24" />
    </clipPath>
    <clipPath
       clipPathUnits="userSpaceOnUse"
       id="clipPath25">
      <path
         d="M 0,0 H 1745.8333 V 1118.0508 H 0 Z"
         transform="matrix(0.3345074,0,0,0.3345074,-428.98438,-158)"
         clip-rule="evenodd"
         id="path25" />
    </clipPath>
    <clipPath
       clipPathUnits="userSpaceOnUse"
       id="clipPath27">
      <path
         d="M 0,0 H 1745.8333 V 1118.0508 H 0 Z"
         transform="matrix(0.33451077,0,0,0.33451077,-0.50000001,-0.50000001)"
         clip-rule="evenodd"
         id="path27" />
    </clipPath>
    <clipPath
       clipPathUnits="userSpaceOnUse"
       id="clipPath28">
      <path
         d="M 0,0 H 1745.8333 V 1118.0508 H 0 Z"
         transform="matrix(0.3345074,0,0,0.3345074,-409.89063,-213)"
         clip-rule="evenodd"
         id="path28" />
    </clipPath>
    <clipPath
       clipPathUnits="userSpaceOnUse"
       id="clipPath30">
      <path
         d="M 0,0 H 1745.8333 V 1118.0508 H 0 Z"
         transform="matrix(0.33451077,0,0,0.33451077,-0.50000001,-0.50000001)"
         clip-rule="evenodd"
         id="path30" />
    </clipPath>
    <clipPath
       clipPathUnits="userSpaceOnUse"
       id="clipPath32">
      <path
         d="M 0,0 H 1745.8333 V 1118.0508 H 0 Z"
         transform="matrix(0.33451077,0,0,0.33451077,-0.50000001,-0.50000001)"
         clip-rule="evenodd"
         id="path32" />
    </clipPath>
    <clipPath
       clipPathUnits="userSpaceOnUse"
       id="clipPath33">
      <path
         d="M 0,0 H 1745.8333 V 1118.0508 H 0 Z"
         transform="matrix(0.3345074,0,0,0.3345074,-428.98438,-250)"
         clip-rule="evenodd"
         id="path33" />
    </clipPath>
    <clipPath
       clipPathUnits="userSpaceOnUse"
       id="clipPath35">
      <path
         d="M 0,0 H 1745.8333 V 1118.0508 H 0 Z"
         transform="matrix(0.33451077,0,0,0.33451077,-0.50000001,-0.50000001)"
         clip-rule="evenodd"
         id="path35" />
    </clipPath>
    <clipPath
       clipPathUnits="userSpaceOnUse"
       id="clipPath36">
      <path
         d="M 0,0 H 1745.8333 V 1118.0508 H 0 Z"
         transform="matrix(0.3345074,0,0,0.3345074,-409.89063,-303)"
         clip-rule="evenodd"
         id="path36" />
    </clipPath>
    <clipPath
       clipPathUnits="userSpaceOnUse"
       id="clipPath38">
      <path
         d="M 0,0 H 1745.8333 V 1118.0508 H 0 Z"
         transform="matrix(0.33451077,0,0,0.33451077,-0.50000001,-0.50000001)"
         clip-rule="evenodd"
         id="path38" />
    </clipPath>
    <clipPath
       clipPathUnits="userSpaceOnUse"
       id="clipPath40">
      <path
         d="M 0,0 H 1745.8333 V 1118.0508 H 0 Z"
         transform="matrix(0.33451077,0,0,0.33451077,-0.50000001,-0.50000001)"
         clip-rule="evenodd"
         id="path40" />
    </clipPath>
    <clipPath
       clipPathUnits="userSpaceOnUse"
       id="clipPath41">
      <path
         d="M 0,0 H 1745.8333 V 1118.0508 H 0 Z"
         transform="matrix(0.3345074,0,0,0.3345074,-428.98438,-340)"
         clip-rule="evenodd"
         id="path41" />
    </clipPath>
    <clipPath
       clipPathUnits="userSpaceOnUse"
       id="clipPath43">
      <path
         d="M 0,0 H 1745.8333 V 1118.0508 H 0 Z"
         transform="matrix(0.33451077,0,0,0.33451077,-0.50000001,-0.50000001)"
         clip-rule="evenodd"
         id="path43" />
    </clipPath>
    <clipPath
       clipPathUnits="userSpaceOnUse"
       id="clipPath45">
      <path
         d="M 0,0 H 1745.8333 V 1118.0508 H 0 Z"
         transform="matrix(0.33451077,0,0,0.33451077,-0.50000001,-0.50000001)"
         clip-rule="evenodd"
         id="path45" />
    </clipPath>
    <clipPath
       clipPathUnits="userSpaceOnUse"
       id="clipPath47">
      <path
         d="M 0,0 H 1745.8333 V 1118.0508 H 0 Z"
         transform="matrix(0.33451077,0,0,0.33451077,-0.50000001,-0.50000001)"
         clip-rule="evenodd"
         id="path47" />
    </clipPath>
    <clipPath
       clipPathUnits="userSpaceOnUse"
       id="clipPath48">
      <path
         d="M 0,0 H 1745.8333 V 1118.0508 H 0 Z"
         transform="matrix(0.3345074,0,0,0.3345074,-155.64062,-157)"
         clip-rule="evenodd"
         id="path48" />
    </clipPath>
    <clipPath
       clipPathUnits="userSpaceOnUse"
       id="clipPath50">
      <path
         d="M 0,0 H 1745.8333 V 1118.0508 H 0 Z"
         transform="matrix(0.33451077,0,0,0.33451077,-0.50000001,-0.50000001)"
         clip-rule="evenodd"
         id="path50" />
    </clipPath>
    <clipPath
       clipPathUnits="userSpaceOnUse"
       id="clipPath52">
      <path
         d="M 0,0 H 1745.8333 V 1118.0508 H 0 Z"
         transform="matrix(0.33451077,0,0,0.33451077,-0.50000001,-0.50000001)"
         clip-rule="evenodd"
         id="path52" />
    </clipPath>
    <clipPath
       clipPathUnits="userSpaceOnUse"
       id="clipPath54">
      <path
         d="M 0,0 H 1745.8333 V 1118.0508 H 0 Z"
         transform="matrix(0.33451077,0,0,0.33451077,-0.50000001,-0.50000001)"
         clip-rule="evenodd"
         id="path54" />
    </clipPath>
    <clipPath
       clipPathUnits="userSpaceOnUse"
       id="clipPath55">
      <path
         d="M 0,0 H 1745.8333 V 1118.0508 H 0 Z"
         transform="matrix(0.3345074,0,0,0.3345074,-139.59375,-249)"
         clip-rule="evenodd"
         id="path55" />
    </clipPath>
    <clipPath
       clipPathUnits="userSpaceOnUse"
       id="clipPath57">
      <path
         d="M 0,0 H 1745.8333 V 1118.0508 H 0 Z"
         transform="matrix(0.33451077,0,0,0.33451077,-0.50000001,-0.50000001)"
         clip-rule="evenodd"
         id="path57" />
    </clipPath>
    <clipPath
       clipPathUnits="userSpaceOnUse"
       id="clipPath59">
      <path
         d="M 0,0 H 1745.8333 V 1118.0508 H 0 Z"
         transform="matrix(0.33451077,0,0,0.33451077,-0.50000001,-0.50000001)"
         clip-rule="evenodd"
         id="path59" />
    </clipPath>
    <clipPath
       clipPathUnits="userSpaceOnUse"
       id="clipPath61">
      <path
         d="M 0,0 H 1745.8333 V 1118.0508 H 0 Z"
         transform="matrix(0.33451077,0,0,0.33451077,-0.50000001,-0.50000001)"
         clip-rule="evenodd"
         id="path61" />
    </clipPath>
    <clipPath
       clipPathUnits="userSpaceOnUse"
       id="clipPath62">
      <path
         d="M 0,0 H 1745.8333 V 1118.0508 H 0 Z"
         transform="matrix(0.3345074,0,0,0.3345074,-133.43751,-339)"
         clip-rule="evenodd"
         id="path62" />
    </clipPath>
  </defs>
  <sodipodi:namedview
     id="namedview1"
     pagecolor="#ffffff"
     bordercolor="#000000"
     borderopacity="0.25"
     inkscape:showpageshadow="2"
     inkscape:pageopacity="0.0"
     inkscape:pagecheckerboard="0"
     inkscape:deskcolor="#d1d1d1">
    <inkscape:page
       x="0"
       y="0"
       inkscape:label="1"
       id="page1"
       width="558.71997"
       height="360"
       margin="0"
       bleed="0" />
  </sodipodi:namedview>
  <g
     id="g1"
     inkscape:groupmode="layer"
     inkscape:label="1">
    <path
       id="path1"
       d="M 0,0 H 584 V 376 H 0 Z"
       style="fill:#ffffff;fill-opacity:1;fill-rule:nonzero;stroke:none"
       transform="scale(0.95662089)"
       clip-path="url(#clipPath2)" />
    <path
       id="path3"
       d="M 321,46 H 581 V 371 H 321 Z"
       style="fill:#d5e8d4;fill-opacity:1;fill-rule:nonzero;stroke:#82b366;stroke-width:1;stroke-linecap:butt;stroke-linejoin:miter;stroke-miterlimit:10;stroke-dasharray:none;stroke-opacity:1"
       transform="matrix(0.95662089,0,0,0.95662089,0.47831045,0.47831045)"
       clip-path="url(#clipPath4)" />
    <path
       id="path5"
       d="M 321,11 H 581 V 46 H 321 Z"
       style="fill:#d5e8d4;fill-opacity:1;fill-rule:nonzero;stroke:#82b366;stroke-width:1;stroke-linecap:butt;stroke-linejoin:miter;stroke-miterlimit:10;stroke-dasharray:none;stroke-opacity:1"
       transform="matrix(0.95662089,0,0,0.95662089,0.47831045,0.47831045)"
       clip-path="url(#clipPath6)" />
    <text
       id="text6"
       xml:space="preserve"
       transform="matrix(0.95663052,0,0,0.95663052,399.3484,33.482068)"
       clip-path="url(#clipPath7)"><tspan
         style="font-variant:normal;font-weight:normal;font-size:17px;font-family:Helvetica;writing-mode:lr-tb;fill:#000000;fill-opacity:1;fill-rule:nonzero;stroke:none"
         x="0 11.338867 20.793457 29.293457 34.016602 43.471191 49.132324 58.586914"
         y="0"
         sodipodi:role="line"
         id="tspan6">Postgres</tspan></text>
    <path
       id="path8"
       d="M 331,61 H 571 V 91 H 331 Z"
       style="fill:#ffffff;fill-opacity:1;fill-rule:nonzero;stroke:#000000;stroke-width:1;stroke-linecap:butt;stroke-linejoin:miter;stroke-miterlimit:10;stroke-dasharray:none;stroke-opacity:1"
       transform="matrix(0.95662089,0,0,0.95662089,0.47831045,0.47831045)"
       clip-path="url(#clipPath9)" />
    <text
       id="text9"
       xml:space="preserve"
       transform="matrix(0.95663052,0,0,0.95663052,377.83916,77.487072)"
       clip-path="url(#clipPath10)"><tspan
         style="font-style:oblique;font-variant:normal;font-weight:normal;font-size:14px;font-family:Helvetica;writing-mode:lr-tb;fill:#000000;fill-opacity:1;fill-rule:nonzero;stroke:none"
         x="0 7 14.786133 21.786133 24.896484 32.682617 35.792969 43.579102 51.365234 55.254883 65.365234 73.151367 77.813477 84.813477 89.475586 93.365234 101.15137 108.15137"
         y="0"
         sodipodi:role="line"
         id="tspan9">socialnetwork-test</tspan></text>
    <path
       id="path11"
       d="M 331,91 H 571 V 361 H 331 Z"
       style="fill:#ffffff;fill-opacity:1;fill-rule:nonzero;stroke:#000000;stroke-width:1;stroke-linecap:butt;stroke-linejoin:miter;stroke-miterlimit:10;stroke-dasharray:none;stroke-opacity:1"
       transform="matrix(0.95662089,0,0,0.95662089,0.47831045,0.47831045)"
       clip-path="url(#clipPath12)" />
    <path
       id="path13"
       d="M 1,1 H 231 V 81 H 1 Z"
       style="fill:#f8cecc;fill-opacity:1;fill-rule:nonzero;stroke:#b85450;stroke-width:1;stroke-linecap:butt;stroke-linejoin:miter;stroke-miterlimit:10;stroke-dasharray:none;stroke-opacity:1"
       transform="matrix(0.95662089,0,0,0.95662089,0.47831045,0.47831045)"
       clip-path="url(#clipPath14)" />
    <text
       id="text14"
       xml:space="preserve"
       transform="matrix(0.95663052,0,0,0.95663052,71.254026,24.872394)"
       clip-path="url(#clipPath15)"><tspan
         style="font-variant:normal;font-weight:700;font-size:18px;font-family:Helvetica;writing-mode:lr-tb;fill:#000000;fill-opacity:1;fill-rule:nonzero;stroke:none"
         x="0 14.000977 24.996094 30.990234 35.991211 46.986328 57.981445 62.982422 72.993164"
         y="0"
         sodipodi:role="line"
         id="tspan14">Option #2</tspan></text>
    <g
       id="g15" />
    <text
       id="text15"
       xml:space="preserve"
       transform="matrix(0.95663052,0,0,0.95663052,5.7098884,45.918265)"
       clip-path="url(#clipPath16)"><tspan
         style="font-variant:normal;font-weight:700;font-size:18px;font-family:Helvetica;writing-mode:lr-tb;fill:#000000;fill-opacity:1;fill-rule:nonzero;stroke:none"
         x="0 12.005859 22.016602 32.027344 43.022461 48.023438 54.017578 64.02832 74.039062 80.033203 85.03418 96.029297 101.03027 111.04102 116.04199 127.03711 137.04785 143.04199 153.05273 158.05371 163.05469 169.04883 179.05957 184.06055 195.05566 209.05664"
         y="0"
         sodipodi:role="line"
         id="tspan15">Each test ﬁle gets its own</tspan></text>
    <text
       id="text16"
       xml:space="preserve"
       transform="matrix(0.95663052,0,0,0.95663052,78.892123,66.007506)"
       clip-path="url(#clipPath17)"><tspan
         style="font-variant:normal;font-weight:700;font-size:18px;font-family:Helvetica;writing-mode:lr-tb;fill:#000000;fill-opacity:1;fill-rule:nonzero;stroke:none"
         x="0 10.010742 20.021484 31.016602 41.027344 57.032227"
         y="0"
         sodipodi:role="line"
         id="tspan16">schema</tspan></text>
    <path
       id="path18"
       d="m 341,99 h 220 v 32 H 341 Z"
       style="fill:#e1d5e7;fill-opacity:1;fill-rule:nonzero;stroke:#9673a6;stroke-width:1;stroke-linecap:butt;stroke-linejoin:miter;stroke-miterlimit:10;stroke-dasharray:none;stroke-opacity:1"
       transform="matrix(0.95662089,0,0,0.95662089,0.47831045,0.47831045)"
       clip-path="url(#clipPath19)" />
    <text
       id="text19"
       xml:space="preserve"
       transform="matrix(0.95663052,0,0,0.95663052,392.41283,115.75229)"
       clip-path="url(#clipPath20)"><tspan
         style="font-variant:normal;font-weight:700;font-size:17px;font-family:Helvetica;writing-mode:lr-tb;fill:#000000;fill-opacity:1;fill-rule:nonzero;stroke:none"
         x="0 11.338867 20.793457 31.177734 40.632324 55.748047 65.202637 69.303223"
         y="0"
         sodipodi:role="line"
         id="tspan19">Schema A</tspan></text>
    <path
       id="path21"
       d="m 341,131 h 220 v 40 H 341 Z"
       style="fill:#e1d5e7;fill-opacity:1;fill-rule:nonzero;stroke:#9673a6;stroke-width:1;stroke-linecap:butt;stroke-linejoin:miter;stroke-miterlimit:10;stroke-dasharray:none;stroke-opacity:1"
       transform="matrix(0.95662089,0,0,0.95662089,0.47831045,0.47831045)"
       clip-path="url(#clipPath22)" />
    <path
       id="path23"
       d="m 391,136 h 120 v 30 H 391 Z"
       style="fill:#fff2cc;fill-opacity:1;fill-rule:nonzero;stroke:#d6b656;stroke-width:1;stroke-linecap:butt;stroke-linejoin:miter;stroke-miterlimit:10;stroke-dasharray:none;stroke-opacity:1"
       transform="matrix(0.95662089,0,0,0.95662089,0.47831045,0.47831045)"
       clip-path="url(#clipPath24)" />
    <text
       id="text24"
       xml:space="preserve"
       transform="matrix(0.95663052,0,0,0.95663052,410.37955,151.14762)"
       clip-path="url(#clipPath25)"><tspan
         style="font-variant:normal;font-weight:normal;font-size:18px;font-family:Helvetica;writing-mode:lr-tb;fill:#000000;fill-opacity:1;fill-rule:nonzero;stroke:none"
         x="0 10.010742 19.010742 29.021484 35.015625"
         y="0"
         sodipodi:role="line"
         id="tspan24">users</tspan></text>
    <path
       id="path26"
       d="m 341,191 h 220 v 32 H 341 Z"
       style="fill:#e1d5e7;fill-opacity:1;fill-rule:nonzero;stroke:#9673a6;stroke-width:1;stroke-linecap:butt;stroke-linejoin:miter;stroke-miterlimit:10;stroke-dasharray:none;stroke-opacity:1"
       transform="matrix(0.95662089,0,0,0.95662089,0.47831045,0.47831045)"
       clip-path="url(#clipPath27)" />
    <text
       id="text27"
       xml:space="preserve"
       transform="matrix(0.95663052,0,0,0.95663052,392.11389,203.7623)"
       clip-path="url(#clipPath28)"><tspan
         style="font-variant:normal;font-weight:700;font-size:17px;font-family:Helvetica;writing-mode:lr-tb;fill:#000000;fill-opacity:1;fill-rule:nonzero;stroke:none"
         x="0 11.338867 20.793457 31.177734 40.632324 55.748047 65.202637 69.925781"
         y="0"
         sodipodi:role="line"
         id="tspan27">Schema B</tspan></text>
    <path
       id="path29"
       d="m 341,223 h 220 v 40 H 341 Z"
       style="fill:#e1d5e7;fill-opacity:1;fill-rule:nonzero;stroke:#9673a6;stroke-width:1;stroke-linecap:butt;stroke-linejoin:miter;stroke-miterlimit:10;stroke-dasharray:none;stroke-opacity:1"
       transform="matrix(0.95662089,0,0,0.95662089,0.47831045,0.47831045)"
       clip-path="url(#clipPath30)" />
    <path
       id="path31"
       d="m 391,228 h 120 v 30 H 391 Z"
       style="fill:#fff2cc;fill-opacity:1;fill-rule:nonzero;stroke:#d6b656;stroke-width:1;stroke-linecap:butt;stroke-linejoin:miter;stroke-miterlimit:10;stroke-dasharray:none;stroke-opacity:1"
       transform="matrix(0.95662089,0,0,0.95662089,0.47831045,0.47831045)"
       clip-path="url(#clipPath32)" />
    <text
       id="text32"
       xml:space="preserve"
       transform="matrix(0.95663052,0,0,0.95663052,410.37955,239.15763)"
       clip-path="url(#clipPath33)"><tspan
         style="font-variant:normal;font-weight:normal;font-size:18px;font-family:Helvetica;writing-mode:lr-tb;fill:#000000;fill-opacity:1;fill-rule:nonzero;stroke:none"
         x="0 10.010742 19.010742 29.021484 35.015625"
         y="0"
         sodipodi:role="line"
         id="tspan32">users</tspan></text>
    <path
       id="path34"
       d="m 341,281 h 220 v 32 H 341 Z"
       style="fill:#e1d5e7;fill-opacity:1;fill-rule:nonzero;stroke:#9673a6;stroke-width:1;stroke-linecap:butt;stroke-linejoin:miter;stroke-miterlimit:10;stroke-dasharray:none;stroke-opacity:1"
       transform="matrix(0.95662089,0,0,0.95662089,0.47831045,0.47831045)"
       clip-path="url(#clipPath35)" />
    <text
       id="text35"
       xml:space="preserve"
       transform="matrix(0.95663052,0,0,0.95663052,392.11389,289.85905)"
       clip-path="url(#clipPath36)"><tspan
         style="font-variant:normal;font-weight:700;font-size:17px;font-family:Helvetica;writing-mode:lr-tb;fill:#000000;fill-opacity:1;fill-rule:nonzero;stroke:none"
         x="0 11.338867 20.793457 31.177734 40.632324 55.748047 65.202637 69.925781"
         y="0"
         sodipodi:role="line"
         id="tspan35">Schema C</tspan></text>
    <path
       id="path37"
       d="m 341,313 h 220 v 40 H 341 Z"
       style="fill:#e1d5e7;fill-opacity:1;fill-rule:nonzero;stroke:#9673a6;stroke-width:1;stroke-linecap:butt;stroke-linejoin:miter;stroke-miterlimit:10;stroke-dasharray:none;stroke-opacity:1"
       transform="matrix(0.95662089,0,0,0.95662089,0.47831045,0.47831045)"
       clip-path="url(#clipPath38)" />
    <path
       id="path39"
       d="m 391,318 h 120 v 30 H 391 Z"
       style="fill:#fff2cc;fill-opacity:1;fill-rule:nonzero;stroke:#d6b656;stroke-width:1;stroke-linecap:butt;stroke-linejoin:miter;stroke-miterlimit:10;stroke-dasharray:none;stroke-opacity:1"
       transform="matrix(0.95662089,0,0,0.95662089,0.47831045,0.47831045)"
       clip-path="url(#clipPath40)" />
    <text
       id="text40"
       xml:space="preserve"
       transform="matrix(0.95663052,0,0,0.95663052,410.37955,325.25438)"
       clip-path="url(#clipPath41)"><tspan
         style="font-variant:normal;font-weight:normal;font-size:18px;font-family:Helvetica;writing-mode:lr-tb;fill:#000000;fill-opacity:1;fill-rule:nonzero;stroke:none"
         x="0 10.010742 19.010742 29.021484 35.015625"
         y="0"
         sodipodi:role="line"
         id="tspan40">users</tspan></text>
    <path
       id="path42"
       d="M 281,151 H 384.64001"
       style="fill:none;stroke:#000000;stroke-width:1;stroke-linecap:butt;stroke-linejoin:miter;stroke-miterlimit:10;stroke-dasharray:none;stroke-opacity:1"
       transform="matrix(0.95662089,0,0,0.95662089,0.47831045,0.47831045)"
       clip-path="url(#clipPath43)" />
    <path
       id="path44"
       d="m 389.89001,151 -7,3.5 1.75,-3.5 -1.75,-3.5 z"
       style="fill:#000000;fill-opacity:1;fill-rule:nonzero;stroke:#000000;stroke-width:1;stroke-linecap:butt;stroke-linejoin:miter;stroke-miterlimit:10;stroke-dasharray:none;stroke-opacity:1"
       transform="matrix(0.95662089,0,0,0.95662089,0.47831045,0.47831045)"
       clip-path="url(#clipPath45)" />
    <path
       id="path46"
       d="m 121,126 h 160 v 50 H 121 Z"
       style="fill:#dae8fc;fill-opacity:1;fill-rule:nonzero;stroke:#6c8ebf;stroke-width:1;stroke-linecap:butt;stroke-linejoin:miter;stroke-miterlimit:10;stroke-dasharray:none;stroke-opacity:1"
       transform="matrix(0.95662089,0,0,0.95662089,0.47831045,0.47831045)"
       clip-path="url(#clipPath47)" />
    <text
       id="text47"
       xml:space="preserve"
       transform="matrix(0.95663052,0,0,0.95663052,148.89057,150.19099)"
       clip-path="url(#clipPath48)"><tspan
         style="font-variant:normal;font-weight:normal;font-size:17px;font-family:Helvetica;writing-mode:lr-tb;fill:#000000;fill-opacity:1;fill-rule:nonzero;stroke:none"
         x="0 9.4545898 17.95459 27.40918 33.070312 41.570312 46.293457 51.016602 60.471191 68.971191 73.694336 78.41748 82.194336"
         y="0"
         sodipodi:role="line"
         id="tspan47">users.test.js</tspan></text>
    <path
       id="path49"
       d="M 281,243 H 384.64001"
       style="fill:none;stroke:#000000;stroke-width:1;stroke-linecap:butt;stroke-linejoin:miter;stroke-miterlimit:10;stroke-dasharray:none;stroke-opacity:1"
       transform="matrix(0.95662089,0,0,0.95662089,0.47831045,0.47831045)"
       clip-path="url(#clipPath50)" />
    <path
       id="path51"
       d="m 389.89001,243 -7,3.5 1.75,-3.5 -1.75,-3.5 z"
       style="fill:#000000;fill-opacity:1;fill-rule:nonzero;stroke:#000000;stroke-width:1;stroke-linecap:butt;stroke-linejoin:miter;stroke-miterlimit:10;stroke-dasharray:none;stroke-opacity:1"
       transform="matrix(0.95662089,0,0,0.95662089,0.47831045,0.47831045)"
       clip-path="url(#clipPath52)" />
    <path
       id="path53"
       d="m 121,218 h 160 v 50 H 121 Z"
       style="fill:#dae8fc;fill-opacity:1;fill-rule:nonzero;stroke:#6c8ebf;stroke-width:1;stroke-linecap:butt;stroke-linejoin:miter;stroke-miterlimit:10;stroke-dasharray:none;stroke-opacity:1"
       transform="matrix(0.95662089,0,0,0.95662089,0.47831045,0.47831045)"
       clip-path="url(#clipPath54)" />
    <text
       id="text54"
       xml:space="preserve"
       transform="matrix(0.95663052,0,0,0.95663052,133.53964,238.201)"
       clip-path="url(#clipPath55)"><tspan
         style="font-variant:normal;font-weight:normal;font-size:17px;font-family:Helvetica;writing-mode:lr-tb;fill:#000000;fill-opacity:1;fill-rule:nonzero;stroke:none"
         x="0 9.4545898 17.95459 27.40918 33.070312 41.570312 47.231445 51.95459 64.231445 73.686035 78.40918 83.132324 92.586914 101.08691 105.81006 110.5332 114.31006"
         y="0"
         sodipodi:role="line"
         id="tspan54">users-two.test.js</tspan></text>
    <path
       id="path56"
       d="M 281,333 H 384.64001"
       style="fill:none;stroke:#000000;stroke-width:1;stroke-linecap:butt;stroke-linejoin:miter;stroke-miterlimit:10;stroke-dasharray:none;stroke-opacity:1"
       transform="matrix(0.95662089,0,0,0.95662089,0.47831045,0.47831045)"
       clip-path="url(#clipPath57)" />
    <path
       id="path58"
       d="m 389.89001,333 -7,3.5 1.75,-3.5 -1.75,-3.5 z"
       style="fill:#000000;fill-opacity:1;fill-rule:nonzero;stroke:#000000;stroke-width:1;stroke-linecap:butt;stroke-linejoin:miter;stroke-miterlimit:10;stroke-dasharray:none;stroke-opacity:1"
       transform="matrix(0.95662089,0,0,0.95662089,0.47831045,0.47831045)"
       clip-path="url(#clipPath59)" />
    <path
       id="path60"
       d="m 121,308 h 160 v 50 H 121 Z"
       style="fill:#dae8fc;fill-opacity:1;fill-rule:nonzero;stroke:#6c8ebf;stroke-width:1;stroke-linecap:butt;stroke-linejoin:miter;stroke-miterlimit:10;stroke-dasharray:none;stroke-opacity:1"
       transform="matrix(0.95662089,0,0,0.95662089,0.47831045,0.47831045)"
       clip-path="url(#clipPath61)" />
    <text
       id="text61"
       xml:space="preserve"
       transform="matrix(0.95663052,0,0,0.95663052,127.65039,324.29775)"
       clip-path="url(#clipPath62)"><tspan
         style="font-variant:normal;font-weight:normal;font-size:17px;font-family:Helvetica;writing-mode:lr-tb;fill:#000000;fill-opacity:1;fill-rule:nonzero;stroke:none"
         x="0 9.4545898 17.95459 27.40918 33.070312 41.570312 47.231445 51.95459 61.40918 67.070312 76.524902 85.979492 90.702637 95.425781 104.88037 113.38037 118.10352 122.82666 126.60352"
         y="0"
         sodipodi:role="line"
         id="tspan61">users-three.test.js</tspan></text>
  </g>
</svg>
