<?xml version="1.0" encoding="UTF-8" standalone="no"?>
<!-- Created with Inkscape (http://www.inkscape.org/) -->

<svg
   version="1.1"
   id="svg1"
   width="476.16"
   height="285.44"
   viewBox="0 0 476.16 285.44"
   sodipodi:docname="sql-9.pdf"
   xmlns:inkscape="http://www.inkscape.org/namespaces/inkscape"
   xmlns:sodipodi="http://sodipodi.sourceforge.net/DTD/sodipodi-0.dtd"
   xmlns="http://www.w3.org/2000/svg"
   xmlns:svg="http://www.w3.org/2000/svg">
  <defs
     id="defs1">
    <clipPath
       clipPathUnits="userSpaceOnUse"
       id="clipPath2">
      <path
         d="M 0,0 H 1487.5 V 888.90845 H 0 Z"
         transform="scale(0.33411764)"
         clip-rule="evenodd"
         id="path2" />
    </clipPath>
    <clipPath
       clipPathUnits="userSpaceOnUse"
       id="clipPath4">
      <path
         d="M 0,0 H 1487.5 V 885.91553 H 0 Z"
         transform="matrix(0.33411764,0,0,0.33411764,-0.5,-0.5)"
         clip-rule="evenodd"
         id="path4" />
    </clipPath>
    <clipPath
       clipPathUnits="userSpaceOnUse"
       id="clipPath5">
      <path
         d="M 0,0 H 1487.5 V 885.91553 H 0 Z"
         transform="matrix(0.33411428,0,0,0.33411428,-26.703125,-243)"
         clip-rule="evenodd"
         id="path5" />
    </clipPath>
    <clipPath
       clipPathUnits="userSpaceOnUse"
       id="clipPath7">
      <path
         d="M 0,0 H 1487.5 V 885.91553 H 0 Z"
         transform="matrix(0.33411764,0,0,0.33411764,-0.5,-0.5)"
         clip-rule="evenodd"
         id="path7" />
    </clipPath>
    <clipPath
       clipPathUnits="userSpaceOnUse"
       id="clipPath9">
      <path
         d="M 0,0 H 1487.5 V 885.91553 H 0 Z"
         transform="matrix(0.33411764,0,0,0.33411764,-0.5,-0.5)"
         clip-rule="evenodd"
         id="path9" />
    </clipPath>
    <clipPath
       clipPathUnits="userSpaceOnUse"
       id="clipPath10">
      <path
         d="M 0,0 H 1487.5 V 885.91553 H 0 Z"
         transform="matrix(0.33411428,0,0,0.33411428,-65.984375,-279.99999)"
         clip-rule="evenodd"
         id="path10" />
    </clipPath>
    <clipPath
       clipPathUnits="userSpaceOnUse"
       id="clipPath12">
      <path
         d="M 0,0 H 1487.5 V 885.91553 H 0 Z"
         transform="matrix(0.33411764,0,0,0.33411764,-0.5,-0.5)"
         clip-rule="evenodd"
         id="path12" />
    </clipPath>
    <clipPath
       clipPathUnits="userSpaceOnUse"
       id="clipPath13">
      <path
         d="M 0,0 H 1487.5 V 885.91553 H 0 Z"
         transform="matrix(0.33411428,0,0,0.33411428,-265.21875,-243)"
         clip-rule="evenodd"
         id="path13" />
    </clipPath>
    <clipPath
       clipPathUnits="userSpaceOnUse"
       id="clipPath15">
      <path
         d="M 0,0 H 1487.5 V 885.91553 H 0 Z"
         transform="matrix(0.33411764,0,0,0.33411764,-0.5,-0.5)"
         clip-rule="evenodd"
         id="path15" />
    </clipPath>
    <clipPath
       clipPathUnits="userSpaceOnUse"
       id="clipPath17">
      <path
         d="M 0,0 H 1487.5 V 885.91553 H 0 Z"
         transform="matrix(0.33411764,0,0,0.33411764,-0.5,-0.5)"
         clip-rule="evenodd"
         id="path17" />
    </clipPath>
    <clipPath
       clipPathUnits="userSpaceOnUse"
       id="clipPath18">
      <path
         d="M 0,0 H 1487.5 V 885.91553 H 0 Z"
         transform="matrix(0.33411428,0,0,0.33411428,-295.98438,-279.99999)"
         clip-rule="evenodd"
         id="path18" />
    </clipPath>
    <clipPath
       clipPathUnits="userSpaceOnUse"
       id="clipPath20">
      <path
         d="M 0,0 H 1487.5 V 885.91553 H 0 Z"
         transform="matrix(0.33411764,0,0,0.33411764,-0.5,-0.5)"
         clip-rule="evenodd"
         id="path20" />
    </clipPath>
    <clipPath
       clipPathUnits="userSpaceOnUse"
       id="clipPath22">
      <path
         d="M 0,0 H 1487.5 V 885.91553 H 0 Z"
         transform="matrix(0.33411764,0,0,0.33411764,-0.5,-0.5)"
         clip-rule="evenodd"
         id="path22" />
    </clipPath>
    <clipPath
       clipPathUnits="userSpaceOnUse"
       id="clipPath24">
      <path
         d="M 0,0 H 1487.5 V 885.91553 H 0 Z"
         transform="matrix(0.33411764,0,0,0.33411764,-0.5,-0.5)"
         clip-rule="evenodd"
         id="path24" />
    </clipPath>
    <clipPath
       clipPathUnits="userSpaceOnUse"
       id="clipPath25">
      <path
         d="M 0,0 H 1487.5 V 885.91553 H 0 Z"
         transform="matrix(0.33411428,0,0,0.33411428,-97.421875,-33)"
         clip-rule="evenodd"
         id="path25" />
    </clipPath>
    <clipPath
       clipPathUnits="userSpaceOnUse"
       id="clipPath27">
      <path
         d="M 0,0 H 1487.5 V 885.91553 H 0 Z"
         transform="matrix(0.33411764,0,0,0.33411764,-0.5,-0.5)"
         clip-rule="evenodd"
         id="path27" />
    </clipPath>
    <clipPath
       clipPathUnits="userSpaceOnUse"
       id="clipPath29">
      <path
         d="M 0,0 H 1487.5 V 885.91553 H 0 Z"
         transform="matrix(0.33411764,0,0,0.33411764,-0.5,-0.5)"
         clip-rule="evenodd"
         id="path29" />
    </clipPath>
    <clipPath
       clipPathUnits="userSpaceOnUse"
       id="clipPath31">
      <path
         d="M 0,0 H 1487.5 V 885.91553 H 0 Z"
         transform="matrix(0.33411764,0,0,0.33411764,-0.5,-0.5)"
         clip-rule="evenodd"
         id="path31" />
    </clipPath>
    <clipPath
       clipPathUnits="userSpaceOnUse"
       id="clipPath33">
      <path
         d="M 0,0 H 1487.5 V 885.91553 H 0 Z"
         transform="matrix(0.33411764,0,0,0.33411764,-0.5,-0.5)"
         clip-rule="evenodd"
         id="path33" />
    </clipPath>
    <clipPath
       clipPathUnits="userSpaceOnUse"
       id="clipPath35">
      <path
         d="M 0,0 H 1487.5 V 885.91553 H 0 Z"
         transform="matrix(0.33411764,0,0,0.33411764,-0.5,-0.5)"
         clip-rule="evenodd"
         id="path35" />
    </clipPath>
    <clipPath
       clipPathUnits="userSpaceOnUse"
       id="clipPath36">
      <path
         d="M 0,0 H 1487.5 V 885.91553 H 0 Z"
         transform="matrix(0.33411428,0,0,0.33411428,-123.53125,-131)"
         clip-rule="evenodd"
         id="path36" />
    </clipPath>
    <clipPath
       clipPathUnits="userSpaceOnUse"
       id="clipPath37">
      <path
         d="M 0,0 H 1487.5 V 885.91553 H 0 Z"
         transform="matrix(0.33411428,0,0,0.33411428,-347,-123)"
         clip-rule="evenodd"
         id="path37" />
    </clipPath>
    <clipPath
       clipPathUnits="userSpaceOnUse"
       id="clipPath38">
      <path
         d="M 0,0 H 1487.5 V 885.91553 H 0 Z"
         transform="matrix(0.33411428,0,0,0.33411428,-347,-140)"
         clip-rule="evenodd"
         id="path38" />
    </clipPath>
  </defs>
  <sodipodi:namedview
     id="namedview1"
     pagecolor="#ffffff"
     bordercolor="#000000"
     borderopacity="0.25"
     inkscape:showpageshadow="2"
     inkscape:pageopacity="0.0"
     inkscape:pagecheckerboard="0"
     inkscape:deskcolor="#d1d1d1">
    <inkscape:page
       x="0"
       y="0"
       inkscape:label="1"
       id="page1"
       width="476.16"
       height="285.44"
       margin="0"
       bleed="0" />
  </sodipodi:namedview>
  <g
     id="g1"
     inkscape:groupmode="layer"
     inkscape:label="1">
    <path
       id="path1"
       d="M 0,0 H 497 V 297 H 0 Z"
       style="fill:#ffffff;fill-opacity:1;fill-rule:nonzero;stroke:none"
       transform="scale(0.95774646)"
       clip-path="url(#clipPath2)" />
    <path
       id="path3"
       d="m 0.5,221 h 175 v 32 H 0.5 Z"
       style="fill:#e1d5e7;fill-opacity:1;fill-rule:nonzero;stroke:#9673a6;stroke-width:1;stroke-linecap:butt;stroke-linejoin:miter;stroke-miterlimit:10;stroke-dasharray:none;stroke-opacity:1"
       transform="matrix(0.95774646,0,0,0.95774646,0.47887323,0.47887323)"
       clip-path="url(#clipPath4)" />
    <text
       id="text4"
       xml:space="preserve"
       transform="matrix(0.95775609,0,0,0.95775609,25.575081,232.73473)"
       clip-path="url(#clipPath5)"><tspan
         style="font-variant:normal;font-weight:normal;font-size:17px;font-family:Helvetica;writing-mode:lr-tb;fill:#000000;fill-opacity:1;fill-rule:nonzero;stroke:none"
         x="0 11.338867 19.838867 29.293457 38.748047 52.90918 62.36377 67.086914 73.121582 82.576172 92.030762 101.48535 105.26221 109.03906 117.53906"
         y="0"
         sodipodi:role="line"
         id="tspan4">Schema &quot;public&quot;</tspan></text>
    <path
       id="path6"
       d="m 0.5,253 h 175 v 40 H 0.5 Z"
       style="fill:#e1d5e7;fill-opacity:1;fill-rule:nonzero;stroke:#9673a6;stroke-width:1;stroke-linecap:butt;stroke-linejoin:miter;stroke-miterlimit:10;stroke-dasharray:none;stroke-opacity:1"
       transform="matrix(0.95774646,0,0,0.95774646,0.47887323,0.47887323)"
       clip-path="url(#clipPath7)" />
    <path
       id="path8"
       d="m 28,261 h 120 v 24 H 28 Z"
       style="fill:#fff2cc;fill-opacity:1;fill-rule:nonzero;stroke:#d6b656;stroke-width:1;stroke-linecap:butt;stroke-linejoin:miter;stroke-miterlimit:10;stroke-dasharray:none;stroke-opacity:1"
       transform="matrix(0.95774646,0,0,0.95774646,0.47887323,0.47887323)"
       clip-path="url(#clipPath9)" />
    <text
       id="text9"
       xml:space="preserve"
       transform="matrix(0.95775609,0,0,0.95775609,63.196937,268.1717)"
       clip-path="url(#clipPath10)"><tspan
         style="font-variant:normal;font-weight:normal;font-size:18px;font-family:Helvetica;writing-mode:lr-tb;fill:#000000;fill-opacity:1;fill-rule:nonzero;stroke:none"
         x="0 10.010742 19.010742 29.021484 35.015625"
         y="0"
         sodipodi:role="line"
         id="tspan9">users</tspan></text>
    <path
       id="path11"
       d="m 230.5,221 h 175 v 32 h -175 z"
       style="fill:#e1d5e7;fill-opacity:1;fill-rule:nonzero;stroke:#9673a6;stroke-width:1;stroke-linecap:butt;stroke-linejoin:miter;stroke-miterlimit:10;stroke-dasharray:none;stroke-opacity:1"
       transform="matrix(0.95774646,0,0,0.95774646,0.47887323,0.47887323)"
       clip-path="url(#clipPath12)" />
    <text
       id="text12"
       xml:space="preserve"
       transform="matrix(0.95775609,0,0,0.95775609,254.01487,232.73473)"
       clip-path="url(#clipPath13)"><tspan
         style="font-variant:normal;font-weight:normal;font-size:17px;font-family:Helvetica;writing-mode:lr-tb;fill:#000000;fill-opacity:1;fill-rule:nonzero;stroke:none"
         x="0 11.338867 19.838867 29.293457 38.748047 52.90918 62.36377 67.086914 73.121582 77.844727 87.299316 95.799316 100.52246"
         y="0"
         sodipodi:role="line"
         id="tspan12">Schema &quot;test&quot;</tspan></text>
    <path
       id="path14"
       d="m 230.5,253 h 175 v 40 h -175 z"
       style="fill:#e1d5e7;fill-opacity:1;fill-rule:nonzero;stroke:#9673a6;stroke-width:1;stroke-linecap:butt;stroke-linejoin:miter;stroke-miterlimit:10;stroke-dasharray:none;stroke-opacity:1"
       transform="matrix(0.95774646,0,0,0.95774646,0.47887323,0.47887323)"
       clip-path="url(#clipPath15)" />
    <path
       id="path16"
       d="m 258,261 h 120 v 24 H 258 Z"
       style="fill:#fff2cc;fill-opacity:1;fill-rule:nonzero;stroke:#d6b656;stroke-width:1;stroke-linecap:butt;stroke-linejoin:miter;stroke-miterlimit:10;stroke-dasharray:none;stroke-opacity:1"
       transform="matrix(0.95774646,0,0,0.95774646,0.47887323,0.47887323)"
       clip-path="url(#clipPath17)" />
    <text
       id="text17"
       xml:space="preserve"
       transform="matrix(0.95775609,0,0,0.95775609,283.48084,268.1717)"
       clip-path="url(#clipPath18)"><tspan
         style="font-variant:normal;font-weight:normal;font-size:18px;font-family:Helvetica;writing-mode:lr-tb;fill:#000000;fill-opacity:1;fill-rule:nonzero;stroke:none"
         x="0 10.010742 19.010742 29.021484 35.015625"
         y="0"
         sodipodi:role="line"
         id="tspan17">users</tspan></text>
    <path
       id="path19"
       d="M 203,51 V 94.629997"
       style="fill:none;stroke:#000000;stroke-width:1;stroke-linecap:butt;stroke-linejoin:miter;stroke-miterlimit:10;stroke-dasharray:none;stroke-opacity:1"
       transform="matrix(0.95774646,0,0,0.95774646,0.47887323,0.47887323)"
       clip-path="url(#clipPath20)" />
    <path
       id="path21"
       d="m 203,99.879997 -3.5,-7 3.5,1.75 3.5,-1.75 z"
       style="fill:#000000;fill-opacity:1;fill-rule:nonzero;stroke:#000000;stroke-width:1;stroke-linecap:butt;stroke-linejoin:miter;stroke-miterlimit:10;stroke-dasharray:none;stroke-opacity:1"
       transform="matrix(0.95774646,0,0,0.95774646,0.47887323,0.47887323)"
       clip-path="url(#clipPath22)" />
    <path
       id="path23"
       d="M 48,1 H 358 V 51 H 48 Z"
       style="fill:#dae8fc;fill-opacity:1;fill-rule:nonzero;stroke:#6c8ebf;stroke-width:1;stroke-linecap:butt;stroke-linejoin:miter;stroke-miterlimit:10;stroke-dasharray:none;stroke-opacity:1"
       transform="matrix(0.95774646,0,0,0.95774646,0.47887323,0.47887323)"
       clip-path="url(#clipPath24)" />
    <text
       id="text24"
       xml:space="preserve"
       transform="matrix(0.95775609,0,0,0.95775609,93.306394,31.605951)"
       clip-path="url(#clipPath25)"><tspan
         style="font-variant:normal;font-weight:700;font-size:19px;font-family:Helvetica;writing-mode:lr-tb;fill:#000000;fill-opacity:1;fill-rule:nonzero;stroke:none"
         x="0 12.672852 25.345703 36.95166 49.624512 63.345703 74.95166 80.230469 87.624512 92.90332 104.50928 118.23047 133.00928 148.83643 154.11523 165.72119 176.28809 186.85498 194.24902 204.81592"
         y="0"
         sodipodi:role="line"
         id="tspan24">SELECT * FROM users;</tspan></text>
    <path
       id="path26"
       d="m 203,151 v 35 H 88 v 28.63"
       style="fill:none;stroke:#000000;stroke-width:1;stroke-linecap:butt;stroke-linejoin:miter;stroke-miterlimit:10;stroke-dasharray:none;stroke-opacity:1"
       transform="matrix(0.95774646,0,0,0.95774646,0.47887323,0.47887323)"
       clip-path="url(#clipPath27)" />
    <path
       id="path28"
       d="m 88,219.88 -3.5,-7 3.5,1.75 3.5,-1.75 z"
       style="fill:#000000;fill-opacity:1;fill-rule:nonzero;stroke:#000000;stroke-width:1;stroke-linecap:butt;stroke-linejoin:miter;stroke-miterlimit:10;stroke-dasharray:none;stroke-opacity:1"
       transform="matrix(0.95774646,0,0,0.95774646,0.47887323,0.47887323)"
       clip-path="url(#clipPath29)" />
    <path
       id="path30"
       d="m 203,151 v 35 h 115 v 28.63"
       style="fill:none;stroke:#000000;stroke-width:1;stroke-linecap:butt;stroke-linejoin:miter;stroke-miterlimit:10;stroke-dasharray:none;stroke-opacity:1"
       transform="matrix(0.95774646,0,0,0.95774646,0.47887323,0.47887323)"
       clip-path="url(#clipPath31)" />
    <path
       id="path32"
       d="m 318,219.88 -3.5,-7 3.5,1.75 3.5,-1.75 z"
       style="fill:#000000;fill-opacity:1;fill-rule:nonzero;stroke:#000000;stroke-width:1;stroke-linecap:butt;stroke-linejoin:miter;stroke-miterlimit:10;stroke-dasharray:none;stroke-opacity:1"
       transform="matrix(0.95774646,0,0,0.95774646,0.47887323,0.47887323)"
       clip-path="url(#clipPath33)" />
    <path
       id="path34"
       d="m 65.5,101 h 275 v 50 h -275 z"
       style="fill:#f8cecc;fill-opacity:1;fill-rule:nonzero;stroke:#b85450;stroke-width:1;stroke-linecap:butt;stroke-linejoin:miter;stroke-miterlimit:10;stroke-dasharray:none;stroke-opacity:1"
       transform="matrix(0.95774646,0,0,0.95774646,0.47887323,0.47887323)"
       clip-path="url(#clipPath35)" />
    <text
       id="text35"
       xml:space="preserve"
       transform="matrix(0.95775609,0,0,0.95775609,118.31281,125.46605)"
       clip-path="url(#clipPath36)"><tspan
         style="font-variant:normal;font-weight:normal;font-size:14px;font-family:Helvetica;writing-mode:lr-tb;fill:#000000;fill-opacity:1;fill-rule:nonzero;stroke:none"
         x="0 7 14.786133 22.572266 27.234375 34.234375 42.020508 49.806641 57.592773 65.378906 69.268555 77.054688 80.944336 89.120117 93.009766 96.899414 104.68555 111.68555 115.5752 119.46484 123.35449 131.14062 138.92676 146.71289 149.82324 152.93359"
         y="0"
         sodipodi:role="line"
         id="tspan35">search_path = test, public</tspan></text>
    <text
       id="text36"
       xml:space="preserve"
       transform="matrix(0.95775609,0,0,0.95775609,332.34136,117.804)"
       clip-path="url(#clipPath37)"><tspan
         style="font-style:oblique;font-variant:normal;font-weight:normal;font-size:14px;font-family:Helvetica;writing-mode:lr-tb;fill:#000000;fill-opacity:1;fill-rule:nonzero;stroke:none"
         x="0 8.5517578 11.662109 16.324219 23.324219 27.213867 31.103516 34.993164 39.655273 46.655273 50.544922 55.514648 59.404297 67.19043 74.19043 78.080078 83.049805 86.939453 90.829102 98.615234 106.40137"
         y="0"
         sodipodi:role="line"
         id="tspan36">First try &quot;test&quot; then</tspan></text>
    <text
       id="text37"
       xml:space="preserve"
       transform="matrix(0.95775609,0,0,0.95775609,332.34136,134.08585)"
       clip-path="url(#clipPath38)"><tspan
         style="font-style:oblique;font-variant:normal;font-weight:normal;font-size:14px;font-family:Helvetica;writing-mode:lr-tb;fill:#000000;fill-opacity:1;fill-rule:nonzero;stroke:none"
         x="0 7.7861328 15.572266 19.461914 27.248047 35.03418 38.144531 42.03418 45.923828 49.813477 57.599609 61.489258 66.458984 74.245117 82.03125 89.817383 92.927734 96.038086 103.03809"
         y="0"
         sodipodi:role="line"
         id="tspan37">default to &quot;public&quot;</tspan></text>
  </g>
</svg>
