<?xml version="1.0" encoding="UTF-8" standalone="no"?>
<!-- Created with Inkscape (http://www.inkscape.org/) -->

<svg
   version="1.1"
   id="svg1"
   width="482.55997"
   height="181.44"
   viewBox="0 0 482.55997 181.44"
   sodipodi:docname="sql-13.pdf"
   xmlns:inkscape="http://www.inkscape.org/namespaces/inkscape"
   xmlns:sodipodi="http://sodipodi.sourceforge.net/DTD/sodipodi-0.dtd"
   xmlns="http://www.w3.org/2000/svg"
   xmlns:svg="http://www.w3.org/2000/svg">
  <defs
     id="defs1">
    <clipPath
       clipPathUnits="userSpaceOnUse"
       id="clipPath2">
      <path
         d="M 0,0 H 1508.3333 V 565.62494 H 0 Z"
         transform="scale(0.33414367)"
         clip-rule="evenodd"
         id="path2" />
    </clipPath>
    <clipPath
       clipPathUnits="userSpaceOnUse"
       id="clipPath3">
      <path
         d="M 0,0 H 282 V 105 H 0 Z"
         transform="matrix(0.33414367,0,0,0.33414367,7.8584536,60.98973)"
         id="path3" />
    </clipPath>
    <clipPath
       clipPathUnits="userSpaceOnUse"
       id="clipPath5">
      <path
         d="M 0,0 H 1508.3333 V 562.63226 H 0 Z"
         transform="scale(0.31999999)"
         clip-rule="evenodd"
         id="path5" />
    </clipPath>
    <clipPath
       clipPathUnits="userSpaceOnUse"
       id="clipPath7">
      <path
         d="M 0,0 H 1508.3333 V 562.63226 H 0 Z"
         transform="matrix(0.33414367,0,0,0.33414367,-0.5,-0.5)"
         clip-rule="evenodd"
         id="path7" />
    </clipPath>
    <clipPath
       clipPathUnits="userSpaceOnUse"
       id="clipPath8">
      <path
         d="M 0,0 H 1508.3333 V 562.63226 H 0 Z"
         transform="matrix(0.33414032,0,0,0.33414032,-16.484375,-86)"
         clip-rule="evenodd"
         id="path8" />
    </clipPath>
    <clipPath
       clipPathUnits="userSpaceOnUse"
       id="clipPath9">
      <path
         d="M 0,0 H 1508.3333 V 562.63226 H 0 Z"
         transform="matrix(0.33414032,0,0,0.33414032,-17.921875,-112)"
         clip-rule="evenodd"
         id="path9" />
    </clipPath>
    <clipPath
       clipPathUnits="userSpaceOnUse"
       id="clipPath10">
      <path
         d="M 0,0 H 1508.3333 V 562.63226 H 0 Z"
         transform="matrix(0.33414032,0,0,0.33414032,-21.171875,-128)"
         clip-rule="evenodd"
         id="path10" />
    </clipPath>
    <clipPath
       clipPathUnits="userSpaceOnUse"
       id="clipPath11">
      <path
         d="M 0,0 H 1508.3333 V 562.63226 H 0 Z"
         transform="matrix(0.33414032,0,0,0.33414032,-8.15625,-144)"
         clip-rule="evenodd"
         id="path11" />
    </clipPath>
    <clipPath
       clipPathUnits="userSpaceOnUse"
       id="clipPath12">
      <path
         d="M 0,0 H 1508.3333 V 562.63226 H 0 Z"
         transform="matrix(0.33414032,0,0,0.33414032,-41.390625,-159)"
         clip-rule="evenodd"
         id="path12" />
    </clipPath>
    <clipPath
       clipPathUnits="userSpaceOnUse"
       id="clipPath13">
      <path
         d="M 0,0 H 1126 V 97 H 0 Z"
         transform="matrix(0.33414367,0,0,0.33414367,123.80631,-0.15856322)"
         id="path13" />
    </clipPath>
    <clipPath
       clipPathUnits="userSpaceOnUse"
       id="clipPath15">
      <path
         d="M 0,0 H 1508.3333 V 562.63226 H 0 Z"
         transform="scale(0.31999999)"
         clip-rule="evenodd"
         id="path15" />
    </clipPath>
    <clipPath
       clipPathUnits="userSpaceOnUse"
       id="clipPath17">
      <path
         d="M 0,0 H 1508.3333 V 562.63226 H 0 Z"
         transform="matrix(0.33414367,0,0,0.33414367,-0.5,-0.5)"
         clip-rule="evenodd"
         id="path17" />
    </clipPath>
    <clipPath
       clipPathUnits="userSpaceOnUse"
       id="clipPath18">
      <path
         d="M 0,0 H 1508.3333 V 562.63226 H 0 Z"
         transform="matrix(0.33414032,0,0,0.33414032,-264.90626,-23)"
         clip-rule="evenodd"
         id="path18" />
    </clipPath>
    <clipPath
       clipPathUnits="userSpaceOnUse"
       id="clipPath19">
      <path
         d="M 0,0 H 1126 V 456 H 0 Z"
         transform="matrix(0.33414367,0,0,0.33414367,123.80631,29.914368)"
         id="path19" />
    </clipPath>
    <clipPath
       clipPathUnits="userSpaceOnUse"
       id="clipPath21">
      <path
         d="M 0,0 H 1508.3333 V 562.63226 H 0 Z"
         transform="scale(0.31999999)"
         clip-rule="evenodd"
         id="path21" />
    </clipPath>
    <clipPath
       clipPathUnits="userSpaceOnUse"
       id="clipPath23">
      <path
         d="M 0,0 H 1508.3333 V 562.63226 H 0 Z"
         transform="matrix(0.33414367,0,0,0.33414367,-0.5,-0.5)"
         clip-rule="evenodd"
         id="path23" />
    </clipPath>
    <clipPath
       clipPathUnits="userSpaceOnUse"
       id="clipPath24">
      <path
         d="M 0,0 H 1054 V 81 H 0 Z"
         transform="matrix(0.33414367,0,0,0.33414367,137.84034,39.938678)"
         id="path24" />
    </clipPath>
    <clipPath
       clipPathUnits="userSpaceOnUse"
       id="clipPath26">
      <path
         d="M 0,0 H 1508.3333 V 562.63226 H 0 Z"
         transform="scale(0.31999999)"
         clip-rule="evenodd"
         id="path26" />
    </clipPath>
    <clipPath
       clipPathUnits="userSpaceOnUse"
       id="clipPath28">
      <path
         d="M 0,0 H 1508.3333 V 562.63226 H 0 Z"
         transform="matrix(0.33414367,0,0,0.33414367,-0.5,-0.5)"
         clip-rule="evenodd"
         id="path28" />
    </clipPath>
    <clipPath
       clipPathUnits="userSpaceOnUse"
       id="clipPath29">
      <path
         d="M 0,0 H 1508.3333 V 562.63226 H 0 Z"
         transform="matrix(0.33414032,0,0,0.33414032,-291.20313,-60)"
         clip-rule="evenodd"
         id="path29" />
    </clipPath>
    <clipPath
       clipPathUnits="userSpaceOnUse"
       id="clipPath30">
      <path
         d="M 0,0 H 246 V 81 H 0 Z"
         transform="matrix(0.33414367,0,0,0.33414367,137.84034,64.999454)"
         id="path30" />
    </clipPath>
    <clipPath
       clipPathUnits="userSpaceOnUse"
       id="clipPath32">
      <path
         d="M 0,0 H 1508.3333 V 562.63226 H 0 Z"
         transform="scale(0.31999999)"
         clip-rule="evenodd"
         id="path32" />
    </clipPath>
    <clipPath
       clipPathUnits="userSpaceOnUse"
       id="clipPath34">
      <path
         d="M 0,0 H 1508.3333 V 562.63226 H 0 Z"
         transform="matrix(0.33414367,0,0,0.33414367,-0.5,-0.5)"
         clip-rule="evenodd"
         id="path34" />
    </clipPath>
    <clipPath
       clipPathUnits="userSpaceOnUse"
       id="clipPath35">
      <path
         d="M 0,0 H 1508.3333 V 562.63226 H 0 Z"
         transform="matrix(0.33414032,0,0,0.33414032,-163.98438,-83.000001)"
         clip-rule="evenodd"
         id="path35" />
    </clipPath>
    <clipPath
       clipPathUnits="userSpaceOnUse"
       id="clipPath36">
      <path
         d="M 0,0 H 247 V 81 H 0 Z"
         transform="matrix(0.33414367,0,0,0.33414367,217.70068,64.999454)"
         id="path36" />
    </clipPath>
    <clipPath
       clipPathUnits="userSpaceOnUse"
       id="clipPath38">
      <path
         d="M 0,0 H 1508.3333 V 562.63226 H 0 Z"
         transform="scale(0.31999999)"
         clip-rule="evenodd"
         id="path38" />
    </clipPath>
    <clipPath
       clipPathUnits="userSpaceOnUse"
       id="clipPath40">
      <path
         d="M 0,0 H 1508.3333 V 562.63226 H 0 Z"
         transform="matrix(0.33414367,0,0,0.33414367,-0.5,-0.5)"
         clip-rule="evenodd"
         id="path40" />
    </clipPath>
    <clipPath
       clipPathUnits="userSpaceOnUse"
       id="clipPath41">
      <path
         d="M 0,0 H 1508.3333 V 562.63226 H 0 Z"
         transform="matrix(0.33414032,0,0,0.33414032,-239.31251,-83.000001)"
         clip-rule="evenodd"
         id="path41" />
    </clipPath>
    <clipPath
       clipPathUnits="userSpaceOnUse"
       id="clipPath42">
      <path
         d="M 0,0 H 246 V 81 H 0 Z"
         transform="matrix(0.33414367,0,0,0.33414367,297.89516,64.999454)"
         id="path42" />
    </clipPath>
    <clipPath
       clipPathUnits="userSpaceOnUse"
       id="clipPath44">
      <path
         d="M 0,0 H 1508.3333 V 562.63226 H 0 Z"
         transform="scale(0.31999999)"
         clip-rule="evenodd"
         id="path44" />
    </clipPath>
    <clipPath
       clipPathUnits="userSpaceOnUse"
       id="clipPath46">
      <path
         d="M 0,0 H 1508.3333 V 562.63226 H 0 Z"
         transform="matrix(0.33414367,0,0,0.33414367,-0.5,-0.5)"
         clip-rule="evenodd"
         id="path46" />
    </clipPath>
    <clipPath
       clipPathUnits="userSpaceOnUse"
       id="clipPath47">
      <path
         d="M 0,0 H 1508.3333 V 562.63226 H 0 Z"
         transform="matrix(0.33414032,0,0,0.33414032,-311.29688,-83.000001)"
         clip-rule="evenodd"
         id="path47" />
    </clipPath>
    <clipPath
       clipPathUnits="userSpaceOnUse"
       id="clipPath48">
      <path
         d="M 0,0 H 336 V 81 H 0 Z"
         transform="matrix(0.33414367,0,0,0.33414367,377.75549,64.999454)"
         id="path48" />
    </clipPath>
    <clipPath
       clipPathUnits="userSpaceOnUse"
       id="clipPath50">
      <path
         d="M 0,0 H 1508.3333 V 562.63226 H 0 Z"
         transform="scale(0.31999999)"
         clip-rule="evenodd"
         id="path50" />
    </clipPath>
    <clipPath
       clipPathUnits="userSpaceOnUse"
       id="clipPath52">
      <path
         d="M 0,0 H 1508.3333 V 562.63226 H 0 Z"
         transform="matrix(0.33414367,0,0,0.33414367,-0.5,-0.5)"
         clip-rule="evenodd"
         id="path52" />
    </clipPath>
    <clipPath
       clipPathUnits="userSpaceOnUse"
       id="clipPath53">
      <path
         d="M 0,0 H 1508.3333 V 562.63226 H 0 Z"
         transform="matrix(0.33414032,0,0,0.33414032,-421.98438,-83.000001)"
         clip-rule="evenodd"
         id="path53" />
    </clipPath>
    <clipPath
       clipPathUnits="userSpaceOnUse"
       id="clipPath55">
      <path
         d="M 0,0 H 1508.3333 V 562.63226 H 0 Z"
         transform="matrix(0.33414367,0,0,0.33414367,-0.5,-0.5)"
         clip-rule="evenodd"
         id="path55" />
    </clipPath>
    <clipPath
       clipPathUnits="userSpaceOnUse"
       id="clipPath56">
      <path
         d="M 0,0 H 1054 V 247 H 0 Z"
         transform="matrix(0.33414367,0,0,0.33414367,137.84034,89.726078)"
         id="path56" />
    </clipPath>
    <clipPath
       clipPathUnits="userSpaceOnUse"
       id="clipPath58">
      <path
         d="M 0,0 H 1508.3333 V 562.63226 H 0 Z"
         transform="scale(0.31999999)"
         clip-rule="evenodd"
         id="path58" />
    </clipPath>
    <clipPath
       clipPathUnits="userSpaceOnUse"
       id="clipPath60">
      <path
         d="M 0,0 H 1508.3333 V 562.63226 H 0 Z"
         transform="matrix(0.33414367,0,0,0.33414367,-0.5,-0.5)"
         clip-rule="evenodd"
         id="path60" />
    </clipPath>
    <clipPath
       clipPathUnits="userSpaceOnUse"
       id="clipPath61">
      <path
         d="M 0,0 H 1508.3333 V 562.63226 H 0 Z"
         transform="matrix(0.33414032,0,0,0.33414032,-241.28125,-135)"
         clip-rule="evenodd"
         id="path61" />
    </clipPath>
  </defs>
  <sodipodi:namedview
     id="namedview1"
     pagecolor="#ffffff"
     bordercolor="#000000"
     borderopacity="0.25"
     inkscape:showpageshadow="2"
     inkscape:pageopacity="0.0"
     inkscape:pagecheckerboard="0"
     inkscape:deskcolor="#d1d1d1">
    <inkscape:page
       x="0"
       y="0"
       inkscape:label="1"
       id="page1"
       width="482.55997"
       height="181.44"
       margin="0"
       bleed="0" />
  </sodipodi:namedview>
  <g
     id="g1"
     inkscape:groupmode="layer"
     inkscape:label="1">
    <path
       id="path1"
       d="M 0,0 H 504 V 189 H 0 Z"
       style="fill:#ffffff;fill-opacity:1;fill-rule:nonzero;stroke:none"
       transform="scale(0.95767186)"
       clip-path="url(#clipPath2)" />
    <g
       opacity="0.25"
       id="g4"
       clip-path="url(#clipPath5)">
      <path
         d="m 9,62.25 h 92 v 32.5 H 9 Z"
         style="fill:#000000;fill-opacity:1;fill-rule:nonzero;stroke:#000000;stroke-width:1;stroke-linecap:butt;stroke-linejoin:miter;stroke-miterlimit:10;stroke-dasharray:none;stroke-opacity:1"
         transform="matrix(0.95767186,0,0,0.95767186,2.3941797,3.3518495)"
         clip-path="url(#clipPath3)"
         id="path4" />
    </g>
    <path
       id="path6"
       d="m 9,62.25 h 92 v 32.5 H 9 Z"
       style="fill:#f8cecc;fill-opacity:1;fill-rule:nonzero;stroke:#b85450;stroke-width:1;stroke-linecap:butt;stroke-linejoin:miter;stroke-miterlimit:10;stroke-dasharray:none;stroke-opacity:1"
       transform="matrix(0.95767186,0,0,0.95767186,0.47883593,0.47883593)"
       clip-path="url(#clipPath7)" />
    <text
       id="text7"
       xml:space="preserve"
       transform="matrix(0.95768146,0,0,0.95768146,15.78678,82.360606)"
       clip-path="url(#clipPath8)"><tspan
         style="font-variant:normal;font-weight:700;font-size:18px;font-family:Helvetica;writing-mode:lr-tb;fill:#000000;fill-opacity:1;fill-rule:nonzero;stroke:none"
         x="0 12.999023 23.994141 28.995117 39.990234 55.995117 66.990234"
         y="0"
         sodipodi:role="line"
         id="tspan7">Columns</tspan></text>
    <text
       id="text8"
       xml:space="preserve"
       transform="matrix(0.95768146,0,0,0.95768146,17.163447,107.26032)"
       clip-path="url(#clipPath9)"><tspan
         style="font-style:oblique;font-variant:normal;font-weight:normal;font-size:13px;font-family:Helvetica;writing-mode:lr-tb;fill:#000000;fill-opacity:1;fill-rule:nonzero;stroke:none"
         x="0 8.6708984 15.900879 22.400879 29.630859 33.242676 39.742676 46.972656 49.86084 57.09082 67.919922"
         y="0"
         sodipodi:role="line"
         id="tspan8">Each column</tspan></text>
    <text
       id="text9"
       xml:space="preserve"
       transform="matrix(0.95768146,0,0,0.95768146,20.275912,122.58323)"
       clip-path="url(#clipPath10)"><tspan
         style="font-style:oblique;font-variant:normal;font-weight:normal;font-size:13px;font-family:Helvetica;writing-mode:lr-tb;fill:#000000;fill-opacity:1;fill-rule:nonzero;stroke:none"
         x="0 4.3291016 11.559082 18.059082 25.289062 29.618164 36.848145 43.348145 46.959961 54.189941 61.419922"
         y="0"
         sodipodi:role="line"
         id="tspan9">records one</tspan></text>
    <text
       id="text10"
       xml:space="preserve"
       transform="matrix(0.95768146,0,0,0.95768146,7.8110894,137.90613)"
       clip-path="url(#clipPath11)"><tspan
         style="font-style:oblique;font-variant:normal;font-weight:normal;font-size:13px;font-family:Helvetica;writing-mode:lr-tb;fill:#000000;fill-opacity:1;fill-rule:nonzero;stroke:none"
         x="0 7.2299805 11.559082 18.789062 26.019043 33.249023 37.578125 41.189941 47.689941 51.301758 58.531738 65.761719 72.991699 80.22168 83.833496 87.445312"
         y="0"
         sodipodi:role="line"
         id="tspan10">property about a</tspan></text>
    <text
       id="text11"
       xml:space="preserve"
       transform="matrix(0.95768146,0,0,0.95768146,39.639034,152.27135)"
       clip-path="url(#clipPath12)"><tspan
         style="font-style:oblique;font-variant:normal;font-weight:normal;font-size:13px;font-family:Helvetica;writing-mode:lr-tb;fill:#000000;fill-opacity:1;fill-rule:nonzero;stroke:none"
         x="0 3.6118164 10.841797 13.72998 20.959961"
         y="0"
         sodipodi:role="line"
         id="tspan11">thing</tspan></text>
    <g
       opacity="0.25"
       id="g14"
       clip-path="url(#clipPath15)">
      <path
         d="M 125,1 H 499 V 31 H 125 Z"
         style="fill:#000000;fill-opacity:1;fill-rule:nonzero;stroke:#000000;stroke-width:1;stroke-linecap:butt;stroke-linejoin:miter;stroke-miterlimit:10;stroke-dasharray:none;stroke-opacity:1"
         transform="matrix(0.95767186,0,0,0.95767186,2.3941791,3.3518514)"
         clip-path="url(#clipPath13)"
         id="path14" />
    </g>
    <path
       id="path16"
       d="M 125,1 H 499 V 31 H 125 Z"
       style="fill:#d5e8d4;fill-opacity:1;fill-rule:nonzero;stroke:#82b366;stroke-width:1;stroke-linecap:butt;stroke-linejoin:miter;stroke-miterlimit:10;stroke-dasharray:none;stroke-opacity:1"
       transform="matrix(0.95767186,0,0,0.95767186,0.47883593,0.47883593)"
       clip-path="url(#clipPath17)" />
    <text
       id="text17"
       xml:space="preserve"
       transform="matrix(0.95768146,0,0,0.95768146,253.69581,22.026674)"
       clip-path="url(#clipPath18)"><tspan
         style="font-variant:normal;font-weight:normal;font-size:22px;font-family:Helvetica;writing-mode:lr-tb;fill:#000000;fill-opacity:1;fill-rule:nonzero;stroke:none"
         x="0 15.887695 28.123047 34.235352 46.470703 58.706055 70.941406 81.941406"
         y="0"
         sodipodi:role="line"
         id="tspan17">Database</tspan></text>
    <g
       opacity="0.25"
       id="g20"
       clip-path="url(#clipPath21)">
      <path
         d="M 125,31 H 499 V 181 H 125 Z"
         style="fill:#000000;fill-opacity:1;fill-rule:nonzero;stroke:#000000;stroke-width:1;stroke-linecap:butt;stroke-linejoin:miter;stroke-miterlimit:10;stroke-dasharray:none;stroke-opacity:1"
         transform="matrix(0.95767186,0,0,0.95767186,2.3941791,3.3518504)"
         clip-path="url(#clipPath19)"
         id="path20" />
    </g>
    <path
       id="path22"
       d="M 125,31 H 499 V 181 H 125 Z"
       style="fill:#d5e8d4;fill-opacity:1;fill-rule:nonzero;stroke:#82b366;stroke-width:1;stroke-linecap:butt;stroke-linejoin:miter;stroke-miterlimit:10;stroke-dasharray:none;stroke-opacity:1"
       transform="matrix(0.95767186,0,0,0.95767186,0.47883593,0.47883593)"
       clip-path="url(#clipPath23)" />
    <g
       opacity="0.25"
       id="g25"
       clip-path="url(#clipPath26)">
      <path
         d="M 139,41 H 489 V 66 H 139 Z"
         style="fill:#000000;fill-opacity:1;fill-rule:nonzero;stroke:#000000;stroke-width:1;stroke-linecap:butt;stroke-linejoin:miter;stroke-miterlimit:10;stroke-dasharray:none;stroke-opacity:1"
         transform="matrix(0.95767186,0,0,0.95767186,2.3941791,3.3518504)"
         clip-path="url(#clipPath24)"
         id="path25" />
    </g>
    <path
       id="path27"
       d="M 139,41 H 489 V 66 H 139 Z"
       style="fill:#ffe6cc;fill-opacity:1;fill-rule:nonzero;stroke:#d79b00;stroke-width:1;stroke-linecap:butt;stroke-linejoin:miter;stroke-miterlimit:10;stroke-dasharray:none;stroke-opacity:1"
       transform="matrix(0.95767186,0,0,0.95767186,0.47883593,0.47883593)"
       clip-path="url(#clipPath28)" />
    <text
       id="text28"
       xml:space="preserve"
       transform="matrix(0.95768146,0,0,0.95768146,278.87984,57.460888)"
       clip-path="url(#clipPath29)"><tspan
         style="font-variant:normal;font-weight:normal;font-size:20px;font-family:Helvetica;writing-mode:lr-tb;fill:#000000;fill-opacity:1;fill-rule:nonzero;stroke:none"
         x="0 10 14.443359 20 24.443359 35.566406"
         y="0"
         sodipodi:role="line"
         id="tspan28">cities</tspan></text>
    <g
       opacity="0.25"
       id="g31"
       clip-path="url(#clipPath32)">
      <path
         d="m 139,66 h 80 v 25 h -80 z"
         style="fill:#000000;fill-opacity:1;fill-rule:nonzero;stroke:#000000;stroke-width:1;stroke-linecap:butt;stroke-linejoin:miter;stroke-miterlimit:10;stroke-dasharray:none;stroke-opacity:1"
         transform="matrix(0.95767186,0,0,0.95767186,2.3941791,3.3518495)"
         clip-path="url(#clipPath30)"
         id="path31" />
    </g>
    <path
       id="path33"
       d="m 139,66 h 80 v 25 h -80 z"
       style="fill:#f5f5f5;fill-opacity:1;fill-rule:nonzero;stroke:#666666;stroke-width:1;stroke-linecap:butt;stroke-linejoin:miter;stroke-miterlimit:10;stroke-dasharray:none;stroke-opacity:1"
       transform="matrix(0.95767186,0,0,0.95767186,0.47883593,0.47883593)"
       clip-path="url(#clipPath34)" />
    <text
       id="text34"
       xml:space="preserve"
       transform="matrix(0.95768146,0,0,0.95768146,157.0448,79.487562)"
       clip-path="url(#clipPath35)"><tspan
         style="font-style:oblique;font-variant:normal;font-weight:normal;font-size:12px;font-family:Helvetica;writing-mode:lr-tb;fill:#333333;fill-opacity:1;fill-rule:nonzero;stroke:none"
         x="0 6.6738281 13.347656 23.34375"
         y="0"
         sodipodi:role="line"
         id="tspan34">name</tspan></text>
    <g
       opacity="0.25"
       id="g37"
       clip-path="url(#clipPath38)">
      <path
         d="m 219,66 h 80 v 25 h -80 z"
         style="fill:#000000;fill-opacity:1;fill-rule:nonzero;stroke:#000000;stroke-width:1;stroke-linecap:butt;stroke-linejoin:miter;stroke-miterlimit:10;stroke-dasharray:none;stroke-opacity:1"
         transform="matrix(0.95767186,0,0,0.95767186,2.3941791,3.3518495)"
         clip-path="url(#clipPath36)"
         id="path37" />
    </g>
    <path
       id="path39"
       d="m 219,66 h 80 v 25 h -80 z"
       style="fill:#f5f5f5;fill-opacity:1;fill-rule:nonzero;stroke:#666666;stroke-width:1;stroke-linecap:butt;stroke-linejoin:miter;stroke-miterlimit:10;stroke-dasharray:none;stroke-opacity:1"
       transform="matrix(0.95767186,0,0,0.95767186,0.47883593,0.47883593)"
       clip-path="url(#clipPath40)" />
    <text
       id="text40"
       xml:space="preserve"
       transform="matrix(0.95768146,0,0,0.95768146,229.18515,79.487562)"
       clip-path="url(#clipPath41)"><tspan
         style="font-style:oblique;font-variant:normal;font-weight:normal;font-size:12px;font-family:Helvetica;writing-mode:lr-tb;fill:#333333;fill-opacity:1;fill-rule:nonzero;stroke:none"
         x="0 6 12.673828 19.347656 26.021484 29.355469 33.351562"
         y="0"
         sodipodi:role="line"
         id="tspan40">country</tspan></text>
    <g
       opacity="0.25"
       id="g43"
       clip-path="url(#clipPath44)">
      <path
         d="m 299,66 h 80 v 25 h -80 z"
         style="fill:#000000;fill-opacity:1;fill-rule:nonzero;stroke:#000000;stroke-width:1;stroke-linecap:butt;stroke-linejoin:miter;stroke-miterlimit:10;stroke-dasharray:none;stroke-opacity:1"
         transform="matrix(0.95767186,0,0,0.95767186,2.3941791,3.3518495)"
         clip-path="url(#clipPath42)"
         id="path43" />
    </g>
    <path
       id="path45"
       d="m 299,66 h 80 v 25 h -80 z"
       style="fill:#f5f5f5;fill-opacity:1;fill-rule:nonzero;stroke:#666666;stroke-width:1;stroke-linecap:butt;stroke-linejoin:miter;stroke-miterlimit:10;stroke-dasharray:none;stroke-opacity:1"
       transform="matrix(0.95767186,0,0,0.95767186,0.47883593,0.47883593)"
       clip-path="url(#clipPath46)" />
    <text
       id="text46"
       xml:space="preserve"
       transform="matrix(0.95768146,0,0,0.95768146,298.12325,79.487562)"
       clip-path="url(#clipPath47)"><tspan
         style="font-style:oblique;font-variant:normal;font-weight:normal;font-size:12px;font-family:Helvetica;writing-mode:lr-tb;fill:#333333;fill-opacity:1;fill-rule:nonzero;stroke:none"
         x="0 6.6738281 13.347656 20.021484 26.695312 29.361328 36.035156 39.369141 42.035156 48.708984"
         y="0"
         sodipodi:role="line"
         id="tspan46">population</tspan></text>
    <g
       opacity="0.25"
       id="g49"
       clip-path="url(#clipPath50)">
      <path
         d="M 379,66 H 489 V 91 H 379 Z"
         style="fill:#000000;fill-opacity:1;fill-rule:nonzero;stroke:#000000;stroke-width:1;stroke-linecap:butt;stroke-linejoin:miter;stroke-miterlimit:10;stroke-dasharray:none;stroke-opacity:1"
         transform="matrix(0.95767186,0,0,0.95767186,2.3941791,3.3518495)"
         clip-path="url(#clipPath48)"
         id="path49" />
    </g>
    <path
       id="path51"
       d="M 379,66 H 489 V 91 H 379 Z"
       style="fill:#f5f5f5;fill-opacity:1;fill-rule:nonzero;stroke:#666666;stroke-width:1;stroke-linecap:butt;stroke-linejoin:miter;stroke-miterlimit:10;stroke-dasharray:none;stroke-opacity:1"
       transform="matrix(0.95767186,0,0,0.95767186,0.47883593,0.47883593)"
       clip-path="url(#clipPath52)" />
    <text
       id="text52"
       xml:space="preserve"
       transform="matrix(0.95768146,0,0,0.95768146,404.12662,79.487562)"
       clip-path="url(#clipPath53)"><tspan
         style="font-style:oblique;font-variant:normal;font-weight:normal;font-size:12px;font-family:Helvetica;writing-mode:lr-tb;fill:#333333;fill-opacity:1;fill-rule:nonzero;stroke:none"
         x="0 6.6738281 10.669922 17.34375"
         y="0"
         sodipodi:role="line"
         id="tspan52">area</tspan></text>
    <path
       id="path54"
       d="m 131,67 h -7.5 c -5,0 -7.5,2.083336 -7.5,6.25 v 3.129997 C 116,78.459999 113.5,79.5 108.5,79.5 h -3.75 c -2.5,0 -1.25,0 3.75,0 h 3.75 c 2.5,0 3.75,2.083336 3.75,6.25 v 3.129997 C 116,90.959999 118.5,92 123.5,92 h 7.5"
       style="fill:none;stroke:#000000;stroke-width:1;stroke-linecap:butt;stroke-linejoin:miter;stroke-miterlimit:10;stroke-dasharray:none;stroke-opacity:1"
       transform="matrix(0.95767186,0,0,0.95767186,0.47883593,0.47883593)"
       clip-path="url(#clipPath55)" />
    <g
       opacity="0.25"
       id="g57"
       clip-path="url(#clipPath58)">
      <path
         d="m 139,91 h 350 v 80 H 139 Z"
         style="fill:#000000;fill-opacity:1;fill-rule:nonzero;stroke:#000000;stroke-width:1;stroke-linecap:butt;stroke-linejoin:miter;stroke-miterlimit:10;stroke-dasharray:none;stroke-opacity:1"
         transform="matrix(0.95767186,0,0,0.95767186,2.3941791,3.3518559)"
         clip-path="url(#clipPath56)"
         id="path57" />
    </g>
    <path
       id="path59"
       d="m 139,91 h 350 v 80 H 139 Z"
       style="fill:#f5f5f5;fill-opacity:1;fill-rule:nonzero;stroke:#666666;stroke-width:1;stroke-linecap:butt;stroke-linejoin:miter;stroke-miterlimit:10;stroke-dasharray:none;stroke-opacity:1"
       transform="matrix(0.95767186,0,0,0.95767186,0.47883593,0.47883593)"
       clip-path="url(#clipPath60)" />
    <text
       id="text60"
       xml:space="preserve"
       transform="matrix(0.95768146,0,0,0.95768146,231.07058,129.287)"
       clip-path="url(#clipPath61)"><tspan
         style="font-style:oblique;font-variant:normal;font-weight:normal;font-size:12px;font-family:Helvetica;writing-mode:lr-tb;fill:#333333;fill-opacity:1;fill-rule:nonzero;stroke:none"
         x="0 6.6738281 9.3398438 15.339844 18.673828 22.007812 28.681641 32.015625 35.349609 41.349609 44.015625 47.349609 50.015625 56.689453 62.689453 66.023438 72.023438 78.697266 85.371094 92.044922 94.710938 101.38477 104.71875 111.39258 118.06641 121.40039 128.07422 134.74805 138.74414"
         y="0"
         sodipodi:role="line"
         id="tspan60">List of cities should go here</tspan></text>
  </g>
</svg>
