<?xml version="1.0" encoding="UTF-8" standalone="no"?>
<!-- Created with Inkscape (http://www.inkscape.org/) -->

<svg
   version="1.1"
   id="svg1"
   width="442.55997"
   height="282.56"
   viewBox="0 0 442.55997 282.56"
   sodipodi:docname="sql-5.pdf"
   xmlns:inkscape="http://www.inkscape.org/namespaces/inkscape"
   xmlns:sodipodi="http://sodipodi.sourceforge.net/DTD/sodipodi-0.dtd"
   xmlns="http://www.w3.org/2000/svg"
   xmlns:svg="http://www.w3.org/2000/svg">
  <defs
     id="defs1">
    <clipPath
       clipPathUnits="userSpaceOnUse"
       id="clipPath2">
      <path
         d="M 0,0 H 1383.3333 V 883.29724 H 0 Z"
         transform="scale(0.33397591)"
         clip-rule="evenodd"
         id="path2" />
    </clipPath>
    <clipPath
       clipPathUnits="userSpaceOnUse"
       id="clipPath4">
      <path
         d="M 0,0 H 1383.3333 V 880.30298 H 0 Z"
         transform="matrix(0.33397591,0,0,0.33397591,-0.49999999,-0.49999999)"
         clip-rule="evenodd"
         id="path4" />
    </clipPath>
    <clipPath
       clipPathUnits="userSpaceOnUse"
       id="clipPath6">
      <path
         d="M 0,0 H 1383.3333 V 880.30298 H 0 Z"
         transform="matrix(0.33397591,0,0,0.33397591,-0.49999999,-0.49999999)"
         clip-rule="evenodd"
         id="path6" />
    </clipPath>
    <clipPath
       clipPathUnits="userSpaceOnUse"
       id="clipPath8">
      <path
         d="M 0,0 H 1383.3333 V 880.30298 H 0 Z"
         transform="matrix(0.33397591,0,0,0.33397591,-0.49999999,-0.49999999)"
         clip-rule="evenodd"
         id="path8" />
    </clipPath>
    <clipPath
       clipPathUnits="userSpaceOnUse"
       id="clipPath10">
      <path
         d="M 0,0 H 1383.3333 V 880.30298 H 0 Z"
         transform="scale(0.33397591)"
         clip-rule="evenodd"
         id="path10" />
    </clipPath>
    <clipPath
       clipPathUnits="userSpaceOnUse"
       id="clipPath11">
      <path
         d="M 0,0 H 1383.3333 V 880.30298 H 0 Z"
         transform="matrix(0.33397257,0,0,0.33397257,-4.078125,-161)"
         clip-rule="evenodd"
         id="path11" />
    </clipPath>
    <clipPath
       clipPathUnits="userSpaceOnUse"
       id="clipPath12">
      <path
         d="M 0,0 H 1383.3333 V 880.30298 H 0 Z"
         transform="matrix(0.33397257,0,0,0.33397257,-233.07813,-161)"
         clip-rule="evenodd"
         id="path12" />
    </clipPath>
    <clipPath
       clipPathUnits="userSpaceOnUse"
       id="clipPath14">
      <path
         d="M 0,0 H 1383.3333 V 880.30298 H 0 Z"
         transform="matrix(0.33397591,0,0,0.33397591,-0.49999999,-0.49999999)"
         clip-rule="evenodd"
         id="path14" />
    </clipPath>
    <clipPath
       clipPathUnits="userSpaceOnUse"
       id="clipPath15">
      <path
         d="M 0,0 H 1383.3333 V 880.30298 H 0 Z"
         transform="matrix(0.33397257,0,0,0.33397257,-120.65625,-75)"
         clip-rule="evenodd"
         id="path15" />
    </clipPath>
    <clipPath
       clipPathUnits="userSpaceOnUse"
       id="clipPath17">
      <path
         d="M 0,0 H 1383.3333 V 880.30298 H 0 Z"
         transform="matrix(0.33397591,0,0,0.33397591,-0.49999999,-0.49999999)"
         clip-rule="evenodd"
         id="path17" />
    </clipPath>
    <clipPath
       clipPathUnits="userSpaceOnUse"
       id="clipPath18">
      <path
         d="M 0,0 H 1383.3333 V 880.30298 H 0 Z"
         transform="matrix(0.33397257,0,0,0.33397257,-172.65625,-75)"
         clip-rule="evenodd"
         id="path18" />
    </clipPath>
    <clipPath
       clipPathUnits="userSpaceOnUse"
       id="clipPath20">
      <path
         d="M 0,0 H 1383.3333 V 880.30298 H 0 Z"
         transform="matrix(0.33397591,0,0,0.33397591,-0.49999999,-0.49999999)"
         clip-rule="evenodd"
         id="path20" />
    </clipPath>
    <clipPath
       clipPathUnits="userSpaceOnUse"
       id="clipPath21">
      <path
         d="M 0,0 H 1383.3333 V 880.30298 H 0 Z"
         transform="matrix(0.33397257,0,0,0.33397257,-222.65625,-75)"
         clip-rule="evenodd"
         id="path21" />
    </clipPath>
    <clipPath
       clipPathUnits="userSpaceOnUse"
       id="clipPath23">
      <path
         d="M 0,0 H 1383.3333 V 880.30298 H 0 Z"
         transform="matrix(0.33397591,0,0,0.33397591,-0.49999999,-0.49999999)"
         clip-rule="evenodd"
         id="path23" />
    </clipPath>
    <clipPath
       clipPathUnits="userSpaceOnUse"
       id="clipPath24">
      <path
         d="M 0,0 H 1383.3333 V 880.30298 H 0 Z"
         transform="matrix(0.33397257,0,0,0.33397257,-120.65625,-130)"
         clip-rule="evenodd"
         id="path24" />
    </clipPath>
    <clipPath
       clipPathUnits="userSpaceOnUse"
       id="clipPath26">
      <path
         d="M 0,0 H 1383.3333 V 880.30298 H 0 Z"
         transform="matrix(0.33397591,0,0,0.33397591,-0.49999999,-0.49999999)"
         clip-rule="evenodd"
         id="path26" />
    </clipPath>
    <clipPath
       clipPathUnits="userSpaceOnUse"
       id="clipPath27">
      <path
         d="M 0,0 H 1383.3333 V 880.30298 H 0 Z"
         transform="matrix(0.33397257,0,0,0.33397257,-342.65625,-130)"
         clip-rule="evenodd"
         id="path27" />
    </clipPath>
    <clipPath
       clipPathUnits="userSpaceOnUse"
       id="clipPath29">
      <path
         d="M 0,0 H 1383.3333 V 880.30298 H 0 Z"
         transform="matrix(0.33397591,0,0,0.33397591,-0.49999999,-0.49999999)"
         clip-rule="evenodd"
         id="path29" />
    </clipPath>
    <clipPath
       clipPathUnits="userSpaceOnUse"
       id="clipPath30">
      <path
         d="M 0,0 H 1383.3333 V 880.30298 H 0 Z"
         transform="matrix(0.33397257,0,0,0.33397257,-390.65624,-130)"
         clip-rule="evenodd"
         id="path30" />
    </clipPath>
    <clipPath
       clipPathUnits="userSpaceOnUse"
       id="clipPath32">
      <path
         d="M 0,0 H 1383.3333 V 880.30298 H 0 Z"
         transform="matrix(0.33397591,0,0,0.33397591,-0.49999999,-0.49999999)"
         clip-rule="evenodd"
         id="path32" />
    </clipPath>
    <clipPath
       clipPathUnits="userSpaceOnUse"
       id="clipPath33">
      <path
         d="M 0,0 H 1383.3333 V 880.30298 H 0 Z"
         transform="matrix(0.33397257,0,0,0.33397257,-160.64062,-55)"
         clip-rule="evenodd"
         id="path33" />
    </clipPath>
    <clipPath
       clipPathUnits="userSpaceOnUse"
       id="clipPath35">
      <path
         d="M 0,0 H 1383.3333 V 880.30298 H 0 Z"
         transform="matrix(0.33397591,0,0,0.33397591,-0.49999999,-0.49999999)"
         clip-rule="evenodd"
         id="path35" />
    </clipPath>
    <clipPath
       clipPathUnits="userSpaceOnUse"
       id="clipPath36">
      <path
         d="M 0,0 H 1383.3333 V 880.30298 H 0 Z"
         transform="matrix(0.33397257,0,0,0.33397257,-160.64062,-35)"
         clip-rule="evenodd"
         id="path36" />
    </clipPath>
    <clipPath
       clipPathUnits="userSpaceOnUse"
       id="clipPath38">
      <path
         d="M 0,0 H 1383.3333 V 880.30298 H 0 Z"
         transform="matrix(0.33397591,0,0,0.33397591,-0.49999999,-0.49999999)"
         clip-rule="evenodd"
         id="path38" />
    </clipPath>
    <clipPath
       clipPathUnits="userSpaceOnUse"
       id="clipPath39">
      <path
         d="M 0,0 H 1383.3333 V 880.30298 H 0 Z"
         transform="matrix(0.33397257,0,0,0.33397257,-160.64062,-15)"
         clip-rule="evenodd"
         id="path39" />
    </clipPath>
    <clipPath
       clipPathUnits="userSpaceOnUse"
       id="clipPath41">
      <path
         d="M 0,0 H 1383.3333 V 880.30298 H 0 Z"
         transform="matrix(0.33397591,0,0,0.33397591,-0.49999999,-0.49999999)"
         clip-rule="evenodd"
         id="path41" />
    </clipPath>
    <clipPath
       clipPathUnits="userSpaceOnUse"
       id="clipPath42">
      <path
         d="M 0,0 H 1383.3333 V 880.30298 H 0 Z"
         transform="matrix(0.33397257,0,0,0.33397257,-380.64063,-150)"
         clip-rule="evenodd"
         id="path42" />
    </clipPath>
    <clipPath
       clipPathUnits="userSpaceOnUse"
       id="clipPath44">
      <path
         d="M 0,0 H 1383.3333 V 880.30298 H 0 Z"
         transform="matrix(0.33397591,0,0,0.33397591,-0.49999999,-0.49999999)"
         clip-rule="evenodd"
         id="path44" />
    </clipPath>
    <clipPath
       clipPathUnits="userSpaceOnUse"
       id="clipPath45">
      <path
         d="M 0,0 H 1383.3333 V 880.30298 H 0 Z"
         transform="matrix(0.33397257,0,0,0.33397257,-332.64063,-150)"
         clip-rule="evenodd"
         id="path45" />
    </clipPath>
    <clipPath
       clipPathUnits="userSpaceOnUse"
       id="clipPath47">
      <path
         d="M 0,0 H 1383.3333 V 880.30298 H 0 Z"
         transform="matrix(0.33397591,0,0,0.33397591,-0.49999999,-0.49999999)"
         clip-rule="evenodd"
         id="path47" />
    </clipPath>
    <clipPath
       clipPathUnits="userSpaceOnUse"
       id="clipPath48">
      <path
         d="M 0,0 H 1383.3333 V 880.30298 H 0 Z"
         transform="matrix(0.33397257,0,0,0.33397257,-110.64063,-150)"
         clip-rule="evenodd"
         id="path48" />
    </clipPath>
    <clipPath
       clipPathUnits="userSpaceOnUse"
       id="clipPath50">
      <path
         d="M 0,0 H 1383.3333 V 880.30298 H 0 Z"
         transform="matrix(0.33397591,0,0,0.33397591,-0.49999999,-0.49999999)"
         clip-rule="evenodd"
         id="path50" />
    </clipPath>
    <clipPath
       clipPathUnits="userSpaceOnUse"
       id="clipPath51">
      <path
         d="M 0,0 H 1383.3333 V 880.30298 H 0 Z"
         transform="matrix(0.33397257,0,0,0.33397257,-232.84375,-225)"
         clip-rule="evenodd"
         id="path51" />
    </clipPath>
    <clipPath
       clipPathUnits="userSpaceOnUse"
       id="clipPath53">
      <path
         d="M 0,0 H 1383.3333 V 880.30298 H 0 Z"
         transform="matrix(0.33397591,0,0,0.33397591,-0.49999999,-0.49999999)"
         clip-rule="evenodd"
         id="path53" />
    </clipPath>
    <clipPath
       clipPathUnits="userSpaceOnUse"
       id="clipPath54">
      <path
         d="M 0,0 H 1383.3333 V 880.30298 H 0 Z"
         transform="matrix(0.33397257,0,0,0.33397257,-154.8125,-246)"
         clip-rule="evenodd"
         id="path54" />
    </clipPath>
    <clipPath
       clipPathUnits="userSpaceOnUse"
       id="clipPath56">
      <path
         d="M 0,0 H 1383.3333 V 880.30298 H 0 Z"
         transform="matrix(0.33397591,0,0,0.33397591,-0.49999999,-0.49999999)"
         clip-rule="evenodd"
         id="path56" />
    </clipPath>
    <clipPath
       clipPathUnits="userSpaceOnUse"
       id="clipPath57">
      <path
         d="M 0,0 H 1383.3333 V 880.30298 H 0 Z"
         transform="matrix(0.33397257,0,0,0.33397257,-229.26563,-246)"
         clip-rule="evenodd"
         id="path57" />
    </clipPath>
    <clipPath
       clipPathUnits="userSpaceOnUse"
       id="clipPath59">
      <path
         d="M 0,0 H 1383.3333 V 880.30298 H 0 Z"
         transform="matrix(0.33397591,0,0,0.33397591,-0.49999999,-0.49999999)"
         clip-rule="evenodd"
         id="path59" />
    </clipPath>
    <clipPath
       clipPathUnits="userSpaceOnUse"
       id="clipPath60">
      <path
         d="M 0,0 H 1383.3333 V 880.30298 H 0 Z"
         transform="matrix(0.33397257,0,0,0.33397257,-135.79687,-265)"
         clip-rule="evenodd"
         id="path60" />
    </clipPath>
    <clipPath
       clipPathUnits="userSpaceOnUse"
       id="clipPath62">
      <path
         d="M 0,0 H 1383.3333 V 880.30298 H 0 Z"
         transform="matrix(0.33397591,0,0,0.33397591,-0.49999999,-0.49999999)"
         clip-rule="evenodd"
         id="path62" />
    </clipPath>
    <clipPath
       clipPathUnits="userSpaceOnUse"
       id="clipPath63">
      <path
         d="M 0,0 H 1383.3333 V 880.30298 H 0 Z"
         transform="matrix(0.33397257,0,0,0.33397257,-248.15625,-265)"
         clip-rule="evenodd"
         id="path63" />
    </clipPath>
    <clipPath
       clipPathUnits="userSpaceOnUse"
       id="clipPath65">
      <path
         d="M 0,0 H 1383.3333 V 880.30298 H 0 Z"
         transform="matrix(0.33397591,0,0,0.33397591,-0.49999999,-0.49999999)"
         clip-rule="evenodd"
         id="path65" />
    </clipPath>
    <clipPath
       clipPathUnits="userSpaceOnUse"
       id="clipPath66">
      <path
         d="M 0,0 H 1383.3333 V 880.30298 H 0 Z"
         transform="matrix(0.33397257,0,0,0.33397257,-135.79687,-285)"
         clip-rule="evenodd"
         id="path66" />
    </clipPath>
    <clipPath
       clipPathUnits="userSpaceOnUse"
       id="clipPath68">
      <path
         d="M 0,0 H 1383.3333 V 880.30298 H 0 Z"
         transform="matrix(0.33397591,0,0,0.33397591,-0.49999999,-0.49999999)"
         clip-rule="evenodd"
         id="path68" />
    </clipPath>
    <clipPath
       clipPathUnits="userSpaceOnUse"
       id="clipPath69">
      <path
         d="M 0,0 H 1383.3333 V 880.30298 H 0 Z"
         transform="matrix(0.33397257,0,0,0.33397257,-248.15625,-285)"
         clip-rule="evenodd"
         id="path69" />
    </clipPath>
    <clipPath
       clipPathUnits="userSpaceOnUse"
       id="clipPath71">
      <path
         d="M 0,0 H 1383.3333 V 880.30298 H 0 Z"
         transform="matrix(0.33397591,0,0,0.33397591,-0.49999999,-0.49999999)"
         clip-rule="evenodd"
         id="path71" />
    </clipPath>
    <clipPath
       clipPathUnits="userSpaceOnUse"
       id="clipPath72">
      <path
         d="M 0,0 H 1383.3333 V 880.30298 H 0 Z"
         transform="matrix(0.33397257,0,0,0.33397257,-303.14063,-246)"
         clip-rule="evenodd"
         id="path72" />
    </clipPath>
    <clipPath
       clipPathUnits="userSpaceOnUse"
       id="clipPath74">
      <path
         d="M 0,0 H 1383.3333 V 880.30298 H 0 Z"
         transform="matrix(0.33397591,0,0,0.33397591,-0.49999999,-0.49999999)"
         clip-rule="evenodd"
         id="path74" />
    </clipPath>
    <clipPath
       clipPathUnits="userSpaceOnUse"
       id="clipPath75">
      <path
         d="M 0,0 H 1383.3333 V 880.30298 H 0 Z"
         transform="matrix(0.33397257,0,0,0.33397257,-333.15625,-265)"
         clip-rule="evenodd"
         id="path75" />
    </clipPath>
    <clipPath
       clipPathUnits="userSpaceOnUse"
       id="clipPath77">
      <path
         d="M 0,0 H 1383.3333 V 880.30298 H 0 Z"
         transform="matrix(0.33397591,0,0,0.33397591,-0.49999999,-0.49999999)"
         clip-rule="evenodd"
         id="path77" />
    </clipPath>
    <clipPath
       clipPathUnits="userSpaceOnUse"
       id="clipPath78">
      <path
         d="M 0,0 H 1383.3333 V 880.30298 H 0 Z"
         transform="matrix(0.33397257,0,0,0.33397257,-333.15625,-285)"
         clip-rule="evenodd"
         id="path78" />
    </clipPath>
  </defs>
  <sodipodi:namedview
     id="namedview1"
     pagecolor="#ffffff"
     bordercolor="#000000"
     borderopacity="0.25"
     inkscape:showpageshadow="2"
     inkscape:pageopacity="0.0"
     inkscape:pagecheckerboard="0"
     inkscape:deskcolor="#d1d1d1">
    <inkscape:page
       x="0"
       y="0"
       inkscape:label="1"
       id="page1"
       width="442.55997"
       height="282.56"
       margin="0"
       bleed="0" />
  </sodipodi:namedview>
  <g
     id="g1"
     inkscape:groupmode="layer"
     inkscape:label="1">
    <path
       id="path1"
       d="M 0,0 H 462 V 295 H 0 Z"
       style="fill:#ffffff;fill-opacity:1;fill-rule:nonzero;stroke:none"
       transform="scale(0.95815289)"
       clip-path="url(#clipPath2)" />
    <path
       id="path3"
       d="M 88,143 V 53"
       style="fill:none;stroke:#000000;stroke-width:1;stroke-linecap:butt;stroke-linejoin:miter;stroke-miterlimit:10;stroke-dasharray:none;stroke-opacity:1"
       transform="matrix(0.95815289,0,0,0.95815289,0.47907644,0.47907644)"
       clip-path="url(#clipPath4)" />
    <path
       id="path5"
       d="M 88.559998,96 H 434.72"
       style="fill:none;stroke:#000000;stroke-width:1;stroke-linecap:butt;stroke-linejoin:miter;stroke-miterlimit:10;stroke-dasharray:none;stroke-opacity:1"
       transform="matrix(0.95815289,0,0,0.95815289,0.47907644,0.47907644)"
       clip-path="url(#clipPath6)" />
    <path
       id="path7"
       d="m 442.97,96 -11,5.5 2.75,-5.5 -2.75,-5.5 z"
       style="fill:#000000;fill-opacity:1;fill-rule:nonzero;stroke:#000000;stroke-width:1;stroke-linecap:butt;stroke-linejoin:miter;stroke-miterlimit:10;stroke-dasharray:none;stroke-opacity:1"
       transform="matrix(0.95815289,0,0,0.95815289,0.47907644,0.47907644)"
       clip-path="url(#clipPath8)" />
    <path
       id="path9"
       d="m 257.56,136 v -2.00002 h 2 V 136 m -2,-8.00008 v -2.00002 h 2 v 2.00002 m -2,-8.00008 v -2.00002 h 2 v 2.00002 m -2,-8.00008 v -2.00002 h 2 v 2.00002 m -2,-8.00008 v -2.00002 h 2 v 2.00002 m -2,-8.000077 V 93.99958 h 2 v 2.000023 m -2,-8.000084 v -2.000023 h 2 v 2.000023 m -2,-8.000084 V 77.99942 h 2 v 2.000015 m -2,-8.000076 v -2.000023 h 2 v 2.000023"
       style="fill:#000000;fill-opacity:1;fill-rule:nonzero;stroke:none"
       transform="scale(0.95815289)"
       clip-path="url(#clipPath10)" />
    <text
       id="text10"
       xml:space="preserve"
       transform="matrix(0.95816249,0,0,0.95816249,3.9075064,154.26416)"
       clip-path="url(#clipPath11)"><tspan
         style="font-variant:normal;font-weight:normal;font-size:16px;font-family:Helvetica;writing-mode:lr-tb;fill:#000000;fill-opacity:1;fill-rule:nonzero;stroke:none"
         x="0 8.8984375 17.796875 26.695312 35.59375 40.921875 49.820312 58.71875 64.046875 72.945312"
         y="0"
         sodipodi:role="line"
         id="tspan10">2010-01-01</tspan></text>
    <text
       id="text11"
       xml:space="preserve"
       transform="matrix(0.95816249,0,0,0.95816249,223.32672,154.26416)"
       clip-path="url(#clipPath12)"><tspan
         style="font-variant:normal;font-weight:normal;font-size:16px;font-family:Helvetica;writing-mode:lr-tb;fill:#000000;fill-opacity:1;fill-rule:nonzero;stroke:none"
         x="0 8.8984375 17.796875 26.695312 35.59375 40.921875 49.820312 58.71875 64.046875 72.945312"
         y="0"
         sodipodi:role="line"
         id="tspan11">2010-01-08</tspan></text>
    <path
       id="path13"
       d="M 98.559998,61 H 148.56 V 81 H 98.559998 Z"
       style="fill:#ffffff;fill-opacity:1;fill-rule:nonzero;stroke:#000000;stroke-width:1;stroke-linecap:butt;stroke-linejoin:miter;stroke-miterlimit:10;stroke-dasharray:none;stroke-opacity:1"
       transform="matrix(0.95815289,0,0,0.95815289,0.47907644,0.47907644)"
       clip-path="url(#clipPath14)" />
    <text
       id="text14"
       xml:space="preserve"
       transform="matrix(0.95816249,0,0,0.95816249,115.60829,71.862187)"
       clip-path="url(#clipPath15)"><tspan
         style="font-variant:normal;font-weight:normal;font-size:12px;font-family:Helvetica;writing-mode:lr-tb;fill:#000000;fill-opacity:1;fill-rule:nonzero;stroke:none"
         x="0"
         y="0"
         id="tspan14">1</tspan></text>
    <path
       id="path16"
       d="m 151.06,61 h 50 v 20 h -50 z"
       style="fill:#ffffff;fill-opacity:1;fill-rule:nonzero;stroke:#000000;stroke-width:1;stroke-linecap:butt;stroke-linejoin:miter;stroke-miterlimit:10;stroke-dasharray:none;stroke-opacity:1"
       transform="matrix(0.95815289,0,0,0.95815289,0.47907644,0.47907644)"
       clip-path="url(#clipPath17)" />
    <text
       id="text17"
       xml:space="preserve"
       transform="matrix(0.95816249,0,0,0.95816249,165.43274,71.862187)"
       clip-path="url(#clipPath18)"><tspan
         style="font-variant:normal;font-weight:normal;font-size:12px;font-family:Helvetica;writing-mode:lr-tb;fill:#000000;fill-opacity:1;fill-rule:nonzero;stroke:none"
         x="0"
         y="0"
         id="tspan17">2</tspan></text>
    <path
       id="path19"
       d="m 201.06,61 h 50 v 20 h -50 z"
       style="fill:#ffffff;fill-opacity:1;fill-rule:nonzero;stroke:#000000;stroke-width:1;stroke-linecap:butt;stroke-linejoin:miter;stroke-miterlimit:10;stroke-dasharray:none;stroke-opacity:1"
       transform="matrix(0.95815289,0,0,0.95815289,0.47907644,0.47907644)"
       clip-path="url(#clipPath20)" />
    <text
       id="text20"
       xml:space="preserve"
       transform="matrix(0.95816249,0,0,0.95816249,213.34087,71.862187)"
       clip-path="url(#clipPath21)"><tspan
         style="font-variant:normal;font-weight:normal;font-size:12px;font-family:Helvetica;writing-mode:lr-tb;fill:#000000;fill-opacity:1;fill-rule:nonzero;stroke:none"
         x="0"
         y="0"
         id="tspan20">3</tspan></text>
    <path
       id="path22"
       d="M 98.559998,116 H 148.56 v 20 H 98.559998 Z"
       style="fill:#ffffff;fill-opacity:1;fill-rule:nonzero;stroke:#000000;stroke-width:1;stroke-linecap:butt;stroke-linejoin:miter;stroke-miterlimit:10;stroke-dasharray:none;stroke-opacity:1"
       transform="matrix(0.95815289,0,0,0.95815289,0.47907644,0.47907644)"
       clip-path="url(#clipPath23)" />
    <text
       id="text23"
       xml:space="preserve"
       transform="matrix(0.95816249,0,0,0.95816249,115.60829,124.56112)"
       clip-path="url(#clipPath24)"><tspan
         style="font-variant:normal;font-weight:normal;font-size:12px;font-family:Helvetica;writing-mode:lr-tb;fill:#000000;fill-opacity:1;fill-rule:nonzero;stroke:none"
         x="0"
         y="0"
         id="tspan23">1</tspan></text>
    <path
       id="path25"
       d="m 321.06,116 h 50 v 20 h -50 z"
       style="fill:#ffffff;fill-opacity:1;fill-rule:nonzero;stroke:#000000;stroke-width:1;stroke-linecap:butt;stroke-linejoin:miter;stroke-miterlimit:10;stroke-dasharray:none;stroke-opacity:1"
       transform="matrix(0.95815289,0,0,0.95815289,0.47907644,0.47907644)"
       clip-path="url(#clipPath26)" />
    <text
       id="text26"
       xml:space="preserve"
       transform="matrix(0.95816249,0,0,0.95816249,328.32037,124.56112)"
       clip-path="url(#clipPath27)"><tspan
         style="font-variant:normal;font-weight:normal;font-size:12px;font-family:Helvetica;writing-mode:lr-tb;fill:#000000;fill-opacity:1;fill-rule:nonzero;stroke:none"
         x="0"
         y="0"
         id="tspan26">2</tspan></text>
    <path
       id="path28"
       d="m 368.56,116 h 50 v 20 h -50 z"
       style="fill:#ffffff;fill-opacity:1;fill-rule:nonzero;stroke:#000000;stroke-width:1;stroke-linecap:butt;stroke-linejoin:miter;stroke-miterlimit:10;stroke-dasharray:none;stroke-opacity:1"
       transform="matrix(0.95815289,0,0,0.95815289,0.47907644,0.47907644)"
       clip-path="url(#clipPath29)" />
    <text
       id="text29"
       xml:space="preserve"
       transform="matrix(0.95816249,0,0,0.95816249,374.31216,124.56112)"
       clip-path="url(#clipPath30)"><tspan
         style="font-variant:normal;font-weight:normal;font-size:12px;font-family:Helvetica;writing-mode:lr-tb;fill:#000000;fill-opacity:1;fill-rule:nonzero;stroke:none"
         x="0"
         y="0"
         id="tspan29">3</tspan></text>
    <path
       id="path31"
       d="m 158.56,41 h 30 v 20 h -30 z"
       style="fill:#ffe6cc;fill-opacity:1;fill-rule:nonzero;stroke:#d79b00;stroke-width:1;stroke-linecap:butt;stroke-linejoin:miter;stroke-miterlimit:10;stroke-dasharray:none;stroke-opacity:1"
       transform="matrix(0.95815289,0,0,0.95815289,0.47907644,0.47907644)"
       clip-path="url(#clipPath32)" />
    <text
       id="text32"
       xml:space="preserve"
       transform="matrix(0.95816249,0,0,0.95816249,153.91982,52.698937)"
       clip-path="url(#clipPath33)"><tspan
         style="font-variant:normal;font-weight:700;font-size:12px;font-family:Helvetica;writing-mode:lr-tb;fill:#000000;fill-opacity:1;fill-rule:nonzero;stroke:none"
         x="0 3.3339844 6.6679688 13.341797 20.015625"
         y="0"
         sodipodi:role="line"
         id="tspan32">likes</tspan></text>
    <path
       id="path34"
       d="m 158.56,21 h 30 v 20 h -30 z"
       style="fill:#ffe6cc;fill-opacity:1;fill-rule:nonzero;stroke:#d79b00;stroke-width:1;stroke-linecap:butt;stroke-linejoin:miter;stroke-miterlimit:10;stroke-dasharray:none;stroke-opacity:1"
       transform="matrix(0.95815289,0,0,0.95815289,0.47907644,0.47907644)"
       clip-path="url(#clipPath35)" />
    <text
       id="text35"
       xml:space="preserve"
       transform="matrix(0.95816249,0,0,0.95816249,153.91982,33.535687)"
       clip-path="url(#clipPath36)"><tspan
         style="font-variant:normal;font-weight:700;font-size:12px;font-family:Helvetica;writing-mode:lr-tb;fill:#000000;fill-opacity:1;fill-rule:nonzero;stroke:none"
         x="0 3.3339844 6.6679688 13.341797 20.015625"
         y="0"
         sodipodi:role="line"
         id="tspan35">likes</tspan></text>
    <path
       id="path37"
       d="m 158.56,1 h 30 v 20 h -30 z"
       style="fill:#ffe6cc;fill-opacity:1;fill-rule:nonzero;stroke:#d79b00;stroke-width:1;stroke-linecap:butt;stroke-linejoin:miter;stroke-miterlimit:10;stroke-dasharray:none;stroke-opacity:1"
       transform="matrix(0.95815289,0,0,0.95815289,0.47907644,0.47907644)"
       clip-path="url(#clipPath38)" />
    <text
       id="text38"
       xml:space="preserve"
       transform="matrix(0.95816249,0,0,0.95816249,153.91982,14.372437)"
       clip-path="url(#clipPath39)"><tspan
         style="font-variant:normal;font-weight:700;font-size:12px;font-family:Helvetica;writing-mode:lr-tb;fill:#000000;fill-opacity:1;fill-rule:nonzero;stroke:none"
         x="0 3.3339844 6.6679688 13.341797 20.015625"
         y="0"
         sodipodi:role="line"
         id="tspan38">likes</tspan></text>
    <path
       id="path40"
       d="m 378.56,136 h 30 v 20 h -30 z"
       style="fill:#ffe6cc;fill-opacity:1;fill-rule:nonzero;stroke:#d79b00;stroke-width:1;stroke-linecap:butt;stroke-linejoin:miter;stroke-miterlimit:10;stroke-dasharray:none;stroke-opacity:1"
       transform="matrix(0.95815289,0,0,0.95815289,0.47907644,0.47907644)"
       clip-path="url(#clipPath41)" />
    <text
       id="text41"
       xml:space="preserve"
       transform="matrix(0.95816249,0,0,0.95816249,364.71557,143.72437)"
       clip-path="url(#clipPath42)"><tspan
         style="font-variant:normal;font-weight:700;font-size:12px;font-family:Helvetica;writing-mode:lr-tb;fill:#000000;fill-opacity:1;fill-rule:nonzero;stroke:none"
         x="0 3.3339844 6.6679688 13.341797 20.015625"
         y="0"
         sodipodi:role="line"
         id="tspan41">likes</tspan></text>
    <path
       id="path43"
       d="m 331.06,136 h 30 v 20 h -30 z"
       style="fill:#ffe6cc;fill-opacity:1;fill-rule:nonzero;stroke:#d79b00;stroke-width:1;stroke-linecap:butt;stroke-linejoin:miter;stroke-miterlimit:10;stroke-dasharray:none;stroke-opacity:1"
       transform="matrix(0.95815289,0,0,0.95815289,0.47907644,0.47907644)"
       clip-path="url(#clipPath44)" />
    <text
       id="text44"
       xml:space="preserve"
       transform="matrix(0.95816249,0,0,0.95816249,318.72377,143.72437)"
       clip-path="url(#clipPath45)"><tspan
         style="font-variant:normal;font-weight:700;font-size:12px;font-family:Helvetica;writing-mode:lr-tb;fill:#000000;fill-opacity:1;fill-rule:nonzero;stroke:none"
         x="0 3.3339844 6.6679688 13.341797 20.015625"
         y="0"
         sodipodi:role="line"
         id="tspan44">likes</tspan></text>
    <path
       id="path46"
       d="m 108.56,136 h 30 v 20 h -30 z"
       style="fill:#ffe6cc;fill-opacity:1;fill-rule:nonzero;stroke:#d79b00;stroke-width:1;stroke-linecap:butt;stroke-linejoin:miter;stroke-miterlimit:10;stroke-dasharray:none;stroke-opacity:1"
       transform="matrix(0.95815289,0,0,0.95815289,0.47907644,0.47907644)"
       clip-path="url(#clipPath47)" />
    <text
       id="text47"
       xml:space="preserve"
       transform="matrix(0.95816249,0,0,0.95816249,106.0117,143.72437)"
       clip-path="url(#clipPath48)"><tspan
         style="font-variant:normal;font-weight:700;font-size:12px;font-family:Helvetica;writing-mode:lr-tb;fill:#000000;fill-opacity:1;fill-rule:nonzero;stroke:none"
         x="0 3.3339844 6.6679688 13.341797 20.015625"
         y="0"
         sodipodi:role="line"
         id="tspan47">likes</tspan></text>
    <path
       id="path49"
       d="m 123.56,211 h 255 v 20 h -255 z"
       style="fill:#ffe6cc;fill-opacity:1;fill-rule:nonzero;stroke:#d79b00;stroke-width:1;stroke-linecap:butt;stroke-linejoin:miter;stroke-miterlimit:10;stroke-dasharray:none;stroke-opacity:1"
       transform="matrix(0.95815289,0,0,0.95815289,0.47907644,0.47907644)"
       clip-path="url(#clipPath50)" />
    <text
       id="text50"
       xml:space="preserve"
       transform="matrix(0.95816249,0,0,0.95816249,223.10215,215.58656)"
       clip-path="url(#clipPath51)"><tspan
         style="font-variant:normal;font-weight:700;font-size:12px;font-family:Helvetica;writing-mode:lr-tb;fill:#000000;fill-opacity:1;fill-rule:nonzero;stroke:none"
         x="0 7.3300781 14.660156 18.65625 25.986328 33.316406"
         y="0"
         sodipodi:role="line"
         id="tspan50">output</tspan></text>
    <path
       id="path52"
       d="m 123.56,231 h 85 v 20 h -85 z"
       style="fill:#f5f5f5;fill-opacity:1;fill-rule:nonzero;stroke:#666666;stroke-width:1;stroke-linecap:butt;stroke-linejoin:miter;stroke-miterlimit:10;stroke-dasharray:none;stroke-opacity:1"
       transform="matrix(0.95815289,0,0,0.95815289,0.47907644,0.47907644)"
       clip-path="url(#clipPath53)" />
    <text
       id="text53"
       xml:space="preserve"
       transform="matrix(0.95816249,0,0,0.95816249,148.33553,235.70797)"
       clip-path="url(#clipPath54)"><tspan
         style="font-style:oblique;font-variant:normal;font-weight:normal;font-size:10px;font-family:Helvetica;writing-mode:lr-tb;fill:#333333;fill-opacity:1;fill-rule:nonzero;stroke:none"
         x="0 7.2216797 12.783203 18.344727"
         y="0"
         sodipodi:role="line"
         id="tspan53">week</tspan></text>
    <path
       id="path55"
       d="m 208.56,231 h 85 v 20 h -85 z"
       style="fill:#f5f5f5;fill-opacity:1;fill-rule:nonzero;stroke:#666666;stroke-width:1;stroke-linecap:butt;stroke-linejoin:miter;stroke-miterlimit:10;stroke-dasharray:none;stroke-opacity:1"
       transform="matrix(0.95815289,0,0,0.95815289,0.47907644,0.47907644)"
       clip-path="url(#clipPath56)" />
    <text
       id="text56"
       xml:space="preserve"
       transform="matrix(0.95816249,0,0,0.95816249,219.67373,235.70797)"
       clip-path="url(#clipPath57)"><tspan
         style="font-style:oblique;font-variant:normal;font-weight:normal;font-size:10px;font-family:Helvetica;writing-mode:lr-tb;fill:#333333;fill-opacity:1;fill-rule:nonzero;stroke:none"
         x="0 5.5615234 11.123047 16.123047 18.901367 24.462891 26.68457 28.90625 33.90625 39.467773"
         y="0"
         sodipodi:role="line"
         id="tspan56">post_likes</tspan></text>
    <path
       id="path58"
       d="m 123.56,251 h 85 v 20 h -85 z"
       style="fill:#ffffff;fill-opacity:1;fill-rule:nonzero;stroke:#000000;stroke-width:1;stroke-linecap:butt;stroke-linejoin:miter;stroke-miterlimit:10;stroke-dasharray:none;stroke-opacity:1"
       transform="matrix(0.95815289,0,0,0.95815289,0.47907644,0.47907644)"
       clip-path="url(#clipPath59)" />
    <text
       id="text59"
       xml:space="preserve"
       transform="matrix(0.95816249,0,0,0.95816249,130.11547,253.91306)"
       clip-path="url(#clipPath60)"><tspan
         style="font-variant:normal;font-weight:normal;font-size:12px;font-family:Helvetica;writing-mode:lr-tb;fill:#000000;fill-opacity:1;fill-rule:nonzero;stroke:none"
         x="0 6.6738281 13.347656 20.021484 26.695312 30.691406 37.365234 44.039062 48.035156 54.708984"
         y="0"
         sodipodi:role="line"
         id="tspan59">2010-01-01</tspan></text>
    <path
       id="path61"
       d="m 208.56,251 h 85 v 20 h -85 z"
       style="fill:#ffffff;fill-opacity:1;fill-rule:nonzero;stroke:#000000;stroke-width:1;stroke-linecap:butt;stroke-linejoin:miter;stroke-miterlimit:10;stroke-dasharray:none;stroke-opacity:1"
       transform="matrix(0.95815289,0,0,0.95815289,0.47907644,0.47907644)"
       clip-path="url(#clipPath62)" />
    <text
       id="text62"
       xml:space="preserve"
       transform="matrix(0.95816249,0,0,0.95816249,237.77401,253.91306)"
       clip-path="url(#clipPath63)"><tspan
         style="font-style:oblique;font-variant:normal;font-weight:normal;font-size:12px;font-family:Helvetica;writing-mode:lr-tb;fill:#000000;fill-opacity:1;fill-rule:nonzero;stroke:none"
         x="0"
         y="0"
         id="tspan62">3</tspan></text>
    <path
       id="path64"
       d="m 123.56,271 h 85 v 20 h -85 z"
       style="fill:#ffffff;fill-opacity:1;fill-rule:nonzero;stroke:#000000;stroke-width:1;stroke-linecap:butt;stroke-linejoin:miter;stroke-miterlimit:10;stroke-dasharray:none;stroke-opacity:1"
       transform="matrix(0.95815289,0,0,0.95815289,0.47907644,0.47907644)"
       clip-path="url(#clipPath65)" />
    <text
       id="text65"
       xml:space="preserve"
       transform="matrix(0.95816249,0,0,0.95816249,130.11547,273.07631)"
       clip-path="url(#clipPath66)"><tspan
         style="font-variant:normal;font-weight:normal;font-size:12px;font-family:Helvetica;writing-mode:lr-tb;fill:#000000;fill-opacity:1;fill-rule:nonzero;stroke:none"
         x="0 6.6738281 13.347656 20.021484 26.695312 30.691406 37.365234 44.039062 48.035156 54.708984"
         y="0"
         sodipodi:role="line"
         id="tspan65">2010-01-08</tspan></text>
    <path
       id="path67"
       d="m 208.56,271 h 85 v 20 h -85 z"
       style="fill:#ffffff;fill-opacity:1;fill-rule:nonzero;stroke:#000000;stroke-width:1;stroke-linecap:butt;stroke-linejoin:miter;stroke-miterlimit:10;stroke-dasharray:none;stroke-opacity:1"
       transform="matrix(0.95815289,0,0,0.95815289,0.47907644,0.47907644)"
       clip-path="url(#clipPath68)" />
    <text
       id="text68"
       xml:space="preserve"
       transform="matrix(0.95816249,0,0,0.95816249,237.77401,273.07631)"
       clip-path="url(#clipPath69)"><tspan
         style="font-variant:normal;font-weight:normal;font-size:12px;font-family:Helvetica;writing-mode:lr-tb;fill:#000000;fill-opacity:1;fill-rule:nonzero;stroke:none"
         x="0"
         y="0"
         id="tspan68">0</tspan></text>
    <path
       id="path70"
       d="m 293.56,231 h 85 v 20 h -85 z"
       style="fill:#f5f5f5;fill-opacity:1;fill-rule:nonzero;stroke:#666666;stroke-width:1;stroke-linecap:butt;stroke-linejoin:miter;stroke-miterlimit:10;stroke-dasharray:none;stroke-opacity:1"
       transform="matrix(0.95815289,0,0,0.95815289,0.47907644,0.47907644)"
       clip-path="url(#clipPath71)" />
    <text
       id="text71"
       xml:space="preserve"
       transform="matrix(0.95816249,0,0,0.95816249,290.45798,235.70797)"
       clip-path="url(#clipPath72)"><tspan
         style="font-style:oblique;font-variant:normal;font-weight:normal;font-size:10px;font-family:Helvetica;writing-mode:lr-tb;fill:#333333;fill-opacity:1;fill-rule:nonzero;stroke:none"
         x="0 5 10.561523 18.891602 27.22168 32.783203 38.344727 41.123047 46.68457 48.90625 51.12793 56.12793 61.689453"
         y="0"
         sodipodi:role="line"
         id="tspan71">comment_likes</tspan></text>
    <path
       id="path73"
       d="m 293.56,251 h 85 v 20 h -85 z"
       style="fill:#ffffff;fill-opacity:1;fill-rule:nonzero;stroke:#000000;stroke-width:1;stroke-linecap:butt;stroke-linejoin:miter;stroke-miterlimit:10;stroke-dasharray:none;stroke-opacity:1"
       transform="matrix(0.95815289,0,0,0.95815289,0.47907644,0.47907644)"
       clip-path="url(#clipPath74)" />
    <text
       id="text74"
       xml:space="preserve"
       transform="matrix(0.95816249,0,0,0.95816249,319.21782,253.91306)"
       clip-path="url(#clipPath75)"><tspan
         style="font-style:oblique;font-variant:normal;font-weight:normal;font-size:12px;font-family:Helvetica;writing-mode:lr-tb;fill:#000000;fill-opacity:1;fill-rule:nonzero;stroke:none"
         x="0"
         y="0"
         id="tspan74">1</tspan></text>
    <path
       id="path76"
       d="m 293.56,271 h 85 v 20 h -85 z"
       style="fill:#ffffff;fill-opacity:1;fill-rule:nonzero;stroke:#000000;stroke-width:1;stroke-linecap:butt;stroke-linejoin:miter;stroke-miterlimit:10;stroke-dasharray:none;stroke-opacity:1"
       transform="matrix(0.95815289,0,0,0.95815289,0.47907644,0.47907644)"
       clip-path="url(#clipPath77)" />
    <text
       id="text77"
       xml:space="preserve"
       transform="matrix(0.95816249,0,0,0.95816249,319.21782,273.07631)"
       clip-path="url(#clipPath78)"><tspan
         style="font-variant:normal;font-weight:normal;font-size:12px;font-family:Helvetica;writing-mode:lr-tb;fill:#000000;fill-opacity:1;fill-rule:nonzero;stroke:none"
         x="0"
         y="0"
         id="tspan77">2</tspan></text>
  </g>
</svg>
