<?xml version="1.0" encoding="UTF-8" standalone="no"?>
<!-- Created with Inkscape (http://www.inkscape.org/) -->

<svg
   version="1.1"
   id="svg1"
   width="521.27997"
   height="196.15999"
   viewBox="0 0 521.27997 196.15999"
   sodipodi:docname="sql-4.pdf"
   xmlns:inkscape="http://www.inkscape.org/namespaces/inkscape"
   xmlns:sodipodi="http://sodipodi.sourceforge.net/DTD/sodipodi-0.dtd"
   xmlns="http://www.w3.org/2000/svg"
   xmlns:svg="http://www.w3.org/2000/svg">
  <defs
     id="defs1">
    <clipPath
       clipPathUnits="userSpaceOnUse"
       id="clipPath2">
      <path
         d="M 0,0 H 1629.1666 V 610.93744 H 0 Z"
         transform="scale(0.33391306)"
         clip-rule="evenodd"
         id="path2" />
    </clipPath>
    <clipPath
       clipPathUnits="userSpaceOnUse"
       id="clipPath4">
      <path
         d="M 0,0 H 1629.1666 V 610.93744 H 0 Z"
         transform="matrix(0.33391306,0,0,0.33391306,-0.5,-0.5)"
         clip-rule="evenodd"
         id="path4" />
    </clipPath>
    <clipPath
       clipPathUnits="userSpaceOnUse"
       id="clipPath5">
      <path
         d="M 0,0 H 1629.1666 V 610.93744 H 0 Z"
         transform="matrix(0.33390972,0,0,0.33390972,-405.29688,-38)"
         clip-rule="evenodd"
         id="path5" />
    </clipPath>
    <clipPath
       clipPathUnits="userSpaceOnUse"
       id="clipPath7">
      <path
         d="M 0,0 H 1629.1666 V 610.93744 H 0 Z"
         transform="matrix(0.33391306,0,0,0.33391306,-0.5,-0.5)"
         clip-rule="evenodd"
         id="path7" />
    </clipPath>
    <clipPath
       clipPathUnits="userSpaceOnUse"
       id="clipPath9">
      <path
         d="M 0,0 H 1629.1666 V 610.93744 H 0 Z"
         transform="matrix(0.33391306,0,0,0.33391306,-0.5,-0.5)"
         clip-rule="evenodd"
         id="path9" />
    </clipPath>
    <clipPath
       clipPathUnits="userSpaceOnUse"
       id="clipPath11">
      <path
         d="M 0,0 H 1629.1666 V 610.93744 H 0 Z"
         transform="matrix(0.33391306,0,0,0.33391306,-0.5,-0.5)"
         clip-rule="evenodd"
         id="path11" />
    </clipPath>
    <clipPath
       clipPathUnits="userSpaceOnUse"
       id="clipPath12">
      <path
         d="M 0,0 H 1629.1666 V 610.93744 H 0 Z"
         transform="matrix(0.33390972,0,0,0.33390972,-7.4375,-26)"
         clip-rule="evenodd"
         id="path12" />
    </clipPath>
    <clipPath
       clipPathUnits="userSpaceOnUse"
       id="clipPath13">
      <path
         d="M 0,0 H 1629.1666 V 610.93744 H 0 Z"
         transform="matrix(0.33390972,0,0,0.33390972,-140.85937,-46)"
         clip-rule="evenodd"
         id="path13" />
    </clipPath>
    <clipPath
       clipPathUnits="userSpaceOnUse"
       id="clipPath15">
      <path
         d="M 0,0 H 1629.1666 V 610.93744 H 0 Z"
         transform="matrix(0.33391306,0,0,0.33391306,-0.5,-0.5)"
         clip-rule="evenodd"
         id="path15" />
    </clipPath>
    <clipPath
       clipPathUnits="userSpaceOnUse"
       id="clipPath16">
      <path
         d="M 0,0 H 1629.1666 V 610.93744 H 0 Z"
         transform="matrix(0.33390972,0,0,0.33390972,-405.29688,-108)"
         clip-rule="evenodd"
         id="path16" />
    </clipPath>
    <clipPath
       clipPathUnits="userSpaceOnUse"
       id="clipPath18">
      <path
         d="M 0,0 H 1629.1666 V 610.93744 H 0 Z"
         transform="matrix(0.33391306,0,0,0.33391306,-0.5,-0.5)"
         clip-rule="evenodd"
         id="path18" />
    </clipPath>
    <clipPath
       clipPathUnits="userSpaceOnUse"
       id="clipPath20">
      <path
         d="M 0,0 H 1629.1666 V 610.93744 H 0 Z"
         transform="matrix(0.33391306,0,0,0.33391306,-0.5,-0.5)"
         clip-rule="evenodd"
         id="path20" />
    </clipPath>
    <clipPath
       clipPathUnits="userSpaceOnUse"
       id="clipPath22">
      <path
         d="M 0,0 H 1629.1666 V 610.93744 H 0 Z"
         transform="matrix(0.33391306,0,0,0.33391306,-0.5,-0.5)"
         clip-rule="evenodd"
         id="path22" />
    </clipPath>
    <clipPath
       clipPathUnits="userSpaceOnUse"
       id="clipPath23">
      <path
         d="M 0,0 H 1629.1666 V 610.93744 H 0 Z"
         transform="matrix(0.33390972,0,0,0.33390972,-11.890625,-106)"
         clip-rule="evenodd"
         id="path23" />
    </clipPath>
    <clipPath
       clipPathUnits="userSpaceOnUse"
       id="clipPath25">
      <path
         d="M 0,0 H 1629.1666 V 610.93744 H 0 Z"
         transform="matrix(0.33391306,0,0,0.33391306,-0.5,-0.5)"
         clip-rule="evenodd"
         id="path25" />
    </clipPath>
    <clipPath
       clipPathUnits="userSpaceOnUse"
       id="clipPath26">
      <path
         d="M 0,0 H 1629.1666 V 610.93744 H 0 Z"
         transform="matrix(0.33390972,0,0,0.33390972,-397.10938,-178)"
         clip-rule="evenodd"
         id="path26" />
    </clipPath>
    <clipPath
       clipPathUnits="userSpaceOnUse"
       id="clipPath28">
      <path
         d="M 0,0 H 1629.1666 V 610.93744 H 0 Z"
         transform="matrix(0.33391306,0,0,0.33391306,-0.5,-0.5)"
         clip-rule="evenodd"
         id="path28" />
    </clipPath>
    <clipPath
       clipPathUnits="userSpaceOnUse"
       id="clipPath30">
      <path
         d="M 0,0 H 1629.1666 V 610.93744 H 0 Z"
         transform="matrix(0.33391306,0,0,0.33391306,-0.5,-0.5)"
         clip-rule="evenodd"
         id="path30" />
    </clipPath>
    <clipPath
       clipPathUnits="userSpaceOnUse"
       id="clipPath32">
      <path
         d="M 0,0 H 1629.1666 V 610.93744 H 0 Z"
         transform="matrix(0.33391306,0,0,0.33391306,-0.5,-0.5)"
         clip-rule="evenodd"
         id="path32" />
    </clipPath>
    <clipPath
       clipPathUnits="userSpaceOnUse"
       id="clipPath33">
      <path
         d="M 0,0 H 1629.1666 V 610.93744 H 0 Z"
         transform="matrix(0.33390972,0,0,0.33390972,-6.71875,-166)"
         clip-rule="evenodd"
         id="path33" />
    </clipPath>
    <clipPath
       clipPathUnits="userSpaceOnUse"
       id="clipPath34">
      <path
         d="M 0,0 H 1629.1666 V 610.93744 H 0 Z"
         transform="matrix(0.33390972,0,0,0.33390972,-296.35938,-166)"
         clip-rule="evenodd"
         id="path34" />
    </clipPath>
    <clipPath
       clipPathUnits="userSpaceOnUse"
       id="clipPath35">
      <path
         d="M 0,0 H 1629.1666 V 610.93744 H 0 Z"
         transform="matrix(0.33390972,0,0,0.33390972,-331.04688,-166)"
         clip-rule="evenodd"
         id="path35" />
    </clipPath>
    <clipPath
       clipPathUnits="userSpaceOnUse"
       id="clipPath36">
      <path
         d="M 0,0 H 1629.1666 V 610.93744 H 0 Z"
         transform="matrix(0.33390972,0,0,0.33390972,-119.51562,-186)"
         clip-rule="evenodd"
         id="path36" />
    </clipPath>
    <clipPath
       clipPathUnits="userSpaceOnUse"
       id="clipPath37">
      <path
         d="M 0,0 H 1629.1666 V 610.93744 H 0 Z"
         transform="matrix(0.33390972,0,0,0.33390972,-172,-186)"
         clip-rule="evenodd"
         id="path37" />
    </clipPath>
  </defs>
  <sodipodi:namedview
     id="namedview1"
     pagecolor="#ffffff"
     bordercolor="#000000"
     borderopacity="0.25"
     inkscape:showpageshadow="2"
     inkscape:pageopacity="0.0"
     inkscape:pagecheckerboard="0"
     inkscape:deskcolor="#d1d1d1">
    <inkscape:page
       x="0"
       y="0"
       inkscape:label="1"
       id="page1"
       width="521.27997"
       height="196.15999"
       margin="0"
       bleed="0" />
  </sodipodi:namedview>
  <g
     id="g1"
     inkscape:groupmode="layer"
     inkscape:label="1">
    <path
       id="path1"
       d="M 0,0 H 544 V 204 H 0 Z"
       style="fill:#ffffff;fill-opacity:1;fill-rule:nonzero;stroke:none"
       transform="scale(0.95833324)"
       clip-path="url(#clipPath2)" />
    <path
       id="path3"
       d="M 391,1 H 541 V 61 H 391 Z"
       style="fill:#f8cecc;fill-opacity:1;fill-rule:nonzero;stroke:#b85450;stroke-width:1;stroke-linecap:butt;stroke-linejoin:miter;stroke-miterlimit:10;stroke-dasharray:none;stroke-opacity:1"
       transform="matrix(0.95833324,0,0,0.95833324,0.47916662,0.47916662)"
       clip-path="url(#clipPath4)" />
    <text
       id="text4"
       xml:space="preserve"
       transform="matrix(0.95834284,0,0,0.95834284,388.41336,36.417028)"
       clip-path="url(#clipPath5)"><tspan
         style="font-variant:normal;font-weight:normal;font-size:21px;font-family:Helvetica;writing-mode:lr-tb;fill:#000000;fill-opacity:1;fill-rule:nonzero;stroke:none"
         x="0 15.165527 26.844727 32.679199 43.179199 54.858398 59.523926 64.189453 75.868652 87.547852 93.382324 98.047852 109.72705"
         y="0"
         sodipodi:role="line"
         id="tspan4">No validation</tspan></text>
    <path
       id="path6"
       d="m 351,31 h 33.64001"
       style="fill:none;stroke:#000000;stroke-width:1;stroke-linecap:butt;stroke-linejoin:miter;stroke-miterlimit:10;stroke-dasharray:none;stroke-opacity:1"
       transform="matrix(0.95833324,0,0,0.95833324,0.47916662,0.47916662)"
       clip-path="url(#clipPath7)" />
    <path
       id="path8"
       d="m 389.89001,31 -7,3.5 1.75,-3.5 -1.75,-3.5 z"
       style="fill:#000000;fill-opacity:1;fill-rule:nonzero;stroke:#000000;stroke-width:1;stroke-linecap:butt;stroke-linejoin:miter;stroke-miterlimit:10;stroke-dasharray:none;stroke-opacity:1"
       transform="matrix(0.95833324,0,0,0.95833324,0.47916662,0.47916662)"
       clip-path="url(#clipPath9)" />
    <path
       id="path10"
       d="M 1,1 H 351 V 61 H 1 Z"
       style="fill:#ffffff;fill-opacity:1;fill-rule:nonzero;stroke:#000000;stroke-width:1;stroke-linecap:butt;stroke-linejoin:miter;stroke-miterlimit:10;stroke-dasharray:none;stroke-opacity:1"
       transform="matrix(0.95833324,0,0,0.95833324,0.47916662,0.47916662)"
       clip-path="url(#clipPath11)" />
    <text
       id="text11"
       xml:space="preserve"
       transform="matrix(0.95834284,0,0,0.95834284,7.1276749,24.916914)"
       clip-path="url(#clipPath12)"><tspan
         style="font-variant:normal;font-weight:normal;font-size:16px;font-family:Helvetica;writing-mode:lr-tb;fill:#000000;fill-opacity:1;fill-rule:nonzero;stroke:none"
         x="0 11.554688 20.453125 24.007812 32.90625 40.90625 45.351562 54.25 59.578125 68.476562 77.375 86.273438 95.171875 99.617188 107.61719 116.51562 120.07031 123.625 132.52344 141.42188 145.86719 149.42188 158.32031 167.21875 171.66406 176.10938 185.00781 193.90625 198.35156 206.35156 215.25 218.80469 227.70312 236.60156 241.04688 254.375 257.92969 266.82812 275.72656 280.17188 284.61719 292.61719 301.51562 310.41406 319.3125 328.21094"
         y="0"
         sodipodi:role="line"
         id="tspan11">Rules around validating the value might change</tspan></text>
    <text
       id="text12"
       xml:space="preserve"
       transform="matrix(0.95834284,0,0,0.95834284,134.99157,44.083771)"
       clip-path="url(#clipPath13)"><tspan
         style="font-variant:normal;font-weight:normal;font-size:16px;font-family:Helvetica;writing-mode:lr-tb;fill:#000000;fill-opacity:1;fill-rule:nonzero;stroke:none"
         x="0 4.4453125 9.7734375 18.671875 27.570312 36.46875 45.367188 54.265625 58.710938 62.265625"
         y="0"
         sodipodi:role="line"
         id="tspan12">frequently</tspan></text>
    <path
       id="path14"
       d="m 391,71 h 150 v 60 H 391 Z"
       style="fill:#f8cecc;fill-opacity:1;fill-rule:nonzero;stroke:#b85450;stroke-width:1;stroke-linecap:butt;stroke-linejoin:miter;stroke-miterlimit:10;stroke-dasharray:none;stroke-opacity:1"
       transform="matrix(0.95833324,0,0,0.95833324,0.47916662,0.47916662)"
       clip-path="url(#clipPath15)" />
    <text
       id="text15"
       xml:space="preserve"
       transform="matrix(0.95834284,0,0,0.95834284,388.41336,103.50103)"
       clip-path="url(#clipPath16)"><tspan
         style="font-variant:normal;font-weight:normal;font-size:21px;font-family:Helvetica;writing-mode:lr-tb;fill:#000000;fill-opacity:1;fill-rule:nonzero;stroke:none"
         x="0 15.165527 26.844727 32.679199 43.179199 54.858398 59.523926 64.189453 75.868652 87.547852 93.382324 98.047852 109.72705"
         y="0"
         sodipodi:role="line"
         id="tspan15">No validation</tspan></text>
    <path
       id="path17"
       d="m 351,101 h 33.64001"
       style="fill:none;stroke:#000000;stroke-width:1;stroke-linecap:butt;stroke-linejoin:miter;stroke-miterlimit:10;stroke-dasharray:none;stroke-opacity:1"
       transform="matrix(0.95833324,0,0,0.95833324,0.47916662,0.47916662)"
       clip-path="url(#clipPath18)" />
    <path
       id="path19"
       d="m 389.89001,101 -7,3.5 1.75,-3.5 -1.75,-3.5 z"
       style="fill:#000000;fill-opacity:1;fill-rule:nonzero;stroke:#000000;stroke-width:1;stroke-linecap:butt;stroke-linejoin:miter;stroke-miterlimit:10;stroke-dasharray:none;stroke-opacity:1"
       transform="matrix(0.95833324,0,0,0.95833324,0.47916662,0.47916662)"
       clip-path="url(#clipPath20)" />
    <path
       id="path21"
       d="m 1,71 h 350 v 60 H 1 Z"
       style="fill:#ffffff;fill-opacity:1;fill-rule:nonzero;stroke:#000000;stroke-width:1;stroke-linecap:butt;stroke-linejoin:miter;stroke-miterlimit:10;stroke-dasharray:none;stroke-opacity:1"
       transform="matrix(0.95833324,0,0,0.95833324,0.47916662,0.47916662)"
       clip-path="url(#clipPath22)" />
    <text
       id="text22"
       xml:space="preserve"
       transform="matrix(0.95834284,0,0,0.95834284,11.395295,101.58434)"
       clip-path="url(#clipPath23)"><tspan
         style="font-variant:normal;font-weight:normal;font-size:16px;font-family:Helvetica;writing-mode:lr-tb;fill:#000000;fill-opacity:1;fill-rule:nonzero;stroke:none"
         x="0 11.554688 20.453125 24.007812 32.90625 40.90625 45.351562 54.25 59.578125 68.476562 77.375 86.273438 95.171875 99.617188 107.61719 116.51562 120.07031 123.625 132.52344 141.42188 145.86719 149.42188 158.32031 167.21875 171.66406 176.10938 185.00781 193.90625 198.35156 206.35156 215.25 218.80469 227.70312 236.60156 241.04688 249.94531 255.27344 264.17188 268.61719 276.61719 285.51562 298.84375 307.74219 311.29688 320.19531"
         y="0"
         sodipodi:role="line"
         id="tspan22">Rules around validating the value are complex</tspan></text>
    <path
       id="path24"
       d="m 391,141 h 150 v 60 H 391 Z"
       style="fill:#dae8fc;fill-opacity:1;fill-rule:nonzero;stroke:#6c8ebf;stroke-width:1;stroke-linecap:butt;stroke-linejoin:miter;stroke-miterlimit:10;stroke-dasharray:none;stroke-opacity:1"
       transform="matrix(0.95833324,0,0,0.95833324,0.47916662,0.47916662)"
       clip-path="url(#clipPath25)" />
    <text
       id="text25"
       xml:space="preserve"
       transform="matrix(0.95834284,0,0,0.95834284,380.56693,170.58503)"
       clip-path="url(#clipPath26)"><tspan
         style="font-variant:normal;font-weight:normal;font-size:21px;font-family:Helvetica;writing-mode:lr-tb;fill:#000000;fill-opacity:1;fill-rule:nonzero;stroke:none"
         x="0 14.006836 25.686035 37.365234 43.199707 53.699707 65.378906 70.044434 74.709961 86.38916 98.068359 103.90283 108.56836 120.24756 131.92676"
         y="0"
         sodipodi:role="line"
         id="tspan25">Add validation!</tspan></text>
    <path
       id="path27"
       d="m 351,171 h 33.64001"
       style="fill:none;stroke:#000000;stroke-width:1;stroke-linecap:butt;stroke-linejoin:miter;stroke-miterlimit:10;stroke-dasharray:none;stroke-opacity:1"
       transform="matrix(0.95833324,0,0,0.95833324,0.47916662,0.47916662)"
       clip-path="url(#clipPath28)" />
    <path
       id="path29"
       d="m 389.89001,171 -7,3.5 1.75,-3.5 -1.75,-3.5 z"
       style="fill:#000000;fill-opacity:1;fill-rule:nonzero;stroke:#000000;stroke-width:1;stroke-linecap:butt;stroke-linejoin:miter;stroke-miterlimit:10;stroke-dasharray:none;stroke-opacity:1"
       transform="matrix(0.95833324,0,0,0.95833324,0.47916662,0.47916662)"
       clip-path="url(#clipPath30)" />
    <path
       id="path31"
       d="m 1,141 h 350 v 60 H 1 Z"
       style="fill:#ffffff;fill-opacity:1;fill-rule:nonzero;stroke:#000000;stroke-width:1;stroke-linecap:butt;stroke-linejoin:miter;stroke-miterlimit:10;stroke-dasharray:none;stroke-opacity:1"
       transform="matrix(0.95833324,0,0,0.95833324,0.47916662,0.47916662)"
       clip-path="url(#clipPath32)" />
    <text
       id="text32"
       xml:space="preserve"
       transform="matrix(0.95834284,0,0,0.95834284,6.438866,159.08491)"
       clip-path="url(#clipPath33)"><tspan
         style="font-variant:normal;font-weight:normal;font-size:16px;font-family:Helvetica;writing-mode:lr-tb;fill:#000000;fill-opacity:1;fill-rule:nonzero;stroke:none"
         x="0 14.820312 23.71875 28.164062 39.71875 48.617188 57.515625 61.960938 66.40625 70.851562 79.75 84.195312 97.523438 106.42188 114.42188 123.32031 127.76562 135.76562 144.66406 149.99219 158.89062 163.33594 174.89062 183.78906 188.23438 197.13281 206.03125 214.03125 222.92969 227.375 231.82031 240.71875 249.61719 254.0625 259.39062 262.94531 271.84375 280.74219 285.1875"
         y="0"
         sodipodi:role="line"
         id="tspan32">We want to make sure we have the right </tspan></text>
    <text
       id="text33"
       xml:space="preserve"
       transform="matrix(0.95834284,0,0,0.95834284,284.01389,159.08491)"
       clip-path="url(#clipPath34)"><tspan
         style="font-style:oblique;font-variant:normal;font-weight:normal;font-size:16px;font-family:Helvetica;writing-mode:lr-tb;fill:#000000;fill-opacity:1;fill-rule:nonzero;stroke:none"
         x="0 4.4453125 12.445312 21.34375 30.242188"
         y="0"
         sodipodi:role="line"
         id="tspan33">type </tspan></text>
    <text
       id="text34"
       xml:space="preserve"
       transform="matrix(0.95834284,0,0,0.95834284,317.25641,159.08491)"
       clip-path="url(#clipPath35)"><tspan
         style="font-variant:normal;font-weight:normal;font-size:16px;font-family:Helvetica;writing-mode:lr-tb;fill:#000000;fill-opacity:1;fill-rule:nonzero;stroke:none"
         x="0 8.8984375"
         y="0"
         sodipodi:role="line"
         id="tspan34">or</tspan></text>
    <text
       id="text35"
       xml:space="preserve"
       transform="matrix(0.95834284,0,0,0.95834284,114.53694,178.25177)"
       clip-path="url(#clipPath36)"><tspan
         style="font-style:oblique;font-variant:normal;font-weight:normal;font-size:16px;font-family:Helvetica;writing-mode:lr-tb;fill:#000000;fill-opacity:1;fill-rule:nonzero;stroke:none"
         x="0 8.8984375 17.796875 31.125 40.023438 43.578125"
         y="0"
         sodipodi:role="line"
         id="tspan35">domain</tspan></text>
    <text
       id="text36"
       xml:space="preserve"
       transform="matrix(0.95834284,0,0,0.95834284,164.83497,178.25177)"
       clip-path="url(#clipPath37)"><tspan
         style="font-variant:normal;font-weight:normal;font-size:16px;font-family:Helvetica;writing-mode:lr-tb;fill:#000000;fill-opacity:1;fill-rule:nonzero;stroke:none"
         x="0 4.4453125 13.34375 17.789062 22.234375 30.234375 39.132812 42.6875 51.585938"
         y="0"
         sodipodi:role="line"
         id="tspan36"> of value</tspan></text>
  </g>
</svg>
