<?xml version="1.0" encoding="UTF-8" standalone="no"?>
<!-- Created with Inkscape (http://www.inkscape.org/) -->

<svg
   version="1.1"
   id="svg1"
   width="460.16"
   height="370.55997"
   viewBox="0 0 460.16 370.55997"
   sodipodi:docname="sql-1.pdf"
   xmlns:inkscape="http://www.inkscape.org/namespaces/inkscape"
   xmlns:sodipodi="http://sodipodi.sourceforge.net/DTD/sodipodi-0.dtd"
   xmlns="http://www.w3.org/2000/svg"
   xmlns:svg="http://www.w3.org/2000/svg">
  <defs
     id="defs1">
    <clipPath
       clipPathUnits="userSpaceOnUse"
       id="clipPath2">
      <path
         d="M 0,0 H 1437.5 V 1156.5748 H 0 Z"
         transform="scale(0.3346087)"
         clip-rule="evenodd"
         id="path2" />
    </clipPath>
    <clipPath
       clipPathUnits="userSpaceOnUse"
       id="clipPath4">
      <path
         d="M 0,0 H 1437.5 V 1153.5863 H 0 Z"
         transform="matrix(0.3346087,0,0,0.3346087,-0.50000001,-0.50000001)"
         clip-rule="evenodd"
         id="path4" />
    </clipPath>
    <clipPath
       clipPathUnits="userSpaceOnUse"
       id="clipPath5">
      <path
         d="M 0,0 H 1437.5 V 1153.5863 H 0 Z"
         transform="matrix(0.33460534,0,0,0.33460534,-109.64063,-72)"
         clip-rule="evenodd"
         id="path5" />
    </clipPath>
    <clipPath
       clipPathUnits="userSpaceOnUse"
       id="clipPath7">
      <path
         d="M 0,0 H 1437.5 V 1153.5863 H 0 Z"
         transform="matrix(0.3346087,0,0,0.3346087,-0.50000001,-0.50000001)"
         clip-rule="evenodd"
         id="path7" />
    </clipPath>
    <clipPath
       clipPathUnits="userSpaceOnUse"
       id="clipPath8">
      <path
         d="M 0,0 H 1437.5 V 1153.5863 H 0 Z"
         transform="matrix(0.33460534,0,0,0.33460534,-38.359375,-131)"
         clip-rule="evenodd"
         id="path8" />
    </clipPath>
    <clipPath
       clipPathUnits="userSpaceOnUse"
       id="clipPath9">
      <path
         d="M 0,0 H 1437.5 V 1153.5863 H 0 Z"
         transform="matrix(0.33460534,0,0,0.33460534,-201.53125,-154)"
         clip-rule="evenodd"
         id="path9" />
    </clipPath>
    <clipPath
       clipPathUnits="userSpaceOnUse"
       id="clipPath11">
      <path
         d="M 0,0 H 1437.5 V 1153.5863 H 0 Z"
         transform="matrix(0.3346087,0,0,0.3346087,-0.50000001,-0.50000001)"
         clip-rule="evenodd"
         id="path11" />
    </clipPath>
    <clipPath
       clipPathUnits="userSpaceOnUse"
       id="clipPath12">
      <path
         d="M 0,0 H 1437.5 V 1153.5863 H 0 Z"
         transform="matrix(0.33460534,0,0,0.33460534,-127.57813,-212)"
         clip-rule="evenodd"
         id="path12" />
    </clipPath>
    <clipPath
       clipPathUnits="userSpaceOnUse"
       id="clipPath14">
      <path
         d="M 0,0 H 1437.5 V 1153.5863 H 0 Z"
         transform="matrix(0.3346087,0,0,0.3346087,-0.50000001,-0.50000001)"
         clip-rule="evenodd"
         id="path14" />
    </clipPath>
    <clipPath
       clipPathUnits="userSpaceOnUse"
       id="clipPath15">
      <path
         d="M 0,0 H 1437.5 V 1153.5863 H 0 Z"
         transform="matrix(0.33460534,0,0,0.33460534,-166.32813,-282)"
         clip-rule="evenodd"
         id="path15" />
    </clipPath>
    <clipPath
       clipPathUnits="userSpaceOnUse"
       id="clipPath17">
      <path
         d="M 0,0 H 1437.5 V 1153.5863 H 0 Z"
         transform="matrix(0.3346087,0,0,0.3346087,-0.50000001,-0.50000001)"
         clip-rule="evenodd"
         id="path17" />
    </clipPath>
    <clipPath
       clipPathUnits="userSpaceOnUse"
       id="clipPath18">
      <path
         d="M 0,0 H 1437.5 V 1153.5863 H 0 Z"
         transform="matrix(0.33460534,0,0,0.33460534,-30.921875,-341)"
         clip-rule="evenodd"
         id="path18" />
    </clipPath>
    <clipPath
       clipPathUnits="userSpaceOnUse"
       id="clipPath19">
      <path
         d="M 0,0 H 1437.5 V 1153.5863 H 0 Z"
         transform="matrix(0.33460534,0,0,0.33460534,-130.76562,-364)"
         clip-rule="evenodd"
         id="path19" />
    </clipPath>
    <clipPath
       clipPathUnits="userSpaceOnUse"
       id="clipPath21">
      <path
         d="M 0,0 H 1437.5 V 1153.5863 H 0 Z"
         transform="matrix(0.3346087,0,0,0.3346087,-0.50000001,-0.50000001)"
         clip-rule="evenodd"
         id="path21" />
    </clipPath>
    <clipPath
       clipPathUnits="userSpaceOnUse"
       id="clipPath23">
      <path
         d="M 0,0 H 1437.5 V 1153.5863 H 0 Z"
         transform="matrix(0.3346087,0,0,0.3346087,-0.50000001,-0.50000001)"
         clip-rule="evenodd"
         id="path23" />
    </clipPath>
    <clipPath
       clipPathUnits="userSpaceOnUse"
       id="clipPath24">
      <path
         d="M 0,0 H 1437.5 V 1153.5863 H 0 Z"
         transform="matrix(0.33460534,0,0,0.33460534,-155.32812,-23)"
         clip-rule="evenodd"
         id="path24" />
    </clipPath>
  </defs>
  <sodipodi:namedview
     id="namedview1"
     pagecolor="#ffffff"
     bordercolor="#000000"
     borderopacity="0.25"
     inkscape:showpageshadow="2"
     inkscape:pageopacity="0.0"
     inkscape:pagecheckerboard="0"
     inkscape:deskcolor="#d1d1d1">
    <inkscape:page
       x="0"
       y="0"
       inkscape:label="1"
       id="page1"
       width="460.16"
       height="370.55997"
       margin="0"
       bleed="0" />
  </sodipodi:namedview>
  <g
     id="g1"
     inkscape:groupmode="layer"
     inkscape:label="1">
    <path
       id="path1"
       d="M 0,0 H 481 V 387 H 0 Z"
       style="fill:#ffffff;fill-opacity:1;fill-rule:nonzero;stroke:none"
       transform="scale(0.95634089)"
       clip-path="url(#clipPath2)" />
    <path
       id="path3"
       d="M 18,35 H 478 V 95 H 18 Z"
       style="fill:#dae8fc;fill-opacity:1;fill-rule:nonzero;stroke:#6c8ebf;stroke-width:1;stroke-linecap:butt;stroke-linejoin:miter;stroke-miterlimit:10;stroke-dasharray:none;stroke-opacity:1"
       transform="matrix(0.95634089,0,0,0.95634089,0.47817045,0.47817045)"
       clip-path="url(#clipPath4)" />
    <text
       id="text4"
       xml:space="preserve"
       transform="matrix(0.95635052,0,0,0.95635052,104.85487,68.857237)"
       clip-path="url(#clipPath5)"><tspan
         style="font-variant:normal;font-weight:normal;font-size:19px;font-family:Helvetica;writing-mode:lr-tb;fill:#000000;fill-opacity:1;fill-rule:nonzero;stroke:none"
         x="0 13.721191 20.04834 30.615234 41.182129 46.460938 57.027832 62.306641 72.873535 78.152344 88.719238 99.286133 113.00732 118.28613 128.85303 139.41992 144.69873 155.26562 164.76562 168.98682 179.55371 190.12061 195.39941 208.07227 222.85107 235.52393 246.09082 261.91797 266.13916"
         y="0"
         sodipodi:role="line"
         id="tspan4">Create a new db using PGAdmin</tspan></text>
    <path
       id="path6"
       d="m 18,105 h 460 v 60 H 18 Z"
       style="fill:#dae8fc;fill-opacity:1;fill-rule:nonzero;stroke:#6c8ebf;stroke-width:1;stroke-linecap:butt;stroke-linejoin:miter;stroke-miterlimit:10;stroke-dasharray:none;stroke-opacity:1"
       transform="matrix(0.95634089,0,0,0.95634089,0.47817045,0.47817045)"
       clip-path="url(#clipPath7)" />
    <text
       id="text7"
       xml:space="preserve"
       transform="matrix(0.95635052,0,0,0.95635052,36.685008,125.28192)"
       clip-path="url(#clipPath8)"><tspan
         style="font-variant:normal;font-weight:normal;font-size:19px;font-family:Helvetica;writing-mode:lr-tb;fill:#000000;fill-opacity:1;fill-rule:nonzero;stroke:none"
         x="0 13.721191 24.288086 34.85498 44.35498 54.921875 61.249023 66.527832 71.806641 82.373535 92.94043 99.267578 104.54639 115.11328 125.68018 135.18018 139.40137 149.96826 160.53516 165.81396 171.09277 181.65967 186.93848 197.50537 202.78418 212.28418 222.85107 229.17822 233.39941 243.96631 253.46631 258.74512 269.31201 274.59082 279.86963 293.59082 307.31201 319.98486 331.25684 342.86279 355.53564 360.48047 370.68555 383.3584 396.03125 406.59814"
         y="0"
         sodipodi:role="line"
         id="tspan7">Convert our design to a series of CREATE TABLE</tspan></text>
    <text
       id="text8"
       xml:space="preserve"
       transform="matrix(0.95635052,0,0,0.95635052,192.73452,147.27798)"
       clip-path="url(#clipPath9)"><tspan
         style="font-variant:normal;font-weight:normal;font-size:19px;font-family:Helvetica;writing-mode:lr-tb;fill:#000000;fill-opacity:1;fill-rule:nonzero;stroke:none"
         x="0 9.5 14.778809 25.345703 30.624512 41.191406 57.018555 67.585449 78.152344 83.431152"
         y="0"
         sodipodi:role="line"
         id="tspan8">statements</tspan></text>
    <path
       id="path10"
       d="m 18,175 h 460 v 60 H 18 Z"
       style="fill:#dae8fc;fill-opacity:1;fill-rule:nonzero;stroke:#6c8ebf;stroke-width:1;stroke-linecap:butt;stroke-linejoin:miter;stroke-miterlimit:10;stroke-dasharray:none;stroke-opacity:1"
       transform="matrix(0.95634089,0,0,0.95634089,0.47817045,0.47817045)"
       clip-path="url(#clipPath11)" />
    <text
       id="text11"
       xml:space="preserve"
       transform="matrix(0.95635052,0,0,0.95635052,122.00941,202.74631)"
       clip-path="url(#clipPath12)"><tspan
         style="font-variant:normal;font-weight:normal;font-size:19px;font-family:Helvetica;writing-mode:lr-tb;fill:#000000;fill-opacity:1;fill-rule:nonzero;stroke:none"
         x="0 5.2788086 15.845703 25.345703 35.912598 42.239746 47.518555 52.797363 63.364258 73.931152 79.209961 89.776855 95.055664 99.276855 109.84375 115.12256 125.68945 130.96826 136.24707 146.81396 157.38086 162.65967 173.22656 183.79346 189.07227 199.63916 210.20605 220.77295 230.27295"
         y="0"
         sodipodi:role="line"
         id="tspan11">Insert data into the database</tspan></text>
    <path
       id="path13"
       d="m 18,245 h 460 v 60 H 18 Z"
       style="fill:#dae8fc;fill-opacity:1;fill-rule:nonzero;stroke:#6c8ebf;stroke-width:1;stroke-linecap:butt;stroke-linejoin:miter;stroke-miterlimit:10;stroke-dasharray:none;stroke-opacity:1"
       transform="matrix(0.95634089,0,0,0.95634089,0.47817045,0.47817045)"
       clip-path="url(#clipPath14)" />
    <text
       id="text14"
       xml:space="preserve"
       transform="matrix(0.95635052,0,0,0.95635052,159.06799,269.69085)"
       clip-path="url(#clipPath15)"><tspan
         style="font-variant:normal;font-weight:normal;font-size:19px;font-family:Helvetica;writing-mode:lr-tb;fill:#000000;fill-opacity:1;fill-rule:nonzero;stroke:none"
         x="0 17.599121 23.92627 28.147461 33.42627 43.993164 49.271973 58.771973 69.338867 85.166016 95.73291 101.01172 111.57861 122.14551 132.7124 139.03955 143.26074 153.82764"
         y="0"
         sodipodi:role="line"
         id="tspan14">Write some queries</tspan></text>
    <path
       id="path16"
       d="m 18,315 h 460 v 60 H 18 Z"
       style="fill:#dae8fc;fill-opacity:1;fill-rule:nonzero;stroke:#6c8ebf;stroke-width:1;stroke-linecap:butt;stroke-linejoin:miter;stroke-miterlimit:10;stroke-dasharray:none;stroke-opacity:1"
       transform="matrix(0.95634089,0,0,0.95634089,0.47817045,0.47817045)"
       clip-path="url(#clipPath17)" />
    <text
       id="text17"
       xml:space="preserve"
       transform="matrix(0.95635052,0,0,0.95635052,29.572151,326.11553)"
       clip-path="url(#clipPath18)"><tspan
         style="font-variant:normal;font-weight:normal;font-size:19px;font-family:Helvetica;writing-mode:lr-tb;fill:#000000;fill-opacity:1;fill-rule:nonzero;stroke:none"
         x="0 13.721191 24.288086 34.85498 39.076172 43.297363 52.797363 63.364258 68.643066 73.921875 84.48877 95.055664 100.33447 105.61328 116.18018 121.45898 126.73779 137.30469 151.02588 156.30469 161.5835 172.15039 176.37158 186.93848 197.50537 207.00537 212.28418 221.78418 232.35107 242.91797 247.13916 257.70605 262.98486 273.55176 284.11865 293.61865 304.18555 309.46436 320.03125 330.59814 341.16504 351.73193 357.01074 367.57764 378.14453 387.64453 391.86572 402.43262 412.99951 423.56641"
         y="0"
         sodipodi:role="line"
         id="tspan17">Realize that a few things could have been designed</tspan></text>
    <text
       id="text18"
       xml:space="preserve"
       transform="matrix(0.95635052,0,0,0.95635052,125.05777,348.11159)"
       clip-path="url(#clipPath19)"><tspan
         style="font-variant:normal;font-weight:normal;font-size:19px;font-family:Helvetica;writing-mode:lr-tb;fill:#000000;fill-opacity:1;fill-rule:nonzero;stroke:none"
         x="0 10.566895 21.133789 26.412598 31.691406 42.258301 48.585449 53.864258 59.143066 74.970215 85.537109 95.037109 105.604 110.88281 120.38281 130.94971 146.77686 157.34375 162.62256 172.12256 182.68945 193.25635 203.82324 214.39014 224.95703"
         y="0"
         sodipodi:role="line"
         id="tspan18">better! Make some changes</tspan></text>
    <path
       id="path20"
       d="M 8,35 V 368.64001"
       style="fill:none;stroke:#000000;stroke-width:1;stroke-linecap:butt;stroke-linejoin:miter;stroke-miterlimit:10;stroke-dasharray:none;stroke-opacity:1"
       transform="matrix(0.95634089,0,0,0.95634089,0.47817045,0.47817045)"
       clip-path="url(#clipPath21)" />
    <path
       id="path22"
       d="m 8,373.89001 -3.5,-7 3.5,1.75 3.5,-1.75 z"
       style="fill:#000000;fill-opacity:1;fill-rule:nonzero;stroke:#000000;stroke-width:1;stroke-linecap:butt;stroke-linejoin:miter;stroke-miterlimit:10;stroke-dasharray:none;stroke-opacity:1"
       transform="matrix(0.95634089,0,0,0.95634089,0.47817045,0.47817045)"
       clip-path="url(#clipPath23)" />
    <text
       id="text23"
       xml:space="preserve"
       transform="matrix(0.95635052,0,0,0.95635052,148.54813,21.996062)"
       clip-path="url(#clipPath24)"><tspan
         style="font-variant:normal;font-weight:700;font-size:24px;font-family:Helvetica;writing-mode:lr-tb;fill:#000000;fill-opacity:1;fill-rule:nonzero;stroke:none"
         x="0 19.992188 34.652344 48 54.667969 69.328125 83.988281 90.65625 105.31641 119.97656 129.31641 147.98438 161.33203 170.67188"
         y="0"
         sodipodi:role="line"
         id="tspan23">Moving Forward</tspan></text>
  </g>
</svg>
