<?xml version="1.0" encoding="UTF-8" standalone="no"?>
<!-- Created with Inkscape (http://www.inkscape.org/) -->

<svg
   version="1.1"
   id="svg1"
   width="444.16"
   height="301.44"
   viewBox="0 0 444.16 301.44"
   sodipodi:docname="sql-2.pdf"
   xmlns:inkscape="http://www.inkscape.org/namespaces/inkscape"
   xmlns:sodipodi="http://sodipodi.sourceforge.net/DTD/sodipodi-0.dtd"
   xmlns="http://www.w3.org/2000/svg"
   xmlns:svg="http://www.w3.org/2000/svg">
  <defs
     id="defs1">
    <clipPath
       clipPathUnits="userSpaceOnUse"
       id="clipPath2">
      <path
         d="M 0,0 H 1387.5 V 938.95471 H 0 Z"
         transform="scale(0.33441443)"
         clip-rule="evenodd"
         id="path2" />
    </clipPath>
    <clipPath
       clipPathUnits="userSpaceOnUse"
       id="clipPath4">
      <path
         d="M 0,0 H 1387.5 V 935.96442 H 0 Z"
         transform="matrix(0.33441443,0,0,0.33441443,-0.50000001,-0.50000001)"
         clip-rule="evenodd"
         id="path4" />
    </clipPath>
    <clipPath
       clipPathUnits="userSpaceOnUse"
       id="clipPath5">
      <path
         d="M 0,0 H 1387.5 V 935.96442 H 0 Z"
         transform="matrix(0.33441107,0,0,0.33441107,-2.078125,-29)"
         clip-rule="evenodd"
         id="path5" />
    </clipPath>
    <clipPath
       clipPathUnits="userSpaceOnUse"
       id="clipPath6">
      <path
         d="M 0,0 H 1387.5 V 935.96442 H 0 Z"
         transform="matrix(0.33441107,0,0,0.33441107,-69.84375,-53)"
         clip-rule="evenodd"
         id="path6" />
    </clipPath>
    <clipPath
       clipPathUnits="userSpaceOnUse"
       id="clipPath7">
      <path
         d="M 0,0 H 1387.5 V 935.96442 H 0 Z"
         transform="matrix(0.33441107,0,0,0.33441107,-62.078125,-77.000001)"
         clip-rule="evenodd"
         id="path7" />
    </clipPath>
    <clipPath
       clipPathUnits="userSpaceOnUse"
       id="clipPath8">
      <path
         d="M 0,0 H 393 V 88 H 0 Z"
         transform="matrix(0.33441443,0,0,0.33441443,102.84054,109.86649)"
         id="path8" />
    </clipPath>
    <clipPath
       clipPathUnits="userSpaceOnUse"
       id="clipPath10">
      <path
         d="M 0,0 H 1387.5 V 935.96442 H 0 Z"
         transform="scale(0.31999999)"
         clip-rule="evenodd"
         id="path10" />
    </clipPath>
    <clipPath
       clipPathUnits="userSpaceOnUse"
       id="clipPath12">
      <path
         d="M 0,0 H 1387.5 V 935.96442 H 0 Z"
         transform="matrix(0.33441443,0,0,0.33441443,-0.50000001,-0.50000001)"
         clip-rule="evenodd"
         id="path12" />
    </clipPath>
    <clipPath
       clipPathUnits="userSpaceOnUse"
       id="clipPath13">
      <path
         d="M 0,0 H 1387.5 V 935.96442 H 0 Z"
         transform="matrix(0.33441107,0,0,0.33441107,-161.32812,-129)"
         clip-rule="evenodd"
         id="path13" />
    </clipPath>
    <clipPath
       clipPathUnits="userSpaceOnUse"
       id="clipPath14">
      <path
         d="M 0,0 H 377 V 88 H 0 Z"
         transform="matrix(0.33441443,0,0,0.33441443,232.92775,109.86649)"
         id="path14" />
    </clipPath>
    <clipPath
       clipPathUnits="userSpaceOnUse"
       id="clipPath16">
      <path
         d="M 0,0 H 1387.5 V 935.96442 H 0 Z"
         transform="scale(0.31999999)"
         clip-rule="evenodd"
         id="path16" />
    </clipPath>
    <clipPath
       clipPathUnits="userSpaceOnUse"
       id="clipPath18">
      <path
         d="M 0,0 H 1387.5 V 935.96442 H 0 Z"
         transform="matrix(0.33441443,0,0,0.33441443,-0.50000001,-0.50000001)"
         clip-rule="evenodd"
         id="path18" />
    </clipPath>
    <clipPath
       clipPathUnits="userSpaceOnUse"
       id="clipPath19">
      <path
         d="M 0,0 H 1387.5 V 935.96442 H 0 Z"
         transform="matrix(0.33441107,0,0,0.33441107,-271.48438,-129)"
         clip-rule="evenodd"
         id="path19" />
    </clipPath>
    <clipPath
       clipPathUnits="userSpaceOnUse"
       id="clipPath20">
      <path
         d="M 0,0 H 393 V 87 H 0 Z"
         transform="matrix(0.33441443,0,0,0.33441443,102.84054,136.95406)"
         id="path20" />
    </clipPath>
    <clipPath
       clipPathUnits="userSpaceOnUse"
       id="clipPath22">
      <path
         d="M 0,0 H 1387.5 V 935.96442 H 0 Z"
         transform="scale(0.31999999)"
         clip-rule="evenodd"
         id="path22" />
    </clipPath>
    <clipPath
       clipPathUnits="userSpaceOnUse"
       id="clipPath24">
      <path
         d="M 0,0 H 1387.5 V 935.96442 H 0 Z"
         transform="matrix(0.33441443,0,0,0.33441443,-0.50000001,-0.50000001)"
         clip-rule="evenodd"
         id="path24" />
    </clipPath>
    <clipPath
       clipPathUnits="userSpaceOnUse"
       id="clipPath26">
      <path
         d="M 0,0 H 1387.5 V 935.96442 H 0 Z"
         transform="scale(0.33441107)"
         clip-rule="evenodd"
         id="path26" />
    </clipPath>
    <clipPath
       clipPathUnits="userSpaceOnUse"
       id="clipPath27">
      <path
         d="M 0,0 H 1387.5 V 935.96442 H 0 Z"
         transform="matrix(0.33441107,0,0,0.33441107,-127.89063,-157)"
         clip-rule="evenodd"
         id="path27" />
    </clipPath>
    <clipPath
       clipPathUnits="userSpaceOnUse"
       id="clipPath28">
      <path
         d="M 0,0 H 377 V 87 H 0 Z"
         transform="matrix(0.33441443,0,0,0.33441443,232.92775,136.95406)"
         id="path28" />
    </clipPath>
    <clipPath
       clipPathUnits="userSpaceOnUse"
       id="clipPath30">
      <path
         d="M 0,0 H 1387.5 V 935.96442 H 0 Z"
         transform="scale(0.31999999)"
         clip-rule="evenodd"
         id="path30" />
    </clipPath>
    <clipPath
       clipPathUnits="userSpaceOnUse"
       id="clipPath32">
      <path
         d="M 0,0 H 1387.5 V 935.96442 H 0 Z"
         transform="matrix(0.33441443,0,0,0.33441443,-0.50000001,-0.50000001)"
         clip-rule="evenodd"
         id="path32" />
    </clipPath>
    <clipPath
       clipPathUnits="userSpaceOnUse"
       id="clipPath34">
      <path
         d="M 0,0 H 1387.5 V 935.96442 H 0 Z"
         transform="scale(0.33441107)"
         clip-rule="evenodd"
         id="path34" />
    </clipPath>
    <clipPath
       clipPathUnits="userSpaceOnUse"
       id="clipPath35">
      <path
         d="M 0,0 H 1387.5 V 935.96442 H 0 Z"
         transform="matrix(0.33441107,0,0,0.33441107,-253.59375,-157)"
         clip-rule="evenodd"
         id="path35" />
    </clipPath>
    <clipPath
       clipPathUnits="userSpaceOnUse"
       id="clipPath36">
      <path
         d="M 0,0 H 393 V 88 H 0 Z"
         transform="matrix(0.33441443,0,0,0.33441443,102.84054,163.70721)"
         id="path36" />
    </clipPath>
    <clipPath
       clipPathUnits="userSpaceOnUse"
       id="clipPath38">
      <path
         d="M 0,0 H 1387.5 V 935.96442 H 0 Z"
         transform="scale(0.31999999)"
         clip-rule="evenodd"
         id="path38" />
    </clipPath>
    <clipPath
       clipPathUnits="userSpaceOnUse"
       id="clipPath40">
      <path
         d="M 0,0 H 1387.5 V 935.96442 H 0 Z"
         transform="matrix(0.33441443,0,0,0.33441443,-0.50000001,-0.50000001)"
         clip-rule="evenodd"
         id="path40" />
    </clipPath>
    <clipPath
       clipPathUnits="userSpaceOnUse"
       id="clipPath42">
      <path
         d="M 0,0 H 1387.5 V 935.96442 H 0 Z"
         transform="scale(0.33441107)"
         clip-rule="evenodd"
         id="path42" />
    </clipPath>
    <clipPath
       clipPathUnits="userSpaceOnUse"
       id="clipPath43">
      <path
         d="M 0,0 H 1387.5 V 935.96442 H 0 Z"
         transform="matrix(0.33441107,0,0,0.33441107,-114.79688,-184)"
         clip-rule="evenodd"
         id="path43" />
    </clipPath>
    <clipPath
       clipPathUnits="userSpaceOnUse"
       id="clipPath44">
      <path
         d="M 0,0 H 377 V 88 H 0 Z"
         transform="matrix(0.33441443,0,0,0.33441443,232.92775,163.70721)"
         id="path44" />
    </clipPath>
    <clipPath
       clipPathUnits="userSpaceOnUse"
       id="clipPath46">
      <path
         d="M 0,0 H 1387.5 V 935.96442 H 0 Z"
         transform="scale(0.31999999)"
         clip-rule="evenodd"
         id="path46" />
    </clipPath>
    <clipPath
       clipPathUnits="userSpaceOnUse"
       id="clipPath48">
      <path
         d="M 0,0 H 1387.5 V 935.96442 H 0 Z"
         transform="matrix(0.33441443,0,0,0.33441443,-0.50000001,-0.50000001)"
         clip-rule="evenodd"
         id="path48" />
    </clipPath>
    <clipPath
       clipPathUnits="userSpaceOnUse"
       id="clipPath50">
      <path
         d="M 0,0 H 1387.5 V 935.96442 H 0 Z"
         transform="scale(0.33441107)"
         clip-rule="evenodd"
         id="path50" />
    </clipPath>
    <clipPath
       clipPathUnits="userSpaceOnUse"
       id="clipPath51">
      <path
         d="M 0,0 H 1387.5 V 935.96442 H 0 Z"
         transform="matrix(0.33441107,0,0,0.33441107,-239.03125,-184)"
         clip-rule="evenodd"
         id="path51" />
    </clipPath>
    <clipPath
       clipPathUnits="userSpaceOnUse"
       id="clipPath52">
      <path
         d="M 0,0 H 393 V 88 H 0 Z"
         transform="matrix(0.33441443,0,0,0.33441443,102.84054,190.79478)"
         id="path52" />
    </clipPath>
    <clipPath
       clipPathUnits="userSpaceOnUse"
       id="clipPath54">
      <path
         d="M 0,0 H 1387.5 V 935.96442 H 0 Z"
         transform="scale(0.31999999)"
         clip-rule="evenodd"
         id="path54" />
    </clipPath>
    <clipPath
       clipPathUnits="userSpaceOnUse"
       id="clipPath56">
      <path
         d="M 0,0 H 1387.5 V 935.96442 H 0 Z"
         transform="matrix(0.33441443,0,0,0.33441443,-0.50000001,-0.50000001)"
         clip-rule="evenodd"
         id="path56" />
    </clipPath>
    <clipPath
       clipPathUnits="userSpaceOnUse"
       id="clipPath58">
      <path
         d="M 0,0 H 1387.5 V 935.96442 H 0 Z"
         transform="scale(0.33441107)"
         clip-rule="evenodd"
         id="path58" />
    </clipPath>
    <clipPath
       clipPathUnits="userSpaceOnUse"
       id="clipPath59">
      <path
         d="M 0,0 H 1387.5 V 935.96442 H 0 Z"
         transform="matrix(0.33441107,0,0,0.33441107,-104.6875,-211)"
         clip-rule="evenodd"
         id="path59" />
    </clipPath>
    <clipPath
       clipPathUnits="userSpaceOnUse"
       id="clipPath60">
      <path
         d="M 0,0 H 377 V 88 H 0 Z"
         transform="matrix(0.33441443,0,0,0.33441443,232.92775,190.79478)"
         id="path60" />
    </clipPath>
    <clipPath
       clipPathUnits="userSpaceOnUse"
       id="clipPath62">
      <path
         d="M 0,0 H 1387.5 V 935.96442 H 0 Z"
         transform="scale(0.31999999)"
         clip-rule="evenodd"
         id="path62" />
    </clipPath>
    <clipPath
       clipPathUnits="userSpaceOnUse"
       id="clipPath64">
      <path
         d="M 0,0 H 1387.5 V 935.96442 H 0 Z"
         transform="matrix(0.33441443,0,0,0.33441443,-0.50000001,-0.50000001)"
         clip-rule="evenodd"
         id="path64" />
    </clipPath>
    <clipPath
       clipPathUnits="userSpaceOnUse"
       id="clipPath66">
      <path
         d="M 0,0 H 1387.5 V 935.96442 H 0 Z"
         transform="scale(0.33441107)"
         clip-rule="evenodd"
         id="path66" />
    </clipPath>
    <clipPath
       clipPathUnits="userSpaceOnUse"
       id="clipPath67">
      <path
         d="M 0,0 H 1387.5 V 935.96442 H 0 Z"
         transform="matrix(0.33441107,0,0,0.33441107,-269.03125,-211)"
         clip-rule="evenodd"
         id="path67" />
    </clipPath>
    <clipPath
       clipPathUnits="userSpaceOnUse"
       id="clipPath68">
      <path
         d="M 0,0 H 1387.5 V 935.96442 H 0 Z"
         transform="matrix(0.33441107,0,0,0.33441107,-121,-281)"
         clip-rule="evenodd"
         id="path68" />
    </clipPath>
    <clipPath
       clipPathUnits="userSpaceOnUse"
       id="clipPath69">
      <path
         d="M 0,0 H 1387.5 V 935.96442 H 0 Z"
         transform="matrix(0.33441107,0,0,0.33441107,-144.34375,-305)"
         clip-rule="evenodd"
         id="path69" />
    </clipPath>
  </defs>
  <sodipodi:namedview
     id="namedview1"
     pagecolor="#ffffff"
     bordercolor="#000000"
     borderopacity="0.25"
     inkscape:showpageshadow="2"
     inkscape:pageopacity="0.0"
     inkscape:pagecheckerboard="0"
     inkscape:deskcolor="#d1d1d1">
    <inkscape:page
       x="0"
       y="0"
       inkscape:label="1"
       id="page1"
       width="444.16"
       height="301.44"
       margin="0"
       bleed="0" />
  </sodipodi:namedview>
  <g
     id="g1"
     inkscape:groupmode="layer"
     inkscape:label="1">
    <path
       id="path1"
       d="M 0,0 H 464 V 314 H 0 Z"
       style="fill:#ffffff;fill-opacity:1;fill-rule:nonzero;stroke:none"
       transform="scale(0.95689647)"
       clip-path="url(#clipPath2)" />
    <path
       id="path3"
       d="M 1,1 H 461 V 91 H 1 Z"
       style="fill:#dae8fc;fill-opacity:1;fill-rule:nonzero;stroke:#6c8ebf;stroke-width:1;stroke-linecap:butt;stroke-linejoin:miter;stroke-miterlimit:10;stroke-dasharray:none;stroke-opacity:1"
       transform="matrix(0.95689647,0,0,0.95689647,0.47844824,0.47844824)"
       clip-path="url(#clipPath4)" />
    <text
       id="text4"
       xml:space="preserve"
       transform="matrix(0.95690607,0,0,0.95690607,1.9885704,27.750276)"
       clip-path="url(#clipPath5)"><tspan
         style="font-variant:normal;font-weight:700;font-size:20px;font-family:Helvetica;writing-mode:lr-tb;fill:#000000;fill-opacity:1;fill-rule:nonzero;stroke:none"
         x="0 14.443359 25.566406 36.689453 44.472656 55.595703 61.152344 72.275391 83.398438 95.615234 101.17188 112.29492 124.51172 142.29492 160.07812 171.20117 183.41797 190.07812 195.63477 207.85156 220.06836 225.625 237.8418 250.05859 262.27539 268.93555 281.15234 292.27539 297.83203 304.49219 316.70898 327.83203 334.49219 340.04883 346.70898 358.92578 370.04883 381.17188 386.72852 398.94531 411.16211 422.28516 428.94531 440.06836 452.28516"
         y="0"
         sodipodi:role="line"
         id="tspan4">Users can comment on photos that they posted.</tspan></text>
    <text
       id="text5"
       xml:space="preserve"
       transform="matrix(0.95690607,0,0,0.95690607,66.833908,50.716022)"
       clip-path="url(#clipPath6)"><tspan
         style="font-variant:normal;font-weight:700;font-size:20px;font-family:Helvetica;writing-mode:lr-tb;fill:#000000;fill-opacity:1;fill-rule:nonzero;stroke:none"
         x="0 12.216797 17.773438 28.896484 35.556641 41.113281 47.773438 59.990234 71.113281 76.669922 88.886719 96.669922 102.22656 107.7832 118.90625 131.12305 143.33984 148.89648 160.01953 172.23633 184.45312 191.11328 202.23633 214.45312 221.11328 232.23633 237.79297 244.45312 256.66992 264.45312 270.00977 281.13281 292.25586 303.37891 311.16211"
         y="0"
         sodipodi:role="line"
         id="tspan5">List the url and contents for every</tspan></text>
    <text
       id="text6"
       xml:space="preserve"
       transform="matrix(0.95690607,0,0,0.95690607,59.402935,73.681768)"
       clip-path="url(#clipPath7)"><tspan
         style="font-variant:normal;font-weight:700;font-size:20px;font-family:Helvetica;writing-mode:lr-tb;fill:#000000;fill-opacity:1;fill-rule:nonzero;stroke:none"
         x="0 12.216797 24.433594 36.650391 43.310547 55.527344 61.083984 72.207031 84.423828 102.20703 119.99023 131.11328 143.33008 149.99023 155.54688 171.10352 183.32031 194.44336 202.22656 213.34961 218.90625 225.56641 237.7832 243.33984 254.46289 260.01953 272.23633 283.35938 294.48242 306.69922 314.48242 325.60547"
         y="0"
         sodipodi:role="line"
         id="tspan6">photo/comment where this occured</tspan></text>
    <g
       opacity="0.25"
       id="g9"
       clip-path="url(#clipPath10)">
      <path
         d="m 103.5,111 h 130 v 27 h -130 z"
         style="fill:#000000;fill-opacity:1;fill-rule:nonzero;stroke:#000000;stroke-width:1;stroke-linecap:butt;stroke-linejoin:miter;stroke-miterlimit:10;stroke-dasharray:none;stroke-opacity:1"
         transform="matrix(0.95689647,0,0,0.95689647,2.3922463,3.3491391)"
         clip-path="url(#clipPath8)"
         id="path9" />
    </g>
    <path
       id="path11"
       d="m 103.5,111 h 130 v 27 h -130 z"
       style="fill:#f5f5f5;fill-opacity:1;fill-rule:nonzero;stroke:#666666;stroke-width:1;stroke-linecap:butt;stroke-linejoin:miter;stroke-miterlimit:10;stroke-dasharray:none;stroke-opacity:1"
       transform="matrix(0.95689647,0,0,0.95689647,0.47844824,0.47844824)"
       clip-path="url(#clipPath12)" />
    <text
       id="text12"
       xml:space="preserve"
       transform="matrix(0.95690607,0,0,0.95690607,154.37586,123.44088)"
       clip-path="url(#clipPath13)"><tspan
         style="font-style:oblique;font-variant:normal;font-weight:700;font-size:12px;font-family:Helvetica;writing-mode:lr-tb;fill:#333333;fill-opacity:1;fill-rule:nonzero;stroke:none"
         x="0 7.3300781 12"
         y="0"
         sodipodi:role="line"
         id="tspan12">url</tspan></text>
    <g
       opacity="0.25"
       id="g15"
       clip-path="url(#clipPath16)">
      <path
         d="m 233.5,111 h 125 v 27 h -125 z"
         style="fill:#000000;fill-opacity:1;fill-rule:nonzero;stroke:#000000;stroke-width:1;stroke-linecap:butt;stroke-linejoin:miter;stroke-miterlimit:10;stroke-dasharray:none;stroke-opacity:1"
         transform="matrix(0.95689647,0,0,0.95689647,2.3922463,3.3491391)"
         clip-path="url(#clipPath14)"
         id="path15" />
    </g>
    <path
       id="path17"
       d="m 233.5,111 h 125 v 27 h -125 z"
       style="fill:#f5f5f5;fill-opacity:1;fill-rule:nonzero;stroke:#666666;stroke-width:1;stroke-linecap:butt;stroke-linejoin:miter;stroke-miterlimit:10;stroke-dasharray:none;stroke-opacity:1"
       transform="matrix(0.95689647,0,0,0.95689647,0.47844824,0.47844824)"
       clip-path="url(#clipPath18)" />
    <text
       id="text18"
       xml:space="preserve"
       transform="matrix(0.95690607,0,0,0.95690607,259.78505,123.44088)"
       clip-path="url(#clipPath19)"><tspan
         style="font-style:oblique;font-variant:normal;font-weight:700;font-size:12px;font-family:Helvetica;writing-mode:lr-tb;fill:#333333;fill-opacity:1;fill-rule:nonzero;stroke:none"
         x="0 6.6738281 14.003906 21.333984 25.330078 32.003906 39.333984 43.330078"
         y="0"
         sodipodi:role="line"
         id="tspan18">contents</tspan></text>
    <g
       opacity="0.25"
       id="g21"
       clip-path="url(#clipPath22)">
      <path
         d="m 103.5,138 h 130 v 27 h -130 z"
         style="fill:#000000;fill-opacity:1;fill-rule:nonzero;stroke:#000000;stroke-width:1;stroke-linecap:butt;stroke-linejoin:miter;stroke-miterlimit:10;stroke-dasharray:none;stroke-opacity:1"
         transform="matrix(0.95689647,0,0,0.95689647,2.3922463,3.3491391)"
         clip-path="url(#clipPath20)"
         id="path21" />
    </g>
    <path
       id="path23"
       d="m 103.5,138 h 130 v 27 h -130 z"
       style="fill:#ffffff;fill-opacity:1;fill-rule:nonzero;stroke:#000000;stroke-width:1;stroke-linecap:butt;stroke-linejoin:miter;stroke-miterlimit:10;stroke-dasharray:none;stroke-opacity:1"
       transform="matrix(0.95689647,0,0,0.95689647,0.47844824,0.47844824)"
       clip-path="url(#clipPath24)" />
    <path
       id="path25"
       d="m 128,145 h 82 v 15 h -82 z"
       style="fill:#ffffff;fill-opacity:1;fill-rule:nonzero;stroke:none"
       transform="scale(0.95690607)"
       clip-path="url(#clipPath26)" />
    <text
       id="text26"
       xml:space="preserve"
       transform="matrix(0.95690607,0,0,0.95690607,122.37932,150.23425)"
       clip-path="url(#clipPath27)"><tspan
         style="font-variant:normal;font-weight:normal;font-size:13px;font-family:Roboto;writing-mode:lr-tb;fill:#262626;fill-opacity:1;fill-rule:nonzero;stroke:none"
         x="0 7.1601562 11.406738 15.65332 22.946777 26.095215 30.030762 35.388184 42.192871 49.353027 56.240234 60.486816 63.908203 71.081055 77.968262"
         y="0"
         sodipodi:role="line"
         id="tspan26">http://chet.net</tspan></text>
    <g
       opacity="0.25"
       id="g29"
       clip-path="url(#clipPath30)">
      <path
         d="m 233.5,138 h 125 v 27 h -125 z"
         style="fill:#000000;fill-opacity:1;fill-rule:nonzero;stroke:#000000;stroke-width:1;stroke-linecap:butt;stroke-linejoin:miter;stroke-miterlimit:10;stroke-dasharray:none;stroke-opacity:1"
         transform="matrix(0.95689647,0,0,0.95689647,2.3922463,3.3491391)"
         clip-path="url(#clipPath28)"
         id="path29" />
    </g>
    <path
       id="path31"
       d="m 233.5,138 h 125 v 27 h -125 z"
       style="fill:#ffffff;fill-opacity:1;fill-rule:nonzero;stroke:#000000;stroke-width:1;stroke-linecap:butt;stroke-linejoin:miter;stroke-miterlimit:10;stroke-dasharray:none;stroke-opacity:1"
       transform="matrix(0.95689647,0,0,0.95689647,0.47844824,0.47844824)"
       clip-path="url(#clipPath32)" />
    <path
       id="path33"
       d="m 254,145 h 85 v 15 h -85 z"
       style="fill:#ffffff;fill-opacity:1;fill-rule:nonzero;stroke:none"
       transform="scale(0.95690607)"
       clip-path="url(#clipPath34)" />
    <text
       id="text34"
       xml:space="preserve"
       transform="matrix(0.95690607,0,0,0.95690607,242.6654,150.23425)"
       clip-path="url(#clipPath35)"><tspan
         style="font-variant:normal;font-weight:normal;font-size:13px;font-family:Roboto;writing-mode:lr-tb;fill:#262626;fill-opacity:1;fill-rule:nonzero;stroke:none"
         x="0 9.2675781 16.681641 23.854492 27.072754 33.959961 40.663086 44.909668 48.12793 52.247559 59.661621 63.908203 70.979492 82.373535"
         y="0"
         sodipodi:role="line"
         id="tspan34">Non est totam.</tspan></text>
    <g
       opacity="0.25"
       id="g37"
       clip-path="url(#clipPath38)">
      <path
         d="m 103.5,165 h 130 v 27 h -130 z"
         style="fill:#000000;fill-opacity:1;fill-rule:nonzero;stroke:#000000;stroke-width:1;stroke-linecap:butt;stroke-linejoin:miter;stroke-miterlimit:10;stroke-dasharray:none;stroke-opacity:1"
         transform="matrix(0.95689647,0,0,0.95689647,2.3922463,3.3491391)"
         clip-path="url(#clipPath36)"
         id="path37" />
    </g>
    <path
       id="path39"
       d="m 103.5,165 h 130 v 27 h -130 z"
       style="fill:#ffffff;fill-opacity:1;fill-rule:nonzero;stroke:#000000;stroke-width:1;stroke-linecap:butt;stroke-linejoin:miter;stroke-miterlimit:10;stroke-dasharray:none;stroke-opacity:1"
       transform="matrix(0.95689647,0,0,0.95689647,0.47844824,0.47844824)"
       clip-path="url(#clipPath40)" />
    <path
       id="path41"
       d="m 115,172 h 108 v 15 H 115 Z"
       style="fill:#ffffff;fill-opacity:0.0745;fill-rule:nonzero;stroke:none"
       transform="scale(0.95690607)"
       clip-path="url(#clipPath42)" />
    <text
       id="text42"
       xml:space="preserve"
       transform="matrix(0.95690607,0,0,0.95690607,109.84983,176.07072)"
       clip-path="url(#clipPath43)"><tspan
         style="font-variant:normal;font-weight:normal;font-size:13px;font-family:Helvetica;writing-mode:lr-tb;fill:#000000;fill-opacity:1;fill-rule:nonzero;stroke:none"
         x="0 7.2299805 10.841797 14.453613 21.683594 28.183594 31.79541 35.407227 39.019043 45.519043 52.749023 55.637207 58.525391 65.025391 72.255371 75.867188 83.097168 90.327148 101.15625"
         y="0"
         sodipodi:role="line"
         id="tspan42">https://kailyn.name</tspan></text>
    <g
       opacity="0.25"
       id="g45"
       clip-path="url(#clipPath46)">
      <path
         d="m 233.5,165 h 125 v 27 h -125 z"
         style="fill:#000000;fill-opacity:1;fill-rule:nonzero;stroke:#000000;stroke-width:1;stroke-linecap:butt;stroke-linejoin:miter;stroke-miterlimit:10;stroke-dasharray:none;stroke-opacity:1"
         transform="matrix(0.95689647,0,0,0.95689647,2.3922463,3.3491391)"
         clip-path="url(#clipPath44)"
         id="path45" />
    </g>
    <path
       id="path47"
       d="m 233.5,165 h 125 v 27 h -125 z"
       style="fill:#ffffff;fill-opacity:1;fill-rule:nonzero;stroke:#000000;stroke-width:1;stroke-linecap:butt;stroke-linejoin:miter;stroke-miterlimit:10;stroke-dasharray:none;stroke-opacity:1"
       transform="matrix(0.95689647,0,0,0.95689647,0.47844824,0.47844824)"
       clip-path="url(#clipPath48)" />
    <path
       id="path49"
       d="m 239,172 h 115 v 15 H 239 Z"
       style="fill:#ffffff;fill-opacity:0.0745;fill-rule:nonzero;stroke:none"
       transform="scale(0.95690607)"
       clip-path="url(#clipPath50)" />
    <text
       id="text50"
       xml:space="preserve"
       transform="matrix(0.95690607,0,0,0.95690607,228.73045,176.07072)"
       clip-path="url(#clipPath51)"><tspan
         style="font-variant:normal;font-weight:normal;font-size:13px;font-family:Helvetica;writing-mode:lr-tb;fill:#000000;fill-opacity:1;fill-rule:nonzero;stroke:none"
         x="0 7.940918 15.170898 22.400879 29.630859 33.242676 40.472656 44.084473 47.696289 50.584473 57.084473 60.696289 67.92627 71.538086 78.768066 85.998047 93.228027 96.839844 104.06982 111.2998"
         y="0"
         sodipodi:role="line"
         id="tspan50">Fuga et iste beatae.</tspan></text>
    <g
       opacity="0.25"
       id="g53"
       clip-path="url(#clipPath54)">
      <path
         d="m 103.5,192 h 130 v 27 h -130 z"
         style="fill:#000000;fill-opacity:1;fill-rule:nonzero;stroke:#000000;stroke-width:1;stroke-linecap:butt;stroke-linejoin:miter;stroke-miterlimit:10;stroke-dasharray:none;stroke-opacity:1"
         transform="matrix(0.95689647,0,0,0.95689647,2.3922463,3.3491391)"
         clip-path="url(#clipPath52)"
         id="path53" />
    </g>
    <path
       id="path55"
       d="m 103.5,192 h 130 v 27 h -130 z"
       style="fill:#ffffff;fill-opacity:1;fill-rule:nonzero;stroke:#000000;stroke-width:1;stroke-linecap:butt;stroke-linejoin:miter;stroke-miterlimit:10;stroke-dasharray:none;stroke-opacity:1"
       transform="matrix(0.95689647,0,0,0.95689647,0.47844824,0.47844824)"
       clip-path="url(#clipPath56)" />
    <path
       id="path57"
       d="m 105,199 h 128 v 15 H 105 Z"
       style="fill:#ffffff;fill-opacity:0.0745;fill-rule:nonzero;stroke:none"
       transform="scale(0.95690607)"
       clip-path="url(#clipPath58)" />
    <text
       id="text58"
       xml:space="preserve"
       transform="matrix(0.95690607,0,0,0.95690607,100.1761,201.90718)"
       clip-path="url(#clipPath59)"><tspan
         style="font-variant:normal;font-weight:normal;font-size:13px;font-family:Helvetica;writing-mode:lr-tb;fill:#000000;fill-opacity:1;fill-rule:nonzero;stroke:none"
         x="0 7.2299805 10.841797 14.453613 21.683594 25.29541 28.907227 32.519043 43.348145 50.578125 54.907227 57.79541 65.025391 67.913574 75.143555 78.031738 85.261719 92.491699 96.103516 103.3335 110.56348 121.39258"
         y="0"
         sodipodi:role="line"
         id="tspan58">http://marjolaine.name</tspan></text>
    <g
       opacity="0.25"
       id="g61"
       clip-path="url(#clipPath62)">
      <path
         d="m 233.5,192 h 125 v 27 h -125 z"
         style="fill:#000000;fill-opacity:1;fill-rule:nonzero;stroke:#000000;stroke-width:1;stroke-linecap:butt;stroke-linejoin:miter;stroke-miterlimit:10;stroke-dasharray:none;stroke-opacity:1"
         transform="matrix(0.95689647,0,0,0.95689647,2.3922463,3.3491391)"
         clip-path="url(#clipPath60)"
         id="path61" />
    </g>
    <path
       id="path63"
       d="m 233.5,192 h 125 v 27 h -125 z"
       style="fill:#ffffff;fill-opacity:1;fill-rule:nonzero;stroke:#000000;stroke-width:1;stroke-linecap:butt;stroke-linejoin:miter;stroke-miterlimit:10;stroke-dasharray:none;stroke-opacity:1"
       transform="matrix(0.95689647,0,0,0.95689647,0.47844824,0.47844824)"
       clip-path="url(#clipPath64)" />
    <path
       id="path65"
       d="m 269,199 h 55 v 15 h -55 z"
       style="fill:#ffffff;fill-opacity:0.0745;fill-rule:nonzero;stroke:none"
       transform="scale(0.95690607)"
       clip-path="url(#clipPath66)" />
    <text
       id="text66"
       xml:space="preserve"
       transform="matrix(0.95690607,0,0,0.95690607,257.43764,201.90718)"
       clip-path="url(#clipPath67)"><tspan
         style="font-variant:normal;font-weight:normal;font-size:13px;font-family:Helvetica;writing-mode:lr-tb;fill:#000000;fill-opacity:1;fill-rule:nonzero;stroke:none"
         x="0 9.3881836 16.618164 19.506348 26.736328 33.966309 37.578125 44.808105 52.038086"
         y="0"
         sodipodi:role="line"
         id="tspan66">Culpa qui</tspan></text>
    <text
       id="text67"
       xml:space="preserve"
       transform="matrix(0.95690607,0,0,0.95690607,115.78563,268.89061)"
       clip-path="url(#clipPath68)"><tspan
         style="font-style:oblique;font-variant:normal;font-weight:700;font-size:20px;font-family:Helvetica;writing-mode:lr-tb;fill:#000000;fill-opacity:1;fill-rule:nonzero;stroke:none"
         x="0 18.876953 31.09375 43.310547 48.867188 54.423828 65.546875 71.103516 82.226562 94.443359 112.22656 130.00977 141.13281 153.34961 160.00977 165.56641 177.7832 190 195.55664 207.77344"
         y="0"
         sodipodi:role="line"
         id="tspan67">Who is commenting on</tspan></text>
    <text
       id="text68"
       xml:space="preserve"
       transform="matrix(0.95690607,0,0,0.95690607,138.12341,291.85635)"
       clip-path="url(#clipPath69)"><tspan
         style="font-style:oblique;font-variant:normal;font-weight:700;font-size:20px;font-family:Helvetica;writing-mode:lr-tb;fill:#000000;fill-opacity:1;fill-rule:nonzero;stroke:none"
         x="0 6.6601562 18.876953 30 35.556641 43.339844 48.896484 61.113281 76.669922 88.886719 94.443359 106.66016 118.87695 131.09375 137.75391 149.9707 161.09375"
         y="0"
         sodipodi:role="line"
         id="tspan68">their own photos?</tspan></text>
  </g>
</svg>
