<?xml version="1.0" encoding="UTF-8" standalone="no"?>
<!-- Created with Inkscape (http://www.inkscape.org/) -->

<svg
   version="1.1"
   id="svg1"
   width="366.72"
   height="206.71999"
   viewBox="0 0 366.72 206.71999"
   sodipodi:docname="sql-19.pdf"
   xmlns:inkscape="http://www.inkscape.org/namespaces/inkscape"
   xmlns:sodipodi="http://sodipodi.sourceforge.net/DTD/sodipodi-0.dtd"
   xmlns="http://www.w3.org/2000/svg"
   xmlns:svg="http://www.w3.org/2000/svg">
  <defs
     id="defs1">
    <clipPath
       clipPathUnits="userSpaceOnUse"
       id="clipPath2">
      <path
         d="M 0,0 H 1145.8333 V 644.53125 H 0 Z"
         transform="scale(0.33512729)"
         clip-rule="evenodd"
         id="path2" />
    </clipPath>
    <clipPath
       clipPathUnits="userSpaceOnUse"
       id="clipPath4">
      <path
         d="M 0,0 H 1145.8333 V 638.56335 H 0 Z"
         transform="matrix(0.33512729,0,0,0.33512729,-0.5,-0.5)"
         clip-rule="evenodd"
         id="path4" />
    </clipPath>
    <clipPath
       clipPathUnits="userSpaceOnUse"
       id="clipPath6">
      <path
         d="M 0,0 H 1145.8333 V 638.56335 H 0 Z"
         transform="matrix(0.33512729,0,0,0.33512729,-0.5,-0.5)"
         clip-rule="evenodd"
         id="path6" />
    </clipPath>
    <clipPath
       clipPathUnits="userSpaceOnUse"
       id="clipPath8">
      <path
         d="M 0,0 H 1145.8333 V 638.56335 H 0 Z"
         transform="matrix(0.33512729,0,0,0.33512729,-0.5,-0.5)"
         clip-rule="evenodd"
         id="path8" />
    </clipPath>
    <clipPath
       clipPathUnits="userSpaceOnUse"
       id="clipPath9">
      <path
         d="M 0,0 H 1145.8333 V 638.56335 H 0 Z"
         transform="matrix(0.33512395,0,0,0.33512395,-23.8125,-70.000001)"
         clip-rule="evenodd"
         id="path9" />
    </clipPath>
    <clipPath
       clipPathUnits="userSpaceOnUse"
       id="clipPath10">
      <path
         d="M 0,0 H 1145.8333 V 638.56335 H 0 Z"
         transform="matrix(0.33512395,0,0,0.33512395,-49.453125,-96)"
         clip-rule="evenodd"
         id="path10" />
    </clipPath>
    <clipPath
       clipPathUnits="userSpaceOnUse"
       id="clipPath12">
      <path
         d="M 0,0 H 1145.8333 V 638.56335 H 0 Z"
         transform="matrix(0.33512729,0,0,0.33512729,-0.5,-0.5)"
         clip-rule="evenodd"
         id="path12" />
    </clipPath>
    <clipPath
       clipPathUnits="userSpaceOnUse"
       id="clipPath13">
      <path
         d="M 0,0 H 1145.8333 V 638.56335 H 0 Z"
         transform="matrix(0.33512395,0,0,0.33512395,-95.296876,-28)"
         clip-rule="evenodd"
         id="path13" />
    </clipPath>
    <clipPath
       clipPathUnits="userSpaceOnUse"
       id="clipPath15">
      <path
         d="M 0,0 H 1145.8333 V 638.56335 H 0 Z"
         transform="matrix(0.33512729,0,0,0.33512729,-0.5,-0.5)"
         clip-rule="evenodd"
         id="path15" />
    </clipPath>
    <clipPath
       clipPathUnits="userSpaceOnUse"
       id="clipPath16">
      <path
         d="M 0,0 H 1145.8333 V 638.56335 H 0 Z"
         transform="matrix(0.33512395,0,0,0.33512395,-36.328125,-153)"
         clip-rule="evenodd"
         id="path16" />
    </clipPath>
    <clipPath
       clipPathUnits="userSpaceOnUse"
       id="clipPath17">
      <path
         d="M 0,0 H 1145.8333 V 638.56335 H 0 Z"
         transform="matrix(0.33512395,0,0,0.33512395,-38.0625,-178)"
         clip-rule="evenodd"
         id="path17" />
    </clipPath>
    <clipPath
       clipPathUnits="userSpaceOnUse"
       id="clipPath18">
      <path
         d="M 0,0 H 1145.8333 V 638.56335 H 0 Z"
         transform="matrix(0.33512395,0,0,0.33512395,-88.859375,-203)"
         clip-rule="evenodd"
         id="path18" />
    </clipPath>
  </defs>
  <sodipodi:namedview
     id="namedview1"
     pagecolor="#ffffff"
     bordercolor="#000000"
     borderopacity="0.25"
     inkscape:showpageshadow="2"
     inkscape:pageopacity="0.0"
     inkscape:pagecheckerboard="0"
     inkscape:deskcolor="#d1d1d1">
    <inkscape:page
       x="0"
       y="0"
       inkscape:label="1"
       id="page1"
       width="366.72"
       height="206.71999"
       margin="0"
       bleed="0" />
  </sodipodi:namedview>
  <g
     id="g1"
     inkscape:groupmode="layer"
     inkscape:label="1">
    <path
       id="path1"
       d="M 0,0 H 384 V 216 H 0 Z"
       style="fill:#ffffff;fill-opacity:1;fill-rule:nonzero;stroke:none"
       transform="scale(0.95486102)"
       clip-path="url(#clipPath2)" />
    <path
       id="path3"
       d="m 191,111 v 20 -20 13.63"
       style="fill:none;stroke:#000000;stroke-width:1;stroke-linecap:butt;stroke-linejoin:miter;stroke-miterlimit:10;stroke-dasharray:none;stroke-opacity:1"
       transform="matrix(0.95486102,0,0,0.95486102,0.47743051,0.47743051)"
       clip-path="url(#clipPath4)" />
    <path
       id="path5"
       d="m 191,129.88 -3.5,-7 3.5,1.75 3.5,-1.75 z"
       style="fill:#000000;fill-opacity:1;fill-rule:nonzero;stroke:#000000;stroke-width:1;stroke-linecap:butt;stroke-linejoin:miter;stroke-miterlimit:10;stroke-dasharray:none;stroke-opacity:1"
       transform="matrix(0.95486102,0,0,0.95486102,0.47743051,0.47743051)"
       clip-path="url(#clipPath6)" />
    <path
       id="path7"
       d="m 1,41 h 380 v 70 H 1 Z"
       style="fill:#dae8fc;fill-opacity:1;fill-rule:nonzero;stroke:#6c8ebf;stroke-width:1;stroke-linecap:butt;stroke-linejoin:miter;stroke-miterlimit:10;stroke-dasharray:none;stroke-opacity:1"
       transform="matrix(0.95486102,0,0,0.95486102,0.47743051,0.47743051)"
       clip-path="url(#clipPath8)" />
    <text
       id="text8"
       xml:space="preserve"
       transform="matrix(0.95487055,0,0,0.95487055,22.737855,66.840939)"
       clip-path="url(#clipPath9)"><tspan
         style="font-variant:normal;font-weight:normal;font-size:21px;font-family:Helvetica;writing-mode:lr-tb;fill:#000000;fill-opacity:1;fill-rule:nonzero;stroke:none"
         x="0 5.8344727 9.84375 27.336914 33.171387 44.850586 56.529785 61.195312 72.874512 84.553711 90.388184 96.222656 107.90186 113.73633 125.41553 130.08105 140.58105 152.26025 158.09473 168.59473 180.27393 191.95312 197.7876 209.4668 215.30127 219.9668 224.63232 235.13232 240.9668 246.80127 258.48047 264.31494 270.14941 275.98389 287.66309 299.34229 305.17676 311.01123 322.69043"
         y="0"
         sodipodi:role="line"
         id="tspan8">I'm going to give you a list of the top</tspan></text>
    <text
       id="text9"
       xml:space="preserve"
       transform="matrix(0.95487055,0,0,0.95487055,47.221333,91.667573)"
       clip-path="url(#clipPath10)"><tspan
         style="font-variant:normal;font-weight:normal;font-size:21px;font-family:Helvetica;writing-mode:lr-tb;fill:#000000;fill-opacity:1;fill-rule:nonzero;stroke:none"
         x="0 12.263672 23.942871 35.62207 47.30127 53.135742 57.80127 69.480469 76.473633 88.152832 99.832031 110.33203 116.1665 122.00098 132.50098 137.1665 143.00098 147.6665 159.3457 169.8457 175.68018 180.3457 192.0249 197.85938 203.69385 215.37305 227.05225 232.88672 248.05225 259.73145 266.72461 271.39014"
         y="0"
         sodipodi:role="line"
         id="tspan9">~500 largest cities in the world</tspan></text>
    <path
       id="path11"
       d="M 1,1 H 381 V 41 H 1 Z"
       style="fill:#dae8fc;fill-opacity:1;fill-rule:nonzero;stroke:#6c8ebf;stroke-width:1;stroke-linecap:butt;stroke-linejoin:miter;stroke-miterlimit:10;stroke-dasharray:none;stroke-opacity:1"
       transform="matrix(0.95486102,0,0,0.95486102,0.47743051,0.47743051)"
       clip-path="url(#clipPath12)" />
    <text
       id="text12"
       xml:space="preserve"
       transform="matrix(0.95487055,0,0,0.95487055,90.99618,26.736375)"
       clip-path="url(#clipPath13)"><tspan
         style="font-variant:normal;font-weight:700;font-size:21px;font-family:Helvetica;writing-mode:lr-tb;fill:#000000;fill-opacity:1;fill-rule:nonzero;stroke:none"
         x="0 14.006836 22.179199 35.006836 47.834473 53.668945 65.348145 84.020508 89.85498 103.86182 110.85498 122.53418 129.52734 141.20654 159.87891 171.55811 184.38574"
         y="0"
         sodipodi:role="line"
         id="tspan12">Problem Statement</tspan></text>
    <path
       id="path14"
       d="m 1,131 h 380 v 80 H 1 Z"
       style="fill:#dae8fc;fill-opacity:1;fill-rule:nonzero;stroke:#6c8ebf;stroke-width:1;stroke-linecap:butt;stroke-linejoin:miter;stroke-miterlimit:10;stroke-dasharray:none;stroke-opacity:1"
       transform="matrix(0.95486102,0,0,0.95486102,0.47743051,0.47743051)"
       clip-path="url(#clipPath15)" />
    <text
       id="text15"
       xml:space="preserve"
       transform="matrix(0.95487055,0,0,0.95487055,34.688657,146.09519)"
       clip-path="url(#clipPath16)"><tspan
         style="font-variant:normal;font-weight:normal;font-size:21px;font-family:Helvetica;writing-mode:lr-tb;fill:#000000;fill-opacity:1;fill-rule:nonzero;stroke:none"
         x="0 14.006836 25.686035 37.365234 52.530762 58.365234 75.858398 87.537598 93.37207 99.206543 110.88574 122.56494 128.39941 140.07861 145.91309 156.41309 168.09229 179.77148 191.45068 197.28516 204.27832 208.94385 220.62305 231.12305 236.95752 252.12305 256.78857 262.62305 274.30225 280.13672 285.97119 297.65039"
         y="0"
         sodipodi:role="line"
         id="tspan15">Show me the 3 countries with the</tspan></text>
    <text
       id="text16"
       xml:space="preserve"
       transform="matrix(0.95487055,0,0,0.95487055,36.34476,169.96696)"
       clip-path="url(#clipPath17)"><tspan
         style="font-variant:normal;font-weight:normal;font-size:21px;font-family:Helvetica;writing-mode:lr-tb;fill:#000000;fill-opacity:1;fill-rule:nonzero;stroke:none"
         x="0 4.6655273 16.344727 23.337891 35.01709 46.696289 57.196289 63.030762 68.865234 74.699707 86.378906 92.213379 103.89258 108.55811 114.39258 124.89258 129.55811 135.39258 145.89258 151.72705 163.40625 175.08545 186.76465 198.44385 203.10938 214.78857 220.62305 225.28857 236.96777 248.64697 254.48145 259.14697 270.82617 276.66064 282.49512 294.17432"
         y="0"
         sodipodi:role="line"
         id="tspan16">largest total city population in the</tspan></text>
    <text
       id="text17"
       xml:space="preserve"
       transform="matrix(0.95487055,0,0,0.95487055,84.8492,193.83872)"
       clip-path="url(#clipPath18)"><tspan
         style="font-variant:normal;font-weight:normal;font-size:21px;font-family:Helvetica;writing-mode:lr-tb;fill:#000000;fill-opacity:1;fill-rule:nonzero;stroke:none"
         x="0 14.006836 25.686035 37.365234 43.199707 54.878906 66.558105 73.55127 85.230469 91.064941 106.23047 117.90967 135.40283 140.06836 150.56836 162.24756 173.92676 185.60596 192.59912"
         y="0"
         sodipodi:role="line"
         id="tspan17">Southern Hemisphere</tspan></text>
  </g>
</svg>
