<?xml version="1.0" encoding="UTF-8" standalone="no"?>
<!-- Created with Inkscape (http://www.inkscape.org/) -->

<svg
   version="1.1"
   id="svg1"
   width="645.44"
   height="368"
   viewBox="0 0 645.44 368"
   sodipodi:docname="sql-7.pdf"
   xmlns:inkscape="http://www.inkscape.org/namespaces/inkscape"
   xmlns:sodipodi="http://sodipodi.sourceforge.net/DTD/sodipodi-0.dtd"
   xmlns="http://www.w3.org/2000/svg"
   xmlns:svg="http://www.w3.org/2000/svg">
  <defs
     id="defs1">
    <clipPath
       clipPathUnits="userSpaceOnUse"
       id="clipPath2">
      <path
         d="M 0,0 H 2016.6665 V 1148.9614 H 0 Z"
         transform="scale(0.33421489)"
         clip-rule="evenodd"
         id="path2" />
    </clipPath>
    <clipPath
       clipPathUnits="userSpaceOnUse"
       id="clipPath4">
      <path
         d="M 0,0 H 2016.6665 V 1142.9772 H 0 Z"
         transform="matrix(0.33421489,0,0,0.33421489,-0.49999999,-0.49999999)"
         clip-rule="evenodd"
         id="path4" />
    </clipPath>
    <clipPath
       clipPathUnits="userSpaceOnUse"
       id="clipPath5">
      <path
         d="M 0,0 H 2016.6665 V 1142.9772 H 0 Z"
         transform="matrix(0.33421154,0,0,0.33421154,-273.54688,-82)"
         clip-rule="evenodd"
         id="path5" />
    </clipPath>
    <clipPath
       clipPathUnits="userSpaceOnUse"
       id="clipPath6">
      <path
         d="M 0,0 H 2016.6665 V 1142.9772 H 0 Z"
         transform="matrix(0.33421154,0,0,0.33421154,-175.45313,-19)"
         clip-rule="evenodd"
         id="path6" />
    </clipPath>
    <clipPath
       clipPathUnits="userSpaceOnUse"
       id="clipPath7">
      <path
         d="M 0,0 H 2016.6665 V 1142.9772 H 0 Z"
         transform="matrix(0.33421154,0,0,0.33421154,-197.0625,-45)"
         clip-rule="evenodd"
         id="path7" />
    </clipPath>
    <clipPath
       clipPathUnits="userSpaceOnUse"
       id="clipPath9">
      <path
         d="M 0,0 H 2016.6665 V 1142.9772 H 0 Z"
         transform="matrix(0.33421489,0,0,0.33421489,-0.49999999,-0.49999999)"
         clip-rule="evenodd"
         id="path9" />
    </clipPath>
    <clipPath
       clipPathUnits="userSpaceOnUse"
       id="clipPath10">
      <path
         d="M 0,0 H 2016.6665 V 1142.9772 H 0 Z"
         transform="matrix(0.33421154,0,0,0.33421154,-20.875,-82)"
         clip-rule="evenodd"
         id="path10" />
    </clipPath>
    <clipPath
       clipPathUnits="userSpaceOnUse"
       id="clipPath12">
      <path
         d="M 0,0 H 2016.6665 V 1142.9772 H 0 Z"
         transform="matrix(0.33421489,0,0,0.33421489,-0.49999999,-0.49999999)"
         clip-rule="evenodd"
         id="path12" />
    </clipPath>
    <clipPath
       clipPathUnits="userSpaceOnUse"
       id="clipPath14">
      <path
         d="M 0,0 H 2016.6665 V 1142.9772 H 0 Z"
         transform="matrix(0.33421489,0,0,0.33421489,-0.49999999,-0.49999999)"
         clip-rule="evenodd"
         id="path14" />
    </clipPath>
    <clipPath
       clipPathUnits="userSpaceOnUse"
       id="clipPath16">
      <path
         d="M 0,0 H 2016.6665 V 1142.9772 H 0 Z"
         transform="matrix(0.33421489,0,0,0.33421489,-0.49999999,-0.49999999)"
         clip-rule="evenodd"
         id="path16" />
    </clipPath>
    <clipPath
       clipPathUnits="userSpaceOnUse"
       id="clipPath17">
      <path
         d="M 0,0 H 2016.6665 V 1142.9772 H 0 Z"
         transform="matrix(0.33421154,0,0,0.33421154,-18,-126)"
         clip-rule="evenodd"
         id="path17" />
    </clipPath>
    <clipPath
       clipPathUnits="userSpaceOnUse"
       id="clipPath18">
      <path
         d="M 0,0 H 2016.6665 V 1142.9772 H 0 Z"
         transform="matrix(0.33421154,0,0,0.33421154,-65.484375,-126)"
         clip-rule="evenodd"
         id="path18" />
    </clipPath>
    <clipPath
       clipPathUnits="userSpaceOnUse"
       id="clipPath19">
      <path
         d="M 0,0 H 2016.6665 V 1142.9772 H 0 Z"
         transform="matrix(0.33421154,0,0,0.33421154,-18,-139)"
         clip-rule="evenodd"
         id="path19" />
    </clipPath>
    <clipPath
       clipPathUnits="userSpaceOnUse"
       id="clipPath20">
      <path
         d="M 0,0 H 2016.6665 V 1142.9772 H 0 Z"
         transform="matrix(0.33421154,0,0,0.33421154,-42.453125,-139)"
         clip-rule="evenodd"
         id="path20" />
    </clipPath>
    <clipPath
       clipPathUnits="userSpaceOnUse"
       id="clipPath21">
      <path
         d="M 0,0 H 2016.6665 V 1142.9772 H 0 Z"
         transform="matrix(0.33421154,0,0,0.33421154,-18,-152)"
         clip-rule="evenodd"
         id="path21" />
    </clipPath>
    <clipPath
       clipPathUnits="userSpaceOnUse"
       id="clipPath22">
      <path
         d="M 0,0 H 2016.6665 V 1142.9772 H 0 Z"
         transform="matrix(0.33421154,0,0,0.33421154,-62,-152)"
         clip-rule="evenodd"
         id="path22" />
    </clipPath>
    <clipPath
       clipPathUnits="userSpaceOnUse"
       id="clipPath23">
      <path
         d="M 0,0 H 2016.6665 V 1142.9772 H 0 Z"
         transform="matrix(0.33421154,0,0,0.33421154,-79.118652,-152)"
         clip-rule="evenodd"
         id="path23" />
    </clipPath>
    <clipPath
       clipPathUnits="userSpaceOnUse"
       id="clipPath25">
      <path
         d="M 0,0 H 2016.6665 V 1142.9772 H 0 Z"
         transform="scale(0.33421489)"
         clip-rule="evenodd"
         id="path25" />
    </clipPath>
    <clipPath
       clipPathUnits="userSpaceOnUse"
       id="clipPath27">
      <path
         d="M 0,0 H 2016.6665 V 1142.9772 H 0 Z"
         transform="scale(0.33421489)"
         clip-rule="evenodd"
         id="path27" />
    </clipPath>
    <clipPath
       clipPathUnits="userSpaceOnUse"
       id="clipPath29">
      <path
         d="M 0,0 H 2016.6665 V 1142.9772 H 0 Z"
         transform="matrix(0.33421489,0,0,0.33421489,-0.49999999,-0.49999999)"
         clip-rule="evenodd"
         id="path29" />
    </clipPath>
    <clipPath
       clipPathUnits="userSpaceOnUse"
       id="clipPath30">
      <path
         d="M 0,0 H 2016.6665 V 1142.9772 H 0 Z"
         transform="matrix(0.33421154,0,0,0.33421154,-399.93749,-87)"
         clip-rule="evenodd"
         id="path30" />
    </clipPath>
    <clipPath
       clipPathUnits="userSpaceOnUse"
       id="clipPath31">
      <path
         d="M 0,0 H 2016.6665 V 1142.9772 H 0 Z"
         transform="matrix(0.33421154,0,0,0.33421154,-468.73438,-104)"
         clip-rule="evenodd"
         id="path31" />
    </clipPath>
    <clipPath
       clipPathUnits="userSpaceOnUse"
       id="clipPath33">
      <path
         d="M 0,0 H 2016.6665 V 1142.9772 H 0 Z"
         transform="matrix(0.33421489,0,0,0.33421489,-0.49999999,-0.49999999)"
         clip-rule="evenodd"
         id="path33" />
    </clipPath>
    <clipPath
       clipPathUnits="userSpaceOnUse"
       id="clipPath34">
      <path
         d="M 0,0 H 2016.6665 V 1142.9772 H 0 Z"
         transform="matrix(0.33421154,0,0,0.33421154,-396.01563,-157)"
         clip-rule="evenodd"
         id="path34" />
    </clipPath>
    <clipPath
       clipPathUnits="userSpaceOnUse"
       id="clipPath35">
      <path
         d="M 0,0 H 2016.6665 V 1142.9772 H 0 Z"
         transform="matrix(0.33421154,0,0,0.33421154,-514.65625,-174)"
         clip-rule="evenodd"
         id="path35" />
    </clipPath>
  </defs>
  <sodipodi:namedview
     id="namedview1"
     pagecolor="#ffffff"
     bordercolor="#000000"
     borderopacity="0.25"
     inkscape:showpageshadow="2"
     inkscape:pageopacity="0.0"
     inkscape:pagecheckerboard="0"
     inkscape:deskcolor="#d1d1d1">
    <inkscape:page
       x="0"
       y="0"
       inkscape:label="1"
       id="page1"
       width="645.44"
       height="368"
       margin="0"
       bleed="0" />
  </sodipodi:namedview>
  <g
     id="g1"
     inkscape:groupmode="layer"
     inkscape:label="1">
    <path
       id="path1"
       d="M 0,0 H 674 V 384 H 0 Z"
       style="fill:#ffffff;fill-opacity:1;fill-rule:nonzero;stroke:none"
       transform="scale(0.95746777)"
       clip-path="url(#clipPath2)" />
    <path
       id="path3"
       d="M 266,60 H 371 V 90 H 266 Z"
       style="fill:#d5e8d4;fill-opacity:1;fill-rule:nonzero;stroke:#82b366;stroke-width:1;stroke-linecap:butt;stroke-linejoin:miter;stroke-miterlimit:10;stroke-dasharray:none;stroke-opacity:1"
       transform="matrix(0.95746777,0,0,0.95746777,0.47873388,0.47873388)"
       clip-path="url(#clipPath4)" />
    <text
       id="text4"
       xml:space="preserve"
       transform="matrix(0.95747737,0,0,0.95747737,261.91495,78.513144)"
       clip-path="url(#clipPath5)"><tspan
         style="font-variant:normal;font-weight:normal;font-size:21px;font-family:Helvetica;writing-mode:lr-tb;fill:#000000;fill-opacity:1;fill-rule:nonzero;stroke:none"
         x="0 15.165527 26.844727 32.679199 44.358398 56.037598 67.716797 78.216797"
         y="0"
         sodipodi:role="line"
         id="tspan4">Database</tspan></text>
    <text
       id="text5"
       xml:space="preserve"
       transform="matrix(0.95747737,0,0,0.95747737,167.9924,18.19207)"
       clip-path="url(#clipPath6)"><tspan
         style="font-variant:normal;font-weight:normal;font-size:21px;font-family:Helvetica;writing-mode:lr-tb;fill:#000000;fill-opacity:1;fill-rule:nonzero;stroke:none"
         x="0 16.334473 28.013672 33.848145 38.513672 50.192871 61.87207 67.706543 79.385742"
         y="0"
         sodipodi:role="line"
         id="tspan5">Option #2</tspan></text>
    <text
       id="text6"
       xml:space="preserve"
       transform="matrix(0.95747737,0,0,0.95747737,188.68288,43.086482)"
       clip-path="url(#clipPath7)"><tspan
         style="font-variant:normal;font-weight:normal;font-size:21px;font-family:Helvetica;writing-mode:lr-tb;fill:#000000;fill-opacity:1;fill-rule:nonzero;stroke:none"
         x="0 14.006836 30.341309 42.020508"
         y="0"
         sodipodi:role="line"
         id="tspan6">SQL!</tspan></text>
    <path
       id="path8"
       d="M 1,60 H 196 V 90 H 1 Z"
       style="fill:#e1d5e7;fill-opacity:1;fill-rule:nonzero;stroke:#9673a6;stroke-width:1;stroke-linecap:butt;stroke-linejoin:miter;stroke-miterlimit:10;stroke-dasharray:none;stroke-opacity:1"
       transform="matrix(0.95746777,0,0,0.95746777,0.47873388,0.47873388)"
       clip-path="url(#clipPath9)" />
    <text
       id="text9"
       xml:space="preserve"
       transform="matrix(0.95747737,0,0,0.95747737,19.98734,78.513144)"
       clip-path="url(#clipPath10)"><tspan
         style="font-variant:normal;font-weight:normal;font-size:21px;font-family:Helvetica;writing-mode:lr-tb;fill:#000000;fill-opacity:1;fill-rule:nonzero;stroke:none"
         x="0 10.5 24.506836 30.341309 43.168945 47.834473 52.5 64.179199 70.013672 84.020508 95.699707 109.70654 121.38574 138.87891 143.54443"
         y="0"
         sodipodi:role="line"
         id="tspan9">JS File/PgAdmin</tspan></text>
    <path
       id="path11"
       d="M 1,90 H 196 V 380 H 1 Z"
       style="fill:#e1d5e7;fill-opacity:1;fill-rule:nonzero;stroke:#9673a6;stroke-width:1;stroke-linecap:butt;stroke-linejoin:miter;stroke-miterlimit:10;stroke-dasharray:none;stroke-opacity:1"
       transform="matrix(0.95746777,0,0,0.95746777,0.47873388,0.47873388)"
       clip-path="url(#clipPath12)" />
    <path
       id="path13"
       d="M 266,90 H 371 V 380 H 266 Z"
       style="fill:#d5e8d4;fill-opacity:1;fill-rule:nonzero;stroke:#82b366;stroke-width:1;stroke-linecap:butt;stroke-linejoin:miter;stroke-miterlimit:10;stroke-dasharray:none;stroke-opacity:1"
       transform="matrix(0.95746777,0,0,0.95746777,0.47873388,0.47873388)"
       clip-path="url(#clipPath14)" />
    <path
       id="path15"
       d="m 6,100 h 170 v 70 H 6 Z"
       style="fill:#dae8fc;fill-opacity:1;fill-rule:nonzero;stroke:#6c8ebf;stroke-width:1;stroke-linecap:butt;stroke-linejoin:miter;stroke-miterlimit:10;stroke-dasharray:none;stroke-opacity:1"
       transform="matrix(0.95746777,0,0,0.95746777,0.47873388,0.47873388)"
       clip-path="url(#clipPath16)" />
    <text
       id="text16"
       xml:space="preserve"
       transform="matrix(0.95747737,0,0,0.95747737,17.234593,120.64215)"
       clip-path="url(#clipPath17)"><tspan
         style="font-variant:normal;font-weight:700;font-size:11px;font-family:Helvetica;writing-mode:lr-tb;fill:#000000;fill-opacity:1;fill-rule:nonzero;stroke:none"
         x="0 7.9438477 15.280762 23.224609 30.357422 37.07666 44.413574"
         y="0"
         sodipodi:role="line"
         id="tspan16">UPDATE </tspan></text>
    <text
       id="text17"
       xml:space="preserve"
       transform="matrix(0.95747737,0,0,0.95747737,62.699807,120.64215)"
       clip-path="url(#clipPath18)"><tspan
         style="font-variant:normal;font-weight:normal;font-size:11px;font-family:Helvetica;writing-mode:lr-tb;fill:#000000;fill-opacity:1;fill-rule:nonzero;stroke:none"
         x="0 6.1176758 12.235352 17.735352 20.791504"
         y="0"
         sodipodi:role="line"
         id="tspan17">posts</tspan></text>
    <text
       id="text18"
       xml:space="preserve"
       transform="matrix(0.95747737,0,0,0.95747737,17.234593,133.08935)"
       clip-path="url(#clipPath19)"><tspan
         style="font-variant:normal;font-weight:700;font-size:11px;font-family:Helvetica;writing-mode:lr-tb;fill:#000000;fill-opacity:1;fill-rule:nonzero;stroke:none"
         x="0 7.3369141 14.673828 21.393066"
         y="0"
         sodipodi:role="line"
         id="tspan18">SET </tspan></text>
    <text
       id="text19"
       xml:space="preserve"
       transform="matrix(0.95747737,0,0,0.95747737,40.647906,133.08935)"
       clip-path="url(#clipPath20)"><tspan
         style="font-variant:normal;font-weight:normal;font-size:11px;font-family:Helvetica;writing-mode:lr-tb;fill:#000000;fill-opacity:1;fill-rule:nonzero;stroke:none"
         x="0 2.4438477 8.5615234 14.061523 17.117676 23.541504 26.597656 29.653809 32.709961"
         y="0"
         sodipodi:role="line"
         id="tspan19">loc = ...</tspan></text>
    <text
       id="text20"
       xml:space="preserve"
       transform="matrix(0.95747737,0,0,0.95747737,17.234593,145.53656)"
       clip-path="url(#clipPath21)"><tspan
         style="font-variant:normal;font-weight:700;font-size:11px;font-family:Helvetica;writing-mode:lr-tb;fill:#000000;fill-opacity:1;fill-rule:nonzero;stroke:none"
         x="0 10.382324 18.326172 25.663086 33.606934 40.943848"
         y="0"
         sodipodi:role="line"
         id="tspan20">WHERE </tspan></text>
    <text
       id="text21"
       xml:space="preserve"
       transform="matrix(0.95747737,0,0,0.95747737,59.363597,145.53656)"
       clip-path="url(#clipPath22)"><tspan
         style="font-variant:normal;font-weight:normal;font-size:11px;font-family:Helvetica;writing-mode:lr-tb;fill:#000000;fill-opacity:1;fill-rule:nonzero;stroke:none"
         x="0 2.4438477 8.5615234"
         y="0"
         sodipodi:role="line"
         id="tspan21">loc</tspan></text>
    <text
       id="text22"
       xml:space="preserve"
       transform="matrix(0.95747737,0,0,0.95747737,75.754319,145.53656)"
       clip-path="url(#clipPath23)"><tspan
         style="font-variant:normal;font-weight:700;font-size:11px;font-family:Helvetica;writing-mode:lr-tb;fill:#000000;fill-opacity:1;fill-rule:nonzero;stroke:none"
         x="0 3.0561523 10.393066 13.449219 21.393066 29.336914 36.056152 42.775391"
         y="0"
         sodipodi:role="line"
         id="tspan22">IS NULL;</tspan></text>
    <path
       id="path24"
       d="m 196,134.75999 h 58.03"
       style="fill:none;stroke:#000000;stroke-width:1;stroke-linecap:butt;stroke-linejoin:miter;stroke-miterlimit:10;stroke-dasharray:none;stroke-opacity:1"
       transform="scale(0.95746777)"
       clip-path="url(#clipPath25)" />
    <path
       id="path26"
       d="m 261.53,134.75999 -10,5 2.5,-5 -2.5,-5 z"
       style="fill:#000000;fill-opacity:1;fill-rule:nonzero;stroke:#000000;stroke-width:1;stroke-linecap:butt;stroke-linejoin:miter;stroke-miterlimit:10;stroke-dasharray:none;stroke-opacity:1"
       transform="scale(0.95746777)"
       clip-path="url(#clipPath27)" />
    <path
       id="path28"
       d="m 391,60 h 280 v 60 H 391 Z"
       style="fill:#ffe6cc;fill-opacity:1;fill-rule:nonzero;stroke:#d79b00;stroke-width:1;stroke-linecap:butt;stroke-linejoin:miter;stroke-miterlimit:10;stroke-dasharray:none;stroke-opacity:1"
       transform="matrix(0.95746777,0,0,0.95746777,0.47873388,0.47873388)"
       clip-path="url(#clipPath29)" />
    <text
       id="text29"
       xml:space="preserve"
       transform="matrix(0.95747737,0,0,0.95747737,382.9311,83.300531)"
       clip-path="url(#clipPath30)"><tspan
         style="font-variant:normal;font-weight:700;font-size:14px;font-family:Helvetica;writing-mode:lr-tb;fill:#000000;fill-opacity:1;fill-rule:nonzero;stroke:none"
         x="0 10.110352 18.662109 22.551758 35 43.551758 51.337891 55.227539 63.779297 72.331055 76.220703 80.110352 88.662109 93.324219 101.87598 105.76562 114.31738 122.10352 126.76562 137.65527 145.44141 153.22754 161.7793 165.66895 175.7793 185.88965 189.7793 197.56543 206.11719 214.66895 218.55859 228.66895 237.2207 245.77246 253.55859 257.44824"
         y="0"
         sodipodi:role="line"
         id="tspan29">No moving info between DB and Node -</tspan></text>
    <text
       id="text30"
       xml:space="preserve"
       transform="matrix(0.95747737,0,0,0.95747737,448.80256,99.577646)"
       clip-path="url(#clipPath31)"><tspan
         style="font-variant:normal;font-weight:700;font-size:14px;font-family:Helvetica;writing-mode:lr-tb;fill:#000000;fill-opacity:1;fill-rule:nonzero;stroke:none"
         x="0 7.7861328 15.572266 19.461914 24.124023 31.910156 39.696289 44.358398 48.248047 56.03418 63.820312 67.709961 76.261719 84.813477 92.599609 100.38574 104.27539 112.82715 116.7168"
         y="0"
         sodipodi:role="line"
         id="tspan30">as fast as possible</tspan></text>
    <path
       id="path32"
       d="m 391,130 h 280 v 60 H 391 Z"
       style="fill:#ffe6cc;fill-opacity:1;fill-rule:nonzero;stroke:#d79b00;stroke-width:1;stroke-linecap:butt;stroke-linejoin:miter;stroke-miterlimit:10;stroke-dasharray:none;stroke-opacity:1"
       transform="matrix(0.95746777,0,0,0.95746777,0.47873388,0.47873388)"
       clip-path="url(#clipPath33)" />
    <text
       id="text33"
       xml:space="preserve"
       transform="matrix(0.95747737,0,0,0.95747737,379.176,150.32395)"
       clip-path="url(#clipPath34)"><tspan
         style="font-variant:normal;font-weight:700;font-size:14px;font-family:Helvetica;writing-mode:lr-tb;fill:#000000;fill-opacity:1;fill-rule:nonzero;stroke:none"
         x="0 10.110352 17.896484 23.344727 31.896484 39.682617 45.130859 49.020508 53.682617 62.234375 66.124023 70.013672 82.461914 91.013672 94.90332 102.68945 115.1377 122.92383 131.47559 136.1377 140.02734 147.81348 155.59961 159.48926 163.37891 171.93066 179.7168 184.37891 188.26855 196.82031 205.37207 209.26172 217.81348 226.36523 234.15137 238.04102 246.59277 254.37891 262.16504"
         y="0"
         sodipodi:role="line"
         id="tspan33">Harder to implement validation/business</tspan></text>
    <text
       id="text34"
       xml:space="preserve"
       transform="matrix(0.95747737,0,0,0.95747737,492.77171,166.60106)"
       clip-path="url(#clipPath35)"><tspan
         style="font-variant:normal;font-weight:700;font-size:14px;font-family:Helvetica;writing-mode:lr-tb;fill:#000000;fill-opacity:1;fill-rule:nonzero;stroke:none"
         x="0 3.8896484 12.441406 20.993164 24.882812"
         y="0"
         sodipodi:role="line"
         id="tspan34">logic</tspan></text>
  </g>
</svg>
