<?xml version="1.0" encoding="UTF-8" standalone="no"?>
<!-- Created with Inkscape (http://www.inkscape.org/) -->

<svg
   version="1.1"
   id="svg1"
   width="278.72"
   height="338.56"
   viewBox="0 0 278.72 338.56"
   sodipodi:docname="sql-3.pdf"
   xmlns:inkscape="http://www.inkscape.org/namespaces/inkscape"
   xmlns:sodipodi="http://sodipodi.sourceforge.net/DTD/sodipodi-0.dtd"
   xmlns="http://www.w3.org/2000/svg"
   xmlns:svg="http://www.w3.org/2000/svg">
  <defs
     id="defs1">
    <clipPath
       clipPathUnits="userSpaceOnUse"
       id="clipPath2">
      <path
         d="M 0,0 H 870.83331 V 1057.0115 H 0 Z"
         transform="scale(0.33301437)"
         clip-rule="evenodd"
         id="path2" />
    </clipPath>
    <clipPath
       clipPathUnits="userSpaceOnUse"
       id="clipPath4">
      <path
         d="M 0,0 H 870.83331 V 1057.0115 H 0 Z"
         transform="matrix(0.33301437,0,0,0.33301437,-0.50000001,-0.50000001)"
         clip-rule="evenodd"
         id="path4" />
    </clipPath>
    <clipPath
       clipPathUnits="userSpaceOnUse"
       id="clipPath6">
      <path
         d="M 0,0 H 870.83331 V 1057.0115 H 0 Z"
         transform="matrix(0.33301437,0,0,0.33301437,-0.50000001,-0.50000001)"
         clip-rule="evenodd"
         id="path6" />
    </clipPath>
    <clipPath
       clipPathUnits="userSpaceOnUse"
       id="clipPath8">
      <path
         d="M 0,0 H 870.83331 V 1057.0115 H 0 Z"
         transform="matrix(0.33301437,0,0,0.33301437,-0.50000001,-0.50000001)"
         clip-rule="evenodd"
         id="path8" />
    </clipPath>
    <clipPath
       clipPathUnits="userSpaceOnUse"
       id="clipPath9">
      <path
         d="M 0,0 H 870.83331 V 1057.0115 H 0 Z"
         transform="matrix(0.33301103,0,0,0.33301103,-102.5,-86)"
         clip-rule="evenodd"
         id="path9" />
    </clipPath>
    <clipPath
       clipPathUnits="userSpaceOnUse"
       id="clipPath11">
      <path
         d="M 0,0 H 870.83331 V 1057.0115 H 0 Z"
         transform="matrix(0.33301437,0,0,0.33301437,-0.50000001,-0.50000001)"
         clip-rule="evenodd"
         id="path11" />
    </clipPath>
    <clipPath
       clipPathUnits="userSpaceOnUse"
       id="clipPath13">
      <path
         d="M 0,0 H 870.83331 V 1057.0115 H 0 Z"
         transform="matrix(0.33301437,0,0,0.33301437,-0.50000001,-0.50000001)"
         clip-rule="evenodd"
         id="path13" />
    </clipPath>
    <clipPath
       clipPathUnits="userSpaceOnUse"
       id="clipPath15">
      <path
         d="M 0,0 H 870.83331 V 1057.0115 H 0 Z"
         transform="matrix(0.33301437,0,0,0.33301437,-0.50000001,-0.50000001)"
         clip-rule="evenodd"
         id="path15" />
    </clipPath>
    <clipPath
       clipPathUnits="userSpaceOnUse"
       id="clipPath16">
      <path
         d="M 0,0 H 870.83331 V 1057.0115 H 0 Z"
         transform="matrix(0.33301103,0,0,0.33301103,-94.328125,-208)"
         clip-rule="evenodd"
         id="path16" />
    </clipPath>
    <clipPath
       clipPathUnits="userSpaceOnUse"
       id="clipPath18">
      <path
         d="M 0,0 H 870.83331 V 1057.0115 H 0 Z"
         transform="matrix(0.33301437,0,0,0.33301437,-0.50000001,-0.50000001)"
         clip-rule="evenodd"
         id="path18" />
    </clipPath>
    <clipPath
       clipPathUnits="userSpaceOnUse"
       id="clipPath19">
      <path
         d="M 0,0 H 870.83331 V 1057.0115 H 0 Z"
         transform="matrix(0.33301103,0,0,0.33301103,-85.375,-329)"
         clip-rule="evenodd"
         id="path19" />
    </clipPath>
    <clipPath
       clipPathUnits="userSpaceOnUse"
       id="clipPath21">
      <path
         d="M 0,0 H 870.83331 V 1057.0115 H 0 Z"
         transform="matrix(0.33301437,0,0,0.33301437,-0.50000001,-0.50000001)"
         clip-rule="evenodd"
         id="path21" />
    </clipPath>
    <clipPath
       clipPathUnits="userSpaceOnUse"
       id="clipPath23">
      <path
         d="M 0,0 H 870.83331 V 1057.0115 H 0 Z"
         transform="matrix(0.33301437,0,0,0.33301437,-0.50000001,-0.50000001)"
         clip-rule="evenodd"
         id="path23" />
    </clipPath>
    <clipPath
       clipPathUnits="userSpaceOnUse"
       id="clipPath24">
      <path
         d="M 0,0 H 870.83331 V 1057.0115 H 0 Z"
         transform="matrix(0.33301103,0,0,0.33301103,-6.09375,-75)"
         clip-rule="evenodd"
         id="path24" />
    </clipPath>
    <clipPath
       clipPathUnits="userSpaceOnUse"
       id="clipPath26">
      <path
         d="M 0,0 H 870.83331 V 1057.0115 H 0 Z"
         transform="matrix(0.33301437,0,0,0.33301437,-0.50000001,-0.50000001)"
         clip-rule="evenodd"
         id="path26" />
    </clipPath>
    <clipPath
       clipPathUnits="userSpaceOnUse"
       id="clipPath28">
      <path
         d="M 0,0 H 870.83331 V 1057.0115 H 0 Z"
         transform="matrix(0.33301437,0,0,0.33301437,-0.50000001,-0.50000001)"
         clip-rule="evenodd"
         id="path28" />
    </clipPath>
    <clipPath
       clipPathUnits="userSpaceOnUse"
       id="clipPath30">
      <path
         d="M 0,0 H 870.83331 V 1057.0115 H 0 Z"
         transform="matrix(0.33301437,0,0,0.33301437,-0.50000001,-0.50000001)"
         clip-rule="evenodd"
         id="path30" />
    </clipPath>
    <clipPath
       clipPathUnits="userSpaceOnUse"
       id="clipPath32">
      <path
         d="M 0,0 H 870.83331 V 1057.0115 H 0 Z"
         transform="matrix(0.33301437,0,0,0.33301437,-0.50000001,-0.50000001)"
         clip-rule="evenodd"
         id="path32" />
    </clipPath>
    <clipPath
       clipPathUnits="userSpaceOnUse"
       id="clipPath34">
      <path
         d="M 0,0 H 870.83331 V 1057.0115 H 0 Z"
         transform="matrix(0.33301437,0,0,0.33301437,-0.50000001,-0.50000001)"
         clip-rule="evenodd"
         id="path34" />
    </clipPath>
    <clipPath
       clipPathUnits="userSpaceOnUse"
       id="clipPath35">
      <path
         d="M 0,0 H 870.83331 V 1057.0115 H 0 Z"
         transform="matrix(0.33301103,0,0,0.33301103,-55.859375,-139)"
         clip-rule="evenodd"
         id="path35" />
    </clipPath>
    <clipPath
       clipPathUnits="userSpaceOnUse"
       id="clipPath36">
      <path
         d="M 0,0 H 870.83331 V 1057.0115 H 0 Z"
         transform="matrix(0.33301103,0,0,0.33301103,-56.640625,-154)"
         clip-rule="evenodd"
         id="path36" />
    </clipPath>
    <clipPath
       clipPathUnits="userSpaceOnUse"
       id="clipPath37">
      <path
         d="M 0,0 H 870.83331 V 1057.0115 H 0 Z"
         transform="matrix(0.33301103,0,0,0.33301103,-143.34375,-154)"
         clip-rule="evenodd"
         id="path37" />
    </clipPath>
    <clipPath
       clipPathUnits="userSpaceOnUse"
       id="clipPath38">
      <path
         d="M 0,0 H 870.83331 V 1057.0115 H 0 Z"
         transform="matrix(0.33301103,0,0,0.33301103,-172.67188,-154)"
         clip-rule="evenodd"
         id="path38" />
    </clipPath>
    <clipPath
       clipPathUnits="userSpaceOnUse"
       id="clipPath39">
      <path
         d="M 0,0 H 870.83331 V 1057.0115 H 0 Z"
         transform="matrix(0.33301103,0,0,0.33301103,-211.34375,-154)"
         clip-rule="evenodd"
         id="path39" />
    </clipPath>
    <clipPath
       clipPathUnits="userSpaceOnUse"
       id="clipPath40">
      <path
         d="M 0,0 H 870.83331 V 1057.0115 H 0 Z"
         transform="matrix(0.33301103,0,0,0.33301103,-232.6875,-154)"
         clip-rule="evenodd"
         id="path40" />
    </clipPath>
    <clipPath
       clipPathUnits="userSpaceOnUse"
       id="clipPath42">
      <path
         d="M 0,0 H 870.83331 V 1057.0115 H 0 Z"
         transform="matrix(0.33301437,0,0,0.33301437,-0.50000001,-0.50000001)"
         clip-rule="evenodd"
         id="path42" />
    </clipPath>
    <clipPath
       clipPathUnits="userSpaceOnUse"
       id="clipPath44">
      <path
         d="M 0,0 H 870.83331 V 1057.0115 H 0 Z"
         transform="matrix(0.33301437,0,0,0.33301437,-0.50000001,-0.50000001)"
         clip-rule="evenodd"
         id="path44" />
    </clipPath>
    <clipPath
       clipPathUnits="userSpaceOnUse"
       id="clipPath46">
      <path
         d="M 0,0 H 870.83331 V 1057.0115 H 0 Z"
         transform="matrix(0.33301437,0,0,0.33301437,-0.50000001,-0.50000001)"
         clip-rule="evenodd"
         id="path46" />
    </clipPath>
    <clipPath
       clipPathUnits="userSpaceOnUse"
       id="clipPath48">
      <path
         d="M 0,0 H 870.83331 V 1057.0115 H 0 Z"
         transform="matrix(0.33301437,0,0,0.33301437,-0.50000001,-0.50000001)"
         clip-rule="evenodd"
         id="path48" />
    </clipPath>
    <clipPath
       clipPathUnits="userSpaceOnUse"
       id="clipPath50">
      <path
         d="M 0,0 H 870.83331 V 1057.0115 H 0 Z"
         transform="matrix(0.33301437,0,0,0.33301437,-0.50000001,-0.50000001)"
         clip-rule="evenodd"
         id="path50" />
    </clipPath>
    <clipPath
       clipPathUnits="userSpaceOnUse"
       id="clipPath51">
      <path
         d="M 0,0 H 870.83331 V 1057.0115 H 0 Z"
         transform="matrix(0.33301103,0,0,0.33301103,-64.3125,-260)"
         clip-rule="evenodd"
         id="path51" />
    </clipPath>
    <clipPath
       clipPathUnits="userSpaceOnUse"
       id="clipPath52">
      <path
         d="M 0,0 H 870.83331 V 1057.0115 H 0 Z"
         transform="matrix(0.33301103,0,0,0.33301103,-133.65625,-275)"
         clip-rule="evenodd"
         id="path52" />
    </clipPath>
    <clipPath
       clipPathUnits="userSpaceOnUse"
       id="clipPath54">
      <path
         d="M 0,0 H 870.83331 V 1057.0115 H 0 Z"
         transform="matrix(0.33301437,0,0,0.33301437,-0.50000001,-0.50000001)"
         clip-rule="evenodd"
         id="path54" />
    </clipPath>
    <clipPath
       clipPathUnits="userSpaceOnUse"
       id="clipPath56">
      <path
         d="M 0,0 H 870.83331 V 1057.0115 H 0 Z"
         transform="matrix(0.33301437,0,0,0.33301437,-0.50000001,-0.50000001)"
         clip-rule="evenodd"
         id="path56" />
    </clipPath>
    <clipPath
       clipPathUnits="userSpaceOnUse"
       id="clipPath58">
      <path
         d="M 0,0 H 870.83331 V 1057.0115 H 0 Z"
         transform="matrix(0.33301437,0,0,0.33301437,-0.50000001,-0.50000001)"
         clip-rule="evenodd"
         id="path58" />
    </clipPath>
    <clipPath
       clipPathUnits="userSpaceOnUse"
       id="clipPath59">
      <path
         d="M 0,0 H 870.83331 V 1057.0115 H 0 Z"
         transform="matrix(0.33301103,0,0,0.33301103,-60.765625,-18)"
         clip-rule="evenodd"
         id="path59" />
    </clipPath>
    <clipPath
       clipPathUnits="userSpaceOnUse"
       id="clipPath60">
      <path
         d="M 0,0 H 870.83331 V 1057.0115 H 0 Z"
         transform="matrix(0.33301103,0,0,0.33301103,-78.65625,-35)"
         clip-rule="evenodd"
         id="path60" />
    </clipPath>
    <clipPath
       clipPathUnits="userSpaceOnUse"
       id="clipPath62">
      <path
         d="M 0,0 H 870.83331 V 1057.0115 H 0 Z"
         transform="matrix(0.33301437,0,0,0.33301437,-0.50000001,-0.50000001)"
         clip-rule="evenodd"
         id="path62" />
    </clipPath>
    <clipPath
       clipPathUnits="userSpaceOnUse"
       id="clipPath64">
      <path
         d="M 0,0 H 870.83331 V 1057.0115 H 0 Z"
         transform="matrix(0.33301437,0,0,0.33301437,-0.50000001,-0.50000001)"
         clip-rule="evenodd"
         id="path64" />
    </clipPath>
    <clipPath
       clipPathUnits="userSpaceOnUse"
       id="clipPath66">
      <path
         d="M 0,0 H 870.83331 V 1057.0115 H 0 Z"
         transform="matrix(0.33301437,0,0,0.33301437,-0.50000001,-0.50000001)"
         clip-rule="evenodd"
         id="path66" />
    </clipPath>
    <clipPath
       clipPathUnits="userSpaceOnUse"
       id="clipPath67">
      <path
         d="M 0,0 H 870.83331 V 1057.0115 H 0 Z"
         transform="matrix(0.33301103,0,0,0.33301103,-176.60938,-18)"
         clip-rule="evenodd"
         id="path67" />
    </clipPath>
    <clipPath
       clipPathUnits="userSpaceOnUse"
       id="clipPath68">
      <path
         d="M 0,0 H 870.83331 V 1057.0115 H 0 Z"
         transform="matrix(0.33301103,0,0,0.33301103,-201.39063,-35)"
         clip-rule="evenodd"
         id="path68" />
    </clipPath>
  </defs>
  <sodipodi:namedview
     id="namedview1"
     pagecolor="#ffffff"
     bordercolor="#000000"
     borderopacity="0.25"
     inkscape:showpageshadow="2"
     inkscape:pageopacity="0.0"
     inkscape:pagecheckerboard="0"
     inkscape:deskcolor="#d1d1d1">
    <inkscape:page
       x="0"
       y="0"
       inkscape:label="1"
       id="page1"
       width="278.72"
       height="338.56"
       margin="0"
       bleed="0" />
  </sodipodi:namedview>
  <g
     id="g1"
     inkscape:groupmode="layer"
     inkscape:label="1">
    <path
       id="path1"
       d="M 0,0 H 290 V 352 H 0 Z"
       style="fill:#ffffff;fill-opacity:1;fill-rule:nonzero;stroke:none"
       transform="scale(0.96091945)"
       clip-path="url(#clipPath2)" />
    <path
       id="path3"
       d="m 155,101 v 14.63"
       style="fill:none;stroke:#000000;stroke-width:1;stroke-linecap:butt;stroke-linejoin:miter;stroke-miterlimit:10;stroke-dasharray:none;stroke-opacity:1"
       transform="matrix(0.96091945,0,0,0.96091945,0.48045973,0.48045973)"
       clip-path="url(#clipPath4)" />
    <path
       id="path5"
       d="m 155,120.88 -3.5,-7 3.5,1.75 3.5,-1.75 z"
       style="fill:#000000;fill-opacity:1;fill-rule:nonzero;stroke:#000000;stroke-width:1;stroke-linecap:butt;stroke-linejoin:miter;stroke-miterlimit:10;stroke-dasharray:none;stroke-opacity:1"
       transform="matrix(0.96091945,0,0,0.96091945,0.48045973,0.48045973)"
       clip-path="url(#clipPath6)" />
    <path
       id="path7"
       d="m 50,61 h 210 v 40 H 50 Z"
       style="fill:#dae8fc;fill-opacity:1;fill-rule:nonzero;stroke:#6c8ebf;stroke-width:1;stroke-linecap:butt;stroke-linejoin:miter;stroke-miterlimit:10;stroke-dasharray:none;stroke-opacity:1"
       transform="matrix(0.96091945,0,0,0.96091945,0.48045973,0.48045973)"
       clip-path="url(#clipPath8)" />
    <text
       id="text8"
       xml:space="preserve"
       transform="matrix(0.96092908,0,0,0.96092908,98.495231,82.639901)"
       clip-path="url(#clipPath9)"><tspan
         style="font-variant:normal;font-weight:700;font-size:14px;font-family:Helvetica;writing-mode:lr-tb;fill:#000000;fill-opacity:1;fill-rule:nonzero;stroke:none"
         x="0 10.110352 18.662109 27.213867 31.103516 38.889648 47.441406 51.331055 59.882812 72.331055 80.882812 84.772461 88.662109 97.213867"
         y="0"
         sodipodi:role="line"
         id="tspan8">Add column loc</tspan></text>
    <path
       id="path10"
       d="m 155,223 v 20 -20 13.63"
       style="fill:none;stroke:#000000;stroke-width:1;stroke-linecap:butt;stroke-linejoin:miter;stroke-miterlimit:10;stroke-dasharray:none;stroke-opacity:1"
       transform="matrix(0.96091945,0,0,0.96091945,0.48045973,0.48045973)"
       clip-path="url(#clipPath11)" />
    <path
       id="path12"
       d="m 155,241.88 -3.5,-7 3.5,1.75 3.5,-1.75 z"
       style="fill:#000000;fill-opacity:1;fill-rule:nonzero;stroke:#000000;stroke-width:1;stroke-linecap:butt;stroke-linejoin:miter;stroke-miterlimit:10;stroke-dasharray:none;stroke-opacity:1"
       transform="matrix(0.96091945,0,0,0.96091945,0.48045973,0.48045973)"
       clip-path="url(#clipPath13)" />
    <path
       id="path14"
       d="m 50,183 h 210 v 40 H 50 Z"
       style="fill:#dae8fc;fill-opacity:1;fill-rule:nonzero;stroke:#6c8ebf;stroke-width:1;stroke-linecap:butt;stroke-linejoin:miter;stroke-miterlimit:10;stroke-dasharray:none;stroke-opacity:1"
       transform="matrix(0.96091945,0,0,0.96091945,0.48045973,0.48045973)"
       clip-path="url(#clipPath15)" />
    <text
       id="text15"
       xml:space="preserve"
       transform="matrix(0.96092908,0,0,0.96092908,90.642638,199.87325)"
       clip-path="url(#clipPath16)"><tspan
         style="font-variant:normal;font-weight:700;font-size:14px;font-family:Helvetica;writing-mode:lr-tb;fill:#000000;fill-opacity:1;fill-rule:nonzero;stroke:none"
         x="0 10.110352 18.662109 27.213867 35 38.889648 42.779297 50.56543 55.227539 59.117188 63.006836 71.558594 80.110352 84 88.662109 97.213867 101.10352 104.99316 113.54492"
         y="0"
         sodipodi:role="line"
         id="tspan15">Copy lat/lng to loc</tspan></text>
    <path
       id="path17"
       d="m 50,304 h 210 v 40 H 50 Z"
       style="fill:#dae8fc;fill-opacity:1;fill-rule:nonzero;stroke:#6c8ebf;stroke-width:1;stroke-linecap:butt;stroke-linejoin:miter;stroke-miterlimit:10;stroke-dasharray:none;stroke-opacity:1"
       transform="matrix(0.96091945,0,0,0.96091945,0.48045973,0.48045973)"
       clip-path="url(#clipPath18)" />
    <text
       id="text18"
       xml:space="preserve"
       transform="matrix(0.96092908,0,0,0.96092908,82.03932,316.14567)"
       clip-path="url(#clipPath19)"><tspan
         style="font-variant:normal;font-weight:700;font-size:14px;font-family:Helvetica;writing-mode:lr-tb;fill:#000000;fill-opacity:1;fill-rule:nonzero;stroke:none"
         x="0 10.110352 15.558594 24.110352 32.662109 36.551758 44.337891 52.889648 56.779297 65.331055 77.779297 86.331055 94.117188 98.006836 101.89648 109.68262 114.34473 118.23438 122.12402 130.67578"
         y="0"
         sodipodi:role="line"
         id="tspan18">Drop columns lat/lng</tspan></text>
    <path
       id="path20"
       d="M 40,61 V 334.64001"
       style="fill:none;stroke:#000000;stroke-width:1;stroke-linecap:butt;stroke-linejoin:miter;stroke-miterlimit:10;stroke-dasharray:none;stroke-opacity:1"
       transform="matrix(0.96091945,0,0,0.96091945,0.48045973,0.48045973)"
       clip-path="url(#clipPath21)" />
    <path
       id="path22"
       d="m 40,339.89001 -3.5,-7 3.5,1.75 3.5,-1.75 z"
       style="fill:#000000;fill-opacity:1;fill-rule:nonzero;stroke:#000000;stroke-width:1;stroke-linecap:butt;stroke-linejoin:miter;stroke-miterlimit:10;stroke-dasharray:none;stroke-opacity:1"
       transform="matrix(0.96091945,0,0,0.96091945,0.48045973,0.48045973)"
       clip-path="url(#clipPath23)" />
    <text
       id="text23"
       xml:space="preserve"
       transform="matrix(0.96092908,0,0,0.96092908,5.8556616,72.069681)"
       clip-path="url(#clipPath24)"><tspan
         style="font-variant:normal;font-weight:700;font-size:12px;font-family:Helvetica;writing-mode:lr-tb;fill:#000000;fill-opacity:1;fill-rule:nonzero;stroke:none"
         x="0 7.1191406 10.453125 21.123047"
         y="0"
         sodipodi:role="line"
         id="tspan23">Time</tspan></text>
    <path
       id="path25"
       d="m 155,162 v 20 -19 13.63"
       style="fill:none;stroke:#000000;stroke-width:1;stroke-linecap:butt;stroke-linejoin:miter;stroke-miterlimit:10;stroke-dasharray:none;stroke-opacity:1"
       transform="matrix(0.96091945,0,0,0.96091945,0.48045973,0.48045973)"
       clip-path="url(#clipPath26)" />
    <path
       id="path27"
       d="m 155,181.88 -3.5,-7 3.5,1.75 3.5,-1.75 z"
       style="fill:#000000;fill-opacity:1;fill-rule:nonzero;stroke:#000000;stroke-width:1;stroke-linecap:butt;stroke-linejoin:miter;stroke-miterlimit:10;stroke-dasharray:none;stroke-opacity:1"
       transform="matrix(0.96091945,0,0,0.96091945,0.48045973,0.48045973)"
       clip-path="url(#clipPath28)" />
    <path
       id="path29"
       d="m 260,142 h 20 V 21 h -13.63"
       style="fill:none;stroke:#000000;stroke-width:1;stroke-linecap:butt;stroke-linejoin:miter;stroke-miterlimit:10;stroke-dasharray:none;stroke-opacity:1"
       transform="matrix(0.96091945,0,0,0.96091945,0.48045973,0.48045973)"
       clip-path="url(#clipPath30)" />
    <path
       id="path31"
       d="m 261.12,21 7,-3.5 -1.75,3.5 1.75,3.5 z"
       style="fill:#000000;fill-opacity:1;fill-rule:nonzero;stroke:#000000;stroke-width:1;stroke-linecap:butt;stroke-linejoin:miter;stroke-miterlimit:10;stroke-dasharray:none;stroke-opacity:1"
       transform="matrix(0.96091945,0,0,0.96091945,0.48045973,0.48045973)"
       clip-path="url(#clipPath32)" />
    <path
       id="path33"
       d="m 50,122 h 210 v 40 H 50 Z"
       style="fill:#d5e8d4;fill-opacity:1;fill-rule:nonzero;stroke:#82b366;stroke-width:1;stroke-linecap:butt;stroke-linejoin:miter;stroke-miterlimit:10;stroke-dasharray:none;stroke-opacity:1"
       transform="matrix(0.96091945,0,0,0.96091945,0.48045973,0.48045973)"
       clip-path="url(#clipPath34)" />
    <text
       id="text34"
       xml:space="preserve"
       transform="matrix(0.96092908,0,0,0.96092908,53.676898,133.56914)"
       clip-path="url(#clipPath35)"><tspan
         style="font-variant:normal;font-weight:700;font-size:12px;font-family:Helvetica;writing-mode:lr-tb;fill:#000000;fill-opacity:1;fill-rule:nonzero;stroke:none"
         x="0 8.6660156 15.339844 22.669922 26.003906 33.333984 40.007812 43.341797 50.671875 57.345703 66.679688 70.013672 76.6875 83.361328 88.03125 94.705078 98.039062 105.36914 112.69922 116.0332 123.36328 127.35938 130.25391 138.91992 146.92383 150.25781 153.5918 157.58789 164.91797 171.5918 175.58789 178.92188 188.25586 191.58984 194.92383"
         y="0"
         sodipodi:role="line"
         id="tspan34">Deploy new version of API that will</tspan></text>
    <text
       id="text35"
       xml:space="preserve"
       transform="matrix(0.96092908,0,0,0.96092908,54.427624,147.98308)"
       clip-path="url(#clipPath36)"><tspan
         style="font-variant:normal;font-weight:700;font-size:12px;font-family:Helvetica;writing-mode:lr-tb;fill:#000000;fill-opacity:1;fill-rule:nonzero;stroke:none"
         x="0 9.3339844 14.003906 17.337891 21.333984 28.007812 31.341797 38.015625 44.689453 48.023438 55.353516 62.027344 68.701172 72.035156 76.03125 83.361328"
         y="0"
         sodipodi:role="line"
         id="tspan35">write values to </tspan></text>
    <text
       id="text36"
       xml:space="preserve"
       transform="matrix(0.96092908,0,0,0.96092908,137.74318,147.98308)"
       clip-path="url(#clipPath37)"><tspan
         style="font-style:oblique;font-variant:normal;font-weight:700;font-size:12px;font-family:Helvetica;writing-mode:lr-tb;fill:#000000;fill-opacity:1;fill-rule:nonzero;stroke:none"
         x="0 7.3300781 14.660156 18.65625 25.986328"
         y="0"
         sodipodi:role="line"
         id="tspan36">both </tspan></text>
    <text
       id="text37"
       xml:space="preserve"
       transform="matrix(0.96092908,0,0,0.96092908,165.92543,147.98308)"
       clip-path="url(#clipPath38)"><tspan
         style="font-variant:normal;font-weight:700;font-size:12px;font-family:Helvetica;writing-mode:lr-tb;fill:#000000;fill-opacity:1;fill-rule:nonzero;stroke:none"
         x="0 3.3339844 10.007812 14.003906 17.337891 20.671875 28.001953 35.332031"
         y="0"
         sodipodi:role="line"
         id="tspan37">lat/lng </tspan></text>
    <text
       id="text38"
       xml:space="preserve"
       transform="matrix(0.96092908,0,0,0.96092908,203.08636,147.98308)"
       clip-path="url(#clipPath39)"><tspan
         style="font-style:oblique;font-variant:normal;font-weight:700;font-size:12px;font-family:Helvetica;writing-mode:lr-tb;fill:#000000;fill-opacity:1;fill-rule:nonzero;stroke:none"
         x="0 6.6738281 14.003906"
         y="0"
         sodipodi:role="line"
         id="tspan38">and</tspan></text>
    <text
       id="text39"
       xml:space="preserve"
       transform="matrix(0.96092908,0,0,0.96092908,223.59619,147.98308)"
       clip-path="url(#clipPath40)"><tspan
         style="font-variant:normal;font-weight:700;font-size:12px;font-family:Helvetica;writing-mode:lr-tb;fill:#000000;fill-opacity:1;fill-rule:nonzero;stroke:none"
         x="0 3.3339844 6.6679688 13.998047"
         y="0"
         sodipodi:role="line"
         id="tspan39"> loc</tspan></text>
    <path
       id="path41"
       d="m 155,283 v 20 -19 13.63"
       style="fill:none;stroke:#000000;stroke-width:1;stroke-linecap:butt;stroke-linejoin:miter;stroke-miterlimit:10;stroke-dasharray:none;stroke-opacity:1"
       transform="matrix(0.96091945,0,0,0.96091945,0.48045973,0.48045973)"
       clip-path="url(#clipPath42)" />
    <path
       id="path43"
       d="m 155,302.89001 -3.5,-7.01001 3.5,1.75 3.5,-1.75 z"
       style="fill:#000000;fill-opacity:1;fill-rule:nonzero;stroke:#000000;stroke-width:1;stroke-linecap:butt;stroke-linejoin:miter;stroke-miterlimit:10;stroke-dasharray:none;stroke-opacity:1"
       transform="matrix(0.96091945,0,0,0.96091945,0.48045973,0.48045973)"
       clip-path="url(#clipPath44)" />
    <path
       id="path45"
       d="m 260,263 h 20 V 21 h -13.63"
       style="fill:none;stroke:#000000;stroke-width:1;stroke-linecap:butt;stroke-linejoin:miter;stroke-miterlimit:10;stroke-dasharray:none;stroke-opacity:1"
       transform="matrix(0.96091945,0,0,0.96091945,0.48045973,0.48045973)"
       clip-path="url(#clipPath46)" />
    <path
       id="path47"
       d="m 261.12,21 7,-3.5 -1.75,3.5 1.75,3.5 z"
       style="fill:#000000;fill-opacity:1;fill-rule:nonzero;stroke:#000000;stroke-width:1;stroke-linecap:butt;stroke-linejoin:miter;stroke-miterlimit:10;stroke-dasharray:none;stroke-opacity:1"
       transform="matrix(0.96091945,0,0,0.96091945,0.48045973,0.48045973)"
       clip-path="url(#clipPath48)" />
    <path
       id="path49"
       d="m 50,243 h 210 v 40 H 50 Z"
       style="fill:#d5e8d4;fill-opacity:1;fill-rule:nonzero;stroke:#82b366;stroke-width:1;stroke-linecap:butt;stroke-linejoin:miter;stroke-miterlimit:10;stroke-dasharray:none;stroke-opacity:1"
       transform="matrix(0.96091945,0,0,0.96091945,0.48045973,0.48045973)"
       clip-path="url(#clipPath50)" />
    <text
       id="text50"
       xml:space="preserve"
       transform="matrix(0.96092908,0,0,0.96092908,61.799751,249.84156)"
       clip-path="url(#clipPath51)"><tspan
         style="font-variant:normal;font-weight:700;font-size:12px;font-family:Helvetica;writing-mode:lr-tb;fill:#000000;fill-opacity:1;fill-rule:nonzero;stroke:none"
         x="0 8.6660156 15.996094 23.326172 30 33.996094 40.669922 44.003906 50.677734 58.007812 65.337891 72.011719 75.345703 79.341797 86.671875 90.005859 97.335938 104.66602 108 114.67383 118.00781 127.3418 132.01172 135.3457 139.3418 146.01562 149.34961 153.3457 160.67578 164.00977 167.34375 174.67383"
         y="0"
         sodipodi:role="line"
         id="tspan50">Update code to only write to loc</tspan></text>
    <text
       id="text51"
       xml:space="preserve"
       transform="matrix(0.96092908,0,0,0.96092908,128.43418,264.2555)"
       clip-path="url(#clipPath52)"><tspan
         style="font-variant:normal;font-weight:700;font-size:12px;font-family:Helvetica;writing-mode:lr-tb;fill:#000000;fill-opacity:1;fill-rule:nonzero;stroke:none"
         x="0 6.6738281 14.003906 17.337891 24.667969 35.337891"
         y="0"
         sodipodi:role="line"
         id="tspan51">column</tspan></text>
    <path
       id="path53"
       d="M 95,41 94.96,55.43"
       style="fill:none;stroke:#000000;stroke-width:1;stroke-linecap:butt;stroke-linejoin:miter;stroke-miterlimit:10;stroke-dasharray:none;stroke-opacity:1"
       transform="matrix(0.96091945,0,0,0.96091945,0.48045973,0.48045973)"
       clip-path="url(#clipPath54)" />
    <path
       id="path55"
       d="m 94.940002,60.68 -3.480003,-7.010002 3.5,1.760002 3.5,-1.740001 z"
       style="fill:#000000;fill-opacity:1;fill-rule:nonzero;stroke:#000000;stroke-width:1;stroke-linecap:butt;stroke-linejoin:miter;stroke-miterlimit:10;stroke-dasharray:none;stroke-opacity:1"
       transform="matrix(0.96091945,0,0,0.96091945,0.48045973,0.48045973)"
       clip-path="url(#clipPath56)" />
    <path
       id="path57"
       d="m 50,1 h 90 V 41 H 50 Z"
       style="fill:#f8cecc;fill-opacity:1;fill-rule:nonzero;stroke:#b85450;stroke-width:1;stroke-linecap:butt;stroke-linejoin:miter;stroke-miterlimit:10;stroke-dasharray:none;stroke-opacity:1"
       transform="matrix(0.96091945,0,0,0.96091945,0.48045973,0.48045973)"
       clip-path="url(#clipPath58)" />
    <text
       id="text58"
       xml:space="preserve"
       transform="matrix(0.96092908,0,0,0.96092908,58.391456,17.296723)"
       clip-path="url(#clipPath59)"><tspan
         style="font-variant:normal;font-weight:700;font-size:14px;font-family:Helvetica;writing-mode:lr-tb;fill:#000000;fill-opacity:1;fill-rule:nonzero;stroke:none"
         x="0 10.110352 18.662109 27.213867 31.103516 39.655273 48.207031 55.993164 60.655273"
         y="0"
         sodipodi:role="line"
         id="tspan58">Add posts</tspan></text>
    <text
       id="text59"
       xml:space="preserve"
       transform="matrix(0.96092908,0,0,0.96092908,75.583078,33.632518)"
       clip-path="url(#clipPath60)"><tspan
         style="font-variant:normal;font-weight:700;font-size:14px;font-family:Helvetica;writing-mode:lr-tb;fill:#000000;fill-opacity:1;fill-rule:nonzero;stroke:none"
         x="0 4.6621094 12.448242 21 24.889648"
         y="0"
         sodipodi:role="line"
         id="tspan59">table</tspan></text>
    <path
       id="path61"
       d="m 215,41 0.33,13.630001"
       style="fill:none;stroke:#000000;stroke-width:1;stroke-linecap:butt;stroke-linejoin:miter;stroke-miterlimit:10;stroke-dasharray:none;stroke-opacity:1"
       transform="matrix(0.96091945,0,0,0.96091945,0.48045973,0.48045973)"
       clip-path="url(#clipPath62)" />
    <path
       id="path63"
       d="m 215.46001,59.880001 -3.67002,-6.91 3.54001,1.66 3.45999,-1.830002 z"
       style="fill:#000000;fill-opacity:1;fill-rule:nonzero;stroke:#000000;stroke-width:1;stroke-linecap:butt;stroke-linejoin:miter;stroke-miterlimit:10;stroke-dasharray:none;stroke-opacity:1"
       transform="matrix(0.96091945,0,0,0.96091945,0.48045973,0.48045973)"
       clip-path="url(#clipPath64)" />
    <path
       id="path65"
       d="m 170,1 h 90 v 40 h -90 z"
       style="fill:#f8cecc;fill-opacity:1;fill-rule:nonzero;stroke:#b85450;stroke-width:1;stroke-linecap:butt;stroke-linejoin:miter;stroke-miterlimit:10;stroke-dasharray:none;stroke-opacity:1"
       transform="matrix(0.96091945,0,0,0.96091945,0.48045973,0.48045973)"
       clip-path="url(#clipPath66)" />
    <text
       id="text66"
       xml:space="preserve"
       transform="matrix(0.96092908,0,0,0.96092908,169.70909,17.296723)"
       clip-path="url(#clipPath67)"><tspan
         style="font-variant:normal;font-weight:700;font-size:14px;font-family:Helvetica;writing-mode:lr-tb;fill:#000000;fill-opacity:1;fill-rule:nonzero;stroke:none"
         x="0 10.110352 15.558594 23.344727 31.130859 35.792969 43.579102 47.46875 60.436523 68.222656"
         y="0"
         sodipodi:role="line"
         id="tspan66">Create Web</tspan></text>
    <text
       id="text67"
       xml:space="preserve"
       transform="matrix(0.96092908,0,0,0.96092908,193.52211,33.632518)"
       clip-path="url(#clipPath68)"><tspan
         style="font-variant:normal;font-weight:700;font-size:14px;font-family:Helvetica;writing-mode:lr-tb;fill:#000000;fill-opacity:1;fill-rule:nonzero;stroke:none"
         x="0 10.110352 18.662109"
         y="0"
         sodipodi:role="line"
         id="tspan67">App</tspan></text>
  </g>
</svg>
