<?xml version="1.0" encoding="UTF-8" standalone="no"?>
<!-- Created with Inkscape (http://www.inkscape.org/) -->

<svg
   version="1.1"
   id="svg1"
   width="453.44"
   height="313.28"
   viewBox="0 0 453.44 313.28"
   sodipodi:docname="sql-23.pdf"
   xmlns:inkscape="http://www.inkscape.org/namespaces/inkscape"
   xmlns:sodipodi="http://sodipodi.sourceforge.net/DTD/sodipodi-0.dtd"
   xmlns="http://www.w3.org/2000/svg"
   xmlns:svg="http://www.w3.org/2000/svg">
  <defs
     id="defs1">
    <clipPath
       clipPathUnits="userSpaceOnUse"
       id="clipPath2">
      <path
         d="M 0,0 H 1416.6666 V 977.32062 H 0 Z"
         transform="scale(0.33458825)"
         clip-rule="evenodd"
         id="path2" />
    </clipPath>
    <clipPath
       clipPathUnits="userSpaceOnUse"
       id="clipPath4">
      <path
         d="M 0,0 H 1416.6666 V 974.33185 H 0 Z"
         transform="matrix(0.33458825,0,0,0.33458825,-0.49999999,-0.49999999)"
         clip-rule="evenodd"
         id="path4" />
    </clipPath>
    <clipPath
       clipPathUnits="userSpaceOnUse"
       id="clipPath5">
      <path
         d="M 0,0 H 1416.6666 V 974.33185 H 0 Z"
         transform="matrix(0.33458489,0,0,0.33458489,-83.84375,-64)"
         clip-rule="evenodd"
         id="path5" />
    </clipPath>
    <clipPath
       clipPathUnits="userSpaceOnUse"
       id="clipPath6">
      <path
         d="M 0,0 H 1416.6666 V 974.33185 H 0 Z"
         transform="matrix(0.33458489,0,0,0.33458489,-136.79688,-20)"
         clip-rule="evenodd"
         id="path6" />
    </clipPath>
    <clipPath
       clipPathUnits="userSpaceOnUse"
       id="clipPath8">
      <path
         d="M 0,0 H 1416.6666 V 974.33185 H 0 Z"
         transform="matrix(0.33458825,0,0,0.33458825,-0.49999999,-0.49999999)"
         clip-rule="evenodd"
         id="path8" />
    </clipPath>
    <clipPath
       clipPathUnits="userSpaceOnUse"
       id="clipPath9">
      <path
         d="M 0,0 H 1416.6666 V 974.33185 H 0 Z"
         transform="matrix(0.33458489,0,0,0.33458489,-8.3906251,-124)"
         clip-rule="evenodd"
         id="path9" />
    </clipPath>
    <clipPath
       clipPathUnits="userSpaceOnUse"
       id="clipPath11">
      <path
         d="M 0,0 H 1416.6666 V 974.33185 H 0 Z"
         transform="matrix(0.33458825,0,0,0.33458825,-0.49999999,-0.49999999)"
         clip-rule="evenodd"
         id="path11" />
    </clipPath>
    <clipPath
       clipPathUnits="userSpaceOnUse"
       id="clipPath12">
      <path
         d="M 0,0 H 1416.6666 V 974.33185 H 0 Z"
         transform="matrix(0.33458489,0,0,0.33458489,-105.5,-184)"
         clip-rule="evenodd"
         id="path12" />
    </clipPath>
    <clipPath
       clipPathUnits="userSpaceOnUse"
       id="clipPath14">
      <path
         d="M 0,0 H 1416.6666 V 974.33185 H 0 Z"
         transform="matrix(0.33458825,0,0,0.33458825,-0.49999999,-0.49999999)"
         clip-rule="evenodd"
         id="path14" />
    </clipPath>
    <clipPath
       clipPathUnits="userSpaceOnUse"
       id="clipPath15">
      <path
         d="M 0,0 H 1416.6666 V 974.33185 H 0 Z"
         transform="matrix(0.33458489,0,0,0.33458489,-72.984376,-244)"
         clip-rule="evenodd"
         id="path15" />
    </clipPath>
    <clipPath
       clipPathUnits="userSpaceOnUse"
       id="clipPath17">
      <path
         d="M 0,0 H 1416.6666 V 974.33185 H 0 Z"
         transform="matrix(0.33458825,0,0,0.33458825,-0.49999999,-0.49999999)"
         clip-rule="evenodd"
         id="path17" />
    </clipPath>
    <clipPath
       clipPathUnits="userSpaceOnUse"
       id="clipPath18">
      <path
         d="M 0,0 H 1416.6666 V 974.33185 H 0 Z"
         transform="matrix(0.33458489,0,0,0.33458489,-61.734375,-304)"
         clip-rule="evenodd"
         id="path18" />
    </clipPath>
  </defs>
  <sodipodi:namedview
     id="namedview1"
     pagecolor="#ffffff"
     bordercolor="#000000"
     borderopacity="0.25"
     inkscape:showpageshadow="2"
     inkscape:pageopacity="0.0"
     inkscape:pagecheckerboard="0"
     inkscape:deskcolor="#d1d1d1">
    <inkscape:page
       x="0"
       y="0"
       inkscape:label="1"
       id="page1"
       width="453.44"
       height="313.28"
       margin="0"
       bleed="0" />
  </sodipodi:namedview>
  <g
     id="g1"
     inkscape:groupmode="layer"
     inkscape:label="1">
    <path
       id="path1"
       d="M 0,0 H 474 V 327 H 0 Z"
       style="fill:#ffffff;fill-opacity:1;fill-rule:nonzero;stroke:none"
       transform="scale(0.95639935)"
       clip-path="url(#clipPath2)" />
    <path
       id="path3"
       d="M 1,33 H 471 V 83 H 1 Z"
       style="fill:#ffffff;fill-opacity:0.9;fill-rule:nonzero;stroke:#000000;stroke-width:1;stroke-linecap:butt;stroke-linejoin:miter;stroke-miterlimit:10;stroke-dasharray:none;stroke-opacity:0.9"
       transform="matrix(0.95639935,0,0,0.95639935,0.47819967,0.47819967)"
       clip-path="url(#clipPath4)" />
    <text
       id="text4"
       xml:space="preserve"
       transform="matrix(0.95640895,0,0,0.95640895,80.188913,61.210173)"
       clip-path="url(#clipPath5)"><tspan
         style="font-variant:normal;font-weight:normal;font-size:15px;font-family:Helvetica;writing-mode:lr-tb;fill:#000000;fill-opacity:1;fill-rule:nonzero;stroke:none"
         x="0 10.004883 13.337402 16.669922 25.012207 35.844727 43.344727 47.512207 60.007324 68.349609 75.849609 84.191895 88.359375 92.526855 100.86914 108.36914 112.53662 120.87891 125.87402 130.0415 138.38379 146.72607 155.06836 160.06348 163.396 171.73828 179.23828 183.40576 186.73828 195.08057 199.24805 206.74805 215.09033 227.58545 235.92773 240.09521 247.59521 255.09521 263.4375 271.77979 280.12207 285.11719 288.44971 296.79199"
         y="0"
         sodipodi:role="line"
         id="tspan4">Allows much faster queries in some scenarios</tspan></text>
    <text
       id="text5"
       xml:space="preserve"
       transform="matrix(0.95640895,0,0,0.95640895,130.83376,19.128179)"
       clip-path="url(#clipPath6)"><tspan
         style="font-variant:normal;font-weight:700;font-size:21px;font-family:Helvetica;writing-mode:lr-tb;fill:#000000;fill-opacity:1;fill-rule:nonzero;stroke:none"
         x="0 5.8344727 18.662109 31.489746 43.168945 54.848145 66.527344 78.206543 84.041016 89.875488 102.70312 108.5376 122.54443 135.37207 147.05127 154.04443 166.87207 175.04443 186.72363"
         y="0"
         sodipodi:role="line"
         id="tspan5">Indexes in Postgres</tspan></text>
    <path
       id="path7"
       d="m 1,93 h 470 v 50 H 1 Z"
       style="fill:#ffffff;fill-opacity:0.9;fill-rule:nonzero;stroke:#000000;stroke-width:1;stroke-linecap:butt;stroke-linejoin:miter;stroke-miterlimit:10;stroke-dasharray:none;stroke-opacity:0.9"
       transform="matrix(0.95639935,0,0,0.95639935,0.47819967,0.47819967)"
       clip-path="url(#clipPath8)" />
    <text
       id="text8"
       xml:space="preserve"
       transform="matrix(0.95640895,0,0,0.95640895,8.0248689,118.59471)"
       clip-path="url(#clipPath9)"><tspan
         style="font-variant:normal;font-weight:normal;font-size:15px;font-family:Helvetica;writing-mode:lr-tb;fill:#000000;fill-opacity:1;fill-rule:nonzero;stroke:none"
         x="0 10.004883 18.347168 25.847168 34.189453 39.18457 47.526855 50.859375 55.026855 62.526855 65.859375 74.20166 82.543945 90.043945 94.211426 102.55371 106.72119 110.88867 114.22119 122.56348 130.90576 139.24805 146.74805 155.09033 162.59033 166.75781 175.1001 182.6001 190.94238 194.2749 197.60742 205.94971 214.29199 217.62451 225.9668 230.13428 234.30176 244.30664 249.30176 253.46924 258.46436 266.80664 275.14893 279.31641 282.64893 290.14893 294.31641 302.65869 310.15869 314.32617 318.49365 326.83594 331.83105 335.99854 340.16602 348.5083 356.85059 361.01807 373.51318 381.85547 389.35547 393.52295 397.69043 405.19043 413.53271 426.02783 438.52295 446.86523"
         y="0"
         sodipodi:role="line"
         id="tspan8">Several kinds of indexes available, B-tree is by far the most common</tspan></text>
    <path
       id="path10"
       d="m 1,153 h 470 v 50 H 1 Z"
       style="fill:#ffffff;fill-opacity:0.9;fill-rule:nonzero;stroke:#000000;stroke-width:1;stroke-linecap:butt;stroke-linejoin:miter;stroke-miterlimit:10;stroke-dasharray:none;stroke-opacity:0.9"
       transform="matrix(0.95639935,0,0,0.95639935,0.47819967,0.47819967)"
       clip-path="url(#clipPath11)" />
    <g
       id="g11" />
    <text
       id="text11"
       xml:space="preserve"
       transform="matrix(0.95640895,0,0,0.95640895,100.90114,175.97925)"
       clip-path="url(#clipPath12)"><tspan
         style="font-variant:normal;font-weight:normal;font-size:15px;font-family:Helvetica;writing-mode:lr-tb;fill:#000000;fill-opacity:1;fill-rule:nonzero;stroke:none"
         x="0 4.1674805 12.509766 20.852051 29.194336 36.694336 45.036621 52.536621 56.704102 65.046387 73.388672 77.556152 81.723633 90.065918 98.408203 106.75049 110.08301 113.41553 121.75781 130.1001 134.26758 138.43506 146.77734 150.94482 158.44482 166.78711 175.12939 182.62939 185.96191 193.46191 200.96191 205.12939 212.62939 220.97168 224.3042 232.64648 245.1416 253.48389"
         y="0"
         sodipodi:role="line"
         id="tspan11">Indexes get applied to speciﬁc columns</tspan></text>
    <path
       id="path13"
       d="m 1,213 h 470 v 50 H 1 Z"
       style="fill:#ffffff;fill-opacity:0.9;fill-rule:nonzero;stroke:#000000;stroke-width:1;stroke-linecap:butt;stroke-linejoin:miter;stroke-miterlimit:10;stroke-dasharray:none;stroke-opacity:0.9"
       transform="matrix(0.95639935,0,0,0.95639935,0.47819967,0.47819967)"
       clip-path="url(#clipPath14)" />
    <text
       id="text14"
       xml:space="preserve"
       transform="matrix(0.95640895,0,0,0.95640895,69.80291,233.36378)"
       clip-path="url(#clipPath15)"><tspan
         style="font-variant:normal;font-weight:normal;font-size:15px;font-family:Helvetica;writing-mode:lr-tb;fill:#000000;fill-opacity:1;fill-rule:nonzero;stroke:none"
         x="0 10.004883 18.347168 30.842285 39.18457 43.352051 50.852051 59.194336 62.526855 70.869141 83.364258 91.706543 99.206543 103.37402 111.71631 120.05859 124.22607 132.56836 145.06348 153.40576 157.57324 160.90576 168.40576 176.74805 180.08057 183.41309 190.91309 195.08057 203.42285 211.76514 215.93262 220.1001 223.43262 231.7749 240.11719 248.45947 255.95947 264.30176 271.80176 275.96924 283.46924 288.46436 296.80664 305.14893 309.31641 317.65869"
         y="0"
         sodipodi:role="line"
         id="tspan14">Some columns automatically get indexes created</tspan></text>
    <path
       id="path16"
       d="m 1,273 h 470 v 50 H 1 Z"
       style="fill:#ffffff;fill-opacity:0.9;fill-rule:nonzero;stroke:#000000;stroke-width:1;stroke-linecap:butt;stroke-linejoin:miter;stroke-miterlimit:10;stroke-dasharray:none;stroke-opacity:0.9"
       transform="matrix(0.95639935,0,0,0.95639935,0.47819967,0.47819967)"
       clip-path="url(#clipPath17)" />
    <text
       id="text17"
       xml:space="preserve"
       transform="matrix(0.95640895,0,0,0.95640895,59.043309,290.74832)"
       clip-path="url(#clipPath18)"><tspan
         style="font-variant:normal;font-weight:normal;font-size:15px;font-family:Helvetica;writing-mode:lr-tb;fill:#000000;fill-opacity:1;fill-rule:nonzero;stroke:none"
         x="0 4.1674805 12.509766 16.677246 29.172363 37.514648 45.856934 53.356934 57.524414 65.024414 73.366699 80.866699 89.208984 96.708984 100.87646 105.04395 115.87646 124.21875 128.38623 136.72852 145.0708 152.5708 160.91309 165.08057 169.24805 177.59033 181.75781 194.25293 202.59521 210.9375 219.27979 227.62207 230.95459 234.28711 241.78711 245.95459 253.45459 258.44971 266.79199 275.13428 279.30176 287.64404 291.81152 300.15381 308.49609 312.66357 315.99609 324.33838 332.68066 341.02295"
         y="0"
         sodipodi:role="line"
         id="tspan17">In many cases, we have to manually create an index</tspan></text>
  </g>
</svg>
