<?xml version="1.0" encoding="UTF-8" standalone="no"?>
<!-- Created with Inkscape (http://www.inkscape.org/) -->

<svg
   version="1.1"
   id="svg1"
   width="626.56"
   height="360"
   viewBox="0 0 626.56 360"
   sodipodi:docname="sql-14.pdf"
   xmlns:inkscape="http://www.inkscape.org/namespaces/inkscape"
   xmlns:sodipodi="http://sodipodi.sourceforge.net/DTD/sodipodi-0.dtd"
   xmlns="http://www.w3.org/2000/svg"
   xmlns:svg="http://www.w3.org/2000/svg">
  <defs
     id="defs1">
    <clipPath
       clipPathUnits="userSpaceOnUse"
       id="clipPath2">
      <path
         d="M 0,0 H 1958.3333 V 1122.8975 H 0 Z"
         transform="scale(0.33395747)"
         clip-rule="evenodd"
         id="path2" />
    </clipPath>
    <clipPath
       clipPathUnits="userSpaceOnUse"
       id="clipPath4">
      <path
         d="M 0,0 H 1958.3333 V 1119.9031 H 0 Z"
         transform="matrix(0.33395747,0,0,0.33395747,-0.5,-0.5)"
         clip-rule="evenodd"
         id="path4" />
    </clipPath>
    <clipPath
       clipPathUnits="userSpaceOnUse"
       id="clipPath6">
      <path
         d="M 0,0 H 1958.3333 V 1119.9031 H 0 Z"
         transform="matrix(0.33395747,0,0,0.33395747,-0.5,-0.5)"
         clip-rule="evenodd"
         id="path6" />
    </clipPath>
    <clipPath
       clipPathUnits="userSpaceOnUse"
       id="clipPath8">
      <path
         d="M 0,0 H 1958.3333 V 1119.9031 H 0 Z"
         transform="matrix(0.33395747,0,0,0.33395747,-0.5,-0.5)"
         clip-rule="evenodd"
         id="path8" />
    </clipPath>
    <clipPath
       clipPathUnits="userSpaceOnUse"
       id="clipPath10">
      <path
         d="M 0,0 H 1958.3333 V 1119.9031 H 0 Z"
         transform="matrix(0.33395747,0,0,0.33395747,-0.5,-0.5)"
         clip-rule="evenodd"
         id="path10" />
    </clipPath>
    <clipPath
       clipPathUnits="userSpaceOnUse"
       id="clipPath12">
      <path
         d="M 0,0 H 1958.3333 V 1119.9031 H 0 Z"
         transform="matrix(0.33395747,0,0,0.33395747,-0.5,-0.5)"
         clip-rule="evenodd"
         id="path12" />
    </clipPath>
    <clipPath
       clipPathUnits="userSpaceOnUse"
       id="clipPath13">
      <path
         d="M 0,0 H 1958.3333 V 1119.9031 H 0 Z"
         transform="matrix(0.33395411,0,0,0.33395411,-54.203125,-100)"
         clip-rule="evenodd"
         id="path13" />
    </clipPath>
    <clipPath
       clipPathUnits="userSpaceOnUse"
       id="clipPath14">
      <path
         d="M 0,0 H 1958.3333 V 1119.9031 H 0 Z"
         transform="matrix(0.33395411,0,0,0.33395411,-108.23437,-100)"
         clip-rule="evenodd"
         id="path14" />
    </clipPath>
    <clipPath
       clipPathUnits="userSpaceOnUse"
       id="clipPath15">
      <path
         d="M 0,0 H 1958.3333 V 1119.9031 H 0 Z"
         transform="matrix(0.33395411,0,0,0.33395411,-23.421874,-121.99999)"
         clip-rule="evenodd"
         id="path15" />
    </clipPath>
    <clipPath
       clipPathUnits="userSpaceOnUse"
       id="clipPath17">
      <path
         d="M 0,0 H 1958.3333 V 1119.9031 H 0 Z"
         transform="matrix(0.33395747,0,0,0.33395747,-0.5,-0.5)"
         clip-rule="evenodd"
         id="path17" />
    </clipPath>
    <clipPath
       clipPathUnits="userSpaceOnUse"
       id="clipPath18">
      <path
         d="M 0,0 H 1958.3333 V 1119.9031 H 0 Z"
         transform="matrix(0.33395411,0,0,0.33395411,-76.859374,-71)"
         clip-rule="evenodd"
         id="path18" />
    </clipPath>
    <clipPath
       clipPathUnits="userSpaceOnUse"
       id="clipPath20">
      <path
         d="M 0,0 H 1958.3333 V 1119.9031 H 0 Z"
         transform="matrix(0.33395747,0,0,0.33395747,-0.5,-0.5)"
         clip-rule="evenodd"
         id="path20" />
    </clipPath>
    <clipPath
       clipPathUnits="userSpaceOnUse"
       id="clipPath21">
      <path
         d="M 0,0 H 1958.3333 V 1119.9031 H 0 Z"
         transform="matrix(0.33395411,0,0,0.33395411,-26.6875,-149)"
         clip-rule="evenodd"
         id="path21" />
    </clipPath>
    <clipPath
       clipPathUnits="userSpaceOnUse"
       id="clipPath22">
      <path
         d="M 0,0 H 1958.3333 V 1119.9031 H 0 Z"
         transform="matrix(0.33395411,0,0,0.33395411,-50.6875,-149)"
         clip-rule="evenodd"
         id="path22" />
    </clipPath>
    <clipPath
       clipPathUnits="userSpaceOnUse"
       id="clipPath23">
      <path
         d="M 0,0 H 1958.3333 V 1119.9031 H 0 Z"
         transform="matrix(0.33395411,0,0,0.33395411,-55.953125,-171)"
         clip-rule="evenodd"
         id="path23" />
    </clipPath>
    <clipPath
       clipPathUnits="userSpaceOnUse"
       id="clipPath25">
      <path
         d="M 0,0 H 1958.3333 V 1119.9031 H 0 Z"
         transform="matrix(0.33395747,0,0,0.33395747,-0.5,-0.5)"
         clip-rule="evenodd"
         id="path25" />
    </clipPath>
    <clipPath
       clipPathUnits="userSpaceOnUse"
       id="clipPath27">
      <path
         d="M 0,0 H 1958.3333 V 1119.9031 H 0 Z"
         transform="matrix(0.33395747,0,0,0.33395747,-0.5,-0.5)"
         clip-rule="evenodd"
         id="path27" />
    </clipPath>
    <clipPath
       clipPathUnits="userSpaceOnUse"
       id="clipPath28">
      <path
         d="M 0,0 H 1958.3333 V 1119.9031 H 0 Z"
         transform="matrix(0.33395411,0,0,0.33395411,-26.171875,-250)"
         clip-rule="evenodd"
         id="path28" />
    </clipPath>
    <clipPath
       clipPathUnits="userSpaceOnUse"
       id="clipPath29">
      <path
         d="M 0,0 H 1958.3333 V 1119.9031 H 0 Z"
         transform="matrix(0.33395411,0,0,0.33395411,-51.203125,-250)"
         clip-rule="evenodd"
         id="path29" />
    </clipPath>
    <clipPath
       clipPathUnits="userSpaceOnUse"
       id="clipPath30">
      <path
         d="M 0,0 H 1958.3333 V 1119.9031 H 0 Z"
         transform="matrix(0.33395411,0,0,0.33395411,-55.953125,-272)"
         clip-rule="evenodd"
         id="path30" />
    </clipPath>
    <clipPath
       clipPathUnits="userSpaceOnUse"
       id="clipPath32">
      <path
         d="M 0,0 H 1958.3333 V 1119.9031 H 0 Z"
         transform="matrix(0.33395747,0,0,0.33395747,-0.5,-0.5)"
         clip-rule="evenodd"
         id="path32" />
    </clipPath>
    <clipPath
       clipPathUnits="userSpaceOnUse"
       id="clipPath33">
      <path
         d="M 0,0 H 1958.3333 V 1119.9031 H 0 Z"
         transform="matrix(0.33395411,0,0,0.33395411,-76.859374,-221)"
         clip-rule="evenodd"
         id="path33" />
    </clipPath>
    <clipPath
       clipPathUnits="userSpaceOnUse"
       id="clipPath35">
      <path
         d="M 0,0 H 1958.3333 V 1119.9031 H 0 Z"
         transform="matrix(0.33395747,0,0,0.33395747,-0.5,-0.5)"
         clip-rule="evenodd"
         id="path35" />
    </clipPath>
    <clipPath
       clipPathUnits="userSpaceOnUse"
       id="clipPath36">
      <path
         d="M 0,0 H 1958.3333 V 1119.9031 H 0 Z"
         transform="matrix(0.33395411,0,0,0.33395411,-13.6875,-299.99999)"
         clip-rule="evenodd"
         id="path36" />
    </clipPath>
    <clipPath
       clipPathUnits="userSpaceOnUse"
       id="clipPath37">
      <path
         d="M 0,0 H 1958.3333 V 1119.9031 H 0 Z"
         transform="matrix(0.33395411,0,0,0.33395411,-63.703124,-299.99999)"
         clip-rule="evenodd"
         id="path37" />
    </clipPath>
    <clipPath
       clipPathUnits="userSpaceOnUse"
       id="clipPath38">
      <path
         d="M 0,0 H 1958.3333 V 1119.9031 H 0 Z"
         transform="matrix(0.33395411,0,0,0.33395411,-55.953125,-321.99999)"
         clip-rule="evenodd"
         id="path38" />
    </clipPath>
    <clipPath
       clipPathUnits="userSpaceOnUse"
       id="clipPath40">
      <path
         d="M 0,0 H 1958.3333 V 1119.9031 H 0 Z"
         transform="matrix(0.33395747,0,0,0.33395747,-0.5,-0.5)"
         clip-rule="evenodd"
         id="path40" />
    </clipPath>
    <clipPath
       clipPathUnits="userSpaceOnUse"
       id="clipPath41">
      <path
         d="M 0,0 H 1958.3333 V 1119.9031 H 0 Z"
         transform="matrix(0.33395411,0,0,0.33395411,-67.09375,-26)"
         clip-rule="evenodd"
         id="path41" />
    </clipPath>
    <clipPath
       clipPathUnits="userSpaceOnUse"
       id="clipPath43">
      <path
         d="M 0,0 H 1958.3333 V 1119.9031 H 0 Z"
         transform="matrix(0.33395747,0,0,0.33395747,-0.5,-0.5)"
         clip-rule="evenodd"
         id="path43" />
    </clipPath>
    <clipPath
       clipPathUnits="userSpaceOnUse"
       id="clipPath44">
      <path
         d="M 0,0 H 1958.3333 V 1119.9031 H 0 Z"
         transform="matrix(0.33395411,0,0,0.33395411,-305.51563,-151)"
         clip-rule="evenodd"
         id="path44" />
    </clipPath>
    <clipPath
       clipPathUnits="userSpaceOnUse"
       id="clipPath45">
      <path
         d="M 0,0 H 1958.3333 V 1119.9031 H 0 Z"
         transform="matrix(0.33395411,0,0,0.33395411,-369.92188,-151)"
         clip-rule="evenodd"
         id="path45" />
    </clipPath>
    <clipPath
       clipPathUnits="userSpaceOnUse"
       id="clipPath46">
      <path
         d="M 0,0 H 1958.3333 V 1119.9031 H 0 Z"
         transform="matrix(0.33395411,0,0,0.33395411,-404.78125,-151)"
         clip-rule="evenodd"
         id="path46" />
    </clipPath>
    <clipPath
       clipPathUnits="userSpaceOnUse"
       id="clipPath47">
      <path
         d="M 0,0 H 1958.3333 V 1119.9031 H 0 Z"
         transform="matrix(0.33395411,0,0,0.33395411,-288.09375,-173)"
         clip-rule="evenodd"
         id="path47" />
    </clipPath>
    <clipPath
       clipPathUnits="userSpaceOnUse"
       id="clipPath48">
      <path
         d="M 0,0 H 1958.3333 V 1119.9031 H 0 Z"
         transform="matrix(0.33395411,0,0,0.33395411,-294.42188,-196)"
         clip-rule="evenodd"
         id="path48" />
    </clipPath>
    <clipPath
       clipPathUnits="userSpaceOnUse"
       id="clipPath49">
      <path
         d="M 0,0 H 1958.3333 V 1119.9031 H 0 Z"
         transform="matrix(0.33395411,0,0,0.33395411,-289.125,-219)"
         clip-rule="evenodd"
         id="path49" />
    </clipPath>
    <clipPath
       clipPathUnits="userSpaceOnUse"
       id="clipPath50">
      <path
         d="M 0,0 H 1958.3333 V 1119.9031 H 0 Z"
         transform="matrix(0.33395411,0,0,0.33395411,-336.67188,-242)"
         clip-rule="evenodd"
         id="path50" />
    </clipPath>
    <clipPath
       clipPathUnits="userSpaceOnUse"
       id="clipPath52">
      <path
         d="M 0,0 H 1958.3333 V 1119.9031 H 0 Z"
         transform="matrix(0.33395747,0,0,0.33395747,-0.5,-0.5)"
         clip-rule="evenodd"
         id="path52" />
    </clipPath>
    <clipPath
       clipPathUnits="userSpaceOnUse"
       id="clipPath54">
      <path
         d="M 0,0 H 1958.3333 V 1119.9031 H 0 Z"
         transform="matrix(0.33395747,0,0,0.33395747,-0.5,-0.5)"
         clip-rule="evenodd"
         id="path54" />
    </clipPath>
    <clipPath
       clipPathUnits="userSpaceOnUse"
       id="clipPath56">
      <path
         d="M 0,0 H 1958.3333 V 1119.9031 H 0 Z"
         transform="matrix(0.33395747,0,0,0.33395747,-0.5,-0.5)"
         clip-rule="evenodd"
         id="path56" />
    </clipPath>
    <clipPath
       clipPathUnits="userSpaceOnUse"
       id="clipPath57">
      <path
         d="M 0,0 H 1958.3333 V 1119.9031 H 0 Z"
         transform="matrix(0.33395411,0,0,0.33395411,-577.48437,-323)"
         clip-rule="evenodd"
         id="path57" />
    </clipPath>
    <clipPath
       clipPathUnits="userSpaceOnUse"
       id="clipPath59">
      <path
         d="M 0,0 H 1958.3333 V 1119.9031 H 0 Z"
         transform="matrix(0.33395747,0,0,0.33395747,-0.5,-0.5)"
         clip-rule="evenodd"
         id="path59" />
    </clipPath>
    <clipPath
       clipPathUnits="userSpaceOnUse"
       id="clipPath60">
      <path
         d="M 0,0 H 1958.3333 V 1119.9031 H 0 Z"
         transform="matrix(0.33395411,0,0,0.33395411,-581.3125,-353)"
         clip-rule="evenodd"
         id="path60" />
    </clipPath>
    <clipPath
       clipPathUnits="userSpaceOnUse"
       id="clipPath61">
      <path
         d="M 0,0 H 1958.3333 V 1119.9031 H 0 Z"
         transform="matrix(0.33395411,0,0,0.33395411,-581.3125,-367.99999)"
         clip-rule="evenodd"
         id="path61" />
    </clipPath>
    <clipPath
       clipPathUnits="userSpaceOnUse"
       id="clipPath63">
      <path
         d="M 0,0 H 1958.3333 V 1119.9031 H 0 Z"
         transform="matrix(0.33395747,0,0,0.33395747,-0.5,-0.5)"
         clip-rule="evenodd"
         id="path63" />
    </clipPath>
    <clipPath
       clipPathUnits="userSpaceOnUse"
       id="clipPath64">
      <path
         d="M 0,0 H 1958.3333 V 1119.9031 H 0 Z"
         transform="matrix(0.33395411,0,0,0.33395411,-565.48438,-43)"
         clip-rule="evenodd"
         id="path64" />
    </clipPath>
    <clipPath
       clipPathUnits="userSpaceOnUse"
       id="clipPath66">
      <path
         d="M 0,0 H 1958.3333 V 1119.9031 H 0 Z"
         transform="matrix(0.33395747,0,0,0.33395747,-0.5,-0.5)"
         clip-rule="evenodd"
         id="path66" />
    </clipPath>
    <clipPath
       clipPathUnits="userSpaceOnUse"
       id="clipPath67">
      <path
         d="M 0,0 H 1958.3333 V 1119.9031 H 0 Z"
         transform="matrix(0.33395411,0,0,0.33395411,-571.3125,-73)"
         clip-rule="evenodd"
         id="path67" />
    </clipPath>
    <clipPath
       clipPathUnits="userSpaceOnUse"
       id="clipPath68">
      <path
         d="M 0,0 H 1958.3333 V 1119.9031 H 0 Z"
         transform="matrix(0.33395411,0,0,0.33395411,-571.3125,-87.999999)"
         clip-rule="evenodd"
         id="path68" />
    </clipPath>
    <clipPath
       clipPathUnits="userSpaceOnUse"
       id="clipPath70">
      <path
         d="M 0,0 H 1958.3333 V 1119.9031 H 0 Z"
         transform="matrix(0.33395747,0,0,0.33395747,-0.5,-0.5)"
         clip-rule="evenodd"
         id="path70" />
    </clipPath>
    <clipPath
       clipPathUnits="userSpaceOnUse"
       id="clipPath71">
      <path
         d="M 0,0 H 1958.3333 V 1119.9031 H 0 Z"
         transform="matrix(0.33395411,0,0,0.33395411,-579.48437,-221)"
         clip-rule="evenodd"
         id="path71" />
    </clipPath>
    <clipPath
       clipPathUnits="userSpaceOnUse"
       id="clipPath73">
      <path
         d="M 0,0 H 1958.3333 V 1119.9031 H 0 Z"
         transform="matrix(0.33395747,0,0,0.33395747,-0.5,-0.5)"
         clip-rule="evenodd"
         id="path73" />
    </clipPath>
    <clipPath
       clipPathUnits="userSpaceOnUse"
       id="clipPath74">
      <path
         d="M 0,0 H 1958.3333 V 1119.9031 H 0 Z"
         transform="matrix(0.33395411,0,0,0.33395411,-571.3125,-250)"
         clip-rule="evenodd"
         id="path74" />
    </clipPath>
    <clipPath
       clipPathUnits="userSpaceOnUse"
       id="clipPath75">
      <path
         d="M 0,0 H 1958.3333 V 1119.9031 H 0 Z"
         transform="matrix(0.33395411,0,0,0.33395411,-571.3125,-265)"
         clip-rule="evenodd"
         id="path75" />
    </clipPath>
    <clipPath
       clipPathUnits="userSpaceOnUse"
       id="clipPath77">
      <path
         d="M 0,0 H 1958.3333 V 1119.9031 H 0 Z"
         transform="matrix(0.33395747,0,0,0.33395747,-0.5,-0.5)"
         clip-rule="evenodd"
         id="path77" />
    </clipPath>
    <clipPath
       clipPathUnits="userSpaceOnUse"
       id="clipPath78">
      <path
         d="M 0,0 H 1958.3333 V 1119.9031 H 0 Z"
         transform="matrix(0.33395411,0,0,0.33395411,-590.48437,-131)"
         clip-rule="evenodd"
         id="path78" />
    </clipPath>
    <clipPath
       clipPathUnits="userSpaceOnUse"
       id="clipPath80">
      <path
         d="M 0,0 H 1958.3333 V 1119.9031 H 0 Z"
         transform="matrix(0.33395747,0,0,0.33395747,-0.5,-0.5)"
         clip-rule="evenodd"
         id="path80" />
    </clipPath>
    <clipPath
       clipPathUnits="userSpaceOnUse"
       id="clipPath81">
      <path
         d="M 0,0 H 1958.3333 V 1119.9031 H 0 Z"
         transform="matrix(0.33395411,0,0,0.33395411,-581.3125,-160)"
         clip-rule="evenodd"
         id="path81" />
    </clipPath>
    <clipPath
       clipPathUnits="userSpaceOnUse"
       id="clipPath82">
      <path
         d="M 0,0 H 1958.3333 V 1119.9031 H 0 Z"
         transform="matrix(0.33395411,0,0,0.33395411,-581.3125,-175)"
         clip-rule="evenodd"
         id="path82" />
    </clipPath>
  </defs>
  <sodipodi:namedview
     id="namedview1"
     pagecolor="#ffffff"
     bordercolor="#000000"
     borderopacity="0.25"
     inkscape:showpageshadow="2"
     inkscape:pageopacity="0.0"
     inkscape:pagecheckerboard="0"
     inkscape:deskcolor="#d1d1d1">
    <inkscape:page
       x="0"
       y="0"
       inkscape:label="1"
       id="page1"
       width="626.56"
       height="360"
       margin="0"
       bleed="0" />
  </sodipodi:namedview>
  <g
     id="g1"
     inkscape:groupmode="layer"
     inkscape:label="1">
    <path
       id="path1"
       d="M 0,0 H 654 V 375 H 0 Z"
       style="fill:#ffffff;fill-opacity:1;fill-rule:nonzero;stroke:none"
       transform="scale(0.95820582)"
       clip-path="url(#clipPath2)" />
    <path
       id="path3"
       d="m 231,188.5 h 39.89999"
       style="fill:none;stroke:#000000;stroke-width:1;stroke-linecap:butt;stroke-linejoin:miter;stroke-miterlimit:10;stroke-dasharray:none;stroke-opacity:1"
       transform="matrix(0.95820582,0,0,0.95820582,0.47910291,0.47910291)"
       clip-path="url(#clipPath4)" />
    <path
       id="path5"
       d="m 277.64999,188.5 -9,4.5 2.25,-4.5 -2.25,-4.5 z"
       style="fill:#000000;fill-opacity:1;fill-rule:nonzero;stroke:#000000;stroke-width:1;stroke-linecap:butt;stroke-linejoin:miter;stroke-miterlimit:10;stroke-dasharray:none;stroke-opacity:1"
       transform="matrix(0.95820582,0,0,0.95820582,0.47910291,0.47910291)"
       clip-path="url(#clipPath6)" />
    <path
       id="path7"
       d="M 1,36 H 231 V 341 H 1 Z"
       style="fill:#ffffff;fill-opacity:1;fill-rule:nonzero;stroke:#000000;stroke-width:1;stroke-linecap:butt;stroke-linejoin:miter;stroke-miterlimit:10;stroke-dasharray:none;stroke-opacity:1"
       transform="matrix(0.95820582,0,0,0.95820582,0.47910291,0.47910291)"
       clip-path="url(#clipPath8)" />
    <path
       id="path9"
       d="m 11,78.5 h 210 v 100 H 11 Z"
       style="fill:#f5f5f5;fill-opacity:1;fill-rule:nonzero;stroke:#666666;stroke-width:1;stroke-linecap:butt;stroke-linejoin:miter;stroke-miterlimit:10;stroke-dasharray:none;stroke-opacity:1"
       transform="matrix(0.95820582,0,0,0.95820582,0.47910291,0.47910291)"
       clip-path="url(#clipPath10)" />
    <path
       id="path11"
       d="m 11,78.5 h 210 v 50 H 11 Z"
       style="fill:#fff2cc;fill-opacity:1;fill-rule:nonzero;stroke:#d6b656;stroke-width:1;stroke-linecap:butt;stroke-linejoin:miter;stroke-miterlimit:10;stroke-dasharray:none;stroke-opacity:1"
       transform="matrix(0.95820582,0,0,0.95820582,0.47910291,0.47910291)"
       clip-path="url(#clipPath12)" />
    <text
       id="text12"
       xml:space="preserve"
       transform="matrix(0.95821545,0,0,0.95821545,51.938272,95.821545)"
       clip-path="url(#clipPath13)"><tspan
         style="font-variant:normal;font-weight:700;font-size:18px;font-family:Helvetica;writing-mode:lr-tb;fill:#000000;fill-opacity:1;fill-rule:nonzero;stroke:none"
         x="0 12.999023 23.009766 34.004883 44.015625"
         y="0"
         sodipodi:role="line"
         id="tspan12">Nancy</tspan></text>
    <text
       id="text13"
       xml:space="preserve"
       transform="matrix(0.95821545,0,0,0.95821545,103.71185,95.821545)"
       clip-path="url(#clipPath14)"><tspan
         style="font-variant:normal;font-weight:normal;font-size:18px;font-family:Helvetica;writing-mode:lr-tb;fill:#000000;fill-opacity:1;fill-rule:nonzero;stroke:none"
         x="0 5.0009766 10.001953 14.000977 24.011719 29.012695 39.524414 44.525391 54.536133 64.546875"
         y="0"
         sodipodi:role="line"
         id="tspan13">, id = 40,</tspan></text>
    <text
       id="text14"
       xml:space="preserve"
       transform="matrix(0.95821545,0,0,0.95821545,22.443202,116.90228)"
       clip-path="url(#clipPath15)"><tspan
         style="font-variant:normal;font-weight:normal;font-size:18px;font-family:Helvetica;writing-mode:lr-tb;fill:#000000;fill-opacity:1;fill-rule:nonzero;stroke:none"
         x="0 9 14.994141 25.004883 35.015625 40.016602 50.027344 60.038086 70.048828 80.05957 85.060547 90.061523 95.0625 105.07324 115.08398 125.09473 135.10547 140.10645 150.11719 160.12793 170.13867 180.14941"
         y="0"
         sodipodi:role="line"
         id="tspan14">created_at, updated_at</tspan></text>
    <path
       id="path16"
       d="m 11,48.5 h 210 v 30 H 11 Z"
       style="fill:#f5f5f5;fill-opacity:1;fill-rule:nonzero;stroke:#666666;stroke-width:1;stroke-linecap:butt;stroke-linejoin:miter;stroke-miterlimit:10;stroke-dasharray:none;stroke-opacity:1"
       transform="matrix(0.95820582,0,0,0.95820582,0.47910291,0.47910291)"
       clip-path="url(#clipPath17)" />
    <text
       id="text17"
       xml:space="preserve"
       transform="matrix(0.95821545,0,0,0.95821545,73.64784,68.033297)"
       clip-path="url(#clipPath18)"><tspan
         style="font-variant:normal;font-weight:700;font-size:22px;font-family:Helvetica;writing-mode:lr-tb;fill:#333333;fill-opacity:1;fill-rule:nonzero;stroke:none"
         x="0 15.887695 22 35.438477 47.673828 59.90918 66.021484"
         y="0"
         sodipodi:role="line"
         id="tspan17">Block 0</tspan></text>
    <path
       id="path19"
       d="m 11,128.5 h 210 v 50 H 11 Z"
       style="fill:#fff2cc;fill-opacity:1;fill-rule:nonzero;stroke:#d6b656;stroke-width:1;stroke-linecap:butt;stroke-linejoin:miter;stroke-miterlimit:10;stroke-dasharray:none;stroke-opacity:1"
       transform="matrix(0.95820582,0,0,0.95820582,0.47910291,0.47910291)"
       clip-path="url(#clipPath20)" />
    <text
       id="text20"
       xml:space="preserve"
       transform="matrix(0.95821545,0,0,0.95821545,25.572375,142.7741)"
       clip-path="url(#clipPath21)"><tspan
         style="font-variant:normal;font-weight:700;font-size:18px;font-family:Helvetica;writing-mode:lr-tb;fill:#000000;fill-opacity:1;fill-rule:nonzero;stroke:none"
         x="0 12.999023 18"
         y="0"
         sodipodi:role="line"
         id="tspan20">Alf</tspan></text>
    <text
       id="text21"
       xml:space="preserve"
       transform="matrix(0.95821545,0,0,0.95821545,48.569546,142.7741)"
       clip-path="url(#clipPath22)"><tspan
         style="font-variant:normal;font-weight:normal;font-size:18px;font-family:Helvetica;writing-mode:lr-tb;fill:#000000;fill-opacity:1;fill-rule:nonzero;stroke:none"
         x="0 5.0009766 10.001953 14.000977 24.011719 29.012695 39.524414 44.525391 54.536133 59.537109 64.538086 73.538086 79.532227 89.542969 99.553711 104.55469 114.56543 124.57617 134.58691 144.59766 149.59863"
         y="0"
         sodipodi:role="line"
         id="tspan21">, id = 2, created_at,</tspan></text>
    <text
       id="text22"
       xml:space="preserve"
       transform="matrix(0.95821545,0,0,0.95821545,53.615149,163.85484)"
       clip-path="url(#clipPath23)"><tspan
         style="font-variant:normal;font-weight:normal;font-size:18px;font-family:Helvetica;writing-mode:lr-tb;fill:#000000;fill-opacity:1;fill-rule:nonzero;stroke:none"
         x="0 10.010742 20.021484 30.032227 40.042969 45.043945 55.054688 65.06543 75.076172 85.086914 90.087891 95.088867 100.08984 110.10059 116.09473"
         y="0"
         sodipodi:role="line"
         id="tspan22">updated_at, url</tspan></text>
    <path
       id="path24"
       d="m 11,228.5 h 210 v 100 H 11 Z"
       style="fill:#f5f5f5;fill-opacity:1;fill-rule:nonzero;stroke:#666666;stroke-width:1;stroke-linecap:butt;stroke-linejoin:miter;stroke-miterlimit:10;stroke-dasharray:none;stroke-opacity:1"
       transform="matrix(0.95820582,0,0,0.95820582,0.47910291,0.47910291)"
       clip-path="url(#clipPath25)" />
    <path
       id="path26"
       d="m 11,228.5 h 210 v 50 H 11 Z"
       style="fill:#fff2cc;fill-opacity:1;fill-rule:nonzero;stroke:#d6b656;stroke-width:1;stroke-linecap:butt;stroke-linejoin:miter;stroke-miterlimit:10;stroke-dasharray:none;stroke-opacity:1"
       transform="matrix(0.95820582,0,0,0.95820582,0.47910291,0.47910291)"
       clip-path="url(#clipPath27)" />
    <text
       id="text27"
       xml:space="preserve"
       transform="matrix(0.95821545,0,0,0.95821545,25.078295,239.55386)"
       clip-path="url(#clipPath28)"><tspan
         style="font-variant:normal;font-weight:700;font-size:18px;font-family:Helvetica;writing-mode:lr-tb;fill:#000000;fill-opacity:1;fill-rule:nonzero;stroke:none"
         x="0 10.010742 15.011719"
         y="0"
         sodipodi:role="line"
         id="tspan27">Jia</tspan></text>
    <text
       id="text28"
       xml:space="preserve"
       transform="matrix(0.95821545,0,0,0.95821545,49.063625,239.55386)"
       clip-path="url(#clipPath29)"><tspan
         style="font-variant:normal;font-weight:normal;font-size:18px;font-family:Helvetica;writing-mode:lr-tb;fill:#000000;fill-opacity:1;fill-rule:nonzero;stroke:none"
         x="0 5.0009766 10.001953 14.000977 24.011719 29.012695 39.524414 44.525391 54.536133 59.537109 64.538086 73.538086 79.532227 89.542969 99.553711 104.55469 114.56543 124.57617 134.58691 144.59766 149.59863"
         y="0"
         sodipodi:role="line"
         id="tspan28">, id = 5, created_at,</tspan></text>
    <text
       id="text29"
       xml:space="preserve"
       transform="matrix(0.95821545,0,0,0.95821545,53.615149,260.6346)"
       clip-path="url(#clipPath30)"><tspan
         style="font-variant:normal;font-weight:normal;font-size:18px;font-family:Helvetica;writing-mode:lr-tb;fill:#000000;fill-opacity:1;fill-rule:nonzero;stroke:none"
         x="0 10.010742 20.021484 30.032227 40.042969 45.043945 55.054688 65.06543 75.076172 85.086914 90.087891 95.088867 100.08984 110.10059 116.09473"
         y="0"
         sodipodi:role="line"
         id="tspan29">updated_at, url</tspan></text>
    <path
       id="path31"
       d="m 11,198.5 h 210 v 30 H 11 Z"
       style="fill:#f5f5f5;fill-opacity:1;fill-rule:nonzero;stroke:#666666;stroke-width:1;stroke-linecap:butt;stroke-linejoin:miter;stroke-miterlimit:10;stroke-dasharray:none;stroke-opacity:1"
       transform="matrix(0.95820582,0,0,0.95820582,0.47910291,0.47910291)"
       clip-path="url(#clipPath32)" />
    <text
       id="text32"
       xml:space="preserve"
       transform="matrix(0.95821545,0,0,0.95821545,73.64784,211.76561)"
       clip-path="url(#clipPath33)"><tspan
         style="font-variant:normal;font-weight:700;font-size:22px;font-family:Helvetica;writing-mode:lr-tb;fill:#333333;fill-opacity:1;fill-rule:nonzero;stroke:none"
         x="0 15.887695 22 35.438477 47.673828 59.90918 66.021484"
         y="0"
         sodipodi:role="line"
         id="tspan32">Block 1</tspan></text>
    <path
       id="path34"
       d="m 11,278.5 h 210 v 50 H 11 Z"
       style="fill:#fff2cc;fill-opacity:1;fill-rule:nonzero;stroke:#d6b656;stroke-width:1;stroke-linecap:butt;stroke-linejoin:miter;stroke-miterlimit:10;stroke-dasharray:none;stroke-opacity:1"
       transform="matrix(0.95820582,0,0,0.95820582,0.47910291,0.47910291)"
       clip-path="url(#clipPath35)" />
    <text
       id="text35"
       xml:space="preserve"
       transform="matrix(0.95821545,0,0,0.95821545,13.115574,287.46463)"
       clip-path="url(#clipPath36)"><tspan
         style="font-variant:normal;font-weight:700;font-size:18px;font-family:Helvetica;writing-mode:lr-tb;fill:#000000;fill-opacity:1;fill-rule:nonzero;stroke:none"
         x="0 12.999023 18 28.010742 39.005859"
         y="0"
         sodipodi:role="line"
         id="tspan35">Riann</tspan></text>
    <text
       id="text36"
       xml:space="preserve"
       transform="matrix(0.95821545,0,0,0.95821545,61.041318,287.46463)"
       clip-path="url(#clipPath37)"><tspan
         style="font-variant:normal;font-weight:normal;font-size:18px;font-family:Helvetica;writing-mode:lr-tb;fill:#000000;fill-opacity:1;fill-rule:nonzero;stroke:none"
         x="0 5.0009766 10.001953 14.000977 24.011719 29.012695 39.524414 44.525391 54.536133 59.537109 64.538086 73.538086 79.532227 89.542969 99.553711 104.55469 114.56543 124.57617 134.58691 144.59766 149.59863"
         y="0"
         sodipodi:role="line"
         id="tspan36">, id = 3, created_at,</tspan></text>
    <text
       id="text37"
       xml:space="preserve"
       transform="matrix(0.95821545,0,0,0.95821545,53.615149,308.54537)"
       clip-path="url(#clipPath38)"><tspan
         style="font-variant:normal;font-weight:normal;font-size:18px;font-family:Helvetica;writing-mode:lr-tb;fill:#000000;fill-opacity:1;fill-rule:nonzero;stroke:none"
         x="0 10.010742 20.021484 30.032227 40.042969 45.043945 55.054688 65.06543 75.076172 85.086914 90.087891 95.088867 100.08984 110.10059 116.09473"
         y="0"
         sodipodi:role="line"
         id="tspan37">updated_at, url</tspan></text>
    <path
       id="path39"
       d="M 1,1 H 231 V 36 H 1 Z"
       style="fill:#ffffff;fill-opacity:1;fill-rule:nonzero;stroke:#000000;stroke-width:1;stroke-linecap:butt;stroke-linejoin:miter;stroke-miterlimit:10;stroke-dasharray:none;stroke-opacity:1"
       transform="matrix(0.95820582,0,0,0.95820582,0.47910291,0.47910291)"
       clip-path="url(#clipPath40)" />
    <text
       id="text40"
       xml:space="preserve"
       transform="matrix(0.95821545,0,0,0.95821545,64.290268,24.913602)"
       clip-path="url(#clipPath41)"><tspan
         style="font-style:oblique;font-variant:normal;font-weight:700;font-size:22px;font-family:Helvetica;writing-mode:lr-tb;fill:#000000;fill-opacity:1;fill-rule:nonzero;stroke:none"
         x="0 15.887695 28.123047 40.358398 53.796875 59.90918 73.347656 79.459961 85.572266"
         y="0"
         sodipodi:role="line"
         id="tspan40">Heap File</tspan></text>
    <path
       id="path42"
       d="M 281,126 H 461 V 251 H 281 Z"
       style="fill:#dae8fc;fill-opacity:1;fill-rule:nonzero;stroke:#6c8ebf;stroke-width:1;stroke-linecap:butt;stroke-linejoin:miter;stroke-miterlimit:10;stroke-dasharray:none;stroke-opacity:1"
       transform="matrix(0.95820582,0,0,0.95820582,0.47910291,0.47910291)"
       clip-path="url(#clipPath43)" />
    <text
       id="text43"
       xml:space="preserve"
       transform="matrix(0.95821545,0,0,0.95821545,292.7498,144.69053)"
       clip-path="url(#clipPath44)"><tspan
         style="font-variant:normal;font-weight:normal;font-size:19px;font-family:Helvetica;writing-mode:lr-tb;fill:#000000;fill-opacity:1;fill-rule:nonzero;stroke:none"
         x="0 12.672852 22.172852 27.45166 33.778809 44.345703 53.845703 59.124512"
         y="0"
         sodipodi:role="line"
         id="tspan43">Extract </tspan></text>
    <text
       id="text44"
       xml:space="preserve"
       transform="matrix(0.95821545,0,0,0.95821545,354.46486,144.69053)"
       clip-path="url(#clipPath45)"><tspan
         style="font-style:oblique;font-variant:normal;font-weight:normal;font-size:19px;font-family:Helvetica;writing-mode:lr-tb;fill:#000000;fill-opacity:1;fill-rule:nonzero;stroke:none"
         x="0 10.566895 21.133789 25.35498"
         y="0"
         sodipodi:role="line"
         id="tspan44">only</tspan></text>
    <text
       id="text45"
       xml:space="preserve"
       transform="matrix(0.95821545,0,0,0.95821545,387.86765,144.69053)"
       clip-path="url(#clipPath46)"><tspan
         style="font-variant:normal;font-weight:normal;font-size:19px;font-family:Helvetica;writing-mode:lr-tb;fill:#000000;fill-opacity:1;fill-rule:nonzero;stroke:none"
         x="0 5.2788086 10.557617 21.124512"
         y="0"
         sodipodi:role="line"
         id="tspan45"> the</tspan></text>
    <text
       id="text46"
       xml:space="preserve"
       transform="matrix(0.95821545,0,0,0.95821545,276.05588,165.77127)"
       clip-path="url(#clipPath47)"><tspan
         style="font-variant:normal;font-weight:normal;font-size:19px;font-family:Helvetica;writing-mode:lr-tb;fill:#000000;fill-opacity:1;fill-rule:nonzero;stroke:none"
         x="0 10.566895 16.894043 27.460938 38.027832 48.594727 54.921875 60.200684 69.700684 74.979492 88.700684 99.267578 104.54639 118.26758 128.83447 139.40137 144.68018 149.95898 155.23779"
         y="0"
         sodipodi:role="line"
         id="tspan46">property we want to</tspan></text>
    <text
       id="text47"
       xml:space="preserve"
       transform="matrix(0.95821545,0,0,0.95821545,282.11959,187.81023)"
       clip-path="url(#clipPath48)"><tspan
         style="font-variant:normal;font-weight:normal;font-size:19px;font-family:Helvetica;writing-mode:lr-tb;fill:#000000;fill-opacity:1;fill-rule:nonzero;stroke:none"
         x="0 10.566895 21.133789 26.412598 31.691406 42.258301 51.758301 57.037109 62.315918 66.537109 77.104004 87.670898 97.170898 107.73779 118.30469 127.80469 133.0835 143.65039"
         y="0"
         sodipodi:role="line"
         id="tspan47">do fast lookups by</tspan></text>
    <text
       id="text48"
       xml:space="preserve"
       transform="matrix(0.95821545,0,0,0.95821545,277.04404,209.84918)"
       clip-path="url(#clipPath49)"><tspan
         style="font-variant:normal;font-weight:normal;font-size:19px;font-family:Helvetica;writing-mode:lr-tb;fill:#000000;fill-opacity:1;fill-rule:nonzero;stroke:none"
         x="0 10.566895 21.133789 31.700684 36.979492 42.258301 52.825195 63.39209 68.670898 79.237793 83.458984 94.025879 103.52588 113.02588 118.30469 122.52588 133.09277 143.65967 154.22656"
         y="0"
         sodipodi:role="line"
         id="tspan48">and the block/index</tspan></text>
    <text
       id="text49"
       xml:space="preserve"
       transform="matrix(0.95821545,0,0,0.95821545,322.6042,231.88814)"
       clip-path="url(#clipPath50)"><tspan
         style="font-variant:normal;font-weight:normal;font-size:19px;font-family:Helvetica;writing-mode:lr-tb;fill:#000000;fill-opacity:1;fill-rule:nonzero;stroke:none"
         x="0 5.2788086 15.845703 22.172852 27.45166 38.018555 48.585449 58.085449"
         y="0"
         sodipodi:role="line"
         id="tspan49">for each</tspan></text>
    <path
       id="path51"
       d="m 461,190.66 h 39.89999"
       style="fill:none;stroke:#000000;stroke-width:1;stroke-linecap:butt;stroke-linejoin:miter;stroke-miterlimit:10;stroke-dasharray:none;stroke-opacity:1"
       transform="matrix(0.95820582,0,0,0.95820582,0.47910291,0.47910291)"
       clip-path="url(#clipPath52)" />
    <path
       id="path53"
       d="m 507.64999,190.66 -9,4.5 2.25,-4.5 -2.25,-4.5 z"
       style="fill:#000000;fill-opacity:1;fill-rule:nonzero;stroke:#000000;stroke-width:1;stroke-linecap:butt;stroke-linejoin:miter;stroke-miterlimit:10;stroke-dasharray:none;stroke-opacity:1"
       transform="matrix(0.95820582,0,0,0.95820582,0.47910291,0.47910291)"
       clip-path="url(#clipPath54)" />
    <path
       id="path55"
       d="m 551.01001,291 h 100 v 50 h -100 z"
       style="fill:#fff2cc;fill-opacity:1;fill-rule:nonzero;stroke:#d6b656;stroke-width:1;stroke-linecap:butt;stroke-linejoin:miter;stroke-miterlimit:10;stroke-dasharray:none;stroke-opacity:1"
       transform="matrix(0.95820582,0,0,0.95820582,0.47910291,0.47910291)"
       clip-path="url(#clipPath56)" />
    <text
       id="text56"
       xml:space="preserve"
       transform="matrix(0.95821545,0,0,0.95821545,553.35445,309.50359)"
       clip-path="url(#clipPath57)"><tspan
         style="font-variant:normal;font-weight:normal;font-size:18px;font-family:Helvetica;writing-mode:lr-tb;fill:#000000;fill-opacity:1;fill-rule:nonzero;stroke:none"
         x="0 12.999023 16.998047 27.008789 37.019531"
         y="0"
         sodipodi:role="line"
         id="tspan56">Riann</tspan></text>
    <path
       id="path58"
       d="m 561.01001,341 h 80 v 30 h -80 z"
       style="fill:#f5f5f5;fill-opacity:1;fill-rule:nonzero;stroke:#666666;stroke-width:1;stroke-linecap:butt;stroke-linejoin:miter;stroke-miterlimit:10;stroke-dasharray:none;stroke-opacity:1"
       transform="matrix(0.95820582,0,0,0.95820582,0.47910291,0.47910291)"
       clip-path="url(#clipPath59)" />
    <text
       id="text59"
       xml:space="preserve"
       transform="matrix(0.95821545,0,0,0.95821545,557.02262,338.25005)"
       clip-path="url(#clipPath60)"><tspan
         style="font-style:oblique;font-variant:normal;font-weight:normal;font-size:12px;font-family:Helvetica;writing-mode:lr-tb;fill:#333333;fill-opacity:1;fill-rule:nonzero;stroke:none"
         x="0 8.0039062 10.669922 17.34375 23.34375 29.34375 32.677734"
         y="0"
         sodipodi:role="line"
         id="tspan59">Block 1</tspan></text>
    <text
       id="text60"
       xml:space="preserve"
       transform="matrix(0.95821545,0,0,0.95821545,557.02262,352.62328)"
       clip-path="url(#clipPath61)"><tspan
         style="font-style:oblique;font-variant:normal;font-weight:normal;font-size:12px;font-family:Helvetica;writing-mode:lr-tb;fill:#333333;fill-opacity:1;fill-rule:nonzero;stroke:none"
         x="0 3.3339844 10.007812 16.681641 23.355469 29.355469 32.689453"
         y="0"
         sodipodi:role="line"
         id="tspan60">Index 2</tspan></text>
    <path
       id="path62"
       d="m 541.01001,11 h 100 v 50 h -100 z"
       style="fill:#fff2cc;fill-opacity:1;fill-rule:nonzero;stroke:#d6b656;stroke-width:1;stroke-linecap:butt;stroke-linejoin:miter;stroke-miterlimit:10;stroke-dasharray:none;stroke-opacity:1"
       transform="matrix(0.95820582,0,0,0.95820582,0.47910291,0.47910291)"
       clip-path="url(#clipPath63)" />
    <text
       id="text63"
       xml:space="preserve"
       transform="matrix(0.95821545,0,0,0.95821545,541.85587,41.203264)"
       clip-path="url(#clipPath64)"><tspan
         style="font-variant:normal;font-weight:normal;font-size:18px;font-family:Helvetica;writing-mode:lr-tb;fill:#000000;fill-opacity:1;fill-rule:nonzero;stroke:none"
         x="0 12.999023 23.009766 33.020508 42.020508"
         y="0"
         sodipodi:role="line"
         id="tspan63">Nancy</tspan></text>
    <path
       id="path65"
       d="m 551.01001,61 h 80 v 30 h -80 z"
       style="fill:#f5f5f5;fill-opacity:1;fill-rule:nonzero;stroke:#666666;stroke-width:1;stroke-linecap:butt;stroke-linejoin:miter;stroke-miterlimit:10;stroke-dasharray:none;stroke-opacity:1"
       transform="matrix(0.95820582,0,0,0.95820582,0.47910291,0.47910291)"
       clip-path="url(#clipPath66)" />
    <text
       id="text66"
       xml:space="preserve"
       transform="matrix(0.95821545,0,0,0.95821545,547.44046,69.949728)"
       clip-path="url(#clipPath67)"><tspan
         style="font-style:oblique;font-variant:normal;font-weight:normal;font-size:12px;font-family:Helvetica;writing-mode:lr-tb;fill:#333333;fill-opacity:1;fill-rule:nonzero;stroke:none"
         x="0 8.0039062 10.669922 17.34375 23.34375 29.34375 32.677734"
         y="0"
         sodipodi:role="line"
         id="tspan66">Block 0</tspan></text>
    <text
       id="text67"
       xml:space="preserve"
       transform="matrix(0.95821545,0,0,0.95821545,547.44046,84.322959)"
       clip-path="url(#clipPath68)"><tspan
         style="font-style:oblique;font-variant:normal;font-weight:normal;font-size:12px;font-family:Helvetica;writing-mode:lr-tb;fill:#333333;fill-opacity:1;fill-rule:nonzero;stroke:none"
         x="0 3.3339844 10.007812 16.681641 23.355469 29.355469 32.689453"
         y="0"
         sodipodi:role="line"
         id="tspan67">Index 1</tspan></text>
    <path
       id="path69"
       d="m 541.01001,188.5 h 100 v 50 h -100 z"
       style="fill:#fff2cc;fill-opacity:1;fill-rule:nonzero;stroke:#d6b656;stroke-width:1;stroke-linecap:butt;stroke-linejoin:miter;stroke-miterlimit:10;stroke-dasharray:none;stroke-opacity:1"
       transform="matrix(0.95820582,0,0,0.95820582,0.47910291,0.47910291)"
       clip-path="url(#clipPath70)" />
    <text
       id="text70"
       xml:space="preserve"
       transform="matrix(0.95821545,0,0,0.95821545,555.27088,211.76561)"
       clip-path="url(#clipPath71)"><tspan
         style="font-variant:normal;font-weight:normal;font-size:18px;font-family:Helvetica;writing-mode:lr-tb;fill:#000000;fill-opacity:1;fill-rule:nonzero;stroke:none"
         x="0 9 12.999023"
         y="0"
         sodipodi:role="line"
         id="tspan70">Jia</tspan></text>
    <path
       id="path72"
       d="m 551.01001,238.5 h 80 v 30 h -80 z"
       style="fill:#f5f5f5;fill-opacity:1;fill-rule:nonzero;stroke:#666666;stroke-width:1;stroke-linecap:butt;stroke-linejoin:miter;stroke-miterlimit:10;stroke-dasharray:none;stroke-opacity:1"
       transform="matrix(0.95820582,0,0,0.95820582,0.47910291,0.47910291)"
       clip-path="url(#clipPath73)" />
    <text
       id="text73"
       xml:space="preserve"
       transform="matrix(0.95821545,0,0,0.95821545,547.44046,239.55386)"
       clip-path="url(#clipPath74)"><tspan
         style="font-style:oblique;font-variant:normal;font-weight:normal;font-size:12px;font-family:Helvetica;writing-mode:lr-tb;fill:#333333;fill-opacity:1;fill-rule:nonzero;stroke:none"
         x="0 8.0039062 10.669922 17.34375 23.34375 29.34375 32.677734"
         y="0"
         sodipodi:role="line"
         id="tspan73">Block 1</tspan></text>
    <text
       id="text74"
       xml:space="preserve"
       transform="matrix(0.95821545,0,0,0.95821545,547.44046,253.92709)"
       clip-path="url(#clipPath75)"><tspan
         style="font-style:oblique;font-variant:normal;font-weight:normal;font-size:12px;font-family:Helvetica;writing-mode:lr-tb;fill:#333333;fill-opacity:1;fill-rule:nonzero;stroke:none"
         x="0 3.3339844 10.007812 16.681641 23.355469 29.355469 32.689453"
         y="0"
         sodipodi:role="line"
         id="tspan74">Index 2</tspan></text>
    <path
       id="path76"
       d="m 551.01001,98.5 h 100 v 50 h -100 z"
       style="fill:#fff2cc;fill-opacity:1;fill-rule:nonzero;stroke:#d6b656;stroke-width:1;stroke-linecap:butt;stroke-linejoin:miter;stroke-miterlimit:10;stroke-dasharray:none;stroke-opacity:1"
       transform="matrix(0.95820582,0,0,0.95820582,0.47910291,0.47910291)"
       clip-path="url(#clipPath77)" />
    <text
       id="text77"
       xml:space="preserve"
       transform="matrix(0.95821545,0,0,0.95821545,565.81125,125.52622)"
       clip-path="url(#clipPath78)"><tspan
         style="font-variant:normal;font-weight:normal;font-size:18px;font-family:Helvetica;writing-mode:lr-tb;fill:#000000;fill-opacity:1;fill-rule:nonzero;stroke:none"
         x="0 12.005859 16.004883"
         y="0"
         sodipodi:role="line"
         id="tspan77">Alf</tspan></text>
    <path
       id="path79"
       d="m 561.01001,148.5 h 80 v 30 h -80 z"
       style="fill:#f5f5f5;fill-opacity:1;fill-rule:nonzero;stroke:#666666;stroke-width:1;stroke-linecap:butt;stroke-linejoin:miter;stroke-miterlimit:10;stroke-dasharray:none;stroke-opacity:1"
       transform="matrix(0.95820582,0,0,0.95820582,0.47910291,0.47910291)"
       clip-path="url(#clipPath80)" />
    <text
       id="text80"
       xml:space="preserve"
       transform="matrix(0.95821545,0,0,0.95821545,557.02262,153.31447)"
       clip-path="url(#clipPath81)"><tspan
         style="font-style:oblique;font-variant:normal;font-weight:normal;font-size:12px;font-family:Helvetica;writing-mode:lr-tb;fill:#333333;fill-opacity:1;fill-rule:nonzero;stroke:none"
         x="0 8.0039062 10.669922 17.34375 23.34375 29.34375 32.677734"
         y="0"
         sodipodi:role="line"
         id="tspan80">Block 0</tspan></text>
    <text
       id="text81"
       xml:space="preserve"
       transform="matrix(0.95821545,0,0,0.95821545,557.02262,167.6877)"
       clip-path="url(#clipPath82)"><tspan
         style="font-style:oblique;font-variant:normal;font-weight:normal;font-size:12px;font-family:Helvetica;writing-mode:lr-tb;fill:#333333;fill-opacity:1;fill-rule:nonzero;stroke:none"
         x="0 3.3339844 10.007812 16.681641 23.355469 29.355469 32.689453"
         y="0"
         sodipodi:role="line"
         id="tspan81">Index 2</tspan></text>
  </g>
</svg>
