<?xml version="1.0" encoding="UTF-8" standalone="no"?>
<!-- Created with Inkscape (http://www.inkscape.org/) -->

<svg
   version="1.1"
   id="svg1"
   width="453.44"
   height="198.71999"
   viewBox="0 0 453.44 198.71999"
   sodipodi:docname="sql-20.pdf"
   xmlns:inkscape="http://www.inkscape.org/namespaces/inkscape"
   xmlns:sodipodi="http://sodipodi.sourceforge.net/DTD/sodipodi-0.dtd"
   xmlns="http://www.w3.org/2000/svg"
   xmlns:svg="http://www.w3.org/2000/svg">
  <defs
     id="defs1">
    <clipPath
       clipPathUnits="userSpaceOnUse"
       id="clipPath2">
      <path
         d="M 0,0 H 1416.6666 V 618.67084 H 0 Z"
         transform="scale(0.33458825)"
         clip-rule="evenodd"
         id="path2" />
    </clipPath>
    <clipPath
       clipPathUnits="userSpaceOnUse"
       id="clipPath4">
      <path
         d="M 0,0 H 1416.6666 V 615.68213 H 0 Z"
         transform="matrix(0.33458825,0,0,0.33458825,-0.49999999,-0.49999999)"
         clip-rule="evenodd"
         id="path4" />
    </clipPath>
    <clipPath
       clipPathUnits="userSpaceOnUse"
       id="clipPath5">
      <path
         d="M 0,0 H 1416.6666 V 615.68213 H 0 Z"
         transform="matrix(0.33458489,0,0,0.33458489,-12.53125,-64)"
         clip-rule="evenodd"
         id="path5" />
    </clipPath>
    <clipPath
       clipPathUnits="userSpaceOnUse"
       id="clipPath6">
      <path
         d="M 0,0 H 1416.6666 V 615.68213 H 0 Z"
         transform="matrix(0.33458489,0,0,0.33458489,-122.79687,-20)"
         clip-rule="evenodd"
         id="path6" />
    </clipPath>
    <clipPath
       clipPathUnits="userSpaceOnUse"
       id="clipPath8">
      <path
         d="M 0,0 H 1416.6666 V 615.68213 H 0 Z"
         transform="matrix(0.33458825,0,0,0.33458825,-0.49999999,-0.49999999)"
         clip-rule="evenodd"
         id="path8" />
    </clipPath>
    <clipPath
       clipPathUnits="userSpaceOnUse"
       id="clipPath9">
      <path
         d="M 0,0 H 1416.6666 V 615.68213 H 0 Z"
         transform="matrix(0.33458489,0,0,0.33458489,-26.6875,-124)"
         clip-rule="evenodd"
         id="path9" />
    </clipPath>
    <clipPath
       clipPathUnits="userSpaceOnUse"
       id="clipPath11">
      <path
         d="M 0,0 H 1416.6666 V 615.68213 H 0 Z"
         transform="matrix(0.33458825,0,0,0.33458825,-0.49999999,-0.49999999)"
         clip-rule="evenodd"
         id="path11" />
    </clipPath>
    <clipPath
       clipPathUnits="userSpaceOnUse"
       id="clipPath12">
      <path
         d="M 0,0 H 1416.6666 V 615.68213 H 0 Z"
         transform="matrix(0.33458489,0,0,0.33458489,-124.25,-184)"
         clip-rule="evenodd"
         id="path12" />
    </clipPath>
  </defs>
  <sodipodi:namedview
     id="namedview1"
     pagecolor="#ffffff"
     bordercolor="#000000"
     borderopacity="0.25"
     inkscape:showpageshadow="2"
     inkscape:pageopacity="0.0"
     inkscape:pagecheckerboard="0"
     inkscape:deskcolor="#d1d1d1">
    <inkscape:page
       x="0"
       y="0"
       inkscape:label="1"
       id="page1"
       width="453.44"
       height="198.71999"
       margin="0"
       bleed="0" />
  </sodipodi:namedview>
  <g
     id="g1"
     inkscape:groupmode="layer"
     inkscape:label="1">
    <path
       id="path1"
       d="M 0,0 H 474 V 207 H 0 Z"
       style="fill:#ffffff;fill-opacity:1;fill-rule:nonzero;stroke:none"
       transform="scale(0.95639935)"
       clip-path="url(#clipPath2)" />
    <path
       id="path3"
       d="M 1,33 H 471 V 83 H 1 Z"
       style="fill:#ffffff;fill-opacity:0.9;fill-rule:nonzero;stroke:#000000;stroke-width:1;stroke-linecap:butt;stroke-linejoin:miter;stroke-miterlimit:10;stroke-dasharray:none;stroke-opacity:0.9"
       transform="matrix(0.95639935,0,0,0.95639935,0.47819967,0.47819967)"
       clip-path="url(#clipPath4)" />
    <text
       id="text4"
       xml:space="preserve"
       transform="matrix(0.95640895,0,0,0.95640895,11.985,61.210173)"
       clip-path="url(#clipPath5)"><tspan
         style="font-variant:normal;font-weight:normal;font-size:15px;font-family:Helvetica;writing-mode:lr-tb;fill:#000000;fill-opacity:1;fill-rule:nonzero;stroke:none"
         x="0 10.83252 19.174805 27.51709 31.68457 40.026855 48.369141 52.536621 55.869141 64.211426 69.206543 77.548828 85.891113 90.058594 94.226074 104.23096 108.39844 116.74072 121.73584 130.07812 137.57812 141.74561 150.08789 158.43018 162.59766 170.93994 175.10742 179.2749 184.27002 192.6123 205.10742 209.2749 217.61719 221.78467 225.95215 229.28467 237.62695 245.96924 253.46924 257.63672 261.8042 270.14648 278.48877 286.83105 290.99854 298.49854 306.84082 310.17334 318.51562 331.01074 339.35303 343.52051 351.86279 356.03027 360.19775 364.36523 372.70752 381.0498 385.21729 390.2124 398.55469 406.89697 410.22949 414.39697 418.56445 426.90674 435.24902 438.58154"
         y="0"
         sodipodi:role="line"
         id="tspan4">Can be large! Stores data from at least one column of the real table</tspan></text>
    <text
       id="text5"
       xml:space="preserve"
       transform="matrix(0.95640895,0,0,0.95640895,117.44403,19.128179)"
       clip-path="url(#clipPath6)"><tspan
         style="font-variant:normal;font-weight:700;font-size:21px;font-family:Helvetica;writing-mode:lr-tb;fill:#000000;fill-opacity:1;fill-rule:nonzero;stroke:none"
         x="0 15.165527 27.993164 44.327637 57.155273 68.834473 74.668945 87.496582 99.175781 110.85498 116.68945 129.51709 142.34473 148.1792 154.01367 166.84131 179.66895 191.34814 203.02734 214.70654"
         y="0"
         sodipodi:role="line"
         id="tspan5">Downsides on Indexes</tspan></text>
    <path
       id="path7"
       d="m 1,93 h 470 v 50 H 1 Z"
       style="fill:#ffffff;fill-opacity:0.9;fill-rule:nonzero;stroke:#000000;stroke-width:1;stroke-linecap:butt;stroke-linejoin:miter;stroke-miterlimit:10;stroke-dasharray:none;stroke-opacity:0.9"
       transform="matrix(0.95639935,0,0,0.95639935,0.47819967,0.47819967)"
       clip-path="url(#clipPath8)" />
    <text
       id="text8"
       xml:space="preserve"
       transform="matrix(0.95640895,0,0,0.95640895,25.524164,118.59471)"
       clip-path="url(#clipPath9)"><tspan
         style="font-variant:normal;font-weight:normal;font-size:15px;font-family:Helvetica;writing-mode:lr-tb;fill:#000000;fill-opacity:1;fill-rule:nonzero;stroke:none"
         x="0 10.004883 13.337402 21.679688 32.512207 40.012207 44.179688 52.521973 60.864258 71.696777 80.039062 84.206543 87.539062 95.881348 103.38135 111.72363 116.71875 120.88623 125.05371 133.396 141.73828 150.08057 158.42285 162.59033 170.93262 175.1001 183.44238 191.78467 195.11719 203.45947 207.62695 215.96924 220.13672 225.13184 229.29932 233.4668 241.80908 250.15137 254.31885 257.65137 265.99365 274.33594 282.67822 290.17822 294.3457 302.68799 311.03027 318.53027 322.69775 326.86523 335.20752 339.375 347.71729 356.05957 360.22705 368.56934 376.91162 385.25391 393.59619 397.76367 406.10596 414.44824"
         y="0"
         sodipodi:role="line"
         id="tspan8">Slows down insert/update/delete - the index has to be updated!</tspan></text>
    <path
       id="path10"
       d="m 1,153 h 470 v 50 H 1 Z"
       style="fill:#ffffff;fill-opacity:0.9;fill-rule:nonzero;stroke:#000000;stroke-width:1;stroke-linecap:butt;stroke-linejoin:miter;stroke-miterlimit:10;stroke-dasharray:none;stroke-opacity:0.9"
       transform="matrix(0.95639935,0,0,0.95639935,0.47819967,0.47819967)"
       clip-path="url(#clipPath11)" />
    <text
       id="text11"
       xml:space="preserve"
       transform="matrix(0.95640895,0,0,0.95640895,118.83381,175.97925)"
       clip-path="url(#clipPath12)"><tspan
         style="font-variant:normal;font-weight:normal;font-size:15px;font-family:Helvetica;writing-mode:lr-tb;fill:#000000;fill-opacity:1;fill-rule:nonzero;stroke:none"
         x="0 4.1674805 12.509766 20.852051 29.194336 36.694336 40.861816 53.356934 56.689453 65.031738 73.374023 77.541504 81.708984 90.05127 98.393555 102.56104 106.72852 115.0708 122.5708 126.73828 135.08057 143.42285 146.75537 150.08789 157.58789 161.75537 170.09766 178.43994 182.60742 186.7749 195.11719 202.61719 210.95947 219.30176"
         y="0"
         sodipodi:role="line"
         id="tspan11">Index might not actually get used!</tspan></text>
  </g>
</svg>
