<?xml version="1.0" encoding="UTF-8" standalone="no"?>
<!-- Created with Inkscape (http://www.inkscape.org/) -->

<svg
   version="1.1"
   id="svg1"
   width="413.44"
   height="340.16"
   viewBox="0 0 413.44 340.16"
   sodipodi:docname="sql-15.pdf"
   xmlns:inkscape="http://www.inkscape.org/namespaces/inkscape"
   xmlns:sodipodi="http://sodipodi.sourceforge.net/DTD/sodipodi-0.dtd"
   xmlns="http://www.w3.org/2000/svg"
   xmlns:svg="http://www.w3.org/2000/svg">
  <defs
     id="defs1">
    <clipPath
       clipPathUnits="userSpaceOnUse"
       id="clipPath2">
      <path
         d="M 0,0 H 1291.6666 V 1061.439 H 0 Z"
         transform="scale(0.33445163)"
         clip-rule="evenodd"
         id="path2" />
    </clipPath>
    <clipPath
       clipPathUnits="userSpaceOnUse"
       id="clipPath4">
      <path
         d="M 0,0 H 1291.6666 V 1058.449 H 0 Z"
         transform="matrix(0.33445163,0,0,0.33445163,-0.5,-0.5)"
         clip-rule="evenodd"
         id="path4" />
    </clipPath>
    <clipPath
       clipPathUnits="userSpaceOnUse"
       id="clipPath6">
      <path
         d="M 0,0 H 1291.6666 V 1058.449 H 0 Z"
         transform="matrix(0.33445163,0,0,0.33445163,-0.5,-0.5)"
         clip-rule="evenodd"
         id="path6" />
    </clipPath>
    <clipPath
       clipPathUnits="userSpaceOnUse"
       id="clipPath8">
      <path
         d="M 0,0 H 1291.6666 V 1058.449 H 0 Z"
         transform="matrix(0.33445163,0,0,0.33445163,-0.5,-0.5)"
         clip-rule="evenodd"
         id="path8" />
    </clipPath>
    <clipPath
       clipPathUnits="userSpaceOnUse"
       id="clipPath9">
      <path
         d="M 0,0 H 1291.6666 V 1058.449 H 0 Z"
         transform="matrix(0.33444826,0,0,0.33444826,-95.671876,-175)"
         clip-rule="evenodd"
         id="path9" />
    </clipPath>
    <clipPath
       clipPathUnits="userSpaceOnUse"
       id="clipPath10">
      <path
         d="M 0,0 H 1291.6666 V 1058.449 H 0 Z"
         transform="matrix(0.33444826,0,0,0.33444826,-82.984375,-198.00001)"
         clip-rule="evenodd"
         id="path10" />
    </clipPath>
    <clipPath
       clipPathUnits="userSpaceOnUse"
       id="clipPath12">
      <path
         d="M 0,0 H 1291.6666 V 1058.449 H 0 Z"
         transform="matrix(0.33445163,0,0,0.33445163,-0.5,-0.5)"
         clip-rule="evenodd"
         id="path12" />
    </clipPath>
    <clipPath
       clipPathUnits="userSpaceOnUse"
       id="clipPath14">
      <path
         d="M 0,0 H 1291.6666 V 1058.449 H 0 Z"
         transform="matrix(0.33445163,0,0,0.33445163,-0.5,-0.5)"
         clip-rule="evenodd"
         id="path14" />
    </clipPath>
    <clipPath
       clipPathUnits="userSpaceOnUse"
       id="clipPath15">
      <path
         d="M 0,0 H 1291.6666 V 1058.449 H 0 Z"
         transform="matrix(0.33444826,0,0,0.33444826,-83.515626,-260)"
         clip-rule="evenodd"
         id="path15" />
    </clipPath>
    <clipPath
       clipPathUnits="userSpaceOnUse"
       id="clipPath16">
      <path
         d="M 0,0 H 1291.6666 V 1058.449 H 0 Z"
         transform="matrix(0.33444826,0,0,0.33444826,-91.96875,-283)"
         clip-rule="evenodd"
         id="path16" />
    </clipPath>
    <clipPath
       clipPathUnits="userSpaceOnUse"
       id="clipPath17">
      <path
         d="M 0,0 H 1291.6666 V 1058.449 H 0 Z"
         transform="matrix(0.33444826,0,0,0.33444826,-94.078125,-306)"
         clip-rule="evenodd"
         id="path17" />
    </clipPath>
    <clipPath
       clipPathUnits="userSpaceOnUse"
       id="clipPath19">
      <path
         d="M 0,0 H 1291.6666 V 1058.449 H 0 Z"
         transform="matrix(0.33445163,0,0,0.33445163,-0.5,-0.5)"
         clip-rule="evenodd"
         id="path19" />
    </clipPath>
    <clipPath
       clipPathUnits="userSpaceOnUse"
       id="clipPath20">
      <path
         d="M 0,0 H 1291.6666 V 1058.449 H 0 Z"
         transform="matrix(0.33444826,0,0,0.33444826,-355.48438,-303)"
         clip-rule="evenodd"
         id="path20" />
    </clipPath>
    <clipPath
       clipPathUnits="userSpaceOnUse"
       id="clipPath22">
      <path
         d="M 0,0 H 1291.6666 V 1058.449 H 0 Z"
         transform="matrix(0.33445163,0,0,0.33445163,-0.5,-0.5)"
         clip-rule="evenodd"
         id="path22" />
    </clipPath>
    <clipPath
       clipPathUnits="userSpaceOnUse"
       id="clipPath23">
      <path
         d="M 0,0 H 1291.6666 V 1058.449 H 0 Z"
         transform="matrix(0.33444826,0,0,0.33444826,-359.3125,-333)"
         clip-rule="evenodd"
         id="path23" />
    </clipPath>
    <clipPath
       clipPathUnits="userSpaceOnUse"
       id="clipPath24">
      <path
         d="M 0,0 H 1291.6666 V 1058.449 H 0 Z"
         transform="matrix(0.33444826,0,0,0.33444826,-359.3125,-348.00001)"
         clip-rule="evenodd"
         id="path24" />
    </clipPath>
    <clipPath
       clipPathUnits="userSpaceOnUse"
       id="clipPath26">
      <path
         d="M 0,0 H 1291.6666 V 1058.449 H 0 Z"
         transform="matrix(0.33445163,0,0,0.33445163,-0.5,-0.5)"
         clip-rule="evenodd"
         id="path26" />
    </clipPath>
    <clipPath
       clipPathUnits="userSpaceOnUse"
       id="clipPath27">
      <path
         d="M 0,0 H 1291.6666 V 1058.449 H 0 Z"
         transform="matrix(0.33444826,0,0,0.33444826,-353.48438,-213)"
         clip-rule="evenodd"
         id="path27" />
    </clipPath>
    <clipPath
       clipPathUnits="userSpaceOnUse"
       id="clipPath29">
      <path
         d="M 0,0 H 1291.6666 V 1058.449 H 0 Z"
         transform="matrix(0.33445163,0,0,0.33445163,-0.5,-0.5)"
         clip-rule="evenodd"
         id="path29" />
    </clipPath>
    <clipPath
       clipPathUnits="userSpaceOnUse"
       id="clipPath30">
      <path
         d="M 0,0 H 1291.6666 V 1058.449 H 0 Z"
         transform="matrix(0.33444826,0,0,0.33444826,-359.3125,-243)"
         clip-rule="evenodd"
         id="path30" />
    </clipPath>
    <clipPath
       clipPathUnits="userSpaceOnUse"
       id="clipPath31">
      <path
         d="M 0,0 H 1291.6666 V 1058.449 H 0 Z"
         transform="matrix(0.33444826,0,0,0.33444826,-359.3125,-258.00001)"
         clip-rule="evenodd"
         id="path31" />
    </clipPath>
    <clipPath
       clipPathUnits="userSpaceOnUse"
       id="clipPath33">
      <path
         d="M 0,0 H 1291.6666 V 1058.449 H 0 Z"
         transform="matrix(0.33445163,0,0,0.33445163,-0.5,-0.5)"
         clip-rule="evenodd"
         id="path33" />
    </clipPath>
    <clipPath
       clipPathUnits="userSpaceOnUse"
       id="clipPath34">
      <path
         d="M 0,0 H 1291.6666 V 1058.449 H 0 Z"
         transform="matrix(0.33444826,0,0,0.33444826,-367.48438,-123)"
         clip-rule="evenodd"
         id="path34" />
    </clipPath>
    <clipPath
       clipPathUnits="userSpaceOnUse"
       id="clipPath36">
      <path
         d="M 0,0 H 1291.6666 V 1058.449 H 0 Z"
         transform="matrix(0.33445163,0,0,0.33445163,-0.5,-0.5)"
         clip-rule="evenodd"
         id="path36" />
    </clipPath>
    <clipPath
       clipPathUnits="userSpaceOnUse"
       id="clipPath37">
      <path
         d="M 0,0 H 1291.6666 V 1058.449 H 0 Z"
         transform="matrix(0.33444826,0,0,0.33444826,-359.3125,-153)"
         clip-rule="evenodd"
         id="path37" />
    </clipPath>
    <clipPath
       clipPathUnits="userSpaceOnUse"
       id="clipPath38">
      <path
         d="M 0,0 H 1291.6666 V 1058.449 H 0 Z"
         transform="matrix(0.33444826,0,0,0.33444826,-359.3125,-168)"
         clip-rule="evenodd"
         id="path38" />
    </clipPath>
    <clipPath
       clipPathUnits="userSpaceOnUse"
       id="clipPath40">
      <path
         d="M 0,0 H 1291.6666 V 1058.449 H 0 Z"
         transform="matrix(0.33445163,0,0,0.33445163,-0.5,-0.5)"
         clip-rule="evenodd"
         id="path40" />
    </clipPath>
    <clipPath
       clipPathUnits="userSpaceOnUse"
       id="clipPath41">
      <path
         d="M 0,0 H 1291.6666 V 1058.449 H 0 Z"
         transform="matrix(0.33444826,0,0,0.33444826,-368.48438,-33)"
         clip-rule="evenodd"
         id="path41" />
    </clipPath>
    <clipPath
       clipPathUnits="userSpaceOnUse"
       id="clipPath43">
      <path
         d="M 0,0 H 1291.6666 V 1058.449 H 0 Z"
         transform="matrix(0.33445163,0,0,0.33445163,-0.5,-0.5)"
         clip-rule="evenodd"
         id="path43" />
    </clipPath>
    <clipPath
       clipPathUnits="userSpaceOnUse"
       id="clipPath44">
      <path
         d="M 0,0 H 1291.6666 V 1058.449 H 0 Z"
         transform="matrix(0.33444826,0,0,0.33444826,-359.3125,-63)"
         clip-rule="evenodd"
         id="path44" />
    </clipPath>
    <clipPath
       clipPathUnits="userSpaceOnUse"
       id="clipPath45">
      <path
         d="M 0,0 H 1291.6666 V 1058.449 H 0 Z"
         transform="matrix(0.33444826,0,0,0.33444826,-359.3125,-78)"
         clip-rule="evenodd"
         id="path45" />
    </clipPath>
  </defs>
  <sodipodi:namedview
     id="namedview1"
     pagecolor="#ffffff"
     bordercolor="#000000"
     borderopacity="0.25"
     inkscape:showpageshadow="2"
     inkscape:pageopacity="0.0"
     inkscape:pagecheckerboard="0"
     inkscape:deskcolor="#d1d1d1">
    <inkscape:page
       x="0"
       y="0"
       inkscape:label="1"
       id="page1"
       width="413.44"
       height="340.16"
       margin="0"
       bleed="0" />
  </sodipodi:namedview>
  <g
     id="g1"
     inkscape:groupmode="layer"
     inkscape:label="1">
    <path
       id="path1"
       d="M 0,0 H 432 V 355 H 0 Z"
       style="fill:#ffffff;fill-opacity:1;fill-rule:nonzero;stroke:none"
       transform="scale(0.95679004)"
       clip-path="url(#clipPath2)" />
    <path
       id="path3"
       d="m 9,178.5 25.5,0.5 14.400002,-0.28999"
       style="fill:none;stroke:#000000;stroke-width:1;stroke-linecap:butt;stroke-linejoin:miter;stroke-miterlimit:10;stroke-dasharray:none;stroke-opacity:1"
       transform="matrix(0.95679004,0,0,0.95679004,0.47839502,0.47839502)"
       clip-path="url(#clipPath4)" />
    <path
       id="path5"
       d="m 55.650002,178.57001 -8.91,4.67999 2.16,-4.53999 -2.340001,-4.46001 z"
       style="fill:#000000;fill-opacity:1;fill-rule:nonzero;stroke:#000000;stroke-width:1;stroke-linecap:butt;stroke-linejoin:miter;stroke-miterlimit:10;stroke-dasharray:none;stroke-opacity:1"
       transform="matrix(0.95679004,0,0,0.95679004,0.47839502,0.47839502)"
       clip-path="url(#clipPath6)" />
    <path
       id="path7"
       d="M 59,116 H 239 V 241 H 59 Z"
       style="fill:#dae8fc;fill-opacity:1;fill-rule:nonzero;stroke:#6c8ebf;stroke-width:1;stroke-linecap:butt;stroke-linejoin:miter;stroke-miterlimit:10;stroke-dasharray:none;stroke-opacity:1"
       transform="matrix(0.95679004,0,0,0.95679004,0.47839502,0.47839502)"
       clip-path="url(#clipPath8)" />
    <text
       id="text8"
       xml:space="preserve"
       transform="matrix(0.95679967,0,0,0.95679967,91.538819,167.43994)"
       clip-path="url(#clipPath9)"><tspan
         style="font-variant:normal;font-weight:normal;font-size:19px;font-family:Helvetica;writing-mode:lr-tb;fill:#000000;fill-opacity:1;fill-rule:nonzero;stroke:none"
         x="0 12.672852 23.239746 29.566895 34.845703 40.124512 44.345703 54.912598 60.191406 69.691406 80.258301 96.085449"
         y="0"
         sodipodi:role="line"
         id="tspan8">Sort in some</tspan></text>
    <text
       id="text9"
       xml:space="preserve"
       transform="matrix(0.95679967,0,0,0.95679967,79.399423,189.44634)"
       clip-path="url(#clipPath10)"><tspan
         style="font-variant:normal;font-weight:normal;font-size:19px;font-family:Helvetica;writing-mode:lr-tb;fill:#000000;fill-opacity:1;fill-rule:nonzero;stroke:none"
         x="0 15.827148 26.394043 36.960938 47.527832 51.749023 62.315918 72.882812 78.161621 88.728516 92.949707 98.228516 111.94971 122.5166"
         y="0"
         sodipodi:role="line"
         id="tspan9">meaningful way</tspan></text>
    <path
       id="path11"
       d="m 239,180.66 h 39.89999"
       style="fill:none;stroke:#000000;stroke-width:1;stroke-linecap:butt;stroke-linejoin:miter;stroke-miterlimit:10;stroke-dasharray:none;stroke-opacity:1"
       transform="matrix(0.95679004,0,0,0.95679004,0.47839502,0.47839502)"
       clip-path="url(#clipPath12)" />
    <path
       id="path13"
       d="m 285.64999,180.66 -9,4.5 2.25,-4.5 -2.25,-4.5 z"
       style="fill:#000000;fill-opacity:1;fill-rule:nonzero;stroke:#000000;stroke-width:1;stroke-linecap:butt;stroke-linejoin:miter;stroke-miterlimit:10;stroke-dasharray:none;stroke-opacity:1"
       transform="matrix(0.95679004,0,0,0.95679004,0.47839502,0.47839502)"
       clip-path="url(#clipPath14)" />
    <text
       id="text14"
       xml:space="preserve"
       transform="matrix(0.95679967,0,0,0.95679967,79.907723,248.76791)"
       clip-path="url(#clipPath15)"><tspan
         style="font-style:oblique;font-variant:normal;font-weight:normal;font-size:19px;font-family:Helvetica;writing-mode:lr-tb;fill:#000000;fill-opacity:1;fill-rule:nonzero;stroke:none"
         x="0 12.672852 16.894043 27.460938 38.027832 48.594727 59.161621 69.728516 75.007324 79.228516 88.728516 99.29541 103.5166 108.79541 114.07422 124.64111"
         y="0"
         sodipodi:role="line"
         id="tspan14">Alphabetical for</tspan></text>
    <text
       id="text15"
       xml:space="preserve"
       transform="matrix(0.95679967,0,0,0.95679967,87.99567,270.77431)"
       clip-path="url(#clipPath16)"><tspan
         style="font-style:oblique;font-variant:normal;font-weight:normal;font-size:19px;font-family:Helvetica;writing-mode:lr-tb;fill:#000000;fill-opacity:1;fill-rule:nonzero;stroke:none"
         x="0 5.2788086 15.845703 25.345703 30.624512 35.90332 41.182129 50.682129 61.249023 65.470215 76.037109 86.604004 91.882812 97.161621 107.72852"
         y="0"
         sodipodi:role="line"
         id="tspan15">text, value for</tspan></text>
    <text
       id="text16"
       xml:space="preserve"
       transform="matrix(0.95679967,0,0,0.95679967,90.013919,292.7807)"
       clip-path="url(#clipPath17)"><tspan
         style="font-style:oblique;font-variant:normal;font-weight:normal;font-size:19px;font-family:Helvetica;writing-mode:lr-tb;fill:#000000;fill-opacity:1;fill-rule:nonzero;stroke:none"
         x="0 10.566895 21.133789 36.960938 47.527832 58.094727 64.421875 73.921875 79.200684 84.479492 95.046387 100.3252"
         y="0"
         sodipodi:role="line"
         id="tspan16">numbers, etc</tspan></text>
    <path
       id="path18"
       d="m 329,271 h 100 v 50 H 329 Z"
       style="fill:#fff2cc;fill-opacity:1;fill-rule:nonzero;stroke:#d6b656;stroke-width:1;stroke-linecap:butt;stroke-linejoin:miter;stroke-miterlimit:10;stroke-dasharray:none;stroke-opacity:1"
       transform="matrix(0.95679004,0,0,0.95679004,0.47839502,0.47839502)"
       clip-path="url(#clipPath19)" />
    <text
       id="text19"
       xml:space="preserve"
       transform="matrix(0.95679967,0,0,0.95679967,340.12734,289.9103)"
       clip-path="url(#clipPath20)"><tspan
         style="font-variant:normal;font-weight:normal;font-size:18px;font-family:Helvetica;writing-mode:lr-tb;fill:#000000;fill-opacity:1;fill-rule:nonzero;stroke:none"
         x="0 12.999023 16.998047 27.008789 37.019531"
         y="0"
         sodipodi:role="line"
         id="tspan19">Riann</tspan></text>
    <path
       id="path21"
       d="m 339,321 h 80 v 30 h -80 z"
       style="fill:#f5f5f5;fill-opacity:1;fill-rule:nonzero;stroke:#666666;stroke-width:1;stroke-linecap:butt;stroke-linejoin:miter;stroke-miterlimit:10;stroke-dasharray:none;stroke-opacity:1"
       transform="matrix(0.95679004,0,0,0.95679004,0.47839502,0.47839502)"
       clip-path="url(#clipPath22)" />
    <text
       id="text22"
       xml:space="preserve"
       transform="matrix(0.95679967,0,0,0.95679967,343.79008,318.61429)"
       clip-path="url(#clipPath23)"><tspan
         style="font-style:oblique;font-variant:normal;font-weight:normal;font-size:12px;font-family:Helvetica;writing-mode:lr-tb;fill:#333333;fill-opacity:1;fill-rule:nonzero;stroke:none"
         x="0 8.0039062 10.669922 17.34375 23.34375 29.34375 32.677734"
         y="0"
         sodipodi:role="line"
         id="tspan22">Block 1</tspan></text>
    <text
       id="text23"
       xml:space="preserve"
       transform="matrix(0.95679967,0,0,0.95679967,343.79008,332.96629)"
       clip-path="url(#clipPath24)"><tspan
         style="font-style:oblique;font-variant:normal;font-weight:normal;font-size:12px;font-family:Helvetica;writing-mode:lr-tb;fill:#333333;fill-opacity:1;fill-rule:nonzero;stroke:none"
         x="0 3.3339844 10.007812 16.681641 23.355469 29.355469 32.689453"
         y="0"
         sodipodi:role="line"
         id="tspan23">Index 2</tspan></text>
    <path
       id="path25"
       d="m 329,181 h 100 v 50 H 329 Z"
       style="fill:#fff2cc;fill-opacity:1;fill-rule:nonzero;stroke:#d6b656;stroke-width:1;stroke-linecap:butt;stroke-linejoin:miter;stroke-miterlimit:10;stroke-dasharray:none;stroke-opacity:1"
       transform="matrix(0.95679004,0,0,0.95679004,0.47839502,0.47839502)"
       clip-path="url(#clipPath26)" />
    <text
       id="text26"
       xml:space="preserve"
       transform="matrix(0.95679967,0,0,0.95679967,338.21374,203.79833)"
       clip-path="url(#clipPath27)"><tspan
         style="font-variant:normal;font-weight:normal;font-size:18px;font-family:Helvetica;writing-mode:lr-tb;fill:#000000;fill-opacity:1;fill-rule:nonzero;stroke:none"
         x="0 12.999023 23.009766 33.020508 42.020508"
         y="0"
         sodipodi:role="line"
         id="tspan26">Nancy</tspan></text>
    <path
       id="path28"
       d="m 339,231 h 80 v 30 h -80 z"
       style="fill:#f5f5f5;fill-opacity:1;fill-rule:nonzero;stroke:#666666;stroke-width:1;stroke-linecap:butt;stroke-linejoin:miter;stroke-miterlimit:10;stroke-dasharray:none;stroke-opacity:1"
       transform="matrix(0.95679004,0,0,0.95679004,0.47839502,0.47839502)"
       clip-path="url(#clipPath29)" />
    <text
       id="text29"
       xml:space="preserve"
       transform="matrix(0.95679967,0,0,0.95679967,343.79008,232.50232)"
       clip-path="url(#clipPath30)"><tspan
         style="font-style:oblique;font-variant:normal;font-weight:normal;font-size:12px;font-family:Helvetica;writing-mode:lr-tb;fill:#333333;fill-opacity:1;fill-rule:nonzero;stroke:none"
         x="0 8.0039062 10.669922 17.34375 23.34375 29.34375 32.677734"
         y="0"
         sodipodi:role="line"
         id="tspan29">Block 0</tspan></text>
    <text
       id="text30"
       xml:space="preserve"
       transform="matrix(0.95679967,0,0,0.95679967,343.79008,246.85432)"
       clip-path="url(#clipPath31)"><tspan
         style="font-style:oblique;font-variant:normal;font-weight:normal;font-size:12px;font-family:Helvetica;writing-mode:lr-tb;fill:#333333;fill-opacity:1;fill-rule:nonzero;stroke:none"
         x="0 3.3339844 10.007812 16.681641 23.355469 29.355469 32.689453"
         y="0"
         sodipodi:role="line"
         id="tspan30">Index 1</tspan></text>
    <path
       id="path32"
       d="m 329,91 h 100 v 50 H 329 Z"
       style="fill:#fff2cc;fill-opacity:1;fill-rule:nonzero;stroke:#d6b656;stroke-width:1;stroke-linecap:butt;stroke-linejoin:miter;stroke-miterlimit:10;stroke-dasharray:none;stroke-opacity:1"
       transform="matrix(0.95679004,0,0,0.95679004,0.47839502,0.47839502)"
       clip-path="url(#clipPath33)" />
    <text
       id="text33"
       xml:space="preserve"
       transform="matrix(0.95679967,0,0,0.95679967,351.60893,117.68636)"
       clip-path="url(#clipPath34)"><tspan
         style="font-variant:normal;font-weight:normal;font-size:18px;font-family:Helvetica;writing-mode:lr-tb;fill:#000000;fill-opacity:1;fill-rule:nonzero;stroke:none"
         x="0 9 12.999023"
         y="0"
         sodipodi:role="line"
         id="tspan33">Jia</tspan></text>
    <path
       id="path35"
       d="m 339,141 h 80 v 30 h -80 z"
       style="fill:#f5f5f5;fill-opacity:1;fill-rule:nonzero;stroke:#666666;stroke-width:1;stroke-linecap:butt;stroke-linejoin:miter;stroke-miterlimit:10;stroke-dasharray:none;stroke-opacity:1"
       transform="matrix(0.95679004,0,0,0.95679004,0.47839502,0.47839502)"
       clip-path="url(#clipPath36)" />
    <text
       id="text36"
       xml:space="preserve"
       transform="matrix(0.95679967,0,0,0.95679967,343.79008,146.39035)"
       clip-path="url(#clipPath37)"><tspan
         style="font-style:oblique;font-variant:normal;font-weight:normal;font-size:12px;font-family:Helvetica;writing-mode:lr-tb;fill:#333333;fill-opacity:1;fill-rule:nonzero;stroke:none"
         x="0 8.0039062 10.669922 17.34375 23.34375 29.34375 32.677734"
         y="0"
         sodipodi:role="line"
         id="tspan36">Block 1</tspan></text>
    <text
       id="text37"
       xml:space="preserve"
       transform="matrix(0.95679967,0,0,0.95679967,343.79008,160.74234)"
       clip-path="url(#clipPath38)"><tspan
         style="font-style:oblique;font-variant:normal;font-weight:normal;font-size:12px;font-family:Helvetica;writing-mode:lr-tb;fill:#333333;fill-opacity:1;fill-rule:nonzero;stroke:none"
         x="0 3.3339844 10.007812 16.681641 23.355469 29.355469 32.689453"
         y="0"
         sodipodi:role="line"
         id="tspan37">Index 2</tspan></text>
    <path
       id="path39"
       d="M 329,1 H 429 V 51 H 329 Z"
       style="fill:#fff2cc;fill-opacity:1;fill-rule:nonzero;stroke:#d6b656;stroke-width:1;stroke-linecap:butt;stroke-linejoin:miter;stroke-miterlimit:10;stroke-dasharray:none;stroke-opacity:1"
       transform="matrix(0.95679004,0,0,0.95679004,0.47839502,0.47839502)"
       clip-path="url(#clipPath40)" />
    <text
       id="text40"
       xml:space="preserve"
       transform="matrix(0.95679967,0,0,0.95679967,352.56573,31.574389)"
       clip-path="url(#clipPath41)"><tspan
         style="font-variant:normal;font-weight:normal;font-size:18px;font-family:Helvetica;writing-mode:lr-tb;fill:#000000;fill-opacity:1;fill-rule:nonzero;stroke:none"
         x="0 12.005859 16.004883"
         y="0"
         sodipodi:role="line"
         id="tspan40">Alf</tspan></text>
    <path
       id="path42"
       d="m 339,51 h 80 v 30 h -80 z"
       style="fill:#f5f5f5;fill-opacity:1;fill-rule:nonzero;stroke:#666666;stroke-width:1;stroke-linecap:butt;stroke-linejoin:miter;stroke-miterlimit:10;stroke-dasharray:none;stroke-opacity:1"
       transform="matrix(0.95679004,0,0,0.95679004,0.47839502,0.47839502)"
       clip-path="url(#clipPath43)" />
    <text
       id="text43"
       xml:space="preserve"
       transform="matrix(0.95679967,0,0,0.95679967,343.79008,60.278379)"
       clip-path="url(#clipPath44)"><tspan
         style="font-style:oblique;font-variant:normal;font-weight:normal;font-size:12px;font-family:Helvetica;writing-mode:lr-tb;fill:#333333;fill-opacity:1;fill-rule:nonzero;stroke:none"
         x="0 8.0039062 10.669922 17.34375 23.34375 29.34375 32.677734"
         y="0"
         sodipodi:role="line"
         id="tspan43">Block 0</tspan></text>
    <text
       id="text44"
       xml:space="preserve"
       transform="matrix(0.95679967,0,0,0.95679967,343.79008,74.630374)"
       clip-path="url(#clipPath45)"><tspan
         style="font-style:oblique;font-variant:normal;font-weight:normal;font-size:12px;font-family:Helvetica;writing-mode:lr-tb;fill:#333333;fill-opacity:1;fill-rule:nonzero;stroke:none"
         x="0 3.3339844 10.007812 16.681641 23.355469 29.355469 32.689453"
         y="0"
         sodipodi:role="line"
         id="tspan44">Index 2</tspan></text>
  </g>
</svg>
