<?xml version="1.0" encoding="UTF-8" standalone="no"?>
<!-- Created with Inkscape (http://www.inkscape.org/) -->

<svg
   version="1.1"
   id="svg1"
   width="732.15997"
   height="361.28"
   viewBox="0 0 732.15997 361.28"
   sodipodi:docname="sql-12.pdf"
   xmlns:inkscape="http://www.inkscape.org/namespaces/inkscape"
   xmlns:sodipodi="http://sodipodi.sourceforge.net/DTD/sodipodi-0.dtd"
   xmlns="http://www.w3.org/2000/svg"
   xmlns:svg="http://www.w3.org/2000/svg">
  <defs
     id="defs1">
    <clipPath
       clipPathUnits="userSpaceOnUse"
       id="clipPath2">
      <path
         d="M 0,0 H 2287.5 V 1128.7794 H 0 Z"
         transform="scale(0.33398908)"
         clip-rule="evenodd"
         id="path2" />
    </clipPath>
    <clipPath
       clipPathUnits="userSpaceOnUse"
       id="clipPath4">
      <path
         d="M 0,0 H 2287.5 V 1125.7853 H 0 Z"
         transform="matrix(0.33398908,0,0,0.33398908,-0.49999999,-0.49999999)"
         clip-rule="evenodd"
         id="path4" />
    </clipPath>
    <clipPath
       clipPathUnits="userSpaceOnUse"
       id="clipPath6">
      <path
         d="M 0,0 H 2287.5 V 1125.7853 H 0 Z"
         transform="matrix(0.33398908,0,0,0.33398908,-0.49999999,-0.49999999)"
         clip-rule="evenodd"
         id="path6" />
    </clipPath>
    <clipPath
       clipPathUnits="userSpaceOnUse"
       id="clipPath8">
      <path
         d="M 0,0 H 2287.5 V 1125.7853 H 0 Z"
         transform="matrix(0.33398908,0,0,0.33398908,-0.49999999,-0.49999999)"
         clip-rule="evenodd"
         id="path8" />
    </clipPath>
    <clipPath
       clipPathUnits="userSpaceOnUse"
       id="clipPath9">
      <path
         d="M 0,0 H 2287.5 V 1125.7853 H 0 Z"
         transform="matrix(0.33398573,0,0,0.33398573,-12.999999,-173)"
         clip-rule="evenodd"
         id="path9" />
    </clipPath>
    <clipPath
       clipPathUnits="userSpaceOnUse"
       id="clipPath10">
      <path
         d="M 0,0 H 2287.5 V 1125.7853 H 0 Z"
         transform="matrix(0.33398573,0,0,0.33398573,-93.231933,-173)"
         clip-rule="evenodd"
         id="path10" />
    </clipPath>
    <clipPath
       clipPathUnits="userSpaceOnUse"
       id="clipPath11">
      <path
         d="M 0,0 H 2287.5 V 1125.7853 H 0 Z"
         transform="matrix(0.33398573,0,0,0.33398573,-12.999999,-196)"
         clip-rule="evenodd"
         id="path11" />
    </clipPath>
    <clipPath
       clipPathUnits="userSpaceOnUse"
       id="clipPath12">
      <path
         d="M 0,0 H 2287.5 V 1125.7853 H 0 Z"
         transform="matrix(0.33398573,0,0,0.33398573,-74.216308,-196)"
         clip-rule="evenodd"
         id="path12" />
    </clipPath>
    <clipPath
       clipPathUnits="userSpaceOnUse"
       id="clipPath13">
      <path
         d="M 0,0 H 2287.5 V 1125.7853 H 0 Z"
         transform="matrix(0.33398573,0,0,0.33398573,-12.999999,-219)"
         clip-rule="evenodd"
         id="path13" />
    </clipPath>
    <clipPath
       clipPathUnits="userSpaceOnUse"
       id="clipPath14">
      <path
         d="M 0,0 H 2287.5 V 1125.7853 H 0 Z"
         transform="matrix(0.33398573,0,0,0.33398573,-83.734375,-219)"
         clip-rule="evenodd"
         id="path14" />
    </clipPath>
    <clipPath
       clipPathUnits="userSpaceOnUse"
       id="clipPath16">
      <path
         d="M 0,0 H 2287.5 V 1125.7853 H 0 Z"
         transform="matrix(0.33398908,0,0,0.33398908,-0.49999999,-0.49999999)"
         clip-rule="evenodd"
         id="path16" />
    </clipPath>
    <clipPath
       clipPathUnits="userSpaceOnUse"
       id="clipPath18">
      <path
         d="M 0,0 H 2287.5 V 1125.7853 H 0 Z"
         transform="matrix(0.33398908,0,0,0.33398908,-0.49999999,-0.49999999)"
         clip-rule="evenodd"
         id="path18" />
    </clipPath>
    <clipPath
       clipPathUnits="userSpaceOnUse"
       id="clipPath20">
      <path
         d="M 0,0 H 2287.5 V 1125.7853 H 0 Z"
         transform="matrix(0.33398908,0,0,0.33398908,-0.49999999,-0.49999999)"
         clip-rule="evenodd"
         id="path20" />
    </clipPath>
    <clipPath
       clipPathUnits="userSpaceOnUse"
       id="clipPath21">
      <path
         d="M 0,0 H 2287.5 V 1125.7853 H 0 Z"
         transform="matrix(0.33398573,0,0,0.33398573,-620.48438,-110.99999)"
         clip-rule="evenodd"
         id="path21" />
    </clipPath>
    <clipPath
       clipPathUnits="userSpaceOnUse"
       id="clipPath23">
      <path
         d="M 0,0 H 2287.5 V 1125.7853 H 0 Z"
         transform="matrix(0.33398908,0,0,0.33398908,-0.49999999,-0.49999999)"
         clip-rule="evenodd"
         id="path23" />
    </clipPath>
    <clipPath
       clipPathUnits="userSpaceOnUse"
       id="clipPath24">
      <path
         d="M 0,0 H 2287.5 V 1125.7853 H 0 Z"
         transform="matrix(0.33398573,0,0,0.33398573,-606.85938,-71)"
         clip-rule="evenodd"
         id="path24" />
    </clipPath>
    <clipPath
       clipPathUnits="userSpaceOnUse"
       id="clipPath26">
      <path
         d="M 0,0 H 2287.5 V 1125.7853 H 0 Z"
         transform="matrix(0.33398908,0,0,0.33398908,-0.49999999,-0.49999999)"
         clip-rule="evenodd"
         id="path26" />
    </clipPath>
    <clipPath
       clipPathUnits="userSpaceOnUse"
       id="clipPath27">
      <path
         d="M 0,0 H 2287.5 V 1125.7853 H 0 Z"
         transform="matrix(0.33398573,0,0,0.33398573,-635.48438,-160)"
         clip-rule="evenodd"
         id="path27" />
    </clipPath>
    <clipPath
       clipPathUnits="userSpaceOnUse"
       id="clipPath29">
      <path
         d="M 0,0 H 2287.5 V 1125.7853 H 0 Z"
         transform="matrix(0.33398908,0,0,0.33398908,-0.49999999,-0.49999999)"
         clip-rule="evenodd"
         id="path29" />
    </clipPath>
    <clipPath
       clipPathUnits="userSpaceOnUse"
       id="clipPath31">
      <path
         d="M 0,0 H 2287.5 V 1125.7853 H 0 Z"
         transform="matrix(0.33398908,0,0,0.33398908,-0.49999999,-0.49999999)"
         clip-rule="evenodd"
         id="path31" />
    </clipPath>
    <clipPath
       clipPathUnits="userSpaceOnUse"
       id="clipPath32">
      <path
         d="M 0,0 H 2287.5 V 1125.7853 H 0 Z"
         transform="matrix(0.33398573,0,0,0.33398573,-634.48437,-261)"
         clip-rule="evenodd"
         id="path32" />
    </clipPath>
    <clipPath
       clipPathUnits="userSpaceOnUse"
       id="clipPath34">
      <path
         d="M 0,0 H 2287.5 V 1125.7853 H 0 Z"
         transform="matrix(0.33398908,0,0,0.33398908,-0.49999999,-0.49999999)"
         clip-rule="evenodd"
         id="path34" />
    </clipPath>
    <clipPath
       clipPathUnits="userSpaceOnUse"
       id="clipPath35">
      <path
         d="M 0,0 H 2287.5 V 1125.7853 H 0 Z"
         transform="matrix(0.33398573,0,0,0.33398573,-606.85938,-220.99999)"
         clip-rule="evenodd"
         id="path35" />
    </clipPath>
    <clipPath
       clipPathUnits="userSpaceOnUse"
       id="clipPath37">
      <path
         d="M 0,0 H 2287.5 V 1125.7853 H 0 Z"
         transform="matrix(0.33398908,0,0,0.33398908,-0.49999999,-0.49999999)"
         clip-rule="evenodd"
         id="path37" />
    </clipPath>
    <clipPath
       clipPathUnits="userSpaceOnUse"
       id="clipPath38">
      <path
         d="M 0,0 H 2287.5 V 1125.7853 H 0 Z"
         transform="matrix(0.33398573,0,0,0.33398573,-622.48438,-311)"
         clip-rule="evenodd"
         id="path38" />
    </clipPath>
    <clipPath
       clipPathUnits="userSpaceOnUse"
       id="clipPath40">
      <path
         d="M 0,0 H 2287.5 V 1125.7853 H 0 Z"
         transform="matrix(0.33398908,0,0,0.33398908,-0.49999999,-0.49999999)"
         clip-rule="evenodd"
         id="path40" />
    </clipPath>
    <clipPath
       clipPathUnits="userSpaceOnUse"
       id="clipPath41">
      <path
         d="M 0,0 H 2287.5 V 1125.7853 H 0 Z"
         transform="matrix(0.33398573,0,0,0.33398573,-559.8125,-26)"
         clip-rule="evenodd"
         id="path41" />
    </clipPath>
    <clipPath
       clipPathUnits="userSpaceOnUse"
       id="clipPath43">
      <path
         d="M 0,0 H 2287.5 V 1125.7853 H 0 Z"
         transform="matrix(0.33398908,0,0,0.33398908,-0.49999999,-0.49999999)"
         clip-rule="evenodd"
         id="path43" />
    </clipPath>
    <clipPath
       clipPathUnits="userSpaceOnUse"
       id="clipPath45">
      <path
         d="M 0,0 H 2287.5 V 1125.7853 H 0 Z"
         transform="matrix(0.33398908,0,0,0.33398908,-0.49999999,-0.49999999)"
         clip-rule="evenodd"
         id="path45" />
    </clipPath>
    <clipPath
       clipPathUnits="userSpaceOnUse"
       id="clipPath47">
      <path
         d="M 0,0 H 2287.5 V 1125.7853 H 0 Z"
         transform="matrix(0.33398908,0,0,0.33398908,-0.49999999,-0.49999999)"
         clip-rule="evenodd"
         id="path47" />
    </clipPath>
    <clipPath
       clipPathUnits="userSpaceOnUse"
       id="clipPath48">
      <path
         d="M 0,0 H 2287.5 V 1125.7853 H 0 Z"
         transform="matrix(0.33398573,0,0,0.33398573,-341.1875,-196)"
         clip-rule="evenodd"
         id="path48" />
    </clipPath>
    <clipPath
       clipPathUnits="userSpaceOnUse"
       id="clipPath50">
      <path
         d="M 0,0 H 2287.5 V 1125.7853 H 0 Z"
         transform="matrix(0,0.33398908,-0.33398908,0,638.14,-97.380006)"
         clip-rule="evenodd"
         id="path50" />
    </clipPath>
    <clipPath
       clipPathUnits="userSpaceOnUse"
       id="clipPath51">
      <path
         d="M 0,0 H 2287.5 V 1125.7853 H 0 Z"
         transform="matrix(0.33398573,0,0,0.33398573,-289.34375,-299)"
         clip-rule="evenodd"
         id="path51" />
    </clipPath>
    <clipPath
       clipPathUnits="userSpaceOnUse"
       id="clipPath52">
      <path
         d="M 0,0 H 2287.5 V 1125.7853 H 0 Z"
         transform="matrix(0.33398573,0,0,0.33398573,-295.6875,-322)"
         clip-rule="evenodd"
         id="path52" />
    </clipPath>
    <clipPath
       clipPathUnits="userSpaceOnUse"
       id="clipPath53">
      <path
         d="M 0,0 H 2287.5 V 1125.7853 H 0 Z"
         transform="matrix(0.33398573,0,0,0.33398573,-289.32813,-345)"
         clip-rule="evenodd"
         id="path53" />
    </clipPath>
    <clipPath
       clipPathUnits="userSpaceOnUse"
       id="clipPath54">
      <path
         d="M 0,0 H 2287.5 V 1125.7853 H 0 Z"
         transform="matrix(0.33398573,0,0,0.33398573,-291.45313,-367)"
         clip-rule="evenodd"
         id="path54" />
    </clipPath>
  </defs>
  <sodipodi:namedview
     id="namedview1"
     pagecolor="#ffffff"
     bordercolor="#000000"
     borderopacity="0.25"
     inkscape:showpageshadow="2"
     inkscape:pageopacity="0.0"
     inkscape:pagecheckerboard="0"
     inkscape:deskcolor="#d1d1d1">
    <inkscape:page
       x="0"
       y="0"
       inkscape:label="1"
       id="page1"
       width="732.15997"
       height="361.28"
       margin="0"
       bleed="0" />
  </sodipodi:namedview>
  <g
     id="g1"
     inkscape:groupmode="layer"
     inkscape:label="1">
    <path
       id="path1"
       d="M 0,0 H 764 V 377 H 0 Z"
       style="fill:#ffffff;fill-opacity:1;fill-rule:nonzero;stroke:none"
       transform="scale(0.95811513)"
       clip-path="url(#clipPath2)" />
    <path
       id="path3"
       d="m 261,188.5 h 25 l 14.89999,0.06"
       style="fill:none;stroke:#000000;stroke-width:1;stroke-linecap:butt;stroke-linejoin:miter;stroke-miterlimit:10;stroke-dasharray:none;stroke-opacity:1"
       transform="matrix(0.95811513,0,0,0.95811513,0.47905756,0.47905756)"
       clip-path="url(#clipPath4)" />
    <path
       id="path5"
       d="m 307.64999,188.59 -9.01999,4.46 2.26999,-4.49 -2.22998,-4.51 z"
       style="fill:#000000;fill-opacity:1;fill-rule:nonzero;stroke:#000000;stroke-width:1;stroke-linecap:butt;stroke-linejoin:miter;stroke-miterlimit:10;stroke-dasharray:none;stroke-opacity:1"
       transform="matrix(0.95811513,0,0,0.95811513,0.47905756,0.47905756)"
       clip-path="url(#clipPath6)" />
    <path
       id="path7"
       d="m 1,124.75 h 260 v 127.5 H 1 Z"
       style="fill:#e1d5e7;fill-opacity:0.9;fill-rule:nonzero;stroke:#9673a6;stroke-width:1;stroke-linecap:butt;stroke-linejoin:miter;stroke-miterlimit:10;stroke-dasharray:none;stroke-opacity:0.9"
       transform="matrix(0.95811513,0,0,0.95811513,0.47905756,0.47905756)"
       clip-path="url(#clipPath8)" />
    <text
       id="text8"
       xml:space="preserve"
       transform="matrix(0.95812473,0,0,0.95812473,12.455621,165.75558)"
       clip-path="url(#clipPath9)"><tspan
         style="font-variant:normal;font-weight:700;font-size:19px;font-family:Helvetica;writing-mode:lr-tb;fill:#000000;fill-opacity:1;fill-rule:nonzero;stroke:none"
         x="0 12.672852 25.345703 36.95166 49.624512 63.345703"
         y="0"
         sodipodi:role="line"
         id="tspan8">SELECT</tspan></text>
    <text
       id="text9"
       xml:space="preserve"
       transform="matrix(0.95812473,0,0,0.95812473,89.327821,165.75558)"
       clip-path="url(#clipPath10)"><tspan
         style="font-variant:normal;font-weight:normal;font-size:19px;font-family:Helvetica;writing-mode:lr-tb;fill:#000000;fill-opacity:1;fill-rule:nonzero;stroke:none"
         x="0"
         y="0"
         id="tspan9">*</tspan></text>
    <text
       id="text10"
       xml:space="preserve"
       transform="matrix(0.95812473,0,0,0.95812473,12.455621,187.79245)"
       clip-path="url(#clipPath11)"><tspan
         style="font-variant:normal;font-weight:700;font-size:19px;font-family:Helvetica;writing-mode:lr-tb;fill:#000000;fill-opacity:1;fill-rule:nonzero;stroke:none"
         x="0 11.605957 25.327148 40.105957"
         y="0"
         sodipodi:role="line"
         id="tspan10">FROM</tspan></text>
    <text
       id="text11"
       xml:space="preserve"
       transform="matrix(0.95812473,0,0,0.95812473,71.10848,187.79245)"
       clip-path="url(#clipPath12)"><tspan
         style="font-variant:normal;font-weight:normal;font-size:19px;font-family:Helvetica;writing-mode:lr-tb;fill:#000000;fill-opacity:1;fill-rule:nonzero;stroke:none"
         x="0 10.566895 20.066895 30.633789 36.960938"
         y="0"
         sodipodi:role="line"
         id="tspan11">users</tspan></text>
    <text
       id="text12"
       xml:space="preserve"
       transform="matrix(0.95812473,0,0,0.95812473,12.455621,209.82932)"
       clip-path="url(#clipPath13)"><tspan
         style="font-variant:normal;font-weight:700;font-size:19px;font-family:Helvetica;writing-mode:lr-tb;fill:#000000;fill-opacity:1;fill-rule:nonzero;stroke:none"
         x="0 17.933105 31.654297 44.327148 58.04834"
         y="0"
         sodipodi:role="line"
         id="tspan12">WHERE</tspan></text>
    <text
       id="text13"
       xml:space="preserve"
       transform="matrix(0.95812473,0,0,0.95812473,80.227975,209.82932)"
       clip-path="url(#clipPath14)"><tspan
         style="font-variant:normal;font-weight:normal;font-size:19px;font-family:Helvetica;writing-mode:lr-tb;fill:#000000;fill-opacity:1;fill-rule:nonzero;stroke:none"
         x="0 5.2788086 15.845703 25.345703 35.912598 42.239746 52.806641 63.373535 79.200684 89.767578 95.046387 106.14209 111.4209 115.04834 128.76953 132.99072 143.55762 154.12451 164.69141 168.31885"
         y="0"
         sodipodi:role="line"
         id="tspan13"> username = 'Riann';</tspan></text>
    <path
       id="path15"
       d="m 531.01001,36 h 230 v 305 h -230 z"
       style="fill:#ffffff;fill-opacity:1;fill-rule:nonzero;stroke:#000000;stroke-width:1;stroke-linecap:butt;stroke-linejoin:miter;stroke-miterlimit:10;stroke-dasharray:none;stroke-opacity:1"
       transform="matrix(0.95811513,0,0,0.95811513,0.47905756,0.47905756)"
       clip-path="url(#clipPath16)" />
    <path
       id="path17"
       d="m 541.01001,78.5 h 210 v 100 h -210 z"
       style="fill:#f5f5f5;fill-opacity:1;fill-rule:nonzero;stroke:#666666;stroke-width:1;stroke-linecap:butt;stroke-linejoin:miter;stroke-miterlimit:10;stroke-dasharray:none;stroke-opacity:1"
       transform="matrix(0.95811513,0,0,0.95811513,0.47905756,0.47905756)"
       clip-path="url(#clipPath18)" />
    <path
       id="path19"
       d="m 541.01001,78.5 h 210 v 50 h -210 z"
       style="fill:#fff2cc;fill-opacity:1;fill-rule:nonzero;stroke:#d6b656;stroke-width:1;stroke-linecap:butt;stroke-linejoin:miter;stroke-miterlimit:10;stroke-dasharray:none;stroke-opacity:1"
       transform="matrix(0.95811513,0,0,0.95811513,0.47905756,0.47905756)"
       clip-path="url(#clipPath20)" />
    <text
       id="text20"
       xml:space="preserve"
       transform="matrix(0.95812473,0,0,0.95812473,594.50143,106.35184)"
       clip-path="url(#clipPath21)"><tspan
         style="font-variant:normal;font-weight:normal;font-size:18px;font-family:Helvetica;writing-mode:lr-tb;fill:#000000;fill-opacity:1;fill-rule:nonzero;stroke:none"
         x="0 12.999023 23.009766 33.020508 42.020508"
         y="0"
         sodipodi:role="line"
         id="tspan20">Nancy</tspan></text>
    <path
       id="path22"
       d="m 541.01001,48.5 h 210 v 30 h -210 z"
       style="fill:#f5f5f5;fill-opacity:1;fill-rule:nonzero;stroke:#666666;stroke-width:1;stroke-linecap:butt;stroke-linejoin:miter;stroke-miterlimit:10;stroke-dasharray:none;stroke-opacity:1"
       transform="matrix(0.95811513,0,0,0.95811513,0.47905756,0.47905756)"
       clip-path="url(#clipPath23)" />
    <text
       id="text23"
       xml:space="preserve"
       transform="matrix(0.95812473,0,0,0.95812473,581.44698,68.026856)"
       clip-path="url(#clipPath24)"><tspan
         style="font-variant:normal;font-weight:700;font-size:22px;font-family:Helvetica;writing-mode:lr-tb;fill:#333333;fill-opacity:1;fill-rule:nonzero;stroke:none"
         x="0 15.887695 22 35.438477 47.673828 59.90918 66.021484"
         y="0"
         sodipodi:role="line"
         id="tspan23">Block 0</tspan></text>
    <path
       id="path25"
       d="m 541.01001,128.5 h 210 v 50 h -210 z"
       style="fill:#fff2cc;fill-opacity:1;fill-rule:nonzero;stroke:#d6b656;stroke-width:1;stroke-linecap:butt;stroke-linejoin:miter;stroke-miterlimit:10;stroke-dasharray:none;stroke-opacity:1"
       transform="matrix(0.95811513,0,0,0.95811513,0.47905756,0.47905756)"
       clip-path="url(#clipPath26)" />
    <text
       id="text26"
       xml:space="preserve"
       transform="matrix(0.95812473,0,0,0.95812473,608.8733,153.29996)"
       clip-path="url(#clipPath27)"><tspan
         style="font-variant:normal;font-weight:normal;font-size:18px;font-family:Helvetica;writing-mode:lr-tb;fill:#000000;fill-opacity:1;fill-rule:nonzero;stroke:none"
         x="0 12.005859 16.004883"
         y="0"
         sodipodi:role="line"
         id="tspan26">Alf</tspan></text>
    <path
       id="path28"
       d="m 541.01001,228.5 h 210 v 100 h -210 z"
       style="fill:#f5f5f5;fill-opacity:1;fill-rule:nonzero;stroke:#666666;stroke-width:1;stroke-linecap:butt;stroke-linejoin:miter;stroke-miterlimit:10;stroke-dasharray:none;stroke-opacity:1"
       transform="matrix(0.95811513,0,0,0.95811513,0.47905756,0.47905756)"
       clip-path="url(#clipPath29)" />
    <path
       id="path30"
       d="m 541.01001,228.5 h 210 v 50 h -210 z"
       style="fill:#fff2cc;fill-opacity:1;fill-rule:nonzero;stroke:#d6b656;stroke-width:1;stroke-linecap:butt;stroke-linejoin:miter;stroke-miterlimit:10;stroke-dasharray:none;stroke-opacity:1"
       transform="matrix(0.95811513,0,0,0.95811513,0.47905756,0.47905756)"
       clip-path="url(#clipPath31)" />
    <text
       id="text31"
       xml:space="preserve"
       transform="matrix(0.95812473,0,0,0.95812473,607.91517,250.07055)"
       clip-path="url(#clipPath32)"><tspan
         style="font-variant:normal;font-weight:normal;font-size:18px;font-family:Helvetica;writing-mode:lr-tb;fill:#000000;fill-opacity:1;fill-rule:nonzero;stroke:none"
         x="0 9 12.999023"
         y="0"
         sodipodi:role="line"
         id="tspan31">Jia</tspan></text>
    <path
       id="path33"
       d="m 541.01001,198.5 h 210 v 30 h -210 z"
       style="fill:#f5f5f5;fill-opacity:1;fill-rule:nonzero;stroke:#666666;stroke-width:1;stroke-linecap:butt;stroke-linejoin:miter;stroke-miterlimit:10;stroke-dasharray:none;stroke-opacity:1"
       transform="matrix(0.95811513,0,0,0.95811513,0.47905756,0.47905756)"
       clip-path="url(#clipPath34)" />
    <text
       id="text34"
       xml:space="preserve"
       transform="matrix(0.95812473,0,0,0.95812473,581.44698,211.74556)"
       clip-path="url(#clipPath35)"><tspan
         style="font-variant:normal;font-weight:700;font-size:22px;font-family:Helvetica;writing-mode:lr-tb;fill:#333333;fill-opacity:1;fill-rule:nonzero;stroke:none"
         x="0 15.887695 22 35.438477 47.673828 59.90918 66.021484"
         y="0"
         sodipodi:role="line"
         id="tspan34">Block 1</tspan></text>
    <path
       id="path36"
       d="m 541.01001,278.5 h 210 v 50 h -210 z"
       style="fill:#fff2cc;fill-opacity:1;fill-rule:nonzero;stroke:#d6b656;stroke-width:1;stroke-linecap:butt;stroke-linejoin:miter;stroke-miterlimit:10;stroke-dasharray:none;stroke-opacity:1"
       transform="matrix(0.95811513,0,0,0.95811513,0.47905756,0.47905756)"
       clip-path="url(#clipPath37)" />
    <text
       id="text37"
       xml:space="preserve"
       transform="matrix(0.95812473,0,0,0.95812473,596.41768,297.97679)"
       clip-path="url(#clipPath38)"><tspan
         style="font-variant:normal;font-weight:normal;font-size:18px;font-family:Helvetica;writing-mode:lr-tb;fill:#000000;fill-opacity:1;fill-rule:nonzero;stroke:none"
         x="0 12.999023 16.998047 27.008789 37.019531"
         y="0"
         sodipodi:role="line"
         id="tspan37">Riann</tspan></text>
    <path
       id="path39"
       d="m 531.01001,1 h 230 v 35 h -230 z"
       style="fill:#ffffff;fill-opacity:1;fill-rule:nonzero;stroke:#000000;stroke-width:1;stroke-linecap:butt;stroke-linejoin:miter;stroke-miterlimit:10;stroke-dasharray:none;stroke-opacity:1"
       transform="matrix(0.95811513,0,0,0.95811513,0.47905756,0.47905756)"
       clip-path="url(#clipPath40)" />
    <text
       id="text40"
       xml:space="preserve"
       transform="matrix(0.95812473,0,0,0.95812473,536.3702,24.911243)"
       clip-path="url(#clipPath41)"><tspan
         style="font-style:oblique;font-variant:normal;font-weight:700;font-size:22px;font-family:Helvetica;writing-mode:lr-tb;fill:#000000;fill-opacity:1;fill-rule:nonzero;stroke:none"
         x="0 15.887695 28.123047 40.358398 53.796875 59.90918 73.347656 79.459961 85.572266 97.807617 103.91992 121.03223 134.4707 140.58301 156.4707"
         y="0"
         sodipodi:role="line"
         id="tspan40">Heap File On HD</tspan></text>
    <path
       id="path42"
       d="m 421,188.5 h 60 v 115 h 49.90002"
       style="fill:none;stroke:#000000;stroke-width:1;stroke-linecap:butt;stroke-linejoin:miter;stroke-miterlimit:10;stroke-dasharray:none;stroke-opacity:1"
       transform="matrix(0.95811513,0,0,0.95811513,0.47905756,0.47905756)"
       clip-path="url(#clipPath43)" />
    <path
       id="path44"
       d="m 537.65002,303.5 -9,4.5 2.25,-4.5 -2.25,-4.5 z"
       style="fill:#000000;fill-opacity:1;fill-rule:nonzero;stroke:#000000;stroke-width:1;stroke-linecap:butt;stroke-linejoin:miter;stroke-miterlimit:10;stroke-dasharray:none;stroke-opacity:1"
       transform="matrix(0.95811513,0,0,0.95811513,0.47905756,0.47905756)"
       clip-path="url(#clipPath45)" />
    <path
       id="path46"
       d="m 311,124.75 h 110 v 127.5 H 311 Z"
       style="fill:#dae8fc;fill-opacity:0.9;fill-rule:nonzero;stroke:#6c8ebf;stroke-width:1;stroke-linecap:butt;stroke-linejoin:miter;stroke-miterlimit:10;stroke-dasharray:none;stroke-opacity:0.9"
       transform="matrix(0.95811513,0,0,0.95811513,0.47905756,0.47905756)"
       clip-path="url(#clipPath47)" />
    <text
       id="text47"
       xml:space="preserve"
       transform="matrix(0.95812473,0,0,0.95812473,326.90018,187.79245)"
       clip-path="url(#clipPath48)"><tspan
         style="font-variant:normal;font-weight:700;font-size:19px;font-family:Helvetica;writing-mode:lr-tb;fill:#000000;fill-opacity:1;fill-rule:nonzero;stroke:none"
         x="0 5.2788086 16.884766 28.490723 39.057617"
         y="0"
         sodipodi:role="line"
         id="tspan47">Index</tspan></text>
    <path
       id="path49"
       d="m 380.38,215.38 h -6.55999 c -4.37332,0 -6.56,3.33333 -6.56,10 v 35 c 0,6.66666 -2.18668,10 -6.56,10 H 357.41 c -2.18667,0 -1.08999,0 3.29001,0 h 3.28 c 2.18668,0 3.28,3.33335 3.28,10 v 35 c 0,6.66666 2.18668,10 6.56,10 H 380.38"
       style="fill:none;stroke:#000000;stroke-width:1;stroke-linecap:butt;stroke-linejoin:miter;stroke-miterlimit:10;stroke-dasharray:none;stroke-opacity:1"
       transform="matrix(0,-0.95811513,0.95811513,0,93.301257,611.41159)"
       clip-path="url(#clipPath50)" />
    <text
       id="text50"
       xml:space="preserve"
       transform="matrix(0.95812473,0,0,0.95812473,277.2274,286.47929)"
       clip-path="url(#clipPath51)"><tspan
         style="font-style:oblique;font-variant:normal;font-weight:normal;font-size:19px;font-family:Helvetica;writing-mode:lr-tb;fill:#000000;fill-opacity:1;fill-rule:nonzero;stroke:none"
         x="0 13.721191 24.288086 29.566895 40.133789 45.412598 54.912598 60.191406 66.518555 77.085449 86.585449 91.864258 102.43115 108.7583 119.3252 124.604 129.88281 140.44971 151.0166"
         y="0"
         sodipodi:role="line"
         id="tspan50">Data structure that</tspan></text>
    <g
       id="g51" />
    <text
       id="text51"
       xml:space="preserve"
       transform="matrix(0.95812473,0,0,0.95812473,283.30551,308.51616)"
       clip-path="url(#clipPath52)"><tspan
         style="font-style:oblique;font-variant:normal;font-weight:normal;font-size:19px;font-family:Helvetica;writing-mode:lr-tb;fill:#000000;fill-opacity:1;fill-rule:nonzero;stroke:none"
         x="0 10.566895 15.845703 25.345703 34.845703 39.066895 49.633789 60.200684 65.479492 69.700684 79.200684 84.479492 89.758301 100.3252 104.54639 108.76758 118.26758 123.54639 134.11328"
         y="0"
         sodipodi:role="line"
         id="tspan51">efﬁciently tells us</tspan></text>
    <text
       id="text52"
       xml:space="preserve"
       transform="matrix(0.95812473,0,0,0.95812473,277.21244,330.55303)"
       clip-path="url(#clipPath53)"><tspan
         style="font-style:oblique;font-variant:normal;font-weight:normal;font-size:19px;font-family:Helvetica;writing-mode:lr-tb;fill:#000000;fill-opacity:1;fill-rule:nonzero;stroke:none"
         x="0 13.721191 24.288086 34.85498 40.133789 45.412598 55.979492 60.200684 70.767578 80.267578 89.767578 95.046387 99.267578 109.83447 120.40137 130.96826 140.46826 145.74707"
         y="0"
         sodipodi:role="line"
         id="tspan52">what block/index a</tspan></text>
    <text
       id="text53"
       xml:space="preserve"
       transform="matrix(0.95812473,0,0,0.95812473,279.24845,351.63178)"
       clip-path="url(#clipPath54)"><tspan
         style="font-style:oblique;font-variant:normal;font-weight:normal;font-size:19px;font-family:Helvetica;writing-mode:lr-tb;fill:#000000;fill-opacity:1;fill-rule:nonzero;stroke:none"
         x="0 6.3271484 16.894043 26.394043 36.960938 43.288086 53.85498 59.133789 63.35498 72.85498 78.133789 87.633789 92.912598 103.47949 109.80664 120.37354 130.94043 136.21924 146.78613"
         y="0"
         sodipodi:role="line"
         id="tspan53">record is stored at</tspan></text>
  </g>
</svg>
