<?xml version="1.0" encoding="UTF-8" standalone="no"?>
<!-- Created with Inkscape (http://www.inkscape.org/) -->

<svg
   version="1.1"
   id="svg1"
   width="821.43994"
   height="340.16"
   viewBox="0 0 821.43994 340.16"
   sodipodi:docname="sql-16.pdf"
   xmlns:inkscape="http://www.inkscape.org/namespaces/inkscape"
   xmlns:sodipodi="http://sodipodi.sourceforge.net/DTD/sodipodi-0.dtd"
   xmlns="http://www.w3.org/2000/svg"
   xmlns:svg="http://www.w3.org/2000/svg">
  <defs
     id="defs1">
    <clipPath
       clipPathUnits="userSpaceOnUse"
       id="clipPath2">
      <path
         d="M 0,0 H 2566.6667 V 1060.2101 H 0 Z"
         transform="scale(0.3338961)"
         clip-rule="evenodd"
         id="path2" />
    </clipPath>
    <clipPath
       clipPathUnits="userSpaceOnUse"
       id="clipPath4">
      <path
         d="M 0,0 H 2566.6667 V 1057.2151 H 0 Z"
         transform="matrix(0.3338961,0,0,0.3338961,-0.50000001,-0.50000001)"
         clip-rule="evenodd"
         id="path4" />
    </clipPath>
    <clipPath
       clipPathUnits="userSpaceOnUse"
       id="clipPath6">
      <path
         d="M 0,0 H 2566.6667 V 1057.2151 H 0 Z"
         transform="matrix(0.3338961,0,0,0.3338961,-0.50000001,-0.50000001)"
         clip-rule="evenodd"
         id="path6" />
    </clipPath>
    <clipPath
       clipPathUnits="userSpaceOnUse"
       id="clipPath8">
      <path
         d="M 0,0 H 2566.6667 V 1057.2151 H 0 Z"
         transform="matrix(0.3338961,0,0,0.3338961,-0.50000001,-0.50000001)"
         clip-rule="evenodd"
         id="path8" />
    </clipPath>
    <clipPath
       clipPathUnits="userSpaceOnUse"
       id="clipPath9">
      <path
         d="M 0,0 H 2566.6667 V 1057.2151 H 0 Z"
         transform="matrix(0.33389275,0,0,0.33389275,-60.3125,-126)"
         clip-rule="evenodd"
         id="path9" />
    </clipPath>
    <clipPath
       clipPathUnits="userSpaceOnUse"
       id="clipPath10">
      <path
         d="M 0,0 H 2566.6667 V 1057.2151 H 0 Z"
         transform="matrix(0.33389275,0,0,0.33389275,-83,-149)"
         clip-rule="evenodd"
         id="path10" />
    </clipPath>
    <clipPath
       clipPathUnits="userSpaceOnUse"
       id="clipPath11">
      <path
         d="M 0,0 H 2566.6667 V 1057.2151 H 0 Z"
         transform="matrix(0.33389275,0,0,0.33389275,-79.296875,-172.00001)"
         clip-rule="evenodd"
         id="path11" />
    </clipPath>
    <clipPath
       clipPathUnits="userSpaceOnUse"
       id="clipPath12">
      <path
         d="M 0,0 H 2566.6667 V 1057.2151 H 0 Z"
         transform="matrix(0.33389275,0,0,0.33389275,-77.703125,-195)"
         clip-rule="evenodd"
         id="path12" />
    </clipPath>
    <clipPath
       clipPathUnits="userSpaceOnUse"
       id="clipPath13">
      <path
         d="M 0,0 H 2566.6667 V 1057.2151 H 0 Z"
         transform="matrix(0.33389275,0,0,0.33389275,-70.3125,-217.00001)"
         clip-rule="evenodd"
         id="path13" />
    </clipPath>
    <clipPath
       clipPathUnits="userSpaceOnUse"
       id="clipPath14">
      <path
         d="M 0,0 H 2566.6667 V 1057.2151 H 0 Z"
         transform="matrix(0.33389275,0,0,0.33389275,-119.95312,-240)"
         clip-rule="evenodd"
         id="path14" />
    </clipPath>
    <clipPath
       clipPathUnits="userSpaceOnUse"
       id="clipPath16">
      <path
         d="M 0,0 H 2566.6667 V 1057.2151 H 0 Z"
         transform="matrix(0.3338961,0,0,0.3338961,-0.50000001,-0.50000001)"
         clip-rule="evenodd"
         id="path16" />
    </clipPath>
    <clipPath
       clipPathUnits="userSpaceOnUse"
       id="clipPath18">
      <path
         d="M 0,0 H 2566.6667 V 1057.2151 H 0 Z"
         transform="matrix(0.3338961,0,0,0.3338961,-0.50000001,-0.50000001)"
         clip-rule="evenodd"
         id="path18" />
    </clipPath>
    <clipPath
       clipPathUnits="userSpaceOnUse"
       id="clipPath20">
      <path
         d="M 0,0 H 2566.6667 V 1057.2151 H 0 Z"
         transform="matrix(0.3338961,0,0,0.3338961,-0.50000001,-0.50000001)"
         clip-rule="evenodd"
         id="path20" />
    </clipPath>
    <clipPath
       clipPathUnits="userSpaceOnUse"
       id="clipPath22">
      <path
         d="M 0,0 H 2566.6667 V 1057.2151 H 0 Z"
         transform="matrix(0.3338961,0,0,0.3338961,-0.50000001,-0.50000001)"
         clip-rule="evenodd"
         id="path22" />
    </clipPath>
    <clipPath
       clipPathUnits="userSpaceOnUse"
       id="clipPath24">
      <path
         d="M 0,0 H 2566.6667 V 1057.2151 H 0 Z"
         transform="matrix(0.3338961,0,0,0.3338961,-0.50000001,-0.50000001)"
         clip-rule="evenodd"
         id="path24" />
    </clipPath>
    <clipPath
       clipPathUnits="userSpaceOnUse"
       id="clipPath26">
      <path
         d="M 0,0 H 2566.6667 V 1057.2151 H 0 Z"
         transform="matrix(0.3338961,0,0,0.3338961,-0.50000001,-0.50000001)"
         clip-rule="evenodd"
         id="path26" />
    </clipPath>
    <clipPath
       clipPathUnits="userSpaceOnUse"
       id="clipPath28">
      <path
         d="M 0,0 H 2566.6667 V 1057.2151 H 0 Z"
         transform="matrix(0.3338961,0,0,0.3338961,-0.50000001,-0.50000001)"
         clip-rule="evenodd"
         id="path28" />
    </clipPath>
    <clipPath
       clipPathUnits="userSpaceOnUse"
       id="clipPath30">
      <path
         d="M 0,0 H 2566.6667 V 1057.2151 H 0 Z"
         transform="matrix(0.3338961,0,0,0.3338961,-0.50000001,-0.50000001)"
         clip-rule="evenodd"
         id="path30" />
    </clipPath>
    <clipPath
       clipPathUnits="userSpaceOnUse"
       id="clipPath32">
      <path
         d="M 0,0 H 2566.6667 V 1057.2151 H 0 Z"
         transform="matrix(0.3338961,0,0,0.3338961,-0.50000001,-0.50000001)"
         clip-rule="evenodd"
         id="path32" />
    </clipPath>
    <clipPath
       clipPathUnits="userSpaceOnUse"
       id="clipPath34">
      <path
         d="M 0,0 H 2566.6667 V 1057.2151 H 0 Z"
         transform="matrix(0.3338961,0,0,0.3338961,-0.50000001,-0.50000001)"
         clip-rule="evenodd"
         id="path34" />
    </clipPath>
    <clipPath
       clipPathUnits="userSpaceOnUse"
       id="clipPath36">
      <path
         d="M 0,0 H 2566.6667 V 1057.2151 H 0 Z"
         transform="matrix(0.3338961,0,0,0.3338961,-0.50000001,-0.50000001)"
         clip-rule="evenodd"
         id="path36" />
    </clipPath>
    <clipPath
       clipPathUnits="userSpaceOnUse"
       id="clipPath38">
      <path
         d="M 0,0 H 2566.6667 V 1057.2151 H 0 Z"
         transform="matrix(0.3338961,0,0,0.3338961,-0.50000001,-0.50000001)"
         clip-rule="evenodd"
         id="path38" />
    </clipPath>
    <clipPath
       clipPathUnits="userSpaceOnUse"
       id="clipPath39">
      <path
         d="M 0,0 H 2566.6667 V 1057.2151 H 0 Z"
         transform="matrix(0.33389275,0,0,0.33389275,-538.50001,-43)"
         clip-rule="evenodd"
         id="path39" />
    </clipPath>
    <clipPath
       clipPathUnits="userSpaceOnUse"
       id="clipPath41">
      <path
         d="M 0,0 H 2566.6667 V 1057.2151 H 0 Z"
         transform="matrix(0.3338961,0,0,0.3338961,-0.50000001,-0.50000001)"
         clip-rule="evenodd"
         id="path41" />
    </clipPath>
    <clipPath
       clipPathUnits="userSpaceOnUse"
       id="clipPath42">
      <path
         d="M 0,0 H 2566.6667 V 1057.2151 H 0 Z"
         transform="matrix(0.33389275,0,0,0.33389275,-393.48438,-223)"
         clip-rule="evenodd"
         id="path42" />
    </clipPath>
    <clipPath
       clipPathUnits="userSpaceOnUse"
       id="clipPath44">
      <path
         d="M 0,0 H 2566.6667 V 1057.2151 H 0 Z"
         transform="matrix(0.3338961,0,0,0.3338961,-0.50000001,-0.50000001)"
         clip-rule="evenodd"
         id="path44" />
    </clipPath>
    <clipPath
       clipPathUnits="userSpaceOnUse"
       id="clipPath45">
      <path
         d="M 0,0 H 2566.6667 V 1057.2151 H 0 Z"
         transform="matrix(0.33389275,0,0,0.33389275,-683.48438,-223)"
         clip-rule="evenodd"
         id="path45" />
    </clipPath>
    <clipPath
       clipPathUnits="userSpaceOnUse"
       id="clipPath47">
      <path
         d="M 0,0 H 2566.6667 V 1057.2151 H 0 Z"
         transform="matrix(0.3338961,0,0,0.3338961,-0.50000001,-0.50000001)"
         clip-rule="evenodd"
         id="path47" />
    </clipPath>
    <clipPath
       clipPathUnits="userSpaceOnUse"
       id="clipPath48">
      <path
         d="M 0,0 H 2566.6667 V 1057.2151 H 0 Z"
         transform="matrix(0.33389275,0,0,0.33389275,-368.48438,-270)"
         clip-rule="evenodd"
         id="path48" />
    </clipPath>
    <clipPath
       clipPathUnits="userSpaceOnUse"
       id="clipPath50">
      <path
         d="M 0,0 H 2566.6667 V 1057.2151 H 0 Z"
         transform="matrix(0.3338961,0,0,0.3338961,-0.50000001,-0.50000001)"
         clip-rule="evenodd"
         id="path50" />
    </clipPath>
    <clipPath
       clipPathUnits="userSpaceOnUse"
       id="clipPath51">
      <path
         d="M 0,0 H 2566.6667 V 1057.2151 H 0 Z"
         transform="matrix(0.33389275,0,0,0.33389275,-359.3125,-300)"
         clip-rule="evenodd"
         id="path51" />
    </clipPath>
    <clipPath
       clipPathUnits="userSpaceOnUse"
       id="clipPath52">
      <path
         d="M 0,0 H 2566.6667 V 1057.2151 H 0 Z"
         transform="matrix(0.33389275,0,0,0.33389275,-359.3125,-315.00001)"
         clip-rule="evenodd"
         id="path52" />
    </clipPath>
    <clipPath
       clipPathUnits="userSpaceOnUse"
       id="clipPath54">
      <path
         d="M 0,0 H 2566.6667 V 1057.2151 H 0 Z"
         transform="matrix(0.3338961,0,0,0.3338961,-0.50000001,-0.50000001)"
         clip-rule="evenodd"
         id="path54" />
    </clipPath>
    <clipPath
       clipPathUnits="userSpaceOnUse"
       id="clipPath55">
      <path
         d="M 0,0 H 2566.6667 V 1057.2151 H 0 Z"
         transform="matrix(0.33389275,0,0,0.33389275,-755.48438,-270)"
         clip-rule="evenodd"
         id="path55" />
    </clipPath>
    <clipPath
       clipPathUnits="userSpaceOnUse"
       id="clipPath57">
      <path
         d="M 0,0 H 2566.6667 V 1057.2151 H 0 Z"
         transform="matrix(0.3338961,0,0,0.3338961,-0.50000001,-0.50000001)"
         clip-rule="evenodd"
         id="path57" />
    </clipPath>
    <clipPath
       clipPathUnits="userSpaceOnUse"
       id="clipPath58">
      <path
         d="M 0,0 H 2566.6667 V 1057.2151 H 0 Z"
         transform="matrix(0.33389275,0,0,0.33389275,-759.3125,-300)"
         clip-rule="evenodd"
         id="path58" />
    </clipPath>
    <clipPath
       clipPathUnits="userSpaceOnUse"
       id="clipPath59">
      <path
         d="M 0,0 H 2566.6667 V 1057.2151 H 0 Z"
         transform="matrix(0.33389275,0,0,0.33389275,-759.3125,-315.00001)"
         clip-rule="evenodd"
         id="path59" />
    </clipPath>
    <clipPath
       clipPathUnits="userSpaceOnUse"
       id="clipPath61">
      <path
         d="M 0,0 H 2566.6667 V 1057.2151 H 0 Z"
         transform="matrix(0.3338961,0,0,0.3338961,-0.50000001,-0.50000001)"
         clip-rule="evenodd"
         id="path61" />
    </clipPath>
    <clipPath
       clipPathUnits="userSpaceOnUse"
       id="clipPath62">
      <path
         d="M 0,0 H 2566.6667 V 1057.2151 H 0 Z"
         transform="matrix(0.33389275,0,0,0.33389275,-643.48438,-270)"
         clip-rule="evenodd"
         id="path62" />
    </clipPath>
    <clipPath
       clipPathUnits="userSpaceOnUse"
       id="clipPath64">
      <path
         d="M 0,0 H 2566.6667 V 1057.2151 H 0 Z"
         transform="matrix(0.3338961,0,0,0.3338961,-0.50000001,-0.50000001)"
         clip-rule="evenodd"
         id="path64" />
    </clipPath>
    <clipPath
       clipPathUnits="userSpaceOnUse"
       id="clipPath65">
      <path
         d="M 0,0 H 2566.6667 V 1057.2151 H 0 Z"
         transform="matrix(0.33389275,0,0,0.33389275,-649.3125,-300)"
         clip-rule="evenodd"
         id="path65" />
    </clipPath>
    <clipPath
       clipPathUnits="userSpaceOnUse"
       id="clipPath66">
      <path
         d="M 0,0 H 2566.6667 V 1057.2151 H 0 Z"
         transform="matrix(0.33389275,0,0,0.33389275,-649.3125,-315.00001)"
         clip-rule="evenodd"
         id="path66" />
    </clipPath>
    <clipPath
       clipPathUnits="userSpaceOnUse"
       id="clipPath68">
      <path
         d="M 0,0 H 2566.6667 V 1057.2151 H 0 Z"
         transform="matrix(0.3338961,0,0,0.3338961,-0.50000001,-0.50000001)"
         clip-rule="evenodd"
         id="path68" />
    </clipPath>
    <clipPath
       clipPathUnits="userSpaceOnUse"
       id="clipPath69">
      <path
         d="M 0,0 H 2566.6667 V 1057.2151 H 0 Z"
         transform="matrix(0.33389275,0,0,0.33389275,-477.48438,-270)"
         clip-rule="evenodd"
         id="path69" />
    </clipPath>
    <clipPath
       clipPathUnits="userSpaceOnUse"
       id="clipPath71">
      <path
         d="M 0,0 H 2566.6667 V 1057.2151 H 0 Z"
         transform="matrix(0.3338961,0,0,0.3338961,-0.50000001,-0.50000001)"
         clip-rule="evenodd"
         id="path71" />
    </clipPath>
    <clipPath
       clipPathUnits="userSpaceOnUse"
       id="clipPath72">
      <path
         d="M 0,0 H 2566.6667 V 1057.2151 H 0 Z"
         transform="matrix(0.33389275,0,0,0.33389275,-469.3125,-300)"
         clip-rule="evenodd"
         id="path72" />
    </clipPath>
    <clipPath
       clipPathUnits="userSpaceOnUse"
       id="clipPath73">
      <path
         d="M 0,0 H 2566.6667 V 1057.2151 H 0 Z"
         transform="matrix(0.33389275,0,0,0.33389275,-469.3125,-315.00001)"
         clip-rule="evenodd"
         id="path73" />
    </clipPath>
  </defs>
  <sodipodi:namedview
     id="namedview1"
     pagecolor="#ffffff"
     bordercolor="#000000"
     borderopacity="0.25"
     inkscape:showpageshadow="2"
     inkscape:pageopacity="0.0"
     inkscape:pagecheckerboard="0"
     inkscape:deskcolor="#d1d1d1">
    <inkscape:page
       x="0"
       y="0"
       inkscape:label="1"
       id="page1"
       width="821.43994"
       height="340.16"
       margin="0"
       bleed="0" />
  </sodipodi:namedview>
  <g
     id="g1"
     inkscape:groupmode="layer"
     inkscape:label="1">
    <path
       id="path1"
       d="M 0,0 H 857 V 354 H 0 Z"
       style="fill:#ffffff;fill-opacity:1;fill-rule:nonzero;stroke:none"
       transform="scale(0.95838191)"
       clip-path="url(#clipPath2)" />
    <path
       id="path3"
       d="m 9,175.5 25.5,0.5 14.400002,-0.28999"
       style="fill:none;stroke:#000000;stroke-width:1;stroke-linecap:butt;stroke-linejoin:miter;stroke-miterlimit:10;stroke-dasharray:none;stroke-opacity:1"
       transform="matrix(0.95838191,0,0,0.95838191,0.47919096,0.47919096)"
       clip-path="url(#clipPath4)" />
    <path
       id="path5"
       d="m 55.650002,175.57001 -8.91,4.67999 2.16,-4.53999 -2.340001,-4.46001 z"
       style="fill:#000000;fill-opacity:1;fill-rule:nonzero;stroke:#000000;stroke-width:1;stroke-linecap:butt;stroke-linejoin:miter;stroke-miterlimit:10;stroke-dasharray:none;stroke-opacity:1"
       transform="matrix(0.95838191,0,0,0.95838191,0.47919096,0.47919096)"
       clip-path="url(#clipPath6)" />
    <path
       id="path7"
       d="M 59,103 H 239 V 248 H 59 Z"
       style="fill:#dae8fc;fill-opacity:1;fill-rule:nonzero;stroke:#6c8ebf;stroke-width:1;stroke-linecap:butt;stroke-linejoin:miter;stroke-miterlimit:10;stroke-dasharray:none;stroke-opacity:1"
       transform="matrix(0.95838191,0,0,0.95838191,0.47919096,0.47919096)"
       clip-path="url(#clipPath8)" />
    <text
       id="text8"
       xml:space="preserve"
       transform="matrix(0.95839154,0,0,0.95839154,57.80299,120.75733)"
       clip-path="url(#clipPath9)"><tspan
         style="font-variant:normal;font-weight:700;font-size:19px;font-family:Helvetica;writing-mode:lr-tb;fill:#000000;fill-opacity:1;fill-rule:nonzero;stroke:none"
         x="0 14.778809 22.172852 33.778809 44.345703 55.95166 61.230469 70.730469 81.297363 86.576172 91.85498 103.46094 109.78809 121.39404 126.67285 137.23975 142.51855 148.8457 156.23975 166.80664"
         y="0"
         sodipodi:role="line"
         id="tspan8">Organize into a tree</tspan></text>
    <text
       id="text9"
       xml:space="preserve"
       transform="matrix(0.95839154,0,0,0.95839154,79.546498,142.80034)"
       clip-path="url(#clipPath10)"><tspan
         style="font-variant:normal;font-weight:700;font-size:19px;font-family:Helvetica;writing-mode:lr-tb;fill:#000000;fill-opacity:1;fill-rule:nonzero;stroke:none"
         x="0 11.605957 22.172852 28.5 39.066895 44.345703 54.912598 61.239746 68.633789 80.239746 90.806641 97.133789 108.73975 116.13379 126.70068"
         y="0"
         sodipodi:role="line"
         id="tspan9">data structure.</tspan></text>
    <text
       id="text10"
       xml:space="preserve"
       transform="matrix(0.95839154,0,0,0.95839154,75.997454,164.84335)"
       clip-path="url(#clipPath11)"><tspan
         style="font-variant:normal;font-weight:normal;font-size:19px;font-family:Helvetica;writing-mode:lr-tb;fill:#000000;fill-opacity:1;fill-rule:nonzero;stroke:none"
         x="0 12.672852 22.172852 32.739746 43.306641 47.527832 57.027832 62.306641 72.873535 77.094727 86.594727 91.873535 98.200684 102.42188 112.98877 123.55566 128.83447"
         y="0"
         sodipodi:role="line"
         id="tspan10">Evenly distribute</tspan></text>
    <text
       id="text11"
       xml:space="preserve"
       transform="matrix(0.95839154,0,0,0.95839154,74.470018,186.88635)"
       clip-path="url(#clipPath12)"><tspan
         style="font-variant:normal;font-weight:normal;font-size:19px;font-family:Helvetica;writing-mode:lr-tb;fill:#000000;fill-opacity:1;fill-rule:nonzero;stroke:none"
         x="0 9.5 20.066895 24.288086 34.85498 45.421875 54.921875 60.200684 64.421875 74.98877 80.267578 85.546387 96.113281 106.68018 111.95898 116.18018 126.74707 137.31396"
         y="0"
         sodipodi:role="line"
         id="tspan11">values in the leaf</tspan></text>
    <text
       id="text12"
       xml:space="preserve"
       transform="matrix(0.95839154,0,0,0.95839154,67.386905,207.97097)"
       clip-path="url(#clipPath13)"><tspan
         style="font-variant:normal;font-weight:normal;font-size:19px;font-family:Helvetica;writing-mode:lr-tb;fill:#000000;fill-opacity:1;fill-rule:nonzero;stroke:none"
         x="0 10.566895 21.133789 31.700684 42.267578 51.767578 57.046387 62.325195 66.546387 77.113281 82.39209 92.958984 99.286133 109.85303 120.41992 126.74707 132.02588 136.24707 146.81396 152.09277"
         y="0"
         sodipodi:role="line"
         id="tspan12">nodes, in order left</tspan></text>
    <text
       id="text13"
       xml:space="preserve"
       transform="matrix(0.95839154,0,0,0.95839154,114.96206,230.01397)"
       clip-path="url(#clipPath14)"><tspan
         style="font-variant:normal;font-weight:normal;font-size:19px;font-family:Helvetica;writing-mode:lr-tb;fill:#000000;fill-opacity:1;fill-rule:nonzero;stroke:none"
         x="0 5.2788086 15.845703 21.124512 27.45166 31.672852 42.239746 52.806641"
         y="0"
         sodipodi:role="line"
         id="tspan13">to right</tspan></text>
    <path
       id="path15"
       d="m 239,177.66 h 39.89999"
       style="fill:none;stroke:#000000;stroke-width:1;stroke-linecap:butt;stroke-linejoin:miter;stroke-miterlimit:10;stroke-dasharray:none;stroke-opacity:1"
       transform="matrix(0.95838191,0,0,0.95838191,0.47919096,0.47919096)"
       clip-path="url(#clipPath16)" />
    <path
       id="path17"
       d="m 285.64999,177.66 -9,4.5 2.25,-4.5 -2.25,-4.5 z"
       style="fill:#000000;fill-opacity:1;fill-rule:nonzero;stroke:#000000;stroke-width:1;stroke-linecap:butt;stroke-linejoin:miter;stroke-miterlimit:10;stroke-dasharray:none;stroke-opacity:1"
       transform="matrix(0.95838191,0,0,0.95838191,0.47919096,0.47919096)"
       clip-path="url(#clipPath18)" />
    <path
       id="path19"
       d="m 309,0.5 h 545.01001 v 350 H 309 Z"
       style="fill:#f5f5f5;fill-opacity:1;fill-rule:nonzero;stroke:#666666;stroke-width:1;stroke-linecap:butt;stroke-linejoin:miter;stroke-miterlimit:10;stroke-dasharray:none;stroke-opacity:1"
       transform="matrix(0.95838191,0,0,0.95838191,0.47919096,0.47919096)"
       clip-path="url(#clipPath20)" />
    <path
       id="path21"
       d="m 611.51001,230.5 h 230 V 338 h -230 z"
       style="fill:#ffffff;fill-opacity:1;fill-rule:nonzero;stroke:#000000;stroke-width:1;stroke-linecap:butt;stroke-linejoin:miter;stroke-miterlimit:10;stroke-dasharray:none;stroke-opacity:1"
       transform="matrix(0.95838191,0,0,0.95838191,0.47919096,0.47919096)"
       clip-path="url(#clipPath22)" />
    <path
       id="path23"
       d="m 321.5,230.5 h 230 V 338 h -230 z"
       style="fill:#ffffff;fill-opacity:1;fill-rule:nonzero;stroke:#000000;stroke-width:1;stroke-linecap:butt;stroke-linejoin:miter;stroke-miterlimit:10;stroke-dasharray:none;stroke-opacity:1"
       transform="matrix(0.95838191,0,0,0.95838191,0.47919096,0.47919096)"
       clip-path="url(#clipPath24)" />
    <path
       id="path25"
       d="m 472.75,128 0.05,36.3 h -36.29999 v 26.09999"
       style="fill:none;stroke:#000000;stroke-width:1;stroke-linecap:butt;stroke-linejoin:miter;stroke-miterlimit:10;stroke-dasharray:none;stroke-opacity:1"
       transform="matrix(0.95838191,0,0,0.95838191,0.47919096,0.47919096)"
       clip-path="url(#clipPath26)" />
    <path
       id="path27"
       d="m 436.5,197.14999 -4.5,-9 4.5,2.25 4.5,-2.25 z"
       style="fill:#000000;fill-opacity:1;fill-rule:nonzero;stroke:#000000;stroke-width:1;stroke-linecap:butt;stroke-linejoin:miter;stroke-miterlimit:10;stroke-dasharray:none;stroke-opacity:1"
       transform="matrix(0.95838191,0,0,0.95838191,0.47919096,0.47919096)"
       clip-path="url(#clipPath28)" />
    <path
       id="path29"
       d="M 364,50.5 H 581.5 V 128 H 364 Z"
       style="fill:#ffffff;fill-opacity:1;fill-rule:nonzero;stroke:#000000;stroke-width:1;stroke-linecap:butt;stroke-linejoin:miter;stroke-miterlimit:10;stroke-dasharray:none;stroke-opacity:1"
       transform="matrix(0.95838191,0,0,0.95838191,0.47919096,0.47919096)"
       clip-path="url(#clipPath30)" />
    <path
       id="path31"
       d="m 692.76001,128 -0.06,36.3 H 726.5 v 26.09999"
       style="fill:none;stroke:#000000;stroke-width:1;stroke-linecap:butt;stroke-linejoin:miter;stroke-miterlimit:10;stroke-dasharray:none;stroke-opacity:1"
       transform="matrix(0.95838191,0,0,0.95838191,0.47919096,0.47919096)"
       clip-path="url(#clipPath32)" />
    <path
       id="path33"
       d="m 726.5,197.14999 -4.5,-9 4.5,2.25 4.5,-2.25 z"
       style="fill:#000000;fill-opacity:1;fill-rule:nonzero;stroke:#000000;stroke-width:1;stroke-linecap:butt;stroke-linejoin:miter;stroke-miterlimit:10;stroke-dasharray:none;stroke-opacity:1"
       transform="matrix(0.95838191,0,0,0.95838191,0.47919096,0.47919096)"
       clip-path="url(#clipPath34)" />
    <path
       id="path35"
       d="m 581.51001,50.5 h 222.5 V 128 h -222.5 z"
       style="fill:#ffffff;fill-opacity:1;fill-rule:nonzero;stroke:#000000;stroke-width:1;stroke-linecap:butt;stroke-linejoin:miter;stroke-miterlimit:10;stroke-dasharray:none;stroke-opacity:1"
       transform="matrix(0.95838191,0,0,0.95838191,0.47919096,0.47919096)"
       clip-path="url(#clipPath36)" />
    <path
       id="path37"
       d="m 364,20.5 h 440 v 30 H 364 Z"
       style="fill:#dae8fc;fill-opacity:1;fill-rule:nonzero;stroke:#6c8ebf;stroke-width:1;stroke-linecap:butt;stroke-linejoin:miter;stroke-miterlimit:10;stroke-dasharray:none;stroke-opacity:1"
       transform="matrix(0.95838191,0,0,0.95838191,0.47919096,0.47919096)"
       clip-path="url(#clipPath38)" />
    <text
       id="text38"
       xml:space="preserve"
       transform="matrix(0.95839154,0,0,0.95839154,516.09385,41.210836)"
       clip-path="url(#clipPath39)"><tspan
         style="font-variant:normal;font-weight:700;font-size:18px;font-family:Helvetica;writing-mode:lr-tb;fill:#000000;fill-opacity:1;fill-rule:nonzero;stroke:none"
         x="0 12.999023 23.994141 34.989258 40.983398 45.984375 58.983398 69.978516 80.973633"
         y="0"
         sodipodi:role="line"
         id="tspan38">Root Node</tspan></text>
    <path
       id="path40"
       d="m 321.5,200.5 h 230 v 30 h -230 z"
       style="fill:#e1d5e7;fill-opacity:1;fill-rule:nonzero;stroke:#9673a6;stroke-width:1;stroke-linecap:butt;stroke-linejoin:miter;stroke-miterlimit:10;stroke-dasharray:none;stroke-opacity:1"
       transform="matrix(0.95838191,0,0,0.95838191,0.47919096,0.47919096)"
       clip-path="url(#clipPath41)" />
    <text
       id="text41"
       xml:space="preserve"
       transform="matrix(0.95839154,0,0,0.95839154,377.1121,213.72131)"
       clip-path="url(#clipPath42)"><tspan
         style="font-variant:normal;font-weight:700;font-size:18px;font-family:Helvetica;writing-mode:lr-tb;fill:#000000;fill-opacity:1;fill-rule:nonzero;stroke:none"
         x="0 10.995117 21.005859 31.016602 37.010742 42.011719 55.010742 66.005859 77.000977"
         y="0"
         sodipodi:role="line"
         id="tspan41">Leaf Node</tspan></text>
    <path
       id="path43"
       d="m 611.51001,200.5 h 230 v 30 h -230 z"
       style="fill:#e1d5e7;fill-opacity:1;fill-rule:nonzero;stroke:#9673a6;stroke-width:1;stroke-linecap:butt;stroke-linejoin:miter;stroke-miterlimit:10;stroke-dasharray:none;stroke-opacity:1"
       transform="matrix(0.95838191,0,0,0.95838191,0.47919096,0.47919096)"
       clip-path="url(#clipPath44)" />
    <text
       id="text44"
       xml:space="preserve"
       transform="matrix(0.95839154,0,0,0.95839154,655.04565,213.72131)"
       clip-path="url(#clipPath45)"><tspan
         style="font-variant:normal;font-weight:700;font-size:18px;font-family:Helvetica;writing-mode:lr-tb;fill:#000000;fill-opacity:1;fill-rule:nonzero;stroke:none"
         x="0 10.995117 21.005859 31.016602 37.010742 42.011719 55.010742 66.005859 77.000977"
         y="0"
         sodipodi:role="line"
         id="tspan44">Leaf Node</tspan></text>
    <path
       id="path46"
       d="m 329,238 h 100 v 50 H 329 Z"
       style="fill:#fff2cc;fill-opacity:1;fill-rule:nonzero;stroke:#d6b656;stroke-width:1;stroke-linecap:butt;stroke-linejoin:miter;stroke-miterlimit:10;stroke-dasharray:none;stroke-opacity:1"
       transform="matrix(0.95838191,0,0,0.95838191,0.47919096,0.47919096)"
       clip-path="url(#clipPath47)" />
    <text
       id="text47"
       xml:space="preserve"
       transform="matrix(0.95839154,0,0,0.95839154,353.15231,258.76572)"
       clip-path="url(#clipPath48)"><tspan
         style="font-variant:normal;font-weight:normal;font-size:18px;font-family:Helvetica;writing-mode:lr-tb;fill:#000000;fill-opacity:1;fill-rule:nonzero;stroke:none"
         x="0 12.005859 16.004883"
         y="0"
         sodipodi:role="line"
         id="tspan47">Alf</tspan></text>
    <path
       id="path49"
       d="m 339,288 h 80 v 30 h -80 z"
       style="fill:#f5f5f5;fill-opacity:1;fill-rule:nonzero;stroke:#666666;stroke-width:1;stroke-linecap:butt;stroke-linejoin:miter;stroke-miterlimit:10;stroke-dasharray:none;stroke-opacity:1"
       transform="matrix(0.95838191,0,0,0.95838191,0.47919096,0.47919096)"
       clip-path="url(#clipPath50)" />
    <text
       id="text50"
       xml:space="preserve"
       transform="matrix(0.95839154,0,0,0.95839154,344.36206,287.51746)"
       clip-path="url(#clipPath51)"><tspan
         style="font-style:oblique;font-variant:normal;font-weight:normal;font-size:12px;font-family:Helvetica;writing-mode:lr-tb;fill:#333333;fill-opacity:1;fill-rule:nonzero;stroke:none"
         x="0 8.0039062 10.669922 17.34375 23.34375 29.34375 32.677734"
         y="0"
         sodipodi:role="line"
         id="tspan50">Block 0</tspan></text>
    <text
       id="text51"
       xml:space="preserve"
       transform="matrix(0.95839154,0,0,0.95839154,344.36206,301.89334)"
       clip-path="url(#clipPath52)"><tspan
         style="font-style:oblique;font-variant:normal;font-weight:normal;font-size:12px;font-family:Helvetica;writing-mode:lr-tb;fill:#333333;fill-opacity:1;fill-rule:nonzero;stroke:none"
         x="0 3.3339844 10.007812 16.681641 23.355469 29.355469 32.689453"
         y="0"
         sodipodi:role="line"
         id="tspan51">Index 2</tspan></text>
    <path
       id="path53"
       d="m 729.01001,238 h 100 v 50 h -100 z"
       style="fill:#fff2cc;fill-opacity:1;fill-rule:nonzero;stroke:#d6b656;stroke-width:1;stroke-linecap:butt;stroke-linejoin:miter;stroke-miterlimit:10;stroke-dasharray:none;stroke-opacity:1"
       transform="matrix(0.95838191,0,0,0.95838191,0.47919096,0.47919096)"
       clip-path="url(#clipPath54)" />
    <text
       id="text54"
       xml:space="preserve"
       transform="matrix(0.95839154,0,0,0.95839154,724.04984,258.76572)"
       clip-path="url(#clipPath55)"><tspan
         style="font-variant:normal;font-weight:normal;font-size:18px;font-family:Helvetica;writing-mode:lr-tb;fill:#000000;fill-opacity:1;fill-rule:nonzero;stroke:none"
         x="0 12.999023 16.998047 27.008789 37.019531"
         y="0"
         sodipodi:role="line"
         id="tspan54">Riann</tspan></text>
    <path
       id="path56"
       d="m 739.01001,288 h 80 v 30 h -80 z"
       style="fill:#f5f5f5;fill-opacity:1;fill-rule:nonzero;stroke:#666666;stroke-width:1;stroke-linecap:butt;stroke-linejoin:miter;stroke-miterlimit:10;stroke-dasharray:none;stroke-opacity:1"
       transform="matrix(0.95838191,0,0,0.95838191,0.47919096,0.47919096)"
       clip-path="url(#clipPath57)" />
    <text
       id="text57"
       xml:space="preserve"
       transform="matrix(0.95839154,0,0,0.95839154,727.71868,287.51746)"
       clip-path="url(#clipPath58)"><tspan
         style="font-style:oblique;font-variant:normal;font-weight:normal;font-size:12px;font-family:Helvetica;writing-mode:lr-tb;fill:#333333;fill-opacity:1;fill-rule:nonzero;stroke:none"
         x="0 8.0039062 10.669922 17.34375 23.34375 29.34375 32.677734"
         y="0"
         sodipodi:role="line"
         id="tspan57">Block 1</tspan></text>
    <text
       id="text58"
       xml:space="preserve"
       transform="matrix(0.95839154,0,0,0.95839154,727.71868,301.89334)"
       clip-path="url(#clipPath59)"><tspan
         style="font-style:oblique;font-variant:normal;font-weight:normal;font-size:12px;font-family:Helvetica;writing-mode:lr-tb;fill:#333333;fill-opacity:1;fill-rule:nonzero;stroke:none"
         x="0 3.3339844 10.007812 16.681641 23.355469 29.355469 32.689453"
         y="0"
         sodipodi:role="line"
         id="tspan58">Index 2</tspan></text>
    <path
       id="path60"
       d="m 619.01001,238 h 100 v 50 h -100 z"
       style="fill:#fff2cc;fill-opacity:1;fill-rule:nonzero;stroke:#d6b656;stroke-width:1;stroke-linecap:butt;stroke-linejoin:miter;stroke-miterlimit:10;stroke-dasharray:none;stroke-opacity:1"
       transform="matrix(0.95838191,0,0,0.95838191,0.47919096,0.47919096)"
       clip-path="url(#clipPath61)" />
    <text
       id="text61"
       xml:space="preserve"
       transform="matrix(0.95839154,0,0,0.95839154,616.70999,258.76572)"
       clip-path="url(#clipPath62)"><tspan
         style="font-variant:normal;font-weight:normal;font-size:18px;font-family:Helvetica;writing-mode:lr-tb;fill:#000000;fill-opacity:1;fill-rule:nonzero;stroke:none"
         x="0 12.999023 23.009766 33.020508 42.020508"
         y="0"
         sodipodi:role="line"
         id="tspan61">Nancy</tspan></text>
    <path
       id="path63"
       d="m 629.01001,288 h 80 v 30 h -80 z"
       style="fill:#f5f5f5;fill-opacity:1;fill-rule:nonzero;stroke:#666666;stroke-width:1;stroke-linecap:butt;stroke-linejoin:miter;stroke-miterlimit:10;stroke-dasharray:none;stroke-opacity:1"
       transform="matrix(0.95838191,0,0,0.95838191,0.47919096,0.47919096)"
       clip-path="url(#clipPath64)" />
    <text
       id="text64"
       xml:space="preserve"
       transform="matrix(0.95839154,0,0,0.95839154,622.29561,287.51746)"
       clip-path="url(#clipPath65)"><tspan
         style="font-style:oblique;font-variant:normal;font-weight:normal;font-size:12px;font-family:Helvetica;writing-mode:lr-tb;fill:#333333;fill-opacity:1;fill-rule:nonzero;stroke:none"
         x="0 8.0039062 10.669922 17.34375 23.34375 29.34375 32.677734"
         y="0"
         sodipodi:role="line"
         id="tspan64">Block 0</tspan></text>
    <text
       id="text65"
       xml:space="preserve"
       transform="matrix(0.95839154,0,0,0.95839154,622.29561,301.89334)"
       clip-path="url(#clipPath66)"><tspan
         style="font-style:oblique;font-variant:normal;font-weight:normal;font-size:12px;font-family:Helvetica;writing-mode:lr-tb;fill:#333333;fill-opacity:1;fill-rule:nonzero;stroke:none"
         x="0 3.3339844 10.007812 16.681641 23.355469 29.355469 32.689453"
         y="0"
         sodipodi:role="line"
         id="tspan65">Index 1</tspan></text>
    <path
       id="path67"
       d="m 439,238 h 100 v 50 H 439 Z"
       style="fill:#fff2cc;fill-opacity:1;fill-rule:nonzero;stroke:#d6b656;stroke-width:1;stroke-linecap:butt;stroke-linejoin:miter;stroke-miterlimit:10;stroke-dasharray:none;stroke-opacity:1"
       transform="matrix(0.95838191,0,0,0.95838191,0.47919096,0.47919096)"
       clip-path="url(#clipPath68)" />
    <text
       id="text68"
       xml:space="preserve"
       transform="matrix(0.95839154,0,0,0.95839154,457.61699,258.76572)"
       clip-path="url(#clipPath69)"><tspan
         style="font-variant:normal;font-weight:normal;font-size:18px;font-family:Helvetica;writing-mode:lr-tb;fill:#000000;fill-opacity:1;fill-rule:nonzero;stroke:none"
         x="0 9 12.999023"
         y="0"
         sodipodi:role="line"
         id="tspan68">Jia</tspan></text>
    <path
       id="path70"
       d="m 449,288 h 80 v 30 h -80 z"
       style="fill:#f5f5f5;fill-opacity:1;fill-rule:nonzero;stroke:#666666;stroke-width:1;stroke-linecap:butt;stroke-linejoin:miter;stroke-miterlimit:10;stroke-dasharray:none;stroke-opacity:1"
       transform="matrix(0.95838191,0,0,0.95838191,0.47919096,0.47919096)"
       clip-path="url(#clipPath71)" />
    <text
       id="text71"
       xml:space="preserve"
       transform="matrix(0.95839154,0,0,0.95839154,449.78513,287.51746)"
       clip-path="url(#clipPath72)"><tspan
         style="font-style:oblique;font-variant:normal;font-weight:normal;font-size:12px;font-family:Helvetica;writing-mode:lr-tb;fill:#333333;fill-opacity:1;fill-rule:nonzero;stroke:none"
         x="0 8.0039062 10.669922 17.34375 23.34375 29.34375 32.677734"
         y="0"
         sodipodi:role="line"
         id="tspan71">Block 1</tspan></text>
    <text
       id="text72"
       xml:space="preserve"
       transform="matrix(0.95839154,0,0,0.95839154,449.78513,301.89334)"
       clip-path="url(#clipPath73)"><tspan
         style="font-style:oblique;font-variant:normal;font-weight:normal;font-size:12px;font-family:Helvetica;writing-mode:lr-tb;fill:#333333;fill-opacity:1;fill-rule:nonzero;stroke:none"
         x="0 3.3339844 10.007812 16.681641 23.355469 29.355469 32.689453"
         y="0"
         sodipodi:role="line"
         id="tspan72">Index 2</tspan></text>
  </g>
</svg>
