<?xml version="1.0" encoding="UTF-8" standalone="no"?>
<!-- Created with Inkscape (http://www.inkscape.org/) -->

<svg
   version="1.1"
   id="svg1"
   width="539.84003"
   height="337.28"
   viewBox="0 0 539.84003 337.28"
   sodipodi:docname="sql-13.pdf"
   xmlns:inkscape="http://www.inkscape.org/namespaces/inkscape"
   xmlns:sodipodi="http://sodipodi.sourceforge.net/DTD/sodipodi-0.dtd"
   xmlns="http://www.w3.org/2000/svg"
   xmlns:svg="http://www.w3.org/2000/svg">
  <defs
     id="defs1">
    <clipPath
       clipPathUnits="userSpaceOnUse"
       id="clipPath2">
      <path
         d="M 0,0 H 1687.4999 V 1053.1914 H 0 Z"
         transform="scale(0.33422224)"
         clip-rule="evenodd"
         id="path2" />
    </clipPath>
    <clipPath
       clipPathUnits="userSpaceOnUse"
       id="clipPath4">
      <path
         d="M 0,0 H 1687.4999 V 1050.1993 H 0 Z"
         transform="matrix(0.33422224,0,0,0.33422224,-0.49999999,-0.49999999)"
         clip-rule="evenodd"
         id="path4" />
    </clipPath>
    <clipPath
       clipPathUnits="userSpaceOnUse"
       id="clipPath5">
      <path
         d="M 0,0 H 1687.4999 V 1050.1993 H 0 Z"
         transform="matrix(0.33421889,0,0,0.33421889,-82.546876,-21.000001)"
         clip-rule="evenodd"
         id="path5" />
    </clipPath>
    <clipPath
       clipPathUnits="userSpaceOnUse"
       id="clipPath6">
      <path
         d="M 0,0 H 1687.4999 V 1050.1993 H 0 Z"
         transform="matrix(0.33421889,0,0,0.33421889,-12.28125,-40)"
         clip-rule="evenodd"
         id="path6" />
    </clipPath>
    <clipPath
       clipPathUnits="userSpaceOnUse"
       id="clipPath7">
      <path
         d="M 0,0 H 1687.4999 V 1050.1993 H 0 Z"
         transform="matrix(0.33421889,0,0,0.33421889,-70.531251,-59)"
         clip-rule="evenodd"
         id="path7" />
    </clipPath>
    <clipPath
       clipPathUnits="userSpaceOnUse"
       id="clipPath9">
      <path
         d="M 0,0 H 1687.4999 V 1050.1993 H 0 Z"
         transform="matrix(0.33422224,0,0,0.33422224,-0.49999999,-0.49999999)"
         clip-rule="evenodd"
         id="path9" />
    </clipPath>
    <clipPath
       clipPathUnits="userSpaceOnUse"
       id="clipPath10">
      <path
         d="M 0,0 H 1687.4999 V 1050.1993 H 0 Z"
         transform="matrix(0.33421889,0,0,0.33421889,-350.5,-30)"
         clip-rule="evenodd"
         id="path10" />
    </clipPath>
    <clipPath
       clipPathUnits="userSpaceOnUse"
       id="clipPath11">
      <path
         d="M 0,0 H 1687.4999 V 1050.1993 H 0 Z"
         transform="matrix(0.33421889,0,0,0.33421889,-394.5625,-50.000001)"
         clip-rule="evenodd"
         id="path11" />
    </clipPath>
    <clipPath
       clipPathUnits="userSpaceOnUse"
       id="clipPath13">
      <path
         d="M 0,0 H 1687.4999 V 1050.1993 H 0 Z"
         transform="matrix(0.33422224,0,0,0.33422224,-0.49999999,-0.49999999)"
         clip-rule="evenodd"
         id="path13" />
    </clipPath>
    <clipPath
       clipPathUnits="userSpaceOnUse"
       id="clipPath14">
      <path
         d="M 0,0 H 1687.4999 V 1050.1993 H 0 Z"
         transform="matrix(0.33421889,0,0,0.33421889,-359.1875,-113)"
         clip-rule="evenodd"
         id="path14" />
    </clipPath>
    <clipPath
       clipPathUnits="userSpaceOnUse"
       id="clipPath16">
      <path
         d="M 0,0 H 1687.4999 V 1050.1993 H 0 Z"
         transform="matrix(0.33422224,0,0,0.33422224,-0.49999999,-0.49999999)"
         clip-rule="evenodd"
         id="path16" />
    </clipPath>
    <clipPath
       clipPathUnits="userSpaceOnUse"
       id="clipPath17">
      <path
         d="M 0,0 H 1687.4999 V 1050.1993 H 0 Z"
         transform="matrix(0.33421889,0,0,0.33421889,-5.984375,-105)"
         clip-rule="evenodd"
         id="path17" />
    </clipPath>
    <clipPath
       clipPathUnits="userSpaceOnUse"
       id="clipPath18">
      <path
         d="M 0,0 H 1687.4999 V 1050.1993 H 0 Z"
         transform="matrix(0.33421889,0,0,0.33421889,-94.65625,-122)"
         clip-rule="evenodd"
         id="path18" />
    </clipPath>
    <clipPath
       clipPathUnits="userSpaceOnUse"
       id="clipPath20">
      <path
         d="M 0,0 H 1687.4999 V 1050.1993 H 0 Z"
         transform="matrix(0.33422224,0,0,0.33422224,-0.49999999,-0.49999999)"
         clip-rule="evenodd"
         id="path20" />
    </clipPath>
    <clipPath
       clipPathUnits="userSpaceOnUse"
       id="clipPath21">
      <path
         d="M 0,0 H 1687.4999 V 1050.1993 H 0 Z"
         transform="matrix(0.33421889,0,0,0.33421889,-5.984375,-175)"
         clip-rule="evenodd"
         id="path21" />
    </clipPath>
    <clipPath
       clipPathUnits="userSpaceOnUse"
       id="clipPath22">
      <path
         d="M 0,0 H 1687.4999 V 1050.1993 H 0 Z"
         transform="matrix(0.33421889,0,0,0.33421889,-94.65625,-192)"
         clip-rule="evenodd"
         id="path22" />
    </clipPath>
    <clipPath
       clipPathUnits="userSpaceOnUse"
       id="clipPath24">
      <path
         d="M 0,0 H 1687.4999 V 1050.1993 H 0 Z"
         transform="matrix(0.33422224,0,0,0.33422224,-0.49999999,-0.49999999)"
         clip-rule="evenodd"
         id="path24" />
    </clipPath>
    <clipPath
       clipPathUnits="userSpaceOnUse"
       id="clipPath25">
      <path
         d="M 0,0 H 1687.4999 V 1050.1993 H 0 Z"
         transform="matrix(0.33421889,0,0,0.33421889,-107.84375,-276)"
         clip-rule="evenodd"
         id="path25" />
    </clipPath>
    <clipPath
       clipPathUnits="userSpaceOnUse"
       id="clipPath26">
      <path
         d="M 0,0 H 1687.4999 V 1050.1993 H 0 Z"
         transform="matrix(0.33421889,0,0,0.33421889,-356.26563,-276)"
         clip-rule="evenodd"
         id="path26" />
    </clipPath>
    <clipPath
       clipPathUnits="userSpaceOnUse"
       id="clipPath27">
      <path
         d="M 0,0 H 1687.4999 V 1050.1993 H 0 Z"
         transform="matrix(0.33421889,0,0,0.33421889,-424.07813,-276)"
         clip-rule="evenodd"
         id="path27" />
    </clipPath>
    <clipPath
       clipPathUnits="userSpaceOnUse"
       id="clipPath28">
      <path
         d="M 0,0 H 1687.4999 V 1050.1993 H 0 Z"
         transform="matrix(0.33421889,0,0,0.33421889,-95.3125,-300)"
         clip-rule="evenodd"
         id="path28" />
    </clipPath>
    <clipPath
       clipPathUnits="userSpaceOnUse"
       id="clipPath29">
      <path
         d="M 0,0 H 1687.4999 V 1050.1993 H 0 Z"
         transform="matrix(0.33421889,0,0,0.33421889,-148.67188,-300)"
         clip-rule="evenodd"
         id="path29" />
    </clipPath>
    <clipPath
       clipPathUnits="userSpaceOnUse"
       id="clipPath30">
      <path
         d="M 0,0 H 1687.4999 V 1050.1993 H 0 Z"
         transform="matrix(0.33421889,0,0,0.33421889,-289.83789,-300)"
         clip-rule="evenodd"
         id="path30" />
    </clipPath>
    <clipPath
       clipPathUnits="userSpaceOnUse"
       id="clipPath31">
      <path
         d="M 0,0 H 1687.4999 V 1050.1993 H 0 Z"
         transform="matrix(0.33421889,0,0,0.33421889,-238.18751,-324.00001)"
         clip-rule="evenodd"
         id="path31" />
    </clipPath>
  </defs>
  <sodipodi:namedview
     id="namedview1"
     pagecolor="#ffffff"
     bordercolor="#000000"
     borderopacity="0.25"
     inkscape:showpageshadow="2"
     inkscape:pageopacity="0.0"
     inkscape:pagecheckerboard="0"
     inkscape:deskcolor="#d1d1d1">
    <inkscape:page
       x="0"
       y="0"
       inkscape:label="1"
       id="page1"
       width="539.84003"
       height="337.28"
       margin="0"
       bleed="0" />
  </sodipodi:namedview>
  <g
     id="g1"
     inkscape:groupmode="layer"
     inkscape:label="1">
    <path
       id="path1"
       d="M 0,0 H 564 V 352 H 0 Z"
       style="fill:#ffffff;fill-opacity:1;fill-rule:nonzero;stroke:none"
       transform="scale(0.95744671)"
       clip-path="url(#clipPath2)" />
    <path
       id="path3"
       d="M 1,1 H 221 V 68 H 1 Z"
       style="fill:#dae8fc;fill-opacity:1;fill-rule:nonzero;stroke:#6c8ebf;stroke-width:1;stroke-linecap:butt;stroke-linejoin:miter;stroke-miterlimit:10;stroke-dasharray:none;stroke-opacity:1"
       transform="matrix(0.95744671,0,0,0.95744671,0.47872335,0.47872335)"
       clip-path="url(#clipPath4)" />
    <text
       id="text4"
       xml:space="preserve"
       transform="matrix(0.95745631,0,0,0.95745631,79.035027,20.106583)"
       clip-path="url(#clipPath5)"><tspan
         style="font-variant:normal;font-weight:700;font-size:16px;font-family:Helvetica;writing-mode:lr-tb;fill:#000000;fill-opacity:1;fill-rule:nonzero;stroke:none"
         x="0 9.7734375 19.546875 29.320312 38.21875 42.664062 51.5625"
         y="0"
         sodipodi:role="line"
         id="tspan4">Look at</tspan></text>
    <text
       id="text5"
       xml:space="preserve"
       transform="matrix(0.95745631,0,0,0.95745631,11.75876,38.298252)"
       clip-path="url(#clipPath6)"><tspan
         style="font-variant:normal;font-weight:700;font-size:16px;font-family:Helvetica;writing-mode:lr-tb;fill:#000000;fill-opacity:1;fill-rule:nonzero;stroke:none"
         x="0 9.7734375 18.671875 27.570312 33.796875 42.695312 51.59375 61.367188 70.265625 79.164062 85.390625 95.164062 104.0625 118.28906 127.1875 136.08594 140.53125 150.30469 159.20312 163.64844 168.97656 178.75 187.64844"
         y="0"
         sodipodi:role="line"
         id="tspan5">users_username_idx then</tspan></text>
    <text
       id="text6"
       xml:space="preserve"
       transform="matrix(0.95745631,0,0,0.95745631,67.530591,56.489922)"
       clip-path="url(#clipPath7)"><tspan
         style="font-variant:normal;font-weight:700;font-size:16px;font-family:Helvetica;writing-mode:lr-tb;fill:#000000;fill-opacity:1;fill-rule:nonzero;stroke:none"
         x="0 9.7734375 18.671875 24 28.445312 38.21875 47.117188 56.015625 62.242188 71.140625"
         y="0"
         sodipodi:role="line"
         id="tspan6">get users?</tspan></text>
    <path
       id="path8"
       d="M 341,1 H 561 V 68 H 341 Z"
       style="fill:#dae8fc;fill-opacity:1;fill-rule:nonzero;stroke:#6c8ebf;stroke-width:1;stroke-linecap:butt;stroke-linejoin:miter;stroke-miterlimit:10;stroke-dasharray:none;stroke-opacity:1"
       transform="matrix(0.95744671,0,0,0.95744671,0.47872335,0.47872335)"
       clip-path="url(#clipPath9)" />
    <text
       id="text9"
       xml:space="preserve"
       transform="matrix(0.95745631,0,0,0.95745631,335.58844,28.723689)"
       clip-path="url(#clipPath10)"><tspan
         style="font-variant:normal;font-weight:700;font-size:16px;font-family:Helvetica;writing-mode:lr-tb;fill:#000000;fill-opacity:1;fill-rule:nonzero;stroke:none"
         x="0 9.7734375 18.671875 24 32.898438 42.671875 47.117188 56.015625 60.460938 64.90625 69.351562 79.125 88.023438 96.921875 103.14844 112.04688 116.49219 125.39062 135.16406 144.9375 149.38281 158.28125 167.17969 176.07812 182.30469 191.20312"
         y="0"
         sodipodi:role="line"
         id="tspan9">Fetch all users and search</tspan></text>
    <text
       id="text10"
       xml:space="preserve"
       transform="matrix(0.95745631,0,0,0.95745631,377.77636,47.872816)"
       clip-path="url(#clipPath11)"><tspan
         style="font-variant:normal;font-weight:700;font-size:16px;font-family:Helvetica;writing-mode:lr-tb;fill:#000000;fill-opacity:1;fill-rule:nonzero;stroke:none"
         x="0 5.328125 15.101562 21.328125 31.101562 40.875 50.648438 60.421875 64.867188 70.195312 79.96875 88.867188 103.09375"
         y="0"
         sodipodi:role="line"
         id="tspan10">through them?</tspan></text>
    <path
       id="path12"
       d="m 341,78 h 220 v 60 H 341 Z"
       style="fill:#f8cecc;fill-opacity:1;fill-rule:nonzero;stroke:#b85450;stroke-width:1;stroke-linecap:butt;stroke-linejoin:miter;stroke-miterlimit:10;stroke-dasharray:none;stroke-opacity:1"
       transform="matrix(0.95744671,0,0,0.95744671,0.47872335,0.47872335)"
       clip-path="url(#clipPath13)" />
    <text
       id="text13"
       xml:space="preserve"
       transform="matrix(0.95745631,0,0,0.95745631,343.90634,108.19256)"
       clip-path="url(#clipPath14)"><tspan
         style="font-variant:normal;font-weight:700;font-size:14px;font-family:Helvetica;writing-mode:lr-tb;fill:#000000;fill-opacity:1;fill-rule:nonzero;stroke:none"
         x="0 10.110352 18.662109 22.551758 27.213867 35.765625 39.655273 47.441406 51.331055 59.882812 68.43457 76.220703 84.006836 87.896484 92.558594 101.11035 106.55859 110.44824 118.23438 126.02051 133.80664 139.25488 147.04102 150.93066 159.48242 167.26855 175.82031"
         y="0"
         sodipodi:role="line"
         id="tspan13">Do this once for every page</tspan></text>
    <path
       id="path15"
       d="m 1,78 h 220 v 60 H 1 Z"
       style="fill:#f8cecc;fill-opacity:1;fill-rule:nonzero;stroke:#b85450;stroke-width:1;stroke-linecap:butt;stroke-linejoin:miter;stroke-miterlimit:10;stroke-dasharray:none;stroke-opacity:1"
       transform="matrix(0.95744671,0,0,0.95744671,0.47872335,0.47872335)"
       clip-path="url(#clipPath16)" />
    <text
       id="text16"
       xml:space="preserve"
       transform="matrix(0.95745631,0,0,0.95745631,5.7297776,100.53291)"
       clip-path="url(#clipPath17)"><tspan
         style="font-variant:normal;font-weight:700;font-size:14px;font-family:Helvetica;writing-mode:lr-tb;fill:#000000;fill-opacity:1;fill-rule:nonzero;stroke:none"
         x="0 9.3378906 14.786133 23.337891 31.889648 39.675781 48.227539 52.117188 59.90332 63.792969 67.682617 76.234375 84.020508 88.682617 92.572266 97.234375 105.02051 109.68262 117.46875 126.02051 129.91016 138.46191 147.01367 154.7998 158.68945 164.1377 171.92383 180.47559 189.02734 197.5791"
         y="0"
         sodipodi:role="line"
         id="tspan16">Probably just fetch one random</tspan></text>
    <text
       id="text17"
       xml:space="preserve"
       transform="matrix(0.95745631,0,0,0.95745631,90.629224,116.80967)"
       clip-path="url(#clipPath18)"><tspan
         style="font-variant:normal;font-weight:700;font-size:14px;font-family:Helvetica;writing-mode:lr-tb;fill:#000000;fill-opacity:1;fill-rule:nonzero;stroke:none"
         x="0 8.5517578 16.337891 24.889648"
         y="0"
         sodipodi:role="line"
         id="tspan17">page</tspan></text>
    <path
       id="path19"
       d="m 1,148 h 220 v 60 H 1 Z"
       style="fill:#f8cecc;fill-opacity:1;fill-rule:nonzero;stroke:#b85450;stroke-width:1;stroke-linecap:butt;stroke-linejoin:miter;stroke-miterlimit:10;stroke-dasharray:none;stroke-opacity:1"
       transform="matrix(0.95744671,0,0,0.95744671,0.47872335,0.47872335)"
       clip-path="url(#clipPath20)" />
    <text
       id="text20"
       xml:space="preserve"
       transform="matrix(0.95745631,0,0,0.95745631,5.7297776,167.55485)"
       clip-path="url(#clipPath21)"><tspan
         style="font-variant:normal;font-weight:700;font-size:14px;font-family:Helvetica;writing-mode:lr-tb;fill:#000000;fill-opacity:1;fill-rule:nonzero;stroke:none"
         x="0 9.3378906 14.786133 23.337891 31.889648 39.675781 48.227539 52.117188 59.90332 63.792969 67.682617 76.234375 84.020508 88.682617 92.572266 97.234375 105.02051 109.68262 117.46875 126.02051 129.91016 138.46191 147.01367 154.7998 158.68945 164.1377 171.92383 180.47559 189.02734 197.5791"
         y="0"
         sodipodi:role="line"
         id="tspan20">Probably just fetch one random</tspan></text>
    <text
       id="text21"
       xml:space="preserve"
       transform="matrix(0.95745631,0,0,0.95745631,90.629224,183.83161)"
       clip-path="url(#clipPath22)"><tspan
         style="font-variant:normal;font-weight:700;font-size:14px;font-family:Helvetica;writing-mode:lr-tb;fill:#000000;fill-opacity:1;fill-rule:nonzero;stroke:none"
         x="0 8.5517578 16.337891 24.889648"
         y="0"
         sodipodi:role="line"
         id="tspan21">page</tspan></text>
    <path
       id="path23"
       d="M 81,238 H 501 V 348 H 81 Z"
       style="fill:#f5f5f5;fill-opacity:1;fill-rule:nonzero;stroke:#666666;stroke-width:1;stroke-linecap:butt;stroke-linejoin:miter;stroke-miterlimit:10;stroke-dasharray:none;stroke-opacity:1"
       transform="matrix(0.95744671,0,0,0.95744671,0.47872335,0.47872335)"
       clip-path="url(#clipPath24)" />
    <text
       id="text24"
       xml:space="preserve"
       transform="matrix(0.95745631,0,0,0.95745631,103.25568,264.25794)"
       clip-path="url(#clipPath25)"><tspan
         style="font-variant:normal;font-weight:normal;font-size:20px;font-family:Helvetica;writing-mode:lr-tb;fill:#333333;fill-opacity:1;fill-rule:nonzero;stroke:none"
         x="0 11.123047 22.246094 27.802734 31.621094 41.621094 47.177734 58.300781 68.300781 78.300781 89.423828 106.08398 117.20703 122.76367 128.32031 139.44336 150.56641 156.12305 161.67969 166.12305 177.24609 188.36914 199.49219 203.93555 215.05859 226.18164 231.73828 242.86133"
         y="0"
         sodipodi:role="line"
         id="tspan24">Let's assume that loading a </tspan></text>
    <text
       id="text25"
       xml:space="preserve"
       transform="matrix(0.95745631,0,0,0.95745631,341.10878,264.25794)"
       clip-path="url(#clipPath26)"><tspan
         style="font-style:oblique;font-variant:normal;font-weight:normal;font-size:20px;font-family:Helvetica;writing-mode:lr-tb;fill:#333333;fill-opacity:1;fill-rule:nonzero;stroke:none"
         x="0 6.6601562 17.783203 28.90625 40.029297 51.152344"
         y="0"
         sodipodi:role="line"
         id="tspan25">random</tspan></text>
    <text
       id="text26"
       xml:space="preserve"
       transform="matrix(0.95745631,0,0,0.95745631,406.03628,264.25794)"
       clip-path="url(#clipPath27)"><tspan
         style="font-variant:normal;font-weight:normal;font-size:20px;font-family:Helvetica;writing-mode:lr-tb;fill:#333333;fill-opacity:1;fill-rule:nonzero;stroke:none"
         x="0 5.5566406 16.679688 27.802734 38.925781"
         y="0"
         sodipodi:role="line"
         id="tspan26"> page</tspan></text>
    <text
       id="text27"
       xml:space="preserve"
       transform="matrix(0.95745631,0,0,0.95745631,91.257555,287.23689)"
       clip-path="url(#clipPath28)"><tspan
         style="font-variant:normal;font-weight:normal;font-size:20px;font-family:Helvetica;writing-mode:lr-tb;fill:#333333;fill-opacity:1;fill-rule:nonzero;stroke:none"
         x="0 5.5566406 16.679688 26.679688 37.802734 47.802734"
         y="0"
         sodipodi:role="line"
         id="tspan27">takes </tspan></text>
    <text
       id="text28"
       xml:space="preserve"
       transform="matrix(0.95745631,0,0,0.95745631,142.34683,287.23689)"
       clip-path="url(#clipPath29)"><tspan
         style="font-variant:normal;font-weight:700;font-size:20px;font-family:Helvetica;writing-mode:lr-tb;fill:#333333;fill-opacity:1;fill-rule:nonzero;stroke:none"
         x="0 11.123047 16.679688 23.339844 28.896484 46.679688 57.802734 68.925781 74.482422 80.039062 92.255859 104.47266 116.68945 127.8125"
         y="0"
         sodipodi:role="line"
         id="tspan28">4 times longer</tspan></text>
    <text
       id="text29"
       xml:space="preserve"
       transform="matrix(0.95745631,0,0,0.95745631,277.50712,287.23689)"
       clip-path="url(#clipPath30)"><tspan
         style="font-variant:normal;font-weight:normal;font-size:20px;font-family:Helvetica;writing-mode:lr-tb;fill:#333333;fill-opacity:1;fill-rule:nonzero;stroke:none"
         x="0 5.5566406 16.679688 27.802734 38.925781 44.482422 48.925781 60.048828 71.171875 82.294922 86.738281 97.861328 108.98438 114.54102 125.66406 136.78711 142.34375 153.4668 164.58984 175.71289 186.83594"
         y="0"
         sodipodi:role="line"
         id="tspan29">than loading up pages</tspan></text>
    <text
       id="text30"
       xml:space="preserve"
       transform="matrix(0.95745631,0,0,0.95745631,228.05413,310.21585)"
       clip-path="url(#clipPath31)"><tspan
         style="font-variant:normal;font-weight:normal;font-size:20px;font-family:Helvetica;writing-mode:lr-tb;fill:#333333;fill-opacity:1;fill-rule:nonzero;stroke:none"
         x="0 10 21.123047 32.246094 43.369141 54.492188 65.615234 71.171875 75.615234 86.738281 91.181641 95.625"
         y="0"
         sodipodi:role="line"
         id="tspan30">sequentially</tspan></text>
  </g>
</svg>
