<?xml version="1.0" encoding="UTF-8" standalone="no"?>
<!-- Created with Inkscape (http://www.inkscape.org/) -->

<svg
   version="1.1"
   id="svg1"
   width="539.84003"
   height="346.55997"
   viewBox="0 0 539.84003 346.55997"
   sodipodi:docname="sql-10.pdf"
   xmlns:inkscape="http://www.inkscape.org/namespaces/inkscape"
   xmlns:sodipodi="http://sodipodi.sourceforge.net/DTD/sodipodi-0.dtd"
   xmlns="http://www.w3.org/2000/svg"
   xmlns:svg="http://www.w3.org/2000/svg">
  <defs
     id="defs1">
    <clipPath
       clipPathUnits="userSpaceOnUse"
       id="clipPath2">
      <path
         d="M 0,0 H 1687.4999 V 1083.1116 H 0 Z"
         transform="scale(0.33422224)"
         clip-rule="evenodd"
         id="path2" />
    </clipPath>
    <clipPath
       clipPathUnits="userSpaceOnUse"
       id="clipPath4">
      <path
         d="M 0,0 H 1687.4999 V 1080.1196 H 0 Z"
         transform="matrix(0.33422224,0,0,0.33422224,-0.49999999,-0.49999999)"
         clip-rule="evenodd"
         id="path4" />
    </clipPath>
    <clipPath
       clipPathUnits="userSpaceOnUse"
       id="clipPath5">
      <path
         d="M 0,0 H 1687.4999 V 1080.1196 H 0 Z"
         transform="matrix(0.33421889,0,0,0.33421889,-82.546876,-21.000001)"
         clip-rule="evenodd"
         id="path5" />
    </clipPath>
    <clipPath
       clipPathUnits="userSpaceOnUse"
       id="clipPath6">
      <path
         d="M 0,0 H 1687.4999 V 1080.1196 H 0 Z"
         transform="matrix(0.33421889,0,0,0.33421889,-12.28125,-40)"
         clip-rule="evenodd"
         id="path6" />
    </clipPath>
    <clipPath
       clipPathUnits="userSpaceOnUse"
       id="clipPath7">
      <path
         d="M 0,0 H 1687.4999 V 1080.1196 H 0 Z"
         transform="matrix(0.33421889,0,0,0.33421889,-70.531251,-59)"
         clip-rule="evenodd"
         id="path7" />
    </clipPath>
    <clipPath
       clipPathUnits="userSpaceOnUse"
       id="clipPath9">
      <path
         d="M 0,0 H 1687.4999 V 1080.1196 H 0 Z"
         transform="matrix(0.33422224,0,0,0.33422224,-0.49999999,-0.49999999)"
         clip-rule="evenodd"
         id="path9" />
    </clipPath>
    <clipPath
       clipPathUnits="userSpaceOnUse"
       id="clipPath10">
      <path
         d="M 0,0 H 1687.4999 V 1080.1196 H 0 Z"
         transform="matrix(0.33421889,0,0,0.33421889,-350.5,-30)"
         clip-rule="evenodd"
         id="path10" />
    </clipPath>
    <clipPath
       clipPathUnits="userSpaceOnUse"
       id="clipPath11">
      <path
         d="M 0,0 H 1687.4999 V 1080.1196 H 0 Z"
         transform="matrix(0.33421889,0,0,0.33421889,-394.5625,-50.000001)"
         clip-rule="evenodd"
         id="path11" />
    </clipPath>
    <clipPath
       clipPathUnits="userSpaceOnUse"
       id="clipPath13">
      <path
         d="M 0,0 H 1687.4999 V 1080.1196 H 0 Z"
         transform="matrix(0.33422224,0,0,0.33422224,-0.49999999,-0.49999999)"
         clip-rule="evenodd"
         id="path13" />
    </clipPath>
    <clipPath
       clipPathUnits="userSpaceOnUse"
       id="clipPath14">
      <path
         d="M 0,0 H 1687.4999 V 1080.1196 H 0 Z"
         transform="matrix(0.33421889,0,0,0.33421889,-359.1875,-113)"
         clip-rule="evenodd"
         id="path14" />
    </clipPath>
    <clipPath
       clipPathUnits="userSpaceOnUse"
       id="clipPath16">
      <path
         d="M 0,0 H 1687.4999 V 1080.1196 H 0 Z"
         transform="matrix(0.33422224,0,0,0.33422224,-0.49999999,-0.49999999)"
         clip-rule="evenodd"
         id="path16" />
    </clipPath>
    <clipPath
       clipPathUnits="userSpaceOnUse"
       id="clipPath17">
      <path
         d="M 0,0 H 1687.4999 V 1080.1196 H 0 Z"
         transform="matrix(0.33421889,0,0,0.33421889,-5.984375,-105)"
         clip-rule="evenodd"
         id="path17" />
    </clipPath>
    <clipPath
       clipPathUnits="userSpaceOnUse"
       id="clipPath18">
      <path
         d="M 0,0 H 1687.4999 V 1080.1196 H 0 Z"
         transform="matrix(0.33421889,0,0,0.33421889,-94.65625,-122)"
         clip-rule="evenodd"
         id="path18" />
    </clipPath>
    <clipPath
       clipPathUnits="userSpaceOnUse"
       id="clipPath20">
      <path
         d="M 0,0 H 1687.4999 V 1080.1196 H 0 Z"
         transform="matrix(0.33422224,0,0,0.33422224,-0.49999999,-0.49999999)"
         clip-rule="evenodd"
         id="path20" />
    </clipPath>
    <clipPath
       clipPathUnits="userSpaceOnUse"
       id="clipPath21">
      <path
         d="M 0,0 H 1687.4999 V 1080.1196 H 0 Z"
         transform="matrix(0.33421889,0,0,0.33421889,-5.984375,-175)"
         clip-rule="evenodd"
         id="path21" />
    </clipPath>
    <clipPath
       clipPathUnits="userSpaceOnUse"
       id="clipPath22">
      <path
         d="M 0,0 H 1687.4999 V 1080.1196 H 0 Z"
         transform="matrix(0.33421889,0,0,0.33421889,-94.65625,-192)"
         clip-rule="evenodd"
         id="path22" />
    </clipPath>
    <clipPath
       clipPathUnits="userSpaceOnUse"
       id="clipPath24">
      <path
         d="M 0,0 H 1687.4999 V 1080.1196 H 0 Z"
         transform="matrix(0.33422224,0,0,0.33422224,-0.49999999,-0.49999999)"
         clip-rule="evenodd"
         id="path24" />
    </clipPath>
    <clipPath
       clipPathUnits="userSpaceOnUse"
       id="clipPath25">
      <path
         d="M 0,0 H 1687.4999 V 1080.1196 H 0 Z"
         transform="matrix(0.33421889,0,0,0.33421889,-77.71875,-286.00001)"
         clip-rule="evenodd"
         id="path25" />
    </clipPath>
    <clipPath
       clipPathUnits="userSpaceOnUse"
       id="clipPath26">
      <path
         d="M 0,0 H 1687.4999 V 1080.1196 H 0 Z"
         transform="matrix(0.33421889,0,0,0.33421889,-106.4375,-310)"
         clip-rule="evenodd"
         id="path26" />
    </clipPath>
    <clipPath
       clipPathUnits="userSpaceOnUse"
       id="clipPath27">
      <path
         d="M 0,0 H 1687.4999 V 1080.1196 H 0 Z"
         transform="matrix(0.33421889,0,0,0.33421889,-125.89062,-334)"
         clip-rule="evenodd"
         id="path27" />
    </clipPath>
  </defs>
  <sodipodi:namedview
     id="namedview1"
     pagecolor="#ffffff"
     bordercolor="#000000"
     borderopacity="0.25"
     inkscape:showpageshadow="2"
     inkscape:pageopacity="0.0"
     inkscape:pagecheckerboard="0"
     inkscape:deskcolor="#d1d1d1">
    <inkscape:page
       x="0"
       y="0"
       inkscape:label="1"
       id="page1"
       width="539.84003"
       height="346.55997"
       margin="0"
       bleed="0" />
  </sodipodi:namedview>
  <g
     id="g1"
     inkscape:groupmode="layer"
     inkscape:label="1">
    <path
       id="path1"
       d="M 0,0 H 564 V 362 H 0 Z"
       style="fill:#ffffff;fill-opacity:1;fill-rule:nonzero;stroke:none"
       transform="scale(0.95744671)"
       clip-path="url(#clipPath2)" />
    <path
       id="path3"
       d="M 1,1 H 221 V 68 H 1 Z"
       style="fill:#dae8fc;fill-opacity:1;fill-rule:nonzero;stroke:#6c8ebf;stroke-width:1;stroke-linecap:butt;stroke-linejoin:miter;stroke-miterlimit:10;stroke-dasharray:none;stroke-opacity:1"
       transform="matrix(0.95744671,0,0,0.95744671,0.47872335,0.47872335)"
       clip-path="url(#clipPath4)" />
    <text
       id="text4"
       xml:space="preserve"
       transform="matrix(0.95745631,0,0,0.95745631,79.035027,20.106583)"
       clip-path="url(#clipPath5)"><tspan
         style="font-variant:normal;font-weight:700;font-size:16px;font-family:Helvetica;writing-mode:lr-tb;fill:#000000;fill-opacity:1;fill-rule:nonzero;stroke:none"
         x="0 9.7734375 19.546875 29.320312 38.21875 42.664062 51.5625"
         y="0"
         sodipodi:role="line"
         id="tspan4">Look at</tspan></text>
    <text
       id="text5"
       xml:space="preserve"
       transform="matrix(0.95745631,0,0,0.95745631,11.75876,38.298252)"
       clip-path="url(#clipPath6)"><tspan
         style="font-variant:normal;font-weight:700;font-size:16px;font-family:Helvetica;writing-mode:lr-tb;fill:#000000;fill-opacity:1;fill-rule:nonzero;stroke:none"
         x="0 9.7734375 18.671875 27.570312 33.796875 42.695312 51.59375 61.367188 70.265625 79.164062 85.390625 95.164062 104.0625 118.28906 127.1875 136.08594 140.53125 150.30469 159.20312 163.64844 168.97656 178.75 187.64844"
         y="0"
         sodipodi:role="line"
         id="tspan5">users_username_idx then</tspan></text>
    <text
       id="text6"
       xml:space="preserve"
       transform="matrix(0.95745631,0,0,0.95745631,67.530591,56.489922)"
       clip-path="url(#clipPath7)"><tspan
         style="font-variant:normal;font-weight:700;font-size:16px;font-family:Helvetica;writing-mode:lr-tb;fill:#000000;fill-opacity:1;fill-rule:nonzero;stroke:none"
         x="0 9.7734375 18.671875 24 28.445312 38.21875 47.117188 56.015625 62.242188 71.140625"
         y="0"
         sodipodi:role="line"
         id="tspan6">get users?</tspan></text>
    <path
       id="path8"
       d="M 341,1 H 561 V 68 H 341 Z"
       style="fill:#dae8fc;fill-opacity:1;fill-rule:nonzero;stroke:#6c8ebf;stroke-width:1;stroke-linecap:butt;stroke-linejoin:miter;stroke-miterlimit:10;stroke-dasharray:none;stroke-opacity:1"
       transform="matrix(0.95744671,0,0,0.95744671,0.47872335,0.47872335)"
       clip-path="url(#clipPath9)" />
    <text
       id="text9"
       xml:space="preserve"
       transform="matrix(0.95745631,0,0,0.95745631,335.58844,28.723689)"
       clip-path="url(#clipPath10)"><tspan
         style="font-variant:normal;font-weight:700;font-size:16px;font-family:Helvetica;writing-mode:lr-tb;fill:#000000;fill-opacity:1;fill-rule:nonzero;stroke:none"
         x="0 9.7734375 18.671875 24 32.898438 42.671875 47.117188 56.015625 60.460938 64.90625 69.351562 79.125 88.023438 96.921875 103.14844 112.04688 116.49219 125.39062 135.16406 144.9375 149.38281 158.28125 167.17969 176.07812 182.30469 191.20312"
         y="0"
         sodipodi:role="line"
         id="tspan9">Fetch all users and search</tspan></text>
    <text
       id="text10"
       xml:space="preserve"
       transform="matrix(0.95745631,0,0,0.95745631,377.77636,47.872816)"
       clip-path="url(#clipPath11)"><tspan
         style="font-variant:normal;font-weight:700;font-size:16px;font-family:Helvetica;writing-mode:lr-tb;fill:#000000;fill-opacity:1;fill-rule:nonzero;stroke:none"
         x="0 5.328125 15.101562 21.328125 31.101562 40.875 50.648438 60.421875 64.867188 70.195312 79.96875 88.867188 103.09375"
         y="0"
         sodipodi:role="line"
         id="tspan10">through them?</tspan></text>
    <path
       id="path12"
       d="m 341,78 h 220 v 60 H 341 Z"
       style="fill:#f8cecc;fill-opacity:1;fill-rule:nonzero;stroke:#b85450;stroke-width:1;stroke-linecap:butt;stroke-linejoin:miter;stroke-miterlimit:10;stroke-dasharray:none;stroke-opacity:1"
       transform="matrix(0.95744671,0,0,0.95744671,0.47872335,0.47872335)"
       clip-path="url(#clipPath13)" />
    <text
       id="text13"
       xml:space="preserve"
       transform="matrix(0.95745631,0,0,0.95745631,343.90634,108.19256)"
       clip-path="url(#clipPath14)"><tspan
         style="font-variant:normal;font-weight:700;font-size:14px;font-family:Helvetica;writing-mode:lr-tb;fill:#000000;fill-opacity:1;fill-rule:nonzero;stroke:none"
         x="0 10.110352 18.662109 22.551758 27.213867 35.765625 39.655273 47.441406 51.331055 59.882812 68.43457 76.220703 84.006836 87.896484 92.558594 101.11035 106.55859 110.44824 118.23438 126.02051 133.80664 139.25488 147.04102 150.93066 159.48242 167.26855 175.82031"
         y="0"
         sodipodi:role="line"
         id="tspan13">Do this once for every page</tspan></text>
    <path
       id="path15"
       d="m 1,78 h 220 v 60 H 1 Z"
       style="fill:#f8cecc;fill-opacity:1;fill-rule:nonzero;stroke:#b85450;stroke-width:1;stroke-linecap:butt;stroke-linejoin:miter;stroke-miterlimit:10;stroke-dasharray:none;stroke-opacity:1"
       transform="matrix(0.95744671,0,0,0.95744671,0.47872335,0.47872335)"
       clip-path="url(#clipPath16)" />
    <text
       id="text16"
       xml:space="preserve"
       transform="matrix(0.95745631,0,0,0.95745631,5.7297776,100.53291)"
       clip-path="url(#clipPath17)"><tspan
         style="font-variant:normal;font-weight:700;font-size:14px;font-family:Helvetica;writing-mode:lr-tb;fill:#000000;fill-opacity:1;fill-rule:nonzero;stroke:none"
         x="0 9.3378906 14.786133 23.337891 31.889648 39.675781 48.227539 52.117188 59.90332 63.792969 67.682617 76.234375 84.020508 88.682617 92.572266 97.234375 105.02051 109.68262 117.46875 126.02051 129.91016 138.46191 147.01367 154.7998 158.68945 164.1377 171.92383 180.47559 189.02734 197.5791"
         y="0"
         sodipodi:role="line"
         id="tspan16">Probably just fetch one random</tspan></text>
    <text
       id="text17"
       xml:space="preserve"
       transform="matrix(0.95745631,0,0,0.95745631,90.629224,116.80967)"
       clip-path="url(#clipPath18)"><tspan
         style="font-variant:normal;font-weight:700;font-size:14px;font-family:Helvetica;writing-mode:lr-tb;fill:#000000;fill-opacity:1;fill-rule:nonzero;stroke:none"
         x="0 8.5517578 16.337891 24.889648"
         y="0"
         sodipodi:role="line"
         id="tspan17">page</tspan></text>
    <path
       id="path19"
       d="m 1,148 h 220 v 60 H 1 Z"
       style="fill:#f8cecc;fill-opacity:1;fill-rule:nonzero;stroke:#b85450;stroke-width:1;stroke-linecap:butt;stroke-linejoin:miter;stroke-miterlimit:10;stroke-dasharray:none;stroke-opacity:1"
       transform="matrix(0.95744671,0,0,0.95744671,0.47872335,0.47872335)"
       clip-path="url(#clipPath20)" />
    <text
       id="text20"
       xml:space="preserve"
       transform="matrix(0.95745631,0,0,0.95745631,5.7297776,167.55485)"
       clip-path="url(#clipPath21)"><tspan
         style="font-variant:normal;font-weight:700;font-size:14px;font-family:Helvetica;writing-mode:lr-tb;fill:#000000;fill-opacity:1;fill-rule:nonzero;stroke:none"
         x="0 9.3378906 14.786133 23.337891 31.889648 39.675781 48.227539 52.117188 59.90332 63.792969 67.682617 76.234375 84.020508 88.682617 92.572266 97.234375 105.02051 109.68262 117.46875 126.02051 129.91016 138.46191 147.01367 154.7998 158.68945 164.1377 171.92383 180.47559 189.02734 197.5791"
         y="0"
         sodipodi:role="line"
         id="tspan20">Probably just fetch one random</tspan></text>
    <text
       id="text21"
       xml:space="preserve"
       transform="matrix(0.95745631,0,0,0.95745631,90.629224,183.83161)"
       clip-path="url(#clipPath22)"><tspan
         style="font-variant:normal;font-weight:700;font-size:14px;font-family:Helvetica;writing-mode:lr-tb;fill:#000000;fill-opacity:1;fill-rule:nonzero;stroke:none"
         x="0 8.5517578 16.337891 24.889648"
         y="0"
         sodipodi:role="line"
         id="tspan21">page</tspan></text>
    <path
       id="path23"
       d="M 71,248 H 511 V 358 H 71 Z"
       style="fill:#f5f5f5;fill-opacity:1;fill-rule:nonzero;stroke:#666666;stroke-width:1;stroke-linecap:butt;stroke-linejoin:miter;stroke-miterlimit:10;stroke-dasharray:none;stroke-opacity:1"
       transform="matrix(0.95744671,0,0,0.95744671,0.47872335,0.47872335)"
       clip-path="url(#clipPath24)" />
    <text
       id="text24"
       xml:space="preserve"
       transform="matrix(0.95745631,0,0,0.95745631,74.412308,273.83251)"
       clip-path="url(#clipPath25)"><tspan
         style="font-variant:normal;font-weight:normal;font-size:20px;font-family:Helvetica;writing-mode:lr-tb;fill:#333333;fill-opacity:1;fill-rule:nonzero;stroke:none"
         x="0 11.123047 22.246094 33.369141 44.492188 48.935547 60.058594 71.181641 76.738281 87.861328 98.984375 104.54102 115.66406 121.2207 126.77734 133.4375 144.56055 161.2207 166.77734 173.4375 184.56055 195.68359 206.80664 217.92969 234.58984 240.14648 250.14648 261.26953 272.39258 277.94922 287.94922 293.50586 304.62891 309.83398 315.39062 320.94727 332.07031 337.62695 348.75 359.87305 366.5332 377.65625 383.21289 394.33594 400.99609 405.43945 415.43945"
         y="0"
         sodipodi:role="line"
         id="tspan24">Loading data from random spots off a hard drive</tspan></text>
    <text
       id="text25"
       xml:space="preserve"
       transform="matrix(0.95745631,0,0,0.95745631,101.90926,296.81146)"
       clip-path="url(#clipPath26)"><tspan
         style="font-variant:normal;font-weight:normal;font-size:20px;font-family:Helvetica;writing-mode:lr-tb;fill:#333333;fill-opacity:1;fill-rule:nonzero;stroke:none"
         x="0 11.123047 21.123047 32.246094 43.369141 47.8125 52.255859 62.255859 67.8125 73.369141 84.492188 94.492188 105.61523 115.61523 121.17188 137.83203 148.95508 155.61523 166.73828 172.29492 177.85156 182.29492 198.95508 210.07812 215.63477 221.19141 232.31445 243.4375 254.56055 260.11719 264.56055 275.68359 286.80664 297.92969 302.37305 313.49609 324.61914 330.17578 341.29883 352.42188 357.97852"
         y="0"
         sodipodi:role="line"
         id="tspan25">usually takes more time than loading data</tspan></text>
    <text
       id="text26"
       xml:space="preserve"
       transform="matrix(0.95745631,0,0,0.95745631,120.53477,319.79041)"
       clip-path="url(#clipPath27)"><tspan
         style="font-variant:normal;font-weight:normal;font-size:20px;font-family:Helvetica;writing-mode:lr-tb;fill:#333333;fill-opacity:1;fill-rule:nonzero;stroke:none"
         x="0 10 21.123047 32.246094 43.369141 54.492188 65.615234 71.171875 75.615234 86.738281 91.181641 95.625 105.625 111.18164 117.8418 128.96484 140.08789 151.21094 156.76758 167.89062 172.33398 183.45703 193.45703 204.58008 210.13672 221.25977 226.81641 232.37305 243.49609 250.15625 255.71289 266.83594 277.95898 289.08203 294.63867 305.76172 316.88477 323.54492"
         y="0"
         sodipodi:role="line"
         id="tspan26">sequentially (one piece after another)</tspan></text>
  </g>
</svg>
