<?xml version="1.0" encoding="UTF-8" standalone="no"?>
<!-- Created with Inkscape (http://www.inkscape.org/) -->

<svg
   version="1.1"
   id="svg1"
   width="261.44"
   height="155.84"
   viewBox="0 0 261.44 155.84"
   sodipodi:docname="sql-5.pdf"
   xmlns:inkscape="http://www.inkscape.org/namespaces/inkscape"
   xmlns:sodipodi="http://sodipodi.sourceforge.net/DTD/sodipodi-0.dtd"
   xmlns="http://www.w3.org/2000/svg"
   xmlns:svg="http://www.w3.org/2000/svg">
  <defs
     id="defs1">
    <clipPath
       clipPathUnits="userSpaceOnUse"
       id="clipPath2">
      <path
         d="M 0,0 H 816.66663 V 485.82721 H 0 Z"
         transform="scale(0.33551024)"
         clip-rule="evenodd"
         id="path2" />
    </clipPath>
    <clipPath
       clipPathUnits="userSpaceOnUse"
       id="clipPath4">
      <path
         d="M 0,0 H 816.66663 V 479.86615 H 0 Z"
         transform="matrix(0.33551024,0,0,0.33551024,-0.50000001,-0.50000001)"
         clip-rule="evenodd"
         id="path4" />
    </clipPath>
    <clipPath
       clipPathUnits="userSpaceOnUse"
       id="clipPath5">
      <path
         d="M 0,0 H 816.66663 V 479.86615 H 0 Z"
         transform="matrix(0.33550688,0,0,0.33550688,-37.140625,-22)"
         clip-rule="evenodd"
         id="path5" />
    </clipPath>
    <clipPath
       clipPathUnits="userSpaceOnUse"
       id="clipPath7">
      <path
         d="M 0,0 H 816.66663 V 479.86615 H 0 Z"
         transform="matrix(0.33551024,0,0,0.33551024,-0.50000001,-0.50000001)"
         clip-rule="evenodd"
         id="path7" />
    </clipPath>
    <clipPath
       clipPathUnits="userSpaceOnUse"
       id="clipPath8">
      <path
         d="M 0,0 H 816.66663 V 479.86615 H 0 Z"
         transform="matrix(0.33550688,0,0,0.33550688,-48.859375,-64)"
         clip-rule="evenodd"
         id="path8" />
    </clipPath>
    <clipPath
       clipPathUnits="userSpaceOnUse"
       id="clipPath9">
      <path
         d="M 0,0 H 816.66663 V 479.86615 H 0 Z"
         transform="matrix(0.33550688,0,0,0.33550688,-8.015625,-82)"
         clip-rule="evenodd"
         id="path9" />
    </clipPath>
    <clipPath
       clipPathUnits="userSpaceOnUse"
       id="clipPath10">
      <path
         d="M 0,0 H 816.66663 V 479.86615 H 0 Z"
         transform="matrix(0.33550688,0,0,0.33550688,-88.046875,-100)"
         clip-rule="evenodd"
         id="path10" />
    </clipPath>
    <clipPath
       clipPathUnits="userSpaceOnUse"
       id="clipPath11">
      <path
         d="M 0,0 H 816.66663 V 479.86615 H 0 Z"
         transform="matrix(0.33550688,0,0,0.33550688,-57.53125,-138)"
         clip-rule="evenodd"
         id="path11" />
    </clipPath>
    <clipPath
       clipPathUnits="userSpaceOnUse"
       id="clipPath12">
      <path
         d="M 0,0 H 816.66663 V 479.86615 H 0 Z"
         transform="matrix(0.33550688,0,0,0.33550688,-65.015625,-156)"
         clip-rule="evenodd"
         id="path12" />
    </clipPath>
  </defs>
  <sodipodi:namedview
     id="namedview1"
     pagecolor="#ffffff"
     bordercolor="#000000"
     borderopacity="0.25"
     inkscape:showpageshadow="2"
     inkscape:pageopacity="0.0"
     inkscape:pagecheckerboard="0"
     inkscape:deskcolor="#d1d1d1">
    <inkscape:page
       x="0"
       y="0"
       inkscape:label="1"
       id="page1"
       width="261.44"
       height="155.84"
       margin="0"
       bleed="0" />
  </sodipodi:namedview>
  <g
     id="g1"
     inkscape:groupmode="layer"
     inkscape:label="1">
    <path
       id="path1"
       d="M 0,0 H 274 V 163 H 0 Z"
       style="fill:#ffffff;fill-opacity:1;fill-rule:nonzero;stroke:none"
       transform="scale(0.95377116)"
       clip-path="url(#clipPath2)" />
    <path
       id="path3"
       d="M 1,1 H 271 V 31 H 1 Z"
       style="fill:#e1d5e7;fill-opacity:1;fill-rule:nonzero;stroke:#9673a6;stroke-width:1;stroke-linecap:butt;stroke-linejoin:miter;stroke-miterlimit:10;stroke-dasharray:none;stroke-opacity:1"
       transform="matrix(0.95377116,0,0,0.95377116,0.47688559,0.47688559)"
       clip-path="url(#clipPath4)" />
    <g
       id="g4" />
    <text
       id="text4"
       xml:space="preserve"
       transform="matrix(0.9537807,0,0,0.9537807,35.424011,20.983175)"
       clip-path="url(#clipPath5)"><tspan
         style="font-variant:normal;font-weight:700;font-size:15px;font-family:Helvetica;writing-mode:lr-tb;fill:#000000;fill-opacity:1;fill-rule:nonzero;stroke:none"
         x="0 13.894043 23.056641 28.894043 37.236328 41.403809 50.566406 59.729004 63.896484 73.059082 81.401367 90.563965 99.726562 103.89404 108.88916 113.05664 122.21924 131.38184 135.54932 140.54443 149.70703 155.54443 159.71191 163.27881 171.62109 180.78369 189.12598 194.12109"
         y="0"
         sodipodi:role="line"
         id="tspan4">Working deﬁnition for 'cost'</tspan></text>
    <path
       id="path6"
       d="m 1,31 h 270 v 90 H 1 Z"
       style="fill:#e1d5e7;fill-opacity:1;fill-rule:nonzero;stroke:#9673a6;stroke-width:1;stroke-linecap:butt;stroke-linejoin:miter;stroke-miterlimit:10;stroke-dasharray:none;stroke-opacity:1"
       transform="matrix(0.95377116,0,0,0.95377116,0.47688559,0.47688559)"
       clip-path="url(#clipPath7)" />
    <text
       id="text7"
       xml:space="preserve"
       transform="matrix(0.9537807,0,0,0.9537807,46.601129,61.041965)"
       clip-path="url(#clipPath8)"><tspan
         style="font-variant:normal;font-weight:normal;font-size:15px;font-family:Helvetica;writing-mode:lr-tb;fill:#000000;fill-opacity:1;fill-rule:nonzero;stroke:none"
         x="0 10.004883 22.5 30.842285 39.18457 47.526855 51.694336 55.861816 64.204102 68.371582 72.539062 76.706543 80.039062 92.53418 100.87646 105.04395 110.03906 117.53906 125.88135 133.38135 141.72363 150.06592 158.4082 165.9082"
         y="0"
         sodipodi:role="line"
         id="tspan7">Amount of time (seconds?</tspan></text>
    <text
       id="text8"
       xml:space="preserve"
       transform="matrix(0.9537807,0,0,0.9537807,7.6451484,78.210017)"
       clip-path="url(#clipPath9)"><tspan
         style="font-variant:normal;font-weight:normal;font-size:15px;font-family:Helvetica;writing-mode:lr-tb;fill:#000000;fill-opacity:1;fill-rule:nonzero;stroke:none"
         x="0 12.495117 15.827637 19.160156 22.492676 25.825195 33.325195 41.66748 49.16748 57.509766 65.852051 74.194336 81.694336 90.036621 95.031738 99.199219 103.3667 111.70898 115.87646 124.21875 131.71875 140.06104 147.56104 155.90332 160.0708 168.41309 172.58057 180.08057 188.42285 200.91797 209.26025 213.42773 221.77002 230.1123 235.10742 239.2749 243.44238 251.78467"
         y="0"
         sodipodi:role="line"
         id="tspan8">Milliseconds?) to execute some part of</tspan></text>
    <text
       id="text9"
       xml:space="preserve"
       transform="matrix(0.9537807,0,0,0.9537807,83.97741,95.37807)"
       clip-path="url(#clipPath10)"><tspan
         style="font-variant:normal;font-weight:normal;font-size:15px;font-family:Helvetica;writing-mode:lr-tb;fill:#000000;fill-opacity:1;fill-rule:nonzero;stroke:none"
         x="0 8.3422852 16.68457 21.679688 25.847168 34.189453 42.531738 50.874023 55.869141 63.369141 67.536621 75.878906 79.211426 87.553711"
         y="0"
         sodipodi:role="line"
         id="tspan9">our query plan</tspan></text>
    <text
       id="text10"
       xml:space="preserve"
       transform="matrix(0.9537807,0,0,0.9537807,54.872196,131.62174)"
       clip-path="url(#clipPath11)"><tspan
         style="font-style:oblique;font-variant:normal;font-weight:normal;font-size:15px;font-family:Helvetica;writing-mode:lr-tb;fill:#000000;fill-opacity:1;fill-rule:nonzero;stroke:none"
         x="0 10.83252 19.174805 23.342285 27.509766 35.009766 43.352051 51.694336 60.036621 65.031738 69.199219 77.541504 85.041504 92.541504 100.88379 105.87891 114.22119 118.38867 126.73096 130.89844 135.06592 143.4082 151.75049"
         y="0"
         sodipodi:role="line"
         id="tspan10">Not super accurate, but</tspan></text>
    <text
       id="text11"
       xml:space="preserve"
       transform="matrix(0.9537807,0,0,0.9537807,62.010648,148.78979)"
       clip-path="url(#clipPath12)"><tspan
         style="font-style:oblique;font-variant:normal;font-weight:normal;font-size:15px;font-family:Helvetica;writing-mode:lr-tb;fill:#000000;fill-opacity:1;fill-rule:nonzero;stroke:none"
         x="0 8.3422852 16.68457 25.026855 33.369141 37.536621 45.878906 54.221191 62.563477 70.905762 79.248047 87.590332 91.757812 95.925293 104.26758 109.2627 113.43018 121.77246 130.11475"
         y="0"
         sodipodi:role="line"
         id="tspan11">good enough for now</tspan></text>
  </g>
</svg>
