<?xml version="1.0" encoding="UTF-8" standalone="no"?>
<!-- Created with Inkscape (http://www.inkscape.org/) -->

<svg
   version="1.1"
   id="svg1"
   width="597.44"
   height="376"
   viewBox="0 0 597.44 376"
   sodipodi:docname="sql-14.pdf"
   xmlns:inkscape="http://www.inkscape.org/namespaces/inkscape"
   xmlns:sodipodi="http://sodipodi.sourceforge.net/DTD/sodipodi-0.dtd"
   xmlns="http://www.w3.org/2000/svg"
   xmlns:svg="http://www.w3.org/2000/svg">
  <defs
     id="defs1">
    <clipPath
       clipPathUnits="userSpaceOnUse"
       id="clipPath2">
      <path
         d="M 0,0 H 1866.6666 V 1172.6495 H 0 Z"
         transform="scale(0.33428572)"
         clip-rule="evenodd"
         id="path2" />
    </clipPath>
    <clipPath
       clipPathUnits="userSpaceOnUse"
       id="clipPath4">
      <path
         d="M 0,0 H 1866.6666 V 1169.6581 H 0 Z"
         transform="matrix(0.33428572,0,0,0.33428572,-0.50000001,-0.50000001)"
         clip-rule="evenodd"
         id="path4" />
    </clipPath>
    <clipPath
       clipPathUnits="userSpaceOnUse"
       id="clipPath5">
      <path
         d="M 0,0 H 1866.6666 V 1169.6581 H 0 Z"
         transform="matrix(0.33428236,0,0,0.33428236,-112.54688,-21)"
         clip-rule="evenodd"
         id="path5" />
    </clipPath>
    <clipPath
       clipPathUnits="userSpaceOnUse"
       id="clipPath6">
      <path
         d="M 0,0 H 1866.6666 V 1169.6581 H 0 Z"
         transform="matrix(0.33428236,0,0,0.33428236,-42.28125,-40)"
         clip-rule="evenodd"
         id="path6" />
    </clipPath>
    <clipPath
       clipPathUnits="userSpaceOnUse"
       id="clipPath7">
      <path
         d="M 0,0 H 1866.6666 V 1169.6581 H 0 Z"
         transform="matrix(0.33428236,0,0,0.33428236,-100.53125,-59)"
         clip-rule="evenodd"
         id="path7" />
    </clipPath>
    <clipPath
       clipPathUnits="userSpaceOnUse"
       id="clipPath9">
      <path
         d="M 0,0 H 1866.6666 V 1169.6581 H 0 Z"
         transform="matrix(0.33428572,0,0,0.33428572,-0.50000001,-0.50000001)"
         clip-rule="evenodd"
         id="path9" />
    </clipPath>
    <clipPath
       clipPathUnits="userSpaceOnUse"
       id="clipPath10">
      <path
         d="M 0,0 H 1866.6666 V 1169.6581 H 0 Z"
         transform="matrix(0.33428236,0,0,0.33428236,-380.49999,-30)"
         clip-rule="evenodd"
         id="path10" />
    </clipPath>
    <clipPath
       clipPathUnits="userSpaceOnUse"
       id="clipPath11">
      <path
         d="M 0,0 H 1866.6666 V 1169.6581 H 0 Z"
         transform="matrix(0.33428236,0,0,0.33428236,-424.5625,-50)"
         clip-rule="evenodd"
         id="path11" />
    </clipPath>
    <clipPath
       clipPathUnits="userSpaceOnUse"
       id="clipPath13">
      <path
         d="M 0,0 H 1866.6666 V 1169.6581 H 0 Z"
         transform="matrix(0.33428572,0,0,0.33428572,-0.50000001,-0.50000001)"
         clip-rule="evenodd"
         id="path13" />
    </clipPath>
    <clipPath
       clipPathUnits="userSpaceOnUse"
       id="clipPath15">
      <path
         d="M 0,0 H 1866.6666 V 1169.6581 H 0 Z"
         transform="matrix(0.33428572,0,0,0.33428572,-0.50000001,-0.50000001)"
         clip-rule="evenodd"
         id="path15" />
    </clipPath>
    <clipPath
       clipPathUnits="userSpaceOnUse"
       id="clipPath17">
      <path
         d="M 0,0 H 1866.6666 V 1169.6581 H 0 Z"
         transform="matrix(0.33428572,0,0,0.33428572,-0.50000001,-0.50000001)"
         clip-rule="evenodd"
         id="path17" />
    </clipPath>
    <clipPath
       clipPathUnits="userSpaceOnUse"
       id="clipPath18">
      <path
         d="M 0,0 H 1866.6666 V 1169.6581 H 0 Z"
         transform="matrix(0.33428236,0,0,0.33428236,-389.1875,-113)"
         clip-rule="evenodd"
         id="path18" />
    </clipPath>
    <clipPath
       clipPathUnits="userSpaceOnUse"
       id="clipPath20">
      <path
         d="M 0,0 H 1866.6666 V 1169.6581 H 0 Z"
         transform="matrix(0.33428572,0,0,0.33428572,-0.50000001,-0.50000001)"
         clip-rule="evenodd"
         id="path20" />
    </clipPath>
    <clipPath
       clipPathUnits="userSpaceOnUse"
       id="clipPath21">
      <path
         d="M 0,0 H 1866.6666 V 1169.6581 H 0 Z"
         transform="matrix(0.33428236,0,0,0.33428236,-35.984375,-105)"
         clip-rule="evenodd"
         id="path21" />
    </clipPath>
    <clipPath
       clipPathUnits="userSpaceOnUse"
       id="clipPath22">
      <path
         d="M 0,0 H 1866.6666 V 1169.6581 H 0 Z"
         transform="matrix(0.33428236,0,0,0.33428236,-124.65625,-122)"
         clip-rule="evenodd"
         id="path22" />
    </clipPath>
    <clipPath
       clipPathUnits="userSpaceOnUse"
       id="clipPath24">
      <path
         d="M 0,0 H 1866.6666 V 1169.6581 H 0 Z"
         transform="matrix(0.33428572,0,0,0.33428572,-0.50000001,-0.50000001)"
         clip-rule="evenodd"
         id="path24" />
    </clipPath>
    <clipPath
       clipPathUnits="userSpaceOnUse"
       id="clipPath26">
      <path
         d="M 0,0 H 1866.6666 V 1169.6581 H 0 Z"
         transform="matrix(0.33428572,0,0,0.33428572,-0.50000001,-0.50000001)"
         clip-rule="evenodd"
         id="path26" />
    </clipPath>
    <clipPath
       clipPathUnits="userSpaceOnUse"
       id="clipPath28">
      <path
         d="M 0,0 H 1866.6666 V 1169.6581 H 0 Z"
         transform="matrix(0.33428572,0,0,0.33428572,-0.50000001,-0.50000001)"
         clip-rule="evenodd"
         id="path28" />
    </clipPath>
    <clipPath
       clipPathUnits="userSpaceOnUse"
       id="clipPath29">
      <path
         d="M 0,0 H 1866.6666 V 1169.6581 H 0 Z"
         transform="matrix(0.33428236,0,0,0.33428236,-35.984375,-175)"
         clip-rule="evenodd"
         id="path29" />
    </clipPath>
    <clipPath
       clipPathUnits="userSpaceOnUse"
       id="clipPath30">
      <path
         d="M 0,0 H 1866.6666 V 1169.6581 H 0 Z"
         transform="matrix(0.33428236,0,0,0.33428236,-124.65625,-192)"
         clip-rule="evenodd"
         id="path30" />
    </clipPath>
    <clipPath
       clipPathUnits="userSpaceOnUse"
       id="clipPath32">
      <path
         d="M 0,0 H 1866.6666 V 1169.6581 H 0 Z"
         transform="matrix(0.33428572,0,0,0.33428572,-0.50000001,-0.50000001)"
         clip-rule="evenodd"
         id="path32" />
    </clipPath>
    <clipPath
       clipPathUnits="userSpaceOnUse"
       id="clipPath34">
      <path
         d="M 0,0 H 1866.6666 V 1169.6581 H 0 Z"
         transform="matrix(0.33428572,0,0,0.33428572,-0.50000001,-0.50000001)"
         clip-rule="evenodd"
         id="path34" />
    </clipPath>
    <clipPath
       clipPathUnits="userSpaceOnUse"
       id="clipPath36">
      <path
         d="M 0,0 H 1866.6666 V 1169.6581 H 0 Z"
         transform="matrix(0.33428572,0,0,0.33428572,-0.50000001,-0.50000001)"
         clip-rule="evenodd"
         id="path36" />
    </clipPath>
    <clipPath
       clipPathUnits="userSpaceOnUse"
       id="clipPath37">
      <path
         d="M 0,0 H 1866.6666 V 1169.6581 H 0 Z"
         transform="matrix(0.33428236,0,0,0.33428236,-19.640625,-283)"
         clip-rule="evenodd"
         id="path37" />
    </clipPath>
    <clipPath
       clipPathUnits="userSpaceOnUse"
       id="clipPath39">
      <path
         d="M 0,0 H 1866.6666 V 1169.6581 H 0 Z"
         transform="matrix(0.33428572,0,0,0.33428572,-0.50000001,-0.50000001)"
         clip-rule="evenodd"
         id="path39" />
    </clipPath>
    <clipPath
       clipPathUnits="userSpaceOnUse"
       id="clipPath40">
      <path
         d="M 0,0 H 1866.6666 V 1169.6581 H 0 Z"
         transform="matrix(0.33428236,0,0,0.33428236,-134.59375,-366)"
         clip-rule="evenodd"
         id="path40" />
    </clipPath>
    <clipPath
       clipPathUnits="userSpaceOnUse"
       id="clipPath42">
      <path
         d="M 0,0 H 1866.6666 V 1169.6581 H 0 Z"
         transform="matrix(0.33428572,0,0,0.33428572,-0.50000001,-0.50000001)"
         clip-rule="evenodd"
         id="path42" />
    </clipPath>
    <clipPath
       clipPathUnits="userSpaceOnUse"
       id="clipPath43">
      <path
         d="M 0,0 H 1866.6666 V 1169.6581 H 0 Z"
         transform="matrix(0.33428236,0,0,0.33428236,-365.4375,-283)"
         clip-rule="evenodd"
         id="path43" />
    </clipPath>
    <clipPath
       clipPathUnits="userSpaceOnUse"
       id="clipPath45">
      <path
         d="M 0,0 H 1866.6666 V 1169.6581 H 0 Z"
         transform="matrix(0.33428572,0,0,0.33428572,-0.50000001,-0.50000001)"
         clip-rule="evenodd"
         id="path45" />
    </clipPath>
    <clipPath
       clipPathUnits="userSpaceOnUse"
       id="clipPath47">
      <path
         d="M 0,0 H 1866.6666 V 1169.6581 H 0 Z"
         transform="matrix(0.33428572,0,0,0.33428572,-0.50000001,-0.50000001)"
         clip-rule="evenodd"
         id="path47" />
    </clipPath>
    <clipPath
       clipPathUnits="userSpaceOnUse"
       id="clipPath49">
      <path
         d="M 0,0 H 1866.6666 V 1169.6581 H 0 Z"
         transform="matrix(0.33428572,0,0,0.33428572,-0.50000001,-0.50000001)"
         clip-rule="evenodd"
         id="path49" />
    </clipPath>
    <clipPath
       clipPathUnits="userSpaceOnUse"
       id="clipPath50">
      <path
         d="M 0,0 H 1866.6666 V 1169.6581 H 0 Z"
         transform="matrix(0.33428236,0,0,0.33428236,-462.4375,-366)"
         clip-rule="evenodd"
         id="path50" />
    </clipPath>
  </defs>
  <sodipodi:namedview
     id="namedview1"
     pagecolor="#ffffff"
     bordercolor="#000000"
     borderopacity="0.25"
     inkscape:showpageshadow="2"
     inkscape:pageopacity="0.0"
     inkscape:pagecheckerboard="0"
     inkscape:deskcolor="#d1d1d1">
    <inkscape:page
       x="0"
       y="0"
       inkscape:label="1"
       id="page1"
       width="597.44"
       height="376"
       margin="0"
       bleed="0" />
  </sodipodi:namedview>
  <g
     id="g1"
     inkscape:groupmode="layer"
     inkscape:label="1">
    <path
       id="path1"
       d="M 0,0 H 624 V 392 H 0 Z"
       style="fill:#ffffff;fill-opacity:1;fill-rule:nonzero;stroke:none"
       transform="scale(0.95726489)"
       clip-path="url(#clipPath2)" />
    <path
       id="path3"
       d="M 31,1 H 251 V 68 H 31 Z"
       style="fill:#dae8fc;fill-opacity:1;fill-rule:nonzero;stroke:#6c8ebf;stroke-width:1;stroke-linecap:butt;stroke-linejoin:miter;stroke-miterlimit:10;stroke-dasharray:none;stroke-opacity:1"
       transform="matrix(0.95726489,0,0,0.95726489,0.47863245,0.47863245)"
       clip-path="url(#clipPath4)" />
    <text
       id="text4"
       xml:space="preserve"
       transform="matrix(0.95727452,0,0,0.95727452,107.73826,20.102765)"
       clip-path="url(#clipPath5)"><tspan
         style="font-variant:normal;font-weight:700;font-size:16px;font-family:Helvetica;writing-mode:lr-tb;fill:#000000;fill-opacity:1;fill-rule:nonzero;stroke:none"
         x="0 9.7734375 19.546875 29.320312 38.21875 42.664062 51.5625"
         y="0"
         sodipodi:role="line"
         id="tspan4">Look at</tspan></text>
    <text
       id="text5"
       xml:space="preserve"
       transform="matrix(0.95727452,0,0,0.95727452,40.474763,38.290981)"
       clip-path="url(#clipPath6)"><tspan
         style="font-variant:normal;font-weight:700;font-size:16px;font-family:Helvetica;writing-mode:lr-tb;fill:#000000;fill-opacity:1;fill-rule:nonzero;stroke:none"
         x="0 9.7734375 18.671875 27.570312 33.796875 42.695312 51.59375 61.367188 70.265625 79.164062 85.390625 95.164062 104.0625 118.28906 127.1875 136.08594 140.53125 150.30469 159.20312 163.64844 168.97656 178.75 187.64844"
         y="0"
         sodipodi:role="line"
         id="tspan5">users_username_idx then</tspan></text>
    <text
       id="text6"
       xml:space="preserve"
       transform="matrix(0.95727452,0,0,0.95727452,96.236004,56.479197)"
       clip-path="url(#clipPath7)"><tspan
         style="font-variant:normal;font-weight:700;font-size:16px;font-family:Helvetica;writing-mode:lr-tb;fill:#000000;fill-opacity:1;fill-rule:nonzero;stroke:none"
         x="0 9.7734375 18.671875 24 28.445312 38.21875 47.117188 56.015625 62.242188 71.140625"
         y="0"
         sodipodi:role="line"
         id="tspan6">get users?</tspan></text>
    <path
       id="path8"
       d="M 371,1 H 591 V 68 H 371 Z"
       style="fill:#dae8fc;fill-opacity:1;fill-rule:nonzero;stroke:#6c8ebf;stroke-width:1;stroke-linecap:butt;stroke-linejoin:miter;stroke-miterlimit:10;stroke-dasharray:none;stroke-opacity:1"
       transform="matrix(0.95726489,0,0,0.95726489,0.47863245,0.47863245)"
       clip-path="url(#clipPath9)" />
    <text
       id="text9"
       xml:space="preserve"
       transform="matrix(0.95727452,0,0,0.95727452,364.24295,28.718236)"
       clip-path="url(#clipPath10)"><tspan
         style="font-variant:normal;font-weight:700;font-size:16px;font-family:Helvetica;writing-mode:lr-tb;fill:#000000;fill-opacity:1;fill-rule:nonzero;stroke:none"
         x="0 9.7734375 18.671875 24 32.898438 42.671875 47.117188 56.015625 60.460938 64.90625 69.351562 79.125 88.023438 96.921875 103.14844 112.04688 116.49219 125.39062 135.16406 144.9375 149.38281 158.28125 167.17969 176.07812 182.30469 191.20312"
         y="0"
         sodipodi:role="line"
         id="tspan9">Fetch all users and search</tspan></text>
    <text
       id="text10"
       xml:space="preserve"
       transform="matrix(0.95727452,0,0,0.95727452,406.42286,47.863726)"
       clip-path="url(#clipPath11)"><tspan
         style="font-variant:normal;font-weight:700;font-size:16px;font-family:Helvetica;writing-mode:lr-tb;fill:#000000;fill-opacity:1;fill-rule:nonzero;stroke:none"
         x="0 5.328125 15.101562 21.328125 31.101562 40.875 50.648438 60.421875 64.867188 70.195312 79.96875 88.867188 103.09375"
         y="0"
         sodipodi:role="line"
         id="tspan10">through them?</tspan></text>
    <path
       id="path12"
       d="M 481,138 V 241.63"
       style="fill:none;stroke:#000000;stroke-width:1;stroke-linecap:butt;stroke-linejoin:miter;stroke-miterlimit:10;stroke-dasharray:none;stroke-opacity:1"
       transform="matrix(0.95726489,0,0,0.95726489,0.47863245,0.47863245)"
       clip-path="url(#clipPath13)" />
    <path
       id="path14"
       d="m 481,246.88 -3.5,-7 3.5,1.75 3.5,-1.75 z"
       style="fill:#000000;fill-opacity:1;fill-rule:nonzero;stroke:#000000;stroke-width:1;stroke-linecap:butt;stroke-linejoin:miter;stroke-miterlimit:10;stroke-dasharray:none;stroke-opacity:1"
       transform="matrix(0.95726489,0,0,0.95726489,0.47863245,0.47863245)"
       clip-path="url(#clipPath15)" />
    <path
       id="path16"
       d="m 371,78 h 220 v 60 H 371 Z"
       style="fill:#f8cecc;fill-opacity:1;fill-rule:nonzero;stroke:#b85450;stroke-width:1;stroke-linecap:butt;stroke-linejoin:miter;stroke-miterlimit:10;stroke-dasharray:none;stroke-opacity:1"
       transform="matrix(0.95726489,0,0,0.95726489,0.47863245,0.47863245)"
       clip-path="url(#clipPath17)" />
    <text
       id="text17"
       xml:space="preserve"
       transform="matrix(0.95727452,0,0,0.95727452,372.55928,108.17202)"
       clip-path="url(#clipPath18)"><tspan
         style="font-variant:normal;font-weight:700;font-size:14px;font-family:Helvetica;writing-mode:lr-tb;fill:#000000;fill-opacity:1;fill-rule:nonzero;stroke:none"
         x="0 10.110352 18.662109 22.551758 27.213867 35.765625 39.655273 47.441406 51.331055 59.882812 68.43457 76.220703 84.006836 87.896484 92.558594 101.11035 106.55859 110.44824 118.23438 126.02051 133.80664 139.25488 147.04102 150.93066 159.48242 167.26855 175.82031"
         y="0"
         sodipodi:role="line"
         id="tspan17">Do this once for every page</tspan></text>
    <path
       id="path19"
       d="m 31,78 h 220 v 60 H 31 Z"
       style="fill:#f8cecc;fill-opacity:1;fill-rule:nonzero;stroke:#b85450;stroke-width:1;stroke-linecap:butt;stroke-linejoin:miter;stroke-miterlimit:10;stroke-dasharray:none;stroke-opacity:1"
       transform="matrix(0.95726489,0,0,0.95726489,0.47863245,0.47863245)"
       clip-path="url(#clipPath20)" />
    <text
       id="text20"
       xml:space="preserve"
       transform="matrix(0.95727452,0,0,0.95727452,34.446925,100.51382)"
       clip-path="url(#clipPath21)"><tspan
         style="font-variant:normal;font-weight:700;font-size:14px;font-family:Helvetica;writing-mode:lr-tb;fill:#000000;fill-opacity:1;fill-rule:nonzero;stroke:none"
         x="0 9.3378906 14.786133 23.337891 31.889648 39.675781 48.227539 52.117188 59.90332 63.792969 67.682617 76.234375 84.020508 88.682617 92.572266 97.234375 105.02051 109.68262 117.46875 126.02051 129.91016 138.46191 147.01367 154.7998 158.68945 164.1377 171.92383 180.47559 189.02734 197.5791"
         y="0"
         sodipodi:role="line"
         id="tspan20">Probably just fetch one random</tspan></text>
    <text
       id="text21"
       xml:space="preserve"
       transform="matrix(0.95727452,0,0,0.95727452,119.33025,116.78749)"
       clip-path="url(#clipPath22)"><tspan
         style="font-variant:normal;font-weight:700;font-size:14px;font-family:Helvetica;writing-mode:lr-tb;fill:#000000;fill-opacity:1;fill-rule:nonzero;stroke:none"
         x="0 8.5517578 16.337891 24.889648"
         y="0"
         sodipodi:role="line"
         id="tspan21">page</tspan></text>
    <path
       id="path23"
       d="m 141,208 v 33.63"
       style="fill:none;stroke:#000000;stroke-width:1;stroke-linecap:butt;stroke-linejoin:miter;stroke-miterlimit:10;stroke-dasharray:none;stroke-opacity:1"
       transform="matrix(0.95726489,0,0,0.95726489,0.47863245,0.47863245)"
       clip-path="url(#clipPath24)" />
    <path
       id="path25"
       d="m 141,246.88 -3.5,-7 3.5,1.75 3.5,-1.75 z"
       style="fill:#000000;fill-opacity:1;fill-rule:nonzero;stroke:#000000;stroke-width:1;stroke-linecap:butt;stroke-linejoin:miter;stroke-miterlimit:10;stroke-dasharray:none;stroke-opacity:1"
       transform="matrix(0.95726489,0,0,0.95726489,0.47863245,0.47863245)"
       clip-path="url(#clipPath26)" />
    <path
       id="path27"
       d="m 31,148 h 220 v 60 H 31 Z"
       style="fill:#f8cecc;fill-opacity:1;fill-rule:nonzero;stroke:#b85450;stroke-width:1;stroke-linecap:butt;stroke-linejoin:miter;stroke-miterlimit:10;stroke-dasharray:none;stroke-opacity:1"
       transform="matrix(0.95726489,0,0,0.95726489,0.47863245,0.47863245)"
       clip-path="url(#clipPath28)" />
    <text
       id="text28"
       xml:space="preserve"
       transform="matrix(0.95727452,0,0,0.95727452,34.446925,167.52304)"
       clip-path="url(#clipPath29)"><tspan
         style="font-variant:normal;font-weight:700;font-size:14px;font-family:Helvetica;writing-mode:lr-tb;fill:#000000;fill-opacity:1;fill-rule:nonzero;stroke:none"
         x="0 9.3378906 14.786133 23.337891 31.889648 39.675781 48.227539 52.117188 59.90332 63.792969 67.682617 76.234375 84.020508 88.682617 92.572266 97.234375 105.02051 109.68262 117.46875 126.02051 129.91016 138.46191 147.01367 154.7998 158.68945 164.1377 171.92383 180.47559 189.02734 197.5791"
         y="0"
         sodipodi:role="line"
         id="tspan28">Probably just fetch one random</tspan></text>
    <text
       id="text29"
       xml:space="preserve"
       transform="matrix(0.95727452,0,0,0.95727452,119.33025,183.79671)"
       clip-path="url(#clipPath30)"><tspan
         style="font-variant:normal;font-weight:700;font-size:14px;font-family:Helvetica;writing-mode:lr-tb;fill:#000000;fill-opacity:1;fill-rule:nonzero;stroke:none"
         x="0 8.5517578 16.337891 24.889648"
         y="0"
         sodipodi:role="line"
         id="tspan29">page</tspan></text>
    <path
       id="path31"
       d="m 141,308 0.16,13.64001"
       style="fill:none;stroke:#000000;stroke-width:1;stroke-linecap:butt;stroke-linejoin:miter;stroke-miterlimit:10;stroke-dasharray:none;stroke-opacity:1"
       transform="matrix(0.95726489,0,0,0.95726489,0.47863245,0.47863245)"
       clip-path="url(#clipPath32)" />
    <path
       id="path33"
       d="m 141.23,326.89001 -3.59,-6.96002 3.52,1.71002 3.48,-1.80001 z"
       style="fill:#000000;fill-opacity:1;fill-rule:nonzero;stroke:#000000;stroke-width:1;stroke-linecap:butt;stroke-linejoin:miter;stroke-miterlimit:10;stroke-dasharray:none;stroke-opacity:1"
       transform="matrix(0.95726489,0,0,0.95726489,0.47863245,0.47863245)"
       clip-path="url(#clipPath34)" />
    <path
       id="path35"
       d="m 1,248 h 280 v 60 H 1 Z"
       style="fill:#e1d5e7;fill-opacity:1;fill-rule:nonzero;stroke:#9673a6;stroke-width:1;stroke-linecap:butt;stroke-linejoin:miter;stroke-miterlimit:10;stroke-dasharray:none;stroke-opacity:1"
       transform="matrix(0.95726489,0,0,0.95726489,0.47863245,0.47863245)"
       clip-path="url(#clipPath36)" />
    <text
       id="text36"
       xml:space="preserve"
       transform="matrix(0.95727452,0,0,0.95727452,18.80147,270.90869)"
       clip-path="url(#clipPath37)"><tspan
         style="font-variant:normal;font-weight:700;font-size:14px;font-family:Helvetica;writing-mode:lr-tb;fill:#000000;fill-opacity:1;fill-rule:nonzero;stroke:none"
         x="0 4.6621094 12.448242 16.337891 24.889648 32.675781 41.227539 49.013672 56.799805 60.689453 64.579102 73.130859 80.916992 89.46875 97.254883 105.80664 109.69629 113.58594 122.1377 126.02734 131.47559 139.26172 147.81348 156.36523 164.91699 177.36523 181.25488 189.80664 195.25488 203.80664 211.59277 217.04102 221.70312 225.59277 231.04102 234.93066"
         y="0"
         sodipodi:role="line"
         id="tspan36">(2 pages loaded in random order) * 4</tspan></text>
    <path
       id="path38"
       d="m 81,328 h 120 v 60 H 81 Z"
       style="fill:#e1d5e7;fill-opacity:1;fill-rule:nonzero;stroke:#9673a6;stroke-width:1;stroke-linecap:butt;stroke-linejoin:miter;stroke-miterlimit:10;stroke-dasharray:none;stroke-opacity:1"
       transform="matrix(0.95726489,0,0,0.95726489,0.47863245,0.47863245)"
       clip-path="url(#clipPath39)" />
    <text
       id="text39"
       xml:space="preserve"
       transform="matrix(0.95727452,0,0,0.95727452,128.84317,350.36247)"
       clip-path="url(#clipPath40)"><tspan
         style="font-variant:normal;font-weight:700;font-size:23px;font-family:Helvetica;writing-mode:lr-tb;fill:#000000;fill-opacity:1;fill-rule:nonzero;stroke:none"
         x="0"
         y="0"
         id="tspan39">8</tspan></text>
    <path
       id="path41"
       d="m 341,248 h 280 v 60 H 341 Z"
       style="fill:#e1d5e7;fill-opacity:1;fill-rule:nonzero;stroke:#9673a6;stroke-width:1;stroke-linecap:butt;stroke-linejoin:miter;stroke-miterlimit:10;stroke-dasharray:none;stroke-opacity:1"
       transform="matrix(0.95726489,0,0,0.95726489,0.47863245,0.47863245)"
       clip-path="url(#clipPath42)" />
    <text
       id="text42"
       xml:space="preserve"
       transform="matrix(0.95727452,0,0,0.95727452,349.82401,270.90869)"
       clip-path="url(#clipPath43)"><tspan
         style="font-variant:normal;font-weight:700;font-size:14px;font-family:Helvetica;writing-mode:lr-tb;fill:#000000;fill-opacity:1;fill-rule:nonzero;stroke:none"
         x="0 4.6621094 11.682617 19.46875 27.254883 31.144531 39.696289 47.482422 56.03418 63.820312 71.606445 75.496094 79.385742 87.9375 95.723633 104.27539 112.06152 120.61328 124.50293 132.28906 140.0752 148.62695 157.17871 164.96484 173.5166 178.17871 182.06836 189.85449 193.74414 197.63379 205.41992 210.08203 213.97168 219.41992 223.30957"
         y="0"
         sodipodi:role="line"
         id="tspan42">(110 pages loaded sequentially) * 1</tspan></text>
    <path
       id="path44"
       d="m 481,308 0.17001,13.64001"
       style="fill:none;stroke:#000000;stroke-width:1;stroke-linecap:butt;stroke-linejoin:miter;stroke-miterlimit:10;stroke-dasharray:none;stroke-opacity:1"
       transform="matrix(0.95726489,0,0,0.95726489,0.47863245,0.47863245)"
       clip-path="url(#clipPath45)" />
    <path
       id="path46"
       d="m 481.23001,326.89001 -3.58002,-6.96002 3.52002,1.71002 3.47998,-1.80001 z"
       style="fill:#000000;fill-opacity:1;fill-rule:nonzero;stroke:#000000;stroke-width:1;stroke-linecap:butt;stroke-linejoin:miter;stroke-miterlimit:10;stroke-dasharray:none;stroke-opacity:1"
       transform="matrix(0.95726489,0,0,0.95726489,0.47863245,0.47863245)"
       clip-path="url(#clipPath47)" />
    <path
       id="path48"
       d="m 421,328 h 120 v 60 H 421 Z"
       style="fill:#e1d5e7;fill-opacity:1;fill-rule:nonzero;stroke:#9673a6;stroke-width:1;stroke-linecap:butt;stroke-linejoin:miter;stroke-miterlimit:10;stroke-dasharray:none;stroke-opacity:1"
       transform="matrix(0.95726489,0,0,0.95726489,0.47863245,0.47863245)"
       clip-path="url(#clipPath49)" />
    <text
       id="text49"
       xml:space="preserve"
       transform="matrix(0.95727452,0,0,0.95727452,442.67964,350.36247)"
       clip-path="url(#clipPath50)"><tspan
         style="font-variant:normal;font-weight:700;font-size:23px;font-family:Helvetica;writing-mode:lr-tb;fill:#000000;fill-opacity:1;fill-rule:nonzero;stroke:none"
         x="0 11.533691 24.325195"
         y="0"
         sodipodi:role="line"
         id="tspan49">110</tspan></text>
  </g>
</svg>
