<?xml version="1.0" encoding="UTF-8" standalone="no"?>
<!-- Created with Inkscape (http://www.inkscape.org/) -->

<svg
   version="1.1"
   id="svg1"
   width="626.56"
   height="315.84"
   viewBox="0 0 626.56 315.84"
   sodipodi:docname="sql-18.pdf"
   xmlns:inkscape="http://www.inkscape.org/namespaces/inkscape"
   xmlns:sodipodi="http://sodipodi.sourceforge.net/DTD/sodipodi-0.dtd"
   xmlns="http://www.w3.org/2000/svg"
   xmlns:svg="http://www.w3.org/2000/svg">
  <defs
     id="defs1">
    <clipPath
       clipPathUnits="userSpaceOnUse"
       id="clipPath2">
      <path
         d="M 0,0 H 1958.3333 V 985.1554 H 0 Z"
         transform="scale(0.33395747)"
         clip-rule="evenodd"
         id="path2" />
    </clipPath>
    <clipPath
       clipPathUnits="userSpaceOnUse"
       id="clipPath4">
      <path
         d="M 0,0 H 1958.3333 V 985.1554 H 0 Z"
         transform="matrix(0.33395747,0,0,0.33395747,-0.5,-0.5)"
         clip-rule="evenodd"
         id="path4" />
    </clipPath>
    <clipPath
       clipPathUnits="userSpaceOnUse"
       id="clipPath5">
      <path
         d="M 0,0 H 1958.3333 V 985.1554 H 0 Z"
         transform="matrix(0.33395411,0,0,0.33395411,-21,-33)"
         clip-rule="evenodd"
         id="path5" />
    </clipPath>
    <clipPath
       clipPathUnits="userSpaceOnUse"
       id="clipPath6">
      <path
         d="M 0,0 H 1958.3333 V 985.1554 H 0 Z"
         transform="matrix(0.33395411,0,0,0.33395411,-93.40625,-35)"
         clip-rule="evenodd"
         id="path6" />
    </clipPath>
    <clipPath
       clipPathUnits="userSpaceOnUse"
       id="clipPath8">
      <path
         d="M 0,0 H 1958.3333 V 985.1554 H 0 Z"
         transform="matrix(0.33395747,0,0,0.33395747,-0.5,-0.5)"
         clip-rule="evenodd"
         id="path8" />
    </clipPath>
    <clipPath
       clipPathUnits="userSpaceOnUse"
       id="clipPath9">
      <path
         d="M 0,0 H 1958.3333 V 985.1554 H 0 Z"
         transform="matrix(0.33395411,0,0,0.33395411,-206.92188,-33)"
         clip-rule="evenodd"
         id="path9" />
    </clipPath>
    <clipPath
       clipPathUnits="userSpaceOnUse"
       id="clipPath11">
      <path
         d="M 0,0 H 1958.3333 V 985.1554 H 0 Z"
         transform="matrix(0.33395747,0,0,0.33395747,-0.5,-0.5)"
         clip-rule="evenodd"
         id="path11" />
    </clipPath>
    <clipPath
       clipPathUnits="userSpaceOnUse"
       id="clipPath12">
      <path
         d="M 0,0 H 1958.3333 V 985.1554 H 0 Z"
         transform="matrix(0.33395411,0,0,0.33395411,-197.9375,-103)"
         clip-rule="evenodd"
         id="path12" />
    </clipPath>
    <clipPath
       clipPathUnits="userSpaceOnUse"
       id="clipPath13">
      <path
         d="M 0,0 H 1958.3333 V 985.1554 H 0 Z"
         transform="matrix(0.33395411,0,0,0.33395411,-113.40625,-105)"
         clip-rule="evenodd"
         id="path13" />
    </clipPath>
    <clipPath
       clipPathUnits="userSpaceOnUse"
       id="clipPath15">
      <path
         d="M 0,0 H 1958.3333 V 985.1554 H 0 Z"
         transform="matrix(0.33395747,0,0,0.33395747,-0.5,-0.5)"
         clip-rule="evenodd"
         id="path15" />
    </clipPath>
    <clipPath
       clipPathUnits="userSpaceOnUse"
       id="clipPath16">
      <path
         d="M 0,0 H 1958.3333 V 985.1554 H 0 Z"
         transform="matrix(0.33395411,0,0,0.33395411,-247.95313,-173)"
         clip-rule="evenodd"
         id="path16" />
    </clipPath>
    <clipPath
       clipPathUnits="userSpaceOnUse"
       id="clipPath17">
      <path
         d="M 0,0 H 1958.3333 V 985.1554 H 0 Z"
         transform="matrix(0.33395411,0,0,0.33395411,-113.40625,-173)"
         clip-rule="evenodd"
         id="path17" />
    </clipPath>
    <clipPath
       clipPathUnits="userSpaceOnUse"
       id="clipPath19">
      <path
         d="M 0,0 H 1958.3333 V 985.1554 H 0 Z"
         transform="matrix(0.33395747,0,0,0.33395747,-0.5,-0.5)"
         clip-rule="evenodd"
         id="path19" />
    </clipPath>
    <clipPath
       clipPathUnits="userSpaceOnUse"
       id="clipPath20">
      <path
         d="M 0,0 H 1958.3333 V 985.1554 H 0 Z"
         transform="matrix(0.33395411,0,0,0.33395411,-184.92188,-243)"
         clip-rule="evenodd"
         id="path20" />
    </clipPath>
    <clipPath
       clipPathUnits="userSpaceOnUse"
       id="clipPath21">
      <path
         d="M 0,0 H 1958.3333 V 985.1554 H 0 Z"
         transform="matrix(0.33395411,0,0,0.33395411,-113.40625,-243)"
         clip-rule="evenodd"
         id="path21" />
    </clipPath>
    <clipPath
       clipPathUnits="userSpaceOnUse"
       id="clipPath23">
      <path
         d="M 0,0 H 1958.3333 V 985.1554 H 0 Z"
         transform="matrix(0.33395747,0,0,0.33395747,-0.5,-0.5)"
         clip-rule="evenodd"
         id="path23" />
    </clipPath>
    <clipPath
       clipPathUnits="userSpaceOnUse"
       id="clipPath24">
      <path
         d="M 0,0 H 1958.3333 V 985.1554 H 0 Z"
         transform="matrix(0.33395411,0,0,0.33395411,-148.4375,-308)"
         clip-rule="evenodd"
         id="path24" />
    </clipPath>
    <clipPath
       clipPathUnits="userSpaceOnUse"
       id="clipPath25">
      <path
         d="M 0,0 H 1958.3333 V 985.1554 H 0 Z"
         transform="matrix(0.33395411,0,0,0.33395411,-113.40625,-308)"
         clip-rule="evenodd"
         id="path25" />
    </clipPath>
  </defs>
  <sodipodi:namedview
     id="namedview1"
     pagecolor="#ffffff"
     bordercolor="#000000"
     borderopacity="0.25"
     inkscape:showpageshadow="2"
     inkscape:pageopacity="0.0"
     inkscape:pagecheckerboard="0"
     inkscape:deskcolor="#d1d1d1">
    <inkscape:page
       x="0"
       y="0"
       inkscape:label="1"
       id="page1"
       width="626.56"
       height="315.84"
       margin="0"
       bleed="0" />
  </sodipodi:namedview>
  <g
     id="g1"
     inkscape:groupmode="layer"
     inkscape:label="1">
    <path
       id="path1"
       d="M 0,0 H 654 V 329 H 0 Z"
       style="fill:#ffffff;fill-opacity:1;fill-rule:nonzero;stroke:none"
       transform="scale(0.95820582)"
       clip-path="url(#clipPath2)" />
    <path
       id="path3"
       d="M 1,1 H 81 V 51 H 1 Z"
       style="fill:#dae8fc;fill-opacity:1;fill-rule:nonzero;stroke:#6c8ebf;stroke-width:1;stroke-linecap:butt;stroke-linejoin:miter;stroke-miterlimit:10;stroke-dasharray:none;stroke-opacity:1"
       transform="matrix(0.95820582,0,0,0.95820582,0.47910291,0.47910291)"
       clip-path="url(#clipPath4)" />
    <text
       id="text4"
       xml:space="preserve"
       transform="matrix(0.95821545,0,0,0.95821545,20.122524,31.62111)"
       clip-path="url(#clipPath5)"><tspan
         style="font-variant:normal;font-weight:700;font-size:18px;font-family:Helvetica;writing-mode:lr-tb;fill:#000000;fill-opacity:1;fill-rule:nonzero;stroke:none"
         x="0 12.999023 23.994141 34.004883"
         y="0"
         sodipodi:role="line"
         id="tspan4">Cost</tspan></text>
    <text
       id="text5"
       xml:space="preserve"
       transform="matrix(0.95821545,0,0,0.95821545,89.503312,33.537541)"
       clip-path="url(#clipPath6)"><tspan
         style="font-variant:normal;font-weight:normal;font-size:26px;font-family:Helvetica;writing-mode:lr-tb;fill:#000000;fill-opacity:1;fill-rule:nonzero;stroke:none"
         x="0"
         y="0"
         id="tspan5">=</tspan></text>
    <path
       id="path7"
       d="M 141,1 H 651.01001 V 51 H 141 Z"
       style="fill:#e1d5e7;fill-opacity:1;fill-rule:nonzero;stroke:#9673a6;stroke-width:1;stroke-linecap:butt;stroke-linejoin:miter;stroke-miterlimit:10;stroke-dasharray:none;stroke-opacity:1"
       transform="matrix(0.95820582,0,0,0.95820582,0.47910291,0.47910291)"
       clip-path="url(#clipPath8)" />
    <text
       id="text8"
       xml:space="preserve"
       transform="matrix(0.95821545,0,0,0.95821545,198.27574,31.62111)"
       clip-path="url(#clipPath9)"><tspan
         style="font-variant:normal;font-weight:700;font-size:18px;font-family:Helvetica;writing-mode:lr-tb;fill:#000000;fill-opacity:1;fill-rule:nonzero;stroke:none"
         x="0 5.9941406 16.004883 21.005859 32.000977 42.011719 53.006836 63.017578 73.02832 78.029297 85.03418 95.044922 105.05566 116.05078 121.05176 131.0625 141.07324 152.06836 163.06348 173.07422 184.06934 190.06348 195.06445 205.0752 210.07617 215.07715 225.08789 231.08203 236.08301 243.08789 248.08887 258.09961 268.11035 279.10547 289.11621 300.11133 310.12207 321.11719 331.12793 341.13867 351.14941 362.14453 372.15527"
         y="0"
         sodipodi:role="line"
         id="tspan8">(# pages read sequentially) * seq_page_cost</tspan></text>
    <path
       id="path10"
       d="m 141,71 h 510.01001 v 50 H 141 Z"
       style="fill:#e1d5e7;fill-opacity:1;fill-rule:nonzero;stroke:#9673a6;stroke-width:1;stroke-linecap:butt;stroke-linejoin:miter;stroke-miterlimit:10;stroke-dasharray:none;stroke-opacity:1"
       transform="matrix(0.95820582,0,0,0.95820582,0.47910291,0.47910291)"
       clip-path="url(#clipPath11)" />
    <text
       id="text11"
       xml:space="preserve"
       transform="matrix(0.95821545,0,0,0.95821545,189.66677,98.696191)"
       clip-path="url(#clipPath12)"><tspan
         style="font-variant:normal;font-weight:700;font-size:18px;font-family:Helvetica;writing-mode:lr-tb;fill:#000000;fill-opacity:1;fill-rule:nonzero;stroke:none"
         x="0 5.9941406 16.004883 21.005859 32.000977 42.011719 53.006836 63.017578 73.02832 78.029297 85.03418 95.044922 105.05566 116.05078 121.05176 131.0625 137.05664 142.05762 149.0625 159.07324 170.06836 181.06348 192.05859 208.06348 214.05762 219.05859 226.06348 231.06445 238.06934 248.08008 259.0752 270.07031 281.06543 297.07031 307.08105 318.07617 328.08691 339.08203 349.09277 359.10352 369.11426 380.10938 390.12012"
         y="0"
         sodipodi:role="line"
         id="tspan11">(# pages read at random) * random_page_cost</tspan></text>
    <text
       id="text12"
       xml:space="preserve"
       transform="matrix(0.95821545,0,0,0.95821545,108.66762,100.61262)"
       clip-path="url(#clipPath13)"><tspan
         style="font-variant:normal;font-weight:700;font-size:26px;font-family:Helvetica;writing-mode:lr-tb;fill:#000000;fill-opacity:1;fill-rule:nonzero;stroke:none"
         x="0"
         y="0"
         id="tspan12">+</tspan></text>
    <path
       id="path14"
       d="m 141,141 h 510.01001 v 50 H 141 Z"
       style="fill:#e1d5e7;fill-opacity:1;fill-rule:nonzero;stroke:#9673a6;stroke-width:1;stroke-linecap:butt;stroke-linejoin:miter;stroke-miterlimit:10;stroke-dasharray:none;stroke-opacity:1"
       transform="matrix(0.95820582,0,0,0.95820582,0.47910291,0.47910291)"
       clip-path="url(#clipPath15)" />
    <text
       id="text15"
       xml:space="preserve"
       transform="matrix(0.95821545,0,0,0.95821545,237.59252,165.77127)"
       clip-path="url(#clipPath16)"><tspan
         style="font-variant:normal;font-weight:700;font-size:18px;font-family:Helvetica;writing-mode:lr-tb;fill:#000000;fill-opacity:1;fill-rule:nonzero;stroke:none"
         x="0 5.9941406 16.004883 21.005859 28.010742 39.005859 53.006836 63.017578 68.018555 78.029297 88.040039 98.050781 109.0459 120.04102 130.05176 141.04688 147.04102 152.04199 159.04688 164.04785 174.05859 185.05371 196.04883 206.05957 212.05371 223.04883 234.04395 239.04492 249.05566 259.06641 269.07715 280.07227 290.08301"
         y="0"
         sodipodi:role="line"
         id="tspan15">(# rows scanned) * cpu_tuple_cost</tspan></text>
    <text
       id="text16"
       xml:space="preserve"
       transform="matrix(0.95821545,0,0,0.95821545,108.66762,165.77127)"
       clip-path="url(#clipPath17)"><tspan
         style="font-variant:normal;font-weight:700;font-size:26px;font-family:Helvetica;writing-mode:lr-tb;fill:#000000;fill-opacity:1;fill-rule:nonzero;stroke:none"
         x="0"
         y="0"
         id="tspan16">+</tspan></text>
    <path
       id="path18"
       d="m 141,211 h 510.01001 v 50 H 141 Z"
       style="fill:#e1d5e7;fill-opacity:1;fill-rule:nonzero;stroke:#9673a6;stroke-width:1;stroke-linecap:butt;stroke-linejoin:miter;stroke-miterlimit:10;stroke-dasharray:none;stroke-opacity:1"
       transform="matrix(0.95820582,0,0,0.95820582,0.47910291,0.47910291)"
       clip-path="url(#clipPath19)" />
    <text
       id="text19"
       xml:space="preserve"
       transform="matrix(0.95821545,0,0,0.95821545,177.195,232.84635)"
       clip-path="url(#clipPath20)"><tspan
         style="font-variant:normal;font-weight:700;font-size:18px;font-family:Helvetica;writing-mode:lr-tb;fill:#000000;fill-opacity:1;fill-rule:nonzero;stroke:none"
         x="0 5.9941406 16.004883 21.005859 26.006836 37.001953 47.99707 58.007812 68.018555 73.019531 83.030273 94.025391 100.01953 107.02441 112.02539 122.03613 132.04688 137.04785 147.05859 157.06934 167.08008 178.0752 189.07031 199.08105 210.07617 216.07031 221.07129 228.07617 233.07715 243.08789 254.08301 265.07812 275.08887 280.08984 291.08496 302.08008 312.09082 322.10156 332.1123 338.10645 349.10156 360.09668 365.09766 375.1084 385.11914 395.12988 406.125 416.13574"
         y="0"
         sodipodi:role="line"
         id="tspan19">(# index entries scanned) * cpu_index_tuple_cost</tspan></text>
    <text
       id="text20"
       xml:space="preserve"
       transform="matrix(0.95821545,0,0,0.95821545,108.66762,232.84635)"
       clip-path="url(#clipPath21)"><tspan
         style="font-variant:normal;font-weight:700;font-size:26px;font-family:Helvetica;writing-mode:lr-tb;fill:#000000;fill-opacity:1;fill-rule:nonzero;stroke:none"
         x="0"
         y="0"
         id="tspan20">+</tspan></text>
    <path
       id="path22"
       d="m 141,276 h 510.01001 v 50 H 141 Z"
       style="fill:#e1d5e7;fill-opacity:1;fill-rule:nonzero;stroke:#9673a6;stroke-width:1;stroke-linecap:butt;stroke-linejoin:miter;stroke-miterlimit:10;stroke-dasharray:none;stroke-opacity:1"
       transform="matrix(0.95820582,0,0,0.95820582,0.47910291,0.47910291)"
       clip-path="url(#clipPath23)" />
    <text
       id="text23"
       xml:space="preserve"
       transform="matrix(0.95821545,0,0,0.95821545,142.23511,295.13036)"
       clip-path="url(#clipPath24)"><tspan
         style="font-variant:normal;font-weight:700;font-size:18px;font-family:Helvetica;writing-mode:lr-tb;fill:#000000;fill-opacity:1;fill-rule:nonzero;stroke:none"
         x="0 5.9941406 16.004883 21.005859 27 32.000977 48.005859 58.016602 68.027344 73.02832 79.022461 90.017578 101.0127 111.02344 117.01758 122.01855 133.01367 144.00879 149.00977 160.00488 171 181.01074 188.01562 198.02637 204.02051 215.01562 222.02051 227.02148 237.03223 247.04297 257.05371 262.05469 273.0498 283.06055 289.05469 299.06543 310.06055 316.05469 321.05566 328.06055 333.06152 343.07227 354.06738 365.0625 375.07324 386.06836 397.06348 407.07422 414.0791 424.08984 430.08398 441.0791 448.08398 458.09473 468.10547 479.10059 489.11133"
         y="0"
         sodipodi:role="line"
         id="tspan23">(# times function/operator evaluated) * cpu_operator_cost</tspan></text>
    <text
       id="text24"
       xml:space="preserve"
       transform="matrix(0.95821545,0,0,0.95821545,108.66762,295.13036)"
       clip-path="url(#clipPath25)"><tspan
         style="font-variant:normal;font-weight:700;font-size:26px;font-family:Helvetica;writing-mode:lr-tb;fill:#000000;fill-opacity:1;fill-rule:nonzero;stroke:none"
         x="0"
         y="0"
         id="tspan24">+</tspan></text>
  </g>
</svg>
