<?xml version="1.0" encoding="UTF-8" standalone="no"?>
<!-- Created with Inkscape (http://www.inkscape.org/) -->

<svg
   version="1.1"
   id="svg1"
   width="1267.84"
   height="446.71997"
   viewBox="0 0 1267.84 446.71997"
   sodipodi:docname="sql-21.pdf"
   xmlns:inkscape="http://www.inkscape.org/namespaces/inkscape"
   xmlns:sodipodi="http://sodipodi.sourceforge.net/DTD/sodipodi-0.dtd"
   xmlns="http://www.w3.org/2000/svg"
   xmlns:svg="http://www.w3.org/2000/svg">
  <defs
     id="defs1">
    <clipPath
       clipPathUnits="userSpaceOnUse"
       id="clipPath2">
      <path
         d="M 0,0 H 3962.4998 V 1394.6563 H 0 Z"
         transform="scale(0.33413251)"
         clip-rule="evenodd"
         id="path2" />
    </clipPath>
    <clipPath
       clipPathUnits="userSpaceOnUse"
       id="clipPath4">
      <path
         d="M 0,0 H 3962.4998 V 1391.6634 H 0 Z"
         transform="matrix(0.33413251,0,0,0.33413251,-0.49999999,-0.49999999)"
         clip-rule="evenodd"
         id="path4" />
    </clipPath>
    <clipPath
       clipPathUnits="userSpaceOnUse"
       id="clipPath5">
      <path
         d="M 0,0 H 3962.4998 V 1391.6634 H 0 Z"
         transform="matrix(0.33412916,0,0,0.33412916,-353,-116)"
         clip-rule="evenodd"
         id="path5" />
    </clipPath>
    <clipPath
       clipPathUnits="userSpaceOnUse"
       id="clipPath7">
      <path
         d="M 0,0 H 3962.4998 V 1391.6634 H 0 Z"
         transform="matrix(0.33413251,0,0,0.33413251,-0.49999999,-0.49999999)"
         clip-rule="evenodd"
         id="path7" />
    </clipPath>
    <clipPath
       clipPathUnits="userSpaceOnUse"
       id="clipPath8">
      <path
         d="M 0,0 H 3962.4998 V 1391.6634 H 0 Z"
         transform="matrix(0.33412916,0,0,0.33412916,-373,-156.00001)"
         clip-rule="evenodd"
         id="path8" />
    </clipPath>
    <clipPath
       clipPathUnits="userSpaceOnUse"
       id="clipPath10">
      <path
         d="M 0,0 H 3962.4998 V 1391.6634 H 0 Z"
         transform="matrix(0.33413251,0,0,0.33413251,-0.49999999,-0.49999999)"
         clip-rule="evenodd"
         id="path10" />
    </clipPath>
    <clipPath
       clipPathUnits="userSpaceOnUse"
       id="clipPath11">
      <path
         d="M 0,0 H 3962.4998 V 1391.6634 H 0 Z"
         transform="matrix(0.33412916,0,0,0.33412916,-373,-396)"
         clip-rule="evenodd"
         id="path11" />
    </clipPath>
    <clipPath
       clipPathUnits="userSpaceOnUse"
       id="clipPath13">
      <path
         d="M 0,0 H 3962.4998 V 1391.6634 H 0 Z"
         transform="matrix(0.33413251,0,0,0.33413251,-0.49999999,-0.49999999)"
         clip-rule="evenodd"
         id="path13" />
    </clipPath>
    <clipPath
       clipPathUnits="userSpaceOnUse"
       id="clipPath14">
      <path
         d="M 0,0 H 3962.4998 V 1391.6634 H 0 Z"
         transform="matrix(0.33412916,0,0,0.33412916,-373,-436)"
         clip-rule="evenodd"
         id="path14" />
    </clipPath>
    <clipPath
       clipPathUnits="userSpaceOnUse"
       id="clipPath16">
      <path
         d="M 0,0 H 3962.4998 V 1391.6634 H 0 Z"
         transform="matrix(0.33413251,0,0,0.33413251,-0.49999999,-0.49999999)"
         clip-rule="evenodd"
         id="path16" />
    </clipPath>
    <clipPath
       clipPathUnits="userSpaceOnUse"
       id="clipPath17">
      <path
         d="M 0,0 H 3962.4998 V 1391.6634 H 0 Z"
         transform="matrix(0.33412916,0,0,0.33412916,-373,-196)"
         clip-rule="evenodd"
         id="path17" />
    </clipPath>
    <clipPath
       clipPathUnits="userSpaceOnUse"
       id="clipPath19">
      <path
         d="M 0,0 H 3962.4998 V 1391.6634 H 0 Z"
         transform="matrix(0.33413251,0,0,0.33413251,-0.49999999,-0.49999999)"
         clip-rule="evenodd"
         id="path19" />
    </clipPath>
    <clipPath
       clipPathUnits="userSpaceOnUse"
       id="clipPath20">
      <path
         d="M 0,0 H 3962.4998 V 1391.6634 H 0 Z"
         transform="matrix(0.33412916,0,0,0.33412916,-373,-236)"
         clip-rule="evenodd"
         id="path20" />
    </clipPath>
    <clipPath
       clipPathUnits="userSpaceOnUse"
       id="clipPath22">
      <path
         d="M 0,0 H 3962.4998 V 1391.6634 H 0 Z"
         transform="matrix(0.33413251,0,0,0.33413251,-0.49999999,-0.49999999)"
         clip-rule="evenodd"
         id="path22" />
    </clipPath>
    <clipPath
       clipPathUnits="userSpaceOnUse"
       id="clipPath23">
      <path
         d="M 0,0 H 3962.4998 V 1391.6634 H 0 Z"
         transform="matrix(0.33412916,0,0,0.33412916,-413,-276)"
         clip-rule="evenodd"
         id="path23" />
    </clipPath>
    <clipPath
       clipPathUnits="userSpaceOnUse"
       id="clipPath25">
      <path
         d="M 0,0 H 3962.4998 V 1391.6634 H 0 Z"
         transform="matrix(0.33413251,0,0,0.33413251,-0.49999999,-0.49999999)"
         clip-rule="evenodd"
         id="path25" />
    </clipPath>
    <clipPath
       clipPathUnits="userSpaceOnUse"
       id="clipPath26">
      <path
         d="M 0,0 H 3962.4998 V 1391.6634 H 0 Z"
         transform="matrix(0.33412916,0,0,0.33412916,-413,-316)"
         clip-rule="evenodd"
         id="path26" />
    </clipPath>
    <clipPath
       clipPathUnits="userSpaceOnUse"
       id="clipPath28">
      <path
         d="M 0,0 H 3962.4998 V 1391.6634 H 0 Z"
         transform="matrix(0.33413251,0,0,0.33413251,-0.49999999,-0.49999999)"
         clip-rule="evenodd"
         id="path28" />
    </clipPath>
    <clipPath
       clipPathUnits="userSpaceOnUse"
       id="clipPath29">
      <path
         d="M 0,0 H 3962.4998 V 1391.6634 H 0 Z"
         transform="matrix(0.33412916,0,0,0.33412916,-413,-356)"
         clip-rule="evenodd"
         id="path29" />
    </clipPath>
    <clipPath
       clipPathUnits="userSpaceOnUse"
       id="clipPath31">
      <path
         d="M 0,0 H 3962.4998 V 1391.6634 H 0 Z"
         transform="matrix(0.33413251,0,0,0.33413251,-0.49999999,-0.49999999)"
         clip-rule="evenodd"
         id="path31" />
    </clipPath>
    <clipPath
       clipPathUnits="userSpaceOnUse"
       id="clipPath33">
      <path
         d="M 0,0 H 3962.4998 V 1391.6634 H 0 Z"
         transform="matrix(0.33413251,0,0,0.33413251,-0.49999999,-0.49999999)"
         clip-rule="evenodd"
         id="path33" />
    </clipPath>
    <clipPath
       clipPathUnits="userSpaceOnUse"
       id="clipPath35">
      <path
         d="M 0,0 H 3962.4998 V 1391.6634 H 0 Z"
         transform="matrix(0.33413251,0,0,0.33413251,-0.49999999,-0.49999999)"
         clip-rule="evenodd"
         id="path35" />
    </clipPath>
    <clipPath
       clipPathUnits="userSpaceOnUse"
       id="clipPath36">
      <path
         d="M 0,0 H 3962.4998 V 1391.6634 H 0 Z"
         transform="matrix(0.33412916,0,0,0.33412916,-112.76562,-386)"
         clip-rule="evenodd"
         id="path36" />
    </clipPath>
    <clipPath
       clipPathUnits="userSpaceOnUse"
       id="clipPath38">
      <path
         d="M 0,0 H 3962.4998 V 1391.6634 H 0 Z"
         transform="matrix(0.33413251,0,0,0.33413251,-0.49999999,-0.49999999)"
         clip-rule="evenodd"
         id="path38" />
    </clipPath>
    <clipPath
       clipPathUnits="userSpaceOnUse"
       id="clipPath40">
      <path
         d="M 0,0 H 3962.4998 V 1391.6634 H 0 Z"
         transform="matrix(0.33413251,0,0,0.33413251,-0.49999999,-0.49999999)"
         clip-rule="evenodd"
         id="path40" />
    </clipPath>
    <clipPath
       clipPathUnits="userSpaceOnUse"
       id="clipPath42">
      <path
         d="M 0,0 H 3962.4998 V 1391.6634 H 0 Z"
         transform="matrix(0.33413251,0,0,0.33413251,-0.49999999,-0.49999999)"
         clip-rule="evenodd"
         id="path42" />
    </clipPath>
    <clipPath
       clipPathUnits="userSpaceOnUse"
       id="clipPath43">
      <path
         d="M 0,0 H 3962.4998 V 1391.6634 H 0 Z"
         transform="matrix(0.33412916,0,0,0.33412916,-204.98438,-246)"
         clip-rule="evenodd"
         id="path43" />
    </clipPath>
    <clipPath
       clipPathUnits="userSpaceOnUse"
       id="clipPath45">
      <path
         d="M 0,0 H 3962.4998 V 1391.6634 H 0 Z"
         transform="matrix(0.33413251,0,0,0.33413251,-0.49999999,-0.49999999)"
         clip-rule="evenodd"
         id="path45" />
    </clipPath>
    <clipPath
       clipPathUnits="userSpaceOnUse"
       id="clipPath47">
      <path
         d="M 0,0 H 3962.4998 V 1391.6634 H 0 Z"
         transform="matrix(0.33413251,0,0,0.33413251,-0.49999999,-0.49999999)"
         clip-rule="evenodd"
         id="path47" />
    </clipPath>
    <clipPath
       clipPathUnits="userSpaceOnUse"
       id="clipPath49">
      <path
         d="M 0,0 H 3962.4998 V 1391.6634 H 0 Z"
         transform="matrix(0.33413251,0,0,0.33413251,-0.49999999,-0.49999999)"
         clip-rule="evenodd"
         id="path49" />
    </clipPath>
    <clipPath
       clipPathUnits="userSpaceOnUse"
       id="clipPath50">
      <path
         d="M 0,0 H 3962.4998 V 1391.6634 H 0 Z"
         transform="matrix(0.33412916,0,0,0.33412916,-41.4375,-246)"
         clip-rule="evenodd"
         id="path50" />
    </clipPath>
    <clipPath
       clipPathUnits="userSpaceOnUse"
       id="clipPath52">
      <path
         d="M 0,0 H 3962.4998 V 1391.6634 H 0 Z"
         transform="matrix(0.33413251,0,0,0.33413251,-0.49999999,-0.49999999)"
         clip-rule="evenodd"
         id="path52" />
    </clipPath>
    <clipPath
       clipPathUnits="userSpaceOnUse"
       id="clipPath54">
      <path
         d="M 0,0 H 3962.4998 V 1391.6634 H 0 Z"
         transform="matrix(0.33413251,0,0,0.33413251,-0.49999999,-0.49999999)"
         clip-rule="evenodd"
         id="path54" />
    </clipPath>
    <clipPath
       clipPathUnits="userSpaceOnUse"
       id="clipPath56">
      <path
         d="M 0,0 H 3962.4998 V 1391.6634 H 0 Z"
         transform="matrix(0.33413251,0,0,0.33413251,-0.49999999,-0.49999999)"
         clip-rule="evenodd"
         id="path56" />
    </clipPath>
    <clipPath
       clipPathUnits="userSpaceOnUse"
       id="clipPath57">
      <path
         d="M 0,0 H 3962.4998 V 1391.6634 H 0 Z"
         transform="matrix(0.33412916,0,0,0.33412916,-18.75,-126)"
         clip-rule="evenodd"
         id="path57" />
    </clipPath>
    <clipPath
       clipPathUnits="userSpaceOnUse"
       id="clipPath58">
      <path
         d="M 0,0 H 3962.4998 V 1391.6634 H 0 Z"
         transform="matrix(0.33412916,0,0,0.33412916,-128.32813,-458)"
         clip-rule="evenodd"
         id="path58" />
    </clipPath>
    <clipPath
       clipPathUnits="userSpaceOnUse"
       id="clipPath60">
      <path
         d="M 0,0 H 3962.4998 V 1391.6634 H 0 Z"
         transform="matrix(0.33413251,0,0,0.33413251,-0.49999999,-0.49999999)"
         clip-rule="evenodd"
         id="path60" />
    </clipPath>
    <clipPath
       clipPathUnits="userSpaceOnUse"
       id="clipPath62">
      <path
         d="M 0,0 H 3962.4998 V 1391.6634 H 0 Z"
         transform="matrix(0.33413251,0,0,0.33413251,-0.49999999,-0.49999999)"
         clip-rule="evenodd"
         id="path62" />
    </clipPath>
    <clipPath
       clipPathUnits="userSpaceOnUse"
       id="clipPath64">
      <path
         d="M 0,0 H 3962.4998 V 1391.6634 H 0 Z"
         transform="matrix(0.33413251,0,0,0.33413251,-0.49999999,-0.49999999)"
         clip-rule="evenodd"
         id="path64" />
    </clipPath>
    <clipPath
       clipPathUnits="userSpaceOnUse"
       id="clipPath65">
      <path
         d="M 0,0 H 3962.4998 V 1391.6634 H 0 Z"
         transform="matrix(0.33412916,0,0,0.33412916,-445.92188,-30)"
         clip-rule="evenodd"
         id="path65" />
    </clipPath>
    <clipPath
       clipPathUnits="userSpaceOnUse"
       id="clipPath67">
      <path
         d="M 0,0 H 3962.4998 V 1391.6634 H 0 Z"
         transform="matrix(0.33413251,0,0,0.33413251,-0.49999999,-0.49999999)"
         clip-rule="evenodd"
         id="path67" />
    </clipPath>
  </defs>
  <sodipodi:namedview
     id="namedview1"
     pagecolor="#ffffff"
     bordercolor="#000000"
     borderopacity="0.25"
     inkscape:showpageshadow="2"
     inkscape:pageopacity="0.0"
     inkscape:pagecheckerboard="0"
     inkscape:deskcolor="#d1d1d1">
    <inkscape:page
       x="0"
       y="0"
       inkscape:label="1"
       id="page1"
       width="1267.84"
       height="446.71997"
       margin="0"
       bleed="0" />
  </sodipodi:namedview>
  <g
     id="g1"
     inkscape:groupmode="layer"
     inkscape:label="1">
    <path
       id="path1"
       d="M 0,0 H 1324 V 466 H 0 Z"
       style="fill:#ffffff;fill-opacity:1;fill-rule:nonzero;stroke:none"
       transform="scale(0.95770383)"
       clip-path="url(#clipPath2)" />
    <path
       id="path3"
       d="m 341,91 h 960.01 v 40 H 341 Z"
       style="fill:#ffffff;fill-opacity:1;fill-rule:nonzero;stroke:#000000;stroke-width:1;stroke-linecap:butt;stroke-linejoin:miter;stroke-miterlimit:10;stroke-dasharray:none;stroke-opacity:1"
       transform="matrix(0.95770383,0,0,0.95770383,0.47885191,0.47885191)"
       clip-path="url(#clipPath4)" />
    <text
       id="text4"
       xml:space="preserve"
       transform="matrix(0.95771343,0,0,0.95771343,338.07284,111.09476)"
       clip-path="url(#clipPath5)"><tspan
         style="font-variant:normal;font-weight:700;font-size:14px;font-family:Helvetica;writing-mode:lr-tb;fill:#000000;fill-opacity:1;fill-rule:nonzero;stroke:none"
         x="0 10.110352 17.896484 25.682617 34.234375 38.124023 45.910156 54.461914 58.351562 66.90332 70.792969 74.682617 79.344727 87.130859 95.682617 103.46875 108.13086 116.30664 124.09277 127.98242 135.76855 143.55469 147.44434 151.33398 159.12012 166.90625 174.69238 182.47852 186.36816 193.38867 201.1748 205.06445 210.5127 219.06445 229.9541 237.74023 245.91602 252.93652 260.72266 264.6123 275.50195 279.3916 287.94336 292.60547 301.15723 309.33301 317.11914 324.90527 329.56738 333.45703 338.11914 345.90527 353.69141 358.35352 366.90527 374.69141 378.58105 382.4707 387.13281 391.02246 403.4707 411.25684 419.43262 427.21875 431.1084 438.89453 446.68066 454.4668 458.35645 462.24609 470.03223 477.81836 481.70801 489.49414 497.28027 505.06641 508.95605 514.4043 522.95605 533.8457 541.63184 549.80762 557.59375 561.4834 565.37305 573.9248 582.47656 591.02832 598.81445 606.99023 614.77637"
         y="0"
         sodipodi:role="line"
         id="tspan4">Hash Join  (cost=8.31..1756.11 rows=11 width=81) (actual time=0.277..34.431 rows=7 loops=1)</tspan></text>
    <path
       id="path6"
       d="m 361,131 h 940.01 v 40 H 361 Z"
       style="fill:#ffffff;fill-opacity:1;fill-rule:nonzero;stroke:#000000;stroke-width:1;stroke-linecap:butt;stroke-linejoin:miter;stroke-miterlimit:10;stroke-dasharray:none;stroke-opacity:1"
       transform="matrix(0.95770383,0,0,0.95770383,0.47885191,0.47885191)"
       clip-path="url(#clipPath7)" />
    <text
       id="text7"
       xml:space="preserve"
       transform="matrix(0.95771343,0,0,0.95771343,357.22711,149.4033)"
       clip-path="url(#clipPath8)"><tspan
         style="font-variant:normal;font-weight:700;font-size:14px;font-family:Helvetica;writing-mode:lr-tb;fill:#000000;fill-opacity:1;fill-rule:nonzero;stroke:none"
         x="0 3.8896484 7.7792969 17.889648 25.675781 33.461914 42.013672 45.90332 56.013672 64.56543 73.117188 81.668945 86.331055 90.220703 94.882812 102.66895 111.2207 123.66895 136.11719 143.90332 152.45508 157.11719 164.90332 168.79297 177.34473 185.13086 192.91699 198.36523 206.15137 210.04102 218.59277 222.48242 230.6582 234.54785 243.09961 250.88574 258.67188 264.12012 271.90625 275.7959 279.68555 288.2373"
         y="0"
         sodipodi:role="line"
         id="tspan7">  Hash Cond: (comments.user_id = users.id)</tspan></text>
    <path
       id="path9"
       d="m 361,371 h 960.01 v 40 H 361 Z"
       style="fill:#ffffff;fill-opacity:1;fill-rule:nonzero;stroke:#000000;stroke-width:1;stroke-linecap:butt;stroke-linejoin:miter;stroke-miterlimit:10;stroke-dasharray:none;stroke-opacity:1"
       transform="matrix(0.95770383,0,0,0.95770383,0.47885191,0.47885191)"
       clip-path="url(#clipPath10)" />
    <text
       id="text10"
       xml:space="preserve"
       transform="matrix(0.95771343,0,0,0.95771343,357.22711,379.25452)"
       clip-path="url(#clipPath11)"><tspan
         style="font-variant:normal;font-weight:700;font-size:14px;font-family:Helvetica;writing-mode:lr-tb;fill:#000000;fill-opacity:1;fill-rule:nonzero;stroke:none"
         x="0 9.3378906 13.227539 21.013672 29.56543 38.117188 42.006836 50.558594 59.110352 63 71.305664 75.195312 87.643555 95.429688 100.0918 103.98145 111.76758 115.65723 123.44336 131.22949 139.01562 142.90527 155.35352"
         y="0"
         sodipodi:role="line"
         id="tspan10">Planning Time: 3.445 ms</tspan></text>
    <path
       id="path12"
       d="m 361,411 h 960.01 v 40 H 361 Z"
       style="fill:#ffffff;fill-opacity:1;fill-rule:nonzero;stroke:#000000;stroke-width:1;stroke-linecap:butt;stroke-linejoin:miter;stroke-miterlimit:10;stroke-dasharray:none;stroke-opacity:1"
       transform="matrix(0.95770383,0,0,0.95770383,0.47885191,0.47885191)"
       clip-path="url(#clipPath13)" />
    <text
       id="text13"
       xml:space="preserve"
       transform="matrix(0.95771343,0,0,0.95771343,357.22711,417.56306)"
       clip-path="url(#clipPath14)"><tspan
         style="font-variant:normal;font-weight:700;font-size:14px;font-family:Helvetica;writing-mode:lr-tb;fill:#000000;fill-opacity:1;fill-rule:nonzero;stroke:none"
         x="0 9.3378906 17.124023 24.910156 32.696289 41.248047 45.910156 49.799805 58.351562 66.90332 70.792969 79.098633 82.988281 95.436523 103.22266 107.88477 111.77441 119.56055 127.34668 131.23633 139.02246 146.80859 154.59473 158.48438 170.93262"
         y="0"
         sodipodi:role="line"
         id="tspan13">Execution Time: 34.496 ms</tspan></text>
    <path
       id="path15"
       d="m 361,171 h 940.01 v 40 H 361 Z"
       style="fill:#ffffff;fill-opacity:1;fill-rule:nonzero;stroke:#000000;stroke-width:1;stroke-linecap:butt;stroke-linejoin:miter;stroke-miterlimit:10;stroke-dasharray:none;stroke-opacity:1"
       transform="matrix(0.95770383,0,0,0.95770383,0.47885191,0.47885191)"
       clip-path="url(#clipPath16)" />
    <text
       id="text16"
       xml:space="preserve"
       transform="matrix(0.95771343,0,0,0.95771343,357.22711,187.71183)"
       clip-path="url(#clipPath17)"><tspan
         style="font-variant:normal;font-weight:700;font-size:14px;font-family:Helvetica;writing-mode:lr-tb;fill:#000000;fill-opacity:1;fill-rule:nonzero;stroke:none"
         x="0 3.8896484 7.7792969 12.441406 20.617188 24.506836 28.396484 37.734375 45.520508 54.072266 57.961914 67.299805 75.085938 82.87207 91.423828 95.313477 103.86523 112.41699 116.30664 124.09277 132.64453 145.09277 157.54102 165.32715 173.87891 178.54102 186.32715 190.2168 194.10645 198.76855 206.55469 215.10645 222.89258 227.55469 235.73047 243.5166 247.40625 255.19238 262.97852 266.86816 270.75781 278.54395 286.33008 294.11621 301.90234 305.79199 313.57812 321.36426 325.25391 330.70215 339.25391 350.14355 357.92969 366.10547 373.8916 381.67773 389.46387 397.25 405.03613 408.92578 419.81543 423.70508 432.25684 436.91895 445.4707 453.64648 461.43262 469.21875 473.88086 477.77051 482.43262 490.21875 498.00488 502.66699 511.21875 519.00488 522.89453 526.78418 531.44629 535.33594 547.78418 555.57031 563.74609 571.53223 575.42188 583.20801 590.99414 598.78027 602.66992 606.55957 614.3457 622.13184 626.02148 633.80762 641.59375 649.37988 653.26953 658.71777 667.26953 678.15918 685.94531 694.12109 701.90723 709.69336 717.47949 725.26562 733.05176 736.94141 740.83105 749.38281 757.93457 766.48633 774.27246 782.44824 790.23438"
         y="0"
         sodipodi:role="line"
         id="tspan16">  -&gt;  Seq Scan on comments  (cost=0.00..1589.10 rows=60410 width=72) (actual time=0.008..14.297 rows=60410 loops=1)</tspan></text>
    <path
       id="path18"
       d="m 361,211 h 940.01 v 40 H 361 Z"
       style="fill:#ffffff;fill-opacity:1;fill-rule:nonzero;stroke:#000000;stroke-width:1;stroke-linecap:butt;stroke-linejoin:miter;stroke-miterlimit:10;stroke-dasharray:none;stroke-opacity:1"
       transform="matrix(0.95770383,0,0,0.95770383,0.47885191,0.47885191)"
       clip-path="url(#clipPath19)" />
    <text
       id="text19"
       xml:space="preserve"
       transform="matrix(0.95771343,0,0,0.95771343,357.22711,226.02037)"
       clip-path="url(#clipPath20)"><tspan
         style="font-variant:normal;font-weight:700;font-size:14px;font-family:Helvetica;writing-mode:lr-tb;fill:#000000;fill-opacity:1;fill-rule:nonzero;stroke:none"
         x="0 3.8896484 7.7792969 12.441406 20.617188 24.506836 28.396484 38.506836 46.292969 54.079102 62.630859 66.520508 70.410156 75.072266 82.858398 91.410156 99.196289 103.8584 112.03418 119.82031 123.70996 131.49609 139.28223 143.17188 147.06152 154.84766 158.7373 166.52344 174.30957 178.19922 183.64746 192.19922 203.08887 210.875 219.05078 226.83691 230.72656 241.61621 245.50586 254.05762 258.71973 267.27148 275.44727 283.2334 291.01953 295.68164 299.57129 304.2334 312.01953 319.80566 324.46777 333.01953 340.80566 344.69531 348.58496 353.24707 357.13672 369.58496 377.37109 385.54688 393.33301 397.22266 405.00879 412.79492 420.58105 424.4707 428.36035 436.14648 440.03613 447.82227 455.6084 463.39453 467.28418 472.73242 481.28418 492.17383 499.95996 508.13574 515.92188 519.81152 523.70117 532.25293 540.80469 549.35645 557.14258 565.31836 573.10449"
         y="0"
         sodipodi:role="line"
         id="tspan19">  -&gt;  Hash  (cost=8.30..8.30 rows=1 width=17) (actual time=0.050..0.051 rows=1 loops=1)</tspan></text>
    <path
       id="path21"
       d="m 401,251 h 900.01 v 40 H 401 Z"
       style="fill:#ffffff;fill-opacity:1;fill-rule:nonzero;stroke:#000000;stroke-width:1;stroke-linecap:butt;stroke-linejoin:miter;stroke-miterlimit:10;stroke-dasharray:none;stroke-opacity:1"
       transform="matrix(0.95770383,0,0,0.95770383,0.47885191,0.47885191)"
       clip-path="url(#clipPath22)" />
    <text
       id="text22"
       xml:space="preserve"
       transform="matrix(0.95771343,0,0,0.95771343,395.53565,264.32891)"
       clip-path="url(#clipPath23)"><tspan
         style="font-variant:normal;font-weight:700;font-size:14px;font-family:Helvetica;writing-mode:lr-tb;fill:#000000;fill-opacity:1;fill-rule:nonzero;stroke:none"
         x="0 3.8896484 7.7792969 11.668945 15.558594 19.448242 23.337891 27.227539 31.117188 41.227539 49.779297 57.56543 65.351562 73.137695 77.799805 85.585938 90.248047 94.137695 101.92383 109.70996 117.49609 125.28223 129.17188 133.06152 143.17188 150.95801 155.62012 163.40625 171.95801 179.74414 187.53027 192.19238 196.08203 203.86816 207.75781 211.64746 223.30957 231.0957 243.54395 252.0957 257.54395 265.33008 269.21973 279.33008 287.11621 294.90234 303.4541 311.24023 315.90234 319.79199 327.57812 335.36426"
         y="0"
         sodipodi:role="line"
         id="tspan22">        Buckets: 1024  Batches: 1  Memory Usage: 9kB</tspan></text>
    <path
       id="path24"
       d="m 401,291 h 900.01 v 40 H 401 Z"
       style="fill:#ffffff;fill-opacity:1;fill-rule:nonzero;stroke:#000000;stroke-width:1;stroke-linecap:butt;stroke-linejoin:miter;stroke-miterlimit:10;stroke-dasharray:none;stroke-opacity:1"
       transform="matrix(0.95770383,0,0,0.95770383,0.47885191,0.47885191)"
       clip-path="url(#clipPath25)" />
    <text
       id="text25"
       xml:space="preserve"
       transform="matrix(0.95771343,0,0,0.95771343,395.53565,302.63744)"
       clip-path="url(#clipPath26)"><tspan
         style="font-variant:normal;font-weight:700;font-size:14px;font-family:Helvetica;writing-mode:lr-tb;fill:#000000;fill-opacity:1;fill-rule:nonzero;stroke:none"
         x="0 3.8896484 7.7792969 11.668945 15.558594 19.448242 23.337891 27.227539 31.117188 35.779297 43.955078 47.844727 51.734375 55.624023 64.175781 72.727539 80.513672 88.299805 92.189453 101.52734 109.31348 117.09961 125.65137 129.54102 138.09277 145.87891 149.76855 158.32031 166.87207 170.76172 179.31348 187.09961 194.88574 200.33398 208.12012 215.90625 224.45801 232.24414 240.03027 245.47852 254.03027 261.81641 274.26465 282.05078 289.83691 293.72656 302.27832 310.06445 313.9541 322.50586 331.05762 334.94727 343.49902 351.28516 359.07129 364.51953 372.30566 376.19531 380.08496 384.74707 392.5332 401.08496 408.87109 413.5332 421.70898 429.49512 433.38477 441.1709 448.95703 452.84668 456.73633 464.52246 468.41211 476.19824 483.98438 487.87402 493.32227 501.87402 512.76367 520.5498 528.72559 536.51172 540.40137 551.29102 555.18066 563.73242 568.39453 576.94629 585.12207 592.9082 600.69434 605.35645 609.24609 613.9082 621.69434 629.48047 634.14258 642.69434 650.48047 654.37012 658.25977 662.92188 666.81152 679.25977 687.0459 695.22168 703.00781 706.89746 714.68359 722.46973 730.25586 734.14551 738.03516 745.82129 749.71094 757.49707 765.2832 773.06934 776.95898 782.40723 790.95898 801.84863 809.63477 817.81055 825.59668 829.48633 833.37598 841.92773 850.47949 859.03125 866.81738 874.99316 882.7793"
         y="0"
         sodipodi:role="line"
         id="tspan25">        -&gt;  Index Scan using users_username_idx on users  (cost=0.28..8.30 rows=1 width=17) (actual time=0.030..0.031 rows=1 loops=1)</tspan></text>
    <path
       id="path27"
       d="m 401,331 h 900.01 v 40 H 401 Z"
       style="fill:#ffffff;fill-opacity:1;fill-rule:nonzero;stroke:#000000;stroke-width:1;stroke-linecap:butt;stroke-linejoin:miter;stroke-miterlimit:10;stroke-dasharray:none;stroke-opacity:1"
       transform="matrix(0.95770383,0,0,0.95770383,0.47885191,0.47885191)"
       clip-path="url(#clipPath28)" />
    <text
       id="text28"
       xml:space="preserve"
       transform="matrix(0.95771343,0,0,0.95771343,395.53565,340.94598)"
       clip-path="url(#clipPath29)"><tspan
         style="font-variant:normal;font-weight:700;font-size:14px;font-family:Helvetica;writing-mode:lr-tb;fill:#000000;fill-opacity:1;fill-rule:nonzero;stroke:none"
         x="0 3.8896484 7.7792969 11.668945 15.558594 19.448242 23.337891 27.227539 31.117188 35.006836 38.896484 42.786133 46.675781 50.56543 54.455078 58.344727 66.896484 75.448242 83.234375 91.020508 94.910156 105.02051 113.57227 122.12402 130.67578 135.33789 139.22754 143.88965 148.55176 157.10352 164.88965 172.67578 178.12402 186.67578 194.46191 206.91016 214.69629 219.3584 224.02051 228.68262 233.34473 241.13086 248.91699 253.5791 257.46875 265.64453 269.53418 272.86328 282.97363 286.86328 294.64941 302.43555 310.9873 319.53906 327.3252 335.11133 338.44043 343.10254 347.76465 352.42676 360.21289 367.99902 372.66113"
         y="0"
         sodipodi:role="line"
         id="tspan28">              Index Cond: ((username)::text = 'Alyson14'::text)</tspan></text>
    <path
       id="path30"
       d="m 151,411 0.23,23.64001"
       style="fill:none;stroke:#000000;stroke-width:1;stroke-linecap:butt;stroke-linejoin:miter;stroke-miterlimit:10;stroke-dasharray:none;stroke-opacity:1"
       transform="matrix(0.95770383,0,0,0.95770383,0.47885191,0.47885191)"
       clip-path="url(#clipPath31)" />
    <path
       id="path32"
       d="m 151.28,439.89001 -3.56999,-6.97 3.51999,1.72 3.48001,-1.79 z"
       style="fill:#000000;fill-opacity:1;fill-rule:nonzero;stroke:#000000;stroke-width:1;stroke-linecap:butt;stroke-linejoin:miter;stroke-miterlimit:10;stroke-dasharray:none;stroke-opacity:1"
       transform="matrix(0.95770383,0,0,0.95770383,0.47885191,0.47885191)"
       clip-path="url(#clipPath33)" />
    <path
       id="path34"
       d="m 91,351 h 120 v 60 H 91 Z"
       style="fill:#dae8fc;fill-opacity:1;fill-rule:nonzero;stroke:#6c8ebf;stroke-width:1;stroke-linecap:butt;stroke-linejoin:miter;stroke-miterlimit:10;stroke-dasharray:none;stroke-opacity:1"
       transform="matrix(0.95770383,0,0,0.95770383,0.47885191,0.47885191)"
       clip-path="url(#clipPath35)" />
    <text
       id="text35"
       xml:space="preserve"
       transform="matrix(0.95771343,0,0,0.95771343,107.99715,369.67738)"
       clip-path="url(#clipPath36)"><tspan
         style="font-variant:normal;font-weight:700;font-size:16px;font-family:Helvetica;writing-mode:lr-tb;fill:#000000;fill-opacity:1;fill-rule:nonzero;stroke:none"
         x="0 11.554688 20.453125 29.351562 39.125 43.570312 52.46875 62.242188 66.6875"
         y="0"
         sodipodi:role="line"
         id="tspan35">Hash Join</tspan></text>
    <path
       id="path37"
       d="m 241,271 v 40 h -90 v 33.64001"
       style="fill:none;stroke:#000000;stroke-width:1;stroke-linecap:butt;stroke-linejoin:miter;stroke-miterlimit:10;stroke-dasharray:none;stroke-opacity:1"
       transform="matrix(0.95770383,0,0,0.95770383,0.47885191,0.47885191)"
       clip-path="url(#clipPath38)" />
    <path
       id="path39"
       d="m 151,349.89001 -3.5,-7 3.5,1.75 3.5,-1.75 z"
       style="fill:#000000;fill-opacity:1;fill-rule:nonzero;stroke:#000000;stroke-width:1;stroke-linecap:butt;stroke-linejoin:miter;stroke-miterlimit:10;stroke-dasharray:none;stroke-opacity:1"
       transform="matrix(0.95770383,0,0,0.95770383,0.47885191,0.47885191)"
       clip-path="url(#clipPath40)" />
    <path
       id="path41"
       d="m 181,211 h 120 v 60 H 181 Z"
       style="fill:#d5e8d4;fill-opacity:1;fill-rule:nonzero;stroke:#82b366;stroke-width:1;stroke-linecap:butt;stroke-linejoin:miter;stroke-miterlimit:10;stroke-dasharray:none;stroke-opacity:1"
       transform="matrix(0.95770383,0,0,0.95770383,0.47885191,0.47885191)"
       clip-path="url(#clipPath42)" />
    <text
       id="text42"
       xml:space="preserve"
       transform="matrix(0.95771343,0,0,0.95771343,196.31629,235.5975)"
       clip-path="url(#clipPath43)"><tspan
         style="font-variant:normal;font-weight:700;font-size:16px;font-family:Helvetica;writing-mode:lr-tb;fill:#000000;fill-opacity:1;fill-rule:nonzero;stroke:none"
         x="0 10.671875 19.570312 29.34375 33.789062 44.460938 53.359375 62.257812"
         y="0"
         sodipodi:role="line"
         id="tspan42">Seq Scan</tspan></text>
    <path
       id="path44"
       d="m 61,271 v 40 h 90 v 33.64001"
       style="fill:none;stroke:#000000;stroke-width:1;stroke-linecap:butt;stroke-linejoin:miter;stroke-miterlimit:10;stroke-dasharray:none;stroke-opacity:1"
       transform="matrix(0.95770383,0,0,0.95770383,0.47885191,0.47885191)"
       clip-path="url(#clipPath45)" />
    <path
       id="path46"
       d="m 151,349.89001 -3.5,-7 3.5,1.75 3.5,-1.75 z"
       style="fill:#000000;fill-opacity:1;fill-rule:nonzero;stroke:#000000;stroke-width:1;stroke-linecap:butt;stroke-linejoin:miter;stroke-miterlimit:10;stroke-dasharray:none;stroke-opacity:1"
       transform="matrix(0.95770383,0,0,0.95770383,0.47885191,0.47885191)"
       clip-path="url(#clipPath47)" />
    <path
       id="path48"
       d="m 1,211 h 120 v 60 H 1 Z"
       style="fill:#e1d5e7;fill-opacity:1;fill-rule:nonzero;stroke:#9673a6;stroke-width:1;stroke-linecap:butt;stroke-linejoin:miter;stroke-miterlimit:10;stroke-dasharray:none;stroke-opacity:1"
       transform="matrix(0.95770383,0,0,0.95770383,0.47885191,0.47885191)"
       clip-path="url(#clipPath49)" />
    <text
       id="text49"
       xml:space="preserve"
       transform="matrix(0.95771343,0,0,0.95771343,39.68525,235.5975)"
       clip-path="url(#clipPath50)"><tspan
         style="font-variant:normal;font-weight:700;font-size:16px;font-family:Helvetica;writing-mode:lr-tb;fill:#000000;fill-opacity:1;fill-rule:nonzero;stroke:none"
         x="0 11.554688 20.453125 29.351562"
         y="0"
         sodipodi:role="line"
         id="tspan49">Hash</tspan></text>
    <path
       id="path51"
       d="m 61,151 v 53.63"
       style="fill:none;stroke:#000000;stroke-width:1;stroke-linecap:butt;stroke-linejoin:miter;stroke-miterlimit:10;stroke-dasharray:none;stroke-opacity:1"
       transform="matrix(0.95770383,0,0,0.95770383,0.47885191,0.47885191)"
       clip-path="url(#clipPath52)" />
    <path
       id="path53"
       d="m 61,209.88 -3.5,-7 3.5,1.75 3.5,-1.75 z"
       style="fill:#000000;fill-opacity:1;fill-rule:nonzero;stroke:#000000;stroke-width:1;stroke-linecap:butt;stroke-linejoin:miter;stroke-miterlimit:10;stroke-dasharray:none;stroke-opacity:1"
       transform="matrix(0.95770383,0,0,0.95770383,0.47885191,0.47885191)"
       clip-path="url(#clipPath54)" />
    <path
       id="path55"
       d="m 1,91 h 120 v 60 H 1 Z"
       style="fill:#ffe6cc;fill-opacity:1;fill-rule:nonzero;stroke:#d79b00;stroke-width:1;stroke-linecap:butt;stroke-linejoin:miter;stroke-miterlimit:10;stroke-dasharray:none;stroke-opacity:1"
       transform="matrix(0.95770383,0,0,0.95770383,0.47885191,0.47885191)"
       clip-path="url(#clipPath56)" />
    <text
       id="text56"
       xml:space="preserve"
       transform="matrix(0.95771343,0,0,0.95771343,17.957127,120.67189)"
       clip-path="url(#clipPath57)"><tspan
         style="font-variant:normal;font-weight:700;font-size:16px;font-family:Helvetica;writing-mode:lr-tb;fill:#000000;fill-opacity:1;fill-rule:nonzero;stroke:none"
         x="0 4.4453125 14.21875 23.992188 32.890625 41.789062 46.234375 56.90625 65.804688 74.703125"
         y="0"
         sodipodi:role="line"
         id="tspan56">Index Scan</tspan></text>
    <text
       id="text57"
       xml:space="preserve"
       transform="matrix(0.95771343,0,0,0.95771343,122.90157,438.63275)"
       clip-path="url(#clipPath58)"><tspan
         style="font-style:oblique;font-variant:normal;font-weight:normal;font-size:16px;font-family:Helvetica;writing-mode:lr-tb;fill:#000000;fill-opacity:1;fill-rule:nonzero;stroke:none"
         x="0 11.554688 20.453125 28.453125 37.351562 40.90625"
         y="0"
         sodipodi:role="line"
         id="tspan57">Result</tspan></text>
    <path
       id="path59"
       d="M 493,51 V 95.629997"
       style="fill:none;stroke:#000000;stroke-width:1;stroke-linecap:butt;stroke-linejoin:miter;stroke-miterlimit:10;stroke-dasharray:none;stroke-opacity:1"
       transform="matrix(0.95770383,0,0,0.95770383,0.47885191,0.47885191)"
       clip-path="url(#clipPath60)" />
    <path
       id="path61"
       d="m 493,100.88 -3.5,-7.000003 3.5,1.75 3.5,-1.75 z"
       style="fill:#000000;fill-opacity:1;fill-rule:nonzero;stroke:#000000;stroke-width:1;stroke-linecap:butt;stroke-linejoin:miter;stroke-miterlimit:10;stroke-dasharray:none;stroke-opacity:1"
       transform="matrix(0.95770383,0,0,0.95770383,0.47885191,0.47885191)"
       clip-path="url(#clipPath62)" />
    <path
       id="path63"
       d="M 408,1 H 578 V 51 H 408 Z"
       style="fill:#dae8fc;fill-opacity:1;fill-rule:nonzero;stroke:#6c8ebf;stroke-width:1;stroke-linecap:butt;stroke-linejoin:miter;stroke-miterlimit:10;stroke-dasharray:none;stroke-opacity:1"
       transform="matrix(0.95770383,0,0,0.95770383,0.47885191,0.47885191)"
       clip-path="url(#clipPath64)" />
    <text
       id="text64"
       xml:space="preserve"
       transform="matrix(0.95771343,0,0,0.95771343,427.06537,28.731403)"
       clip-path="url(#clipPath65)"><tspan
         style="font-variant:normal;font-weight:normal;font-size:11px;font-family:Helvetica;writing-mode:lr-tb;fill:#000000;fill-opacity:1;fill-rule:nonzero;stroke:none"
         x="0 10.382324 16.5 22 25.056152 28.112305 36.056152 42.173828 45.22998 51.347656 57.465332 66.628418 72.746094 78.86377 82.526855 88.026855"
         y="0"
         sodipodi:role="line"
         id="tspan64">Why two numbers?</tspan></text>
    <path
       id="path66"
       d="m 431,102 h 124 v 20 H 431 Z"
       style="fill:none;stroke:#6c8ebf;stroke-width:1;stroke-linecap:butt;stroke-linejoin:miter;stroke-miterlimit:10;stroke-dasharray:none;stroke-opacity:1"
       transform="matrix(0.95770383,0,0,0.95770383,0.47885191,0.47885191)"
       clip-path="url(#clipPath67)" />
  </g>
</svg>
