<?xml version="1.0" encoding="UTF-8" standalone="no"?>
<!-- Created with Inkscape (http://www.inkscape.org/) -->

<svg
   version="1.1"
   id="svg1"
   width="592"
   height="385.28"
   viewBox="0 0 592 385.28"
   sodipodi:docname="sql-8.pdf"
   xmlns:inkscape="http://www.inkscape.org/namespaces/inkscape"
   xmlns:sodipodi="http://sodipodi.sourceforge.net/DTD/sodipodi-0.dtd"
   xmlns="http://www.w3.org/2000/svg"
   xmlns:svg="http://www.w3.org/2000/svg">
  <defs
     id="defs1">
    <clipPath
       clipPathUnits="userSpaceOnUse"
       id="clipPath2">
      <path
         d="M 0,0 H 1849.9999 V 1201.4539 H 0 Z"
         transform="scale(0.33459461)"
         clip-rule="evenodd"
         id="path2" />
    </clipPath>
    <clipPath
       clipPathUnits="userSpaceOnUse"
       id="clipPath4">
      <path
         d="M 0,0 H 1849.9999 V 1198.4652 H 0 Z"
         transform="matrix(0.33459461,0,0,0.33459461,-0.5,-0.5)"
         clip-rule="evenodd"
         id="path4" />
    </clipPath>
    <clipPath
       clipPathUnits="userSpaceOnUse"
       id="clipPath5">
      <path
         d="M 0,0 H 1849.9999 V 1198.4652 H 0 Z"
         transform="matrix(0.33459124,0,0,0.33459124,-89.546875,-21)"
         clip-rule="evenodd"
         id="path5" />
    </clipPath>
    <clipPath
       clipPathUnits="userSpaceOnUse"
       id="clipPath6">
      <path
         d="M 0,0 H 1849.9999 V 1198.4652 H 0 Z"
         transform="matrix(0.33459124,0,0,0.33459124,-19.28125,-40)"
         clip-rule="evenodd"
         id="path6" />
    </clipPath>
    <clipPath
       clipPathUnits="userSpaceOnUse"
       id="clipPath7">
      <path
         d="M 0,0 H 1849.9999 V 1198.4652 H 0 Z"
         transform="matrix(0.33459124,0,0,0.33459124,-77.53125,-59)"
         clip-rule="evenodd"
         id="path7" />
    </clipPath>
    <clipPath
       clipPathUnits="userSpaceOnUse"
       id="clipPath9">
      <path
         d="M 0,0 H 1849.9999 V 1198.4652 H 0 Z"
         transform="matrix(0.33459461,0,0,0.33459461,-0.5,-0.5)"
         clip-rule="evenodd"
         id="path9" />
    </clipPath>
    <clipPath
       clipPathUnits="userSpaceOnUse"
       id="clipPath10">
      <path
         d="M 0,0 H 1849.9999 V 1198.4652 H 0 Z"
         transform="matrix(0.33459124,0,0,0.33459124,-367.5,-30)"
         clip-rule="evenodd"
         id="path10" />
    </clipPath>
    <clipPath
       clipPathUnits="userSpaceOnUse"
       id="clipPath11">
      <path
         d="M 0,0 H 1849.9999 V 1198.4652 H 0 Z"
         transform="matrix(0.33459124,0,0,0.33459124,-411.5625,-49.999999)"
         clip-rule="evenodd"
         id="path11" />
    </clipPath>
    <clipPath
       clipPathUnits="userSpaceOnUse"
       id="clipPath13">
      <path
         d="M 0,0 H 1849.9999 V 1198.4652 H 0 Z"
         transform="matrix(0.33459461,0,0,0.33459461,-0.5,-0.5)"
         clip-rule="evenodd"
         id="path13" />
    </clipPath>
    <clipPath
       clipPathUnits="userSpaceOnUse"
       id="clipPath15">
      <path
         d="M 0,0 H 1849.9999 V 1198.4652 H 0 Z"
         transform="matrix(0.33459461,0,0,0.33459461,-0.5,-0.5)"
         clip-rule="evenodd"
         id="path15" />
    </clipPath>
    <clipPath
       clipPathUnits="userSpaceOnUse"
       id="clipPath17">
      <path
         d="M 0,0 H 1849.9999 V 1198.4652 H 0 Z"
         transform="matrix(0.33459461,0,0,0.33459461,-0.5,-0.5)"
         clip-rule="evenodd"
         id="path17" />
    </clipPath>
    <clipPath
       clipPathUnits="userSpaceOnUse"
       id="clipPath19">
      <path
         d="M 0,0 H 1849.9999 V 1198.4652 H 0 Z"
         transform="matrix(0.33459461,0,0,0.33459461,-0.5,-0.5)"
         clip-rule="evenodd"
         id="path19" />
    </clipPath>
    <clipPath
       clipPathUnits="userSpaceOnUse"
       id="clipPath21">
      <path
         d="M 0,0 H 1849.9999 V 1198.4652 H 0 Z"
         transform="matrix(0.33459461,0,0,0.33459461,-0.5,-0.5)"
         clip-rule="evenodd"
         id="path21" />
    </clipPath>
    <clipPath
       clipPathUnits="userSpaceOnUse"
       id="clipPath23">
      <path
         d="M 0,0 H 1849.9999 V 1198.4652 H 0 Z"
         transform="matrix(0.33459461,0,0,0.33459461,-0.5,-0.5)"
         clip-rule="evenodd"
         id="path23" />
    </clipPath>
    <clipPath
       clipPathUnits="userSpaceOnUse"
       id="clipPath25">
      <path
         d="M 0,0 H 1849.9999 V 1198.4652 H 0 Z"
         transform="matrix(0.33459461,0,0,0.33459461,-0.5,-0.5)"
         clip-rule="evenodd"
         id="path25" />
    </clipPath>
    <clipPath
       clipPathUnits="userSpaceOnUse"
       id="clipPath26">
      <path
         d="M 0,0 H 1849.9999 V 1198.4652 H 0 Z"
         transform="matrix(0.33459124,0,0,0.33459124,-20.15625,-100)"
         clip-rule="evenodd"
         id="path26" />
    </clipPath>
    <clipPath
       clipPathUnits="userSpaceOnUse"
       id="clipPath27">
      <path
         d="M 0,0 H 1849.9999 V 1198.4652 H 0 Z"
         transform="matrix(0.33459124,0,0,0.33459124,-45.671874,-117)"
         clip-rule="evenodd"
         id="path27" />
    </clipPath>
    <clipPath
       clipPathUnits="userSpaceOnUse"
       id="clipPath29">
      <path
         d="M 0,0 H 1849.9999 V 1198.4652 H 0 Z"
         transform="matrix(0.33459461,0,0,0.33459461,-0.5,-0.5)"
         clip-rule="evenodd"
         id="path29" />
    </clipPath>
    <clipPath
       clipPathUnits="userSpaceOnUse"
       id="clipPath30">
      <path
         d="M 0,0 H 1849.9999 V 1198.4652 H 0 Z"
         transform="matrix(0.33459124,0,0,0.33459124,-391.71875,-108)"
         clip-rule="evenodd"
         id="path30" />
    </clipPath>
    <clipPath
       clipPathUnits="userSpaceOnUse"
       id="clipPath32">
      <path
         d="M 0,0 H 1849.9999 V 1198.4652 H 0 Z"
         transform="matrix(0.33459461,0,0,0.33459461,-0.5,-0.5)"
         clip-rule="evenodd"
         id="path32" />
    </clipPath>
    <clipPath
       clipPathUnits="userSpaceOnUse"
       id="clipPath33">
      <path
         d="M 0,0 H 1849.9999 V 1198.4652 H 0 Z"
         transform="matrix(0.33459124,0,0,0.33459124,-85.1875,-163)"
         clip-rule="evenodd"
         id="path33" />
    </clipPath>
    <clipPath
       clipPathUnits="userSpaceOnUse"
       id="clipPath35">
      <path
         d="M 0,0 H 1849.9999 V 1198.4652 H 0 Z"
         transform="matrix(0.33459461,0,0,0.33459461,-0.5,-0.5)"
         clip-rule="evenodd"
         id="path35" />
    </clipPath>
    <clipPath
       clipPathUnits="userSpaceOnUse"
       id="clipPath36">
      <path
         d="M 0,0 H 1849.9999 V 1198.4652 H 0 Z"
         transform="matrix(0.33459124,0,0,0.33459124,-42.015625,-205)"
         clip-rule="evenodd"
         id="path36" />
    </clipPath>
    <clipPath
       clipPathUnits="userSpaceOnUse"
       id="clipPath37">
      <path
         d="M 0,0 H 1849.9999 V 1198.4652 H 0 Z"
         transform="matrix(0.33459124,0,0,0.33459124,-112.42188,-222)"
         clip-rule="evenodd"
         id="path37" />
    </clipPath>
    <clipPath
       clipPathUnits="userSpaceOnUse"
       id="clipPath39">
      <path
         d="M 0,0 H 1849.9999 V 1198.4652 H 0 Z"
         transform="matrix(0.33459461,0,0,0.33459461,-0.5,-0.5)"
         clip-rule="evenodd"
         id="path39" />
    </clipPath>
    <clipPath
       clipPathUnits="userSpaceOnUse"
       id="clipPath40">
      <path
         d="M 0,0 H 1849.9999 V 1198.4652 H 0 Z"
         transform="matrix(0.33459124,0,0,0.33459124,-30.328125,-263)"
         clip-rule="evenodd"
         id="path40" />
    </clipPath>
    <clipPath
       clipPathUnits="userSpaceOnUse"
       id="clipPath42">
      <path
         d="M 0,0 H 1849.9999 V 1198.4652 H 0 Z"
         transform="matrix(0.33459461,0,0,0.33459461,-0.5,-0.5)"
         clip-rule="evenodd"
         id="path42" />
    </clipPath>
    <clipPath
       clipPathUnits="userSpaceOnUse"
       id="clipPath43">
      <path
         d="M 0,0 H 1849.9999 V 1198.4652 H 0 Z"
         transform="matrix(0.33459124,0,0,0.33459124,-55.34375,-318)"
         clip-rule="evenodd"
         id="path43" />
    </clipPath>
    <clipPath
       clipPathUnits="userSpaceOnUse"
       id="clipPath45">
      <path
         d="M 0,0 H 1849.9999 V 1198.4652 H 0 Z"
         transform="matrix(0.33459461,0,0,0.33459461,-0.5,-0.5)"
         clip-rule="evenodd"
         id="path45" />
    </clipPath>
    <clipPath
       clipPathUnits="userSpaceOnUse"
       id="clipPath46">
      <path
         d="M 0,0 H 1849.9999 V 1198.4652 H 0 Z"
         transform="matrix(0.33459124,0,0,0.33459124,-19.15625,-370)"
         clip-rule="evenodd"
         id="path46" />
    </clipPath>
    <clipPath
       clipPathUnits="userSpaceOnUse"
       id="clipPath47">
      <path
         d="M 0,0 H 1849.9999 V 1198.4652 H 0 Z"
         transform="matrix(0.33459124,0,0,0.33459124,-43.671875,-387)"
         clip-rule="evenodd"
         id="path47" />
    </clipPath>
    <clipPath
       clipPathUnits="userSpaceOnUse"
       id="clipPath49">
      <path
         d="M 0,0 H 1849.9999 V 1198.4652 H 0 Z"
         transform="matrix(0.33459461,0,0,0.33459461,-0.5,-0.5)"
         clip-rule="evenodd"
         id="path49" />
    </clipPath>
    <clipPath
       clipPathUnits="userSpaceOnUse"
       id="clipPath50">
      <path
         d="M 0,0 H 1849.9999 V 1198.4652 H 0 Z"
         transform="matrix(0.33459124,0,0,0.33459124,-365.28125,-168)"
         clip-rule="evenodd"
         id="path50" />
    </clipPath>
    <clipPath
       clipPathUnits="userSpaceOnUse"
       id="clipPath52">
      <path
         d="M 0,0 H 1849.9999 V 1198.4652 H 0 Z"
         transform="matrix(0.33459461,0,0,0.33459461,-0.5,-0.5)"
         clip-rule="evenodd"
         id="path52" />
    </clipPath>
    <clipPath
       clipPathUnits="userSpaceOnUse"
       id="clipPath53">
      <path
         d="M 0,0 H 1849.9999 V 1198.4652 H 0 Z"
         transform="matrix(0.33459124,0,0,0.33459124,-384.34375,-220)"
         clip-rule="evenodd"
         id="path53" />
    </clipPath>
    <clipPath
       clipPathUnits="userSpaceOnUse"
       id="clipPath54">
      <path
         d="M 0,0 H 1849.9999 V 1198.4652 H 0 Z"
         transform="matrix(0.33459124,0,0,0.33459124,-373.82813,-237)"
         clip-rule="evenodd"
         id="path54" />
    </clipPath>
    <clipPath
       clipPathUnits="userSpaceOnUse"
       id="clipPath56">
      <path
         d="M 0,0 H 1849.9999 V 1198.4652 H 0 Z"
         transform="matrix(0.33459461,0,0,0.33459461,-0.5,-0.5)"
         clip-rule="evenodd"
         id="path56" />
    </clipPath>
    <clipPath
       clipPathUnits="userSpaceOnUse"
       id="clipPath58">
      <path
         d="M 0,0 H 1849.9999 V 1198.4652 H 0 Z"
         transform="matrix(0.33459461,0,0,0.33459461,-0.5,-0.5)"
         clip-rule="evenodd"
         id="path58" />
    </clipPath>
    <clipPath
       clipPathUnits="userSpaceOnUse"
       id="clipPath60">
      <path
         d="M 0,0 H 1849.9999 V 1198.4652 H 0 Z"
         transform="matrix(0.33459461,0,0,0.33459461,-0.5,-0.5)"
         clip-rule="evenodd"
         id="path60" />
    </clipPath>
    <clipPath
       clipPathUnits="userSpaceOnUse"
       id="clipPath61">
      <path
         d="M 0,0 H 1849.9999 V 1198.4652 H 0 Z"
         transform="matrix(0.33459124,0,0,0.33459124,-370.32813,-280)"
         clip-rule="evenodd"
         id="path61" />
    </clipPath>
    <clipPath
       clipPathUnits="userSpaceOnUse"
       id="clipPath62">
      <path
         d="M 0,0 H 1849.9999 V 1198.4652 H 0 Z"
         transform="matrix(0.33459124,0,0,0.33459124,-451.65625,-297)"
         clip-rule="evenodd"
         id="path62" />
    </clipPath>
  </defs>
  <sodipodi:namedview
     id="namedview1"
     pagecolor="#ffffff"
     bordercolor="#000000"
     borderopacity="0.25"
     inkscape:showpageshadow="2"
     inkscape:pageopacity="0.0"
     inkscape:pagecheckerboard="0"
     inkscape:deskcolor="#d1d1d1">
    <inkscape:page
       x="0"
       y="0"
       inkscape:label="1"
       id="page1"
       width="592"
       height="385.28"
       margin="0"
       bleed="0" />
  </sodipodi:namedview>
  <g
     id="g1"
     inkscape:groupmode="layer"
     inkscape:label="1">
    <path
       id="path1"
       d="M 0,0 H 619 V 402 H 0 Z"
       style="fill:#ffffff;fill-opacity:1;fill-rule:nonzero;stroke:none"
       transform="scale(0.95638118)"
       clip-path="url(#clipPath2)" />
    <path
       id="path3"
       d="M 8,1 H 228 V 68 H 8 Z"
       style="fill:#dae8fc;fill-opacity:1;fill-rule:nonzero;stroke:#6c8ebf;stroke-width:1;stroke-linecap:butt;stroke-linejoin:miter;stroke-miterlimit:10;stroke-dasharray:none;stroke-opacity:1"
       transform="matrix(0.95638118,0,0,0.95638118,0.47819059,0.47819059)"
       clip-path="url(#clipPath4)" />
    <text
       id="text4"
       xml:space="preserve"
       transform="matrix(0.95639081,0,0,0.95639081,85.641808,20.084207)"
       clip-path="url(#clipPath5)"><tspan
         style="font-variant:normal;font-weight:700;font-size:16px;font-family:Helvetica;writing-mode:lr-tb;fill:#000000;fill-opacity:1;fill-rule:nonzero;stroke:none"
         x="0 9.7734375 19.546875 29.320312 38.21875 42.664062 51.5625"
         y="0"
         sodipodi:role="line"
         id="tspan4">Look at</tspan></text>
    <text
       id="text5"
       xml:space="preserve"
       transform="matrix(0.95639081,0,0,0.95639081,18.44041,38.255632)"
       clip-path="url(#clipPath6)"><tspan
         style="font-variant:normal;font-weight:700;font-size:16px;font-family:Helvetica;writing-mode:lr-tb;fill:#000000;fill-opacity:1;fill-rule:nonzero;stroke:none"
         x="0 9.7734375 18.671875 27.570312 33.796875 42.695312 51.59375 61.367188 70.265625 79.164062 85.390625 95.164062 104.0625 118.28906 127.1875 136.08594 140.53125 150.30469 159.20312 163.64844 168.97656 178.75 187.64844"
         y="0"
         sodipodi:role="line"
         id="tspan5">users_username_idx then</tspan></text>
    <text
       id="text6"
       xml:space="preserve"
       transform="matrix(0.95639081,0,0,0.95639081,74.150175,56.427058)"
       clip-path="url(#clipPath7)"><tspan
         style="font-variant:normal;font-weight:700;font-size:16px;font-family:Helvetica;writing-mode:lr-tb;fill:#000000;fill-opacity:1;fill-rule:nonzero;stroke:none"
         x="0 9.7734375 18.671875 24 28.445312 38.21875 47.117188 56.015625 62.242188 71.140625"
         y="0"
         sodipodi:role="line"
         id="tspan6">get users?</tspan></text>
    <path
       id="path8"
       d="M 358,1 H 578 V 68 H 358 Z"
       style="fill:#dae8fc;fill-opacity:1;fill-rule:nonzero;stroke:#6c8ebf;stroke-width:1;stroke-linecap:butt;stroke-linejoin:miter;stroke-miterlimit:10;stroke-dasharray:none;stroke-opacity:1"
       transform="matrix(0.95638118,0,0,0.95638118,0.47819059,0.47819059)"
       clip-path="url(#clipPath9)" />
    <text
       id="text9"
       xml:space="preserve"
       transform="matrix(0.95639081,0,0,0.95639081,351.47362,28.691724)"
       clip-path="url(#clipPath10)"><tspan
         style="font-variant:normal;font-weight:700;font-size:16px;font-family:Helvetica;writing-mode:lr-tb;fill:#000000;fill-opacity:1;fill-rule:nonzero;stroke:none"
         x="0 9.7734375 18.671875 24 32.898438 42.671875 47.117188 56.015625 60.460938 64.90625 69.351562 79.125 88.023438 96.921875 103.14844 112.04688 116.49219 125.39062 135.16406 144.9375 149.38281 158.28125 167.17969 176.07812 182.30469 191.20312"
         y="0"
         sodipodi:role="line"
         id="tspan9">Fetch all users and search</tspan></text>
    <text
       id="text10"
       xml:space="preserve"
       transform="matrix(0.95639081,0,0,0.95639081,393.61459,47.81954)"
       clip-path="url(#clipPath11)"><tspan
         style="font-variant:normal;font-weight:700;font-size:16px;font-family:Helvetica;writing-mode:lr-tb;fill:#000000;fill-opacity:1;fill-rule:nonzero;stroke:none"
         x="0 5.328125 15.101562 21.328125 31.101562 40.875 50.648438 60.421875 64.867188 70.195312 79.96875 88.867188 103.09375"
         y="0"
         sodipodi:role="line"
         id="tspan10">through them?</tspan></text>
    <path
       id="path12"
       d="m 8,128 h 10 v 30 h 3.629999"
       style="fill:none;stroke:#000000;stroke-width:1;stroke-linecap:butt;stroke-linejoin:miter;stroke-miterlimit:10;stroke-dasharray:none;stroke-opacity:1"
       transform="matrix(0.95638118,0,0,0.95638118,0.47819059,0.47819059)"
       clip-path="url(#clipPath13)" />
    <path
       id="path14"
       d="m 26.879999,158 -7,3.5 1.75,-3.5 -1.75,-3.5 z"
       style="fill:#000000;fill-opacity:1;fill-rule:nonzero;stroke:#000000;stroke-width:1;stroke-linecap:butt;stroke-linejoin:miter;stroke-miterlimit:10;stroke-dasharray:none;stroke-opacity:1"
       transform="matrix(0.95638118,0,0,0.95638118,0.47819059,0.47819059)"
       clip-path="url(#clipPath15)" />
    <path
       id="path16"
       d="m 8,128 h 10 v 80 h 3.629999"
       style="fill:none;stroke:#000000;stroke-width:1;stroke-linecap:butt;stroke-linejoin:miter;stroke-miterlimit:10;stroke-dasharray:none;stroke-opacity:1"
       transform="matrix(0.95638118,0,0,0.95638118,0.47819059,0.47819059)"
       clip-path="url(#clipPath17)" />
    <path
       id="path18"
       d="m 26.879999,208 -7,3.5 1.75,-3.5 -1.75,-3.5 z"
       style="fill:#000000;fill-opacity:1;fill-rule:nonzero;stroke:#000000;stroke-width:1;stroke-linecap:butt;stroke-linejoin:miter;stroke-miterlimit:10;stroke-dasharray:none;stroke-opacity:1"
       transform="matrix(0.95638118,0,0,0.95638118,0.47819059,0.47819059)"
       clip-path="url(#clipPath19)" />
    <path
       id="path20"
       d="m 8,128 h 10 v 130 h 3.629999"
       style="fill:none;stroke:#000000;stroke-width:1;stroke-linecap:butt;stroke-linejoin:miter;stroke-miterlimit:10;stroke-dasharray:none;stroke-opacity:1"
       transform="matrix(0.95638118,0,0,0.95638118,0.47819059,0.47819059)"
       clip-path="url(#clipPath21)" />
    <path
       id="path22"
       d="m 26.879999,258 -7,3.5 1.75,-3.5 -1.75,-3.5 z"
       style="fill:#000000;fill-opacity:1;fill-rule:nonzero;stroke:#000000;stroke-width:1;stroke-linecap:butt;stroke-linejoin:miter;stroke-miterlimit:10;stroke-dasharray:none;stroke-opacity:1"
       transform="matrix(0.95638118,0,0,0.95638118,0.47819059,0.47819059)"
       clip-path="url(#clipPath23)" />
    <path
       id="path24"
       d="m 8,78 h 220 v 50 H 8 Z"
       style="fill:#ffffff;fill-opacity:1;fill-rule:nonzero;stroke:#000000;stroke-width:1;stroke-linecap:butt;stroke-linejoin:miter;stroke-miterlimit:10;stroke-dasharray:none;stroke-opacity:1"
       transform="matrix(0.95638118,0,0,0.95638118,0.47819059,0.47819059)"
       clip-path="url(#clipPath25)" />
    <text
       id="text25"
       xml:space="preserve"
       transform="matrix(0.95639081,0,0,0.95639081,19.277252,95.639081)"
       clip-path="url(#clipPath26)"><tspan
         style="font-variant:normal;font-weight:normal;font-size:14px;font-family:Helvetica;writing-mode:lr-tb;fill:#000000;fill-opacity:1;fill-rule:nonzero;stroke:none"
         x="0 8.5517578 11.662109 19.448242 27.234375 31.124023 35.013672 42.799805 50.585938 54.475586 58.365234 68.475586 71.148438 78.148438 82.038086 89.824219 93.713867 97.603516 105.38965 112.38965 120.17578 124.83789 131.83789 135.72754 145.83789 153.62402 161.41016 165.2998 173.08594 180.87207 187.87207"
         y="0"
         sodipodi:role="line"
         id="tspan25">Find the ID's of users who have</tspan></text>
    <text
       id="text26"
       xml:space="preserve"
       transform="matrix(0.95639081,0,0,0.95639081,43.680161,111.89772)"
       clip-path="url(#clipPath27)"><tspan
         style="font-variant:normal;font-weight:normal;font-size:14px;font-family:Helvetica;writing-mode:lr-tb;fill:#000000;fill-opacity:1;fill-rule:nonzero;stroke:none"
         x="0 7.7861328 14.786133 22.572266 27.234375 35.020508 42.806641 54.46875 62.254883 66.144531 73.930664 77.820312 81.709961 84.382812 93.720703 96.831055 103.83105 110.83105 118.61719 126.40332 134.18945 141.97559"
         y="0"
         sodipodi:role="line"
         id="tspan26">username of 'Alyson14'</tspan></text>
    <path
       id="path28"
       d="m 358,78 h 220 v 50 H 358 Z"
       style="fill:#ffffff;fill-opacity:1;fill-rule:nonzero;stroke:#000000;stroke-width:1;stroke-linecap:butt;stroke-linejoin:miter;stroke-miterlimit:10;stroke-dasharray:none;stroke-opacity:1"
       transform="matrix(0.95638118,0,0,0.95638118,0.47819059,0.47819059)"
       clip-path="url(#clipPath29)" />
    <g
       id="g29" />
    <text
       id="text29"
       xml:space="preserve"
       transform="matrix(0.95639081,0,0,0.95639081,374.63621,103.29021)"
       clip-path="url(#clipPath30)"><tspan
         style="font-variant:normal;font-weight:normal;font-size:14px;font-family:Helvetica;writing-mode:lr-tb;fill:#000000;fill-opacity:1;fill-rule:nonzero;stroke:none"
         x="0 10.889648 18.675781 26.461914 34.248047 38.137695 42.027344 49.813477 57.599609 61.489258 69.275391 76.275391 84.061523 88.723633 95.723633 99.613281 107.39941 115.18555 122.97168 130.75781 134.64746 141.64746 144.75781"
         y="0"
         sodipodi:role="line"
         id="tspan29">Open the users heap ﬁle</tspan></text>
    <path
       id="path31"
       d="m 28,138 h 200 v 40 H 28 Z"
       style="fill:#ffffff;fill-opacity:1;fill-rule:nonzero;stroke:#000000;stroke-width:1;stroke-linecap:butt;stroke-linejoin:miter;stroke-miterlimit:10;stroke-dasharray:none;stroke-opacity:1"
       transform="matrix(0.95638118,0,0,0.95638118,0.47819059,0.47819059)"
       clip-path="url(#clipPath32)" />
    <text
       id="text32"
       xml:space="preserve"
       transform="matrix(0.95639081,0,0,0.95639081,81.472542,155.8917)"
       clip-path="url(#clipPath33)"><tspan
         style="font-variant:normal;font-weight:normal;font-size:14px;font-family:Helvetica;writing-mode:lr-tb;fill:#000000;fill-opacity:1;fill-rule:nonzero;stroke:none"
         x="0 10.889648 18.675781 22.56543 26.455078 31.117188 38.90332 46.689453 50.579102 54.46875 62.254883 70.041016 77.827148"
         y="0"
         sodipodi:role="line"
         id="tspan32">Get root node</tspan></text>
    <path
       id="path34"
       d="m 28,188 h 200 v 40 H 28 Z"
       style="fill:#ffffff;fill-opacity:1;fill-rule:nonzero;stroke:#000000;stroke-width:1;stroke-linecap:butt;stroke-linejoin:miter;stroke-miterlimit:10;stroke-dasharray:none;stroke-opacity:1"
       transform="matrix(0.95638118,0,0,0.95638118,0.47819059,0.47819059)"
       clip-path="url(#clipPath35)" />
    <text
       id="text35"
       xml:space="preserve"
       transform="matrix(0.95639081,0,0,0.95639081,40.183358,196.06012)"
       clip-path="url(#clipPath36)"><tspan
         style="font-variant:normal;font-weight:normal;font-size:14px;font-family:Helvetica;writing-mode:lr-tb;fill:#000000;fill-opacity:1;fill-rule:nonzero;stroke:none"
         x="0 7 14.786133 26.448242 34.234375 38.124023 42.013672 49.799805 53.689453 60.689453 68.475586 80.137695 87.923828 91.813477 96.475586 104.26172 112.04785 119.83398 127.62012 139.28223 143.17188 150.17188 157.95801 161.06836 164.17871"
         y="0"
         sodipodi:role="line"
         id="tspan35">Jump to some random child</tspan></text>
    <text
       id="text36"
       xml:space="preserve"
       transform="matrix(0.95639081,0,0,0.95639081,107.51925,212.31876)"
       clip-path="url(#clipPath37)"><tspan
         style="font-variant:normal;font-weight:normal;font-size:14px;font-family:Helvetica;writing-mode:lr-tb;fill:#000000;fill-opacity:1;fill-rule:nonzero;stroke:none"
         x="0 7.7861328 15.572266 23.358398"
         y="0"
         sodipodi:role="line"
         id="tspan36">page</tspan></text>
    <path
       id="path38"
       d="m 28,238 h 200 v 40 H 28 Z"
       style="fill:#ffffff;fill-opacity:1;fill-rule:nonzero;stroke:#000000;stroke-width:1;stroke-linecap:butt;stroke-linejoin:miter;stroke-miterlimit:10;stroke-dasharray:none;stroke-opacity:1"
       transform="matrix(0.95638118,0,0,0.95638118,0.47819059,0.47819059)"
       clip-path="url(#clipPath39)" />
    <text
       id="text39"
       xml:space="preserve"
       transform="matrix(0.95639081,0,0,0.95639081,29.00554,251.53078)"
       clip-path="url(#clipPath40)"><tspan
         style="font-variant:normal;font-weight:normal;font-size:14px;font-family:Helvetica;writing-mode:lr-tb;fill:#000000;fill-opacity:1;fill-rule:nonzero;stroke:none"
         x="0 9.3378906 14 21.786133 28.786133 36.572266 43.572266 50.572266 54.461914 58.351562 66.137695 73.923828 77.813477 84.813477 92.599609 95.709961 103.49609 111.28223 118.28223 122.17188 125.28223 133.06836 136.95801 140.84766 148.63379 156.41992 160.30957 164.19922 171.98535 179.77148 187.55762"
         y="0"
         sodipodi:role="line"
         id="tspan39">Process the values in that node</tspan></text>
    <path
       id="path41"
       d="m 8,288 h 220 v 50 H 8 Z"
       style="fill:#ffffff;fill-opacity:1;fill-rule:nonzero;stroke:#000000;stroke-width:1;stroke-linecap:butt;stroke-linejoin:miter;stroke-miterlimit:10;stroke-dasharray:none;stroke-opacity:1"
       transform="matrix(0.95638118,0,0,0.95638118,0.47819059,0.47819059)"
       clip-path="url(#clipPath42)" />
    <g
       id="g42" />
    <text
       id="text42"
       xml:space="preserve"
       transform="matrix(0.95639081,0,0,0.95639081,52.930254,304.13228)"
       clip-path="url(#clipPath43)"><tspan
         style="font-variant:normal;font-weight:normal;font-size:14px;font-family:Helvetica;writing-mode:lr-tb;fill:#000000;fill-opacity:1;fill-rule:nonzero;stroke:none"
         x="0 10.889648 18.675781 26.461914 34.248047 38.137695 45.923828 52.923828 60.709961 65.37207 72.37207 76.261719 84.047852 91.833984 99.620117 107.40625 114.40625 117.5166"
         y="0"
         sodipodi:role="line"
         id="tspan42">Open users heapﬁle</tspan></text>
    <path
       id="path44"
       d="m 8,348 h 220 v 50 H 8 Z"
       style="fill:#ffffff;fill-opacity:1;fill-rule:nonzero;stroke:#000000;stroke-width:1;stroke-linecap:butt;stroke-linejoin:miter;stroke-miterlimit:10;stroke-dasharray:none;stroke-opacity:1"
       transform="matrix(0.95638118,0,0,0.95638118,0.47819059,0.47819059)"
       clip-path="url(#clipPath45)" />
    <text
       id="text45"
       xml:space="preserve"
       transform="matrix(0.95639081,0,0,0.95639081,18.320861,353.8646)"
       clip-path="url(#clipPath46)"><tspan
         style="font-variant:normal;font-weight:normal;font-size:14px;font-family:Helvetica;writing-mode:lr-tb;fill:#000000;fill-opacity:1;fill-rule:nonzero;stroke:none"
         x="0 7 14.786133 26.448242 34.234375 38.124023 42.013672 49.799805 53.689453 61.475586 69.261719 76.261719 84.047852 87.9375 95.723633 98.833984 106.62012 113.62012 120.62012 124.50977 128.39941 136.18555 143.97168 147.86133 151.75098 159.53711 167.32324 174.32324 178.21289 182.10254 189.88867"
         y="0"
         sodipodi:role="line"
         id="tspan45">Jump to each block that has the</tspan></text>
    <text
       id="text46"
       xml:space="preserve"
       transform="matrix(0.95639081,0,0,0.95639081,41.76738,370.12324)"
       clip-path="url(#clipPath47)"><tspan
         style="font-variant:normal;font-weight:normal;font-size:14px;font-family:Helvetica;writing-mode:lr-tb;fill:#000000;fill-opacity:1;fill-rule:nonzero;stroke:none"
         x="0 7.7861328 14.786133 22.572266 27.234375 34.234375 38.124023 48.234375 56.020508 59.910156 67.696289 72.358398 80.144531 84.03418 87.144531 94.930664 102.7168 109.7168 112.82715 120.61328 128.39941 132.28906 136.17871 143.96484"
         y="0"
         sodipodi:role="line"
         id="tspan46">users we are looking for</tspan></text>
    <path
       id="path48"
       d="m 358,138 h 220 v 50 H 358 Z"
       style="fill:#ffffff;fill-opacity:1;fill-rule:nonzero;stroke:#000000;stroke-width:1;stroke-linecap:butt;stroke-linejoin:miter;stroke-miterlimit:10;stroke-dasharray:none;stroke-opacity:1"
       transform="matrix(0.95638118,0,0,0.95638118,0.47819059,0.47819059)"
       clip-path="url(#clipPath49)" />
    <g
       id="g49" />
    <text
       id="text49"
       xml:space="preserve"
       transform="matrix(0.95639081,0,0,0.95639081,349.35163,160.67366)"
       clip-path="url(#clipPath50)"><tspan
         style="font-variant:normal;font-weight:normal;font-size:14px;font-family:Helvetica;writing-mode:lr-tb;fill:#000000;fill-opacity:1;fill-rule:nonzero;stroke:none"
         x="0 7.7861328 15.572266 23.358398 31.144531 35.03418 42.820312 45.930664 49.041016 52.930664 60.716797 67.716797 75.50293 80.165039 87.165039 91.054688 94.944336 99.606445 107.39258 119.05469 122.94434 126.83398 134.62012 142.40625 146.2959 153.2959 157.95801 164.95801 168.84766 172.7373 180.52344 183.63379 191.41992 198.41992"
         y="0"
         sodipodi:role="line"
         id="tspan49">Load all users from the ﬁrst block</tspan></text>
    <path
       id="path51"
       d="m 358,198 h 220 v 50 H 358 Z"
       style="fill:#ffffff;fill-opacity:1;fill-rule:nonzero;stroke:#000000;stroke-width:1;stroke-linecap:butt;stroke-linejoin:miter;stroke-miterlimit:10;stroke-dasharray:none;stroke-opacity:1"
       transform="matrix(0.95638118,0,0,0.95638118,0.47819059,0.47819059)"
       clip-path="url(#clipPath52)" />
    <text
       id="text52"
       xml:space="preserve"
       transform="matrix(0.95639081,0,0,0.95639081,367.58283,210.40598)"
       clip-path="url(#clipPath53)"><tspan
         style="font-variant:normal;font-weight:normal;font-size:14px;font-family:Helvetica;writing-mode:lr-tb;fill:#000000;fill-opacity:1;fill-rule:nonzero;stroke:none"
         x="0 9.3378906 14 21.786133 28.786133 36.572266 43.572266 50.572266 54.461914 62.248047 70.03418 77.03418 84.820312 88.709961 96.496094 103.49609 111.28223 115.17871 119.06836 122.95801 129.95801 137.74414 145.53027 149.41992 152.53027 156.41992 160.30957 163.41992"
         y="0"
         sodipodi:role="line"
         id="tspan52">Process each user, see if it</tspan></text>
    <text
       id="text53"
       xml:space="preserve"
       transform="matrix(0.95639081,0,0,0.95639081,357.52579,226.66462)"
       clip-path="url(#clipPath54)"><tspan
         style="font-variant:normal;font-weight:normal;font-size:14px;font-family:Helvetica;writing-mode:lr-tb;fill:#000000;fill-opacity:1;fill-rule:nonzero;stroke:none"
         x="0 7 14.786133 22.572266 26.461914 34.248047 37.358398 45.144531 52.144531 56.03418 59.923828 67.709961 75.496094 79.385742 86.385742 94.171875 98.833984 103.49609 111.28223 118.28223 122.17188 126.06152 133.84766 140.84766 148.63379 153.2959 161.08203 168.86816 180.53027"
         y="0"
         sodipodi:role="line"
         id="tspan53">contains the correct username</tspan></text>
    <path
       id="path55"
       d="M 578.01001,283 H 608 V 163 h -23.63"
       style="fill:none;stroke:#000000;stroke-width:1;stroke-linecap:butt;stroke-linejoin:miter;stroke-miterlimit:10;stroke-dasharray:none;stroke-opacity:1"
       transform="matrix(0.95638118,0,0,0.95638118,0.47819059,0.47819059)"
       clip-path="url(#clipPath56)" />
    <path
       id="path57"
       d="m 579.12,163 7,-3.5 -1.75,3.5 1.75,3.5 z"
       style="fill:#000000;fill-opacity:1;fill-rule:nonzero;stroke:#000000;stroke-width:1;stroke-linecap:butt;stroke-linejoin:miter;stroke-miterlimit:10;stroke-dasharray:none;stroke-opacity:1"
       transform="matrix(0.95638118,0,0,0.95638118,0.47819059,0.47819059)"
       clip-path="url(#clipPath58)" />
    <path
       id="path59"
       d="m 358,258 h 220 v 50 H 358 Z"
       style="fill:#ffffff;fill-opacity:1;fill-rule:nonzero;stroke:#000000;stroke-width:1;stroke-linecap:butt;stroke-linejoin:miter;stroke-miterlimit:10;stroke-dasharray:none;stroke-opacity:1"
       transform="matrix(0.95638118,0,0,0.95638118,0.47819059,0.47819059)"
       clip-path="url(#clipPath60)" />
    <text
       id="text60"
       xml:space="preserve"
       transform="matrix(0.95639081,0,0,0.95639081,354.17842,267.78943)"
       clip-path="url(#clipPath61)"><tspan
         style="font-variant:normal;font-weight:normal;font-size:14px;font-family:Helvetica;writing-mode:lr-tb;fill:#000000;fill-opacity:1;fill-rule:nonzero;stroke:none"
         x="0 10.110352 17.896484 25.682617 33.46875 41.254883 45.144531 49.03418 52.923828 60.709961 68.496094 72.385742 80.171875 84.833984 92.620117 99.620117 107.40625 114.40625 121.40625 125.2959 129.18555 136.97168 141.63379 145.52344 149.41309 157.19922 164.98535 168.875 176.66113 184.44727 191.44727"
         y="0"
         sodipodi:role="line"
         id="tspan60">Repeat the process for the next</tspan></text>
    <text
       id="text61"
       xml:space="preserve"
       transform="matrix(0.95639081,0,0,0.95639081,431.95989,284.04807)"
       clip-path="url(#clipPath62)"><tspan
         style="font-variant:normal;font-weight:normal;font-size:14px;font-family:Helvetica;writing-mode:lr-tb;fill:#000000;fill-opacity:1;fill-rule:nonzero;stroke:none"
         x="0 7.7861328 10.896484 18.682617 25.682617"
         y="0"
         sodipodi:role="line"
         id="tspan61">block</tspan></text>
  </g>
</svg>
