<?xml version="1.0" encoding="UTF-8" standalone="no"?>
<!-- Created with Inkscape (http://www.inkscape.org/) -->

<svg
   version="1.1"
   id="svg1"
   width="453.44"
   height="256"
   viewBox="0 0 453.44 256"
   sodipodi:docname="sql-1.pdf"
   xmlns:inkscape="http://www.inkscape.org/namespaces/inkscape"
   xmlns:sodipodi="http://sodipodi.sourceforge.net/DTD/sodipodi-0.dtd"
   xmlns="http://www.w3.org/2000/svg"
   xmlns:svg="http://www.w3.org/2000/svg">
  <defs
     id="defs1">
    <clipPath
       clipPathUnits="userSpaceOnUse"
       id="clipPath2">
      <path
         d="M 0,0 H 1416.6666 V 797.99573 H 0 Z"
         transform="scale(0.33458825)"
         clip-rule="evenodd"
         id="path2" />
    </clipPath>
    <clipPath
       clipPathUnits="userSpaceOnUse"
       id="clipPath4">
      <path
         d="M 0,0 H 1416.6666 V 795.00696 H 0 Z"
         transform="matrix(0.33458825,0,0,0.33458825,-0.49999999,-0.49999999)"
         clip-rule="evenodd"
         id="path4" />
    </clipPath>
    <clipPath
       clipPathUnits="userSpaceOnUse"
       id="clipPath6">
      <path
         d="M 0,0 H 1416.6666 V 795.00696 H 0 Z"
         transform="matrix(0.33458825,0,0,0.33458825,-0.49999999,-0.49999999)"
         clip-rule="evenodd"
         id="path6" />
    </clipPath>
    <clipPath
       clipPathUnits="userSpaceOnUse"
       id="clipPath8">
      <path
         d="M 0,0 H 1416.6666 V 795.00696 H 0 Z"
         transform="matrix(0.33458825,0,0,0.33458825,-0.49999999,-0.49999999)"
         clip-rule="evenodd"
         id="path8" />
    </clipPath>
    <clipPath
       clipPathUnits="userSpaceOnUse"
       id="clipPath9">
      <path
         d="M 0,0 H 1416.6666 V 795.00696 H 0 Z"
         transform="matrix(0.33458489,0,0,0.33458489,-56.984375,-43)"
         clip-rule="evenodd"
         id="path9" />
    </clipPath>
    <clipPath
       clipPathUnits="userSpaceOnUse"
       id="clipPath11">
      <path
         d="M 0,0 H 1416.6666 V 795.00696 H 0 Z"
         transform="matrix(0.33458825,0,0,0.33458825,-0.49999999,-0.49999999)"
         clip-rule="evenodd"
         id="path11" />
    </clipPath>
    <clipPath
       clipPathUnits="userSpaceOnUse"
       id="clipPath12">
      <path
         d="M 0,0 H 1416.6666 V 795.00696 H 0 Z"
         transform="matrix(0.33458489,0,0,0.33458489,-13.140625,-143)"
         clip-rule="evenodd"
         id="path12" />
    </clipPath>
    <clipPath
       clipPathUnits="userSpaceOnUse"
       id="clipPath14">
      <path
         d="M 0,0 H 1416.6666 V 795.00696 H 0 Z"
         transform="matrix(0.33458825,0,0,0.33458825,-0.49999999,-0.49999999)"
         clip-rule="evenodd"
         id="path14" />
    </clipPath>
    <clipPath
       clipPathUnits="userSpaceOnUse"
       id="clipPath15">
      <path
         d="M 0,0 H 1416.6666 V 795.00696 H 0 Z"
         transform="matrix(0.33458489,0,0,0.33458489,-261.42188,-32)"
         clip-rule="evenodd"
         id="path15" />
    </clipPath>
    <clipPath
       clipPathUnits="userSpaceOnUse"
       id="clipPath16">
      <path
         d="M 0,0 H 1416.6666 V 795.00696 H 0 Z"
         transform="matrix(0.33458489,0,0,0.33458489,-321.46875,-32)"
         clip-rule="evenodd"
         id="path16" />
    </clipPath>
    <clipPath
       clipPathUnits="userSpaceOnUse"
       id="clipPath17">
      <path
         d="M 0,0 H 1416.6666 V 795.00696 H 0 Z"
         transform="matrix(0.33458489,0,0,0.33458489,-405.53125,-32)"
         clip-rule="evenodd"
         id="path17" />
    </clipPath>
    <clipPath
       clipPathUnits="userSpaceOnUse"
       id="clipPath18">
      <path
         d="M 0,0 H 1416.6666 V 795.00696 H 0 Z"
         transform="matrix(0.33458489,0,0,0.33458489,-273.9375,-54)"
         clip-rule="evenodd"
         id="path18" />
    </clipPath>
    <clipPath
       clipPathUnits="userSpaceOnUse"
       id="clipPath20">
      <path
         d="M 0,0 H 1416.6666 V 795.00696 H 0 Z"
         transform="matrix(0.33458825,0,0,0.33458825,-0.49999999,-0.49999999)"
         clip-rule="evenodd"
         id="path20" />
    </clipPath>
    <clipPath
       clipPathUnits="userSpaceOnUse"
       id="clipPath22">
      <path
         d="M 0,0 H 1416.6666 V 795.00696 H 0 Z"
         transform="matrix(0.33458825,0,0,0.33458825,-0.49999999,-0.49999999)"
         clip-rule="evenodd"
         id="path22" />
    </clipPath>
    <clipPath
       clipPathUnits="userSpaceOnUse"
       id="clipPath24">
      <path
         d="M 0,0 H 1416.6666 V 795.00696 H 0 Z"
         transform="matrix(0.33458825,0,0,0.33458825,-0.49999999,-0.49999999)"
         clip-rule="evenodd"
         id="path24" />
    </clipPath>
    <clipPath
       clipPathUnits="userSpaceOnUse"
       id="clipPath25">
      <path
         d="M 0,0 H 1416.6666 V 795.00696 H 0 Z"
         transform="matrix(0.33458489,0,0,0.33458489,-248.9375,-132)"
         clip-rule="evenodd"
         id="path25" />
    </clipPath>
    <clipPath
       clipPathUnits="userSpaceOnUse"
       id="clipPath26">
      <path
         d="M 0,0 H 1416.6666 V 795.00696 H 0 Z"
         transform="matrix(0.33458489,0,0,0.33458489,-308.98438,-132)"
         clip-rule="evenodd"
         id="path26" />
    </clipPath>
    <clipPath
       clipPathUnits="userSpaceOnUse"
       id="clipPath27">
      <path
         d="M 0,0 H 1416.6666 V 795.00696 H 0 Z"
         transform="matrix(0.33458489,0,0,0.33458489,-403.04688,-132)"
         clip-rule="evenodd"
         id="path27" />
    </clipPath>
    <clipPath
       clipPathUnits="userSpaceOnUse"
       id="clipPath28">
      <path
         d="M 0,0 H 1416.6666 V 795.00696 H 0 Z"
         transform="matrix(0.33458489,0,0,0.33458489,-448.04688,-132)"
         clip-rule="evenodd"
         id="path28" />
    </clipPath>
    <clipPath
       clipPathUnits="userSpaceOnUse"
       id="clipPath29">
      <path
         d="M 0,0 H 1416.6666 V 795.00696 H 0 Z"
         transform="matrix(0.33458489,0,0,0.33458489,-286.9375,-154)"
         clip-rule="evenodd"
         id="path29" />
    </clipPath>
    <clipPath
       clipPathUnits="userSpaceOnUse"
       id="clipPath30">
      <path
         d="M 0,0 H 1416.6666 V 795.00696 H 0 Z"
         transform="matrix(0.33458489,0,0,0.33458489,-115.67188,-216)"
         clip-rule="evenodd"
         id="path30" />
    </clipPath>
    <clipPath
       clipPathUnits="userSpaceOnUse"
       id="clipPath31">
      <path
         d="M 0,0 H 1416.6666 V 795.00696 H 0 Z"
         transform="matrix(0.33458489,0,0,0.33458489,-105.90625,-238)"
         clip-rule="evenodd"
         id="path31" />
    </clipPath>
    <clipPath
       clipPathUnits="userSpaceOnUse"
       id="clipPath32">
      <path
         d="M 0,0 H 1416.6666 V 795.00696 H 0 Z"
         transform="matrix(0.33458489,0,0,0.33458489,-166.95312,-259)"
         clip-rule="evenodd"
         id="path32" />
    </clipPath>
  </defs>
  <sodipodi:namedview
     id="namedview1"
     pagecolor="#ffffff"
     bordercolor="#000000"
     borderopacity="0.25"
     inkscape:showpageshadow="2"
     inkscape:pageopacity="0.0"
     inkscape:pagecheckerboard="0"
     inkscape:deskcolor="#d1d1d1">
    <inkscape:page
       x="0"
       y="0"
       inkscape:label="1"
       id="page1"
       width="453.44"
       height="256"
       margin="0"
       bleed="0" />
  </sodipodi:namedview>
  <g
     id="g1"
     inkscape:groupmode="layer"
     inkscape:label="1">
    <path
       id="path1"
       d="M 0,0 H 474 V 267 H 0 Z"
       style="fill:#ffffff;fill-opacity:1;fill-rule:nonzero;stroke:none"
       transform="scale(0.95639935)"
       clip-path="url(#clipPath2)" />
    <path
       id="path3"
       d="m 191,36 h 33.63"
       style="fill:none;stroke:#000000;stroke-width:1;stroke-linecap:butt;stroke-linejoin:miter;stroke-miterlimit:10;stroke-dasharray:none;stroke-opacity:1"
       transform="matrix(0.95639935,0,0,0.95639935,0.47819967,0.47819967)"
       clip-path="url(#clipPath4)" />
    <path
       id="path5"
       d="m 229.88,36 -7,3.5 1.75,-3.5 -1.75,-3.5 z"
       style="fill:#000000;fill-opacity:1;fill-rule:nonzero;stroke:#000000;stroke-width:1;stroke-linecap:butt;stroke-linejoin:miter;stroke-miterlimit:10;stroke-dasharray:none;stroke-opacity:1"
       transform="matrix(0.95639935,0,0,0.95639935,0.47819967,0.47819967)"
       clip-path="url(#clipPath6)" />
    <path
       id="path7"
       d="M 1,1 H 191 V 71 H 1 Z"
       style="fill:#dae8fc;fill-opacity:1;fill-rule:nonzero;stroke:#6c8ebf;stroke-width:1;stroke-linecap:butt;stroke-linejoin:miter;stroke-miterlimit:10;stroke-dasharray:none;stroke-opacity:1"
       transform="matrix(0.95639935,0,0,0.95639935,0.47819967,0.47819967)"
       clip-path="url(#clipPath8)" />
    <text
       id="text8"
       xml:space="preserve"
       transform="matrix(0.95640895,0,0,0.95640895,54.500366,41.125585)"
       clip-path="url(#clipPath9)"><tspan
         style="font-variant:normal;font-weight:700;font-size:18px;font-family:Helvetica;writing-mode:lr-tb;fill:#000000;fill-opacity:1;fill-rule:nonzero;stroke:none"
         x="0 12.005859 24.011719 36.017578 47.012695 60.011719 65.012695"
         y="0"
         sodipodi:role="line"
         id="tspan8">EXPLAIN</tspan></text>
    <path
       id="path10"
       d="m 1,101 h 190 v 70 H 1 Z"
       style="fill:#dae8fc;fill-opacity:1;fill-rule:nonzero;stroke:#6c8ebf;stroke-width:1;stroke-linecap:butt;stroke-linejoin:miter;stroke-miterlimit:10;stroke-dasharray:none;stroke-opacity:1"
       transform="matrix(0.95639935,0,0,0.95639935,0.47819967,0.47819967)"
       clip-path="url(#clipPath11)" />
    <text
       id="text11"
       xml:space="preserve"
       transform="matrix(0.95640895,0,0,0.95640895,12.567811,136.76648)"
       clip-path="url(#clipPath12)"><tspan
         style="font-variant:normal;font-weight:700;font-size:18px;font-family:Helvetica;writing-mode:lr-tb;fill:#000000;fill-opacity:1;fill-rule:nonzero;stroke:none"
         x="0 12.005859 24.011719 36.017578 47.012695 60.011719 65.012695 78.011719 82.353516 95.352539 108.35156 121.35059 130.69336 142.69922 153.69434"
         y="0"
         sodipodi:role="line"
         id="tspan11">EXPLAIN ANALYZE</tspan></text>
    <path
       id="path13"
       d="M 231,1 H 471 V 71 H 231 Z"
       style="fill:#ffffff;fill-opacity:1;fill-rule:nonzero;stroke:#000000;stroke-width:1;stroke-linecap:butt;stroke-linejoin:miter;stroke-miterlimit:10;stroke-dasharray:none;stroke-opacity:1"
       transform="matrix(0.95639935,0,0,0.95639935,0.47819967,0.47819967)"
       clip-path="url(#clipPath14)" />
    <text
       id="text14"
       xml:space="preserve"
       transform="matrix(0.95640895,0,0,0.95640895,250.02623,30.605086)"
       clip-path="url(#clipPath15)"><tspan
         style="font-variant:normal;font-weight:normal;font-size:18px;font-family:Helvetica;writing-mode:lr-tb;fill:#000000;fill-opacity:1;fill-rule:nonzero;stroke:none"
         x="0 12.005859 22.016602 26.015625 30.014648 40.025391 45.026367 55.037109"
         y="0"
         sodipodi:role="line"
         id="tspan14">Build a </tspan></text>
    <text
       id="text15"
       xml:space="preserve"
       transform="matrix(0.95640895,0,0,0.95640895,307.45559,30.605086)"
       clip-path="url(#clipPath16)"><tspan
         style="font-style:oblique;font-variant:normal;font-weight:normal;font-size:18px;font-family:Helvetica;writing-mode:lr-tb;fill:#000000;fill-opacity:1;fill-rule:nonzero;stroke:none"
         x="0 10.010742 20.021484 30.032227 36.026367 45.026367 50.027344 60.038086 64.037109 74.047852"
         y="0"
         sodipodi:role="line"
         id="tspan15">query plan</tspan></text>
    <text
       id="text16"
       xml:space="preserve"
       transform="matrix(0.95640895,0,0,0.95640895,387.85372,30.605086)"
       clip-path="url(#clipPath17)"><tspan
         style="font-variant:normal;font-weight:normal;font-size:18px;font-family:Helvetica;writing-mode:lr-tb;fill:#000000;fill-opacity:1;fill-rule:nonzero;stroke:none"
         x="0 5.0009766 15.011719 25.022461"
         y="0"
         sodipodi:role="line"
         id="tspan16"> and</tspan></text>
    <text
       id="text17"
       xml:space="preserve"
       transform="matrix(0.95640895,0,0,0.95640895,261.99628,51.646083)"
       clip-path="url(#clipPath18)"><tspan
         style="font-variant:normal;font-weight:normal;font-size:18px;font-family:Helvetica;writing-mode:lr-tb;fill:#000000;fill-opacity:1;fill-rule:nonzero;stroke:none"
         x="0 10.010742 14.009766 23.009766 33.020508 37.019531 47.030273 56.030273 61.03125 65.030273 75.041016 80.041992 90.052734 95.053711 105.06445 115.0752 125.08594 135.09668 140.09766 145.09863 149.09766"
         y="0"
         sodipodi:role="line"
         id="tspan17">display info about it</tspan></text>
    <path
       id="path19"
       d="m 191,136 21,0.5 12.64,-0.33"
       style="fill:none;stroke:#000000;stroke-width:1;stroke-linecap:butt;stroke-linejoin:miter;stroke-miterlimit:10;stroke-dasharray:none;stroke-opacity:1"
       transform="matrix(0.95639935,0,0,0.95639935,0.47819967,0.47819967)"
       clip-path="url(#clipPath20)" />
    <path
       id="path21"
       d="m 229.88,136.03 -6.9,3.68001 1.66,-3.54001 -1.85001,-3.45999 z"
       style="fill:#000000;fill-opacity:1;fill-rule:nonzero;stroke:#000000;stroke-width:1;stroke-linecap:butt;stroke-linejoin:miter;stroke-miterlimit:10;stroke-dasharray:none;stroke-opacity:1"
       transform="matrix(0.95639935,0,0,0.95639935,0.47819967,0.47819967)"
       clip-path="url(#clipPath22)" />
    <path
       id="path23"
       d="m 231,101 h 240 v 70 H 231 Z"
       style="fill:#ffffff;fill-opacity:1;fill-rule:nonzero;stroke:#000000;stroke-width:1;stroke-linecap:butt;stroke-linejoin:miter;stroke-miterlimit:10;stroke-dasharray:none;stroke-opacity:1"
       transform="matrix(0.95639935,0,0,0.95639935,0.47819967,0.47819967)"
       clip-path="url(#clipPath24)" />
    <text
       id="text24"
       xml:space="preserve"
       transform="matrix(0.95640895,0,0,0.95640895,238.08605,126.24598)"
       clip-path="url(#clipPath25)"><tspan
         style="font-variant:normal;font-weight:normal;font-size:18px;font-family:Helvetica;writing-mode:lr-tb;fill:#000000;fill-opacity:1;fill-rule:nonzero;stroke:none"
         x="0 12.005859 22.016602 26.015625 30.014648 40.025391 45.026367 55.037109"
         y="0"
         sodipodi:role="line"
         id="tspan24">Build a </tspan></text>
    <text
       id="text25"
       xml:space="preserve"
       transform="matrix(0.95640895,0,0,0.95640895,295.51543,126.24598)"
       clip-path="url(#clipPath26)"><tspan
         style="font-style:oblique;font-variant:normal;font-weight:normal;font-size:18px;font-family:Helvetica;writing-mode:lr-tb;fill:#000000;fill-opacity:1;fill-rule:nonzero;stroke:none"
         x="0 10.010742 20.021484 30.032227 36.026367 45.026367 50.027344 60.038086 64.037109 74.047852 84.058594 89.05957"
         y="0"
         sodipodi:role="line"
         id="tspan25">query plan, </tspan></text>
    <text
       id="text26"
       xml:space="preserve"
       transform="matrix(0.95640895,0,0,0.95640895,385.47764,126.24598)"
       clip-path="url(#clipPath27)"><tspan
         style="font-style:oblique;font-variant:normal;font-weight:700;font-size:18px;font-family:Helvetica;writing-mode:lr-tb;fill:#000000;fill-opacity:1;fill-rule:nonzero;stroke:none"
         x="0 7.0048828 18 28.995117 33.996094 38.99707"
         y="0"
         sodipodi:role="line"
         id="tspan26">run it</tspan></text>
    <text
       id="text27"
       xml:space="preserve"
       transform="matrix(0.95640895,0,0,0.95640895,428.51605,126.24598)"
       clip-path="url(#clipPath28)"><tspan
         style="font-variant:normal;font-weight:normal;font-size:18px;font-family:Helvetica;writing-mode:lr-tb;fill:#000000;fill-opacity:1;fill-rule:nonzero;stroke:none"
         x="0"
         y="0"
         id="tspan27">,</tspan></text>
    <text
       id="text28"
       xml:space="preserve"
       transform="matrix(0.95640895,0,0,0.95640895,274.42959,147.28698)"
       clip-path="url(#clipPath29)"><tspan
         style="font-variant:normal;font-weight:normal;font-size:18px;font-family:Helvetica;writing-mode:lr-tb;fill:#000000;fill-opacity:1;fill-rule:nonzero;stroke:none"
         x="0 10.010742 20.021484 30.032227 35.033203 39.032227 49.042969 54.043945 64.054688 69.055664 79.066406 89.077148 99.087891 109.09863 114.09961 119.10059 123.09961"
         y="0"
         sodipodi:role="line"
         id="tspan28">and info about it</tspan></text>
    <text
       id="text29"
       xml:space="preserve"
       transform="matrix(0.95640895,0,0,0.95640895,110.62962,206.58433)"
       clip-path="url(#clipPath30)"><tspan
         style="font-style:oblique;font-variant:normal;font-weight:normal;font-size:18px;font-family:Helvetica;writing-mode:lr-tb;fill:#000000;fill-opacity:1;fill-rule:nonzero;stroke:none"
         x="0 10.995117 21.005859 31.016602 40.016602 50.027344 55.02832 65.039062 71.033203 81.043945 86.044922 91.045898 101.05664 107.05078 112.05176 122.0625 132.07324 142.08398 151.08398 161.09473 176.08887 186.09961 192.09375 201.09375 205.09277 215.10352 225.11426 230.11523"
         y="0"
         sodipodi:role="line"
         id="tspan29">These are for benchmarking +</tspan></text>
    <text
       id="text30"
       xml:space="preserve"
       transform="matrix(0.95640895,0,0,0.95640895,101.28969,227.62533)"
       clip-path="url(#clipPath31)"><tspan
         style="font-style:oblique;font-variant:normal;font-weight:normal;font-size:18px;font-family:Helvetica;writing-mode:lr-tb;fill:#000000;fill-opacity:1;fill-rule:nonzero;stroke:none"
         x="0 10.010742 19.010742 29.021484 33.020508 43.03125 53.041992 58.042969 62.041992 72.052734 82.063477 87.064453 97.075195 107.08594 117.09668 123.09082 127.08984 137.10059 146.10059 151.10156 156.10254 166.11328 176.12402 181.125 186.12598 191.12695 201.1377 207.13184 212.13281 222.14355 231.14355 241.1543 246.15527 250.1543"
         y="0"
         sodipodi:role="line"
         id="tspan30">evaluating queries, not for use in</tspan></text>
    <text
       id="text31"
       xml:space="preserve"
       transform="matrix(0.95640895,0,0,0.95640895,159.67546,247.70992)"
       clip-path="url(#clipPath32)"><tspan
         style="font-style:oblique;font-variant:normal;font-weight:normal;font-size:18px;font-family:Helvetica;writing-mode:lr-tb;fill:#000000;fill-opacity:1;fill-rule:nonzero;stroke:none"
         x="0 5.9941406 16.004883 26.015625 30.014648 35.015625 45.026367 55.037109 60.038086 70.048828 75.049805 80.050781 90.061523 95.0625 104.0625 114.07324 118.07227 128.08301"
         y="0"
         sodipodi:role="line"
         id="tspan31">real data fetching</tspan></text>
  </g>
</svg>
