<?xml version="1.0" encoding="UTF-8" standalone="no"?>
<!-- Created with Inkscape (http://www.inkscape.org/) -->

<svg
   version="1.1"
   id="svg1"
   width="444.16"
   height="186.56"
   viewBox="0 0 444.16 186.56"
   sodipodi:docname="sql-5.pdf"
   xmlns:inkscape="http://www.inkscape.org/namespaces/inkscape"
   xmlns:sodipodi="http://sodipodi.sourceforge.net/DTD/sodipodi-0.dtd"
   xmlns="http://www.w3.org/2000/svg"
   xmlns:svg="http://www.w3.org/2000/svg">
  <defs
     id="defs1">
    <clipPath
       clipPathUnits="userSpaceOnUse"
       id="clipPath2">
      <path
         d="M 0,0 H 1387.5 V 583.10883 H 0 Z"
         transform="scale(0.33441443)"
         clip-rule="evenodd"
         id="path2" />
    </clipPath>
    <clipPath
       clipPathUnits="userSpaceOnUse"
       id="clipPath4">
      <path
         d="M 0,0 H 1387.5 V 580.11853 H 0 Z"
         transform="matrix(0.33441443,0,0,0.33441443,-0.50000001,-0.50000001)"
         clip-rule="evenodd"
         id="path4" />
    </clipPath>
    <clipPath
       clipPathUnits="userSpaceOnUse"
       id="clipPath5">
      <path
         d="M 0,0 H 1387.5 V 580.11853 H 0 Z"
         transform="matrix(0.33441107,0,0,0.33441107,-307.53125,-21.000001)"
         clip-rule="evenodd"
         id="path5" />
    </clipPath>
    <clipPath
       clipPathUnits="userSpaceOnUse"
       id="clipPath7">
      <path
         d="M 0,0 H 1387.5 V 580.11853 H 0 Z"
         transform="matrix(0.33441443,0,0,0.33441443,-0.50000001,-0.50000001)"
         clip-rule="evenodd"
         id="path7" />
    </clipPath>
    <clipPath
       clipPathUnits="userSpaceOnUse"
       id="clipPath9">
      <path
         d="M 0,0 H 1387.5 V 580.11853 H 0 Z"
         transform="matrix(0.33441443,0,0,0.33441443,-0.50000001,-0.50000001)"
         clip-rule="evenodd"
         id="path9" />
    </clipPath>
    <clipPath
       clipPathUnits="userSpaceOnUse"
       id="clipPath10">
      <path
         d="M 0,0 H 1387.5 V 580.11853 H 0 Z"
         transform="matrix(0.33441107,0,0,0.33441107,-310.98438,-55)"
         clip-rule="evenodd"
         id="path10" />
    </clipPath>
    <clipPath
       clipPathUnits="userSpaceOnUse"
       id="clipPath12">
      <path
         d="M 0,0 H 1387.5 V 580.11853 H 0 Z"
         transform="matrix(0.33441443,0,0,0.33441443,-0.50000001,-0.50000001)"
         clip-rule="evenodd"
         id="path12" />
    </clipPath>
    <clipPath
       clipPathUnits="userSpaceOnUse"
       id="clipPath13">
      <path
         d="M 0,0 H 1387.5 V 580.11853 H 0 Z"
         transform="matrix(0.33441107,0,0,0.33441107,-281.54688,-76)"
         clip-rule="evenodd"
         id="path13" />
    </clipPath>
    <clipPath
       clipPathUnits="userSpaceOnUse"
       id="clipPath15">
      <path
         d="M 0,0 H 1387.5 V 580.11853 H 0 Z"
         transform="matrix(0.33441443,0,0,0.33441443,-0.50000001,-0.50000001)"
         clip-rule="evenodd"
         id="path15" />
    </clipPath>
    <clipPath
       clipPathUnits="userSpaceOnUse"
       id="clipPath16">
      <path
         d="M 0,0 H 1387.5 V 580.11853 H 0 Z"
         transform="matrix(0.33441107,0,0,0.33441107,-259.32813,-116)"
         clip-rule="evenodd"
         id="path16" />
    </clipPath>
    <clipPath
       clipPathUnits="userSpaceOnUse"
       id="clipPath18">
      <path
         d="M 0,0 H 1387.5 V 580.11853 H 0 Z"
         transform="matrix(0.33441443,0,0,0.33441443,-0.50000001,-0.50000001)"
         clip-rule="evenodd"
         id="path18" />
    </clipPath>
    <clipPath
       clipPathUnits="userSpaceOnUse"
       id="clipPath19">
      <path
         d="M 0,0 H 1387.5 V 580.11853 H 0 Z"
         transform="matrix(0.33441107,0,0,0.33441107,-260.98438,-96)"
         clip-rule="evenodd"
         id="path19" />
    </clipPath>
    <clipPath
       clipPathUnits="userSpaceOnUse"
       id="clipPath21">
      <path
         d="M 0,0 H 1387.5 V 580.11853 H 0 Z"
         transform="matrix(0.33441443,0,0,0.33441443,-0.50000001,-0.50000001)"
         clip-rule="evenodd"
         id="path21" />
    </clipPath>
    <clipPath
       clipPathUnits="userSpaceOnUse"
       id="clipPath22">
      <path
         d="M 0,0 H 1387.5 V 580.11853 H 0 Z"
         transform="matrix(0.33441107,0,0,0.33441107,-268.21875,-156)"
         clip-rule="evenodd"
         id="path22" />
    </clipPath>
    <clipPath
       clipPathUnits="userSpaceOnUse"
       id="clipPath24">
      <path
         d="M 0,0 H 1387.5 V 580.11853 H 0 Z"
         transform="matrix(0.33441443,0,0,0.33441443,-0.50000001,-0.50000001)"
         clip-rule="evenodd"
         id="path24" />
    </clipPath>
    <clipPath
       clipPathUnits="userSpaceOnUse"
       id="clipPath25">
      <path
         d="M 0,0 H 1387.5 V 580.11853 H 0 Z"
         transform="matrix(0.33441107,0,0,0.33441107,-265.15626,-136)"
         clip-rule="evenodd"
         id="path25" />
    </clipPath>
    <clipPath
       clipPathUnits="userSpaceOnUse"
       id="clipPath27">
      <path
         d="M 0,0 H 1387.5 V 580.11853 H 0 Z"
         transform="matrix(0.33441443,0,0,0.33441443,-0.50000001,-0.50000001)"
         clip-rule="evenodd"
         id="path27" />
    </clipPath>
    <clipPath
       clipPathUnits="userSpaceOnUse"
       id="clipPath28">
      <path
         d="M 0,0 H 1387.5 V 580.11853 H 0 Z"
         transform="matrix(0.33441107,0,0,0.33441107,-268.20313,-176)"
         clip-rule="evenodd"
         id="path28" />
    </clipPath>
    <clipPath
       clipPathUnits="userSpaceOnUse"
       id="clipPath30">
      <path
         d="M 0,0 H 1387.5 V 580.11853 H 0 Z"
         transform="matrix(0.33441443,0,0,0.33441443,-0.50000001,-0.50000001)"
         clip-rule="evenodd"
         id="path30" />
    </clipPath>
    <clipPath
       clipPathUnits="userSpaceOnUse"
       id="clipPath31">
      <path
         d="M 0,0 H 1387.5 V 580.11853 H 0 Z"
         transform="matrix(0.33441107,0,0,0.33441107,-384.04688,-76)"
         clip-rule="evenodd"
         id="path31" />
    </clipPath>
    <clipPath
       clipPathUnits="userSpaceOnUse"
       id="clipPath33">
      <path
         d="M 0,0 H 1387.5 V 580.11853 H 0 Z"
         transform="matrix(0.33441443,0,0,0.33441443,-0.50000001,-0.50000001)"
         clip-rule="evenodd"
         id="path33" />
    </clipPath>
    <clipPath
       clipPathUnits="userSpaceOnUse"
       id="clipPath34">
      <path
         d="M 0,0 H 1387.5 V 580.11853 H 0 Z"
         transform="matrix(0.33441107,0,0,0.33441107,-372.9375,-116)"
         clip-rule="evenodd"
         id="path34" />
    </clipPath>
    <clipPath
       clipPathUnits="userSpaceOnUse"
       id="clipPath36">
      <path
         d="M 0,0 H 1387.5 V 580.11853 H 0 Z"
         transform="matrix(0.33441443,0,0,0.33441443,-0.50000001,-0.50000001)"
         clip-rule="evenodd"
         id="path36" />
    </clipPath>
    <clipPath
       clipPathUnits="userSpaceOnUse"
       id="clipPath37">
      <path
         d="M 0,0 H 1387.5 V 580.11853 H 0 Z"
         transform="matrix(0.33441107,0,0,0.33441107,-372.9375,-96)"
         clip-rule="evenodd"
         id="path37" />
    </clipPath>
    <clipPath
       clipPathUnits="userSpaceOnUse"
       id="clipPath39">
      <path
         d="M 0,0 H 1387.5 V 580.11853 H 0 Z"
         transform="matrix(0.33441443,0,0,0.33441443,-0.50000001,-0.50000001)"
         clip-rule="evenodd"
         id="path39" />
    </clipPath>
    <clipPath
       clipPathUnits="userSpaceOnUse"
       id="clipPath40">
      <path
         d="M 0,0 H 1387.5 V 580.11853 H 0 Z"
         transform="matrix(0.33441107,0,0,0.33441107,-362.07813,-156)"
         clip-rule="evenodd"
         id="path40" />
    </clipPath>
    <clipPath
       clipPathUnits="userSpaceOnUse"
       id="clipPath42">
      <path
         d="M 0,0 H 1387.5 V 580.11853 H 0 Z"
         transform="matrix(0.33441443,0,0,0.33441443,-0.50000001,-0.50000001)"
         clip-rule="evenodd"
         id="path42" />
    </clipPath>
    <clipPath
       clipPathUnits="userSpaceOnUse"
       id="clipPath43">
      <path
         d="M 0,0 H 1387.5 V 580.11853 H 0 Z"
         transform="matrix(0.33441107,0,0,0.33441107,-367.64063,-136)"
         clip-rule="evenodd"
         id="path43" />
    </clipPath>
    <clipPath
       clipPathUnits="userSpaceOnUse"
       id="clipPath45">
      <path
         d="M 0,0 H 1387.5 V 580.11853 H 0 Z"
         transform="matrix(0.33441443,0,0,0.33441443,-0.50000001,-0.50000001)"
         clip-rule="evenodd"
         id="path45" />
    </clipPath>
    <clipPath
       clipPathUnits="userSpaceOnUse"
       id="clipPath46">
      <path
         d="M 0,0 H 1387.5 V 580.11853 H 0 Z"
         transform="matrix(0.33441107,0,0,0.33441107,-362.07813,-176)"
         clip-rule="evenodd"
         id="path46" />
    </clipPath>
    <clipPath
       clipPathUnits="userSpaceOnUse"
       id="clipPath48">
      <path
         d="M 0,0 H 1387.5 V 580.11853 H 0 Z"
         transform="matrix(0.33441443,0,0,0.33441443,-0.50000001,-0.50000001)"
         clip-rule="evenodd"
         id="path48" />
    </clipPath>
    <clipPath
       clipPathUnits="userSpaceOnUse"
       id="clipPath50">
      <path
         d="M 0,0 H 1387.5 V 580.11853 H 0 Z"
         transform="matrix(0.33441443,0,0,0.33441443,-0.50000001,-0.50000001)"
         clip-rule="evenodd"
         id="path50" />
    </clipPath>
    <clipPath
       clipPathUnits="userSpaceOnUse"
       id="clipPath52">
      <path
         d="M 0,0 H 1387.5 V 580.11853 H 0 Z"
         transform="matrix(0.33441443,0,0,0.33441443,-0.50000001,-0.50000001)"
         clip-rule="evenodd"
         id="path52" />
    </clipPath>
    <clipPath
       clipPathUnits="userSpaceOnUse"
       id="clipPath53">
      <path
         d="M 0,0 H 1387.5 V 580.11853 H 0 Z"
         transform="matrix(0.33441107,0,0,0.33441107,-12.1875,-107)"
         clip-rule="evenodd"
         id="path53" />
    </clipPath>
    <clipPath
       clipPathUnits="userSpaceOnUse"
       id="clipPath54">
      <path
         d="M 0,0 H 1387.5 V 580.11853 H 0 Z"
         transform="matrix(0.33441107,0,0,0.33441107,-44.640625,-126.00001)"
         clip-rule="evenodd"
         id="path54" />
    </clipPath>
    <clipPath
       clipPathUnits="userSpaceOnUse"
       id="clipPath55">
      <path
         d="M 0,0 H 1387.5 V 580.11853 H 0 Z"
         transform="matrix(0.33441107,0,0,0.33441107,-27.296875,-146)"
         clip-rule="evenodd"
         id="path55" />
    </clipPath>
    <clipPath
       clipPathUnits="userSpaceOnUse"
       id="clipPath56">
      <path
         d="M 0,0 H 1387.5 V 580.11853 H 0 Z"
         transform="matrix(0.33441107,0,0,0.33441107,-29.125,-165)"
         clip-rule="evenodd"
         id="path56" />
    </clipPath>
  </defs>
  <sodipodi:namedview
     id="namedview1"
     pagecolor="#ffffff"
     bordercolor="#000000"
     borderopacity="0.25"
     inkscape:showpageshadow="2"
     inkscape:pageopacity="0.0"
     inkscape:pagecheckerboard="0"
     inkscape:deskcolor="#d1d1d1">
    <inkscape:page
       x="0"
       y="0"
       inkscape:label="1"
       id="page1"
       width="444.16"
       height="186.56"
       margin="0"
       bleed="0" />
  </sodipodi:namedview>
  <g
     id="g1"
     inkscape:groupmode="layer"
     inkscape:label="1">
    <path
       id="path1"
       d="M 0,0 H 464 V 195 H 0 Z"
       style="fill:#ffffff;fill-opacity:1;fill-rule:nonzero;stroke:none"
       transform="scale(0.95689647)"
       clip-path="url(#clipPath2)" />
    <path
       id="path3"
       d="M 221,1 H 461 V 31 H 221 Z"
       style="fill:#d5e8d4;fill-opacity:1;fill-rule:nonzero;stroke:#82b366;stroke-width:1;stroke-linecap:butt;stroke-linejoin:miter;stroke-miterlimit:10;stroke-dasharray:none;stroke-opacity:1"
       transform="matrix(0.95689647,0,0,0.95689647,0.47844824,0.47844824)"
       clip-path="url(#clipPath4)" />
    <text
       id="text4"
       xml:space="preserve"
       transform="matrix(0.95690607,0,0,0.95690607,294.27852,20.095028)"
       clip-path="url(#clipPath5)"><tspan
         style="font-variant:normal;font-weight:700;font-size:14px;font-family:Helvetica;writing-mode:lr-tb;fill:#000000;fill-opacity:1;fill-rule:nonzero;stroke:none"
         x="0 3.8896484 12.441406 20.227539 24.889648 32.675781 41.227539 46.675781 54.461914"
         y="0"
         sodipodi:role="line"
         id="tspan4">Instagram</tspan></text>
    <path
       id="path6"
       d="M 221,31 H 461 V 191 H 221 Z"
       style="fill:#d5e8d4;fill-opacity:1;fill-rule:nonzero;stroke:#82b366;stroke-width:1;stroke-linecap:butt;stroke-linejoin:miter;stroke-miterlimit:10;stroke-dasharray:none;stroke-opacity:1"
       transform="matrix(0.95689647,0,0,0.95689647,0.47844824,0.47844824)"
       clip-path="url(#clipPath7)" />
    <path
       id="path8"
       d="M 231,41 H 451 V 61 H 231 Z"
       style="fill:#ffe6cc;fill-opacity:1;fill-rule:nonzero;stroke:#d79b00;stroke-width:1;stroke-linecap:butt;stroke-linejoin:miter;stroke-miterlimit:10;stroke-dasharray:none;stroke-opacity:1"
       transform="matrix(0.95689647,0,0,0.95689647,0.47844824,0.47844824)"
       clip-path="url(#clipPath9)" />
    <text
       id="text9"
       xml:space="preserve"
       transform="matrix(0.95690607,0,0,0.95690607,297.58284,52.629834)"
       clip-path="url(#clipPath10)"><tspan
         style="font-variant:normal;font-weight:700;font-size:12px;font-family:Helvetica;writing-mode:lr-tb;fill:#000000;fill-opacity:1;fill-rule:nonzero;stroke:none"
         x="0 6.6738281 14.003906 24.673828 35.34375 42.017578 49.347656 53.34375"
         y="0"
         sodipodi:role="line"
         id="tspan9">comments</tspan></text>
    <path
       id="path11"
       d="M 231,61 H 341 V 81 H 231 Z"
       style="fill:#f5f5f5;fill-opacity:1;fill-rule:nonzero;stroke:#666666;stroke-width:1;stroke-linecap:butt;stroke-linejoin:miter;stroke-miterlimit:10;stroke-dasharray:none;stroke-opacity:1"
       transform="matrix(0.95689647,0,0,0.95689647,0.47844824,0.47844824)"
       clip-path="url(#clipPath12)" />
    <text
       id="text12"
       xml:space="preserve"
       transform="matrix(0.95690607,0,0,0.95690607,269.41392,72.724861)"
       clip-path="url(#clipPath13)"><tspan
         style="font-style:oblique;font-variant:normal;font-weight:700;font-size:10px;font-family:Helvetica;writing-mode:lr-tb;fill:#333333;fill-opacity:1;fill-rule:nonzero;stroke:none"
         x="0 2.7783203"
         y="0"
         sodipodi:role="line"
         id="tspan12">id</tspan></text>
    <path
       id="path14"
       d="m 231,101 h 110 v 20 H 231 Z"
       style="fill:#f5f5f5;fill-opacity:1;fill-rule:nonzero;stroke:#666666;stroke-width:1;stroke-linecap:butt;stroke-linejoin:miter;stroke-miterlimit:10;stroke-dasharray:none;stroke-opacity:1"
       transform="matrix(0.95689647,0,0,0.95689647,0.47844824,0.47844824)"
       clip-path="url(#clipPath15)" />
    <text
       id="text15"
       xml:space="preserve"
       transform="matrix(0.95690607,0,0,0.95690607,248.15266,111.0011)"
       clip-path="url(#clipPath16)"><tspan
         style="font-style:oblique;font-variant:normal;font-weight:700;font-size:10px;font-family:Helvetica;writing-mode:lr-tb;fill:#333333;fill-opacity:1;fill-rule:nonzero;stroke:none"
         x="0 6.1083984 12.216797 18.325195 23.886719 27.216797 32.77832 38.886719 44.448242 50.009766"
         y="0"
         sodipodi:role="line"
         id="tspan15">updated_at</tspan></text>
    <path
       id="path17"
       d="m 231,81 h 110 v 20 H 231 Z"
       style="fill:#f5f5f5;fill-opacity:1;fill-rule:nonzero;stroke:#666666;stroke-width:1;stroke-linecap:butt;stroke-linejoin:miter;stroke-miterlimit:10;stroke-dasharray:none;stroke-opacity:1"
       transform="matrix(0.95689647,0,0,0.95689647,0.47844824,0.47844824)"
       clip-path="url(#clipPath18)" />
    <text
       id="text18"
       xml:space="preserve"
       transform="matrix(0.95690607,0,0,0.95690607,249.73754,91.862983)"
       clip-path="url(#clipPath19)"><tspan
         style="font-style:oblique;font-variant:normal;font-weight:700;font-size:10px;font-family:Helvetica;writing-mode:lr-tb;fill:#333333;fill-opacity:1;fill-rule:nonzero;stroke:none"
         x="0 5.5615234 9.453125 15.014648 20.576172 23.90625 29.467773 35.576172 41.137695 46.699219"
         y="0"
         sodipodi:role="line"
         id="tspan18">created_at</tspan></text>
    <path
       id="path20"
       d="m 231,141 h 110 v 20 H 231 Z"
       style="fill:#f5f5f5;fill-opacity:1;fill-rule:nonzero;stroke:#666666;stroke-width:1;stroke-linecap:butt;stroke-linejoin:miter;stroke-miterlimit:10;stroke-dasharray:none;stroke-opacity:1"
       transform="matrix(0.95689647,0,0,0.95689647,0.47844824,0.47844824)"
       clip-path="url(#clipPath21)" />
    <text
       id="text21"
       xml:space="preserve"
       transform="matrix(0.95690607,0,0,0.95690607,256.66015,149.27735)"
       clip-path="url(#clipPath22)"><tspan
         style="font-style:oblique;font-variant:normal;font-weight:700;font-size:10px;font-family:Helvetica;writing-mode:lr-tb;fill:#333333;fill-opacity:1;fill-rule:nonzero;stroke:none"
         x="0 6.1083984 12.216797 17.77832 21.108398 26.669922 29.448242"
         y="0"
         sodipodi:role="line"
         id="tspan21">post_id</tspan></text>
    <path
       id="path23"
       d="m 231,121 h 110 v 20 H 231 Z"
       style="fill:#f5f5f5;fill-opacity:1;fill-rule:nonzero;stroke:#666666;stroke-width:1;stroke-linecap:butt;stroke-linejoin:miter;stroke-miterlimit:10;stroke-dasharray:none;stroke-opacity:1"
       transform="matrix(0.95689647,0,0,0.95689647,0.47844824,0.47844824)"
       clip-path="url(#clipPath24)" />
    <text
       id="text24"
       xml:space="preserve"
       transform="matrix(0.95690607,0,0,0.95690607,253.72963,130.13923)"
       clip-path="url(#clipPath25)"><tspan
         style="font-style:oblique;font-variant:normal;font-weight:700;font-size:10px;font-family:Helvetica;writing-mode:lr-tb;fill:#333333;fill-opacity:1;fill-rule:nonzero;stroke:none"
         x="0 5.5615234 11.669922 17.77832 21.108398 26.669922 32.77832 36.108398"
         y="0"
         sodipodi:role="line"
         id="tspan24">contents</tspan></text>
    <path
       id="path26"
       d="m 231,161 h 110 v 20 H 231 Z"
       style="fill:#f5f5f5;fill-opacity:1;fill-rule:nonzero;stroke:#666666;stroke-width:1;stroke-linecap:butt;stroke-linejoin:miter;stroke-miterlimit:10;stroke-dasharray:none;stroke-opacity:1"
       transform="matrix(0.95689647,0,0,0.95689647,0.47844824,0.47844824)"
       clip-path="url(#clipPath27)" />
    <text
       id="text27"
       xml:space="preserve"
       transform="matrix(0.95690607,0,0,0.95690607,256.6452,168.41547)"
       clip-path="url(#clipPath28)"><tspan
         style="font-style:oblique;font-variant:normal;font-weight:700;font-size:10px;font-family:Helvetica;writing-mode:lr-tb;fill:#333333;fill-opacity:1;fill-rule:nonzero;stroke:none"
         x="0 6.1083984 11.669922 17.231445 21.123047 26.68457 29.462891"
         y="0"
         sodipodi:role="line"
         id="tspan27">user_id</tspan></text>
    <path
       id="path29"
       d="M 341,61 H 451 V 81 H 341 Z"
       style="fill:#f5f5f5;fill-opacity:1;fill-rule:nonzero;stroke:#666666;stroke-width:1;stroke-linecap:butt;stroke-linejoin:miter;stroke-miterlimit:10;stroke-dasharray:none;stroke-opacity:1"
       transform="matrix(0.95689647,0,0,0.95689647,0.47844824,0.47844824)"
       clip-path="url(#clipPath30)" />
    <text
       id="text30"
       xml:space="preserve"
       transform="matrix(0.95690607,0,0,0.95690607,367.49679,72.724861)"
       clip-path="url(#clipPath31)"><tspan
         style="font-variant:normal;font-weight:normal;font-size:10px;font-family:Helvetica;writing-mode:lr-tb;fill:#333333;fill-opacity:1;fill-rule:nonzero;stroke:none"
         x="0 5 10.561523 13.891602 16.113281 21.674805"
         y="0"
         sodipodi:role="line"
         id="tspan30">serial</tspan></text>
    <path
       id="path32"
       d="m 341,101 h 110 v 20 H 341 Z"
       style="fill:#f5f5f5;fill-opacity:1;fill-rule:nonzero;stroke:#666666;stroke-width:1;stroke-linecap:butt;stroke-linejoin:miter;stroke-miterlimit:10;stroke-dasharray:none;stroke-opacity:1"
       transform="matrix(0.95689647,0,0,0.95689647,0.47844824,0.47844824)"
       clip-path="url(#clipPath33)" />
    <text
       id="text33"
       xml:space="preserve"
       transform="matrix(0.95690607,0,0,0.95690607,356.86616,111.0011)"
       clip-path="url(#clipPath34)"><tspan
         style="font-variant:normal;font-weight:normal;font-size:10px;font-family:Helvetica;writing-mode:lr-tb;fill:#333333;fill-opacity:1;fill-rule:nonzero;stroke:none"
         x="0 2.7783203 5 13.330078 18.891602 23.891602 26.669922 32.231445 40.561523"
         y="0"
         sodipodi:role="line"
         id="tspan33">timestamp</tspan></text>
    <path
       id="path35"
       d="m 341,81 h 110 v 20 H 341 Z"
       style="fill:#f5f5f5;fill-opacity:1;fill-rule:nonzero;stroke:#666666;stroke-width:1;stroke-linecap:butt;stroke-linejoin:miter;stroke-miterlimit:10;stroke-dasharray:none;stroke-opacity:1"
       transform="matrix(0.95689647,0,0,0.95689647,0.47844824,0.47844824)"
       clip-path="url(#clipPath36)" />
    <text
       id="text36"
       xml:space="preserve"
       transform="matrix(0.95690607,0,0,0.95690607,356.86616,91.862983)"
       clip-path="url(#clipPath37)"><tspan
         style="font-variant:normal;font-weight:normal;font-size:10px;font-family:Helvetica;writing-mode:lr-tb;fill:#333333;fill-opacity:1;fill-rule:nonzero;stroke:none"
         x="0 2.7783203 5 13.330078 18.891602 23.891602 26.669922 32.231445 40.561523"
         y="0"
         sodipodi:role="line"
         id="tspan36">timestamp</tspan></text>
    <path
       id="path38"
       d="m 341,141 h 110 v 20 H 341 Z"
       style="fill:#f5f5f5;fill-opacity:1;fill-rule:nonzero;stroke:#666666;stroke-width:1;stroke-linecap:butt;stroke-linejoin:miter;stroke-miterlimit:10;stroke-dasharray:none;stroke-opacity:1"
       transform="matrix(0.95689647,0,0,0.95689647,0.47844824,0.47844824)"
       clip-path="url(#clipPath39)" />
    <text
       id="text39"
       xml:space="preserve"
       transform="matrix(0.95690607,0,0,0.95690607,346.47476,149.27735)"
       clip-path="url(#clipPath40)"><tspan
         style="font-variant:normal;font-weight:normal;font-size:10px;font-family:Helvetica;writing-mode:lr-tb;fill:#333333;fill-opacity:1;fill-rule:nonzero;stroke:none"
         x="0 2.2216797 7.7832031 10.561523 16.123047 21.68457 27.246094 30.029297 32.807617 35.585938 41.147461 46.708984 49.487305 52.265625 57.827148 63.388672 65.610352"
         y="0"
         sodipodi:role="line"
         id="tspan39">integer, not null</tspan></text>
    <path
       id="path41"
       d="m 341,121 h 110 v 20 H 341 Z"
       style="fill:#f5f5f5;fill-opacity:1;fill-rule:nonzero;stroke:#666666;stroke-width:1;stroke-linecap:butt;stroke-linejoin:miter;stroke-miterlimit:10;stroke-dasharray:none;stroke-opacity:1"
       transform="matrix(0.95689647,0,0,0.95689647,0.47844824,0.47844824)"
       clip-path="url(#clipPath42)" />
    <text
       id="text42"
       xml:space="preserve"
       transform="matrix(0.95690607,0,0,0.95690607,351.79755,130.13923)"
       clip-path="url(#clipPath43)"><tspan
         style="font-variant:normal;font-weight:normal;font-size:10px;font-family:Helvetica;writing-mode:lr-tb;fill:#333333;fill-opacity:1;fill-rule:nonzero;stroke:none"
         x="0 5 10.561523 13.891602 18.891602 24.453125 30.014648 33.344727 36.674805 42.236328 47.797852 53.359375"
         y="0"
         sodipodi:role="line"
         id="tspan42">varchar(240)</tspan></text>
    <path
       id="path44"
       d="m 341,161 h 110 v 20 H 341 Z"
       style="fill:#f5f5f5;fill-opacity:1;fill-rule:nonzero;stroke:#666666;stroke-width:1;stroke-linecap:butt;stroke-linejoin:miter;stroke-miterlimit:10;stroke-dasharray:none;stroke-opacity:1"
       transform="matrix(0.95689647,0,0,0.95689647,0.47844824,0.47844824)"
       clip-path="url(#clipPath45)" />
    <text
       id="text45"
       xml:space="preserve"
       transform="matrix(0.95690607,0,0,0.95690607,346.47476,168.41547)"
       clip-path="url(#clipPath46)"><tspan
         style="font-variant:normal;font-weight:normal;font-size:10px;font-family:Helvetica;writing-mode:lr-tb;fill:#333333;fill-opacity:1;fill-rule:nonzero;stroke:none"
         x="0 2.2216797 7.7832031 10.561523 16.123047 21.68457 27.246094 30.029297 32.807617 35.585938 41.147461 46.708984 49.487305 52.265625 57.827148 63.388672 65.610352"
         y="0"
         sodipodi:role="line"
         id="tspan45">integer, not null</tspan></text>
    <path
       id="path47"
       d="m 171,131 h 53.63"
       style="fill:none;stroke:#000000;stroke-width:1;stroke-linecap:butt;stroke-linejoin:miter;stroke-miterlimit:10;stroke-dasharray:none;stroke-opacity:1"
       transform="matrix(0.95689647,0,0,0.95689647,0.47844824,0.47844824)"
       clip-path="url(#clipPath48)" />
    <path
       id="path49"
       d="m 229.88,131 -7,3.5 1.75,-3.5 -1.75,-3.5 z"
       style="fill:#000000;fill-opacity:1;fill-rule:nonzero;stroke:#000000;stroke-width:1;stroke-linecap:butt;stroke-linejoin:miter;stroke-miterlimit:10;stroke-dasharray:none;stroke-opacity:1"
       transform="matrix(0.95689647,0,0,0.95689647,0.47844824,0.47844824)"
       clip-path="url(#clipPath50)" />
    <path
       id="path51"
       d="m 1,91 h 170 v 80 H 1 Z"
       style="fill:#f8cecc;fill-opacity:1;fill-rule:nonzero;stroke:#b85450;stroke-width:1;stroke-linecap:butt;stroke-linejoin:miter;stroke-miterlimit:10;stroke-dasharray:none;stroke-opacity:1"
       transform="matrix(0.95689647,0,0,0.95689647,0.47844824,0.47844824)"
       clip-path="url(#clipPath52)" />
    <text
       id="text52"
       xml:space="preserve"
       transform="matrix(0.95690607,0,0,0.95690607,11.662293,102.38895)"
       clip-path="url(#clipPath53)"><tspan
         style="font-variant:normal;font-weight:normal;font-size:16px;font-family:Helvetica;writing-mode:lr-tb;fill:#000000;fill-opacity:1;fill-rule:nonzero;stroke:none"
         x="0 9.7734375 18.671875 27.570312 36.46875 45.367188 54.265625 62.265625 70.265625 74.710938 79.15625 84.484375 93.382812 106.71094 111.15625 120.05469 124.5 133.39844 142.29688"
         y="0"
         sodipodi:role="line"
         id="tspan52">Feedback from other</tspan></text>
    <text
       id="text53"
       xml:space="preserve"
       transform="matrix(0.95690607,0,0,0.95690607,42.716885,120.57017)"
       clip-path="url(#clipPath54)"><tspan
         style="font-variant:normal;font-weight:normal;font-size:16px;font-family:Helvetica;writing-mode:lr-tb;fill:#000000;fill-opacity:1;fill-rule:nonzero;stroke:none"
         x="0 8.8984375 17.796875 25.796875 34.695312 38.25 47.148438 56.046875 64.945312 70.273438 78.273438"
         y="0"
         sodipodi:role="line"
         id="tspan53">developers:</tspan></text>
    <text
       id="text54"
       xml:space="preserve"
       transform="matrix(0.95690607,0,0,0.95690607,26.120545,139.70829)"
       clip-path="url(#clipPath55)"><tspan
         style="font-variant:normal;font-weight:normal;font-size:16px;font-family:Helvetica;writing-mode:lr-tb;fill:#000000;fill-opacity:1;fill-rule:nonzero;stroke:none"
         x="0 11.554688 20.453125 24.007812 32.90625 46.234375 55.132812 59.578125 68.476562 77.375 90.703125 99.601562 104.04688 112.94531"
         y="0"
         sodipodi:role="line"
         id="tspan54">Column name of</tspan></text>
    <text
       id="text55"
       xml:space="preserve"
       transform="matrix(0.95690607,0,0,0.95690607,27.869889,157.8895)"
       clip-path="url(#clipPath56)"><tspan
         style="font-variant:normal;font-weight:normal;font-size:16px;font-family:Helvetica;writing-mode:lr-tb;fill:#000000;fill-opacity:1;fill-rule:nonzero;stroke:none"
         x="0 3.0546875 11.054688 19.953125 28.851562 33.296875 42.195312 51.09375 55.539062 63.539062 66.59375 71.039062 74.59375 82.59375 87.039062 95.9375 104.83594"
         y="0"
         sodipodi:role="line"
         id="tspan55">'contents' is bad</tspan></text>
  </g>
</svg>
