<?xml version="1.0" encoding="UTF-8" standalone="no"?>
<!-- Created with Inkscape (http://www.inkscape.org/) -->

<svg
   version="1.1"
   id="svg1"
   width="434.55997"
   height="330.56"
   viewBox="0 0 434.55997 330.56"
   sodipodi:docname="sql-14.pdf"
   xmlns:inkscape="http://www.inkscape.org/namespaces/inkscape"
   xmlns:sodipodi="http://sodipodi.sourceforge.net/DTD/sodipodi-0.dtd"
   xmlns="http://www.w3.org/2000/svg"
   xmlns:svg="http://www.w3.org/2000/svg">
  <defs
     id="defs1">
    <clipPath
       clipPathUnits="userSpaceOnUse"
       id="clipPath2">
      <path
         d="M 0,0 H 1358.3333 V 1032.2136 H 0 Z"
         transform="scale(0.33423313)"
         clip-rule="evenodd"
         id="path2" />
    </clipPath>
    <clipPath
       clipPathUnits="userSpaceOnUse"
       id="clipPath4">
      <path
         d="M 0,0 H 1358.3333 V 1029.2217 H 0 Z"
         transform="matrix(0.33423313,0,0,0.33423313,-0.49999999,-0.49999999)"
         clip-rule="evenodd"
         id="path4" />
    </clipPath>
    <clipPath
       clipPathUnits="userSpaceOnUse"
       id="clipPath6">
      <path
         d="M 0,0 H 1358.3333 V 1029.2217 H 0 Z"
         transform="matrix(0.33423313,0,0,0.33423313,-0.49999999,-0.49999999)"
         clip-rule="evenodd"
         id="path6" />
    </clipPath>
    <clipPath
       clipPathUnits="userSpaceOnUse"
       id="clipPath8">
      <path
         d="M 0,0 H 1358.3333 V 1029.2217 H 0 Z"
         transform="matrix(0.33423313,0,0,0.33423313,-0.49999999,-0.49999999)"
         clip-rule="evenodd"
         id="path8" />
    </clipPath>
    <clipPath
       clipPathUnits="userSpaceOnUse"
       id="clipPath9">
      <path
         d="M 0,0 H 1358.3333 V 1029.2217 H 0 Z"
         transform="matrix(0.33422978,0,0,0.33422978,-36.703126,-38)"
         clip-rule="evenodd"
         id="path9" />
    </clipPath>
    <clipPath
       clipPathUnits="userSpaceOnUse"
       id="clipPath11">
      <path
         d="M 0,0 H 1358.3333 V 1029.2217 H 0 Z"
         transform="matrix(0.33423313,0,0,0.33423313,-0.49999999,-0.49999999)"
         clip-rule="evenodd"
         id="path11" />
    </clipPath>
    <clipPath
       clipPathUnits="userSpaceOnUse"
       id="clipPath13">
      <path
         d="M 0,0 H 1358.3333 V 1029.2217 H 0 Z"
         transform="matrix(0.33423313,0,0,0.33423313,-0.49999999,-0.49999999)"
         clip-rule="evenodd"
         id="path13" />
    </clipPath>
    <clipPath
       clipPathUnits="userSpaceOnUse"
       id="clipPath15">
      <path
         d="M 0,0 H 1358.3333 V 1029.2217 H 0 Z"
         transform="matrix(0.33423313,0,0,0.33423313,-0.49999999,-0.49999999)"
         clip-rule="evenodd"
         id="path15" />
    </clipPath>
    <clipPath
       clipPathUnits="userSpaceOnUse"
       id="clipPath16">
      <path
         d="M 0,0 H 1358.3333 V 1029.2217 H 0 Z"
         transform="matrix(0.33422978,0,0,0.33422978,-8.890625,-112)"
         clip-rule="evenodd"
         id="path16" />
    </clipPath>
    <clipPath
       clipPathUnits="userSpaceOnUse"
       id="clipPath17">
      <path
         d="M 0,0 H 1358.3333 V 1029.2217 H 0 Z"
         transform="matrix(0.33422978,0,0,0.33422978,-7.3437501,-134.00001)"
         clip-rule="evenodd"
         id="path17" />
    </clipPath>
    <clipPath
       clipPathUnits="userSpaceOnUse"
       id="clipPath18">
      <path
         d="M 0,0 H 1358.3333 V 1029.2217 H 0 Z"
         transform="matrix(0.33422978,0,0,0.33422978,-51.390625,-134.00001)"
         clip-rule="evenodd"
         id="path18" />
    </clipPath>
    <clipPath
       clipPathUnits="userSpaceOnUse"
       id="clipPath19">
      <path
         d="M 0,0 H 1358.3333 V 1029.2217 H 0 Z"
         transform="matrix(0.33422978,0,0,0.33422978,-83.40625,-134.00001)"
         clip-rule="evenodd"
         id="path19" />
    </clipPath>
    <clipPath
       clipPathUnits="userSpaceOnUse"
       id="clipPath20">
      <path
         d="M 0,0 H 1358.3333 V 1029.2217 H 0 Z"
         transform="matrix(0.33422978,0,0,0.33422978,-88.421876,-134.00001)"
         clip-rule="evenodd"
         id="path20" />
    </clipPath>
    <clipPath
       clipPathUnits="userSpaceOnUse"
       id="clipPath22">
      <path
         d="M 0,0 H 1358.3333 V 1029.2217 H 0 Z"
         transform="matrix(0.33423313,0,0,0.33423313,-0.49999999,-0.49999999)"
         clip-rule="evenodd"
         id="path22" />
    </clipPath>
    <clipPath
       clipPathUnits="userSpaceOnUse"
       id="clipPath24">
      <path
         d="M 0,0 H 1358.3333 V 1029.2217 H 0 Z"
         transform="matrix(0.33423313,0,0,0.33423313,-0.49999999,-0.49999999)"
         clip-rule="evenodd"
         id="path24" />
    </clipPath>
    <clipPath
       clipPathUnits="userSpaceOnUse"
       id="clipPath26">
      <path
         d="M 0,0 H 1358.3333 V 1029.2217 H 0 Z"
         transform="matrix(0.33423313,0,0,0.33423313,-0.49999999,-0.49999999)"
         clip-rule="evenodd"
         id="path26" />
    </clipPath>
    <clipPath
       clipPathUnits="userSpaceOnUse"
       id="clipPath27">
      <path
         d="M 0,0 H 1358.3333 V 1029.2217 H 0 Z"
         transform="matrix(0.33422978,0,0,0.33422978,-30.859376,-207)"
         clip-rule="evenodd"
         id="path27" />
    </clipPath>
    <clipPath
       clipPathUnits="userSpaceOnUse"
       id="clipPath28">
      <path
         d="M 0,0 H 1358.3333 V 1029.2217 H 0 Z"
         transform="matrix(0.33422978,0,0,0.33422978,-78.890625,-207)"
         clip-rule="evenodd"
         id="path28" />
    </clipPath>
    <clipPath
       clipPathUnits="userSpaceOnUse"
       id="clipPath29">
      <path
         d="M 0,0 H 1358.3333 V 1029.2217 H 0 Z"
         transform="matrix(0.33422978,0,0,0.33422978,-157.9375,-229)"
         clip-rule="evenodd"
         id="path29" />
    </clipPath>
    <clipPath
       clipPathUnits="userSpaceOnUse"
       id="clipPath31">
      <path
         d="M 0,0 H 1358.3333 V 1029.2217 H 0 Z"
         transform="matrix(0.33423313,0,0,0.33423313,-0.49999999,-0.49999999)"
         clip-rule="evenodd"
         id="path31" />
    </clipPath>
    <clipPath
       clipPathUnits="userSpaceOnUse"
       id="clipPath32">
      <path
         d="M 0,0 H 1358.3333 V 1029.2217 H 0 Z"
         transform="matrix(0.33422978,0,0,0.33422978,-16.8125,-302)"
         clip-rule="evenodd"
         id="path32" />
    </clipPath>
    <clipPath
       clipPathUnits="userSpaceOnUse"
       id="clipPath33">
      <path
         d="M 0,0 H 1358.3333 V 1029.2217 H 0 Z"
         transform="matrix(0.33422978,0,0,0.33422978,-289.32813,-302)"
         clip-rule="evenodd"
         id="path33" />
    </clipPath>
    <clipPath
       clipPathUnits="userSpaceOnUse"
       id="clipPath34">
      <path
         d="M 0,0 H 1358.3333 V 1029.2217 H 0 Z"
         transform="matrix(0.33422978,0,0,0.33422978,-369.25098,-302)"
         clip-rule="evenodd"
         id="path34" />
    </clipPath>
    <clipPath
       clipPathUnits="userSpaceOnUse"
       id="clipPath35">
      <path
         d="M 0,0 H 1358.3333 V 1029.2217 H 0 Z"
         transform="matrix(0.33422978,0,0,0.33422978,-389.26563,-302)"
         clip-rule="evenodd"
         id="path35" />
    </clipPath>
    <clipPath
       clipPathUnits="userSpaceOnUse"
       id="clipPath36">
      <path
         d="M 0,0 H 1358.3333 V 1029.2217 H 0 Z"
         transform="matrix(0.33422978,0,0,0.33422978,-75.390626,-324)"
         clip-rule="evenodd"
         id="path36" />
    </clipPath>
  </defs>
  <sodipodi:namedview
     id="namedview1"
     pagecolor="#ffffff"
     bordercolor="#000000"
     borderopacity="0.25"
     inkscape:showpageshadow="2"
     inkscape:pageopacity="0.0"
     inkscape:pagecheckerboard="0"
     inkscape:deskcolor="#d1d1d1">
    <inkscape:page
       x="0"
       y="0"
       inkscape:label="1"
       id="page1"
       width="434.55997"
       height="330.56"
       margin="0"
       bleed="0" />
  </sodipodi:namedview>
  <g
     id="g1"
     inkscape:groupmode="layer"
     inkscape:label="1">
    <path
       id="path1"
       d="M 0,0 H 454 V 345 H 0 Z"
       style="fill:#ffffff;fill-opacity:1;fill-rule:nonzero;stroke:none"
       transform="scale(0.95741551)"
       clip-path="url(#clipPath2)" />
    <path
       id="path3"
       d="M 226,61 V 81 61 74.629997"
       style="fill:none;stroke:#000000;stroke-width:1;stroke-linecap:butt;stroke-linejoin:miter;stroke-miterlimit:10;stroke-dasharray:none;stroke-opacity:1"
       transform="matrix(0.95741551,0,0,0.95741551,0.47870775,0.47870775)"
       clip-path="url(#clipPath4)" />
    <path
       id="path5"
       d="m 226,79.879997 -3.5,-7 3.5,1.75 3.5,-1.75 z"
       style="fill:#000000;fill-opacity:1;fill-rule:nonzero;stroke:#000000;stroke-width:1;stroke-linecap:butt;stroke-linejoin:miter;stroke-miterlimit:10;stroke-dasharray:none;stroke-opacity:1"
       transform="matrix(0.95741551,0,0,0.95741551,0.47870775,0.47870775)"
       clip-path="url(#clipPath6)" />
    <path
       id="path7"
       d="M 1,1 H 451 V 61 H 1 Z"
       style="fill:#dae8fc;fill-opacity:1;fill-rule:nonzero;stroke:#6c8ebf;stroke-width:1;stroke-linecap:butt;stroke-linejoin:miter;stroke-miterlimit:10;stroke-dasharray:none;stroke-opacity:1"
       transform="matrix(0.95741551,0,0,0.95741551,0.47870775,0.47870775)"
       clip-path="url(#clipPath8)" />
    <text
       id="text8"
       xml:space="preserve"
       transform="matrix(0.95742511,0,0,0.95742511,35.140494,36.382154)"
       clip-path="url(#clipPath9)"><tspan
         style="font-variant:normal;font-weight:normal;font-size:18px;font-family:Helvetica;writing-mode:lr-tb;fill:#000000;fill-opacity:1;fill-rule:nonzero;stroke:none"
         x="0 10.353516 20.364258 30.375 36.369141 41.370117 56.364258 66.375 76.385742 86.396484 96.407227 106.41797 112.41211 117.41309 121.41211 130.41211 135.41309 140.41406 150.4248 156.41895 160.41797 170.42871 180.43945 189.43945 194.44043 199.44141 209.45215 219.46289 224.46387 229.46484 238.46484 248.47559 258.48633 263.4873 273.49805 279.49219 289.50293 298.50293 308.51367 313.51465 318.51562 328.52637 338.53711 343.53809 353.54883 363.55957 373.57031"
         y="0"
         sodipodi:role="line"
         id="tspan8">Your manager is furious that you broke the app!</tspan></text>
    <path
       id="path10"
       d="m 226,151 v 20 -15 13.63"
       style="fill:none;stroke:#000000;stroke-width:1;stroke-linecap:butt;stroke-linejoin:miter;stroke-miterlimit:10;stroke-dasharray:none;stroke-opacity:1"
       transform="matrix(0.95741551,0,0,0.95741551,0.47870775,0.47870775)"
       clip-path="url(#clipPath11)" />
    <path
       id="path12"
       d="m 226,174.88 -3.5,-7 3.5,1.75 3.5,-1.75 z"
       style="fill:#000000;fill-opacity:1;fill-rule:nonzero;stroke:#000000;stroke-width:1;stroke-linecap:butt;stroke-linejoin:miter;stroke-miterlimit:10;stroke-dasharray:none;stroke-opacity:1"
       transform="matrix(0.95741551,0,0,0.95741551,0.47870775,0.47870775)"
       clip-path="url(#clipPath13)" />
    <path
       id="path14"
       d="m 1,81 h 450 v 70 H 1 Z"
       style="fill:#dae8fc;fill-opacity:1;fill-rule:nonzero;stroke:#6c8ebf;stroke-width:1;stroke-linecap:butt;stroke-linejoin:miter;stroke-miterlimit:10;stroke-dasharray:none;stroke-opacity:1"
       transform="matrix(0.95741551,0,0,0.95741551,0.47870775,0.47870775)"
       clip-path="url(#clipPath15)" />
    <text
       id="text15"
       xml:space="preserve"
       transform="matrix(0.95742511,0,0,0.95742511,8.5121076,107.23161)"
       clip-path="url(#clipPath16)"><tspan
         style="font-variant:normal;font-weight:normal;font-size:18px;font-family:Helvetica;writing-mode:lr-tb;fill:#000000;fill-opacity:1;fill-rule:nonzero;stroke:none"
         x="0 14.994141 25.004883 34.004883 38.003906 48.014648 58.025391 63.026367 68.027344 78.038086 84.032227 97.03125 107.04199 113.03613 123.04688 128.04785 133.04883 142.04883 152.05957 162.07031 167.07129 177.08203 183.07617 193.08691 198.08789 204.08203 214.09277 223.09277 233.10352 243.11426 253.125 262.125 266.12402 276.13477 280.13379 290.14453 295.14551 300.14648 310.15723 316.15137 321.15234 326.15332 336.16406 346.1748 351.17578 360.17578 370.18652 385.18066 400.1748 410.18555 420.19629 425.19727"
         y="0"
         sodipodi:role="line"
         id="tspan15">Moving forward, you are responsible for the comments</tspan></text>
    <text
       id="text16"
       xml:space="preserve"
       transform="matrix(0.95742511,0,0,0.95742511,7.0310907,128.29497)"
       clip-path="url(#clipPath17)"><tspan
         style="font-variant:normal;font-weight:normal;font-size:18px;font-family:Helvetica;writing-mode:lr-tb;fill:#000000;fill-opacity:1;fill-rule:nonzero;stroke:none"
         x="0 5.0009766 15.011719 25.022461 29.021484 39.032227"
         y="0"
         sodipodi:role="line"
         id="tspan16">table </tspan></text>
    <text
       id="text17"
       xml:space="preserve"
       transform="matrix(0.95742511,0,0,0.95742511,49.202675,128.29497)"
       clip-path="url(#clipPath18)"><tspan
         style="font-style:oblique;font-variant:normal;font-weight:700;font-size:18px;font-family:Helvetica;writing-mode:lr-tb;fill:#000000;fill-opacity:1;fill-rule:nonzero;stroke:none"
         x="0 10.010742 21.005859"
         y="0"
         sodipodi:role="line"
         id="tspan17">and</tspan></text>
    <text
       id="text18"
       xml:space="preserve"
       transform="matrix(0.95742511,0,0,0.95742511,79.855238,128.29497)"
       clip-path="url(#clipPath19)"><tspan
         style="font-variant:normal;font-weight:700;font-size:18px;font-family:Helvetica;writing-mode:lr-tb;fill:#000000;fill-opacity:1;fill-rule:nonzero;stroke:none"
         x="0"
         y="0"
         id="tspan18"> </tspan></text>
    <text
       id="text19"
       xml:space="preserve"
       transform="matrix(0.95742511,0,0,0.95742511,84.657324,128.29497)"
       clip-path="url(#clipPath20)"><tspan
         style="font-variant:normal;font-weight:normal;font-size:18px;font-family:Helvetica;writing-mode:lr-tb;fill:#000000;fill-opacity:1;fill-rule:nonzero;stroke:none"
         x="0 5.9941406 16.004883 20.003906 30.014648 35.015625 45.026367 55.037109 60.038086 69.038086 79.048828 89.05957 99.070312 109.08105 119.0918 128.0918 133.09277 138.09375 148.10449 153.10547 158.10645 168.11719 178.12793 182.14453 194.15039 206.15625 211.15723 216.1582 226.16895 235.16895 244.16895 254.17969 263.17969 272.17969 276.17871 286.18945 296.2002 301.20117 306.20215 316.21289 326.22363 331.22461 344.22363"
         y="0"
         sodipodi:role="line"
         id="tspan19">related changes to the API accessing the DB</tspan></text>
    <path
       id="path21"
       d="m 226,246 v 18.63"
       style="fill:none;stroke:#000000;stroke-width:1;stroke-linecap:butt;stroke-linejoin:miter;stroke-miterlimit:10;stroke-dasharray:none;stroke-opacity:1"
       transform="matrix(0.95741551,0,0,0.95741551,0.47870775,0.47870775)"
       clip-path="url(#clipPath22)" />
    <path
       id="path23"
       d="m 226,269.88 -3.5,-7 3.5,1.75 3.5,-1.75 z"
       style="fill:#000000;fill-opacity:1;fill-rule:nonzero;stroke:#000000;stroke-width:1;stroke-linecap:butt;stroke-linejoin:miter;stroke-miterlimit:10;stroke-dasharray:none;stroke-opacity:1"
       transform="matrix(0.95741551,0,0,0.95741551,0.47870775,0.47870775)"
       clip-path="url(#clipPath24)" />
    <path
       id="path25"
       d="m 1,176 h 450 v 70 H 1 Z"
       style="fill:#dae8fc;fill-opacity:1;fill-rule:nonzero;stroke:#6c8ebf;stroke-width:1;stroke-linecap:butt;stroke-linejoin:miter;stroke-miterlimit:10;stroke-dasharray:none;stroke-opacity:1"
       transform="matrix(0.95741551,0,0,0.95741551,0.47870775,0.47870775)"
       clip-path="url(#clipPath26)" />
    <text
       id="text26"
       xml:space="preserve"
       transform="matrix(0.95742511,0,0,0.95742511,29.545541,198.187)"
       clip-path="url(#clipPath27)"><tspan
         style="font-style:oblique;font-variant:normal;font-weight:700;font-size:18px;font-family:Helvetica;writing-mode:lr-tb;fill:#000000;fill-opacity:1;fill-rule:nonzero;stroke:none"
         x="0 12.005859 17.006836 28.001953 38.012695"
         y="0"
         sodipodi:role="line"
         id="tspan26">Plus,</tspan></text>
    <text
       id="text27"
       xml:space="preserve"
       transform="matrix(0.95742511,0,0,0.95742511,75.531865,198.187)"
       clip-path="url(#clipPath28)"><tspan
         style="font-variant:normal;font-weight:normal;font-size:18px;font-family:Helvetica;writing-mode:lr-tb;fill:#000000;fill-opacity:1;fill-rule:nonzero;stroke:none"
         x="0 10.010742 14.009766 18.008789 23.009766 33.020508 38.021484 43.022461 52.022461 62.033203 72.043945 78.038086 83.039062 92.039062 102.0498 112.06055 122.07129 132.08203 142.09277 151.09277 156.09375 166.10449 176.11523 186.12598 196.13672 201.1377 206.13867 216.14941 221.15039 231.16113 241.17188 246.17285 252.16699 262.17773 271.17773 275.17676 285.1875 298.18652 308.19727 318.20801 323.20898 333.21973"
         y="0"
         sodipodi:role="line"
         id="tspan27">all of your changes need to be reviewed by</tspan></text>
    <text
       id="text28"
       xml:space="preserve"
       transform="matrix(0.95742511,0,0,0.95742511,151.21333,219.25035)"
       clip-path="url(#clipPath29)"><tspan
         style="font-variant:normal;font-weight:normal;font-size:18px;font-family:Helvetica;writing-mode:lr-tb;fill:#000000;fill-opacity:1;fill-rule:nonzero;stroke:none"
         x="0 10.010742 20.021484 30.032227 35.033203 45.043945 55.054688 61.048828 66.049805 76.060547 86.071289 96.082031 100.08105 110.0918 120.10254 130.11328"
         y="0"
         sodipodi:role="line"
         id="tspan28">another engineer</tspan></text>
    <path
       id="path30"
       d="m 1,271 h 450 v 70 H 1 Z"
       style="fill:#dae8fc;fill-opacity:1;fill-rule:nonzero;stroke:#6c8ebf;stroke-width:1;stroke-linecap:butt;stroke-linejoin:miter;stroke-miterlimit:10;stroke-dasharray:none;stroke-opacity:1"
       transform="matrix(0.95741551,0,0,0.95741551,0.47870775,0.47870775)"
       clip-path="url(#clipPath31)" />
    <text
       id="text31"
       xml:space="preserve"
       transform="matrix(0.95742511,0,0,0.95742511,16.09671,289.14238)"
       clip-path="url(#clipPath32)"><tspan
         style="font-variant:normal;font-weight:normal;font-size:18px;font-family:Helvetica;writing-mode:lr-tb;fill:#000000;fill-opacity:1;fill-rule:nonzero;stroke:none"
         x="0 10.353516 20.364258 30.375 36.369141 41.370117 56.364258 66.375 76.385742 86.396484 96.407227 106.41797 112.41211 117.41309 122.41406 132.4248 136.42383 140.42285 149.42285 154.42383 163.42383 173.43457 183.44531 188.44629 193.44727 203.45801 208.45898 217.45898 227.46973 237.48047 247.49121 257.50195 267.5127"
         y="0"
         sodipodi:role="line"
         id="tspan31">Your manager tells you to change </tspan></text>
    <text
       id="text32"
       xml:space="preserve"
       transform="matrix(0.95742511,0,0,0.95742511,277.01002,289.14238)"
       clip-path="url(#clipPath33)"><tspan
         style="font-style:oblique;font-variant:normal;font-weight:normal;font-size:18px;font-family:Helvetica;writing-mode:lr-tb;fill:#000000;fill-opacity:1;fill-rule:nonzero;stroke:none"
         x="0 3.4365234 12.436523 22.447266 32.458008 37.458984 47.469727 57.480469 62.481445 71.481445"
         y="0"
         sodipodi:role="line"
         id="tspan32">'contents'</tspan></text>
    <text
       id="text33"
       xml:space="preserve"
       transform="matrix(0.95742511,0,0,0.95742511,353.53016,289.14238)"
       clip-path="url(#clipPath34)"><tspan
         style="font-variant:normal;font-weight:normal;font-size:18px;font-family:Helvetica;writing-mode:lr-tb;fill:#000000;fill-opacity:1;fill-rule:nonzero;stroke:none"
         x="0 5.0009766 15.011719"
         y="0"
         sodipodi:role="line"
         id="tspan33">to </tspan></text>
    <text
       id="text34"
       xml:space="preserve"
       transform="matrix(0.95742511,0,0,0.95742511,372.69269,289.14238)"
       clip-path="url(#clipPath35)"><tspan
         style="font-style:oblique;font-variant:normal;font-weight:normal;font-size:18px;font-family:Helvetica;writing-mode:lr-tb;fill:#000000;fill-opacity:1;fill-rule:nonzero;stroke:none"
         x="0 3.4365234 13.447266 23.458008 33.46875 42.46875"
         y="0"
         sodipodi:role="line"
         id="tspan34">'body'</tspan></text>
    <text
       id="text35"
       xml:space="preserve"
       transform="matrix(0.95742511,0,0,0.95742511,72.180878,310.20574)"
       clip-path="url(#clipPath36)"><tspan
         style="font-variant:normal;font-weight:normal;font-size:18px;font-family:Helvetica;writing-mode:lr-tb;fill:#000000;fill-opacity:1;fill-rule:nonzero;stroke:none"
         x="0 10.010742 20.021484 30.032227 34.03125 44.041992 49.042969 54.043945 64.054688 68.053711 72.052734 82.063477 95.0625 99.061523 109.07227 119.08301 124.08398 129.08496 139.0957 149.10645 158.10645 168.11719 173.11816 183.12891 193.13965 206.13867 211.13965 221.15039 227.14453 237.15527 246.15527 256.16602 266.17676 276.1875 282.18164 292.19238"
         y="0"
         sodipodi:role="line"
         id="tspan35">again following these new procedures</tspan></text>
  </g>
</svg>
