<?xml version="1.0" encoding="UTF-8" standalone="no"?>
<!-- Created with Inkscape (http://www.inkscape.org/) -->

<svg
   version="1.1"
   id="svg1"
   width="348.16"
   height="196.15999"
   viewBox="0 0 348.16 196.15999"
   sodipodi:docname="sql-26.pdf"
   xmlns:inkscape="http://www.inkscape.org/namespaces/inkscape"
   xmlns:sodipodi="http://sodipodi.sourceforge.net/DTD/sodipodi-0.dtd"
   xmlns="http://www.w3.org/2000/svg"
   xmlns:svg="http://www.w3.org/2000/svg">
  <defs
     id="defs1">
    <clipPath
       clipPathUnits="userSpaceOnUse"
       id="clipPath2">
      <path
         d="M 0,0 H 1087.5 V 612.46564 H 0 Z"
         transform="scale(0.33471265)"
         clip-rule="evenodd"
         id="path2" />
    </clipPath>
    <clipPath
       clipPathUnits="userSpaceOnUse"
       id="clipPath4">
      <path
         d="M 0,0 H 1087.5 V 609.47803 H 0 Z"
         transform="matrix(0.33471265,0,0,0.33471265,-0.49999999,-0.49999999)"
         clip-rule="evenodd"
         id="path4" />
    </clipPath>
    <clipPath
       clipPathUnits="userSpaceOnUse"
       id="clipPath5">
      <path
         d="M 0,0 H 1087.5 V 609.47803 H 0 Z"
         transform="matrix(0.33470931,0,0,0.33470931,-16.78125,-168)"
         clip-rule="evenodd"
         id="path5" />
    </clipPath>
    <clipPath
       clipPathUnits="userSpaceOnUse"
       id="clipPath6">
      <path
         d="M 0,0 H 1087.5 V 609.47803 H 0 Z"
         transform="matrix(0.33470931,0,0,0.33470931,-311.73438,-168)"
         clip-rule="evenodd"
         id="path6" />
    </clipPath>
    <clipPath
       clipPathUnits="userSpaceOnUse"
       id="clipPath7">
      <path
         d="M 0,0 H 1087.5 V 609.47803 H 0 Z"
         transform="matrix(0.33470931,0,0,0.33470931,-6.28125,-185)"
         clip-rule="evenodd"
         id="path7" />
    </clipPath>
    <clipPath
       clipPathUnits="userSpaceOnUse"
       id="clipPath8">
      <path
         d="M 0,0 H 1087.5 V 609.47803 H 0 Z"
         transform="matrix(0.33470931,0,0,0.33470931,-64.640625,-185)"
         clip-rule="evenodd"
         id="path8" />
    </clipPath>
    <clipPath
       clipPathUnits="userSpaceOnUse"
       id="clipPath10">
      <path
         d="M 0,0 H 1087.5 V 609.47803 H 0 Z"
         transform="matrix(0.33471265,0,0,0.33471265,-0.49999999,-0.49999999)"
         clip-rule="evenodd"
         id="path10" />
    </clipPath>
    <clipPath
       clipPathUnits="userSpaceOnUse"
       id="clipPath11">
      <path
         d="M 0,0 H 1087.5 V 609.47803 H 0 Z"
         transform="matrix(0.33470931,0,0,0.33470931,-133.53125,-131)"
         clip-rule="evenodd"
         id="path11" />
    </clipPath>
    <clipPath
       clipPathUnits="userSpaceOnUse"
       id="clipPath13">
      <path
         d="M 0,0 H 1087.5 V 609.47803 H 0 Z"
         transform="matrix(0.33471265,0,0,0.33471265,-0.49999999,-0.49999999)"
         clip-rule="evenodd"
         id="path13" />
    </clipPath>
    <clipPath
       clipPathUnits="userSpaceOnUse"
       id="clipPath14">
      <path
         d="M 0,0 H 1087.5 V 609.47803 H 0 Z"
         transform="matrix(0.33470931,0,0,0.33470931,-3.546875,-58)"
         clip-rule="evenodd"
         id="path14" />
    </clipPath>
    <clipPath
       clipPathUnits="userSpaceOnUse"
       id="clipPath15">
      <path
         d="M 0,0 H 1087.5 V 609.47803 H 0 Z"
         transform="matrix(0.33470931,0,0,0.33470931,-62.71875,-75)"
         clip-rule="evenodd"
         id="path15" />
    </clipPath>
    <clipPath
       clipPathUnits="userSpaceOnUse"
       id="clipPath17">
      <path
         d="M 0,0 H 1087.5 V 609.47803 H 0 Z"
         transform="matrix(0.33471265,0,0,0.33471265,-0.49999999,-0.49999999)"
         clip-rule="evenodd"
         id="path17" />
    </clipPath>
    <clipPath
       clipPathUnits="userSpaceOnUse"
       id="clipPath18">
      <path
         d="M 0,0 H 1087.5 V 609.47803 H 0 Z"
         transform="matrix(0.33470931,0,0,0.33470931,-133.53125,-21)"
         clip-rule="evenodd"
         id="path18" />
    </clipPath>
  </defs>
  <sodipodi:namedview
     id="namedview1"
     pagecolor="#ffffff"
     bordercolor="#000000"
     borderopacity="0.25"
     inkscape:showpageshadow="2"
     inkscape:pageopacity="0.0"
     inkscape:pagecheckerboard="0"
     inkscape:deskcolor="#d1d1d1">
    <inkscape:page
       x="0"
       y="0"
       inkscape:label="1"
       id="page1"
       width="348.16"
       height="196.15999"
       margin="0"
       bleed="0" />
  </sodipodi:namedview>
  <g
     id="g1"
     inkscape:groupmode="layer"
     inkscape:label="1">
    <path
       id="path1"
       d="M 0,0 H 364 V 205 H 0 Z"
       style="fill:#ffffff;fill-opacity:1;fill-rule:nonzero;stroke:none"
       transform="scale(0.9560439)"
       clip-path="url(#clipPath2)" />
    <path
       id="path3"
       d="m 1,141 h 360 v 60 H 1 Z"
       style="fill:#dae8fc;fill-opacity:1;fill-rule:nonzero;stroke:#6c8ebf;stroke-width:1;stroke-linecap:butt;stroke-linejoin:miter;stroke-miterlimit:10;stroke-dasharray:none;stroke-opacity:1"
       transform="matrix(0.9560439,0,0,0.9560439,0.47802194,0.47802194)"
       clip-path="url(#clipPath4)" />
    <text
       id="text4"
       xml:space="preserve"
       transform="matrix(0.95605343,0,0,0.95605343,16.043772,160.61698)"
       clip-path="url(#clipPath5)"><tspan
         style="font-variant:normal;font-weight:normal;font-size:14px;font-family:Helvetica;writing-mode:lr-tb;fill:#000000;fill-opacity:1;fill-rule:nonzero;stroke:none"
         x="0 13.213867 21 28.786133 36.572266 40.461914 50.572266 58.358398 63.020508 70.020508 73.130859 80.916992 88.703125 92.592773 102.70312 105.81348 109.70312 117.48926 121.37891 129.16504 133.05469 140.84082 148.62695 153.28906 157.17871 164.96484 172.75098 180.53711 183.64746 191.43359 199.21973 207.00586 211.66797 218.66797 222.55762 226.44727 236.55762 244.34375 248.2334 256.01953 263.80566 271.5918 279.37793 283.26758 291.05371"
         y="0"
         sodipodi:role="line"
         id="tspan4">When working with other engineers, we need a </tspan></text>
    <text
       id="text5"
       xml:space="preserve"
       transform="matrix(0.95605343,0,0,0.95605343,298.03472,160.61698)"
       clip-path="url(#clipPath6)"><tspan
         style="font-style:oblique;font-variant:normal;font-weight:normal;font-size:14px;font-family:Helvetica;writing-mode:lr-tb;fill:#000000;fill-opacity:1;fill-rule:nonzero;stroke:none"
         x="0 4.6621094 12.448242 20.234375 23.344727 26.455078"
         y="0"
         sodipodi:role="line"
         id="tspan5">really</tspan></text>
    <text
       id="text6"
       xml:space="preserve"
       transform="matrix(0.95605343,0,0,0.95605343,6.0052106,176.86988)"
       clip-path="url(#clipPath7)"><tspan
         style="font-style:oblique;font-variant:normal;font-weight:normal;font-size:14px;font-family:Helvetica;writing-mode:lr-tb;fill:#000000;fill-opacity:1;fill-rule:nonzero;stroke:none"
         x="0 7.7861328 15.572266 22.572266 29.572266 33.461914 43.572266 51.358398"
         y="0"
         sodipodi:role="line"
         id="tspan6">easy way</tspan></text>
    <text
       id="text7"
       xml:space="preserve"
       transform="matrix(0.95605343,0,0,0.95605343,61.799891,176.86988)"
       clip-path="url(#clipPath8)"><tspan
         style="font-variant:normal;font-weight:normal;font-size:14px;font-family:Helvetica;writing-mode:lr-tb;fill:#000000;fill-opacity:1;fill-rule:nonzero;stroke:none"
         x="0 3.8896484 7.7792969 15.56543 19.455078 23.344727 26.455078 34.241211 38.130859 42.020508 49.806641 57.592773 61.482422 68.482422 72.37207 77.03418 84.820312 91.820312 95.709961 103.49609 108.1582 115.94434 119.83398 127.62012 131.50977 135.39941 143.18555 150.97168 155.63379 159.52344 167.30957 175.0957 178.98535 186.77148 194.55762 202.34375 209.34375 217.12988 221.01953 224.90918 232.69531 236.58496 244.37109 252.15723 256.81934 260.70898 267.70898 275.49512 283.28125"
         y="0"
         sodipodi:role="line"
         id="tspan7"> to tie the structure of our database to our code</tspan></text>
    <path
       id="path9"
       d="m 1,111 h 360 v 30 H 1 Z"
       style="fill:#dae8fc;fill-opacity:1;fill-rule:nonzero;stroke:#6c8ebf;stroke-width:1;stroke-linecap:butt;stroke-linejoin:miter;stroke-miterlimit:10;stroke-dasharray:none;stroke-opacity:1"
       transform="matrix(0.9560439,0,0,0.9560439,0.47802194,0.47802194)"
       clip-path="url(#clipPath10)" />
    <text
       id="text10"
       xml:space="preserve"
       transform="matrix(0.95605343,0,0,0.95605343,127.66301,125.243)"
       clip-path="url(#clipPath11)"><tspan
         style="font-variant:normal;font-weight:700;font-size:14px;font-family:Helvetica;writing-mode:lr-tb;fill:#000000;fill-opacity:1;fill-rule:nonzero;stroke:none"
         x="0 10.110352 14 22.551758 26.441406 34.993164 42.779297 50.56543 58.351562 66.90332 75.455078 79.344727 87.130859"
         y="0"
         sodipodi:role="line"
         id="tspan10">Big Lesson #2</tspan></text>
    <path
       id="path12"
       d="M 1,31 H 361 V 91 H 1 Z"
       style="fill:#dae8fc;fill-opacity:1;fill-rule:nonzero;stroke:#6c8ebf;stroke-width:1;stroke-linecap:butt;stroke-linejoin:miter;stroke-miterlimit:10;stroke-dasharray:none;stroke-opacity:1"
       transform="matrix(0.9560439,0,0,0.9560439,0.47802194,0.47802194)"
       clip-path="url(#clipPath13)" />
    <text
       id="text13"
       xml:space="preserve"
       transform="matrix(0.95605343,0,0,0.95605343,3.391002,55.451099)"
       clip-path="url(#clipPath14)"><tspan
         style="font-variant:normal;font-weight:normal;font-size:14px;font-family:Helvetica;writing-mode:lr-tb;fill:#000000;fill-opacity:1;fill-rule:nonzero;stroke:none"
         x="0 10.110352 17.896484 25.682617 33.46875 41.254883 49.041016 56.041016 59.930664 63.820312 71.606445 75.496094 79.385742 87.171875 94.958008 98.847656 108.95801 118.2959 122.18555 129.18555 133.0752 137.7373 145.52344 152.52344 156.41309 164.19922 168.86133 176.64746 180.53711 188.32324 196.10938 203.89551 207.78516 214.78516 222.57129 230.35742 238.14355 245.92969 253.71582 260.71582 264.60547 268.49512 276.28125 280.1709 287.1709 290.28125 293.3916 301.17773 308.96387 312.85352 319.85352 323.74316 331.5293 339.31543 347.10156"
         y="0"
         sodipodi:role="line"
         id="tspan13">Changes to the DB structure and changes to clients need</tspan></text>
    <text
       id="text14"
       xml:space="preserve"
       transform="matrix(0.95605343,0,0,0.95605343,59.962476,71.704007)"
       clip-path="url(#clipPath15)"><tspan
         style="font-variant:normal;font-weight:normal;font-size:14px;font-family:Helvetica;writing-mode:lr-tb;fill:#000000;fill-opacity:1;fill-rule:nonzero;stroke:none"
         x="0 3.8896484 11.675781 15.56543 23.351562 31.137695 35.027344 46.689453 54.475586 62.261719 70.047852 73.9375 81.723633 85.613281 89.50293 97.289062 101.95117 109.7373 116.7373 119.84766 126.84766 134.63379 137.74414 144.74414 148.63379 152.52344 160.30957 168.0957 171.98535 178.98535 186.77148 198.43359 206.21973 210.10938 213.99902 217.10938 228.77148"
         y="0"
         sodipodi:role="line"
         id="tspan14">to be made at precisely the same time</tspan></text>
    <path
       id="path16"
       d="M 1,1 H 361 V 31 H 1 Z"
       style="fill:#dae8fc;fill-opacity:1;fill-rule:nonzero;stroke:#6c8ebf;stroke-width:1;stroke-linecap:butt;stroke-linejoin:miter;stroke-miterlimit:10;stroke-dasharray:none;stroke-opacity:1"
       transform="matrix(0.9560439,0,0,0.9560439,0.47802194,0.47802194)"
       clip-path="url(#clipPath17)" />
    <text
       id="text17"
       xml:space="preserve"
       transform="matrix(0.95605343,0,0,0.95605343,127.66301,20.077122)"
       clip-path="url(#clipPath18)"><tspan
         style="font-variant:normal;font-weight:700;font-size:14px;font-family:Helvetica;writing-mode:lr-tb;fill:#000000;fill-opacity:1;fill-rule:nonzero;stroke:none"
         x="0 10.110352 14 22.551758 26.441406 34.993164 42.779297 50.56543 58.351562 66.90332 75.455078 79.344727 87.130859"
         y="0"
         sodipodi:role="line"
         id="tspan17">Big Lesson #1</tspan></text>
  </g>
</svg>
