<?xml version="1.0" encoding="UTF-8" standalone="no"?>
<!-- Created with Inkscape (http://www.inkscape.org/) -->

<svg
   version="1.1"
   id="svg1"
   width="405.44"
   height="302.72"
   viewBox="0 0 405.44 302.72"
   sodipodi:docname="sql-2.pdf"
   xmlns:inkscape="http://www.inkscape.org/namespaces/inkscape"
   xmlns:sodipodi="http://sodipodi.sourceforge.net/DTD/sodipodi-0.dtd"
   xmlns="http://www.w3.org/2000/svg"
   xmlns:svg="http://www.w3.org/2000/svg">
  <defs
     id="defs1">
    <clipPath
       clipPathUnits="userSpaceOnUse"
       id="clipPath2">
      <path
         d="M 0,0 H 1266.6666 V 944.02515 H 0 Z"
         transform="scale(0.33473685)"
         clip-rule="evenodd"
         id="path2" />
    </clipPath>
    <clipPath
       clipPathUnits="userSpaceOnUse"
       id="clipPath4">
      <path
         d="M 0,0 H 1266.6666 V 938.05029 H 0 Z"
         transform="matrix(0.33473685,0,0,0.33473685,-0.49999999,-0.49999999)"
         clip-rule="evenodd"
         id="path4" />
    </clipPath>
    <clipPath
       clipPathUnits="userSpaceOnUse"
       id="clipPath6">
      <path
         d="M 0,0 H 1266.6666 V 938.05029 H 0 Z"
         transform="matrix(0.33473685,0,0,0.33473685,-0.49999999,-0.49999999)"
         clip-rule="evenodd"
         id="path6" />
    </clipPath>
    <clipPath
       clipPathUnits="userSpaceOnUse"
       id="clipPath8">
      <path
         d="M 0,0 H 1266.6666 V 938.05029 H 0 Z"
         transform="matrix(0.33473685,0,0,0.33473685,-0.49999999,-0.49999999)"
         clip-rule="evenodd"
         id="path8" />
    </clipPath>
    <clipPath
       clipPathUnits="userSpaceOnUse"
       id="clipPath9">
      <path
         d="M 0,0 H 1266.6666 V 938.05029 H 0 Z"
         transform="matrix(0.33473351,0,0,0.33473351,-7.0625,-28)"
         clip-rule="evenodd"
         id="path9" />
    </clipPath>
    <clipPath
       clipPathUnits="userSpaceOnUse"
       id="clipPath10">
      <path
         d="M 0,0 H 1266.6666 V 938.05029 H 0 Z"
         transform="matrix(0.33473351,0,0,0.33473351,-140.5625,-45)"
         clip-rule="evenodd"
         id="path10" />
    </clipPath>
    <clipPath
       clipPathUnits="userSpaceOnUse"
       id="clipPath12">
      <path
         d="M 0,0 H 1266.6666 V 938.05029 H 0 Z"
         transform="matrix(0.33473685,0,0,0.33473685,-0.49999999,-0.49999999)"
         clip-rule="evenodd"
         id="path12" />
    </clipPath>
    <clipPath
       clipPathUnits="userSpaceOnUse"
       id="clipPath14">
      <path
         d="M 0,0 H 1266.6666 V 938.05029 H 0 Z"
         transform="matrix(0.33473685,0,0,0.33473685,-0.49999999,-0.49999999)"
         clip-rule="evenodd"
         id="path14" />
    </clipPath>
    <clipPath
       clipPathUnits="userSpaceOnUse"
       id="clipPath16">
      <path
         d="M 0,0 H 1266.6666 V 938.05029 H 0 Z"
         transform="matrix(0.33473685,0,0,0.33473685,-0.49999999,-0.49999999)"
         clip-rule="evenodd"
         id="path16" />
    </clipPath>
    <clipPath
       clipPathUnits="userSpaceOnUse"
       id="clipPath17">
      <path
         d="M 0,0 H 1266.6666 V 938.05029 H 0 Z"
         transform="matrix(0.33473351,0,0,0.33473351,-23.796875,-111)"
         clip-rule="evenodd"
         id="path17" />
    </clipPath>
    <clipPath
       clipPathUnits="userSpaceOnUse"
       id="clipPath18">
      <path
         d="M 0,0 H 1266.6666 V 938.05029 H 0 Z"
         transform="matrix(0.33473351,0,0,0.33473351,-106.71875,-128)"
         clip-rule="evenodd"
         id="path18" />
    </clipPath>
    <clipPath
       clipPathUnits="userSpaceOnUse"
       id="clipPath20">
      <path
         d="M 0,0 H 1266.6666 V 938.05029 H 0 Z"
         transform="matrix(0.33473685,0,0,0.33473685,-0.49999999,-0.49999999)"
         clip-rule="evenodd"
         id="path20" />
    </clipPath>
    <clipPath
       clipPathUnits="userSpaceOnUse"
       id="clipPath22">
      <path
         d="M 0,0 H 1266.6666 V 938.05029 H 0 Z"
         transform="matrix(0.33473685,0,0,0.33473685,-0.49999999,-0.49999999)"
         clip-rule="evenodd"
         id="path22" />
    </clipPath>
    <clipPath
       clipPathUnits="userSpaceOnUse"
       id="clipPath24">
      <path
         d="M 0,0 H 1266.6666 V 938.05029 H 0 Z"
         transform="matrix(0.33473685,0,0,0.33473685,-0.49999999,-0.49999999)"
         clip-rule="evenodd"
         id="path24" />
    </clipPath>
    <clipPath
       clipPathUnits="userSpaceOnUse"
       id="clipPath25">
      <path
         d="M 0,0 H 1266.6666 V 938.05029 H 0 Z"
         transform="matrix(0.33473351,0,0,0.33473351,-19.578125,-195)"
         clip-rule="evenodd"
         id="path25" />
    </clipPath>
    <clipPath
       clipPathUnits="userSpaceOnUse"
       id="clipPath26">
      <path
         d="M 0,0 H 1266.6666 V 938.05029 H 0 Z"
         transform="matrix(0.33473351,0,0,0.33473351,-176.75,-212)"
         clip-rule="evenodd"
         id="path26" />
    </clipPath>
    <clipPath
       clipPathUnits="userSpaceOnUse"
       id="clipPath28">
      <path
         d="M 0,0 H 1266.6666 V 938.05029 H 0 Z"
         transform="matrix(0.33473685,0,0,0.33473685,-0.49999999,-0.49999999)"
         clip-rule="evenodd"
         id="path28" />
    </clipPath>
    <clipPath
       clipPathUnits="userSpaceOnUse"
       id="clipPath29">
      <path
         d="M 0,0 H 1266.6666 V 938.05029 H 0 Z"
         transform="matrix(0.33473351,0,0,0.33473351,-13.34375,-278)"
         clip-rule="evenodd"
         id="path29" />
    </clipPath>
    <clipPath
       clipPathUnits="userSpaceOnUse"
       id="clipPath30">
      <path
         d="M 0,0 H 1266.6666 V 938.05029 H 0 Z"
         transform="matrix(0.33473351,0,0,0.33473351,-100.875,-295)"
         clip-rule="evenodd"
         id="path30" />
    </clipPath>
  </defs>
  <sodipodi:namedview
     id="namedview1"
     pagecolor="#ffffff"
     bordercolor="#000000"
     borderopacity="0.25"
     inkscape:showpageshadow="2"
     inkscape:pageopacity="0.0"
     inkscape:pagecheckerboard="0"
     inkscape:deskcolor="#d1d1d1">
    <inkscape:page
       x="0"
       y="0"
       inkscape:label="1"
       id="page1"
       width="405.44"
       height="302.72"
       margin="0"
       bleed="0" />
  </sodipodi:namedview>
  <g
     id="g1"
     inkscape:groupmode="layer"
     inkscape:label="1">
    <path
       id="path1"
       d="M 0,0 H 424 V 316 H 0 Z"
       style="fill:#ffffff;fill-opacity:1;fill-rule:nonzero;stroke:none"
       transform="scale(0.95597478)"
       clip-path="url(#clipPath2)" />
    <path
       id="path3"
       d="M 211,61 V 81 64 77.629997"
       style="fill:none;stroke:#000000;stroke-width:1;stroke-linecap:butt;stroke-linejoin:miter;stroke-miterlimit:10;stroke-dasharray:none;stroke-opacity:1"
       transform="matrix(0.95597478,0,0,0.95597478,0.47798738,0.47798738)"
       clip-path="url(#clipPath4)" />
    <path
       id="path5"
       d="m 211,82.879997 -3.5,-7 3.5,1.75 3.5,-1.75 z"
       style="fill:#000000;fill-opacity:1;fill-rule:nonzero;stroke:#000000;stroke-width:1;stroke-linecap:butt;stroke-linejoin:miter;stroke-miterlimit:10;stroke-dasharray:none;stroke-opacity:1"
       transform="matrix(0.95597478,0,0,0.95597478,0.47798738,0.47798738)"
       clip-path="url(#clipPath6)" />
    <path
       id="path7"
       d="M 1,1 H 421 V 61 H 1 Z"
       style="fill:#f5f5f5;fill-opacity:1;fill-rule:nonzero;stroke:#666666;stroke-width:1;stroke-linecap:butt;stroke-linejoin:miter;stroke-miterlimit:10;stroke-dasharray:none;stroke-opacity:1"
       transform="matrix(0.95597478,0,0,0.95597478,0.47798738,0.47798738)"
       clip-path="url(#clipPath8)" />
    <text
       id="text8"
       xml:space="preserve"
       transform="matrix(0.95598431,0,0,0.95598431,6.7516392,26.767561)"
       clip-path="url(#clipPath9)"><tspan
         style="font-variant:normal;font-weight:normal;font-size:14px;font-family:Helvetica;writing-mode:lr-tb;fill:#333333;fill-opacity:1;fill-rule:nonzero;stroke:none"
         x="0 12.967773 20.753906 23.426758 28.088867 35.875 39.764648 47.550781 55.336914 58.447266 66.233398 74.019531 77.90918 81.798828 89.584961 93.474609 103.58496 111.37109 114.48145 121.48145 125.37109 129.26074 137.04688 141.70898 149.49512 157.28125 165.06738 172.85352 176.74316 184.5293 188.41895 193.08105 200.86719 208.65332 211.76367 214.87402 221.87402 225.76367 233.5498 241.33594 248.33594 255.33594 259.22559 267.01172 274.79785 281.79785 285.6875 289.57715 297.36328 305.14941 309.03906 312.92871 319.92871 327.71484 335.50098 339.39062 351.05273 354.16309 361.94922 369.73535 373.625 377.51465 385.30078 393.08691 400.08691"
         y="0"
         sodipodi:role="line"
         id="tspan8">We're going to walk through a really busy day that you might have</tspan></text>
    <text
       id="text9"
       xml:space="preserve"
       transform="matrix(0.95598431,0,0,0.95598431,134.37554,43.019294)"
       clip-path="url(#clipPath10)"><tspan
         style="font-variant:normal;font-weight:normal;font-size:14px;font-family:Helvetica;writing-mode:lr-tb;fill:#333333;fill-opacity:1;fill-rule:nonzero;stroke:none"
         x="0 10.110352 17.896484 22.558594 29.558594 32.668945 40.455078 48.241211 52.130859 59.916992 67.703125 71.592773 79.378906 83.268555 91.054688 98.84082 102.73047 110.5166 118.30273 126.08887 133.08887"
         y="0"
         sodipodi:role="line"
         id="tspan9">working on a database</tspan></text>
    <path
       id="path11"
       d="m 211,144 v 20 -16 13.63"
       style="fill:none;stroke:#000000;stroke-width:1;stroke-linecap:butt;stroke-linejoin:miter;stroke-miterlimit:10;stroke-dasharray:none;stroke-opacity:1"
       transform="matrix(0.95597478,0,0,0.95597478,0.47798738,0.47798738)"
       clip-path="url(#clipPath12)" />
    <path
       id="path13"
       d="m 211,166.88 -3.5,-7 3.5,1.75 3.5,-1.75 z"
       style="fill:#000000;fill-opacity:1;fill-rule:nonzero;stroke:#000000;stroke-width:1;stroke-linecap:butt;stroke-linejoin:miter;stroke-miterlimit:10;stroke-dasharray:none;stroke-opacity:1"
       transform="matrix(0.95597478,0,0,0.95597478,0.47798738,0.47798738)"
       clip-path="url(#clipPath14)" />
    <path
       id="path15"
       d="m 1,84 h 420 v 60 H 1 Z"
       style="fill:#f5f5f5;fill-opacity:1;fill-rule:nonzero;stroke:#666666;stroke-width:1;stroke-linecap:butt;stroke-linejoin:miter;stroke-miterlimit:10;stroke-dasharray:none;stroke-opacity:1"
       transform="matrix(0.95597478,0,0,0.95597478,0.47798738,0.47798738)"
       clip-path="url(#clipPath16)" />
    <text
       id="text16"
       xml:space="preserve"
       transform="matrix(0.95598431,0,0,0.95598431,22.749439,106.11426)"
       clip-path="url(#clipPath17)"><tspan
         style="font-variant:normal;font-weight:normal;font-size:14px;font-family:Helvetica;writing-mode:lr-tb;fill:#333333;fill-opacity:1;fill-rule:nonzero;stroke:none"
         x="0 12.967773 20.753906 23.426758 26.537109 29.647461 33.537109 36.647461 44.433594 52.219727 60.005859 63.895508 67.005859 70.895508 77.895508 81.785156 88.785156 96.571289 108.2334 116.01953 119.90918 127.69531 135.48145 143.26758 151.05371 154.94336 158.05371 165.05371 172.05371 179.83984 187.62598 194.62598 198.51562 202.40527 210.19141 217.97754 221.86719 225.75684 232.75684 240.54297 252.20508 259.99121 263.88086 271.66699 279.45312 283.34277 293.45312 301.23926 309.02539 316.81152 320.70117 327.70117 335.4873 343.27344 347.16309 354.16309 358.05273 365.83887 370.50098"
         y="0"
         sodipodi:role="line"
         id="tspan16">We'll identify some huge issues that come up when you start</tspan></text>
    <text
       id="text17"
       xml:space="preserve"
       transform="matrix(0.95598431,0,0,0.95598431,102.02145,122.36599)"
       clip-path="url(#clipPath18)"><tspan
         style="font-variant:normal;font-weight:normal;font-size:14px;font-family:Helvetica;writing-mode:lr-tb;fill:#333333;fill-opacity:1;fill-rule:nonzero;stroke:none"
         x="0 7 14.786133 22.572266 30.358398 38.144531 41.254883 49.041016 56.827148 60.716797 64.606445 72.392578 80.178711 84.068359 91.068359 94.958008 99.620117 107.40625 114.40625 118.2959 126.08203 130.74414 138.53027 142.41992 150.20605 154.0957 157.98535 164.98535 172.77148 180.55762 185.21973 189.10938 199.21973"
         y="0"
         sodipodi:role="line"
         id="tspan17">changing the structure of your DB</tspan></text>
    <path
       id="path19"
       d="m 211,228 v 16.63"
       style="fill:none;stroke:#000000;stroke-width:1;stroke-linecap:butt;stroke-linejoin:miter;stroke-miterlimit:10;stroke-dasharray:none;stroke-opacity:1"
       transform="matrix(0.95597478,0,0,0.95597478,0.47798738,0.47798738)"
       clip-path="url(#clipPath20)" />
    <path
       id="path21"
       d="m 211,249.88 -3.5,-7 3.5,1.75 3.5,-1.75 z"
       style="fill:#000000;fill-opacity:1;fill-rule:nonzero;stroke:#000000;stroke-width:1;stroke-linecap:butt;stroke-linejoin:miter;stroke-miterlimit:10;stroke-dasharray:none;stroke-opacity:1"
       transform="matrix(0.95597478,0,0,0.95597478,0.47798738,0.47798738)"
       clip-path="url(#clipPath22)" />
    <path
       id="path23"
       d="m 1,168 h 420 v 60 H 1 Z"
       style="fill:#f5f5f5;fill-opacity:1;fill-rule:nonzero;stroke:#666666;stroke-width:1;stroke-linecap:butt;stroke-linejoin:miter;stroke-miterlimit:10;stroke-dasharray:none;stroke-opacity:1"
       transform="matrix(0.95597478,0,0,0.95597478,0.47798738,0.47798738)"
       clip-path="url(#clipPath24)" />
    <text
       id="text24"
       xml:space="preserve"
       transform="matrix(0.95598431,0,0,0.95598431,18.71638,186.41694)"
       clip-path="url(#clipPath25)"><tspan
         style="font-variant:normal;font-weight:normal;font-size:14px;font-family:Helvetica;writing-mode:lr-tb;fill:#333333;fill-opacity:1;fill-rule:nonzero;stroke:none"
         x="0 8.5517578 16.337891 24.124023 31.124023 38.910156 42.799805 50.585938 55.248047 63.03418 66.923828 70.03418 77.03418 84.03418 91.820312 99.606445 106.60645 110.49609 114.38574 122.17188 129.95801 133.84766 137.7373 141.62695 145.5166 152.5166 160.30273 168.08887 171.97852 179.76465 182.875 194.53711 202.32324 209.32324 213.21289 217.10254 224.88867 229.55078 237.33691 248.99902 252.10938 259.10938 266.89551 270.78516 277.78516 285.57129 293.35742 297.24707 307.35742 310.46777 313.57812 316.68848 320.57812 325.24023 333.02637 340.8125 344.70215 347.8125 355.59863 359.48828 367.27441 371.16406 378.9502"
         y="0"
         sodipodi:role="line"
         id="tspan24">These are issues that I can almost promise you will run into at</tspan></text>
    <text
       id="text25"
       xml:space="preserve"
       transform="matrix(0.95598431,0,0,0.95598431,168.97023,202.66867)"
       clip-path="url(#clipPath26)"><tspan
         style="font-variant:normal;font-weight:normal;font-size:14px;font-family:Helvetica;writing-mode:lr-tb;fill:#333333;fill-opacity:1;fill-rule:nonzero;stroke:none"
         x="0 7 14.786133 26.448242 34.234375 38.124023 45.910156 53.696289 56.806641 64.592773"
         y="0"
         sodipodi:role="line"
         id="tspan25">some point</tspan></text>
    <path
       id="path27"
       d="m 1,251 h 420 v 60 H 1 Z"
       style="fill:#f8cecc;fill-opacity:1;fill-rule:nonzero;stroke:#b85450;stroke-width:1;stroke-linecap:butt;stroke-linejoin:miter;stroke-miterlimit:10;stroke-dasharray:none;stroke-opacity:1"
       transform="matrix(0.95597478,0,0,0.95597478,0.47798738,0.47798738)"
       clip-path="url(#clipPath28)" />
    <text
       id="text28"
       xml:space="preserve"
       transform="matrix(0.95598431,0,0,0.95598431,12.756416,265.76364)"
       clip-path="url(#clipPath29)"><tspan
         style="font-variant:normal;font-weight:normal;font-size:14px;font-family:Helvetica;writing-mode:lr-tb;fill:#000000;fill-opacity:1;fill-rule:nonzero;stroke:none"
         x="0 10.110352 17.896484 28.006836 35.792969 42.792969 50.579102 54.475586 58.365234 62.254883 66.144531 70.03418 73.923828 77.813477 85.599609 88.709961 95.709961 99.599609 106.59961 109.70996 117.49609 125.28223 133.06836 136.95801 147.06836 150.17871 153.28906 156.39941 160.28906 168.0752 175.86133 179.75098 186.75098 194.53711 199.19922 206.19922 210.08887 213.19922 220.98535 228.77148 236.55762 240.44727 244.33691 251.33691 259.12305 263.0127 270.0127 277.0127 280.12305 287.90918 291.79883 294.90918 298.79883 302.68848 305.79883 309.68848 313.57812 320.57812 328.36426 336.15039 340.04004 350.15039 353.26074 360.26074 368.04688 371.93652 379.72266 387.50879"
         y="0"
         sodipodi:role="line"
         id="tspan28">However.....this video will be very long, so skip it if you wish and</tspan></text>
    <text
       id="text29"
       xml:space="preserve"
       transform="matrix(0.95598431,0,0,0.95598431,96.434917,282.01537)"
       clip-path="url(#clipPath30)"><tspan
         style="font-variant:normal;font-weight:normal;font-size:14px;font-family:Helvetica;writing-mode:lr-tb;fill:#000000;fill-opacity:1;fill-rule:nonzero;stroke:none"
         x="0 3.1103516 10.896484 18.682617 25.682617 29.572266 37.358398 41.248047 45.137695 52.923828 56.813477 63.813477 71.599609 83.261719 94.923828 102.70996 107.37207 114.37207 118.26172 121.37207 129.1582 133.04785 136.9375 144.72363 152.50977 156.39941 164.18555 171.97168 178.97168 182.86133 186.75098 193.75098 196.86133 204.64746 212.43359"
         y="0"
         sodipodi:role="line"
         id="tspan29">look at a summary in the next video</tspan></text>
  </g>
</svg>
