<?xml version="1.0" encoding="UTF-8" standalone="no"?>
<!-- Created with Inkscape (http://www.inkscape.org/) -->

<svg
   version="1.1"
   id="svg1"
   width="617.27997"
   height="453.44"
   viewBox="0 0 617.27997 453.44"
   sodipodi:docname="sql-13.pdf"
   xmlns:inkscape="http://www.inkscape.org/namespaces/inkscape"
   xmlns:sodipodi="http://sodipodi.sourceforge.net/DTD/sodipodi-0.dtd"
   xmlns="http://www.w3.org/2000/svg"
   xmlns:svg="http://www.w3.org/2000/svg">
  <defs
     id="defs1">
    <clipPath
       clipPathUnits="userSpaceOnUse"
       id="clipPath2">
      <path
         d="M 0,0 H 1929.1665 V 1413.9233 H 0 Z"
         transform="scale(0.33382292)"
         clip-rule="evenodd"
         id="path2" />
    </clipPath>
    <clipPath
       clipPathUnits="userSpaceOnUse"
       id="clipPath4">
      <path
         d="M 0,0 H 1929.1665 V 1413.9233 H 0 Z"
         transform="matrix(0.33382292,0,0,0.33382292,-0.50000001,-0.50000001)"
         clip-rule="evenodd"
         id="path4" />
    </clipPath>
    <clipPath
       clipPathUnits="userSpaceOnUse"
       id="clipPath6">
      <path
         d="M 0,0 H 1929.1665 V 1413.9233 H 0 Z"
         transform="matrix(0.33382292,0,0,0.33382292,-0.50000001,-0.50000001)"
         clip-rule="evenodd"
         id="path6" />
    </clipPath>
    <clipPath
       clipPathUnits="userSpaceOnUse"
       id="clipPath7">
      <path
         d="M 0,0 H 1929.1665 V 1413.9233 H 0 Z"
         transform="matrix(0.33381956,0,0,0.33381956,-3.78125,-176)"
         clip-rule="evenodd"
         id="path7" />
    </clipPath>
    <clipPath
       clipPathUnits="userSpaceOnUse"
       id="clipPath9">
      <path
         d="M 0,0 H 1929.1665 V 1413.9233 H 0 Z"
         transform="matrix(0.33382292,0,0,0.33382292,-0.50000001,-0.50000001)"
         clip-rule="evenodd"
         id="path9" />
    </clipPath>
    <clipPath
       clipPathUnits="userSpaceOnUse"
       id="clipPath11">
      <path
         d="M 0,0 H 1929.1665 V 1413.9233 H 0 Z"
         transform="matrix(0.33382292,0,0,0.33382292,-0.50000001,-0.50000001)"
         clip-rule="evenodd"
         id="path11" />
    </clipPath>
    <clipPath
       clipPathUnits="userSpaceOnUse"
       id="clipPath13">
      <path
         d="M 0,0 H 1929.1665 V 1413.9233 H 0 Z"
         transform="matrix(0.33382292,0,0,0.33382292,-0.50000001,-0.50000001)"
         clip-rule="evenodd"
         id="path13" />
    </clipPath>
    <clipPath
       clipPathUnits="userSpaceOnUse"
       id="clipPath14">
      <path
         d="M 0,0 H 1929.1665 V 1413.9233 H 0 Z"
         transform="matrix(0.33381956,0,0,0.33381956,-259.67187,-173)"
         clip-rule="evenodd"
         id="path14" />
    </clipPath>
    <clipPath
       clipPathUnits="userSpaceOnUse"
       id="clipPath15">
      <path
         d="M 0,0 H 1929.1665 V 1413.9233 H 0 Z"
         transform="matrix(0.33381956,0,0,0.33381956,-287.84375,-187)"
         clip-rule="evenodd"
         id="path15" />
    </clipPath>
    <clipPath
       clipPathUnits="userSpaceOnUse"
       id="clipPath17">
      <path
         d="M 0,0 H 1929.1665 V 1413.9233 H 0 Z"
         transform="matrix(0.33382292,0,0,0.33382292,-0.50000001,-0.50000001)"
         clip-rule="evenodd"
         id="path17" />
    </clipPath>
    <clipPath
       clipPathUnits="userSpaceOnUse"
       id="clipPath18">
      <path
         d="M 0,0 H 1929.1665 V 1413.9233 H 0 Z"
         transform="matrix(0.33381956,0,0,0.33381956,-245.10938,-373)"
         clip-rule="evenodd"
         id="path18" />
    </clipPath>
    <clipPath
       clipPathUnits="userSpaceOnUse"
       id="clipPath19">
      <path
         d="M 0,0 H 1929.1665 V 1413.9233 H 0 Z"
         transform="matrix(0.33381956,0,0,0.33381956,-315.96875,-387)"
         clip-rule="evenodd"
         id="path19" />
    </clipPath>
    <clipPath
       clipPathUnits="userSpaceOnUse"
       id="clipPath21">
      <path
         d="M 0,0 H 1929.1665 V 1413.9233 H 0 Z"
         transform="matrix(0.33382292,0,0,0.33382292,-0.50000001,-0.50000001)"
         clip-rule="evenodd"
         id="path21" />
    </clipPath>
    <clipPath
       clipPathUnits="userSpaceOnUse"
       id="clipPath23">
      <path
         d="M 0,0 H 1929.1665 V 1413.9233 H 0 Z"
         transform="matrix(0.33382292,0,0,0.33382292,-0.50000001,-0.50000001)"
         clip-rule="evenodd"
         id="path23" />
    </clipPath>
    <clipPath
       clipPathUnits="userSpaceOnUse"
       id="clipPath25">
      <path
         d="M 0,0 H 1929.1665 V 1413.9233 H 0 Z"
         transform="matrix(0.33382292,0,0,0.33382292,-0.50000001,-0.50000001)"
         clip-rule="evenodd"
         id="path25" />
    </clipPath>
    <clipPath
       clipPathUnits="userSpaceOnUse"
       id="clipPath26">
      <path
         d="M 0,0 H 1929.1665 V 1413.9233 H 0 Z"
         transform="matrix(0.33381956,0,0,0.33381956,-69.265625,-173)"
         clip-rule="evenodd"
         id="path26" />
    </clipPath>
    <clipPath
       clipPathUnits="userSpaceOnUse"
       id="clipPath27">
      <path
         d="M 0,0 H 1929.1665 V 1413.9233 H 0 Z"
         transform="matrix(0.33381956,0,0,0.33381956,-95.4375,-187)"
         clip-rule="evenodd"
         id="path27" />
    </clipPath>
    <clipPath
       clipPathUnits="userSpaceOnUse"
       id="clipPath29">
      <path
         d="M 0,0 H 1929.1665 V 1413.9233 H 0 Z"
         transform="matrix(0.33382292,0,0,0.33382292,-0.50000001,-0.50000001)"
         clip-rule="evenodd"
         id="path29" />
    </clipPath>
    <clipPath
       clipPathUnits="userSpaceOnUse"
       id="clipPath30">
      <path
         d="M 0,0 H 1929.1665 V 1413.9233 H 0 Z"
         transform="matrix(0.33381956,0,0,0.33381956,-92.296874,-230)"
         clip-rule="evenodd"
         id="path30" />
    </clipPath>
    <clipPath
       clipPathUnits="userSpaceOnUse"
       id="clipPath31">
      <path
         d="M 0,0 H 1929.1665 V 1413.9233 H 0 Z"
         transform="matrix(0.33381956,0,0,0.33381956,-108.875,-156)"
         clip-rule="evenodd"
         id="path31" />
    </clipPath>
    <clipPath
       clipPathUnits="userSpaceOnUse"
       id="clipPath32">
      <path
         d="M 0,0 H 1929.1665 V 1413.9233 H 0 Z"
         transform="matrix(0.33381956,0,0,0.33381956,-293.04687,-156)"
         clip-rule="evenodd"
         id="path32" />
    </clipPath>
    <clipPath
       clipPathUnits="userSpaceOnUse"
       id="clipPath34">
      <path
         d="M 0,0 H 1929.1665 V 1413.9233 H 0 Z"
         transform="matrix(0.33382292,0,0,0.33382292,-0.50000001,-0.50000001)"
         clip-rule="evenodd"
         id="path34" />
    </clipPath>
    <clipPath
       clipPathUnits="userSpaceOnUse"
       id="clipPath36">
      <path
         d="M 0,0 H 1929.1665 V 1413.9233 H 0 Z"
         transform="matrix(0.33382292,0,0,0.33382292,-0.50000001,-0.50000001)"
         clip-rule="evenodd"
         id="path36" />
    </clipPath>
    <clipPath
       clipPathUnits="userSpaceOnUse"
       id="clipPath38">
      <path
         d="M 0,0 H 1929.1665 V 1413.9233 H 0 Z"
         transform="matrix(0.33382292,0,0,0.33382292,-0.50000001,-0.50000001)"
         clip-rule="evenodd"
         id="path38" />
    </clipPath>
    <clipPath
       clipPathUnits="userSpaceOnUse"
       id="clipPath39">
      <path
         d="M 0,0 H 1929.1665 V 1413.9233 H 0 Z"
         transform="matrix(0.33381956,0,0,0.33381956,-454.29688,-180)"
         clip-rule="evenodd"
         id="path39" />
    </clipPath>
    <clipPath
       clipPathUnits="userSpaceOnUse"
       id="clipPath40">
      <path
         d="M 0,0 H 1929.1665 V 1413.9233 H 0 Z"
         transform="matrix(0.33381956,0,0,0.33381956,-490.8125,-141)"
         clip-rule="evenodd"
         id="path40" />
    </clipPath>
    <clipPath
       clipPathUnits="userSpaceOnUse"
       id="clipPath41">
      <path
         d="M 0,0 H 1929.1665 V 1413.9233 H 0 Z"
         transform="matrix(0.33381956,0,0,0.33381956,-478.25,-158)"
         clip-rule="evenodd"
         id="path41" />
    </clipPath>
    <clipPath
       clipPathUnits="userSpaceOnUse"
       id="clipPath43">
      <path
         d="M 0,0 H 1929.1665 V 1413.9233 H 0 Z"
         transform="scale(0.33382292)"
         clip-rule="evenodd"
         id="path43" />
    </clipPath>
    <clipPath
       clipPathUnits="userSpaceOnUse"
       id="clipPath45">
      <path
         d="M 0,0 H 1929.1665 V 1413.9233 H 0 Z"
         transform="matrix(0.33382292,0,0,0.33382292,-0.50000001,-0.50000001)"
         clip-rule="evenodd"
         id="path45" />
    </clipPath>
    <clipPath
       clipPathUnits="userSpaceOnUse"
       id="clipPath47">
      <path
         d="M 0,0 H 1929.1665 V 1413.9233 H 0 Z"
         transform="matrix(0.33382292,0,0,0.33382292,-0.50000001,-0.50000001)"
         clip-rule="evenodd"
         id="path47" />
    </clipPath>
    <clipPath
       clipPathUnits="userSpaceOnUse"
       id="clipPath49">
      <path
         d="M 0,0 H 1929.1665 V 1413.9233 H 0 Z"
         transform="matrix(0.33382292,0,0,0.33382292,-0.50000001,-0.50000001)"
         clip-rule="evenodd"
         id="path49" />
    </clipPath>
    <clipPath
       clipPathUnits="userSpaceOnUse"
       id="clipPath50">
      <path
         d="M 0,0 H 1929.1665 V 1413.9233 H 0 Z"
         transform="matrix(0.33381956,0,0,0.33381956,-448.76563,-253)"
         clip-rule="evenodd"
         id="path50" />
    </clipPath>
    <clipPath
       clipPathUnits="userSpaceOnUse"
       id="clipPath51">
      <path
         d="M 0,0 H 1929.1665 V 1413.9233 H 0 Z"
         transform="matrix(0.33381956,0,0,0.33381956,-460.73438,-267)"
         clip-rule="evenodd"
         id="path51" />
    </clipPath>
    <clipPath
       clipPathUnits="userSpaceOnUse"
       id="clipPath53">
      <path
         d="M 0,0 H 1929.1665 V 1413.9233 H 0 Z"
         transform="matrix(0.33382292,0,0,0.33382292,-0.50000001,-0.50000001)"
         clip-rule="evenodd"
         id="path53" />
    </clipPath>
    <clipPath
       clipPathUnits="userSpaceOnUse"
       id="clipPath54">
      <path
         d="M 0,0 H 1929.1665 V 1413.9233 H 0 Z"
         transform="matrix(0.33381956,0,0,0.33381956,-445.70313,-403)"
         clip-rule="evenodd"
         id="path54" />
    </clipPath>
    <clipPath
       clipPathUnits="userSpaceOnUse"
       id="clipPath55">
      <path
         d="M 0,0 H 1929.1665 V 1413.9233 H 0 Z"
         transform="matrix(0.33381956,0,0,0.33381956,-466.53125,-417)"
         clip-rule="evenodd"
         id="path55" />
    </clipPath>
    <clipPath
       clipPathUnits="userSpaceOnUse"
       id="clipPath57">
      <path
         d="M 0,0 H 1929.1665 V 1413.9233 H 0 Z"
         transform="scale(0.33382292)"
         clip-rule="evenodd"
         id="path57" />
    </clipPath>
    <clipPath
       clipPathUnits="userSpaceOnUse"
       id="clipPath59">
      <path
         d="M 0,0 H 1929.1665 V 1413.9233 H 0 Z"
         transform="matrix(0,-0.33382292,0.33382292,0,111.00001,359.00003)"
         clip-rule="evenodd"
         id="path59" />
    </clipPath>
    <clipPath
       clipPathUnits="userSpaceOnUse"
       id="clipPath61">
      <path
         d="M 0,0 H 1929.1665 V 1413.9233 H 0 Z"
         transform="matrix(0.33382292,0,0,0.33382292,-0.50000001,-0.50000001)"
         clip-rule="evenodd"
         id="path61" />
    </clipPath>
    <clipPath
       clipPathUnits="userSpaceOnUse"
       id="clipPath62">
      <path
         d="M 0,0 H 1929.1665 V 1413.9233 H 0 Z"
         transform="matrix(0.33381956,0,0,0.33381956,-115.17187,-24.999999)"
         clip-rule="evenodd"
         id="path62" />
    </clipPath>
    <clipPath
       clipPathUnits="userSpaceOnUse"
       id="clipPath63">
      <path
         d="M 0,0 H 1929.1665 V 1413.9233 H 0 Z"
         transform="matrix(0.33381956,0,0,0.33381956,-91.906249,-47)"
         clip-rule="evenodd"
         id="path63" />
    </clipPath>
    <clipPath
       clipPathUnits="userSpaceOnUse"
       id="clipPath64">
      <path
         d="M 0,0 H 1929.1665 V 1413.9233 H 0 Z"
         transform="matrix(0.33381956,0,0,0.33381956,-89.171875,-68.999999)"
         clip-rule="evenodd"
         id="path64" />
    </clipPath>
    <clipPath
       clipPathUnits="userSpaceOnUse"
       id="clipPath65">
      <path
         d="M 0,0 H 1929.1665 V 1413.9233 H 0 Z"
         transform="matrix(0.33381956,0,0,0.33381956,-208.46875,-90)"
         clip-rule="evenodd"
         id="path65" />
    </clipPath>
  </defs>
  <sodipodi:namedview
     id="namedview1"
     pagecolor="#ffffff"
     bordercolor="#000000"
     borderopacity="0.25"
     inkscape:showpageshadow="2"
     inkscape:pageopacity="0.0"
     inkscape:pagecheckerboard="0"
     inkscape:deskcolor="#d1d1d1">
    <inkscape:page
       x="0"
       y="0"
       inkscape:label="1"
       id="page1"
       width="617.27997"
       height="453.44"
       margin="0"
       bleed="0" />
  </sodipodi:namedview>
  <g
     id="g1"
     inkscape:groupmode="layer"
     inkscape:label="1">
    <path
       id="path1"
       d="M 0,0 H 644 V 472 H 0 Z"
       style="fill:#ffffff;fill-opacity:1;fill-rule:nonzero;stroke:none"
       transform="scale(0.95859202)"
       clip-path="url(#clipPath2)" />
    <path
       id="path3"
       d="M 40,161 V 454.64001"
       style="fill:none;stroke:#000000;stroke-width:1;stroke-linecap:butt;stroke-linejoin:miter;stroke-miterlimit:10;stroke-dasharray:none;stroke-opacity:1"
       transform="matrix(0.95859202,0,0,0.95859202,0.47929602,0.47929602)"
       clip-path="url(#clipPath4)" />
    <path
       id="path5"
       d="m 40,459.89001 -3.5,-7 3.5,1.75 3.5,-1.75 z"
       style="fill:#000000;fill-opacity:1;fill-rule:nonzero;stroke:#000000;stroke-width:1;stroke-linecap:butt;stroke-linejoin:miter;stroke-miterlimit:10;stroke-dasharray:none;stroke-opacity:1"
       transform="matrix(0.95859202,0,0,0.95859202,0.47929602,0.47929602)"
       clip-path="url(#clipPath6)" />
    <text
       id="text6"
       xml:space="preserve"
       transform="matrix(0.95860166,0,0,0.95860166,3.6247125,168.71389)"
       clip-path="url(#clipPath7)"><tspan
         style="font-variant:normal;font-weight:700;font-size:14px;font-family:Helvetica;writing-mode:lr-tb;fill:#000000;fill-opacity:1;fill-rule:nonzero;stroke:none"
         x="0 8.3056641 12.195312 24.643555"
         y="0"
         sodipodi:role="line"
         id="tspan6">Time</tspan></text>
    <path
       id="path8"
       d="M 330,191 V 354.64001"
       style="fill:none;stroke:#000000;stroke-width:1;stroke-linecap:butt;stroke-linejoin:miter;stroke-miterlimit:10;stroke-dasharray:none;stroke-opacity:1"
       transform="matrix(0.95859202,0,0,0.95859202,0.47929602,0.47929602)"
       clip-path="url(#clipPath9)" />
    <path
       id="path10"
       d="m 330,359.89001 -3.5,-7 3.5,1.75 3.5,-1.75 z"
       style="fill:#000000;fill-opacity:1;fill-rule:nonzero;stroke:#000000;stroke-width:1;stroke-linecap:butt;stroke-linejoin:miter;stroke-miterlimit:10;stroke-dasharray:none;stroke-opacity:1"
       transform="matrix(0.95859202,0,0,0.95859202,0.47929602,0.47929602)"
       clip-path="url(#clipPath11)" />
    <path
       id="path12"
       d="m 240,161 h 180 v 30 H 240 Z"
       style="fill:#ffffff;fill-opacity:1;fill-rule:nonzero;stroke:#000000;stroke-width:1;stroke-linecap:butt;stroke-linejoin:miter;stroke-miterlimit:10;stroke-dasharray:none;stroke-opacity:1"
       transform="matrix(0.95859202,0,0,0.95859202,0.47929602,0.47929602)"
       clip-path="url(#clipPath13)" />
    <text
       id="text13"
       xml:space="preserve"
       transform="matrix(0.95860166,0,0,0.95860166,248.92189,165.83809)"
       clip-path="url(#clipPath14)"><tspan
         style="font-variant:normal;font-weight:normal;font-size:11px;font-family:Helvetica;writing-mode:lr-tb;fill:#000000;fill-opacity:1;fill-rule:nonzero;stroke:none"
         x="0 7.3369141 10.393066 16.510742 20.173828 23.22998 26.286133 32.403809 38.521484 44.63916 47.083008 53.200684 58.700684 61.756836 67.874512 70.930664 73.385254 80.722168 88.059082 91.115234 94.171387 102.11523 104.55908 107.61523 113.73291 116.78906 122.28906 128.40674 134.52441"
         y="0"
         sodipodi:role="line"
         id="tspan13">Start deploy of API with code</tspan></text>
    <text
       id="text14"
       xml:space="preserve"
       transform="matrix(0.95860166,0,0,0.95860166,275.9275,179.25851)"
       clip-path="url(#clipPath15)"><tspan
         style="font-variant:normal;font-weight:normal;font-size:11px;font-family:Helvetica;writing-mode:lr-tb;fill:#000000;fill-opacity:1;fill-rule:nonzero;stroke:none"
         x="0 3.6630859 9.7807617 12.836914 18.95459 22.617676 26.280762 28.724609 34.842285 40.959961 44.016113 47.072266 53.189941 56.246094 58.346191 64.463867 70.581543 76.699219 82.199219"
         y="0"
         sodipodi:role="line"
         id="tspan14">referring to 'body'</tspan></text>
    <path
       id="path16"
       d="m 240,361 h 180 v 30 H 240 Z"
       style="fill:#ffffff;fill-opacity:1;fill-rule:nonzero;stroke:#000000;stroke-width:1;stroke-linecap:butt;stroke-linejoin:miter;stroke-miterlimit:10;stroke-dasharray:none;stroke-opacity:1"
       transform="matrix(0.95859202,0,0,0.95859202,0.47929602,0.47929602)"
       clip-path="url(#clipPath17)" />
    <text
       id="text17"
       xml:space="preserve"
       transform="matrix(0.95860166,0,0,0.95860166,234.96226,357.55842)"
       clip-path="url(#clipPath18)"><tspan
         style="font-variant:normal;font-weight:normal;font-size:11px;font-family:Helvetica;writing-mode:lr-tb;fill:#000000;fill-opacity:1;fill-rule:nonzero;stroke:none"
         x="0 6.7192383 9.1630859 15.280762 17.724609 23.224609 29.342285 32.398438 38.516113 44.633789 50.751465 53.195312 59.312988 64.001953 67.058105 70.114258 72.568848 79.905762 87.242676 90.298828 93.35498 99.472656 105.59033 113.53418 116.59033 120.25342 126.37109 129.42725 135.54492 139.20801 142.87109 145.31494 151.43262 157.55029 160.60645 163.6626"
         y="0"
         sodipodi:role="line"
         id="tspan17">Finish deploy.  API now referring to</tspan></text>
    <text
       id="text18"
       xml:space="preserve"
       transform="matrix(0.95860166,0,0,0.95860166,302.88817,370.97884)"
       clip-path="url(#clipPath19)"><tspan
         style="font-variant:normal;font-weight:normal;font-size:11px;font-family:Helvetica;writing-mode:lr-tb;fill:#000000;fill-opacity:1;fill-rule:nonzero;stroke:none"
         x="0 2.1000977 8.2177734 14.335449 20.453125 25.953125"
         y="0"
         sodipodi:role="line"
         id="tspan18">'body'</tspan></text>
    <path
       id="path20"
       d="m 140,191 v 13.63"
       style="fill:none;stroke:#000000;stroke-width:1;stroke-linecap:butt;stroke-linejoin:miter;stroke-miterlimit:10;stroke-dasharray:none;stroke-opacity:1"
       transform="matrix(0.95859202,0,0,0.95859202,0.47929602,0.47929602)"
       clip-path="url(#clipPath21)" />
    <path
       id="path22"
       d="m 140,209.88 -3.5,-7 3.5,1.75 3.5,-1.75 z"
       style="fill:#000000;fill-opacity:1;fill-rule:nonzero;stroke:#000000;stroke-width:1;stroke-linecap:butt;stroke-linejoin:miter;stroke-miterlimit:10;stroke-dasharray:none;stroke-opacity:1"
       transform="matrix(0.95859202,0,0,0.95859202,0.47929602,0.47929602)"
       clip-path="url(#clipPath23)" />
    <path
       id="path24"
       d="m 50,161 h 180 v 30 H 50 Z"
       style="fill:#ffffff;fill-opacity:1;fill-rule:nonzero;stroke:#000000;stroke-width:1;stroke-linecap:butt;stroke-linejoin:miter;stroke-miterlimit:10;stroke-dasharray:none;stroke-opacity:1"
       transform="matrix(0.95859202,0,0,0.95859202,0.47929602,0.47929602)"
       clip-path="url(#clipPath25)" />
    <text
       id="text25"
       xml:space="preserve"
       transform="matrix(0.95860166,0,0,0.95860166,66.398143,165.83809)"
       clip-path="url(#clipPath26)"><tspan
         style="font-variant:normal;font-weight:normal;font-size:11px;font-family:Helvetica;writing-mode:lr-tb;fill:#000000;fill-opacity:1;fill-rule:nonzero;stroke:none"
         x="0 6.3271484 12.444824 18.5625 21.618652 25.281738 31.399414 37.51709 40.573242 46.073242 52.190918 61.354004 70.51709 76.634766 82.752441 88.870117 91.92627 94.982422 101.1001 104.15625 107.81934 113.93701 120.05469 126.17236 135.33545"
         y="0"
         sodipodi:role="line"
         id="tspan25">You run command to rename</tspan></text>
    <text
       id="text26"
       xml:space="preserve"
       transform="matrix(0.95860166,0,0,0.95860166,91.486546,179.25851)"
       clip-path="url(#clipPath27)"><tspan
         style="font-variant:normal;font-weight:normal;font-size:11px;font-family:Helvetica;writing-mode:lr-tb;fill:#000000;fill-opacity:1;fill-rule:nonzero;stroke:none"
         x="0 2.1000977 7.6000977 13.717773 19.835449 22.891602 29.009277 35.126953 38.183105 43.683105 45.783203 48.839355 51.895508 58.013184 61.069336 63.169434 69.287109 75.404785 81.522461 87.022461"
         y="0"
         sodipodi:role="line"
         id="tspan26">'contents' to 'body'</tspan></text>
    <path
       id="path28"
       d="m 50,211 h 180 v 30 H 50 Z"
       style="fill:#ffffff;fill-opacity:1;fill-rule:nonzero;stroke:#000000;stroke-width:1;stroke-linecap:butt;stroke-linejoin:miter;stroke-miterlimit:10;stroke-dasharray:none;stroke-opacity:1"
       transform="matrix(0.95859202,0,0,0.95859202,0.47929602,0.47929602)"
       clip-path="url(#clipPath29)" />
    <text
       id="text29"
       xml:space="preserve"
       transform="matrix(0.95860166,0,0,0.95860166,88.475937,220.47838)"
       clip-path="url(#clipPath30)"><tspan
         style="font-variant:normal;font-weight:normal;font-size:11px;font-family:Helvetica;writing-mode:lr-tb;fill:#000000;fill-opacity:1;fill-rule:nonzero;stroke:none"
         x="0 7.9438477 14.061523 20.179199 26.296875 35.459961 41.577637 44.633789 50.133789 56.251465 65.414551 71.532227 73.976074 80.09375 83.149902 89.267578 92.32373"
         y="0"
         sodipodi:role="line"
         id="tspan29">Rename complete. </tspan></text>
    <text
       id="text30"
       xml:space="preserve"
       transform="matrix(0.95860166,0,0,0.95860166,104.36776,149.54186)"
       clip-path="url(#clipPath31)"><tspan
         style="font-variant:normal;font-weight:700;font-size:14px;font-family:Helvetica;writing-mode:lr-tb;fill:#000000;fill-opacity:1;fill-rule:nonzero;stroke:none"
         x="0 10.110352 17.896484 22.558594 30.344727 38.896484 46.682617 54.46875"
         y="0"
         sodipodi:role="line"
         id="tspan30">Database</tspan></text>
    <text
       id="text31"
       xml:space="preserve"
       transform="matrix(0.95860166,0,0,0.95860166,280.91522,149.54186)"
       clip-path="url(#clipPath32)"><tspan
         style="font-variant:normal;font-weight:700;font-size:14px;font-family:Helvetica;writing-mode:lr-tb;fill:#000000;fill-opacity:1;fill-rule:nonzero;stroke:none"
         x="0 10.110352 19.448242 23.337891 27.227539 37.337891 45.124023 53.675781 57.56543 66.117188"
         y="0"
         sodipodi:role="line"
         id="tspan31">API Deploy</tspan></text>
    <path
       id="path33"
       d="m 520.01001,191 v 43.63"
       style="fill:none;stroke:#000000;stroke-width:1;stroke-linecap:butt;stroke-linejoin:miter;stroke-miterlimit:10;stroke-dasharray:none;stroke-opacity:1"
       transform="matrix(0.95859202,0,0,0.95859202,0.47929602,0.47929602)"
       clip-path="url(#clipPath34)" />
    <path
       id="path35"
       d="m 520.01001,239.88 -3.5,-7 3.5,1.75 3.5,-1.75 z"
       style="fill:#000000;fill-opacity:1;fill-rule:nonzero;stroke:#000000;stroke-width:1;stroke-linecap:butt;stroke-linejoin:miter;stroke-miterlimit:10;stroke-dasharray:none;stroke-opacity:1"
       transform="matrix(0.95859202,0,0,0.95859202,0.47929602,0.47929602)"
       clip-path="url(#clipPath36)" />
    <path
       id="path37"
       d="m 430,161 h 180 v 30 H 430 Z"
       style="fill:#ffffff;fill-opacity:1;fill-rule:nonzero;stroke:#000000;stroke-width:1;stroke-linecap:butt;stroke-linejoin:miter;stroke-miterlimit:10;stroke-dasharray:none;stroke-opacity:1"
       transform="matrix(0.95859202,0,0,0.95859202,0.47929602,0.47929602)"
       clip-path="url(#clipPath38)" />
    <text
       id="text38"
       xml:space="preserve"
       transform="matrix(0.95860166,0,0,0.95860166,435.48974,172.5483)"
       clip-path="url(#clipPath39)"><tspan
         style="font-variant:normal;font-weight:normal;font-size:11px;font-family:Helvetica;writing-mode:lr-tb;fill:#000000;fill-opacity:1;fill-rule:nonzero;stroke:none"
         x="0 7.9438477 14.061523 20.179199 26.296875 29.353027 33.016113 39.133789 42.189941 48.307617 51.970703 55.633789 58.077637 64.195312 70.312988 73.369141 76.425293 82.542969 85.599121 87.699219 93.199219 99.316895 105.43457 108.49072 114.6084 120.72607 123.78223 129.28223"
         y="0"
         sodipodi:role="line"
         id="tspan38">Code referring to 'contents'</tspan></text>
    <text
       id="text39"
       xml:space="preserve"
       transform="matrix(0.95860166,0,0,0.95860166,470.49368,135.16283)"
       clip-path="url(#clipPath40)"><tspan
         style="font-variant:normal;font-weight:700;font-size:14px;font-family:Helvetica;writing-mode:lr-tb;fill:#000000;fill-opacity:1;fill-rule:nonzero;stroke:none"
         x="0 9.3378906 17.124023 21.013672 28.799805 33.461914 37.351562 45.90332 54.455078"
         y="0"
         sodipodi:role="line"
         id="tspan39">Existing,</tspan></text>
    <text
       id="text40"
       xml:space="preserve"
       transform="matrix(0.95860166,0,0,0.95860166,458.45124,151.45906)"
       clip-path="url(#clipPath41)"><tspan
         style="font-variant:normal;font-weight:700;font-size:14px;font-family:Helvetica;writing-mode:lr-tb;fill:#000000;fill-opacity:1;fill-rule:nonzero;stroke:none"
         x="0 10.110352 18.662109 27.213867 35.765625 39.655273 48.207031 56.758789 60.135742 70.246094 79.583984"
         y="0"
         sodipodi:role="line"
         id="tspan40">Running API</tspan></text>
    <path
       id="path42"
       d="m 230,240 h 2.00002 v 2 H 230 m 8.00008,-2 h 2.00003 v 2 h -2.00003 m 8.00007,-2 h 2.00003 v 2 h -2.00003 m 8.00009,-2 h 2 v 2 h -2 m 8.00007,-2 h 2.00003 v 2 h -2.00003 m 8.00009,-2 h 2.00003 v 2 h -2.00003 m 8.00009,-2 h 2 v 2 h -2 m 8.00006,-2 h 2.00003 v 2 h -2.00003 m 8.00009,-2 h 2.00003 v 2 h -2.00003 m 8.00009,-2 h 2 v 2 h -2 m 8.00006,-2 h 2.00003 v 2 h -2.00003 m 8.0001,-2 h 2.00003 v 2 h -2.00003 m 8.00009,-2 h 2 v 2 h -2 m 8.00006,-2 h 2.00003 v 2 h -2.00003 m 8.00009,-2 h 2.00003 v 2 h -2.00003 m 8.00009,-2 h 2 v 2 h -2 m 8.00006,-2 h 2 v 2 h -2 m 8.00006,-2 h 2.00006 v 2 h -2.00006 m 8.00009,-2 h 2.00003 v 2 h -2.00003 m 8.0001,-2 h 2 v 2 h -2 m 8.00006,-2 h 2.00003 v 2 h -2.00003 m 8.00009,-2 h 2.00003 v 2 h -2.00003 m 8.00009,-2 h 2 v 2 h -2 m 8.00006,-2 h 2.00003 v 2 h -2.00003 m 8.00009,-2 h 2.00003 v 2 h -2.00003 m 8.00009,-2 h 2 v 2 h -2 m 8.00007,-2 h 2.00003 v 2 h -2.00003 m 8.00009,-2 h 2.00003 v 2 h -2.00003 m 8.00009,-2 h 2 v 2 h -2 m 8.00006,-2 h 2.00003 v 2 h -2.00003 m 8.00009,-2 h 2.00003 v 2 h -2.00003 m 8.00009,-2 h 2 v 2 h -2 m 8.00006,-2 h 2.00003 v 2 h -2.00003 m 8.0001,-2 h 2 v 2 h -2 m 8.00006,-2 h 2.00003 v 2 h -2.00003 m 8.00009,-2 h 2 v 2 h -2 m 8.00006,-2 h 2.00006 v 2 h -2.00006 m 8.00006,-2 h 2.00006 v 2 h -2.00006 m 8.00012,-2 h 2 v 2 h -2 m 8.00006,-2 h 2.00006 v 2 h -2.00006 m 8.00006,-2 h 2.00006 v 2 h -2.00006 m 8.00013,-2 h 2 v 2 h -2 m 8.00006,-2 h 2.00006 v 2 h -2.00006 m 8.00006,-2 h 2.00006 v 2 h -2.00006 m 8.00012,-2 h 2 v 2 h -2 m 8.00006,-2 h 2.00006 v 2 h -2.00006 m 8.00006,-2 h 2 v 2 h -2 m 8.00012,-2 h 2 v 2 h -2 m 8.00007,-2 h 2.00006 v 2 h -2.00006 m 8.00006,-2 h 2 v 2 h -2 m 8.00012,-2 h 2 v 2 h -2 m 8.00006,-2 h 2.00006 v 2 h -2.00006"
       style="fill:#000000;fill-opacity:1;fill-rule:nonzero;stroke:none"
       transform="scale(0.95859202)"
       clip-path="url(#clipPath43)" />
    <path
       id="path44"
       d="M 520.01001,271 V 384.64001"
       style="fill:none;stroke:#000000;stroke-width:1;stroke-linecap:butt;stroke-linejoin:miter;stroke-miterlimit:10;stroke-dasharray:none;stroke-opacity:1"
       transform="matrix(0.95859202,0,0,0.95859202,0.47929602,0.47929602)"
       clip-path="url(#clipPath45)" />
    <path
       id="path46"
       d="m 520.01001,389.89001 -3.5,-7 3.5,1.75 3.5,-1.75 z"
       style="fill:#000000;fill-opacity:1;fill-rule:nonzero;stroke:#000000;stroke-width:1;stroke-linecap:butt;stroke-linejoin:miter;stroke-miterlimit:10;stroke-dasharray:none;stroke-opacity:1"
       transform="matrix(0.95859202,0,0,0.95859202,0.47929602,0.47929602)"
       clip-path="url(#clipPath47)" />
    <path
       id="path48"
       d="m 430,241 h 180 v 30 H 430 Z"
       style="fill:#f8cecc;fill-opacity:1;fill-rule:nonzero;stroke:#b85450;stroke-width:1;stroke-linecap:butt;stroke-linejoin:miter;stroke-miterlimit:10;stroke-dasharray:none;stroke-opacity:1"
       transform="matrix(0.95859202,0,0,0.95859202,0.47929602,0.47929602)"
       clip-path="url(#clipPath49)" />
    <text
       id="text49"
       xml:space="preserve"
       transform="matrix(0.95860166,0,0,0.95860166,430.18748,242.52622)"
       clip-path="url(#clipPath50)"><tspan
         style="font-variant:normal;font-weight:normal;font-size:11px;font-family:Helvetica;writing-mode:lr-tb;fill:#000000;fill-opacity:1;fill-rule:nonzero;stroke:none"
         x="0 7.3369141 14.673828 17.72998 20.786133 26.286133 29.342285 35.459961 39.123047 42.179199 47.679199 50.735352 53.791504 59.90918 63.572266 69.689941 77.633789 80.077637 86.195312 92.312988 95.369141 101.48682 105.1499 108.81299 114.93066 118.59375 124.09375 127.1499 130.20605 136.32373"
         y="0"
         sodipodi:role="line"
         id="tspan49">API starts throwing errors, no</tspan></text>
    <text
       id="text50"
       xml:space="preserve"
       transform="matrix(0.95860166,0,0,0.95860166,441.66074,255.94664)"
       clip-path="url(#clipPath51)"><tspan
         style="font-variant:normal;font-weight:normal;font-size:11px;font-family:Helvetica;writing-mode:lr-tb;fill:#000000;fill-opacity:1;fill-rule:nonzero;stroke:none"
         x="0 2.1000977 7.6000977 13.717773 19.835449 22.891602 29.009277 35.126953 38.183105 43.683105 45.783203 48.839355 54.339355 60.457031 62.900879 69.018555 78.181641 84.299316 87.355469 93.473145 98.973145 101.41699 106.91699 109.97314 115.47314"
         y="0"
         sodipodi:role="line"
         id="tspan50">'contents' column exists!</tspan></text>
    <path
       id="path52"
       d="m 430,391 h 180 v 30 H 430 Z"
       style="fill:#dae8fc;fill-opacity:1;fill-rule:nonzero;stroke:#6c8ebf;stroke-width:1;stroke-linecap:butt;stroke-linejoin:miter;stroke-miterlimit:10;stroke-dasharray:none;stroke-opacity:1"
       transform="matrix(0.95859202,0,0,0.95859202,0.47929602,0.47929602)"
       clip-path="url(#clipPath53)" />
    <text
       id="text53"
       xml:space="preserve"
       transform="matrix(0.95860166,0,0,0.95860166,427.25176,386.31647)"
       clip-path="url(#clipPath54)"><tspan
         style="font-variant:normal;font-weight:normal;font-size:11px;font-family:Helvetica;writing-mode:lr-tb;fill:#000000;fill-opacity:1;fill-rule:nonzero;stroke:none"
         x="0 7.9438477 14.061523 20.179199 22.623047 28.740723 34.240723 37.296875 42.796875 48.914551 58.077637 64.195312 66.63916 72.756836 75.812988 81.930664 84.986816 87.441406 94.77832 102.11523 105.17139 108.22754 111.89062 118.0083 121.06445 127.18213 130.84521 136.34521 139.40137 142.45752"
         y="0"
         sodipodi:role="line"
         id="tspan53">Deploy complete. API refers to</tspan></text>
    <text
       id="text54"
       xml:space="preserve"
       transform="matrix(0.95860166,0,0,0.95860166,447.21763,399.73689)"
       clip-path="url(#clipPath55)"><tspan
         style="font-variant:normal;font-weight:normal;font-size:11px;font-family:Helvetica;writing-mode:lr-tb;fill:#000000;fill-opacity:1;fill-rule:nonzero;stroke:none"
         x="0 2.1000977 8.2177734 14.335449 20.453125 25.953125 28.053223 31.109375 34.165527 40.283203 43.946289 47.609375 53.727051 57.390137 62.890137 65.946289 72.063965 78.181641 81.237793 87.355469 95.299316 101.41699"
         y="0"
         sodipodi:role="line"
         id="tspan54">'body', errors go away</tspan></text>
    <path
       id="path56"
       d="m 420,390 h 2.00003 v 2 H 420 m 8.00009,-2 h 2 v 2 h -2 m 8.00006,-2 h 2.00003 v 2 h -2.00003 m 8.00009,-2 h 2 v 2 h -2 m 8.00007,-2 h 2.00003 v 2 h -2.00003 m 8.00009,-2 h 2.00003 v 2 h -2.00003 m 8.00009,-2 h 2 v 2 h -2 m 8.00006,-2 h 2.00003 v 2 h -2.00003 m 8.00009,-2 h 2.00003 v 2 h -2.00003 m 8.00009,-2 h 2 v 2 h -2 m 8.00006,-2 h 2.00003 v 2 h -2.00003 m 8.0001,-2 h 2.00003 v 2 h -2.00003 m 8.00009,-2 h 2 v 2 h -2 m 8.00006,-2 h 2 v 2 h -2 m 8.00006,-2 h 2.00006 v 2 h -2.00006 m 8.00012,-2 h 2 v 2 h -2 m 8.00006,-2 h 2 v 2 h -2 m 8.00006,-2 h 2.00006 v 2 h -2.00006 m 8.00012,-2 h 2 v 2 h -2 m 8.00007,-2 h 2 v 2 h -2 m 8.00006,-2 h 2 v 2 h -2 m 8.00012,-2 h 2 v 2 h -2 m 8.00006,-2 h 2 v 2 h -2 m 8.00006,-2 h 2 v 2 h -2"
       style="fill:#000000;fill-opacity:1;fill-rule:nonzero;stroke:none"
       transform="scale(0.95859202)"
       clip-path="url(#clipPath57)" />
    <path
       id="path58"
       d="m 252.5,-61.5 h -8.75 c -5.83333,0 -8.75,3.333332 -8.75,10 v 165 c 0,6.66666 -2.91667,10 -8.75,10 h -4.37 c -2.91999,0 -1.46333,0 4.37,0 h 4.38 c 2.91333,0 4.37,3.33334 4.37,10 v 165 c 0,6.66666 2.91667,10 8.75,10 h 8.75"
       style="fill:none;stroke:#000000;stroke-width:1;stroke-linecap:butt;stroke-linejoin:miter;stroke-miterlimit:10;stroke-dasharray:none;stroke-opacity:1"
       transform="matrix(0,0.95859202,-0.95859202,0,344.13456,-106.40372)"
       clip-path="url(#clipPath59)" />
    <path
       id="path60"
       d="M 80,1 H 390 V 101 H 80 Z"
       style="fill:#dae8fc;fill-opacity:1;fill-rule:nonzero;stroke:#6c8ebf;stroke-width:1;stroke-linecap:butt;stroke-linejoin:miter;stroke-miterlimit:10;stroke-dasharray:none;stroke-opacity:1"
       transform="matrix(0.95859202,0,0,0.95859202,0.47929602,0.47929602)"
       clip-path="url(#clipPath61)" />
    <text
       id="text61"
       xml:space="preserve"
       transform="matrix(0.95860166,0,0,0.95860166,110.40395,23.965041)"
       clip-path="url(#clipPath62)"><tspan
         style="font-style:oblique;font-variant:normal;font-weight:normal;font-size:18px;font-family:Helvetica;writing-mode:lr-tb;fill:#000000;fill-opacity:1;fill-rule:nonzero;stroke:none"
         x="0 12.005859 21.005859 30.005859 40.016602 55.010742 65.021484 74.021484 79.022461 84.023438 94.03418 104.04492 109.0459 114.04688 123.04688 133.05762 143.06836 148.06934 158.58105 163.58203 173.59277 183.60352 193.61426 198.61523 208.62598 213.62695 223.6377 233.64844"
         y="0"
         sodipodi:role="line"
         id="tspan61">Assumes that you + one other</tspan></text>
    <text
       id="text62"
       xml:space="preserve"
       transform="matrix(0.95860166,0,0,0.95860166,88.101483,45.054278)"
       clip-path="url(#clipPath63)"><tspan
         style="font-style:oblique;font-variant:normal;font-weight:normal;font-size:18px;font-family:Helvetica;writing-mode:lr-tb;fill:#000000;fill-opacity:1;fill-rule:nonzero;stroke:none"
         x="0 10.010742 20.021484 30.032227 34.03125 44.041992 54.052734 64.063477 70.057617 75.058594 88.057617 92.056641 96.055664 100.05469 105.05566 115.06641 125.07715 130.07812 136.07227 146.08301 156.09375 166.10449 175.10449 180.10547 190.11621 195.11719 200.11816 210.12891 219.12891 229.13965 238.13965 243.14062 247.13965 256.13965 261.14062 266.1416 276.15234"
         y="0"
         sodipodi:role="line"
         id="tspan62">engineer will be ready at exactly the</tspan></text>
    <text
       id="text63"
       xml:space="preserve"
       transform="matrix(0.95860166,0,0,0.95860166,85.480307,66.143514)"
       clip-path="url(#clipPath64)"><tspan
         style="font-style:oblique;font-variant:normal;font-weight:normal;font-size:18px;font-family:Helvetica;writing-mode:lr-tb;fill:#000000;fill-opacity:1;fill-rule:nonzero;stroke:none"
         x="0 9 19.010742 34.004883 44.015625 49.016602 54.017578 58.016602 73.010742 83.021484 88.022461 93.023438 103.03418 108.03516 123.0293 133.04004 142.04004 152.05078 157.05176 162.05273 172.06348 182.07422 187.0752 200.07422 212.08008 217.08105 226.08105 236.0918 246.10254 256.11328 266.12402 276.13477 281.13574"
         y="0"
         sodipodi:role="line"
         id="tspan63">same time to make the DB change +</tspan></text>
    <text
       id="text64"
       xml:space="preserve"
       transform="matrix(0.95860166,0,0,0.95860166,199.83849,86.274149)"
       clip-path="url(#clipPath65)"><tspan
         style="font-style:oblique;font-variant:normal;font-weight:normal;font-size:18px;font-family:Helvetica;writing-mode:lr-tb;fill:#000000;fill-opacity:1;fill-rule:nonzero;stroke:none"
         x="0 10.010742 20.021484 30.032227 34.03125 44.041992"
         y="0"
         sodipodi:role="line"
         id="tspan64">deploy</tspan></text>
  </g>
</svg>
