<?xml version="1.0" encoding="UTF-8" standalone="no"?>
<!-- Created with Inkscape (http://www.inkscape.org/) -->

<svg
   version="1.1"
   id="svg1"
   width="460.16"
   height="109.44"
   viewBox="0 0 460.16 109.44"
   sodipodi:docname="sql-9.pdf"
   xmlns:inkscape="http://www.inkscape.org/namespaces/inkscape"
   xmlns:sodipodi="http://sodipodi.sourceforge.net/DTD/sodipodi-0.dtd"
   xmlns="http://www.w3.org/2000/svg"
   xmlns:svg="http://www.w3.org/2000/svg">
  <defs
     id="defs1">
    <clipPath
       clipPathUnits="userSpaceOnUse"
       id="clipPath2">
      <path
         d="M 0,0 H 1437.5 V 340.69647 H 0 Z"
         transform="scale(0.3346087)"
         clip-rule="evenodd"
         id="path2" />
    </clipPath>
    <clipPath
       clipPathUnits="userSpaceOnUse"
       id="clipPath3">
      <path
         d="M 0,0 H 186 V 82 H 0 Z"
         transform="matrix(0.3346087,0,0,0.3346087,99.890265,79.817567)"
         id="path3" />
    </clipPath>
    <clipPath
       clipPathUnits="userSpaceOnUse"
       id="clipPath5">
      <path
         d="M 0,0 H 1437.5 V 337.70789 H 0 Z"
         transform="scale(0.31999999)"
         clip-rule="evenodd"
         id="path5" />
    </clipPath>
    <clipPath
       clipPathUnits="userSpaceOnUse"
       id="clipPath7">
      <path
         d="M 0,0 H 1437.5 V 337.70789 H 0 Z"
         transform="matrix(0.3346087,0,0,0.3346087,-0.50000001,-0.50000001)"
         clip-rule="evenodd"
         id="path7" />
    </clipPath>
    <clipPath
       clipPathUnits="userSpaceOnUse"
       id="clipPath8">
      <path
         d="M 0,0 H 1437.5 V 337.70789 H 0 Z"
         transform="matrix(0.33460534,0,0,0.33460534,-107.75,-97)"
         clip-rule="evenodd"
         id="path8" />
    </clipPath>
    <clipPath
       clipPathUnits="userSpaceOnUse"
       id="clipPath9">
      <path
         d="M 0,0 H 246 V 82 H 0 Z"
         transform="matrix(0.3346087,0,0,0.3346087,159.78522,79.817567)"
         id="path9" />
    </clipPath>
    <clipPath
       clipPathUnits="userSpaceOnUse"
       id="clipPath11">
      <path
         d="M 0,0 H 1437.5 V 337.70789 H 0 Z"
         transform="scale(0.31999999)"
         clip-rule="evenodd"
         id="path11" />
    </clipPath>
    <clipPath
       clipPathUnits="userSpaceOnUse"
       id="clipPath13">
      <path
         d="M 0,0 H 1437.5 V 337.70789 H 0 Z"
         transform="matrix(0.3346087,0,0,0.3346087,-0.50000001,-0.50000001)"
         clip-rule="evenodd"
         id="path13" />
    </clipPath>
    <clipPath
       clipPathUnits="userSpaceOnUse"
       id="clipPath14">
      <path
         d="M 0,0 H 1437.5 V 337.70789 H 0 Z"
         transform="matrix(0.33460534,0,0,0.33460534,-179.35938,-97)"
         clip-rule="evenodd"
         id="path14" />
    </clipPath>
    <clipPath
       clipPathUnits="userSpaceOnUse"
       id="clipPath15">
      <path
         d="M 0,0 H 246 V 82 H 0 Z"
         transform="matrix(0.3346087,0,0,0.3346087,239.75669,79.817567)"
         id="path15" />
    </clipPath>
    <clipPath
       clipPathUnits="userSpaceOnUse"
       id="clipPath17">
      <path
         d="M 0,0 H 1437.5 V 337.70789 H 0 Z"
         transform="scale(0.31999999)"
         clip-rule="evenodd"
         id="path17" />
    </clipPath>
    <clipPath
       clipPathUnits="userSpaceOnUse"
       id="clipPath19">
      <path
         d="M 0,0 H 1437.5 V 337.70789 H 0 Z"
         transform="matrix(0.3346087,0,0,0.3346087,-0.50000001,-0.50000001)"
         clip-rule="evenodd"
         id="path19" />
    </clipPath>
    <clipPath
       clipPathUnits="userSpaceOnUse"
       id="clipPath20">
      <path
         d="M 0,0 H 1437.5 V 337.70789 H 0 Z"
         transform="matrix(0.33460534,0,0,0.33460534,-260.6875,-97)"
         clip-rule="evenodd"
         id="path20" />
    </clipPath>
    <clipPath
       clipPathUnits="userSpaceOnUse"
       id="clipPath21">
      <path
         d="M 0,0 H 246 V 82 H 0 Z"
         transform="matrix(0.3346087,0,0,0.3346087,319.72817,79.817567)"
         id="path21" />
    </clipPath>
    <clipPath
       clipPathUnits="userSpaceOnUse"
       id="clipPath23">
      <path
         d="M 0,0 H 1437.5 V 337.70789 H 0 Z"
         transform="scale(0.31999999)"
         clip-rule="evenodd"
         id="path23" />
    </clipPath>
    <clipPath
       clipPathUnits="userSpaceOnUse"
       id="clipPath25">
      <path
         d="M 0,0 H 1437.5 V 337.70789 H 0 Z"
         transform="matrix(0.3346087,0,0,0.3346087,-0.50000001,-0.50000001)"
         clip-rule="evenodd"
         id="path25" />
    </clipPath>
    <clipPath
       clipPathUnits="userSpaceOnUse"
       id="clipPath26">
      <path
         d="M 0,0 H 1437.5 V 337.70789 H 0 Z"
         transform="matrix(0.33460534,0,0,0.33460534,-332.625,-97)"
         clip-rule="evenodd"
         id="path26" />
    </clipPath>
    <clipPath
       clipPathUnits="userSpaceOnUse"
       id="clipPath27">
      <path
         d="M 0,0 H 229 V 82 H 0 Z"
         transform="matrix(0.3346087,0,0,0.3346087,399.69965,79.817567)"
         id="path27" />
    </clipPath>
    <clipPath
       clipPathUnits="userSpaceOnUse"
       id="clipPath29">
      <path
         d="M 0,0 H 1437.5 V 337.70789 H 0 Z"
         transform="scale(0.31999999)"
         clip-rule="evenodd"
         id="path29" />
    </clipPath>
    <clipPath
       clipPathUnits="userSpaceOnUse"
       id="clipPath31">
      <path
         d="M 0,0 H 1437.5 V 337.70789 H 0 Z"
         transform="matrix(0.3346087,0,0,0.3346087,-0.50000001,-0.50000001)"
         clip-rule="evenodd"
         id="path31" />
    </clipPath>
    <clipPath
       clipPathUnits="userSpaceOnUse"
       id="clipPath32">
      <path
         d="M 0,0 H 1437.5 V 337.70789 H 0 Z"
         transform="matrix(0.33460534,0,0,0.33460534,-422.64063,-97)"
         clip-rule="evenodd"
         id="path32" />
    </clipPath>
    <clipPath
       clipPathUnits="userSpaceOnUse"
       id="clipPath33">
      <path
         d="M 0,0 H 306 V 82 H 0 Z"
         transform="matrix(0.3346087,0,0,0.3346087,-0.15773914,-0.15391304)"
         id="path33" />
    </clipPath>
    <clipPath
       clipPathUnits="userSpaceOnUse"
       id="clipPath35">
      <path
         d="M 0,0 H 1437.5 V 337.70789 H 0 Z"
         transform="scale(0.31999999)"
         clip-rule="evenodd"
         id="path35" />
    </clipPath>
    <clipPath
       clipPathUnits="userSpaceOnUse"
       id="clipPath37">
      <path
         d="M 0,0 H 1437.5 V 337.70789 H 0 Z"
         transform="matrix(0.3346087,0,0,0.3346087,-0.50000001,-0.50000001)"
         clip-rule="evenodd"
         id="path37" />
    </clipPath>
    <clipPath
       clipPathUnits="userSpaceOnUse"
       id="clipPath38">
      <path
         d="M 0,0 H 1437.5 V 337.70789 H 0 Z"
         transform="matrix(0.33460534,0,0,0.33460534,-13.3125,-18)"
         clip-rule="evenodd"
         id="path38" />
    </clipPath>
    <clipPath
       clipPathUnits="userSpaceOnUse"
       id="clipPath39">
      <path
         d="M 0,0 H 186 V 82 H 0 Z"
         transform="matrix(0.3346087,0,0,0.3346087,99.890265,-0.15391304)"
         id="path39" />
    </clipPath>
    <clipPath
       clipPathUnits="userSpaceOnUse"
       id="clipPath41">
      <path
         d="M 0,0 H 1437.5 V 337.70789 H 0 Z"
         transform="scale(0.31999999)"
         clip-rule="evenodd"
         id="path41" />
    </clipPath>
    <clipPath
       clipPathUnits="userSpaceOnUse"
       id="clipPath43">
      <path
         d="M 0,0 H 1437.5 V 337.70789 H 0 Z"
         transform="matrix(0.3346087,0,0,0.3346087,-0.50000001,-0.50000001)"
         clip-rule="evenodd"
         id="path43" />
    </clipPath>
    <clipPath
       clipPathUnits="userSpaceOnUse"
       id="clipPath44">
      <path
         d="M 0,0 H 1437.5 V 337.70789 H 0 Z"
         transform="matrix(0.33460534,0,0,0.33460534,-117.32812,-18)"
         clip-rule="evenodd"
         id="path44" />
    </clipPath>
    <clipPath
       clipPathUnits="userSpaceOnUse"
       id="clipPath45">
      <path
         d="M 0,0 H 246 V 82 H 0 Z"
         transform="matrix(0.3346087,0,0,0.3346087,159.78522,-0.15391304)"
         id="path45" />
    </clipPath>
    <clipPath
       clipPathUnits="userSpaceOnUse"
       id="clipPath47">
      <path
         d="M 0,0 H 1437.5 V 337.70789 H 0 Z"
         transform="scale(0.31999999)"
         clip-rule="evenodd"
         id="path47" />
    </clipPath>
    <clipPath
       clipPathUnits="userSpaceOnUse"
       id="clipPath49">
      <path
         d="M 0,0 H 1437.5 V 337.70789 H 0 Z"
         transform="matrix(0.3346087,0,0,0.3346087,-0.50000001,-0.50000001)"
         clip-rule="evenodd"
         id="path49" />
    </clipPath>
    <clipPath
       clipPathUnits="userSpaceOnUse"
       id="clipPath50">
      <path
         d="M 0,0 H 1437.5 V 337.70789 H 0 Z"
         transform="matrix(0.33460534,0,0,0.33460534,-182.3125,-18)"
         clip-rule="evenodd"
         id="path50" />
    </clipPath>
    <clipPath
       clipPathUnits="userSpaceOnUse"
       id="clipPath51">
      <path
         d="M 0,0 H 246 V 82 H 0 Z"
         transform="matrix(0.3346087,0,0,0.3346087,239.75669,-0.15391304)"
         id="path51" />
    </clipPath>
    <clipPath
       clipPathUnits="userSpaceOnUse"
       id="clipPath53">
      <path
         d="M 0,0 H 1437.5 V 337.70789 H 0 Z"
         transform="scale(0.31999999)"
         clip-rule="evenodd"
         id="path53" />
    </clipPath>
    <clipPath
       clipPathUnits="userSpaceOnUse"
       id="clipPath55">
      <path
         d="M 0,0 H 1437.5 V 337.70789 H 0 Z"
         transform="matrix(0.3346087,0,0,0.3346087,-0.50000001,-0.50000001)"
         clip-rule="evenodd"
         id="path55" />
    </clipPath>
    <clipPath
       clipPathUnits="userSpaceOnUse"
       id="clipPath56">
      <path
         d="M 0,0 H 1437.5 V 337.70789 H 0 Z"
         transform="matrix(0.33460534,0,0,0.33460534,-260.09375,-18)"
         clip-rule="evenodd"
         id="path56" />
    </clipPath>
    <clipPath
       clipPathUnits="userSpaceOnUse"
       id="clipPath57">
      <path
         d="M 0,0 H 246 V 82 H 0 Z"
         transform="matrix(0.3346087,0,0,0.3346087,319.72817,-0.15391304)"
         id="path57" />
    </clipPath>
    <clipPath
       clipPathUnits="userSpaceOnUse"
       id="clipPath59">
      <path
         d="M 0,0 H 1437.5 V 337.70789 H 0 Z"
         transform="scale(0.31999999)"
         clip-rule="evenodd"
         id="path59" />
    </clipPath>
    <clipPath
       clipPathUnits="userSpaceOnUse"
       id="clipPath61">
      <path
         d="M 0,0 H 1437.5 V 337.70789 H 0 Z"
         transform="matrix(0.3346087,0,0,0.3346087,-0.50000001,-0.50000001)"
         clip-rule="evenodd"
         id="path61" />
    </clipPath>
    <clipPath
       clipPathUnits="userSpaceOnUse"
       id="clipPath62">
      <path
         d="M 0,0 H 1437.5 V 337.70789 H 0 Z"
         transform="matrix(0.33460534,0,0,0.33460534,-331.64063,-18)"
         clip-rule="evenodd"
         id="path62" />
    </clipPath>
    <clipPath
       clipPathUnits="userSpaceOnUse"
       id="clipPath63">
      <path
         d="M 0,0 H 229 V 82 H 0 Z"
         transform="matrix(0.3346087,0,0,0.3346087,399.69965,-0.15391304)"
         id="path63" />
    </clipPath>
    <clipPath
       clipPathUnits="userSpaceOnUse"
       id="clipPath65">
      <path
         d="M 0,0 H 1437.5 V 337.70789 H 0 Z"
         transform="scale(0.31999999)"
         clip-rule="evenodd"
         id="path65" />
    </clipPath>
    <clipPath
       clipPathUnits="userSpaceOnUse"
       id="clipPath67">
      <path
         d="M 0,0 H 1437.5 V 337.70789 H 0 Z"
         transform="matrix(0.3346087,0,0,0.3346087,-0.50000001,-0.50000001)"
         clip-rule="evenodd"
         id="path67" />
    </clipPath>
    <clipPath
       clipPathUnits="userSpaceOnUse"
       id="clipPath68">
      <path
         d="M 0,0 H 1437.5 V 337.70789 H 0 Z"
         transform="matrix(0.33460534,0,0,0.33460534,-423.98438,-18)"
         clip-rule="evenodd"
         id="path68" />
    </clipPath>
  </defs>
  <sodipodi:namedview
     id="namedview1"
     pagecolor="#ffffff"
     bordercolor="#000000"
     borderopacity="0.25"
     inkscape:showpageshadow="2"
     inkscape:pageopacity="0.0"
     inkscape:pagecheckerboard="0"
     inkscape:deskcolor="#d1d1d1">
    <inkscape:page
       x="0"
       y="0"
       inkscape:label="1"
       id="page1"
       width="460.16"
       height="109.44"
       margin="0"
       bleed="0" />
  </sodipodi:namedview>
  <g
     id="g1"
     inkscape:groupmode="layer"
     inkscape:label="1">
    <path
       id="path1"
       d="M 0,0 H 481 V 114 H 0 Z"
       style="fill:#ffffff;fill-opacity:1;fill-rule:nonzero;stroke:none"
       transform="scale(0.95634089)"
       clip-path="url(#clipPath2)" />
    <g
       opacity="0.25"
       id="g4"
       clip-path="url(#clipPath5)">
      <path
         d="m 101,81 h 60 v 25 h -60 z"
         style="fill:#000000;fill-opacity:1;fill-rule:nonzero;stroke:#000000;stroke-width:1;stroke-linecap:butt;stroke-linejoin:miter;stroke-miterlimit:10;stroke-dasharray:none;stroke-opacity:1"
         transform="matrix(0.95634089,0,0,0.95634089,2.3908511,3.3471935)"
         clip-path="url(#clipPath3)"
         id="path4" />
    </g>
    <path
       id="path6"
       d="m 101,81 h 60 v 25 h -60 z"
       style="fill:#dae8fc;fill-opacity:1;fill-rule:nonzero;stroke:#6c8ebf;stroke-width:1;stroke-linecap:butt;stroke-linejoin:miter;stroke-miterlimit:10;stroke-dasharray:none;stroke-opacity:1"
       transform="matrix(0.95634089,0,0,0.95634089,0.47817045,0.47817045)"
       clip-path="url(#clipPath7)" />
    <text
       id="text7"
       xml:space="preserve"
       transform="matrix(0.95635052,0,0,0.95635052,103.04677,92.766)"
       clip-path="url(#clipPath8)"><tspan
         style="font-variant:normal;font-weight:normal;font-size:12px;font-family:Helvetica;writing-mode:lr-tb;fill:#000000;fill-opacity:1;fill-rule:nonzero;stroke:none"
         x="0 7.1191406 15.123047 21.796875 30.462891 38.466797"
         y="0"
         sodipodi:role="line"
         id="tspan7">VALUES</tspan></text>
    <g
       opacity="0.25"
       id="g10"
       clip-path="url(#clipPath11)">
      <path
         d="m 161,81 h 80 v 25 h -80 z"
         style="fill:#000000;fill-opacity:1;fill-rule:nonzero;stroke:#000000;stroke-width:1;stroke-linecap:butt;stroke-linejoin:miter;stroke-miterlimit:10;stroke-dasharray:none;stroke-opacity:1"
         transform="matrix(0.95634089,0,0,0.95634089,2.3908511,3.3471935)"
         clip-path="url(#clipPath9)"
         id="path10" />
    </g>
    <path
       id="path12"
       d="m 161,81 h 80 v 25 h -80 z"
       style="fill:#ffffff;fill-opacity:1;fill-rule:nonzero;stroke:#000000;stroke-width:1;stroke-linecap:butt;stroke-linejoin:miter;stroke-miterlimit:10;stroke-dasharray:none;stroke-opacity:1"
       transform="matrix(0.95634089,0,0,0.95634089,0.47817045,0.47817045)"
       clip-path="url(#clipPath13)" />
    <text
       id="text13"
       xml:space="preserve"
       transform="matrix(0.95635052,0,0,0.95635052,171.53044,92.766)"
       clip-path="url(#clipPath14)"><tspan
         style="font-variant:normal;font-weight:normal;font-size:12px;font-family:Helvetica;writing-mode:lr-tb;fill:#000000;fill-opacity:1;fill-rule:nonzero;stroke:none"
         x="0 3.9960938 6.2871094 12.287109 18.960938 24.960938 30.960938 37.634766 39.925781"
         y="0"
         sodipodi:role="line"
         id="tspan13">('Tokyo',</tspan></text>
    <g
       opacity="0.25"
       id="g16"
       clip-path="url(#clipPath17)">
      <path
         d="m 241,81 h 80 v 25 h -80 z"
         style="fill:#000000;fill-opacity:1;fill-rule:nonzero;stroke:#000000;stroke-width:1;stroke-linecap:butt;stroke-linejoin:miter;stroke-miterlimit:10;stroke-dasharray:none;stroke-opacity:1"
         transform="matrix(0.95634089,0,0,0.95634089,2.3908607,3.3471935)"
         clip-path="url(#clipPath15)"
         id="path16" />
    </g>
    <path
       id="path18"
       d="m 241,81 h 80 v 25 h -80 z"
       style="fill:#ffffff;fill-opacity:1;fill-rule:nonzero;stroke:#000000;stroke-width:1;stroke-linecap:butt;stroke-linejoin:miter;stroke-miterlimit:10;stroke-dasharray:none;stroke-opacity:1"
       transform="matrix(0.95634089,0,0,0.95634089,0.47817045,0.47817045)"
       clip-path="url(#clipPath19)" />
    <text
       id="text19"
       xml:space="preserve"
       transform="matrix(0.95635052,0,0,0.95635052,249.30863,92.766)"
       clip-path="url(#clipPath20)"><tspan
         style="font-variant:normal;font-weight:normal;font-size:12px;font-family:Helvetica;writing-mode:lr-tb;fill:#000000;fill-opacity:1;fill-rule:nonzero;stroke:none"
         x="0 2.2910156 8.2910156 14.964844 21.638672 28.3125 34.986328 37.277344"
         y="0"
         sodipodi:role="line"
         id="tspan19">'Japan',</tspan></text>
    <g
       opacity="0.25"
       id="g22"
       clip-path="url(#clipPath23)">
      <path
         d="m 321,81 h 80 v 25 h -80 z"
         style="fill:#000000;fill-opacity:1;fill-rule:nonzero;stroke:#000000;stroke-width:1;stroke-linecap:butt;stroke-linejoin:miter;stroke-miterlimit:10;stroke-dasharray:none;stroke-opacity:1"
         transform="matrix(0.95634089,0,0,0.95634089,2.3908607,3.3471935)"
         clip-path="url(#clipPath21)"
         id="path22" />
    </g>
    <path
       id="path24"
       d="m 321,81 h 80 v 25 h -80 z"
       style="fill:#ffffff;fill-opacity:1;fill-rule:nonzero;stroke:#000000;stroke-width:1;stroke-linecap:butt;stroke-linejoin:miter;stroke-miterlimit:10;stroke-dasharray:none;stroke-opacity:1"
       transform="matrix(0.95634089,0,0,0.95634089,0.47817045,0.47817045)"
       clip-path="url(#clipPath25)" />
    <text
       id="text25"
       xml:space="preserve"
       transform="matrix(0.95635052,0,0,0.95635052,318.10609,92.766)"
       clip-path="url(#clipPath26)"><tspan
         style="font-variant:normal;font-weight:normal;font-size:12px;font-family:Helvetica;writing-mode:lr-tb;fill:#000000;fill-opacity:1;fill-rule:nonzero;stroke:none"
         x="0 6.6738281 13.347656 20.021484 26.695312 33.369141 40.042969 46.716797 53.390625"
         y="0"
         sodipodi:role="line"
         id="tspan25">38505000,</tspan></text>
    <g
       opacity="0.25"
       id="g28"
       clip-path="url(#clipPath29)">
      <path
         d="m 401,81 h 74 v 25 h -74 z"
         style="fill:#000000;fill-opacity:1;fill-rule:nonzero;stroke:#000000;stroke-width:1;stroke-linecap:butt;stroke-linejoin:miter;stroke-miterlimit:10;stroke-dasharray:none;stroke-opacity:1"
         transform="matrix(0.95634089,0,0,0.95634089,2.3908607,3.3471935)"
         clip-path="url(#clipPath27)"
         id="path28" />
    </g>
    <path
       id="path30"
       d="m 401,81 h 74 v 25 h -74 z"
       style="fill:#ffffff;fill-opacity:1;fill-rule:nonzero;stroke:#000000;stroke-width:1;stroke-linecap:butt;stroke-linejoin:miter;stroke-miterlimit:10;stroke-dasharray:none;stroke-opacity:1"
       transform="matrix(0.95634089,0,0,0.95634089,0.47817045,0.47817045)"
       clip-path="url(#clipPath31)" />
    <text
       id="text31"
       xml:space="preserve"
       transform="matrix(0.95635052,0,0,0.95635052,404.19259,92.766)"
       clip-path="url(#clipPath32)"><tspan
         style="font-variant:normal;font-weight:normal;font-size:12px;font-family:Helvetica;writing-mode:lr-tb;fill:#000000;fill-opacity:1;fill-rule:nonzero;stroke:none"
         x="0 6.6738281 13.347656 20.021484 26.695312"
         y="0"
         sodipodi:role="line"
         id="tspan31">8223)</tspan></text>
    <g
       opacity="0.25"
       id="g34"
       clip-path="url(#clipPath35)">
      <path
         d="M 1,1 H 101 V 26 H 1 Z"
         style="fill:#000000;fill-opacity:1;fill-rule:nonzero;stroke:#000000;stroke-width:1;stroke-linecap:butt;stroke-linejoin:miter;stroke-miterlimit:10;stroke-dasharray:none;stroke-opacity:1"
         transform="matrix(0.95634089,0,0,0.95634089,2.3908523,3.3471932)"
         clip-path="url(#clipPath33)"
         id="path34" />
    </g>
    <path
       id="path36"
       d="M 1,1 H 101 V 26 H 1 Z"
       style="fill:#dae8fc;fill-opacity:1;fill-rule:nonzero;stroke:#6c8ebf;stroke-width:1;stroke-linecap:butt;stroke-linejoin:miter;stroke-miterlimit:10;stroke-dasharray:none;stroke-opacity:1"
       transform="matrix(0.95634089,0,0,0.95634089,0.47817045,0.47817045)"
       clip-path="url(#clipPath37)" />
    <text
       id="text37"
       xml:space="preserve"
       transform="matrix(0.95635052,0,0,0.95635052,12.731416,17.214309)"
       clip-path="url(#clipPath38)"><tspan
         style="font-variant:normal;font-weight:normal;font-size:12px;font-family:Helvetica;writing-mode:lr-tb;fill:#000000;fill-opacity:1;fill-rule:nonzero;stroke:none"
         x="0 3.3339844 12 20.003906 28.007812 36.462891 43.582031 46.916016 50.25 58.916016 66.035156"
         y="0"
         sodipodi:role="line"
         id="tspan37">INSERT INTO</tspan></text>
    <g
       opacity="0.25"
       id="g40"
       clip-path="url(#clipPath41)">
      <path
         d="m 101,1 h 60 v 25 h -60 z"
         style="fill:#000000;fill-opacity:1;fill-rule:nonzero;stroke:#000000;stroke-width:1;stroke-linecap:butt;stroke-linejoin:miter;stroke-miterlimit:10;stroke-dasharray:none;stroke-opacity:1"
         transform="matrix(0.95634089,0,0,0.95634089,2.3908511,3.3471932)"
         clip-path="url(#clipPath39)"
         id="path40" />
    </g>
    <path
       id="path42"
       d="m 101,1 h 60 v 25 h -60 z"
       style="fill:#ffffff;fill-opacity:1;fill-rule:nonzero;stroke:#000000;stroke-width:1;stroke-linecap:butt;stroke-linejoin:miter;stroke-miterlimit:10;stroke-dasharray:none;stroke-opacity:1"
       transform="matrix(0.95634089,0,0,0.95634089,0.47817045,0.47817045)"
       clip-path="url(#clipPath43)" />
    <text
       id="text43"
       xml:space="preserve"
       transform="matrix(0.95635052,0,0,0.95635052,112.20681,17.214309)"
       clip-path="url(#clipPath44)"><tspan
         style="font-variant:normal;font-weight:normal;font-size:12px;font-family:Helvetica;writing-mode:lr-tb;fill:#000000;fill-opacity:1;fill-rule:nonzero;stroke:none"
         x="0 6 8.6660156 12 14.666016 21.339844"
         y="0"
         sodipodi:role="line"
         id="tspan43">cities</tspan></text>
    <g
       opacity="0.25"
       id="g46"
       clip-path="url(#clipPath47)">
      <path
         d="m 161,1 h 80 v 25 h -80 z"
         style="fill:#000000;fill-opacity:1;fill-rule:nonzero;stroke:#000000;stroke-width:1;stroke-linecap:butt;stroke-linejoin:miter;stroke-miterlimit:10;stroke-dasharray:none;stroke-opacity:1"
         transform="matrix(0.95634089,0,0,0.95634089,2.3908511,3.3471932)"
         clip-path="url(#clipPath45)"
         id="path46" />
    </g>
    <path
       id="path48"
       d="m 161,1 h 80 v 25 h -80 z"
       style="fill:#ffffff;fill-opacity:1;fill-rule:nonzero;stroke:#000000;stroke-width:1;stroke-linecap:butt;stroke-linejoin:miter;stroke-miterlimit:10;stroke-dasharray:none;stroke-opacity:1"
       transform="matrix(0.95634089,0,0,0.95634089,0.47817045,0.47817045)"
       clip-path="url(#clipPath49)" />
    <text
       id="text49"
       xml:space="preserve"
       transform="matrix(0.95635052,0,0,0.95635052,174.35465,17.214309)"
       clip-path="url(#clipPath50)"><tspan
         style="font-variant:normal;font-weight:normal;font-size:12px;font-family:Helvetica;writing-mode:lr-tb;fill:#000000;fill-opacity:1;fill-rule:nonzero;stroke:none"
         x="0 3.9960938 10.669922 17.34375 27.339844 34.013672"
         y="0"
         sodipodi:role="line"
         id="tspan49">(name,</tspan></text>
    <g
       opacity="0.25"
       id="g52"
       clip-path="url(#clipPath53)">
      <path
         d="m 241,1 h 80 v 25 h -80 z"
         style="fill:#000000;fill-opacity:1;fill-rule:nonzero;stroke:#000000;stroke-width:1;stroke-linecap:butt;stroke-linejoin:miter;stroke-miterlimit:10;stroke-dasharray:none;stroke-opacity:1"
         transform="matrix(0.95634089,0,0,0.95634089,2.3908607,3.3471932)"
         clip-path="url(#clipPath51)"
         id="path52" />
    </g>
    <path
       id="path54"
       d="m 241,1 h 80 v 25 h -80 z"
       style="fill:#ffffff;fill-opacity:1;fill-rule:nonzero;stroke:#000000;stroke-width:1;stroke-linecap:butt;stroke-linejoin:miter;stroke-miterlimit:10;stroke-dasharray:none;stroke-opacity:1"
       transform="matrix(0.95634089,0,0,0.95634089,0.47817045,0.47817045)"
       clip-path="url(#clipPath55)" />
    <text
       id="text55"
       xml:space="preserve"
       transform="matrix(0.95635052,0,0,0.95635052,248.74079,17.214309)"
       clip-path="url(#clipPath56)"><tspan
         style="font-variant:normal;font-weight:normal;font-size:12px;font-family:Helvetica;writing-mode:lr-tb;fill:#000000;fill-opacity:1;fill-rule:nonzero;stroke:none"
         x="0 6 12.673828 19.347656 26.021484 29.355469 33.351562 38.466797"
         y="0"
         sodipodi:role="line"
         id="tspan55">country,</tspan></text>
    <g
       opacity="0.25"
       id="g58"
       clip-path="url(#clipPath59)">
      <path
         d="m 321,1 h 80 v 25 h -80 z"
         style="fill:#000000;fill-opacity:1;fill-rule:nonzero;stroke:#000000;stroke-width:1;stroke-linecap:butt;stroke-linejoin:miter;stroke-miterlimit:10;stroke-dasharray:none;stroke-opacity:1"
         transform="matrix(0.95634089,0,0,0.95634089,2.3908607,3.3471932)"
         clip-path="url(#clipPath57)"
         id="path58" />
    </g>
    <path
       id="path60"
       d="m 321,1 h 80 v 25 h -80 z"
       style="fill:#ffffff;fill-opacity:1;fill-rule:nonzero;stroke:#000000;stroke-width:1;stroke-linecap:butt;stroke-linejoin:miter;stroke-miterlimit:10;stroke-dasharray:none;stroke-opacity:1"
       transform="matrix(0.95634089,0,0,0.95634089,0.47817045,0.47817045)"
       clip-path="url(#clipPath61)" />
    <text
       id="text61"
       xml:space="preserve"
       transform="matrix(0.95635052,0,0,0.95635052,317.16469,17.214309)"
       clip-path="url(#clipPath62)"><tspan
         style="font-variant:normal;font-weight:normal;font-size:12px;font-family:Helvetica;writing-mode:lr-tb;fill:#000000;fill-opacity:1;fill-rule:nonzero;stroke:none"
         x="0 6.6738281 13.347656 20.021484 26.695312 29.361328 36.035156 39.369141 42.035156 48.708984 55.382812"
         y="0"
         sodipodi:role="line"
         id="tspan61">population,</tspan></text>
    <g
       opacity="0.25"
       id="g64"
       clip-path="url(#clipPath65)">
      <path
         d="m 401,1 h 74 v 25 h -74 z"
         style="fill:#000000;fill-opacity:1;fill-rule:nonzero;stroke:#000000;stroke-width:1;stroke-linecap:butt;stroke-linejoin:miter;stroke-miterlimit:10;stroke-dasharray:none;stroke-opacity:1"
         transform="matrix(0.95634089,0,0,0.95634089,2.3908607,3.3471932)"
         clip-path="url(#clipPath63)"
         id="path64" />
    </g>
    <path
       id="path66"
       d="m 401,1 h 74 v 25 h -74 z"
       style="fill:#ffffff;fill-opacity:1;fill-rule:nonzero;stroke:#000000;stroke-width:1;stroke-linecap:butt;stroke-linejoin:miter;stroke-miterlimit:10;stroke-dasharray:none;stroke-opacity:1"
       transform="matrix(0.95634089,0,0,0.95634089,0.47817045,0.47817045)"
       clip-path="url(#clipPath67)" />
    <text
       id="text67"
       xml:space="preserve"
       transform="matrix(0.95635052,0,0,0.95635052,405.47768,17.214309)"
       clip-path="url(#clipPath68)"><tspan
         style="font-variant:normal;font-weight:normal;font-size:12px;font-family:Helvetica;writing-mode:lr-tb;fill:#000000;fill-opacity:1;fill-rule:nonzero;stroke:none"
         x="0 6.6738281 10.669922 17.34375 24.017578"
         y="0"
         sodipodi:role="line"
         id="tspan67">area)</tspan></text>
  </g>
</svg>
