<?xml version="1.0" encoding="UTF-8" standalone="no"?>
<!-- Created with Inkscape (http://www.inkscape.org/) -->

<svg
   version="1.1"
   id="svg1"
   width="568"
   height="302.72"
   viewBox="0 0 568 302.72"
   sodipodi:docname="sql-15.pdf"
   xmlns:inkscape="http://www.inkscape.org/namespaces/inkscape"
   xmlns:sodipodi="http://sodipodi.sourceforge.net/DTD/sodipodi-0.dtd"
   xmlns="http://www.w3.org/2000/svg"
   xmlns:svg="http://www.w3.org/2000/svg">
  <defs
     id="defs1">
    <clipPath
       clipPathUnits="userSpaceOnUse"
       id="clipPath2">
      <path
         d="M 0,0 H 1775 V 944.27606 H 0 Z"
         transform="scale(0.3346479)"
         clip-rule="evenodd"
         id="path2" />
    </clipPath>
    <clipPath
       clipPathUnits="userSpaceOnUse"
       id="clipPath4">
      <path
         d="M 0,0 H 1775 V 938.29962 H 0 Z"
         transform="scale(0.3346479)"
         clip-rule="evenodd"
         id="path4" />
    </clipPath>
    <clipPath
       clipPathUnits="userSpaceOnUse"
       id="clipPath6">
      <path
         d="M 0,0 H 1775 V 938.29962 H 0 Z"
         transform="scale(0.3346479)"
         clip-rule="evenodd"
         id="path6" />
    </clipPath>
    <clipPath
       clipPathUnits="userSpaceOnUse"
       id="clipPath8">
      <path
         d="M 0,0 H 1775 V 938.29962 H 0 Z"
         transform="matrix(0.3346479,0,0,0.3346479,-0.50000001,-0.50000001)"
         clip-rule="evenodd"
         id="path8" />
    </clipPath>
    <clipPath
       clipPathUnits="userSpaceOnUse"
       id="clipPath9">
      <path
         d="M 0,0 H 1775 V 938.29962 H 0 Z"
         transform="matrix(0.33464453,0,0,0.33464453,-52.53125,-80)"
         clip-rule="evenodd"
         id="path9" />
    </clipPath>
    <clipPath
       clipPathUnits="userSpaceOnUse"
       id="clipPath11">
      <path
         d="M 0,0 H 1775 V 938.29962 H 0 Z"
         transform="scale(0.3346479)"
         clip-rule="evenodd"
         id="path11" />
    </clipPath>
    <clipPath
       clipPathUnits="userSpaceOnUse"
       id="clipPath13">
      <path
         d="M 0,0 H 1775 V 938.29962 H 0 Z"
         transform="scale(0.3346479)"
         clip-rule="evenodd"
         id="path13" />
    </clipPath>
    <clipPath
       clipPathUnits="userSpaceOnUse"
       id="clipPath15">
      <path
         d="M 0,0 H 1775 V 938.29962 H 0 Z"
         transform="matrix(0.3346479,0,0,0.3346479,-0.50000001,-0.50000001)"
         clip-rule="evenodd"
         id="path15" />
    </clipPath>
    <clipPath
       clipPathUnits="userSpaceOnUse"
       id="clipPath16">
      <path
         d="M 0,0 H 1775 V 938.29962 H 0 Z"
         transform="matrix(0.33464453,0,0,0.33464453,-56.15625,-150)"
         clip-rule="evenodd"
         id="path16" />
    </clipPath>
    <clipPath
       clipPathUnits="userSpaceOnUse"
       id="clipPath18">
      <path
         d="M 0,0 H 1775 V 938.29962 H 0 Z"
         transform="scale(0.3346479)"
         clip-rule="evenodd"
         id="path18" />
    </clipPath>
    <clipPath
       clipPathUnits="userSpaceOnUse"
       id="clipPath20">
      <path
         d="M 0,0 H 1775 V 938.29962 H 0 Z"
         transform="scale(0.3346479)"
         clip-rule="evenodd"
         id="path20" />
    </clipPath>
    <clipPath
       clipPathUnits="userSpaceOnUse"
       id="clipPath22">
      <path
         d="M 0,0 H 1775 V 938.29962 H 0 Z"
         transform="matrix(0.3346479,0,0,0.3346479,-0.50000001,-0.50000001)"
         clip-rule="evenodd"
         id="path22" />
    </clipPath>
    <clipPath
       clipPathUnits="userSpaceOnUse"
       id="clipPath23">
      <path
         d="M 0,0 H 1775 V 938.29962 H 0 Z"
         transform="matrix(0.33464453,0,0,0.33464453,-55.34375,-220)"
         clip-rule="evenodd"
         id="path23" />
    </clipPath>
    <clipPath
       clipPathUnits="userSpaceOnUse"
       id="clipPath25">
      <path
         d="M 0,0 H 1775 V 938.29962 H 0 Z"
         transform="scale(0.3346479)"
         clip-rule="evenodd"
         id="path25" />
    </clipPath>
    <clipPath
       clipPathUnits="userSpaceOnUse"
       id="clipPath27">
      <path
         d="M 0,0 H 1775 V 938.29962 H 0 Z"
         transform="scale(0.3346479)"
         clip-rule="evenodd"
         id="path27" />
    </clipPath>
    <clipPath
       clipPathUnits="userSpaceOnUse"
       id="clipPath29">
      <path
         d="M 0,0 H 1775 V 938.29962 H 0 Z"
         transform="matrix(0.3346479,0,0,0.3346479,-0.50000001,-0.50000001)"
         clip-rule="evenodd"
         id="path29" />
    </clipPath>
    <clipPath
       clipPathUnits="userSpaceOnUse"
       id="clipPath30">
      <path
         d="M 0,0 H 1775 V 938.29962 H 0 Z"
         transform="matrix(0.33464453,0,0,0.33464453,-56.96875,-290)"
         clip-rule="evenodd"
         id="path30" />
    </clipPath>
    <clipPath
       clipPathUnits="userSpaceOnUse"
       id="clipPath32">
      <path
         d="M 0,0 H 1775 V 938.29962 H 0 Z"
         transform="matrix(0.3346479,0,0,0.3346479,-0.50000001,-0.50000001)"
         clip-rule="evenodd"
         id="path32" />
    </clipPath>
    <clipPath
       clipPathUnits="userSpaceOnUse"
       id="clipPath33">
      <path
         d="M 0,0 H 1775 V 938.29962 H 0 Z"
         transform="matrix(0.33464453,0,0,0.33464453,-191.45313,-78)"
         clip-rule="evenodd"
         id="path33" />
    </clipPath>
    <clipPath
       clipPathUnits="userSpaceOnUse"
       id="clipPath35">
      <path
         d="M 0,0 H 1775 V 938.29962 H 0 Z"
         transform="matrix(0.3346479,0,0,0.3346479,-0.50000001,-0.50000001)"
         clip-rule="evenodd"
         id="path35" />
    </clipPath>
    <clipPath
       clipPathUnits="userSpaceOnUse"
       id="clipPath36">
      <path
         d="M 0,0 H 1775 V 938.29962 H 0 Z"
         transform="matrix(0.33464453,0,0,0.33464453,-175.60938,-148)"
         clip-rule="evenodd"
         id="path36" />
    </clipPath>
    <clipPath
       clipPathUnits="userSpaceOnUse"
       id="clipPath38">
      <path
         d="M 0,0 H 1775 V 938.29962 H 0 Z"
         transform="matrix(0.3346479,0,0,0.3346479,-0.50000001,-0.50000001)"
         clip-rule="evenodd"
         id="path38" />
    </clipPath>
    <clipPath
       clipPathUnits="userSpaceOnUse"
       id="clipPath39">
      <path
         d="M 0,0 H 1775 V 938.29962 H 0 Z"
         transform="matrix(0.33464453,0,0,0.33464453,-178.79688,-218)"
         clip-rule="evenodd"
         id="path39" />
    </clipPath>
    <clipPath
       clipPathUnits="userSpaceOnUse"
       id="clipPath41">
      <path
         d="M 0,0 H 1775 V 938.29962 H 0 Z"
         transform="matrix(0.3346479,0,0,0.3346479,-0.50000001,-0.50000001)"
         clip-rule="evenodd"
         id="path41" />
    </clipPath>
    <clipPath
       clipPathUnits="userSpaceOnUse"
       id="clipPath42">
      <path
         d="M 0,0 H 1775 V 938.29962 H 0 Z"
         transform="matrix(0.33464453,0,0,0.33464453,-184.59375,-288)"
         clip-rule="evenodd"
         id="path42" />
    </clipPath>
    <clipPath
       clipPathUnits="userSpaceOnUse"
       id="clipPath43">
      <path
         d="M 0,0 H 1775 V 938.29962 H 0 Z"
         transform="matrix(0.33464453,0,0,0.33464453,-195.25,-27)"
         clip-rule="evenodd"
         id="path43" />
    </clipPath>
    <clipPath
       clipPathUnits="userSpaceOnUse"
       id="clipPath45">
      <path
         d="M 0,0 H 1775 V 938.29962 H 0 Z"
         transform="scale(0.3346479)"
         clip-rule="evenodd"
         id="path45" />
    </clipPath>
    <clipPath
       clipPathUnits="userSpaceOnUse"
       id="clipPath47">
      <path
         d="M 0,0 H 1775 V 938.29962 H 0 Z"
         transform="scale(0.3346479)"
         clip-rule="evenodd"
         id="path47" />
    </clipPath>
    <clipPath
       clipPathUnits="userSpaceOnUse"
       id="clipPath49">
      <path
         d="M 0,0 H 1775 V 938.29962 H 0 Z"
         transform="matrix(0.3346479,0,0,0.3346479,-0.50000001,-0.50000001)"
         clip-rule="evenodd"
         id="path49" />
    </clipPath>
    <clipPath
       clipPathUnits="userSpaceOnUse"
       id="clipPath50">
      <path
         d="M 0,0 H 1775 V 938.29962 H 0 Z"
         transform="matrix(0.33464453,0,0,0.33464453,-372.53125,-80)"
         clip-rule="evenodd"
         id="path50" />
    </clipPath>
    <clipPath
       clipPathUnits="userSpaceOnUse"
       id="clipPath52">
      <path
         d="M 0,0 H 1775 V 938.29962 H 0 Z"
         transform="scale(0.3346479)"
         clip-rule="evenodd"
         id="path52" />
    </clipPath>
    <clipPath
       clipPathUnits="userSpaceOnUse"
       id="clipPath54">
      <path
         d="M 0,0 H 1775 V 938.29962 H 0 Z"
         transform="scale(0.3346479)"
         clip-rule="evenodd"
         id="path54" />
    </clipPath>
    <clipPath
       clipPathUnits="userSpaceOnUse"
       id="clipPath56">
      <path
         d="M 0,0 H 1775 V 938.29962 H 0 Z"
         transform="matrix(0.3346479,0,0,0.3346479,-0.50000001,-0.50000001)"
         clip-rule="evenodd"
         id="path56" />
    </clipPath>
    <clipPath
       clipPathUnits="userSpaceOnUse"
       id="clipPath57">
      <path
         d="M 0,0 H 1775 V 938.29962 H 0 Z"
         transform="matrix(0.33464453,0,0,0.33464453,-372.90625,-150)"
         clip-rule="evenodd"
         id="path57" />
    </clipPath>
    <clipPath
       clipPathUnits="userSpaceOnUse"
       id="clipPath59">
      <path
         d="M 0,0 H 1775 V 938.29962 H 0 Z"
         transform="scale(0.3346479)"
         clip-rule="evenodd"
         id="path59" />
    </clipPath>
    <clipPath
       clipPathUnits="userSpaceOnUse"
       id="clipPath61">
      <path
         d="M 0,0 H 1775 V 938.29962 H 0 Z"
         transform="scale(0.3346479)"
         clip-rule="evenodd"
         id="path61" />
    </clipPath>
    <clipPath
       clipPathUnits="userSpaceOnUse"
       id="clipPath63">
      <path
         d="M 0,0 H 1775 V 938.29962 H 0 Z"
         transform="matrix(0.3346479,0,0,0.3346479,-0.50000001,-0.50000001)"
         clip-rule="evenodd"
         id="path63" />
    </clipPath>
    <clipPath
       clipPathUnits="userSpaceOnUse"
       id="clipPath64">
      <path
         d="M 0,0 H 1775 V 938.29962 H 0 Z"
         transform="matrix(0.33464453,0,0,0.33464453,-366.85938,-220)"
         clip-rule="evenodd"
         id="path64" />
    </clipPath>
    <clipPath
       clipPathUnits="userSpaceOnUse"
       id="clipPath66">
      <path
         d="M 0,0 H 1775 V 938.29962 H 0 Z"
         transform="scale(0.3346479)"
         clip-rule="evenodd"
         id="path66" />
    </clipPath>
    <clipPath
       clipPathUnits="userSpaceOnUse"
       id="clipPath68">
      <path
         d="M 0,0 H 1775 V 938.29962 H 0 Z"
         transform="scale(0.3346479)"
         clip-rule="evenodd"
         id="path68" />
    </clipPath>
    <clipPath
       clipPathUnits="userSpaceOnUse"
       id="clipPath70">
      <path
         d="M 0,0 H 1775 V 938.29962 H 0 Z"
         transform="matrix(0.3346479,0,0,0.3346479,-0.50000001,-0.50000001)"
         clip-rule="evenodd"
         id="path70" />
    </clipPath>
    <clipPath
       clipPathUnits="userSpaceOnUse"
       id="clipPath71">
      <path
         d="M 0,0 H 1775 V 938.29962 H 0 Z"
         transform="matrix(0.33464453,0,0,0.33464453,-368.09375,-290)"
         clip-rule="evenodd"
         id="path71" />
    </clipPath>
    <clipPath
       clipPathUnits="userSpaceOnUse"
       id="clipPath73">
      <path
         d="M 0,0 H 1775 V 938.29962 H 0 Z"
         transform="matrix(0.3346479,0,0,0.3346479,-0.50000001,-0.50000001)"
         clip-rule="evenodd"
         id="path73" />
    </clipPath>
    <clipPath
       clipPathUnits="userSpaceOnUse"
       id="clipPath74">
      <path
         d="M 0,0 H 1775 V 938.29962 H 0 Z"
         transform="matrix(0.33464453,0,0,0.33464453,-490.84375,-78)"
         clip-rule="evenodd"
         id="path74" />
    </clipPath>
    <clipPath
       clipPathUnits="userSpaceOnUse"
       id="clipPath76">
      <path
         d="M 0,0 H 1775 V 938.29962 H 0 Z"
         transform="matrix(0.3346479,0,0,0.3346479,-0.50000001,-0.50000001)"
         clip-rule="evenodd"
         id="path76" />
    </clipPath>
    <clipPath
       clipPathUnits="userSpaceOnUse"
       id="clipPath77">
      <path
         d="M 0,0 H 1775 V 938.29962 H 0 Z"
         transform="matrix(0.33464453,0,0,0.33464453,-477.65625,-148)"
         clip-rule="evenodd"
         id="path77" />
    </clipPath>
    <clipPath
       clipPathUnits="userSpaceOnUse"
       id="clipPath79">
      <path
         d="M 0,0 H 1775 V 938.29962 H 0 Z"
         transform="matrix(0.3346479,0,0,0.3346479,-0.50000001,-0.50000001)"
         clip-rule="evenodd"
         id="path79" />
    </clipPath>
    <clipPath
       clipPathUnits="userSpaceOnUse"
       id="clipPath80">
      <path
         d="M 0,0 H 1775 V 938.29962 H 0 Z"
         transform="matrix(0.33464453,0,0,0.33464453,-494.01562,-207)"
         clip-rule="evenodd"
         id="path80" />
    </clipPath>
    <clipPath
       clipPathUnits="userSpaceOnUse"
       id="clipPath81">
      <path
         d="M 0,0 H 1775 V 938.29962 H 0 Z"
         transform="matrix(0.33464453,0,0,0.33464453,-507.39064,-230)"
         clip-rule="evenodd"
         id="path81" />
    </clipPath>
    <clipPath
       clipPathUnits="userSpaceOnUse"
       id="clipPath83">
      <path
         d="M 0,0 H 1775 V 938.29962 H 0 Z"
         transform="matrix(0.3346479,0,0,0.3346479,-0.50000001,-0.50000001)"
         clip-rule="evenodd"
         id="path83" />
    </clipPath>
    <clipPath
       clipPathUnits="userSpaceOnUse"
       id="clipPath84">
      <path
         d="M 0,0 H 1775 V 938.29962 H 0 Z"
         transform="matrix(0.33464453,0,0,0.33464453,-484.53125,-288)"
         clip-rule="evenodd"
         id="path84" />
    </clipPath>
  </defs>
  <sodipodi:namedview
     id="namedview1"
     pagecolor="#ffffff"
     bordercolor="#000000"
     borderopacity="0.25"
     inkscape:showpageshadow="2"
     inkscape:pageopacity="0.0"
     inkscape:pagecheckerboard="0"
     inkscape:deskcolor="#d1d1d1">
    <inkscape:page
       x="0"
       y="0"
       inkscape:label="1"
       id="page1"
       width="568"
       height="302.72"
       margin="0"
       bleed="0" />
  </sodipodi:namedview>
  <g
     id="g1"
     inkscape:groupmode="layer"
     inkscape:label="1">
    <path
       id="path1"
       d="M 0,0 H 594 V 316 H 0 Z"
       style="fill:#ffffff;fill-opacity:1;fill-rule:nonzero;stroke:none"
       transform="scale(0.95622889)"
       clip-path="url(#clipPath2)" />
    <path
       id="path3"
       d="m 121,71 h 20 -10 11.77"
       style="fill:none;stroke:#000000;stroke-width:1;stroke-linecap:butt;stroke-linejoin:miter;stroke-miterlimit:10;stroke-dasharray:none;stroke-opacity:1"
       transform="scale(0.95622889)"
       clip-path="url(#clipPath4)" />
    <path
       id="path5"
       d="m 148.77,71 -8,4 2,-4 -2,-4 z"
       style="fill:#000000;fill-opacity:1;fill-rule:nonzero;stroke:#000000;stroke-width:1;stroke-linecap:butt;stroke-linejoin:miter;stroke-miterlimit:10;stroke-dasharray:none;stroke-opacity:1"
       transform="scale(0.95622889)"
       clip-path="url(#clipPath6)" />
    <path
       id="path7"
       d="m 1,41 h 120 v 60 H 1 Z"
       style="fill:#dae8fc;fill-opacity:1;fill-rule:nonzero;stroke:#6c8ebf;stroke-width:1;stroke-linecap:butt;stroke-linejoin:miter;stroke-miterlimit:10;stroke-dasharray:none;stroke-opacity:1"
       transform="matrix(0.95622889,0,0,0.95622889,0.47811445,0.47811445)"
       clip-path="url(#clipPath8)" />
    <text
       id="text8"
       xml:space="preserve"
       transform="matrix(0.95623852,0,0,0.95623852,50.232405,76.499082)"
       clip-path="url(#clipPath9)"><tspan
         style="font-variant:normal;font-weight:700;font-size:29px;font-family:Helvetica;writing-mode:lr-tb;fill:#000000;fill-opacity:1;fill-rule:nonzero;stroke:none"
         x="0"
         y="0"
         id="tspan8">+</tspan></text>
    <path
       id="path10"
       d="m 121,141 h 20 -10 11.77"
       style="fill:none;stroke:#000000;stroke-width:1;stroke-linecap:butt;stroke-linejoin:miter;stroke-miterlimit:10;stroke-dasharray:none;stroke-opacity:1"
       transform="scale(0.95622889)"
       clip-path="url(#clipPath11)" />
    <path
       id="path12"
       d="m 148.77,141 -8,4 2,-4 -2,-4 z"
       style="fill:#000000;fill-opacity:1;fill-rule:nonzero;stroke:#000000;stroke-width:1;stroke-linecap:butt;stroke-linejoin:miter;stroke-miterlimit:10;stroke-dasharray:none;stroke-opacity:1"
       transform="scale(0.95622889)"
       clip-path="url(#clipPath13)" />
    <path
       id="path14"
       d="m 1,111 h 120 v 60 H 1 Z"
       style="fill:#dae8fc;fill-opacity:1;fill-rule:nonzero;stroke:#6c8ebf;stroke-width:1;stroke-linecap:butt;stroke-linejoin:miter;stroke-miterlimit:10;stroke-dasharray:none;stroke-opacity:1"
       transform="matrix(0.95622889,0,0,0.95622889,0.47811445,0.47811445)"
       clip-path="url(#clipPath15)" />
    <text
       id="text15"
       xml:space="preserve"
       transform="matrix(0.95623852,0,0,0.95623852,53.698769,143.43578)"
       clip-path="url(#clipPath16)"><tspan
         style="font-variant:normal;font-weight:700;font-size:29px;font-family:Helvetica;writing-mode:lr-tb;fill:#000000;fill-opacity:1;fill-rule:nonzero;stroke:none"
         x="0"
         y="0"
         id="tspan15">-</tspan></text>
    <path
       id="path17"
       d="m 121,211 h 20 -10 11.77"
       style="fill:none;stroke:#000000;stroke-width:1;stroke-linecap:butt;stroke-linejoin:miter;stroke-miterlimit:10;stroke-dasharray:none;stroke-opacity:1"
       transform="scale(0.95622889)"
       clip-path="url(#clipPath18)" />
    <path
       id="path19"
       d="m 148.77,211 -8,4 2,-4 -2,-4 z"
       style="fill:#000000;fill-opacity:1;fill-rule:nonzero;stroke:#000000;stroke-width:1;stroke-linecap:butt;stroke-linejoin:miter;stroke-miterlimit:10;stroke-dasharray:none;stroke-opacity:1"
       transform="scale(0.95622889)"
       clip-path="url(#clipPath20)" />
    <path
       id="path21"
       d="m 1,181 h 120 v 60 H 1 Z"
       style="fill:#dae8fc;fill-opacity:1;fill-rule:nonzero;stroke:#6c8ebf;stroke-width:1;stroke-linecap:butt;stroke-linejoin:miter;stroke-miterlimit:10;stroke-dasharray:none;stroke-opacity:1"
       transform="matrix(0.95622889,0,0,0.95622889,0.47811445,0.47811445)"
       clip-path="url(#clipPath22)" />
    <text
       id="text22"
       xml:space="preserve"
       transform="matrix(0.95623852,0,0,0.95623852,52.921826,210.37247)"
       clip-path="url(#clipPath23)"><tspan
         style="font-variant:normal;font-weight:700;font-size:29px;font-family:Helvetica;writing-mode:lr-tb;fill:#000000;fill-opacity:1;fill-rule:nonzero;stroke:none"
         x="0"
         y="0"
         id="tspan22">*</tspan></text>
    <path
       id="path24"
       d="m 121,281 h 20 -10 11.77"
       style="fill:none;stroke:#000000;stroke-width:1;stroke-linecap:butt;stroke-linejoin:miter;stroke-miterlimit:10;stroke-dasharray:none;stroke-opacity:1"
       transform="scale(0.95622889)"
       clip-path="url(#clipPath25)" />
    <path
       id="path26"
       d="m 148.77,281 -8,4 2,-4 -2,-4 z"
       style="fill:#000000;fill-opacity:1;fill-rule:nonzero;stroke:#000000;stroke-width:1;stroke-linecap:butt;stroke-linejoin:miter;stroke-miterlimit:10;stroke-dasharray:none;stroke-opacity:1"
       transform="scale(0.95622889)"
       clip-path="url(#clipPath27)" />
    <path
       id="path28"
       d="m 1,251 h 120 v 60 H 1 Z"
       style="fill:#dae8fc;fill-opacity:1;fill-rule:nonzero;stroke:#6c8ebf;stroke-width:1;stroke-linecap:butt;stroke-linejoin:miter;stroke-miterlimit:10;stroke-dasharray:none;stroke-opacity:1"
       transform="matrix(0.95622889,0,0,0.95622889,0.47811445,0.47811445)"
       clip-path="url(#clipPath29)" />
    <text
       id="text29"
       xml:space="preserve"
       transform="matrix(0.95623852,0,0,0.95623852,54.475713,277.30917)"
       clip-path="url(#clipPath30)"><tspan
         style="font-variant:normal;font-weight:700;font-size:29px;font-family:Helvetica;writing-mode:lr-tb;fill:#000000;fill-opacity:1;fill-rule:nonzero;stroke:none"
         x="0"
         y="0"
         id="tspan29">/</tspan></text>
    <path
       id="path31"
       d="m 151,41 h 120 v 60 H 151 Z"
       style="fill:#ffffff;fill-opacity:1;fill-rule:nonzero;stroke:#000000;stroke-width:1;stroke-linecap:butt;stroke-linejoin:miter;stroke-miterlimit:10;stroke-dasharray:none;stroke-opacity:1"
       transform="matrix(0.95622889,0,0,0.95622889,0.47811445,0.47811445)"
       clip-path="url(#clipPath32)" />
    <text
       id="text32"
       xml:space="preserve"
       transform="matrix(0.95623852,0,0,0.95623852,183.07486,74.586605)"
       clip-path="url(#clipPath33)"><tspan
         style="font-variant:normal;font-weight:normal;font-size:19px;font-family:Helvetica;writing-mode:lr-tb;fill:#000000;fill-opacity:1;fill-rule:nonzero;stroke:none"
         x="0 12.672852 23.239746 33.806641"
         y="0"
         sodipodi:role="line"
         id="tspan32">Add </tspan></text>
    <path
       id="path34"
       d="m 151,111 h 120 v 60 H 151 Z"
       style="fill:#ffffff;fill-opacity:1;fill-rule:nonzero;stroke:#000000;stroke-width:1;stroke-linecap:butt;stroke-linejoin:miter;stroke-miterlimit:10;stroke-dasharray:none;stroke-opacity:1"
       transform="matrix(0.95622889,0,0,0.95622889,0.47811445,0.47811445)"
       clip-path="url(#clipPath35)" />
    <text
       id="text35"
       xml:space="preserve"
       transform="matrix(0.95623852,0,0,0.95623852,167.92445,141.5233)"
       clip-path="url(#clipPath36)"><tspan
         style="font-variant:normal;font-weight:normal;font-size:19px;font-family:Helvetica;writing-mode:lr-tb;fill:#000000;fill-opacity:1;fill-rule:nonzero;stroke:none"
         x="0 12.672852 23.239746 33.806641 39.085449 45.412598 55.979492 65.479492"
         y="0"
         sodipodi:role="line"
         id="tspan35">Subtract</tspan></text>
    <path
       id="path37"
       d="m 151,181 h 120 v 60 H 151 Z"
       style="fill:#ffffff;fill-opacity:1;fill-rule:nonzero;stroke:#000000;stroke-width:1;stroke-linecap:butt;stroke-linejoin:miter;stroke-miterlimit:10;stroke-dasharray:none;stroke-opacity:1"
       transform="matrix(0.95622889,0,0,0.95622889,0.47811445,0.47811445)"
       clip-path="url(#clipPath38)" />
    <text
       id="text38"
       xml:space="preserve"
       transform="matrix(0.95623852,0,0,0.95623852,170.97246,208.46)"
       clip-path="url(#clipPath39)"><tspan
         style="font-variant:normal;font-weight:normal;font-size:19px;font-family:Helvetica;writing-mode:lr-tb;fill:#000000;fill-opacity:1;fill-rule:nonzero;stroke:none"
         x="0 15.827148 26.394043 30.615234 35.894043 40.115234 50.682129 54.90332"
         y="0"
         sodipodi:role="line"
         id="tspan38">Multiply</tspan></text>
    <path
       id="path40"
       d="m 151,251 h 120 v 60 H 151 Z"
       style="fill:#ffffff;fill-opacity:1;fill-rule:nonzero;stroke:#000000;stroke-width:1;stroke-linecap:butt;stroke-linejoin:miter;stroke-miterlimit:10;stroke-dasharray:none;stroke-opacity:1"
       transform="matrix(0.95622889,0,0,0.95622889,0.47811445,0.47811445)"
       clip-path="url(#clipPath41)" />
    <text
       id="text41"
       xml:space="preserve"
       transform="matrix(0.95623852,0,0,0.95623852,176.51565,275.39669)"
       clip-path="url(#clipPath42)"><tspan
         style="font-variant:normal;font-weight:normal;font-size:19px;font-family:Helvetica;writing-mode:lr-tb;fill:#000000;fill-opacity:1;fill-rule:nonzero;stroke:none"
         x="0 13.721191 17.942383 27.442383 31.663574 42.230469"
         y="0"
         sodipodi:role="line"
         id="tspan41">Divide</tspan></text>
    <text
       id="text42"
       xml:space="preserve"
       transform="matrix(0.95623852,0,0,0.95623852,186.70557,25.81844)"
       clip-path="url(#clipPath43)"><tspan
         style="font-variant:normal;font-weight:normal;font-size:29px;font-family:Helvetica;writing-mode:lr-tb;fill:#000000;fill-opacity:1;fill-rule:nonzero;stroke:none"
         x="0 24.157227 40.285645 48.342773 64.471191 72.52832 95.085449 111.21387 127.34229 136.99951 153.12793 161.18506 177.31348 186.9707"
         y="0"
         sodipodi:role="line"
         id="tspan42">Math Operators</tspan></text>
    <path
       id="path44"
       d="m 441,71 h 20 -10 11.76999"
       style="fill:none;stroke:#000000;stroke-width:1;stroke-linecap:butt;stroke-linejoin:miter;stroke-miterlimit:10;stroke-dasharray:none;stroke-opacity:1"
       transform="scale(0.95622889)"
       clip-path="url(#clipPath45)" />
    <path
       id="path46"
       d="m 468.76999,71 -8,4 2,-4 -2,-4 z"
       style="fill:#000000;fill-opacity:1;fill-rule:nonzero;stroke:#000000;stroke-width:1;stroke-linecap:butt;stroke-linejoin:miter;stroke-miterlimit:10;stroke-dasharray:none;stroke-opacity:1"
       transform="scale(0.95622889)"
       clip-path="url(#clipPath47)" />
    <path
       id="path48"
       d="m 321,41 h 120 v 60 H 321 Z"
       style="fill:#dae8fc;fill-opacity:1;fill-rule:nonzero;stroke:#6c8ebf;stroke-width:1;stroke-linecap:butt;stroke-linejoin:miter;stroke-miterlimit:10;stroke-dasharray:none;stroke-opacity:1"
       transform="matrix(0.95622889,0,0,0.95622889,0.47811445,0.47811445)"
       clip-path="url(#clipPath49)" />
    <text
       id="text49"
       xml:space="preserve"
       transform="matrix(0.95623852,0,0,0.95623852,356.22873,76.499082)"
       clip-path="url(#clipPath50)"><tspan
         style="font-variant:normal;font-weight:700;font-size:29px;font-family:Helvetica;writing-mode:lr-tb;fill:#000000;fill-opacity:1;fill-rule:nonzero;stroke:none"
         x="0"
         y="0"
         id="tspan49">^</tspan></text>
    <path
       id="path51"
       d="m 441,141 h 20 -10 11.76999"
       style="fill:none;stroke:#000000;stroke-width:1;stroke-linecap:butt;stroke-linejoin:miter;stroke-miterlimit:10;stroke-dasharray:none;stroke-opacity:1"
       transform="scale(0.95622889)"
       clip-path="url(#clipPath52)" />
    <path
       id="path53"
       d="m 468.76999,141 -8,4 2,-4 -2,-4 z"
       style="fill:#000000;fill-opacity:1;fill-rule:nonzero;stroke:#000000;stroke-width:1;stroke-linecap:butt;stroke-linejoin:miter;stroke-miterlimit:10;stroke-dasharray:none;stroke-opacity:1"
       transform="scale(0.95622889)"
       clip-path="url(#clipPath54)" />
    <path
       id="path55"
       d="m 321,111 h 120 v 60 H 321 Z"
       style="fill:#dae8fc;fill-opacity:1;fill-rule:nonzero;stroke:#6c8ebf;stroke-width:1;stroke-linecap:butt;stroke-linejoin:miter;stroke-miterlimit:10;stroke-dasharray:none;stroke-opacity:1"
       transform="matrix(0.95622889,0,0,0.95622889,0.47811445,0.47811445)"
       clip-path="url(#clipPath56)" />
    <text
       id="text56"
       xml:space="preserve"
       transform="matrix(0.95623852,0,0,0.95623852,356.58732,143.43578)"
       clip-path="url(#clipPath57)"><tspan
         style="font-variant:normal;font-weight:700;font-size:29px;font-family:Helvetica;writing-mode:lr-tb;fill:#000000;fill-opacity:1;fill-rule:nonzero;stroke:none"
         x="0 8.1137695"
         y="0"
         sodipodi:role="line"
         id="tspan56">|/</tspan></text>
    <path
       id="path58"
       d="m 441,211 h 20 -10 11.76999"
       style="fill:none;stroke:#000000;stroke-width:1;stroke-linecap:butt;stroke-linejoin:miter;stroke-miterlimit:10;stroke-dasharray:none;stroke-opacity:1"
       transform="scale(0.95622889)"
       clip-path="url(#clipPath59)" />
    <path
       id="path60"
       d="m 468.76999,211 -8,4 2,-4 -2,-4 z"
       style="fill:#000000;fill-opacity:1;fill-rule:nonzero;stroke:#000000;stroke-width:1;stroke-linecap:butt;stroke-linejoin:miter;stroke-miterlimit:10;stroke-dasharray:none;stroke-opacity:1"
       transform="scale(0.95622889)"
       clip-path="url(#clipPath61)" />
    <path
       id="path62"
       d="m 321,181 h 120 v 60 H 321 Z"
       style="fill:#dae8fc;fill-opacity:1;fill-rule:nonzero;stroke:#6c8ebf;stroke-width:1;stroke-linecap:butt;stroke-linejoin:miter;stroke-miterlimit:10;stroke-dasharray:none;stroke-opacity:1"
       transform="matrix(0.95622889,0,0,0.95622889,0.47811445,0.47811445)"
       clip-path="url(#clipPath63)" />
    <text
       id="text63"
       xml:space="preserve"
       transform="matrix(0.95623852,0,0,0.95623852,350.80507,210.37247)"
       clip-path="url(#clipPath64)"><tspan
         style="font-variant:normal;font-weight:700;font-size:29px;font-family:Helvetica;writing-mode:lr-tb;fill:#000000;fill-opacity:1;fill-rule:nonzero;stroke:none"
         x="0"
         y="0"
         id="tspan63">@</tspan></text>
    <path
       id="path65"
       d="m 441,281 h 20 -10 11.76999"
       style="fill:none;stroke:#000000;stroke-width:1;stroke-linecap:butt;stroke-linejoin:miter;stroke-miterlimit:10;stroke-dasharray:none;stroke-opacity:1"
       transform="scale(0.95622889)"
       clip-path="url(#clipPath66)" />
    <path
       id="path67"
       d="m 468.76999,281 -8,4 2,-4 -2,-4 z"
       style="fill:#000000;fill-opacity:1;fill-rule:nonzero;stroke:#000000;stroke-width:1;stroke-linecap:butt;stroke-linejoin:miter;stroke-miterlimit:10;stroke-dasharray:none;stroke-opacity:1"
       transform="scale(0.95622889)"
       clip-path="url(#clipPath68)" />
    <path
       id="path69"
       d="m 321,251 h 120 v 60 H 321 Z"
       style="fill:#dae8fc;fill-opacity:1;fill-rule:nonzero;stroke:#6c8ebf;stroke-width:1;stroke-linecap:butt;stroke-linejoin:miter;stroke-miterlimit:10;stroke-dasharray:none;stroke-opacity:1"
       transform="matrix(0.95622889,0,0,0.95622889,0.47811445,0.47811445)"
       clip-path="url(#clipPath70)" />
    <text
       id="text70"
       xml:space="preserve"
       transform="matrix(0.95623852,0,0,0.95623852,351.98542,277.30917)"
       clip-path="url(#clipPath71)"><tspan
         style="font-variant:normal;font-weight:700;font-size:29px;font-family:Helvetica;writing-mode:lr-tb;fill:#000000;fill-opacity:1;fill-rule:nonzero;stroke:none"
         x="0"
         y="0"
         id="tspan70">%</tspan></text>
    <path
       id="path72"
       d="m 471,41 h 120 v 60 H 471 Z"
       style="fill:#ffffff;fill-opacity:1;fill-rule:nonzero;stroke:#000000;stroke-width:1;stroke-linecap:butt;stroke-linejoin:miter;stroke-miterlimit:10;stroke-dasharray:none;stroke-opacity:1"
       transform="matrix(0.95622889,0,0,0.95622889,0.47811445,0.47811445)"
       clip-path="url(#clipPath73)" />
    <text
       id="text73"
       xml:space="preserve"
       transform="matrix(0.95623852,0,0,0.95623852,469.3637,74.586605)"
       clip-path="url(#clipPath74)"><tspan
         style="font-variant:normal;font-weight:normal;font-size:19px;font-family:Helvetica;writing-mode:lr-tb;fill:#000000;fill-opacity:1;fill-rule:nonzero;stroke:none"
         x="0 12.672852 22.172852 32.739746 43.306641 53.873535 64.44043 75.007324"
         y="0"
         sodipodi:role="line"
         id="tspan73">Exponent</tspan></text>
    <path
       id="path75"
       d="m 471,111 h 120 v 60 H 471 Z"
       style="fill:#ffffff;fill-opacity:1;fill-rule:nonzero;stroke:#000000;stroke-width:1;stroke-linecap:butt;stroke-linejoin:miter;stroke-miterlimit:10;stroke-dasharray:none;stroke-opacity:1"
       transform="matrix(0.95622889,0,0,0.95622889,0.47811445,0.47811445)"
       clip-path="url(#clipPath76)" />
    <text
       id="text76"
       xml:space="preserve"
       transform="matrix(0.95623852,0,0,0.95623852,456.75331,141.5233)"
       clip-path="url(#clipPath77)"><tspan
         style="font-variant:normal;font-weight:normal;font-size:19px;font-family:Helvetica;writing-mode:lr-tb;fill:#000000;fill-opacity:1;fill-rule:nonzero;stroke:none"
         x="0 12.672852 23.239746 33.806641 44.373535 50.700684 61.267578 66.546387 80.267578 90.834473 101.40137"
         y="0"
         sodipodi:role="line"
         id="tspan76">Square Root</tspan></text>
    <path
       id="path78"
       d="m 471,181 h 120 v 60 H 471 Z"
       style="fill:#ffffff;fill-opacity:1;fill-rule:nonzero;stroke:#000000;stroke-width:1;stroke-linecap:butt;stroke-linejoin:miter;stroke-miterlimit:10;stroke-dasharray:none;stroke-opacity:1"
       transform="matrix(0.95622889,0,0,0.95622889,0.47811445,0.47811445)"
       clip-path="url(#clipPath79)" />
    <text
       id="text79"
       xml:space="preserve"
       transform="matrix(0.95623852,0,0,0.95623852,472.39677,197.94137)"
       clip-path="url(#clipPath80)"><tspan
         style="font-variant:normal;font-weight:normal;font-size:19px;font-family:Helvetica;writing-mode:lr-tb;fill:#000000;fill-opacity:1;fill-rule:nonzero;stroke:none"
         x="0 12.672852 23.239746 32.739746 43.306641 47.527832 58.094727 63.373535"
         y="0"
         sodipodi:role="line"
         id="tspan79">Absolute</tspan></text>
    <text
       id="text80"
       xml:space="preserve"
       transform="matrix(0.95623852,0,0,0.95623852,485.18647,219.93486)"
       clip-path="url(#clipPath81)"><tspan
         style="font-variant:normal;font-weight:normal;font-size:19px;font-family:Helvetica;writing-mode:lr-tb;fill:#000000;fill-opacity:1;fill-rule:nonzero;stroke:none"
         x="0 11.271973 21.838867 26.060059 36.626953"
         y="0"
         sodipodi:role="line"
         id="tspan80">Value</tspan></text>
    <path
       id="path82"
       d="m 471,251 h 120 v 60 H 471 Z"
       style="fill:#ffffff;fill-opacity:1;fill-rule:nonzero;stroke:#000000;stroke-width:1;stroke-linecap:butt;stroke-linejoin:miter;stroke-miterlimit:10;stroke-dasharray:none;stroke-opacity:1"
       transform="matrix(0.95622889,0,0,0.95622889,0.47811445,0.47811445)"
       clip-path="url(#clipPath83)" />
    <text
       id="text83"
       xml:space="preserve"
       transform="matrix(0.95623852,0,0,0.95623852,463.32745,275.39669)"
       clip-path="url(#clipPath84)"><tspan
         style="font-variant:normal;font-weight:normal;font-size:19px;font-family:Helvetica;writing-mode:lr-tb;fill:#000000;fill-opacity:1;fill-rule:nonzero;stroke:none"
         x="0 13.721191 24.288086 40.115234 50.682129 54.90332 65.470215 76.037109 86.604004"
         y="0"
         sodipodi:role="line"
         id="tspan83">Remainder</tspan></text>
  </g>
</svg>
