<?xml version="1.0" encoding="UTF-8" standalone="no"?>
<!-- Created with Inkscape (http://www.inkscape.org/) -->

<svg
   version="1.1"
   id="svg1"
   width="510.71997"
   height="291.84"
   viewBox="0 0 510.71997 291.84"
   sodipodi:docname="sql-13.pdf"
   xmlns:inkscape="http://www.inkscape.org/namespaces/inkscape"
   xmlns:sodipodi="http://sodipodi.sourceforge.net/DTD/sodipodi-0.dtd"
   xmlns="http://www.w3.org/2000/svg"
   xmlns:svg="http://www.w3.org/2000/svg">
  <defs
     id="defs1">
    <clipPath
       clipPathUnits="userSpaceOnUse"
       id="clipPath2">
      <path
         d="M 0,0 H 1595.8334 V 911.47784 H 0 Z"
         transform="scale(0.3346214)"
         clip-rule="evenodd"
         id="path2" />
    </clipPath>
    <clipPath
       clipPathUnits="userSpaceOnUse"
       id="clipPath4">
      <path
         d="M 0,0 H 1595.8334 V 908.48938 H 0 Z"
         transform="matrix(0.3346214,0,0,0.3346214,-0.49999999,-0.49999999)"
         clip-rule="evenodd"
         id="path4" />
    </clipPath>
    <clipPath
       clipPathUnits="userSpaceOnUse"
       id="clipPath5">
      <path
         d="M 0,0 H 1595.8334 V 908.48938 H 0 Z"
         transform="matrix(0.33461804,0,0,0.33461804,-407.64063,-131)"
         clip-rule="evenodd"
         id="path5" />
    </clipPath>
    <clipPath
       clipPathUnits="userSpaceOnUse"
       id="clipPath7">
      <path
         d="M 0,0 H 1595.8334 V 908.48938 H 0 Z"
         transform="matrix(0.3346214,0,0,0.3346214,-0.49999999,-0.49999999)"
         clip-rule="evenodd"
         id="path7" />
    </clipPath>
    <clipPath
       clipPathUnits="userSpaceOnUse"
       id="clipPath9">
      <path
         d="M 0,0 H 1595.8334 V 908.48938 H 0 Z"
         transform="matrix(0.3346214,0,0,0.3346214,-0.49999999,-0.49999999)"
         clip-rule="evenodd"
         id="path9" />
    </clipPath>
    <clipPath
       clipPathUnits="userSpaceOnUse"
       id="clipPath10">
      <path
         d="M 0,0 H 1595.8334 V 908.48938 H 0 Z"
         transform="matrix(0.33461804,0,0,0.33461804,-89.4375,-121)"
         clip-rule="evenodd"
         id="path10" />
    </clipPath>
    <clipPath
       clipPathUnits="userSpaceOnUse"
       id="clipPath12">
      <path
         d="M 0,0 H 1595.8334 V 908.48938 H 0 Z"
         transform="matrix(0.3346214,0,0,0.3346214,-0.49999999,-0.49999999)"
         clip-rule="evenodd"
         id="path12" />
    </clipPath>
    <clipPath
       clipPathUnits="userSpaceOnUse"
       id="clipPath13">
      <path
         d="M 0,0 H 1595.8334 V 908.48938 H 0 Z"
         transform="matrix(0.33461804,0,0,0.33461804,-28,-48)"
         clip-rule="evenodd"
         id="path13" />
    </clipPath>
    <clipPath
       clipPathUnits="userSpaceOnUse"
       id="clipPath14">
      <path
         d="M 0,0 H 1595.8334 V 908.48938 H 0 Z"
         transform="matrix(0.33461804,0,0,0.33461804,-82.908692,-48)"
         clip-rule="evenodd"
         id="path14" />
    </clipPath>
    <clipPath
       clipPathUnits="userSpaceOnUse"
       id="clipPath15">
      <path
         d="M 0,0 H 1595.8334 V 908.48938 H 0 Z"
         transform="matrix(0.33461804,0,0,0.33461804,-91.59375,-48)"
         clip-rule="evenodd"
         id="path15" />
    </clipPath>
    <clipPath
       clipPathUnits="userSpaceOnUse"
       id="clipPath16">
      <path
         d="M 0,0 H 1595.8334 V 908.48938 H 0 Z"
         transform="matrix(0.33461804,0,0,0.33461804,-133.48682,-48)"
         clip-rule="evenodd"
         id="path16" />
    </clipPath>
    <clipPath
       clipPathUnits="userSpaceOnUse"
       id="clipPath17">
      <path
         d="M 0,0 H 1595.8334 V 908.48938 H 0 Z"
         transform="matrix(0.33461804,0,0,0.33461804,-28,-64)"
         clip-rule="evenodd"
         id="path17" />
    </clipPath>
    <clipPath
       clipPathUnits="userSpaceOnUse"
       id="clipPath18">
      <path
         d="M 0,0 H 1595.8334 V 908.48938 H 0 Z"
         transform="matrix(0.33461804,0,0,0.33461804,-80.002442,-64)"
         clip-rule="evenodd"
         id="path18" />
    </clipPath>
    <clipPath
       clipPathUnits="userSpaceOnUse"
       id="clipPath20">
      <path
         d="M 0,0 H 1595.8334 V 908.48938 H 0 Z"
         transform="matrix(0.3346214,0,0,0.3346214,-0.49999999,-0.49999999)"
         clip-rule="evenodd"
         id="path20" />
    </clipPath>
    <clipPath
       clipPathUnits="userSpaceOnUse"
       id="clipPath22">
      <path
         d="M 0,0 H 1595.8334 V 908.48938 H 0 Z"
         transform="matrix(0.3346214,0,0,0.3346214,-0.49999999,-0.49999999)"
         clip-rule="evenodd"
         id="path22" />
    </clipPath>
    <clipPath
       clipPathUnits="userSpaceOnUse"
       id="clipPath24">
      <path
         d="M 0,0 H 1595.8334 V 908.48938 H 0 Z"
         transform="matrix(0.3346214,0,0,0.3346214,-0.49999999,-0.49999999)"
         clip-rule="evenodd"
         id="path24" />
    </clipPath>
    <clipPath
       clipPathUnits="userSpaceOnUse"
       id="clipPath25">
      <path
         d="M 0,0 H 1595.8334 V 908.48938 H 0 Z"
         transform="matrix(0.33461804,0,0,0.33461804,-71.359375,-21)"
         clip-rule="evenodd"
         id="path25" />
    </clipPath>
    <clipPath
       clipPathUnits="userSpaceOnUse"
       id="clipPath27">
      <path
         d="M 0,0 H 1595.8334 V 908.48938 H 0 Z"
         transform="matrix(0.3346214,0,0,0.3346214,-0.49999999,-0.49999999)"
         clip-rule="evenodd"
         id="path27" />
    </clipPath>
    <clipPath
       clipPathUnits="userSpaceOnUse"
       id="clipPath29">
      <path
         d="M 0,0 H 1595.8334 V 908.48938 H 0 Z"
         transform="matrix(0.3346214,0,0,0.3346214,-0.49999999,-0.49999999)"
         clip-rule="evenodd"
         id="path29" />
    </clipPath>
    <clipPath
       clipPathUnits="userSpaceOnUse"
       id="clipPath31">
      <path
         d="M 0,0 H 1595.8334 V 908.48938 H 0 Z"
         transform="matrix(0.3346214,0,0,0.3346214,-0.49999999,-0.49999999)"
         clip-rule="evenodd"
         id="path31" />
    </clipPath>
    <clipPath
       clipPathUnits="userSpaceOnUse"
       id="clipPath33">
      <path
         d="M 0,0 H 1595.8334 V 908.48938 H 0 Z"
         transform="matrix(0.3346214,0,0,0.3346214,-0.49999999,-0.49999999)"
         clip-rule="evenodd"
         id="path33" />
    </clipPath>
    <clipPath
       clipPathUnits="userSpaceOnUse"
       id="clipPath34">
      <path
         d="M 0,0 H 1595.8334 V 908.48938 H 0 Z"
         transform="matrix(0.33461804,0,0,0.33461804,-50.734375,-176)"
         clip-rule="evenodd"
         id="path34" />
    </clipPath>
    <clipPath
       clipPathUnits="userSpaceOnUse"
       id="clipPath36">
      <path
         d="M 0,0 H 1595.8334 V 908.48938 H 0 Z"
         transform="matrix(0.3346214,0,0,0.3346214,-0.49999999,-0.49999999)"
         clip-rule="evenodd"
         id="path36" />
    </clipPath>
    <clipPath
       clipPathUnits="userSpaceOnUse"
       id="clipPath37">
      <path
         d="M 0,0 H 1595.8334 V 908.48938 H 0 Z"
         transform="matrix(0.33461804,0,0,0.33461804,-219,-125.00001)"
         clip-rule="evenodd"
         id="path37" />
    </clipPath>
    <clipPath
       clipPathUnits="userSpaceOnUse"
       id="clipPath38">
      <path
         d="M 0,0 H 1595.8334 V 908.48938 H 0 Z"
         transform="matrix(0.33461804,0,0,0.33461804,-270.29688,-125.00001)"
         clip-rule="evenodd"
         id="path38" />
    </clipPath>
    <clipPath
       clipPathUnits="userSpaceOnUse"
       id="clipPath39">
      <path
         d="M 0,0 H 1595.8334 V 908.48938 H 0 Z"
         transform="matrix(0.33461804,0,0,0.33461804,-282.59375,-125.00001)"
         clip-rule="evenodd"
         id="path39" />
    </clipPath>
    <clipPath
       clipPathUnits="userSpaceOnUse"
       id="clipPath40">
      <path
         d="M 0,0 H 1595.8334 V 908.48938 H 0 Z"
         transform="matrix(0.33461804,0,0,0.33461804,-320.875,-125.00001)"
         clip-rule="evenodd"
         id="path40" />
    </clipPath>
    <clipPath
       clipPathUnits="userSpaceOnUse"
       id="clipPath41">
      <path
         d="M 0,0 H 1595.8334 V 908.48938 H 0 Z"
         transform="matrix(0.33461804,0,0,0.33461804,-219,-141)"
         clip-rule="evenodd"
         id="path41" />
    </clipPath>
    <clipPath
       clipPathUnits="userSpaceOnUse"
       id="clipPath42">
      <path
         d="M 0,0 H 1595.8334 V 908.48938 H 0 Z"
         transform="matrix(0.33461804,0,0,0.33461804,-267.39063,-141)"
         clip-rule="evenodd"
         id="path42" />
    </clipPath>
  </defs>
  <sodipodi:namedview
     id="namedview1"
     pagecolor="#ffffff"
     bordercolor="#000000"
     borderopacity="0.25"
     inkscape:showpageshadow="2"
     inkscape:pageopacity="0.0"
     inkscape:pagecheckerboard="0"
     inkscape:deskcolor="#d1d1d1">
    <inkscape:page
       x="0"
       y="0"
       inkscape:label="1"
       id="page1"
       width="510.71997"
       height="291.84"
       margin="0"
       bleed="0" />
  </sodipodi:namedview>
  <g
     id="g1"
     inkscape:groupmode="layer"
     inkscape:label="1">
    <path
       id="path1"
       d="M 0,0 H 534 V 305 H 0 Z"
       style="fill:#ffffff;fill-opacity:1;fill-rule:nonzero;stroke:none"
       transform="scale(0.9563046)"
       clip-path="url(#clipPath2)" />
    <path
       id="path3"
       d="m 391,111 h 140 v 30 H 391 Z"
       style="fill:#d5e8d4;fill-opacity:1;fill-rule:nonzero;stroke:#82b366;stroke-width:1;stroke-linecap:butt;stroke-linejoin:miter;stroke-miterlimit:10;stroke-dasharray:none;stroke-opacity:1"
       transform="matrix(0.9563046,0,0,0.9563046,0.47815229,0.47815229)"
       clip-path="url(#clipPath4)" />
    <text
       id="text4"
       xml:space="preserve"
       transform="matrix(0.9563142,0,0,0.9563142,389.83252,125.27716)"
       clip-path="url(#clipPath5)"><tspan
         style="font-variant:normal;font-weight:700;font-size:16px;font-family:Helvetica;writing-mode:lr-tb;fill:#000000;fill-opacity:1;fill-rule:nonzero;stroke:none"
         x="0 8.8984375 18.671875 27.570312 32.015625 40.914062 45.359375 55.132812 64.03125 69.359375 81.804688 91.578125 97.804688"
         y="0"
         sodipodi:role="line"
         id="tspan4">socialnetwork</tspan></text>
    <path
       id="path6"
       d="M 391,141 H 531 V 301 H 391 Z"
       style="fill:#d5e8d4;fill-opacity:1;fill-rule:nonzero;stroke:#82b366;stroke-width:1;stroke-linecap:butt;stroke-linejoin:miter;stroke-miterlimit:10;stroke-dasharray:none;stroke-opacity:1"
       transform="matrix(0.9563046,0,0,0.9563046,0.47815229,0.47815229)"
       clip-path="url(#clipPath7)" />
    <path
       id="path8"
       d="m 1,101 h 200 v 30 H 1 Z"
       style="fill:#f5f5f5;fill-opacity:1;fill-rule:nonzero;stroke:#666666;stroke-width:1;stroke-linecap:butt;stroke-linejoin:miter;stroke-miterlimit:10;stroke-dasharray:none;stroke-opacity:1"
       transform="matrix(0.9563046,0,0,0.9563046,0.47815229,0.47815229)"
       clip-path="url(#clipPath9)" />
    <text
       id="text9"
       xml:space="preserve"
       transform="matrix(0.9563142,0,0,0.9563142,85.530351,115.71402)"
       clip-path="url(#clipPath10)"><tspan
         style="font-variant:normal;font-weight:700;font-size:16px;font-family:Helvetica;writing-mode:lr-tb;fill:#333333;fill-opacity:1;fill-rule:nonzero;stroke:none"
         x="0 10.671875"
         y="0"
         sodipodi:role="line"
         id="tspan9">PG</tspan></text>
    <path
       id="path11"
       d="M 26,31 H 176 V 71 H 26 Z"
       style="fill:#dae8fc;fill-opacity:1;fill-rule:nonzero;stroke:#6c8ebf;stroke-width:1;stroke-linecap:butt;stroke-linejoin:miter;stroke-miterlimit:10;stroke-dasharray:none;stroke-opacity:1"
       transform="matrix(0.9563046,0,0,0.9563046,0.47815229,0.47815229)"
       clip-path="url(#clipPath12)" />
    <text
       id="text12"
       xml:space="preserve"
       transform="matrix(0.9563142,0,0,0.9563142,26.776798,45.903082)"
       clip-path="url(#clipPath13)"><tspan
         style="font-variant:normal;font-weight:700;font-size:13px;font-family:Helvetica;writing-mode:lr-tb;fill:#000000;fill-opacity:1;fill-rule:nonzero;stroke:none"
         x="0 8.6708984 17.341797 25.282715 33.953613 43.341797"
         y="0"
         sodipodi:role="line"
         id="tspan12">SELECT</tspan></text>
    <text
       id="text13"
       xml:space="preserve"
       transform="matrix(0.9563142,0,0,0.9563142,79.286759,45.903082)"
       clip-path="url(#clipPath14)"><tspan
         style="font-variant:normal;font-weight:normal;font-size:13px;font-family:Helvetica;writing-mode:lr-tb;fill:#000000;fill-opacity:1;fill-rule:nonzero;stroke:none"
         x="0 5.059082"
         y="0"
         sodipodi:role="line"
         id="tspan13">* </tspan></text>
    <text
       id="text14"
       xml:space="preserve"
       transform="matrix(0.9563142,0,0,0.9563142,87.592404,45.903082)"
       clip-path="url(#clipPath15)"><tspan
         style="font-variant:normal;font-weight:700;font-size:13px;font-family:Helvetica;writing-mode:lr-tb;fill:#000000;fill-opacity:1;fill-rule:nonzero;stroke:none"
         x="0 7.940918 17.329102 27.440918"
         y="0"
         sodipodi:role="line"
         id="tspan14">FROM</tspan></text>
    <text
       id="text15"
       xml:space="preserve"
       transform="matrix(0.9563142,0,0,0.9563142,127.65534,45.903082)"
       clip-path="url(#clipPath16)"><tspan
         style="font-variant:normal;font-weight:normal;font-size:13px;font-family:Helvetica;writing-mode:lr-tb;fill:#000000;fill-opacity:1;fill-rule:nonzero;stroke:none"
         x="0 7.2299805 13.72998 20.959961 25.289062"
         y="0"
         sodipodi:role="line"
         id="tspan15">users</tspan></text>
    <text
       id="text16"
       xml:space="preserve"
       transform="matrix(0.9563142,0,0,0.9563142,26.776798,61.204109)"
       clip-path="url(#clipPath17)"><tspan
         style="font-variant:normal;font-weight:700;font-size:13px;font-family:Helvetica;writing-mode:lr-tb;fill:#000000;fill-opacity:1;fill-rule:nonzero;stroke:none"
         x="0 12.27002 21.658203 30.329102 39.717285"
         y="0"
         sodipodi:role="line"
         id="tspan16">WHERE</tspan></text>
    <text
       id="text17"
       xml:space="preserve"
       transform="matrix(0.9563142,0,0,0.9563142,76.507471,61.204109)"
       clip-path="url(#clipPath18)"><tspan
         style="font-variant:normal;font-weight:normal;font-size:13px;font-family:Helvetica;writing-mode:lr-tb;fill:#000000;fill-opacity:1;fill-rule:nonzero;stroke:none"
         x="0 2.8881836 10.118164 13.72998 21.321777 24.933594 32.163574 39.393555 46.623535"
         y="0"
         sodipodi:role="line"
         id="tspan17">id = 127;</tspan></text>
    <path
       id="path19"
       d="m 101,71 0.19,23.629997"
       style="fill:none;stroke:#000000;stroke-width:1;stroke-linecap:butt;stroke-linejoin:miter;stroke-miterlimit:10;stroke-dasharray:none;stroke-opacity:1"
       transform="matrix(0.9563046,0,0,0.9563046,0.47815229,0.47815229)"
       clip-path="url(#clipPath20)" />
    <path
       id="path21"
       d="m 101.23,99.879997 -3.560002,-6.969993 3.520002,1.719993 3.48,-1.769996 z"
       style="fill:#000000;fill-opacity:1;fill-rule:nonzero;stroke:#000000;stroke-width:1;stroke-linecap:butt;stroke-linejoin:miter;stroke-miterlimit:10;stroke-dasharray:none;stroke-opacity:1"
       transform="matrix(0.9563046,0,0,0.9563046,0.47815229,0.47815229)"
       clip-path="url(#clipPath22)" />
    <path
       id="path23"
       d="M 26,1 H 176 V 31 H 26 Z"
       style="fill:#dae8fc;fill-opacity:1;fill-rule:nonzero;stroke:#6c8ebf;stroke-width:1;stroke-linecap:butt;stroke-linejoin:miter;stroke-miterlimit:10;stroke-dasharray:none;stroke-opacity:1"
       transform="matrix(0.9563046,0,0,0.9563046,0.47815229,0.47815229)"
       clip-path="url(#clipPath24)" />
    <text
       id="text24"
       xml:space="preserve"
       transform="matrix(0.9563142,0,0,0.9563142,68.241984,20.082598)"
       clip-path="url(#clipPath25)"><tspan
         style="font-style:oblique;font-variant:normal;font-weight:normal;font-size:13px;font-family:Helvetica;writing-mode:lr-tb;fill:#000000;fill-opacity:1;fill-rule:nonzero;stroke:none"
         x="0 8.6708984 12.282715 19.512695 23.124512 30.354492 41.183594 48.413574 55.643555"
         y="0"
         sodipodi:role="line"
         id="tspan24">Statement</tspan></text>
    <path
       id="path26"
       d="M 1,131 H 201 V 301 H 1 Z"
       style="fill:#f5f5f5;fill-opacity:1;fill-rule:nonzero;stroke:#666666;stroke-width:1;stroke-linecap:butt;stroke-linejoin:miter;stroke-miterlimit:10;stroke-dasharray:none;stroke-opacity:1"
       transform="matrix(0.9563046,0,0,0.9563046,0.47815229,0.47815229)"
       clip-path="url(#clipPath27)" />
    <path
       id="path28"
       d="m 196,156 h 97.5 l 91.14001,0.17999"
       style="fill:none;stroke:#000000;stroke-width:1;stroke-linecap:butt;stroke-linejoin:miter;stroke-miterlimit:10;stroke-dasharray:none;stroke-opacity:1"
       transform="matrix(0.9563046,0,0,0.9563046,0.47815229,0.47815229)"
       clip-path="url(#clipPath29)" />
    <path
       id="path30"
       d="m 389.89001,156.19 -7.01001,3.48999 1.76001,-3.5 -1.75,-3.5 z"
       style="fill:#000000;fill-opacity:1;fill-rule:nonzero;stroke:#000000;stroke-width:1;stroke-linecap:butt;stroke-linejoin:miter;stroke-miterlimit:10;stroke-dasharray:none;stroke-opacity:1"
       transform="matrix(0.9563046,0,0,0.9563046,0.47815229,0.47815229)"
       clip-path="url(#clipPath31)" />
    <path
       id="path32"
       d="m 6,141 h 190 v 60 H 6 Z"
       style="fill:#fff2cc;fill-opacity:1;fill-rule:nonzero;stroke:#d6b656;stroke-width:1;stroke-linecap:butt;stroke-linejoin:miter;stroke-miterlimit:10;stroke-dasharray:none;stroke-opacity:1"
       transform="matrix(0.9563046,0,0,0.9563046,0.47815229,0.47815229)"
       clip-path="url(#clipPath33)" />
    <text
       id="text33"
       xml:space="preserve"
       transform="matrix(0.9563142,0,0,0.9563142,48.518003,168.3113)"
       clip-path="url(#clipPath34)"><tspan
         style="font-style:oblique;font-variant:normal;font-weight:normal;font-size:16px;font-family:Helvetica;writing-mode:lr-tb;fill:#000000;fill-opacity:1;fill-rule:nonzero;stroke:none"
         x="0 11.554688 20.453125 29.351562 33.796875 38.242188 47.140625 56.039062 60.484375 69.382812 78.28125 87.179688 92.507812"
         y="0"
         sodipodi:role="line"
         id="tspan33">Run the query</tspan></text>
    <path
       id="path35"
       d="m 217,100 h 150 v 56 H 217 Z"
       style="fill:#dae8fc;fill-opacity:1;fill-rule:nonzero;stroke:#6c8ebf;stroke-width:1;stroke-linecap:butt;stroke-linejoin:miter;stroke-miterlimit:10;stroke-dasharray:none;stroke-opacity:1"
       transform="matrix(0.9563046,0,0,0.9563046,0.47815229,0.47815229)"
       clip-path="url(#clipPath36)" />
    <text
       id="text36"
       xml:space="preserve"
       transform="matrix(0.9563142,0,0,0.9563142,209.43281,119.53928)"
       clip-path="url(#clipPath37)"><tspan
         style="font-variant:normal;font-weight:700;font-size:13px;font-family:Helvetica;writing-mode:lr-tb;fill:#000000;fill-opacity:1;fill-rule:nonzero;stroke:none"
         x="0 8.6708984 17.341797 25.282715 33.953613 43.341797"
         y="0"
         sodipodi:role="line"
         id="tspan36">SELECT</tspan></text>
    <text
       id="text37"
       xml:space="preserve"
       transform="matrix(0.9563142,0,0,0.9563142,258.48874,119.53928)"
       clip-path="url(#clipPath38)"><tspan
         style="font-variant:normal;font-weight:normal;font-size:13px;font-family:Helvetica;writing-mode:lr-tb;fill:#000000;fill-opacity:1;fill-rule:nonzero;stroke:none"
         x="0 3.6118164 8.6708984"
         y="0"
         sodipodi:role="line"
         id="tspan37"> * </tspan></text>
    <text
       id="text38"
       xml:space="preserve"
       transform="matrix(0.9563142,0,0,0.9563142,270.24842,119.53928)"
       clip-path="url(#clipPath39)"><tspan
         style="font-variant:normal;font-weight:700;font-size:13px;font-family:Helvetica;writing-mode:lr-tb;fill:#000000;fill-opacity:1;fill-rule:nonzero;stroke:none"
         x="0 7.940918 17.329102 27.440918"
         y="0"
         sodipodi:role="line"
         id="tspan38">FROM</tspan></text>
    <text
       id="text39"
       xml:space="preserve"
       transform="matrix(0.9563142,0,0,0.9563142,306.85732,119.53928)"
       clip-path="url(#clipPath40)"><tspan
         style="font-variant:normal;font-weight:normal;font-size:13px;font-family:Helvetica;writing-mode:lr-tb;fill:#000000;fill-opacity:1;fill-rule:nonzero;stroke:none"
         x="0 3.6118164 10.841797 17.341797 24.571777 28.900879 35.400879"
         y="0"
         sodipodi:role="line"
         id="tspan39"> users </tspan></text>
    <text
       id="text40"
       xml:space="preserve"
       transform="matrix(0.9563142,0,0,0.9563142,209.43281,134.8403)"
       clip-path="url(#clipPath41)"><tspan
         style="font-variant:normal;font-weight:700;font-size:13px;font-family:Helvetica;writing-mode:lr-tb;fill:#000000;fill-opacity:1;fill-rule:nonzero;stroke:none"
         x="0 12.27002 21.658203 30.329102 39.717285"
         y="0"
         sodipodi:role="line"
         id="tspan40">WHERE</tspan></text>
    <text
       id="text41"
       xml:space="preserve"
       transform="matrix(0.9563142,0,0,0.9563142,255.70946,134.8403)"
       clip-path="url(#clipPath42)"><tspan
         style="font-variant:normal;font-weight:normal;font-size:13px;font-family:Helvetica;writing-mode:lr-tb;fill:#000000;fill-opacity:1;fill-rule:nonzero;stroke:none"
         x="0 3.6118164 6.5 13.72998 17.341797 24.933594 28.54541 35.775391 43.005371 50.235352"
         y="0"
         sodipodi:role="line"
         id="tspan41"> id = 127;</tspan></text>
  </g>
</svg>
