<?xml version="1.0" encoding="UTF-8" standalone="no"?>
<!-- Created with Inkscape (http://www.inkscape.org/) -->

<svg
   version="1.1"
   id="svg1"
   width="578.56"
   height="291.84"
   viewBox="0 0 578.56 291.84"
   sodipodi:docname="sql-14.pdf"
   xmlns:inkscape="http://www.inkscape.org/namespaces/inkscape"
   xmlns:sodipodi="http://sodipodi.sourceforge.net/DTD/sodipodi-0.dtd"
   xmlns="http://www.w3.org/2000/svg"
   xmlns:svg="http://www.w3.org/2000/svg">
  <defs
     id="defs1">
    <clipPath
       clipPathUnits="userSpaceOnUse"
       id="clipPath2">
      <path
         d="M 0,0 H 1808.3334 V 910.15454 H 0 Z"
         transform="scale(0.33400921)"
         clip-rule="evenodd"
         id="path2" />
    </clipPath>
    <clipPath
       clipPathUnits="userSpaceOnUse"
       id="clipPath4">
      <path
         d="M 0,0 H 1808.3334 V 910.15454 H 0 Z"
         transform="matrix(0.33400921,0,0,0.33400921,-0.49999999,-0.49999999)"
         clip-rule="evenodd"
         id="path4" />
    </clipPath>
    <clipPath
       clipPathUnits="userSpaceOnUse"
       id="clipPath5">
      <path
         d="M 0,0 H 1808.3334 V 910.15454 H 0 Z"
         transform="matrix(0.33400586,0,0,0.33400586,-457.64063,-131)"
         clip-rule="evenodd"
         id="path5" />
    </clipPath>
    <clipPath
       clipPathUnits="userSpaceOnUse"
       id="clipPath7">
      <path
         d="M 0,0 H 1808.3334 V 910.15454 H 0 Z"
         transform="matrix(0.33400921,0,0,0.33400921,-0.49999999,-0.49999999)"
         clip-rule="evenodd"
         id="path7" />
    </clipPath>
    <clipPath
       clipPathUnits="userSpaceOnUse"
       id="clipPath9">
      <path
         d="M 0,0 H 1808.3334 V 910.15454 H 0 Z"
         transform="matrix(0.33400921,0,0,0.33400921,-0.49999999,-0.49999999)"
         clip-rule="evenodd"
         id="path9" />
    </clipPath>
    <clipPath
       clipPathUnits="userSpaceOnUse"
       id="clipPath10">
      <path
         d="M 0,0 H 1808.3334 V 910.15454 H 0 Z"
         transform="matrix(0.33400586,0,0,0.33400586,-139.4375,-121)"
         clip-rule="evenodd"
         id="path10" />
    </clipPath>
    <clipPath
       clipPathUnits="userSpaceOnUse"
       id="clipPath12">
      <path
         d="M 0,0 H 1808.3334 V 910.15454 H 0 Z"
         transform="matrix(0.33400921,0,0,0.33400921,-0.49999999,-0.49999999)"
         clip-rule="evenodd"
         id="path12" />
    </clipPath>
    <clipPath
       clipPathUnits="userSpaceOnUse"
       id="clipPath13">
      <path
         d="M 0,0 H 1808.3334 V 910.15454 H 0 Z"
         transform="matrix(0.33400586,0,0,0.33400586,-3,-47.999999)"
         clip-rule="evenodd"
         id="path13" />
    </clipPath>
    <clipPath
       clipPathUnits="userSpaceOnUse"
       id="clipPath14">
      <path
         d="M 0,0 H 1808.3334 V 910.15454 H 0 Z"
         transform="matrix(0.33400586,0,0,0.33400586,-57.908691,-47.999999)"
         clip-rule="evenodd"
         id="path14" />
    </clipPath>
    <clipPath
       clipPathUnits="userSpaceOnUse"
       id="clipPath15">
      <path
         d="M 0,0 H 1808.3334 V 910.15454 H 0 Z"
         transform="matrix(0.33400586,0,0,0.33400586,-66.59375,-47.999999)"
         clip-rule="evenodd"
         id="path15" />
    </clipPath>
    <clipPath
       clipPathUnits="userSpaceOnUse"
       id="clipPath16">
      <path
         d="M 0,0 H 1808.3334 V 910.15454 H 0 Z"
         transform="matrix(0.33400586,0,0,0.33400586,-108.48682,-47.999999)"
         clip-rule="evenodd"
         id="path16" />
    </clipPath>
    <clipPath
       clipPathUnits="userSpaceOnUse"
       id="clipPath17">
      <path
         d="M 0,0 H 1808.3334 V 910.15454 H 0 Z"
         transform="matrix(0.33400586,0,0,0.33400586,-3,-64)"
         clip-rule="evenodd"
         id="path17" />
    </clipPath>
    <clipPath
       clipPathUnits="userSpaceOnUse"
       id="clipPath18">
      <path
         d="M 0,0 H 1808.3334 V 910.15454 H 0 Z"
         transform="matrix(0.33400586,0,0,0.33400586,-55.002441,-64)"
         clip-rule="evenodd"
         id="path18" />
    </clipPath>
    <clipPath
       clipPathUnits="userSpaceOnUse"
       id="clipPath20">
      <path
         d="M 0,0 H 1808.3334 V 910.15454 H 0 Z"
         transform="matrix(0.33400921,0,0,0.33400921,-0.49999999,-0.49999999)"
         clip-rule="evenodd"
         id="path20" />
    </clipPath>
    <clipPath
       clipPathUnits="userSpaceOnUse"
       id="clipPath22">
      <path
         d="M 0,0 H 1808.3334 V 910.15454 H 0 Z"
         transform="matrix(0.33400921,0,0,0.33400921,-0.49999999,-0.49999999)"
         clip-rule="evenodd"
         id="path22" />
    </clipPath>
    <clipPath
       clipPathUnits="userSpaceOnUse"
       id="clipPath24">
      <path
         d="M 0,0 H 1808.3334 V 910.15454 H 0 Z"
         transform="matrix(0.33400921,0,0,0.33400921,-0.49999999,-0.49999999)"
         clip-rule="evenodd"
         id="path24" />
    </clipPath>
    <clipPath
       clipPathUnits="userSpaceOnUse"
       id="clipPath25">
      <path
         d="M 0,0 H 1808.3334 V 910.15454 H 0 Z"
         transform="matrix(0.33400586,0,0,0.33400586,-204.10937,-56)"
         clip-rule="evenodd"
         id="path25" />
    </clipPath>
    <clipPath
       clipPathUnits="userSpaceOnUse"
       id="clipPath27">
      <path
         d="M 0,0 H 1808.3334 V 910.15454 H 0 Z"
         transform="matrix(0.33400921,0,0,0.33400921,-0.49999999,-0.49999999)"
         clip-rule="evenodd"
         id="path27" />
    </clipPath>
    <clipPath
       clipPathUnits="userSpaceOnUse"
       id="clipPath28">
      <path
         d="M 0,0 H 1808.3334 V 910.15454 H 0 Z"
         transform="matrix(0.33400586,0,0,0.33400586,-46.359375,-21)"
         clip-rule="evenodd"
         id="path28" />
    </clipPath>
    <clipPath
       clipPathUnits="userSpaceOnUse"
       id="clipPath30">
      <path
         d="M 0,0 H 1808.3334 V 910.15454 H 0 Z"
         transform="matrix(0.33400921,0,0,0.33400921,-0.49999999,-0.49999999)"
         clip-rule="evenodd"
         id="path30" />
    </clipPath>
    <clipPath
       clipPathUnits="userSpaceOnUse"
       id="clipPath31">
      <path
         d="M 0,0 H 1808.3334 V 910.15454 H 0 Z"
         transform="matrix(0.33400586,0,0,0.33400586,-206.59375,-21)"
         clip-rule="evenodd"
         id="path31" />
    </clipPath>
    <clipPath
       clipPathUnits="userSpaceOnUse"
       id="clipPath33">
      <path
         d="M 0,0 H 1808.3334 V 910.15454 H 0 Z"
         transform="matrix(0.33400921,0,0,0.33400921,-0.49999999,-0.49999999)"
         clip-rule="evenodd"
         id="path33" />
    </clipPath>
    <clipPath
       clipPathUnits="userSpaceOnUse"
       id="clipPath35">
      <path
         d="M 0,0 H 1808.3334 V 910.15454 H 0 Z"
         transform="matrix(0.33400921,0,0,0.33400921,-0.49999999,-0.49999999)"
         clip-rule="evenodd"
         id="path35" />
    </clipPath>
    <clipPath
       clipPathUnits="userSpaceOnUse"
       id="clipPath37">
      <path
         d="M 0,0 H 1808.3334 V 910.15454 H 0 Z"
         transform="matrix(0.33400921,0,0,0.33400921,-0.49999999,-0.49999999)"
         clip-rule="evenodd"
         id="path37" />
    </clipPath>
    <clipPath
       clipPathUnits="userSpaceOnUse"
       id="clipPath39">
      <path
         d="M 0,0 H 1808.3334 V 910.15454 H 0 Z"
         transform="matrix(0.33400921,0,0,0.33400921,-0.49999999,-0.49999999)"
         clip-rule="evenodd"
         id="path39" />
    </clipPath>
    <clipPath
       clipPathUnits="userSpaceOnUse"
       id="clipPath41">
      <path
         d="M 0,0 H 1808.3334 V 910.15454 H 0 Z"
         transform="matrix(0.33400921,0,0,0.33400921,-0.49999999,-0.49999999)"
         clip-rule="evenodd"
         id="path41" />
    </clipPath>
    <clipPath
       clipPathUnits="userSpaceOnUse"
       id="clipPath43">
      <path
         d="M 0,0 H 1808.3334 V 910.15454 H 0 Z"
         transform="matrix(0.33400921,0,0,0.33400921,-0.49999999,-0.49999999)"
         clip-rule="evenodd"
         id="path43" />
    </clipPath>
    <clipPath
       clipPathUnits="userSpaceOnUse"
       id="clipPath44">
      <path
         d="M 0,0 H 1808.3334 V 910.15454 H 0 Z"
         transform="matrix(0.33400586,0,0,0.33400586,-83.015625,-166)"
         clip-rule="evenodd"
         id="path44" />
    </clipPath>
    <clipPath
       clipPathUnits="userSpaceOnUse"
       id="clipPath45">
      <path
         d="M 0,0 H 1808.3334 V 910.15454 H 0 Z"
         transform="matrix(0.33400586,0,0,0.33400586,-115.85937,-186)"
         clip-rule="evenodd"
         id="path45" />
    </clipPath>
    <clipPath
       clipPathUnits="userSpaceOnUse"
       id="clipPath47">
      <path
         d="M 0,0 H 1808.3334 V 910.15454 H 0 Z"
         transform="matrix(0.33400921,0,0,0.33400921,-0.49999999,-0.49999999)"
         clip-rule="evenodd"
         id="path47" />
    </clipPath>
    <clipPath
       clipPathUnits="userSpaceOnUse"
       id="clipPath48">
      <path
         d="M 0,0 H 1808.3334 V 910.15454 H 0 Z"
         transform="matrix(0.33400586,0,0,0.33400586,-268.99999,-115)"
         clip-rule="evenodd"
         id="path48" />
    </clipPath>
    <clipPath
       clipPathUnits="userSpaceOnUse"
       id="clipPath49">
      <path
         d="M 0,0 H 1808.3334 V 910.15454 H 0 Z"
         transform="matrix(0.33400586,0,0,0.33400586,-268.99999,-126)"
         clip-rule="evenodd"
         id="path49" />
    </clipPath>
    <clipPath
       clipPathUnits="userSpaceOnUse"
       id="clipPath50">
      <path
         d="M 0,0 H 1808.3334 V 910.15454 H 0 Z"
         transform="matrix(0.33400586,0,0,0.33400586,-312.01612,-126)"
         clip-rule="evenodd"
         id="path50" />
    </clipPath>
    <clipPath
       clipPathUnits="userSpaceOnUse"
       id="clipPath51">
      <path
         d="M 0,0 H 1808.3334 V 910.15454 H 0 Z"
         transform="matrix(0.33400586,0,0,0.33400586,-268.99999,-136.99999)"
         clip-rule="evenodd"
         id="path51" />
    </clipPath>
    <clipPath
       clipPathUnits="userSpaceOnUse"
       id="clipPath52">
      <path
         d="M 0,0 H 1808.3334 V 910.15454 H 0 Z"
         transform="matrix(0.33400586,0,0,0.33400586,-303.00049,-136.99999)"
         clip-rule="evenodd"
         id="path52" />
    </clipPath>
    <clipPath
       clipPathUnits="userSpaceOnUse"
       id="clipPath53">
      <path
         d="M 0,0 H 1808.3334 V 910.15454 H 0 Z"
         transform="matrix(0.33400586,0,0,0.33400586,-268.99999,-147)"
         clip-rule="evenodd"
         id="path53" />
    </clipPath>
    <clipPath
       clipPathUnits="userSpaceOnUse"
       id="clipPath54">
      <path
         d="M 0,0 H 1808.3334 V 910.15454 H 0 Z"
         transform="matrix(0.33400586,0,0,0.33400586,-310.01612,-147)"
         clip-rule="evenodd"
         id="path54" />
    </clipPath>
    <clipPath
       clipPathUnits="userSpaceOnUse"
       id="clipPath56">
      <path
         d="M 0,0 H 1808.3334 V 910.15454 H 0 Z"
         transform="matrix(0.33400921,0,0,0.33400921,-0.49999999,-0.49999999)"
         clip-rule="evenodd"
         id="path56" />
    </clipPath>
    <clipPath
       clipPathUnits="userSpaceOnUse"
       id="clipPath58">
      <path
         d="M 0,0 H 1808.3334 V 910.15454 H 0 Z"
         transform="matrix(0.33400921,0,0,0.33400921,-0.49999999,-0.49999999)"
         clip-rule="evenodd"
         id="path58" />
    </clipPath>
    <clipPath
       clipPathUnits="userSpaceOnUse"
       id="clipPath60">
      <path
         d="M 0,0 H 1808.3334 V 910.15454 H 0 Z"
         transform="matrix(0.33400921,0,0,0.33400921,-0.49999999,-0.49999999)"
         clip-rule="evenodd"
         id="path60" />
    </clipPath>
    <clipPath
       clipPathUnits="userSpaceOnUse"
       id="clipPath61">
      <path
         d="M 0,0 H 1808.3334 V 910.15454 H 0 Z"
         transform="matrix(0.33400586,0,0,0.33400586,-74.5,-246)"
         clip-rule="evenodd"
         id="path61" />
    </clipPath>
    <clipPath
       clipPathUnits="userSpaceOnUse"
       id="clipPath62">
      <path
         d="M 0,0 H 1808.3334 V 910.15454 H 0 Z"
         transform="matrix(0.33400586,0,0,0.33400586,-115.85937,-266)"
         clip-rule="evenodd"
         id="path62" />
    </clipPath>
    <clipPath
       clipPathUnits="userSpaceOnUse"
       id="clipPath64">
      <path
         d="M 0,0 H 1808.3334 V 910.15454 H 0 Z"
         transform="matrix(0.33400921,0,0,0.33400921,-0.49999999,-0.49999999)"
         clip-rule="evenodd"
         id="path64" />
    </clipPath>
    <clipPath
       clipPathUnits="userSpaceOnUse"
       id="clipPath65">
      <path
         d="M 0,0 H 1808.3334 V 910.15454 H 0 Z"
         transform="matrix(0.33400586,0,0,0.33400586,-268.99999,-229)"
         clip-rule="evenodd"
         id="path65" />
    </clipPath>
    <clipPath
       clipPathUnits="userSpaceOnUse"
       id="clipPath67">
      <path
         d="M 0,0 H 1808.3334 V 910.15454 H 0 Z"
         transform="matrix(0.33400921,0,0,0.33400921,-0.49999999,-0.49999999)"
         clip-rule="evenodd"
         id="path67" />
    </clipPath>
    <clipPath
       clipPathUnits="userSpaceOnUse"
       id="clipPath68">
      <path
         d="M 0,0 H 1808.3334 V 910.15454 H 0 Z"
         transform="matrix(0.33400586,0,0,0.33400586,-453,-171)"
         clip-rule="evenodd"
         id="path68" />
    </clipPath>
    <clipPath
       clipPathUnits="userSpaceOnUse"
       id="clipPath69">
      <path
         d="M 0,0 H 1808.3334 V 910.15454 H 0 Z"
         transform="matrix(0.33400586,0,0,0.33400586,-453,-182)"
         clip-rule="evenodd"
         id="path69" />
    </clipPath>
    <clipPath
       clipPathUnits="userSpaceOnUse"
       id="clipPath70">
      <path
         d="M 0,0 H 1808.3334 V 910.15454 H 0 Z"
         transform="matrix(0.33400586,0,0,0.33400586,-493.51563,-182)"
         clip-rule="evenodd"
         id="path70" />
    </clipPath>
    <clipPath
       clipPathUnits="userSpaceOnUse"
       id="clipPath71">
      <path
         d="M 0,0 H 1808.3334 V 910.15454 H 0 Z"
         transform="matrix(0.33400586,0,0,0.33400586,-453,-192.99999)"
         clip-rule="evenodd"
         id="path71" />
    </clipPath>
    <clipPath
       clipPathUnits="userSpaceOnUse"
       id="clipPath72">
      <path
         d="M 0,0 H 1808.3334 V 910.15454 H 0 Z"
         transform="matrix(0.33400586,0,0,0.33400586,-487.00049,-192.99999)"
         clip-rule="evenodd"
         id="path72" />
    </clipPath>
    <clipPath
       clipPathUnits="userSpaceOnUse"
       id="clipPath73">
      <path
         d="M 0,0 H 1808.3334 V 910.15454 H 0 Z"
         transform="matrix(0.33400586,0,0,0.33400586,-453,-202.99999)"
         clip-rule="evenodd"
         id="path73" />
    </clipPath>
    <clipPath
       clipPathUnits="userSpaceOnUse"
       id="clipPath74">
      <path
         d="M 0,0 H 1808.3334 V 910.15454 H 0 Z"
         transform="matrix(0.33400586,0,0,0.33400586,-494.01611,-202.99999)"
         clip-rule="evenodd"
         id="path74" />
    </clipPath>
  </defs>
  <sodipodi:namedview
     id="namedview1"
     pagecolor="#ffffff"
     bordercolor="#000000"
     borderopacity="0.25"
     inkscape:showpageshadow="2"
     inkscape:pageopacity="0.0"
     inkscape:pagecheckerboard="0"
     inkscape:deskcolor="#d1d1d1">
    <inkscape:page
       x="0"
       y="0"
       inkscape:label="1"
       id="page1"
       width="578.56"
       height="291.84"
       margin="0"
       bleed="0" />
  </sodipodi:namedview>
  <g
     id="g1"
     inkscape:groupmode="layer"
     inkscape:label="1">
    <path
       id="path1"
       d="M 0,0 H 604 V 304 H 0 Z"
       style="fill:#ffffff;fill-opacity:1;fill-rule:nonzero;stroke:none"
       transform="scale(0.95805737)"
       clip-path="url(#clipPath2)" />
    <path
       id="path3"
       d="m 441,111 h 140 v 30 H 441 Z"
       style="fill:#d5e8d4;fill-opacity:1;fill-rule:nonzero;stroke:#82b366;stroke-width:1;stroke-linecap:butt;stroke-linejoin:miter;stroke-miterlimit:10;stroke-dasharray:none;stroke-opacity:1"
       transform="matrix(0.95805737,0,0,0.95805737,0.47902868,0.47902868)"
       clip-path="url(#clipPath4)" />
    <text
       id="text4"
       xml:space="preserve"
       transform="matrix(0.95806697,0,0,0.95806697,438.45037,125.50677)"
       clip-path="url(#clipPath5)"><tspan
         style="font-variant:normal;font-weight:700;font-size:16px;font-family:Helvetica;writing-mode:lr-tb;fill:#000000;fill-opacity:1;fill-rule:nonzero;stroke:none"
         x="0 8.8984375 18.671875 27.570312 32.015625 40.914062 45.359375 55.132812 64.03125 69.359375 81.804688 91.578125 97.804688"
         y="0"
         sodipodi:role="line"
         id="tspan4">socialnetwork</tspan></text>
    <path
       id="path6"
       d="M 441,141 H 581 V 301 H 441 Z"
       style="fill:#d5e8d4;fill-opacity:1;fill-rule:nonzero;stroke:#82b366;stroke-width:1;stroke-linecap:butt;stroke-linejoin:miter;stroke-miterlimit:10;stroke-dasharray:none;stroke-opacity:1"
       transform="matrix(0.95805737,0,0,0.95805737,0.47902868,0.47902868)"
       clip-path="url(#clipPath7)" />
    <path
       id="path8"
       d="m 51,101 h 200 v 30 H 51 Z"
       style="fill:#f5f5f5;fill-opacity:1;fill-rule:nonzero;stroke:#666666;stroke-width:1;stroke-linecap:butt;stroke-linejoin:miter;stroke-miterlimit:10;stroke-dasharray:none;stroke-opacity:1"
       transform="matrix(0.95805737,0,0,0.95805737,0.47902868,0.47902868)"
       clip-path="url(#clipPath9)" />
    <text
       id="text9"
       xml:space="preserve"
       transform="matrix(0.95806697,0,0,0.95806697,133.59046,115.9261)"
       clip-path="url(#clipPath10)"><tspan
         style="font-variant:normal;font-weight:700;font-size:16px;font-family:Helvetica;writing-mode:lr-tb;fill:#333333;fill-opacity:1;fill-rule:nonzero;stroke:none"
         x="0 10.671875"
         y="0"
         sodipodi:role="line"
         id="tspan9">PG</tspan></text>
    <path
       id="path11"
       d="M 1,31 H 151 V 71 H 1 Z"
       style="fill:#dae8fc;fill-opacity:1;fill-rule:nonzero;stroke:#6c8ebf;stroke-width:1;stroke-linecap:butt;stroke-linejoin:miter;stroke-miterlimit:10;stroke-dasharray:none;stroke-opacity:1"
       transform="matrix(0.95805737,0,0,0.95805737,0.47902868,0.47902868)"
       clip-path="url(#clipPath12)" />
    <text
       id="text12"
       xml:space="preserve"
       transform="matrix(0.95806697,0,0,0.95806697,2.8742009,45.987214)"
       clip-path="url(#clipPath13)"><tspan
         style="font-variant:normal;font-weight:700;font-size:13px;font-family:Helvetica;writing-mode:lr-tb;fill:#000000;fill-opacity:1;fill-rule:nonzero;stroke:none"
         x="0 8.6708984 17.341797 25.282715 33.953613 43.341797"
         y="0"
         sodipodi:role="line"
         id="tspan12">SELECT</tspan></text>
    <text
       id="text13"
       xml:space="preserve"
       transform="matrix(0.95806697,0,0,0.95806697,55.480404,45.987214)"
       clip-path="url(#clipPath14)"><tspan
         style="font-variant:normal;font-weight:normal;font-size:13px;font-family:Helvetica;writing-mode:lr-tb;fill:#000000;fill-opacity:1;fill-rule:nonzero;stroke:none"
         x="0 5.059082"
         y="0"
         sodipodi:role="line"
         id="tspan13">* </tspan></text>
    <text
       id="text14"
       xml:space="preserve"
       transform="matrix(0.95806697,0,0,0.95806697,63.801272,45.987214)"
       clip-path="url(#clipPath15)"><tspan
         style="font-variant:normal;font-weight:700;font-size:13px;font-family:Helvetica;writing-mode:lr-tb;fill:#000000;fill-opacity:1;fill-rule:nonzero;stroke:none"
         x="0 7.940918 17.329102 27.440918"
         y="0"
         sodipodi:role="line"
         id="tspan14">FROM</tspan></text>
    <text
       id="text15"
       xml:space="preserve"
       transform="matrix(0.95806697,0,0,0.95806697,103.93764,45.987214)"
       clip-path="url(#clipPath16)"><tspan
         style="font-variant:normal;font-weight:normal;font-size:13px;font-family:Helvetica;writing-mode:lr-tb;fill:#000000;fill-opacity:1;fill-rule:nonzero;stroke:none"
         x="0 7.2299805 13.72998 20.959961 25.289062"
         y="0"
         sodipodi:role="line"
         id="tspan15">users</tspan></text>
    <text
       id="text16"
       xml:space="preserve"
       transform="matrix(0.95806697,0,0,0.95806697,2.8742009,61.316286)"
       clip-path="url(#clipPath17)"><tspan
         style="font-variant:normal;font-weight:700;font-size:13px;font-family:Helvetica;writing-mode:lr-tb;fill:#000000;fill-opacity:1;fill-rule:nonzero;stroke:none"
         x="0 12.27002 21.658203 30.329102 39.717285"
         y="0"
         sodipodi:role="line"
         id="tspan16">WHERE</tspan></text>
    <text
       id="text17"
       xml:space="preserve"
       transform="matrix(0.95806697,0,0,0.95806697,52.696022,61.316286)"
       clip-path="url(#clipPath18)"><tspan
         style="font-variant:normal;font-weight:normal;font-size:13px;font-family:Helvetica;writing-mode:lr-tb;fill:#000000;fill-opacity:1;fill-rule:nonzero;stroke:none"
         x="0 2.8881836 10.118164 13.72998 21.321777 24.933594 32.163574 39.393555"
         y="0"
         sodipodi:role="line"
         id="tspan17">id = $1;</tspan></text>
    <path
       id="path19"
       d="m 151,71 0.19,23.629997"
       style="fill:none;stroke:#000000;stroke-width:1;stroke-linecap:butt;stroke-linejoin:miter;stroke-miterlimit:10;stroke-dasharray:none;stroke-opacity:1"
       transform="matrix(0.95805737,0,0,0.95805737,0.47902868,0.47902868)"
       clip-path="url(#clipPath20)" />
    <path
       id="path21"
       d="m 151.23,99.879997 -3.55001,-6.969993 3.51001,1.719993 3.48999,-1.769996 z"
       style="fill:#000000;fill-opacity:1;fill-rule:nonzero;stroke:#000000;stroke-width:1;stroke-linecap:butt;stroke-linejoin:miter;stroke-miterlimit:10;stroke-dasharray:none;stroke-opacity:1"
       transform="matrix(0.95805737,0,0,0.95805737,0.47902868,0.47902868)"
       clip-path="url(#clipPath22)" />
    <path
       id="path23"
       d="M 151,31 H 301 V 71 H 151 Z"
       style="fill:#dae8fc;fill-opacity:1;fill-rule:nonzero;stroke:#6c8ebf;stroke-width:1;stroke-linecap:butt;stroke-linejoin:miter;stroke-miterlimit:10;stroke-dasharray:none;stroke-opacity:1"
       transform="matrix(0.95805737,0,0,0.95805737,0.47902868,0.47902868)"
       clip-path="url(#clipPath24)" />
    <text
       id="text24"
       xml:space="preserve"
       transform="matrix(0.95806697,0,0,0.95806697,195.55045,53.65175)"
       clip-path="url(#clipPath25)"><tspan
         style="font-variant:normal;font-weight:700;font-size:13px;font-family:Helvetica;writing-mode:lr-tb;fill:#000000;fill-opacity:1;fill-rule:nonzero;stroke:none"
         x="0 4.3291016 7.940918 11.032227 18.262207 25.492188 32.722168 35.813477 39.425293"
         y="0"
         sodipodi:role="line"
         id="tspan24">[ '127' ]</tspan></text>
    <path
       id="path26"
       d="M 1,1 H 151 V 31 H 1 Z"
       style="fill:#dae8fc;fill-opacity:1;fill-rule:nonzero;stroke:#6c8ebf;stroke-width:1;stroke-linecap:butt;stroke-linejoin:miter;stroke-miterlimit:10;stroke-dasharray:none;stroke-opacity:1"
       transform="matrix(0.95805737,0,0,0.95805737,0.47902868,0.47902868)"
       clip-path="url(#clipPath27)" />
    <text
       id="text27"
       xml:space="preserve"
       transform="matrix(0.95806697,0,0,0.95806697,44.415386,20.119406)"
       clip-path="url(#clipPath28)"><tspan
         style="font-style:oblique;font-variant:normal;font-weight:normal;font-size:13px;font-family:Helvetica;writing-mode:lr-tb;fill:#000000;fill-opacity:1;fill-rule:nonzero;stroke:none"
         x="0 8.6708984 12.282715 19.512695 23.124512 30.354492 41.183594 48.413574 55.643555"
         y="0"
         sodipodi:role="line"
         id="tspan27">Statement</tspan></text>
    <path
       id="path29"
       d="M 151,1 H 301 V 31 H 151 Z"
       style="fill:#dae8fc;fill-opacity:1;fill-rule:nonzero;stroke:#6c8ebf;stroke-width:1;stroke-linecap:butt;stroke-linejoin:miter;stroke-miterlimit:10;stroke-dasharray:none;stroke-opacity:1"
       transform="matrix(0.95805737,0,0,0.95805737,0.47902868,0.47902868)"
       clip-path="url(#clipPath30)" />
    <text
       id="text30"
       xml:space="preserve"
       transform="matrix(0.95806697,0,0,0.95806697,197.93065,20.119406)"
       clip-path="url(#clipPath31)"><tspan
         style="font-style:oblique;font-variant:normal;font-weight:normal;font-size:13px;font-family:Helvetica;writing-mode:lr-tb;fill:#000000;fill-opacity:1;fill-rule:nonzero;stroke:none"
         x="0 7.7124023 14.942383 17.830566 25.060547 32.290527"
         y="0"
         sodipodi:role="line"
         id="tspan30">Values</tspan></text>
    <path
       id="path32"
       d="M 51,131 H 251 V 301 H 51 Z"
       style="fill:#f5f5f5;fill-opacity:1;fill-rule:nonzero;stroke:#666666;stroke-width:1;stroke-linecap:butt;stroke-linejoin:miter;stroke-miterlimit:10;stroke-dasharray:none;stroke-opacity:1"
       transform="matrix(0.95805737,0,0,0.95805737,0.47902868,0.47902868)"
       clip-path="url(#clipPath33)" />
    <path
       id="path34"
       d="m 246,156 h 97.5 l 91.14001,0.17999"
       style="fill:none;stroke:#000000;stroke-width:1;stroke-linecap:butt;stroke-linejoin:miter;stroke-miterlimit:10;stroke-dasharray:none;stroke-opacity:1"
       transform="matrix(0.95805737,0,0,0.95805737,0.47902868,0.47902868)"
       clip-path="url(#clipPath35)" />
    <path
       id="path36"
       d="m 439.89001,156.19 -7.01001,3.48999 1.76001,-3.5 -1.75,-3.5 z"
       style="fill:#000000;fill-opacity:1;fill-rule:nonzero;stroke:#000000;stroke-width:1;stroke-linecap:butt;stroke-linejoin:miter;stroke-miterlimit:10;stroke-dasharray:none;stroke-opacity:1"
       transform="matrix(0.95805737,0,0,0.95805737,0.47902868,0.47902868)"
       clip-path="url(#clipPath37)" />
    <path
       id="path38"
       d="m 151,201 v 20 -20 13.63"
       style="fill:none;stroke:#000000;stroke-width:1;stroke-linecap:butt;stroke-linejoin:miter;stroke-miterlimit:10;stroke-dasharray:none;stroke-opacity:1"
       transform="matrix(0.95805737,0,0,0.95805737,0.47902868,0.47902868)"
       clip-path="url(#clipPath39)" />
    <path
       id="path40"
       d="m 151,219.88 -3.5,-7 3.5,1.75 3.5,-1.75 z"
       style="fill:#000000;fill-opacity:1;fill-rule:nonzero;stroke:#000000;stroke-width:1;stroke-linecap:butt;stroke-linejoin:miter;stroke-miterlimit:10;stroke-dasharray:none;stroke-opacity:1"
       transform="matrix(0.95805737,0,0,0.95805737,0.47902868,0.47902868)"
       clip-path="url(#clipPath41)" />
    <path
       id="path42"
       d="m 56,141 h 190 v 60 H 56 Z"
       style="fill:#fff2cc;fill-opacity:1;fill-rule:nonzero;stroke:#d6b656;stroke-width:1;stroke-linecap:butt;stroke-linejoin:miter;stroke-miterlimit:10;stroke-dasharray:none;stroke-opacity:1"
       transform="matrix(0.95805737,0,0,0.95805737,0.47902868,0.47902868)"
       clip-path="url(#clipPath43)" />
    <text
       id="text43"
       xml:space="preserve"
       transform="matrix(0.95806697,0,0,0.95806697,79.534528,159.03912)"
       clip-path="url(#clipPath44)"><tspan
         style="font-style:oblique;font-variant:normal;font-weight:normal;font-size:16px;font-family:Helvetica;writing-mode:lr-tb;fill:#000000;fill-opacity:1;fill-rule:nonzero;stroke:none"
         x="0 11.554688 16.882812 25.78125 34.679688 39.125 48.023438 52.46875 61.367188 65.8125 68.867188 77.765625 83.09375 91.992188 100.89062 109.78906 115.11719 124.01562 132.91406"
         y="0"
         sodipodi:role="line"
         id="tspan43">Create a 'prepared'</tspan></text>
    <text
       id="text44"
       xml:space="preserve"
       transform="matrix(0.95806697,0,0,0.95806697,111.00104,178.20046)"
       clip-path="url(#clipPath45)"><tspan
         style="font-style:oblique;font-variant:normal;font-weight:normal;font-size:16px;font-family:Helvetica;writing-mode:lr-tb;fill:#000000;fill-opacity:1;fill-rule:nonzero;stroke:none"
         x="0 8 12.445312 21.34375 25.789062 34.6875 48.015625 56.914062 65.8125"
         y="0"
         sodipodi:role="line"
         id="tspan44">statement</tspan></text>
    <path
       id="path46"
       d="m 267,100 h 150 v 56 H 267 Z"
       style="fill:#dae8fc;fill-opacity:1;fill-rule:nonzero;stroke:#6c8ebf;stroke-width:1;stroke-linecap:butt;stroke-linejoin:miter;stroke-miterlimit:10;stroke-dasharray:none;stroke-opacity:1"
       transform="matrix(0.95805737,0,0,0.95805737,0.47902868,0.47902868)"
       clip-path="url(#clipPath47)" />
    <text
       id="text47"
       xml:space="preserve"
       transform="matrix(0.95806697,0,0,0.95806697,257.72001,110.1777)"
       clip-path="url(#clipPath48)"><tspan
         style="font-variant:normal;font-weight:700;font-size:9px;font-family:Helvetica;writing-mode:lr-tb;fill:#000000;fill-opacity:1;fill-rule:nonzero;stroke:none"
         x="0 6.0029297 12.502441 18.505371 23.844727 30.344238 36.84375 42.84668 45.347168 50.352539 55.35791 60.855469 63.852539 68.85791 73.863281 76.860352 82.35791 84.858398 87.855469 90.355957 95.853516 98.850586 103.85596 109.35352 114.35889 117.86133 120.8584 123.0293 129.52881"
         y="0"
         sodipodi:role="line"
         id="tspan47">PREPARE asdfasfd (integer) AS</tspan></text>
    <text
       id="text48"
       xml:space="preserve"
       transform="matrix(0.95806697,0,0,0.95806697,257.72001,120.71644)"
       clip-path="url(#clipPath49)"><tspan
         style="font-variant:normal;font-weight:700;font-size:9px;font-family:Helvetica;writing-mode:lr-tb;fill:#000000;fill-opacity:1;fill-rule:nonzero;stroke:none"
         x="0 2.5004883 5.0009766 11.003906 17.006836 22.504395 28.507324 35.006836"
         y="0"
         sodipodi:role="line"
         id="tspan48">  SELECT</tspan></text>
    <text
       id="text49"
       xml:space="preserve"
       transform="matrix(0.95806697,0,0,0.95806697,298.93234,120.71644)"
       clip-path="url(#clipPath50)"><tspan
         style="font-variant:normal;font-weight:normal;font-size:9px;font-family:Helvetica;writing-mode:lr-tb;fill:#000000;fill-opacity:1;fill-rule:nonzero;stroke:none"
         x="0"
         y="0"
         id="tspan49">*</tspan></text>
    <text
       id="text50"
       xml:space="preserve"
       transform="matrix(0.95806697,0,0,0.95806697,257.72001,131.25517)"
       clip-path="url(#clipPath51)"><tspan
         style="font-variant:normal;font-weight:700;font-size:9px;font-family:Helvetica;writing-mode:lr-tb;fill:#000000;fill-opacity:1;fill-rule:nonzero;stroke:none"
         x="0 2.5004883 5.0009766 10.498535 16.998047 23.998535"
         y="0"
         sodipodi:role="line"
         id="tspan50">  FROM</tspan></text>
    <text
       id="text51"
       xml:space="preserve"
       transform="matrix(0.95806697,0,0,0.95806697,290.29476,131.25517)"
       clip-path="url(#clipPath52)"><tspan
         style="font-variant:normal;font-weight:normal;font-size:9px;font-family:Helvetica;writing-mode:lr-tb;fill:#000000;fill-opacity:1;fill-rule:nonzero;stroke:none"
         x="0 5.0053711 9.5053711 14.510742 17.507812"
         y="0"
         sodipodi:role="line"
         id="tspan51">users</tspan></text>
    <text
       id="text52"
       xml:space="preserve"
       transform="matrix(0.95806697,0,0,0.95806697,257.72001,140.83584)"
       clip-path="url(#clipPath53)"><tspan
         style="font-variant:normal;font-weight:700;font-size:9px;font-family:Helvetica;writing-mode:lr-tb;fill:#000000;fill-opacity:1;fill-rule:nonzero;stroke:none"
         x="0 2.5004883 5.0009766 13.495605 19.995117 25.998047 32.497559"
         y="0"
         sodipodi:role="line"
         id="tspan52">  WHERE</tspan></text>
    <text
       id="text53"
       xml:space="preserve"
       transform="matrix(0.95806697,0,0,0.95806697,297.0162,140.83584)"
       clip-path="url(#clipPath54)"><tspan
         style="font-variant:normal;font-weight:normal;font-size:9px;font-family:Helvetica;writing-mode:lr-tb;fill:#000000;fill-opacity:1;fill-rule:nonzero;stroke:none"
         x="0 1.9995117 7.0048828 9.5053711 14.76123 17.261719 22.26709 27.272461"
         y="0"
         sodipodi:role="line"
         id="tspan53">id = $1;</tspan></text>
    <path
       id="path55"
       d="m 246,251 h 97.5 l 91.14001,-0.07"
       style="fill:none;stroke:#000000;stroke-width:1;stroke-linecap:butt;stroke-linejoin:miter;stroke-miterlimit:10;stroke-dasharray:none;stroke-opacity:1"
       transform="matrix(0.95805737,0,0,0.95805737,0.47902868,0.47902868)"
       clip-path="url(#clipPath56)" />
    <path
       id="path57"
       d="m 439.89001,250.92 -7,3.50999 1.75,-3.5 -1.76001,-3.5 z"
       style="fill:#000000;fill-opacity:1;fill-rule:nonzero;stroke:#000000;stroke-width:1;stroke-linecap:butt;stroke-linejoin:miter;stroke-miterlimit:10;stroke-dasharray:none;stroke-opacity:1"
       transform="matrix(0.95805737,0,0,0.95805737,0.47902868,0.47902868)"
       clip-path="url(#clipPath58)" />
    <path
       id="path59"
       d="m 56,221 h 190 v 60 H 56 Z"
       style="fill:#fff2cc;fill-opacity:1;fill-rule:nonzero;stroke:#d6b656;stroke-width:1;stroke-linecap:butt;stroke-linejoin:miter;stroke-miterlimit:10;stroke-dasharray:none;stroke-opacity:1"
       transform="matrix(0.95805737,0,0,0.95805737,0.47902868,0.47902868)"
       clip-path="url(#clipPath60)" />
    <text
       id="text60"
       xml:space="preserve"
       transform="matrix(0.95806697,0,0,0.95806697,71.375989,235.68447)"
       clip-path="url(#clipPath61)"><tspan
         style="font-style:oblique;font-variant:normal;font-weight:normal;font-size:16px;font-family:Helvetica;writing-mode:lr-tb;fill:#000000;fill-opacity:1;fill-rule:nonzero;stroke:none"
         x="0 10.671875 18.671875 27.570312 35.570312 44.46875 48.914062 57.8125 62.257812 66.703125 75.601562 84.5 88.945312 97.84375 103.17188 112.07031 120.96875 129.86719 135.19531 144.09375"
         y="0"
         sodipodi:role="line"
         id="tspan60">Execute the prepared</tspan></text>
    <text
       id="text61"
       xml:space="preserve"
       transform="matrix(0.95806697,0,0,0.95806697,111.00104,254.84581)"
       clip-path="url(#clipPath62)"><tspan
         style="font-style:oblique;font-variant:normal;font-weight:normal;font-size:16px;font-family:Helvetica;writing-mode:lr-tb;fill:#000000;fill-opacity:1;fill-rule:nonzero;stroke:none"
         x="0 8 12.445312 21.34375 25.789062 34.6875 48.015625 56.914062 65.8125"
         y="0"
         sodipodi:role="line"
         id="tspan61">statement</tspan></text>
    <path
       id="path63"
       d="m 267,201 h 150 v 50 H 267 Z"
       style="fill:#dae8fc;fill-opacity:1;fill-rule:nonzero;stroke:#6c8ebf;stroke-width:1;stroke-linecap:butt;stroke-linejoin:miter;stroke-miterlimit:10;stroke-dasharray:none;stroke-opacity:1"
       transform="matrix(0.95805737,0,0,0.95805737,0.47902868,0.47902868)"
       clip-path="url(#clipPath64)" />
    <text
       id="text64"
       xml:space="preserve"
       transform="matrix(0.95806697,0,0,0.95806697,257.72001,219.39734)"
       clip-path="url(#clipPath65)"><tspan
         style="font-variant:normal;font-weight:700;font-size:9px;font-family:Helvetica;writing-mode:lr-tb;fill:#000000;fill-opacity:1;fill-rule:nonzero;stroke:none"
         x="0 6.0029297 12.005859 18.008789 24.508301 31.007812 36.505371 42.508301 45.008789 50.01416 55.019531 60.51709 63.51416 68.519531 73.524902 76.521973 82.019531 85.016602 87.156738 92.162109 97.16748 102.17285 104.31299 107.31006"
         y="0"
         sodipodi:role="line"
         id="tspan64">EXECUTE asdfasfd('127');</tspan></text>
    <path
       id="path66"
       d="m 451,156 h 150 v 56 H 451 Z"
       style="fill:#dae8fc;fill-opacity:1;fill-rule:nonzero;stroke:#6c8ebf;stroke-width:1;stroke-linecap:butt;stroke-linejoin:miter;stroke-miterlimit:10;stroke-dasharray:none;stroke-opacity:1"
       transform="matrix(0.95805737,0,0,0.95805737,0.47902868,0.47902868)"
       clip-path="url(#clipPath67)" />
    <text
       id="text67"
       xml:space="preserve"
       transform="matrix(0.95806697,0,0,0.95806697,434.00434,163.82945)"
       clip-path="url(#clipPath68)"><tspan
         style="font-variant:normal;font-weight:700;font-size:9px;font-family:Helvetica;writing-mode:lr-tb;fill:#000000;fill-opacity:1;fill-rule:nonzero;stroke:none"
         x="0 6.0029297 12.502441 18.505371 23.844727 30.344238 36.84375 42.84668 45.347168 50.352539 55.35791 60.855469 63.852539 68.85791 73.863281 76.860352 82.35791 84.858398 87.855469 90.355957 95.853516 98.850586 103.85596 109.35352 114.35889 117.86133 120.8584 123.0293 129.52881"
         y="0"
         sodipodi:role="line"
         id="tspan67">PREPARE asdfasfd (integer) AS</tspan></text>
    <text
       id="text68"
       xml:space="preserve"
       transform="matrix(0.95806697,0,0,0.95806697,434.00434,174.36819)"
       clip-path="url(#clipPath69)"><tspan
         style="font-variant:normal;font-weight:700;font-size:9px;font-family:Helvetica;writing-mode:lr-tb;fill:#000000;fill-opacity:1;fill-rule:nonzero;stroke:none"
         x="0 2.5004883 5.0009766 11.003906 17.006836 22.504395 28.507324 35.006836"
         y="0"
         sodipodi:role="line"
         id="tspan68">  SELECT</tspan></text>
    <text
       id="text69"
       xml:space="preserve"
       transform="matrix(0.95806697,0,0,0.95806697,472.82102,174.36819)"
       clip-path="url(#clipPath70)"><tspan
         style="font-variant:normal;font-weight:normal;font-size:9px;font-family:Helvetica;writing-mode:lr-tb;fill:#000000;fill-opacity:1;fill-rule:nonzero;stroke:none"
         x="0 2.5004883 4.5 9.5053711 12.005859 14.506348 19.511719 24.011719 29.01709 32.01416 37.019531 42.024902 49.521973 54.527344 57.027832 59.52832 64.533691 66.533203 71.538574"
         y="0"
         sodipodi:role="line"
         id="tspan69"> id, username, bio </tspan></text>
    <text
       id="text70"
       xml:space="preserve"
       transform="matrix(0.95806697,0,0,0.95806697,434.00434,184.90692)"
       clip-path="url(#clipPath71)"><tspan
         style="font-variant:normal;font-weight:700;font-size:9px;font-family:Helvetica;writing-mode:lr-tb;fill:#000000;fill-opacity:1;fill-rule:nonzero;stroke:none"
         x="0 2.5004883 5.0009766 10.498535 16.998047 23.998535"
         y="0"
         sodipodi:role="line"
         id="tspan70">  FROM</tspan></text>
    <text
       id="text71"
       xml:space="preserve"
       transform="matrix(0.95806697,0,0,0.95806697,466.57908,184.90692)"
       clip-path="url(#clipPath72)"><tspan
         style="font-variant:normal;font-weight:normal;font-size:9px;font-family:Helvetica;writing-mode:lr-tb;fill:#000000;fill-opacity:1;fill-rule:nonzero;stroke:none"
         x="0 5.0053711 9.5053711 14.510742 17.507812"
         y="0"
         sodipodi:role="line"
         id="tspan71">users</tspan></text>
    <text
       id="text72"
       xml:space="preserve"
       transform="matrix(0.95806697,0,0,0.95806697,434.00434,194.48759)"
       clip-path="url(#clipPath73)"><tspan
         style="font-variant:normal;font-weight:700;font-size:9px;font-family:Helvetica;writing-mode:lr-tb;fill:#000000;fill-opacity:1;fill-rule:nonzero;stroke:none"
         x="0 2.5004883 5.0009766 13.495605 19.995117 25.998047 32.497559"
         y="0"
         sodipodi:role="line"
         id="tspan72">  WHERE</tspan></text>
    <text
       id="text73"
       xml:space="preserve"
       transform="matrix(0.95806697,0,0,0.95806697,473.30052,194.48759)"
       clip-path="url(#clipPath74)"><tspan
         style="font-variant:normal;font-weight:normal;font-size:9px;font-family:Helvetica;writing-mode:lr-tb;fill:#000000;fill-opacity:1;fill-rule:nonzero;stroke:none"
         x="0 1.9995117 7.0048828 9.5053711 14.76123 17.261719 22.26709 27.272461 32.277832"
         y="0"
         sodipodi:role="line"
         id="tspan73">id = 127;</tspan></text>
  </g>
</svg>
