<?xml version="1.0" encoding="UTF-8" standalone="no"?>
<!-- Created with Inkscape (http://www.inkscape.org/) -->

<svg
   version="1.1"
   id="svg1"
   width="362.55997"
   height="216"
   viewBox="0 0 362.55997 216"
   sodipodi:docname="sql-9.pdf"
   xmlns:inkscape="http://www.inkscape.org/namespaces/inkscape"
   xmlns:sodipodi="http://sodipodi.sourceforge.net/DTD/sodipodi-0.dtd"
   xmlns="http://www.w3.org/2000/svg"
   xmlns:svg="http://www.w3.org/2000/svg">
  <defs
     id="defs1">
    <clipPath
       clipPathUnits="userSpaceOnUse"
       id="clipPath2">
      <path
         d="M 0,0 H 1133.3334 V 672.82324 H 0 Z"
         transform="scale(0.33441176)"
         clip-rule="evenodd"
         id="path2" />
    </clipPath>
    <clipPath
       clipPathUnits="userSpaceOnUse"
       id="clipPath4">
      <path
         d="M 0,0 H 1133.3334 V 669.83289 H 0 Z"
         transform="matrix(0.33441176,0,0,0.33441176,-0.49999999,-0.49999999)"
         clip-rule="evenodd"
         id="path4" />
    </clipPath>
    <clipPath
       clipPathUnits="userSpaceOnUse"
       id="clipPath5">
      <path
         d="M 0,0 H 1133.3334 V 669.83289 H 0 Z"
         transform="matrix(0.3344084,0,0,0.3344084,-78.015625,-27)"
         clip-rule="evenodd"
         id="path5" />
    </clipPath>
    <clipPath
       clipPathUnits="userSpaceOnUse"
       id="clipPath7">
      <path
         d="M 0,0 H 1133.3334 V 669.83289 H 0 Z"
         transform="scale(0.33441176)"
         clip-rule="evenodd"
         id="path7" />
    </clipPath>
    <clipPath
       clipPathUnits="userSpaceOnUse"
       id="clipPath9">
      <path
         d="M 0,0 H 1133.3334 V 669.83289 H 0 Z"
         transform="matrix(0.33441176,0,0,0.33441176,-0.49999999,-0.49999999)"
         clip-rule="evenodd"
         id="path9" />
    </clipPath>
    <clipPath
       clipPathUnits="userSpaceOnUse"
       id="clipPath11">
      <path
         d="M 0,0 H 1133.3334 V 669.83289 H 0 Z"
         transform="matrix(0.33441176,0,0,0.33441176,-0.49999999,-0.49999999)"
         clip-rule="evenodd"
         id="path11" />
    </clipPath>
    <clipPath
       clipPathUnits="userSpaceOnUse"
       id="clipPath13">
      <path
         d="M 0,0 H 1133.3334 V 669.83289 H 0 Z"
         transform="matrix(0.33441176,0,0,0.33441176,-0.49999999,-0.49999999)"
         clip-rule="evenodd"
         id="path13" />
    </clipPath>
    <clipPath
       clipPathUnits="userSpaceOnUse"
       id="clipPath14">
      <path
         d="M 0,0 H 1133.3334 V 669.83289 H 0 Z"
         transform="matrix(0.3344084,0,0,0.3344084,-167.60937,-108)"
         clip-rule="evenodd"
         id="path14" />
    </clipPath>
    <clipPath
       clipPathUnits="userSpaceOnUse"
       id="clipPath15">
      <path
         d="M 0,0 H 1133.3334 V 669.83289 H 0 Z"
         transform="matrix(0.3344084,0,0,0.3344084,-187.59375,-126)"
         clip-rule="evenodd"
         id="path15" />
    </clipPath>
    <clipPath
       clipPathUnits="userSpaceOnUse"
       id="clipPath17">
      <path
         d="M 0,0 H 1133.3334 V 669.83289 H 0 Z"
         transform="matrix(0.33441176,0,0,0.33441176,-0.49999999,-0.49999999)"
         clip-rule="evenodd"
         id="path17" />
    </clipPath>
    <clipPath
       clipPathUnits="userSpaceOnUse"
       id="clipPath18">
      <path
         d="M 0,0 H 1133.3334 V 669.83289 H 0 Z"
         transform="matrix(0.3344084,0,0,0.3344084,-44.640625,-207)"
         clip-rule="evenodd"
         id="path18" />
    </clipPath>
    <clipPath
       clipPathUnits="userSpaceOnUse"
       id="clipPath20">
      <path
         d="M 0,0 H 1133.3334 V 669.83289 H 0 Z"
         transform="scale(0.33441176)"
         clip-rule="evenodd"
         id="path20" />
    </clipPath>
    <clipPath
       clipPathUnits="userSpaceOnUse"
       id="clipPath22">
      <path
         d="M 0,0 H 1133.3334 V 669.83289 H 0 Z"
         transform="matrix(0.33441176,0,0,0.33441176,-0.49999999,-0.49999999)"
         clip-rule="evenodd"
         id="path22" />
    </clipPath>
    <clipPath
       clipPathUnits="userSpaceOnUse"
       id="clipPath24">
      <path
         d="M 0,0 H 1133.3334 V 669.83289 H 0 Z"
         transform="matrix(0.33441176,0,0,0.33441176,-0.49999999,-0.49999999)"
         clip-rule="evenodd"
         id="path24" />
    </clipPath>
  </defs>
  <sodipodi:namedview
     id="namedview1"
     pagecolor="#ffffff"
     bordercolor="#000000"
     borderopacity="0.25"
     inkscape:showpageshadow="2"
     inkscape:pageopacity="0.0"
     inkscape:pagecheckerboard="0"
     inkscape:deskcolor="#d1d1d1">
    <inkscape:page
       x="0"
       y="0"
       inkscape:label="1"
       id="page1"
       width="362.55997"
       height="216"
       margin="0"
       bleed="0" />
  </sodipodi:namedview>
  <g
     id="g1"
     inkscape:groupmode="layer"
     inkscape:label="1">
    <path
       id="path1"
       d="M 0,0 H 379 V 225 H 0 Z"
       style="fill:#ffffff;fill-opacity:1;fill-rule:nonzero;stroke:none"
       transform="scale(0.95690412)"
       clip-path="url(#clipPath2)" />
    <path
       id="path3"
       d="M 1,1 H 351 V 41 H 1 Z"
       style="fill:#ffffff;fill-opacity:1;fill-rule:nonzero;stroke:#000000;stroke-width:1;stroke-linecap:butt;stroke-linejoin:miter;stroke-miterlimit:10;stroke-dasharray:none;stroke-opacity:1"
       transform="matrix(0.95690412,0,0,0.95690412,0.47845205,0.47845205)"
       clip-path="url(#clipPath4)" />
    <text
       id="text4"
       xml:space="preserve"
       transform="matrix(0.95691372,0,0,0.95691372,74.654222,25.83667)"
       clip-path="url(#clipPath5)"><tspan
         style="font-variant:normal;font-weight:normal;font-size:15px;font-family:Helvetica;writing-mode:lr-tb;fill:#000000;fill-opacity:1;fill-rule:nonzero;stroke:none"
         x="0 8.3422852 12.509766 16.677246 25.019531 29.187012 33.354492 37.521973 40.854492 49.196777 56.696777 65.039062 68.371582 76.713867 85.056152 92.556152 96.723633 100.89111 109.2334 117.57568 125.91797 134.26025 138.42773 146.77002 154.27002 162.6123 167.60742 175.10742 179.2749 183.44238 187.60986"
         y="0"
         sodipodi:role="line"
         id="tspan4">http://localhost:3005/users/  1</tspan></text>
    <path
       id="path6"
       d="m 256,6 h 30 v 30 h -30 z"
       style="fill:none;stroke:#6c8ebf;stroke-width:1;stroke-linecap:butt;stroke-linejoin:miter;stroke-miterlimit:10;stroke-dasharray:none;stroke-opacity:1"
       transform="scale(0.95690412)"
       clip-path="url(#clipPath7)" />
    <path
       id="path8"
       d="M 271,81 V 42.369999"
       style="fill:none;stroke:#000000;stroke-width:1;stroke-linecap:butt;stroke-linejoin:miter;stroke-miterlimit:10;stroke-dasharray:none;stroke-opacity:1"
       transform="matrix(0.95690412,0,0,0.95690412,0.47845205,0.47845205)"
       clip-path="url(#clipPath9)" />
    <path
       id="path10"
       d="m 271,37.119999 3.5,7 -3.5,-1.75 -3.5,1.75 z"
       style="fill:#000000;fill-opacity:1;fill-rule:nonzero;stroke:#000000;stroke-width:1;stroke-linecap:butt;stroke-linejoin:miter;stroke-miterlimit:10;stroke-dasharray:none;stroke-opacity:1"
       transform="matrix(0.95690412,0,0,0.95690412,0.47845205,0.47845205)"
       clip-path="url(#clipPath11)" />
    <path
       id="path12"
       d="m 166,81 h 210 v 60 H 166 Z"
       style="fill:#dae8fc;fill-opacity:1;fill-rule:nonzero;stroke:#6c8ebf;stroke-width:1;stroke-linecap:butt;stroke-linejoin:miter;stroke-miterlimit:10;stroke-dasharray:none;stroke-opacity:1"
       transform="matrix(0.95690412,0,0,0.95690412,0.47845205,0.47845205)"
       clip-path="url(#clipPath13)" />
    <text
       id="text13"
       xml:space="preserve"
       transform="matrix(0.95691372,0,0,0.95691372,160.38771,103.34668)"
       clip-path="url(#clipPath14)"><tspan
         style="font-variant:normal;font-weight:normal;font-size:15px;font-family:Helvetica;writing-mode:lr-tb;fill:#000000;fill-opacity:1;fill-rule:nonzero;stroke:none"
         x="0 11.66748 20.009766 24.177246 31.677246 35.844727 44.187012 51.687012 55.854492 60.849609 69.191895 76.691895 80.859375 89.20166 97.543945 101.71143 110.05371 117.55371 121.72119 130.06348 134.23096 142.57324 145.90576 154.24805 157.58057 165.92285 170.09033 177.59033 181.75781 186.75293 190.08545 198.42773"
         y="0"
         sodipodi:role="line"
         id="tspan13">Gets extracted as a plain string</tspan></text>
    <text
       id="text14"
       xml:space="preserve"
       transform="matrix(0.95691372,0,0,0.95691372,179.51103,120.57113)"
       clip-path="url(#clipPath15)"><tspan
         style="font-variant:normal;font-weight:normal;font-size:15px;font-family:Helvetica;writing-mode:lr-tb;fill:#000000;fill-opacity:1;fill-rule:nonzero;stroke:none"
         x="0 8.3422852 16.68457 25.026855 29.194336 37.536621 45.878906 54.221191 62.563477 70.905762 75.073242 78.405762 86.748047 90.915527 99.257812 103.42529 111.76758 120.10986 125.10498 129.27246 137.61475 145.95703 154.29932 159.29443"
         y="0"
         sodipodi:role="line"
         id="tspan14">and added into our query</tspan></text>
    <path
       id="path16"
       d="m 1,181 h 350 v 40 H 1 Z"
       style="fill:#ffffff;fill-opacity:1;fill-rule:nonzero;stroke:#000000;stroke-width:1;stroke-linecap:butt;stroke-linejoin:miter;stroke-miterlimit:10;stroke-dasharray:none;stroke-opacity:1"
       transform="matrix(0.95690412,0,0,0.95690412,0.47845205,0.47845205)"
       clip-path="url(#clipPath17)" />
    <text
       id="text17"
       xml:space="preserve"
       transform="matrix(0.95691372,0,0,0.95691372,42.717227,198.08114)"
       clip-path="url(#clipPath18)"><tspan
         style="font-variant:normal;font-weight:normal;font-size:15px;font-family:Helvetica;writing-mode:lr-tb;fill:#000000;fill-opacity:1;fill-rule:nonzero;stroke:none"
         x="0 10.004883 20.009766 28.352051 38.356934 49.189453 58.088379 62.255859 68.093262 72.260742 81.42334 92.255859 103.92334 116.41846 120.58594 128.92822 136.42822 144.77051 149.76562 157.26562 161.43311 175.59082 186.42334 196.42822 207.26074 217.26562 221.43311 224.76562 233.10791 237.27539 246.03516 250.20264 258.54492"
         y="0"
         sodipodi:role="line"
         id="tspan17">SELECT * FROM users WHERE id = 1;</tspan></text>
    <path
       id="path19"
       d="m 281,186 h 40 v 30 h -40 z"
       style="fill:none;stroke:#6c8ebf;stroke-width:1;stroke-linecap:butt;stroke-linejoin:miter;stroke-miterlimit:10;stroke-dasharray:none;stroke-opacity:1"
       transform="scale(0.95690412)"
       clip-path="url(#clipPath20)" />
    <path
       id="path21"
       d="m 271,141 v 22.5 h 30 v 16.13"
       style="fill:none;stroke:#000000;stroke-width:1;stroke-linecap:butt;stroke-linejoin:miter;stroke-miterlimit:10;stroke-dasharray:none;stroke-opacity:1"
       transform="matrix(0.95690412,0,0,0.95690412,0.47845205,0.47845205)"
       clip-path="url(#clipPath22)" />
    <path
       id="path23"
       d="m 301,184.88 -3.5,-7 3.5,1.75 3.5,-1.75 z"
       style="fill:#000000;fill-opacity:1;fill-rule:nonzero;stroke:#000000;stroke-width:1;stroke-linecap:butt;stroke-linejoin:miter;stroke-miterlimit:10;stroke-dasharray:none;stroke-opacity:1"
       transform="matrix(0.95690412,0,0,0.95690412,0.47845205,0.47845205)"
       clip-path="url(#clipPath24)" />
  </g>
</svg>
