<?xml version="1.0" encoding="UTF-8" standalone="no"?>
<!-- Created with Inkscape (http://www.inkscape.org/) -->

<svg
   version="1.1"
   id="svg1"
   width="482.55997"
   height="244.16"
   viewBox="0 0 482.55997 244.16"
   sodipodi:docname="sql-2.pdf"
   xmlns:inkscape="http://www.inkscape.org/namespaces/inkscape"
   xmlns:sodipodi="http://sodipodi.sourceforge.net/DTD/sodipodi-0.dtd"
   xmlns="http://www.w3.org/2000/svg"
   xmlns:svg="http://www.w3.org/2000/svg">
  <defs
     id="defs1">
    <clipPath
       clipPathUnits="userSpaceOnUse"
       id="clipPath2">
      <path
         d="M 0,0 H 1508.3333 V 760.15204 H 0 Z"
         transform="scale(0.33414367)"
         clip-rule="evenodd"
         id="path2" />
    </clipPath>
    <clipPath
       clipPathUnits="userSpaceOnUse"
       id="clipPath4">
      <path
         d="M 0,0 H 1508.3333 V 760.15204 H 0 Z"
         transform="matrix(0.33414367,0,0,0.33414367,-0.5,-0.5)"
         clip-rule="evenodd"
         id="path4" />
    </clipPath>
    <clipPath
       clipPathUnits="userSpaceOnUse"
       id="clipPath5">
      <path
         d="M 0,0 H 1508.3333 V 760.15204 H 0 Z"
         transform="matrix(0.33414032,0,0,0.33414032,-398.20314,-98)"
         clip-rule="evenodd"
         id="path5" />
    </clipPath>
    <clipPath
       clipPathUnits="userSpaceOnUse"
       id="clipPath7">
      <path
         d="M 0,0 H 1508.3333 V 760.15204 H 0 Z"
         transform="matrix(0.33414367,0,0,0.33414367,-0.5,-0.5)"
         clip-rule="evenodd"
         id="path7" />
    </clipPath>
    <clipPath
       clipPathUnits="userSpaceOnUse"
       id="clipPath8">
      <path
         d="M 0,0 H 1508.3333 V 760.15204 H 0 Z"
         transform="matrix(0.33414032,0,0,0.33414032,-106.00001,-23)"
         clip-rule="evenodd"
         id="path8" />
    </clipPath>
    <clipPath
       clipPathUnits="userSpaceOnUse"
       id="clipPath10">
      <path
         d="M 0,0 H 1508.3333 V 760.15204 H 0 Z"
         transform="matrix(0.33414367,0,0,0.33414367,-0.5,-0.5)"
         clip-rule="evenodd"
         id="path10" />
    </clipPath>
    <clipPath
       clipPathUnits="userSpaceOnUse"
       id="clipPath12">
      <path
         d="M 0,0 H 1508.3333 V 760.15204 H 0 Z"
         transform="matrix(0.33414367,0,0,0.33414367,-0.5,-0.5)"
         clip-rule="evenodd"
         id="path12" />
    </clipPath>
    <clipPath
       clipPathUnits="userSpaceOnUse"
       id="clipPath14">
      <path
         d="M 0,0 H 1508.3333 V 760.15204 H 0 Z"
         transform="matrix(0.33414367,0,0,0.33414367,-0.5,-0.5)"
         clip-rule="evenodd"
         id="path14" />
    </clipPath>
    <clipPath
       clipPathUnits="userSpaceOnUse"
       id="clipPath16">
      <path
         d="M 0,0 H 1508.3333 V 760.15204 H 0 Z"
         transform="matrix(0.33414367,0,0,0.33414367,-0.5,-0.5)"
         clip-rule="evenodd"
         id="path16" />
    </clipPath>
    <clipPath
       clipPathUnits="userSpaceOnUse"
       id="clipPath17">
      <path
         d="M 0,0 H 1508.3333 V 760.15204 H 0 Z"
         transform="matrix(0.33414032,0,0,0.33414032,-226.26563,-100)"
         clip-rule="evenodd"
         id="path17" />
    </clipPath>
    <clipPath
       clipPathUnits="userSpaceOnUse"
       id="clipPath19">
      <path
         d="M 0,0 H 1508.3333 V 760.15204 H 0 Z"
         transform="matrix(0.33414367,0,0,0.33414367,-0.5,-0.5)"
         clip-rule="evenodd"
         id="path19" />
    </clipPath>
    <clipPath
       clipPathUnits="userSpaceOnUse"
       id="clipPath21">
      <path
         d="M 0,0 H 1508.3333 V 760.15204 H 0 Z"
         transform="matrix(0.33414367,0,0,0.33414367,-0.5,-0.5)"
         clip-rule="evenodd"
         id="path21" />
    </clipPath>
    <clipPath
       clipPathUnits="userSpaceOnUse"
       id="clipPath23">
      <path
         d="M 0,0 H 1508.3333 V 760.15204 H 0 Z"
         transform="matrix(0.33414367,0,0,0.33414367,-0.5,-0.5)"
         clip-rule="evenodd"
         id="path23" />
    </clipPath>
    <clipPath
       clipPathUnits="userSpaceOnUse"
       id="clipPath24">
      <path
         d="M 0,0 H 1508.3333 V 760.15204 H 0 Z"
         transform="matrix(0.33414032,0,0,0.33414032,-55.984375,-100)"
         clip-rule="evenodd"
         id="path24" />
    </clipPath>
    <clipPath
       clipPathUnits="userSpaceOnUse"
       id="clipPath26">
      <path
         d="M 0,0 H 1508.3333 V 760.15204 H 0 Z"
         transform="matrix(0.33414367,0,0,0.33414367,-0.5,-0.5)"
         clip-rule="evenodd"
         id="path26" />
    </clipPath>
    <clipPath
       clipPathUnits="userSpaceOnUse"
       id="clipPath27">
      <path
         d="M 0,0 H 1508.3333 V 760.15204 H 0 Z"
         transform="matrix(0.33414032,0,0,0.33414032,-123.67187,-212)"
         clip-rule="evenodd"
         id="path27" />
    </clipPath>
    <clipPath
       clipPathUnits="userSpaceOnUse"
       id="clipPath28">
      <path
         d="M 0,0 H 1508.3333 V 760.15204 H 0 Z"
         transform="matrix(0.33414032,0,0,0.33414032,-198.15625,-235)"
         clip-rule="evenodd"
         id="path28" />
    </clipPath>
  </defs>
  <sodipodi:namedview
     id="namedview1"
     pagecolor="#ffffff"
     bordercolor="#000000"
     borderopacity="0.25"
     inkscape:showpageshadow="2"
     inkscape:pageopacity="0.0"
     inkscape:pagecheckerboard="0"
     inkscape:deskcolor="#d1d1d1">
    <inkscape:page
       x="0"
       y="0"
       inkscape:label="1"
       id="page1"
       width="482.55997"
       height="244.16"
       margin="0"
       bleed="0" />
  </sodipodi:namedview>
  <g
     id="g1"
     inkscape:groupmode="layer"
     inkscape:label="1">
    <path
       id="path1"
       d="M 0,0 H 504 V 254 H 0 Z"
       style="fill:#ffffff;fill-opacity:1;fill-rule:nonzero;stroke:none"
       transform="scale(0.95767186)"
       clip-path="url(#clipPath2)" />
    <path
       id="path3"
       d="m 381,46 h 120 v 90 H 381 Z"
       style="fill:#d5e8d4;fill-opacity:1;fill-rule:nonzero;stroke:#82b366;stroke-width:1;stroke-linecap:butt;stroke-linejoin:miter;stroke-miterlimit:10;stroke-dasharray:none;stroke-opacity:1"
       transform="matrix(0.95767186,0,0,0.95767186,0.47883593,0.47883593)"
       clip-path="url(#clipPath4)" />
    <text
       id="text4"
       xml:space="preserve"
       transform="matrix(0.95768146,0,0,0.95768146,381.35176,93.852783)"
       clip-path="url(#clipPath5)"><tspan
         style="font-variant:normal;font-weight:700;font-size:20px;font-family:Helvetica;writing-mode:lr-tb;fill:#000000;fill-opacity:1;fill-rule:nonzero;stroke:none"
         x="0 13.339844 25.556641 36.679688 43.339844 55.556641 63.339844 74.462891"
         y="0"
         sodipodi:role="line"
         id="tspan4">Postgres</tspan></text>
    <path
       id="path6"
       d="M 1,1 H 261 V 31 H 1 Z"
       style="fill:#dae8fc;fill-opacity:1;fill-rule:nonzero;stroke:#6c8ebf;stroke-width:1;stroke-linecap:butt;stroke-linejoin:miter;stroke-miterlimit:10;stroke-dasharray:none;stroke-opacity:1"
       transform="matrix(0.95767186,0,0,0.95767186,0.47883593,0.47883593)"
       clip-path="url(#clipPath7)" />
    <text
       id="text7"
       xml:space="preserve"
       transform="matrix(0.95768146,0,0,0.95768146,101.51424,22.026674)"
       clip-path="url(#clipPath8)"><tspan
         style="font-variant:normal;font-weight:700;font-size:20px;font-family:Helvetica;writing-mode:lr-tb;fill:#000000;fill-opacity:1;fill-rule:nonzero;stroke:none"
         x="0 14.443359 26.660156 38.876953"
         y="0"
         sodipodi:role="line"
         id="tspan7">Node</tspan></text>
    <path
       id="path9"
       d="M 1,31 H 261 V 151 H 1 Z"
       style="fill:#dae8fc;fill-opacity:1;fill-rule:nonzero;stroke:#6c8ebf;stroke-width:1;stroke-linecap:butt;stroke-linejoin:miter;stroke-miterlimit:10;stroke-dasharray:none;stroke-opacity:1"
       transform="matrix(0.95767186,0,0,0.95767186,0.47883593,0.47883593)"
       clip-path="url(#clipPath10)" />
    <path
       id="path11"
       d="m 321,91 h 53.64001"
       style="fill:none;stroke:#000000;stroke-width:1;stroke-linecap:butt;stroke-linejoin:miter;stroke-miterlimit:10;stroke-dasharray:none;stroke-opacity:1"
       transform="matrix(0.95767186,0,0,0.95767186,0.47883593,0.47883593)"
       clip-path="url(#clipPath12)" />
    <path
       id="path13"
       d="m 379.89001,91 -7,3.5 1.75,-3.5 -1.75,-3.5 z"
       style="fill:#000000;fill-opacity:1;fill-rule:nonzero;stroke:#000000;stroke-width:1;stroke-linecap:butt;stroke-linejoin:miter;stroke-miterlimit:10;stroke-dasharray:none;stroke-opacity:1"
       transform="matrix(0.95767186,0,0,0.95767186,0.47883593,0.47883593)"
       clip-path="url(#clipPath14)" />
    <path
       id="path15"
       d="m 201,61 h 120 v 60 H 201 Z"
       style="fill:#f5f5f5;fill-opacity:1;fill-rule:nonzero;stroke:#666666;stroke-width:1;stroke-linecap:butt;stroke-linejoin:miter;stroke-miterlimit:10;stroke-dasharray:none;stroke-opacity:1"
       transform="matrix(0.95767186,0,0,0.95767186,0.47883593,0.47883593)"
       clip-path="url(#clipPath16)" />
    <text
       id="text16"
       xml:space="preserve"
       transform="matrix(0.95768146,0,0,0.95768146,216.6904,95.768146)"
       clip-path="url(#clipPath17)"><tspan
         style="font-variant:normal;font-weight:700;font-size:25px;font-family:Helvetica;writing-mode:lr-tb;fill:#333333;fill-opacity:1;fill-rule:nonzero;stroke:none"
         x="0 18.054199 25 31.945801 45.849609 61.120605"
         y="0"
         sodipodi:role="line"
         id="tspan16">Client</tspan></text>
    <path
       id="path18"
       d="m 121,91 h 40 33.63"
       style="fill:none;stroke:#000000;stroke-width:1;stroke-linecap:butt;stroke-linejoin:miter;stroke-miterlimit:10;stroke-dasharray:none;stroke-opacity:1"
       transform="matrix(0.95767186,0,0,0.95767186,0.47883593,0.47883593)"
       clip-path="url(#clipPath19)" />
    <path
       id="path20"
       d="m 199.88,91 -7,3.5 1.75,-3.5 -1.75,-3.5 z"
       style="fill:#000000;fill-opacity:1;fill-rule:nonzero;stroke:#000000;stroke-width:1;stroke-linecap:butt;stroke-linejoin:miter;stroke-miterlimit:10;stroke-dasharray:none;stroke-opacity:1"
       transform="matrix(0.95767186,0,0,0.95767186,0.47883593,0.47883593)"
       clip-path="url(#clipPath21)" />
    <path
       id="path22"
       d="m 71,41 h 50 V 141 H 41 V 71 Z"
       style="fill:#ffffff;fill-opacity:1;fill-rule:nonzero;stroke:#000000;stroke-width:1;stroke-linecap:butt;stroke-linejoin:miter;stroke-miterlimit:10;stroke-dasharray:none;stroke-opacity:1"
       transform="matrix(0.95767186,0,0,0.95767186,0.47883593,0.47883593)"
       clip-path="url(#clipPath23)" />
    <text
       id="text23"
       xml:space="preserve"
       transform="matrix(0.95768146,0,0,0.95768146,53.615198,95.768146)"
       clip-path="url(#clipPath24)"><tspan
         style="font-variant:normal;font-weight:normal;font-size:25px;font-family:Helvetica;writing-mode:lr-tb;fill:#000000;fill-opacity:1;fill-rule:nonzero;stroke:none"
         x="0 16.674805 36.120605"
         y="0"
         sodipodi:role="line"
         id="tspan23">SQL</tspan></text>
    <path
       id="path25"
       d="m 101,181 h 320 v 70 H 101 Z"
       style="fill:#f5f5f5;fill-opacity:1;fill-rule:nonzero;stroke:#666666;stroke-width:1;stroke-linecap:butt;stroke-linejoin:miter;stroke-miterlimit:10;stroke-dasharray:none;stroke-opacity:1"
       transform="matrix(0.95767186,0,0,0.95767186,0.47883593,0.47883593)"
       clip-path="url(#clipPath26)" />
    <text
       id="text26"
       xml:space="preserve"
       transform="matrix(0.95768146,0,0,0.95768146,118.43826,203.02847)"
       clip-path="url(#clipPath27)"><tspan
         style="font-variant:normal;font-weight:normal;font-size:19px;font-family:Helvetica;writing-mode:lr-tb;fill:#333333;fill-opacity:1;fill-rule:nonzero;stroke:none"
         x="0 11.633789 16.912598 26.412598 30.633789 34.85498 45.421875 55.98877 61.267578 66.546387 76.046387 86.613281 97.180176 102.45898 113.02588 123.59277 127.81396 137.31396 142.59277 153.15967 163.72656 169.00537 179.57227 189.07227 199.63916 210.20605 215.48486 220.76367 231.33057 237.65771 242.93652 253.50342 264.07031"
         y="0"
         sodipodi:role="line"
         id="tspan26">A client can only be used for one</tspan></text>
    <text
       id="text27"
       xml:space="preserve"
       transform="matrix(0.95768146,0,0,0.95768146,189.77057,225.05514)"
       clip-path="url(#clipPath28)"><tspan
         style="font-variant:normal;font-weight:normal;font-size:19px;font-family:Helvetica;writing-mode:lr-tb;fill:#333333;fill-opacity:1;fill-rule:nonzero;stroke:none"
         x="0 10.566895 21.133789 31.700684 38.027832 47.527832 52.806641 63.373535 68.652344 73.931152 84.498047 89.776855 95.055664 99.276855 115.104"
         y="0"
         sodipodi:role="line"
         id="tspan27">query at a time</tspan></text>
  </g>
</svg>
