<?xml version="1.0" encoding="UTF-8" standalone="no"?>
<!-- Created with Inkscape (http://www.inkscape.org/) -->

<svg
   version="1.1"
   id="svg1"
   width="402.55997"
   height="421.44"
   viewBox="0 0 402.55997 421.44"
   sodipodi:docname="sql-20.pdf"
   xmlns:inkscape="http://www.inkscape.org/namespaces/inkscape"
   xmlns:sodipodi="http://sodipodi.sourceforge.net/DTD/sodipodi-0.dtd"
   xmlns="http://www.w3.org/2000/svg"
   xmlns:svg="http://www.w3.org/2000/svg">
  <defs
     id="defs1">
    <clipPath
       clipPathUnits="userSpaceOnUse"
       id="clipPath2">
      <path
         d="M 0,0 H 1258.3333 V 1315.1227 H 0 Z"
         transform="scale(0.33456955)"
         clip-rule="evenodd"
         id="path2" />
    </clipPath>
    <clipPath
       clipPathUnits="userSpaceOnUse"
       id="clipPath4">
      <path
         d="M 0,0 H 1258.3333 V 1312.1338 H 0 Z"
         transform="matrix(0.33456955,0,0,0.33456955,-0.5,-0.5)"
         clip-rule="evenodd"
         id="path4" />
    </clipPath>
    <clipPath
       clipPathUnits="userSpaceOnUse"
       id="clipPath5">
      <path
         d="M 0,0 H 1258.3333 V 1312.1338 H 0 Z"
         transform="matrix(0.33456619,0,0,0.33456619,-32.578125,-35)"
         clip-rule="evenodd"
         id="path5" />
    </clipPath>
    <clipPath
       clipPathUnits="userSpaceOnUse"
       id="clipPath7">
      <path
         d="M 0,0 H 1258.3333 V 1312.1338 H 0 Z"
         transform="matrix(0.33456955,0,0,0.33456955,-0.5,-0.5)"
         clip-rule="evenodd"
         id="path7" />
    </clipPath>
    <clipPath
       clipPathUnits="userSpaceOnUse"
       id="clipPath9">
      <path
         d="M 0,0 H 1258.3333 V 1312.1338 H 0 Z"
         transform="matrix(0.33456955,0,0,0.33456955,-0.5,-0.5)"
         clip-rule="evenodd"
         id="path9" />
    </clipPath>
    <clipPath
       clipPathUnits="userSpaceOnUse"
       id="clipPath11">
      <path
         d="M 0,0 H 1258.3333 V 1312.1338 H 0 Z"
         transform="matrix(0.33456955,0,0,0.33456955,-0.5,-0.5)"
         clip-rule="evenodd"
         id="path11" />
    </clipPath>
    <clipPath
       clipPathUnits="userSpaceOnUse"
       id="clipPath13">
      <path
         d="M 0,0 H 1258.3333 V 1312.1338 H 0 Z"
         transform="matrix(0.33456955,0,0,0.33456955,-0.5,-0.5)"
         clip-rule="evenodd"
         id="path13" />
    </clipPath>
    <clipPath
       clipPathUnits="userSpaceOnUse"
       id="clipPath15">
      <path
         d="M 0,0 H 1258.3333 V 1312.1338 H 0 Z"
         transform="matrix(0.33456955,0,0,0.33456955,-0.5,-0.5)"
         clip-rule="evenodd"
         id="path15" />
    </clipPath>
    <clipPath
       clipPathUnits="userSpaceOnUse"
       id="clipPath16">
      <path
         d="M 0,0 H 1258.3333 V 1312.1338 H 0 Z"
         transform="matrix(0.33456619,0,0,0.33456619,-53.3125,-82.000001)"
         clip-rule="evenodd"
         id="path16" />
    </clipPath>
    <clipPath
       clipPathUnits="userSpaceOnUse"
       id="clipPath18">
      <path
         d="M 0,0 H 1258.3333 V 1312.1338 H 0 Z"
         transform="matrix(0.33456955,0,0,0.33456955,-0.5,-0.5)"
         clip-rule="evenodd"
         id="path18" />
    </clipPath>
    <clipPath
       clipPathUnits="userSpaceOnUse"
       id="clipPath20">
      <path
         d="M 0,0 H 1258.3333 V 1312.1338 H 0 Z"
         transform="matrix(0.33456955,0,0,0.33456955,-0.5,-0.5)"
         clip-rule="evenodd"
         id="path20" />
    </clipPath>
    <clipPath
       clipPathUnits="userSpaceOnUse"
       id="clipPath22">
      <path
         d="M 0,0 H 1258.3333 V 1312.1338 H 0 Z"
         transform="matrix(0.33456955,0,0,0.33456955,-0.5,-0.5)"
         clip-rule="evenodd"
         id="path22" />
    </clipPath>
    <clipPath
       clipPathUnits="userSpaceOnUse"
       id="clipPath23">
      <path
         d="M 0,0 H 1258.3333 V 1312.1338 H 0 Z"
         transform="matrix(0.33456619,0,0,0.33456619,-47.984376,-115)"
         clip-rule="evenodd"
         id="path23" />
    </clipPath>
    <clipPath
       clipPathUnits="userSpaceOnUse"
       id="clipPath25">
      <path
         d="M 0,0 H 1258.3333 V 1312.1338 H 0 Z"
         transform="matrix(0.33456955,0,0,0.33456955,-0.5,-0.5)"
         clip-rule="evenodd"
         id="path25" />
    </clipPath>
    <clipPath
       clipPathUnits="userSpaceOnUse"
       id="clipPath27">
      <path
         d="M 0,0 H 1258.3333 V 1312.1338 H 0 Z"
         transform="matrix(0.33456955,0,0,0.33456955,-0.5,-0.5)"
         clip-rule="evenodd"
         id="path27" />
    </clipPath>
    <clipPath
       clipPathUnits="userSpaceOnUse"
       id="clipPath29">
      <path
         d="M 0,0 H 1258.3333 V 1312.1338 H 0 Z"
         transform="matrix(0.33456955,0,0,0.33456955,-0.5,-0.5)"
         clip-rule="evenodd"
         id="path29" />
    </clipPath>
    <clipPath
       clipPathUnits="userSpaceOnUse"
       id="clipPath30">
      <path
         d="M 0,0 H 1258.3333 V 1312.1338 H 0 Z"
         transform="matrix(0.33456619,0,0,0.33456619,-40.640625,-149)"
         clip-rule="evenodd"
         id="path30" />
    </clipPath>
    <clipPath
       clipPathUnits="userSpaceOnUse"
       id="clipPath32">
      <path
         d="M 0,0 H 1258.3333 V 1312.1338 H 0 Z"
         transform="matrix(0.33456955,0,0,0.33456955,-0.5,-0.5)"
         clip-rule="evenodd"
         id="path32" />
    </clipPath>
    <clipPath
       clipPathUnits="userSpaceOnUse"
       id="clipPath33">
      <path
         d="M 0,0 H 1258.3333 V 1312.1338 H 0 Z"
         transform="matrix(0.33456619,0,0,0.33456619,-36.46875,-182)"
         clip-rule="evenodd"
         id="path33" />
    </clipPath>
    <clipPath
       clipPathUnits="userSpaceOnUse"
       id="clipPath35">
      <path
         d="M 0,0 H 1258.3333 V 1312.1338 H 0 Z"
         transform="matrix(0.33456955,0,0,0.33456955,-0.5,-0.5)"
         clip-rule="evenodd"
         id="path35" />
    </clipPath>
    <clipPath
       clipPathUnits="userSpaceOnUse"
       id="clipPath37">
      <path
         d="M 0,0 H 1258.3333 V 1312.1338 H 0 Z"
         transform="matrix(0.33456955,0,0,0.33456955,-0.5,-0.5)"
         clip-rule="evenodd"
         id="path37" />
    </clipPath>
    <clipPath
       clipPathUnits="userSpaceOnUse"
       id="clipPath39">
      <path
         d="M 0,0 H 1258.3333 V 1312.1338 H 0 Z"
         transform="matrix(0.33456955,0,0,0.33456955,-0.5,-0.5)"
         clip-rule="evenodd"
         id="path39" />
    </clipPath>
    <clipPath
       clipPathUnits="userSpaceOnUse"
       id="clipPath40">
      <path
         d="M 0,0 H 1258.3333 V 1312.1338 H 0 Z"
         transform="matrix(0.33456619,0,0,0.33456619,-175.75,-35)"
         clip-rule="evenodd"
         id="path40" />
    </clipPath>
    <clipPath
       clipPathUnits="userSpaceOnUse"
       id="clipPath42">
      <path
         d="M 0,0 H 1258.3333 V 1312.1338 H 0 Z"
         transform="matrix(0.33456955,0,0,0.33456955,-0.5,-0.5)"
         clip-rule="evenodd"
         id="path42" />
    </clipPath>
    <clipPath
       clipPathUnits="userSpaceOnUse"
       id="clipPath44">
      <path
         d="M 0,0 H 1258.3333 V 1312.1338 H 0 Z"
         transform="matrix(0.33456955,0,0,0.33456955,-0.5,-0.5)"
         clip-rule="evenodd"
         id="path44" />
    </clipPath>
    <clipPath
       clipPathUnits="userSpaceOnUse"
       id="clipPath46">
      <path
         d="M 0,0 H 1258.3333 V 1312.1338 H 0 Z"
         transform="matrix(0.33456955,0,0,0.33456955,-0.5,-0.5)"
         clip-rule="evenodd"
         id="path46" />
    </clipPath>
    <clipPath
       clipPathUnits="userSpaceOnUse"
       id="clipPath47">
      <path
         d="M 0,0 H 1258.3333 V 1312.1338 H 0 Z"
         transform="matrix(0.33456619,0,0,0.33456619,-193.3125,-202)"
         clip-rule="evenodd"
         id="path47" />
    </clipPath>
    <clipPath
       clipPathUnits="userSpaceOnUse"
       id="clipPath49">
      <path
         d="M 0,0 H 1258.3333 V 1312.1338 H 0 Z"
         transform="matrix(0.33456955,0,0,0.33456955,-0.5,-0.5)"
         clip-rule="evenodd"
         id="path49" />
    </clipPath>
    <clipPath
       clipPathUnits="userSpaceOnUse"
       id="clipPath51">
      <path
         d="M 0,0 H 1258.3333 V 1312.1338 H 0 Z"
         transform="matrix(0.33456955,0,0,0.33456955,-0.5,-0.5)"
         clip-rule="evenodd"
         id="path51" />
    </clipPath>
    <clipPath
       clipPathUnits="userSpaceOnUse"
       id="clipPath53">
      <path
         d="M 0,0 H 1258.3333 V 1312.1338 H 0 Z"
         transform="matrix(0.33456955,0,0,0.33456955,-0.5,-0.5)"
         clip-rule="evenodd"
         id="path53" />
    </clipPath>
    <clipPath
       clipPathUnits="userSpaceOnUse"
       id="clipPath54">
      <path
         d="M 0,0 H 1258.3333 V 1312.1338 H 0 Z"
         transform="matrix(0.33456619,0,0,0.33456619,-187.98439,-235)"
         clip-rule="evenodd"
         id="path54" />
    </clipPath>
    <clipPath
       clipPathUnits="userSpaceOnUse"
       id="clipPath56">
      <path
         d="M 0,0 H 1258.3333 V 1312.1338 H 0 Z"
         transform="matrix(0.33456955,0,0,0.33456955,-0.5,-0.5)"
         clip-rule="evenodd"
         id="path56" />
    </clipPath>
    <clipPath
       clipPathUnits="userSpaceOnUse"
       id="clipPath58">
      <path
         d="M 0,0 H 1258.3333 V 1312.1338 H 0 Z"
         transform="matrix(0.33456955,0,0,0.33456955,-0.5,-0.5)"
         clip-rule="evenodd"
         id="path58" />
    </clipPath>
    <clipPath
       clipPathUnits="userSpaceOnUse"
       id="clipPath60">
      <path
         d="M 0,0 H 1258.3333 V 1312.1338 H 0 Z"
         transform="matrix(0.33456955,0,0,0.33456955,-0.5,-0.5)"
         clip-rule="evenodd"
         id="path60" />
    </clipPath>
    <clipPath
       clipPathUnits="userSpaceOnUse"
       id="clipPath61">
      <path
         d="M 0,0 H 1258.3333 V 1312.1338 H 0 Z"
         transform="matrix(0.33456619,0,0,0.33456619,-180.64063,-269)"
         clip-rule="evenodd"
         id="path61" />
    </clipPath>
    <clipPath
       clipPathUnits="userSpaceOnUse"
       id="clipPath63">
      <path
         d="M 0,0 H 1258.3333 V 1312.1338 H 0 Z"
         transform="matrix(0.33456955,0,0,0.33456955,-0.5,-0.5)"
         clip-rule="evenodd"
         id="path63" />
    </clipPath>
    <clipPath
       clipPathUnits="userSpaceOnUse"
       id="clipPath64">
      <path
         d="M 0,0 H 1258.3333 V 1312.1338 H 0 Z"
         transform="matrix(0.33456619,0,0,0.33456619,-176.46875,-302)"
         clip-rule="evenodd"
         id="path64" />
    </clipPath>
    <clipPath
       clipPathUnits="userSpaceOnUse"
       id="clipPath66">
      <path
         d="M 0,0 H 1258.3333 V 1312.1338 H 0 Z"
         transform="matrix(0.33456955,0,0,0.33456955,-0.5,-0.5)"
         clip-rule="evenodd"
         id="path66" />
    </clipPath>
    <clipPath
       clipPathUnits="userSpaceOnUse"
       id="clipPath68">
      <path
         d="M 0,0 H 1258.3333 V 1312.1338 H 0 Z"
         transform="matrix(0.33456955,0,0,0.33456955,-0.5,-0.5)"
         clip-rule="evenodd"
         id="path68" />
    </clipPath>
    <clipPath
       clipPathUnits="userSpaceOnUse"
       id="clipPath70">
      <path
         d="M 0,0 H 1258.3333 V 1312.1338 H 0 Z"
         transform="matrix(0.33456955,0,0,0.33456955,-0.5,-0.5)"
         clip-rule="evenodd"
         id="path70" />
    </clipPath>
    <clipPath
       clipPathUnits="userSpaceOnUse"
       id="clipPath71">
      <path
         d="M 0,0 H 1258.3333 V 1312.1338 H 0 Z"
         transform="matrix(0.33456619,0,0,0.33456619,-308.89063,-35)"
         clip-rule="evenodd"
         id="path71" />
    </clipPath>
    <clipPath
       clipPathUnits="userSpaceOnUse"
       id="clipPath73">
      <path
         d="M 0,0 H 1258.3333 V 1312.1338 H 0 Z"
         transform="matrix(0.33456955,0,0,0.33456955,-0.5,-0.5)"
         clip-rule="evenodd"
         id="path73" />
    </clipPath>
    <clipPath
       clipPathUnits="userSpaceOnUse"
       id="clipPath75">
      <path
         d="M 0,0 H 1258.3333 V 1312.1338 H 0 Z"
         transform="matrix(0.33456955,0,0,0.33456955,-0.5,-0.5)"
         clip-rule="evenodd"
         id="path75" />
    </clipPath>
    <clipPath
       clipPathUnits="userSpaceOnUse"
       id="clipPath77">
      <path
         d="M 0,0 H 1258.3333 V 1312.1338 H 0 Z"
         transform="matrix(0.33456955,0,0,0.33456955,-0.5,-0.5)"
         clip-rule="evenodd"
         id="path77" />
    </clipPath>
    <clipPath
       clipPathUnits="userSpaceOnUse"
       id="clipPath78">
      <path
         d="M 0,0 H 1258.3333 V 1312.1338 H 0 Z"
         transform="matrix(0.33456619,0,0,0.33456619,-333.3125,-322)"
         clip-rule="evenodd"
         id="path78" />
    </clipPath>
    <clipPath
       clipPathUnits="userSpaceOnUse"
       id="clipPath80">
      <path
         d="M 0,0 H 1258.3333 V 1312.1338 H 0 Z"
         transform="matrix(0.33456955,0,0,0.33456955,-0.5,-0.5)"
         clip-rule="evenodd"
         id="path80" />
    </clipPath>
    <clipPath
       clipPathUnits="userSpaceOnUse"
       id="clipPath82">
      <path
         d="M 0,0 H 1258.3333 V 1312.1338 H 0 Z"
         transform="matrix(0.33456955,0,0,0.33456955,-0.5,-0.5)"
         clip-rule="evenodd"
         id="path82" />
    </clipPath>
    <clipPath
       clipPathUnits="userSpaceOnUse"
       id="clipPath84">
      <path
         d="M 0,0 H 1258.3333 V 1312.1338 H 0 Z"
         transform="matrix(0.33456955,0,0,0.33456955,-0.5,-0.5)"
         clip-rule="evenodd"
         id="path84" />
    </clipPath>
    <clipPath
       clipPathUnits="userSpaceOnUse"
       id="clipPath85">
      <path
         d="M 0,0 H 1258.3333 V 1312.1338 H 0 Z"
         transform="matrix(0.33456619,0,0,0.33456619,-327.98439,-355)"
         clip-rule="evenodd"
         id="path85" />
    </clipPath>
    <clipPath
       clipPathUnits="userSpaceOnUse"
       id="clipPath87">
      <path
         d="M 0,0 H 1258.3333 V 1312.1338 H 0 Z"
         transform="matrix(0.33456955,0,0,0.33456955,-0.5,-0.5)"
         clip-rule="evenodd"
         id="path87" />
    </clipPath>
    <clipPath
       clipPathUnits="userSpaceOnUse"
       id="clipPath89">
      <path
         d="M 0,0 H 1258.3333 V 1312.1338 H 0 Z"
         transform="matrix(0.33456955,0,0,0.33456955,-0.5,-0.5)"
         clip-rule="evenodd"
         id="path89" />
    </clipPath>
    <clipPath
       clipPathUnits="userSpaceOnUse"
       id="clipPath91">
      <path
         d="M 0,0 H 1258.3333 V 1312.1338 H 0 Z"
         transform="matrix(0.33456955,0,0,0.33456955,-0.5,-0.5)"
         clip-rule="evenodd"
         id="path91" />
    </clipPath>
    <clipPath
       clipPathUnits="userSpaceOnUse"
       id="clipPath92">
      <path
         d="M 0,0 H 1258.3333 V 1312.1338 H 0 Z"
         transform="matrix(0.33456619,0,0,0.33456619,-320.64063,-389)"
         clip-rule="evenodd"
         id="path92" />
    </clipPath>
    <clipPath
       clipPathUnits="userSpaceOnUse"
       id="clipPath94">
      <path
         d="M 0,0 H 1258.3333 V 1312.1338 H 0 Z"
         transform="matrix(0.33456955,0,0,0.33456955,-0.5,-0.5)"
         clip-rule="evenodd"
         id="path94" />
    </clipPath>
    <clipPath
       clipPathUnits="userSpaceOnUse"
       id="clipPath95">
      <path
         d="M 0,0 H 1258.3333 V 1312.1338 H 0 Z"
         transform="matrix(0.33456619,0,0,0.33456619,-316.46875,-422)"
         clip-rule="evenodd"
         id="path95" />
    </clipPath>
  </defs>
  <sodipodi:namedview
     id="namedview1"
     pagecolor="#ffffff"
     bordercolor="#000000"
     borderopacity="0.25"
     inkscape:showpageshadow="2"
     inkscape:pageopacity="0.0"
     inkscape:pagecheckerboard="0"
     inkscape:deskcolor="#d1d1d1">
    <inkscape:page
       x="0"
       y="0"
       inkscape:label="1"
       id="page1"
       width="402.55997"
       height="421.44"
       margin="0"
       bleed="0" />
  </sodipodi:namedview>
  <g
     id="g1"
     inkscape:groupmode="layer"
     inkscape:label="1">
    <path
       id="path1"
       d="M 0,0 H 421 V 440 H 0 Z"
       style="fill:#ffffff;fill-opacity:1;fill-rule:nonzero;stroke:none"
       transform="scale(0.95645282)"
       clip-path="url(#clipPath2)" />
    <path
       id="path3"
       d="M 18,8 H 138 V 48 H 18 Z"
       style="fill:#dae8fc;fill-opacity:1;fill-rule:nonzero;stroke:#6c8ebf;stroke-width:1;stroke-linecap:butt;stroke-linejoin:miter;stroke-miterlimit:10;stroke-dasharray:none;stroke-opacity:1"
       transform="matrix(0.95645282,0,0,0.95645282,0.47822641,0.47822641)"
       clip-path="url(#clipPath4)" />
    <text
       id="text4"
       xml:space="preserve"
       transform="matrix(0.95646242,0,0,0.95646242,31.159752,33.476185)"
       clip-path="url(#clipPath5)"><tspan
         style="font-variant:normal;font-weight:normal;font-size:19px;font-family:Helvetica;writing-mode:lr-tb;fill:#000000;fill-opacity:1;fill-rule:nonzero;stroke:none"
         x="0 10.566895 20.066895 30.633789 35.921875 41.200684 46.479492 57.046387 66.546387 71.825195 77.104004 81.325195"
         y="0"
         sodipodi:role="line"
         id="tspan4">user.test.js</tspan></text>
    <path
       id="path6"
       d="M 8,8 V 421.64001"
       style="fill:none;stroke:#000000;stroke-width:1;stroke-linecap:butt;stroke-linejoin:miter;stroke-miterlimit:10;stroke-dasharray:none;stroke-opacity:1"
       transform="matrix(0.95645282,0,0,0.95645282,0.47822641,0.47822641)"
       clip-path="url(#clipPath7)" />
    <path
       id="path8"
       d="m 8,426.89001 -3.5,-7 3.5,1.75 3.5,-1.75 z"
       style="fill:#000000;fill-opacity:1;fill-rule:nonzero;stroke:#000000;stroke-width:1;stroke-linecap:butt;stroke-linejoin:miter;stroke-miterlimit:10;stroke-dasharray:none;stroke-opacity:1"
       transform="matrix(0.95645282,0,0,0.95645282,0.47822641,0.47822641)"
       clip-path="url(#clipPath9)" />
    <path
       id="path10"
       d="m 78,88 v 6.629997"
       style="fill:none;stroke:#000000;stroke-width:1;stroke-linecap:butt;stroke-linejoin:miter;stroke-miterlimit:10;stroke-dasharray:none;stroke-opacity:1"
       transform="matrix(0.95645282,0,0,0.95645282,0.47822641,0.47822641)"
       clip-path="url(#clipPath11)" />
    <path
       id="path12"
       d="m 78,99.879997 -3.5,-7 3.5,1.75 3.5,-1.75 z"
       style="fill:#000000;fill-opacity:1;fill-rule:nonzero;stroke:#000000;stroke-width:1;stroke-linecap:butt;stroke-linejoin:miter;stroke-miterlimit:10;stroke-dasharray:none;stroke-opacity:1"
       transform="matrix(0.95645282,0,0,0.95645282,0.47822641,0.47822641)"
       clip-path="url(#clipPath13)" />
    <path
       id="path14"
       d="M 18,68 H 138 V 88 H 18 Z"
       style="fill:#f5f5f5;fill-opacity:1;fill-rule:nonzero;stroke:#666666;stroke-width:1;stroke-linecap:butt;stroke-linejoin:miter;stroke-miterlimit:10;stroke-dasharray:none;stroke-opacity:1"
       transform="matrix(0.95645282,0,0,0.95645282,0.47822641,0.47822641)"
       clip-path="url(#clipPath15)" />
    <text
       id="text15"
       xml:space="preserve"
       transform="matrix(0.95646242,0,0,0.95646242,50.991403,78.429919)"
       clip-path="url(#clipPath16)"><tspan
         style="font-variant:normal;font-weight:normal;font-size:12px;font-family:Helvetica;writing-mode:lr-tb;fill:#333333;fill-opacity:1;fill-rule:nonzero;stroke:none"
         x="0 6.6738281 13.347656 16.681641 20.015625 26.015625 32.689453 39.363281 46.037109"
         y="0"
         sodipodi:role="line"
         id="tspan15">get count</tspan></text>
    <path
       id="path17"
       d="m 78,121 v 7.63"
       style="fill:none;stroke:#000000;stroke-width:1;stroke-linecap:butt;stroke-linejoin:miter;stroke-miterlimit:10;stroke-dasharray:none;stroke-opacity:1"
       transform="matrix(0.95645282,0,0,0.95645282,0.47822641,0.47822641)"
       clip-path="url(#clipPath18)" />
    <path
       id="path19"
       d="m 78,133.88 -3.5,-7 3.5,1.75 3.5,-1.75 z"
       style="fill:#000000;fill-opacity:1;fill-rule:nonzero;stroke:#000000;stroke-width:1;stroke-linecap:butt;stroke-linejoin:miter;stroke-miterlimit:10;stroke-dasharray:none;stroke-opacity:1"
       transform="matrix(0.95645282,0,0,0.95645282,0.47822641,0.47822641)"
       clip-path="url(#clipPath20)" />
    <path
       id="path21"
       d="m 18,101 h 120 v 20 H 18 Z"
       style="fill:#f5f5f5;fill-opacity:1;fill-rule:nonzero;stroke:#666666;stroke-width:1;stroke-linecap:butt;stroke-linejoin:miter;stroke-miterlimit:10;stroke-dasharray:none;stroke-opacity:1"
       transform="matrix(0.95645282,0,0,0.95645282,0.47822641,0.47822641)"
       clip-path="url(#clipPath22)" />
    <text
       id="text22"
       xml:space="preserve"
       transform="matrix(0.95646242,0,0,0.95646242,45.895252,109.99318)"
       clip-path="url(#clipPath23)"><tspan
         style="font-variant:normal;font-weight:normal;font-size:12px;font-family:Helvetica;writing-mode:lr-tb;fill:#333333;fill-opacity:1;fill-rule:nonzero;stroke:none"
         x="0 6 9.9960938 16.669922 23.34375 26.677734 33.351562 36.685547 43.359375 49.359375 56.033203"
         y="0"
         sodipodi:role="line"
         id="tspan22">create user</tspan></text>
    <path
       id="path24"
       d="m 78,155 v 6.63"
       style="fill:none;stroke:#000000;stroke-width:1;stroke-linecap:butt;stroke-linejoin:miter;stroke-miterlimit:10;stroke-dasharray:none;stroke-opacity:1"
       transform="matrix(0.95645282,0,0,0.95645282,0.47822641,0.47822641)"
       clip-path="url(#clipPath25)" />
    <path
       id="path26"
       d="m 78,166.88 -3.5,-7 3.5,1.75 3.5,-1.75 z"
       style="fill:#000000;fill-opacity:1;fill-rule:nonzero;stroke:#000000;stroke-width:1;stroke-linecap:butt;stroke-linejoin:miter;stroke-miterlimit:10;stroke-dasharray:none;stroke-opacity:1"
       transform="matrix(0.95645282,0,0,0.95645282,0.47822641,0.47822641)"
       clip-path="url(#clipPath27)" />
    <path
       id="path28"
       d="m 18,135 h 120 v 20 H 18 Z"
       style="fill:#f5f5f5;fill-opacity:1;fill-rule:nonzero;stroke:#666666;stroke-width:1;stroke-linecap:butt;stroke-linejoin:miter;stroke-miterlimit:10;stroke-dasharray:none;stroke-opacity:1"
       transform="matrix(0.95645282,0,0,0.95645282,0.47822641,0.47822641)"
       clip-path="url(#clipPath29)" />
    <text
       id="text29"
       xml:space="preserve"
       transform="matrix(0.95646242,0,0,0.95646242,38.871231,142.5129)"
       clip-path="url(#clipPath30)"><tspan
         style="font-variant:normal;font-weight:normal;font-size:12px;font-family:Helvetica;writing-mode:lr-tb;fill:#333333;fill-opacity:1;fill-rule:nonzero;stroke:none"
         x="0 6.6738281 13.347656 16.681641 20.015625 26.689453 33.363281 42.029297 45.363281 51.363281 58.037109 64.710938 71.384766"
         y="0"
         sodipodi:role="line"
         id="tspan29">get new count</tspan></text>
    <path
       id="path31"
       d="m 18,168 h 120 v 20 H 18 Z"
       style="fill:#f5f5f5;fill-opacity:1;fill-rule:nonzero;stroke:#666666;stroke-width:1;stroke-linecap:butt;stroke-linejoin:miter;stroke-miterlimit:10;stroke-dasharray:none;stroke-opacity:1"
       transform="matrix(0.95645282,0,0,0.95645282,0.47822641,0.47822641)"
       clip-path="url(#clipPath32)" />
    <text
       id="text32"
       xml:space="preserve"
       transform="matrix(0.95646242,0,0,0.95646242,34.880989,174.07616)"
       clip-path="url(#clipPath33)"><tspan
         style="font-variant:normal;font-weight:normal;font-size:12px;font-family:Helvetica;writing-mode:lr-tb;fill:#333333;fill-opacity:1;fill-rule:nonzero;stroke:none"
         x="0 6.6738281 13.347656 22.013672 25.347656 29.34375 32.677734 39.351562 42.017578 48.691406 52.025391 59.033203 66.041016 73.048828 76.382812"
         y="0"
         sodipodi:role="line"
         id="tspan32">new - old === 1</tspan></text>
    <path
       id="path34"
       d="M 218,48 V 181.63"
       style="fill:none;stroke:#000000;stroke-width:1;stroke-linecap:butt;stroke-linejoin:miter;stroke-miterlimit:10;stroke-dasharray:none;stroke-opacity:1"
       transform="matrix(0.95645282,0,0,0.95645282,0.47822641,0.47822641)"
       clip-path="url(#clipPath35)" />
    <path
       id="path36"
       d="m 218,186.88 -3.5,-7 3.5,1.75 3.5,-1.75 z"
       style="fill:#000000;fill-opacity:1;fill-rule:nonzero;stroke:#000000;stroke-width:1;stroke-linecap:butt;stroke-linejoin:miter;stroke-miterlimit:10;stroke-dasharray:none;stroke-opacity:1"
       transform="matrix(0.95645282,0,0,0.95645282,0.47822641,0.47822641)"
       clip-path="url(#clipPath37)" />
    <path
       id="path38"
       d="M 158,8 H 278 V 48 H 158 Z"
       style="fill:#dae8fc;fill-opacity:1;fill-rule:nonzero;stroke:#6c8ebf;stroke-width:1;stroke-linecap:butt;stroke-linejoin:miter;stroke-miterlimit:10;stroke-dasharray:none;stroke-opacity:1"
       transform="matrix(0.95645282,0,0,0.95645282,0.47822641,0.47822641)"
       clip-path="url(#clipPath39)" />
    <text
       id="text39"
       xml:space="preserve"
       transform="matrix(0.95646242,0,0,0.95646242,168.09827,33.476185)"
       clip-path="url(#clipPath40)"><tspan
         style="font-variant:normal;font-weight:normal;font-size:19px;font-family:Helvetica;writing-mode:lr-tb;fill:#000000;fill-opacity:1;fill-rule:nonzero;stroke:none"
         x="0 5.2788086 19 29.566895 34.845703 40.124512 50.691406 60.191406 65.470215 70.749023 74.970215"
         y="0"
         sodipodi:role="line"
         id="tspan39">two.test.js</tspan></text>
    <path
       id="path41"
       d="m 218,208 v 6.63"
       style="fill:none;stroke:#000000;stroke-width:1;stroke-linecap:butt;stroke-linejoin:miter;stroke-miterlimit:10;stroke-dasharray:none;stroke-opacity:1"
       transform="matrix(0.95645282,0,0,0.95645282,0.47822641,0.47822641)"
       clip-path="url(#clipPath42)" />
    <path
       id="path43"
       d="m 218,219.88 -3.5,-7 3.5,1.75 3.5,-1.75 z"
       style="fill:#000000;fill-opacity:1;fill-rule:nonzero;stroke:#000000;stroke-width:1;stroke-linecap:butt;stroke-linejoin:miter;stroke-miterlimit:10;stroke-dasharray:none;stroke-opacity:1"
       transform="matrix(0.95645282,0,0,0.95645282,0.47822641,0.47822641)"
       clip-path="url(#clipPath44)" />
    <path
       id="path45"
       d="m 158,188 h 120 v 20 H 158 Z"
       style="fill:#f5f5f5;fill-opacity:1;fill-rule:nonzero;stroke:#666666;stroke-width:1;stroke-linecap:butt;stroke-linejoin:miter;stroke-miterlimit:10;stroke-dasharray:none;stroke-opacity:1"
       transform="matrix(0.95645282,0,0,0.95645282,0.47822641,0.47822641)"
       clip-path="url(#clipPath46)" />
    <text
       id="text46"
       xml:space="preserve"
       transform="matrix(0.95646242,0,0,0.95646242,184.89614,193.20541)"
       clip-path="url(#clipPath47)"><tspan
         style="font-variant:normal;font-weight:normal;font-size:12px;font-family:Helvetica;writing-mode:lr-tb;fill:#333333;fill-opacity:1;fill-rule:nonzero;stroke:none"
         x="0 6.6738281 13.347656 16.681641 20.015625 26.015625 32.689453 39.363281 46.037109"
         y="0"
         sodipodi:role="line"
         id="tspan46">get count</tspan></text>
    <path
       id="path48"
       d="m 218,241 v 7.63"
       style="fill:none;stroke:#000000;stroke-width:1;stroke-linecap:butt;stroke-linejoin:miter;stroke-miterlimit:10;stroke-dasharray:none;stroke-opacity:1"
       transform="matrix(0.95645282,0,0,0.95645282,0.47822641,0.47822641)"
       clip-path="url(#clipPath49)" />
    <path
       id="path50"
       d="m 218,253.88 -3.5,-7 3.5,1.75 3.5,-1.75 z"
       style="fill:#000000;fill-opacity:1;fill-rule:nonzero;stroke:#000000;stroke-width:1;stroke-linecap:butt;stroke-linejoin:miter;stroke-miterlimit:10;stroke-dasharray:none;stroke-opacity:1"
       transform="matrix(0.95645282,0,0,0.95645282,0.47822641,0.47822641)"
       clip-path="url(#clipPath51)" />
    <path
       id="path52"
       d="m 158,221 h 120 v 20 H 158 Z"
       style="fill:#f5f5f5;fill-opacity:1;fill-rule:nonzero;stroke:#666666;stroke-width:1;stroke-linecap:butt;stroke-linejoin:miter;stroke-miterlimit:10;stroke-dasharray:none;stroke-opacity:1"
       transform="matrix(0.95645282,0,0,0.95645282,0.47822641,0.47822641)"
       clip-path="url(#clipPath53)" />
    <text
       id="text53"
       xml:space="preserve"
       transform="matrix(0.95646242,0,0,0.95646242,179.8,224.76867)"
       clip-path="url(#clipPath54)"><tspan
         style="font-variant:normal;font-weight:normal;font-size:12px;font-family:Helvetica;writing-mode:lr-tb;fill:#333333;fill-opacity:1;fill-rule:nonzero;stroke:none"
         x="0 6 9.9960938 16.669922 23.34375 26.677734 33.351562 36.685547 43.359375 49.359375 56.033203"
         y="0"
         sodipodi:role="line"
         id="tspan53">create user</tspan></text>
    <path
       id="path55"
       d="m 218,275 v 6.63"
       style="fill:none;stroke:#000000;stroke-width:1;stroke-linecap:butt;stroke-linejoin:miter;stroke-miterlimit:10;stroke-dasharray:none;stroke-opacity:1"
       transform="matrix(0.95645282,0,0,0.95645282,0.47822641,0.47822641)"
       clip-path="url(#clipPath56)" />
    <path
       id="path57"
       d="m 218,286.88 -3.5,-7 3.5,1.75 3.5,-1.75 z"
       style="fill:#000000;fill-opacity:1;fill-rule:nonzero;stroke:#000000;stroke-width:1;stroke-linecap:butt;stroke-linejoin:miter;stroke-miterlimit:10;stroke-dasharray:none;stroke-opacity:1"
       transform="matrix(0.95645282,0,0,0.95645282,0.47822641,0.47822641)"
       clip-path="url(#clipPath58)" />
    <path
       id="path59"
       d="m 158,255 h 120 v 20 H 158 Z"
       style="fill:#f5f5f5;fill-opacity:1;fill-rule:nonzero;stroke:#666666;stroke-width:1;stroke-linecap:butt;stroke-linejoin:miter;stroke-miterlimit:10;stroke-dasharray:none;stroke-opacity:1"
       transform="matrix(0.95645282,0,0,0.95645282,0.47822641,0.47822641)"
       clip-path="url(#clipPath60)" />
    <text
       id="text60"
       xml:space="preserve"
       transform="matrix(0.95646242,0,0,0.95646242,172.77597,257.28839)"
       clip-path="url(#clipPath61)"><tspan
         style="font-variant:normal;font-weight:normal;font-size:12px;font-family:Helvetica;writing-mode:lr-tb;fill:#333333;fill-opacity:1;fill-rule:nonzero;stroke:none"
         x="0 6.6738281 13.347656 16.681641 20.015625 26.689453 33.363281 42.029297 45.363281 51.363281 58.037109 64.710938 71.384766"
         y="0"
         sodipodi:role="line"
         id="tspan60">get new count</tspan></text>
    <path
       id="path62"
       d="m 158,288 h 120 v 20 H 158 Z"
       style="fill:#f5f5f5;fill-opacity:1;fill-rule:nonzero;stroke:#666666;stroke-width:1;stroke-linecap:butt;stroke-linejoin:miter;stroke-miterlimit:10;stroke-dasharray:none;stroke-opacity:1"
       transform="matrix(0.95645282,0,0,0.95645282,0.47822641,0.47822641)"
       clip-path="url(#clipPath63)" />
    <text
       id="text63"
       xml:space="preserve"
       transform="matrix(0.95646242,0,0,0.95646242,168.78573,288.85165)"
       clip-path="url(#clipPath64)"><tspan
         style="font-variant:normal;font-weight:normal;font-size:12px;font-family:Helvetica;writing-mode:lr-tb;fill:#333333;fill-opacity:1;fill-rule:nonzero;stroke:none"
         x="0 6.6738281 13.347656 22.013672 25.347656 29.34375 32.677734 39.351562 42.017578 48.691406 52.025391 59.033203 66.041016 73.048828 76.382812"
         y="0"
         sodipodi:role="line"
         id="tspan63">new - old === 1</tspan></text>
    <path
       id="path65"
       d="M 358,48 V 301.64001"
       style="fill:none;stroke:#000000;stroke-width:1;stroke-linecap:butt;stroke-linejoin:miter;stroke-miterlimit:10;stroke-dasharray:none;stroke-opacity:1"
       transform="matrix(0.95645282,0,0,0.95645282,0.47822641,0.47822641)"
       clip-path="url(#clipPath66)" />
    <path
       id="path67"
       d="m 358,306.89001 -3.5,-7.01001 3.5,1.76001 3.5,-1.76001 z"
       style="fill:#000000;fill-opacity:1;fill-rule:nonzero;stroke:#000000;stroke-width:1;stroke-linecap:butt;stroke-linejoin:miter;stroke-miterlimit:10;stroke-dasharray:none;stroke-opacity:1"
       transform="matrix(0.95645282,0,0,0.95645282,0.47822641,0.47822641)"
       clip-path="url(#clipPath68)" />
    <path
       id="path69"
       d="M 298,8 H 418 V 48 H 298 Z"
       style="fill:#dae8fc;fill-opacity:1;fill-rule:nonzero;stroke:#6c8ebf;stroke-width:1;stroke-linecap:butt;stroke-linejoin:miter;stroke-miterlimit:10;stroke-dasharray:none;stroke-opacity:1"
       transform="matrix(0.95645282,0,0,0.95645282,0.47822641,0.47822641)"
       clip-path="url(#clipPath70)" />
    <text
       id="text70"
       xml:space="preserve"
       transform="matrix(0.95646242,0,0,0.95646242,295.44228,33.476185)"
       clip-path="url(#clipPath71)"><tspan
         style="font-variant:normal;font-weight:normal;font-size:19px;font-family:Helvetica;writing-mode:lr-tb;fill:#000000;fill-opacity:1;fill-rule:nonzero;stroke:none"
         x="0 5.2788086 15.845703 22.172852 32.739746 43.306641 48.585449 53.864258 64.431152 73.931152 79.209961 84.48877 88.709961"
         y="0"
         sodipodi:role="line"
         id="tspan70">three.test.js</tspan></text>
    <path
       id="path72"
       d="m 358,328 v 6.64001"
       style="fill:none;stroke:#000000;stroke-width:1;stroke-linecap:butt;stroke-linejoin:miter;stroke-miterlimit:10;stroke-dasharray:none;stroke-opacity:1"
       transform="matrix(0.95645282,0,0,0.95645282,0.47822641,0.47822641)"
       clip-path="url(#clipPath73)" />
    <path
       id="path74"
       d="m 358,339.89001 -3.5,-7 3.5,1.75 3.5,-1.75 z"
       style="fill:#000000;fill-opacity:1;fill-rule:nonzero;stroke:#000000;stroke-width:1;stroke-linecap:butt;stroke-linejoin:miter;stroke-miterlimit:10;stroke-dasharray:none;stroke-opacity:1"
       transform="matrix(0.95645282,0,0,0.95645282,0.47822641,0.47822641)"
       clip-path="url(#clipPath75)" />
    <path
       id="path76"
       d="m 298,308 h 120 v 20 H 298 Z"
       style="fill:#f5f5f5;fill-opacity:1;fill-rule:nonzero;stroke:#666666;stroke-width:1;stroke-linecap:butt;stroke-linejoin:miter;stroke-miterlimit:10;stroke-dasharray:none;stroke-opacity:1"
       transform="matrix(0.95645282,0,0,0.95645282,0.47822641,0.47822641)"
       clip-path="url(#clipPath77)" />
    <text
       id="text77"
       xml:space="preserve"
       transform="matrix(0.95646242,0,0,0.95646242,318.80088,307.9809)"
       clip-path="url(#clipPath78)"><tspan
         style="font-variant:normal;font-weight:normal;font-size:12px;font-family:Helvetica;writing-mode:lr-tb;fill:#333333;fill-opacity:1;fill-rule:nonzero;stroke:none"
         x="0 6.6738281 13.347656 16.681641 20.015625 26.015625 32.689453 39.363281 46.037109"
         y="0"
         sodipodi:role="line"
         id="tspan77">get count</tspan></text>
    <path
       id="path79"
       d="m 358,361 v 7.64001"
       style="fill:none;stroke:#000000;stroke-width:1;stroke-linecap:butt;stroke-linejoin:miter;stroke-miterlimit:10;stroke-dasharray:none;stroke-opacity:1"
       transform="matrix(0.95645282,0,0,0.95645282,0.47822641,0.47822641)"
       clip-path="url(#clipPath80)" />
    <path
       id="path81"
       d="m 358,373.89001 -3.5,-7 3.5,1.75 3.5,-1.75 z"
       style="fill:#000000;fill-opacity:1;fill-rule:nonzero;stroke:#000000;stroke-width:1;stroke-linecap:butt;stroke-linejoin:miter;stroke-miterlimit:10;stroke-dasharray:none;stroke-opacity:1"
       transform="matrix(0.95645282,0,0,0.95645282,0.47822641,0.47822641)"
       clip-path="url(#clipPath82)" />
    <path
       id="path83"
       d="m 298,341 h 120 v 20 H 298 Z"
       style="fill:#f5f5f5;fill-opacity:1;fill-rule:nonzero;stroke:#666666;stroke-width:1;stroke-linecap:butt;stroke-linejoin:miter;stroke-miterlimit:10;stroke-dasharray:none;stroke-opacity:1"
       transform="matrix(0.95645282,0,0,0.95645282,0.47822641,0.47822641)"
       clip-path="url(#clipPath84)" />
    <text
       id="text84"
       xml:space="preserve"
       transform="matrix(0.95646242,0,0,0.95646242,313.70474,339.54416)"
       clip-path="url(#clipPath85)"><tspan
         style="font-variant:normal;font-weight:normal;font-size:12px;font-family:Helvetica;writing-mode:lr-tb;fill:#333333;fill-opacity:1;fill-rule:nonzero;stroke:none"
         x="0 6 9.9960938 16.669922 23.34375 26.677734 33.351562 36.685547 43.359375 49.359375 56.033203"
         y="0"
         sodipodi:role="line"
         id="tspan84">create user</tspan></text>
    <path
       id="path86"
       d="m 358,395 v 6.64001"
       style="fill:none;stroke:#000000;stroke-width:1;stroke-linecap:butt;stroke-linejoin:miter;stroke-miterlimit:10;stroke-dasharray:none;stroke-opacity:1"
       transform="matrix(0.95645282,0,0,0.95645282,0.47822641,0.47822641)"
       clip-path="url(#clipPath87)" />
    <path
       id="path88"
       d="m 358,406.89001 -3.5,-7 3.5,1.75 3.5,-1.75 z"
       style="fill:#000000;fill-opacity:1;fill-rule:nonzero;stroke:#000000;stroke-width:1;stroke-linecap:butt;stroke-linejoin:miter;stroke-miterlimit:10;stroke-dasharray:none;stroke-opacity:1"
       transform="matrix(0.95645282,0,0,0.95645282,0.47822641,0.47822641)"
       clip-path="url(#clipPath89)" />
    <path
       id="path90"
       d="m 298,375 h 120 v 20 H 298 Z"
       style="fill:#f5f5f5;fill-opacity:1;fill-rule:nonzero;stroke:#666666;stroke-width:1;stroke-linecap:butt;stroke-linejoin:miter;stroke-miterlimit:10;stroke-dasharray:none;stroke-opacity:1"
       transform="matrix(0.95645282,0,0,0.95645282,0.47822641,0.47822641)"
       clip-path="url(#clipPath91)" />
    <text
       id="text91"
       xml:space="preserve"
       transform="matrix(0.95646242,0,0,0.95646242,306.68071,372.06388)"
       clip-path="url(#clipPath92)"><tspan
         style="font-variant:normal;font-weight:normal;font-size:12px;font-family:Helvetica;writing-mode:lr-tb;fill:#333333;fill-opacity:1;fill-rule:nonzero;stroke:none"
         x="0 6.6738281 13.347656 16.681641 20.015625 26.689453 33.363281 42.029297 45.363281 51.363281 58.037109 64.710938 71.384766"
         y="0"
         sodipodi:role="line"
         id="tspan91">get new count</tspan></text>
    <path
       id="path93"
       d="m 298,408 h 120 v 20 H 298 Z"
       style="fill:#f5f5f5;fill-opacity:1;fill-rule:nonzero;stroke:#666666;stroke-width:1;stroke-linecap:butt;stroke-linejoin:miter;stroke-miterlimit:10;stroke-dasharray:none;stroke-opacity:1"
       transform="matrix(0.95645282,0,0,0.95645282,0.47822641,0.47822641)"
       clip-path="url(#clipPath94)" />
    <text
       id="text94"
       xml:space="preserve"
       transform="matrix(0.95646242,0,0,0.95646242,302.69047,403.62714)"
       clip-path="url(#clipPath95)"><tspan
         style="font-variant:normal;font-weight:normal;font-size:12px;font-family:Helvetica;writing-mode:lr-tb;fill:#333333;fill-opacity:1;fill-rule:nonzero;stroke:none"
         x="0 6.6738281 13.347656 22.013672 25.347656 29.34375 32.677734 39.351562 42.017578 48.691406 52.025391 59.033203 66.041016 73.048828 76.382812"
         y="0"
         sodipodi:role="line"
         id="tspan94">new - old === 1</tspan></text>
  </g>
</svg>
