<?xml version="1.0" encoding="UTF-8" standalone="no"?>
<!-- Created with Inkscape (http://www.inkscape.org/) -->

<svg
   version="1.1"
   id="svg1"
   width="396.16"
   height="158.72"
   viewBox="0 0 396.16 158.72"
   sodipodi:docname="sql-8.pdf"
   xmlns:inkscape="http://www.inkscape.org/namespaces/inkscape"
   xmlns:sodipodi="http://sodipodi.sourceforge.net/DTD/sodipodi-0.dtd"
   xmlns="http://www.w3.org/2000/svg"
   xmlns:svg="http://www.w3.org/2000/svg">
  <defs
     id="defs1">
    <clipPath
       clipPathUnits="userSpaceOnUse"
       id="clipPath2">
      <path
         d="M 0,0 H 1237.4999 V 493.20648 H 0 Z"
         transform="scale(0.33454547)"
         clip-rule="evenodd"
         id="path2" />
    </clipPath>
    <clipPath
       clipPathUnits="userSpaceOnUse"
       id="clipPath4">
      <path
         d="M 0,0 H 1237.4999 V 490.21738 H 0 Z"
         transform="matrix(0.33454547,0,0,0.33454547,-0.49999999,-0.49999999)"
         clip-rule="evenodd"
         id="path4" />
    </clipPath>
    <clipPath
       clipPathUnits="userSpaceOnUse"
       id="clipPath6">
      <path
         d="M 0,0 H 1237.4999 V 490.21738 H 0 Z"
         transform="matrix(0.33454547,0,0,0.33454547,-0.49999999,-0.49999999)"
         clip-rule="evenodd"
         id="path6" />
    </clipPath>
    <clipPath
       clipPathUnits="userSpaceOnUse"
       id="clipPath8">
      <path
         d="M 0,0 H 1237.4999 V 490.21738 H 0 Z"
         transform="matrix(0.33454547,0,0,0.33454547,-0.49999999,-0.49999999)"
         clip-rule="evenodd"
         id="path8" />
    </clipPath>
    <clipPath
       clipPathUnits="userSpaceOnUse"
       id="clipPath9">
      <path
         d="M 0,0 H 1237.4999 V 490.21738 H 0 Z"
         transform="matrix(0.33454211,0,0,0.33454211,-29.312499,-36.999999)"
         clip-rule="evenodd"
         id="path9" />
    </clipPath>
    <clipPath
       clipPathUnits="userSpaceOnUse"
       id="clipPath11">
      <path
         d="M 0,0 H 1237.4999 V 490.21738 H 0 Z"
         transform="matrix(0.33454547,0,0,0.33454547,-0.49999999,-0.49999999)"
         clip-rule="evenodd"
         id="path11" />
    </clipPath>
    <clipPath
       clipPathUnits="userSpaceOnUse"
       id="clipPath12">
      <path
         d="M 0,0 H 1237.4999 V 490.21738 H 0 Z"
         transform="matrix(0.33454211,0,0,0.33454211,-240.96875,-36.999999)"
         clip-rule="evenodd"
         id="path12" />
    </clipPath>
    <clipPath
       clipPathUnits="userSpaceOnUse"
       id="clipPath14">
      <path
         d="M 0,0 H 1237.4999 V 490.21738 H 0 Z"
         transform="matrix(0.33454547,0,0,0.33454547,-0.49999999,-0.49999999)"
         clip-rule="evenodd"
         id="path14" />
    </clipPath>
    <clipPath
       clipPathUnits="userSpaceOnUse"
       id="clipPath16">
      <path
         d="M 0,0 H 1237.4999 V 490.21738 H 0 Z"
         transform="matrix(0.33454547,0,0,0.33454547,-0.49999999,-0.49999999)"
         clip-rule="evenodd"
         id="path16" />
    </clipPath>
    <clipPath
       clipPathUnits="userSpaceOnUse"
       id="clipPath18">
      <path
         d="M 0,0 H 1237.4999 V 490.21738 H 0 Z"
         transform="matrix(0.33454547,0,0,0.33454547,-0.49999999,-0.49999999)"
         clip-rule="evenodd"
         id="path18" />
    </clipPath>
    <clipPath
       clipPathUnits="userSpaceOnUse"
       id="clipPath19">
      <path
         d="M 0,0 H 1237.4999 V 490.21738 H 0 Z"
         transform="matrix(0.33454211,0,0,0.33454211,-18.078125,-137)"
         clip-rule="evenodd"
         id="path19" />
    </clipPath>
    <clipPath
       clipPathUnits="userSpaceOnUse"
       id="clipPath21">
      <path
         d="M 0,0 H 1237.4999 V 490.21738 H 0 Z"
         transform="matrix(0.33454547,0,0,0.33454547,-0.49999999,-0.49999999)"
         clip-rule="evenodd"
         id="path21" />
    </clipPath>
    <clipPath
       clipPathUnits="userSpaceOnUse"
       id="clipPath22">
      <path
         d="M 0,0 H 1237.4999 V 490.21738 H 0 Z"
         transform="matrix(0.33454211,0,0,0.33454211,-223.03125,-137)"
         clip-rule="evenodd"
         id="path22" />
    </clipPath>
  </defs>
  <sodipodi:namedview
     id="namedview1"
     pagecolor="#ffffff"
     bordercolor="#000000"
     borderopacity="0.25"
     inkscape:showpageshadow="2"
     inkscape:pageopacity="0.0"
     inkscape:pagecheckerboard="0"
     inkscape:deskcolor="#d1d1d1">
    <inkscape:page
       x="0"
       y="0"
       inkscape:label="1"
       id="page1"
       width="396.16"
       height="158.72"
       margin="0"
       bleed="0" />
  </sodipodi:namedview>
  <g
     id="g1"
     inkscape:groupmode="layer"
     inkscape:label="1">
    <path
       id="path1"
       d="M 0,0 H 414 V 165 H 0 Z"
       style="fill:#ffffff;fill-opacity:1;fill-rule:nonzero;stroke:none"
       transform="scale(0.95652166)"
       clip-path="url(#clipPath2)" />
    <path
       id="path3"
       d="m 121,31 h 20 13.63"
       style="fill:none;stroke:#000000;stroke-width:1;stroke-linecap:butt;stroke-linejoin:miter;stroke-miterlimit:10;stroke-dasharray:none;stroke-opacity:1"
       transform="matrix(0.95652166,0,0,0.95652166,0.47826082,0.47826082)"
       clip-path="url(#clipPath4)" />
    <path
       id="path5"
       d="m 159.88,31 -7,3.5 1.75,-3.5 -1.75,-3.5 z"
       style="fill:#000000;fill-opacity:1;fill-rule:nonzero;stroke:#000000;stroke-width:1;stroke-linecap:butt;stroke-linejoin:miter;stroke-miterlimit:10;stroke-dasharray:none;stroke-opacity:1"
       transform="matrix(0.95652166,0,0,0.95652166,0.47826082,0.47826082)"
       clip-path="url(#clipPath6)" />
    <path
       id="path7"
       d="M 1,1 H 121 V 61 H 1 Z"
       style="fill:#dae8fc;fill-opacity:1;fill-rule:nonzero;stroke:#6c8ebf;stroke-width:1;stroke-linecap:butt;stroke-linejoin:miter;stroke-miterlimit:10;stroke-dasharray:none;stroke-opacity:1"
       transform="matrix(0.95652166,0,0,0.95652166,0.47826082,0.47826082)"
       clip-path="url(#clipPath8)" />
    <text
       id="text8"
       xml:space="preserve"
       transform="matrix(0.95653126,0,0,0.95653126,28.038322,35.391656)"
       clip-path="url(#clipPath9)"><tspan
         style="font-variant:normal;font-weight:700;font-size:15px;font-family:Helvetica;writing-mode:lr-tb;fill:#000000;fill-opacity:1;fill-rule:nonzero;stroke:none"
         x="0 10.004883 19.16748 27.509766 32.504883 45.842285 54.18457"
         y="0"
         sodipodi:role="line"
         id="tspan8">Postman</tspan></text>
    <path
       id="path10"
       d="M 161,1 H 411 V 61 H 161 Z"
       style="fill:#ffffff;fill-opacity:1;fill-rule:nonzero;stroke:#000000;stroke-width:1;stroke-linecap:butt;stroke-linejoin:miter;stroke-miterlimit:10;stroke-dasharray:none;stroke-opacity:1"
       transform="matrix(0.95652166,0,0,0.95652166,0.47826082,0.47826082)"
       clip-path="url(#clipPath11)" />
    <text
       id="text11"
       xml:space="preserve"
       transform="matrix(0.95653126,0,0,0.95653126,230.49414,35.391656)"
       clip-path="url(#clipPath12)"><tspan
         style="font-variant:normal;font-weight:normal;font-size:15px;font-family:Helvetica;writing-mode:lr-tb;fill:#000000;fill-opacity:1;fill-rule:nonzero;stroke:none"
         x="0 8.3422852 16.68457 24.18457 28.352051 40.847168 49.189453 57.531738 61.699219 69.199219 77.541504"
         y="0"
         sodipodi:role="line"
         id="tspan11">postman.com</tspan></text>
    <path
       id="path13"
       d="m 121,131 h 20 13.63"
       style="fill:none;stroke:#000000;stroke-width:1;stroke-linecap:butt;stroke-linejoin:miter;stroke-miterlimit:10;stroke-dasharray:none;stroke-opacity:1"
       transform="matrix(0.95652166,0,0,0.95652166,0.47826082,0.47826082)"
       clip-path="url(#clipPath14)" />
    <path
       id="path15"
       d="m 159.88,131 -7,3.5 1.75,-3.5 -1.75,-3.5 z"
       style="fill:#000000;fill-opacity:1;fill-rule:nonzero;stroke:#000000;stroke-width:1;stroke-linecap:butt;stroke-linejoin:miter;stroke-miterlimit:10;stroke-dasharray:none;stroke-opacity:1"
       transform="matrix(0.95652166,0,0,0.95652166,0.47826082,0.47826082)"
       clip-path="url(#clipPath16)" />
    <path
       id="path17"
       d="m 1,101 h 120 v 60 H 1 Z"
       style="fill:#dae8fc;fill-opacity:1;fill-rule:nonzero;stroke:#6c8ebf;stroke-width:1;stroke-linecap:butt;stroke-linejoin:miter;stroke-miterlimit:10;stroke-dasharray:none;stroke-opacity:1"
       transform="matrix(0.95652166,0,0,0.95652166,0.47826082,0.47826082)"
       clip-path="url(#clipPath18)" />
    <text
       id="text18"
       xml:space="preserve"
       transform="matrix(0.95653126,0,0,0.95653126,17.292292,131.04478)"
       clip-path="url(#clipPath19)"><tspan
         style="font-variant:normal;font-weight:700;font-size:15px;font-family:Helvetica;writing-mode:lr-tb;fill:#000000;fill-opacity:1;fill-rule:nonzero;stroke:none"
         x="0 10.83252 20.837402 30.842285 40.004883 44.172363 55.004883 59.172363 63.339844 71.682129 80.844727"
         y="0"
         sodipodi:role="line"
         id="tspan18">REST Client</tspan></text>
    <path
       id="path20"
       d="m 161,101 h 250 v 60 H 161 Z"
       style="fill:#ffffff;fill-opacity:1;fill-rule:nonzero;stroke:#000000;stroke-width:1;stroke-linecap:butt;stroke-linejoin:miter;stroke-miterlimit:10;stroke-dasharray:none;stroke-opacity:1"
       transform="matrix(0.95652166,0,0,0.95652166,0.47826082,0.47826082)"
       clip-path="url(#clipPath21)" />
    <text
       id="text21"
       xml:space="preserve"
       transform="matrix(0.95653126,0,0,0.95653126,213.33636,131.04478)"
       clip-path="url(#clipPath22)"><tspan
         style="font-variant:normal;font-weight:normal;font-size:15px;font-family:Helvetica;writing-mode:lr-tb;fill:#000000;fill-opacity:1;fill-rule:nonzero;stroke:none"
         x="0 10.004883 20.009766 30.842285 39.18457 47.526855 55.869141 60.036621 70.041504 77.541504 81.708984 90.05127 98.393555 105.89355 109.22607 117.56836"
         y="0"
         sodipodi:role="line"
         id="tspan21">VSCode Extension</tspan></text>
  </g>
</svg>
