<?xml version="1.0" encoding="UTF-8" standalone="no"?>
<!-- Created with Inkscape (http://www.inkscape.org/) -->

<svg
   version="1.1"
   id="svg1"
   width="366.72"
   height="168"
   viewBox="0 0 366.72 168"
   sodipodi:docname="sql-11.pdf"
   xmlns:inkscape="http://www.inkscape.org/namespaces/inkscape"
   xmlns:sodipodi="http://sodipodi.sourceforge.net/DTD/sodipodi-0.dtd"
   xmlns="http://www.w3.org/2000/svg"
   xmlns:svg="http://www.w3.org/2000/svg">
  <defs
     id="defs1">
    <clipPath
       clipPathUnits="userSpaceOnUse"
       id="clipPath2">
      <path
         d="M 0,0 H 1145.8333 V 522.18964 H 0 Z"
         transform="scale(0.33512729)"
         clip-rule="evenodd"
         id="path2" />
    </clipPath>
    <clipPath
       clipPathUnits="userSpaceOnUse"
       id="clipPath4">
      <path
         d="M 0,0 H 1145.8333 V 519.20569 H 0 Z"
         transform="matrix(0.33512729,0,0,0.33512729,-0.5,-0.5)"
         clip-rule="evenodd"
         id="path4" />
    </clipPath>
    <clipPath
       clipPathUnits="userSpaceOnUse"
       id="clipPath5">
      <path
         d="M 0,0 H 1145.8333 V 519.20569 H 0 Z"
         transform="matrix(0.33512395,0,0,0.33512395,-80.5625,-33)"
         clip-rule="evenodd"
         id="path5" />
    </clipPath>
    <clipPath
       clipPathUnits="userSpaceOnUse"
       id="clipPath7">
      <path
         d="M 0,0 H 1145.8333 V 519.20569 H 0 Z"
         transform="matrix(0.33512729,0,0,0.33512729,-0.5,-0.5)"
         clip-rule="evenodd"
         id="path7" />
    </clipPath>
    <clipPath
       clipPathUnits="userSpaceOnUse"
       id="clipPath8">
      <path
         d="M 0,0 H 1145.8333 V 519.20569 H 0 Z"
         transform="matrix(0.33512395,0,0,0.33512395,-9.6562501,-83)"
         clip-rule="evenodd"
         id="path8" />
    </clipPath>
    <clipPath
       clipPathUnits="userSpaceOnUse"
       id="clipPath9">
      <path
         d="M 0,0 H 1145.8333 V 519.20569 H 0 Z"
         transform="matrix(0.33512395,0,0,0.33512395,-143.02685,-83)"
         clip-rule="evenodd"
         id="path9" />
    </clipPath>
    <clipPath
       clipPathUnits="userSpaceOnUse"
       id="clipPath10">
      <path
         d="M 0,0 H 1145.8333 V 519.20569 H 0 Z"
         transform="matrix(0.33512395,0,0,0.33512395,-121.78125,-101)"
         clip-rule="evenodd"
         id="path10" />
    </clipPath>
    <clipPath
       clipPathUnits="userSpaceOnUse"
       id="clipPath12">
      <path
         d="M 0,0 H 1145.8333 V 519.20569 H 0 Z"
         transform="matrix(0.33512729,0,0,0.33512729,-0.5,-0.5)"
         clip-rule="evenodd"
         id="path12" />
    </clipPath>
    <clipPath
       clipPathUnits="userSpaceOnUse"
       id="clipPath13">
      <path
         d="M 0,0 H 1145.8333 V 519.20569 H 0 Z"
         transform="matrix(0.33512395,0,0,0.33512395,-15.484375,-143)"
         clip-rule="evenodd"
         id="path13" />
    </clipPath>
    <clipPath
       clipPathUnits="userSpaceOnUse"
       id="clipPath14">
      <path
         d="M 0,0 H 1145.8333 V 519.20569 H 0 Z"
         transform="matrix(0.33512395,0,0,0.33512395,-128.45313,-161)"
         clip-rule="evenodd"
         id="path14" />
    </clipPath>
  </defs>
  <sodipodi:namedview
     id="namedview1"
     pagecolor="#ffffff"
     bordercolor="#000000"
     borderopacity="0.25"
     inkscape:showpageshadow="2"
     inkscape:pageopacity="0.0"
     inkscape:pagecheckerboard="0"
     inkscape:deskcolor="#d1d1d1">
    <inkscape:page
       x="0"
       y="0"
       inkscape:label="1"
       id="page1"
       width="366.72"
       height="168"
       margin="0"
       bleed="0" />
  </sodipodi:namedview>
  <g
     id="g1"
     inkscape:groupmode="layer"
     inkscape:label="1">
    <path
       id="path1"
       d="M 0,0 H 384 V 175 H 0 Z"
       style="fill:#ffffff;fill-opacity:1;fill-rule:nonzero;stroke:none"
       transform="scale(0.95486102)"
       clip-path="url(#clipPath2)" />
    <path
       id="path3"
       d="M 1,1 H 381 V 51 H 1 Z"
       style="fill:#f8cecc;fill-opacity:1;fill-rule:nonzero;stroke:#b85450;stroke-width:1;stroke-linecap:butt;stroke-linejoin:miter;stroke-miterlimit:10;stroke-dasharray:none;stroke-opacity:1"
       transform="matrix(0.95486102,0,0,0.95486102,0.47743051,0.47743051)"
       clip-path="url(#clipPath4)" />
    <text
       id="text4"
       xml:space="preserve"
       transform="matrix(0.95487055,0,0,0.95487055,76.926759,31.510728)"
       clip-path="url(#clipPath5)"><tspan
         style="font-variant:normal;font-weight:700;font-size:22px;font-family:Helvetica;writing-mode:lr-tb;fill:#000000;fill-opacity:1;fill-rule:nonzero;stroke:none"
         x="0 14.673828 31.786133 44.837891 50.950195 57.0625 70.500977 76.613281 88.848633 101.08398 108.41016 114.52246 127.96094 141.39941 147.51172 162.18555 174.4209 187.85938 193.97168 207.41016 213.52246"
         y="0"
         sodipodi:role="line"
         id="tspan4">SQL Injection Exploit</tspan></text>
    <path
       id="path6"
       d="m 1,61 h 380 v 50 H 1 Z"
       style="fill:#f5f5f5;fill-opacity:1;fill-rule:nonzero;stroke:#666666;stroke-width:1;stroke-linecap:butt;stroke-linejoin:miter;stroke-miterlimit:10;stroke-dasharray:none;stroke-opacity:1"
       transform="matrix(0.95486102,0,0,0.95486102,0.47743051,0.47743051)"
       clip-path="url(#clipPath7)" />
    <text
       id="text7"
       xml:space="preserve"
       transform="matrix(0.95487055,0,0,0.95487055,9.2204688,79.254256)"
       clip-path="url(#clipPath8)"><tspan
         style="font-variant:normal;font-weight:700;font-size:15px;font-family:Helvetica;writing-mode:lr-tb;fill:#333333;fill-opacity:1;fill-rule:nonzero;stroke:none"
         x="0 14.157715 24.162598 28.330078 39.162598 49.16748 59.172363 69.177246 80.009766 84.177246 88.344727 98.349609 108.35449 118.35938"
         y="0"
         sodipodi:role="line"
         id="tspan7">WE NEVER, EVER</tspan></text>
    <text
       id="text8"
       xml:space="preserve"
       transform="matrix(0.95487055,0,0,0.95487055,136.57213,79.254256)"
       clip-path="url(#clipPath9)"><tspan
         style="font-variant:normal;font-weight:normal;font-size:15px;font-family:Helvetica;writing-mode:lr-tb;fill:#333333;fill-opacity:1;fill-rule:nonzero;stroke:none"
         x="0 8.3422852 11.674805 16.669922 25.012207 32.512207 36.679688 40.012207 47.512207 51.679688 59.179688 67.521973 75.864258 83.364258 91.706543 95.874023 104.21631 112.55859 120.90088 125.06836 133.41064 137.57812 145.92041 153.42041 161.7627 166.75781 171.75293 180.09521 185.09033 193.43262 200.93262 204.26514 212.60742 220.94971"
         y="0"
         sodipodi:role="line"
         id="tspan8">directly concatenate user-provided</tspan></text>
    <text
       id="text9"
       xml:space="preserve"
       transform="matrix(0.95487055,0,0,0.95487055,116.28533,96.441926)"
       clip-path="url(#clipPath10)"><tspan
         style="font-variant:normal;font-weight:normal;font-size:15px;font-family:Helvetica;writing-mode:lr-tb;fill:#333333;fill-opacity:1;fill-rule:nonzero;stroke:none"
         x="0 3.3325195 11.674805 20.01709 28.359375 32.526855 36.694336 40.026855 48.369141 52.536621 60.878906 65.046387 73.388672 77.556152 85.056152 93.398438 96.730957 100.89844 109.24072 117.58301 125.92529 130.92041"
         y="0"
         sodipodi:role="line"
         id="tspan9">input into a sql query</tspan></text>
    <path
       id="path11"
       d="m 1,121 h 380 v 50 H 1 Z"
       style="fill:#f5f5f5;fill-opacity:1;fill-rule:nonzero;stroke:#666666;stroke-width:1;stroke-linecap:butt;stroke-linejoin:miter;stroke-miterlimit:10;stroke-dasharray:none;stroke-opacity:1"
       transform="matrix(0.95486102,0,0,0.95486102,0.47743051,0.47743051)"
       clip-path="url(#clipPath12)" />
    <text
       id="text12"
       xml:space="preserve"
       transform="matrix(0.95487055,0,0,0.95487055,14.785574,136.54649)"
       clip-path="url(#clipPath13)"><tspan
         style="font-variant:normal;font-weight:normal;font-size:15px;font-family:Helvetica;writing-mode:lr-tb;fill:#333333;fill-opacity:1;fill-rule:nonzero;stroke:none"
         x="0 9.1625977 17.504883 25.847168 30.842285 39.18457 43.352051 51.694336 56.689453 65.031738 69.199219 77.541504 81.708984 89.208984 97.55127 102.54639 105.87891 114.22119 118.38867 125.88867 130.05615 138.39844 142.56592 146.7334 154.2334 162.57568 166.74316 175.08545 179.25293 190.08545 198.42773 205.92773 213.42773 217.59521 221.7627 230.10498 234.27246 242.61475 250.95703 255.12451 259.29199 267.63428 275.13428 283.47656 288.47168 293.4668 301.80908 306.8042 315.14648 322.64648 325.979 334.32129 342.66357"
         y="0"
         sodipodi:role="line"
         id="tspan12">There are a variety of safe ways to get user-provided</tspan></text>
    <text
       id="text13"
       xml:space="preserve"
       transform="matrix(0.95487055,0,0,0.95487055,122.65611,153.73416)"
       clip-path="url(#clipPath14)"><tspan
         style="font-variant:normal;font-weight:normal;font-size:15px;font-family:Helvetica;writing-mode:lr-tb;fill:#333333;fill-opacity:1;fill-rule:nonzero;stroke:none"
         x="0 7.5 15.842285 19.174805 27.51709 35.859375 43.359375 47.526855 50.859375 59.20166 63.369141 71.711426 75.878906 84.221191 88.388672 95.888672 100.05615 105.05127 108.38379 116.72607"
         y="0"
         sodipodi:role="line"
         id="tspan13">values into a string</tspan></text>
  </g>
</svg>
