<?xml version="1.0" encoding="UTF-8" standalone="no"?>
<!-- Created with Inkscape (http://www.inkscape.org/) -->

<svg
   version="1.1"
   id="svg1"
   width="712"
   height="456"
   viewBox="0 0 712 456"
   sodipodi:docname="sql-5.pdf"
   xmlns:inkscape="http://www.inkscape.org/namespaces/inkscape"
   xmlns:sodipodi="http://sodipodi.sourceforge.net/DTD/sodipodi-0.dtd"
   xmlns="http://www.w3.org/2000/svg"
   xmlns:svg="http://www.w3.org/2000/svg">
  <defs
     id="defs1">
    <clipPath
       clipPathUnits="userSpaceOnUse"
       id="clipPath2">
      <path
         d="M 0,0 H 2224.9998 V 1423.5214 H 0 Z"
         transform="scale(0.33438207)"
         clip-rule="evenodd"
         id="path2" />
    </clipPath>
    <clipPath
       clipPathUnits="userSpaceOnUse"
       id="clipPath4">
      <path
         d="M 0,0 H 2224.9998 V 1417.5402 H 0 Z"
         transform="matrix(0.33438207,0,0,0.33438207,-0.50000001,-0.50000001)"
         clip-rule="evenodd"
         id="path4" />
    </clipPath>
    <clipPath
       clipPathUnits="userSpaceOnUse"
       id="clipPath5">
      <path
         d="M 0,0 H 2224.9998 V 1417.5402 H 0 Z"
         transform="matrix(0.3343787,0,0,0.3343787,-65.453125,-28)"
         clip-rule="evenodd"
         id="path5" />
    </clipPath>
    <clipPath
       clipPathUnits="userSpaceOnUse"
       id="clipPath7">
      <path
         d="M 0,0 H 2224.9998 V 1417.5402 H 0 Z"
         transform="matrix(0.33438207,0,0,0.33438207,-0.50000001,-0.50000001)"
         clip-rule="evenodd"
         id="path7" />
    </clipPath>
    <clipPath
       clipPathUnits="userSpaceOnUse"
       id="clipPath9">
      <path
         d="M 0,0 H 2224.9998 V 1417.5402 H 0 Z"
         transform="matrix(0.33438207,0,0,0.33438207,-0.50000001,-0.50000001)"
         clip-rule="evenodd"
         id="path9" />
    </clipPath>
    <clipPath
       clipPathUnits="userSpaceOnUse"
       id="clipPath10">
      <path
         d="M 0,0 H 2224.9998 V 1417.5402 H 0 Z"
         transform="matrix(0.3343787,0,0,0.3343787,-66.234376,-83)"
         clip-rule="evenodd"
         id="path10" />
    </clipPath>
    <clipPath
       clipPathUnits="userSpaceOnUse"
       id="clipPath12">
      <path
         d="M 0,0 H 2224.9998 V 1417.5402 H 0 Z"
         transform="matrix(0.33438207,0,0,0.33438207,-0.50000001,-0.50000001)"
         clip-rule="evenodd"
         id="path12" />
    </clipPath>
    <clipPath
       clipPathUnits="userSpaceOnUse"
       id="clipPath13">
      <path
         d="M 0,0 H 2224.9998 V 1417.5402 H 0 Z"
         transform="matrix(0.3343787,0,0,0.3343787,-59.046875,-293)"
         clip-rule="evenodd"
         id="path13" />
    </clipPath>
    <clipPath
       clipPathUnits="userSpaceOnUse"
       id="clipPath15">
      <path
         d="M 0,0 H 2224.9998 V 1417.5402 H 0 Z"
         transform="matrix(0.33438207,0,0,0.33438207,-0.50000001,-0.50000001)"
         clip-rule="evenodd"
         id="path15" />
    </clipPath>
    <clipPath
       clipPathUnits="userSpaceOnUse"
       id="clipPath17">
      <path
         d="M 0,0 H 2224.9998 V 1417.5402 H 0 Z"
         transform="matrix(0.33438207,0,0,0.33438207,-0.50000001,-0.50000001)"
         clip-rule="evenodd"
         id="path17" />
    </clipPath>
    <clipPath
       clipPathUnits="userSpaceOnUse"
       id="clipPath19">
      <path
         d="M 0,0 H 2224.9998 V 1417.5402 H 0 Z"
         transform="matrix(0.33438207,0,0,0.33438207,-0.50000001,-0.50000001)"
         clip-rule="evenodd"
         id="path19" />
    </clipPath>
    <clipPath
       clipPathUnits="userSpaceOnUse"
       id="clipPath20">
      <path
         d="M 0,0 H 2224.9998 V 1417.5402 H 0 Z"
         transform="matrix(0.3343787,0,0,0.3343787,-98.625,-123)"
         clip-rule="evenodd"
         id="path20" />
    </clipPath>
    <clipPath
       clipPathUnits="userSpaceOnUse"
       id="clipPath22">
      <path
         d="M 0,0 H 2224.9998 V 1417.5402 H 0 Z"
         transform="matrix(0.33438207,0,0,0.33438207,-0.50000001,-0.50000001)"
         clip-rule="evenodd"
         id="path22" />
    </clipPath>
    <clipPath
       clipPathUnits="userSpaceOnUse"
       id="clipPath23">
      <path
         d="M 0,0 H 2224.9998 V 1417.5402 H 0 Z"
         transform="matrix(0.3343787,0,0,0.3343787,-86.625,-163)"
         clip-rule="evenodd"
         id="path23" />
    </clipPath>
    <clipPath
       clipPathUnits="userSpaceOnUse"
       id="clipPath25">
      <path
         d="M 0,0 H 2224.9998 V 1417.5402 H 0 Z"
         transform="matrix(0.33438207,0,0,0.33438207,-0.50000001,-0.50000001)"
         clip-rule="evenodd"
         id="path25" />
    </clipPath>
    <clipPath
       clipPathUnits="userSpaceOnUse"
       id="clipPath26">
      <path
         d="M 0,0 H 2224.9998 V 1417.5402 H 0 Z"
         transform="matrix(0.3343787,0,0,0.3343787,-94.625,-203)"
         clip-rule="evenodd"
         id="path26" />
    </clipPath>
    <clipPath
       clipPathUnits="userSpaceOnUse"
       id="clipPath28">
      <path
         d="M 0,0 H 2224.9998 V 1417.5402 H 0 Z"
         transform="matrix(0.33438207,0,0,0.33438207,-0.50000001,-0.50000001)"
         clip-rule="evenodd"
         id="path28" />
    </clipPath>
    <clipPath
       clipPathUnits="userSpaceOnUse"
       id="clipPath29">
      <path
         d="M 0,0 H 2224.9998 V 1417.5402 H 0 Z"
         transform="matrix(0.3343787,0,0,0.3343787,-91.609375,-333)"
         clip-rule="evenodd"
         id="path29" />
    </clipPath>
    <clipPath
       clipPathUnits="userSpaceOnUse"
       id="clipPath31">
      <path
         d="M 0,0 H 2224.9998 V 1417.5402 H 0 Z"
         transform="matrix(0.33438207,0,0,0.33438207,-0.50000001,-0.50000001)"
         clip-rule="evenodd"
         id="path31" />
    </clipPath>
    <clipPath
       clipPathUnits="userSpaceOnUse"
       id="clipPath32">
      <path
         d="M 0,0 H 2224.9998 V 1417.5402 H 0 Z"
         transform="matrix(0.3343787,0,0,0.3343787,-64.609375,-373)"
         clip-rule="evenodd"
         id="path32" />
    </clipPath>
    <clipPath
       clipPathUnits="userSpaceOnUse"
       id="clipPath34">
      <path
         d="M 0,0 H 2224.9998 V 1417.5402 H 0 Z"
         transform="matrix(0.33438207,0,0,0.33438207,-0.50000001,-0.50000001)"
         clip-rule="evenodd"
         id="path34" />
    </clipPath>
    <clipPath
       clipPathUnits="userSpaceOnUse"
       id="clipPath35">
      <path
         d="M 0,0 H 2224.9998 V 1417.5402 H 0 Z"
         transform="matrix(0.3343787,0,0,0.3343787,-382.57813,-93)"
         clip-rule="evenodd"
         id="path35" />
    </clipPath>
    <clipPath
       clipPathUnits="userSpaceOnUse"
       id="clipPath37">
      <path
         d="M 0,0 H 2224.9998 V 1417.5402 H 0 Z"
         transform="matrix(0.33438207,0,0,0.33438207,-0.50000001,-0.50000001)"
         clip-rule="evenodd"
         id="path37" />
    </clipPath>
    <clipPath
       clipPathUnits="userSpaceOnUse"
       id="clipPath38">
      <path
         d="M 0,0 H 2224.9998 V 1417.5402 H 0 Z"
         transform="matrix(0.3343787,0,0,0.3343787,-369.89063,-153)"
         clip-rule="evenodd"
         id="path38" />
    </clipPath>
    <clipPath
       clipPathUnits="userSpaceOnUse"
       id="clipPath40">
      <path
         d="M 0,0 H 2224.9998 V 1417.5402 H 0 Z"
         transform="matrix(0.33438207,0,0,0.33438207,-0.50000001,-0.50000001)"
         clip-rule="evenodd"
         id="path40" />
    </clipPath>
    <clipPath
       clipPathUnits="userSpaceOnUse"
       id="clipPath41">
      <path
         d="M 0,0 H 2224.9998 V 1417.5402 H 0 Z"
         transform="matrix(0.3343787,0,0,0.3343787,-373.39063,-213)"
         clip-rule="evenodd"
         id="path41" />
    </clipPath>
    <clipPath
       clipPathUnits="userSpaceOnUse"
       id="clipPath43">
      <path
         d="M 0,0 H 2224.9998 V 1417.5402 H 0 Z"
         transform="matrix(0.33438207,0,0,0.33438207,-0.50000001,-0.50000001)"
         clip-rule="evenodd"
         id="path43" />
    </clipPath>
    <clipPath
       clipPathUnits="userSpaceOnUse"
       id="clipPath44">
      <path
         d="M 0,0 H 2224.9998 V 1417.5402 H 0 Z"
         transform="matrix(0.3343787,0,0,0.3343787,-354.20313,-262)"
         clip-rule="evenodd"
         id="path44" />
    </clipPath>
    <clipPath
       clipPathUnits="userSpaceOnUse"
       id="clipPath45">
      <path
         d="M 0,0 H 2224.9998 V 1417.5402 H 0 Z"
         transform="matrix(0.3343787,0,0,0.3343787,-401.40625,-284)"
         clip-rule="evenodd"
         id="path45" />
    </clipPath>
    <clipPath
       clipPathUnits="userSpaceOnUse"
       id="clipPath47">
      <path
         d="M 0,0 H 2224.9998 V 1417.5402 H 0 Z"
         transform="matrix(0.33438207,0,0,0.33438207,-0.50000001,-0.50000001)"
         clip-rule="evenodd"
         id="path47" />
    </clipPath>
    <clipPath
       clipPathUnits="userSpaceOnUse"
       id="clipPath48">
      <path
         d="M 0,0 H 2224.9998 V 1417.5402 H 0 Z"
         transform="matrix(0.3343787,0,0,0.3343787,-98.625,-413)"
         clip-rule="evenodd"
         id="path48" />
    </clipPath>
  </defs>
  <sodipodi:namedview
     id="namedview1"
     pagecolor="#ffffff"
     bordercolor="#000000"
     borderopacity="0.25"
     inkscape:showpageshadow="2"
     inkscape:pageopacity="0.0"
     inkscape:pagecheckerboard="0"
     inkscape:deskcolor="#d1d1d1">
    <inkscape:page
       x="0"
       y="0"
       inkscape:label="1"
       id="page1"
       width="712"
       height="456"
       margin="0"
       bleed="0" />
  </sodipodi:namedview>
  <g
     id="g1"
     inkscape:groupmode="layer"
     inkscape:label="1">
    <path
       id="path1"
       d="M 0,0 H 744 V 476 H 0 Z"
       style="fill:#ffffff;fill-opacity:1;fill-rule:nonzero;stroke:none"
       transform="scale(0.95698908)"
       clip-path="url(#clipPath2)" />
    <path
       id="path3"
       d="M 1,1 H 291 V 41 H 1 Z"
       style="fill:#dae8fc;fill-opacity:1;fill-rule:nonzero;stroke:#6c8ebf;stroke-width:1;stroke-linecap:butt;stroke-linejoin:miter;stroke-miterlimit:10;stroke-dasharray:none;stroke-opacity:1"
       transform="matrix(0.95698908,0,0,0.95698908,0.47849455,0.47849455)"
       clip-path="url(#clipPath4)" />
    <text
       id="text4"
       xml:space="preserve"
       transform="matrix(0.95699871,0,0,0.95699871,62.638556,26.795964)"
       clip-path="url(#clipPath5)"><tspan
         style="font-variant:normal;font-weight:700;font-size:21px;font-family:Helvetica;writing-mode:lr-tb;fill:#000000;fill-opacity:1;fill-rule:nonzero;stroke:none"
         x="0 14.006836 26.834473 38.513672 45.506836 58.334473 66.506836 78.186035 89.865234 95.699707 109.70654 121.38574 129.55811 141.2373 152.9165"
         y="0"
         sodipodi:role="line"
         id="tspan4">Postgres Server</tspan></text>
    <path
       id="path6"
       d="M 1,41 H 291 V 471 H 1 Z"
       style="fill:#dae8fc;fill-opacity:1;fill-rule:nonzero;stroke:#6c8ebf;stroke-width:1;stroke-linecap:butt;stroke-linejoin:miter;stroke-miterlimit:10;stroke-dasharray:none;stroke-opacity:1"
       transform="matrix(0.95698908,0,0,0.95698908,0.47849455,0.47849455)"
       clip-path="url(#clipPath7)" />
    <path
       id="path8"
       d="M 11,61 H 281 V 91 H 11 Z"
       style="fill:#d5e8d4;fill-opacity:1;fill-rule:nonzero;stroke:#82b366;stroke-width:1;stroke-linecap:butt;stroke-linejoin:miter;stroke-miterlimit:10;stroke-dasharray:none;stroke-opacity:1"
       transform="matrix(0.95698908,0,0,0.95698908,0.47849455,0.47849455)"
       clip-path="url(#clipPath9)" />
    <text
       id="text9"
       xml:space="preserve"
       transform="matrix(0.95699871,0,0,0.95699871,63.386212,79.430893)"
       clip-path="url(#clipPath10)"><tspan
         style="font-variant:normal;font-weight:700;font-size:21px;font-family:Helvetica;writing-mode:lr-tb;fill:#000000;fill-opacity:1;fill-rule:nonzero;stroke:none"
         x="0 12.458496 28.792969 43.958496 60.292969 66.127441 81.292969 92.972168 99.965332 111.64453 124.47217 136.15137 147.83057"
         y="0"
         sodipodi:role="line"
         id="tspan9">TODO Database</tspan></text>
    <path
       id="path11"
       d="m 11,271 h 270 v 30 H 11 Z"
       style="fill:#d5e8d4;fill-opacity:1;fill-rule:nonzero;stroke:#82b366;stroke-width:1;stroke-linecap:butt;stroke-linejoin:miter;stroke-miterlimit:10;stroke-dasharray:none;stroke-opacity:1"
       transform="matrix(0.95698908,0,0,0.95698908,0.47849455,0.47849455)"
       clip-path="url(#clipPath12)" />
    <text
       id="text12"
       xml:space="preserve"
       transform="matrix(0.95699871,0,0,0.95699871,56.507783,280.40062)"
       clip-path="url(#clipPath13)"><tspan
         style="font-variant:normal;font-weight:700;font-size:21px;font-family:Helvetica;writing-mode:lr-tb;fill:#000000;fill-opacity:1;fill-rule:nonzero;stroke:none"
         x="0 14.006836 29.172363 45.506836 60.672363 74.679199 80.513672 95.679199 107.3584 114.35156 126.03076 138.8584 150.5376 162.2168"
         y="0"
         sodipodi:role="line"
         id="tspan12">PHONE Database</tspan></text>
    <path
       id="path14"
       d="M 11,91 H 281 V 251 H 11 Z"
       style="fill:#d5e8d4;fill-opacity:1;fill-rule:nonzero;stroke:#82b366;stroke-width:1;stroke-linecap:butt;stroke-linejoin:miter;stroke-miterlimit:10;stroke-dasharray:none;stroke-opacity:1"
       transform="matrix(0.95698908,0,0,0.95698908,0.47849455,0.47849455)"
       clip-path="url(#clipPath15)" />
    <path
       id="path16"
       d="M 11,301 H 281 V 461 H 11 Z"
       style="fill:#d5e8d4;fill-opacity:1;fill-rule:nonzero;stroke:#82b366;stroke-width:1;stroke-linecap:butt;stroke-linejoin:miter;stroke-miterlimit:10;stroke-dasharray:none;stroke-opacity:1"
       transform="matrix(0.95698908,0,0,0.95698908,0.47849455,0.47849455)"
       clip-path="url(#clipPath17)" />
    <path
       id="path18"
       d="m 21,101 h 250 v 30 H 21 Z"
       style="fill:#ffe6cc;fill-opacity:1;fill-rule:nonzero;stroke:#d79b00;stroke-width:1;stroke-linecap:butt;stroke-linejoin:miter;stroke-miterlimit:10;stroke-dasharray:none;stroke-opacity:1"
       transform="matrix(0.95698908,0,0,0.95698908,0.47849455,0.47849455)"
       clip-path="url(#clipPath19)" />
    <text
       id="text19"
       xml:space="preserve"
       transform="matrix(0.95699871,0,0,0.95699871,94.383998,117.71084)"
       clip-path="url(#clipPath20)"><tspan
         style="font-variant:normal;font-weight:normal;font-size:18px;font-family:Helvetica;writing-mode:lr-tb;fill:#000000;fill-opacity:1;fill-rule:nonzero;stroke:none"
         x="0 12.999023 21.999023 32.009766 38.003906 47.003906 51.688477 60.688477 70.699219 80.709961 84.708984"
         y="0"
         sodipodi:role="line"
         id="tspan19">Users Table</tspan></text>
    <path
       id="path21"
       d="m 21,141 h 250 v 30 H 21 Z"
       style="fill:#ffe6cc;fill-opacity:1;fill-rule:nonzero;stroke:#d79b00;stroke-width:1;stroke-linecap:butt;stroke-linejoin:miter;stroke-miterlimit:10;stroke-dasharray:none;stroke-opacity:1"
       transform="matrix(0.95698908,0,0,0.95698908,0.47849455,0.47849455)"
       clip-path="url(#clipPath22)" />
    <text
       id="text22"
       xml:space="preserve"
       transform="matrix(0.95699871,0,0,0.95699871,82.900013,155.99079)"
       clip-path="url(#clipPath23)"><tspan
         style="font-variant:normal;font-weight:normal;font-size:18px;font-family:Helvetica;writing-mode:lr-tb;fill:#000000;fill-opacity:1;fill-rule:nonzero;stroke:none"
         x="0 12.005859 18 28.010742 38.021484 48.032227 57.032227 62.033203 71.033203 75.717773 84.717773 94.728516 104.73926 108.73828"
         y="0"
         sodipodi:role="line"
         id="tspan22">Products Table</tspan></text>
    <path
       id="path24"
       d="m 21,181 h 250 v 30 H 21 Z"
       style="fill:#ffe6cc;fill-opacity:1;fill-rule:nonzero;stroke:#d79b00;stroke-width:1;stroke-linecap:butt;stroke-linejoin:miter;stroke-miterlimit:10;stroke-dasharray:none;stroke-opacity:1"
       transform="matrix(0.95698908,0,0,0.95698908,0.47849455,0.47849455)"
       clip-path="url(#clipPath25)" />
    <text
       id="text25"
       xml:space="preserve"
       transform="matrix(0.95699871,0,0,0.95699871,90.556003,194.27074)"
       clip-path="url(#clipPath26)"><tspan
         style="font-variant:normal;font-weight:normal;font-size:18px;font-family:Helvetica;writing-mode:lr-tb;fill:#000000;fill-opacity:1;fill-rule:nonzero;stroke:none"
         x="0 14.000977 19.995117 30.005859 40.016602 46.010742 55.010742 59.695312 68.695312 78.706055 88.716797 92.71582"
         y="0"
         sodipodi:role="line"
         id="tspan25">Orders Table</tspan></text>
    <path
       id="path27"
       d="m 21,311 h 250 v 30 H 21 Z"
       style="fill:#ffe6cc;fill-opacity:1;fill-rule:nonzero;stroke:#d79b00;stroke-width:1;stroke-linecap:butt;stroke-linejoin:miter;stroke-miterlimit:10;stroke-dasharray:none;stroke-opacity:1"
       transform="matrix(0.95698908,0,0,0.95698908,0.47849455,0.47849455)"
       clip-path="url(#clipPath28)" />
    <text
       id="text28"
       xml:space="preserve"
       transform="matrix(0.95699871,0,0,0.95699871,87.670054,318.68057)"
       clip-path="url(#clipPath29)"><tspan
         style="font-variant:normal;font-weight:normal;font-size:18px;font-family:Helvetica;writing-mode:lr-tb;fill:#000000;fill-opacity:1;fill-rule:nonzero;stroke:none"
         x="0 12.005859 22.016602 32.027344 42.038086 52.048828 61.048828 65.733398 74.733398 84.744141 94.754883 98.753906"
         y="0"
         sodipodi:role="line"
         id="tspan28">Phones Table</tspan></text>
    <path
       id="path30"
       d="m 21,351 h 250 v 30 H 21 Z"
       style="fill:#ffe6cc;fill-opacity:1;fill-rule:nonzero;stroke:#d79b00;stroke-width:1;stroke-linecap:butt;stroke-linejoin:miter;stroke-miterlimit:10;stroke-dasharray:none;stroke-opacity:1"
       transform="matrix(0.95698908,0,0,0.95698908,0.47849455,0.47849455)"
       clip-path="url(#clipPath31)" />
    <text
       id="text31"
       xml:space="preserve"
       transform="matrix(0.95699871,0,0,0.95699871,61.831089,356.96052)"
       clip-path="url(#clipPath32)"><tspan
         style="font-variant:normal;font-weight:normal;font-size:18px;font-family:Helvetica;writing-mode:lr-tb;fill:#000000;fill-opacity:1;fill-rule:nonzero;stroke:none"
         x="0 14.994141 25.004883 35.015625 45.026367 50.027344 60.038086 69.038086 74.039062 84.049805 90.043945 100.05469 106.04883 115.04883 119.7334 128.7334 138.74414 148.75488 152.75391"
         y="0"
         sodipodi:role="line"
         id="tspan31">Manufacturers Table</tspan></text>
    <path
       id="path33"
       d="m 351,61 h 390 v 50 H 351 Z"
       style="fill:#f5f5f5;fill-opacity:1;fill-rule:nonzero;stroke:#666666;stroke-width:1;stroke-linecap:butt;stroke-linejoin:miter;stroke-miterlimit:10;stroke-dasharray:none;stroke-opacity:1"
       transform="matrix(0.95698908,0,0,0.95698908,0.47849455,0.47849455)"
       clip-path="url(#clipPath34)" />
    <text
       id="text34"
       xml:space="preserve"
       transform="matrix(0.95699871,0,0,0.95699871,366.12678,89.00088)"
       clip-path="url(#clipPath35)"><tspan
         style="font-variant:normal;font-weight:normal;font-size:18px;font-family:Helvetica;writing-mode:lr-tb;fill:#333333;fill-opacity:1;fill-rule:nonzero;stroke:none"
         x="0 16.672852 26.683594 31.68457 41.695312 47.689453 57.700195 62.701172 68.695312 78.706055 88.716797 98.727539 102.72656 112.7373 122.74805 127.74902 137.75977 142.76074 154.7666 164.77734 173.77734 178.77832 188.78906 194.7832 204.79395 213.79395 218.79492 230.80078 240.81152 246.80566 255.80566 265.81641 271.81055 276.81152 280.81055 290.82129 299.82129 309.83203 313.83105 317.83008"
         y="0"
         sodipodi:role="line"
         id="tspan34">We are running a Postgres Server locally</tspan></text>
    <path
       id="path36"
       d="m 351,121 h 390 v 50 H 351 Z"
       style="fill:#f5f5f5;fill-opacity:1;fill-rule:nonzero;stroke:#666666;stroke-width:1;stroke-linecap:butt;stroke-linejoin:miter;stroke-miterlimit:10;stroke-dasharray:none;stroke-opacity:1"
       transform="matrix(0.95698908,0,0,0.95698908,0.47849455,0.47849455)"
       clip-path="url(#clipPath37)" />
    <text
       id="text37"
       xml:space="preserve"
       transform="matrix(0.95699871,0,0,0.95699871,353.98486,146.4208)"
       clip-path="url(#clipPath38)"><tspan
         style="font-variant:normal;font-weight:normal;font-size:18px;font-family:Helvetica;writing-mode:lr-tb;fill:#333333;fill-opacity:1;fill-rule:nonzero;stroke:none"
         x="0 11.021484 16.022461 28.02832 42.029297 47.030273 59.036133 69.046875 75.041016 84.041016 94.051758 100.0459 105.04688 114.04688 124.05762 134.06836 139.06934 148.06934 158.08008 168.09082 173.0918 183.10254 187.10156 197.1123 202.11328 217.10742 227.11816 231.11719 236.11816 240.11719 250.12793 254.12695 264.1377 269.13867 279.14941 289.16016 294.16113 304.17188 314.18262 324.19336 333.19336 343.2041"
         y="0"
         sodipodi:role="line"
         id="tspan37">A PG Server can contain multiple databases</tspan></text>
    <path
       id="path39"
       d="m 351,181 h 390 v 50 H 351 Z"
       style="fill:#f5f5f5;fill-opacity:1;fill-rule:nonzero;stroke:#666666;stroke-width:1;stroke-linecap:butt;stroke-linejoin:miter;stroke-miterlimit:10;stroke-dasharray:none;stroke-opacity:1"
       transform="matrix(0.95698908,0,0,0.95698908,0.47849455,0.47849455)"
       clip-path="url(#clipPath40)" />
    <text
       id="text40"
       xml:space="preserve"
       transform="matrix(0.95699871,0,0,0.95699871,357.33435,203.84073)"
       clip-path="url(#clipPath41)"><tspan
         style="font-variant:normal;font-weight:normal;font-size:18px;font-family:Helvetica;writing-mode:lr-tb;fill:#333333;fill-opacity:1;fill-rule:nonzero;stroke:none"
         x="0 12.005859 16.004883 20.003906 25.004883 35.015625 45.026367 50.027344 60.038086 65.039062 70.040039 80.050781 86.044922 91.045898 101.05664 106.05762 115.05762 119.05664 129.06738 139.07812 143.07715 153.08789 158.08887 168.09961 178.11035 188.12109 193.12207 197.12109 201.12012 210.12012 220.13086 229.13086 234.13184 238.13086 248.1416 253.14258 263.15332 268.1543 277.1543 281.15332 291.16406 301.1748 305.17383 315.18457 320.18555 333.18457"
         y="0"
         sodipodi:role="line"
         id="tspan40">All data for a single app lives in a single DB</tspan></text>
    <path
       id="path42"
       d="m 351,241 h 390 v 50 H 351 Z"
       style="fill:#f5f5f5;fill-opacity:1;fill-rule:nonzero;stroke:#666666;stroke-width:1;stroke-linecap:butt;stroke-linejoin:miter;stroke-miterlimit:10;stroke-dasharray:none;stroke-opacity:1"
       transform="matrix(0.95698908,0,0,0.95698908,0.47849455,0.47849455)"
       clip-path="url(#clipPath43)" />
    <text
       id="text43"
       xml:space="preserve"
       transform="matrix(0.95699871,0,0,0.95699871,338.97194,250.73366)"
       clip-path="url(#clipPath44)"><tspan
         style="font-variant:normal;font-weight:normal;font-size:18px;font-family:Helvetica;writing-mode:lr-tb;fill:#333333;fill-opacity:1;fill-rule:nonzero;stroke:none"
         x="0 12.999023 23.009766 32.009766 36.008789 46.019531 56.030273 61.03125 76.025391 86.036133 90.035156 95.036133 99.035156 109.0459 113.04492 123.05566 128.05664 141.05566 153.06152 156.49805 165.49805 170.49902 174.49805 183.49805 188.49902 203.49316 213.50391 219.49805 229.50879 234.50977 244.52051 254.53125 264.54199 274.55273 279.55371 284.55469 297.55371 307.56445 313.55859 322.55859 326.55762 336.56836 346.5791 351.58008 364.5791 368.57812 373.5791"
         y="0"
         sodipodi:role="line"
         id="tspan43">Having multiple DB's is more about working with</tspan></text>
    <text
       id="text44"
       xml:space="preserve"
       transform="matrix(0.95699871,0,0,0.95699871,384.14526,271.78763)"
       clip-path="url(#clipPath45)"><tspan
         style="font-variant:normal;font-weight:normal;font-size:18px;font-family:Helvetica;writing-mode:lr-tb;fill:#333333;fill-opacity:1;fill-rule:nonzero;stroke:none"
         x="0 14.994141 25.004883 30.999023 41.009766 46.010742 51.011719 61.022461 71.033203 81.043945 86.044922 96.055664 106.06641 116.07715 121.07812 131.08887 141.09961 151.11035 156.11133 166.12207 176.13281 181.13379 190.13379 200.14453 210.15527 216.14941 221.15039 236.14453 246.15527 255.15527 265.16602 269.16504 279.17578"
         y="0"
         sodipodi:role="line"
         id="tspan44">more than one app on your machine</tspan></text>
    <path
       id="path46"
       d="m 21,391 h 250 v 30 H 21 Z"
       style="fill:#ffe6cc;fill-opacity:1;fill-rule:nonzero;stroke:#d79b00;stroke-width:1;stroke-linecap:butt;stroke-linejoin:miter;stroke-miterlimit:10;stroke-dasharray:none;stroke-opacity:1"
       transform="matrix(0.95698908,0,0,0.95698908,0.47849455,0.47849455)"
       clip-path="url(#clipPath47)" />
    <text
       id="text47"
       xml:space="preserve"
       transform="matrix(0.95699871,0,0,0.95699871,94.383998,395.24047)"
       clip-path="url(#clipPath48)"><tspan
         style="font-variant:normal;font-weight:normal;font-size:18px;font-family:Helvetica;writing-mode:lr-tb;fill:#000000;fill-opacity:1;fill-rule:nonzero;stroke:none"
         x="0 12.999023 21.999023 32.009766 38.003906 47.003906 51.688477 60.688477 70.699219 80.709961 84.708984"
         y="0"
         sodipodi:role="line"
         id="tspan47">Users Table</tspan></text>
  </g>
</svg>
