<?xml version="1.0" encoding="UTF-8" standalone="no"?>
<!-- Created with Inkscape (http://www.inkscape.org/) -->

<svg
   version="1.1"
   id="svg1"
   width="357.44"
   height="225.27998"
   viewBox="0 0 357.44 225.27998"
   sodipodi:docname="sql-11.pdf"
   xmlns:inkscape="http://www.inkscape.org/namespaces/inkscape"
   xmlns:sodipodi="http://sodipodi.sourceforge.net/DTD/sodipodi-0.dtd"
   xmlns="http://www.w3.org/2000/svg"
   xmlns:svg="http://www.w3.org/2000/svg">
  <defs
     id="defs1">
    <clipPath
       clipPathUnits="userSpaceOnUse"
       id="clipPath2">
      <path
         d="M 0,0 H 1116.6666 V 701.6488 H 0 Z"
         transform="scale(0.33492538)"
         clip-rule="evenodd"
         id="path2" />
    </clipPath>
    <clipPath
       clipPathUnits="userSpaceOnUse"
       id="clipPath4">
      <path
         d="M 0,0 H 1116.6666 V 698.66309 H 0 Z"
         transform="matrix(0.33492538,0,0,0.33492538,-0.5,-0.5)"
         clip-rule="evenodd"
         id="path4" />
    </clipPath>
    <clipPath
       clipPathUnits="userSpaceOnUse"
       id="clipPath5">
      <path
         d="M 0,0 H 1116.6666 V 698.66309 H 0 Z"
         transform="matrix(0.33492204,0,0,0.33492204,-27.46875,-36)"
         clip-rule="evenodd"
         id="path5" />
    </clipPath>
    <clipPath
       clipPathUnits="userSpaceOnUse"
       id="clipPath7">
      <path
         d="M 0,0 H 1116.6666 V 698.66309 H 0 Z"
         transform="matrix(0.33492538,0,0,0.33492538,-0.5,-0.5)"
         clip-rule="evenodd"
         id="path7" />
    </clipPath>
    <clipPath
       clipPathUnits="userSpaceOnUse"
       id="clipPath9">
      <path
         d="M 0,0 H 1116.6666 V 698.66309 H 0 Z"
         transform="matrix(0.33492538,0,0,0.33492538,-0.5,-0.5)"
         clip-rule="evenodd"
         id="path9" />
    </clipPath>
    <clipPath
       clipPathUnits="userSpaceOnUse"
       id="clipPath11">
      <path
         d="M 0,0 H 1116.6666 V 698.66309 H 0 Z"
         transform="matrix(0.33492538,0,0,0.33492538,-0.5,-0.5)"
         clip-rule="evenodd"
         id="path11" />
    </clipPath>
    <clipPath
       clipPathUnits="userSpaceOnUse"
       id="clipPath12">
      <path
         d="M 0,0 H 1116.6666 V 698.66309 H 0 Z"
         transform="matrix(0.33492204,0,0,0.33492204,-7.59375,-106)"
         clip-rule="evenodd"
         id="path12" />
    </clipPath>
    <clipPath
       clipPathUnits="userSpaceOnUse"
       id="clipPath13">
      <path
         d="M 0,0 H 1116.6666 V 698.66309 H 0 Z"
         transform="matrix(0.33492204,0,0,0.33492204,-74.890625,-126)"
         clip-rule="evenodd"
         id="path13" />
    </clipPath>
    <clipPath
       clipPathUnits="userSpaceOnUse"
       id="clipPath15">
      <path
         d="M 0,0 H 1116.6666 V 698.66309 H 0 Z"
         transform="matrix(0.33492538,0,0,0.33492538,-0.5,-0.5)"
         clip-rule="evenodd"
         id="path15" />
    </clipPath>
    <clipPath
       clipPathUnits="userSpaceOnUse"
       id="clipPath16">
      <path
         d="M 0,0 H 1116.6666 V 698.66309 H 0 Z"
         transform="matrix(0.33492204,0,0,0.33492204,-13.234375,-196.00001)"
         clip-rule="evenodd"
         id="path16" />
    </clipPath>
    <clipPath
       clipPathUnits="userSpaceOnUse"
       id="clipPath17">
      <path
         d="M 0,0 H 1116.6666 V 698.66309 H 0 Z"
         transform="matrix(0.33492204,0,0,0.33492204,-152.21875,-216)"
         clip-rule="evenodd"
         id="path17" />
    </clipPath>
  </defs>
  <sodipodi:namedview
     id="namedview1"
     pagecolor="#ffffff"
     bordercolor="#000000"
     borderopacity="0.25"
     inkscape:showpageshadow="2"
     inkscape:pageopacity="0.0"
     inkscape:pagecheckerboard="0"
     inkscape:deskcolor="#d1d1d1">
    <inkscape:page
       x="0"
       y="0"
       inkscape:label="1"
       id="page1"
       width="357.44"
       height="225.27998"
       margin="0"
       bleed="0" />
  </sodipodi:namedview>
  <g
     id="g1"
     inkscape:groupmode="layer"
     inkscape:label="1">
    <path
       id="path1"
       d="M 0,0 H 374 V 235 H 0 Z"
       style="fill:#ffffff;fill-opacity:1;fill-rule:nonzero;stroke:none"
       transform="scale(0.95543666)"
       clip-path="url(#clipPath2)" />
    <path
       id="path3"
       d="M 1,1 H 371 V 61 H 1 Z"
       style="fill:#f5f5f5;fill-opacity:1;fill-rule:nonzero;stroke:#666666;stroke-width:1;stroke-linecap:butt;stroke-linejoin:miter;stroke-miterlimit:10;stroke-dasharray:none;stroke-opacity:1"
       transform="matrix(0.95543666,0,0,0.95543666,0.47771833,0.47771833)"
       clip-path="url(#clipPath4)" />
    <text
       id="text4"
       xml:space="preserve"
       transform="matrix(0.9554462,0,0,0.9554462,26.244913,34.396063)"
       clip-path="url(#clipPath5)"><tspan
         style="font-variant:normal;font-weight:700;font-size:16px;font-family:Helvetica;writing-mode:lr-tb;fill:#333333;fill-opacity:1;fill-rule:nonzero;stroke:none"
         x="0 8.59375 17.492188 21.9375 30.835938 35.28125 45.054688 54.828125 59.273438 68.171875 77.945312 87.71875 97.492188 102.82031 107.26562 117.03906 126.8125 141.03906 150.8125 159.71094 165.9375 174.83594 179.28125 183.72656 192.625 197.07031 205.96875 210.41406 220.1875 229.96094 234.40625 244.17969 249.50781 253.95312 263.72656 273.5 279.72656 284.17188 293.94531 303.71875 308.16406 312.60938"
         y="0"
         sodipodi:role="line"
         id="tspan4">Talking about numbers is kind of boring...</tspan></text>
    <path
       id="path6"
       d="m 186,141 v 20 -10 13.63"
       style="fill:none;stroke:#000000;stroke-width:1;stroke-linecap:butt;stroke-linejoin:miter;stroke-miterlimit:10;stroke-dasharray:none;stroke-opacity:1"
       transform="matrix(0.95543666,0,0,0.95543666,0.47771833,0.47771833)"
       clip-path="url(#clipPath7)" />
    <path
       id="path8"
       d="m 186,169.88 -3.5,-7 3.5,1.75 3.5,-1.75 z"
       style="fill:#000000;fill-opacity:1;fill-rule:nonzero;stroke:#000000;stroke-width:1;stroke-linecap:butt;stroke-linejoin:miter;stroke-miterlimit:10;stroke-dasharray:none;stroke-opacity:1"
       transform="matrix(0.95543666,0,0,0.95543666,0.47771833,0.47771833)"
       clip-path="url(#clipPath9)" />
    <path
       id="path10"
       d="m 1,81 h 370 v 60 H 1 Z"
       style="fill:#dae8fc;fill-opacity:1;fill-rule:nonzero;stroke:#6c8ebf;stroke-width:1;stroke-linecap:butt;stroke-linejoin:miter;stroke-miterlimit:10;stroke-dasharray:none;stroke-opacity:1"
       transform="matrix(0.95543666,0,0,0.95543666,0.47771833,0.47771833)"
       clip-path="url(#clipPath11)" />
    <text
       id="text11"
       xml:space="preserve"
       transform="matrix(0.9554462,0,0,0.9554462,7.2554196,101.2773)"
       clip-path="url(#clipPath12)"><tspan
         style="font-variant:normal;font-weight:700;font-size:16px;font-family:Helvetica;writing-mode:lr-tb;fill:#000000;fill-opacity:1;fill-rule:nonzero;stroke:none"
         x="0 4.4453125 14.21875 18.664062 23.992188 33.765625 42.664062 47.109375 56.882812 65.78125 74.679688 80.007812 84.453125 93.351562 97.796875 107.57031 116.46875 126.24219 130.6875 135.13281 139.57812 143.38281 147.82812 152.27344 156.71875 166.49219 170.9375 179.83594 188.73438 193.17969 202.07812 211.85156 221.625 226.07031 234.96875 244.74219 258.96875 267.86719 272.3125 282.08594 291.85938 296.30469 305.20312 314.10156 318.54688 324.77344 334.54688 338.99219 347.89062"
         y="0"
         sodipodi:role="line"
         id="tspan11">In the next video, I'll give you some quick rules</tspan></text>
    <text
       id="text12"
       xml:space="preserve"
       transform="matrix(0.9554462,0,0,0.9554462,71.553963,120.38622)"
       clip-path="url(#clipPath13)"><tspan
         style="font-variant:normal;font-weight:700;font-size:16px;font-family:Helvetica;writing-mode:lr-tb;fill:#000000;fill-opacity:1;fill-rule:nonzero;stroke:none"
         x="0 5.328125 15.101562 19.546875 24.875 34.648438 39.09375 43.539062 53.3125 65.757812 70.203125 75.53125 85.304688 91.53125 95.976562 104.875 110.20312 119.97656 126.20312 130.64844 140.42188 150.19531 154.64062 164.41406 174.1875 188.41406 198.1875 207.08594 213.3125"
         y="0"
         sodipodi:role="line"
         id="tspan12">to follow for storing numbers</tspan></text>
    <path
       id="path14"
       d="m 1,171 h 370 v 60 H 1 Z"
       style="fill:#dae8fc;fill-opacity:1;fill-rule:nonzero;stroke:#6c8ebf;stroke-width:1;stroke-linecap:butt;stroke-linejoin:miter;stroke-miterlimit:10;stroke-dasharray:none;stroke-opacity:1"
       transform="matrix(0.95543666,0,0,0.95543666,0.47771833,0.47771833)"
       clip-path="url(#clipPath15)" />
    <text
       id="text15"
       xml:space="preserve"
       transform="matrix(0.9554462,0,0,0.9554462,12.644733,187.26746)"
       clip-path="url(#clipPath16)"><tspan
         style="font-variant:normal;font-weight:700;font-size:16px;font-family:Helvetica;writing-mode:lr-tb;fill:#000000;fill-opacity:1;fill-rule:nonzero;stroke:none"
         x="0 10.390625 14.835938 24.609375 33.507812 43.28125 47.726562 56.625 61.953125 67.28125 76.179688 82.40625 86.851562 92.179688 101.95312 110.85156 116.17969 120.625 133.07031 137.51562 141.96094 146.40625 150.85156 160.625 170.39844 174.84375 179.28906 189.0625 194.39062 204.16406 208.60938 222.83594 232.60938 238.83594 247.73438 252.17969 261.95312 270.85156 276.17969 285.07812 289.52344 293.96875 298.41406 302.85938 312.63281 322.40625 327.73438 332.17969 336.625"
         y="0"
         sodipodi:role="line"
         id="tspan15">Video after that will go into more detail, but is</tspan></text>
    <text
       id="text16"
       xml:space="preserve"
       transform="matrix(0.9554462,0,0,0.9554462,145.43683,206.37638)"
       clip-path="url(#clipPath17)"><tspan
         style="font-variant:normal;font-weight:700;font-size:16px;font-family:Helvetica;writing-mode:lr-tb;fill:#000000;fill-opacity:1;fill-rule:nonzero;stroke:none"
         x="0 9.7734375 19.546875 24.875 29.320312 39.09375 48.867188 57.765625 62.210938"
         y="0"
         sodipodi:role="line"
         id="tspan16">optional!</tspan></text>
  </g>
</svg>
