<?xml version="1.0" encoding="UTF-8" standalone="no"?>
<!-- Created with Inkscape (http://www.inkscape.org/) -->

<svg
   version="1.1"
   id="svg1"
   width="501.44"
   height="273.28"
   viewBox="0 0 501.44 273.28"
   sodipodi:docname="sql-17.pdf"
   xmlns:inkscape="http://www.inkscape.org/namespaces/inkscape"
   xmlns:sodipodi="http://sodipodi.sourceforge.net/DTD/sodipodi-0.dtd"
   xmlns="http://www.w3.org/2000/svg"
   xmlns:svg="http://www.w3.org/2000/svg">
  <defs
     id="defs1">
    <clipPath
       clipPathUnits="userSpaceOnUse"
       id="clipPath2">
      <path
         d="M 0,0 H 1566.6665 V 852.09918 H 0 Z"
         transform="scale(0.33446811)"
         clip-rule="evenodd"
         id="path2" />
    </clipPath>
    <clipPath
       clipPathUnits="userSpaceOnUse"
       id="clipPath4">
      <path
         d="M 0,0 H 1566.6665 V 849.10938 H 0 Z"
         transform="matrix(0.33446811,0,0,0.33446811,-0.5,-0.5)"
         clip-rule="evenodd"
         id="path4" />
    </clipPath>
    <clipPath
       clipPathUnits="userSpaceOnUse"
       id="clipPath5">
      <path
         d="M 0,0 H 1566.6665 V 849.10938 H 0 Z"
         transform="matrix(0.33446475,0,0,0.33446475,-162.5,-28)"
         clip-rule="evenodd"
         id="path5" />
    </clipPath>
    <clipPath
       clipPathUnits="userSpaceOnUse"
       id="clipPath7">
      <path
         d="M 0,0 H 1566.6665 V 849.10938 H 0 Z"
         transform="matrix(0.33446811,0,0,0.33446811,-0.5,-0.5)"
         clip-rule="evenodd"
         id="path7" />
    </clipPath>
    <clipPath
       clipPathUnits="userSpaceOnUse"
       id="clipPath9">
      <path
         d="M 0,0 H 1566.6665 V 849.10938 H 0 Z"
         transform="matrix(0.33446811,0,0,0.33446811,-0.5,-0.5)"
         clip-rule="evenodd"
         id="path9" />
    </clipPath>
    <clipPath
       clipPathUnits="userSpaceOnUse"
       id="clipPath11">
      <path
         d="M 0,0 H 1566.6665 V 849.10938 H 0 Z"
         transform="matrix(0.33446811,0,0,0.33446811,-0.5,-0.5)"
         clip-rule="evenodd"
         id="path11" />
    </clipPath>
    <clipPath
       clipPathUnits="userSpaceOnUse"
       id="clipPath12">
      <path
         d="M 0,0 H 1566.6665 V 849.10938 H 0 Z"
         transform="matrix(0.33446475,0,0,0.33446475,-39.40625,-81.000001)"
         clip-rule="evenodd"
         id="path12" />
    </clipPath>
    <clipPath
       clipPathUnits="userSpaceOnUse"
       id="clipPath14">
      <path
         d="M 0,0 H 1566.6665 V 849.10938 H 0 Z"
         transform="matrix(0.33446811,0,0,0.33446811,-0.5,-0.5)"
         clip-rule="evenodd"
         id="path14" />
    </clipPath>
    <clipPath
       clipPathUnits="userSpaceOnUse"
       id="clipPath15">
      <path
         d="M 0,0 H 1566.6665 V 849.10938 H 0 Z"
         transform="matrix(0.33446475,0,0,0.33446475,-321.0625,-81.000001)"
         clip-rule="evenodd"
         id="path15" />
    </clipPath>
    <clipPath
       clipPathUnits="userSpaceOnUse"
       id="clipPath17">
      <path
         d="M 0,0 H 1566.6665 V 849.10938 H 0 Z"
         transform="matrix(0.33446811,0,0,0.33446811,-0.5,-0.5)"
         clip-rule="evenodd"
         id="path17" />
    </clipPath>
    <clipPath
       clipPathUnits="userSpaceOnUse"
       id="clipPath19">
      <path
         d="M 0,0 H 1566.6665 V 849.10938 H 0 Z"
         transform="matrix(0.33446811,0,0,0.33446811,-0.5,-0.5)"
         clip-rule="evenodd"
         id="path19" />
    </clipPath>
    <clipPath
       clipPathUnits="userSpaceOnUse"
       id="clipPath21">
      <path
         d="M 0,0 H 1566.6665 V 849.10938 H 0 Z"
         transform="matrix(0.33446811,0,0,0.33446811,-0.5,-0.5)"
         clip-rule="evenodd"
         id="path21" />
    </clipPath>
    <clipPath
       clipPathUnits="userSpaceOnUse"
       id="clipPath22">
      <path
         d="M 0,0 H 1566.6665 V 849.10938 H 0 Z"
         transform="matrix(0.33446475,0,0,0.33446475,-38.96875,-141)"
         clip-rule="evenodd"
         id="path22" />
    </clipPath>
    <clipPath
       clipPathUnits="userSpaceOnUse"
       id="clipPath24">
      <path
         d="M 0,0 H 1566.6665 V 849.10938 H 0 Z"
         transform="matrix(0.33446811,0,0,0.33446811,-0.5,-0.5)"
         clip-rule="evenodd"
         id="path24" />
    </clipPath>
    <clipPath
       clipPathUnits="userSpaceOnUse"
       id="clipPath25">
      <path
         d="M 0,0 H 1566.6665 V 849.10938 H 0 Z"
         transform="matrix(0.33446475,0,0,0.33446475,-323.29688,-141)"
         clip-rule="evenodd"
         id="path25" />
    </clipPath>
    <clipPath
       clipPathUnits="userSpaceOnUse"
       id="clipPath27">
      <path
         d="M 0,0 H 1566.6665 V 849.10938 H 0 Z"
         transform="matrix(0.33446811,0,0,0.33446811,-0.5,-0.5)"
         clip-rule="evenodd"
         id="path27" />
    </clipPath>
    <clipPath
       clipPathUnits="userSpaceOnUse"
       id="clipPath29">
      <path
         d="M 0,0 H 1566.6665 V 849.10938 H 0 Z"
         transform="matrix(0.33446811,0,0,0.33446811,-0.5,-0.5)"
         clip-rule="evenodd"
         id="path29" />
    </clipPath>
    <clipPath
       clipPathUnits="userSpaceOnUse"
       id="clipPath31">
      <path
         d="M 0,0 H 1566.6665 V 849.10938 H 0 Z"
         transform="matrix(0.33446811,0,0,0.33446811,-0.5,-0.5)"
         clip-rule="evenodd"
         id="path31" />
    </clipPath>
    <clipPath
       clipPathUnits="userSpaceOnUse"
       id="clipPath32">
      <path
         d="M 0,0 H 1566.6665 V 849.10938 H 0 Z"
         transform="matrix(0.33446475,0,0,0.33446475,-38.09375,-201)"
         clip-rule="evenodd"
         id="path32" />
    </clipPath>
    <clipPath
       clipPathUnits="userSpaceOnUse"
       id="clipPath34">
      <path
         d="M 0,0 H 1566.6665 V 849.10938 H 0 Z"
         transform="matrix(0.33446811,0,0,0.33446811,-0.5,-0.5)"
         clip-rule="evenodd"
         id="path34" />
    </clipPath>
    <clipPath
       clipPathUnits="userSpaceOnUse"
       id="clipPath35">
      <path
         d="M 0,0 H 1566.6665 V 849.10938 H 0 Z"
         transform="matrix(0.33446475,0,0,0.33446475,-321.28125,-201)"
         clip-rule="evenodd"
         id="path35" />
    </clipPath>
    <clipPath
       clipPathUnits="userSpaceOnUse"
       id="clipPath37">
      <path
         d="M 0,0 H 1566.6665 V 849.10938 H 0 Z"
         transform="matrix(0.33446811,0,0,0.33446811,-0.5,-0.5)"
         clip-rule="evenodd"
         id="path37" />
    </clipPath>
    <clipPath
       clipPathUnits="userSpaceOnUse"
       id="clipPath39">
      <path
         d="M 0,0 H 1566.6665 V 849.10938 H 0 Z"
         transform="matrix(0.33446811,0,0,0.33446811,-0.5,-0.5)"
         clip-rule="evenodd"
         id="path39" />
    </clipPath>
    <clipPath
       clipPathUnits="userSpaceOnUse"
       id="clipPath41">
      <path
         d="M 0,0 H 1566.6665 V 849.10938 H 0 Z"
         transform="matrix(0.33446811,0,0,0.33446811,-0.5,-0.5)"
         clip-rule="evenodd"
         id="path41" />
    </clipPath>
    <clipPath
       clipPathUnits="userSpaceOnUse"
       id="clipPath42">
      <path
         d="M 0,0 H 1566.6665 V 849.10938 H 0 Z"
         transform="matrix(0.33446475,0,0,0.33446475,-38.09375,-261)"
         clip-rule="evenodd"
         id="path42" />
    </clipPath>
    <clipPath
       clipPathUnits="userSpaceOnUse"
       id="clipPath44">
      <path
         d="M 0,0 H 1566.6665 V 849.10938 H 0 Z"
         transform="matrix(0.33446811,0,0,0.33446811,-0.5,-0.5)"
         clip-rule="evenodd"
         id="path44" />
    </clipPath>
    <clipPath
       clipPathUnits="userSpaceOnUse"
       id="clipPath45">
      <path
         d="M 0,0 H 1566.6665 V 849.10938 H 0 Z"
         transform="matrix(0.33446475,0,0,0.33446475,-321.28125,-261)"
         clip-rule="evenodd"
         id="path45" />
    </clipPath>
  </defs>
  <sodipodi:namedview
     id="namedview1"
     pagecolor="#ffffff"
     bordercolor="#000000"
     borderopacity="0.25"
     inkscape:showpageshadow="2"
     inkscape:pageopacity="0.0"
     inkscape:pagecheckerboard="0"
     inkscape:deskcolor="#d1d1d1">
    <inkscape:page
       x="0"
       y="0"
       inkscape:label="1"
       id="page1"
       width="501.44"
       height="273.28"
       margin="0"
       bleed="0" />
  </sodipodi:namedview>
  <g
     id="g1"
     inkscape:groupmode="layer"
     inkscape:label="1">
    <path
       id="path1"
       d="M 0,0 H 524 V 285 H 0 Z"
       style="fill:#ffffff;fill-opacity:1;fill-rule:nonzero;stroke:none"
       transform="scale(0.9567429)"
       clip-path="url(#clipPath2)" />
    <path
       id="path3"
       d="M 1,1 H 521.01001 V 41 H 1 Z"
       style="fill:#dae8fc;fill-opacity:1;fill-rule:nonzero;stroke:#6c8ebf;stroke-width:1;stroke-linecap:butt;stroke-linejoin:miter;stroke-miterlimit:10;stroke-dasharray:none;stroke-opacity:1"
       transform="matrix(0.9567429,0,0,0.9567429,0.47837145,0.47837145)"
       clip-path="url(#clipPath4)" />
    <text
       id="text4"
       xml:space="preserve"
       transform="matrix(0.9567525,0,0,0.9567525,155.47228,26.78907)"
       clip-path="url(#clipPath5)"><tspan
         style="font-variant:normal;font-weight:700;font-size:18px;font-family:Helvetica;writing-mode:lr-tb;fill:#000000;fill-opacity:1;fill-rule:nonzero;stroke:none"
         x="0 10.995117 15.996094 30.990234 42.996094 47.99707 64.986328 69.987305 80.982422 93.981445 98.982422 109.97754 114.97852 129.97266 141.97852 146.97949 157.97461 171.97559 184.97461"
         y="0"
         sodipodi:role="line"
         id="tspan4">TIME WITH TIME ZONE</tspan></text>
    <path
       id="path6"
       d="m 181,76 h 20 -10 13.63"
       style="fill:none;stroke:#000000;stroke-width:1;stroke-linecap:butt;stroke-linejoin:miter;stroke-miterlimit:10;stroke-dasharray:none;stroke-opacity:1"
       transform="matrix(0.9567429,0,0,0.9567429,0.47837145,0.47837145)"
       clip-path="url(#clipPath7)" />
    <path
       id="path8"
       d="m 209.88,76 -7,3.5 1.75,-3.5 -1.75,-3.5 z"
       style="fill:#000000;fill-opacity:1;fill-rule:nonzero;stroke:#000000;stroke-width:1;stroke-linecap:butt;stroke-linejoin:miter;stroke-miterlimit:10;stroke-dasharray:none;stroke-opacity:1"
       transform="matrix(0.9567429,0,0,0.9567429,0.47837145,0.47837145)"
       clip-path="url(#clipPath9)" />
    <path
       id="path10"
       d="m 1,51 h 180 v 50 H 1 Z"
       style="fill:#ffffff;fill-opacity:1;fill-rule:nonzero;stroke:#000000;stroke-width:1;stroke-linecap:butt;stroke-linejoin:miter;stroke-miterlimit:10;stroke-dasharray:none;stroke-opacity:1"
       transform="matrix(0.9567429,0,0,0.9567429,0.47837145,0.47837145)"
       clip-path="url(#clipPath11)" />
    <text
       id="text11"
       xml:space="preserve"
       transform="matrix(0.9567525,0,0,0.9567525,37.702028,77.496953)"
       clip-path="url(#clipPath12)"><tspan
         style="font-variant:normal;font-weight:normal;font-size:16px;font-family:Helvetica;writing-mode:lr-tb;fill:#000000;fill-opacity:1;fill-rule:nonzero;stroke:none"
         x="0 8.8984375 17.796875 22.242188 31.140625 40.039062 43.609375 54.28125 67.609375 72.054688 82.726562 93.398438"
         y="0"
         sodipodi:role="line"
         id="tspan11">01:23 AM EST</tspan></text>
    <path
       id="path13"
       d="m 211,51 h 310 v 50 H 211 Z"
       style="fill:#ffffff;fill-opacity:1;fill-rule:nonzero;stroke:#000000;stroke-width:1;stroke-linecap:butt;stroke-linejoin:miter;stroke-miterlimit:10;stroke-dasharray:none;stroke-opacity:1"
       transform="matrix(0.9567429,0,0,0.9567429,0.47837145,0.47837145)"
       clip-path="url(#clipPath14)" />
    <text
       id="text14"
       xml:space="preserve"
       transform="matrix(0.9567525,0,0,0.9567525,307.17735,77.496953)"
       clip-path="url(#clipPath15)"><tspan
         style="font-variant:normal;font-weight:normal;font-size:16px;font-family:Helvetica;writing-mode:lr-tb;fill:#000000;fill-opacity:1;fill-rule:nonzero;stroke:none"
         x="0 8.8984375 17.796875 22.242188 31.140625 40.039062 45.367188 54.265625 63.164062 67.609375 76.507812 85.40625"
         y="0"
         sodipodi:role="line"
         id="tspan14">01:23-05:00 </tspan></text>
    <path
       id="path16"
       d="m 181,136 h 20 -10 13.63"
       style="fill:none;stroke:#000000;stroke-width:1;stroke-linecap:butt;stroke-linejoin:miter;stroke-miterlimit:10;stroke-dasharray:none;stroke-opacity:1"
       transform="matrix(0.9567429,0,0,0.9567429,0.47837145,0.47837145)"
       clip-path="url(#clipPath17)" />
    <path
       id="path18"
       d="m 209.88,136 -7,3.5 1.75,-3.5 -1.75,-3.5 z"
       style="fill:#000000;fill-opacity:1;fill-rule:nonzero;stroke:#000000;stroke-width:1;stroke-linecap:butt;stroke-linejoin:miter;stroke-miterlimit:10;stroke-dasharray:none;stroke-opacity:1"
       transform="matrix(0.9567429,0,0,0.9567429,0.47837145,0.47837145)"
       clip-path="url(#clipPath19)" />
    <path
       id="path20"
       d="m 1,111 h 180 v 50 H 1 Z"
       style="fill:#ffffff;fill-opacity:1;fill-rule:nonzero;stroke:#000000;stroke-width:1;stroke-linecap:butt;stroke-linejoin:miter;stroke-miterlimit:10;stroke-dasharray:none;stroke-opacity:1"
       transform="matrix(0.9567429,0,0,0.9567429,0.47837145,0.47837145)"
       clip-path="url(#clipPath21)" />
    <text
       id="text21"
       xml:space="preserve"
       transform="matrix(0.9567525,0,0,0.9567525,37.283449,134.9021)"
       clip-path="url(#clipPath22)"><tspan
         style="font-variant:normal;font-weight:normal;font-size:16px;font-family:Helvetica;writing-mode:lr-tb;fill:#000000;fill-opacity:1;fill-rule:nonzero;stroke:none"
         x="0 8.8984375 17.796875 22.242188 31.140625 40.039062 44.484375 55.15625 68.484375 72.929688 83.601562 94.273438"
         y="0"
         sodipodi:role="line"
         id="tspan21">05:23 PM PST</tspan></text>
    <path
       id="path23"
       d="m 211,111 h 310 v 50 H 211 Z"
       style="fill:#ffffff;fill-opacity:1;fill-rule:nonzero;stroke:#000000;stroke-width:1;stroke-linecap:butt;stroke-linejoin:miter;stroke-miterlimit:10;stroke-dasharray:none;stroke-opacity:1"
       transform="matrix(0.9567429,0,0,0.9567429,0.47837145,0.47837145)"
       clip-path="url(#clipPath24)" />
    <text
       id="text24"
       xml:space="preserve"
       transform="matrix(0.9567525,0,0,0.9567525,309.3151,134.9021)"
       clip-path="url(#clipPath25)"><tspan
         style="font-variant:normal;font-weight:normal;font-size:16px;font-family:Helvetica;writing-mode:lr-tb;fill:#000000;fill-opacity:1;fill-rule:nonzero;stroke:none"
         x="0 8.8984375 17.796875 22.242188 31.140625 40.039062 45.367188 54.265625 63.164062 67.609375 76.507812"
         y="0"
         sodipodi:role="line"
         id="tspan24">17:23-08:00</tspan></text>
    <path
       id="path26"
       d="m 181,196 h 20 -10 13.63"
       style="fill:none;stroke:#000000;stroke-width:1;stroke-linecap:butt;stroke-linejoin:miter;stroke-miterlimit:10;stroke-dasharray:none;stroke-opacity:1"
       transform="matrix(0.9567429,0,0,0.9567429,0.47837145,0.47837145)"
       clip-path="url(#clipPath27)" />
    <path
       id="path28"
       d="m 209.88,196 -7,3.5 1.75,-3.5 -1.75,-3.5 z"
       style="fill:#000000;fill-opacity:1;fill-rule:nonzero;stroke:#000000;stroke-width:1;stroke-linecap:butt;stroke-linejoin:miter;stroke-miterlimit:10;stroke-dasharray:none;stroke-opacity:1"
       transform="matrix(0.9567429,0,0,0.9567429,0.47837145,0.47837145)"
       clip-path="url(#clipPath29)" />
    <path
       id="path30"
       d="m 1,171 h 180 v 50 H 1 Z"
       style="fill:#ffffff;fill-opacity:1;fill-rule:nonzero;stroke:#000000;stroke-width:1;stroke-linecap:butt;stroke-linejoin:miter;stroke-miterlimit:10;stroke-dasharray:none;stroke-opacity:1"
       transform="matrix(0.9567429,0,0,0.9567429,0.47837145,0.47837145)"
       clip-path="url(#clipPath31)" />
    <text
       id="text31"
       xml:space="preserve"
       transform="matrix(0.9567525,0,0,0.9567525,36.446291,192.30725)"
       clip-path="url(#clipPath32)"><tspan
         style="font-variant:normal;font-weight:normal;font-size:16px;font-family:Helvetica;writing-mode:lr-tb;fill:#000000;fill-opacity:1;fill-rule:nonzero;stroke:none"
         x="0 8.8984375 17.796875 22.242188 31.140625 40.039062 44.484375 55.15625 68.484375 72.929688 84.484375 94.257812"
         y="0"
         sodipodi:role="line"
         id="tspan31">05:23 PM UTC</tspan></text>
    <path
       id="path33"
       d="m 211,171 h 310 v 50 H 211 Z"
       style="fill:#ffffff;fill-opacity:1;fill-rule:nonzero;stroke:#000000;stroke-width:1;stroke-linecap:butt;stroke-linejoin:miter;stroke-miterlimit:10;stroke-dasharray:none;stroke-opacity:1"
       transform="matrix(0.9567429,0,0,0.9567429,0.47837145,0.47837145)"
       clip-path="url(#clipPath34)" />
    <text
       id="text34"
       xml:space="preserve"
       transform="matrix(0.9567525,0,0,0.9567525,307.38664,192.30725)"
       clip-path="url(#clipPath35)"><tspan
         style="font-variant:normal;font-weight:normal;font-size:16px;font-family:Helvetica;writing-mode:lr-tb;fill:#000000;fill-opacity:1;fill-rule:nonzero;stroke:none"
         x="0 8.8984375 17.796875 22.242188 31.140625 40.039062 49.382812 58.28125 67.179688 71.625 80.523438"
         y="0"
         sodipodi:role="line"
         id="tspan34">17:23+00:00</tspan></text>
    <path
       id="path36"
       d="m 181,256 h 20 -10 13.63"
       style="fill:none;stroke:#000000;stroke-width:1;stroke-linecap:butt;stroke-linejoin:miter;stroke-miterlimit:10;stroke-dasharray:none;stroke-opacity:1"
       transform="matrix(0.9567429,0,0,0.9567429,0.47837145,0.47837145)"
       clip-path="url(#clipPath37)" />
    <path
       id="path38"
       d="m 209.88,256 -7,3.5 1.75,-3.5 -1.75,-3.5 z"
       style="fill:#000000;fill-opacity:1;fill-rule:nonzero;stroke:#000000;stroke-width:1;stroke-linecap:butt;stroke-linejoin:miter;stroke-miterlimit:10;stroke-dasharray:none;stroke-opacity:1"
       transform="matrix(0.9567429,0,0,0.9567429,0.47837145,0.47837145)"
       clip-path="url(#clipPath39)" />
    <path
       id="path40"
       d="m 1,231 h 180 v 50 H 1 Z"
       style="fill:#ffffff;fill-opacity:1;fill-rule:nonzero;stroke:#000000;stroke-width:1;stroke-linecap:butt;stroke-linejoin:miter;stroke-miterlimit:10;stroke-dasharray:none;stroke-opacity:1"
       transform="matrix(0.9567429,0,0,0.9567429,0.47837145,0.47837145)"
       clip-path="url(#clipPath41)" />
    <text
       id="text41"
       xml:space="preserve"
       transform="matrix(0.9567525,0,0,0.9567525,36.446291,249.7124)"
       clip-path="url(#clipPath42)"><tspan
         style="font-variant:normal;font-weight:normal;font-size:16px;font-family:Helvetica;writing-mode:lr-tb;fill:#000000;fill-opacity:1;fill-rule:nonzero;stroke:none"
         x="0 8.8984375 17.796875 22.242188 31.140625 40.039062 44.484375 55.15625 68.484375 72.929688 84.484375 94.257812"
         y="0"
         sodipodi:role="line"
         id="tspan41">05:23 PM UTC</tspan></text>
    <path
       id="path43"
       d="m 211,231 h 310 v 50 H 211 Z"
       style="fill:#ffffff;fill-opacity:1;fill-rule:nonzero;stroke:#000000;stroke-width:1;stroke-linecap:butt;stroke-linejoin:miter;stroke-miterlimit:10;stroke-dasharray:none;stroke-opacity:1"
       transform="matrix(0.9567429,0,0,0.9567429,0.47837145,0.47837145)"
       clip-path="url(#clipPath44)" />
    <text
       id="text44"
       xml:space="preserve"
       transform="matrix(0.9567525,0,0,0.9567525,307.38664,249.7124)"
       clip-path="url(#clipPath45)"><tspan
         style="font-variant:normal;font-weight:normal;font-size:16px;font-family:Helvetica;writing-mode:lr-tb;fill:#000000;fill-opacity:1;fill-rule:nonzero;stroke:none"
         x="0 8.8984375 17.796875 22.242188 31.140625 40.039062 49.382812 58.28125 67.179688 71.625 80.523438"
         y="0"
         sodipodi:role="line"
         id="tspan44">17:23+00:00</tspan></text>
  </g>
</svg>
