<?xml version="1.0" encoding="UTF-8" standalone="no"?>
<!-- Created with Inkscape (http://www.inkscape.org/) -->

<svg
   version="1.1"
   id="svg1"
   width="780.15997"
   height="426.55997"
   viewBox="0 0 780.15997 426.55997"
   sodipodi:docname="sql-2.pdf"
   xmlns:inkscape="http://www.inkscape.org/namespaces/inkscape"
   xmlns:sodipodi="http://sodipodi.sourceforge.net/DTD/sodipodi-0.dtd"
   xmlns="http://www.w3.org/2000/svg"
   xmlns:svg="http://www.w3.org/2000/svg">
  <defs
     id="defs1">
    <clipPath
       clipPathUnits="userSpaceOnUse"
       id="clipPath2">
      <path
         d="M 0,0 H 2437.5 V 1330.9049 H 0 Z"
         transform="scale(0.33435898)"
         clip-rule="evenodd"
         id="path2" />
    </clipPath>
    <clipPath
       clipPathUnits="userSpaceOnUse"
       id="clipPath4">
      <path
         d="M 0,0 H 2437.5 V 1327.9141 H 0 Z"
         transform="matrix(0.33435898,0,0,0.33435898,-0.5,-0.5)"
         clip-rule="evenodd"
         id="path4" />
    </clipPath>
    <clipPath
       clipPathUnits="userSpaceOnUse"
       id="clipPath6">
      <path
         d="M 0,0 H 2437.5 V 1327.9141 H 0 Z"
         transform="matrix(0.33435898,0,0,0.33435898,-0.5,-0.5)"
         clip-rule="evenodd"
         id="path6" />
    </clipPath>
    <clipPath
       clipPathUnits="userSpaceOnUse"
       id="clipPath7">
      <path
         d="M 0,0 H 2437.5 V 1327.9141 H 0 Z"
         transform="matrix(0.33435562,0,0,0.33435562,-435.45313,-28)"
         clip-rule="evenodd"
         id="path7" />
    </clipPath>
    <clipPath
       clipPathUnits="userSpaceOnUse"
       id="clipPath9">
      <path
         d="M 0,0 H 2437.5 V 1327.9141 H 0 Z"
         transform="matrix(0.33435898,0,0,0.33435898,-0.5,-0.5)"
         clip-rule="evenodd"
         id="path9" />
    </clipPath>
    <clipPath
       clipPathUnits="userSpaceOnUse"
       id="clipPath10">
      <path
         d="M 0,0 H 2437.5 V 1327.9141 H 0 Z"
         transform="matrix(0.33435562,0,0,0.33435562,-267.04688,-83)"
         clip-rule="evenodd"
         id="path10" />
    </clipPath>
    <clipPath
       clipPathUnits="userSpaceOnUse"
       id="clipPath12">
      <path
         d="M 0,0 H 2437.5 V 1327.9141 H 0 Z"
         transform="matrix(0.33435898,0,0,0.33435898,-0.5,-0.5)"
         clip-rule="evenodd"
         id="path12" />
    </clipPath>
    <clipPath
       clipPathUnits="userSpaceOnUse"
       id="clipPath14">
      <path
         d="M 0,0 H 2437.5 V 1327.9141 H 0 Z"
         transform="matrix(0.33435898,0,0,0.33435898,-0.5,-0.5)"
         clip-rule="evenodd"
         id="path14" />
    </clipPath>
    <clipPath
       clipPathUnits="userSpaceOnUse"
       id="clipPath15">
      <path
         d="M 0,0 H 2437.5 V 1327.9141 H 0 Z"
         transform="matrix(0.33435562,0,0,0.33435562,-544.51563,-83)"
         clip-rule="evenodd"
         id="path15" />
    </clipPath>
    <clipPath
       clipPathUnits="userSpaceOnUse"
       id="clipPath17">
      <path
         d="M 0,0 H 2437.5 V 1327.9141 H 0 Z"
         transform="matrix(0.33435898,0,0,0.33435898,-0.5,-0.5)"
         clip-rule="evenodd"
         id="path17" />
    </clipPath>
    <clipPath
       clipPathUnits="userSpaceOnUse"
       id="clipPath19">
      <path
         d="M 0,0 H 2437.5 V 1327.9141 H 0 Z"
         transform="matrix(0.33435898,0,0,0.33435898,-0.5,-0.5)"
         clip-rule="evenodd"
         id="path19" />
    </clipPath>
    <clipPath
       clipPathUnits="userSpaceOnUse"
       id="clipPath21">
      <path
         d="M 0,0 H 2437.5 V 1327.9141 H 0 Z"
         transform="matrix(0.33435898,0,0,0.33435898,-0.5,-0.5)"
         clip-rule="evenodd"
         id="path21" />
    </clipPath>
    <clipPath
       clipPathUnits="userSpaceOnUse"
       id="clipPath22">
      <path
         d="M 0,0 H 2437.5 V 1327.9141 H 0 Z"
         transform="matrix(0.33435562,0,0,0.33435562,-435.45313,-288)"
         clip-rule="evenodd"
         id="path22" />
    </clipPath>
    <clipPath
       clipPathUnits="userSpaceOnUse"
       id="clipPath24">
      <path
         d="M 0,0 H 2437.5 V 1327.9141 H 0 Z"
         transform="matrix(0.33435898,0,0,0.33435898,-0.5,-0.5)"
         clip-rule="evenodd"
         id="path24" />
    </clipPath>
    <clipPath
       clipPathUnits="userSpaceOnUse"
       id="clipPath25">
      <path
         d="M 0,0 H 2437.5 V 1327.9141 H 0 Z"
         transform="matrix(0.33435562,0,0,0.33435562,-267.04688,-343)"
         clip-rule="evenodd"
         id="path25" />
    </clipPath>
    <clipPath
       clipPathUnits="userSpaceOnUse"
       id="clipPath27">
      <path
         d="M 0,0 H 2437.5 V 1327.9141 H 0 Z"
         transform="matrix(0.33435898,0,0,0.33435898,-0.5,-0.5)"
         clip-rule="evenodd"
         id="path27" />
    </clipPath>
    <clipPath
       clipPathUnits="userSpaceOnUse"
       id="clipPath29">
      <path
         d="M 0,0 H 2437.5 V 1327.9141 H 0 Z"
         transform="matrix(0.33435898,0,0,0.33435898,-0.5,-0.5)"
         clip-rule="evenodd"
         id="path29" />
    </clipPath>
    <clipPath
       clipPathUnits="userSpaceOnUse"
       id="clipPath31">
      <path
         d="M 0,0 H 2437.5 V 1327.9141 H 0 Z"
         transform="matrix(0.33435898,0,0,0.33435898,-0.5,-0.5)"
         clip-rule="evenodd"
         id="path31" />
    </clipPath>
    <clipPath
       clipPathUnits="userSpaceOnUse"
       id="clipPath33">
      <path
         d="M 0,0 H 2437.5 V 1327.9141 H 0 Z"
         transform="matrix(0.33435898,0,0,0.33435898,-0.5,-0.5)"
         clip-rule="evenodd"
         id="path33" />
    </clipPath>
    <clipPath
       clipPathUnits="userSpaceOnUse"
       id="clipPath34">
      <path
         d="M 0,0 H 2437.5 V 1327.9141 H 0 Z"
         transform="matrix(0.33435562,0,0,0.33435562,-28.65625,-85)"
         clip-rule="evenodd"
         id="path34" />
    </clipPath>
    <clipPath
       clipPathUnits="userSpaceOnUse"
       id="clipPath35">
      <path
         d="M 0,0 H 2437.5 V 1327.9141 H 0 Z"
         transform="matrix(0.33435562,0,0,0.33435562,-21.3125,-112)"
         clip-rule="evenodd"
         id="path35" />
    </clipPath>
    <clipPath
       clipPathUnits="userSpaceOnUse"
       id="clipPath37">
      <path
         d="M 0,0 H 2437.5 V 1327.9141 H 0 Z"
         transform="matrix(0.33435898,0,0,0.33435898,-0.5,-0.5)"
         clip-rule="evenodd"
         id="path37" />
    </clipPath>
    <clipPath
       clipPathUnits="userSpaceOnUse"
       id="clipPath39">
      <path
         d="M 0,0 H 2437.5 V 1327.9141 H 0 Z"
         transform="matrix(0.33435898,0,0,0.33435898,-0.5,-0.5)"
         clip-rule="evenodd"
         id="path39" />
    </clipPath>
    <clipPath
       clipPathUnits="userSpaceOnUse"
       id="clipPath41">
      <path
         d="M 0,0 H 2437.5 V 1327.9141 H 0 Z"
         transform="matrix(0.33435898,0,0,0.33435898,-0.5,-0.5)"
         clip-rule="evenodd"
         id="path41" />
    </clipPath>
    <clipPath
       clipPathUnits="userSpaceOnUse"
       id="clipPath42">
      <path
         d="M 0,0 H 2437.5 V 1327.9141 H 0 Z"
         transform="matrix(0.33435562,0,0,0.33435562,-10.4375,-358.00001)"
         clip-rule="evenodd"
         id="path42" />
    </clipPath>
    <clipPath
       clipPathUnits="userSpaceOnUse"
       id="clipPath44">
      <path
         d="M 0,0 H 2437.5 V 1327.9141 H 0 Z"
         transform="matrix(0.33435898,0,0,0.33435898,-0.5,-0.5)"
         clip-rule="evenodd"
         id="path44" />
    </clipPath>
  </defs>
  <sodipodi:namedview
     id="namedview1"
     pagecolor="#ffffff"
     bordercolor="#000000"
     borderopacity="0.25"
     inkscape:showpageshadow="2"
     inkscape:pageopacity="0.0"
     inkscape:pagecheckerboard="0"
     inkscape:deskcolor="#d1d1d1">
    <inkscape:page
       x="0"
       y="0"
       inkscape:label="1"
       id="page1"
       width="780.15997"
       height="426.55997"
       margin="0"
       bleed="0" />
  </sodipodi:namedview>
  <g
     id="g1"
     inkscape:groupmode="layer"
     inkscape:label="1">
    <path
       id="path1"
       d="M 0,0 H 815 V 445 H 0 Z"
       style="fill:#ffffff;fill-opacity:1;fill-rule:nonzero;stroke:none"
       transform="scale(0.95705516)"
       clip-path="url(#clipPath2)" />
    <path
       id="path3"
       d="M 221,1 H 811.01001 V 181 H 221 Z"
       style="fill:#dae8fc;fill-opacity:1;fill-rule:nonzero;stroke:#6c8ebf;stroke-width:1;stroke-linecap:butt;stroke-linejoin:miter;stroke-miterlimit:10;stroke-dasharray:none;stroke-opacity:1"
       transform="matrix(0.95705516,0,0,0.95705516,0.47852758,0.47852758)"
       clip-path="url(#clipPath4)" />
    <path
       id="path5"
       d="M 221,1 H 811.01001 V 41 H 221 Z"
       style="fill:#dae8fc;fill-opacity:1;fill-rule:nonzero;stroke:#6c8ebf;stroke-width:1;stroke-linecap:butt;stroke-linejoin:miter;stroke-miterlimit:10;stroke-dasharray:none;stroke-opacity:1"
       transform="matrix(0.95705516,0,0,0.95705516,0.47852758,0.47852758)"
       clip-path="url(#clipPath6)" />
    <text
       id="text6"
       xml:space="preserve"
       transform="matrix(0.95706479,0,0,0.95706479,416.75686,26.797814)"
       clip-path="url(#clipPath7)"><tspan
         style="font-variant:normal;font-weight:700;font-size:21px;font-family:Helvetica;writing-mode:lr-tb;fill:#000000;fill-opacity:1;fill-rule:nonzero;stroke:none"
         x="0 14.006836 26.834473 38.513672 45.506836 58.334473 66.506836 78.186035 89.865234 95.699707 109.70654 121.38574 129.55811 141.2373 152.9165"
         y="0"
         sodipodi:role="line"
         id="tspan6">Postgres Server</tspan></text>
    <path
       id="path8"
       d="M 231,61 H 501 V 91 H 231 Z"
       style="fill:#d5e8d4;fill-opacity:1;fill-rule:nonzero;stroke:#82b366;stroke-width:1;stroke-linecap:butt;stroke-linejoin:miter;stroke-miterlimit:10;stroke-dasharray:none;stroke-opacity:1"
       transform="matrix(0.95705516,0,0,0.95705516,0.47852758,0.47852758)"
       clip-path="url(#clipPath9)" />
    <text
       id="text9"
       xml:space="preserve"
       transform="matrix(0.95706479,0,0,0.95706479,255.58117,79.436378)"
       clip-path="url(#clipPath10)"><tspan
         style="font-variant:normal;font-weight:700;font-size:21px;font-family:Helvetica;writing-mode:lr-tb;fill:#000000;fill-opacity:1;fill-rule:nonzero;stroke:none"
         x="0 4.9936523 17.821289 30.648926 42.328125 49.321289 62.148926 70.321289 82.000488 93.679688 98.67334 104.50781 119.67334 131.35254 138.3457 150.0249 162.85254 174.53174 186.21094"
         y="0"
         sodipodi:role="line"
         id="tspan9">'postgres' Database</tspan></text>
    <path
       id="path11"
       d="m 231,91 h 270 v 70 H 231 Z"
       style="fill:#d5e8d4;fill-opacity:1;fill-rule:nonzero;stroke:#82b366;stroke-width:1;stroke-linecap:butt;stroke-linejoin:miter;stroke-miterlimit:10;stroke-dasharray:none;stroke-opacity:1"
       transform="matrix(0.95705516,0,0,0.95705516,0.47852758,0.47852758)"
       clip-path="url(#clipPath12)" />
    <path
       id="path13"
       d="m 521.01001,61 h 270 v 30 h -270 z"
       style="fill:#d5e8d4;fill-opacity:1;fill-rule:nonzero;stroke:#82b366;stroke-width:1;stroke-linecap:butt;stroke-linejoin:miter;stroke-miterlimit:10;stroke-dasharray:none;stroke-opacity:1"
       transform="matrix(0.95705516,0,0,0.95705516,0.47852758,0.47852758)"
       clip-path="url(#clipPath14)" />
    <text
       id="text14"
       xml:space="preserve"
       transform="matrix(0.95706479,0,0,0.95706479,521.13674,79.436378)"
       clip-path="url(#clipPath15)"><tspan
         style="font-variant:normal;font-weight:700;font-size:21px;font-family:Helvetica;writing-mode:lr-tb;fill:#000000;fill-opacity:1;fill-rule:nonzero;stroke:none"
         x="0 12.263672 25.091309 36.770508 48.449707 56.62207 69.449707 81.128906 99.80127 111.48047 123.74414 129.57861 144.74414 156.42334 163.4165 175.0957 187.92334 199.60254 211.28174"
         y="0"
         sodipodi:role="line"
         id="tspan14">&lt;username&gt; Database</tspan></text>
    <path
       id="path16"
       d="m 521.01001,91 h 270 v 70 h -270 z"
       style="fill:#d5e8d4;fill-opacity:1;fill-rule:nonzero;stroke:#82b366;stroke-width:1;stroke-linecap:butt;stroke-linejoin:miter;stroke-miterlimit:10;stroke-dasharray:none;stroke-opacity:1"
       transform="matrix(0.95705516,0,0,0.95705516,0.47852758,0.47852758)"
       clip-path="url(#clipPath17)" />
    <path
       id="path18"
       d="M 221,261 H 811.01001 V 441 H 221 Z"
       style="fill:#dae8fc;fill-opacity:1;fill-rule:nonzero;stroke:#6c8ebf;stroke-width:1;stroke-linecap:butt;stroke-linejoin:miter;stroke-miterlimit:10;stroke-dasharray:none;stroke-opacity:1"
       transform="matrix(0.95705516,0,0,0.95705516,0.47852758,0.47852758)"
       clip-path="url(#clipPath19)" />
    <path
       id="path20"
       d="m 221,261 h 590.01001 v 40 H 221 Z"
       style="fill:#dae8fc;fill-opacity:1;fill-rule:nonzero;stroke:#6c8ebf;stroke-width:1;stroke-linecap:butt;stroke-linejoin:miter;stroke-miterlimit:10;stroke-dasharray:none;stroke-opacity:1"
       transform="matrix(0.95705516,0,0,0.95705516,0.47852758,0.47852758)"
       clip-path="url(#clipPath21)" />
    <text
       id="text21"
       xml:space="preserve"
       transform="matrix(0.95706479,0,0,0.95706479,416.75686,275.63466)"
       clip-path="url(#clipPath22)"><tspan
         style="font-variant:normal;font-weight:700;font-size:21px;font-family:Helvetica;writing-mode:lr-tb;fill:#000000;fill-opacity:1;fill-rule:nonzero;stroke:none"
         x="0 14.006836 26.834473 38.513672 45.506836 58.334473 66.506836 78.186035 89.865234 95.699707 109.70654 121.38574 129.55811 141.2373 152.9165"
         y="0"
         sodipodi:role="line"
         id="tspan21">Postgres Server</tspan></text>
    <path
       id="path23"
       d="m 231,321 h 270 v 30 H 231 Z"
       style="fill:#d5e8d4;fill-opacity:1;fill-rule:nonzero;stroke:#82b366;stroke-width:1;stroke-linecap:butt;stroke-linejoin:miter;stroke-miterlimit:10;stroke-dasharray:none;stroke-opacity:1"
       transform="matrix(0.95705516,0,0,0.95705516,0.47852758,0.47852758)"
       clip-path="url(#clipPath24)" />
    <text
       id="text24"
       xml:space="preserve"
       transform="matrix(0.95706479,0,0,0.95706479,255.58117,328.27322)"
       clip-path="url(#clipPath25)"><tspan
         style="font-variant:normal;font-weight:700;font-size:21px;font-family:Helvetica;writing-mode:lr-tb;fill:#000000;fill-opacity:1;fill-rule:nonzero;stroke:none"
         x="0 4.9936523 17.821289 30.648926 42.328125 49.321289 62.148926 70.321289 82.000488 93.679688 98.67334 104.50781 119.67334 131.35254 138.3457 150.0249 162.85254 174.53174 186.21094"
         y="0"
         sodipodi:role="line"
         id="tspan24">'postgres' Database</tspan></text>
    <path
       id="path26"
       d="m 231,351 h 270 v 70 H 231 Z"
       style="fill:#d5e8d4;fill-opacity:1;fill-rule:nonzero;stroke:#82b366;stroke-width:1;stroke-linecap:butt;stroke-linejoin:miter;stroke-miterlimit:10;stroke-dasharray:none;stroke-opacity:1"
       transform="matrix(0.95705516,0,0,0.95705516,0.47852758,0.47852758)"
       clip-path="url(#clipPath27)" />
    <path
       id="path28"
       d="m 181,91 h 33.63"
       style="fill:none;stroke:#000000;stroke-width:1;stroke-linecap:butt;stroke-linejoin:miter;stroke-miterlimit:10;stroke-dasharray:none;stroke-opacity:1"
       transform="matrix(0.95705516,0,0,0.95705516,0.47852758,0.47852758)"
       clip-path="url(#clipPath29)" />
    <path
       id="path30"
       d="m 219.88,91 -7,3.5 1.75,-3.5 -1.75,-3.5 z"
       style="fill:#000000;fill-opacity:1;fill-rule:nonzero;stroke:#000000;stroke-width:1;stroke-linecap:butt;stroke-linejoin:miter;stroke-miterlimit:10;stroke-dasharray:none;stroke-opacity:1"
       transform="matrix(0.95705516,0,0,0.95705516,0.47852758,0.47852758)"
       clip-path="url(#clipPath31)" />
    <path
       id="path32"
       d="M 1,41 H 181 V 141 H 1 Z"
       style="fill:#f8cecc;fill-opacity:1;fill-rule:nonzero;stroke:#b85450;stroke-width:1;stroke-linecap:butt;stroke-linejoin:miter;stroke-miterlimit:10;stroke-dasharray:none;stroke-opacity:1"
       transform="matrix(0.95705516,0,0,0.95705516,0.47852758,0.47852758)"
       clip-path="url(#clipPath33)" />
    <text
       id="text33"
       xml:space="preserve"
       transform="matrix(0.95706479,0,0,0.95706479,27.425888,81.350507)"
       clip-path="url(#clipPath34)"><tspan
         style="font-variant:normal;font-weight:700;font-size:22px;font-family:Helvetica;writing-mode:lr-tb;fill:#000000;fill-opacity:1;fill-rule:nonzero;stroke:none"
         x="0 18.326172 30.561523 42.796875 59.90918 74.583008 80.695312 97.807617 103.91992 111.24609"
         y="0"
         sodipodi:role="line"
         id="tspan33">MacOS with</tspan></text>
    <text
       id="text34"
       xml:space="preserve"
       transform="matrix(0.95706479,0,0,0.95706479,20.397443,107.19126)"
       clip-path="url(#clipPath35)"><tspan
         style="font-variant:normal;font-weight:700;font-size:22px;font-family:Helvetica;writing-mode:lr-tb;fill:#000000;fill-opacity:1;fill-rule:nonzero;stroke:none"
         x="0 14.673828 28.112305 40.347656 47.673828 61.112305 69.673828 81.90918 94.144531 100.25684 112.49219 125.93066"
         y="0"
         sodipodi:role="line"
         id="tspan34">Postgres.app</tspan></text>
    <path
       id="path36"
       d="m 181,351 h 33.63"
       style="fill:none;stroke:#000000;stroke-width:1;stroke-linecap:butt;stroke-linejoin:miter;stroke-miterlimit:10;stroke-dasharray:none;stroke-opacity:1"
       transform="matrix(0.95705516,0,0,0.95705516,0.47852758,0.47852758)"
       clip-path="url(#clipPath37)" />
    <path
       id="path38"
       d="m 219.88,351 -7,3.5 1.75,-3.5 -1.75,-3.5 z"
       style="fill:#000000;fill-opacity:1;fill-rule:nonzero;stroke:#000000;stroke-width:1;stroke-linecap:butt;stroke-linejoin:miter;stroke-miterlimit:10;stroke-dasharray:none;stroke-opacity:1"
       transform="matrix(0.95705516,0,0,0.95705516,0.47852758,0.47852758)"
       clip-path="url(#clipPath39)" />
    <path
       id="path40"
       d="M 1,301 H 181 V 401 H 1 Z"
       style="fill:#f8cecc;fill-opacity:1;fill-rule:nonzero;stroke:#b85450;stroke-width:1;stroke-linecap:butt;stroke-linejoin:miter;stroke-miterlimit:10;stroke-dasharray:none;stroke-opacity:1"
       transform="matrix(0.95705516,0,0,0.95705516,0.47852758,0.47852758)"
       clip-path="url(#clipPath41)" />
    <text
       id="text41"
       xml:space="preserve"
       transform="matrix(0.95706479,0,0,0.95706479,9.9893638,342.6292)"
       clip-path="url(#clipPath42)"><tspan
         style="font-variant:normal;font-weight:700;font-size:22px;font-family:Helvetica;writing-mode:lr-tb;fill:#000000;fill-opacity:1;fill-rule:nonzero;stroke:none"
         x="0 20.571289 26.683594 40.12207 53.560547 66.999023 84.111328 96.34668 102.45898 115.89746 122.00977 135.44824 148.88672"
         y="0"
         sodipodi:role="line"
         id="tspan41">Windows/Linux</tspan></text>
    <path
       id="path43"
       d="m 1,220.5 h 3.0000296 v 1 H 1 m 6.0000596,-1 h 3.0000294 v 1 H 7.0000596 m 6.0000594,-1 h 3.00003 v 1 h -3.00003 m 6.000058,-1 h 3.000031 v 1 h -3.000031 m 6.000061,-1 h 3.000031 v 1 h -3.000031 m 6.000061,-1 h 3.000029 v 1 h -3.000029 m 6.000056,-1 h 3.00003 v 1 h -3.00003 m 6.000061,-1 h 3.00003 v 1 h -3.00003 m 6.000061,-1 h 3.00003 v 1 h -3.00003 m 6.000061,-1 h 3.00003 v 1 h -3.00003 m 6.000061,-1 h 3.000027 v 1 h -3.000027 m 6.000057,-1 h 3.000031 v 1 h -3.000031 m 6.000054,-1 h 3.00003 v 1 h -3.00003 m 6.000061,-1 h 3.00003 v 1 h -3.00003 m 6.000061,-1 h 3.00003 v 1 h -3.00003 m 6.000061,-1 h 3.00003 v 1 h -3.00003 m 6.000061,-1 h 3.000026 v 1 h -3.000026 m 6.000066,-1 h 3.00003 v 1 h -3.00003 m 6.00006,-1 h 3.00003 v 1 h -3.00003 m 6.00006,-1 h 3.00003 v 1 h -3.00003 m 6.00006,-1 h 3.00002 v 1 h -3.00002 m 6.00005,-1 h 3.00003 v 1 h -3.00003 m 6.00006,-1 h 3.00003 v 1 h -3.00003 m 6.00006,-1 h 3.00003 v 1 h -3.00003 m 6.00005,-1 h 3.00003 v 1 h -3.00003 m 6.00006,-1 h 3.00003 v 1 h -3.00003 m 6.00006,-1 h 3.00003 v 1 h -3.00003 m 6.00006,-1 h 3.00003 v 1 h -3.00003 m 6.00006,-1 h 3.00003 v 1 h -3.00003 m 6.00006,-1 h 3.00003 v 1 h -3.00003 m 6.00007,-1 h 3.00003 v 1 h -3.00003 m 6.00006,-1 h 3.00003 v 1 h -3.00003 m 6.00006,-1 h 3.00003 v 1 h -3.00003 m 6.00006,-1 h 3.00003 v 1 h -3.00003 m 6.00006,-1 h 3.00003 v 1 h -3.00003 m 6.00006,-1 h 3.00003 v 1 h -3.00003 m 6.00006,-1 h 3.00003 v 1 h -3.00003 m 6.00006,-1 h 3.00003 v 1 h -3.00003 m 6.00006,-1 h 3.00003 v 1 h -3.00003 m 6.00006,-1 h 3.00004 v 1 h -3.00004 m 6.00007,-1 h 3.00001 v 1 h -3.00001 m 6.00004,-1 h 3.00003 v 1 h -3.00003 m 6.00006,-1 h 3.00003 v 1 h -3.00003 m 6.00006,-1 h 3.00003 v 1 h -3.00003 m 6.00006,-1 h 3.00004 v 1 h -3.00004 m 6.00007,-1 h 3.00003 v 1 h -3.00003 m 6.00006,-1 h 3.00003 v 1 h -3.00003 m 6.00006,-1 h 3.00003 v 1 h -3.00003 m 6.00003,-1 h 3.00003 v 1 h -3.00003 m 6.00006,-1 h 3.00003 v 1 h -3.00003 m 6.00006,-1 h 3.00003 v 1 h -3.00003 m 6.00006,-1 h 3.00003 v 1 h -3.00003 m 6.00006,-1 h 3.00003 v 1 h -3.00003 m 6.00006,-1 h 3.00003 v 1 h -3.00003 m 6.00006,-1 h 3.00003 v 1 h -3.00003 m 6.00007,-1 h 3.00003 v 1 h -3.00003 m 6.00006,-1 h 3.00003 v 1 h -3.00003 m 6.00006,-1 h 3.00003 v 1 h -3.00003 m 6.00006,-1 h 3.00003 v 1 h -3.00003 m 6.00006,-1 h 3.00003 v 1 h -3.00003 m 6.00006,-1 h 3.00003 v 1 h -3.00003 m 6.00006,-1 h 3.00003 v 1 h -3.00003 m 6.00006,-1 h 3.00003 v 1 h -3.00003 m 6.00006,-1 h 3.00003 v 1 h -3.00003 m 6.00006,-1 h 3.00004 v 1 h -3.00004 m 6.00007,-1 h 3.00003 v 1 h -3.00003 m 6.00006,-1 h 3.00003 v 1 h -3.00003 m 6.00006,-1 h 3.00003 v 1 H 403.004 m 6.00006,-1 h 3.00003 v 1 h -3.00003 m 6.00006,-1 h 3.00003 v 1 h -3.00003 m 6.00006,-1 h 3.00003 v 1 h -3.00003 m 6.00006,-1 h 3.00003 v 1 h -3.00003 m 6.00006,-1 h 3.00003 v 1 h -3.00003 m 6.00006,-1 h 3.00003 v 1 h -3.00003 m 6.00007,-1 h 3.00003 v 1 h -3.00003 m 6.00006,-1 h 3.00003 v 1 h -3.00003 m 6.00006,-1 h 3.00003 v 1 h -3.00003 m 6.00006,-1 h 3.00003 v 1 h -3.00003 m 6.00006,-1 h 3.00003 v 1 h -3.00003 m 6.00006,-1 h 3.00003 v 1 h -3.00003 m 6.00006,-1 h 3 v 1 h -3 m 6.00003,-1 h 3.00003 v 1 h -3.00003 m 6.00006,-1 h 3.00003 v 1 h -3.00003 m 6.00006,-1 h 3.00003 v 1 h -3.00003 m 6.00006,-1 h 3.00004 v 1 H 505.005 m 6.00007,-1 h 3 v 1 h -3 m 6.00006,-1 h 3 v 1 h -3 m 6.00006,-1 h 3 v 1 h -3 m 6.00006,-1 h 3 v 1 h -3 m 6.00006,-1 h 3 v 1 h -3 m 6.00006,-1 h 3 v 1 h -3 m 6.00006,-1 h 3 v 1 h -3 m 6.00006,-1 h 3 v 1 h -3 m 6.00006,-1 h 3 v 1 h -3 m 6.00007,-1 h 3 v 1 h -3 m 6.00006,-1 h 3 v 1 h -3 m 6,-1 h 3.00006 v 1 h -3.00006 m 6.00006,-1 h 3.00006 v 1 h -3.00006 m 6.00006,-1 h 3.00006 v 1 h -3.00006 m 6.00006,-1 h 3.00006 v 1 h -3.00006 m 6.00006,-1 h 3.00006 v 1 h -3.00006 m 6.00006,-1 h 3.00006 v 1 h -3.00006 m 6.00006,-1 h 3.00006 v 1 h -3.00006 m 6.00006,-1 h 3.00006 v 1 h -3.00006 m 6.00006,-1 h 3.00007 v 1 h -3.00007 m 6.00007,-1 h 3.00006 v 1 h -3.00006 m 6.00006,-1 h 3.00006 v 1 h -3.00006 m 6.00006,-1 h 3.00006 v 1 h -3.00006 m 6.00006,-1 h 3.00006 v 1 h -3.00006 m 6.00006,-1 h 3.00006 v 1 h -3.00006 m 6.00006,-1 h 3.00006 v 1 h -3.00006 m 6.00006,-1 h 3.00006 v 1 h -3.00006 m 6.00006,-1 h 3.00006 v 1 h -3.00006 m 6.00006,-1 h 3.00006 v 1 h -3.00006 m 6.00006,-1 h 3.00007 v 1 h -3.00007 m 6.00007,-1 h 3.00006 v 1 h -3.00006 m 6.00006,-1 h 3.00006 v 1 h -3.00006 m 6.00006,-1 h 3.00006 v 1 h -3.00006 m 6.00006,-1 h 3.00006 v 1 h -3.00006 m 6.00006,-1 h 3.00006 v 1 h -3.00006 m 6.00006,-1 h 3.00006 v 1 h -3.00006 m 6.00006,-1 h 3.00006 v 1 h -3.00006 m 6.00006,-1 h 3.00006 v 1 h -3.00006 m 6.00006,-1 h 3.00007 v 1 h -3.00007 m 6.00007,-1 h 3.00006 v 1 h -3.00006 m 6.00006,-1 h 3.00006 v 1 h -3.00006 m 6.00006,-1 h 3.00006 v 1 h -3.00006 m 6.00006,-1 h 3.00006 v 1 h -3.00006 m 6.00006,-1 h 3 v 1 h -3 m 6.00006,-1 h 3 v 1 h -3 m 6.00006,-1 h 3 v 1 h -3 m 6.00006,-1 h 3 v 1 h -3 m 6.00006,-1 h 3 v 1 h -3 m 6.00006,-1 h 3 v 1 h -3 m 6.00007,-1 h 3 v 1 h -3 m 6.00006,-1 h 0.002 v 1 h -0.002"
       style="fill:#000000;fill-opacity:1;fill-rule:nonzero;stroke:none"
       transform="matrix(0.95705516,0,0,0.95705516,0.47852758,0.47852758)"
       clip-path="url(#clipPath44)" />
  </g>
</svg>
