<?xml version="1.0" encoding="UTF-8" standalone="no"?>
<!-- Created with Inkscape (http://www.inkscape.org/) -->

<svg
   version="1.1"
   id="svg1"
   width="1040"
   height="426.55997"
   viewBox="0 0 1040 426.55997"
   sodipodi:docname="sql-3.pdf"
   xmlns:inkscape="http://www.inkscape.org/namespaces/inkscape"
   xmlns:sodipodi="http://sodipodi.sourceforge.net/DTD/sodipodi-0.dtd"
   xmlns="http://www.w3.org/2000/svg"
   xmlns:svg="http://www.w3.org/2000/svg">
  <defs
     id="defs1">
    <clipPath
       clipPathUnits="userSpaceOnUse"
       id="clipPath2">
      <path
         d="M 0,0 H 3250 V 1332.9492 H 0 Z"
         transform="scale(0.33384617)"
         clip-rule="evenodd"
         id="path2" />
    </clipPath>
    <clipPath
       clipPathUnits="userSpaceOnUse"
       id="clipPath4">
      <path
         d="M 0,0 H 3250 V 1329.9539 H 0 Z"
         transform="matrix(0.33384617,0,0,0.33384617,-0.50000001,-0.50000001)"
         clip-rule="evenodd"
         id="path4" />
    </clipPath>
    <clipPath
       clipPathUnits="userSpaceOnUse"
       id="clipPath6">
      <path
         d="M 0,0 H 3250 V 1329.9539 H 0 Z"
         transform="matrix(0.33384617,0,0,0.33384617,-0.50000001,-0.50000001)"
         clip-rule="evenodd"
         id="path6" />
    </clipPath>
    <clipPath
       clipPathUnits="userSpaceOnUse"
       id="clipPath7">
      <path
         d="M 0,0 H 3250 V 1329.9539 H 0 Z"
         transform="matrix(0.33384282,0,0,0.33384282,-435.45313,-28)"
         clip-rule="evenodd"
         id="path7" />
    </clipPath>
    <clipPath
       clipPathUnits="userSpaceOnUse"
       id="clipPath9">
      <path
         d="M 0,0 H 3250 V 1329.9539 H 0 Z"
         transform="matrix(0.33384617,0,0,0.33384617,-0.50000001,-0.50000001)"
         clip-rule="evenodd"
         id="path9" />
    </clipPath>
    <clipPath
       clipPathUnits="userSpaceOnUse"
       id="clipPath10">
      <path
         d="M 0,0 H 3250 V 1329.9539 H 0 Z"
         transform="matrix(0.33384282,0,0,0.33384282,-267.04688,-83)"
         clip-rule="evenodd"
         id="path10" />
    </clipPath>
    <clipPath
       clipPathUnits="userSpaceOnUse"
       id="clipPath12">
      <path
         d="M 0,0 H 3250 V 1329.9539 H 0 Z"
         transform="matrix(0.33384617,0,0,0.33384617,-0.50000001,-0.50000001)"
         clip-rule="evenodd"
         id="path12" />
    </clipPath>
    <clipPath
       clipPathUnits="userSpaceOnUse"
       id="clipPath14">
      <path
         d="M 0,0 H 3250 V 1329.9539 H 0 Z"
         transform="matrix(0.33384617,0,0,0.33384617,-0.50000001,-0.50000001)"
         clip-rule="evenodd"
         id="path14" />
    </clipPath>
    <clipPath
       clipPathUnits="userSpaceOnUse"
       id="clipPath15">
      <path
         d="M 0,0 H 3250 V 1329.9539 H 0 Z"
         transform="matrix(0.33384282,0,0,0.33384282,-544.51563,-83)"
         clip-rule="evenodd"
         id="path15" />
    </clipPath>
    <clipPath
       clipPathUnits="userSpaceOnUse"
       id="clipPath17">
      <path
         d="M 0,0 H 3250 V 1329.9539 H 0 Z"
         transform="matrix(0.33384617,0,0,0.33384617,-0.50000001,-0.50000001)"
         clip-rule="evenodd"
         id="path17" />
    </clipPath>
    <clipPath
       clipPathUnits="userSpaceOnUse"
       id="clipPath19">
      <path
         d="M 0,0 H 3250 V 1329.9539 H 0 Z"
         transform="matrix(0.33384617,0,0,0.33384617,-0.50000001,-0.50000001)"
         clip-rule="evenodd"
         id="path19" />
    </clipPath>
    <clipPath
       clipPathUnits="userSpaceOnUse"
       id="clipPath21">
      <path
         d="M 0,0 H 3250 V 1329.9539 H 0 Z"
         transform="matrix(0.33384617,0,0,0.33384617,-0.50000001,-0.50000001)"
         clip-rule="evenodd"
         id="path21" />
    </clipPath>
    <clipPath
       clipPathUnits="userSpaceOnUse"
       id="clipPath22">
      <path
         d="M 0,0 H 3250 V 1329.9539 H 0 Z"
         transform="matrix(0.33384282,0,0,0.33384282,-435.45313,-288)"
         clip-rule="evenodd"
         id="path22" />
    </clipPath>
    <clipPath
       clipPathUnits="userSpaceOnUse"
       id="clipPath24">
      <path
         d="M 0,0 H 3250 V 1329.9539 H 0 Z"
         transform="matrix(0.33384617,0,0,0.33384617,-0.50000001,-0.50000001)"
         clip-rule="evenodd"
         id="path24" />
    </clipPath>
    <clipPath
       clipPathUnits="userSpaceOnUse"
       id="clipPath25">
      <path
         d="M 0,0 H 3250 V 1329.9539 H 0 Z"
         transform="matrix(0.33384282,0,0,0.33384282,-267.04688,-343)"
         clip-rule="evenodd"
         id="path25" />
    </clipPath>
    <clipPath
       clipPathUnits="userSpaceOnUse"
       id="clipPath27">
      <path
         d="M 0,0 H 3250 V 1329.9539 H 0 Z"
         transform="matrix(0.33384617,0,0,0.33384617,-0.50000001,-0.50000001)"
         clip-rule="evenodd"
         id="path27" />
    </clipPath>
    <clipPath
       clipPathUnits="userSpaceOnUse"
       id="clipPath29">
      <path
         d="M 0,0 H 3250 V 1329.9539 H 0 Z"
         transform="matrix(0.33384617,0,0,0.33384617,-0.50000001,-0.50000001)"
         clip-rule="evenodd"
         id="path29" />
    </clipPath>
    <clipPath
       clipPathUnits="userSpaceOnUse"
       id="clipPath31">
      <path
         d="M 0,0 H 3250 V 1329.9539 H 0 Z"
         transform="matrix(0.33384617,0,0,0.33384617,-0.50000001,-0.50000001)"
         clip-rule="evenodd"
         id="path31" />
    </clipPath>
    <clipPath
       clipPathUnits="userSpaceOnUse"
       id="clipPath33">
      <path
         d="M 0,0 H 3250 V 1329.9539 H 0 Z"
         transform="matrix(0.33384617,0,0,0.33384617,-0.50000001,-0.50000001)"
         clip-rule="evenodd"
         id="path33" />
    </clipPath>
    <clipPath
       clipPathUnits="userSpaceOnUse"
       id="clipPath34">
      <path
         d="M 0,0 H 3250 V 1329.9539 H 0 Z"
         transform="matrix(0.33384282,0,0,0.33384282,-28.65625,-85)"
         clip-rule="evenodd"
         id="path34" />
    </clipPath>
    <clipPath
       clipPathUnits="userSpaceOnUse"
       id="clipPath35">
      <path
         d="M 0,0 H 3250 V 1329.9539 H 0 Z"
         transform="matrix(0.33384282,0,0,0.33384282,-21.3125,-112)"
         clip-rule="evenodd"
         id="path35" />
    </clipPath>
    <clipPath
       clipPathUnits="userSpaceOnUse"
       id="clipPath37">
      <path
         d="M 0,0 H 3250 V 1329.9539 H 0 Z"
         transform="matrix(0.33384617,0,0,0.33384617,-0.50000001,-0.50000001)"
         clip-rule="evenodd"
         id="path37" />
    </clipPath>
    <clipPath
       clipPathUnits="userSpaceOnUse"
       id="clipPath39">
      <path
         d="M 0,0 H 3250 V 1329.9539 H 0 Z"
         transform="matrix(0.33384617,0,0,0.33384617,-0.50000001,-0.50000001)"
         clip-rule="evenodd"
         id="path39" />
    </clipPath>
    <clipPath
       clipPathUnits="userSpaceOnUse"
       id="clipPath41">
      <path
         d="M 0,0 H 3250 V 1329.9539 H 0 Z"
         transform="matrix(0.33384617,0,0,0.33384617,-0.50000001,-0.50000001)"
         clip-rule="evenodd"
         id="path41" />
    </clipPath>
    <clipPath
       clipPathUnits="userSpaceOnUse"
       id="clipPath42">
      <path
         d="M 0,0 H 3250 V 1329.9539 H 0 Z"
         transform="matrix(0.33384282,0,0,0.33384282,-10.4375,-358)"
         clip-rule="evenodd"
         id="path42" />
    </clipPath>
    <clipPath
       clipPathUnits="userSpaceOnUse"
       id="clipPath44">
      <path
         d="M 0,0 H 3250 V 1329.9539 H 0 Z"
         transform="matrix(0.33384617,0,0,0.33384617,-0.50000001,-0.50000001)"
         clip-rule="evenodd"
         id="path44" />
    </clipPath>
    <clipPath
       clipPathUnits="userSpaceOnUse"
       id="clipPath46">
      <path
         d="M 0,0 H 3250 V 1329.9539 H 0 Z"
         transform="matrix(0.33384617,0,0,0.33384617,-0.50000001,-0.50000001)"
         clip-rule="evenodd"
         id="path46" />
    </clipPath>
    <clipPath
       clipPathUnits="userSpaceOnUse"
       id="clipPath48">
      <path
         d="M 0,0 H 3250 V 1329.9539 H 0 Z"
         transform="matrix(0.33384617,0,0,0.33384617,-0.50000001,-0.50000001)"
         clip-rule="evenodd"
         id="path48" />
    </clipPath>
    <clipPath
       clipPathUnits="userSpaceOnUse"
       id="clipPath50">
      <path
         d="M 0,0 H 3250 V 1329.9539 H 0 Z"
         transform="matrix(0.33384617,0,0,0.33384617,-0.50000001,-0.50000001)"
         clip-rule="evenodd"
         id="path50" />
    </clipPath>
    <clipPath
       clipPathUnits="userSpaceOnUse"
       id="clipPath51">
      <path
         d="M 0,0 H 3250 V 1329.9539 H 0 Z"
         transform="matrix(0.33384282,0,0,0.33384282,-904.76563,-98)"
         clip-rule="evenodd"
         id="path51" />
    </clipPath>
    <clipPath
       clipPathUnits="userSpaceOnUse"
       id="clipPath53">
      <path
         d="M 0,0 H 3250 V 1329.9539 H 0 Z"
         transform="matrix(0.33384617,0,0,0.33384617,-0.50000001,-0.50000001)"
         clip-rule="evenodd"
         id="path53" />
    </clipPath>
    <clipPath
       clipPathUnits="userSpaceOnUse"
       id="clipPath55">
      <path
         d="M 0,0 H 3250 V 1329.9539 H 0 Z"
         transform="matrix(0.33384617,0,0,0.33384617,-0.50000001,-0.50000001)"
         clip-rule="evenodd"
         id="path55" />
    </clipPath>
    <clipPath
       clipPathUnits="userSpaceOnUse"
       id="clipPath57">
      <path
         d="M 0,0 H 3250 V 1329.9539 H 0 Z"
         transform="matrix(0.33384617,0,0,0.33384617,-0.50000001,-0.50000001)"
         clip-rule="evenodd"
         id="path57" />
    </clipPath>
    <clipPath
       clipPathUnits="userSpaceOnUse"
       id="clipPath58">
      <path
         d="M 0,0 H 3250 V 1329.9539 H 0 Z"
         transform="matrix(0.33384282,0,0,0.33384282,-904.76563,-358)"
         clip-rule="evenodd"
         id="path58" />
    </clipPath>
  </defs>
  <sodipodi:namedview
     id="namedview1"
     pagecolor="#ffffff"
     bordercolor="#000000"
     borderopacity="0.25"
     inkscape:showpageshadow="2"
     inkscape:pageopacity="0.0"
     inkscape:pagecheckerboard="0"
     inkscape:deskcolor="#d1d1d1">
    <inkscape:page
       x="0"
       y="0"
       inkscape:label="1"
       id="page1"
       width="1040"
       height="426.55997"
       margin="0"
       bleed="0" />
  </sodipodi:namedview>
  <g
     id="g1"
     inkscape:groupmode="layer"
     inkscape:label="1">
    <path
       id="path1"
       d="M 0,0 H 1085 V 445 H 0 Z"
       style="fill:#ffffff;fill-opacity:1;fill-rule:nonzero;stroke:none"
       transform="scale(0.95852527)"
       clip-path="url(#clipPath2)" />
    <path
       id="path3"
       d="M 221,1 H 811.01001 V 181 H 221 Z"
       style="fill:#dae8fc;fill-opacity:1;fill-rule:nonzero;stroke:#6c8ebf;stroke-width:1;stroke-linecap:butt;stroke-linejoin:miter;stroke-miterlimit:10;stroke-dasharray:none;stroke-opacity:1"
       transform="matrix(0.95852527,0,0,0.95852527,0.47926264,0.47926264)"
       clip-path="url(#clipPath4)" />
    <path
       id="path5"
       d="M 221,1 H 811.01001 V 41 H 221 Z"
       style="fill:#dae8fc;fill-opacity:1;fill-rule:nonzero;stroke:#6c8ebf;stroke-width:1;stroke-linecap:butt;stroke-linejoin:miter;stroke-miterlimit:10;stroke-dasharray:none;stroke-opacity:1"
       transform="matrix(0.95852527,0,0,0.95852527,0.47926264,0.47926264)"
       clip-path="url(#clipPath6)" />
    <text
       id="text6"
       xml:space="preserve"
       transform="matrix(0.95853487,0,0,0.95853487,417.39701,26.838976)"
       clip-path="url(#clipPath7)"><tspan
         style="font-variant:normal;font-weight:700;font-size:21px;font-family:Helvetica;writing-mode:lr-tb;fill:#000000;fill-opacity:1;fill-rule:nonzero;stroke:none"
         x="0 14.006836 26.834473 38.513672 45.506836 58.334473 66.506836 78.186035 89.865234 95.699707 109.70654 121.38574 129.55811 141.2373 152.9165"
         y="0"
         sodipodi:role="line"
         id="tspan6">Postgres Server</tspan></text>
    <path
       id="path8"
       d="M 231,61 H 501 V 91 H 231 Z"
       style="fill:#d5e8d4;fill-opacity:1;fill-rule:nonzero;stroke:#82b366;stroke-width:1;stroke-linecap:butt;stroke-linejoin:miter;stroke-miterlimit:10;stroke-dasharray:none;stroke-opacity:1"
       transform="matrix(0.95852527,0,0,0.95852527,0.47926264,0.47926264)"
       clip-path="url(#clipPath9)" />
    <text
       id="text9"
       xml:space="preserve"
       transform="matrix(0.95853487,0,0,0.95853487,255.97375,79.558394)"
       clip-path="url(#clipPath10)"><tspan
         style="font-variant:normal;font-weight:700;font-size:21px;font-family:Helvetica;writing-mode:lr-tb;fill:#000000;fill-opacity:1;fill-rule:nonzero;stroke:none"
         x="0 4.9936523 17.821289 30.648926 42.328125 49.321289 62.148926 70.321289 82.000488 93.679688 98.67334 104.50781 119.67334 131.35254 138.3457 150.0249 162.85254 174.53174 186.21094"
         y="0"
         sodipodi:role="line"
         id="tspan9">'postgres' Database</tspan></text>
    <path
       id="path11"
       d="m 231,91 h 270 v 70 H 231 Z"
       style="fill:#d5e8d4;fill-opacity:1;fill-rule:nonzero;stroke:#82b366;stroke-width:1;stroke-linecap:butt;stroke-linejoin:miter;stroke-miterlimit:10;stroke-dasharray:none;stroke-opacity:1"
       transform="matrix(0.95852527,0,0,0.95852527,0.47926264,0.47926264)"
       clip-path="url(#clipPath12)" />
    <path
       id="path13"
       d="m 521.01001,61 h 270 v 30 h -270 z"
       style="fill:#d5e8d4;fill-opacity:1;fill-rule:nonzero;stroke:#82b366;stroke-width:1;stroke-linecap:butt;stroke-linejoin:miter;stroke-miterlimit:10;stroke-dasharray:none;stroke-opacity:1"
       transform="matrix(0.95852527,0,0,0.95852527,0.47926264,0.47926264)"
       clip-path="url(#clipPath14)" />
    <text
       id="text14"
       xml:space="preserve"
       transform="matrix(0.95853487,0,0,0.95853487,521.93722,79.558394)"
       clip-path="url(#clipPath15)"><tspan
         style="font-variant:normal;font-weight:700;font-size:21px;font-family:Helvetica;writing-mode:lr-tb;fill:#000000;fill-opacity:1;fill-rule:nonzero;stroke:none"
         x="0 12.263672 25.091309 36.770508 48.449707 56.62207 69.449707 81.128906 99.80127 111.48047 123.74414 129.57861 144.74414 156.42334 163.4165 175.0957 187.92334 199.60254 211.28174"
         y="0"
         sodipodi:role="line"
         id="tspan14">&lt;username&gt; Database</tspan></text>
    <path
       id="path16"
       d="m 521.01001,91 h 270 v 70 h -270 z"
       style="fill:#d5e8d4;fill-opacity:1;fill-rule:nonzero;stroke:#82b366;stroke-width:1;stroke-linecap:butt;stroke-linejoin:miter;stroke-miterlimit:10;stroke-dasharray:none;stroke-opacity:1"
       transform="matrix(0.95852527,0,0,0.95852527,0.47926264,0.47926264)"
       clip-path="url(#clipPath17)" />
    <path
       id="path18"
       d="M 221,261 H 811.01001 V 441 H 221 Z"
       style="fill:#dae8fc;fill-opacity:1;fill-rule:nonzero;stroke:#6c8ebf;stroke-width:1;stroke-linecap:butt;stroke-linejoin:miter;stroke-miterlimit:10;stroke-dasharray:none;stroke-opacity:1"
       transform="matrix(0.95852527,0,0,0.95852527,0.47926264,0.47926264)"
       clip-path="url(#clipPath19)" />
    <path
       id="path20"
       d="m 221,261 h 590.01001 v 40 H 221 Z"
       style="fill:#dae8fc;fill-opacity:1;fill-rule:nonzero;stroke:#6c8ebf;stroke-width:1;stroke-linecap:butt;stroke-linejoin:miter;stroke-miterlimit:10;stroke-dasharray:none;stroke-opacity:1"
       transform="matrix(0.95852527,0,0,0.95852527,0.47926264,0.47926264)"
       clip-path="url(#clipPath21)" />
    <text
       id="text21"
       xml:space="preserve"
       transform="matrix(0.95853487,0,0,0.95853487,417.39701,276.05804)"
       clip-path="url(#clipPath22)"><tspan
         style="font-variant:normal;font-weight:700;font-size:21px;font-family:Helvetica;writing-mode:lr-tb;fill:#000000;fill-opacity:1;fill-rule:nonzero;stroke:none"
         x="0 14.006836 26.834473 38.513672 45.506836 58.334473 66.506836 78.186035 89.865234 95.699707 109.70654 121.38574 129.55811 141.2373 152.9165"
         y="0"
         sodipodi:role="line"
         id="tspan21">Postgres Server</tspan></text>
    <path
       id="path23"
       d="m 231,321 h 270 v 30 H 231 Z"
       style="fill:#d5e8d4;fill-opacity:1;fill-rule:nonzero;stroke:#82b366;stroke-width:1;stroke-linecap:butt;stroke-linejoin:miter;stroke-miterlimit:10;stroke-dasharray:none;stroke-opacity:1"
       transform="matrix(0.95852527,0,0,0.95852527,0.47926264,0.47926264)"
       clip-path="url(#clipPath24)" />
    <text
       id="text24"
       xml:space="preserve"
       transform="matrix(0.95853487,0,0,0.95853487,255.97375,328.77746)"
       clip-path="url(#clipPath25)"><tspan
         style="font-variant:normal;font-weight:700;font-size:21px;font-family:Helvetica;writing-mode:lr-tb;fill:#000000;fill-opacity:1;fill-rule:nonzero;stroke:none"
         x="0 4.9936523 17.821289 30.648926 42.328125 49.321289 62.148926 70.321289 82.000488 93.679688 98.67334 104.50781 119.67334 131.35254 138.3457 150.0249 162.85254 174.53174 186.21094"
         y="0"
         sodipodi:role="line"
         id="tspan24">'postgres' Database</tspan></text>
    <path
       id="path26"
       d="m 231,351 h 270 v 70 H 231 Z"
       style="fill:#d5e8d4;fill-opacity:1;fill-rule:nonzero;stroke:#82b366;stroke-width:1;stroke-linecap:butt;stroke-linejoin:miter;stroke-miterlimit:10;stroke-dasharray:none;stroke-opacity:1"
       transform="matrix(0.95852527,0,0,0.95852527,0.47926264,0.47926264)"
       clip-path="url(#clipPath27)" />
    <path
       id="path28"
       d="m 181,91 h 33.63"
       style="fill:none;stroke:#000000;stroke-width:1;stroke-linecap:butt;stroke-linejoin:miter;stroke-miterlimit:10;stroke-dasharray:none;stroke-opacity:1"
       transform="matrix(0.95852527,0,0,0.95852527,0.47926264,0.47926264)"
       clip-path="url(#clipPath29)" />
    <path
       id="path30"
       d="m 219.88,91 -7,3.5 1.75,-3.5 -1.75,-3.5 z"
       style="fill:#000000;fill-opacity:1;fill-rule:nonzero;stroke:#000000;stroke-width:1;stroke-linecap:butt;stroke-linejoin:miter;stroke-miterlimit:10;stroke-dasharray:none;stroke-opacity:1"
       transform="matrix(0.95852527,0,0,0.95852527,0.47926264,0.47926264)"
       clip-path="url(#clipPath31)" />
    <path
       id="path32"
       d="M 1,41 H 181 V 141 H 1 Z"
       style="fill:#f8cecc;fill-opacity:1;fill-rule:nonzero;stroke:#b85450;stroke-width:1;stroke-linecap:butt;stroke-linejoin:miter;stroke-miterlimit:10;stroke-dasharray:none;stroke-opacity:1"
       transform="matrix(0.95852527,0,0,0.95852527,0.47926264,0.47926264)"
       clip-path="url(#clipPath33)" />
    <text
       id="text33"
       xml:space="preserve"
       transform="matrix(0.95853487,0,0,0.95853487,27.468015,81.475464)"
       clip-path="url(#clipPath34)"><tspan
         style="font-variant:normal;font-weight:700;font-size:22px;font-family:Helvetica;writing-mode:lr-tb;fill:#000000;fill-opacity:1;fill-rule:nonzero;stroke:none"
         x="0 18.326172 30.561523 42.796875 59.90918 74.583008 80.695312 97.807617 103.91992 111.24609"
         y="0"
         sodipodi:role="line"
         id="tspan33">MacOS with</tspan></text>
    <text
       id="text34"
       xml:space="preserve"
       transform="matrix(0.95853487,0,0,0.95853487,20.428774,107.35591)"
       clip-path="url(#clipPath35)"><tspan
         style="font-variant:normal;font-weight:700;font-size:22px;font-family:Helvetica;writing-mode:lr-tb;fill:#000000;fill-opacity:1;fill-rule:nonzero;stroke:none"
         x="0 14.673828 28.112305 40.347656 47.673828 61.112305 69.673828 81.90918 94.144531 100.25684 112.49219 125.93066"
         y="0"
         sodipodi:role="line"
         id="tspan34">Postgres.app</tspan></text>
    <path
       id="path36"
       d="m 181,351 h 33.63"
       style="fill:none;stroke:#000000;stroke-width:1;stroke-linecap:butt;stroke-linejoin:miter;stroke-miterlimit:10;stroke-dasharray:none;stroke-opacity:1"
       transform="matrix(0.95852527,0,0,0.95852527,0.47926264,0.47926264)"
       clip-path="url(#clipPath37)" />
    <path
       id="path38"
       d="m 219.88,351 -7,3.5 1.75,-3.5 -1.75,-3.5 z"
       style="fill:#000000;fill-opacity:1;fill-rule:nonzero;stroke:#000000;stroke-width:1;stroke-linecap:butt;stroke-linejoin:miter;stroke-miterlimit:10;stroke-dasharray:none;stroke-opacity:1"
       transform="matrix(0.95852527,0,0,0.95852527,0.47926264,0.47926264)"
       clip-path="url(#clipPath39)" />
    <path
       id="path40"
       d="M 1,301 H 181 V 401 H 1 Z"
       style="fill:#f8cecc;fill-opacity:1;fill-rule:nonzero;stroke:#b85450;stroke-width:1;stroke-linecap:butt;stroke-linejoin:miter;stroke-miterlimit:10;stroke-dasharray:none;stroke-opacity:1"
       transform="matrix(0.95852527,0,0,0.95852527,0.47926264,0.47926264)"
       clip-path="url(#clipPath41)" />
    <text
       id="text41"
       xml:space="preserve"
       transform="matrix(0.95853487,0,0,0.95853487,10.004708,343.15548)"
       clip-path="url(#clipPath42)"><tspan
         style="font-variant:normal;font-weight:700;font-size:22px;font-family:Helvetica;writing-mode:lr-tb;fill:#000000;fill-opacity:1;fill-rule:nonzero;stroke:none"
         x="0 20.571289 26.683594 40.12207 53.560547 66.999023 84.111328 96.34668 102.45898 115.89746 122.00977 135.44824 148.88672"
         y="0"
         sodipodi:role="line"
         id="tspan41">Windows/Linux</tspan></text>
    <path
       id="path43"
       d="m 1,220.5 h 3.00003 v 1 H 1 m 6.0000601,-1 H 10.00009 v 1 H 7.0000601 m 6.0000599,-1 h 3.000031 v 1 H 13.00012 m 6.000059,-1 h 3.000031 v 1 h -3.000031 m 6.000061,-1 h 3.000031 v 1 H 25.00024 m 6.000061,-1 h 3.000031 v 1 h -3.000031 m 6.000058,-1 h 3.00003 v 1 h -3.00003 m 6.000061,-1 h 3.00003 v 1 h -3.00003 m 6.000061,-1 h 3.00003 v 1 h -3.00003 m 6.000061,-1 h 3.00003 v 1 h -3.00003 m 6.000061,-1 h 3.000023 v 1 h -3.000023 m 6.000061,-1 h 3.00003 v 1 h -3.00003 m 6.000053,-1 h 3.000031 v 1 h -3.000031 m 6.000061,-1 h 3.000031 v 1 h -3.000031 m 6.000061,-1 h 3.000031 v 1 h -3.000031 m 6.000061,-1 h 3.000031 v 1 H 91.0009 m 6.000061,-1 h 3.000029 v 1 h -3.000029 m 6.000059,-1 h 3.00003 v 1 h -3.00003 m 6.00006,-1 h 3.00003 v 1 h -3.00003 m 6.00006,-1 h 3.00004 v 1 h -3.00004 m 6.00007,-1 h 3.00002 v 1 h -3.00002 m 6.00005,-1 h 3.00004 v 1 h -3.00004 m 6.00007,-1 h 3.00003 v 1 h -3.00003 m 6.00006,-1 h 3.00003 v 1 h -3.00003 m 6.00004,-1 h 3.00003 v 1 h -3.00003 m 6.00006,-1 h 3.00004 v 1 h -3.00004 m 6.00007,-1 h 3.00003 v 1 h -3.00003 m 6.00006,-1 h 3.00003 v 1 h -3.00003 m 6.00006,-1 h 3.00003 v 1 h -3.00003 m 6.00006,-1 h 3.00003 v 1 h -3.00003 m 6.00006,-1 h 3.00003 v 1 h -3.00003 m 6.00006,-1 h 3.00003 v 1 h -3.00003 m 6.00006,-1 h 3.00003 v 1 h -3.00003 m 6.00006,-1 h 3.00003 v 1 h -3.00003 m 6.00006,-1 h 3.00004 v 1 h -3.00004 m 6.00007,-1 h 3.00003 v 1 h -3.00003 m 6.00006,-1 h 3.00003 v 1 h -3.00003 m 6.00006,-1 h 3.00003 v 1 h -3.00003 m 6.00006,-1 h 3.00003 v 1 h -3.00003 m 6.00006,-1 h 3.00003 v 1 h -3.00003 m 6.00006,-1 h 3.00002 v 1 h -3.00002 m 6.00005,-1 h 3.00003 v 1 h -3.00003 m 6.00006,-1 h 3.00004 v 1 h -3.00004 m 6.00007,-1 h 3.00003 v 1 h -3.00003 m 6.00007,-1 h 3.00003 v 1 h -3.00003 m 6.00006,-1 h 3.00003 v 1 h -3.00003 m 6.00006,-1 h 3.00003 v 1 h -3.00003 m 6.00006,-1 h 3.00003 v 1 h -3.00003 m 6.00003,-1 h 3.00003 v 1 h -3.00003 m 6.00006,-1 h 3.00003 v 1 h -3.00003 m 6.00006,-1 h 3.00003 v 1 h -3.00003 m 6.00006,-1 h 3.00003 v 1 h -3.00003 m 6.00006,-1 h 3.00003 v 1 h -3.00003 m 6.00006,-1 h 3.00003 v 1 h -3.00003 m 6.00006,-1 h 3.00004 v 1 h -3.00004 m 6.00007,-1 h 3.00003 v 1 h -3.00003 m 6.00006,-1 h 3.00003 v 1 h -3.00003 m 6.00006,-1 h 3.00003 v 1 h -3.00003 m 6.00006,-1 h 3.00003 v 1 h -3.00003 m 6.00006,-1 h 3.00003 v 1 h -3.00003 m 6.00006,-1 h 3.00003 v 1 h -3.00003 m 6.00006,-1 h 3.00003 v 1 h -3.00003 m 6.00006,-1 h 3.00003 v 1 h -3.00003 m 6.00006,-1 h 3.00003 v 1 h -3.00003 m 6.00007,-1 h 3.00003 v 1 h -3.00003 m 6.00006,-1 h 3.00003 v 1 h -3.00003 m 6.00006,-1 h 3.00003 v 1 h -3.00003 m 6.00006,-1 h 3.00003 v 1 h -3.00003 m 6.00006,-1 h 3.00003 v 1 h -3.00003 m 6.00006,-1 h 3.00003 v 1 h -3.00003 m 6.00006,-1 h 3.00003 v 1 h -3.00003 m 6.00006,-1 h 3.00003 v 1 h -3.00003 m 6.00006,-1 h 3.00003 v 1 h -3.00003 m 6.00006,-1 h 3.00004 v 1 h -3.00004 m 6.00007,-1 h 3.00003 v 1 h -3.00003 m 6.00006,-1 h 3.00003 v 1 h -3.00003 m 6.00006,-1 h 3.00003 v 1 h -3.00003 m 6.00006,-1 h 3.00003 v 1 h -3.00003 m 6.00006,-1 h 3.00003 v 1 h -3.00003 m 6.00006,-1 h 3.00003 v 1 h -3.00003 m 6.00006,-1 h 3 v 1 h -3 m 6.00003,-1 h 3.00003 v 1 h -3.00003 m 6.00006,-1 h 3.00003 v 1 h -3.00003 m 6.00006,-1 h 3.00003 v 1 h -3.00003 m 6.00007,-1 h 3.00003 v 1 h -3.00003 m 6.00006,-1 h 3.00003 v 1 h -3.00003 m 6.00009,-1 h 3 v 1 h -3 m 6.00006,-1 h 3 v 1 h -3 m 6.00006,-1 h 3 v 1 h -3 m 6.00006,-1 h 3 v 1 h -3 m 6.00006,-1 h 3 v 1 h -3 m 6.00006,-1 h 3 v 1 h -3 m 6.00006,-1 h 3 v 1 h -3 m 6.00007,-1 h 3 v 1 h -3 m 6.00006,-1 h 3 v 1 h -3 m 6.00006,-1 h 3 v 1 h -3 m 6,-1 h 3.00006 v 1 h -3.00006 m 6.00006,-1 h 3.00006 v 1 h -3.00006 m 6.00006,-1 h 3.00006 v 1 h -3.00006 m 6.00006,-1 h 3.00006 v 1 h -3.00006 m 6.00006,-1 h 3.00006 v 1 h -3.00006 m 6.00006,-1 h 3.00006 v 1 h -3.00006 m 6.00006,-1 h 3.00006 v 1 h -3.00006 m 6.00006,-1 h 3.00007 v 1 h -3.00007 m 6.00007,-1 h 3.00006 v 1 h -3.00006 m 6.00006,-1 h 3.00006 v 1 h -3.00006 m 6.00006,-1 h 3.00006 v 1 h -3.00006 m 6.00006,-1 h 3.00006 v 1 h -3.00006 m 6.00006,-1 h 3.00006 v 1 h -3.00006 m 6.00006,-1 h 3.00006 v 1 h -3.00006 m 6.00006,-1 h 3.00006 v 1 h -3.00006 m 6.00006,-1 h 3.00006 v 1 h -3.00006 m 6.00006,-1 h 3.00006 v 1 h -3.00006 m 6.00006,-1 h 3.00007 v 1 h -3.00007 m 6.00007,-1 h 3.00006 v 1 h -3.00006 m 6.00006,-1 h 3.00006 v 1 h -3.00006 m 6.00006,-1 h 3.00006 v 1 h -3.00006 m 6.00006,-1 h 3.00006 v 1 h -3.00006 m 6.00006,-1 h 3.00006 v 1 h -3.00006 m 6.00006,-1 h 3.00006 v 1 h -3.00006 m 6.00006,-1 h 3.00006 v 1 h -3.00006 m 6.00006,-1 h 3.00006 v 1 h -3.00006 m 6.00006,-1 h 3.00007 v 1 h -3.00007 m 6.00007,-1 h 3.00006 v 1 h -3.00006 m 6.00006,-1 h 3.00006 v 1 h -3.00006 m 6.00006,-1 h 3.00006 v 1 h -3.00006 m 6.00006,-1 h 3.00006 v 1 h -3.00006 m 6.00006,-1 h 3.00006 v 1 h -3.00006 m 6.00006,-1 h 3 v 1 h -3 m 6.00006,-1 h 3 v 1 h -3 m 6.00006,-1 h 3 v 1 h -3 m 6.00006,-1 h 3 v 1 h -3 m 6.00006,-1 h 3 v 1 h -3 m 6.00007,-1 h 3 v 1 h -3 m 6.00006,-1 h 3 v 1 h -3 m 6.00006,-1 h 3 v 1 h -3 m 6.00006,-1 h 3 v 1 h -3 m 6.00006,-1 h 3 v 1 h -3 m 6.00006,-1 h 3 v 1 h -3 m 6.00006,-1 h 3 v 1 h -3 m 6.00006,-1 h 3 v 1 h -3 m 6.00006,-1 h 3 v 1 h -3 m 6.00006,-1 h 3 v 1 h -3 m 6.00007,-1 h 3 v 1 h -3 m 6.00006,-1 h 3 v 1 h -3 m 6.00006,-1 h 3 v 1 h -3 m 6.00006,-1 h 3 v 1 h -3 m 6.00006,-1 h 3 v 1 h -3 m 6.00006,-1 h 3 v 1 h -3 m 6.00006,-1 h 3 v 1 h -3 m 6.00006,-1 h 3 v 1 h -3 m 6.00006,-1 h 3 v 1 h -3 m 6.00007,-1 h 3 v 1 h -3 m 6.00006,-1 h 3 v 1 h -3 m 6.00006,-1 h 3 v 1 h -3 m 6.00006,-1 h 3 v 1 h -3 m 6.00006,-1 h 3 v 1 h -3 m 6.00006,-1 h 3 v 1 h -3 m 6.00006,-1 h 3 v 1 h -3 m 6.00006,-1 h 3 v 1 h -3 m 6.00006,-1 h 3 v 1 h -3 m 6,-1 h 3.00006 v 1 h -3.00006 m 6.00006,-1 h 3.00007 v 1 h -3.00007 m 6.00007,-1 h 3.00006 v 1 h -3.00006 m 6.00006,-1 h 3.00006 v 1 h -3.00006 m 6.00006,-1 h 3.00006 v 1 h -3.00006 m 6.00006,-1 h 3.00005 v 1 h -3.00005 m 6.00005,-1 h 3.0001 v 1 h -3.0001 m 6.0001,-1 h 3 v 1 h -3 m 6,-1 h 3.0001 v 1 h -3.0001 m 6.0001,-1 h 3.0001 v 1 h -3.0001 m 6.0001,-1 h 3 v 1 h -3 m 6.0001,-1 h 3 v 1 h -3 m 6,-1 h 3 v 1 h -3 m 6.0001,-1 h 3 v 1 h -3 m 6,-1 h 3 v 1 h -3 m 6.0001,-1 h 3 v 1 h -3 m 6,-1 h 3 v 1 h -3 m 6.0001,-1 h 3 v 1 h -3 m 6,-1 h 3 v 1 h -3"
       style="fill:#000000;fill-opacity:1;fill-rule:nonzero;stroke:none"
       transform="matrix(0.95852527,0,0,0.95852527,0.47926264,0.47926264)"
       clip-path="url(#clipPath44)" />
    <path
       id="path45"
       d="M 871.01001,91 H 817.38"
       style="fill:none;stroke:#000000;stroke-width:1;stroke-linecap:butt;stroke-linejoin:miter;stroke-miterlimit:10;stroke-dasharray:none;stroke-opacity:1"
       transform="matrix(0.95852527,0,0,0.95852527,0.47926264,0.47926264)"
       clip-path="url(#clipPath46)" />
    <path
       id="path47"
       d="m 812.13,91 7,-3.5 -1.75,3.5 1.75,3.5 z"
       style="fill:#000000;fill-opacity:1;fill-rule:nonzero;stroke:#000000;stroke-width:1;stroke-linecap:butt;stroke-linejoin:miter;stroke-miterlimit:10;stroke-dasharray:none;stroke-opacity:1"
       transform="matrix(0.95852527,0,0,0.95852527,0.47926264,0.47926264)"
       clip-path="url(#clipPath48)" />
    <path
       id="path49"
       d="M 871.01001,41 H 1051.01 V 141 H 871.01001 Z"
       style="fill:#fff2cc;fill-opacity:1;fill-rule:nonzero;stroke:#d6b656;stroke-width:1;stroke-linecap:butt;stroke-linejoin:miter;stroke-miterlimit:10;stroke-dasharray:none;stroke-opacity:1"
       transform="matrix(0.95852527,0,0,0.95852527,0.47926264,0.47926264)"
       clip-path="url(#clipPath50)" />
    <text
       id="text50"
       xml:space="preserve"
       transform="matrix(0.95853487,0,0,0.95853487,867.24941,93.936417)"
       clip-path="url(#clipPath51)"><tspan
         style="font-variant:normal;font-weight:700;font-size:22px;font-family:Helvetica;writing-mode:lr-tb;fill:#000000;fill-opacity:1;fill-rule:nonzero;stroke:none"
         x="0 14.673828 31.786133 47.673828 61.112305 80.673828 86.786133 100.22461"
         y="0"
         sodipodi:role="line"
         id="tspan50">PGAdmin4</tspan></text>
    <path
       id="path52"
       d="M 871.01001,351 H 817.38"
       style="fill:none;stroke:#000000;stroke-width:1;stroke-linecap:butt;stroke-linejoin:miter;stroke-miterlimit:10;stroke-dasharray:none;stroke-opacity:1"
       transform="matrix(0.95852527,0,0,0.95852527,0.47926264,0.47926264)"
       clip-path="url(#clipPath53)" />
    <path
       id="path54"
       d="m 812.13,351 7,-3.5 -1.75,3.5 1.75,3.5 z"
       style="fill:#000000;fill-opacity:1;fill-rule:nonzero;stroke:#000000;stroke-width:1;stroke-linecap:butt;stroke-linejoin:miter;stroke-miterlimit:10;stroke-dasharray:none;stroke-opacity:1"
       transform="matrix(0.95852527,0,0,0.95852527,0.47926264,0.47926264)"
       clip-path="url(#clipPath55)" />
    <path
       id="path56"
       d="M 871.01001,301 H 1051.01 V 401 H 871.01001 Z"
       style="fill:#fff2cc;fill-opacity:1;fill-rule:nonzero;stroke:#d6b656;stroke-width:1;stroke-linecap:butt;stroke-linejoin:miter;stroke-miterlimit:10;stroke-dasharray:none;stroke-opacity:1"
       transform="matrix(0.95852527,0,0,0.95852527,0.47926264,0.47926264)"
       clip-path="url(#clipPath57)" />
    <text
       id="text57"
       xml:space="preserve"
       transform="matrix(0.95853487,0,0,0.95853487,867.24941,343.15548)"
       clip-path="url(#clipPath58)"><tspan
         style="font-variant:normal;font-weight:700;font-size:22px;font-family:Helvetica;writing-mode:lr-tb;fill:#000000;fill-opacity:1;fill-rule:nonzero;stroke:none"
         x="0 14.673828 31.786133 47.673828 61.112305 80.673828 86.786133 100.22461"
         y="0"
         sodipodi:role="line"
         id="tspan57">PGAdmin4</tspan></text>
  </g>
</svg>
