<?xml version="1.0" encoding="UTF-8" standalone="no"?>
<!-- Created with Inkscape (http://www.inkscape.org/) -->

<svg
   version="1.1"
   id="svg1"
   width="684.15997"
   height="330.56"
   viewBox="0 0 684.15997 330.56"
   sodipodi:docname="sql-12.pdf"
   xmlns:inkscape="http://www.inkscape.org/namespaces/inkscape"
   xmlns:sodipodi="http://sodipodi.sourceforge.net/DTD/sodipodi-0.dtd"
   xmlns="http://www.w3.org/2000/svg"
   xmlns:svg="http://www.w3.org/2000/svg">
  <defs
     id="defs1">
    <clipPath
       clipPathUnits="userSpaceOnUse"
       id="clipPath2">
      <path
         d="M 0,0 H 2137.5 V 1032.8256 H 0 Z"
         transform="scale(0.3340351)"
         clip-rule="evenodd"
         id="path2" />
    </clipPath>
    <clipPath
       clipPathUnits="userSpaceOnUse"
       id="clipPath4">
      <path
         d="M 0,0 H 2137.5 V 1029.8319 H 0 Z"
         transform="matrix(0.3340351,0,0,0.3340351,-0.49999999,-0.49999999)"
         clip-rule="evenodd"
         id="path4" />
    </clipPath>
    <clipPath
       clipPathUnits="userSpaceOnUse"
       id="clipPath5">
      <path
         d="M 0,0 H 2137.5 V 1029.8319 H 0 Z"
         transform="matrix(0.33403175,0,0,0.33403175,-244.10938,-28)"
         clip-rule="evenodd"
         id="path5" />
    </clipPath>
    <clipPath
       clipPathUnits="userSpaceOnUse"
       id="clipPath7">
      <path
         d="M 0,0 H 2137.5 V 1029.8319 H 0 Z"
         transform="matrix(0.3340351,0,0,0.3340351,-0.49999999,-0.49999999)"
         clip-rule="evenodd"
         id="path7" />
    </clipPath>
    <clipPath
       clipPathUnits="userSpaceOnUse"
       id="clipPath9">
      <path
         d="M 0,0 H 2137.5 V 1029.8319 H 0 Z"
         transform="matrix(0.3340351,0,0,0.3340351,-0.49999999,-0.49999999)"
         clip-rule="evenodd"
         id="path9" />
    </clipPath>
    <clipPath
       clipPathUnits="userSpaceOnUse"
       id="clipPath11">
      <path
         d="M 0,0 H 2137.5 V 1029.8319 H 0 Z"
         transform="matrix(0.3340351,0,0,0.3340351,-0.49999999,-0.49999999)"
         clip-rule="evenodd"
         id="path11" />
    </clipPath>
    <clipPath
       clipPathUnits="userSpaceOnUse"
       id="clipPath12">
      <path
         d="M 0,0 H 2137.5 V 1029.8319 H 0 Z"
         transform="matrix(0.33403175,0,0,0.33403175,-200.10938,-81)"
         clip-rule="evenodd"
         id="path12" />
    </clipPath>
    <clipPath
       clipPathUnits="userSpaceOnUse"
       id="clipPath14">
      <path
         d="M 0,0 H 2137.5 V 1029.8319 H 0 Z"
         transform="matrix(0.3340351,0,0,0.3340351,-0.49999999,-0.49999999)"
         clip-rule="evenodd"
         id="path14" />
    </clipPath>
    <clipPath
       clipPathUnits="userSpaceOnUse"
       id="clipPath15">
      <path
         d="M 0,0 H 2137.5 V 1029.8319 H 0 Z"
         transform="matrix(0.33403175,0,0,0.33403175,-463.0625,-81)"
         clip-rule="evenodd"
         id="path15" />
    </clipPath>
    <clipPath
       clipPathUnits="userSpaceOnUse"
       id="clipPath16">
      <path
         d="M 0,0 H 2137.5 V 1029.8319 H 0 Z"
         transform="matrix(0.33403175,0,0,0.33403175,-607.125,-81)"
         clip-rule="evenodd"
         id="path16" />
    </clipPath>
    <clipPath
       clipPathUnits="userSpaceOnUse"
       id="clipPath18">
      <path
         d="M 0,0 H 2137.5 V 1029.8319 H 0 Z"
         transform="matrix(0.3340351,0,0,0.3340351,-0.49999999,-0.49999999)"
         clip-rule="evenodd"
         id="path18" />
    </clipPath>
    <clipPath
       clipPathUnits="userSpaceOnUse"
       id="clipPath20">
      <path
         d="M 0,0 H 2137.5 V 1029.8319 H 0 Z"
         transform="matrix(0.3340351,0,0,0.3340351,-0.49999999,-0.49999999)"
         clip-rule="evenodd"
         id="path20" />
    </clipPath>
    <clipPath
       clipPathUnits="userSpaceOnUse"
       id="clipPath22">
      <path
         d="M 0,0 H 2137.5 V 1029.8319 H 0 Z"
         transform="matrix(0.3340351,0,0,0.3340351,-0.49999999,-0.49999999)"
         clip-rule="evenodd"
         id="path22" />
    </clipPath>
    <clipPath
       clipPathUnits="userSpaceOnUse"
       id="clipPath23">
      <path
         d="M 0,0 H 2137.5 V 1029.8319 H 0 Z"
         transform="matrix(0.33403175,0,0,0.33403175,-196.95313,-131)"
         clip-rule="evenodd"
         id="path23" />
    </clipPath>
    <clipPath
       clipPathUnits="userSpaceOnUse"
       id="clipPath24">
      <path
         d="M 0,0 H 2137.5 V 1029.8319 H 0 Z"
         transform="matrix(0.33403175,0,0,0.33403175,-219.1875,-151)"
         clip-rule="evenodd"
         id="path24" />
    </clipPath>
    <clipPath
       clipPathUnits="userSpaceOnUse"
       id="clipPath26">
      <path
         d="M 0,0 H 2137.5 V 1029.8319 H 0 Z"
         transform="matrix(0.3340351,0,0,0.3340351,-0.49999999,-0.49999999)"
         clip-rule="evenodd"
         id="path26" />
    </clipPath>
    <clipPath
       clipPathUnits="userSpaceOnUse"
       id="clipPath27">
      <path
         d="M 0,0 H 2137.5 V 1029.8319 H 0 Z"
         transform="matrix(0.33403175,0,0,0.33403175,-457.29688,-140.99999)"
         clip-rule="evenodd"
         id="path27" />
    </clipPath>
    <clipPath
       clipPathUnits="userSpaceOnUse"
       id="clipPath28">
      <path
         d="M 0,0 H 2137.5 V 1029.8319 H 0 Z"
         transform="matrix(0.33403175,0,0,0.33403175,-601.35938,-140.99999)"
         clip-rule="evenodd"
         id="path28" />
    </clipPath>
    <clipPath
       clipPathUnits="userSpaceOnUse"
       id="clipPath30">
      <path
         d="M 0,0 H 2137.5 V 1029.8319 H 0 Z"
         transform="matrix(0.3340351,0,0,0.3340351,-0.49999999,-0.49999999)"
         clip-rule="evenodd"
         id="path30" />
    </clipPath>
    <clipPath
       clipPathUnits="userSpaceOnUse"
       id="clipPath32">
      <path
         d="M 0,0 H 2137.5 V 1029.8319 H 0 Z"
         transform="matrix(0.3340351,0,0,0.3340351,-0.49999999,-0.49999999)"
         clip-rule="evenodd"
         id="path32" />
    </clipPath>
    <clipPath
       clipPathUnits="userSpaceOnUse"
       id="clipPath34">
      <path
         d="M 0,0 H 2137.5 V 1029.8319 H 0 Z"
         transform="matrix(0.3340351,0,0,0.3340351,-0.49999999,-0.49999999)"
         clip-rule="evenodd"
         id="path34" />
    </clipPath>
    <clipPath
       clipPathUnits="userSpaceOnUse"
       id="clipPath35">
      <path
         d="M 0,0 H 2137.5 V 1029.8319 H 0 Z"
         transform="matrix(0.33403175,0,0,0.33403175,-196.95313,-187)"
         clip-rule="evenodd"
         id="path35" />
    </clipPath>
    <clipPath
       clipPathUnits="userSpaceOnUse"
       id="clipPath36">
      <path
         d="M 0,0 H 2137.5 V 1029.8319 H 0 Z"
         transform="matrix(0.33403175,0,0,0.33403175,-193.42187,-206)"
         clip-rule="evenodd"
         id="path36" />
    </clipPath>
    <clipPath
       clipPathUnits="userSpaceOnUse"
       id="clipPath37">
      <path
         d="M 0,0 H 2137.5 V 1029.8319 H 0 Z"
         transform="matrix(0.33403175,0,0,0.33403175,-199.1875,-226)"
         clip-rule="evenodd"
         id="path37" />
    </clipPath>
    <clipPath
       clipPathUnits="userSpaceOnUse"
       id="clipPath38">
      <path
         d="M 0,0 H 2137.5 V 1029.8319 H 0 Z"
         transform="matrix(0.33403175,0,0,0.33403175,-248.07812,-245)"
         clip-rule="evenodd"
         id="path38" />
    </clipPath>
    <clipPath
       clipPathUnits="userSpaceOnUse"
       id="clipPath40">
      <path
         d="M 0,0 H 2137.5 V 1029.8319 H 0 Z"
         transform="matrix(0.3340351,0,0,0.3340351,-0.49999999,-0.49999999)"
         clip-rule="evenodd"
         id="path40" />
    </clipPath>
    <clipPath
       clipPathUnits="userSpaceOnUse"
       id="clipPath41">
      <path
         d="M 0,0 H 2137.5 V 1029.8319 H 0 Z"
         transform="matrix(0.33403175,0,0,0.33403175,-452.84375,-216)"
         clip-rule="evenodd"
         id="path41" />
    </clipPath>
    <clipPath
       clipPathUnits="userSpaceOnUse"
       id="clipPath42">
      <path
         d="M 0,0 H 2137.5 V 1029.8319 H 0 Z"
         transform="matrix(0.33403175,0,0,0.33403175,-596.90625,-216)"
         clip-rule="evenodd"
         id="path42" />
    </clipPath>
    <clipPath
       clipPathUnits="userSpaceOnUse"
       id="clipPath44">
      <path
         d="M 0,0 H 2137.5 V 1029.8319 H 0 Z"
         transform="matrix(0.3340351,0,0,0.3340351,-0.49999999,-0.49999999)"
         clip-rule="evenodd"
         id="path44" />
    </clipPath>
    <clipPath
       clipPathUnits="userSpaceOnUse"
       id="clipPath46">
      <path
         d="M 0,0 H 2137.5 V 1029.8319 H 0 Z"
         transform="matrix(0.3340351,0,0,0.3340351,-0.49999999,-0.49999999)"
         clip-rule="evenodd"
         id="path46" />
    </clipPath>
    <clipPath
       clipPathUnits="userSpaceOnUse"
       id="clipPath48">
      <path
         d="M 0,0 H 2137.5 V 1029.8319 H 0 Z"
         transform="matrix(0.3340351,0,0,0.3340351,-0.49999999,-0.49999999)"
         clip-rule="evenodd"
         id="path48" />
    </clipPath>
    <clipPath
       clipPathUnits="userSpaceOnUse"
       id="clipPath49">
      <path
         d="M 0,0 H 2137.5 V 1029.8319 H 0 Z"
         transform="matrix(0.33403175,0,0,0.33403175,-196.95313,-277)"
         clip-rule="evenodd"
         id="path49" />
    </clipPath>
    <clipPath
       clipPathUnits="userSpaceOnUse"
       id="clipPath50">
      <path
         d="M 0,0 H 2137.5 V 1029.8319 H 0 Z"
         transform="matrix(0.33403175,0,0,0.33403175,-195.64063,-296)"
         clip-rule="evenodd"
         id="path50" />
    </clipPath>
    <clipPath
       clipPathUnits="userSpaceOnUse"
       id="clipPath51">
      <path
         d="M 0,0 H 2137.5 V 1029.8319 H 0 Z"
         transform="matrix(0.33403175,0,0,0.33403175,-198.17188,-316)"
         clip-rule="evenodd"
         id="path51" />
    </clipPath>
    <clipPath
       clipPathUnits="userSpaceOnUse"
       id="clipPath52">
      <path
         d="M 0,0 H 2137.5 V 1029.8319 H 0 Z"
         transform="matrix(0.33403175,0,0,0.33403175,-224.53124,-335)"
         clip-rule="evenodd"
         id="path52" />
    </clipPath>
    <clipPath
       clipPathUnits="userSpaceOnUse"
       id="clipPath54">
      <path
         d="M 0,0 H 2137.5 V 1029.8319 H 0 Z"
         transform="matrix(0.3340351,0,0,0.3340351,-0.49999999,-0.49999999)"
         clip-rule="evenodd"
         id="path54" />
    </clipPath>
    <clipPath
       clipPathUnits="userSpaceOnUse"
       id="clipPath55">
      <path
         d="M 0,0 H 2137.5 V 1029.8319 H 0 Z"
         transform="matrix(0.33403175,0,0,0.33403175,-419.95312,-305.99999)"
         clip-rule="evenodd"
         id="path55" />
    </clipPath>
    <clipPath
       clipPathUnits="userSpaceOnUse"
       id="clipPath56">
      <path
         d="M 0,0 H 2137.5 V 1029.8319 H 0 Z"
         transform="matrix(0.33403175,0,0,0.33403175,-564.01563,-305.99999)"
         clip-rule="evenodd"
         id="path56" />
    </clipPath>
    <clipPath
       clipPathUnits="userSpaceOnUse"
       id="clipPath58">
      <path
         d="M 0,0 H 2137.5 V 1029.8319 H 0 Z"
         transform="matrix(0.3340351,0,0,0.3340351,-0.49999999,-0.49999999)"
         clip-rule="evenodd"
         id="path58" />
    </clipPath>
    <clipPath
       clipPathUnits="userSpaceOnUse"
       id="clipPath60">
      <path
         d="M 0,0 H 2137.5 V 1029.8319 H 0 Z"
         transform="matrix(0.3340351,0,0,0.3340351,-0.49999999,-0.49999999)"
         clip-rule="evenodd"
         id="path60" />
    </clipPath>
    <clipPath
       clipPathUnits="userSpaceOnUse"
       id="clipPath62">
      <path
         d="M 0,0 H 2137.5 V 1029.8319 H 0 Z"
         transform="matrix(0.3340351,0,0,0.3340351,-0.49999999,-0.49999999)"
         clip-rule="evenodd"
         id="path62" />
    </clipPath>
    <clipPath
       clipPathUnits="userSpaceOnUse"
       id="clipPath63">
      <path
         d="M 0,0 H 2137.5 V 1029.8319 H 0 Z"
         transform="matrix(0.33403175,0,0,0.33403175,-10.84375,-197)"
         clip-rule="evenodd"
         id="path63" />
    </clipPath>
    <clipPath
       clipPathUnits="userSpaceOnUse"
       id="clipPath64">
      <path
         d="M 0,0 H 2137.5 V 1029.8319 H 0 Z"
         transform="matrix(0.33403175,0,0,0.33403175,-26.859375,-216)"
         clip-rule="evenodd"
         id="path64" />
    </clipPath>
    <clipPath
       clipPathUnits="userSpaceOnUse"
       id="clipPath65">
      <path
         d="M 0,0 H 2137.5 V 1029.8319 H 0 Z"
         transform="matrix(0.33403175,0,0,0.33403175,-44.1875,-235)"
         clip-rule="evenodd"
         id="path65" />
    </clipPath>
    <clipPath
       clipPathUnits="userSpaceOnUse"
       id="clipPath67">
      <path
         d="M 0,0 H 2137.5 V 1029.8319 H 0 Z"
         transform="matrix(0.3340351,0,0,0.3340351,-0.49999999,-0.49999999)"
         clip-rule="evenodd"
         id="path67" />
    </clipPath>
    <clipPath
       clipPathUnits="userSpaceOnUse"
       id="clipPath69">
      <path
         d="M 0,0 H 2137.5 V 1029.8319 H 0 Z"
         transform="matrix(0.3340351,0,0,0.3340351,-0.49999999,-0.49999999)"
         clip-rule="evenodd"
         id="path69" />
    </clipPath>
    <clipPath
       clipPathUnits="userSpaceOnUse"
       id="clipPath71">
      <path
         d="M 0,0 H 2137.5 V 1029.8319 H 0 Z"
         transform="matrix(0.3340351,0,0,0.3340351,-0.49999999,-0.49999999)"
         clip-rule="evenodd"
         id="path71" />
    </clipPath>
    <clipPath
       clipPathUnits="userSpaceOnUse"
       id="clipPath72">
      <path
         d="M 0,0 H 2137.5 V 1029.8319 H 0 Z"
         transform="matrix(0.33403175,0,0,0.33403175,-6.40625,-277)"
         clip-rule="evenodd"
         id="path72" />
    </clipPath>
    <clipPath
       clipPathUnits="userSpaceOnUse"
       id="clipPath73">
      <path
         d="M 0,0 H 2137.5 V 1029.8319 H 0 Z"
         transform="matrix(0.33403175,0,0,0.33403175,-2.84375,-296)"
         clip-rule="evenodd"
         id="path73" />
    </clipPath>
    <clipPath
       clipPathUnits="userSpaceOnUse"
       id="clipPath74">
      <path
         d="M 0,0 H 2137.5 V 1029.8319 H 0 Z"
         transform="matrix(0.33403175,0,0,0.33403175,-2.84375,-316)"
         clip-rule="evenodd"
         id="path74" />
    </clipPath>
    <clipPath
       clipPathUnits="userSpaceOnUse"
       id="clipPath75">
      <path
         d="M 0,0 H 2137.5 V 1029.8319 H 0 Z"
         transform="matrix(0.33403175,0,0,0.33403175,-74.875,-335)"
         clip-rule="evenodd"
         id="path75" />
    </clipPath>
  </defs>
  <sodipodi:namedview
     id="namedview1"
     pagecolor="#ffffff"
     bordercolor="#000000"
     borderopacity="0.25"
     inkscape:showpageshadow="2"
     inkscape:pageopacity="0.0"
     inkscape:pagecheckerboard="0"
     inkscape:deskcolor="#d1d1d1">
    <inkscape:page
       x="0"
       y="0"
       inkscape:label="1"
       id="page1"
       width="684.15997"
       height="330.56"
       margin="0"
       bleed="0" />
  </sodipodi:namedview>
  <g
     id="g1"
     inkscape:groupmode="layer"
     inkscape:label="1">
    <path
       id="path1"
       d="M 0,0 H 714 V 345 H 0 Z"
       style="fill:#ffffff;fill-opacity:1;fill-rule:nonzero;stroke:none"
       transform="scale(0.95798313)"
       clip-path="url(#clipPath2)" />
    <path
       id="path3"
       d="M 1,1 H 711.01001 V 41 H 1 Z"
       style="fill:#dae8fc;fill-opacity:1;fill-rule:nonzero;stroke:#6c8ebf;stroke-width:1;stroke-linecap:butt;stroke-linejoin:miter;stroke-miterlimit:10;stroke-dasharray:none;stroke-opacity:1"
       transform="matrix(0.95798313,0,0,0.95798313,0.47899156,0.47899156)"
       clip-path="url(#clipPath4)" />
    <text
       id="text4"
       xml:space="preserve"
       transform="matrix(0.95799273,0,0,0.95799273,233.85501,26.823796)"
       clip-path="url(#clipPath5)"><tspan
         style="font-variant:normal;font-weight:700;font-size:18px;font-family:Helvetica;writing-mode:lr-tb;fill:#000000;fill-opacity:1;fill-rule:nonzero;stroke:none"
         x="0 12.999023 23.994141 39.999023 50.009766 57.014648 62.015625 72.026367 77.027344 86.695312 96.706055 107.70117 117.71191 127.72266 132.72363 143.71875 153.72949 163.74023 169.73438 174.73535 187.73438 198.72949 203.73047 213.74121"
         y="0"
         sodipodi:role="line"
         id="tspan4">Numeric Types Fast Rules</tspan></text>
    <path
       id="path6"
       d="m 371,76 h 20 -10 13.64001"
       style="fill:none;stroke:#000000;stroke-width:1;stroke-linecap:butt;stroke-linejoin:miter;stroke-miterlimit:10;stroke-dasharray:none;stroke-opacity:1"
       transform="matrix(0.95798313,0,0,0.95798313,0.47899156,0.47899156)"
       clip-path="url(#clipPath7)" />
    <path
       id="path8"
       d="m 399.89001,76 -7,3.5 1.75,-3.5 -1.75,-3.5 z"
       style="fill:#000000;fill-opacity:1;fill-rule:nonzero;stroke:#000000;stroke-width:1;stroke-linecap:butt;stroke-linejoin:miter;stroke-miterlimit:10;stroke-dasharray:none;stroke-opacity:1"
       transform="matrix(0.95798313,0,0,0.95798313,0.47899156,0.47899156)"
       clip-path="url(#clipPath9)" />
    <path
       id="path10"
       d="m 191,51 h 180 v 50 H 191 Z"
       style="fill:#ffffff;fill-opacity:1;fill-rule:nonzero;stroke:#000000;stroke-width:1;stroke-linecap:butt;stroke-linejoin:miter;stroke-miterlimit:10;stroke-dasharray:none;stroke-opacity:1"
       transform="matrix(0.95798313,0,0,0.95798313,0.47899156,0.47899156)"
       clip-path="url(#clipPath11)" />
    <text
       id="text11"
       xml:space="preserve"
       transform="matrix(0.95799273,0,0,0.95799273,191.70333,77.597411)"
       clip-path="url(#clipPath12)"><tspan
         style="font-variant:normal;font-weight:normal;font-size:16px;font-family:Helvetica;writing-mode:lr-tb;fill:#000000;fill-opacity:1;fill-rule:nonzero;stroke:none"
         x="0 3.0546875 6.609375 15.507812 18.5625 23.007812 31.007812 39.90625 43.460938 52.359375 65.6875 74.585938 79.03125 87.929688 92.375 96.820312 105.71875 114.61719 122.61719 127.0625 131.50781 140.40625 149.30469 152.85938"
         y="0"
         sodipodi:role="line"
         id="tspan11">'id' column of any table</tspan></text>
    <path
       id="path13"
       d="m 401,51 h 310 v 50 H 401 Z"
       style="fill:#ffffff;fill-opacity:1;fill-rule:nonzero;stroke:#000000;stroke-width:1;stroke-linecap:butt;stroke-linejoin:miter;stroke-miterlimit:10;stroke-dasharray:none;stroke-opacity:1"
       transform="matrix(0.95798313,0,0,0.95798313,0.47899156,0.47899156)"
       clip-path="url(#clipPath14)" />
    <text
       id="text14"
       xml:space="preserve"
       transform="matrix(0.95799273,0,0,0.95799273,443.61051,77.597411)"
       clip-path="url(#clipPath15)"><tspan
         style="font-variant:normal;font-weight:normal;font-size:16px;font-family:Helvetica;writing-mode:lr-tb;fill:#000000;fill-opacity:1;fill-rule:nonzero;stroke:none"
         x="0 13.328125 22.226562 27.554688 35.554688 40 44.445312 53.34375 62.242188 66.6875 74.6875 83.585938 87.140625 96.039062 109.36719 118.26562 122.71094 131.60938 139.60938"
         y="0"
         sodipodi:role="line"
         id="tspan14">Mark the column as </tspan></text>
    <text
       id="text15"
       xml:space="preserve"
       transform="matrix(0.95799273,0,0,0.95799273,581.62134,77.597411)"
       clip-path="url(#clipPath16)"><tspan
         style="font-variant:normal;font-weight:700;font-size:16px;font-family:Helvetica;writing-mode:lr-tb;fill:#000000;fill-opacity:1;fill-rule:nonzero;stroke:none"
         x="0 8.8984375 17.796875 24.023438 28.46875 37.367188"
         y="0"
         sodipodi:role="line"
         id="tspan15">serial</tspan></text>
    <path
       id="path17"
       d="m 371,136 h 20 -10 13.64001"
       style="fill:none;stroke:#000000;stroke-width:1;stroke-linecap:butt;stroke-linejoin:miter;stroke-miterlimit:10;stroke-dasharray:none;stroke-opacity:1"
       transform="matrix(0.95798313,0,0,0.95798313,0.47899156,0.47899156)"
       clip-path="url(#clipPath18)" />
    <path
       id="path19"
       d="m 399.89001,136 -7,3.5 1.75,-3.5 -1.75,-3.5 z"
       style="fill:#000000;fill-opacity:1;fill-rule:nonzero;stroke:#000000;stroke-width:1;stroke-linecap:butt;stroke-linejoin:miter;stroke-miterlimit:10;stroke-dasharray:none;stroke-opacity:1"
       transform="matrix(0.95798313,0,0,0.95798313,0.47899156,0.47899156)"
       clip-path="url(#clipPath20)" />
    <path
       id="path21"
       d="m 191,111 h 180 v 50 H 191 Z"
       style="fill:#ffffff;fill-opacity:1;fill-rule:nonzero;stroke:#000000;stroke-width:1;stroke-linecap:butt;stroke-linejoin:miter;stroke-miterlimit:10;stroke-dasharray:none;stroke-opacity:1"
       transform="matrix(0.95798313,0,0,0.95798313,0.47899156,0.47899156)"
       clip-path="url(#clipPath22)" />
    <text
       id="text22"
       xml:space="preserve"
       transform="matrix(0.95799273,0,0,0.95799273,188.67967,125.49705)"
       clip-path="url(#clipPath23)"><tspan
         style="font-variant:normal;font-weight:normal;font-size:16px;font-family:Helvetica;writing-mode:lr-tb;fill:#000000;fill-opacity:1;fill-rule:nonzero;stroke:none"
         x="0 11.554688 20.453125 29.351562 38.25 42.695312 47.140625 56.039062 60.484375 68.484375 72.929688 81.828125 87.15625 96.054688 100.5 109.39844 113.84375 122.74219 131.64062 144.96875 153.86719 162.76562"
         y="0"
         sodipodi:role="line"
         id="tspan22">Need to store a number</tspan></text>
    <text
       id="text23"
       xml:space="preserve"
       transform="matrix(0.95799273,0,0,0.95799273,209.98003,144.6569)"
       clip-path="url(#clipPath24)"><tspan
         style="font-variant:normal;font-weight:normal;font-size:16px;font-family:Helvetica;writing-mode:lr-tb;fill:#000000;fill-opacity:1;fill-rule:nonzero;stroke:none"
         x="0 11.554688 15.109375 19.554688 28.453125 37.351562 46.25 50.695312 55.140625 64.039062 68.484375 77.382812 86.28125 94.28125 97.835938 111.16406 120.0625"
         y="0"
         sodipodi:role="line"
         id="tspan23">without a decimal</tspan></text>
    <path
       id="path25"
       d="m 401,111 h 310 v 50 H 401 Z"
       style="fill:#ffffff;fill-opacity:1;fill-rule:nonzero;stroke:#000000;stroke-width:1;stroke-linecap:butt;stroke-linejoin:miter;stroke-miterlimit:10;stroke-dasharray:none;stroke-opacity:1"
       transform="matrix(0.95798313,0,0,0.95798313,0.47899156,0.47899156)"
       clip-path="url(#clipPath26)" />
    <text
       id="text26"
       xml:space="preserve"
       transform="matrix(0.95799273,0,0,0.95799273,438.08709,135.07697)"
       clip-path="url(#clipPath27)"><tspan
         style="font-variant:normal;font-weight:normal;font-size:16px;font-family:Helvetica;writing-mode:lr-tb;fill:#000000;fill-opacity:1;fill-rule:nonzero;stroke:none"
         x="0 13.328125 22.226562 27.554688 35.554688 40 44.445312 53.34375 62.242188 66.6875 74.6875 83.585938 87.140625 96.039062 109.36719 118.26562 122.71094 131.60938 139.60938"
         y="0"
         sodipodi:role="line"
         id="tspan26">Mark the column as </tspan></text>
    <text
       id="text27"
       xml:space="preserve"
       transform="matrix(0.95799273,0,0,0.95799273,576.09791,135.07697)"
       clip-path="url(#clipPath28)"><tspan
         style="font-variant:normal;font-weight:700;font-size:16px;font-family:Helvetica;writing-mode:lr-tb;fill:#000000;fill-opacity:1;fill-rule:nonzero;stroke:none"
         x="0 4.4453125 14.21875 19.546875 28.445312 38.21875 47.117188"
         y="0"
         sodipodi:role="line"
         id="tspan27">integer</tspan></text>
    <path
       id="path29"
       d="m 371,211 h 20 -10 13.64001"
       style="fill:none;stroke:#000000;stroke-width:1;stroke-linecap:butt;stroke-linejoin:miter;stroke-miterlimit:10;stroke-dasharray:none;stroke-opacity:1"
       transform="matrix(0.95798313,0,0,0.95798313,0.47899156,0.47899156)"
       clip-path="url(#clipPath30)" />
    <path
       id="path31"
       d="m 399.89001,211 -7,3.5 1.75,-3.5 -1.75,-3.5 z"
       style="fill:#000000;fill-opacity:1;fill-rule:nonzero;stroke:#000000;stroke-width:1;stroke-linecap:butt;stroke-linejoin:miter;stroke-miterlimit:10;stroke-dasharray:none;stroke-opacity:1"
       transform="matrix(0.95798313,0,0,0.95798313,0.47899156,0.47899156)"
       clip-path="url(#clipPath32)" />
    <path
       id="path33"
       d="m 191,171 h 180 v 80 H 191 Z"
       style="fill:#ffffff;fill-opacity:1;fill-rule:nonzero;stroke:#000000;stroke-width:1;stroke-linecap:butt;stroke-linejoin:miter;stroke-miterlimit:10;stroke-dasharray:none;stroke-opacity:1"
       transform="matrix(0.95798313,0,0,0.95798313,0.47899156,0.47899156)"
       clip-path="url(#clipPath34)" />
    <text
       id="text34"
       xml:space="preserve"
       transform="matrix(0.95799273,0,0,0.95799273,188.67967,179.14464)"
       clip-path="url(#clipPath35)"><tspan
         style="font-variant:normal;font-weight:normal;font-size:16px;font-family:Helvetica;writing-mode:lr-tb;fill:#000000;fill-opacity:1;fill-rule:nonzero;stroke:none"
         x="0 11.554688 20.453125 29.351562 38.25 42.695312 47.140625 56.039062 60.484375 68.484375 72.929688 81.828125 87.15625 96.054688 100.5 109.39844 113.84375 122.74219 131.64062 144.96875 153.86719 162.76562"
         y="0"
         sodipodi:role="line"
         id="tspan34">Need to store a number</tspan></text>
    <text
       id="text35"
       xml:space="preserve"
       transform="matrix(0.95799273,0,0,0.95799273,185.29675,197.3465)"
       clip-path="url(#clipPath36)"><tspan
         style="font-variant:normal;font-weight:700;font-size:16px;font-family:Helvetica;writing-mode:lr-tb;fill:#000000;fill-opacity:1;fill-rule:nonzero;stroke:none"
         x="0 12.445312 16.890625 22.21875 31.992188 36.4375 45.335938 49.78125 59.554688 68.453125 77.351562 81.796875 96.023438 104.92188 109.36719 113.8125 122.71094 132.48438 142.25781 146.70312 152.03125 161.80469 166.25"
         y="0"
         sodipodi:role="line"
         id="tspan35">with a decimal and this</tspan></text>
    <text
       id="text36"
       xml:space="preserve"
       transform="matrix(0.95799273,0,0,0.95799273,190.82018,216.50636)"
       clip-path="url(#clipPath37)"><tspan
         style="font-variant:normal;font-weight:700;font-size:16px;font-family:Helvetica;writing-mode:lr-tb;fill:#000000;fill-opacity:1;fill-rule:nonzero;stroke:none"
         x="0 9.7734375 18.671875 24 32.898438 37.34375 47.117188 56.015625 64.914062 74.6875 83.585938 88.03125 93.359375 103.13281 107.57812 117.35156 126.25 130.69531 139.59375 148.49219 154.71875"
         y="0"
         sodipodi:role="line"
         id="tspan36">data needs to be very</tspan></text>
    <text
       id="text37"
       xml:space="preserve"
       transform="matrix(0.95799273,0,0,0.95799273,237.65704,234.70822)"
       clip-path="url(#clipPath38)"><tspan
         style="font-variant:normal;font-weight:700;font-size:16px;font-family:Helvetica;writing-mode:lr-tb;fill:#000000;fill-opacity:1;fill-rule:nonzero;stroke:none"
         x="0 8.8984375 17.796875 26.695312 36.46875 42.695312 51.59375 56.921875"
         y="0"
         sodipodi:role="line"
         id="tspan37">accurate</tspan></text>
    <path
       id="path39"
       d="m 401,171 h 310 v 80 H 401 Z"
       style="fill:#ffffff;fill-opacity:1;fill-rule:nonzero;stroke:#000000;stroke-width:1;stroke-linecap:butt;stroke-linejoin:miter;stroke-miterlimit:10;stroke-dasharray:none;stroke-opacity:1"
       transform="matrix(0.95798313,0,0,0.95798313,0.47899156,0.47899156)"
       clip-path="url(#clipPath40)" />
    <text
       id="text40"
       xml:space="preserve"
       transform="matrix(0.95799273,0,0,0.95799273,433.82102,206.92643)"
       clip-path="url(#clipPath41)"><tspan
         style="font-variant:normal;font-weight:normal;font-size:16px;font-family:Helvetica;writing-mode:lr-tb;fill:#000000;fill-opacity:1;fill-rule:nonzero;stroke:none"
         x="0 13.328125 22.226562 27.554688 35.554688 40 44.445312 53.34375 62.242188 66.6875 74.6875 83.585938 87.140625 96.039062 109.36719 118.26562 122.71094 131.60938 139.60938"
         y="0"
         sodipodi:role="line"
         id="tspan40">Mark the column as </tspan></text>
    <text
       id="text41"
       xml:space="preserve"
       transform="matrix(0.95799273,0,0,0.95799273,571.83185,206.92643)"
       clip-path="url(#clipPath42)"><tspan
         style="font-variant:normal;font-weight:700;font-size:16px;font-family:Helvetica;writing-mode:lr-tb;fill:#000000;fill-opacity:1;fill-rule:nonzero;stroke:none"
         x="0 9.7734375 19.546875 33.773438 42.671875 48.898438 53.34375"
         y="0"
         sodipodi:role="line"
         id="tspan41">numeric</tspan></text>
    <path
       id="path43"
       d="m 371,301 h 20 -10 13.64001"
       style="fill:none;stroke:#000000;stroke-width:1;stroke-linecap:butt;stroke-linejoin:miter;stroke-miterlimit:10;stroke-dasharray:none;stroke-opacity:1"
       transform="matrix(0.95798313,0,0,0.95798313,0.47899156,0.47899156)"
       clip-path="url(#clipPath44)" />
    <path
       id="path45"
       d="m 399.89001,301 -7,3.5 1.75,-3.5 -1.75,-3.5 z"
       style="fill:#000000;fill-opacity:1;fill-rule:nonzero;stroke:#000000;stroke-width:1;stroke-linecap:butt;stroke-linejoin:miter;stroke-miterlimit:10;stroke-dasharray:none;stroke-opacity:1"
       transform="matrix(0.95798313,0,0,0.95798313,0.47899156,0.47899156)"
       clip-path="url(#clipPath46)" />
    <path
       id="path47"
       d="m 191,261 h 180 v 80 H 191 Z"
       style="fill:#ffffff;fill-opacity:1;fill-rule:nonzero;stroke:#000000;stroke-width:1;stroke-linecap:butt;stroke-linejoin:miter;stroke-miterlimit:10;stroke-dasharray:none;stroke-opacity:1"
       transform="matrix(0.95798313,0,0,0.95798313,0.47899156,0.47899156)"
       clip-path="url(#clipPath48)" />
    <text
       id="text48"
       xml:space="preserve"
       transform="matrix(0.95799273,0,0,0.95799273,188.67967,265.36399)"
       clip-path="url(#clipPath49)"><tspan
         style="font-variant:normal;font-weight:normal;font-size:16px;font-family:Helvetica;writing-mode:lr-tb;fill:#000000;fill-opacity:1;fill-rule:nonzero;stroke:none"
         x="0 11.554688 20.453125 29.351562 38.25 42.695312 47.140625 56.039062 60.484375 68.484375 72.929688 81.828125 87.15625 96.054688 100.5 109.39844 113.84375 122.74219 131.64062 144.96875 153.86719 162.76562"
         y="0"
         sodipodi:role="line"
         id="tspan48">Need to store a number</tspan></text>
    <text
       id="text49"
       xml:space="preserve"
       transform="matrix(0.95799273,0,0,0.95799273,187.4223,283.56585)"
       clip-path="url(#clipPath50)"><tspan
         style="font-variant:normal;font-weight:700;font-size:16px;font-family:Helvetica;writing-mode:lr-tb;fill:#000000;fill-opacity:1;fill-rule:nonzero;stroke:none"
         x="0 12.445312 16.890625 22.21875 31.992188 36.4375 45.335938 49.78125 59.554688 68.453125 77.351562 81.796875 96.023438 104.92188 109.36719 113.8125 122.71094 132.48438 142.25781 146.70312 152.03125 161.80469"
         y="0"
         sodipodi:role="line"
         id="tspan49">with a decimal and the</tspan></text>
    <text
       id="text50"
       xml:space="preserve"
       transform="matrix(0.95799273,0,0,0.95799273,189.84722,302.7257)"
       clip-path="url(#clipPath51)"><tspan
         style="font-variant:normal;font-weight:700;font-size:16px;font-family:Helvetica;writing-mode:lr-tb;fill:#000000;fill-opacity:1;fill-rule:nonzero;stroke:none"
         x="0 9.7734375 18.671875 27.570312 32.015625 46.242188 55.140625 59.585938 64.03125 73.804688 83.578125 92.476562 101.375 111.14844 114.95312 120.28125 124.72656 138.95312 147.85156 156.75"
         y="0"
         sodipodi:role="line"
         id="tspan50">decimal doesn't make</tspan></text>
    <text
       id="text51"
       xml:space="preserve"
       transform="matrix(0.95799273,0,0,0.95799273,215.0993,320.92756)"
       clip-path="url(#clipPath52)"><tspan
         style="font-variant:normal;font-weight:700;font-size:16px;font-family:Helvetica;writing-mode:lr-tb;fill:#000000;fill-opacity:1;fill-rule:nonzero;stroke:none"
         x="0 8.8984375 13.34375 23.117188 27.5625 37.335938 41.78125 51.554688 56 61.328125 70.226562 76.453125 85.351562 95.125 104.02344"
         y="0"
         sodipodi:role="line"
         id="tspan51">a big diference</tspan></text>
    <path
       id="path53"
       d="m 401,261 h 310 v 80 H 401 Z"
       style="fill:#ffffff;fill-opacity:1;fill-rule:nonzero;stroke:#000000;stroke-width:1;stroke-linecap:butt;stroke-linejoin:miter;stroke-miterlimit:10;stroke-dasharray:none;stroke-opacity:1"
       transform="matrix(0.95798313,0,0,0.95798313,0.47899156,0.47899156)"
       clip-path="url(#clipPath54)" />
    <text
       id="text54"
       xml:space="preserve"
       transform="matrix(0.95799273,0,0,0.95799273,402.31204,293.14577)"
       clip-path="url(#clipPath55)"><tspan
         style="font-variant:normal;font-weight:normal;font-size:16px;font-family:Helvetica;writing-mode:lr-tb;fill:#000000;fill-opacity:1;fill-rule:nonzero;stroke:none"
         x="0 13.328125 22.226562 27.554688 35.554688 40 44.445312 53.34375 62.242188 66.6875 74.6875 83.585938 87.140625 96.039062 109.36719 118.26562 122.71094 131.60938 139.60938"
         y="0"
         sodipodi:role="line"
         id="tspan54">Mark the column as </tspan></text>
    <text
       id="text55"
       xml:space="preserve"
       transform="matrix(0.95799273,0,0,0.95799273,540.32287,293.14577)"
       clip-path="url(#clipPath56)"><tspan
         style="font-variant:normal;font-weight:700;font-size:16px;font-family:Helvetica;writing-mode:lr-tb;fill:#000000;fill-opacity:1;fill-rule:nonzero;stroke:none"
         x="0 9.7734375 19.546875 29.320312 39.09375 43.539062 52.4375 56.882812 66.65625 72.882812 81.78125 90.679688 95.125 104.02344 108.46875 118.24219"
         y="0"
         sodipodi:role="line"
         id="tspan55">double precision</tspan></text>
    <path
       id="path57"
       d="m 171,211 h 20 -20 13.63"
       style="fill:none;stroke:#000000;stroke-width:1;stroke-linecap:butt;stroke-linejoin:miter;stroke-miterlimit:10;stroke-dasharray:none;stroke-opacity:1"
       transform="matrix(0.95798313,0,0,0.95798313,0.47899156,0.47899156)"
       clip-path="url(#clipPath58)" />
    <path
       id="path59"
       d="m 189.88,211 -7,3.5 1.75,-3.5 -1.75,-3.5 z"
       style="fill:#000000;fill-opacity:1;fill-rule:nonzero;stroke:#000000;stroke-width:1;stroke-linecap:butt;stroke-linejoin:miter;stroke-miterlimit:10;stroke-dasharray:none;stroke-opacity:1"
       transform="matrix(0.95798313,0,0,0.95798313,0.47899156,0.47899156)"
       clip-path="url(#clipPath60)" />
    <path
       id="path61"
       d="m 1,171 h 170 v 80 H 1 Z"
       style="fill:#ffffff;fill-opacity:1;fill-rule:nonzero;stroke:#000000;stroke-width:1;stroke-linecap:butt;stroke-linejoin:miter;stroke-miterlimit:10;stroke-dasharray:none;stroke-opacity:1"
       transform="matrix(0.95798313,0,0,0.95798313,0.47899156,0.47899156)"
       clip-path="url(#clipPath62)" />
    <text
       id="text62"
       xml:space="preserve"
       transform="matrix(0.95799273,0,0,0.95799273,10.388234,188.72457)"
       clip-path="url(#clipPath63)"><tspan
         style="font-variant:normal;font-weight:normal;font-size:16px;font-family:Helvetica;writing-mode:lr-tb;fill:#000000;fill-opacity:1;fill-rule:nonzero;stroke:none"
         x="0 10.671875 19.570312 28.46875 36.46875 40.914062 49.8125 58.710938 62.265625 71.164062 80.0625 88.0625 96.960938 101.40625 105.85156 114.75 120.07812 128.97656 142.30469"
         y="0"
         sodipodi:role="line"
         id="tspan62">Bank balance, grams</tspan></text>
    <g
       id="g63" />
    <text
       id="text63"
       xml:space="preserve"
       transform="matrix(0.95799273,0,0,0.95799273,25.731086,206.92643)"
       clip-path="url(#clipPath64)"><tspan
         style="font-variant:normal;font-weight:normal;font-size:16px;font-family:Helvetica;writing-mode:lr-tb;fill:#000000;fill-opacity:1;fill-rule:nonzero;stroke:none"
         x="0 8.8984375 13.34375 17.789062 26.6875 35.585938 39.140625 48.039062 52.484375 56.929688 64.929688 72.929688 76.484375 85.382812 94.28125 98.726562 102.28125 110.28125"
         y="0"
         sodipodi:role="line"
         id="tspan63">of gold, scientiﬁc</tspan></text>
    <text
       id="text64"
       xml:space="preserve"
       transform="matrix(0.95799273,0,0,0.95799273,42.331304,225.12829)"
       clip-path="url(#clipPath65)"><tspan
         style="font-variant:normal;font-weight:normal;font-size:16px;font-family:Helvetica;writing-mode:lr-tb;fill:#000000;fill-opacity:1;fill-rule:nonzero;stroke:none"
         x="0 8 16.898438 20.453125 28.453125 37.351562 40.90625 49.804688 54.25 57.804688 66.703125 75.601562"
         y="0"
         sodipodi:role="line"
         id="tspan64">calculations</tspan></text>
    <path
       id="path66"
       d="m 171,301 h 13.63"
       style="fill:none;stroke:#000000;stroke-width:1;stroke-linecap:butt;stroke-linejoin:miter;stroke-miterlimit:10;stroke-dasharray:none;stroke-opacity:1"
       transform="matrix(0.95798313,0,0,0.95798313,0.47899156,0.47899156)"
       clip-path="url(#clipPath67)" />
    <path
       id="path68"
       d="m 189.88,301 -7,3.5 1.75,-3.5 -1.75,-3.5 z"
       style="fill:#000000;fill-opacity:1;fill-rule:nonzero;stroke:#000000;stroke-width:1;stroke-linecap:butt;stroke-linejoin:miter;stroke-miterlimit:10;stroke-dasharray:none;stroke-opacity:1"
       transform="matrix(0.95798313,0,0,0.95798313,0.47899156,0.47899156)"
       clip-path="url(#clipPath69)" />
    <path
       id="path70"
       d="m 1,261 h 170 v 80 H 1 Z"
       style="fill:#ffffff;fill-opacity:1;fill-rule:nonzero;stroke:#000000;stroke-width:1;stroke-linecap:butt;stroke-linejoin:miter;stroke-miterlimit:10;stroke-dasharray:none;stroke-opacity:1"
       transform="matrix(0.95798313,0,0,0.95798313,0.47899156,0.47899156)"
       clip-path="url(#clipPath71)" />
    <text
       id="text71"
       xml:space="preserve"
       transform="matrix(0.95799273,0,0,0.95799273,6.1371409,265.36399)"
       clip-path="url(#clipPath72)"><tspan
         style="font-variant:normal;font-weight:normal;font-size:16px;font-family:Helvetica;writing-mode:lr-tb;fill:#000000;fill-opacity:1;fill-rule:nonzero;stroke:none"
         x="0 10.671875 14.226562 17.78125 26.679688 35.578125 40.90625 49.804688 63.132812 71.132812 75.578125 84.476562 88.921875 93.367188 97.8125 103.14062 112.03906 120.03906 128.9375 133.38281 136.9375 145.83594 150.28125"
         y="0"
         sodipodi:role="line"
         id="tspan71">Kilograms of trash in a</tspan></text>
    <g
       id="g72" />
    <text
       id="text72"
       xml:space="preserve"
       transform="matrix(0.95799273,0,0,0.95799273,2.7242918,283.56585)"
       clip-path="url(#clipPath73)"><tspan
         style="font-variant:normal;font-weight:normal;font-size:16px;font-family:Helvetica;writing-mode:lr-tb;fill:#000000;fill-opacity:1;fill-rule:nonzero;stroke:none"
         x="0 3.5546875 12.453125 21.351562 30.25 38.25 41.804688 45.359375 49.804688 54.25 57.804688 61.359375 65.804688 74.703125 80.03125 88.03125 92.476562 101.375 105.82031 110.26562 121.82031 130.71875 135.16406 144.0625 149.39062 153.83594 157.39062"
         y="0"
         sodipodi:role="line"
         id="tspan72">landﬁll, liters of water in</tspan></text>
    <text
       id="text73"
       xml:space="preserve"
       transform="matrix(0.95799273,0,0,0.95799273,2.7242918,302.7257)"
       clip-path="url(#clipPath74)"><tspan
         style="font-variant:normal;font-weight:normal;font-size:16px;font-family:Helvetica;writing-mode:lr-tb;fill:#000000;fill-opacity:1;fill-rule:nonzero;stroke:none"
         x="0 8.8984375 13.34375 16.898438 25.796875 33.796875 42.695312 47.140625 51.585938 60.484375 64.039062 69.367188 73.8125 82.710938 88.039062 96.9375 104.9375 112.9375 121.83594 127.16406 136.0625 140.50781 144.0625 152.96094 157.40625"
         y="0"
         sodipodi:role="line"
         id="tspan73">a lake, air pressure in a</tspan></text>
    <text
       id="text74"
       xml:space="preserve"
       transform="matrix(0.95799273,0,0,0.95799273,71.729706,320.92756)"
       clip-path="url(#clipPath75)"><tspan
         style="font-variant:normal;font-weight:normal;font-size:16px;font-family:Helvetica;writing-mode:lr-tb;fill:#000000;fill-opacity:1;fill-rule:nonzero;stroke:none"
         x="0 4.4453125 8 13.328125"
         y="0"
         sodipodi:role="line"
         id="tspan74">tire</tspan></text>
  </g>
</svg>
