<?xml version="1.0" encoding="UTF-8" standalone="no"?>
<!-- Created with Inkscape (http://www.inkscape.org/) -->

<svg
   version="1.1"
   id="svg1"
   width="684.15997"
   height="484.16"
   viewBox="0 0 684.15997 484.16"
   sodipodi:docname="sql-4.pdf"
   xmlns:inkscape="http://www.inkscape.org/namespaces/inkscape"
   xmlns:sodipodi="http://sodipodi.sourceforge.net/DTD/sodipodi-0.dtd"
   xmlns="http://www.w3.org/2000/svg"
   xmlns:svg="http://www.w3.org/2000/svg">
  <defs
     id="defs1">
    <clipPath
       clipPathUnits="userSpaceOnUse"
       id="clipPath2">
      <path
         d="M 0,0 H 2137.5 V 1511.8171 H 0 Z"
         transform="scale(0.3340351)"
         clip-rule="evenodd"
         id="path2" />
    </clipPath>
    <clipPath
       clipPathUnits="userSpaceOnUse"
       id="clipPath4">
      <path
         d="M 0,0 H 2137.5 V 1508.8235 H 0 Z"
         transform="matrix(0.3340351,0,0,0.3340351,-0.49999999,-0.49999999)"
         clip-rule="evenodd"
         id="path4" />
    </clipPath>
    <clipPath
       clipPathUnits="userSpaceOnUse"
       id="clipPath5">
      <path
         d="M 0,0 H 2137.5 V 1508.8235 H 0 Z"
         transform="matrix(0.33403175,0,0,0.33403175,-511.98438,-37)"
         clip-rule="evenodd"
         id="path5" />
    </clipPath>
    <clipPath
       clipPathUnits="userSpaceOnUse"
       id="clipPath7">
      <path
         d="M 0,0 H 2137.5 V 1508.8235 H 0 Z"
         transform="matrix(0.3340351,0,0,0.3340351,-0.49999999,-0.49999999)"
         clip-rule="evenodd"
         id="path7" />
    </clipPath>
    <clipPath
       clipPathUnits="userSpaceOnUse"
       id="clipPath8">
      <path
         d="M 0,0 H 2137.5 V 1508.8235 H 0 Z"
         transform="matrix(0.33403175,0,0,0.33403175,-483.5625,-213)"
         clip-rule="evenodd"
         id="path8" />
    </clipPath>
    <clipPath
       clipPathUnits="userSpaceOnUse"
       id="clipPath10">
      <path
         d="M 0,0 H 2137.5 V 1508.8235 H 0 Z"
         transform="scale(0.3340351)"
         clip-rule="evenodd"
         id="path10" />
    </clipPath>
    <clipPath
       clipPathUnits="userSpaceOnUse"
       id="clipPath12">
      <path
         d="M 0,0 H 2137.5 V 1508.8235 H 0 Z"
         transform="scale(0.3340351)"
         clip-rule="evenodd"
         id="path12" />
    </clipPath>
    <clipPath
       clipPathUnits="userSpaceOnUse"
       id="clipPath14">
      <path
         d="M 0,0 H 2137.5 V 1508.8235 H 0 Z"
         transform="matrix(0.3340351,0,0,0.3340351,-0.49999999,-0.49999999)"
         clip-rule="evenodd"
         id="path14" />
    </clipPath>
    <clipPath
       clipPathUnits="userSpaceOnUse"
       id="clipPath15">
      <path
         d="M 0,0 H 2137.5 V 1508.8235 H 0 Z"
         transform="matrix(0.33403175,0,0,0.33403175,-446.54688,-77)"
         clip-rule="evenodd"
         id="path15" />
    </clipPath>
    <clipPath
       clipPathUnits="userSpaceOnUse"
       id="clipPath17">
      <path
         d="M 0,0 H 2137.5 V 1508.8235 H 0 Z"
         transform="matrix(0.3340351,0,0,0.3340351,-0.49999999,-0.49999999)"
         clip-rule="evenodd"
         id="path17" />
    </clipPath>
    <clipPath
       clipPathUnits="userSpaceOnUse"
       id="clipPath18">
      <path
         d="M 0,0 H 2137.5 V 1508.8235 H 0 Z"
         transform="matrix(0.33403175,0,0,0.33403175,-603.89063,-77)"
         clip-rule="evenodd"
         id="path18" />
    </clipPath>
    <clipPath
       clipPathUnits="userSpaceOnUse"
       id="clipPath20">
      <path
         d="M 0,0 H 2137.5 V 1508.8235 H 0 Z"
         transform="scale(0.3340351)"
         clip-rule="evenodd"
         id="path20" />
    </clipPath>
    <clipPath
       clipPathUnits="userSpaceOnUse"
       id="clipPath22">
      <path
         d="M 0,0 H 2137.5 V 1508.8235 H 0 Z"
         transform="scale(0.3340351)"
         clip-rule="evenodd"
         id="path22" />
    </clipPath>
    <clipPath
       clipPathUnits="userSpaceOnUse"
       id="clipPath24">
      <path
         d="M 0,0 H 2137.5 V 1508.8235 H 0 Z"
         transform="matrix(0.3340351,0,0,0.3340351,-0.49999999,-0.49999999)"
         clip-rule="evenodd"
         id="path24" />
    </clipPath>
    <clipPath
       clipPathUnits="userSpaceOnUse"
       id="clipPath25">
      <path
         d="M 0,0 H 2137.5 V 1508.8235 H 0 Z"
         transform="matrix(0.33403175,0,0,0.33403175,-446.54688,-253)"
         clip-rule="evenodd"
         id="path25" />
    </clipPath>
    <clipPath
       clipPathUnits="userSpaceOnUse"
       id="clipPath27">
      <path
         d="M 0,0 H 2137.5 V 1508.8235 H 0 Z"
         transform="matrix(0.3340351,0,0,0.3340351,-0.49999999,-0.49999999)"
         clip-rule="evenodd"
         id="path27" />
    </clipPath>
    <clipPath
       clipPathUnits="userSpaceOnUse"
       id="clipPath28">
      <path
         d="M 0,0 H 2137.5 V 1508.8235 H 0 Z"
         transform="matrix(0.33403175,0,0,0.33403175,-603.89063,-253)"
         clip-rule="evenodd"
         id="path28" />
    </clipPath>
    <clipPath
       clipPathUnits="userSpaceOnUse"
       id="clipPath30">
      <path
         d="M 0,0 H 2137.5 V 1508.8235 H 0 Z"
         transform="matrix(0.3340351,0,0,0.3340351,-0.49999999,-0.49999999)"
         clip-rule="evenodd"
         id="path30" />
    </clipPath>
    <clipPath
       clipPathUnits="userSpaceOnUse"
       id="clipPath31">
      <path
         d="M 0,0 H 2137.5 V 1508.8235 H 0 Z"
         transform="matrix(0.33403175,0,0,0.33403175,-72.8125,-165)"
         clip-rule="evenodd"
         id="path31" />
    </clipPath>
    <clipPath
       clipPathUnits="userSpaceOnUse"
       id="clipPath33">
      <path
         d="M 0,0 H 2137.5 V 1508.8235 H 0 Z"
         transform="matrix(0.3340351,0,0,0.3340351,-0.49999999,-0.49999999)"
         clip-rule="evenodd"
         id="path33" />
    </clipPath>
    <clipPath
       clipPathUnits="userSpaceOnUse"
       id="clipPath34">
      <path
         d="M 0,0 H 2137.5 V 1508.8235 H 0 Z"
         transform="matrix(0.33403175,0,0,0.33403175,-210.90625,-165)"
         clip-rule="evenodd"
         id="path34" />
    </clipPath>
    <clipPath
       clipPathUnits="userSpaceOnUse"
       id="clipPath36">
      <path
         d="M 0,0 H 2137.5 V 1508.8235 H 0 Z"
         transform="matrix(0.3340351,0,0,0.3340351,-0.49999999,-0.49999999)"
         clip-rule="evenodd"
         id="path36" />
    </clipPath>
    <clipPath
       clipPathUnits="userSpaceOnUse"
       id="clipPath37">
      <path
         d="M 0,0 H 2137.5 V 1508.8235 H 0 Z"
         transform="matrix(0.33403175,0,0,0.33403175,-111.96875,-125)"
         clip-rule="evenodd"
         id="path37" />
    </clipPath>
    <clipPath
       clipPathUnits="userSpaceOnUse"
       id="clipPath39">
      <path
         d="M 0,0 H 2137.5 V 1508.8235 H 0 Z"
         transform="scale(0.3340351)"
         clip-rule="evenodd"
         id="path39" />
    </clipPath>
    <clipPath
       clipPathUnits="userSpaceOnUse"
       id="clipPath41">
      <path
         d="M 0,0 H 2137.5 V 1508.8235 H 0 Z"
         transform="scale(0.3340351)"
         clip-rule="evenodd"
         id="path41" />
    </clipPath>
    <clipPath
       clipPathUnits="userSpaceOnUse"
       id="clipPath43">
      <path
         d="M 0,0 H 2137.5 V 1508.8235 H 0 Z"
         transform="matrix(0.3340351,0,0,0.3340351,-0.49999999,-0.49999999)"
         clip-rule="evenodd"
         id="path43" />
    </clipPath>
    <clipPath
       clipPathUnits="userSpaceOnUse"
       id="clipPath44">
      <path
         d="M 0,0 H 2137.5 V 1508.8235 H 0 Z"
         transform="matrix(0.33403175,0,0,0.33403175,-88.484375,-371.99999)"
         clip-rule="evenodd"
         id="path44" />
    </clipPath>
    <clipPath
       clipPathUnits="userSpaceOnUse"
       id="clipPath46">
      <path
         d="M 0,0 H 2137.5 V 1508.8235 H 0 Z"
         transform="matrix(0.3340351,0,0,0.3340351,-0.49999999,-0.49999999)"
         clip-rule="evenodd"
         id="path46" />
    </clipPath>
    <clipPath
       clipPathUnits="userSpaceOnUse"
       id="clipPath47">
      <path
         d="M 0,0 H 2137.5 V 1508.8235 H 0 Z"
         transform="matrix(0.33403175,0,0,0.33403175,-305.99999,-343)"
         clip-rule="evenodd"
         id="path47" />
    </clipPath>
    <clipPath
       clipPathUnits="userSpaceOnUse"
       id="clipPath48">
      <path
         d="M 0,0 H 2137.5 V 1508.8235 H 0 Z"
         transform="matrix(0.33403175,0,0,0.33403175,-476.32812,-343)"
         clip-rule="evenodd"
         id="path48" />
    </clipPath>
    <clipPath
       clipPathUnits="userSpaceOnUse"
       id="clipPath49">
      <path
         d="M 0,0 H 2137.5 V 1508.8235 H 0 Z"
         transform="matrix(0.33403175,0,0,0.33403175,-484.51563,-343)"
         clip-rule="evenodd"
         id="path49" />
    </clipPath>
    <clipPath
       clipPathUnits="userSpaceOnUse"
       id="clipPath50">
      <path
         d="M 0,0 H 2137.5 V 1508.8235 H 0 Z"
         transform="matrix(0.33403175,0,0,0.33403175,-305.99999,-368)"
         clip-rule="evenodd"
         id="path50" />
    </clipPath>
    <clipPath
       clipPathUnits="userSpaceOnUse"
       id="clipPath51">
      <path
         d="M 0,0 H 2137.5 V 1508.8235 H 0 Z"
         transform="matrix(0.33403175,0,0,0.33403175,-373.66261,-368)"
         clip-rule="evenodd"
         id="path51" />
    </clipPath>
    <clipPath
       clipPathUnits="userSpaceOnUse"
       id="clipPath52">
      <path
         d="M 0,0 H 2137.5 V 1508.8235 H 0 Z"
         transform="matrix(0.33403175,0,0,0.33403175,-305.99999,-393)"
         clip-rule="evenodd"
         id="path52" />
    </clipPath>
    <clipPath
       clipPathUnits="userSpaceOnUse"
       id="clipPath53">
      <path
         d="M 0,0 H 2137.5 V 1508.8235 H 0 Z"
         transform="matrix(0.33403175,0,0,0.33403175,-390.00635,-393)"
         clip-rule="evenodd"
         id="path53" />
    </clipPath>
    <clipPath
       clipPathUnits="userSpaceOnUse"
       id="clipPath55">
      <path
         d="M 0,0 H 2137.5 V 1508.8235 H 0 Z"
         transform="scale(0.3340351)"
         clip-rule="evenodd"
         id="path55" />
    </clipPath>
    <clipPath
       clipPathUnits="userSpaceOnUse"
       id="clipPath57">
      <path
         d="M 0,0 H 2137.5 V 1508.8235 H 0 Z"
         transform="scale(0.3340351)"
         clip-rule="evenodd"
         id="path57" />
    </clipPath>
    <clipPath
       clipPathUnits="userSpaceOnUse"
       id="clipPath59">
      <path
         d="M 0,0 H 2137.5 V 1508.8235 H 0 Z"
         transform="matrix(0.3340351,0,0,0.3340351,-0.49999999,-0.49999999)"
         clip-rule="evenodd"
         id="path59" />
    </clipPath>
    <clipPath
       clipPathUnits="userSpaceOnUse"
       id="clipPath60">
      <path
         d="M 0,0 H 2137.5 V 1508.8235 H 0 Z"
         transform="matrix(0.33403175,0,0,0.33403175,-62.640625,-472)"
         clip-rule="evenodd"
         id="path60" />
    </clipPath>
    <clipPath
       clipPathUnits="userSpaceOnUse"
       id="clipPath62">
      <path
         d="M 0,0 H 2137.5 V 1508.8235 H 0 Z"
         transform="matrix(0.3340351,0,0,0.3340351,-0.49999999,-0.49999999)"
         clip-rule="evenodd"
         id="path62" />
    </clipPath>
    <clipPath
       clipPathUnits="userSpaceOnUse"
       id="clipPath63">
      <path
         d="M 0,0 H 2137.5 V 1508.8235 H 0 Z"
         transform="matrix(0.33403175,0,0,0.33403175,-305.99999,-443)"
         clip-rule="evenodd"
         id="path63" />
    </clipPath>
    <clipPath
       clipPathUnits="userSpaceOnUse"
       id="clipPath64">
      <path
         d="M 0,0 H 2137.5 V 1508.8235 H 0 Z"
         transform="matrix(0.33403175,0,0,0.33403175,-476.32812,-443)"
         clip-rule="evenodd"
         id="path64" />
    </clipPath>
    <clipPath
       clipPathUnits="userSpaceOnUse"
       id="clipPath65">
      <path
         d="M 0,0 H 2137.5 V 1508.8235 H 0 Z"
         transform="matrix(0.33403175,0,0,0.33403175,-484.51563,-443)"
         clip-rule="evenodd"
         id="path65" />
    </clipPath>
    <clipPath
       clipPathUnits="userSpaceOnUse"
       id="clipPath66">
      <path
         d="M 0,0 H 2137.5 V 1508.8235 H 0 Z"
         transform="matrix(0.33403175,0,0,0.33403175,-305.99999,-468)"
         clip-rule="evenodd"
         id="path66" />
    </clipPath>
    <clipPath
       clipPathUnits="userSpaceOnUse"
       id="clipPath67">
      <path
         d="M 0,0 H 2137.5 V 1508.8235 H 0 Z"
         transform="matrix(0.33403175,0,0,0.33403175,-373.66261,-468)"
         clip-rule="evenodd"
         id="path67" />
    </clipPath>
    <clipPath
       clipPathUnits="userSpaceOnUse"
       id="clipPath68">
      <path
         d="M 0,0 H 2137.5 V 1508.8235 H 0 Z"
         transform="matrix(0.33403175,0,0,0.33403175,-305.99999,-492.99999)"
         clip-rule="evenodd"
         id="path68" />
    </clipPath>
    <clipPath
       clipPathUnits="userSpaceOnUse"
       id="clipPath69">
      <path
         d="M 0,0 H 2137.5 V 1508.8235 H 0 Z"
         transform="matrix(0.33403175,0,0,0.33403175,-390.00635,-492.99999)"
         clip-rule="evenodd"
         id="path69" />
    </clipPath>
  </defs>
  <sodipodi:namedview
     id="namedview1"
     pagecolor="#ffffff"
     bordercolor="#000000"
     borderopacity="0.25"
     inkscape:showpageshadow="2"
     inkscape:pageopacity="0.0"
     inkscape:pagecheckerboard="0"
     inkscape:deskcolor="#d1d1d1">
    <inkscape:page
       x="0"
       y="0"
       inkscape:label="1"
       id="page1"
       width="684.15997"
       height="484.16"
       margin="0"
       bleed="0" />
  </sodipodi:namedview>
  <g
     id="g1"
     inkscape:groupmode="layer"
     inkscape:label="1">
    <path
       id="path1"
       d="M 0,0 H 714 V 505 H 0 Z"
       style="fill:#ffffff;fill-opacity:1;fill-rule:nonzero;stroke:none"
       transform="scale(0.95798313)"
       clip-path="url(#clipPath2)" />
    <path
       id="path3"
       d="M 401,1 H 711 V 51 H 401 Z"
       style="fill:#ffe6cc;fill-opacity:1;fill-rule:nonzero;stroke:#d79b00;stroke-width:1;stroke-linecap:butt;stroke-linejoin:miter;stroke-miterlimit:10;stroke-dasharray:none;stroke-opacity:1"
       transform="matrix(0.95798313,0,0,0.95798313,0.47899156,0.47899156)"
       clip-path="url(#clipPath4)" />
    <text
       id="text4"
       xml:space="preserve"
       transform="matrix(0.95799273,0,0,0.95799273,490.47731,35.445731)"
       clip-path="url(#clipPath5)"><tspan
         style="font-variant:normal;font-weight:700;font-size:33px;font-family:Helvetica;writing-mode:lr-tb;fill:#000000;fill-opacity:1;fill-rule:nonzero;stroke:none"
         x="0 20.157715 40.31543 58.668457 69.657715"
         y="0"
         sodipodi:role="line"
         id="tspan4">posts</tspan></text>
    <path
       id="path6"
       d="m 401,177 h 310 v 50 H 401 Z"
       style="fill:#ffe6cc;fill-opacity:1;fill-rule:nonzero;stroke:#d79b00;stroke-width:1;stroke-linecap:butt;stroke-linejoin:miter;stroke-miterlimit:10;stroke-dasharray:none;stroke-opacity:1"
       transform="matrix(0.95798313,0,0,0.95798313,0.47899156,0.47899156)"
       clip-path="url(#clipPath7)" />
    <text
       id="text7"
       xml:space="preserve"
       transform="matrix(0.95799273,0,0,0.95799273,463.24936,204.05245)"
       clip-path="url(#clipPath8)"><tspan
         style="font-variant:normal;font-weight:700;font-size:33px;font-family:Helvetica;writing-mode:lr-tb;fill:#000000;fill-opacity:1;fill-rule:nonzero;stroke:none"
         x="0 10.989258 31.146973 40.31543 49.483887 69.641602 95.310059 113.66309 126.50537"
         y="0"
         sodipodi:role="line"
         id="tspan7">followers</tspan></text>
    <path
       id="path9"
       d="m 401,70 h -45 v 88 h -33.01999"
       style="fill:none;stroke:#000000;stroke-width:1;stroke-linecap:butt;stroke-linejoin:miter;stroke-miterlimit:10;stroke-dasharray:none;stroke-opacity:1"
       transform="scale(0.95798313)"
       clip-path="url(#clipPath10)" />
    <path
       id="path11"
       d="m 315.48001,158 10,-5 -2.5,5 2.5,5 z"
       style="fill:#000000;fill-opacity:1;fill-rule:nonzero;stroke:#000000;stroke-width:1;stroke-linecap:butt;stroke-linejoin:miter;stroke-miterlimit:10;stroke-dasharray:none;stroke-opacity:1"
       transform="scale(0.95798313)"
       clip-path="url(#clipPath12)" />
    <path
       id="path13"
       d="M 401,51 H 561 V 89 H 401 Z"
       style="fill:#d5e8d4;fill-opacity:1;fill-rule:nonzero;stroke:#82b366;stroke-width:1;stroke-linecap:butt;stroke-linejoin:miter;stroke-miterlimit:10;stroke-dasharray:none;stroke-opacity:1"
       transform="matrix(0.95798313,0,0,0.95798313,0.47899156,0.47899156)"
       clip-path="url(#clipPath14)" />
    <text
       id="text14"
       xml:space="preserve"
       transform="matrix(0.95799273,0,0,0.95799273,427.78866,73.76544)"
       clip-path="url(#clipPath15)"><tspan
         style="font-variant:normal;font-weight:normal;font-size:21px;font-family:Helvetica;writing-mode:lr-tb;fill:#000000;fill-opacity:1;fill-rule:nonzero;stroke:none"
         x="0 11.679199 22.179199 33.858398 40.851562 52.530762 57.196289"
         y="0"
         sodipodi:role="line"
         id="tspan14">user_id</tspan></text>
    <path
       id="path16"
       d="m 561.01001,51 h 150 v 38 h -150 z"
       style="fill:#ffffff;fill-opacity:1;fill-rule:nonzero;stroke:#000000;stroke-width:1;stroke-linecap:butt;stroke-linejoin:miter;stroke-miterlimit:10;stroke-dasharray:none;stroke-opacity:1"
       transform="matrix(0.95798313,0,0,0.95798313,0.47899156,0.47899156)"
       clip-path="url(#clipPath17)" />
    <text
       id="text17"
       xml:space="preserve"
       transform="matrix(0.95799273,0,0,0.95799273,578.52283,73.76544)"
       clip-path="url(#clipPath18)"><tspan
         style="font-variant:normal;font-weight:normal;font-size:21px;font-family:Helvetica;writing-mode:lr-tb;fill:#000000;fill-opacity:1;fill-rule:nonzero;stroke:none"
         x="0 4.6655273 16.344727 22.179199 33.858398 45.537598 57.216797"
         y="0"
         sodipodi:role="line"
         id="tspan17">integer</tspan></text>
    <path
       id="path19"
       d="M 401,246 H 356 V 158 H 322.98001"
       style="fill:none;stroke:#000000;stroke-width:1;stroke-linecap:butt;stroke-linejoin:miter;stroke-miterlimit:10;stroke-dasharray:none;stroke-opacity:1"
       transform="scale(0.95798313)"
       clip-path="url(#clipPath20)" />
    <path
       id="path21"
       d="m 315.48001,158 10,-5 -2.5,5 2.5,5 z"
       style="fill:#000000;fill-opacity:1;fill-rule:nonzero;stroke:#000000;stroke-width:1;stroke-linecap:butt;stroke-linejoin:miter;stroke-miterlimit:10;stroke-dasharray:none;stroke-opacity:1"
       transform="scale(0.95798313)"
       clip-path="url(#clipPath22)" />
    <path
       id="path23"
       d="m 401,227 h 160 v 38 H 401 Z"
       style="fill:#d5e8d4;fill-opacity:1;fill-rule:nonzero;stroke:#82b366;stroke-width:1;stroke-linecap:butt;stroke-linejoin:miter;stroke-miterlimit:10;stroke-dasharray:none;stroke-opacity:1"
       transform="matrix(0.95798313,0,0,0.95798313,0.47899156,0.47899156)"
       clip-path="url(#clipPath24)" />
    <text
       id="text24"
       xml:space="preserve"
       transform="matrix(0.95799273,0,0,0.95799273,427.78866,242.37216)"
       clip-path="url(#clipPath25)"><tspan
         style="font-variant:normal;font-weight:normal;font-size:21px;font-family:Helvetica;writing-mode:lr-tb;fill:#000000;fill-opacity:1;fill-rule:nonzero;stroke:none"
         x="0 11.679199 22.179199 33.858398 40.851562 52.530762 57.196289"
         y="0"
         sodipodi:role="line"
         id="tspan24">user_id</tspan></text>
    <path
       id="path26"
       d="m 561.01001,227 h 150 v 38 h -150 z"
       style="fill:#ffffff;fill-opacity:1;fill-rule:nonzero;stroke:#000000;stroke-width:1;stroke-linecap:butt;stroke-linejoin:miter;stroke-miterlimit:10;stroke-dasharray:none;stroke-opacity:1"
       transform="matrix(0.95798313,0,0,0.95798313,0.47899156,0.47899156)"
       clip-path="url(#clipPath27)" />
    <text
       id="text27"
       xml:space="preserve"
       transform="matrix(0.95799273,0,0,0.95799273,578.52283,242.37216)"
       clip-path="url(#clipPath28)"><tspan
         style="font-variant:normal;font-weight:normal;font-size:21px;font-family:Helvetica;writing-mode:lr-tb;fill:#000000;fill-opacity:1;fill-rule:nonzero;stroke:none"
         x="0 4.6655273 16.344727 22.179199 33.858398 45.537598 57.216797"
         y="0"
         sodipodi:role="line"
         id="tspan27">integer</tspan></text>
    <path
       id="path29"
       d="m 1,139 h 160 v 38 H 1 Z"
       style="fill:#d5e8d4;fill-opacity:1;fill-rule:nonzero;stroke:#82b366;stroke-width:1;stroke-linecap:butt;stroke-linejoin:miter;stroke-miterlimit:10;stroke-dasharray:none;stroke-opacity:1"
       transform="matrix(0.95798313,0,0,0.95798313,0.47899156,0.47899156)"
       clip-path="url(#clipPath30)" />
    <text
       id="text30"
       xml:space="preserve"
       transform="matrix(0.95799273,0,0,0.95799273,69.753846,158.0688)"
       clip-path="url(#clipPath31)"><tspan
         style="font-variant:normal;font-weight:normal;font-size:21px;font-family:Helvetica;writing-mode:lr-tb;fill:#000000;fill-opacity:1;fill-rule:nonzero;stroke:none"
         x="0 4.6655273"
         y="0"
         sodipodi:role="line"
         id="tspan30">id</tspan></text>
    <path
       id="path32"
       d="m 161,139 h 150 v 38 H 161 Z"
       style="fill:#ffffff;fill-opacity:1;fill-rule:nonzero;stroke:#000000;stroke-width:1;stroke-linecap:butt;stroke-linejoin:miter;stroke-miterlimit:10;stroke-dasharray:none;stroke-opacity:1"
       transform="matrix(0.95798313,0,0,0.95798313,0.47899156,0.47899156)"
       clip-path="url(#clipPath33)" />
    <text
       id="text33"
       xml:space="preserve"
       transform="matrix(0.95799273,0,0,0.95799273,202.04665,158.0688)"
       clip-path="url(#clipPath34)"><tspan
         style="font-variant:normal;font-weight:normal;font-size:21px;font-family:Helvetica;writing-mode:lr-tb;fill:#000000;fill-opacity:1;fill-rule:nonzero;stroke:none"
         x="0 10.5 22.179199 29.172363 33.837891 45.51709"
         y="0"
         sodipodi:role="line"
         id="tspan33">serial</tspan></text>
    <path
       id="path35"
       d="m 1,89 h 310 v 50 H 1 Z"
       style="fill:#ffe6cc;fill-opacity:1;fill-rule:nonzero;stroke:#d79b00;stroke-width:1;stroke-linecap:butt;stroke-linejoin:miter;stroke-miterlimit:10;stroke-dasharray:none;stroke-opacity:1"
       transform="matrix(0.95798313,0,0,0.95798313,0.47899156,0.47899156)"
       clip-path="url(#clipPath36)" />
    <text
       id="text36"
       xml:space="preserve"
       transform="matrix(0.95799273,0,0,0.95799273,107.26525,119.74909)"
       clip-path="url(#clipPath37)"><tspan
         style="font-variant:normal;font-weight:700;font-size:33px;font-family:Helvetica;writing-mode:lr-tb;fill:#000000;fill-opacity:1;fill-rule:nonzero;stroke:none"
         x="0 20.157715 38.510742 56.86377 69.706055"
         y="0"
         sodipodi:role="line"
         id="tspan36">users</tspan></text>
    <path
       id="path38"
       d="m 231,361 h 30 l 18.03,-0.02"
       style="fill:none;stroke:#000000;stroke-width:1;stroke-linecap:butt;stroke-linejoin:miter;stroke-miterlimit:10;stroke-dasharray:none;stroke-opacity:1"
       transform="scale(0.95798313)"
       clip-path="url(#clipPath39)" />
    <path
       id="path40"
       d="m 286.53,360.97 -9.98999,5.01001 2.48999,-5 -2.5,-5 z"
       style="fill:#000000;fill-opacity:1;fill-rule:nonzero;stroke:#000000;stroke-width:1;stroke-linecap:butt;stroke-linejoin:miter;stroke-miterlimit:10;stroke-dasharray:none;stroke-opacity:1"
       transform="scale(0.95798313)"
       clip-path="url(#clipPath41)" />
    <path
       id="path42"
       d="m 51,321 h 180 v 80 H 51 Z"
       style="fill:#dae8fc;fill-opacity:1;fill-rule:nonzero;stroke:#6c8ebf;stroke-width:1;stroke-linecap:butt;stroke-linejoin:miter;stroke-miterlimit:10;stroke-dasharray:none;stroke-opacity:1"
       transform="matrix(0.95798313,0,0,0.95798313,0.47899156,0.47899156)"
       clip-path="url(#clipPath43)" />
    <text
       id="text43"
       xml:space="preserve"
       transform="matrix(0.95799273,0,0,0.95799273,84.767388,356.37329)"
       clip-path="url(#clipPath44)"><tspan
         style="font-variant:normal;font-weight:700;font-size:30px;font-family:Helvetica;writing-mode:lr-tb;fill:#000000;fill-opacity:1;fill-rule:nonzero;stroke:none"
         x="0 16.68457 25.019531 43.344727 61.669922 78.354492 88.344727"
         y="0"
         sodipodi:role="line"
         id="tspan43"># posts</tspan></text>
    <path
       id="path45"
       d="m 291,321 h 400 v 80 H 291 Z"
       style="fill:#dae8fc;fill-opacity:1;fill-rule:nonzero;stroke:#6c8ebf;stroke-width:1;stroke-linecap:butt;stroke-linejoin:miter;stroke-miterlimit:10;stroke-dasharray:none;stroke-opacity:1"
       transform="matrix(0.95798313,0,0,0.95798313,0.47899156,0.47899156)"
       clip-path="url(#clipPath46)" />
    <text
       id="text46"
       xml:space="preserve"
       transform="matrix(0.95799273,0,0,0.95799273,293.14577,328.59151)"
       clip-path="url(#clipPath47)"><tspan
         style="font-variant:normal;font-weight:700;font-size:21px;font-family:Helvetica;writing-mode:lr-tb;fill:#000000;fill-opacity:1;fill-rule:nonzero;stroke:none"
         x="0 14.006836 28.013672 40.841309 54.848145 70.013672 82.841309 88.675781 103.84131 120.17578 135.34131 150.50684 163.33447"
         y="0"
         sodipodi:role="line"
         id="tspan46">SELECT COUNT(</tspan></text>
    <text
       id="text47"
       xml:space="preserve"
       transform="matrix(0.95799273,0,0,0.95799273,456.31888,328.59151)"
       clip-path="url(#clipPath48)"><tspan
         style="font-variant:normal;font-weight:normal;font-size:21px;font-family:Helvetica;writing-mode:lr-tb;fill:#000000;fill-opacity:1;fill-rule:nonzero;stroke:none"
         x="0"
         y="0"
         id="tspan47">*</tspan></text>
    <text
       id="text48"
       xml:space="preserve"
       transform="matrix(0.95799273,0,0,0.95799273,464.16245,328.59151)"
       clip-path="url(#clipPath49)"><tspan
         style="font-variant:normal;font-weight:700;font-size:21px;font-family:Helvetica;writing-mode:lr-tb;fill:#000000;fill-opacity:1;fill-rule:nonzero;stroke:none"
         x="0"
         y="0"
         id="tspan48">)</tspan></text>
    <text
       id="text49"
       xml:space="preserve"
       transform="matrix(0.95799273,0,0,0.95799273,293.14577,352.54132)"
       clip-path="url(#clipPath50)"><tspan
         style="font-variant:normal;font-weight:700;font-size:21px;font-family:Helvetica;writing-mode:lr-tb;fill:#000000;fill-opacity:1;fill-rule:nonzero;stroke:none"
         x="0 12.827637 27.993164 44.327637"
         y="0"
         sodipodi:role="line"
         id="tspan49">FROM</tspan></text>
    <text
       id="text50"
       xml:space="preserve"
       transform="matrix(0.95799273,0,0,0.95799273,357.96606,352.54132)"
       clip-path="url(#clipPath51)"><tspan
         style="font-variant:normal;font-weight:normal;font-size:21px;font-family:Helvetica;writing-mode:lr-tb;fill:#000000;fill-opacity:1;fill-rule:nonzero;stroke:none"
         x="0 11.679199 23.358398 33.858398 39.692871"
         y="0"
         sodipodi:role="line"
         id="tspan50">posts</tspan></text>
    <text
       id="text51"
       xml:space="preserve"
       transform="matrix(0.95799273,0,0,0.95799273,293.14577,376.49114)"
       clip-path="url(#clipPath52)"><tspan
         style="font-variant:normal;font-weight:700;font-size:21px;font-family:Helvetica;writing-mode:lr-tb;fill:#000000;fill-opacity:1;fill-rule:nonzero;stroke:none"
         x="0 19.820801 34.986328 48.993164 64.158691"
         y="0"
         sodipodi:role="line"
         id="tspan51">WHERE</tspan></text>
    <text
       id="text52"
       xml:space="preserve"
       transform="matrix(0.95799273,0,0,0.95799273,373.62325,376.49114)"
       clip-path="url(#clipPath53)"><tspan
         style="font-variant:normal;font-weight:normal;font-size:21px;font-family:Helvetica;writing-mode:lr-tb;fill:#000000;fill-opacity:1;fill-rule:nonzero;stroke:none"
         x="0 11.679199 22.179199 33.858398 40.851562 52.530762 57.196289 68.875488 74.709961 86.973633 92.808105 104.4873 116.1665 127.8457"
         y="0"
         sodipodi:role="line"
         id="tspan52">user_id = 123;</tspan></text>
    <path
       id="path54"
       d="m 231,461 h 30 l 18.03,-0.02"
       style="fill:none;stroke:#000000;stroke-width:1;stroke-linecap:butt;stroke-linejoin:miter;stroke-miterlimit:10;stroke-dasharray:none;stroke-opacity:1"
       transform="scale(0.95798313)"
       clip-path="url(#clipPath55)" />
    <path
       id="path56"
       d="m 286.53,460.97 -9.98999,5.01001 2.48999,-5 -2.5,-5 z"
       style="fill:#000000;fill-opacity:1;fill-rule:nonzero;stroke:#000000;stroke-width:1;stroke-linecap:butt;stroke-linejoin:miter;stroke-miterlimit:10;stroke-dasharray:none;stroke-opacity:1"
       transform="scale(0.95798313)"
       clip-path="url(#clipPath57)" />
    <path
       id="path58"
       d="m 51,421 h 180 v 80 H 51 Z"
       style="fill:#dae8fc;fill-opacity:1;fill-rule:nonzero;stroke:#6c8ebf;stroke-width:1;stroke-linecap:butt;stroke-linejoin:miter;stroke-miterlimit:10;stroke-dasharray:none;stroke-opacity:1"
       transform="matrix(0.95798313,0,0,0.95798313,0.47899156,0.47899156)"
       clip-path="url(#clipPath59)" />
    <text
       id="text59"
       xml:space="preserve"
       transform="matrix(0.95799273,0,0,0.95799273,60.009263,452.17257)"
       clip-path="url(#clipPath60)"><tspan
         style="font-variant:normal;font-weight:700;font-size:30px;font-family:Helvetica;writing-mode:lr-tb;fill:#000000;fill-opacity:1;fill-rule:nonzero;stroke:none"
         x="0 16.68457 25.019531 35.009766 53.334961 61.669922 70.004883 88.330078 111.66504 128.34961 140.02441"
         y="0"
         sodipodi:role="line"
         id="tspan59"># followers</tspan></text>
    <path
       id="path61"
       d="m 291,421 h 400 v 80 H 291 Z"
       style="fill:#dae8fc;fill-opacity:1;fill-rule:nonzero;stroke:#6c8ebf;stroke-width:1;stroke-linecap:butt;stroke-linejoin:miter;stroke-miterlimit:10;stroke-dasharray:none;stroke-opacity:1"
       transform="matrix(0.95798313,0,0,0.95798313,0.47899156,0.47899156)"
       clip-path="url(#clipPath62)" />
    <text
       id="text62"
       xml:space="preserve"
       transform="matrix(0.95799273,0,0,0.95799273,293.14577,424.39078)"
       clip-path="url(#clipPath63)"><tspan
         style="font-variant:normal;font-weight:700;font-size:21px;font-family:Helvetica;writing-mode:lr-tb;fill:#000000;fill-opacity:1;fill-rule:nonzero;stroke:none"
         x="0 14.006836 28.013672 40.841309 54.848145 70.013672 82.841309 88.675781 103.84131 120.17578 135.34131 150.50684 163.33447"
         y="0"
         sodipodi:role="line"
         id="tspan62">SELECT COUNT(</tspan></text>
    <text
       id="text63"
       xml:space="preserve"
       transform="matrix(0.95799273,0,0,0.95799273,456.31888,424.39078)"
       clip-path="url(#clipPath64)"><tspan
         style="font-variant:normal;font-weight:normal;font-size:21px;font-family:Helvetica;writing-mode:lr-tb;fill:#000000;fill-opacity:1;fill-rule:nonzero;stroke:none"
         x="0"
         y="0"
         id="tspan63">*</tspan></text>
    <text
       id="text64"
       xml:space="preserve"
       transform="matrix(0.95799273,0,0,0.95799273,464.16245,424.39078)"
       clip-path="url(#clipPath65)"><tspan
         style="font-variant:normal;font-weight:700;font-size:21px;font-family:Helvetica;writing-mode:lr-tb;fill:#000000;fill-opacity:1;fill-rule:nonzero;stroke:none"
         x="0"
         y="0"
         id="tspan64">)</tspan></text>
    <text
       id="text65"
       xml:space="preserve"
       transform="matrix(0.95799273,0,0,0.95799273,293.14577,448.3406)"
       clip-path="url(#clipPath66)"><tspan
         style="font-variant:normal;font-weight:700;font-size:21px;font-family:Helvetica;writing-mode:lr-tb;fill:#000000;fill-opacity:1;fill-rule:nonzero;stroke:none"
         x="0 12.827637 27.993164 44.327637"
         y="0"
         sodipodi:role="line"
         id="tspan65">FROM</tspan></text>
    <text
       id="text66"
       xml:space="preserve"
       transform="matrix(0.95799273,0,0,0.95799273,357.96606,448.3406)"
       clip-path="url(#clipPath67)"><tspan
         style="font-variant:normal;font-weight:normal;font-size:21px;font-family:Helvetica;writing-mode:lr-tb;fill:#000000;fill-opacity:1;fill-rule:nonzero;stroke:none"
         x="0 5.8344727 17.513672 22.179199 26.844727 38.523926 53.689453 65.368652 72.361816"
         y="0"
         sodipodi:role="line"
         id="tspan66">followers</tspan></text>
    <text
       id="text67"
       xml:space="preserve"
       transform="matrix(0.95799273,0,0,0.95799273,293.14577,472.29041)"
       clip-path="url(#clipPath68)"><tspan
         style="font-variant:normal;font-weight:700;font-size:21px;font-family:Helvetica;writing-mode:lr-tb;fill:#000000;fill-opacity:1;fill-rule:nonzero;stroke:none"
         x="0 19.820801 34.986328 48.993164 64.158691"
         y="0"
         sodipodi:role="line"
         id="tspan67">WHERE</tspan></text>
    <text
       id="text68"
       xml:space="preserve"
       transform="matrix(0.95799273,0,0,0.95799273,373.62325,472.29041)"
       clip-path="url(#clipPath69)"><tspan
         style="font-variant:normal;font-weight:normal;font-size:21px;font-family:Helvetica;writing-mode:lr-tb;fill:#000000;fill-opacity:1;fill-rule:nonzero;stroke:none"
         x="0 11.679199 22.179199 33.858398 40.851562 52.530762 57.196289 68.875488 74.709961 86.973633 92.808105 104.4873 116.1665 127.8457"
         y="0"
         sodipodi:role="line"
         id="tspan68">user_id = 123;</tspan></text>
  </g>
</svg>
