<?xml version="1.0" encoding="UTF-8" standalone="no"?>
<!-- Created with Inkscape (http://www.inkscape.org/) -->

<svg
   version="1.1"
   id="svg1"
   width="509.44"
   height="101.44"
   viewBox="0 0 509.44 101.44"
   sodipodi:docname="sql-3.pdf"
   xmlns:inkscape="http://www.inkscape.org/namespaces/inkscape"
   xmlns:sodipodi="http://sodipodi.sourceforge.net/DTD/sodipodi-0.dtd"
   xmlns="http://www.w3.org/2000/svg"
   xmlns:svg="http://www.w3.org/2000/svg">
  <defs
     id="defs1">
    <clipPath
       clipPathUnits="userSpaceOnUse"
       id="clipPath2">
      <path
         d="M 0,0 H 1591.6665 V 314.14471 H 0 Z"
         transform="scale(0.33424086)"
         clip-rule="evenodd"
         id="path2" />
    </clipPath>
    <clipPath
       clipPathUnits="userSpaceOnUse"
       id="clipPath4">
      <path
         d="M 0,0 H 1591.6665 V 311.15286 H 0 Z"
         transform="matrix(0.33424086,0,0,0.33424086,-0.50000001,-0.50000001)"
         clip-rule="evenodd"
         id="path4" />
    </clipPath>
    <clipPath
       clipPathUnits="userSpaceOnUse"
       id="clipPath5">
      <path
         d="M 0,0 H 1591.6665 V 311.15286 H 0 Z"
         transform="matrix(0.3342375,0,0,0.3342375,-21.125,-33)"
         clip-rule="evenodd"
         id="path5" />
    </clipPath>
    <clipPath
       clipPathUnits="userSpaceOnUse"
       id="clipPath7">
      <path
         d="M 0,0 H 1591.6665 V 311.15286 H 0 Z"
         transform="matrix(0.33424086,0,0,0.33424086,-0.50000001,-0.50000001)"
         clip-rule="evenodd"
         id="path7" />
    </clipPath>
    <clipPath
       clipPathUnits="userSpaceOnUse"
       id="clipPath8">
      <path
         d="M 0,0 H 1591.6665 V 311.15286 H 0 Z"
         transform="matrix(0.3342375,0,0,0.3342375,-191.5,-33)"
         clip-rule="evenodd"
         id="path8" />
    </clipPath>
    <clipPath
       clipPathUnits="userSpaceOnUse"
       id="clipPath10">
      <path
         d="M 0,0 H 1591.6665 V 311.15286 H 0 Z"
         transform="matrix(0.33424086,0,0,0.33424086,-0.50000001,-0.50000001)"
         clip-rule="evenodd"
         id="path10" />
    </clipPath>
    <clipPath
       clipPathUnits="userSpaceOnUse"
       id="clipPath11">
      <path
         d="M 0,0 H 1591.6665 V 311.15286 H 0 Z"
         transform="matrix(0.3342375,0,0,0.3342375,-340.70313,-33)"
         clip-rule="evenodd"
         id="path11" />
    </clipPath>
    <clipPath
       clipPathUnits="userSpaceOnUse"
       id="clipPath13">
      <path
         d="M 0,0 H 1591.6665 V 311.15286 H 0 Z"
         transform="matrix(0,0.33424086,-0.33424086,0,150.5,-12.500001)"
         clip-rule="evenodd"
         id="path13" />
    </clipPath>
    <clipPath
       clipPathUnits="userSpaceOnUse"
       id="clipPath15">
      <path
         d="M 0,0 H 1591.6665 V 311.15286 H 0 Z"
         transform="matrix(0,0.33424086,-0.33424086,0,310.50001,-172.5)"
         clip-rule="evenodd"
         id="path15" />
    </clipPath>
    <clipPath
       clipPathUnits="userSpaceOnUse"
       id="clipPath17">
      <path
         d="M 0,0 H 1591.6665 V 311.15286 H 0 Z"
         transform="matrix(0,0.33424086,-0.33424086,0,494.50002,-356.49999)"
         clip-rule="evenodd"
         id="path17" />
    </clipPath>
    <clipPath
       clipPathUnits="userSpaceOnUse"
       id="clipPath18">
      <path
         d="M 0,0 H 1591.6665 V 311.15286 H 0 Z"
         transform="matrix(0.3342375,0,0,0.3342375,-223.5,-98)"
         clip-rule="evenodd"
         id="path18" />
    </clipPath>
    <clipPath
       clipPathUnits="userSpaceOnUse"
       id="clipPath19">
      <path
         d="M 0,0 H 1591.6665 V 311.15286 H 0 Z"
         transform="matrix(0.3342375,0,0,0.3342375,-394.46875,-98)"
         clip-rule="evenodd"
         id="path19" />
    </clipPath>
    <clipPath
       clipPathUnits="userSpaceOnUse"
       id="clipPath20">
      <path
         d="M 0,0 H 1591.6665 V 311.15286 H 0 Z"
         transform="matrix(0.3342375,0,0,0.3342375,-60.500001,-98)"
         clip-rule="evenodd"
         id="path20" />
    </clipPath>
  </defs>
  <sodipodi:namedview
     id="namedview1"
     pagecolor="#ffffff"
     bordercolor="#000000"
     borderopacity="0.25"
     inkscape:showpageshadow="2"
     inkscape:pageopacity="0.0"
     inkscape:pagecheckerboard="0"
     inkscape:deskcolor="#d1d1d1">
    <inkscape:page
       x="0"
       y="0"
       inkscape:label="1"
       id="page1"
       width="509.44"
       height="101.44"
       margin="0"
       bleed="0" />
  </sodipodi:namedview>
  <g
     id="g1"
     inkscape:groupmode="layer"
     inkscape:label="1">
    <path
       id="path1"
       d="M 0,0 H 532 V 105 H 0 Z"
       style="fill:#ffffff;fill-opacity:1;fill-rule:nonzero;stroke:none"
       transform="scale(0.95739337)"
       clip-path="url(#clipPath2)" />
    <path
       id="path3"
       d="M 1,1 H 161 V 51 H 1 Z"
       style="fill:#dae8fc;fill-opacity:1;fill-rule:nonzero;stroke:#6c8ebf;stroke-width:1;stroke-linecap:butt;stroke-linejoin:miter;stroke-miterlimit:10;stroke-dasharray:none;stroke-opacity:1"
       transform="matrix(0.95739337,0,0,0.95739337,0.47869669,0.47869669)"
       clip-path="url(#clipPath4)" />
    <text
       id="text4"
       xml:space="preserve"
       transform="matrix(0.957403,0,0,0.957403,20.225138,31.594299)"
       clip-path="url(#clipPath5)"><tspan
         style="font-variant:normal;font-weight:normal;font-size:18px;font-family:Helvetica;writing-mode:lr-tb;fill:#000000;fill-opacity:1;fill-rule:nonzero;stroke:none"
         x="0 12.005859 24.011719 34.022461 46.02832 59.027344 69.706055 74.707031 84.717773 94.728516 109.72266"
         y="0"
         sodipodi:role="line"
         id="tspan4">SELECT name</tspan></text>
    <path
       id="path6"
       d="M 161,1 H 321 V 51 H 161 Z"
       style="fill:#dae8fc;fill-opacity:1;fill-rule:nonzero;stroke:#6c8ebf;stroke-width:1;stroke-linecap:butt;stroke-linejoin:miter;stroke-miterlimit:10;stroke-dasharray:none;stroke-opacity:1"
       transform="matrix(0.95739337,0,0,0.95739337,0.47869669,0.47869669)"
       clip-path="url(#clipPath7)" />
    <text
       id="text7"
       xml:space="preserve"
       transform="matrix(0.957403,0,0,0.957403,183.34267,31.594299)"
       clip-path="url(#clipPath8)"><tspan
         style="font-variant:normal;font-weight:normal;font-size:18px;font-family:Helvetica;writing-mode:lr-tb;fill:#000000;fill-opacity:1;fill-rule:nonzero;stroke:none"
         x="0 10.995117 23.994141 37.995117 52.989258 57.990234 66.990234 70.989258 75.990234 79.989258 90"
         y="0"
         sodipodi:role="line"
         id="tspan7">FROM cities</tspan></text>
    <path
       id="path9"
       d="M 321,1 H 529 V 51 H 321 Z"
       style="fill:#dae8fc;fill-opacity:1;fill-rule:nonzero;stroke:#6c8ebf;stroke-width:1;stroke-linecap:butt;stroke-linejoin:miter;stroke-miterlimit:10;stroke-dasharray:none;stroke-opacity:1"
       transform="matrix(0.95739337,0,0,0.95739337,0.47869669,0.47869669)"
       clip-path="url(#clipPath10)" />
    <text
       id="text10"
       xml:space="preserve"
       transform="matrix(0.957403,0,0,0.957403,326.1902,31.594299)"
       clip-path="url(#clipPath11)"><tspan
         style="font-variant:normal;font-weight:normal;font-size:18px;font-family:Helvetica;writing-mode:lr-tb;fill:#000000;fill-opacity:1;fill-rule:nonzero;stroke:none"
         x="0 16.989258 29.988281 41.994141 54.993164 66.999023 72 82.010742 88.004883 98.015625 108.02637 113.02734 123.53906 128.54004 138.55078 148.56152 158.57227"
         y="0"
         sodipodi:role="line"
         id="tspan10">WHERE area &gt; 4000</tspan></text>
    <path
       id="path12"
       d="m 91,-11 h -5 c -3.333336,0 -5,3.333333 -5,10 v 60 c 0,6.666664 -1.666664,10 -5,10 h -2.5 c -1.666664,0 -0.833336,0 2.5,0 h 2.5 c 1.666664,0 2.5,3.333336 2.5,10 v 60 c 0,6.66667 1.666664,10 5,10 h 5"
       style="fill:none;stroke:#000000;stroke-width:1;stroke-linecap:butt;stroke-linejoin:miter;stroke-miterlimit:10;stroke-dasharray:none;stroke-opacity:1"
       transform="matrix(0,-0.95739337,0.95739337,0,11.967418,144.0877)"
       clip-path="url(#clipPath13)" />
    <path
       id="path14"
       d="m 251,-11 h -5 c -3.33333,0 -5,3.333333 -5,10 v 60 c 0,6.666664 -1.66667,10 -5,10 h -2.5 c -1.66667,0 -0.83333,0 2.5,0 h 2.5 c 1.66667,0 2.5,3.333336 2.5,10 v 60 c 0,6.66667 1.66667,10 5,10 h 5"
       style="fill:none;stroke:#000000;stroke-width:1;stroke-linecap:butt;stroke-linejoin:miter;stroke-miterlimit:10;stroke-dasharray:none;stroke-opacity:1"
       transform="matrix(0,-0.95739337,0.95739337,0,165.15036,297.27065)"
       clip-path="url(#clipPath15)" />
    <path
       id="path16"
       d="m 437,-35 h -6 c -4,0 -6,3.333332 -6,10 v 84 c 0,6.666664 -2,10 -6,10 h -3 c -2,0 -1,0 3,0 h 3 c 2,0 3,3.333336 3,10 v 84 c 0,6.66667 2,10 6,10 h 6"
       style="fill:none;stroke:#000000;stroke-width:1;stroke-linecap:butt;stroke-linejoin:miter;stroke-miterlimit:10;stroke-dasharray:none;stroke-opacity:1"
       transform="matrix(0,-0.95739337,0.95739337,0,341.31073,473.43104)"
       clip-path="url(#clipPath17)" />
    <text
       id="text17"
       xml:space="preserve"
       transform="matrix(0.957403,0,0,0.957403,213.97957,93.825494)"
       clip-path="url(#clipPath18)"><tspan
         style="font-style:oblique;font-variant:normal;font-weight:normal;font-size:18px;font-family:Helvetica;writing-mode:lr-tb;fill:#000000;fill-opacity:1;fill-rule:nonzero;stroke:none"
         x="0 10.995117 14.994141 20.988281 29.988281"
         y="0"
         sodipodi:role="line"
         id="tspan17">First</tspan></text>
    <text
       id="text18"
       xml:space="preserve"
       transform="matrix(0.957403,0,0,0.957403,377.66556,93.825494)"
       clip-path="url(#clipPath19)"><tspan
         style="font-style:oblique;font-variant:normal;font-weight:normal;font-size:18px;font-family:Helvetica;writing-mode:lr-tb;fill:#000000;fill-opacity:1;fill-rule:nonzero;stroke:none"
         x="0 12.005859 22.016602 31.016602 41.027344 51.038086"
         y="0"
         sodipodi:role="line"
         id="tspan18">Second</tspan></text>
    <text
       id="text19"
       xml:space="preserve"
       transform="matrix(0.957403,0,0,0.957403,57.922882,93.825494)"
       clip-path="url(#clipPath20)"><tspan
         style="font-style:oblique;font-variant:normal;font-weight:normal;font-size:18px;font-family:Helvetica;writing-mode:lr-tb;fill:#000000;fill-opacity:1;fill-rule:nonzero;stroke:none"
         x="0 10.995117 21.005859 25.004883 30.999023"
         y="0"
         sodipodi:role="line"
         id="tspan19">Third</tspan></text>
  </g>
</svg>
