<?xml version="1.0" encoding="UTF-8" standalone="no"?>
<!-- Created with Inkscape (http://www.inkscape.org/) -->

<svg
   version="1.1"
   id="svg1"
   width="370.55997"
   height="232"
   viewBox="0 0 370.55997 232"
   sodipodi:docname="sql-8.pdf"
   xmlns:inkscape="http://www.inkscape.org/namespaces/inkscape"
   xmlns:sodipodi="http://sodipodi.sourceforge.net/DTD/sodipodi-0.dtd"
   xmlns="http://www.w3.org/2000/svg"
   xmlns:svg="http://www.w3.org/2000/svg">
  <defs
     id="defs1">
    <clipPath
       clipPathUnits="userSpaceOnUse"
       id="clipPath2">
      <path
         d="M 0,0 H 1158.3333 V 724.33246 H 0 Z"
         transform="scale(0.33410074)"
         clip-rule="evenodd"
         id="path2" />
    </clipPath>
    <clipPath
       clipPathUnits="userSpaceOnUse"
       id="clipPath3">
      <path
         d="M 0,0 H 1144 V 186 H 0 Z"
         transform="matrix(0.33410074,0,0,0.33410074,-0.16129475,32.916981)"
         id="path3" />
    </clipPath>
    <clipPath
       clipPathUnits="userSpaceOnUse"
       id="clipPath5">
      <path
         d="M 0,0 H 1158.3333 V 718.34619 H 0 Z"
         transform="scale(0.31999999)"
         clip-rule="evenodd"
         id="path5" />
    </clipPath>
    <clipPath
       clipPathUnits="userSpaceOnUse"
       id="clipPath7">
      <path
         d="M 0,0 H 1158.3333 V 718.34619 H 0 Z"
         transform="matrix(0.33410074,0,0,0.33410074,-0.50000001,-0.50000001)"
         clip-rule="evenodd"
         id="path7" />
    </clipPath>
    <clipPath
       clipPathUnits="userSpaceOnUse"
       id="clipPath8">
      <path
         d="M 0,0 H 1158.3333 V 718.34619 H 0 Z"
         transform="matrix(0.33409738,0,0,0.33409738,-101.70312,-71)"
         clip-rule="evenodd"
         id="path8" />
    </clipPath>
    <clipPath
       clipPathUnits="userSpaceOnUse"
       id="clipPath9">
      <path
         d="M 0,0 H 1158.3333 V 718.34619 H 0 Z"
         transform="matrix(0.33409738,0,0,0.33409738,-98.937499,-22)"
         clip-rule="evenodd"
         id="path9" />
    </clipPath>
    <clipPath
       clipPathUnits="userSpaceOnUse"
       id="clipPath10">
      <path
         d="M 0,0 H 1144 V 186 H 0 Z"
         transform="matrix(0.33410074,0,0,0.33410074,-0.16129475,172.90519)"
         id="path10" />
    </clipPath>
    <clipPath
       clipPathUnits="userSpaceOnUse"
       id="clipPath12">
      <path
         d="M 0,0 H 1158.3333 V 718.34619 H 0 Z"
         transform="scale(0.31999999)"
         clip-rule="evenodd"
         id="path12" />
    </clipPath>
    <clipPath
       clipPathUnits="userSpaceOnUse"
       id="clipPath14">
      <path
         d="M 0,0 H 1158.3333 V 718.34619 H 0 Z"
         transform="matrix(0.33410074,0,0,0.33410074,-0.50000001,-0.50000001)"
         clip-rule="evenodd"
         id="path14" />
    </clipPath>
    <clipPath
       clipPathUnits="userSpaceOnUse"
       id="clipPath15">
      <path
         d="M 0,0 H 1158.3333 V 718.34619 H 0 Z"
         transform="matrix(0.33409738,0,0,0.33409738,-97.609374,-211)"
         clip-rule="evenodd"
         id="path15" />
    </clipPath>
    <clipPath
       clipPathUnits="userSpaceOnUse"
       id="clipPath16">
      <path
         d="M 0,0 H 1144 V 187 H 0 Z"
         transform="matrix(0.33410074,0,0,0.33410074,-0.16129475,102.74403)"
         id="path16" />
    </clipPath>
    <clipPath
       clipPathUnits="userSpaceOnUse"
       id="clipPath18">
      <path
         d="M 0,0 H 1158.3333 V 718.34619 H 0 Z"
         transform="scale(0.31999999)"
         clip-rule="evenodd"
         id="path18" />
    </clipPath>
    <clipPath
       clipPathUnits="userSpaceOnUse"
       id="clipPath20">
      <path
         d="M 0,0 H 1158.3333 V 718.34619 H 0 Z"
         transform="matrix(0.33410074,0,0,0.33410074,-0.50000001,-0.50000001)"
         clip-rule="evenodd"
         id="path20" />
    </clipPath>
    <clipPath
       clipPathUnits="userSpaceOnUse"
       id="clipPath21">
      <path
         d="M 0,0 H 1158.3333 V 718.34619 H 0 Z"
         transform="matrix(0.33409738,0,0,0.33409738,-25.828125,-128)"
         clip-rule="evenodd"
         id="path21" />
    </clipPath>
    <clipPath
       clipPathUnits="userSpaceOnUse"
       id="clipPath22">
      <path
         d="M 0,0 H 1158.3333 V 718.34619 H 0 Z"
         transform="matrix(0.33409738,0,0,0.33409738,-165.90625,-154)"
         clip-rule="evenodd"
         id="path22" />
    </clipPath>
  </defs>
  <sodipodi:namedview
     id="namedview1"
     pagecolor="#ffffff"
     bordercolor="#000000"
     borderopacity="0.25"
     inkscape:showpageshadow="2"
     inkscape:pageopacity="0.0"
     inkscape:pagecheckerboard="0"
     inkscape:deskcolor="#d1d1d1">
    <inkscape:page
       x="0"
       y="0"
       inkscape:label="1"
       id="page1"
       width="370.55997"
       height="232"
       margin="0"
       bleed="0" />
  </sodipodi:namedview>
  <g
     id="g1"
     inkscape:groupmode="layer"
     inkscape:label="1">
    <path
       id="path1"
       d="M 0,0 H 387 V 242 H 0 Z"
       style="fill:#ffffff;fill-opacity:1;fill-rule:nonzero;stroke:none"
       transform="scale(0.9577949)"
       clip-path="url(#clipPath2)" />
    <g
       opacity="0.25"
       id="g4"
       clip-path="url(#clipPath5)">
      <path
         d="M 1,34 H 381 V 94 H 1 Z"
         style="fill:#000000;fill-opacity:1;fill-rule:nonzero;stroke:#000000;stroke-width:1;stroke-linecap:butt;stroke-linejoin:miter;stroke-miterlimit:10;stroke-dasharray:none;stroke-opacity:1"
         transform="matrix(0.9577949,0,0,0.9577949,2.3944872,3.3522824)"
         clip-path="url(#clipPath3)"
         id="path4" />
    </g>
    <path
       id="path6"
       d="M 1,34 H 381 V 94 H 1 Z"
       style="fill:#dae8fc;fill-opacity:1;fill-rule:nonzero;stroke:#6c8ebf;stroke-width:1;stroke-linecap:butt;stroke-linejoin:miter;stroke-miterlimit:10;stroke-dasharray:none;stroke-opacity:1"
       transform="matrix(0.9577949,0,0,0.9577949,0.47889746,0.47889746)"
       clip-path="url(#clipPath7)" />
    <text
       id="text7"
       xml:space="preserve"
       transform="matrix(0.95780454,0,0,0.95780454,97.411714,68.004122)"
       clip-path="url(#clipPath8)"><tspan
         style="font-variant:normal;font-weight:normal;font-size:21px;font-family:Helvetica;writing-mode:lr-tb;fill:#000000;fill-opacity:1;fill-rule:nonzero;stroke:none"
         x="0 16.334473 28.013672 33.848145 39.682617 44.348145 56.027344 67.706543 73.541016 85.220215 89.885742 94.55127 100.38574 110.88574 122.56494 127.23047 138.90967 156.40283 168.08203"
         y="0"
         sodipodi:role="line"
         id="tspan7">Getting all columns</tspan></text>
    <text
       id="text8"
       xml:space="preserve"
       transform="matrix(0.95780454,0,0,0.95780454,94.762786,21.0717)"
       clip-path="url(#clipPath9)"><tspan
         style="font-variant:normal;font-weight:700;font-size:23px;font-family:Helvetica;writing-mode:lr-tb;fill:#000000;fill-opacity:1;fill-rule:nonzero;stroke:none"
         x="0 15.34082 28.132324 34.522461 47.313965 60.105469 67.764648 74.154785 88.237793 101.0293 109.97998 116.37012 129.16162 136.8208 143.21094 157.26025 171.30957"
         y="0"
         sodipodi:role="line"
         id="tspan8">Select Variations</tspan></text>
    <g
       opacity="0.25"
       id="g11"
       clip-path="url(#clipPath12)">
      <path
         d="m 1,174 h 380 v 60 H 1 Z"
         style="fill:#000000;fill-opacity:1;fill-rule:nonzero;stroke:#000000;stroke-width:1;stroke-linecap:butt;stroke-linejoin:miter;stroke-miterlimit:10;stroke-dasharray:none;stroke-opacity:1"
         transform="matrix(0.9577949,0,0,0.9577949,2.3944872,3.3522847)"
         clip-path="url(#clipPath10)"
         id="path11" />
    </g>
    <path
       id="path13"
       d="m 1,174 h 380 v 60 H 1 Z"
       style="fill:#dae8fc;fill-opacity:1;fill-rule:nonzero;stroke:#6c8ebf;stroke-width:1;stroke-linecap:butt;stroke-linejoin:miter;stroke-miterlimit:10;stroke-dasharray:none;stroke-opacity:1"
       transform="matrix(0.9577949,0,0,0.9577949,0.47889746,0.47889746)"
       clip-path="url(#clipPath14)" />
    <text
       id="text14"
       xml:space="preserve"
       transform="matrix(0.95780454,0,0,0.95780454,93.490702,202.09676)"
       clip-path="url(#clipPath15)"><tspan
         style="font-variant:normal;font-weight:normal;font-size:21px;font-family:Helvetica;writing-mode:lr-tb;fill:#000000;fill-opacity:1;fill-rule:nonzero;stroke:none"
         x="0 15.165527 26.844727 38.523926 50.203125 67.696289 72.361816 84.041016 95.720215 101.55469 113.23389 119.06836 129.56836 141.24756 145.91309 157.59229 175.08545"
         y="0"
         sodipodi:role="line"
         id="tspan14">Renaming a column</tspan></text>
    <g
       opacity="0.25"
       id="g17"
       clip-path="url(#clipPath18)">
      <path
         d="m 1,104 h 380 v 60 H 1 Z"
         style="fill:#000000;fill-opacity:1;fill-rule:nonzero;stroke:#000000;stroke-width:1;stroke-linecap:butt;stroke-linejoin:miter;stroke-miterlimit:10;stroke-dasharray:none;stroke-opacity:1"
         transform="matrix(0.9577949,0,0,0.9577949,2.3944872,3.3522847)"
         clip-path="url(#clipPath16)"
         id="path17" />
    </g>
    <path
       id="path19"
       d="m 1,104 h 380 v 60 H 1 Z"
       style="fill:#dae8fc;fill-opacity:1;fill-rule:nonzero;stroke:#6c8ebf;stroke-width:1;stroke-linecap:butt;stroke-linejoin:miter;stroke-miterlimit:10;stroke-dasharray:none;stroke-opacity:1"
       transform="matrix(0.9577949,0,0,0.9577949,0.47889746,0.47889746)"
       clip-path="url(#clipPath20)" />
    <text
       id="text20"
       xml:space="preserve"
       transform="matrix(0.95780454,0,0,0.95780454,24.738295,122.59898)"
       clip-path="url(#clipPath21)"><tspan
         style="font-variant:normal;font-weight:normal;font-size:21px;font-family:Helvetica;writing-mode:lr-tb;fill:#000000;fill-opacity:1;fill-rule:nonzero;stroke:none"
         x="0 14.006836 25.686035 30.351562 42.030762 52.530762 58.365234 63.030762 74.709961 86.38916 92.223633 98.058105 109.7373 121.4165 127.25098 137.75098 149.43018 166.92334 178.60254 184.43701 194.93701 206.61621 211.28174 222.96094 240.4541 252.1333 257.96777 275.46094 287.14014 291.80566 297.64014 302.30566 313.98486 318.65039"
         y="0"
         sodipodi:role="line"
         id="tspan20">Selecting the same column multiple</tspan></text>
    <text
       id="text21"
       xml:space="preserve"
       transform="matrix(0.95780454,0,0,0.95780454,158.90576,147.5019)"
       clip-path="url(#clipPath22)"><tspan
         style="font-variant:normal;font-weight:normal;font-size:21px;font-family:Helvetica;writing-mode:lr-tb;fill:#000000;fill-opacity:1;fill-rule:nonzero;stroke:none"
         x="0 5.8344727 10.5 27.993164 39.672363"
         y="0"
         sodipodi:role="line"
         id="tspan21">times</tspan></text>
  </g>
</svg>
