<?xml version="1.0" encoding="UTF-8" standalone="no"?>
<!-- Created with Inkscape (http://www.inkscape.org/) -->

<svg
   version="1.1"
   id="svg1"
   width="558.71997"
   height="241.27998"
   viewBox="0 0 558.71997 241.27998"
   sodipodi:docname="sql-13.pdf"
   xmlns:inkscape="http://www.inkscape.org/namespaces/inkscape"
   xmlns:sodipodi="http://sodipodi.sourceforge.net/DTD/sodipodi-0.dtd"
   xmlns="http://www.w3.org/2000/svg"
   xmlns:svg="http://www.w3.org/2000/svg">
  <defs
     id="defs1">
    <clipPath
       clipPathUnits="userSpaceOnUse"
       id="clipPath2">
      <path
         d="M 0,0 H 1745.8333 V 753.33899 H 0 Z"
         transform="scale(0.33451077)"
         clip-rule="evenodd"
         id="path2" />
    </clipPath>
    <clipPath
       clipPathUnits="userSpaceOnUse"
       id="clipPath4">
      <path
         d="M 0,0 H 1745.8333 V 747.36011 H 0 Z"
         transform="matrix(0.33451077,0,0,0.33451077,-0.50000001,-0.50000001)"
         clip-rule="evenodd"
         id="path4" />
    </clipPath>
    <clipPath
       clipPathUnits="userSpaceOnUse"
       id="clipPath6">
      <path
         d="M 0,0 H 1745.8333 V 747.36011 H 0 Z"
         transform="matrix(0.33451077,0,0,0.33451077,-0.50000001,-0.50000001)"
         clip-rule="evenodd"
         id="path6" />
    </clipPath>
    <clipPath
       clipPathUnits="userSpaceOnUse"
       id="clipPath8">
      <path
         d="M 0,0 H 1745.8333 V 747.36011 H 0 Z"
         transform="matrix(0,0.33451077,-0.33451077,0,412.5,-350.49999)"
         clip-rule="evenodd"
         id="path8" />
    </clipPath>
    <clipPath
       clipPathUnits="userSpaceOnUse"
       id="clipPath9">
      <path
         d="M 0,0 H 1745.8333 V 747.36011 H 0 Z"
         transform="matrix(0.3345074,0,0,0.3345074,-352.64063,-80)"
         clip-rule="evenodd"
         id="path9" />
    </clipPath>
    <clipPath
       clipPathUnits="userSpaceOnUse"
       id="clipPath11">
      <path
         d="M 0,0 H 1745.8333 V 747.36011 H 0 Z"
         transform="matrix(0.33451077,0,0,0.33451077,-0.50000001,-0.50000001)"
         clip-rule="evenodd"
         id="path11" />
    </clipPath>
    <clipPath
       clipPathUnits="userSpaceOnUse"
       id="clipPath13">
      <path
         d="M 0,0 H 1745.8333 V 747.36011 H 0 Z"
         transform="matrix(0.33451077,0,0,0.33451077,-0.50000001,-0.50000001)"
         clip-rule="evenodd"
         id="path13" />
    </clipPath>
    <clipPath
       clipPathUnits="userSpaceOnUse"
       id="clipPath14">
      <path
         d="M 0,0 H 1745.8333 V 747.36011 H 0 Z"
         transform="matrix(0.3345074,0,0,0.3345074,-157.15626,-244)"
         clip-rule="evenodd"
         id="path14" />
    </clipPath>
    <clipPath
       clipPathUnits="userSpaceOnUse"
       id="clipPath16">
      <path
         d="M 0,0 H 1745.8333 V 747.36011 H 0 Z"
         transform="matrix(0.33451077,0,0,0.33451077,-0.50000001,-0.50000001)"
         clip-rule="evenodd"
         id="path16" />
    </clipPath>
    <clipPath
       clipPathUnits="userSpaceOnUse"
       id="clipPath18">
      <path
         d="M 0,0 H 1745.8333 V 747.36011 H 0 Z"
         transform="matrix(0.33451077,0,0,0.33451077,-0.50000001,-0.50000001)"
         clip-rule="evenodd"
         id="path18" />
    </clipPath>
    <clipPath
       clipPathUnits="userSpaceOnUse"
       id="clipPath19">
      <path
         d="M 0,0 H 1745.8333 V 747.36011 H 0 Z"
         transform="matrix(0.3345074,0,0,0.3345074,-239.29688,-244)"
         clip-rule="evenodd"
         id="path19" />
    </clipPath>
    <clipPath
       clipPathUnits="userSpaceOnUse"
       id="clipPath21">
      <path
         d="M 0,0 H 1745.8333 V 747.36011 H 0 Z"
         transform="matrix(0.33451077,0,0,0.33451077,-0.50000001,-0.50000001)"
         clip-rule="evenodd"
         id="path21" />
    </clipPath>
    <clipPath
       clipPathUnits="userSpaceOnUse"
       id="clipPath22">
      <path
         d="M 0,0 H 1745.8333 V 747.36011 H 0 Z"
         transform="matrix(0.3345074,0,0,0.3345074,-406.375,-167)"
         clip-rule="evenodd"
         id="path22" />
    </clipPath>
    <clipPath
       clipPathUnits="userSpaceOnUse"
       id="clipPath24">
      <path
         d="M 0,0 H 1745.8333 V 747.36011 H 0 Z"
         transform="matrix(0.33451077,0,0,0.33451077,-0.50000001,-0.50000001)"
         clip-rule="evenodd"
         id="path24" />
    </clipPath>
    <clipPath
       clipPathUnits="userSpaceOnUse"
       id="clipPath25">
      <path
         d="M 0,0 H 1745.8333 V 747.36011 H 0 Z"
         transform="matrix(0.3345074,0,0,0.3345074,-115.21875,-167)"
         clip-rule="evenodd"
         id="path25" />
    </clipPath>
  </defs>
  <sodipodi:namedview
     id="namedview1"
     pagecolor="#ffffff"
     bordercolor="#000000"
     borderopacity="0.25"
     inkscape:showpageshadow="2"
     inkscape:pageopacity="0.0"
     inkscape:pagecheckerboard="0"
     inkscape:deskcolor="#d1d1d1">
    <inkscape:page
       x="0"
       y="0"
       inkscape:label="1"
       id="page1"
       width="558.71997"
       height="241.27998"
       margin="0"
       bleed="0" />
  </sodipodi:namedview>
  <g
     id="g1"
     inkscape:groupmode="layer"
     inkscape:label="1">
    <path
       id="path1"
       d="M 0,0 H 584 V 252 H 0 Z"
       style="fill:#ffffff;fill-opacity:1;fill-rule:nonzero;stroke:none"
       transform="scale(0.95662089)"
       clip-path="url(#clipPath2)" />
    <path
       id="path3"
       d="M 221,61 H 541 V 221 H 221 Z"
       style="fill:#ffffff;fill-opacity:1;fill-rule:nonzero;stroke:#000000;stroke-width:1;stroke-linecap:butt;stroke-linejoin:miter;stroke-miterlimit:10;stroke-dasharray:none;stroke-opacity:1"
       transform="matrix(0.95662089,0,0,0.95662089,0.47831045,0.47831045)"
       clip-path="url(#clipPath4)" />
    <path
       id="path5"
       d="M 1,221 H 561.01001"
       style="fill:none;stroke:#000000;stroke-width:1;stroke-linecap:butt;stroke-linejoin:miter;stroke-miterlimit:10;stroke-dasharray:none;stroke-opacity:1"
       transform="matrix(0.95662089,0,0,0.95662089,0.47831045,0.47831045)"
       clip-path="url(#clipPath6)" />
    <path
       id="path7"
       d="M 351,-169 411,31 351,231 Z"
       style="fill:#ffffff;fill-opacity:1;fill-rule:nonzero;stroke:#000000;stroke-width:1;stroke-linecap:butt;stroke-linejoin:miter;stroke-miterlimit:10;stroke-dasharray:none;stroke-opacity:1"
       transform="matrix(0,-0.95662089,0.95662089,0,335.29561,394.60612)"
       clip-path="url(#clipPath8)" />
    <text
       id="text8"
       xml:space="preserve"
       transform="matrix(0.95663052,0,0,0.95663052,337.34679,76.530442)"
       clip-path="url(#clipPath9)"><tspan
         style="font-variant:normal;font-weight:700;font-size:17px;font-family:Helvetica;writing-mode:lr-tb;fill:#000000;fill-opacity:1;fill-rule:nonzero;stroke:none"
         x="0 12.276855 21.731445 31.186035 40.640625 47.256348"
         y="0"
         sodipodi:role="line"
         id="tspan8">Bakery</tspan></text>
    <path
       id="path10"
       d="m 186.00015,116 c -1e-5,0.98492 -0.0961,1.96038 -0.28825,2.92638 -0.19216,0.96599 -0.47669,1.90396 -0.85359,2.81392 -0.37691,0.90995 -0.83896,1.7744 -1.38616,2.59333 -0.54719,0.81893 -1.16902,1.57663 -1.86546,2.27307 -0.69644,0.69645 -1.45413,1.31827 -2.27307,1.86545 -0.81894,0.5472 -1.68338,1.00925 -2.59334,1.38617 -0.90996,0.37691 -1.84793,0.66144 -2.81392,0.85359 -0.966,0.19216 -1.94145,0.28823 -2.92636,0.28824 -0.98492,-1e-5 -1.96039,-0.0961 -2.92639,-0.28822 -0.96602,-0.19216 -1.90399,-0.4767 -2.81395,-0.85361 -0.90996,-0.37692 -1.7744,-0.83897 -2.59332,-1.38617 -0.81893,-0.54719 -1.57662,-1.16901 -2.27306,-1.86545 -0.69646,-0.69645 -1.31827,-1.45414 -1.86546,-2.27307 -0.54718,-0.81894 -1.00924,-1.68338 -1.38616,-2.59333 -0.37691,-0.90996 -0.66143,-1.84793 -0.85359,-2.81392 -0.19215,-0.966 -0.28822,-1.94146 -0.28822,-2.92638 0,-0.98493 0.0961,-1.9604 0.28822,-2.9264 0.19216,-0.96599 0.47668,-1.90397 0.85359,-2.81392 0.37692,-0.90995 0.83898,-1.7744 1.38616,-2.59333 0.54719,-0.81893 1.169,-1.57662 1.86546,-2.27306 0.69644,-0.69645 1.45413,-1.31828 2.27306,-1.86547 0.81892,-0.54719 1.68336,-1.00925 2.59332,-1.38616 0.90996,-0.37692 1.84793,-0.66145 2.81395,-0.8536 0.966,-0.19214 1.94147,-0.28821 2.92639,-0.28821 0.98491,0 1.96036,0.0961 2.92636,0.28821 0.96599,0.19215 1.90396,0.47668 2.81392,0.8536 0.90996,0.37691 1.7744,0.83897 2.59332,1.38616 0.81896,0.54719 1.57665,1.16902 2.27309,1.86547 0.69644,0.69644 1.31827,1.45413 1.86546,2.27306 0.5472,0.81893 1.00925,1.68338 1.38616,2.59333 0.3769,0.90995 0.66143,1.84793 0.85359,2.81393 0.19215,0.96599 0.28824,1.94146 0.28825,2.92639 z"
       style="fill:#ffffff;fill-opacity:1;fill-rule:nonzero;stroke:#000000;stroke-width:1;stroke-linecap:butt;stroke-linejoin:miter;stroke-miterlimit:10;stroke-dasharray:none;stroke-opacity:1"
       transform="matrix(0.95662089,0,0,0.95662089,0.47831045,0.47831045)"
       clip-path="url(#clipPath11)" />
    <path
       id="path12"
       d="m 171,131 v 50 m 0,-40 h -30 m 30,0 h 30 m -30,40 -30,40 m 30,-40 30,40"
       style="fill:none;stroke:#000000;stroke-width:1;stroke-linecap:butt;stroke-linejoin:miter;stroke-miterlimit:10;stroke-dasharray:none;stroke-opacity:1"
       transform="matrix(0.95662089,0,0,0.95662089,0.47831045,0.47831045)"
       clip-path="url(#clipPath13)" />
    <text
       id="text13"
       xml:space="preserve"
       transform="matrix(0.95663052,0,0,0.95663052,150.34047,233.41785)"
       clip-path="url(#clipPath14)"><tspan
         style="font-variant:normal;font-weight:normal;font-size:17px;font-family:Helvetica;writing-mode:lr-tb;fill:#000000;fill-opacity:1;fill-rule:nonzero;stroke:none"
         x="0 9.7783203 19.23291"
         y="0"
         sodipodi:role="line"
         id="tspan13">You</tspan></text>
    <path
       id="path15"
       d="m 276.00015,116 c 0,0.98492 -0.0961,1.96038 -0.28824,2.92638 -0.19217,0.96599 -0.47668,1.90396 -0.8536,2.81392 -0.37693,0.90995 -0.83896,1.7744 -1.38614,2.59333 -0.54721,0.81893 -1.16904,1.57663 -1.86548,2.27307 -0.69644,0.69645 -1.45416,1.31827 -2.2731,1.86545 -0.81894,0.5472 -1.68341,1.00925 -2.59336,1.38617 -0.90994,0.37691 -1.8479,0.66144 -2.81387,0.85359 -0.966,0.19216 -1.94147,0.28823 -2.92636,0.28824 -0.98492,-1e-5 -1.96039,-0.0961 -2.92639,-0.28822 -0.96601,-0.19216 -1.90399,-0.4767 -2.81395,-0.85361 -0.90996,-0.37692 -1.7744,-0.83897 -2.59334,-1.38617 -0.81892,-0.54719 -1.57661,-1.16901 -2.27306,-1.86545 -0.69645,-0.69645 -1.31826,-1.45414 -1.86546,-2.27307 -0.54719,-0.81894 -1.00926,-1.68338 -1.38617,-2.59333 -0.37691,-0.90996 -0.66144,-1.84793 -0.85357,-2.81392 -0.19216,-0.966 -0.28823,-1.94146 -0.28821,-2.92638 -2e-5,-0.98493 0.096,-1.9604 0.28821,-2.9264 0.19213,-0.96599 0.47666,-1.90397 0.85357,-2.81392 0.37691,-0.90995 0.83896,-1.7744 1.38616,-2.59333 0.54719,-0.81893 1.16902,-1.57662 1.86547,-2.27306 0.69645,-0.69645 1.45414,-1.31828 2.27306,-1.86547 0.81894,-0.54719 1.68338,-1.00925 2.59334,-1.38616 0.90996,-0.37692 1.84794,-0.66145 2.81395,-0.8536 0.966,-0.19214 1.94147,-0.28821 2.92639,-0.28821 0.98489,0 1.96036,0.0961 2.92636,0.28821 0.96597,0.19215 1.90393,0.47668 2.81387,0.8536 0.90995,0.37691 1.77442,0.83897 2.59336,1.38616 0.81894,0.54719 1.57663,1.16902 2.27307,1.86547 0.69644,0.69644 1.31827,1.45413 1.86548,2.27306 0.54721,0.81893 1.00924,1.68338 1.38617,2.59333 0.37692,0.90995 0.66143,1.84793 0.8536,2.81393 0.19217,0.96599 0.28824,1.94146 0.28824,2.92639 z"
       style="fill:#ffffff;fill-opacity:1;fill-rule:nonzero;stroke:#000000;stroke-width:1;stroke-linecap:butt;stroke-linejoin:miter;stroke-miterlimit:10;stroke-dasharray:none;stroke-opacity:1"
       transform="matrix(0.95662089,0,0,0.95662089,0.47831045,0.47831045)"
       clip-path="url(#clipPath16)" />
    <path
       id="path17"
       d="m 261,131 v 50 m 0,-40 h -30 m 30,0 h 30 m -30,40 -30,40 m 30,-40 30,40"
       style="fill:none;stroke:#000000;stroke-width:1;stroke-linecap:butt;stroke-linejoin:miter;stroke-miterlimit:10;stroke-dasharray:none;stroke-opacity:1"
       transform="matrix(0.95662089,0,0,0.95662089,0.47831045,0.47831045)"
       clip-path="url(#clipPath18)" />
    <text
       id="text18"
       xml:space="preserve"
       transform="matrix(0.95663052,0,0,0.95663052,228.9187,233.41785)"
       clip-path="url(#clipPath19)"><tspan
         style="font-variant:normal;font-weight:normal;font-size:17px;font-family:Helvetica;writing-mode:lr-tb;fill:#000000;fill-opacity:1;fill-rule:nonzero;stroke:none"
         x="0 11.338867 20.793457 29.293457 38.748047"
         y="0"
         sodipodi:role="line"
         id="tspan18">Baker</tspan></text>
    <path
       id="path20"
       d="m 413.5,136 c -34,0 -42.5,25 -15.29999,30 -27.20001,11 3.4,35 25.5,25 15.29999,20 66.29999,20 83.31,0 34,0 34,-20 12.75,-30 21.25,-20 -12.75,-40 -42.51001,-30 C 456,116 422,116 413.5,136 Z"
       style="fill:#ffffff;fill-opacity:1;fill-rule:nonzero;stroke:#000000;stroke-width:1;stroke-linecap:butt;stroke-linejoin:miter;stroke-miterlimit:10;stroke-dasharray:none;stroke-opacity:1"
       transform="matrix(0.95662089,0,0,0.95662089,0.47831045,0.47831045)"
       clip-path="url(#clipPath21)" />
    <text
       id="text21"
       xml:space="preserve"
       transform="matrix(0.95663052,0,0,0.95663052,388.75073,159.7573)"
       clip-path="url(#clipPath22)"><tspan
         style="font-variant:normal;font-weight:normal;font-size:17px;font-family:Helvetica;writing-mode:lr-tb;fill:#000000;fill-opacity:1;fill-rule:nonzero;stroke:none"
         x="0 11.338867 15.115723 18.892578 28.347168 33.070312 42.524902 47.248047 51.971191 61.425781 70.880371 80.334961 89.789551"
         y="0"
         sodipodi:role="line"
         id="tspan21">Pile of dough</tspan></text>
    <path
       id="path23"
       d="m 128.5,136 c -34,0 -42.5,25 -15.3,30 -27.2,11 3.4,35 25.5,25 15.3,20 66.3,20 83.3,0 34,0 34,-20 12.75,-30 C 256,141 222,121 192.25,131 171,116 137,116 128.5,136 Z"
       style="fill:#ffffff;fill-opacity:1;fill-rule:nonzero;stroke:#000000;stroke-width:1;stroke-linecap:butt;stroke-linejoin:miter;stroke-miterlimit:10;stroke-dasharray:none;stroke-opacity:1"
       transform="matrix(0.95662089,0,0,0.95662089,0.47831045,0.47831045)"
       clip-path="url(#clipPath24)" />
    <text
       id="text24"
       xml:space="preserve"
       transform="matrix(0.95663052,0,0,0.95663052,110.22177,159.7573)"
       clip-path="url(#clipPath25)"><tspan
         style="font-variant:normal;font-weight:normal;font-size:17px;font-family:Helvetica;writing-mode:lr-tb;fill:#000000;fill-opacity:1;fill-rule:nonzero;stroke:none"
         x="0 9.4545898 13.231445 22.686035 31.186035 40.640625 45.36377 54.818359 59.541504 64.264648 73.719238 83.173828 92.628418 102.08301"
         y="0"
         sodipodi:role="line"
         id="tspan24">piece of dough</tspan></text>
  </g>
</svg>
