<?xml version="1.0" encoding="UTF-8" standalone="no"?>
<!-- Created with Inkscape (http://www.inkscape.org/) -->

<svg
   version="1.1"
   id="svg1"
   width="654.71997"
   height="392"
   viewBox="0 0 654.71997 392"
   sodipodi:docname="sql-11.pdf"
   xmlns:inkscape="http://www.inkscape.org/namespaces/inkscape"
   xmlns:sodipodi="http://sodipodi.sourceforge.net/DTD/sodipodi-0.dtd"
   xmlns="http://www.w3.org/2000/svg"
   xmlns:svg="http://www.w3.org/2000/svg">
  <defs
     id="defs1">
    <clipPath
       clipPathUnits="userSpaceOnUse"
       id="clipPath2">
      <path
         d="M 0,0 H 2045.8333 V 1223.3125 H 0 Z"
         transform="scale(0.33433811)"
         clip-rule="evenodd"
         id="path2" />
    </clipPath>
    <clipPath
       clipPathUnits="userSpaceOnUse"
       id="clipPath3">
      <path
         d="M 0,0 H 1771 V 875 H 0 Z"
         transform="matrix(0.33433811,0,0,0.33433811,44.976011,79.750191)"
         id="path3" />
    </clipPath>
    <clipPath
       clipPathUnits="userSpaceOnUse"
       id="clipPath5">
      <path
         d="M 0,0 H 2045.8333 V 1220.3215 H 0 Z"
         transform="scale(0.31999999)"
         clip-rule="evenodd"
         id="path5" />
    </clipPath>
    <clipPath
       clipPathUnits="userSpaceOnUse"
       id="clipPath7">
      <path
         d="M 0,0 H 2045.8333 V 1220.3215 H 0 Z"
         transform="matrix(0.33433811,0,0,0.33433811,-0.5,-0.5)"
         clip-rule="evenodd"
         id="path7" />
    </clipPath>
    <clipPath
       clipPathUnits="userSpaceOnUse"
       id="clipPath9">
      <path
         d="M 0,0 H 2045.8333 V 1220.3215 H 0 Z"
         transform="matrix(0.33433811,0,0,0.33433811,-0.5,-0.5)"
         clip-rule="evenodd"
         id="path9" />
    </clipPath>
    <clipPath
       clipPathUnits="userSpaceOnUse"
       id="clipPath10">
      <path
         d="M 0,0 H 2045.8333 V 1220.3215 H 0 Z"
         transform="matrix(0.33433476,0,0,0.33433476,-22.093751,-28)"
         clip-rule="evenodd"
         id="path10" />
    </clipPath>
    <clipPath
       clipPathUnits="userSpaceOnUse"
       id="clipPath12">
      <path
         d="M 0,0 H 2045.8333 V 1220.3215 H 0 Z"
         transform="matrix(0.33433811,0,0,0.33433811,-0.5,-0.5)"
         clip-rule="evenodd"
         id="path12" />
    </clipPath>
    <clipPath
       clipPathUnits="userSpaceOnUse"
       id="clipPath13">
      <path
         d="M 0,0 H 2045.8333 V 1220.3215 H 0 Z"
         transform="matrix(0.33433476,0,0,0.33433476,-146.73438,-28)"
         clip-rule="evenodd"
         id="path13" />
    </clipPath>
    <clipPath
       clipPathUnits="userSpaceOnUse"
       id="clipPath15">
      <path
         d="M 0,0 H 2045.8333 V 1220.3215 H 0 Z"
         transform="matrix(0.33433811,0,0,0.33433811,-0.5,-0.5)"
         clip-rule="evenodd"
         id="path15" />
    </clipPath>
    <clipPath
       clipPathUnits="userSpaceOnUse"
       id="clipPath16">
      <path
         d="M 0,0 H 2045.8333 V 1220.3215 H 0 Z"
         transform="matrix(0.33433476,0,0,0.33433476,-471.54688,-28)"
         clip-rule="evenodd"
         id="path16" />
    </clipPath>
    <clipPath
       clipPathUnits="userSpaceOnUse"
       id="clipPath18">
      <path
         d="M 0,0 H 2045.8333 V 1220.3215 H 0 Z"
         transform="matrix(0.33433811,0,0,0.33433811,-0.5,-0.5)"
         clip-rule="evenodd"
         id="path18" />
    </clipPath>
    <clipPath
       clipPathUnits="userSpaceOnUse"
       id="clipPath19">
      <path
         d="M 0,0 H 2045.8333 V 1220.3215 H 0 Z"
         transform="matrix(0.33433476,0,0,0.33433476,-595.4375,-28)"
         clip-rule="evenodd"
         id="path19" />
    </clipPath>
    <clipPath
       clipPathUnits="userSpaceOnUse"
       id="clipPath20">
      <path
         d="M 0,0 H 1771 V 96 H 0 Z"
         transform="matrix(0.33433811,0,0,0.33433811,44.976011,369.95565)"
         id="path20" />
    </clipPath>
    <clipPath
       clipPathUnits="userSpaceOnUse"
       id="clipPath22">
      <path
         d="M 0,0 H 2045.8333 V 1220.3215 H 0 Z"
         transform="scale(0.31999999)"
         clip-rule="evenodd"
         id="path22" />
    </clipPath>
    <clipPath
       clipPathUnits="userSpaceOnUse"
       id="clipPath24">
      <path
         d="M 0,0 H 2045.8333 V 1220.3215 H 0 Z"
         transform="matrix(0.33433811,0,0,0.33433811,-0.5,-0.5)"
         clip-rule="evenodd"
         id="path24" />
    </clipPath>
    <clipPath
       clipPathUnits="userSpaceOnUse"
       id="clipPath25">
      <path
         d="M 0,0 H 2045.8333 V 1220.3215 H 0 Z"
         transform="matrix(0.33433476,0,0,0.33433476,-293.90625,-393)"
         clip-rule="evenodd"
         id="path25" />
    </clipPath>
    <clipPath
       clipPathUnits="userSpaceOnUse"
       id="clipPath26">
      <path
         d="M 0,0 H 1682 V 82 H 0 Z"
         transform="matrix(0.33433811,0,0,0.33433811,59.686889,99.810477)"
         id="path26" />
    </clipPath>
    <clipPath
       clipPathUnits="userSpaceOnUse"
       id="clipPath28">
      <path
         d="M 0,0 H 2045.8333 V 1220.3215 H 0 Z"
         transform="scale(0.31999999)"
         clip-rule="evenodd"
         id="path28" />
    </clipPath>
    <clipPath
       clipPathUnits="userSpaceOnUse"
       id="clipPath30">
      <path
         d="M 0,0 H 2045.8333 V 1220.3215 H 0 Z"
         transform="matrix(0.33433811,0,0,0.33433811,-0.5,-0.5)"
         clip-rule="evenodd"
         id="path30" />
    </clipPath>
    <clipPath
       clipPathUnits="userSpaceOnUse"
       id="clipPath31">
      <path
         d="M 0,0 H 2045.8333 V 1220.3215 H 0 Z"
         transform="matrix(0.33433476,0,0,0.33433476,-318.20313,-121)"
         clip-rule="evenodd"
         id="path31" />
    </clipPath>
    <clipPath
       clipPathUnits="userSpaceOnUse"
       id="clipPath32">
      <path
         d="M 0,0 H 336 V 82 H 0 Z"
         transform="matrix(0.33433811,0,0,0.33433811,459.88962,124.88584)"
         id="path32" />
    </clipPath>
    <clipPath
       clipPathUnits="userSpaceOnUse"
       id="clipPath34">
      <path
         d="M 0,0 H 2045.8333 V 1220.3215 H 0 Z"
         transform="scale(0.31999999)"
         clip-rule="evenodd"
         id="path34" />
    </clipPath>
    <clipPath
       clipPathUnits="userSpaceOnUse"
       id="clipPath36">
      <path
         d="M 0,0 H 2045.8333 V 1220.3215 H 0 Z"
         transform="matrix(0.33433811,0,0,0.33433811,-0.5,-0.5)"
         clip-rule="evenodd"
         id="path36" />
    </clipPath>
    <clipPath
       clipPathUnits="userSpaceOnUse"
       id="clipPath37">
      <path
         d="M 0,0 H 2045.8333 V 1220.3215 H 0 Z"
         transform="matrix(0.33433476,0,0,0.33433476,-479.96875,-143)"
         clip-rule="evenodd"
         id="path37" />
    </clipPath>
    <clipPath
       clipPathUnits="userSpaceOnUse"
       id="clipPath38">
      <path
         d="M 0,0 H 156 V 81 H 0 Z"
         transform="matrix(0.33433811,0,0,0.33433811,459.88962,149.96119)"
         id="path38" />
    </clipPath>
    <clipPath
       clipPathUnits="userSpaceOnUse"
       id="clipPath40">
      <path
         d="M 0,0 H 2045.8333 V 1220.3215 H 0 Z"
         transform="scale(0.31999999)"
         clip-rule="evenodd"
         id="path40" />
    </clipPath>
    <clipPath
       clipPathUnits="userSpaceOnUse"
       id="clipPath42">
      <path
         d="M 0,0 H 2045.8333 V 1220.3215 H 0 Z"
         transform="matrix(0.33433811,0,0,0.33433811,-0.5,-0.5)"
         clip-rule="evenodd"
         id="path42" />
    </clipPath>
    <clipPath
       clipPathUnits="userSpaceOnUse"
       id="clipPath43">
      <path
         d="M 0,0 H 2045.8333 V 1220.3215 H 0 Z"
         transform="matrix(0.33433476,0,0,0.33433476,-474.65625,-167)"
         clip-rule="evenodd"
         id="path43" />
    </clipPath>
    <clipPath
       clipPathUnits="userSpaceOnUse"
       id="clipPath44">
      <path
         d="M 0,0 H 156 V 82 H 0 Z"
         transform="matrix(0.33433811,0,0,0.33433811,459.88962,174.70221)"
         id="path44" />
    </clipPath>
    <clipPath
       clipPathUnits="userSpaceOnUse"
       id="clipPath46">
      <path
         d="M 0,0 H 2045.8333 V 1220.3215 H 0 Z"
         transform="scale(0.31999999)"
         clip-rule="evenodd"
         id="path46" />
    </clipPath>
    <clipPath
       clipPathUnits="userSpaceOnUse"
       id="clipPath48">
      <path
         d="M 0,0 H 2045.8333 V 1220.3215 H 0 Z"
         transform="matrix(0.33433811,0,0,0.33433811,-0.5,-0.5)"
         clip-rule="evenodd"
         id="path48" />
    </clipPath>
    <clipPath
       clipPathUnits="userSpaceOnUse"
       id="clipPath49">
      <path
         d="M 0,0 H 2045.8333 V 1220.3215 H 0 Z"
         transform="matrix(0.33433476,0,0,0.33433476,-473.65625,-193)"
         clip-rule="evenodd"
         id="path49" />
    </clipPath>
    <clipPath
       clipPathUnits="userSpaceOnUse"
       id="clipPath50">
      <path
         d="M 0,0 H 156 V 82 H 0 Z"
         transform="matrix(0.33433811,0,0,0.33433811,459.88962,199.77757)"
         id="path50" />
    </clipPath>
    <clipPath
       clipPathUnits="userSpaceOnUse"
       id="clipPath52">
      <path
         d="M 0,0 H 2045.8333 V 1220.3215 H 0 Z"
         transform="scale(0.31999999)"
         clip-rule="evenodd"
         id="path52" />
    </clipPath>
    <clipPath
       clipPathUnits="userSpaceOnUse"
       id="clipPath54">
      <path
         d="M 0,0 H 2045.8333 V 1220.3215 H 0 Z"
         transform="matrix(0.33433811,0,0,0.33433811,-0.5,-0.5)"
         clip-rule="evenodd"
         id="path54" />
    </clipPath>
    <clipPath
       clipPathUnits="userSpaceOnUse"
       id="clipPath55">
      <path
         d="M 0,0 H 2045.8333 V 1220.3215 H 0 Z"
         transform="matrix(0.33433476,0,0,0.33433476,-472.98438,-218)"
         clip-rule="evenodd"
         id="path55" />
    </clipPath>
    <clipPath
       clipPathUnits="userSpaceOnUse"
       id="clipPath56">
      <path
         d="M 0,0 H 156 V 82 H 0 Z"
         transform="matrix(0.33433811,0,0,0.33433811,459.88962,224.85293)"
         id="path56" />
    </clipPath>
    <clipPath
       clipPathUnits="userSpaceOnUse"
       id="clipPath58">
      <path
         d="M 0,0 H 2045.8333 V 1220.3215 H 0 Z"
         transform="scale(0.31999999)"
         clip-rule="evenodd"
         id="path58" />
    </clipPath>
    <clipPath
       clipPathUnits="userSpaceOnUse"
       id="clipPath60">
      <path
         d="M 0,0 H 2045.8333 V 1220.3215 H 0 Z"
         transform="matrix(0.33433811,0,0,0.33433811,-0.5,-0.5)"
         clip-rule="evenodd"
         id="path60" />
    </clipPath>
    <clipPath
       clipPathUnits="userSpaceOnUse"
       id="clipPath61">
      <path
         d="M 0,0 H 2045.8333 V 1220.3215 H 0 Z"
         transform="matrix(0.33433476,0,0,0.33433476,-475.65625,-243)"
         clip-rule="evenodd"
         id="path61" />
    </clipPath>
    <clipPath
       clipPathUnits="userSpaceOnUse"
       id="clipPath62">
      <path
         d="M 0,0 H 156 V 81 H 0 Z"
         transform="matrix(0.33433811,0,0,0.33433811,459.88962,249.92829)"
         id="path62" />
    </clipPath>
    <clipPath
       clipPathUnits="userSpaceOnUse"
       id="clipPath64">
      <path
         d="M 0,0 H 2045.8333 V 1220.3215 H 0 Z"
         transform="scale(0.31999999)"
         clip-rule="evenodd"
         id="path64" />
    </clipPath>
    <clipPath
       clipPathUnits="userSpaceOnUse"
       id="clipPath66">
      <path
         d="M 0,0 H 2045.8333 V 1220.3215 H 0 Z"
         transform="matrix(0.33433811,0,0,0.33433811,-0.5,-0.5)"
         clip-rule="evenodd"
         id="path66" />
    </clipPath>
    <clipPath
       clipPathUnits="userSpaceOnUse"
       id="clipPath67">
      <path
         d="M 0,0 H 2045.8333 V 1220.3215 H 0 Z"
         transform="matrix(0.33433476,0,0,0.33433476,-473.65625,-268)"
         clip-rule="evenodd"
         id="path67" />
    </clipPath>
    <clipPath
       clipPathUnits="userSpaceOnUse"
       id="clipPath68">
      <path
         d="M 0,0 H 156 V 82 H 0 Z"
         transform="matrix(0.33433811,0,0,0.33433811,459.88962,274.66931)"
         id="path68" />
    </clipPath>
    <clipPath
       clipPathUnits="userSpaceOnUse"
       id="clipPath70">
      <path
         d="M 0,0 H 2045.8333 V 1220.3215 H 0 Z"
         transform="scale(0.31999999)"
         clip-rule="evenodd"
         id="path70" />
    </clipPath>
    <clipPath
       clipPathUnits="userSpaceOnUse"
       id="clipPath72">
      <path
         d="M 0,0 H 2045.8333 V 1220.3215 H 0 Z"
         transform="matrix(0.33433811,0,0,0.33433811,-0.5,-0.5)"
         clip-rule="evenodd"
         id="path72" />
    </clipPath>
    <clipPath
       clipPathUnits="userSpaceOnUse"
       id="clipPath73">
      <path
         d="M 0,0 H 2045.8333 V 1220.3215 H 0 Z"
         transform="matrix(0.33433476,0,0,0.33433476,-475.65625,-293)"
         clip-rule="evenodd"
         id="path73" />
    </clipPath>
    <clipPath
       clipPathUnits="userSpaceOnUse"
       id="clipPath74">
      <path
         d="M 0,0 H 156 V 82 H 0 Z"
         transform="matrix(0.33433811,0,0,0.33433811,459.88962,299.74467)"
         id="path74" />
    </clipPath>
    <clipPath
       clipPathUnits="userSpaceOnUse"
       id="clipPath76">
      <path
         d="M 0,0 H 2045.8333 V 1220.3215 H 0 Z"
         transform="scale(0.31999999)"
         clip-rule="evenodd"
         id="path76" />
    </clipPath>
    <clipPath
       clipPathUnits="userSpaceOnUse"
       id="clipPath78">
      <path
         d="M 0,0 H 2045.8333 V 1220.3215 H 0 Z"
         transform="matrix(0.33433811,0,0,0.33433811,-0.5,-0.5)"
         clip-rule="evenodd"
         id="path78" />
    </clipPath>
    <clipPath
       clipPathUnits="userSpaceOnUse"
       id="clipPath79">
      <path
         d="M 0,0 H 2045.8333 V 1220.3215 H 0 Z"
         transform="matrix(0.33433476,0,0,0.33433476,-473,-318)"
         clip-rule="evenodd"
         id="path79" />
    </clipPath>
    <clipPath
       clipPathUnits="userSpaceOnUse"
       id="clipPath80">
      <path
         d="M 0,0 H 156 V 82 H 0 Z"
         transform="matrix(0.33433811,0,0,0.33433811,459.88962,324.82003)"
         id="path80" />
    </clipPath>
    <clipPath
       clipPathUnits="userSpaceOnUse"
       id="clipPath82">
      <path
         d="M 0,0 H 2045.8333 V 1220.3215 H 0 Z"
         transform="scale(0.31999999)"
         clip-rule="evenodd"
         id="path82" />
    </clipPath>
    <clipPath
       clipPathUnits="userSpaceOnUse"
       id="clipPath84">
      <path
         d="M 0,0 H 2045.8333 V 1220.3215 H 0 Z"
         transform="matrix(0.33433811,0,0,0.33433811,-0.5,-0.5)"
         clip-rule="evenodd"
         id="path84" />
    </clipPath>
    <clipPath
       clipPathUnits="userSpaceOnUse"
       id="clipPath85">
      <path
         d="M 0,0 H 2045.8333 V 1220.3215 H 0 Z"
         transform="matrix(0.33433476,0,0,0.33433476,-475.65625,-343)"
         clip-rule="evenodd"
         id="path85" />
    </clipPath>
    <clipPath
       clipPathUnits="userSpaceOnUse"
       id="clipPath87">
      <path
         d="M 0,0 H 2045.8333 V 1220.3215 H 0 Z"
         transform="matrix(0.33433811,0,0,0.33433811,-0.5,-0.5)"
         clip-rule="evenodd"
         id="path87" />
    </clipPath>
    <clipPath
       clipPathUnits="userSpaceOnUse"
       id="clipPath88">
      <path
         d="M 0,0 H 2045.8333 V 1220.3215 H 0 Z"
         transform="matrix(0.33433476,0,0,0.33433476,-241.98438,-28)"
         clip-rule="evenodd"
         id="path88" />
    </clipPath>
    <clipPath
       clipPathUnits="userSpaceOnUse"
       id="clipPath90">
      <path
         d="M 0,0 H 2045.8333 V 1220.3215 H 0 Z"
         transform="matrix(0.33433811,0,0,0.33433811,-0.5,-0.5)"
         clip-rule="evenodd"
         id="path90" />
    </clipPath>
    <clipPath
       clipPathUnits="userSpaceOnUse"
       id="clipPath91">
      <path
         d="M 0,0 H 2045.8333 V 1220.3215 H 0 Z"
         transform="matrix(0.33433476,0,0,0.33433476,-307.95313,-28)"
         clip-rule="evenodd"
         id="path91" />
    </clipPath>
  </defs>
  <sodipodi:namedview
     id="namedview1"
     pagecolor="#ffffff"
     bordercolor="#000000"
     borderopacity="0.25"
     inkscape:showpageshadow="2"
     inkscape:pageopacity="0.0"
     inkscape:pagecheckerboard="0"
     inkscape:deskcolor="#d1d1d1">
    <inkscape:page
       x="0"
       y="0"
       inkscape:label="1"
       id="page1"
       width="654.71997"
       height="392"
       margin="0"
       bleed="0" />
  </sodipodi:namedview>
  <g
     id="g1"
     inkscape:groupmode="layer"
     inkscape:label="1">
    <path
       id="path1"
       d="M 0,0 H 684 V 409 H 0 Z"
       style="fill:#ffffff;fill-opacity:1;fill-rule:nonzero;stroke:none"
       transform="scale(0.9571149)"
       clip-path="url(#clipPath2)" />
    <g
       opacity="0.25"
       id="g4"
       clip-path="url(#clipPath5)">
      <path
         d="M 46,81 H 636.01001 V 371 H 46 Z"
         style="fill:#000000;fill-opacity:1;fill-rule:nonzero;stroke:#000000;stroke-width:1;stroke-linecap:butt;stroke-linejoin:miter;stroke-miterlimit:10;stroke-dasharray:none;stroke-opacity:1"
         transform="matrix(0.9571149,0,0,0.9571149,2.3927881,3.3499007)"
         clip-path="url(#clipPath3)"
         id="path4" />
    </g>
    <path
       id="path6"
       d="M 46,81 H 636.01001 V 371 H 46 Z"
       style="fill:#d5e8d4;fill-opacity:1;fill-rule:nonzero;stroke:#82b366;stroke-width:1;stroke-linecap:butt;stroke-linejoin:miter;stroke-miterlimit:10;stroke-dasharray:none;stroke-opacity:1"
       transform="matrix(0.9571149,0,0,0.9571149,0.47855745,0.47855745)"
       clip-path="url(#clipPath7)" />
    <path
       id="path8"
       d="M 1,1 H 121 V 41 H 1 Z"
       style="fill:#dae8fc;fill-opacity:1;fill-rule:nonzero;stroke:#6c8ebf;stroke-width:1;stroke-linecap:butt;stroke-linejoin:miter;stroke-miterlimit:10;stroke-dasharray:none;stroke-opacity:1"
       transform="matrix(0.9571149,0,0,0.9571149,0.47855745,0.47855745)"
       clip-path="url(#clipPath9)" />
    <text
       id="text9"
       xml:space="preserve"
       transform="matrix(0.9571245,0,0,0.9571245,21.14647,26.799486)"
       clip-path="url(#clipPath10)"><tspan
         style="font-variant:normal;font-weight:normal;font-size:20px;font-family:Helvetica;writing-mode:lr-tb;fill:#000000;fill-opacity:1;fill-rule:nonzero;stroke:none"
         x="0 13.339844 26.679688 37.802734 51.142578 65.585938"
         y="0"
         sodipodi:role="line"
         id="tspan9">SELECT</tspan></text>
    <path
       id="path11"
       d="m 121,1 h 90 v 40 h -90 z"
       style="fill:#dae8fc;fill-opacity:1;fill-rule:nonzero;stroke:#6c8ebf;stroke-width:1;stroke-linecap:butt;stroke-linejoin:miter;stroke-miterlimit:10;stroke-dasharray:none;stroke-opacity:1"
       transform="matrix(0.9571149,0,0,0.9571149,0.47855745,0.47855745)"
       clip-path="url(#clipPath12)" />
    <text
       id="text12"
       xml:space="preserve"
       transform="matrix(0.9571245,0,0,0.9571245,140.44307,26.799486)"
       clip-path="url(#clipPath13)"><tspan
         style="font-variant:normal;font-weight:normal;font-size:21px;font-family:Helvetica;writing-mode:lr-tb;fill:#000000;fill-opacity:1;fill-rule:nonzero;stroke:none"
         x="0 4.6655273 15.165527 26.844727"
         y="0"
         sodipodi:role="line"
         id="tspan12">iso3</tspan></text>
    <path
       id="path14"
       d="M 441,1 H 561 V 41 H 441 Z"
       style="fill:#dae8fc;fill-opacity:1;fill-rule:nonzero;stroke:#6c8ebf;stroke-width:1;stroke-linecap:butt;stroke-linejoin:miter;stroke-miterlimit:10;stroke-dasharray:none;stroke-opacity:1"
       transform="matrix(0.9571149,0,0,0.9571149,0.47855745,0.47855745)"
       clip-path="url(#clipPath15)" />
    <text
       id="text15"
       xml:space="preserve"
       transform="matrix(0.9571245,0,0,0.9571245,451.32907,26.799486)"
       clip-path="url(#clipPath16)"><tspan
         style="font-variant:normal;font-weight:normal;font-size:20px;font-family:Helvetica;writing-mode:lr-tb;fill:#000000;fill-opacity:1;fill-rule:nonzero;stroke:none"
         x="0 12.216797 26.660156 42.216797"
         y="0"
         sodipodi:role="line"
         id="tspan15">FROM</tspan></text>
    <path
       id="path17"
       d="m 561.01001,1 h 120 v 40 h -120 z"
       style="fill:#dae8fc;fill-opacity:1;fill-rule:nonzero;stroke:#6c8ebf;stroke-width:1;stroke-linecap:butt;stroke-linejoin:miter;stroke-miterlimit:10;stroke-dasharray:none;stroke-opacity:1"
       transform="matrix(0.9571149,0,0,0.9571149,0.47855745,0.47855745)"
       clip-path="url(#clipPath18)" />
    <text
       id="text18"
       xml:space="preserve"
       transform="matrix(0.9571245,0,0,0.9571245,569.90782,26.799486)"
       clip-path="url(#clipPath19)"><tspan
         style="font-variant:normal;font-weight:normal;font-size:20px;font-family:Helvetica;writing-mode:lr-tb;fill:#000000;fill-opacity:1;fill-rule:nonzero;stroke:none"
         x="0 10 14.443359 20 24.443359 35.566406 45.566406"
         y="0"
         sodipodi:role="line"
         id="tspan18">cities;</tspan></text>
    <g
       opacity="0.25"
       id="g21"
       clip-path="url(#clipPath22)">
      <path
         d="m 46,371 h 590.01001 v 30 H 46 Z"
         style="fill:#000000;fill-opacity:1;fill-rule:nonzero;stroke:#000000;stroke-width:1;stroke-linecap:butt;stroke-linejoin:miter;stroke-miterlimit:10;stroke-dasharray:none;stroke-opacity:1"
         transform="matrix(0.9571149,0,0,0.9571149,2.3927881,3.3499231)"
         clip-path="url(#clipPath20)"
         id="path21" />
    </g>
    <path
       id="path23"
       d="m 46,371 h 590.01001 v 30 H 46 Z"
       style="fill:#d5e8d4;fill-opacity:1;fill-rule:nonzero;stroke:#82b366;stroke-width:1;stroke-linecap:butt;stroke-linejoin:miter;stroke-miterlimit:10;stroke-dasharray:none;stroke-opacity:1"
       transform="matrix(0.9571149,0,0,0.9571149,0.47855745,0.47855745)"
       clip-path="url(#clipPath24)" />
    <text
       id="text24"
       xml:space="preserve"
       transform="matrix(0.9571245,0,0,0.9571245,281.30487,376.14993)"
       clip-path="url(#clipPath25)"><tspan
         style="font-variant:normal;font-weight:normal;font-size:22px;font-family:Helvetica;writing-mode:lr-tb;fill:#000000;fill-opacity:1;fill-rule:nonzero;stroke:none"
         x="0 15.887695 28.123047 34.235352 46.470703 58.706055 70.941406 81.941406"
         y="0"
         sodipodi:role="line"
         id="tspan24">Database</tspan></text>
    <g
       opacity="0.25"
       id="g27"
       clip-path="url(#clipPath28)">
      <path
         d="m 61,101 h 560.01001 v 25 H 61 Z"
         style="fill:#000000;fill-opacity:1;fill-rule:nonzero;stroke:#000000;stroke-width:1;stroke-linecap:butt;stroke-linejoin:miter;stroke-miterlimit:10;stroke-dasharray:none;stroke-opacity:1"
         transform="matrix(0.9571149,0,0,0.9571149,2.3927871,3.3499007)"
         clip-path="url(#clipPath26)"
         id="path27" />
    </g>
    <path
       id="path29"
       d="m 61,101 h 560.01001 v 25 H 61 Z"
       style="fill:#ffe6cc;fill-opacity:1;fill-rule:nonzero;stroke:#d79b00;stroke-width:1;stroke-linecap:butt;stroke-linejoin:miter;stroke-miterlimit:10;stroke-dasharray:none;stroke-opacity:1"
       transform="matrix(0.9571149,0,0,0.9571149,0.47855745,0.47855745)"
       clip-path="url(#clipPath30)" />
    <text
       id="text30"
       xml:space="preserve"
       transform="matrix(0.9571245,0,0,0.9571245,304.56001,115.81206)"
       clip-path="url(#clipPath31)"><tspan
         style="font-variant:normal;font-weight:normal;font-size:20px;font-family:Helvetica;writing-mode:lr-tb;fill:#000000;fill-opacity:1;fill-rule:nonzero;stroke:none"
         x="0 10 14.443359 20 24.443359 35.566406"
         y="0"
         sodipodi:role="line"
         id="tspan30">cities</tspan></text>
    <g
       opacity="0.25"
       id="g33"
       clip-path="url(#clipPath34)">
      <path
         d="m 461,126 h 110 v 25 H 461 Z"
         style="fill:#000000;fill-opacity:1;fill-rule:nonzero;stroke:#000000;stroke-width:1;stroke-linecap:butt;stroke-linejoin:miter;stroke-miterlimit:10;stroke-dasharray:none;stroke-opacity:1"
         transform="matrix(0.9571149,0,0,0.9571149,2.3927743,3.3499007)"
         clip-path="url(#clipPath32)"
         id="path33" />
    </g>
    <path
       id="path35"
       d="m 461,126 h 110 v 25 H 461 Z"
       style="fill:#f5f5f5;fill-opacity:1;fill-rule:nonzero;stroke:#666666;stroke-width:1;stroke-linecap:butt;stroke-linejoin:miter;stroke-miterlimit:10;stroke-dasharray:none;stroke-opacity:1"
       transform="matrix(0.9571149,0,0,0.9571149,0.47855745,0.47855745)"
       clip-path="url(#clipPath36)" />
    <text
       id="text36"
       xml:space="preserve"
       transform="matrix(0.9571245,0,0,0.9571245,459.38985,136.8688)"
       clip-path="url(#clipPath37)"><tspan
         style="font-style:oblique;font-variant:normal;font-weight:normal;font-size:12px;font-family:Helvetica;writing-mode:lr-tb;fill:#333333;fill-opacity:1;fill-rule:nonzero;stroke:none"
         x="0 6 12.673828 19.347656 26.021484 29.355469 33.351562 39.351562 46.025391 52.025391 58.699219 65.373047"
         y="0"
         sodipodi:role="line"
         id="tspan36">country_code</tspan></text>
    <g
       opacity="0.25"
       id="g39"
       clip-path="url(#clipPath40)">
      <path
         d="m 461,151 h 50 v 25 h -50 z"
         style="fill:#000000;fill-opacity:1;fill-rule:nonzero;stroke:#000000;stroke-width:1;stroke-linecap:butt;stroke-linejoin:miter;stroke-miterlimit:10;stroke-dasharray:none;stroke-opacity:1"
         transform="matrix(0.9571149,0,0,0.9571149,2.3927743,3.3499007)"
         clip-path="url(#clipPath38)"
         id="path39" />
    </g>
    <path
       id="path41"
       d="m 461,151 h 50 v 25 h -50 z"
       style="fill:#ffffff;fill-opacity:1;fill-rule:nonzero;stroke:#000000;stroke-width:1;stroke-linecap:butt;stroke-linejoin:miter;stroke-miterlimit:10;stroke-dasharray:none;stroke-opacity:1"
       transform="matrix(0.9571149,0,0,0.9571149,0.47855745,0.47855745)"
       clip-path="url(#clipPath42)" />
    <text
       id="text42"
       xml:space="preserve"
       transform="matrix(0.9571245,0,0,0.9571245,454.30513,159.83979)"
       clip-path="url(#clipPath43)"><tspan
         style="font-variant:normal;font-weight:normal;font-size:12px;font-family:Helvetica;writing-mode:lr-tb;fill:#000000;fill-opacity:1;fill-rule:nonzero;stroke:none"
         x="0 6 14.003906"
         y="0"
         sodipodi:role="line"
         id="tspan42">JPN</tspan></text>
    <g
       opacity="0.25"
       id="g45"
       clip-path="url(#clipPath46)">
      <path
         d="m 461,176 h 50 v 25 h -50 z"
         style="fill:#000000;fill-opacity:1;fill-rule:nonzero;stroke:#000000;stroke-width:1;stroke-linecap:butt;stroke-linejoin:miter;stroke-miterlimit:10;stroke-dasharray:none;stroke-opacity:1"
         transform="matrix(0.9571149,0,0,0.9571149,2.3927743,3.3499007)"
         clip-path="url(#clipPath44)"
         id="path45" />
    </g>
    <path
       id="path47"
       d="m 461,176 h 50 v 25 h -50 z"
       style="fill:#ffffff;fill-opacity:1;fill-rule:nonzero;stroke:#000000;stroke-width:1;stroke-linecap:butt;stroke-linejoin:miter;stroke-miterlimit:10;stroke-dasharray:none;stroke-opacity:1"
       transform="matrix(0.9571149,0,0,0.9571149,0.47855745,0.47855745)"
       clip-path="url(#clipPath48)" />
    <text
       id="text48"
       xml:space="preserve"
       transform="matrix(0.9571245,0,0,0.9571245,453.348,184.72503)"
       clip-path="url(#clipPath49)"><tspan
         style="font-variant:normal;font-weight:normal;font-size:12px;font-family:Helvetica;writing-mode:lr-tb;fill:#000000;fill-opacity:1;fill-rule:nonzero;stroke:none"
         x="0 8.6660156 16.669922"
         y="0"
         sodipodi:role="line"
         id="tspan48">USA</tspan></text>
    <g
       opacity="0.25"
       id="g51"
       clip-path="url(#clipPath52)">
      <path
         d="m 461,201 h 50 v 25 h -50 z"
         style="fill:#000000;fill-opacity:1;fill-rule:nonzero;stroke:#000000;stroke-width:1;stroke-linecap:butt;stroke-linejoin:miter;stroke-miterlimit:10;stroke-dasharray:none;stroke-opacity:1"
         transform="matrix(0.9571149,0,0,0.9571149,2.3927743,3.3499007)"
         clip-path="url(#clipPath50)"
         id="path51" />
    </g>
    <path
       id="path53"
       d="m 461,201 h 50 v 25 h -50 z"
       style="fill:#ffffff;fill-opacity:1;fill-rule:nonzero;stroke:#000000;stroke-width:1;stroke-linecap:butt;stroke-linejoin:miter;stroke-miterlimit:10;stroke-dasharray:none;stroke-opacity:1"
       transform="matrix(0.9571149,0,0,0.9571149,0.47855745,0.47855745)"
       clip-path="url(#clipPath54)" />
    <text
       id="text54"
       xml:space="preserve"
       transform="matrix(0.9571245,0,0,0.9571245,452.70494,208.65314)"
       clip-path="url(#clipPath55)"><tspan
         style="font-variant:normal;font-weight:normal;font-size:12px;font-family:Helvetica;writing-mode:lr-tb;fill:#000000;fill-opacity:1;fill-rule:nonzero;stroke:none"
         x="0 9.9960938 18"
         y="0"
         sodipodi:role="line"
         id="tspan54">MEX</tspan></text>
    <g
       opacity="0.25"
       id="g57"
       clip-path="url(#clipPath58)">
      <path
         d="m 461,226 h 50 v 25 h -50 z"
         style="fill:#000000;fill-opacity:1;fill-rule:nonzero;stroke:#000000;stroke-width:1;stroke-linecap:butt;stroke-linejoin:miter;stroke-miterlimit:10;stroke-dasharray:none;stroke-opacity:1"
         transform="matrix(0.9571149,0,0,0.9571149,2.3927743,3.3499007)"
         clip-path="url(#clipPath56)"
         id="path57" />
    </g>
    <path
       id="path59"
       d="m 461,226 h 50 v 25 h -50 z"
       style="fill:#ffffff;fill-opacity:1;fill-rule:nonzero;stroke:#000000;stroke-width:1;stroke-linecap:butt;stroke-linejoin:miter;stroke-miterlimit:10;stroke-dasharray:none;stroke-opacity:1"
       transform="matrix(0.9571149,0,0,0.9571149,0.47855745,0.47855745)"
       clip-path="url(#clipPath60)" />
    <text
       id="text60"
       xml:space="preserve"
       transform="matrix(0.9571245,0,0,0.9571245,455.26225,232.58125)"
       clip-path="url(#clipPath61)"><tspan
         style="font-variant:normal;font-weight:normal;font-size:12px;font-family:Helvetica;writing-mode:lr-tb;fill:#000000;fill-opacity:1;fill-rule:nonzero;stroke:none"
         x="0 3.3339844 12"
         y="0"
         sodipodi:role="line"
         id="tspan60">IND</tspan></text>
    <g
       opacity="0.25"
       id="g63"
       clip-path="url(#clipPath64)">
      <path
         d="m 461,251 h 50 v 25 h -50 z"
         style="fill:#000000;fill-opacity:1;fill-rule:nonzero;stroke:#000000;stroke-width:1;stroke-linecap:butt;stroke-linejoin:miter;stroke-miterlimit:10;stroke-dasharray:none;stroke-opacity:1"
         transform="matrix(0.9571149,0,0,0.9571149,2.3927743,3.3499007)"
         clip-path="url(#clipPath62)"
         id="path63" />
    </g>
    <path
       id="path65"
       d="m 461,251 h 50 v 25 h -50 z"
       style="fill:#ffffff;fill-opacity:1;fill-rule:nonzero;stroke:#000000;stroke-width:1;stroke-linecap:butt;stroke-linejoin:miter;stroke-miterlimit:10;stroke-dasharray:none;stroke-opacity:1"
       transform="matrix(0.9571149,0,0,0.9571149,0.47855745,0.47855745)"
       clip-path="url(#clipPath66)" />
    <text
       id="text66"
       xml:space="preserve"
       transform="matrix(0.9571245,0,0,0.9571245,453.348,256.50937)"
       clip-path="url(#clipPath67)"><tspan
         style="font-variant:normal;font-weight:normal;font-size:12px;font-family:Helvetica;writing-mode:lr-tb;fill:#000000;fill-opacity:1;fill-rule:nonzero;stroke:none"
         x="0 8.0039062 16.669922"
         y="0"
         sodipodi:role="line"
         id="tspan66">BRA</tspan></text>
    <g
       opacity="0.25"
       id="g69"
       clip-path="url(#clipPath70)">
      <path
         d="m 461,276 h 50 v 25 h -50 z"
         style="fill:#000000;fill-opacity:1;fill-rule:nonzero;stroke:#000000;stroke-width:1;stroke-linecap:butt;stroke-linejoin:miter;stroke-miterlimit:10;stroke-dasharray:none;stroke-opacity:1"
         transform="matrix(0.9571149,0,0,0.9571149,2.3927743,3.3499007)"
         clip-path="url(#clipPath68)"
         id="path69" />
    </g>
    <path
       id="path71"
       d="m 461,276 h 50 v 25 h -50 z"
       style="fill:#ffffff;fill-opacity:1;fill-rule:nonzero;stroke:#000000;stroke-width:1;stroke-linecap:butt;stroke-linejoin:miter;stroke-miterlimit:10;stroke-dasharray:none;stroke-opacity:1"
       transform="matrix(0.9571149,0,0,0.9571149,0.47855745,0.47855745)"
       clip-path="url(#clipPath72)" />
    <text
       id="text72"
       xml:space="preserve"
       transform="matrix(0.9571245,0,0,0.9571245,455.26225,280.43748)"
       clip-path="url(#clipPath73)"><tspan
         style="font-variant:normal;font-weight:normal;font-size:12px;font-family:Helvetica;writing-mode:lr-tb;fill:#000000;fill-opacity:1;fill-rule:nonzero;stroke:none"
         x="0 3.3339844 12"
         y="0"
         sodipodi:role="line"
         id="tspan72">IND</tspan></text>
    <g
       opacity="0.25"
       id="g75"
       clip-path="url(#clipPath76)">
      <path
         d="m 461,301 h 50 v 25 h -50 z"
         style="fill:#000000;fill-opacity:1;fill-rule:nonzero;stroke:#000000;stroke-width:1;stroke-linecap:butt;stroke-linejoin:miter;stroke-miterlimit:10;stroke-dasharray:none;stroke-opacity:1"
         transform="matrix(0.9571149,0,0,0.9571149,2.3927743,3.3499007)"
         clip-path="url(#clipPath74)"
         id="path75" />
    </g>
    <path
       id="path77"
       d="m 461,301 h 50 v 25 h -50 z"
       style="fill:#ffffff;fill-opacity:1;fill-rule:nonzero;stroke:#000000;stroke-width:1;stroke-linecap:butt;stroke-linejoin:miter;stroke-miterlimit:10;stroke-dasharray:none;stroke-opacity:1"
       transform="matrix(0.9571149,0,0,0.9571149,0.47855745,0.47855745)"
       clip-path="url(#clipPath78)" />
    <text
       id="text78"
       xml:space="preserve"
       transform="matrix(0.9571245,0,0,0.9571245,452.71989,304.36559)"
       clip-path="url(#clipPath79)"><tspan
         style="font-variant:normal;font-weight:normal;font-size:12px;font-family:Helvetica;writing-mode:lr-tb;fill:#000000;fill-opacity:1;fill-rule:nonzero;stroke:none"
         x="0 8.6660156 17.332031"
         y="0"
         sodipodi:role="line"
         id="tspan78">CHN</tspan></text>
    <g
       opacity="0.25"
       id="g81"
       clip-path="url(#clipPath82)">
      <path
         d="m 461,326 h 50 v 25 h -50 z"
         style="fill:#000000;fill-opacity:1;fill-rule:nonzero;stroke:#000000;stroke-width:1;stroke-linecap:butt;stroke-linejoin:miter;stroke-miterlimit:10;stroke-dasharray:none;stroke-opacity:1"
         transform="matrix(0.9571149,0,0,0.9571149,2.3927743,3.3499007)"
         clip-path="url(#clipPath80)"
         id="path81" />
    </g>
    <path
       id="path83"
       d="m 461,326 h 50 v 25 h -50 z"
       style="fill:#ffffff;fill-opacity:1;fill-rule:nonzero;stroke:#000000;stroke-width:1;stroke-linecap:butt;stroke-linejoin:miter;stroke-miterlimit:10;stroke-dasharray:none;stroke-opacity:1"
       transform="matrix(0.9571149,0,0,0.9571149,0.47855745,0.47855745)"
       clip-path="url(#clipPath84)" />
    <text
       id="text84"
       xml:space="preserve"
       transform="matrix(0.9571245,0,0,0.9571245,455.26225,328.2937)"
       clip-path="url(#clipPath85)"><tspan
         style="font-variant:normal;font-weight:normal;font-size:12px;font-family:Helvetica;writing-mode:lr-tb;fill:#000000;fill-opacity:1;fill-rule:nonzero;stroke:none"
         x="0 3.3339844 12"
         y="0"
         sodipodi:role="line"
         id="tspan84">IND</tspan></text>
    <path
       id="path86"
       d="m 211,1 h 90 v 40 h -90 z"
       style="fill:#dae8fc;fill-opacity:1;fill-rule:nonzero;stroke:#6c8ebf;stroke-width:1;stroke-linecap:butt;stroke-linejoin:miter;stroke-miterlimit:10;stroke-dasharray:none;stroke-opacity:1"
       transform="matrix(0.9571149,0,0,0.9571149,0.47855745,0.47855745)"
       clip-path="url(#clipPath87)" />
    <text
       id="text87"
       xml:space="preserve"
       transform="matrix(0.9571245,0,0,0.9571245,231.60918,26.799486)"
       clip-path="url(#clipPath88)"><tspan
         style="font-variant:normal;font-weight:normal;font-size:21px;font-family:Helvetica;writing-mode:lr-tb;fill:#000000;fill-opacity:1;fill-rule:nonzero;stroke:none"
         x="0 14.006836"
         y="0"
         sodipodi:role="line"
         id="tspan87">AS</tspan></text>
    <path
       id="path89"
       d="M 301,1 H 441 V 41 H 301 Z"
       style="fill:#dae8fc;fill-opacity:1;fill-rule:nonzero;stroke:#6c8ebf;stroke-width:1;stroke-linecap:butt;stroke-linejoin:miter;stroke-miterlimit:10;stroke-dasharray:none;stroke-opacity:1"
       transform="matrix(0.9571149,0,0,0.9571149,0.47855745,0.47855745)"
       clip-path="url(#clipPath90)" />
    <text
       id="text90"
       xml:space="preserve"
       transform="matrix(0.9571245,0,0,0.9571245,294.74949,26.799486)"
       clip-path="url(#clipPath91)"><tspan
         style="font-variant:normal;font-weight:normal;font-size:21px;font-family:Helvetica;writing-mode:lr-tb;fill:#000000;fill-opacity:1;fill-rule:nonzero;stroke:none"
         x="0 10.5 22.179199 33.858398 45.537598 51.37207 58.365234 68.865234 80.544434 91.044434 102.72363 114.40283"
         y="0"
         sodipodi:role="line"
         id="tspan90">country_code</tspan></text>
  </g>
</svg>
