<?xml version="1.0" encoding="UTF-8" standalone="no"?>
<!-- Created with Inkscape (http://www.inkscape.org/) -->

<svg
   version="1.1"
   id="svg1"
   width="492.16"
   height="224"
   viewBox="0 0 492.16 224"
   sodipodi:docname="sql-1.pdf"
   xmlns:inkscape="http://www.inkscape.org/namespaces/inkscape"
   xmlns:sodipodi="http://sodipodi.sourceforge.net/DTD/sodipodi-0.dtd"
   xmlns="http://www.w3.org/2000/svg"
   xmlns:svg="http://www.w3.org/2000/svg">
  <defs
     id="defs1">
    <clipPath
       clipPathUnits="userSpaceOnUse"
       id="clipPath2">
      <path
         d="M 0,0 H 1537.5 V 699.95135 H 0 Z"
         transform="scale(0.33430896)"
         clip-rule="evenodd"
         id="path2" />
    </clipPath>
    <clipPath
       clipPathUnits="userSpaceOnUse"
       id="clipPath4">
      <path
         d="M 0,0 H 1537.5 V 696.96008 H 0 Z"
         transform="matrix(0.33430896,0,0,0.33430896,-0.50000001,-0.50000001)"
         clip-rule="evenodd"
         id="path4" />
    </clipPath>
    <clipPath
       clipPathUnits="userSpaceOnUse"
       id="clipPath5">
      <path
         d="M 0,0 H 1537.5 V 696.96008 H 0 Z"
         transform="matrix(0.3343056,0,0,0.3343056,-22.75,-122.00001)"
         clip-rule="evenodd"
         id="path5" />
    </clipPath>
    <clipPath
       clipPathUnits="userSpaceOnUse"
       id="clipPath7">
      <path
         d="M 0,0 H 1537.5 V 696.96008 H 0 Z"
         transform="matrix(0.33430896,0,0,0.33430896,-0.50000001,-0.50000001)"
         clip-rule="evenodd"
         id="path7" />
    </clipPath>
    <clipPath
       clipPathUnits="userSpaceOnUse"
       id="clipPath9">
      <path
         d="M 0,0 H 1537.5 V 696.96008 H 0 Z"
         transform="matrix(0.33430896,0,0,0.33430896,-0.50000001,-0.50000001)"
         clip-rule="evenodd"
         id="path9" />
    </clipPath>
    <clipPath
       clipPathUnits="userSpaceOnUse"
       id="clipPath10">
      <path
         d="M 0,0 H 1537.5 V 696.96008 H 0 Z"
         transform="matrix(0.3343056,0,0,0.3343056,-172.53125,-32)"
         clip-rule="evenodd"
         id="path10" />
    </clipPath>
    <clipPath
       clipPathUnits="userSpaceOnUse"
       id="clipPath12">
      <path
         d="M 0,0 H 1537.5 V 696.96008 H 0 Z"
         transform="matrix(0.33430896,0,0,0.33430896,-0.50000001,-0.50000001)"
         clip-rule="evenodd"
         id="path12" />
    </clipPath>
    <clipPath
       clipPathUnits="userSpaceOnUse"
       id="clipPath13">
      <path
         d="M 0,0 H 1537.5 V 696.96008 H 0 Z"
         transform="matrix(0.3343056,0,0,0.3343056,-166.375,-81)"
         clip-rule="evenodd"
         id="path13" />
    </clipPath>
    <clipPath
       clipPathUnits="userSpaceOnUse"
       id="clipPath14">
      <path
         d="M 0,0 H 1537.5 V 696.96008 H 0 Z"
         transform="matrix(0.3343056,0,0,0.3343056,-365.75,-81)"
         clip-rule="evenodd"
         id="path14" />
    </clipPath>
    <clipPath
       clipPathUnits="userSpaceOnUse"
       id="clipPath15">
      <path
         d="M 0,0 H 1537.5 V 696.96008 H 0 Z"
         transform="matrix(0.3343056,0,0,0.3343056,-444.1875,-81)"
         clip-rule="evenodd"
         id="path15" />
    </clipPath>
    <clipPath
       clipPathUnits="userSpaceOnUse"
       id="clipPath16">
      <path
         d="M 0,0 H 1537.5 V 696.96008 H 0 Z"
         transform="matrix(0.3343056,0,0,0.3343056,-184.32813,-102)"
         clip-rule="evenodd"
         id="path16" />
    </clipPath>
    <clipPath
       clipPathUnits="userSpaceOnUse"
       id="clipPath18">
      <path
         d="M 0,0 H 1537.5 V 696.96008 H 0 Z"
         transform="matrix(0.33430896,0,0,0.33430896,-0.50000001,-0.50000001)"
         clip-rule="evenodd"
         id="path18" />
    </clipPath>
    <clipPath
       clipPathUnits="userSpaceOnUse"
       id="clipPath19">
      <path
         d="M 0,0 H 1537.5 V 696.96008 H 0 Z"
         transform="matrix(0.3343056,0,0,0.3343056,-178.15625,-141)"
         clip-rule="evenodd"
         id="path19" />
    </clipPath>
    <clipPath
       clipPathUnits="userSpaceOnUse"
       id="clipPath20">
      <path
         d="M 0,0 H 1537.5 V 696.96008 H 0 Z"
         transform="matrix(0.3343056,0,0,0.3343056,-277.875,-162)"
         clip-rule="evenodd"
         id="path20" />
    </clipPath>
    <clipPath
       clipPathUnits="userSpaceOnUse"
       id="clipPath22">
      <path
         d="M 0,0 H 1537.5 V 696.96008 H 0 Z"
         transform="matrix(0.33430896,0,0,0.33430896,-0.50000001,-0.50000001)"
         clip-rule="evenodd"
         id="path22" />
    </clipPath>
    <clipPath
       clipPathUnits="userSpaceOnUse"
       id="clipPath23">
      <path
         d="M 0,0 H 1537.5 V 696.96008 H 0 Z"
         transform="matrix(0.3343056,0,0,0.3343056,-188.71875,-201)"
         clip-rule="evenodd"
         id="path23" />
    </clipPath>
    <clipPath
       clipPathUnits="userSpaceOnUse"
       id="clipPath24">
      <path
         d="M 0,0 H 1537.5 V 696.96008 H 0 Z"
         transform="matrix(0.3343056,0,0,0.3343056,-301.96875,-222)"
         clip-rule="evenodd"
         id="path24" />
    </clipPath>
  </defs>
  <sodipodi:namedview
     id="namedview1"
     pagecolor="#ffffff"
     bordercolor="#000000"
     borderopacity="0.25"
     inkscape:showpageshadow="2"
     inkscape:pageopacity="0.0"
     inkscape:pagecheckerboard="0"
     inkscape:deskcolor="#d1d1d1">
    <inkscape:page
       x="0"
       y="0"
       inkscape:label="1"
       id="page1"
       width="492.16"
       height="224"
       margin="0"
       bleed="0" />
  </sodipodi:namedview>
  <g
     id="g1"
     inkscape:groupmode="layer"
     inkscape:label="1">
    <path
       id="path1"
       d="M 0,0 H 514 V 234 H 0 Z"
       style="fill:#ffffff;fill-opacity:1;fill-rule:nonzero;stroke:none"
       transform="scale(0.95719836)"
       clip-path="url(#clipPath2)" />
    <path
       id="path3"
       d="M 1,90.629997 H 121 V 140.63 H 1 Z"
       style="fill:#dae8fc;fill-opacity:1;fill-rule:nonzero;stroke:#6c8ebf;stroke-width:1;stroke-linecap:butt;stroke-linejoin:miter;stroke-miterlimit:10;stroke-dasharray:none;stroke-opacity:1"
       transform="matrix(0.95719836,0,0,0.95719836,0.47859919,0.47859919)"
       clip-path="url(#clipPath4)" />
    <text
       id="text4"
       xml:space="preserve"
       transform="matrix(0.95720799,0,0,0.95720799,21.776482,116.77938)"
       clip-path="url(#clipPath5)"><tspan
         style="font-variant:normal;font-weight:700;font-size:17px;font-family:Helvetica;writing-mode:lr-tb;fill:#000000;fill-opacity:1;fill-rule:nonzero;stroke:none"
         x="0 10.384277 20.768555 30.223145 40.607422 50.991699 66.107422"
         y="0"
         sodipodi:role="line"
         id="tspan4">pg_dump</tspan></text>
    <path
       id="path6"
       d="m 151,1.25 h -7.5 c -5,0 -7.5,3.333333 -7.5,10 v 94.38 c 0,6.66666 -2.5,10 -7.5,10 h -3.75 c -2.5,0 -1.25,0 3.75,0 h 3.75 c 2.5,0 3.75,3.33333 3.75,10 V 220 c 0,6.66667 2.5,10 7.5,10 h 7.5"
       style="fill:none;stroke:#000000;stroke-width:1;stroke-linecap:butt;stroke-linejoin:miter;stroke-miterlimit:10;stroke-dasharray:none;stroke-opacity:1"
       transform="matrix(0.95719836,0,0,0.95719836,0.47859919,0.47859919)"
       clip-path="url(#clipPath7)" />
    <path
       id="path8"
       d="M 161,1 H 511 V 50 H 161 Z"
       style="fill:#ffffff;fill-opacity:1;fill-rule:nonzero;stroke:#000000;stroke-width:1;stroke-linecap:butt;stroke-linejoin:miter;stroke-miterlimit:10;stroke-dasharray:none;stroke-opacity:1"
       transform="matrix(0.95719836,0,0,0.95719836,0.47859919,0.47859919)"
       clip-path="url(#clipPath9)" />
    <text
       id="text9"
       xml:space="preserve"
       transform="matrix(0.95720799,0,0,0.95720799,165.14829,30.630656)"
       clip-path="url(#clipPath10)"><tspan
         style="font-variant:normal;font-weight:normal;font-size:17px;font-family:Helvetica;writing-mode:lr-tb;fill:#000000;fill-opacity:1;fill-rule:nonzero;stroke:none"
         x="0 12.276855 21.731445 26.45459 31.177734 35.900879 45.355469 54.810059 58.586914 63.310059 67.086914 76.541504 85.041504 89.764648 99.219238 102.99609 106.77295 116.22754 125.68213 130.40527 139.85986 149.31445 154.0376 162.5376 171.99219 181.44678 187.10791 191.83105 200.33105 209.78564 223.94678 233.40137 242.85596 247.5791 257.03369 262.69482 267.41797 279.69482 283.47168 288.19482 297.64941 302.37256 313.71143"
         y="0"
         sodipodi:role="line"
         id="tspan9">CLI tool installed on your computer with PG</tspan></text>
    <path
       id="path11"
       d="m 161,60 h 350 v 49 H 161 Z"
       style="fill:#ffffff;fill-opacity:1;fill-rule:nonzero;stroke:#000000;stroke-width:1;stroke-linecap:butt;stroke-linejoin:miter;stroke-miterlimit:10;stroke-dasharray:none;stroke-opacity:1"
       transform="matrix(0.95719836,0,0,0.95719836,0.47859919,0.47859919)"
       clip-path="url(#clipPath12)" />
    <text
       id="text12"
       xml:space="preserve"
       transform="matrix(0.95720799,0,0,0.95720799,159.25548,77.533847)"
       clip-path="url(#clipPath13)"><tspan
         style="font-variant:normal;font-weight:normal;font-size:17px;font-family:Helvetica;writing-mode:lr-tb;fill:#000000;fill-opacity:1;fill-rule:nonzero;stroke:none"
         x="0 8.5 17.95459 26.45459 35.90918 44.40918 49.132324 58.586914 62.36377 66.140625 70.86377 75.586914 85.041504 94.496094 99.219238 103.94238 113.39697 122.85156 126.62842 136.08301 144.58301 149.30615 154.0293 159.69043 169.14502 181.42188 189.92188 194.64502"
         y="0"
         sodipodi:role="line"
         id="tspan12">Takes all the tables, rows, </tspan></text>
    <text
       id="text13"
       xml:space="preserve"
       transform="matrix(0.95720799,0,0,0.95720799,350.09882,77.533847)"
       clip-path="url(#clipPath14)"><tspan
         style="font-style:oblique;font-variant:normal;font-weight:normal;font-size:17px;font-family:Helvetica;writing-mode:lr-tb;fill:#000000;fill-opacity:1;fill-rule:nonzero;stroke:none"
         x="0 9.4545898 17.95459 27.40918 33.070312 41.570312 46.293457 55.748047 59.524902 68.979492"
         y="0"
         sodipodi:role="line"
         id="tspan13">everything</tspan></text>
    <text
       id="text14"
       xml:space="preserve"
       transform="matrix(0.95720799,0,0,0.95720799,425.17982,77.533847)"
       clip-path="url(#clipPath15)"><tspan
         style="font-variant:normal;font-weight:normal;font-size:17px;font-family:Helvetica;writing-mode:lr-tb;fill:#000000;fill-opacity:1;fill-rule:nonzero;stroke:none"
         x="0 4.7231445 14.177734 23.632324 28.355469 33.078613 42.533203 47.256348 51.979492"
         y="0"
         sodipodi:role="line"
         id="tspan14"> out of a</tspan></text>
    <g
       id="g15" />
    <text
       id="text15"
       xml:space="preserve"
       transform="matrix(0.95720799,0,0,0.95720799,176.44036,97.635215)"
       clip-path="url(#clipPath16)"><tspan
         style="font-variant:normal;font-weight:normal;font-size:17px;font-family:Helvetica;writing-mode:lr-tb;fill:#000000;fill-opacity:1;fill-rule:nonzero;stroke:none"
         x="0 8.5 12.276855 21.731445 31.186035 34.962891 44.41748 49.140625 58.595215 68.049805 72.772949 82.227539 91.682129 101.13672 109.63672 119.09131 123.81445 133.26904 142.72363 152.17822 156.90137 169.17822 174.83936 178.61621 183.33936 192.79395 201.29395 206.01709 210.74023 220.19482 229.64941 243.81055 248.53369 253.25684 262.71143 267.43457 276.88916 281.6123 290.1123 293.88916"
         y="0"
         sodipodi:role="line"
         id="tspan15">single database and writes them to a ﬁle</tspan></text>
    <path
       id="path17"
       d="m 161,120 h 350 v 49 H 161 Z"
       style="fill:#ffffff;fill-opacity:1;fill-rule:nonzero;stroke:#000000;stroke-width:1;stroke-linecap:butt;stroke-linejoin:miter;stroke-miterlimit:10;stroke-dasharray:none;stroke-opacity:1"
       transform="matrix(0.95719836,0,0,0.95719836,0.47859919,0.47859919)"
       clip-path="url(#clipPath18)" />
    <g
       id="g18" />
    <text
       id="text18"
       xml:space="preserve"
       transform="matrix(0.95720799,0,0,0.95720799,170.53259,134.96633)"
       clip-path="url(#clipPath19)"><tspan
         style="font-variant:normal;font-weight:normal;font-size:17px;font-family:Helvetica;writing-mode:lr-tb;fill:#000000;fill-opacity:1;fill-rule:nonzero;stroke:none"
         x="0 11.338867 20.793457 29.293457 37.793457 47.248047 56.702637 61.425781 69.925781 73.702637 83.157227 87.880371 96.380371 105.83496 115.28955 120.0127 129.46729 138.92188 143.64502 147.42188 156.87646 166.33105 175.78564 185.24023 194.69482 199.41797 203.19482 212.64941 217.37256 226.82715 231.55029 241.00488 245.72803 255.18262 264.63721 269.36035 278.81494 288.26953 297.72412 306.22412"
         y="0"
         sodipodi:role="line"
         id="tspan18">Backup ﬁle can be loaded into a database</tspan></text>
    <text
       id="text19"
       xml:space="preserve"
       transform="matrix(0.95720799,0,0,0.95720799,265.98417,155.06769)"
       clip-path="url(#clipPath20)"><tspan
         style="font-variant:normal;font-weight:normal;font-size:17px;font-family:Helvetica;writing-mode:lr-tb;fill:#000000;fill-opacity:1;fill-rule:nonzero;stroke:none"
         x="0 12.276855 16.053711 20.776855 30.231445 34.95459 44.40918 53.86377 63.318359 68.979492 78.434082 86.934082 91.657227 101.11182 106.77295"
         y="0"
         sodipodi:role="line"
         id="tspan19">with pg_restore</tspan></text>
    <path
       id="path21"
       d="m 161,180 h 350 v 49 H 161 Z"
       style="fill:#ffffff;fill-opacity:1;fill-rule:nonzero;stroke:#000000;stroke-width:1;stroke-linecap:butt;stroke-linejoin:miter;stroke-miterlimit:10;stroke-dasharray:none;stroke-opacity:1"
       transform="matrix(0.95719836,0,0,0.95719836,0.47859919,0.47859919)"
       clip-path="url(#clipPath22)" />
    <text
       id="text22"
       xml:space="preserve"
       transform="matrix(0.95720799,0,0,0.95720799,180.6431,192.39881)"
       clip-path="url(#clipPath23)"><tspan
         style="font-variant:normal;font-weight:normal;font-size:17px;font-family:Helvetica;writing-mode:lr-tb;fill:#000000;fill-opacity:1;fill-rule:nonzero;stroke:none"
         x="0 13.223145 22.677734 32.132324 36.855469 46.310059 51.033203 55.756348 64.256348 73.710938 82.210938 91.665527 97.32666 106.78125 110.55811 115.28125 124.73584 128.5127 132.93701 137.66016 147.11475 152.77588 162.23047 171.68506 176.4082 181.13135 193.4082 202.86279 211.36279 219.86279 224.58594 229.30908 238.76367 243.48682 252.94141 262.396 271.85059 281.30518 285.08203"
         y="0"
         sodipodi:role="line"
         id="tspan22">One of several different ways to handle</tspan></text>
    <text
       id="text23"
       xml:space="preserve"
       transform="matrix(0.95720799,0,0,0.95720799,289.0469,212.50017)"
       clip-path="url(#clipPath24)"><tspan
         style="font-variant:normal;font-weight:normal;font-size:17px;font-family:Helvetica;writing-mode:lr-tb;fill:#000000;fill-opacity:1;fill-rule:nonzero;stroke:none"
         x="0 9.4545898 18.90918 27.40918 35.90918 45.36377 54.818359 63.318359"
         y="0"
         sodipodi:role="line"
         id="tspan23">backups!</tspan></text>
  </g>
</svg>
