<?xml version="1.0" encoding="UTF-8" standalone="no"?>
<!-- Created with Inkscape (http://www.inkscape.org/) -->

<svg
   version="1.1"
   id="svg1"
   width="386.55997"
   height="266.56"
   viewBox="0 0 386.55997 266.56"
   sodipodi:docname="sql-1.pdf"
   xmlns:inkscape="http://www.inkscape.org/namespaces/inkscape"
   xmlns:sodipodi="http://sodipodi.sourceforge.net/DTD/sodipodi-0.dtd"
   xmlns="http://www.w3.org/2000/svg"
   xmlns:svg="http://www.w3.org/2000/svg">
  <defs
     id="defs1">
    <clipPath
       clipPathUnits="userSpaceOnUse"
       id="clipPath2">
      <path
         d="M 0,0 H 1208.3333 V 831.47687 H 0 Z"
         transform="scale(0.33434485)"
         clip-rule="evenodd"
         id="path2" />
    </clipPath>
    <clipPath
       clipPathUnits="userSpaceOnUse"
       id="clipPath4">
      <path
         d="M 0,0 H 1208.3333 V 828.4859 H 0 Z"
         transform="matrix(0.33434485,0,0,0.33434485,-0.49999999,-0.49999999)"
         clip-rule="evenodd"
         id="path4" />
    </clipPath>
    <clipPath
       clipPathUnits="userSpaceOnUse"
       id="clipPath5">
      <path
         d="M 0,0 H 1208.3333 V 828.4859 H 0 Z"
         transform="matrix(0.33434149,0,0,0.33434149,-11.484375,-235)"
         clip-rule="evenodd"
         id="path5" />
    </clipPath>
    <clipPath
       clipPathUnits="userSpaceOnUse"
       id="clipPath7">
      <path
         d="M 0,0 H 1208.3333 V 828.4859 H 0 Z"
         transform="matrix(0.33434485,0,0,0.33434485,-0.49999999,-0.49999999)"
         clip-rule="evenodd"
         id="path7" />
    </clipPath>
    <clipPath
       clipPathUnits="userSpaceOnUse"
       id="clipPath9">
      <path
         d="M 0,0 H 1208.3333 V 828.4859 H 0 Z"
         transform="matrix(0.33434485,0,0,0.33434485,-0.49999999,-0.49999999)"
         clip-rule="evenodd"
         id="path9" />
    </clipPath>
    <clipPath
       clipPathUnits="userSpaceOnUse"
       id="clipPath10">
      <path
         d="M 0,0 H 1208.3333 V 828.4859 H 0 Z"
         transform="matrix(0.33434149,0,0,0.33434149,-167.03125,-208)"
         clip-rule="evenodd"
         id="path10" />
    </clipPath>
    <clipPath
       clipPathUnits="userSpaceOnUse"
       id="clipPath12">
      <path
         d="M 0,0 H 1208.3333 V 828.4859 H 0 Z"
         transform="matrix(0.33434485,0,0,0.33434485,-0.49999999,-0.49999999)"
         clip-rule="evenodd"
         id="path12" />
    </clipPath>
    <clipPath
       clipPathUnits="userSpaceOnUse"
       id="clipPath13">
      <path
         d="M 0,0 H 1208.3333 V 828.4859 H 0 Z"
         transform="matrix(0.33434149,0,0,0.33434149,-165.14062,-258)"
         clip-rule="evenodd"
         id="path13" />
    </clipPath>
    <clipPath
       clipPathUnits="userSpaceOnUse"
       id="clipPath15">
      <path
         d="M 0,0 H 1208.3333 V 828.4859 H 0 Z"
         transform="matrix(0.33434485,0,0,0.33434485,-0.49999999,-0.49999999)"
         clip-rule="evenodd"
         id="path15" />
    </clipPath>
    <clipPath
       clipPathUnits="userSpaceOnUse"
       id="clipPath16">
      <path
         d="M 0,0 H 1208.3333 V 828.4859 H 0 Z"
         transform="matrix(0.33434149,0,0,0.33434149,-20.5,-78)"
         clip-rule="evenodd"
         id="path16" />
    </clipPath>
    <clipPath
       clipPathUnits="userSpaceOnUse"
       id="clipPath18">
      <path
         d="M 0,0 H 1208.3333 V 828.4859 H 0 Z"
         transform="matrix(0.33434485,0,0,0.33434485,-0.49999999,-0.49999999)"
         clip-rule="evenodd"
         id="path18" />
    </clipPath>
    <clipPath
       clipPathUnits="userSpaceOnUse"
       id="clipPath20">
      <path
         d="M 0,0 H 1208.3333 V 828.4859 H 0 Z"
         transform="matrix(0.33434485,0,0,0.33434485,-0.49999999,-0.49999999)"
         clip-rule="evenodd"
         id="path20" />
    </clipPath>
    <clipPath
       clipPathUnits="userSpaceOnUse"
       id="clipPath21">
      <path
         d="M 0,0 H 1208.3333 V 828.4859 H 0 Z"
         transform="matrix(0.33434149,0,0,0.33434149,-167.0625,-20)"
         clip-rule="evenodd"
         id="path21" />
    </clipPath>
    <clipPath
       clipPathUnits="userSpaceOnUse"
       id="clipPath22">
      <path
         d="M 0,0 H 1208.3333 V 828.4859 H 0 Z"
         transform="matrix(0.33434149,0,0,0.33434149,-261.21875,-37)"
         clip-rule="evenodd"
         id="path22" />
    </clipPath>
    <clipPath
       clipPathUnits="userSpaceOnUse"
       id="clipPath24">
      <path
         d="M 0,0 H 1208.3333 V 828.4859 H 0 Z"
         transform="matrix(0.33434485,0,0,0.33434485,-0.49999999,-0.49999999)"
         clip-rule="evenodd"
         id="path24" />
    </clipPath>
    <clipPath
       clipPathUnits="userSpaceOnUse"
       id="clipPath25">
      <path
         d="M 0,0 H 1208.3333 V 828.4859 H 0 Z"
         transform="matrix(0.33434149,0,0,0.33434149,-178.125,-68)"
         clip-rule="evenodd"
         id="path25" />
    </clipPath>
    <clipPath
       clipPathUnits="userSpaceOnUse"
       id="clipPath26">
      <path
         d="M 0,0 H 1208.3333 V 828.4859 H 0 Z"
         transform="matrix(0.33434149,0,0,0.33434149,-249.92188,-85)"
         clip-rule="evenodd"
         id="path26" />
    </clipPath>
    <clipPath
       clipPathUnits="userSpaceOnUse"
       id="clipPath28">
      <path
         d="M 0,0 H 1208.3333 V 828.4859 H 0 Z"
         transform="matrix(0.33434485,0,0,0.33434485,-0.49999999,-0.49999999)"
         clip-rule="evenodd"
         id="path28" />
    </clipPath>
    <clipPath
       clipPathUnits="userSpaceOnUse"
       id="clipPath29">
      <path
         d="M 0,0 H 1208.3333 V 828.4859 H 0 Z"
         transform="matrix(0.33434149,0,0,0.33434149,-171.0625,-125)"
         clip-rule="evenodd"
         id="path29" />
    </clipPath>
  </defs>
  <sodipodi:namedview
     id="namedview1"
     pagecolor="#ffffff"
     bordercolor="#000000"
     borderopacity="0.25"
     inkscape:showpageshadow="2"
     inkscape:pageopacity="0.0"
     inkscape:pagecheckerboard="0"
     inkscape:deskcolor="#d1d1d1">
    <inkscape:page
       x="0"
       y="0"
       inkscape:label="1"
       id="page1"
       width="386.55997"
       height="266.56"
       margin="0"
       bleed="0" />
  </sodipodi:namedview>
  <g
     id="g1"
     inkscape:groupmode="layer"
     inkscape:label="1">
    <path
       id="path1"
       d="M 0,0 H 404 V 278 H 0 Z"
       style="fill:#ffffff;fill-opacity:1;fill-rule:nonzero;stroke:none"
       transform="scale(0.95709561)"
       clip-path="url(#clipPath2)" />
    <path
       id="path3"
       d="m 1,204.75 h 120 v 46 H 1 Z"
       style="fill:#dae8fc;fill-opacity:1;fill-rule:nonzero;stroke:#6c8ebf;stroke-width:1;stroke-linecap:butt;stroke-linejoin:miter;stroke-miterlimit:10;stroke-dasharray:none;stroke-opacity:1"
       transform="matrix(0.95709561,0,0,0.95709561,0.4785478,0.4785478)"
       clip-path="url(#clipPath4)" />
    <text
       id="text4"
       xml:space="preserve"
       transform="matrix(0.95710521,0,0,0.95710521,10.991755,224.91972)"
       clip-path="url(#clipPath5)"><tspan
         style="font-variant:normal;font-weight:700;font-size:18px;font-family:Helvetica;writing-mode:lr-tb;fill:#000000;fill-opacity:1;fill-rule:nonzero;stroke:none"
         x="0 12.999023 23.994141 34.989258 41.994141 52.004883 63 73.010742 79.004883 89.015625"
         y="0"
         sodipodi:role="line"
         id="tspan4">Aggregates</tspan></text>
    <path
       id="path6"
       d="m 141,181 h -5 c -3.33333,0 -5,3.33333 -5,10 v 26.75 c 0,6.66667 -1.66667,10 -5,10 h -2.5 c -1.66666,0 -0.83334,0 2.5,0 h 2.5 c 1.66667,0 2.5,3.33333 2.5,10 v 26.75 c 0,6.66666 1.66667,10 5,10 h 5"
       style="fill:none;stroke:#000000;stroke-width:1;stroke-linecap:butt;stroke-linejoin:miter;stroke-miterlimit:10;stroke-dasharray:none;stroke-opacity:1"
       transform="matrix(0.95709561,0,0,0.95709561,0.4785478,0.4785478)"
       clip-path="url(#clipPath7)" />
    <path
       id="path8"
       d="m 151,181.5 h 250 v 43 H 151 Z"
       style="fill:#ffffff;fill-opacity:1;fill-rule:nonzero;stroke:#000000;stroke-width:1;stroke-linecap:butt;stroke-linejoin:miter;stroke-miterlimit:10;stroke-dasharray:none;stroke-opacity:1"
       transform="matrix(0.95709561,0,0,0.95709561,0.4785478,0.4785478)"
       clip-path="url(#clipPath9)" />
    <text
       id="text9"
       xml:space="preserve"
       transform="matrix(0.95710521,0,0,0.95710521,159.86648,199.07788)"
       clip-path="url(#clipPath10)"><tspan
         style="font-variant:normal;font-weight:normal;font-size:14px;font-family:Helvetica;writing-mode:lr-tb;fill:#000000;fill-opacity:1;fill-rule:nonzero;stroke:none"
         x="0 10.110352 17.896484 25.682617 33.46875 40.46875 48.254883 55.254883 59.144531 70.806641 78.592773 86.378906 93.378906 97.268555 104.26855 112.05469 115.16504 122.95117 130.7373 137.7373 141.62695 149.41309 157.19922 167.30957 175.0957 178.98535 182.875 190.66113 194.55078 202.33691 210.12305"
         y="0"
         sodipodi:role="line"
         id="tspan9">Reduces many values down to one</tspan></text>
    <path
       id="path11"
       d="m 151,231.5 h 250 v 43 H 151 Z"
       style="fill:#ffffff;fill-opacity:1;fill-rule:nonzero;stroke:#000000;stroke-width:1;stroke-linecap:butt;stroke-linejoin:miter;stroke-miterlimit:10;stroke-dasharray:none;stroke-opacity:1"
       transform="matrix(0.95709561,0,0,0.95709561,0.4785478,0.4785478)"
       clip-path="url(#clipPath12)" />
    <text
       id="text12"
       xml:space="preserve"
       transform="matrix(0.95710521,0,0,0.95710521,158.05695,246.93314)"
       clip-path="url(#clipPath13)"><tspan
         style="font-variant:normal;font-weight:normal;font-size:14px;font-family:Helvetica;writing-mode:lr-tb;fill:#000000;fill-opacity:1;fill-rule:nonzero;stroke:none"
         x="0 10.110352 17.896484 25.682617 33.46875 37.358398 45.144531 52.144531 56.03418 63.820312 70.820312 73.930664 81.716797 89.50293 93.392578 96.06543 103.85156 111.6377 119.42383 124.08594 131.87207 139.6582 147.44434 151.33398 159.12012 163.00977 166.89941 174.68555 182.47168 189.47168 193.36133 196.47168 204.25781 212.04395 219.04395"
         y="0"
         sodipodi:role="line"
         id="tspan12">Done by using 'aggregate functions'</tspan></text>
    <path
       id="path14"
       d="M 1,48 H 121 V 94 H 1 Z"
       style="fill:#dae8fc;fill-opacity:1;fill-rule:nonzero;stroke:#6c8ebf;stroke-width:1;stroke-linecap:butt;stroke-linejoin:miter;stroke-miterlimit:10;stroke-dasharray:none;stroke-opacity:1"
       transform="matrix(0.95709561,0,0,0.95709561,0.4785478,0.4785478)"
       clip-path="url(#clipPath15)" />
    <text
       id="text15"
       xml:space="preserve"
       transform="matrix(0.95710521,0,0,0.95710521,19.620657,74.654206)"
       clip-path="url(#clipPath16)"><tspan
         style="font-variant:normal;font-weight:700;font-size:18px;font-family:Helvetica;writing-mode:lr-tb;fill:#000000;fill-opacity:1;fill-rule:nonzero;stroke:none"
         x="0 14.000977 21.005859 32.000977 42.996094 53.991211 58.992188 69.987305"
         y="0"
         sodipodi:role="line"
         id="tspan15">Grouping</tspan></text>
    <path
       id="path17"
       d="m 141,1 h -5 c -3.33333,0 -5,3.333333 -5,10 v 50 c 0,6.666664 -1.66667,10 -5,10 h -2.5 c -1.66666,0 -0.83334,0 2.5,0 h 2.5 c 1.66667,0 2.5,3.333336 2.5,10 v 50 c 0,6.66667 1.66667,10 5,10 h 5"
       style="fill:none;stroke:#000000;stroke-width:1;stroke-linecap:butt;stroke-linejoin:miter;stroke-miterlimit:10;stroke-dasharray:none;stroke-opacity:1"
       transform="matrix(0.95709561,0,0,0.95709561,0.4785478,0.4785478)"
       clip-path="url(#clipPath18)" />
    <path
       id="path19"
       d="m 151,1.5 h 250 v 43 H 151 Z"
       style="fill:#ffffff;fill-opacity:1;fill-rule:nonzero;stroke:#000000;stroke-width:1;stroke-linecap:butt;stroke-linejoin:miter;stroke-miterlimit:10;stroke-dasharray:none;stroke-opacity:1"
       transform="matrix(0.95709561,0,0,0.95709561,0.4785478,0.4785478)"
       clip-path="url(#clipPath20)" />
    <text
       id="text20"
       xml:space="preserve"
       transform="matrix(0.95710521,0,0,0.95710521,159.89639,19.142104)"
       clip-path="url(#clipPath21)"><tspan
         style="font-variant:normal;font-weight:normal;font-size:14px;font-family:Helvetica;writing-mode:lr-tb;fill:#000000;fill-opacity:1;fill-rule:nonzero;stroke:none"
         x="0 10.110352 17.896484 25.682617 33.46875 40.46875 48.254883 55.254883 59.144531 70.806641 78.592773 86.378906 93.378906 97.268555 101.93066 109.7168 119.82715 126.82715 130.7168 138.50293 146.28906 156.39941 164.18555 168.0752 171.96484 179.75098 183.64062 187.53027 195.31641 205.42676 213.21289"
         y="0"
         sodipodi:role="line"
         id="tspan20">Reduces many rows down to fewer</tspan></text>
    <text
       id="text21"
       xml:space="preserve"
       transform="matrix(0.95710521,0,0,0.95710521,250.01383,35.412893)"
       clip-path="url(#clipPath22)"><tspan
         style="font-variant:normal;font-weight:normal;font-size:14px;font-family:Helvetica;writing-mode:lr-tb;fill:#000000;fill-opacity:1;fill-rule:nonzero;stroke:none"
         x="0 4.6621094 12.448242 22.558594"
         y="0"
         sodipodi:role="line"
         id="tspan21">rows</tspan></text>
    <path
       id="path23"
       d="m 151,49.5 h 250 v 43 H 151 Z"
       style="fill:#ffffff;fill-opacity:1;fill-rule:nonzero;stroke:#000000;stroke-width:1;stroke-linecap:butt;stroke-linejoin:miter;stroke-miterlimit:10;stroke-dasharray:none;stroke-opacity:1"
       transform="matrix(0.95709561,0,0,0.95709561,0.4785478,0.4785478)"
       clip-path="url(#clipPath24)" />
    <text
       id="text24"
       xml:space="preserve"
       transform="matrix(0.95710521,0,0,0.95710521,170.48437,65.083154)"
       clip-path="url(#clipPath25)"><tspan
         style="font-variant:normal;font-weight:normal;font-size:14px;font-family:Helvetica;writing-mode:lr-tb;fill:#000000;fill-opacity:1;fill-rule:nonzero;stroke:none"
         x="0 10.110352 17.896484 25.682617 33.46875 37.358398 45.144531 52.144531 56.03418 63.820312 70.820312 73.930664 81.716797 89.50293 93.392578 97.282227 105.06836 112.85449 116.74414 119.41699 130.30664 140.41699 151.30664 161.41699 170.50879 174.39844 183.73633 193.07422"
         y="0"
         sodipodi:role="line"
         id="tspan24">Done by using the 'GROUP BY'</tspan></text>
    <text
       id="text25"
       xml:space="preserve"
       transform="matrix(0.95710521,0,0,0.95710521,239.20153,81.353943)"
       clip-path="url(#clipPath26)"><tspan
         style="font-variant:normal;font-weight:normal;font-size:14px;font-family:Helvetica;writing-mode:lr-tb;fill:#000000;fill-opacity:1;fill-rule:nonzero;stroke:none"
         x="0 7 14.786133 21.786133 31.896484 39.682617 44.344727"
         y="0"
         sodipodi:role="line"
         id="tspan25">keyword</tspan></text>
    <path
       id="path27"
       d="m 151,98 h 250 v 43 H 151 Z"
       style="fill:#ffffff;fill-opacity:1;fill-rule:nonzero;stroke:#000000;stroke-width:1;stroke-linecap:butt;stroke-linejoin:miter;stroke-miterlimit:10;stroke-dasharray:none;stroke-opacity:1"
       transform="matrix(0.95709561,0,0,0.95709561,0.4785478,0.4785478)"
       clip-path="url(#clipPath28)" />
    <text
       id="text28"
       xml:space="preserve"
       transform="matrix(0.95710521,0,0,0.95710521,163.72481,119.63815)"
       clip-path="url(#clipPath29)"><tspan
         style="font-variant:normal;font-weight:normal;font-size:14px;font-family:Helvetica;writing-mode:lr-tb;fill:#000000;fill-opacity:1;fill-rule:nonzero;stroke:none"
         x="0 9.0917969 12.202148 19.202148 26.988281 34.774414 37.884766 40.995117 47.995117 51.105469 58.891602 66.677734 70.567383 74.457031 82.243164 90.029297 93.918945 98.581055 106.36719 113.36719 121.15332 124.26367 128.15332 132.04297 135.15332 142.15332 146.04297 153.04297 160.8291 167.8291 171.71875 175.6084 183.39453 187.28418 195.07031 202.07031"
         y="0"
         sodipodi:role="line"
         id="tspan28">Visualizing the result is key to use</tspan></text>
  </g>
</svg>
