<?xml version="1.0" encoding="UTF-8" standalone="no"?>
<!-- Created with Inkscape (http://www.inkscape.org/) -->

<svg
   version="1.1"
   id="svg1"
   width="537.27997"
   height="297.28"
   viewBox="0 0 537.27997 297.28"
   sodipodi:docname="sql-10.pdf"
   xmlns:inkscape="http://www.inkscape.org/namespaces/inkscape"
   xmlns:sodipodi="http://sodipodi.sourceforge.net/DTD/sodipodi-0.dtd"
   xmlns="http://www.w3.org/2000/svg"
   xmlns:svg="http://www.w3.org/2000/svg">
  <defs
     id="defs1">
    <clipPath
       clipPathUnits="userSpaceOnUse"
       id="clipPath2">
      <path
         d="M 0,0 H 1679.1666 V 927.88177 H 0 Z"
         transform="scale(0.3340943)"
         clip-rule="evenodd"
         id="path2" />
    </clipPath>
    <clipPath
       clipPathUnits="userSpaceOnUse"
       id="clipPath4">
      <path
         d="M 0,0 H 1679.1666 V 924.88855 H 0 Z"
         transform="matrix(0.3340943,0,0,0.3340943,-0.50000001,-0.50000001)"
         clip-rule="evenodd"
         id="path4" />
    </clipPath>
    <clipPath
       clipPathUnits="userSpaceOnUse"
       id="clipPath6">
      <path
         d="M 0,0 H 1679.1666 V 924.88855 H 0 Z"
         transform="matrix(0.3340943,0,0,0.3340943,-0.50000001,-0.50000001)"
         clip-rule="evenodd"
         id="path6" />
    </clipPath>
    <clipPath
       clipPathUnits="userSpaceOnUse"
       id="clipPath8">
      <path
         d="M 0,0 H 1679.1666 V 924.88855 H 0 Z"
         transform="matrix(0.3340943,0,0,0.3340943,-0.50000001,-0.50000001)"
         clip-rule="evenodd"
         id="path8" />
    </clipPath>
    <clipPath
       clipPathUnits="userSpaceOnUse"
       id="clipPath9">
      <path
         d="M 0,0 H 1679.1666 V 924.88855 H 0 Z"
         transform="matrix(0.33409094,0,0,0.33409094,-86.500001,-40)"
         clip-rule="evenodd"
         id="path9" />
    </clipPath>
    <clipPath
       clipPathUnits="userSpaceOnUse"
       id="clipPath11">
      <path
         d="M 0,0 H 1679.1666 V 924.88855 H 0 Z"
         transform="matrix(0.3340943,0,0,0.3340943,-0.50000001,-0.50000001)"
         clip-rule="evenodd"
         id="path11" />
    </clipPath>
    <clipPath
       clipPathUnits="userSpaceOnUse"
       id="clipPath12">
      <path
         d="M 0,0 H 1679.1666 V 924.88855 H 0 Z"
         transform="matrix(0.33409094,0,0,0.33409094,-265.85938,-39)"
         clip-rule="evenodd"
         id="path12" />
    </clipPath>
    <clipPath
       clipPathUnits="userSpaceOnUse"
       id="clipPath14">
      <path
         d="M 0,0 H 1679.1666 V 924.88855 H 0 Z"
         transform="matrix(0.3340943,0,0,0.3340943,-0.50000001,-0.50000001)"
         clip-rule="evenodd"
         id="path14" />
    </clipPath>
    <clipPath
       clipPathUnits="userSpaceOnUse"
       id="clipPath16">
      <path
         d="M 0,0 H 1679.1666 V 924.88855 H 0 Z"
         transform="matrix(0.3340943,0,0,0.3340943,-0.50000001,-0.50000001)"
         clip-rule="evenodd"
         id="path16" />
    </clipPath>
    <clipPath
       clipPathUnits="userSpaceOnUse"
       id="clipPath18">
      <path
         d="M 0,0 H 1679.1666 V 924.88855 H 0 Z"
         transform="matrix(0.3340943,0,0,0.3340943,-0.50000001,-0.50000001)"
         clip-rule="evenodd"
         id="path18" />
    </clipPath>
    <clipPath
       clipPathUnits="userSpaceOnUse"
       id="clipPath19">
      <path
         d="M 0,0 H 1679.1666 V 924.88855 H 0 Z"
         transform="matrix(0.33409094,0,0,0.33409094,-79.500001,-160)"
         clip-rule="evenodd"
         id="path19" />
    </clipPath>
    <clipPath
       clipPathUnits="userSpaceOnUse"
       id="clipPath21">
      <path
         d="M 0,0 H 1679.1666 V 924.88855 H 0 Z"
         transform="matrix(0.3340943,0,0,0.3340943,-0.50000001,-0.50000001)"
         clip-rule="evenodd"
         id="path21" />
    </clipPath>
    <clipPath
       clipPathUnits="userSpaceOnUse"
       id="clipPath22">
      <path
         d="M 0,0 H 1679.1666 V 924.88855 H 0 Z"
         transform="matrix(0.33409094,0,0,0.33409094,-331.71875,-159)"
         clip-rule="evenodd"
         id="path22" />
    </clipPath>
    <clipPath
       clipPathUnits="userSpaceOnUse"
       id="clipPath24">
      <path
         d="M 0,0 H 1679.1666 V 924.88855 H 0 Z"
         transform="matrix(0.3340943,0,0,0.3340943,-0.50000001,-0.50000001)"
         clip-rule="evenodd"
         id="path24" />
    </clipPath>
    <clipPath
       clipPathUnits="userSpaceOnUse"
       id="clipPath26">
      <path
         d="M 0,0 H 1679.1666 V 924.88855 H 0 Z"
         transform="matrix(0.3340943,0,0,0.3340943,-0.50000001,-0.50000001)"
         clip-rule="evenodd"
         id="path26" />
    </clipPath>
    <clipPath
       clipPathUnits="userSpaceOnUse"
       id="clipPath28">
      <path
         d="M 0,0 H 1679.1666 V 924.88855 H 0 Z"
         transform="matrix(0.3340943,0,0,0.3340943,-0.50000001,-0.50000001)"
         clip-rule="evenodd"
         id="path28" />
    </clipPath>
    <clipPath
       clipPathUnits="userSpaceOnUse"
       id="clipPath29">
      <path
         d="M 0,0 H 1679.1666 V 924.88855 H 0 Z"
         transform="matrix(0.33409094,0,0,0.33409094,-91.984375,-100)"
         clip-rule="evenodd"
         id="path29" />
    </clipPath>
    <clipPath
       clipPathUnits="userSpaceOnUse"
       id="clipPath31">
      <path
         d="M 0,0 H 1679.1666 V 924.88855 H 0 Z"
         transform="matrix(0.3340943,0,0,0.3340943,-0.50000001,-0.50000001)"
         clip-rule="evenodd"
         id="path31" />
    </clipPath>
    <clipPath
       clipPathUnits="userSpaceOnUse"
       id="clipPath32">
      <path
         d="M 0,0 H 1679.1666 V 924.88855 H 0 Z"
         transform="matrix(0.33409094,0,0,0.33409094,-280,-99)"
         clip-rule="evenodd"
         id="path32" />
    </clipPath>
    <clipPath
       clipPathUnits="userSpaceOnUse"
       id="clipPath34">
      <path
         d="M 0,0 H 1679.1666 V 924.88855 H 0 Z"
         transform="matrix(0.3340943,0,0,0.3340943,-0.50000001,-0.50000001)"
         clip-rule="evenodd"
         id="path34" />
    </clipPath>
    <clipPath
       clipPathUnits="userSpaceOnUse"
       id="clipPath36">
      <path
         d="M 0,0 H 1679.1666 V 924.88855 H 0 Z"
         transform="matrix(0.3340943,0,0,0.3340943,-0.50000001,-0.50000001)"
         clip-rule="evenodd"
         id="path36" />
    </clipPath>
    <clipPath
       clipPathUnits="userSpaceOnUse"
       id="clipPath38">
      <path
         d="M 0,0 H 1679.1666 V 924.88855 H 0 Z"
         transform="matrix(0.3340943,0,0,0.3340943,-0.50000001,-0.50000001)"
         clip-rule="evenodd"
         id="path38" />
    </clipPath>
    <clipPath
       clipPathUnits="userSpaceOnUse"
       id="clipPath39">
      <path
         d="M 0,0 H 1679.1666 V 924.88855 H 0 Z"
         transform="matrix(0.33409094,0,0,0.33409094,-65.140625,-220)"
         clip-rule="evenodd"
         id="path39" />
    </clipPath>
    <clipPath
       clipPathUnits="userSpaceOnUse"
       id="clipPath41">
      <path
         d="M 0,0 H 1679.1666 V 924.88855 H 0 Z"
         transform="matrix(0.3340943,0,0,0.3340943,-0.50000001,-0.50000001)"
         clip-rule="evenodd"
         id="path41" />
    </clipPath>
    <clipPath
       clipPathUnits="userSpaceOnUse"
       id="clipPath42">
      <path
         d="M 0,0 H 1679.1666 V 924.88855 H 0 Z"
         transform="matrix(0.33409094,0,0,0.33409094,-275.42188,-219)"
         clip-rule="evenodd"
         id="path42" />
    </clipPath>
    <clipPath
       clipPathUnits="userSpaceOnUse"
       id="clipPath44">
      <path
         d="M 0,0 H 1679.1666 V 924.88855 H 0 Z"
         transform="matrix(0.3340943,0,0,0.3340943,-0.50000001,-0.50000001)"
         clip-rule="evenodd"
         id="path44" />
    </clipPath>
    <clipPath
       clipPathUnits="userSpaceOnUse"
       id="clipPath46">
      <path
         d="M 0,0 H 1679.1666 V 924.88855 H 0 Z"
         transform="matrix(0.3340943,0,0,0.3340943,-0.50000001,-0.50000001)"
         clip-rule="evenodd"
         id="path46" />
    </clipPath>
    <clipPath
       clipPathUnits="userSpaceOnUse"
       id="clipPath48">
      <path
         d="M 0,0 H 1679.1666 V 924.88855 H 0 Z"
         transform="matrix(0.3340943,0,0,0.3340943,-0.50000001,-0.50000001)"
         clip-rule="evenodd"
         id="path48" />
    </clipPath>
    <clipPath
       clipPathUnits="userSpaceOnUse"
       id="clipPath50">
      <path
         d="M 0,0 H 1679.1666 V 924.88855 H 0 Z"
         transform="matrix(0.3340943,0,0,0.3340943,-0.50000001,-0.50000001)"
         clip-rule="evenodd"
         id="path50" />
    </clipPath>
    <clipPath
       clipPathUnits="userSpaceOnUse"
       id="clipPath52">
      <path
         d="M 0,0 H 1679.1666 V 924.88855 H 0 Z"
         transform="matrix(0.3340943,0,0,0.3340943,-0.50000001,-0.50000001)"
         clip-rule="evenodd"
         id="path52" />
    </clipPath>
    <clipPath
       clipPathUnits="userSpaceOnUse"
       id="clipPath53">
      <path
         d="M 0,0 H 1679.1666 V 924.88855 H 0 Z"
         transform="matrix(0.33409094,0,0,0.33409094,-78.65625,-280)"
         clip-rule="evenodd"
         id="path53" />
    </clipPath>
    <clipPath
       clipPathUnits="userSpaceOnUse"
       id="clipPath55">
      <path
         d="M 0,0 H 1679.1666 V 924.88855 H 0 Z"
         transform="matrix(0.3340943,0,0,0.3340943,-0.50000001,-0.50000001)"
         clip-rule="evenodd"
         id="path55" />
    </clipPath>
    <clipPath
       clipPathUnits="userSpaceOnUse"
       id="clipPath56">
      <path
         d="M 0,0 H 1679.1666 V 924.88855 H 0 Z"
         transform="matrix(0.33409094,0,0,0.33409094,-324.625,-279)"
         clip-rule="evenodd"
         id="path56" />
    </clipPath>
  </defs>
  <sodipodi:namedview
     id="namedview1"
     pagecolor="#ffffff"
     bordercolor="#000000"
     borderopacity="0.25"
     inkscape:showpageshadow="2"
     inkscape:pageopacity="0.0"
     inkscape:pagecheckerboard="0"
     inkscape:deskcolor="#d1d1d1">
    <inkscape:page
       x="0"
       y="0"
       inkscape:label="1"
       id="page1"
       width="537.27997"
       height="297.28"
       margin="0"
       bleed="0" />
  </sodipodi:namedview>
  <g
     id="g1"
     inkscape:groupmode="layer"
     inkscape:label="1">
    <path
       id="path1"
       d="M 0,0 H 561 V 310 H 0 Z"
       style="fill:#ffffff;fill-opacity:1;fill-rule:nonzero;stroke:none"
       transform="scale(0.95781337)"
       clip-path="url(#clipPath2)" />
    <path
       id="path3"
       d="m 208,33 h 33.63"
       style="fill:none;stroke:#000000;stroke-width:1;stroke-linecap:butt;stroke-linejoin:miter;stroke-miterlimit:10;stroke-dasharray:none;stroke-opacity:1"
       transform="matrix(0.95781337,0,0,0.95781337,0.47890669,0.47890669)"
       clip-path="url(#clipPath4)" />
    <path
       id="path5"
       d="m 246.88,33 -7,3.5 1.75,-3.5 -1.75,-3.5 z"
       style="fill:#000000;fill-opacity:1;fill-rule:nonzero;stroke:#000000;stroke-width:1;stroke-linecap:butt;stroke-linejoin:miter;stroke-miterlimit:10;stroke-dasharray:none;stroke-opacity:1"
       transform="matrix(0.95781337,0,0,0.95781337,0.47890669,0.47890669)"
       clip-path="url(#clipPath6)" />
    <path
       id="path7"
       d="M 18,8 H 208 V 58 H 18 Z"
       style="fill:#dae8fc;fill-opacity:1;fill-rule:nonzero;stroke:#6c8ebf;stroke-width:1;stroke-linecap:butt;stroke-linejoin:miter;stroke-miterlimit:10;stroke-dasharray:none;stroke-opacity:1"
       transform="matrix(0.95781337,0,0,0.95781337,0.47890669,0.47890669)"
       clip-path="url(#clipPath8)" />
    <text
       id="text8"
       xml:space="preserve"
       transform="matrix(0.957823,0,0,0.957823,82.85169,38.31292)"
       clip-path="url(#clipPath9)"><tspan
         style="font-variant:normal;font-weight:700;font-size:18px;font-family:Helvetica;writing-mode:lr-tb;fill:#000000;fill-opacity:1;fill-rule:nonzero;stroke:none"
         x="0 10.995117 23.994141 37.995117"
         y="0"
         sodipodi:role="line"
         id="tspan8">FROM</tspan></text>
    <path
       id="path10"
       d="M 248,8 H 558 V 58 H 248 Z"
       style="fill:#ffffff;fill-opacity:1;fill-rule:nonzero;stroke:#000000;stroke-width:1;stroke-linecap:butt;stroke-linejoin:miter;stroke-miterlimit:10;stroke-dasharray:none;stroke-opacity:1"
       transform="matrix(0.95781337,0,0,0.95781337,0.47890669,0.47890669)"
       clip-path="url(#clipPath11)" />
    <g
       id="g11" />
    <text
       id="text11"
       xml:space="preserve"
       transform="matrix(0.957823,0,0,0.957823,254.64623,37.355097)"
       clip-path="url(#clipPath12)"><tspan
         style="font-variant:normal;font-weight:normal;font-size:15px;font-family:Helvetica;writing-mode:lr-tb;fill:#000000;fill-opacity:1;fill-rule:nonzero;stroke:none"
         x="0 10.004883 18.347168 26.689453 34.189453 37.521973 45.021973 53.364258 60.864258 65.031738 72.531738 76.699219 85.041504 90.036621 94.204102 97.536621 105.87891 114.22119 118.38867 125.88867 134.23096 138.39844 142.56592 150.9082 155.07568 159.24316 164.23828 172.58057 183.41309 190.91309 195.08057 199.24805 207.59033 211.75781 222.59033 230.93262 235.92773 243.42773 247.59521 258.42773 261.76025 265.92773"
         y="0"
         sodipodi:role="line"
         id="tspan11">Speciﬁes starting set of rows to work with</tspan></text>
    <path
       id="path13"
       d="m 208,153 h 33.63"
       style="fill:none;stroke:#000000;stroke-width:1;stroke-linecap:butt;stroke-linejoin:miter;stroke-miterlimit:10;stroke-dasharray:none;stroke-opacity:1"
       transform="matrix(0.95781337,0,0,0.95781337,0.47890669,0.47890669)"
       clip-path="url(#clipPath14)" />
    <path
       id="path15"
       d="m 246.88,153 -7,3.5 1.75,-3.5 -1.75,-3.5 z"
       style="fill:#000000;fill-opacity:1;fill-rule:nonzero;stroke:#000000;stroke-width:1;stroke-linecap:butt;stroke-linejoin:miter;stroke-miterlimit:10;stroke-dasharray:none;stroke-opacity:1"
       transform="matrix(0.95781337,0,0,0.95781337,0.47890669,0.47890669)"
       clip-path="url(#clipPath16)" />
    <path
       id="path17"
       d="m 18,128 h 190 v 50 H 18 Z"
       style="fill:#dae8fc;fill-opacity:1;fill-rule:nonzero;stroke:#6c8ebf;stroke-width:1;stroke-linecap:butt;stroke-linejoin:miter;stroke-miterlimit:10;stroke-dasharray:none;stroke-opacity:1"
       transform="matrix(0.95781337,0,0,0.95781337,0.47890669,0.47890669)"
       clip-path="url(#clipPath18)" />
    <text
       id="text18"
       xml:space="preserve"
       transform="matrix(0.957823,0,0,0.957823,76.146929,153.25168)"
       clip-path="url(#clipPath19)"><tspan
         style="font-variant:normal;font-weight:700;font-size:18px;font-family:Helvetica;writing-mode:lr-tb;fill:#000000;fill-opacity:1;fill-rule:nonzero;stroke:none"
         x="0 16.989258 29.988281 41.994141 54.993164"
         y="0"
         sodipodi:role="line"
         id="tspan18">WHERE</tspan></text>
    <path
       id="path20"
       d="m 248,128 h 310 v 50 H 248 Z"
       style="fill:#ffffff;fill-opacity:1;fill-rule:nonzero;stroke:#000000;stroke-width:1;stroke-linecap:butt;stroke-linejoin:miter;stroke-miterlimit:10;stroke-dasharray:none;stroke-opacity:1"
       transform="matrix(0.95781337,0,0,0.95781337,0.47890669,0.47890669)"
       clip-path="url(#clipPath21)" />
    <text
       id="text21"
       xml:space="preserve"
       transform="matrix(0.957823,0,0,0.957823,317.72785,152.29386)"
       clip-path="url(#clipPath22)"><tspan
         style="font-variant:normal;font-weight:normal;font-size:15px;font-family:Helvetica;writing-mode:lr-tb;fill:#000000;fill-opacity:1;fill-rule:nonzero;stroke:none"
         x="0 9.1625977 12.495117 15.827637 19.995117 28.337402 33.33252 40.83252 45 49.16748 57.509766 65.852051 70.019531 77.519531 85.861816 90.029297 94.196777 102.53906 106.70654 110.87402 115.86914 124.21143 135.04395"
         y="0"
         sodipodi:role="line"
         id="tspan21">Filters the set of rows</tspan></text>
    <path
       id="path23"
       d="m 208,93 h 33.63"
       style="fill:none;stroke:#000000;stroke-width:1;stroke-linecap:butt;stroke-linejoin:miter;stroke-miterlimit:10;stroke-dasharray:none;stroke-opacity:1"
       transform="matrix(0.95781337,0,0,0.95781337,0.47890669,0.47890669)"
       clip-path="url(#clipPath24)" />
    <path
       id="path25"
       d="m 246.88,93 -7,3.5 1.75,-3.5 -1.75,-3.5 z"
       style="fill:#000000;fill-opacity:1;fill-rule:nonzero;stroke:#000000;stroke-width:1;stroke-linecap:butt;stroke-linejoin:miter;stroke-miterlimit:10;stroke-dasharray:none;stroke-opacity:1"
       transform="matrix(0.95781337,0,0,0.95781337,0.47890669,0.47890669)"
       clip-path="url(#clipPath26)" />
    <path
       id="path27"
       d="m 18,68 h 190 v 50 H 18 Z"
       style="fill:#dae8fc;fill-opacity:1;fill-rule:nonzero;stroke:#6c8ebf;stroke-width:1;stroke-linecap:butt;stroke-linejoin:miter;stroke-miterlimit:10;stroke-dasharray:none;stroke-opacity:1"
       transform="matrix(0.95781337,0,0,0.95781337,0.47890669,0.47890669)"
       clip-path="url(#clipPath28)" />
    <text
       id="text28"
       xml:space="preserve"
       transform="matrix(0.957823,0,0,0.957823,88.10475,95.7823)"
       clip-path="url(#clipPath29)"><tspan
         style="font-variant:normal;font-weight:700;font-size:18px;font-family:Helvetica;writing-mode:lr-tb;fill:#000000;fill-opacity:1;fill-rule:nonzero;stroke:none"
         x="0 10.010742 24.011719 29.012695"
         y="0"
         sodipodi:role="line"
         id="tspan28">JOIN</tspan></text>
    <path
       id="path30"
       d="m 248,68 h 310 v 50 H 248 Z"
       style="fill:#ffffff;fill-opacity:1;fill-rule:nonzero;stroke:#000000;stroke-width:1;stroke-linecap:butt;stroke-linejoin:miter;stroke-miterlimit:10;stroke-dasharray:none;stroke-opacity:1"
       transform="matrix(0.95781337,0,0,0.95781337,0.47890669,0.47890669)"
       clip-path="url(#clipPath31)" />
    <text
       id="text31"
       xml:space="preserve"
       transform="matrix(0.957823,0,0,0.957823,268.19044,94.824477)"
       clip-path="url(#clipPath32)"><tspan
         style="font-variant:normal;font-weight:normal;font-size:15px;font-family:Helvetica;writing-mode:lr-tb;fill:#000000;fill-opacity:1;fill-rule:nonzero;stroke:none"
         x="0 12.495117 20.837402 25.83252 34.174805 42.51709 50.01709 54.18457 57.51709 65.859375 70.026855 78.369141 86.711426 90.878906 99.221191 103.38867 107.55615 112.55127 120.89355 133.38867 137.55615 145.89844 154.24072 162.58301 165.91553 170.08301 173.41553 181.75781 190.1001 198.44238 201.7749 205.94238 210.10986 218.45215 226.79443 230.12695 238.46924"
         y="0"
         sodipodi:role="line"
         id="tspan31">Merges in data from additional tables</tspan></text>
    <path
       id="path33"
       d="m 208,213 h 33.63"
       style="fill:none;stroke:#000000;stroke-width:1;stroke-linecap:butt;stroke-linejoin:miter;stroke-miterlimit:10;stroke-dasharray:none;stroke-opacity:1"
       transform="matrix(0.95781337,0,0,0.95781337,0.47890669,0.47890669)"
       clip-path="url(#clipPath34)" />
    <path
       id="path35"
       d="m 246.88,213 -7,3.5 1.75,-3.5 -1.75,-3.5 z"
       style="fill:#000000;fill-opacity:1;fill-rule:nonzero;stroke:#000000;stroke-width:1;stroke-linecap:butt;stroke-linejoin:miter;stroke-miterlimit:10;stroke-dasharray:none;stroke-opacity:1"
       transform="matrix(0.95781337,0,0,0.95781337,0.47890669,0.47890669)"
       clip-path="url(#clipPath36)" />
    <path
       id="path37"
       d="m 18,188 h 190 v 50 H 18 Z"
       style="fill:#dae8fc;fill-opacity:1;fill-rule:nonzero;stroke:#6c8ebf;stroke-width:1;stroke-linecap:butt;stroke-linejoin:miter;stroke-miterlimit:10;stroke-dasharray:none;stroke-opacity:1"
       transform="matrix(0.95781337,0,0,0.95781337,0.47890669,0.47890669)"
       clip-path="url(#clipPath38)" />
    <text
       id="text38"
       xml:space="preserve"
       transform="matrix(0.957823,0,0,0.957823,62.393189,210.72106)"
       clip-path="url(#clipPath39)"><tspan
         style="font-variant:normal;font-weight:700;font-size:18px;font-family:Helvetica;writing-mode:lr-tb;fill:#000000;fill-opacity:1;fill-rule:nonzero;stroke:none"
         x="0 14.000977 27 41.000977 54 65.689453 70.69043 83.689453"
         y="0"
         sodipodi:role="line"
         id="tspan38">GROUP BY</tspan></text>
    <path
       id="path40"
       d="m 248,188 h 310 v 50 H 248 Z"
       style="fill:#ffffff;fill-opacity:1;fill-rule:nonzero;stroke:#000000;stroke-width:1;stroke-linecap:butt;stroke-linejoin:miter;stroke-miterlimit:10;stroke-dasharray:none;stroke-opacity:1"
       transform="matrix(0.95781337,0,0,0.95781337,0.47890669,0.47890669)"
       clip-path="url(#clipPath41)" />
    <text
       id="text41"
       xml:space="preserve"
       transform="matrix(0.957823,0,0,0.957823,263.80541,209.76324)"
       clip-path="url(#clipPath42)"><tspan
         style="font-variant:normal;font-weight:normal;font-size:15px;font-family:Helvetica;writing-mode:lr-tb;fill:#000000;fill-opacity:1;fill-rule:nonzero;stroke:none"
         x="0 11.66748 16.662598 25.004883 33.347168 41.689453 49.189453 53.356934 58.352051 66.694336 77.526855 85.026855 89.194336 97.536621 105.03662 109.2041 117.54639 121.71387 130.05615 138.39844 141.73096 150.07324 158.41553 166.75781 170.92529 178.42529 186.76758 190.93506 195.10254 203.44482 207.6123 211.77979 219.27979 227.62207 230.95459 239.29688 247.63916"
         y="0"
         sodipodi:role="line"
         id="tspan41">Groups rows by a unique set of values</tspan></text>
    <path
       id="path43"
       d="M 8,8 V 291.63"
       style="fill:none;stroke:#000000;stroke-width:1;stroke-linecap:butt;stroke-linejoin:miter;stroke-miterlimit:10;stroke-dasharray:none;stroke-opacity:1"
       transform="matrix(0.95781337,0,0,0.95781337,0.47890669,0.47890669)"
       clip-path="url(#clipPath44)" />
    <path
       id="path45"
       d="m 8,296.88 -3.5,-7 3.5,1.75 3.5,-1.75 z"
       style="fill:#000000;fill-opacity:1;fill-rule:nonzero;stroke:#000000;stroke-width:1;stroke-linecap:butt;stroke-linejoin:miter;stroke-miterlimit:10;stroke-dasharray:none;stroke-opacity:1"
       transform="matrix(0.95781337,0,0,0.95781337,0.47890669,0.47890669)"
       clip-path="url(#clipPath46)" />
    <path
       id="path47"
       d="m 208,273 h 33.63"
       style="fill:none;stroke:#000000;stroke-width:1;stroke-linecap:butt;stroke-linejoin:miter;stroke-miterlimit:10;stroke-dasharray:none;stroke-opacity:1"
       transform="matrix(0.95781337,0,0,0.95781337,0.47890669,0.47890669)"
       clip-path="url(#clipPath48)" />
    <path
       id="path49"
       d="m 246.88,273 -7,3.5 1.75,-3.5 -1.75,-3.5 z"
       style="fill:#000000;fill-opacity:1;fill-rule:nonzero;stroke:#000000;stroke-width:1;stroke-linecap:butt;stroke-linejoin:miter;stroke-miterlimit:10;stroke-dasharray:none;stroke-opacity:1"
       transform="matrix(0.95781337,0,0,0.95781337,0.47890669,0.47890669)"
       clip-path="url(#clipPath50)" />
    <path
       id="path51"
       d="m 18,248 h 190 v 50 H 18 Z"
       style="fill:#dae8fc;fill-opacity:1;fill-rule:nonzero;stroke:#6c8ebf;stroke-width:1;stroke-linecap:butt;stroke-linejoin:miter;stroke-miterlimit:10;stroke-dasharray:none;stroke-opacity:1"
       transform="matrix(0.95781337,0,0,0.95781337,0.47890669,0.47890669)"
       clip-path="url(#clipPath52)" />
    <text
       id="text52"
       xml:space="preserve"
       transform="matrix(0.957823,0,0,0.957823,75.338765,268.19044)"
       clip-path="url(#clipPath53)"><tspan
         style="font-variant:normal;font-weight:700;font-size:18px;font-family:Helvetica;writing-mode:lr-tb;fill:#000000;fill-opacity:1;fill-rule:nonzero;stroke:none"
         x="0 12.999023 24.670898 36.676758 41.677734 54.676758"
         y="0"
         sodipodi:role="line"
         id="tspan52">HAVING</tspan></text>
    <path
       id="path54"
       d="m 248,248 h 310 v 50 H 248 Z"
       style="fill:#ffffff;fill-opacity:1;fill-rule:nonzero;stroke:#000000;stroke-width:1;stroke-linecap:butt;stroke-linejoin:miter;stroke-miterlimit:10;stroke-dasharray:none;stroke-opacity:1"
       transform="matrix(0.95781337,0,0,0.95781337,0.47890669,0.47890669)"
       clip-path="url(#clipPath55)" />
    <text
       id="text55"
       xml:space="preserve"
       transform="matrix(0.957823,0,0,0.957823,310.93329,267.23262)"
       clip-path="url(#clipPath56)"><tspan
         style="font-variant:normal;font-weight:normal;font-size:15px;font-family:Helvetica;writing-mode:lr-tb;fill:#000000;fill-opacity:1;fill-rule:nonzero;stroke:none"
         x="0 9.1625977 12.495117 15.827637 19.995117 28.337402 33.33252 40.83252 45 49.16748 57.509766 65.852051 70.019531 77.519531 85.861816 90.029297 94.196777 102.53906 106.70654 110.87402 119.21631 124.21143 132.55371 140.896 149.23828"
         y="0"
         sodipodi:role="line"
         id="tspan55">Filters the set of groups</tspan></text>
  </g>
</svg>
