<?xml version="1.0" encoding="UTF-8" standalone="no"?>
<!-- Created with Inkscape (http://www.inkscape.org/) -->

<svg
   version="1.1"
   id="svg1"
   width="396.16"
   height="192"
   viewBox="0 0 396.16 192"
   sodipodi:docname="sql-1.pdf"
   xmlns:inkscape="http://www.inkscape.org/namespaces/inkscape"
   xmlns:sodipodi="http://sodipodi.sourceforge.net/DTD/sodipodi-0.dtd"
   xmlns="http://www.w3.org/2000/svg"
   xmlns:svg="http://www.w3.org/2000/svg">
  <defs
     id="defs1">
    <clipPath
       clipPathUnits="userSpaceOnUse"
       id="clipPath2">
      <path
         d="M 0,0 H 1237.4999 V 597.82605 H 0 Z"
         transform="scale(0.33454547)"
         clip-rule="evenodd"
         id="path2" />
    </clipPath>
    <clipPath
       clipPathUnits="userSpaceOnUse"
       id="clipPath4">
      <path
         d="M 0,0 H 1237.4999 V 591.84778 H 0 Z"
         transform="matrix(0.33454547,0,0,0.33454547,-0.49999999,-0.49999999)"
         clip-rule="evenodd"
         id="path4" />
    </clipPath>
    <clipPath
       clipPathUnits="userSpaceOnUse"
       id="clipPath5">
      <path
         d="M 0,0 H 1237.4999 V 591.84778 H 0 Z"
         transform="matrix(0.33454211,0,0,0.33454211,-25.421875,-55.999999)"
         clip-rule="evenodd"
         id="path5" />
    </clipPath>
    <clipPath
       clipPathUnits="userSpaceOnUse"
       id="clipPath6">
      <path
         d="M 0,0 H 1237.4999 V 591.84778 H 0 Z"
         transform="matrix(0.33454211,0,0,0.33454211,-129.26562,-19)"
         clip-rule="evenodd"
         id="path6" />
    </clipPath>
    <clipPath
       clipPathUnits="userSpaceOnUse"
       id="clipPath8">
      <path
         d="M 0,0 H 1237.4999 V 591.84778 H 0 Z"
         transform="matrix(0.33454547,0,0,0.33454547,-0.49999999,-0.49999999)"
         clip-rule="evenodd"
         id="path8" />
    </clipPath>
    <clipPath
       clipPathUnits="userSpaceOnUse"
       id="clipPath9">
      <path
         d="M 0,0 H 1237.4999 V 591.84778 H 0 Z"
         transform="matrix(0.33454211,0,0,0.33454211,-9.890625,-106)"
         clip-rule="evenodd"
         id="path9" />
    </clipPath>
    <clipPath
       clipPathUnits="userSpaceOnUse"
       id="clipPath10">
      <path
         d="M 0,0 H 1237.4999 V 591.84778 H 0 Z"
         transform="matrix(0.33454211,0,0,0.33454211,-52.140625,-126)"
         clip-rule="evenodd"
         id="path10" />
    </clipPath>
    <clipPath
       clipPathUnits="userSpaceOnUse"
       id="clipPath12">
      <path
         d="M 0,0 H 1237.4999 V 591.84778 H 0 Z"
         transform="matrix(0.33454547,0,0,0.33454547,-0.49999999,-0.49999999)"
         clip-rule="evenodd"
         id="path12" />
    </clipPath>
    <clipPath
       clipPathUnits="userSpaceOnUse"
       id="clipPath13">
      <path
         d="M 0,0 H 1237.4999 V 591.84778 H 0 Z"
         transform="matrix(0.33454211,0,0,0.33454211,-15.921875,-166)"
         clip-rule="evenodd"
         id="path13" />
    </clipPath>
    <clipPath
       clipPathUnits="userSpaceOnUse"
       id="clipPath14">
      <path
         d="M 0,0 H 1237.4999 V 591.84778 H 0 Z"
         transform="matrix(0.33454211,0,0,0.33454211,-175.76563,-186)"
         clip-rule="evenodd"
         id="path14" />
    </clipPath>
  </defs>
  <sodipodi:namedview
     id="namedview1"
     pagecolor="#ffffff"
     bordercolor="#000000"
     borderopacity="0.25"
     inkscape:showpageshadow="2"
     inkscape:pageopacity="0.0"
     inkscape:pagecheckerboard="0"
     inkscape:deskcolor="#d1d1d1">
    <inkscape:page
       x="0"
       y="0"
       inkscape:label="1"
       id="page1"
       width="396.16"
       height="192"
       margin="0"
       bleed="0" />
  </sodipodi:namedview>
  <g
     id="g1"
     inkscape:groupmode="layer"
     inkscape:label="1">
    <path
       id="path1"
       d="M 0,0 H 414 V 200 H 0 Z"
       style="fill:#ffffff;fill-opacity:1;fill-rule:nonzero;stroke:none"
       transform="scale(0.95652166)"
       clip-path="url(#clipPath2)" />
    <path
       id="path3"
       d="M 1,26 H 411 V 76 H 1 Z"
       style="fill:#dae8fc;fill-opacity:1;fill-rule:nonzero;stroke:#6c8ebf;stroke-width:1;stroke-linecap:butt;stroke-linejoin:miter;stroke-miterlimit:10;stroke-dasharray:none;stroke-opacity:1"
       transform="matrix(0.95652166,0,0,0.95652166,0.47826082,0.47826082)"
       clip-path="url(#clipPath4)" />
    <text
       id="text4"
       xml:space="preserve"
       transform="matrix(0.95653126,0,0,0.95653126,24.316818,53.56575)"
       clip-path="url(#clipPath5)"><tspan
         style="font-variant:normal;font-weight:normal;font-size:16px;font-family:Helvetica;writing-mode:lr-tb;fill:#000000;fill-opacity:1;fill-rule:nonzero;stroke:none"
         x="0 14.820312 23.71875 26.773438 34.773438 43.671875 48.117188 56.117188 65.015625 73.914062 82.8125 87.257812 90.8125 99.710938 104.15625 112.15625 116.60156 125.5 129.94531 134.39062 137.94531 141.5 145.94531 150.39062 153.94531 162.84375 167.28906 176.1875 184.1875 193.08594 206.41406 215.3125 218.86719 227.76562 235.76562 240.21094 244.65625 253.55469 258.88281 263.32812 271.32812 280.22656 285.55469 289.10938 298.00781 306.90625 314.90625 319.35156 323.79688 332.69531 341.59375 345.14844 353.14844"
         y="0"
         sodipodi:role="line"
         id="tspan4">We've seen lots of little examples for various topics</tspan></text>
    <text
       id="text5"
       xml:space="preserve"
       transform="matrix(0.95653126,0,0,0.95653126,123.64661,18.174094)"
       clip-path="url(#clipPath6)"><tspan
         style="font-variant:normal;font-weight:700;font-size:20px;font-family:Helvetica;writing-mode:lr-tb;fill:#000000;fill-opacity:1;fill-rule:nonzero;stroke:none"
         x="0 16.660156 28.876953 40 45.556641 57.773438 69.990234 75.546875 87.763672 99.980469 107.76367 123.32031 134.44336 142.22656"
         y="0"
         sodipodi:role="line"
         id="tspan5">Moving Forward</tspan></text>
    <path
       id="path7"
       d="m 1,86 h 410 v 50 H 1 Z"
       style="fill:#dae8fc;fill-opacity:1;fill-rule:nonzero;stroke:#6c8ebf;stroke-width:1;stroke-linecap:butt;stroke-linejoin:miter;stroke-miterlimit:10;stroke-dasharray:none;stroke-opacity:1"
       transform="matrix(0.95652166,0,0,0.95652166,0.47826082,0.47826082)"
       clip-path="url(#clipPath8)" />
    <text
       id="text8"
       xml:space="preserve"
       transform="matrix(0.95653126,0,0,0.95653126,9.460692,101.39231)"
       clip-path="url(#clipPath9)"><tspan
         style="font-variant:normal;font-weight:normal;font-size:16px;font-family:Helvetica;writing-mode:lr-tb;fill:#000000;fill-opacity:1;fill-rule:nonzero;stroke:none"
         x="0 12.445312 21.34375 24.898438 33.796875 42.695312 47.140625 51.585938 60.484375 65.8125 77.367188 86.265625 91.59375 100.49219 104.9375 109.38281 120.9375 129.83594 134.28125 143.17969 152.07812 160.97656 169.875 174.32031 183.21875 187.66406 200.99219 209.89062 215.21875 224.11719 228.5625 236.5625 245.46094 258.78906 267.6875 271.24219 274.79688 282.79688 291.69531 296.14062 305.03906 313.9375 318.38281 326.38281 334.38281 343.28125 352.17969 365.50781 374.40625 378.85156 383.29688"
         y="0"
         sodipodi:role="line"
         id="tspan8">Going forward, we need a more complicated schema to</tspan></text>
    <text
       id="text9"
       xml:space="preserve"
       transform="matrix(0.95653126,0,0,0.95653126,49.874138,120.52294)"
       clip-path="url(#clipPath10)"><tspan
         style="font-variant:normal;font-weight:normal;font-size:16px;font-family:Helvetica;writing-mode:lr-tb;fill:#000000;fill-opacity:1;fill-rule:nonzero;stroke:none"
         x="0 13.328125 22.226562 30.226562 39.125 43.570312 52.46875 60.46875 69.367188 73.8125 82.710938 87.15625 91.601562 99.601562 108.5 121.82812 130.72656 135.17188 148.5 157.39844 162.72656 171.625 176.07031 184.96875 193.86719 201.86719 210.76562 219.66406 227.66406 236.5625 245.46094 249.90625 254.35156 263.25 272.14844 276.59375 285.49219 290.82031 299.71875"
         y="0"
         sodipodi:role="line"
         id="tspan9">make use of some more advanced features</tspan></text>
    <path
       id="path11"
       d="m 1,146 h 410 v 50 H 1 Z"
       style="fill:#dae8fc;fill-opacity:1;fill-rule:nonzero;stroke:#6c8ebf;stroke-width:1;stroke-linecap:butt;stroke-linejoin:miter;stroke-miterlimit:10;stroke-dasharray:none;stroke-opacity:1"
       transform="matrix(0.95652166,0,0,0.95652166,0.47826082,0.47826082)"
       clip-path="url(#clipPath12)" />
    <text
       id="text12"
       xml:space="preserve"
       transform="matrix(0.95653126,0,0,0.95653126,15.229771,158.78419)"
       clip-path="url(#clipPath13)"><tspan
         style="font-variant:normal;font-weight:normal;font-size:16px;font-family:Helvetica;writing-mode:lr-tb;fill:#000000;fill-opacity:1;fill-rule:nonzero;stroke:none"
         x="0 8.8984375 17.796875 22.242188 25.296875 33.296875 37.742188 46.640625 55.539062 59.09375 62.648438 71.546875 75.992188 84.890625 93.789062 98.234375 102.67969 111.57812 116.02344 129.35156 138.25 143.57812 152.47656 156.92188 164.92188 173.82031 179.14844 182.70312 191.60156 200.5 208.5 212.94531 220.94531 229.84375 235.17188 243.17188 246.72656 255.625 264.52344 268.96875 277.86719 282.3125 286.75781 295.65625 304.55469 309 313.44531 322.34375 330.34375 334.78906 343.6875 352.58594 357.91406 366.8125"
         y="0"
         sodipodi:role="line"
         id="tspan12">Let's build out a more serious version of an Instagram</tspan></text>
    <text
       id="text13"
       xml:space="preserve"
       transform="matrix(0.95653126,0,0,0.95653126,168.12532,177.91481)"
       clip-path="url(#clipPath14)"><tspan
         style="font-variant:normal;font-weight:normal;font-size:16px;font-family:Helvetica;writing-mode:lr-tb;fill:#000000;fill-opacity:1;fill-rule:nonzero;stroke:none"
         x="0 8 16 24.898438 33.796875 47.125 56.023438"
         y="0"
         sodipodi:role="line"
         id="tspan13">schema!</tspan></text>
  </g>
</svg>
