<?xml version="1.0" encoding="UTF-8" standalone="no"?>
<!-- Created with Inkscape (http://www.inkscape.org/) -->

<svg
   version="1.1"
   id="svg1"
   width="346.55997"
   height="120"
   viewBox="0 0 346.55997 120"
   sodipodi:docname="sql-15.pdf"
   xmlns:inkscape="http://www.inkscape.org/namespaces/inkscape"
   xmlns:sodipodi="http://sodipodi.sourceforge.net/DTD/sodipodi-0.dtd"
   xmlns="http://www.w3.org/2000/svg"
   xmlns:svg="http://www.w3.org/2000/svg">
  <defs
     id="defs1">
    <clipPath
       clipPathUnits="userSpaceOnUse"
       id="clipPath2">
      <path
         d="M 0,0 H 1083.3334 V 373.04868 H 0 Z"
         transform="scale(0.33507693)"
         clip-rule="evenodd"
         id="path2" />
    </clipPath>
    <clipPath
       clipPathUnits="userSpaceOnUse"
       id="clipPath4">
      <path
         d="M 0,0 H 1083.3334 V 370.06427 H 0 Z"
         transform="matrix(0.33507693,0,0,0.33507693,-0.5,-0.5)"
         clip-rule="evenodd"
         id="path4" />
    </clipPath>
    <clipPath
       clipPathUnits="userSpaceOnUse"
       id="clipPath5">
      <path
         d="M 0,0 H 1083.3334 V 370.06427 H 0 Z"
         transform="matrix(0.33507358,0,0,0.33507358,-43.5,-26)"
         clip-rule="evenodd"
         id="path5" />
    </clipPath>
    <clipPath
       clipPathUnits="userSpaceOnUse"
       id="clipPath7">
      <path
         d="M 0,0 H 1083.3334 V 370.06427 H 0 Z"
         transform="matrix(0.33507693,0,0,0.33507693,-0.5,-0.5)"
         clip-rule="evenodd"
         id="path7" />
    </clipPath>
    <clipPath
       clipPathUnits="userSpaceOnUse"
       id="clipPath8">
      <path
         d="M 0,0 H 1083.3334 V 370.06427 H 0 Z"
         transform="matrix(0.33507358,0,0,0.33507358,-35.328126,-66)"
         clip-rule="evenodd"
         id="path8" />
    </clipPath>
    <clipPath
       clipPathUnits="userSpaceOnUse"
       id="clipPath10">
      <path
         d="M 0,0 H 1083.3334 V 370.06427 H 0 Z"
         transform="matrix(0.33507693,0,0,0.33507693,-0.5,-0.5)"
         clip-rule="evenodd"
         id="path10" />
    </clipPath>
    <clipPath
       clipPathUnits="userSpaceOnUse"
       id="clipPath11">
      <path
         d="M 0,0 H 1083.3334 V 370.06427 H 0 Z"
         transform="matrix(0.33507358,0,0,0.33507358,-26.375,-106)"
         clip-rule="evenodd"
         id="path11" />
    </clipPath>
    <clipPath
       clipPathUnits="userSpaceOnUse"
       id="clipPath13">
      <path
         d="M 0,0 H 1083.3334 V 370.06427 H 0 Z"
         transform="matrix(-0.33507693,0,0,-0.33507693,422.50002,42.500001)"
         clip-rule="evenodd"
         id="path13" />
    </clipPath>
    <clipPath
       clipPathUnits="userSpaceOnUse"
       id="clipPath15">
      <path
         d="M 0,0 H 1083.3334 V 370.06427 H 0 Z"
         transform="matrix(-0.33507693,0,0,-0.33507693,422.50002,122.49999)"
         clip-rule="evenodd"
         id="path15" />
    </clipPath>
    <clipPath
       clipPathUnits="userSpaceOnUse"
       id="clipPath17">
      <path
         d="M 0,0 H 1083.3334 V 370.06427 H 0 Z"
         transform="matrix(-0.33507693,0,0,-0.33507693,422.50002,202.49999)"
         clip-rule="evenodd"
         id="path17" />
    </clipPath>
    <clipPath
       clipPathUnits="userSpaceOnUse"
       id="clipPath18">
      <path
         d="M 0,0 H 1083.3334 V 370.06427 H 0 Z"
         transform="matrix(0.33507358,0,0,0.33507358,-223,-26)"
         clip-rule="evenodd"
         id="path18" />
    </clipPath>
    <clipPath
       clipPathUnits="userSpaceOnUse"
       id="clipPath19">
      <path
         d="M 0,0 H 1083.3334 V 370.06427 H 0 Z"
         transform="matrix(0.33507358,0,0,0.33507358,-274.35938,-26)"
         clip-rule="evenodd"
         id="path19" />
    </clipPath>
    <clipPath
       clipPathUnits="userSpaceOnUse"
       id="clipPath20">
      <path
         d="M 0,0 H 1083.3334 V 370.06427 H 0 Z"
         transform="matrix(0.33507358,0,0,0.33507358,-223,-106)"
         clip-rule="evenodd"
         id="path20" />
    </clipPath>
    <clipPath
       clipPathUnits="userSpaceOnUse"
       id="clipPath21">
      <path
         d="M 0,0 H 1083.3334 V 370.06427 H 0 Z"
         transform="matrix(0.33507358,0,0,0.33507358,-274.35938,-106)"
         clip-rule="evenodd"
         id="path21" />
    </clipPath>
    <clipPath
       clipPathUnits="userSpaceOnUse"
       id="clipPath22">
      <path
         d="M 0,0 H 1083.3334 V 370.06427 H 0 Z"
         transform="matrix(0.33507358,0,0,0.33507358,-223,-66)"
         clip-rule="evenodd"
         id="path22" />
    </clipPath>
    <clipPath
       clipPathUnits="userSpaceOnUse"
       id="clipPath23">
      <path
         d="M 0,0 H 1083.3334 V 370.06427 H 0 Z"
         transform="matrix(0.33507358,0,0,0.33507358,-252.57813,-66)"
         clip-rule="evenodd"
         id="path23" />
    </clipPath>
  </defs>
  <sodipodi:namedview
     id="namedview1"
     pagecolor="#ffffff"
     bordercolor="#000000"
     borderopacity="0.25"
     inkscape:showpageshadow="2"
     inkscape:pageopacity="0.0"
     inkscape:pagecheckerboard="0"
     inkscape:deskcolor="#d1d1d1">
    <inkscape:page
       x="0"
       y="0"
       inkscape:label="1"
       id="page1"
       width="346.55997"
       height="120"
       margin="0"
       bleed="0" />
  </sodipodi:namedview>
  <g
     id="g1"
     inkscape:groupmode="layer"
     inkscape:label="1">
    <path
       id="path1"
       d="M 0,0 H 363 V 125 H 0 Z"
       style="fill:#ffffff;fill-opacity:1;fill-rule:nonzero;stroke:none"
       transform="scale(0.95500454)"
       clip-path="url(#clipPath2)" />
    <path
       id="path3"
       d="M 1,1 H 191 V 41 H 1 Z"
       style="fill:#dae8fc;fill-opacity:1;fill-rule:nonzero;stroke:#6c8ebf;stroke-width:1;stroke-linecap:butt;stroke-linejoin:miter;stroke-miterlimit:10;stroke-dasharray:none;stroke-opacity:1"
       transform="matrix(0.95500454,0,0,0.95500454,0.47750227,0.47750227)"
       clip-path="url(#clipPath4)" />
    <text
       id="text4"
       xml:space="preserve"
       transform="matrix(0.95501407,0,0,0.95501407,41.543112,24.830366)"
       clip-path="url(#clipPath5)"><tspan
         style="font-variant:normal;font-weight:700;font-size:14px;font-family:Helvetica;writing-mode:lr-tb;fill:#000000;fill-opacity:1;fill-rule:nonzero;stroke:none"
         x="0 10.110352 18.662109 27.213867 31.103516 38.889648 47.441406 51.331055 59.882812 72.331055 80.882812 84.772461 88.662109 97.213867"
         y="0"
         sodipodi:role="line"
         id="tspan4">Add column loc</tspan></text>
    <path
       id="path6"
       d="M 1,41 H 191 V 81 H 1 Z"
       style="fill:#dae8fc;fill-opacity:1;fill-rule:nonzero;stroke:#6c8ebf;stroke-width:1;stroke-linecap:butt;stroke-linejoin:miter;stroke-miterlimit:10;stroke-dasharray:none;stroke-opacity:1"
       transform="matrix(0.95500454,0,0,0.95500454,0.47750227,0.47750227)"
       clip-path="url(#clipPath7)" />
    <text
       id="text7"
       xml:space="preserve"
       transform="matrix(0.95501407,0,0,0.95501407,33.738857,63.030929)"
       clip-path="url(#clipPath8)"><tspan
         style="font-variant:normal;font-weight:700;font-size:14px;font-family:Helvetica;writing-mode:lr-tb;fill:#000000;fill-opacity:1;fill-rule:nonzero;stroke:none"
         x="0 10.110352 18.662109 27.213867 35 38.889648 42.779297 50.56543 55.227539 59.117188 63.006836 71.558594 80.110352 84 88.662109 97.213867 101.10352 104.99316 113.54492"
         y="0"
         sodipodi:role="line"
         id="tspan7">Copy lat/lng to loc</tspan></text>
    <path
       id="path9"
       d="m 1,81 h 190 v 40 H 1 Z"
       style="fill:#dae8fc;fill-opacity:1;fill-rule:nonzero;stroke:#6c8ebf;stroke-width:1;stroke-linecap:butt;stroke-linejoin:miter;stroke-miterlimit:10;stroke-dasharray:none;stroke-opacity:1"
       transform="matrix(0.95500454,0,0,0.95500454,0.47750227,0.47750227)"
       clip-path="url(#clipPath10)" />
    <text
       id="text10"
       xml:space="preserve"
       transform="matrix(0.95501407,0,0,0.95501407,25.188496,101.23149)"
       clip-path="url(#clipPath11)"><tspan
         style="font-variant:normal;font-weight:700;font-size:14px;font-family:Helvetica;writing-mode:lr-tb;fill:#000000;fill-opacity:1;fill-rule:nonzero;stroke:none"
         x="0 10.110352 15.558594 24.110352 32.662109 36.551758 44.337891 52.889648 56.779297 65.331055 77.779297 86.331055 94.117188 98.006836 101.89648 109.68262 114.34473 118.23438 122.12402 130.67578"
         y="0"
         sodipodi:role="line"
         id="tspan10">Drop columns lat/lng</tspan></text>
    <path
       id="path12"
       d="m 221,1 h -5 c -3.33333,0 -5,3.333333 -5,10 v 5 c 0,3.333334 -1.66667,5 -5,5 h -2.5 c -1.66667,0 -0.83333,0 2.5,0 h 2.5 c 1.66667,0 2.5,3.333332 2.5,10 v 5 c 0,3.333332 1.66667,5 5,5 h 5"
       style="fill:none;stroke:#000000;stroke-width:1;stroke-linecap:butt;stroke-linejoin:miter;stroke-miterlimit:10;stroke-dasharray:none;stroke-opacity:1"
       transform="matrix(-0.95500454,0,0,-0.95500454,403.48944,40.587694)"
       clip-path="url(#clipPath13)" />
    <path
       id="path14"
       d="m 221,41 h -5 c -3.33333,0 -5,3.333332 -5,10 v 5 c 0,3.333332 -1.66667,5 -5,5 h -2.5 c -1.66667,0 -0.83333,0 2.5,0 h 2.5 c 1.66667,0 2.5,3.333336 2.5,10 v 5 c 0,3.333336 1.66667,5 5,5 h 5"
       style="fill:none;stroke:#000000;stroke-width:1;stroke-linecap:butt;stroke-linejoin:miter;stroke-miterlimit:10;stroke-dasharray:none;stroke-opacity:1"
       transform="matrix(-0.95500454,0,0,-0.95500454,403.48944,116.98805)"
       clip-path="url(#clipPath15)" />
    <path
       id="path16"
       d="m 221,81 h -5 c -3.33333,0 -5,3.333336 -5,10 v 5 c 0,3.333336 -1.66667,5 -5,5 h -2.5 c -1.66667,0 -0.83333,0 2.5,0 h 2.5 c 1.66667,0 2.5,3.33334 2.5,10 v 5 c 0,3.33334 1.66667,5 5,5 h 5"
       style="fill:none;stroke:#000000;stroke-width:1;stroke-linecap:butt;stroke-linejoin:miter;stroke-miterlimit:10;stroke-dasharray:none;stroke-opacity:1"
       transform="matrix(-0.95500454,0,0,-0.95500454,403.48944,193.38841)"
       clip-path="url(#clipPath17)" />
    <text
       id="text17"
       xml:space="preserve"
       transform="matrix(0.95501407,0,0,0.95501407,212.96814,24.830366)"
       clip-path="url(#clipPath18)"><tspan
         style="font-style:oblique;font-variant:normal;font-weight:normal;font-size:14px;font-family:Helvetica;writing-mode:lr-tb;fill:#000000;fill-opacity:1;fill-rule:nonzero;stroke:none"
         x="0 9.3378906 16.337891 24.124023 31.910156 43.572266"
         y="0"
         sodipodi:role="line"
         id="tspan17">Schema</tspan></text>
    <text
       id="text18"
       xml:space="preserve"
       transform="matrix(0.95501407,0,0,0.95501407,262.01707,24.830366)"
       clip-path="url(#clipPath19)"><tspan
         style="font-variant:normal;font-weight:normal;font-size:14px;font-family:Helvetica;writing-mode:lr-tb;fill:#000000;fill-opacity:1;fill-rule:nonzero;stroke:none"
         x="0 3.8896484 15.551758 18.662109 26.448242 31.110352 38.896484 42.786133 45.896484 53.682617"
         y="0"
         sodipodi:role="line"
         id="tspan18"> migration</tspan></text>
    <text
       id="text19"
       xml:space="preserve"
       transform="matrix(0.95501407,0,0,0.95501407,212.96814,101.23149)"
       clip-path="url(#clipPath20)"><tspan
         style="font-style:oblique;font-variant:normal;font-weight:normal;font-size:14px;font-family:Helvetica;writing-mode:lr-tb;fill:#000000;fill-opacity:1;fill-rule:nonzero;stroke:none"
         x="0 9.3378906 16.337891 24.124023 31.910156 43.572266"
         y="0"
         sodipodi:role="line"
         id="tspan19">Schema</tspan></text>
    <text
       id="text20"
       xml:space="preserve"
       transform="matrix(0.95501407,0,0,0.95501407,262.01707,101.23149)"
       clip-path="url(#clipPath21)"><tspan
         style="font-variant:normal;font-weight:normal;font-size:14px;font-family:Helvetica;writing-mode:lr-tb;fill:#000000;fill-opacity:1;fill-rule:nonzero;stroke:none"
         x="0 3.8896484 15.551758 18.662109 26.448242 31.110352 38.896484 42.786133 45.896484 53.682617"
         y="0"
         sodipodi:role="line"
         id="tspan20"> migration</tspan></text>
    <text
       id="text21"
       xml:space="preserve"
       transform="matrix(0.95501407,0,0,0.95501407,212.96814,63.030929)"
       clip-path="url(#clipPath22)"><tspan
         style="font-style:oblique;font-variant:normal;font-weight:normal;font-size:14px;font-family:Helvetica;writing-mode:lr-tb;fill:#000000;fill-opacity:1;fill-rule:nonzero;stroke:none"
         x="0 10.110352 17.896484 21.786133"
         y="0"
         sodipodi:role="line"
         id="tspan21">Data</tspan></text>
    <text
       id="text22"
       xml:space="preserve"
       transform="matrix(0.95501407,0,0,0.95501407,241.21567,63.030929)"
       clip-path="url(#clipPath23)"><tspan
         style="font-variant:normal;font-weight:normal;font-size:14px;font-family:Helvetica;writing-mode:lr-tb;fill:#000000;fill-opacity:1;fill-rule:nonzero;stroke:none"
         x="0 3.8896484 15.551758 18.662109 26.448242 31.110352 38.896484 42.786133 45.896484 53.682617"
         y="0"
         sodipodi:role="line"
         id="tspan22"> migration</tspan></text>
  </g>
</svg>
