<?xml version="1.0" encoding="UTF-8" standalone="no"?>
<!-- Created with Inkscape (http://www.inkscape.org/) -->

<svg
   version="1.1"
   id="svg1"
   width="444.16"
   height="264"
   viewBox="0 0 444.16 264"
   sodipodi:docname="sql-10.pdf"
   xmlns:inkscape="http://www.inkscape.org/namespaces/inkscape"
   xmlns:sodipodi="http://sodipodi.sourceforge.net/DTD/sodipodi-0.dtd"
   xmlns="http://www.w3.org/2000/svg"
   xmlns:svg="http://www.w3.org/2000/svg">
  <defs
     id="defs1">
    <clipPath
       clipPathUnits="userSpaceOnUse"
       id="clipPath2">
      <path
         d="M 0,0 H 1387.5 V 822.33295 H 0 Z"
         transform="scale(0.33441443)"
         clip-rule="evenodd"
         id="path2" />
    </clipPath>
    <clipPath
       clipPathUnits="userSpaceOnUse"
       id="clipPath4">
      <path
         d="M 0,0 H 1387.5 V 819.34265 H 0 Z"
         transform="matrix(0.33441443,0,0,0.33441443,-0.50000001,-0.50000001)"
         clip-rule="evenodd"
         id="path4" />
    </clipPath>
    <clipPath
       clipPathUnits="userSpaceOnUse"
       id="clipPath5">
      <path
         d="M 0,0 H 1387.5 V 819.34265 H 0 Z"
         transform="matrix(0.33441107,0,0,0.33441107,-157.3125,-20)"
         clip-rule="evenodd"
         id="path5" />
    </clipPath>
    <clipPath
       clipPathUnits="userSpaceOnUse"
       id="clipPath7">
      <path
         d="M 0,0 H 1387.5 V 819.34265 H 0 Z"
         transform="matrix(0.33441443,0,0,0.33441443,-0.50000001,-0.50000001)"
         clip-rule="evenodd"
         id="path7" />
    </clipPath>
    <clipPath
       clipPathUnits="userSpaceOnUse"
       id="clipPath8">
      <path
         d="M 0,0 H 1387.5 V 819.34265 H 0 Z"
         transform="matrix(0.33441107,0,0,0.33441107,-42.125,-49.000001)"
         clip-rule="evenodd"
         id="path8" />
    </clipPath>
    <clipPath
       clipPathUnits="userSpaceOnUse"
       id="clipPath10">
      <path
         d="M 0,0 H 1387.5 V 819.34265 H 0 Z"
         transform="matrix(0.33441443,0,0,0.33441443,-0.50000001,-0.50000001)"
         clip-rule="evenodd"
         id="path10" />
    </clipPath>
    <clipPath
       clipPathUnits="userSpaceOnUse"
       id="clipPath11">
      <path
         d="M 0,0 H 1387.5 V 819.34265 H 0 Z"
         transform="matrix(0.33441107,0,0,0.33441107,-164.71875,-90)"
         clip-rule="evenodd"
         id="path11" />
    </clipPath>
    <clipPath
       clipPathUnits="userSpaceOnUse"
       id="clipPath13">
      <path
         d="M 0,0 H 1387.5 V 819.34265 H 0 Z"
         transform="matrix(0.33441443,0,0,0.33441443,-0.50000001,-0.50000001)"
         clip-rule="evenodd"
         id="path13" />
    </clipPath>
    <clipPath
       clipPathUnits="userSpaceOnUse"
       id="clipPath14">
      <path
         d="M 0,0 H 1387.5 V 819.34265 H 0 Z"
         transform="matrix(0.33441107,0,0,0.33441107,-14.953125,-120)"
         clip-rule="evenodd"
         id="path14" />
    </clipPath>
    <clipPath
       clipPathUnits="userSpaceOnUse"
       id="clipPath16">
      <path
         d="M 0,0 H 1387.5 V 819.34265 H 0 Z"
         transform="matrix(0.33441443,0,0,0.33441443,-0.50000001,-0.50000001)"
         clip-rule="evenodd"
         id="path16" />
    </clipPath>
    <clipPath
       clipPathUnits="userSpaceOnUse"
       id="clipPath17">
      <path
         d="M 0,0 H 1387.5 V 819.34265 H 0 Z"
         transform="matrix(0.33441107,0,0,0.33441107,-175.71875,-160)"
         clip-rule="evenodd"
         id="path17" />
    </clipPath>
    <clipPath
       clipPathUnits="userSpaceOnUse"
       id="clipPath19">
      <path
         d="M 0,0 H 1387.5 V 819.34265 H 0 Z"
         transform="matrix(0.33441443,0,0,0.33441443,-0.50000001,-0.50000001)"
         clip-rule="evenodd"
         id="path19" />
    </clipPath>
    <clipPath
       clipPathUnits="userSpaceOnUse"
       id="clipPath20">
      <path
         d="M 0,0 H 1387.5 V 819.34265 H 0 Z"
         transform="matrix(0.33441107,0,0,0.33441107,-5.453125,-190)"
         clip-rule="evenodd"
         id="path20" />
    </clipPath>
    <clipPath
       clipPathUnits="userSpaceOnUse"
       id="clipPath22">
      <path
         d="M 0,0 H 1387.5 V 819.34265 H 0 Z"
         transform="matrix(0.33441443,0,0,0.33441443,-0.50000001,-0.50000001)"
         clip-rule="evenodd"
         id="path22" />
    </clipPath>
    <clipPath
       clipPathUnits="userSpaceOnUse"
       id="clipPath23">
      <path
         d="M 0,0 H 1387.5 V 819.34265 H 0 Z"
         transform="matrix(0.33441107,0,0,0.33441107,-157.70313,-230)"
         clip-rule="evenodd"
         id="path23" />
    </clipPath>
    <clipPath
       clipPathUnits="userSpaceOnUse"
       id="clipPath25">
      <path
         d="M 0,0 H 1387.5 V 819.34265 H 0 Z"
         transform="matrix(0.33441443,0,0,0.33441443,-0.50000001,-0.50000001)"
         clip-rule="evenodd"
         id="path25" />
    </clipPath>
    <clipPath
       clipPathUnits="userSpaceOnUse"
       id="clipPath26">
      <path
         d="M 0,0 H 1387.5 V 819.34265 H 0 Z"
         transform="matrix(0.33441107,0,0,0.33441107,-5.765625,-253)"
         clip-rule="evenodd"
         id="path26" />
    </clipPath>
    <clipPath
       clipPathUnits="userSpaceOnUse"
       id="clipPath27">
      <path
         d="M 0,0 H 1387.5 V 819.34265 H 0 Z"
         transform="matrix(0.33441107,0,0,0.33441107,-225.98439,-268)"
         clip-rule="evenodd"
         id="path27" />
    </clipPath>
  </defs>
  <sodipodi:namedview
     id="namedview1"
     pagecolor="#ffffff"
     bordercolor="#000000"
     borderopacity="0.25"
     inkscape:showpageshadow="2"
     inkscape:pageopacity="0.0"
     inkscape:pagecheckerboard="0"
     inkscape:deskcolor="#d1d1d1">
    <inkscape:page
       x="0"
       y="0"
       inkscape:label="1"
       id="page1"
       width="444.16"
       height="264"
       margin="0"
       bleed="0" />
  </sodipodi:namedview>
  <g
     id="g1"
     inkscape:groupmode="layer"
     inkscape:label="1">
    <path
       id="path1"
       d="M 0,0 H 464 V 275 H 0 Z"
       style="fill:#ffffff;fill-opacity:1;fill-rule:nonzero;stroke:none"
       transform="scale(0.95689647)"
       clip-path="url(#clipPath2)" />
    <path
       id="path3"
       d="M 1,1 H 461 V 31 H 1 Z"
       style="fill:#ffe6cc;fill-opacity:1;fill-rule:nonzero;stroke:#d79b00;stroke-width:1;stroke-linecap:butt;stroke-linejoin:miter;stroke-miterlimit:10;stroke-dasharray:none;stroke-opacity:1"
       transform="matrix(0.95689647,0,0,0.95689647,0.47844824,0.47844824)"
       clip-path="url(#clipPath4)" />
    <text
       id="text4"
       xml:space="preserve"
       transform="matrix(0.95690607,0,0,0.95690607,150.53329,19.138121)"
       clip-path="url(#clipPath5)"><tspan
         style="font-variant:normal;font-weight:700;font-size:12px;font-family:Helvetica;writing-mode:lr-tb;fill:#000000;fill-opacity:1;fill-rule:nonzero;stroke:none"
         x="0 9.9960938 16.669922 23.34375 32.677734 40.681641 44.015625 53.349609 56.683594 60.679688 68.009766 71.34375 79.347656 86.677734 93.351562 97.347656 104.67773 109.34766 116.02148 122.69531 126.0293 132.70312 140.0332"
         y="0"
         sodipodi:role="line"
         id="tspan4">MacOS with Postgres.app</tspan></text>
    <path
       id="path6"
       d="M 1,31 H 461 V 61 H 1 Z"
       style="fill:#ffffff;fill-opacity:1;fill-rule:nonzero;stroke:#000000;stroke-width:1;stroke-linecap:butt;stroke-linejoin:miter;stroke-miterlimit:10;stroke-dasharray:none;stroke-opacity:1"
       transform="matrix(0.95689647,0,0,0.95689647,0.47844824,0.47844824)"
       clip-path="url(#clipPath7)" />
    <text
       id="text7"
       xml:space="preserve"
       transform="matrix(0.95690607,0,0,0.95690607,40.309668,46.888398)"
       clip-path="url(#clipPath8)"><tspan
         style="font-variant:normal;font-weight:normal;font-size:9px;font-family:Helvetica;writing-mode:lr-tb;fill:#000000;fill-opacity:1;fill-rule:nonzero;stroke:none"
         x="0 6.4995117 11.838867 16.672852 22.675781 28.678711 34.681641 40.68457 46.6875 51.692871 58.192383 64.691895 69.697266 74.953125 79.958496 84.963867 89.463867 91.964355 96.969727 99.966797 104.97217 109.47217 111.97266 114.47314 116.97363 123.47314 129.47607 135.479 141.97852 148.47803 154.48096 161.97803 167.98096 177.11719 179.1167 184.12207 188.62207 193.62744 195.62695 200.63232 205.6377 210.1377 212.63818 215.13867 220.14404 225.14941 230.15479 235.16016 237.66064 242.16064 247.16602 251.66602 253.66553 258.6709 260.67041 265.67578 270.68115 273.18164 279.68115 284.68652 287.68359 292.18359 294.68408 297.18457 299.68506 304.69043 309.6958 317.19287 319.69336 322.69043 327.6958 332.70117 335.20166 342.69873 344.69824 349.70361 352.70068 357.70605 360.20654 365.21191 367.7124 372.71777"
         y="0"
         sodipodi:role="line"
         id="tspan7">DATABASE_URL=postgres://USERNAME@localhost:5432/socialnetwork   npm run migrate up</tspan></text>
    <path
       id="path9"
       d="m 1,71 h 460 v 30 H 1 Z"
       style="fill:#ffe6cc;fill-opacity:1;fill-rule:nonzero;stroke:#d79b00;stroke-width:1;stroke-linecap:butt;stroke-linejoin:miter;stroke-miterlimit:10;stroke-dasharray:none;stroke-opacity:1"
       transform="matrix(0.95689647,0,0,0.95689647,0.47844824,0.47844824)"
       clip-path="url(#clipPath10)" />
    <text
       id="text10"
       xml:space="preserve"
       transform="matrix(0.95690607,0,0,0.95690607,157.62037,86.121546)"
       clip-path="url(#clipPath11)"><tspan
         style="font-variant:normal;font-weight:700;font-size:12px;font-family:Helvetica;writing-mode:lr-tb;fill:#000000;fill-opacity:1;fill-rule:nonzero;stroke:none"
         x="0 11.220703 14.554688 21.884766 29.214844 36.544922 45.878906 52.552734 55.886719 65.220703 68.554688 72.550781 79.880859 83.214844 92.548828 95.882812 99.878906 103.21289 111.87891 118.55273 125.22656"
         y="0"
         sodipodi:role="line"
         id="tspan10">Windows with Git Bash</tspan></text>
    <path
       id="path12"
       d="m 1,101 h 460 v 30 H 1 Z"
       style="fill:#ffffff;fill-opacity:1;fill-rule:nonzero;stroke:#000000;stroke-width:1;stroke-linecap:butt;stroke-linejoin:miter;stroke-miterlimit:10;stroke-dasharray:none;stroke-opacity:1"
       transform="matrix(0.95689647,0,0,0.95689647,0.47844824,0.47844824)"
       clip-path="url(#clipPath13)" />
    <text
       id="text13"
       xml:space="preserve"
       transform="matrix(0.95690607,0,0,0.95690607,14.308736,114.82873)"
       clip-path="url(#clipPath14)"><tspan
         style="font-variant:normal;font-weight:normal;font-size:9px;font-family:Helvetica;writing-mode:lr-tb;fill:#000000;fill-opacity:1;fill-rule:nonzero;stroke:none"
         x="0 6.4995117 11.838867 16.672852 22.675781 28.678711 34.681641 40.68457 46.6875 51.692871 58.192383 64.691895 69.697266 74.953125 79.958496 84.963867 89.463867 91.964355 96.969727 99.966797 104.97217 109.47217 111.97266 114.47314 116.97363 123.47314 129.47607 135.479 141.97852 148.47803 154.48096 161.97803 167.98096 170.48145 175.8208 181.82373 187.82666 193.82959 202.32422 209.32471 215.82422 222.32373 231.45996 233.45947 238.46484 242.96484 247.97021 249.96973 254.9751 259.98047 264.48047 266.98096 269.48145 274.48682 279.49219 284.49756 289.50293 292.00342 296.50342 301.50879 306.00879 308.0083 313.01367 315.01318 320.01855 325.02393 327.52441 334.02393 339.0293 342.02637 346.52637 349.02686 351.52734 354.02783 359.0332 364.03857 371.53564 374.03613 377.0332 382.03857 387.04395 389.54443 397.0415 399.04102 404.04639 407.04346 412.04883 414.54932 419.55469 422.05518 427.06055"
         y="0"
         sodipodi:role="line"
         id="tspan13">DATABASE_URL=postgres://USERNAME:PASSWORD@localhost:5432/socialnetwork   npm run migrate up</tspan></text>
    <path
       id="path15"
       d="m 1,141 h 460 v 30 H 1 Z"
       style="fill:#ffe6cc;fill-opacity:1;fill-rule:nonzero;stroke:#d79b00;stroke-width:1;stroke-linecap:butt;stroke-linejoin:miter;stroke-miterlimit:10;stroke-dasharray:none;stroke-opacity:1"
       transform="matrix(0.95689647,0,0,0.95689647,0.47844824,0.47844824)"
       clip-path="url(#clipPath16)" />
    <text
       id="text16"
       xml:space="preserve"
       transform="matrix(0.95690607,0,0,0.95690607,168.14634,153.10497)"
       clip-path="url(#clipPath17)"><tspan
         style="font-variant:normal;font-weight:700;font-size:12px;font-family:Helvetica;writing-mode:lr-tb;fill:#000000;fill-opacity:1;fill-rule:nonzero;stroke:none"
         x="0 11.220703 14.554688 21.884766 29.214844 36.544922 45.878906 52.552734 55.886719 65.220703 68.554688 72.550781 79.880859 83.214844 91.880859 101.87695"
         y="0"
         sodipodi:role="line"
         id="tspan16">Windows with CMD</tspan></text>
    <path
       id="path18"
       d="m 1,171 h 460 v 30 H 1 Z"
       style="fill:#ffffff;fill-opacity:1;fill-rule:nonzero;stroke:#000000;stroke-width:1;stroke-linecap:butt;stroke-linejoin:miter;stroke-miterlimit:10;stroke-dasharray:none;stroke-opacity:1"
       transform="matrix(0.95689647,0,0,0.95689647,0.47844824,0.47844824)"
       clip-path="url(#clipPath19)" />
    <text
       id="text19"
       xml:space="preserve"
       transform="matrix(0.95690607,0,0,0.95690607,5.2181284,181.81215)"
       clip-path="url(#clipPath20)"><tspan
         style="font-variant:normal;font-weight:normal;font-size:9px;font-family:Helvetica;writing-mode:lr-tb;fill:#000000;fill-opacity:1;fill-rule:nonzero;stroke:none"
         x="0 4.5 9.5053711 12.005859 14.506348 21.005859 26.345215 31.179199 37.182129 43.185059 49.187988 55.190918 61.193848 66.199219 72.69873 79.198242 84.203613 89.459473 94.464844 99.470215 103.97021 106.4707 111.47607 114.47314 119.47852 123.97852 126.479 128.97949 131.47998 137.97949 143.98242 149.98535 156.48486 162.98438 168.9873 176.48438 182.4873 184.98779 190.32715 196.33008 202.33301 208.33594 216.83057 223.83105 230.33057 236.83008 245.96631 247.96582 252.97119 257.47119 262.47656 264.47607 269.48145 274.48682 278.98682 281.4873 283.98779 288.99316 293.99854 299.00391 304.00928 306.50977 311.00977 316.01514 320.51514 322.51465 327.52002 329.51953 334.5249 339.53027 342.03076 348.53027 353.53564 356.53271 361.03271 367.03564 373.03857 378.04395 383.04932 390.54639 393.04688 396.04395 401.04932 406.05469 408.55518 416.05225 418.05176 423.05713 426.0542 431.05957 433.56006 438.56543 441.06592 446.07129"
         y="0"
         sodipodi:role="line"
         id="tspan19">set DATABASE_URL=postgres://USERNAME:PASSWORD@localhost:5432/socialnetwork&amp;&amp;npm run migrate up</tspan></text>
    <path
       id="path21"
       d="m 1,211 h 460 v 30 H 1 Z"
       style="fill:#ffe6cc;fill-opacity:1;fill-rule:nonzero;stroke:#d79b00;stroke-width:1;stroke-linecap:butt;stroke-linejoin:miter;stroke-miterlimit:10;stroke-dasharray:none;stroke-opacity:1"
       transform="matrix(0.95689647,0,0,0.95689647,0.47844824,0.47844824)"
       clip-path="url(#clipPath22)" />
    <text
       id="text22"
       xml:space="preserve"
       transform="matrix(0.95690607,0,0,0.95690607,150.90708,220.0884)"
       clip-path="url(#clipPath23)"><tspan
         style="font-variant:normal;font-weight:700;font-size:12px;font-family:Helvetica;writing-mode:lr-tb;fill:#000000;fill-opacity:1;fill-rule:nonzero;stroke:none"
         x="0 11.220703 14.554688 21.884766 29.214844 36.544922 45.878906 52.552734 55.886719 65.220703 68.554688 72.550781 79.880859 83.214844 91.21875 98.548828 107.88281 114.55664 119.22656 125.90039 133.23047 139.9043 143.23828"
         y="0"
         sodipodi:role="line"
         id="tspan22">Windows with Powershell</tspan></text>
    <path
       id="path24"
       d="m 1,241 h 460 v 30 H 1 Z"
       style="fill:#ffffff;fill-opacity:1;fill-rule:nonzero;stroke:#000000;stroke-width:1;stroke-linecap:butt;stroke-linejoin:miter;stroke-miterlimit:10;stroke-dasharray:none;stroke-opacity:1"
       transform="matrix(0.95689647,0,0,0.95689647,0.47844824,0.47844824)"
       clip-path="url(#clipPath25)" />
    <text
       id="text25"
       xml:space="preserve"
       transform="matrix(0.95690607,0,0,0.95690607,5.5171616,242.09724)"
       clip-path="url(#clipPath26)"><tspan
         style="font-variant:normal;font-weight:normal;font-size:9px;font-family:Helvetica;writing-mode:lr-tb;fill:#000000;fill-opacity:1;fill-rule:nonzero;stroke:none"
         x="0 5.0053711 10.010742 15.016113 19.516113 22.016602 28.516113 33.855469 38.689453 44.692383 50.695312 56.698242 62.701172 68.704102 73.709473 80.208984 86.708496 91.713867 96.969727 100.16455 105.16992 110.17529 114.67529 117.17578 122.18115 125.17822 130.18359 134.68359 137.18408 139.68457 142.18506 148.68457 154.6875 160.69043 167.18994 173.68945 179.69238 187.18945 193.19238 195.69287 201.03223 207.03516 213.03809 219.04102 227.53564 234.53613 241.03564 247.53516 256.67139 258.6709 263.67627 268.17627 273.18164 275.18115 280.18652 285.19189 289.69189 292.19238 294.69287 299.69824 304.70361 309.70898 314.71436 317.21484 321.71484 326.72021 331.22021 333.21973 338.2251 340.22461 345.22998 350.23535 352.73584 359.23535 364.24072 367.23779 371.73779 374.93262 377.43311 379.93359 382.43408 384.93457 389.93994 394.94531 402.44238 404.94287 407.93994 412.94531 417.95068 420.45117 427.94824 429.94775 434.95312 437.9502 442.95557 445.45605"
         y="0"
         sodipodi:role="line"
         id="tspan25">$env:DATABASE_URL=&quot;postgres://USERNAME:PASSWORD@localhost:5432/socialnetwork&quot; ;  npm run migrate</tspan></text>
    <text
       id="text26"
       xml:space="preserve"
       transform="matrix(0.95690607,0,0,0.95690607,216.24583,256.45083)"
       clip-path="url(#clipPath27)"><tspan
         style="font-variant:normal;font-weight:normal;font-size:9px;font-family:Helvetica;writing-mode:lr-tb;fill:#000000;fill-opacity:1;fill-rule:nonzero;stroke:none"
         x="0 5.0053711"
         y="0"
         sodipodi:role="line"
         id="tspan26">up</tspan></text>
  </g>
</svg>
