<?xml version="1.0" encoding="UTF-8" standalone="no"?>
<!-- Created with Inkscape (http://www.inkscape.org/) -->

<svg
   version="1.1"
   id="svg1"
   width="476.16"
   height="332.16"
   viewBox="0 0 476.16 332.16"
   sodipodi:docname="sql-21.pdf"
   xmlns:inkscape="http://www.inkscape.org/namespaces/inkscape"
   xmlns:sodipodi="http://sodipodi.sourceforge.net/DTD/sodipodi-0.dtd"
   xmlns="http://www.w3.org/2000/svg"
   xmlns:svg="http://www.w3.org/2000/svg">
  <defs
     id="defs1">
    <clipPath
       clipPathUnits="userSpaceOnUse"
       id="clipPath2">
      <path
         d="M 0,0 H 1487.5 V 1035.5634 H 0 Z"
         transform="scale(0.33411764)"
         clip-rule="evenodd"
         id="path2" />
    </clipPath>
    <clipPath
       clipPathUnits="userSpaceOnUse"
       id="clipPath4">
      <path
         d="M 0,0 H 1487.5 V 1029.5775 H 0 Z"
         transform="matrix(0.33411764,0,0,0.33411764,-0.5,-0.5)"
         clip-rule="evenodd"
         id="path4" />
    </clipPath>
    <clipPath
       clipPathUnits="userSpaceOnUse"
       id="clipPath6">
      <path
         d="M 0,0 H 1487.5 V 1029.5775 H 0 Z"
         transform="matrix(0.33411764,0,0,0.33411764,-0.5,-0.5)"
         clip-rule="evenodd"
         id="path6" />
    </clipPath>
    <clipPath
       clipPathUnits="userSpaceOnUse"
       id="clipPath7">
      <path
         d="M 0,0 H 1487.5 V 1029.5775 H 0 Z"
         transform="matrix(0.33411428,0,0,0.33411428,-3.78125,-323)"
         clip-rule="evenodd"
         id="path7" />
    </clipPath>
    <clipPath
       clipPathUnits="userSpaceOnUse"
       id="clipPath9">
      <path
         d="M 0,0 H 1487.5 V 1029.5775 H 0 Z"
         transform="matrix(0.33411764,0,0,0.33411764,-0.5,-0.5)"
         clip-rule="evenodd"
         id="path9" />
    </clipPath>
    <clipPath
       clipPathUnits="userSpaceOnUse"
       id="clipPath11">
      <path
         d="M 0,0 H 1487.5 V 1029.5775 H 0 Z"
         transform="matrix(0.33411764,0,0,0.33411764,-0.5,-0.5)"
         clip-rule="evenodd"
         id="path11" />
    </clipPath>
    <clipPath
       clipPathUnits="userSpaceOnUse"
       id="clipPath13">
      <path
         d="M 0,0 H 1487.5 V 1029.5775 H 0 Z"
         transform="matrix(0.33411764,0,0,0.33411764,-0.5,-0.5)"
         clip-rule="evenodd"
         id="path13" />
    </clipPath>
    <clipPath
       clipPathUnits="userSpaceOnUse"
       id="clipPath14">
      <path
         d="M 0,0 H 1487.5 V 1029.5775 H 0 Z"
         transform="matrix(0.33411428,0,0,0.33411428,-110.29687,-27)"
         clip-rule="evenodd"
         id="path14" />
    </clipPath>
    <clipPath
       clipPathUnits="userSpaceOnUse"
       id="clipPath16">
      <path
         d="M 0,0 H 1487.5 V 1029.5775 H 0 Z"
         transform="matrix(0.33411764,0,0,0.33411764,-0.5,-0.5)"
         clip-rule="evenodd"
         id="path16" />
    </clipPath>
    <clipPath
       clipPathUnits="userSpaceOnUse"
       id="clipPath18">
      <path
         d="M 0,0 H 1487.5 V 1029.5775 H 0 Z"
         transform="matrix(0.33411764,0,0,0.33411764,-0.5,-0.5)"
         clip-rule="evenodd"
         id="path18" />
    </clipPath>
    <clipPath
       clipPathUnits="userSpaceOnUse"
       id="clipPath20">
      <path
         d="M 0,0 H 1487.5 V 1029.5775 H 0 Z"
         transform="matrix(0.33411764,0,0,0.33411764,-0.5,-0.5)"
         clip-rule="evenodd"
         id="path20" />
    </clipPath>
    <clipPath
       clipPathUnits="userSpaceOnUse"
       id="clipPath21">
      <path
         d="M 0,0 H 1487.5 V 1029.5775 H 0 Z"
         transform="matrix(0.33411428,0,0,0.33411428,-97.109375,-63)"
         clip-rule="evenodd"
         id="path21" />
    </clipPath>
    <clipPath
       clipPathUnits="userSpaceOnUse"
       id="clipPath23">
      <path
         d="M 0,0 H 1487.5 V 1029.5775 H 0 Z"
         transform="matrix(0.33411764,0,0,0.33411764,-0.5,-0.5)"
         clip-rule="evenodd"
         id="path23" />
    </clipPath>
    <clipPath
       clipPathUnits="userSpaceOnUse"
       id="clipPath25">
      <path
         d="M 0,0 H 1487.5 V 1029.5775 H 0 Z"
         transform="matrix(0.33411764,0,0,0.33411764,-0.5,-0.5)"
         clip-rule="evenodd"
         id="path25" />
    </clipPath>
    <clipPath
       clipPathUnits="userSpaceOnUse"
       id="clipPath27">
      <path
         d="M 0,0 H 1487.5 V 1029.5775 H 0 Z"
         transform="matrix(0.33411764,0,0,0.33411764,-0.5,-0.5)"
         clip-rule="evenodd"
         id="path27" />
    </clipPath>
    <clipPath
       clipPathUnits="userSpaceOnUse"
       id="clipPath28">
      <path
         d="M 0,0 H 1487.5 V 1029.5775 H 0 Z"
         transform="matrix(0.33411428,0,0,0.33411428,-93.75,-103)"
         clip-rule="evenodd"
         id="path28" />
    </clipPath>
    <clipPath
       clipPathUnits="userSpaceOnUse"
       id="clipPath30">
      <path
         d="M 0,0 H 1487.5 V 1029.5775 H 0 Z"
         transform="matrix(0.33411764,0,0,0.33411764,-0.5,-0.5)"
         clip-rule="evenodd"
         id="path30" />
    </clipPath>
    <clipPath
       clipPathUnits="userSpaceOnUse"
       id="clipPath32">
      <path
         d="M 0,0 H 1487.5 V 1029.5775 H 0 Z"
         transform="matrix(0.33411764,0,0,0.33411764,-0.5,-0.5)"
         clip-rule="evenodd"
         id="path32" />
    </clipPath>
    <clipPath
       clipPathUnits="userSpaceOnUse"
       id="clipPath34">
      <path
         d="M 0,0 H 1487.5 V 1029.5775 H 0 Z"
         transform="matrix(0.33411764,0,0,0.33411764,-0.5,-0.5)"
         clip-rule="evenodd"
         id="path34" />
    </clipPath>
    <clipPath
       clipPathUnits="userSpaceOnUse"
       id="clipPath35">
      <path
         d="M 0,0 H 1487.5 V 1029.5775 H 0 Z"
         transform="matrix(0.33411428,0,0,0.33411428,-113.3125,-243)"
         clip-rule="evenodd"
         id="path35" />
    </clipPath>
    <clipPath
       clipPathUnits="userSpaceOnUse"
       id="clipPath36">
      <path
         d="M 0,0 H 1487.5 V 1029.5775 H 0 Z"
         transform="matrix(0.33411428,0,0,0.33411428,-96.96875,-145)"
         clip-rule="evenodd"
         id="path36" />
    </clipPath>
    <clipPath
       clipPathUnits="userSpaceOnUse"
       id="clipPath37">
      <path
         d="M 0,0 H 1487.5 V 1029.5775 H 0 Z"
         transform="matrix(0.33411428,0,0,0.33411428,-87.640625,-159)"
         clip-rule="evenodd"
         id="path37" />
    </clipPath>
    <clipPath
       clipPathUnits="userSpaceOnUse"
       id="clipPath38">
      <path
         d="M 0,0 H 1487.5 V 1029.5775 H 0 Z"
         transform="matrix(0.33411428,0,0,0.33411428,-77.171875,-174)"
         clip-rule="evenodd"
         id="path38" />
    </clipPath>
    <clipPath
       clipPathUnits="userSpaceOnUse"
       id="clipPath39">
      <path
         d="M 0,0 H 1487.5 V 1029.5775 H 0 Z"
         transform="matrix(0.33411428,0,0,0.33411428,-82.968749,-187.99999)"
         clip-rule="evenodd"
         id="path39" />
    </clipPath>
    <clipPath
       clipPathUnits="userSpaceOnUse"
       id="clipPath41">
      <path
         d="M 0,0 H 1487.5 V 1029.5775 H 0 Z"
         transform="matrix(0.33411764,0,0,0.33411764,-0.5,-0.5)"
         clip-rule="evenodd"
         id="path41" />
    </clipPath>
    <clipPath
       clipPathUnits="userSpaceOnUse"
       id="clipPath43">
      <path
         d="M 0,0 H 1487.5 V 1029.5775 H 0 Z"
         transform="matrix(0.33411764,0,0,0.33411764,-0.5,-0.5)"
         clip-rule="evenodd"
         id="path43" />
    </clipPath>
    <clipPath
       clipPathUnits="userSpaceOnUse"
       id="clipPath45">
      <path
         d="M 0,0 H 1487.5 V 1029.5775 H 0 Z"
         transform="matrix(0.33411764,0,0,0.33411764,-0.5,-0.5)"
         clip-rule="evenodd"
         id="path45" />
    </clipPath>
    <clipPath
       clipPathUnits="userSpaceOnUse"
       id="clipPath46">
      <path
         d="M 0,0 H 1487.5 V 1029.5775 H 0 Z"
         transform="matrix(0.33411428,0,0,0.33411428,-99.859374,-279.99999)"
         clip-rule="evenodd"
         id="path46" />
    </clipPath>
    <clipPath
       clipPathUnits="userSpaceOnUse"
       id="clipPath48">
      <path
         d="M 0,0 H 1487.5 V 1029.5775 H 0 Z"
         transform="matrix(0.33411764,0,0,0.33411764,-0.5,-0.5)"
         clip-rule="evenodd"
         id="path48" />
    </clipPath>
    <clipPath
       clipPathUnits="userSpaceOnUse"
       id="clipPath49">
      <path
         d="M 0,0 H 1487.5 V 1029.5775 H 0 Z"
         transform="matrix(0.33411428,0,0,0.33411428,-114.21875,-317)"
         clip-rule="evenodd"
         id="path49" />
    </clipPath>
    <clipPath
       clipPathUnits="userSpaceOnUse"
       id="clipPath51">
      <path
         d="M 0,0 H 1487.5 V 1029.5775 H 0 Z"
         transform="scale(0.33411764)"
         clip-rule="evenodd"
         id="path51" />
    </clipPath>
    <clipPath
       clipPathUnits="userSpaceOnUse"
       id="clipPath52">
      <path
         d="M 0,0 H 1487.5 V 1029.5775 H 0 Z"
         transform="matrix(0.33411428,0,0,0.33411428,-287.67187,-104)"
         clip-rule="evenodd"
         id="path52" />
    </clipPath>
    <clipPath
       clipPathUnits="userSpaceOnUse"
       id="clipPath54">
      <path
         d="M 0,0 H 1487.5 V 1029.5775 H 0 Z"
         transform="matrix(0.33411764,0,0,0.33411764,-0.5,-0.5)"
         clip-rule="evenodd"
         id="path54" />
    </clipPath>
    <clipPath
       clipPathUnits="userSpaceOnUse"
       id="clipPath56">
      <path
         d="M 0,0 H 1487.5 V 1029.5775 H 0 Z"
         transform="matrix(0.33411764,0,0,0.33411764,-0.5,-0.5)"
         clip-rule="evenodd"
         id="path56" />
    </clipPath>
    <clipPath
       clipPathUnits="userSpaceOnUse"
       id="clipPath58">
      <path
         d="M 0,0 H 1487.5 V 1029.5775 H 0 Z"
         transform="matrix(0.33411764,0,0,0.33411764,-0.5,-0.5)"
         clip-rule="evenodd"
         id="path58" />
    </clipPath>
    <clipPath
       clipPathUnits="userSpaceOnUse"
       id="clipPath59">
      <path
         d="M 0,0 H 1487.5 V 1029.5775 H 0 Z"
         transform="matrix(0.33411428,0,0,0.33411428,-280.01562,-129)"
         clip-rule="evenodd"
         id="path59" />
    </clipPath>
    <clipPath
       clipPathUnits="userSpaceOnUse"
       id="clipPath60">
      <path
         d="M 0,0 H 1487.5 V 1029.5775 H 0 Z"
         transform="matrix(0.33411428,0,0,0.33411428,-357.0625,-143)"
         clip-rule="evenodd"
         id="path60" />
    </clipPath>
    <clipPath
       clipPathUnits="userSpaceOnUse"
       id="clipPath62">
      <path
         d="M 0,0 H 1487.5 V 1029.5775 H 0 Z"
         transform="matrix(0.33411764,0,0,0.33411764,-0.5,-0.5)"
         clip-rule="evenodd"
         id="path62" />
    </clipPath>
    <clipPath
       clipPathUnits="userSpaceOnUse"
       id="clipPath64">
      <path
         d="M 0,0 H 1487.5 V 1029.5775 H 0 Z"
         transform="matrix(0.33411764,0,0,0.33411764,-0.5,-0.5)"
         clip-rule="evenodd"
         id="path64" />
    </clipPath>
    <clipPath
       clipPathUnits="userSpaceOnUse"
       id="clipPath66">
      <path
         d="M 0,0 H 1487.5 V 1029.5775 H 0 Z"
         transform="matrix(0.33411764,0,0,0.33411764,-0.5,-0.5)"
         clip-rule="evenodd"
         id="path66" />
    </clipPath>
    <clipPath
       clipPathUnits="userSpaceOnUse"
       id="clipPath67">
      <path
         d="M 0,0 H 1487.5 V 1029.5775 H 0 Z"
         transform="matrix(0.33411428,0,0,0.33411428,-359.82813,-175)"
         clip-rule="evenodd"
         id="path67" />
    </clipPath>
    <clipPath
       clipPathUnits="userSpaceOnUse"
       id="clipPath69">
      <path
         d="M 0,0 H 1487.5 V 1029.5775 H 0 Z"
         transform="matrix(0.33411764,0,0,0.33411764,-0.5,-0.5)"
         clip-rule="evenodd"
         id="path69" />
    </clipPath>
    <clipPath
       clipPathUnits="userSpaceOnUse"
       id="clipPath70">
      <path
         d="M 0,0 H 1487.5 V 1029.5775 H 0 Z"
         transform="matrix(0.33411428,0,0,0.33411428,-297.46875,-213)"
         clip-rule="evenodd"
         id="path70" />
    </clipPath>
  </defs>
  <sodipodi:namedview
     id="namedview1"
     pagecolor="#ffffff"
     bordercolor="#000000"
     borderopacity="0.25"
     inkscape:showpageshadow="2"
     inkscape:pageopacity="0.0"
     inkscape:pagecheckerboard="0"
     inkscape:deskcolor="#d1d1d1">
    <inkscape:page
       x="0"
       y="0"
       inkscape:label="1"
       id="page1"
       width="476.16"
       height="332.16"
       margin="0"
       bleed="0" />
  </sodipodi:namedview>
  <g
     id="g1"
     inkscape:groupmode="layer"
     inkscape:label="1">
    <path
       id="path1"
       d="M 0,0 H 497 V 346 H 0 Z"
       style="fill:#ffffff;fill-opacity:1;fill-rule:nonzero;stroke:none"
       transform="scale(0.95774646)"
       clip-path="url(#clipPath2)" />
    <path
       id="path3"
       d="M 50,7.5 V 327.64001"
       style="fill:none;stroke:#000000;stroke-width:1;stroke-linecap:butt;stroke-linejoin:miter;stroke-miterlimit:10;stroke-dasharray:none;stroke-opacity:1"
       transform="matrix(0.95774646,0,0,0.95774646,0.47887323,0.47887323)"
       clip-path="url(#clipPath4)" />
    <path
       id="path5"
       d="m 50,332.89001 -3.5,-7 3.5,1.75 3.5,-1.75 z"
       style="fill:#000000;fill-opacity:1;fill-rule:nonzero;stroke:#000000;stroke-width:1;stroke-linecap:butt;stroke-linejoin:miter;stroke-miterlimit:10;stroke-dasharray:none;stroke-opacity:1"
       transform="matrix(0.95774646,0,0,0.95774646,0.47887323,0.47887323)"
       clip-path="url(#clipPath6)" />
    <text
       id="text6"
       xml:space="preserve"
       transform="matrix(0.95775609,0,0,0.95775609,3.6215152,309.35522)"
       clip-path="url(#clipPath7)"><tspan
         style="font-variant:normal;font-weight:700;font-size:14px;font-family:Helvetica;writing-mode:lr-tb;fill:#000000;fill-opacity:1;fill-rule:nonzero;stroke:none"
         x="0 8.3056641 12.195312 24.643555"
         y="0"
         sodipodi:role="line"
         id="tspan6">Time</tspan></text>
    <path
       id="path8"
       d="m 150,37.5 v 0.130001"
       style="fill:none;stroke:#000000;stroke-width:1;stroke-linecap:butt;stroke-linejoin:miter;stroke-miterlimit:10;stroke-dasharray:none;stroke-opacity:1"
       transform="matrix(0.95774646,0,0,0.95774646,0.47887323,0.47887323)"
       clip-path="url(#clipPath9)" />
    <path
       id="path10"
       d="m 150,42.880001 -3.5,-7 3.5,1.75 3.5,-1.75 z"
       style="fill:#000000;fill-opacity:1;fill-rule:nonzero;stroke:#000000;stroke-width:1;stroke-linecap:butt;stroke-linejoin:miter;stroke-miterlimit:10;stroke-dasharray:none;stroke-opacity:1"
       transform="matrix(0.95774646,0,0,0.95774646,0.47887323,0.47887323)"
       clip-path="url(#clipPath11)" />
    <path
       id="path12"
       d="m 60,7.5 h 180 v 30 H 60 Z"
       style="fill:#ffffff;fill-opacity:1;fill-rule:nonzero;stroke:#000000;stroke-width:1;stroke-linecap:butt;stroke-linejoin:miter;stroke-miterlimit:10;stroke-dasharray:none;stroke-opacity:1"
       transform="matrix(0.95774646,0,0,0.95774646,0.47887323,0.47887323)"
       clip-path="url(#clipPath13)" />
    <text
       id="text13"
       xml:space="preserve"
       transform="matrix(0.95775609,0,0,0.95775609,105.6375,25.859414)"
       clip-path="url(#clipPath14)"><tspan
         style="font-variant:normal;font-weight:normal;font-size:11px;font-family:Helvetica;writing-mode:lr-tb;fill:#000000;fill-opacity:1;fill-rule:nonzero;stroke:none"
         x="0 7.3369141 13.45459 19.572266 22.628418 28.128418 34.246094 36.689941 42.807617 51.970703 58.088379 61.144531 63.244629 65.688477 71.806152 77.306152"
         y="0"
         sodipodi:role="line"
         id="tspan13">Add column 'loc'</tspan></text>
    <path
       id="path15"
       d="M 150,74 V 94 64 77.629997"
       style="fill:none;stroke:#000000;stroke-width:1;stroke-linecap:butt;stroke-linejoin:miter;stroke-miterlimit:10;stroke-dasharray:none;stroke-opacity:1"
       transform="matrix(0.95774646,0,0,0.95774646,0.47887323,0.47887323)"
       clip-path="url(#clipPath16)" />
    <path
       id="path17"
       d="m 150,82.879997 -3.5,-7 3.5,1.75 3.5,-1.75 z"
       style="fill:#000000;fill-opacity:1;fill-rule:nonzero;stroke:#000000;stroke-width:1;stroke-linecap:butt;stroke-linejoin:miter;stroke-miterlimit:10;stroke-dasharray:none;stroke-opacity:1"
       transform="matrix(0.95774646,0,0,0.95774646,0.47887323,0.47887323)"
       clip-path="url(#clipPath18)" />
    <path
       id="path19"
       d="M 60,44 H 240 V 74 H 60 Z"
       style="fill:#ffffff;fill-opacity:1;fill-rule:nonzero;stroke:#000000;stroke-width:1;stroke-linecap:butt;stroke-linejoin:miter;stroke-miterlimit:10;stroke-dasharray:none;stroke-opacity:1"
       transform="matrix(0.95774646,0,0,0.95774646,0.47887323,0.47887323)"
       clip-path="url(#clipPath20)" />
    <text
       id="text20"
       xml:space="preserve"
       transform="matrix(0.95775609,0,0,0.95775609,93.007095,60.338634)"
       clip-path="url(#clipPath21)"><tspan
         style="font-variant:normal;font-weight:normal;font-size:11px;font-family:Helvetica;writing-mode:lr-tb;fill:#000000;fill-opacity:1;fill-rule:nonzero;stroke:none"
         x="0 7.3369141 13.45459 19.572266 22.628418 28.128418 34.246094 36.689941 42.807617 51.970703 58.088379 61.144531 66.644531 72.762207 81.925293 88.042969 90.486816 96.604492 99.660645"
         y="0"
         sodipodi:role="line"
         id="tspan20">Add column complete</tspan></text>
    <path
       id="path22"
       d="m 150,114 v 55 48.63"
       style="fill:none;stroke:#000000;stroke-width:1;stroke-linecap:butt;stroke-linejoin:miter;stroke-miterlimit:10;stroke-dasharray:none;stroke-opacity:1"
       transform="matrix(0.95774646,0,0,0.95774646,0.47887323,0.47887323)"
       clip-path="url(#clipPath23)" />
    <path
       id="path24"
       d="m 150,222.88 -3.5,-7 3.5,1.75 3.5,-1.75 z"
       style="fill:#000000;fill-opacity:1;fill-rule:nonzero;stroke:#000000;stroke-width:1;stroke-linecap:butt;stroke-linejoin:miter;stroke-miterlimit:10;stroke-dasharray:none;stroke-opacity:1"
       transform="matrix(0.95774646,0,0,0.95774646,0.47887323,0.47887323)"
       clip-path="url(#clipPath25)" />
    <path
       id="path26"
       d="m 60,84 h 180 v 30 H 60 Z"
       style="fill:#ffffff;fill-opacity:1;fill-rule:nonzero;stroke:#000000;stroke-width:1;stroke-linecap:butt;stroke-linejoin:miter;stroke-miterlimit:10;stroke-dasharray:none;stroke-opacity:1"
       transform="matrix(0.95774646,0,0,0.95774646,0.47887323,0.47887323)"
       clip-path="url(#clipPath27)" />
    <text
       id="text27"
       xml:space="preserve"
       transform="matrix(0.95775609,0,0,0.95775609,89.789633,98.648877)"
       clip-path="url(#clipPath28)"><tspan
         style="font-variant:normal;font-weight:normal;font-size:11px;font-family:Helvetica;writing-mode:lr-tb;fill:#000000;fill-opacity:1;fill-rule:nonzero;stroke:none"
         x="0 7.9438477 14.061523 20.179199 25.679199 28.735352 31.791504 35.45459 41.572266 50.735352 53.791504 56.235352 62.353027 65.40918 68.465332 70.90918 77.026855 83.144531 86.200684 89.256836 95.374512 98.430664 100.87451 106.99219"
         y="0"
         sodipodi:role="line"
         id="tspan27">Copy from lat/lng to loc</tspan></text>
    <path
       id="path29"
       d="m 150,254 v 0.63"
       style="fill:none;stroke:#000000;stroke-width:1;stroke-linecap:butt;stroke-linejoin:miter;stroke-miterlimit:10;stroke-dasharray:none;stroke-opacity:1"
       transform="matrix(0.95774646,0,0,0.95774646,0.47887323,0.47887323)"
       clip-path="url(#clipPath30)" />
    <path
       id="path31"
       d="m 150,259.88 -3.5,-7 3.5,1.75 3.5,-1.75 z"
       style="fill:#000000;fill-opacity:1;fill-rule:nonzero;stroke:#000000;stroke-width:1;stroke-linecap:butt;stroke-linejoin:miter;stroke-miterlimit:10;stroke-dasharray:none;stroke-opacity:1"
       transform="matrix(0.95774646,0,0,0.95774646,0.47887323,0.47887323)"
       clip-path="url(#clipPath32)" />
    <path
       id="path33"
       d="m 60,224 h 180 v 30 H 60 Z"
       style="fill:#ffffff;fill-opacity:1;fill-rule:nonzero;stroke:#000000;stroke-width:1;stroke-linecap:butt;stroke-linejoin:miter;stroke-miterlimit:10;stroke-dasharray:none;stroke-opacity:1"
       transform="matrix(0.95774646,0,0,0.95774646,0.47887323,0.47887323)"
       clip-path="url(#clipPath34)" />
    <text
       id="text34"
       xml:space="preserve"
       transform="matrix(0.95775609,0,0,0.95775609,108.52574,232.73473)"
       clip-path="url(#clipPath35)"><tspan
         style="font-variant:normal;font-weight:normal;font-size:11px;font-family:Helvetica;writing-mode:lr-tb;fill:#000000;fill-opacity:1;fill-rule:nonzero;stroke:none"
         x="0 7.9438477 14.061523 20.179199 25.679199 28.735352 34.235352 40.353027 49.516113 55.633789 58.077637 64.195312 67.251465"
         y="0"
         sodipodi:role="line"
         id="tspan34">Copy complete</tspan></text>
    <text
       id="text35"
       xml:space="preserve"
       transform="matrix(0.95775609,0,0,0.95775609,92.872411,138.87463)"
       clip-path="url(#clipPath36)"><tspan
         style="font-style:oblique;font-variant:normal;font-weight:normal;font-size:12px;font-family:Helvetica;writing-mode:lr-tb;fill:#000000;fill-opacity:1;fill-rule:nonzero;stroke:none"
         x="0 8.6660156 15.339844 22.013672 28.013672 30.679688 37.353516"
         y="0"
         sodipodi:role="line"
         id="tspan35">Copying</tspan></text>
    <text
       id="text36"
       xml:space="preserve"
       transform="matrix(0.95775609,0,0,0.95775609,83.938342,152.28322)"
       clip-path="url(#clipPath37)"><tspan
         style="font-style:oblique;font-variant:normal;font-weight:normal;font-size:12px;font-family:Helvetica;writing-mode:lr-tb;fill:#000000;fill-opacity:1;fill-rule:nonzero;stroke:none"
         x="0 9.9960938 12.662109 15.328125 17.994141 20.660156 27.333984 34.007812 40.007812 43.341797 50.015625"
         y="0"
         sodipodi:role="line"
         id="tspan36">millions of</tspan></text>
    <text
       id="text37"
       xml:space="preserve"
       transform="matrix(0.95775609,0,0,0.95775609,73.911833,166.64956)"
       clip-path="url(#clipPath38)"><tspan
         style="font-style:oblique;font-variant:normal;font-weight:normal;font-size:12px;font-family:Helvetica;writing-mode:lr-tb;fill:#000000;fill-opacity:1;fill-rule:nonzero;stroke:none"
         x="0 6 12.673828 15.339844 22.013672 28.6875 34.6875 38.021484 41.144531 48.474609 55.148438 57.814453"
         y="0"
         sodipodi:role="line"
         id="tspan37">values! This</tspan></text>
    <text
       id="text38"
       xml:space="preserve"
       transform="matrix(0.95775609,0,0,0.95775609,79.463825,180.05814)"
       clip-path="url(#clipPath39)"><tspan
         style="font-style:oblique;font-variant:normal;font-weight:normal;font-size:12px;font-family:Helvetica;writing-mode:lr-tb;fill:#000000;fill-opacity:1;fill-rule:nonzero;stroke:none"
         x="0 3.3339844 10.007812 16.007812 22.681641 28.681641 32.015625 35.349609 38.015625 48.011719 54.685547"
         y="0"
         sodipodi:role="line"
         id="tspan38">takes time!</tspan></text>
    <path
       id="path40"
       d="m 150,291 v 0.13"
       style="fill:none;stroke:#000000;stroke-width:1;stroke-linecap:butt;stroke-linejoin:miter;stroke-miterlimit:10;stroke-dasharray:none;stroke-opacity:1"
       transform="matrix(0.95774646,0,0,0.95774646,0.47887323,0.47887323)"
       clip-path="url(#clipPath41)" />
    <path
       id="path42"
       d="m 150,296.38 -3.5,-7 3.5,1.75 3.5,-1.75 z"
       style="fill:#000000;fill-opacity:1;fill-rule:nonzero;stroke:#000000;stroke-width:1;stroke-linecap:butt;stroke-linejoin:miter;stroke-miterlimit:10;stroke-dasharray:none;stroke-opacity:1"
       transform="matrix(0.95774646,0,0,0.95774646,0.47887323,0.47887323)"
       clip-path="url(#clipPath43)" />
    <path
       id="path44"
       d="m 60,261 h 180 v 30 H 60 Z"
       style="fill:#ffffff;fill-opacity:1;fill-rule:nonzero;stroke:#000000;stroke-width:1;stroke-linecap:butt;stroke-linejoin:miter;stroke-miterlimit:10;stroke-dasharray:none;stroke-opacity:1"
       transform="matrix(0.95774646,0,0,0.95774646,0.47887323,0.47887323)"
       clip-path="url(#clipPath45)" />
    <text
       id="text45"
       xml:space="preserve"
       transform="matrix(0.95775609,0,0,0.95775609,95.640924,268.1717)"
       clip-path="url(#clipPath46)"><tspan
         style="font-variant:normal;font-weight:normal;font-size:11px;font-family:Helvetica;writing-mode:lr-tb;fill:#000000;fill-opacity:1;fill-rule:nonzero;stroke:none"
         x="0 7.9438477 11.606934 17.724609 23.842285 26.898438 32.398438 38.516113 40.959961 47.077637 56.240723 62.358398 67.858398 70.914551 73.358398 79.476074 82.532227 85.588379 88.032227 94.149902"
         y="0"
         sodipodi:role="line"
         id="tspan45">Drop columns lat/lng</tspan></text>
    <path
       id="path47"
       d="m 60,297.5 h 180 v 30 H 60 Z"
       style="fill:#ffffff;fill-opacity:1;fill-rule:nonzero;stroke:#000000;stroke-width:1;stroke-linecap:butt;stroke-linejoin:miter;stroke-miterlimit:10;stroke-dasharray:none;stroke-opacity:1"
       transform="matrix(0.95774646,0,0,0.95774646,0.47887323,0.47887323)"
       clip-path="url(#clipPath48)" />
    <text
       id="text48"
       xml:space="preserve"
       transform="matrix(0.95775609,0,0,0.95775609,109.3937,303.60868)"
       clip-path="url(#clipPath49)"><tspan
         style="font-variant:normal;font-weight:normal;font-size:11px;font-family:Helvetica;writing-mode:lr-tb;fill:#000000;fill-opacity:1;fill-rule:nonzero;stroke:none"
         x="0 7.9438477 11.606934 17.724609 23.842285 26.898438 32.398438 38.516113 47.679199 53.796875 56.240723 62.358398 65.414551"
         y="0"
         sodipodi:role="line"
         id="tspan48">Drop complete</tspan></text>
    <path
       id="path50"
       d="m 240,113 h 2.00002 v 2 H 240 m 8.00008,-2 h 2.00003 v 2 h -2.00003 m 8.00007,-2 h 2.00003 v 2 h -2.00003 m 8.00009,-2 h 2 v 2 h -2 m 8.00007,-2 h 2.00003 v 2 h -2.00003 m 8.00009,-2 h 2.00003 v 2 h -2.00003 m 8.00009,-2 h 2 v 2 h -2 m 8.00006,-2 h 2.00003 v 2 h -2.00003 m 8.00009,-2 h 2.00003 v 2 h -2.00003 m 8.00009,-2 h 2 v 2 h -2 m 8.00006,-2 h 2.00003 v 2 h -2.00003 m 8.0001,-2 h 2.00003 v 2 h -2.00003 m 8.00009,-2 h 2 v 2 h -2 m 8.00006,-2 h 2.00003 v 2 h -2.00003 m 8.00009,-2 h 2.00003 v 2 h -2.00003 m 8.00009,-2 h 2 v 2 h -2 m 8.00006,-2 h 2 v 2 h -2 m 8.00006,-2 h 2.00006 v 2 h -2.00006 m 8.00009,-2 h 2.00003 v 2 h -2.00003 m 8.0001,-2 h 2 v 2 h -2 m 8.00006,-2 h 2.00003 v 2 h -2.00003 m 8.00009,-2 h 2.00003 v 2 h -2.00003 m 8.00009,-2 h 2 v 2 h -2 m 8.00006,-2 h 2.00003 v 2 h -2.00003 m 8.00009,-2 h 2.00003 v 2 h -2.00003 m 8.00009,-2 h 2 v 2 h -2 m 8.00007,-2 h 2.00003 v 2 h -2.00003 m 8.00009,-2 h 2.00003 v 2 h -2.00003 m 8.00009,-2 h 2 v 2 h -2 m 8.00006,-2 h 2.00003 v 2 h -2.00003 m 8.00009,-2 h 2.00003 v 2 h -2.00003 m 8.00009,-2 H 490 v 2 h -1.9975"
       style="fill:#000000;fill-opacity:1;fill-rule:nonzero;stroke:none"
       transform="scale(0.95774646)"
       clip-path="url(#clipPath51)" />
    <text
       id="text51"
       xml:space="preserve"
       transform="matrix(0.95775609,0,0,0.95775609,275.51949,99.606633)"
       clip-path="url(#clipPath52)"><tspan
         style="font-variant:normal;font-weight:700;font-size:16px;font-family:Helvetica;writing-mode:lr-tb;fill:#000000;fill-opacity:1;fill-rule:nonzero;stroke:none"
         x="0 4.4453125 14.21875 18.664062 27.5625 32.007812 40.90625 47.132812 56.03125 65.804688 74.703125 83.601562 92.5 97.828125 102.27344 112.04688 121.82031 126.26562 141.08594 150.85938 157.08594 161.53125 171.30469 175.75 180.19531"
         y="0"
         sodipodi:role="line"
         id="tspan51">In a Transaction World...</tspan></text>
    <path
       id="path53"
       d="m 380,147 v 20 -31 13.63"
       style="fill:none;stroke:#000000;stroke-width:1;stroke-linecap:butt;stroke-linejoin:miter;stroke-miterlimit:10;stroke-dasharray:none;stroke-opacity:1"
       transform="matrix(0.95774646,0,0,0.95774646,0.47887323,0.47887323)"
       clip-path="url(#clipPath54)" />
    <path
       id="path55"
       d="m 380,154.88 -3.5,-7 3.5,1.75 3.5,-1.75 z"
       style="fill:#000000;fill-opacity:1;fill-rule:nonzero;stroke:#000000;stroke-width:1;stroke-linecap:butt;stroke-linejoin:miter;stroke-miterlimit:10;stroke-dasharray:none;stroke-opacity:1"
       transform="matrix(0.95774646,0,0,0.95774646,0.47887323,0.47887323)"
       clip-path="url(#clipPath56)" />
    <path
       id="path57"
       d="m 265,117 h 230 v 30 H 265 Z"
       style="fill:#dae8fc;fill-opacity:1;fill-rule:nonzero;stroke:#6c8ebf;stroke-width:1;stroke-linecap:butt;stroke-linejoin:miter;stroke-miterlimit:10;stroke-dasharray:none;stroke-opacity:1"
       transform="matrix(0.95774646,0,0,0.95774646,0.47887323,0.47887323)"
       clip-path="url(#clipPath58)" />
    <text
       id="text58"
       xml:space="preserve"
       transform="matrix(0.95775609,0,0,0.95775609,268.18667,123.55054)"
       clip-path="url(#clipPath59)"><tspan
         style="font-variant:normal;font-weight:normal;font-size:11px;font-family:Helvetica;writing-mode:lr-tb;fill:#000000;fill-opacity:1;fill-rule:nonzero;stroke:none"
         x="0 8.5561523 14.673828 20.791504 26.90918 29.965332 36.083008 39.13916 44.63916 50.756836 56.874512 62.992188 66.655273 72.772949 75.829102 81.946777 85.00293 92.946777 99.064453 102.72754 108.22754 113.72754 119.84521 125.96289 131.46289 137.58057 140.63672 143.69287 149.81055 153.47363 156.52979 159.58594 165.70361 168.14746 173.64746 176.70361 182.20361 188.32129 194.43896"
         y="0"
         sodipodi:role="line"
         id="tspan58">Open a separate workspace for this copy</tspan></text>
    <text
       id="text59"
       xml:space="preserve"
       transform="matrix(0.95775609,0,0,0.95775609,341.97878,136.95912)"
       clip-path="url(#clipPath60)"><tspan
         style="font-variant:normal;font-weight:normal;font-size:11px;font-family:Helvetica;writing-mode:lr-tb;fill:#000000;fill-opacity:1;fill-rule:nonzero;stroke:none"
         x="0 6.1176758 12.235352 18.353027 22.016113 28.133789 31.189941 33.633789 39.751465"
         y="0"
         sodipodi:role="line"
         id="tspan59">operation</tspan></text>
    <path
       id="path61"
       d="m 380,186 v 1.63"
       style="fill:none;stroke:#000000;stroke-width:1;stroke-linecap:butt;stroke-linejoin:miter;stroke-miterlimit:10;stroke-dasharray:none;stroke-opacity:1"
       transform="matrix(0.95774646,0,0,0.95774646,0.47887323,0.47887323)"
       clip-path="url(#clipPath62)" />
    <path
       id="path63"
       d="m 380,192.88 -3.5,-7 3.5,1.75 3.5,-1.75 z"
       style="fill:#000000;fill-opacity:1;fill-rule:nonzero;stroke:#000000;stroke-width:1;stroke-linecap:butt;stroke-linejoin:miter;stroke-miterlimit:10;stroke-dasharray:none;stroke-opacity:1"
       transform="matrix(0.95774646,0,0,0.95774646,0.47887323,0.47887323)"
       clip-path="url(#clipPath64)" />
    <path
       id="path65"
       d="m 265,156 h 230 v 30 H 265 Z"
       style="fill:#dae8fc;fill-opacity:1;fill-rule:nonzero;stroke:#6c8ebf;stroke-width:1;stroke-linecap:butt;stroke-linejoin:miter;stroke-miterlimit:10;stroke-dasharray:none;stroke-opacity:1"
       transform="matrix(0.95774646,0,0,0.95774646,0.47887323,0.47887323)"
       clip-path="url(#clipPath66)" />
    <text
       id="text66"
       xml:space="preserve"
       transform="matrix(0.95775609,0,0,0.95775609,344.62758,167.60732)"
       clip-path="url(#clipPath67)"><tspan
         style="font-variant:normal;font-weight:normal;font-size:11px;font-family:Helvetica;writing-mode:lr-tb;fill:#000000;fill-opacity:1;fill-rule:nonzero;stroke:none"
         x="0 7.9438477 14.061523 17.117676 25.061523 31.179199 34.842285"
         y="0"
         sodipodi:role="line"
         id="tspan66">Do work</tspan></text>
    <path
       id="path68"
       d="m 265,194 h 230 v 30 H 265 Z"
       style="fill:#dae8fc;fill-opacity:1;fill-rule:nonzero;stroke:#6c8ebf;stroke-width:1;stroke-linecap:butt;stroke-linejoin:miter;stroke-miterlimit:10;stroke-dasharray:none;stroke-opacity:1"
       transform="matrix(0.95774646,0,0,0.95774646,0.47887323,0.47887323)"
       clip-path="url(#clipPath69)" />
    <text
       id="text69"
       xml:space="preserve"
       transform="matrix(0.95775609,0,0,0.95775609,284.90251,204.00205)"
       clip-path="url(#clipPath70)"><tspan
         style="font-variant:normal;font-weight:normal;font-size:11px;font-family:Helvetica;writing-mode:lr-tb;fill:#000000;fill-opacity:1;fill-rule:nonzero;stroke:none"
         x="0 7.9438477 14.061523 17.117676 23.235352 26.898438 30.561523 36.679199 40.342285 45.842285 48.898438 51.95459 59.898438 66.016113 75.179199 84.342285 86.786133 89.842285 92.898438 95.95459 102.07227 108.18994 111.24609 114.30225 117.96533 124.08301 130.20068 135.70068 141.81836 147.31836 150.37451 152.81836 158.93604"
         y="0"
         sodipodi:role="line"
         id="tspan69">No errors! Commit the transaction</tspan></text>
  </g>
</svg>
