<?xml version="1.0" encoding="UTF-8" standalone="no"?>
<!-- Created with Inkscape (http://www.inkscape.org/) -->

<svg
   version="1.1"
   id="svg1"
   width="338.56"
   height="340.16"
   viewBox="0 0 338.56 340.16"
   sodipodi:docname="sql-11.pdf"
   xmlns:inkscape="http://www.inkscape.org/namespaces/inkscape"
   xmlns:sodipodi="http://sodipodi.sourceforge.net/DTD/sodipodi-0.dtd"
   xmlns="http://www.w3.org/2000/svg"
   xmlns:svg="http://www.w3.org/2000/svg">
  <defs
     id="defs1">
    <clipPath
       clipPathUnits="userSpaceOnUse"
       id="clipPath2">
      <path
         d="M 0,0 H 1058.3333 V 1061.3314 H 0 Z"
         transform="scale(0.33354333)"
         clip-rule="evenodd"
         id="path2" />
    </clipPath>
    <clipPath
       clipPathUnits="userSpaceOnUse"
       id="clipPath4">
      <path
         d="M 0,0 H 1058.3333 V 1061.3314 H 0 Z"
         transform="matrix(0.33354333,0,0,0.33354333,-0.50000001,-0.50000001)"
         clip-rule="evenodd"
         id="path4" />
    </clipPath>
    <clipPath
       clipPathUnits="userSpaceOnUse"
       id="clipPath5">
      <path
         d="M 0,0 H 1058.3333 V 1061.3314 H 0 Z"
         transform="matrix(0.33353998,0,0,0.33353998,-128.8125,-21)"
         clip-rule="evenodd"
         id="path5" />
    </clipPath>
    <clipPath
       clipPathUnits="userSpaceOnUse"
       id="clipPath7">
      <path
         d="M 0,0 H 1058.3333 V 1061.3314 H 0 Z"
         transform="matrix(0.33354333,0,0,0.33354333,-0.50000001,-0.50000001)"
         clip-rule="evenodd"
         id="path7" />
    </clipPath>
    <clipPath
       clipPathUnits="userSpaceOnUse"
       id="clipPath9">
      <path
         d="M 0,0 H 1058.3333 V 1061.3314 H 0 Z"
         transform="matrix(0.33354333,0,0,0.33354333,-0.50000001,-0.50000001)"
         clip-rule="evenodd"
         id="path9" />
    </clipPath>
    <clipPath
       clipPathUnits="userSpaceOnUse"
       id="clipPath11">
      <path
         d="M 0,0 H 1058.3333 V 1061.3314 H 0 Z"
         transform="matrix(0.33354333,0,0,0.33354333,-0.50000001,-0.50000001)"
         clip-rule="evenodd"
         id="path11" />
    </clipPath>
    <clipPath
       clipPathUnits="userSpaceOnUse"
       id="clipPath13">
      <path
         d="M 0,0 H 1058.3333 V 1061.3314 H 0 Z"
         transform="matrix(0.33354333,0,0,0.33354333,-0.50000001,-0.50000001)"
         clip-rule="evenodd"
         id="path13" />
    </clipPath>
    <clipPath
       clipPathUnits="userSpaceOnUse"
       id="clipPath14">
      <path
         d="M 0,0 H 1058.3333 V 1061.3314 H 0 Z"
         transform="matrix(0.33353998,0,0,0.33353998,-142.98437,-55)"
         clip-rule="evenodd"
         id="path14" />
    </clipPath>
    <clipPath
       clipPathUnits="userSpaceOnUse"
       id="clipPath16">
      <path
         d="M 0,0 H 1058.3333 V 1061.3314 H 0 Z"
         transform="matrix(0.33354333,0,0,0.33354333,-0.50000001,-0.50000001)"
         clip-rule="evenodd"
         id="path16" />
    </clipPath>
    <clipPath
       clipPathUnits="userSpaceOnUse"
       id="clipPath17">
      <path
         d="M 0,0 H 1058.3333 V 1061.3314 H 0 Z"
         transform="matrix(0.33353998,0,0,0.33353998,-128.54688,-75.999999)"
         clip-rule="evenodd"
         id="path17" />
    </clipPath>
    <clipPath
       clipPathUnits="userSpaceOnUse"
       id="clipPath19">
      <path
         d="M 0,0 H 1058.3333 V 1061.3314 H 0 Z"
         transform="matrix(0.33354333,0,0,0.33354333,-0.50000001,-0.50000001)"
         clip-rule="evenodd"
         id="path19" />
    </clipPath>
    <clipPath
       clipPathUnits="userSpaceOnUse"
       id="clipPath20">
      <path
         d="M 0,0 H 1058.3333 V 1061.3314 H 0 Z"
         transform="matrix(0.33353998,0,0,0.33353998,-106.32812,-116)"
         clip-rule="evenodd"
         id="path20" />
    </clipPath>
    <clipPath
       clipPathUnits="userSpaceOnUse"
       id="clipPath22">
      <path
         d="M 0,0 H 1058.3333 V 1061.3314 H 0 Z"
         transform="matrix(0.33354333,0,0,0.33354333,-0.50000001,-0.50000001)"
         clip-rule="evenodd"
         id="path22" />
    </clipPath>
    <clipPath
       clipPathUnits="userSpaceOnUse"
       id="clipPath23">
      <path
         d="M 0,0 H 1058.3333 V 1061.3314 H 0 Z"
         transform="matrix(0.33353998,0,0,0.33353998,-107.98438,-96)"
         clip-rule="evenodd"
         id="path23" />
    </clipPath>
    <clipPath
       clipPathUnits="userSpaceOnUse"
       id="clipPath25">
      <path
         d="M 0,0 H 1058.3333 V 1061.3314 H 0 Z"
         transform="matrix(0.33354333,0,0,0.33354333,-0.50000001,-0.50000001)"
         clip-rule="evenodd"
         id="path25" />
    </clipPath>
    <clipPath
       clipPathUnits="userSpaceOnUse"
       id="clipPath26">
      <path
         d="M 0,0 H 1058.3333 V 1061.3314 H 0 Z"
         transform="matrix(0.33353998,0,0,0.33353998,-121.04688,-136)"
         clip-rule="evenodd"
         id="path26" />
    </clipPath>
    <clipPath
       clipPathUnits="userSpaceOnUse"
       id="clipPath28">
      <path
         d="M 0,0 H 1058.3333 V 1061.3314 H 0 Z"
         transform="matrix(0.33354333,0,0,0.33354333,-0.50000001,-0.50000001)"
         clip-rule="evenodd"
         id="path28" />
    </clipPath>
    <clipPath
       clipPathUnits="userSpaceOnUse"
       id="clipPath29">
      <path
         d="M 0,0 H 1058.3333 V 1061.3314 H 0 Z"
         transform="matrix(0.33353998,0,0,0.33353998,-201.04688,-75.999999)"
         clip-rule="evenodd"
         id="path29" />
    </clipPath>
    <clipPath
       clipPathUnits="userSpaceOnUse"
       id="clipPath31">
      <path
         d="M 0,0 H 1058.3333 V 1061.3314 H 0 Z"
         transform="matrix(0.33354333,0,0,0.33354333,-0.50000001,-0.50000001)"
         clip-rule="evenodd"
         id="path31" />
    </clipPath>
    <clipPath
       clipPathUnits="userSpaceOnUse"
       id="clipPath32">
      <path
         d="M 0,0 H 1058.3333 V 1061.3314 H 0 Z"
         transform="matrix(0.33353998,0,0,0.33353998,-189.9375,-116)"
         clip-rule="evenodd"
         id="path32" />
    </clipPath>
    <clipPath
       clipPathUnits="userSpaceOnUse"
       id="clipPath34">
      <path
         d="M 0,0 H 1058.3333 V 1061.3314 H 0 Z"
         transform="matrix(0.33354333,0,0,0.33354333,-0.50000001,-0.50000001)"
         clip-rule="evenodd"
         id="path34" />
    </clipPath>
    <clipPath
       clipPathUnits="userSpaceOnUse"
       id="clipPath35">
      <path
         d="M 0,0 H 1058.3333 V 1061.3314 H 0 Z"
         transform="matrix(0.33353998,0,0,0.33353998,-189.9375,-96)"
         clip-rule="evenodd"
         id="path35" />
    </clipPath>
    <clipPath
       clipPathUnits="userSpaceOnUse"
       id="clipPath37">
      <path
         d="M 0,0 H 1058.3333 V 1061.3314 H 0 Z"
         transform="matrix(0.33354333,0,0,0.33354333,-0.50000001,-0.50000001)"
         clip-rule="evenodd"
         id="path37" />
    </clipPath>
    <clipPath
       clipPathUnits="userSpaceOnUse"
       id="clipPath38">
      <path
         d="M 0,0 H 1058.3333 V 1061.3314 H 0 Z"
         transform="matrix(0.33353998,0,0,0.33353998,-184.64063,-136)"
         clip-rule="evenodd"
         id="path38" />
    </clipPath>
    <clipPath
       clipPathUnits="userSpaceOnUse"
       id="clipPath40">
      <path
         d="M 0,0 H 1058.3333 V 1061.3314 H 0 Z"
         transform="matrix(0.33354333,0,0,0.33354333,-0.50000001,-0.50000001)"
         clip-rule="evenodd"
         id="path40" />
    </clipPath>
    <clipPath
       clipPathUnits="userSpaceOnUse"
       id="clipPath41">
      <path
         d="M 0,0 H 1058.3333 V 1061.3314 H 0 Z"
         transform="matrix(0.33353998,0,0,0.33353998,-129.3125,-221)"
         clip-rule="evenodd"
         id="path41" />
    </clipPath>
    <clipPath
       clipPathUnits="userSpaceOnUse"
       id="clipPath43">
      <path
         d="M 0,0 H 1058.3333 V 1061.3314 H 0 Z"
         transform="matrix(0.33354333,0,0,0.33354333,-0.50000001,-0.50000001)"
         clip-rule="evenodd"
         id="path43" />
    </clipPath>
    <clipPath
       clipPathUnits="userSpaceOnUse"
       id="clipPath45">
      <path
         d="M 0,0 H 1058.3333 V 1061.3314 H 0 Z"
         transform="matrix(0.33354333,0,0,0.33354333,-0.50000001,-0.50000001)"
         clip-rule="evenodd"
         id="path45" />
    </clipPath>
    <clipPath
       clipPathUnits="userSpaceOnUse"
       id="clipPath46">
      <path
         d="M 0,0 H 1058.3333 V 1061.3314 H 0 Z"
         transform="matrix(0.33353998,0,0,0.33353998,-55.984375,-255)"
         clip-rule="evenodd"
         id="path46" />
    </clipPath>
    <clipPath
       clipPathUnits="userSpaceOnUse"
       id="clipPath48">
      <path
         d="M 0,0 H 1058.3333 V 1061.3314 H 0 Z"
         transform="matrix(0.33354333,0,0,0.33354333,-0.50000001,-0.50000001)"
         clip-rule="evenodd"
         id="path48" />
    </clipPath>
    <clipPath
       clipPathUnits="userSpaceOnUse"
       id="clipPath49">
      <path
         d="M 0,0 H 1058.3333 V 1061.3314 H 0 Z"
         transform="matrix(0.33353998,0,0,0.33353998,-41.546875,-276)"
         clip-rule="evenodd"
         id="path49" />
    </clipPath>
    <clipPath
       clipPathUnits="userSpaceOnUse"
       id="clipPath51">
      <path
         d="M 0,0 H 1058.3333 V 1061.3314 H 0 Z"
         transform="matrix(0.33354333,0,0,0.33354333,-0.50000001,-0.50000001)"
         clip-rule="evenodd"
         id="path51" />
    </clipPath>
    <clipPath
       clipPathUnits="userSpaceOnUse"
       id="clipPath52">
      <path
         d="M 0,0 H 1058.3333 V 1061.3314 H 0 Z"
         transform="matrix(0.33353998,0,0,0.33353998,-19.328125,-316)"
         clip-rule="evenodd"
         id="path52" />
    </clipPath>
    <clipPath
       clipPathUnits="userSpaceOnUse"
       id="clipPath54">
      <path
         d="M 0,0 H 1058.3333 V 1061.3314 H 0 Z"
         transform="matrix(0.33354333,0,0,0.33354333,-0.50000001,-0.50000001)"
         clip-rule="evenodd"
         id="path54" />
    </clipPath>
    <clipPath
       clipPathUnits="userSpaceOnUse"
       id="clipPath55">
      <path
         d="M 0,0 H 1058.3333 V 1061.3314 H 0 Z"
         transform="matrix(0.33353998,0,0,0.33353998,-20.984375,-296)"
         clip-rule="evenodd"
         id="path55" />
    </clipPath>
    <clipPath
       clipPathUnits="userSpaceOnUse"
       id="clipPath57">
      <path
         d="M 0,0 H 1058.3333 V 1061.3314 H 0 Z"
         transform="matrix(0.33354333,0,0,0.33354333,-0.50000001,-0.50000001)"
         clip-rule="evenodd"
         id="path57" />
    </clipPath>
    <clipPath
       clipPathUnits="userSpaceOnUse"
       id="clipPath58">
      <path
         d="M 0,0 H 1058.3333 V 1061.3314 H 0 Z"
         transform="matrix(0.33353998,0,0,0.33353998,-34.046875,-336)"
         clip-rule="evenodd"
         id="path58" />
    </clipPath>
    <clipPath
       clipPathUnits="userSpaceOnUse"
       id="clipPath60">
      <path
         d="M 0,0 H 1058.3333 V 1061.3314 H 0 Z"
         transform="matrix(0.33354333,0,0,0.33354333,-0.50000001,-0.50000001)"
         clip-rule="evenodd"
         id="path60" />
    </clipPath>
    <clipPath
       clipPathUnits="userSpaceOnUse"
       id="clipPath61">
      <path
         d="M 0,0 H 1058.3333 V 1061.3314 H 0 Z"
         transform="matrix(0.33353998,0,0,0.33353998,-113.04688,-276)"
         clip-rule="evenodd"
         id="path61" />
    </clipPath>
    <clipPath
       clipPathUnits="userSpaceOnUse"
       id="clipPath63">
      <path
         d="M 0,0 H 1058.3333 V 1061.3314 H 0 Z"
         transform="matrix(0.33354333,0,0,0.33354333,-0.50000001,-0.50000001)"
         clip-rule="evenodd"
         id="path63" />
    </clipPath>
    <clipPath
       clipPathUnits="userSpaceOnUse"
       id="clipPath64">
      <path
         d="M 0,0 H 1058.3333 V 1061.3314 H 0 Z"
         transform="matrix(0.33353998,0,0,0.33353998,-101.9375,-316)"
         clip-rule="evenodd"
         id="path64" />
    </clipPath>
    <clipPath
       clipPathUnits="userSpaceOnUse"
       id="clipPath66">
      <path
         d="M 0,0 H 1058.3333 V 1061.3314 H 0 Z"
         transform="matrix(0.33354333,0,0,0.33354333,-0.50000001,-0.50000001)"
         clip-rule="evenodd"
         id="path66" />
    </clipPath>
    <clipPath
       clipPathUnits="userSpaceOnUse"
       id="clipPath67">
      <path
         d="M 0,0 H 1058.3333 V 1061.3314 H 0 Z"
         transform="matrix(0.33353998,0,0,0.33353998,-101.9375,-296)"
         clip-rule="evenodd"
         id="path67" />
    </clipPath>
    <clipPath
       clipPathUnits="userSpaceOnUse"
       id="clipPath69">
      <path
         d="M 0,0 H 1058.3333 V 1061.3314 H 0 Z"
         transform="matrix(0.33354333,0,0,0.33354333,-0.50000001,-0.50000001)"
         clip-rule="evenodd"
         id="path69" />
    </clipPath>
    <clipPath
       clipPathUnits="userSpaceOnUse"
       id="clipPath70">
      <path
         d="M 0,0 H 1058.3333 V 1061.3314 H 0 Z"
         transform="matrix(0.33353998,0,0,0.33353998,-96.640625,-336)"
         clip-rule="evenodd"
         id="path70" />
    </clipPath>
    <clipPath
       clipPathUnits="userSpaceOnUse"
       id="clipPath72">
      <path
         d="M 0,0 H 1058.3333 V 1061.3314 H 0 Z"
         transform="matrix(0.33354333,0,0,0.33354333,-0.50000001,-0.50000001)"
         clip-rule="evenodd"
         id="path72" />
    </clipPath>
    <clipPath
       clipPathUnits="userSpaceOnUse"
       id="clipPath73">
      <path
         d="M 0,0 H 1058.3333 V 1061.3314 H 0 Z"
         transform="matrix(0.33353998,0,0,0.33353998,-244.98438,-255)"
         clip-rule="evenodd"
         id="path73" />
    </clipPath>
    <clipPath
       clipPathUnits="userSpaceOnUse"
       id="clipPath75">
      <path
         d="M 0,0 H 1058.3333 V 1061.3314 H 0 Z"
         transform="matrix(0.33354333,0,0,0.33354333,-0.50000001,-0.50000001)"
         clip-rule="evenodd"
         id="path75" />
    </clipPath>
    <clipPath
       clipPathUnits="userSpaceOnUse"
       id="clipPath76">
      <path
         d="M 0,0 H 1058.3333 V 1061.3314 H 0 Z"
         transform="matrix(0.33353998,0,0,0.33353998,-216.54688,-276)"
         clip-rule="evenodd"
         id="path76" />
    </clipPath>
    <clipPath
       clipPathUnits="userSpaceOnUse"
       id="clipPath78">
      <path
         d="M 0,0 H 1058.3333 V 1061.3314 H 0 Z"
         transform="matrix(0.33354333,0,0,0.33354333,-0.50000001,-0.50000001)"
         clip-rule="evenodd"
         id="path78" />
    </clipPath>
    <clipPath
       clipPathUnits="userSpaceOnUse"
       id="clipPath79">
      <path
         d="M 0,0 H 1058.3333 V 1061.3314 H 0 Z"
         transform="matrix(0.33353998,0,0,0.33353998,-215.15625,-316)"
         clip-rule="evenodd"
         id="path79" />
    </clipPath>
    <clipPath
       clipPathUnits="userSpaceOnUse"
       id="clipPath81">
      <path
         d="M 0,0 H 1058.3333 V 1061.3314 H 0 Z"
         transform="matrix(0.33354333,0,0,0.33354333,-0.50000001,-0.50000001)"
         clip-rule="evenodd"
         id="path81" />
    </clipPath>
    <clipPath
       clipPathUnits="userSpaceOnUse"
       id="clipPath82">
      <path
         d="M 0,0 H 1058.3333 V 1061.3314 H 0 Z"
         transform="matrix(0.33353998,0,0,0.33353998,-214.60938,-296)"
         clip-rule="evenodd"
         id="path82" />
    </clipPath>
    <clipPath
       clipPathUnits="userSpaceOnUse"
       id="clipPath84">
      <path
         d="M 0,0 H 1058.3333 V 1061.3314 H 0 Z"
         transform="matrix(0.33354333,0,0,0.33354333,-0.50000001,-0.50000001)"
         clip-rule="evenodd"
         id="path84" />
    </clipPath>
    <clipPath
       clipPathUnits="userSpaceOnUse"
       id="clipPath85">
      <path
         d="M 0,0 H 1058.3333 V 1061.3314 H 0 Z"
         transform="matrix(0.33353998,0,0,0.33353998,-213.5,-336)"
         clip-rule="evenodd"
         id="path85" />
    </clipPath>
    <clipPath
       clipPathUnits="userSpaceOnUse"
       id="clipPath87">
      <path
         d="M 0,0 H 1058.3333 V 1061.3314 H 0 Z"
         transform="matrix(0.33354333,0,0,0.33354333,-0.50000001,-0.50000001)"
         clip-rule="evenodd"
         id="path87" />
    </clipPath>
    <clipPath
       clipPathUnits="userSpaceOnUse"
       id="clipPath88">
      <path
         d="M 0,0 H 1058.3333 V 1061.3314 H 0 Z"
         transform="matrix(0.33353998,0,0,0.33353998,-289.04688,-276)"
         clip-rule="evenodd"
         id="path88" />
    </clipPath>
    <clipPath
       clipPathUnits="userSpaceOnUse"
       id="clipPath90">
      <path
         d="M 0,0 H 1058.3333 V 1061.3314 H 0 Z"
         transform="matrix(0.33354333,0,0,0.33354333,-0.50000001,-0.50000001)"
         clip-rule="evenodd"
         id="path90" />
    </clipPath>
    <clipPath
       clipPathUnits="userSpaceOnUse"
       id="clipPath91">
      <path
         d="M 0,0 H 1058.3333 V 1061.3314 H 0 Z"
         transform="matrix(0.33353998,0,0,0.33353998,-283.20313,-316)"
         clip-rule="evenodd"
         id="path91" />
    </clipPath>
    <clipPath
       clipPathUnits="userSpaceOnUse"
       id="clipPath93">
      <path
         d="M 0,0 H 1058.3333 V 1061.3314 H 0 Z"
         transform="matrix(0.33354333,0,0,0.33354333,-0.50000001,-0.50000001)"
         clip-rule="evenodd"
         id="path93" />
    </clipPath>
    <clipPath
       clipPathUnits="userSpaceOnUse"
       id="clipPath94">
      <path
         d="M 0,0 H 1058.3333 V 1061.3314 H 0 Z"
         transform="matrix(0.33353998,0,0,0.33353998,-272.64063,-296)"
         clip-rule="evenodd"
         id="path94" />
    </clipPath>
    <clipPath
       clipPathUnits="userSpaceOnUse"
       id="clipPath96">
      <path
         d="M 0,0 H 1058.3333 V 1061.3314 H 0 Z"
         transform="matrix(0.33354333,0,0,0.33354333,-0.50000001,-0.50000001)"
         clip-rule="evenodd"
         id="path96" />
    </clipPath>
    <clipPath
       clipPathUnits="userSpaceOnUse"
       id="clipPath97">
      <path
         d="M 0,0 H 1058.3333 V 1061.3314 H 0 Z"
         transform="matrix(0.33353998,0,0,0.33353998,-283.20313,-336)"
         clip-rule="evenodd"
         id="path97" />
    </clipPath>
    <clipPath
       clipPathUnits="userSpaceOnUse"
       id="clipPath99">
      <path
         d="M 0,0 H 1058.3333 V 1061.3314 H 0 Z"
         transform="matrix(0.33354333,0,0,0.33354333,-0.50000001,-0.50000001)"
         clip-rule="evenodd"
         id="path99" />
    </clipPath>
    <clipPath
       clipPathUnits="userSpaceOnUse"
       id="clipPath100">
      <path
         d="M 0,0 H 1058.3333 V 1061.3314 H 0 Z"
         transform="matrix(0.33353998,0,0,0.33353998,-196.98438,-174)"
         clip-rule="evenodd"
         id="path100" />
    </clipPath>
  </defs>
  <sodipodi:namedview
     id="namedview1"
     pagecolor="#ffffff"
     bordercolor="#000000"
     borderopacity="0.25"
     inkscape:showpageshadow="2"
     inkscape:pageopacity="0.0"
     inkscape:pagecheckerboard="0"
     inkscape:deskcolor="#d1d1d1">
    <inkscape:page
       x="0"
       y="0"
       inkscape:label="1"
       id="page1"
       width="338.56"
       height="340.16"
       margin="0"
       bleed="0" />
  </sodipodi:namedview>
  <g
     id="g1"
     inkscape:groupmode="layer"
     inkscape:label="1">
    <path
       id="path1"
       d="M 0,0 H 353 V 354 H 0 Z"
       style="fill:#ffffff;fill-opacity:1;fill-rule:nonzero;stroke:none"
       transform="scale(0.95939554)"
       clip-path="url(#clipPath2)" />
    <path
       id="path3"
       d="M 88,1 H 263 V 31 H 88 Z"
       style="fill:#d5e8d4;fill-opacity:1;fill-rule:nonzero;stroke:#82b366;stroke-width:1;stroke-linecap:butt;stroke-linejoin:miter;stroke-miterlimit:10;stroke-dasharray:none;stroke-opacity:1"
       transform="matrix(0.95939554,0,0,0.95939554,0.47969778,0.47969778)"
       clip-path="url(#clipPath4)" />
    <text
       id="text4"
       xml:space="preserve"
       transform="matrix(0.95940518,0,0,0.95940518,123.58338,20.147509)"
       clip-path="url(#clipPath5)"><tspan
         style="font-variant:normal;font-weight:700;font-size:14px;font-family:Helvetica;writing-mode:lr-tb;fill:#000000;fill-opacity:1;fill-rule:nonzero;stroke:none"
         x="0 7.7861328 16.337891 24.124023 28.013672 35.799805 39.689453 48.241211 56.027344 60.689453 71.579102 80.130859 85.579102"
         y="0"
         sodipodi:role="line"
         id="tspan4">socialnetwork</tspan></text>
    <path
       id="path6"
       d="m 175.5,151 v 43.63"
       style="fill:none;stroke:#000000;stroke-width:1;stroke-linecap:butt;stroke-linejoin:miter;stroke-miterlimit:10;stroke-dasharray:none;stroke-opacity:1"
       transform="matrix(0.95939554,0,0,0.95939554,0.47969778,0.47969778)"
       clip-path="url(#clipPath7)" />
    <path
       id="path8"
       d="m 175.5,199.88 -3.5,-7 3.5,1.75 3.5,-1.75 z"
       style="fill:#000000;fill-opacity:1;fill-rule:nonzero;stroke:#000000;stroke-width:1;stroke-linecap:butt;stroke-linejoin:miter;stroke-miterlimit:10;stroke-dasharray:none;stroke-opacity:1"
       transform="matrix(0.95939554,0,0,0.95939554,0.47969778,0.47969778)"
       clip-path="url(#clipPath9)" />
    <path
       id="path10"
       d="M 88,31 H 263 V 151 H 88 Z"
       style="fill:#d5e8d4;fill-opacity:1;fill-rule:nonzero;stroke:#82b366;stroke-width:1;stroke-linecap:butt;stroke-linejoin:miter;stroke-miterlimit:10;stroke-dasharray:none;stroke-opacity:1"
       transform="matrix(0.95939554,0,0,0.95939554,0.47969778,0.47969778)"
       clip-path="url(#clipPath11)" />
    <path
       id="path12"
       d="M 93,41 H 253 V 61 H 93 Z"
       style="fill:#ffe6cc;fill-opacity:1;fill-rule:nonzero;stroke:#d79b00;stroke-width:1;stroke-linecap:butt;stroke-linejoin:miter;stroke-miterlimit:10;stroke-dasharray:none;stroke-opacity:1"
       transform="matrix(0.95939554,0,0,0.95939554,0.47969778,0.47969778)"
       clip-path="url(#clipPath13)" />
    <text
       id="text13"
       xml:space="preserve"
       transform="matrix(0.95940518,0,0,0.95940518,137.17995,52.767285)"
       clip-path="url(#clipPath14)"><tspan
         style="font-variant:normal;font-weight:700;font-size:12px;font-family:Helvetica;writing-mode:lr-tb;fill:#000000;fill-opacity:1;fill-rule:nonzero;stroke:none"
         x="0 6.6738281 14.003906 24.673828 35.34375 42.017578 49.347656 53.34375"
         y="0"
         sodipodi:role="line"
         id="tspan13">comments</tspan></text>
    <path
       id="path15"
       d="m 93,61 h 80 V 81 H 93 Z"
       style="fill:#f5f5f5;fill-opacity:1;fill-rule:nonzero;stroke:#666666;stroke-width:1;stroke-linecap:butt;stroke-linejoin:miter;stroke-miterlimit:10;stroke-dasharray:none;stroke-opacity:1"
       transform="matrix(0.95939554,0,0,0.95939554,0.47969778,0.47969778)"
       clip-path="url(#clipPath16)" />
    <text
       id="text16"
       xml:space="preserve"
       transform="matrix(0.95940518,0,0,0.95940518,123.32854,72.914793)"
       clip-path="url(#clipPath17)"><tspan
         style="font-style:oblique;font-variant:normal;font-weight:700;font-size:10px;font-family:Helvetica;writing-mode:lr-tb;fill:#333333;fill-opacity:1;fill-rule:nonzero;stroke:none"
         x="0 2.7783203"
         y="0"
         sodipodi:role="line"
         id="tspan16">id</tspan></text>
    <path
       id="path18"
       d="m 93,101 h 80 v 20 H 93 Z"
       style="fill:#f5f5f5;fill-opacity:1;fill-rule:nonzero;stroke:#666666;stroke-width:1;stroke-linecap:butt;stroke-linejoin:miter;stroke-miterlimit:10;stroke-dasharray:none;stroke-opacity:1"
       transform="matrix(0.95939554,0,0,0.95939554,0.47969778,0.47969778)"
       clip-path="url(#clipPath19)" />
    <text
       id="text19"
       xml:space="preserve"
       transform="matrix(0.95940518,0,0,0.95940518,102.01175,111.291)"
       clip-path="url(#clipPath20)"><tspan
         style="font-style:oblique;font-variant:normal;font-weight:700;font-size:10px;font-family:Helvetica;writing-mode:lr-tb;fill:#333333;fill-opacity:1;fill-rule:nonzero;stroke:none"
         x="0 6.1083984 12.216797 18.325195 23.886719 27.216797 32.77832 38.886719 44.448242 50.009766"
         y="0"
         sodipodi:role="line"
         id="tspan19">updated_at</tspan></text>
    <path
       id="path21"
       d="m 93,81 h 80 v 20 H 93 Z"
       style="fill:#f5f5f5;fill-opacity:1;fill-rule:nonzero;stroke:#666666;stroke-width:1;stroke-linecap:butt;stroke-linejoin:miter;stroke-miterlimit:10;stroke-dasharray:none;stroke-opacity:1"
       transform="matrix(0.95939554,0,0,0.95939554,0.47969778,0.47969778)"
       clip-path="url(#clipPath22)" />
    <text
       id="text22"
       xml:space="preserve"
       transform="matrix(0.95940518,0,0,0.95940518,103.60077,92.102897)"
       clip-path="url(#clipPath23)"><tspan
         style="font-style:oblique;font-variant:normal;font-weight:700;font-size:10px;font-family:Helvetica;writing-mode:lr-tb;fill:#333333;fill-opacity:1;fill-rule:nonzero;stroke:none"
         x="0 5.5615234 9.453125 15.014648 20.576172 23.90625 29.467773 35.576172 41.137695 46.699219"
         y="0"
         sodipodi:role="line"
         id="tspan22">created_at</tspan></text>
    <path
       id="path24"
       d="m 93,121 h 80 v 20 H 93 Z"
       style="fill:#f5f5f5;fill-opacity:1;fill-rule:nonzero;stroke:#666666;stroke-width:1;stroke-linecap:butt;stroke-linejoin:miter;stroke-miterlimit:10;stroke-dasharray:none;stroke-opacity:1"
       transform="matrix(0.95939554,0,0,0.95939554,0.47969778,0.47969778)"
       clip-path="url(#clipPath25)" />
    <text
       id="text25"
       xml:space="preserve"
       transform="matrix(0.95940518,0,0,0.95940518,116.133,130.4791)"
       clip-path="url(#clipPath26)"><tspan
         style="font-style:oblique;font-variant:normal;font-weight:700;font-size:10px;font-family:Helvetica;writing-mode:lr-tb;fill:#333333;fill-opacity:1;fill-rule:nonzero;stroke:none"
         x="0 6.1083984 12.216797 18.325195"
         y="0"
         sodipodi:role="line"
         id="tspan25">body</tspan></text>
    <path
       id="path27"
       d="m 173,61 h 80 v 20 h -80 z"
       style="fill:#f5f5f5;fill-opacity:1;fill-rule:nonzero;stroke:#666666;stroke-width:1;stroke-linecap:butt;stroke-linejoin:miter;stroke-miterlimit:10;stroke-dasharray:none;stroke-opacity:1"
       transform="matrix(0.95939554,0,0,0.95939554,0.47969778,0.47969778)"
       clip-path="url(#clipPath28)" />
    <text
       id="text28"
       xml:space="preserve"
       transform="matrix(0.95940518,0,0,0.95940518,192.88542,72.914793)"
       clip-path="url(#clipPath29)"><tspan
         style="font-variant:normal;font-weight:normal;font-size:10px;font-family:Helvetica;writing-mode:lr-tb;fill:#333333;fill-opacity:1;fill-rule:nonzero;stroke:none"
         x="0 5 10.561523 13.891602 16.113281 21.674805"
         y="0"
         sodipodi:role="line"
         id="tspan28">serial</tspan></text>
    <path
       id="path30"
       d="m 173,101 h 80 v 20 h -80 z"
       style="fill:#f5f5f5;fill-opacity:1;fill-rule:nonzero;stroke:#666666;stroke-width:1;stroke-linecap:butt;stroke-linejoin:miter;stroke-miterlimit:10;stroke-dasharray:none;stroke-opacity:1"
       transform="matrix(0.95939554,0,0,0.95939554,0.47969778,0.47969778)"
       clip-path="url(#clipPath31)" />
    <text
       id="text31"
       xml:space="preserve"
       transform="matrix(0.95940518,0,0,0.95940518,182.22702,111.291)"
       clip-path="url(#clipPath32)"><tspan
         style="font-variant:normal;font-weight:normal;font-size:10px;font-family:Helvetica;writing-mode:lr-tb;fill:#333333;fill-opacity:1;fill-rule:nonzero;stroke:none"
         x="0 2.7783203 5 13.330078 18.891602 23.891602 26.669922 32.231445 40.561523"
         y="0"
         sodipodi:role="line"
         id="tspan31">timestamp</tspan></text>
    <path
       id="path33"
       d="m 173,81 h 80 v 20 h -80 z"
       style="fill:#f5f5f5;fill-opacity:1;fill-rule:nonzero;stroke:#666666;stroke-width:1;stroke-linecap:butt;stroke-linejoin:miter;stroke-miterlimit:10;stroke-dasharray:none;stroke-opacity:1"
       transform="matrix(0.95939554,0,0,0.95939554,0.47969778,0.47969778)"
       clip-path="url(#clipPath34)" />
    <text
       id="text34"
       xml:space="preserve"
       transform="matrix(0.95940518,0,0,0.95940518,182.22702,92.102897)"
       clip-path="url(#clipPath35)"><tspan
         style="font-variant:normal;font-weight:normal;font-size:10px;font-family:Helvetica;writing-mode:lr-tb;fill:#333333;fill-opacity:1;fill-rule:nonzero;stroke:none"
         x="0 2.7783203 5 13.330078 18.891602 23.891602 26.669922 32.231445 40.561523"
         y="0"
         sodipodi:role="line"
         id="tspan34">timestamp</tspan></text>
    <path
       id="path36"
       d="m 173,121 h 80 v 20 h -80 z"
       style="fill:#f5f5f5;fill-opacity:1;fill-rule:nonzero;stroke:#666666;stroke-width:1;stroke-linecap:butt;stroke-linejoin:miter;stroke-miterlimit:10;stroke-dasharray:none;stroke-opacity:1"
       transform="matrix(0.95939554,0,0,0.95939554,0.47969778,0.47969778)"
       clip-path="url(#clipPath37)" />
    <text
       id="text37"
       xml:space="preserve"
       transform="matrix(0.95940518,0,0,0.95940518,177.14518,130.4791)"
       clip-path="url(#clipPath38)"><tspan
         style="font-variant:normal;font-weight:normal;font-size:10px;font-family:Helvetica;writing-mode:lr-tb;fill:#333333;fill-opacity:1;fill-rule:nonzero;stroke:none"
         x="0 5 10.561523 13.891602 18.891602 24.453125 30.014648 33.344727 36.674805 42.236328 47.797852 53.359375"
         y="0"
         sodipodi:role="line"
         id="tspan37">varchar(240)</tspan></text>
    <path
       id="path39"
       d="m 0.5,201 h 350 v 30 H 0.5 Z"
       style="fill:#d5e8d4;fill-opacity:1;fill-rule:nonzero;stroke:#82b366;stroke-width:1;stroke-linecap:butt;stroke-linejoin:miter;stroke-miterlimit:10;stroke-dasharray:none;stroke-opacity:1"
       transform="matrix(0.95939554,0,0,0.95939554,0.47969778,0.47969778)"
       clip-path="url(#clipPath40)" />
    <text
       id="text40"
       xml:space="preserve"
       transform="matrix(0.95940518,0,0,0.95940518,124.06308,212.02854)"
       clip-path="url(#clipPath41)"><tspan
         style="font-variant:normal;font-weight:700;font-size:14px;font-family:Helvetica;writing-mode:lr-tb;fill:#000000;fill-opacity:1;fill-rule:nonzero;stroke:none"
         x="0 7.7861328 16.337891 24.124023 28.013672 35.799805 39.689453 48.241211 56.027344 60.689453 71.579102 80.130859 85.579102"
         y="0"
         sodipodi:role="line"
         id="tspan40">socialnetwork</tspan></text>
    <path
       id="path42"
       d="m 0.5,231 h 350 V 351 H 0.5 Z"
       style="fill:#d5e8d4;fill-opacity:1;fill-rule:nonzero;stroke:#82b366;stroke-width:1;stroke-linecap:butt;stroke-linejoin:miter;stroke-miterlimit:10;stroke-dasharray:none;stroke-opacity:1"
       transform="matrix(0.95939554,0,0,0.95939554,0.47969778,0.47969778)"
       clip-path="url(#clipPath43)" />
    <path
       id="path44"
       d="m 5.5,241 h 160 v 20 H 5.5 Z"
       style="fill:#ffe6cc;fill-opacity:1;fill-rule:nonzero;stroke:#d79b00;stroke-width:1;stroke-linecap:butt;stroke-linejoin:miter;stroke-miterlimit:10;stroke-dasharray:none;stroke-opacity:1"
       transform="matrix(0.95939554,0,0,0.95939554,0.47969778,0.47969778)"
       clip-path="url(#clipPath45)" />
    <text
       id="text45"
       xml:space="preserve"
       transform="matrix(0.95940518,0,0,0.95940518,53.711699,244.64832)"
       clip-path="url(#clipPath46)"><tspan
         style="font-variant:normal;font-weight:700;font-size:12px;font-family:Helvetica;writing-mode:lr-tb;fill:#000000;fill-opacity:1;fill-rule:nonzero;stroke:none"
         x="0 6.6738281 14.003906 24.673828 35.34375 42.017578 49.347656 53.34375"
         y="0"
         sodipodi:role="line"
         id="tspan45">comments</tspan></text>
    <path
       id="path47"
       d="m 5.5,261 h 80 v 20 h -80 z"
       style="fill:#f5f5f5;fill-opacity:1;fill-rule:nonzero;stroke:#666666;stroke-width:1;stroke-linecap:butt;stroke-linejoin:miter;stroke-miterlimit:10;stroke-dasharray:none;stroke-opacity:1"
       transform="matrix(0.95939554,0,0,0.95939554,0.47969778,0.47969778)"
       clip-path="url(#clipPath48)" />
    <text
       id="text48"
       xml:space="preserve"
       transform="matrix(0.95940518,0,0,0.95940518,39.860287,264.79583)"
       clip-path="url(#clipPath49)"><tspan
         style="font-style:oblique;font-variant:normal;font-weight:700;font-size:10px;font-family:Helvetica;writing-mode:lr-tb;fill:#333333;fill-opacity:1;fill-rule:nonzero;stroke:none"
         x="0 2.7783203"
         y="0"
         sodipodi:role="line"
         id="tspan48">id</tspan></text>
    <path
       id="path50"
       d="m 5.5,301 h 80 v 20 h -80 z"
       style="fill:#f5f5f5;fill-opacity:1;fill-rule:nonzero;stroke:#666666;stroke-width:1;stroke-linecap:butt;stroke-linejoin:miter;stroke-miterlimit:10;stroke-dasharray:none;stroke-opacity:1"
       transform="matrix(0.95939554,0,0,0.95939554,0.47969778,0.47969778)"
       clip-path="url(#clipPath51)" />
    <text
       id="text51"
       xml:space="preserve"
       transform="matrix(0.95940518,0,0,0.95940518,18.543503,303.17204)"
       clip-path="url(#clipPath52)"><tspan
         style="font-style:oblique;font-variant:normal;font-weight:700;font-size:10px;font-family:Helvetica;writing-mode:lr-tb;fill:#333333;fill-opacity:1;fill-rule:nonzero;stroke:none"
         x="0 6.1083984 12.216797 18.325195 23.886719 27.216797 32.77832 38.886719 44.448242 50.009766"
         y="0"
         sodipodi:role="line"
         id="tspan51">updated_at</tspan></text>
    <path
       id="path53"
       d="m 5.5,281 h 80 v 20 h -80 z"
       style="fill:#f5f5f5;fill-opacity:1;fill-rule:nonzero;stroke:#666666;stroke-width:1;stroke-linecap:butt;stroke-linejoin:miter;stroke-miterlimit:10;stroke-dasharray:none;stroke-opacity:1"
       transform="matrix(0.95939554,0,0,0.95939554,0.47969778,0.47969778)"
       clip-path="url(#clipPath54)" />
    <text
       id="text54"
       xml:space="preserve"
       transform="matrix(0.95940518,0,0,0.95940518,20.132518,283.98393)"
       clip-path="url(#clipPath55)"><tspan
         style="font-style:oblique;font-variant:normal;font-weight:700;font-size:10px;font-family:Helvetica;writing-mode:lr-tb;fill:#333333;fill-opacity:1;fill-rule:nonzero;stroke:none"
         x="0 5.5615234 9.453125 15.014648 20.576172 23.90625 29.467773 35.576172 41.137695 46.699219"
         y="0"
         sodipodi:role="line"
         id="tspan54">created_at</tspan></text>
    <path
       id="path56"
       d="m 5.5,321 h 80 v 20 h -80 z"
       style="fill:#f5f5f5;fill-opacity:1;fill-rule:nonzero;stroke:#666666;stroke-width:1;stroke-linecap:butt;stroke-linejoin:miter;stroke-miterlimit:10;stroke-dasharray:none;stroke-opacity:1"
       transform="matrix(0.95939554,0,0,0.95939554,0.47969778,0.47969778)"
       clip-path="url(#clipPath57)" />
    <text
       id="text57"
       xml:space="preserve"
       transform="matrix(0.95940518,0,0,0.95940518,32.664748,322.36014)"
       clip-path="url(#clipPath58)"><tspan
         style="font-style:oblique;font-variant:normal;font-weight:700;font-size:10px;font-family:Helvetica;writing-mode:lr-tb;fill:#333333;fill-opacity:1;fill-rule:nonzero;stroke:none"
         x="0 6.1083984 12.216797 18.325195"
         y="0"
         sodipodi:role="line"
         id="tspan57">body</tspan></text>
    <path
       id="path59"
       d="m 85.5,261 h 80 v 20 h -80 z"
       style="fill:#f5f5f5;fill-opacity:1;fill-rule:nonzero;stroke:#666666;stroke-width:1;stroke-linecap:butt;stroke-linejoin:miter;stroke-miterlimit:10;stroke-dasharray:none;stroke-opacity:1"
       transform="matrix(0.95939554,0,0,0.95939554,0.47969778,0.47969778)"
       clip-path="url(#clipPath60)" />
    <text
       id="text60"
       xml:space="preserve"
       transform="matrix(0.95940518,0,0,0.95940518,108.45776,264.79583)"
       clip-path="url(#clipPath61)"><tspan
         style="font-variant:normal;font-weight:normal;font-size:10px;font-family:Helvetica;writing-mode:lr-tb;fill:#333333;fill-opacity:1;fill-rule:nonzero;stroke:none"
         x="0 5 10.561523 13.891602 16.113281 21.674805"
         y="0"
         sodipodi:role="line"
         id="tspan60">serial</tspan></text>
    <path
       id="path62"
       d="m 85.5,301 h 80 v 20 h -80 z"
       style="fill:#f5f5f5;fill-opacity:1;fill-rule:nonzero;stroke:#666666;stroke-width:1;stroke-linecap:butt;stroke-linejoin:miter;stroke-miterlimit:10;stroke-dasharray:none;stroke-opacity:1"
       transform="matrix(0.95939554,0,0,0.95939554,0.47969778,0.47969778)"
       clip-path="url(#clipPath63)" />
    <text
       id="text63"
       xml:space="preserve"
       transform="matrix(0.95940518,0,0,0.95940518,97.799365,303.17204)"
       clip-path="url(#clipPath64)"><tspan
         style="font-variant:normal;font-weight:normal;font-size:10px;font-family:Helvetica;writing-mode:lr-tb;fill:#333333;fill-opacity:1;fill-rule:nonzero;stroke:none"
         x="0 2.7783203 5 13.330078 18.891602 23.891602 26.669922 32.231445 40.561523"
         y="0"
         sodipodi:role="line"
         id="tspan63">timestamp</tspan></text>
    <path
       id="path65"
       d="m 85.5,281 h 80 v 20 h -80 z"
       style="fill:#f5f5f5;fill-opacity:1;fill-rule:nonzero;stroke:#666666;stroke-width:1;stroke-linecap:butt;stroke-linejoin:miter;stroke-miterlimit:10;stroke-dasharray:none;stroke-opacity:1"
       transform="matrix(0.95939554,0,0,0.95939554,0.47969778,0.47969778)"
       clip-path="url(#clipPath66)" />
    <text
       id="text66"
       xml:space="preserve"
       transform="matrix(0.95940518,0,0,0.95940518,97.799365,283.98393)"
       clip-path="url(#clipPath67)"><tspan
         style="font-variant:normal;font-weight:normal;font-size:10px;font-family:Helvetica;writing-mode:lr-tb;fill:#333333;fill-opacity:1;fill-rule:nonzero;stroke:none"
         x="0 2.7783203 5 13.330078 18.891602 23.891602 26.669922 32.231445 40.561523"
         y="0"
         sodipodi:role="line"
         id="tspan66">timestamp</tspan></text>
    <path
       id="path68"
       d="m 85.5,321 h 80 v 20 h -80 z"
       style="fill:#f5f5f5;fill-opacity:1;fill-rule:nonzero;stroke:#666666;stroke-width:1;stroke-linecap:butt;stroke-linejoin:miter;stroke-miterlimit:10;stroke-dasharray:none;stroke-opacity:1"
       transform="matrix(0.95939554,0,0,0.95939554,0.47969778,0.47969778)"
       clip-path="url(#clipPath69)" />
    <text
       id="text69"
       xml:space="preserve"
       transform="matrix(0.95940518,0,0,0.95940518,92.717516,322.36014)"
       clip-path="url(#clipPath70)"><tspan
         style="font-variant:normal;font-weight:normal;font-size:10px;font-family:Helvetica;writing-mode:lr-tb;fill:#333333;fill-opacity:1;fill-rule:nonzero;stroke:none"
         x="0 5 10.561523 13.891602 18.891602 24.453125 30.014648 33.344727 36.674805 42.236328 47.797852 53.359375"
         y="0"
         sodipodi:role="line"
         id="tspan69">varchar(240)</tspan></text>
    <path
       id="path71"
       d="m 180.5,241 h 160 v 20 h -160 z"
       style="fill:#ffe6cc;fill-opacity:1;fill-rule:nonzero;stroke:#d79b00;stroke-width:1;stroke-linecap:butt;stroke-linejoin:miter;stroke-miterlimit:10;stroke-dasharray:none;stroke-opacity:1"
       transform="matrix(0.95939554,0,0,0.95939554,0.47969778,0.47969778)"
       clip-path="url(#clipPath72)" />
    <text
       id="text72"
       xml:space="preserve"
       transform="matrix(0.95940518,0,0,0.95940518,235.03928,244.64832)"
       clip-path="url(#clipPath73)"><tspan
         style="font-variant:normal;font-weight:700;font-size:12px;font-family:Helvetica;writing-mode:lr-tb;fill:#000000;fill-opacity:1;fill-rule:nonzero;stroke:none"
         x="0 7.3300781 14.660156 21.333984 25.330078"
         y="0"
         sodipodi:role="line"
         id="tspan72">posts</tspan></text>
    <path
       id="path74"
       d="m 180.5,261 h 80 v 20 h -80 z"
       style="fill:#f5f5f5;fill-opacity:1;fill-rule:nonzero;stroke:#666666;stroke-width:1;stroke-linecap:butt;stroke-linejoin:miter;stroke-miterlimit:10;stroke-dasharray:none;stroke-opacity:1"
       transform="matrix(0.95939554,0,0,0.95939554,0.47969778,0.47969778)"
       clip-path="url(#clipPath75)" />
    <text
       id="text75"
       xml:space="preserve"
       transform="matrix(0.95940518,0,0,0.95940518,207.7562,264.79583)"
       clip-path="url(#clipPath76)"><tspan
         style="font-style:oblique;font-variant:normal;font-weight:700;font-size:10px;font-family:Helvetica;writing-mode:lr-tb;fill:#333333;fill-opacity:1;fill-rule:nonzero;stroke:none"
         x="0 2.7783203"
         y="0"
         sodipodi:role="line"
         id="tspan75">id</tspan></text>
    <path
       id="path77"
       d="m 180.5,301 h 80 v 20 h -80 z"
       style="fill:#f5f5f5;fill-opacity:1;fill-rule:nonzero;stroke:#666666;stroke-width:1;stroke-linecap:butt;stroke-linejoin:miter;stroke-miterlimit:10;stroke-dasharray:none;stroke-opacity:1"
       transform="matrix(0.95939554,0,0,0.95939554,0.47969778,0.47969778)"
       clip-path="url(#clipPath78)" />
    <text
       id="text78"
       xml:space="preserve"
       transform="matrix(0.95940518,0,0,0.95940518,206.42202,303.17204)"
       clip-path="url(#clipPath79)"><tspan
         style="font-style:oblique;font-variant:normal;font-weight:700;font-size:10px;font-family:Helvetica;writing-mode:lr-tb;fill:#333333;fill-opacity:1;fill-rule:nonzero;stroke:none"
         x="0 2.7783203 8.3398438"
         y="0"
         sodipodi:role="line"
         id="tspan78">lat</tspan></text>
    <path
       id="path80"
       d="m 180.5,281 h 80 v 20 h -80 z"
       style="fill:#f5f5f5;fill-opacity:1;fill-rule:nonzero;stroke:#666666;stroke-width:1;stroke-linecap:butt;stroke-linejoin:miter;stroke-miterlimit:10;stroke-dasharray:none;stroke-opacity:1"
       transform="matrix(0.95939554,0,0,0.95939554,0.47969778,0.47969778)"
       clip-path="url(#clipPath81)" />
    <text
       id="text81"
       xml:space="preserve"
       transform="matrix(0.95940518,0,0,0.95940518,205.89735,283.98393)"
       clip-path="url(#clipPath82)"><tspan
         style="font-style:oblique;font-variant:normal;font-weight:700;font-size:10px;font-family:Helvetica;writing-mode:lr-tb;fill:#333333;fill-opacity:1;fill-rule:nonzero;stroke:none"
         x="0 6.1083984 10"
         y="0"
         sodipodi:role="line"
         id="tspan81">url</tspan></text>
    <path
       id="path83"
       d="m 180.5,321 h 80 v 20 h -80 z"
       style="fill:#f5f5f5;fill-opacity:1;fill-rule:nonzero;stroke:#666666;stroke-width:1;stroke-linecap:butt;stroke-linejoin:miter;stroke-miterlimit:10;stroke-dasharray:none;stroke-opacity:1"
       transform="matrix(0.95939554,0,0,0.95939554,0.47969778,0.47969778)"
       clip-path="url(#clipPath84)" />
    <text
       id="text84"
       xml:space="preserve"
       transform="matrix(0.95940518,0,0,0.95940518,204.83301,322.36014)"
       clip-path="url(#clipPath85)"><tspan
         style="font-style:oblique;font-variant:normal;font-weight:700;font-size:10px;font-family:Helvetica;writing-mode:lr-tb;fill:#333333;fill-opacity:1;fill-rule:nonzero;stroke:none"
         x="0 2.7783203 8.8867188"
         y="0"
         sodipodi:role="line"
         id="tspan84">lng</tspan></text>
    <path
       id="path86"
       d="m 260.5,261 h 80 v 20 h -80 z"
       style="fill:#f5f5f5;fill-opacity:1;fill-rule:nonzero;stroke:#666666;stroke-width:1;stroke-linecap:butt;stroke-linejoin:miter;stroke-miterlimit:10;stroke-dasharray:none;stroke-opacity:1"
       transform="matrix(0.95939554,0,0,0.95939554,0.47969778,0.47969778)"
       clip-path="url(#clipPath87)" />
    <text
       id="text87"
       xml:space="preserve"
       transform="matrix(0.95940518,0,0,0.95940518,277.31307,264.79583)"
       clip-path="url(#clipPath88)"><tspan
         style="font-variant:normal;font-weight:normal;font-size:10px;font-family:Helvetica;writing-mode:lr-tb;fill:#333333;fill-opacity:1;fill-rule:nonzero;stroke:none"
         x="0 5 10.561523 13.891602 16.113281 21.674805"
         y="0"
         sodipodi:role="line"
         id="tspan87">serial</tspan></text>
    <path
       id="path89"
       d="m 260.5,301 h 80 v 20 h -80 z"
       style="fill:#f5f5f5;fill-opacity:1;fill-rule:nonzero;stroke:#666666;stroke-width:1;stroke-linecap:butt;stroke-linejoin:miter;stroke-miterlimit:10;stroke-dasharray:none;stroke-opacity:1"
       transform="matrix(0.95939554,0,0,0.95939554,0.47969778,0.47969778)"
       clip-path="url(#clipPath90)" />
    <text
       id="text90"
       xml:space="preserve"
       transform="matrix(0.95940518,0,0,0.95940518,271.70655,303.17204)"
       clip-path="url(#clipPath91)"><tspan
         style="font-variant:normal;font-weight:normal;font-size:10px;font-family:Helvetica;writing-mode:lr-tb;fill:#333333;fill-opacity:1;fill-rule:nonzero;stroke:none"
         x="0 5.5615234 11.123047 19.453125 25.014648 28.344727 30.566406"
         y="0"
         sodipodi:role="line"
         id="tspan90">numeric</tspan></text>
    <path
       id="path92"
       d="m 260.5,281 h 80 v 20 h -80 z"
       style="fill:#f5f5f5;fill-opacity:1;fill-rule:nonzero;stroke:#666666;stroke-width:1;stroke-linecap:butt;stroke-linejoin:miter;stroke-miterlimit:10;stroke-dasharray:none;stroke-opacity:1"
       transform="matrix(0.95939554,0,0,0.95939554,0.47969778,0.47969778)"
       clip-path="url(#clipPath93)" />
    <text
       id="text93"
       xml:space="preserve"
       transform="matrix(0.95940518,0,0,0.95940518,261.57283,283.98393)"
       clip-path="url(#clipPath94)"><tspan
         style="font-variant:normal;font-weight:normal;font-size:10px;font-family:Helvetica;writing-mode:lr-tb;fill:#333333;fill-opacity:1;fill-rule:nonzero;stroke:none"
         x="0 5 10.561523 13.891602 18.891602 24.453125 30.014648 33.344727 36.674805 42.236328 47.797852 53.359375"
         y="0"
         sodipodi:role="line"
         id="tspan93">varchar(300)</tspan></text>
    <path
       id="path95"
       d="m 260.5,321 h 80 v 20 h -80 z"
       style="fill:#f5f5f5;fill-opacity:1;fill-rule:nonzero;stroke:#666666;stroke-width:1;stroke-linecap:butt;stroke-linejoin:miter;stroke-miterlimit:10;stroke-dasharray:none;stroke-opacity:1"
       transform="matrix(0.95939554,0,0,0.95939554,0.47969778,0.47969778)"
       clip-path="url(#clipPath96)" />
    <text
       id="text96"
       xml:space="preserve"
       transform="matrix(0.95940518,0,0,0.95940518,271.70655,322.36014)"
       clip-path="url(#clipPath97)"><tspan
         style="font-variant:normal;font-weight:normal;font-size:10px;font-family:Helvetica;writing-mode:lr-tb;fill:#333333;fill-opacity:1;fill-rule:nonzero;stroke:none"
         x="0 5.5615234 11.123047 19.453125 25.014648 28.344727 30.566406"
         y="0"
         sodipodi:role="line"
         id="tspan96">numeric</tspan></text>
    <path
       id="path98"
       d="m 176,161 h 95 v 20 h -95 z"
       style="fill:#f8cecc;fill-opacity:1;fill-rule:nonzero;stroke:#b85450;stroke-width:1;stroke-linecap:butt;stroke-linejoin:miter;stroke-miterlimit:10;stroke-dasharray:none;stroke-opacity:1"
       transform="matrix(0.95939554,0,0,0.95939554,0.47969778,0.47969778)"
       clip-path="url(#clipPath99)" />
    <text
       id="text99"
       xml:space="preserve"
       transform="matrix(0.95940518,0,0,0.95940518,188.98783,166.9365)"
       clip-path="url(#clipPath100)"><tspan
         style="font-variant:normal;font-weight:700;font-size:9px;font-family:Helvetica;writing-mode:lr-tb;fill:#000000;fill-opacity:1;fill-rule:nonzero;stroke:none"
         x="0 7.4970703 9.9975586 15.495117 18.997559 24.00293 27 29.500488 34.998047 40.495605 42.996094 48.001465"
         y="0"
         sodipodi:role="line"
         id="tspan99">Migration #3</tspan></text>
  </g>
</svg>
