<?xml version="1.0" encoding="UTF-8" standalone="no"?>
<!-- Created with Inkscape (http://www.inkscape.org/) -->

<svg
   version="1.1"
   id="svg1"
   width="597.44"
   height="296"
   viewBox="0 0 597.44 296"
   sodipodi:docname="sql-10.pdf"
   xmlns:inkscape="http://www.inkscape.org/namespaces/inkscape"
   xmlns:sodipodi="http://sodipodi.sourceforge.net/DTD/sodipodi-0.dtd"
   xmlns="http://www.w3.org/2000/svg"
   xmlns:svg="http://www.w3.org/2000/svg">
  <defs
     id="defs1">
    <clipPath
       clipPathUnits="userSpaceOnUse"
       id="clipPath2">
      <path
         d="M 0,0 H 1866.6666 V 924.35895 H 0 Z"
         transform="scale(0.33428572)"
         clip-rule="evenodd"
         id="path2" />
    </clipPath>
    <clipPath
       clipPathUnits="userSpaceOnUse"
       id="clipPath4">
      <path
         d="M 0,0 H 1866.6666 V 921.36749 H 0 Z"
         transform="matrix(0.33428572,0,0,0.33428572,-0.50000001,-0.50000001)"
         clip-rule="evenodd"
         id="path4" />
    </clipPath>
    <clipPath
       clipPathUnits="userSpaceOnUse"
       id="clipPath6">
      <path
         d="M 0,0 H 1866.6666 V 921.36749 H 0 Z"
         transform="matrix(0.33428572,0,0,0.33428572,-0.50000001,-0.50000001)"
         clip-rule="evenodd"
         id="path6" />
    </clipPath>
    <clipPath
       clipPathUnits="userSpaceOnUse"
       id="clipPath8">
      <path
         d="M 0,0 H 1866.6666 V 921.36749 H 0 Z"
         transform="matrix(0.33428572,0,0,0.33428572,-0.50000001,-0.50000001)"
         clip-rule="evenodd"
         id="path8" />
    </clipPath>
    <clipPath
       clipPathUnits="userSpaceOnUse"
       id="clipPath9">
      <path
         d="M 0,0 H 1866.6666 V 921.36749 H 0 Z"
         transform="matrix(0.33428236,0,0,0.33428236,-129.54687,-81)"
         clip-rule="evenodd"
         id="path9" />
    </clipPath>
    <clipPath
       clipPathUnits="userSpaceOnUse"
       id="clipPath11">
      <path
         d="M 0,0 H 1866.6666 V 921.36749 H 0 Z"
         transform="matrix(0.33428572,0,0,0.33428572,-0.50000001,-0.50000001)"
         clip-rule="evenodd"
         id="path11" />
    </clipPath>
    <clipPath
       clipPathUnits="userSpaceOnUse"
       id="clipPath12">
      <path
         d="M 0,0 H 1866.6666 V 921.36749 H 0 Z"
         transform="matrix(0.33428236,0,0,0.33428236,-41.328125,-105)"
         clip-rule="evenodd"
         id="path12" />
    </clipPath>
    <clipPath
       clipPathUnits="userSpaceOnUse"
       id="clipPath14">
      <path
         d="M 0,0 H 1866.6666 V 921.36749 H 0 Z"
         transform="matrix(0.33428572,0,0,0.33428572,-0.50000001,-0.50000001)"
         clip-rule="evenodd"
         id="path14" />
    </clipPath>
    <clipPath
       clipPathUnits="userSpaceOnUse"
       id="clipPath15">
      <path
         d="M 0,0 H 1866.6666 V 921.36749 H 0 Z"
         transform="matrix(0.33428236,0,0,0.33428236,-76.3125,-105)"
         clip-rule="evenodd"
         id="path15" />
    </clipPath>
    <clipPath
       clipPathUnits="userSpaceOnUse"
       id="clipPath17">
      <path
         d="M 0,0 H 1866.6666 V 921.36749 H 0 Z"
         transform="matrix(0.33428572,0,0,0.33428572,-0.50000001,-0.50000001)"
         clip-rule="evenodd"
         id="path17" />
    </clipPath>
    <clipPath
       clipPathUnits="userSpaceOnUse"
       id="clipPath18">
      <path
         d="M 0,0 H 1866.6666 V 921.36749 H 0 Z"
         transform="matrix(0.33428236,0,0,0.33428236,-126.64062,-105)"
         clip-rule="evenodd"
         id="path18" />
    </clipPath>
    <clipPath
       clipPathUnits="userSpaceOnUse"
       id="clipPath20">
      <path
         d="M 0,0 H 1866.6666 V 921.36749 H 0 Z"
         transform="matrix(0.33428572,0,0,0.33428572,-0.50000001,-0.50000001)"
         clip-rule="evenodd"
         id="path20" />
    </clipPath>
    <clipPath
       clipPathUnits="userSpaceOnUse"
       id="clipPath21">
      <path
         d="M 0,0 H 1866.6666 V 921.36749 H 0 Z"
         transform="matrix(0.33428236,0,0,0.33428236,-193,-105)"
         clip-rule="evenodd"
         id="path21" />
    </clipPath>
    <clipPath
       clipPathUnits="userSpaceOnUse"
       id="clipPath23">
      <path
         d="M 0,0 H 1866.6666 V 921.36749 H 0 Z"
         transform="matrix(0.33428572,0,0,0.33428572,-0.50000001,-0.50000001)"
         clip-rule="evenodd"
         id="path23" />
    </clipPath>
    <clipPath
       clipPathUnits="userSpaceOnUse"
       id="clipPath24">
      <path
         d="M 0,0 H 1866.6666 V 921.36749 H 0 Z"
         transform="matrix(0.33428236,0,0,0.33428236,-243,-105)"
         clip-rule="evenodd"
         id="path24" />
    </clipPath>
    <clipPath
       clipPathUnits="userSpaceOnUse"
       id="clipPath26">
      <path
         d="M 0,0 H 1866.6666 V 921.36749 H 0 Z"
         transform="matrix(0.33428572,0,0,0.33428572,-0.50000001,-0.50000001)"
         clip-rule="evenodd"
         id="path26" />
    </clipPath>
    <clipPath
       clipPathUnits="userSpaceOnUse"
       id="clipPath27">
      <path
         d="M 0,0 H 1866.6666 V 921.36749 H 0 Z"
         transform="matrix(0.33428236,0,0,0.33428236,-386.65625,-143)"
         clip-rule="evenodd"
         id="path27" />
    </clipPath>
    <clipPath
       clipPathUnits="userSpaceOnUse"
       id="clipPath29">
      <path
         d="M 0,0 H 1866.6666 V 921.36749 H 0 Z"
         transform="matrix(0.33428572,0,0,0.33428572,-0.50000001,-0.50000001)"
         clip-rule="evenodd"
         id="path29" />
    </clipPath>
    <clipPath
       clipPathUnits="userSpaceOnUse"
       id="clipPath30">
      <path
         d="M 0,0 H 1866.6666 V 921.36749 H 0 Z"
         transform="matrix(0.33428236,0,0,0.33428236,-381.32813,-166.99999)"
         clip-rule="evenodd"
         id="path30" />
    </clipPath>
    <clipPath
       clipPathUnits="userSpaceOnUse"
       id="clipPath32">
      <path
         d="M 0,0 H 1866.6666 V 921.36749 H 0 Z"
         transform="matrix(0.33428572,0,0,0.33428572,-0.50000001,-0.50000001)"
         clip-rule="evenodd"
         id="path32" />
    </clipPath>
    <clipPath
       clipPathUnits="userSpaceOnUse"
       id="clipPath33">
      <path
         d="M 0,0 H 1866.6666 V 921.36749 H 0 Z"
         transform="matrix(0.33428236,0,0,0.33428236,-416.3125,-166.99999)"
         clip-rule="evenodd"
         id="path33" />
    </clipPath>
    <clipPath
       clipPathUnits="userSpaceOnUse"
       id="clipPath35">
      <path
         d="M 0,0 H 1866.6666 V 921.36749 H 0 Z"
         transform="matrix(0.33428572,0,0,0.33428572,-0.50000001,-0.50000001)"
         clip-rule="evenodd"
         id="path35" />
    </clipPath>
    <clipPath
       clipPathUnits="userSpaceOnUse"
       id="clipPath36">
      <path
         d="M 0,0 H 1866.6666 V 921.36749 H 0 Z"
         transform="matrix(0.33428236,0,0,0.33428236,-466.64064,-166.99999)"
         clip-rule="evenodd"
         id="path36" />
    </clipPath>
    <clipPath
       clipPathUnits="userSpaceOnUse"
       id="clipPath38">
      <path
         d="M 0,0 H 1866.6666 V 921.36749 H 0 Z"
         transform="matrix(0.33428572,0,0,0.33428572,-0.50000001,-0.50000001)"
         clip-rule="evenodd"
         id="path38" />
    </clipPath>
    <clipPath
       clipPathUnits="userSpaceOnUse"
       id="clipPath39">
      <path
         d="M 0,0 H 1866.6666 V 921.36749 H 0 Z"
         transform="matrix(0.33428236,0,0,0.33428236,-442.89063,-69)"
         clip-rule="evenodd"
         id="path39" />
    </clipPath>
    <clipPath
       clipPathUnits="userSpaceOnUse"
       id="clipPath41">
      <path
         d="M 0,0 H 1866.6666 V 921.36749 H 0 Z"
         transform="matrix(0.33428572,0,0,0.33428572,-0.50000001,-0.50000001)"
         clip-rule="evenodd"
         id="path41" />
    </clipPath>
    <clipPath
       clipPathUnits="userSpaceOnUse"
       id="clipPath42">
      <path
         d="M 0,0 H 1866.6666 V 921.36749 H 0 Z"
         transform="matrix(0.33428236,0,0,0.33428236,-381.32813,-93)"
         clip-rule="evenodd"
         id="path42" />
    </clipPath>
    <clipPath
       clipPathUnits="userSpaceOnUse"
       id="clipPath44">
      <path
         d="M 0,0 H 1866.6666 V 921.36749 H 0 Z"
         transform="matrix(0.33428572,0,0,0.33428572,-0.50000001,-0.50000001)"
         clip-rule="evenodd"
         id="path44" />
    </clipPath>
    <clipPath
       clipPathUnits="userSpaceOnUse"
       id="clipPath45">
      <path
         d="M 0,0 H 1866.6666 V 921.36749 H 0 Z"
         transform="matrix(0.33428236,0,0,0.33428236,-416.3125,-93)"
         clip-rule="evenodd"
         id="path45" />
    </clipPath>
    <clipPath
       clipPathUnits="userSpaceOnUse"
       id="clipPath47">
      <path
         d="M 0,0 H 1866.6666 V 921.36749 H 0 Z"
         transform="matrix(0.33428572,0,0,0.33428572,-0.50000001,-0.50000001)"
         clip-rule="evenodd"
         id="path47" />
    </clipPath>
    <clipPath
       clipPathUnits="userSpaceOnUse"
       id="clipPath48">
      <path
         d="M 0,0 H 1866.6666 V 921.36749 H 0 Z"
         transform="matrix(0.33428236,0,0,0.33428236,-466.64064,-93)"
         clip-rule="evenodd"
         id="path48" />
    </clipPath>
    <clipPath
       clipPathUnits="userSpaceOnUse"
       id="clipPath50">
      <path
         d="M 0,0 H 1866.6666 V 921.36749 H 0 Z"
         transform="matrix(0.33428572,0,0,0.33428572,-0.50000001,-0.50000001)"
         clip-rule="evenodd"
         id="path50" />
    </clipPath>
    <clipPath
       clipPathUnits="userSpaceOnUse"
       id="clipPath51">
      <path
         d="M 0,0 H 1866.6666 V 921.36749 H 0 Z"
         transform="matrix(0.33428236,0,0,0.33428236,-533,-93)"
         clip-rule="evenodd"
         id="path51" />
    </clipPath>
    <clipPath
       clipPathUnits="userSpaceOnUse"
       id="clipPath53">
      <path
         d="M 0,0 H 1866.6666 V 921.36749 H 0 Z"
         transform="matrix(0.33428572,0,0,0.33428572,-0.50000001,-0.50000001)"
         clip-rule="evenodd"
         id="path53" />
    </clipPath>
    <clipPath
       clipPathUnits="userSpaceOnUse"
       id="clipPath54">
      <path
         d="M 0,0 H 1866.6666 V 921.36749 H 0 Z"
         transform="matrix(0.33428236,0,0,0.33428236,-583.00001,-93)"
         clip-rule="evenodd"
         id="path54" />
    </clipPath>
    <clipPath
       clipPathUnits="userSpaceOnUse"
       id="clipPath55">
      <path
         d="M 0,0 H 1866.6666 V 921.36749 H 0 Z"
         transform="matrix(0.33428236,0,0,0.33428236,-71.4375,-36)"
         clip-rule="evenodd"
         id="path55" />
    </clipPath>
    <clipPath
       clipPathUnits="userSpaceOnUse"
       id="clipPath56">
      <path
         d="M 0,0 H 1866.6666 V 921.36749 H 0 Z"
         transform="matrix(0.33428236,0,0,0.33428236,-401.4375,-36)"
         clip-rule="evenodd"
         id="path56" />
    </clipPath>
    <clipPath
       clipPathUnits="userSpaceOnUse"
       id="clipPath58">
      <path
         d="M 0,0 H 1866.6666 V 921.36749 H 0 Z"
         transform="matrix(0.33428572,0,0,0.33428572,-0.50000001,-0.50000001)"
         clip-rule="evenodd"
         id="path58" />
    </clipPath>
    <clipPath
       clipPathUnits="userSpaceOnUse"
       id="clipPath59">
      <path
         d="M 0,0 H 1866.6666 V 921.36749 H 0 Z"
         transform="matrix(0.33428236,0,0,0.33428236,-147.6875,-216)"
         clip-rule="evenodd"
         id="path59" />
    </clipPath>
    <clipPath
       clipPathUnits="userSpaceOnUse"
       id="clipPath60">
      <path
         d="M 0,0 H 1866.6666 V 921.36749 H 0 Z"
         transform="matrix(0.33428236,0,0,0.33428236,-204.0625,-237)"
         clip-rule="evenodd"
         id="path60" />
    </clipPath>
    <clipPath
       clipPathUnits="userSpaceOnUse"
       id="clipPath62">
      <path
         d="M 0,0 H 1866.6666 V 921.36749 H 0 Z"
         transform="matrix(0.33428572,0,0,0.33428572,-0.50000001,-0.50000001)"
         clip-rule="evenodd"
         id="path62" />
    </clipPath>
    <clipPath
       clipPathUnits="userSpaceOnUse"
       id="clipPath63">
      <path
         d="M 0,0 H 1866.6666 V 921.36749 H 0 Z"
         transform="matrix(0.33428236,0,0,0.33428236,-132.09375,-276)"
         clip-rule="evenodd"
         id="path63" />
    </clipPath>
    <clipPath
       clipPathUnits="userSpaceOnUse"
       id="clipPath64">
      <path
         d="M 0,0 H 1866.6666 V 921.36749 H 0 Z"
         transform="matrix(0.33428236,0,0,0.33428236,-291.32813,-297)"
         clip-rule="evenodd"
         id="path64" />
    </clipPath>
  </defs>
  <sodipodi:namedview
     id="namedview1"
     pagecolor="#ffffff"
     bordercolor="#000000"
     borderopacity="0.25"
     inkscape:showpageshadow="2"
     inkscape:pageopacity="0.0"
     inkscape:pagecheckerboard="0"
     inkscape:deskcolor="#d1d1d1">
    <inkscape:page
       x="0"
       y="0"
       inkscape:label="1"
       id="page1"
       width="597.44"
       height="296"
       margin="0"
       bleed="0" />
  </sodipodi:namedview>
  <g
     id="g1"
     inkscape:groupmode="layer"
     inkscape:label="1">
    <path
       id="path1"
       d="M 0,0 H 624 V 309 H 0 Z"
       style="fill:#ffffff;fill-opacity:1;fill-rule:nonzero;stroke:none"
       transform="scale(0.95726489)"
       clip-path="url(#clipPath2)" />
    <path
       id="path3"
       d="M 331,1 H 621 V 175 H 331 Z"
       style="fill:#f5f5f5;fill-opacity:1;fill-rule:nonzero;stroke:#666666;stroke-width:1;stroke-linecap:butt;stroke-linejoin:miter;stroke-miterlimit:10;stroke-dasharray:none;stroke-opacity:1"
       transform="matrix(0.95726489,0,0,0.95726489,0.47863245,0.47863245)"
       clip-path="url(#clipPath4)" />
    <path
       id="path5"
       d="M 1,1 H 291 V 175 H 1 Z"
       style="fill:#f5f5f5;fill-opacity:1;fill-rule:nonzero;stroke:#666666;stroke-width:1;stroke-linecap:butt;stroke-linejoin:miter;stroke-miterlimit:10;stroke-dasharray:none;stroke-opacity:1"
       transform="matrix(0.95726489,0,0,0.95726489,0.47863245,0.47863245)"
       clip-path="url(#clipPath6)" />
    <path
       id="path7"
       d="M 21,63 H 271 V 89 H 21 Z"
       style="fill:#ffe6cc;fill-opacity:1;fill-rule:nonzero;stroke:#d79b00;stroke-width:1;stroke-linecap:butt;stroke-linejoin:miter;stroke-miterlimit:10;stroke-dasharray:none;stroke-opacity:1"
       transform="matrix(0.95726489,0,0,0.95726489,0.47863245,0.47863245)"
       clip-path="url(#clipPath8)" />
    <text
       id="text8"
       xml:space="preserve"
       transform="matrix(0.95727452,0,0,0.95727452,124.01192,77.539236)"
       clip-path="url(#clipPath9)"><tspan
         style="font-variant:normal;font-weight:700;font-size:16px;font-family:Helvetica;writing-mode:lr-tb;fill:#000000;fill-opacity:1;fill-rule:nonzero;stroke:none"
         x="0 5.328125 14.226562 24"
         y="0"
         sodipodi:role="line"
         id="tspan8">tags</tspan></text>
    <path
       id="path10"
       d="m 21,89 h 50 v 24 H 21 Z"
       style="fill:#f5f5f5;fill-opacity:1;fill-rule:nonzero;stroke:#666666;stroke-width:1;stroke-linecap:butt;stroke-linejoin:miter;stroke-miterlimit:10;stroke-dasharray:none;stroke-opacity:1"
       transform="matrix(0.95726489,0,0,0.95726489,0.47863245,0.47863245)"
       clip-path="url(#clipPath11)" />
    <text
       id="text11"
       xml:space="preserve"
       transform="matrix(0.95727452,0,0,0.95727452,39.562361,100.51382)"
       clip-path="url(#clipPath12)"><tspan
         style="font-style:oblique;font-variant:normal;font-weight:normal;font-size:12px;font-family:Helvetica;writing-mode:lr-tb;fill:#333333;fill-opacity:1;fill-rule:nonzero;stroke:none"
         x="0 2.6660156"
         y="0"
         sodipodi:role="line"
         id="tspan11">id</tspan></text>
    <path
       id="path13"
       d="m 71,89 h 50 v 24 H 71 Z"
       style="fill:#f5f5f5;fill-opacity:1;fill-rule:nonzero;stroke:#666666;stroke-width:1;stroke-linecap:butt;stroke-linejoin:miter;stroke-miterlimit:10;stroke-dasharray:none;stroke-opacity:1"
       transform="matrix(0.95726489,0,0,0.95726489,0.47863245,0.47863245)"
       clip-path="url(#clipPath14)" />
    <text
       id="text14"
       xml:space="preserve"
       transform="matrix(0.95727452,0,0,0.95727452,73.052012,100.51382)"
       clip-path="url(#clipPath15)"><tspan
         style="font-style:oblique;font-variant:normal;font-weight:normal;font-size:12px;font-family:Helvetica;writing-mode:lr-tb;fill:#333333;fill-opacity:1;fill-rule:nonzero;stroke:none"
         x="0 6.6738281 12.673828 19.347656 23.34375 30.017578 32.683594"
         y="0"
         sodipodi:role="line"
         id="tspan14">user_id</tspan></text>
    <path
       id="path16"
       d="m 121,89 h 50 v 24 h -50 z"
       style="fill:#f5f5f5;fill-opacity:1;fill-rule:nonzero;stroke:#666666;stroke-width:1;stroke-linecap:butt;stroke-linejoin:miter;stroke-miterlimit:10;stroke-dasharray:none;stroke-opacity:1"
       transform="matrix(0.95726489,0,0,0.95726489,0.47863245,0.47863245)"
       clip-path="url(#clipPath17)" />
    <text
       id="text17"
       xml:space="preserve"
       transform="matrix(0.95727452,0,0,0.95727452,121.22984,100.51382)"
       clip-path="url(#clipPath18)"><tspan
         style="font-style:oblique;font-variant:normal;font-weight:normal;font-size:12px;font-family:Helvetica;writing-mode:lr-tb;fill:#333333;fill-opacity:1;fill-rule:nonzero;stroke:none"
         x="0 6.6738281 13.347656 19.347656 22.681641 29.355469 32.021484"
         y="0"
         sodipodi:role="line"
         id="tspan17">post_id</tspan></text>
    <path
       id="path19"
       d="m 171,89 h 50 v 24 h -50 z"
       style="fill:#f5f5f5;fill-opacity:1;fill-rule:nonzero;stroke:#666666;stroke-width:1;stroke-linecap:butt;stroke-linejoin:miter;stroke-miterlimit:10;stroke-dasharray:none;stroke-opacity:1"
       transform="matrix(0.95726489,0,0,0.95726489,0.47863245,0.47863245)"
       clip-path="url(#clipPath20)" />
    <text
       id="text20"
       xml:space="preserve"
       transform="matrix(0.95727452,0,0,0.95727452,184.75398,100.51382)"
       clip-path="url(#clipPath21)"><tspan
         style="font-style:oblique;font-variant:normal;font-weight:normal;font-size:12px;font-family:Helvetica;writing-mode:lr-tb;fill:#333333;fill-opacity:1;fill-rule:nonzero;stroke:none"
         x="0"
         y="0"
         id="tspan20">x</tspan></text>
    <path
       id="path22"
       d="m 221,89 h 50 v 24 h -50 z"
       style="fill:#f5f5f5;fill-opacity:1;fill-rule:nonzero;stroke:#666666;stroke-width:1;stroke-linecap:butt;stroke-linejoin:miter;stroke-miterlimit:10;stroke-dasharray:none;stroke-opacity:1"
       transform="matrix(0.95726489,0,0,0.95726489,0.47863245,0.47863245)"
       clip-path="url(#clipPath23)" />
    <text
       id="text23"
       xml:space="preserve"
       transform="matrix(0.95727452,0,0,0.95727452,232.61771,100.51382)"
       clip-path="url(#clipPath24)"><tspan
         style="font-style:oblique;font-variant:normal;font-weight:normal;font-size:12px;font-family:Helvetica;writing-mode:lr-tb;fill:#333333;fill-opacity:1;fill-rule:nonzero;stroke:none"
         x="0"
         y="0"
         id="tspan23">y</tspan></text>
    <path
       id="path25"
       d="m 361,125 h 150 v 26 H 361 Z"
       style="fill:#ffe6cc;fill-opacity:1;fill-rule:nonzero;stroke:#d79b00;stroke-width:1;stroke-linecap:butt;stroke-linejoin:miter;stroke-miterlimit:10;stroke-dasharray:none;stroke-opacity:1"
       transform="matrix(0.95726489,0,0,0.95726489,0.47863245,0.47863245)"
       clip-path="url(#clipPath26)" />
    <text
       id="text26"
       xml:space="preserve"
       transform="matrix(0.95727452,0,0,0.95727452,370.13618,136.89026)"
       clip-path="url(#clipPath27)"><tspan
         style="font-variant:normal;font-weight:700;font-size:16px;font-family:Helvetica;writing-mode:lr-tb;fill:#000000;fill-opacity:1;fill-rule:nonzero;stroke:none"
         x="0 8.8984375 17.796875 27.570312 32.898438 37.34375 47.117188 56.890625 65.789062 71.117188 80.015625 89.789062"
         y="0"
         sodipodi:role="line"
         id="tspan26">caption_tags</tspan></text>
    <path
       id="path28"
       d="m 361,151 h 50 v 24 h -50 z"
       style="fill:#f5f5f5;fill-opacity:1;fill-rule:nonzero;stroke:#666666;stroke-width:1;stroke-linecap:butt;stroke-linejoin:miter;stroke-miterlimit:10;stroke-dasharray:none;stroke-opacity:1"
       transform="matrix(0.95726489,0,0,0.95726489,0.47863245,0.47863245)"
       clip-path="url(#clipPath29)" />
    <text
       id="text29"
       xml:space="preserve"
       transform="matrix(0.95727452,0,0,0.95727452,365.0357,159.86484)"
       clip-path="url(#clipPath30)"><tspan
         style="font-style:oblique;font-variant:normal;font-weight:normal;font-size:12px;font-family:Helvetica;writing-mode:lr-tb;fill:#333333;fill-opacity:1;fill-rule:nonzero;stroke:none"
         x="0 2.6660156"
         y="0"
         sodipodi:role="line"
         id="tspan29">id</tspan></text>
    <path
       id="path31"
       d="m 411,151 h 50 v 24 h -50 z"
       style="fill:#f5f5f5;fill-opacity:1;fill-rule:nonzero;stroke:#666666;stroke-width:1;stroke-linecap:butt;stroke-linejoin:miter;stroke-miterlimit:10;stroke-dasharray:none;stroke-opacity:1"
       transform="matrix(0.95726489,0,0,0.95726489,0.47863245,0.47863245)"
       clip-path="url(#clipPath32)" />
    <text
       id="text32"
       xml:space="preserve"
       transform="matrix(0.95727452,0,0,0.95727452,398.52535,159.86484)"
       clip-path="url(#clipPath33)"><tspan
         style="font-style:oblique;font-variant:normal;font-weight:normal;font-size:12px;font-family:Helvetica;writing-mode:lr-tb;fill:#333333;fill-opacity:1;fill-rule:nonzero;stroke:none"
         x="0 6.6738281 12.673828 19.347656 23.34375 30.017578 32.683594"
         y="0"
         sodipodi:role="line"
         id="tspan32">user_id</tspan></text>
    <path
       id="path34"
       d="m 461,151 h 50 v 24 h -50 z"
       style="fill:#f5f5f5;fill-opacity:1;fill-rule:nonzero;stroke:#666666;stroke-width:1;stroke-linecap:butt;stroke-linejoin:miter;stroke-miterlimit:10;stroke-dasharray:none;stroke-opacity:1"
       transform="matrix(0.95726489,0,0,0.95726489,0.47863245,0.47863245)"
       clip-path="url(#clipPath35)" />
    <text
       id="text35"
       xml:space="preserve"
       transform="matrix(0.95727452,0,0,0.95727452,446.70319,159.86484)"
       clip-path="url(#clipPath36)"><tspan
         style="font-style:oblique;font-variant:normal;font-weight:normal;font-size:12px;font-family:Helvetica;writing-mode:lr-tb;fill:#333333;fill-opacity:1;fill-rule:nonzero;stroke:none"
         x="0 6.6738281 13.347656 19.347656 22.681641 29.355469 32.021484"
         y="0"
         sodipodi:role="line"
         id="tspan35">post_id</tspan></text>
    <path
       id="path37"
       d="M 361,51 H 611 V 77 H 361 Z"
       style="fill:#ffe6cc;fill-opacity:1;fill-rule:nonzero;stroke:#d79b00;stroke-width:1;stroke-linecap:butt;stroke-linejoin:miter;stroke-miterlimit:10;stroke-dasharray:none;stroke-opacity:1"
       transform="matrix(0.95726489,0,0,0.95726489,0.47863245,0.47863245)"
       clip-path="url(#clipPath38)" />
    <text
       id="text38"
       xml:space="preserve"
       transform="matrix(0.95727452,0,0,0.95727452,423.96792,66.051942)"
       clip-path="url(#clipPath39)"><tspan
         style="font-variant:normal;font-weight:700;font-size:16px;font-family:Helvetica;writing-mode:lr-tb;fill:#000000;fill-opacity:1;fill-rule:nonzero;stroke:none"
         x="0 9.7734375 19.546875 29.320312 34.648438 44.421875 53.320312 58.648438 67.546875 77.320312"
         y="0"
         sodipodi:role="line"
         id="tspan38">photo_tags</tspan></text>
    <path
       id="path40"
       d="m 361,77 h 50 v 24 h -50 z"
       style="fill:#f5f5f5;fill-opacity:1;fill-rule:nonzero;stroke:#666666;stroke-width:1;stroke-linecap:butt;stroke-linejoin:miter;stroke-miterlimit:10;stroke-dasharray:none;stroke-opacity:1"
       transform="matrix(0.95726489,0,0,0.95726489,0.47863245,0.47863245)"
       clip-path="url(#clipPath41)" />
    <text
       id="text41"
       xml:space="preserve"
       transform="matrix(0.95727452,0,0,0.95727452,365.0357,89.02653)"
       clip-path="url(#clipPath42)"><tspan
         style="font-style:oblique;font-variant:normal;font-weight:normal;font-size:12px;font-family:Helvetica;writing-mode:lr-tb;fill:#333333;fill-opacity:1;fill-rule:nonzero;stroke:none"
         x="0 2.6660156"
         y="0"
         sodipodi:role="line"
         id="tspan41">id</tspan></text>
    <path
       id="path43"
       d="m 411,77 h 50 v 24 h -50 z"
       style="fill:#f5f5f5;fill-opacity:1;fill-rule:nonzero;stroke:#666666;stroke-width:1;stroke-linecap:butt;stroke-linejoin:miter;stroke-miterlimit:10;stroke-dasharray:none;stroke-opacity:1"
       transform="matrix(0.95726489,0,0,0.95726489,0.47863245,0.47863245)"
       clip-path="url(#clipPath44)" />
    <text
       id="text44"
       xml:space="preserve"
       transform="matrix(0.95727452,0,0,0.95727452,398.52535,89.02653)"
       clip-path="url(#clipPath45)"><tspan
         style="font-style:oblique;font-variant:normal;font-weight:normal;font-size:12px;font-family:Helvetica;writing-mode:lr-tb;fill:#333333;fill-opacity:1;fill-rule:nonzero;stroke:none"
         x="0 6.6738281 12.673828 19.347656 23.34375 30.017578 32.683594"
         y="0"
         sodipodi:role="line"
         id="tspan44">user_id</tspan></text>
    <path
       id="path46"
       d="m 461,77 h 50 v 24 h -50 z"
       style="fill:#f5f5f5;fill-opacity:1;fill-rule:nonzero;stroke:#666666;stroke-width:1;stroke-linecap:butt;stroke-linejoin:miter;stroke-miterlimit:10;stroke-dasharray:none;stroke-opacity:1"
       transform="matrix(0.95726489,0,0,0.95726489,0.47863245,0.47863245)"
       clip-path="url(#clipPath47)" />
    <text
       id="text47"
       xml:space="preserve"
       transform="matrix(0.95727452,0,0,0.95727452,446.70319,89.02653)"
       clip-path="url(#clipPath48)"><tspan
         style="font-style:oblique;font-variant:normal;font-weight:normal;font-size:12px;font-family:Helvetica;writing-mode:lr-tb;fill:#333333;fill-opacity:1;fill-rule:nonzero;stroke:none"
         x="0 6.6738281 13.347656 19.347656 22.681641 29.355469 32.021484"
         y="0"
         sodipodi:role="line"
         id="tspan47">post_id</tspan></text>
    <path
       id="path49"
       d="m 511.01001,77 h 50 v 24 h -50 z"
       style="fill:#f5f5f5;fill-opacity:1;fill-rule:nonzero;stroke:#666666;stroke-width:1;stroke-linecap:butt;stroke-linejoin:miter;stroke-miterlimit:10;stroke-dasharray:none;stroke-opacity:1"
       transform="matrix(0.95726489,0,0,0.95726489,0.47863245,0.47863245)"
       clip-path="url(#clipPath50)" />
    <text
       id="text50"
       xml:space="preserve"
       transform="matrix(0.95727452,0,0,0.95727452,510.22732,89.02653)"
       clip-path="url(#clipPath51)"><tspan
         style="font-style:oblique;font-variant:normal;font-weight:normal;font-size:12px;font-family:Helvetica;writing-mode:lr-tb;fill:#333333;fill-opacity:1;fill-rule:nonzero;stroke:none"
         x="0"
         y="0"
         id="tspan50">x</tspan></text>
    <path
       id="path52"
       d="m 561.01001,77 h 50 v 24 h -50 z"
       style="fill:#f5f5f5;fill-opacity:1;fill-rule:nonzero;stroke:#666666;stroke-width:1;stroke-linecap:butt;stroke-linejoin:miter;stroke-miterlimit:10;stroke-dasharray:none;stroke-opacity:1"
       transform="matrix(0.95726489,0,0,0.95726489,0.47863245,0.47863245)"
       clip-path="url(#clipPath53)" />
    <text
       id="text53"
       xml:space="preserve"
       transform="matrix(0.95727452,0,0,0.95727452,558.09105,89.02653)"
       clip-path="url(#clipPath54)"><tspan
         style="font-style:oblique;font-variant:normal;font-weight:normal;font-size:12px;font-family:Helvetica;writing-mode:lr-tb;fill:#333333;fill-opacity:1;fill-rule:nonzero;stroke:none"
         x="0"
         y="0"
         id="tspan53">y</tspan></text>
    <text
       id="text54"
       xml:space="preserve"
       transform="matrix(0.95727452,0,0,0.95727452,68.385299,34.461883)"
       clip-path="url(#clipPath55)"><tspan
         style="font-variant:normal;font-weight:normal;font-size:30px;font-family:Helvetica;writing-mode:lr-tb;fill:#000000;fill-opacity:1;fill-rule:nonzero;stroke:none"
         x="0 20.009766 36.694336 43.359375 60.043945 68.378906 75.043945 91.728516 108.41309 116.74805 133.43262"
         y="0"
         sodipodi:role="line"
         id="tspan54">Solution #1</tspan></text>
    <text
       id="text55"
       xml:space="preserve"
       transform="matrix(0.95727452,0,0,0.95727452,384.28589,34.461883)"
       clip-path="url(#clipPath56)"><tspan
         style="font-variant:normal;font-weight:normal;font-size:30px;font-family:Helvetica;writing-mode:lr-tb;fill:#000000;fill-opacity:1;fill-rule:nonzero;stroke:none"
         x="0 20.009766 36.694336 43.359375 60.043945 68.378906 75.043945 91.728516 108.41309 116.74805 133.43262"
         y="0"
         sodipodi:role="line"
         id="tspan55">Solution #2</tspan></text>
    <path
       id="path57"
       d="m 107,195 h 415 v 50 H 107 Z"
       style="fill:#dae8fc;fill-opacity:1;fill-rule:nonzero;stroke:#6c8ebf;stroke-width:1;stroke-linecap:butt;stroke-linejoin:miter;stroke-miterlimit:10;stroke-dasharray:none;stroke-opacity:1"
       transform="matrix(0.95726489,0,0,0.95726489,0.47863245,0.47863245)"
       clip-path="url(#clipPath58)" />
    <text
       id="text58"
       xml:space="preserve"
       transform="matrix(0.95727452,0,0,0.95727452,141.37748,206.7713)"
       clip-path="url(#clipPath59)"><tspan
         style="font-variant:normal;font-weight:normal;font-size:17px;font-family:Helvetica;writing-mode:lr-tb;fill:#000000;fill-opacity:1;fill-rule:nonzero;stroke:none"
         x="0 12.276855 21.731445 26.45459 34.95459 44.40918 53.86377 58.586914 68.041504 76.541504 85.996094 95.450684 103.95068 108.67383 113.39697 118.12012 127.57471 132.29785 141.75244 151.20703 160.66162 166.32275 174.82275 179.5459 184.26904 193.72363 199.38477 204.10791 212.60791 222.0625 231.51709 236.24023 240.01709 249.47168 258.92627 268.38086 273.104 282.55859 292.01318 300.51318 305.23633 314.69092 324.14551"
         y="0"
         sodipodi:role="line"
         id="tspan58">Do you expect to query for caption_tags and</tspan></text>
    <text
       id="text59"
       xml:space="preserve"
       transform="matrix(0.95727452,0,0,0.95727452,195.34383,226.87406)"
       clip-path="url(#clipPath60)"><tspan
         style="font-variant:normal;font-weight:normal;font-size:17px;font-family:Helvetica;writing-mode:lr-tb;fill:#000000;fill-opacity:1;fill-rule:nonzero;stroke:none"
         x="0 9.4545898 18.90918 28.36377 33.086914 42.541504 51.996094 56.719238 66.173828 75.628418 84.128418 88.851562 98.306152 103.0293 107.75244 117.20703 120.98389 125.4082 130.13135 139.58594 145.24707 154.70166 164.15625 168.87939 173.60254 179.26367 188.71826 193.44141 202.896 211.396"
         y="0"
         sodipodi:role="line"
         id="tspan59">photo_tags at different rates?</tspan></text>
    <path
       id="path61"
       d="m 107,255 h 415 v 50 H 107 Z"
       style="fill:#dae8fc;fill-opacity:1;fill-rule:nonzero;stroke:#6c8ebf;stroke-width:1;stroke-linecap:butt;stroke-linejoin:miter;stroke-miterlimit:10;stroke-dasharray:none;stroke-opacity:1"
       transform="matrix(0.95726489,0,0,0.95726489,0.47863245,0.47863245)"
       clip-path="url(#clipPath62)" />
    <text
       id="text62"
       xml:space="preserve"
       transform="matrix(0.95727452,0,0,0.95727452,126.44998,264.20777)"
       clip-path="url(#clipPath63)"><tspan
         style="font-variant:normal;font-weight:normal;font-size:17px;font-family:Helvetica;writing-mode:lr-tb;fill:#000000;fill-opacity:1;fill-rule:nonzero;stroke:none"
         x="0 16.04541 19.822266 23.599121 27.375977 32.099121 36.822266 46.276855 55.731445 60.45459 74.615723 84.070312 93.524902 102.97949 106.75635 116.21094 125.66553 130.38867 139.84326 144.56641 149.28955 158.74414 163.46729 172.92188 182.37646 191.83105 196.5542 206.00879 215.46338 220.18652 229.64111 239.0957 243.81885 252.31885 261.77344 271.22803 280.68262 290.13721 299.5918 304.31494 313.76953 318.49268 323.21582 331.71582 341.17041 355.33154"
         y="0"
         sodipodi:role="line"
         id="tspan62">Will the meaning of a photo_tag change at some</tspan></text>
    <text
       id="text63"
       xml:space="preserve"
       transform="matrix(0.95727452,0,0,0.95727452,278.881,284.31053)"
       clip-path="url(#clipPath64)"><tspan
         style="font-variant:normal;font-weight:normal;font-size:17px;font-family:Helvetica;writing-mode:lr-tb;fill:#000000;fill-opacity:1;fill-rule:nonzero;stroke:none"
         x="0 9.4545898 18.90918 22.686035 32.140625 36.86377"
         y="0"
         sodipodi:role="line"
         id="tspan63">point?</tspan></text>
  </g>
</svg>
