<?xml version="1.0" encoding="UTF-8" standalone="no"?>
<!-- Created with Inkscape (http://www.inkscape.org/) -->

<svg
   version="1.1"
   id="svg1"
   width="544"
   height="200"
   viewBox="0 0 544 200"
   sodipodi:docname="sql-14.pdf"
   xmlns:inkscape="http://www.inkscape.org/namespaces/inkscape"
   xmlns:sodipodi="http://sodipodi.sourceforge.net/DTD/sodipodi-0.dtd"
   xmlns="http://www.w3.org/2000/svg"
   xmlns:svg="http://www.w3.org/2000/svg">
  <defs
     id="defs1">
    <clipPath
       clipPathUnits="userSpaceOnUse"
       id="clipPath2">
      <path
         d="M 0,0 H 1699.9999 V 624.42877 H 0 Z"
         transform="scale(0.3347059)"
         clip-rule="evenodd"
         id="path2" />
    </clipPath>
    <clipPath
       clipPathUnits="userSpaceOnUse"
       id="clipPath4">
      <path
         d="M 0,0 H 1699.9999 V 621.4411 H 0 Z"
         transform="matrix(0.3347059,0,0,0.3347059,-0.50000001,-0.50000001)"
         clip-rule="evenodd"
         id="path4" />
    </clipPath>
    <clipPath
       clipPathUnits="userSpaceOnUse"
       id="clipPath6">
      <path
         d="M 0,0 H 1699.9999 V 621.4411 H 0 Z"
         transform="matrix(0.3347059,0,0,0.3347059,-0.50000001,-0.50000001)"
         clip-rule="evenodd"
         id="path6" />
    </clipPath>
    <clipPath
       clipPathUnits="userSpaceOnUse"
       id="clipPath7">
      <path
         d="M 0,0 H 1699.9999 V 621.4411 H 0 Z"
         transform="matrix(0.33470256,0,0,0.33470256,-410.96875,-23)"
         clip-rule="evenodd"
         id="path7" />
    </clipPath>
    <clipPath
       clipPathUnits="userSpaceOnUse"
       id="clipPath9">
      <path
         d="M 0,0 H 1699.9999 V 621.4411 H 0 Z"
         transform="matrix(0.3347059,0,0,0.3347059,-0.50000001,-0.50000001)"
         clip-rule="evenodd"
         id="path9" />
    </clipPath>
    <clipPath
       clipPathUnits="userSpaceOnUse"
       id="clipPath10">
      <path
         d="M 0,0 H 1699.9999 V 621.4411 H 0 Z"
         transform="matrix(0.33470256,0,0,0.33470256,-416.76563,-66)"
         clip-rule="evenodd"
         id="path10" />
    </clipPath>
    <clipPath
       clipPathUnits="userSpaceOnUse"
       id="clipPath12">
      <path
         d="M 0,0 H 1699.9999 V 621.4411 H 0 Z"
         transform="matrix(0.3347059,0,0,0.3347059,-0.50000001,-0.50000001)"
         clip-rule="evenodd"
         id="path12" />
    </clipPath>
    <clipPath
       clipPathUnits="userSpaceOnUse"
       id="clipPath14">
      <path
         d="M 0,0 H 1699.9999 V 621.4411 H 0 Z"
         transform="matrix(0.3347059,0,0,0.3347059,-0.50000001,-0.50000001)"
         clip-rule="evenodd"
         id="path14" />
    </clipPath>
    <clipPath
       clipPathUnits="userSpaceOnUse"
       id="clipPath16">
      <path
         d="M 0,0 H 1699.9999 V 621.4411 H 0 Z"
         transform="matrix(0.3347059,0,0,0.3347059,-0.50000001,-0.50000001)"
         clip-rule="evenodd"
         id="path16" />
    </clipPath>
    <clipPath
       clipPathUnits="userSpaceOnUse"
       id="clipPath17">
      <path
         d="M 0,0 H 1699.9999 V 621.4411 H 0 Z"
         transform="matrix(0.33470256,0,0,0.33470256,-192.96875,-55)"
         clip-rule="evenodd"
         id="path17" />
    </clipPath>
    <clipPath
       clipPathUnits="userSpaceOnUse"
       id="clipPath18">
      <path
         d="M 0,0 H 1699.9999 V 621.4411 H 0 Z"
         transform="matrix(0.33470256,0,0,0.33470256,-181.73437,-82)"
         clip-rule="evenodd"
         id="path18" />
    </clipPath>
    <clipPath
       clipPathUnits="userSpaceOnUse"
       id="clipPath20">
      <path
         d="M 0,0 H 1699.9999 V 621.4411 H 0 Z"
         transform="matrix(0.3347059,0,0,0.3347059,-0.50000001,-0.50000001)"
         clip-rule="evenodd"
         id="path20" />
    </clipPath>
    <clipPath
       clipPathUnits="userSpaceOnUse"
       id="clipPath22">
      <path
         d="M 0,0 H 1699.9999 V 621.4411 H 0 Z"
         transform="matrix(0.3347059,0,0,0.3347059,-0.50000001,-0.50000001)"
         clip-rule="evenodd"
         id="path22" />
    </clipPath>
    <clipPath
       clipPathUnits="userSpaceOnUse"
       id="clipPath24">
      <path
         d="M 0,0 H 1699.9999 V 621.4411 H 0 Z"
         transform="matrix(0.3347059,0,0,0.3347059,-0.50000001,-0.50000001)"
         clip-rule="evenodd"
         id="path24" />
    </clipPath>
    <clipPath
       clipPathUnits="userSpaceOnUse"
       id="clipPath25">
      <path
         d="M 0,0 H 1699.9999 V 621.4411 H 0 Z"
         transform="matrix(0.33470256,0,0,0.33470256,-31.53125,-68)"
         clip-rule="evenodd"
         id="path25" />
    </clipPath>
    <clipPath
       clipPathUnits="userSpaceOnUse"
       id="clipPath27">
      <path
         d="M 0,0 H 1699.9999 V 621.4411 H 0 Z"
         transform="matrix(0,0.3347059,-0.3347059,0,354.5,-78.5)"
         clip-rule="evenodd"
         id="path27" />
    </clipPath>
    <clipPath
       clipPathUnits="userSpaceOnUse"
       id="clipPath29">
      <path
         d="M 0,0 H 1699.9999 V 621.4411 H 0 Z"
         transform="matrix(0,0.3347059,-0.3347059,0,592.00001,-311)"
         clip-rule="evenodd"
         id="path29" />
    </clipPath>
    <clipPath
       clipPathUnits="userSpaceOnUse"
       id="clipPath30">
      <path
         d="M 0,0 H 1699.9999 V 621.4411 H 0 Z"
         transform="matrix(0.33470256,0,0,0.33470256,-140.10937,-171)"
         clip-rule="evenodd"
         id="path30" />
    </clipPath>
    <clipPath
       clipPathUnits="userSpaceOnUse"
       id="clipPath31">
      <path
         d="M 0,0 H 1699.9999 V 621.4411 H 0 Z"
         transform="matrix(0.33470256,0,0,0.33470256,-184.79688,-200)"
         clip-rule="evenodd"
         id="path31" />
    </clipPath>
    <clipPath
       clipPathUnits="userSpaceOnUse"
       id="clipPath32">
      <path
         d="M 0,0 H 1699.9999 V 621.4411 H 0 Z"
         transform="matrix(0.33470256,0,0,0.33470256,-403.14063,-176)"
         clip-rule="evenodd"
         id="path32" />
    </clipPath>
  </defs>
  <sodipodi:namedview
     id="namedview1"
     pagecolor="#ffffff"
     bordercolor="#000000"
     borderopacity="0.25"
     inkscape:showpageshadow="2"
     inkscape:pageopacity="0.0"
     inkscape:pagecheckerboard="0"
     inkscape:deskcolor="#d1d1d1">
    <inkscape:page
       x="0"
       y="0"
       inkscape:label="1"
       id="page1"
       width="544"
       height="200"
       margin="0"
       bleed="0" />
  </sodipodi:namedview>
  <g
     id="g1"
     inkscape:groupmode="layer"
     inkscape:label="1">
    <path
       id="path1"
       d="M 0,0 H 569 V 209 H 0 Z"
       style="fill:#ffffff;fill-opacity:1;fill-rule:nonzero;stroke:none"
       transform="scale(0.95606319)"
       clip-path="url(#clipPath2)" />
    <path
       id="path3"
       d="M 336,1 H 566 V 121 H 336 Z"
       style="fill:#d5e8d4;fill-opacity:1;fill-rule:nonzero;stroke:#82b366;stroke-width:1;stroke-linecap:butt;stroke-linejoin:miter;stroke-miterlimit:10;stroke-dasharray:none;stroke-opacity:1"
       transform="matrix(0.95606319,0,0,0.95606319,0.4780316,0.4780316)"
       clip-path="url(#clipPath4)" />
    <path
       id="path5"
       d="M 336,1 H 566 V 31 H 336 Z"
       style="fill:#d5e8d4;fill-opacity:1;fill-rule:nonzero;stroke:#82b366;stroke-width:1;stroke-linecap:butt;stroke-linejoin:miter;stroke-miterlimit:10;stroke-dasharray:none;stroke-opacity:1"
       transform="matrix(0.95606319,0,0,0.95606319,0.4780316,0.4780316)"
       clip-path="url(#clipPath6)" />
    <text
       id="text6"
       xml:space="preserve"
       transform="matrix(0.95607273,0,0,0.95607273,392.91601,21.989673)"
       clip-path="url(#clipPath7)"><tspan
         style="font-variant:normal;font-weight:700;font-size:18px;font-family:Helvetica;writing-mode:lr-tb;fill:#000000;fill-opacity:1;fill-rule:nonzero;stroke:none"
         x="0 12.999023 23.009766 29.003906 39.014648 50.009766 60.020508 70.03125"
         y="0"
         sodipodi:role="line"
         id="tspan6">Database</tspan></text>
    <path
       id="path8"
       d="M 371,48 H 531 V 74 H 371 Z"
       style="fill:#ffe6cc;fill-opacity:1;fill-rule:nonzero;stroke:#d79b00;stroke-width:1;stroke-linecap:butt;stroke-linejoin:miter;stroke-miterlimit:10;stroke-dasharray:none;stroke-opacity:1"
       transform="matrix(0.95606319,0,0,0.95606319,0.4780316,0.4780316)"
       clip-path="url(#clipPath9)" />
    <text
       id="text9"
       xml:space="preserve"
       transform="matrix(0.95607273,0,0,0.95607273,398.45825,63.1008)"
       clip-path="url(#clipPath10)"><tspan
         style="font-variant:normal;font-weight:700;font-size:16px;font-family:Helvetica;writing-mode:lr-tb;fill:#000000;fill-opacity:1;fill-rule:nonzero;stroke:none"
         x="0 9.7734375 16 25.773438 35.546875 45.320312 54.21875 59.546875"
         y="0"
         sodipodi:role="line"
         id="tspan9">products</tspan></text>
    <path
       id="path11"
       d="m 271,61 h 58.64001"
       style="fill:none;stroke:#000000;stroke-width:1;stroke-linecap:butt;stroke-linejoin:miter;stroke-miterlimit:10;stroke-dasharray:none;stroke-opacity:1"
       transform="matrix(0.95606319,0,0,0.95606319,0.4780316,0.4780316)"
       clip-path="url(#clipPath12)" />
    <path
       id="path13"
       d="m 334.89001,61 -7,3.5 1.75,-3.5 -1.75,-3.5 z"
       style="fill:#000000;fill-opacity:1;fill-rule:nonzero;stroke:#000000;stroke-width:1;stroke-linecap:butt;stroke-linejoin:miter;stroke-miterlimit:10;stroke-dasharray:none;stroke-opacity:1"
       transform="matrix(0.95606319,0,0,0.95606319,0.4780316,0.4780316)"
       clip-path="url(#clipPath14)" />
    <path
       id="path15"
       d="M 161,1 H 271 V 121 H 161 Z"
       style="fill:#dae8fc;fill-opacity:1;fill-rule:nonzero;stroke:#6c8ebf;stroke-width:1;stroke-linecap:butt;stroke-linejoin:miter;stroke-miterlimit:10;stroke-dasharray:none;stroke-opacity:1"
       transform="matrix(0.95606319,0,0,0.95606319,0.4780316,0.4780316)"
       clip-path="url(#clipPath16)" />
    <text
       id="text16"
       xml:space="preserve"
       transform="matrix(0.95607273,0,0,0.95607273,184.49216,52.584)"
       clip-path="url(#clipPath17)"><tspan
         style="font-variant:normal;font-weight:700;font-size:22px;font-family:Helvetica;writing-mode:lr-tb;fill:#000000;fill-opacity:1;fill-rule:nonzero;stroke:none"
         x="0 20.37793 32.613281"
         y="0"
         sodipodi:role="line"
         id="tspan16">Web</tspan></text>
    <text
       id="text17"
       xml:space="preserve"
       transform="matrix(0.95607273,0,0,0.95607273,173.75128,78.397964)"
       clip-path="url(#clipPath18)"><tspan
         style="font-variant:normal;font-weight:700;font-size:22px;font-family:Helvetica;writing-mode:lr-tb;fill:#000000;fill-opacity:1;fill-rule:nonzero;stroke:none"
         x="0 14.673828 26.90918 35.470703 47.706055 59.941406"
         y="0"
         sodipodi:role="line"
         id="tspan17">Server</tspan></text>
    <path
       id="path19"
       d="m 111,61 h 43.63"
       style="fill:none;stroke:#000000;stroke-width:1;stroke-linecap:butt;stroke-linejoin:miter;stroke-miterlimit:10;stroke-dasharray:none;stroke-opacity:1"
       transform="matrix(0.95606319,0,0,0.95606319,0.4780316,0.4780316)"
       clip-path="url(#clipPath20)" />
    <path
       id="path21"
       d="m 159.88,61 -7,3.5 1.75,-3.5 -1.75,-3.5 z"
       style="fill:#000000;fill-opacity:1;fill-rule:nonzero;stroke:#000000;stroke-width:1;stroke-linecap:butt;stroke-linejoin:miter;stroke-miterlimit:10;stroke-dasharray:none;stroke-opacity:1"
       transform="matrix(0.95606319,0,0,0.95606319,0.4780316,0.4780316)"
       clip-path="url(#clipPath22)" />
    <path
       id="path23"
       d="M 1,1 H 111 V 121 H 1 Z"
       style="fill:#dae8fc;fill-opacity:1;fill-rule:nonzero;stroke:#6c8ebf;stroke-width:1;stroke-linecap:butt;stroke-linejoin:miter;stroke-miterlimit:10;stroke-dasharray:none;stroke-opacity:1"
       transform="matrix(0.95606319,0,0,0.95606319,0.4780316,0.4780316)"
       clip-path="url(#clipPath24)" />
    <text
       id="text24"
       xml:space="preserve"
       transform="matrix(0.95607273,0,0,0.95607273,30.146168,65.012946)"
       clip-path="url(#clipPath25)"><tspan
         style="font-variant:normal;font-weight:700;font-size:22px;font-family:Helvetica;writing-mode:lr-tb;fill:#000000;fill-opacity:1;fill-rule:nonzero;stroke:none"
         x="0 15.887695 28.123047 40.358398"
         y="0"
         sodipodi:role="line"
         id="tspan24">User</tspan></text>
    <path
       id="path26"
       d="m 228.5,83 h -6.25 C 218.08333,83 216,86.333336 216,93 v 35 c 0,6.66667 -2.08333,10 -6.25,10 h -3.12 c -2.08667,0 -1.04667,0 3.12,0 h 3.13 c 2.08001,0 3.12,3.33333 3.12,10 v 35 c 0,6.66667 2.08333,10 6.25,10 h 6.25"
       style="fill:none;stroke:#000000;stroke-width:1;stroke-linecap:butt;stroke-linejoin:miter;stroke-miterlimit:10;stroke-dasharray:none;stroke-opacity:1"
       transform="matrix(0,-0.95606319,0.95606319,0,75.05096,338.9244)"
       clip-path="url(#clipPath27)" />
    <path
       id="path28"
       d="m 466,25.5 h -7.5 c -5,0 -7.5,3.333332 -7.5,10 v 95 c 0,6.66667 -2.5,10 -7.5,10 h -3.75 c -2.5,0 -1.25,0 3.75,0 h 3.75 c 2.5,0 3.75,3.33333 3.75,10 v 95 c 0,6.66667 2.5,10 7.5,10 h 7.5"
       style="fill:none;stroke:#000000;stroke-width:1;stroke-linecap:butt;stroke-linejoin:miter;stroke-miterlimit:10;stroke-dasharray:none;stroke-opacity:1"
       transform="matrix(0,-0.95606319,0.95606319,0,297.33565,565.98942)"
       clip-path="url(#clipPath29)" />
    <text
       id="text29"
       xml:space="preserve"
       transform="matrix(0.95607273,0,0,0.95607273,133.95475,163.48844)"
       clip-path="url(#clipPath30)"><tspan
         style="font-variant:normal;font-weight:normal;font-size:24px;font-family:Helvetica;writing-mode:lr-tb;fill:#000000;fill-opacity:1;fill-rule:nonzero;stroke:none"
         x="0 16.007812 29.355469 42.703125 49.371094 61.371094 74.71875 80.050781 85.382812 98.730469 112.07812 118.74609 124.07812 137.42578"
         y="0"
         sodipodi:role="line"
         id="tspan29">Add validation</tspan></text>
    <text
       id="text30"
       xml:space="preserve"
       transform="matrix(0.95607273,0,0,0.95607273,176.67926,191.21455)"
       clip-path="url(#clipPath31)"><tspan
         style="font-variant:normal;font-weight:normal;font-size:24px;font-family:Helvetica;writing-mode:lr-tb;fill:#000000;fill-opacity:1;fill-rule:nonzero;stroke:none"
         x="0 13.347656 26.695312 34.6875 48.035156"
         y="0"
         sodipodi:role="line"
         id="tspan30">here?</tspan></text>
    <text
       id="text31"
       xml:space="preserve"
       transform="matrix(0.95607273,0,0,0.95607273,385.43176,168.2688)"
       clip-path="url(#clipPath32)"><tspan
         style="font-variant:normal;font-weight:normal;font-size:24px;font-family:Helvetica;writing-mode:lr-tb;fill:#000000;fill-opacity:1;fill-rule:nonzero;stroke:none"
         x="0 18.667969 26.660156 33.328125 46.675781 60.023438 68.015625 81.363281"
         y="0"
         sodipodi:role="line"
         id="tspan31">Or here?</tspan></text>
  </g>
</svg>
