<?xml version="1.0" encoding="UTF-8" standalone="no"?>
<!-- Created with Inkscape (http://www.inkscape.org/) -->

<svg
   version="1.1"
   id="svg1"
   width="492.16"
   height="282.56"
   viewBox="0 0 492.16 282.56"
   sodipodi:docname="sql-15.pdf"
   xmlns:inkscape="http://www.inkscape.org/namespaces/inkscape"
   xmlns:sodipodi="http://sodipodi.sourceforge.net/DTD/sodipodi-0.dtd"
   xmlns="http://www.w3.org/2000/svg"
   xmlns:svg="http://www.w3.org/2000/svg">
  <defs
     id="defs1">
    <clipPath
       clipPathUnits="userSpaceOnUse"
       id="clipPath2">
      <path
         d="M 0,0 H 1537.5 V 882.4173 H 0 Z"
         transform="scale(0.33430896)"
         clip-rule="evenodd"
         id="path2" />
    </clipPath>
    <clipPath
       clipPathUnits="userSpaceOnUse"
       id="clipPath4">
      <path
         d="M 0,0 H 1537.5 V 879.42603 H 0 Z"
         transform="matrix(0.33430896,0,0,0.33430896,-0.50000001,-0.50000001)"
         clip-rule="evenodd"
         id="path4" />
    </clipPath>
    <clipPath
       clipPathUnits="userSpaceOnUse"
       id="clipPath6">
      <path
         d="M 0,0 H 1537.5 V 879.42603 H 0 Z"
         transform="matrix(0.33430896,0,0,0.33430896,-0.50000001,-0.50000001)"
         clip-rule="evenodd"
         id="path6" />
    </clipPath>
    <clipPath
       clipPathUnits="userSpaceOnUse"
       id="clipPath8">
      <path
         d="M 0,0 H 1537.5 V 879.42603 H 0 Z"
         transform="matrix(0.33430896,0,0,0.33430896,-0.50000001,-0.50000001)"
         clip-rule="evenodd"
         id="path8" />
    </clipPath>
    <clipPath
       clipPathUnits="userSpaceOnUse"
       id="clipPath9">
      <path
         d="M 0,0 H 1537.5 V 879.42603 H 0 Z"
         transform="matrix(0.3343056,0,0,0.3343056,-50.65625,-48.000001)"
         clip-rule="evenodd"
         id="path9" />
    </clipPath>
    <clipPath
       clipPathUnits="userSpaceOnUse"
       id="clipPath11">
      <path
         d="M 0,0 H 1537.5 V 879.42603 H 0 Z"
         transform="matrix(0.33430896,0,0,0.33430896,-0.50000001,-0.50000001)"
         clip-rule="evenodd"
         id="path11" />
    </clipPath>
    <clipPath
       clipPathUnits="userSpaceOnUse"
       id="clipPath12">
      <path
         d="M 0,0 H 1537.5 V 879.42603 H 0 Z"
         transform="matrix(0.3343056,0,0,0.3343056,-352.07813,-48.000001)"
         clip-rule="evenodd"
         id="path12" />
    </clipPath>
    <clipPath
       clipPathUnits="userSpaceOnUse"
       id="clipPath14">
      <path
         d="M 0,0 H 1537.5 V 879.42603 H 0 Z"
         transform="matrix(0.33430896,0,0,0.33430896,-0.50000001,-0.50000001)"
         clip-rule="evenodd"
         id="path14" />
    </clipPath>
    <clipPath
       clipPathUnits="userSpaceOnUse"
       id="clipPath15">
      <path
         d="M 0,0 H 1537.5 V 879.42603 H 0 Z"
         transform="matrix(0.3343056,0,0,0.3343056,-298.39064,-118)"
         clip-rule="evenodd"
         id="path15" />
    </clipPath>
    <clipPath
       clipPathUnits="userSpaceOnUse"
       id="clipPath16">
      <path
         d="M 0,0 H 1537.5 V 879.42603 H 0 Z"
         transform="matrix(0.3343056,0,0,0.3343056,-310.84375,-135)"
         clip-rule="evenodd"
         id="path16" />
    </clipPath>
    <clipPath
       clipPathUnits="userSpaceOnUse"
       id="clipPath18">
      <path
         d="M 0,0 H 1537.5 V 879.42603 H 0 Z"
         transform="matrix(0.33430896,0,0,0.33430896,-0.50000001,-0.50000001)"
         clip-rule="evenodd"
         id="path18" />
    </clipPath>
    <clipPath
       clipPathUnits="userSpaceOnUse"
       id="clipPath19">
      <path
         d="M 0,0 H 1537.5 V 879.42603 H 0 Z"
         transform="matrix(0.3343056,0,0,0.3343056,-11.015625,-118)"
         clip-rule="evenodd"
         id="path19" />
    </clipPath>
    <clipPath
       clipPathUnits="userSpaceOnUse"
       id="clipPath20">
      <path
         d="M 0,0 H 1537.5 V 879.42603 H 0 Z"
         transform="matrix(0.3343056,0,0,0.3343056,-81.421875,-135)"
         clip-rule="evenodd"
         id="path20" />
    </clipPath>
    <clipPath
       clipPathUnits="userSpaceOnUse"
       id="clipPath22">
      <path
         d="M 0,0 H 1537.5 V 879.42603 H 0 Z"
         transform="matrix(0.33430896,0,0,0.33430896,-0.50000001,-0.50000001)"
         clip-rule="evenodd"
         id="path22" />
    </clipPath>
    <clipPath
       clipPathUnits="userSpaceOnUse"
       id="clipPath23">
      <path
         d="M 0,0 H 1537.5 V 879.42603 H 0 Z"
         transform="matrix(0.3343056,0,0,0.3343056,-6.71875,-188)"
         clip-rule="evenodd"
         id="path23" />
    </clipPath>
    <clipPath
       clipPathUnits="userSpaceOnUse"
       id="clipPath24">
      <path
         d="M 0,0 H 1537.5 V 879.42603 H 0 Z"
         transform="matrix(0.3343056,0,0,0.3343056,-95.8125,-205)"
         clip-rule="evenodd"
         id="path24" />
    </clipPath>
    <clipPath
       clipPathUnits="userSpaceOnUse"
       id="clipPath26">
      <path
         d="M 0,0 H 1537.5 V 879.42603 H 0 Z"
         transform="matrix(0.33430896,0,0,0.33430896,-0.50000001,-0.50000001)"
         clip-rule="evenodd"
         id="path26" />
    </clipPath>
    <clipPath
       clipPathUnits="userSpaceOnUse"
       id="clipPath27">
      <path
         d="M 0,0 H 1537.5 V 879.42603 H 0 Z"
         transform="matrix(0.3343056,0,0,0.3343056,-5.15625,-258)"
         clip-rule="evenodd"
         id="path27" />
    </clipPath>
    <clipPath
       clipPathUnits="userSpaceOnUse"
       id="clipPath28">
      <path
         d="M 0,0 H 1537.5 V 879.42603 H 0 Z"
         transform="matrix(0.3343056,0,0,0.3343056,-70.140625,-275)"
         clip-rule="evenodd"
         id="path28" />
    </clipPath>
    <clipPath
       clipPathUnits="userSpaceOnUse"
       id="clipPath30">
      <path
         d="M 0,0 H 1537.5 V 879.42603 H 0 Z"
         transform="matrix(0.33430896,0,0,0.33430896,-0.50000001,-0.50000001)"
         clip-rule="evenodd"
         id="path30" />
    </clipPath>
    <clipPath
       clipPathUnits="userSpaceOnUse"
       id="clipPath31">
      <path
         d="M 0,0 H 1537.5 V 879.42603 H 0 Z"
         transform="matrix(0.3343056,0,0,0.3343056,-311.875,-188)"
         clip-rule="evenodd"
         id="path31" />
    </clipPath>
    <clipPath
       clipPathUnits="userSpaceOnUse"
       id="clipPath32">
      <path
         d="M 0,0 H 1537.5 V 879.42603 H 0 Z"
         transform="matrix(0.3343056,0,0,0.3343056,-355.07813,-205)"
         clip-rule="evenodd"
         id="path32" />
    </clipPath>
    <clipPath
       clipPathUnits="userSpaceOnUse"
       id="clipPath34">
      <path
         d="M 0,0 H 1537.5 V 879.42603 H 0 Z"
         transform="matrix(0.33430896,0,0,0.33430896,-0.50000001,-0.50000001)"
         clip-rule="evenodd"
         id="path34" />
    </clipPath>
    <clipPath
       clipPathUnits="userSpaceOnUse"
       id="clipPath35">
      <path
         d="M 0,0 H 1537.5 V 879.42603 H 0 Z"
         transform="matrix(0.3343056,0,0,0.3343056,-308.375,-258)"
         clip-rule="evenodd"
         id="path35" />
    </clipPath>
    <clipPath
       clipPathUnits="userSpaceOnUse"
       id="clipPath36">
      <path
         d="M 0,0 H 1537.5 V 879.42603 H 0 Z"
         transform="matrix(0.3343056,0,0,0.3343056,-301.79689,-275)"
         clip-rule="evenodd"
         id="path36" />
    </clipPath>
  </defs>
  <sodipodi:namedview
     id="namedview1"
     pagecolor="#ffffff"
     bordercolor="#000000"
     borderopacity="0.25"
     inkscape:showpageshadow="2"
     inkscape:pageopacity="0.0"
     inkscape:pagecheckerboard="0"
     inkscape:deskcolor="#d1d1d1">
    <inkscape:page
       x="0"
       y="0"
       inkscape:label="1"
       id="page1"
       width="492.16"
       height="282.56"
       margin="0"
       bleed="0" />
  </sodipodi:namedview>
  <g
     id="g1"
     inkscape:groupmode="layer"
     inkscape:label="1">
    <path
       id="path1"
       d="M 0,0 H 514 V 295 H 0 Z"
       style="fill:#ffffff;fill-opacity:1;fill-rule:nonzero;stroke:none"
       transform="scale(0.95719836)"
       clip-path="url(#clipPath2)" />
    <path
       id="path3"
       d="m 221,41 h 63.63"
       style="fill:none;stroke:#000000;stroke-width:1;stroke-linecap:butt;stroke-linejoin:miter;stroke-miterlimit:10;stroke-dasharray:none;stroke-opacity:1"
       transform="matrix(0.95719836,0,0,0.95719836,0.47859919,0.47859919)"
       clip-path="url(#clipPath4)" />
    <path
       id="path5"
       d="m 289.88,41 -7,3.5 1.75,-3.5 -1.75,-3.5 z"
       style="fill:#000000;fill-opacity:1;fill-rule:nonzero;stroke:#000000;stroke-width:1;stroke-linecap:butt;stroke-linejoin:miter;stroke-miterlimit:10;stroke-dasharray:none;stroke-opacity:1"
       transform="matrix(0.95719836,0,0,0.95719836,0.47859919,0.47859919)"
       clip-path="url(#clipPath6)" />
    <path
       id="path7"
       d="M 1,1 H 221 V 81 H 1 Z"
       style="fill:#ffffff;fill-opacity:1;fill-rule:nonzero;stroke:#000000;stroke-width:1;stroke-linecap:butt;stroke-linejoin:miter;stroke-miterlimit:10;stroke-dasharray:none;stroke-opacity:1"
       transform="matrix(0.95719836,0,0,0.95719836,0.47859919,0.47859919)"
       clip-path="url(#clipPath8)" />
    <text
       id="text8"
       xml:space="preserve"
       transform="matrix(0.95720799,0,0,0.95720799,48.488567,45.945984)"
       clip-path="url(#clipPath9)"><tspan
         style="font-variant:normal;font-weight:700;font-size:22px;font-family:Helvetica;writing-mode:lr-tb;fill:#000000;fill-opacity:1;fill-rule:nonzero;stroke:none"
         x="0 20.37793 32.613281 46.051758 52.164062 66.837891 79.073242 87.634766 99.870117 112.10547"
         y="0"
         sodipodi:role="line"
         id="tspan8">Web Server</tspan></text>
    <path
       id="path10"
       d="M 291,1 H 511 V 81 H 291 Z"
       style="fill:#ffffff;fill-opacity:1;fill-rule:nonzero;stroke:#000000;stroke-width:1;stroke-linecap:butt;stroke-linejoin:miter;stroke-miterlimit:10;stroke-dasharray:none;stroke-opacity:1"
       transform="matrix(0.95719836,0,0,0.95719836,0.47859919,0.47859919)"
       clip-path="url(#clipPath11)" />
    <text
       id="text11"
       xml:space="preserve"
       transform="matrix(0.95720799,0,0,0.95720799,337.012,45.945984)"
       clip-path="url(#clipPath12)"><tspan
         style="font-variant:normal;font-weight:700;font-size:22px;font-family:Helvetica;writing-mode:lr-tb;fill:#000000;fill-opacity:1;fill-rule:nonzero;stroke:none"
         x="0 15.887695 28.123047 35.449219 47.68457 61.123047 73.358398 85.59375"
         y="0"
         sodipodi:role="line"
         id="tspan11">Database</tspan></text>
    <path
       id="path13"
       d="m 291,91 h 220 v 60 H 291 Z"
       style="fill:#d5e8d4;fill-opacity:1;fill-rule:nonzero;stroke:#82b366;stroke-width:1;stroke-linecap:butt;stroke-linejoin:miter;stroke-miterlimit:10;stroke-dasharray:none;stroke-opacity:1"
       transform="matrix(0.95719836,0,0,0.95719836,0.47859919,0.47859919)"
       clip-path="url(#clipPath14)" />
    <text
       id="text14"
       xml:space="preserve"
       transform="matrix(0.95720799,0,0,0.95720799,285.6219,112.95054)"
       clip-path="url(#clipPath15)"><tspan
         style="font-variant:normal;font-weight:normal;font-size:14px;font-family:Helvetica;writing-mode:lr-tb;fill:#000000;fill-opacity:1;fill-rule:nonzero;stroke:none"
         x="0 8.3056641 16.091797 19.202148 22.3125 30.098633 37.884766 41.774414 44.884766 52.670898 60.457031 64.34668 71.34668 75.236328 78.34668 81.457031 84.567383 88.457031 96.243164 104.0293 111.81543 114.92578 118.03613 125.82227 133.6084 137.49805 145.28418 152.28418 160.07031 167.85645 171.74609 174.85645 178.74609 182.63574 189.63574 197.42188"
         y="0"
         sodipodi:role="line"
         id="tspan14">Validation still applied even if you</tspan></text>
    <text
       id="text15"
       xml:space="preserve"
       transform="matrix(0.95720799,0,0,0.95720799,297.54212,129.22308)"
       clip-path="url(#clipPath16)"><tspan
         style="font-variant:normal;font-weight:normal;font-size:14px;font-family:Helvetica;writing-mode:lr-tb;fill:#000000;fill-opacity:1;fill-rule:nonzero;stroke:none"
         x="0 7 14.786133 22.572266 30.358398 38.144531 45.144531 49.03418 52.923828 63.03418 66.144531 70.03418 77.820312 81.709961 89.496094 93.385742 101.17188 104.28223 107.92578 111.81543 119.60156 124.26367 132.0498 139.83594 143.72559 147.61523 154.61523 157.72559 160.83594 168.62207 176.4082"
         y="0"
         sodipodi:role="line"
         id="tspan15">connect with a different client</tspan></text>
    <path
       id="path17"
       d="m 1,91 h 220 v 60 H 1 Z"
       style="fill:#d5e8d4;fill-opacity:1;fill-rule:nonzero;stroke:#82b366;stroke-width:1;stroke-linecap:butt;stroke-linejoin:miter;stroke-miterlimit:10;stroke-dasharray:none;stroke-opacity:1"
       transform="matrix(0.95719836,0,0,0.95719836,0.47859919,0.47859919)"
       clip-path="url(#clipPath18)" />
    <text
       id="text18"
       xml:space="preserve"
       transform="matrix(0.95720799,0,0,0.95720799,10.544244,112.95054)"
       clip-path="url(#clipPath19)"><tspan
         style="font-variant:normal;font-weight:normal;font-size:14px;font-family:Helvetica;writing-mode:lr-tb;fill:#000000;fill-opacity:1;fill-rule:nonzero;stroke:none"
         x="0 9.3378906 17.124023 24.124023 27.234375 35.020508 39.682617 43.572266 47.461914 55.248047 59.137695 66.923828 73.923828 81.709961 86.37207 94.158203 101.1582 108.1582 112.04785 123.70996 131.49609 136.1582 143.94434 147.83398 154.83398 162.62012 174.28223 182.06836 185.17871 192.96484"
         y="0"
         sodipodi:role="line"
         id="tspan18">Easier to express more complex</tspan></text>
    <text
       id="text19"
       xml:space="preserve"
       transform="matrix(0.95720799,0,0,0.95720799,77.937669,129.22308)"
       clip-path="url(#clipPath20)"><tspan
         style="font-variant:normal;font-weight:normal;font-size:14px;font-family:Helvetica;writing-mode:lr-tb;fill:#000000;fill-opacity:1;fill-rule:nonzero;stroke:none"
         x="0 7 14.786133 17.896484 21.006836 28.792969 36.579102 40.46875 43.579102 51.365234"
         y="0"
         sodipodi:role="line"
         id="tspan19">validation</tspan></text>
    <path
       id="path21"
       d="m 1,161 h 220 v 60 H 1 Z"
       style="fill:#d5e8d4;fill-opacity:1;fill-rule:nonzero;stroke:#82b366;stroke-width:1;stroke-linecap:butt;stroke-linejoin:miter;stroke-miterlimit:10;stroke-dasharray:none;stroke-opacity:1"
       transform="matrix(0.95719836,0,0,0.95719836,0.47859919,0.47859919)"
       clip-path="url(#clipPath22)" />
    <text
       id="text22"
       xml:space="preserve"
       transform="matrix(0.95720799,0,0,0.95720799,6.4312412,179.9551)"
       clip-path="url(#clipPath23)"><tspan
         style="font-variant:normal;font-weight:normal;font-size:14px;font-family:Helvetica;writing-mode:lr-tb;fill:#000000;fill-opacity:1;fill-rule:nonzero;stroke:none"
         x="0 8.5517578 16.337891 21 24.889648 32.675781 40.461914 47.461914 50.572266 58.358398 63.020508 66.910156 70.799805 78.585938 82.475586 90.261719 98.047852 105.83398 108.94434 115.94434 119.83398 127.62012 135.40625 145.5166 149.40625 156.40625 164.19238 167.30273 170.41309 178.19922 185.98535 189.875 192.98535 200.77148"
         y="0"
         sodipodi:role="line"
         id="tspan22">Far easier to apply new validation</tspan></text>
    <text
       id="text23"
       xml:space="preserve"
       transform="matrix(0.95720799,0,0,0.95720799,91.712491,196.22764)"
       clip-path="url(#clipPath24)"><tspan
         style="font-variant:normal;font-weight:normal;font-size:14px;font-family:Helvetica;writing-mode:lr-tb;fill:#000000;fill-opacity:1;fill-rule:nonzero;stroke:none"
         x="0 4.6621094 12.448242 15.558594 23.344727"
         y="0"
         sodipodi:role="line"
         id="tspan23">rules</tspan></text>
    <path
       id="path25"
       d="m 1,231 h 220 v 60 H 1 Z"
       style="fill:#d5e8d4;fill-opacity:1;fill-rule:nonzero;stroke:#82b366;stroke-width:1;stroke-linecap:butt;stroke-linejoin:miter;stroke-miterlimit:10;stroke-dasharray:none;stroke-opacity:1"
       transform="matrix(0.95719836,0,0,0.95719836,0.47859919,0.47859919)"
       clip-path="url(#clipPath26)" />
    <text
       id="text26"
       xml:space="preserve"
       transform="matrix(0.95720799,0,0,0.95720799,4.9356037,246.95966)"
       clip-path="url(#clipPath27)"><tspan
         style="font-variant:normal;font-weight:normal;font-size:14px;font-family:Helvetica;writing-mode:lr-tb;fill:#000000;fill-opacity:1;fill-rule:nonzero;stroke:none"
         x="0 11.662109 19.448242 27.234375 34.234375 38.124023 41.234375 44.344727 52.130859 56.792969 64.579102 69.241211 72.351562 80.137695 87.137695 91.027344 94.916992 102.70312 106.59277 114.37891 122.16504 129.95117 137.7373 140.84766 148.63379 152.52344 159.52344 167.30957 170.41992 173.53027 181.31641 189.10254 192.99219 196.10254 203.88867"
         y="0"
         sodipodi:role="line"
         id="tspan26">Many libraries to handle validation</tspan></text>
    <text
       id="text27"
       xml:space="preserve"
       transform="matrix(0.95720799,0,0,0.95720799,67.139167,263.2322)"
       clip-path="url(#clipPath28)"><tspan
         style="font-variant:normal;font-weight:normal;font-size:14px;font-family:Helvetica;writing-mode:lr-tb;fill:#000000;fill-opacity:1;fill-rule:nonzero;stroke:none"
         x="0 7.7861328 15.572266 19.461914 27.248047 38.910156 46.696289 50.585938 53.696289 60.696289 68.482422 71.592773 74.703125"
         y="0"
         sodipodi:role="line"
         id="tspan27">automatically</tspan></text>
    <path
       id="path29"
       d="m 291,161 h 220 v 60 H 291 Z"
       style="fill:#d5e8d4;fill-opacity:1;fill-rule:nonzero;stroke:#82b366;stroke-width:1;stroke-linecap:butt;stroke-linejoin:miter;stroke-miterlimit:10;stroke-dasharray:none;stroke-opacity:1"
       transform="matrix(0.95719836,0,0,0.95719836,0.47859919,0.47859919)"
       clip-path="url(#clipPath30)" />
    <text
       id="text30"
       xml:space="preserve"
       transform="matrix(0.95720799,0,0,0.95720799,298.52924,179.9551)"
       clip-path="url(#clipPath31)"><tspan
         style="font-variant:normal;font-weight:normal;font-size:14px;font-family:Helvetica;writing-mode:lr-tb;fill:#000000;fill-opacity:1;fill-rule:nonzero;stroke:none"
         x="0 10.889648 18.675781 26.461914 31.124023 38.910156 46.696289 50.585938 58.37207 66.158203 73.944336 77.833984 81.723633 89.509766 97.295898 101.18555 105.0752 112.0752 119.86133 122.97168 126.08203 133.86816 141.6543 145.54395 148.6543 156.44043 164.22656 168.11621 171.22656"
         y="0"
         sodipodi:role="line"
         id="tspan30">Guaranteed that validation is</tspan></text>
    <text
       id="text31"
       xml:space="preserve"
       transform="matrix(0.95720799,0,0,0.95720799,339.88362,196.22764)"
       clip-path="url(#clipPath32)"><tspan
         style="font-variant:normal;font-weight:normal;font-size:14px;font-family:Helvetica;writing-mode:lr-tb;fill:#000000;fill-opacity:1;fill-rule:nonzero;stroke:none"
         x="0 7.7861328 10.896484 21.006836 28.792969 35.792969 42.792969 46.682617 54.46875 62.254883 70.041016 73.151367 76.261719 84.047852"
         y="0"
         sodipodi:role="line"
         id="tspan31">always applied</tspan></text>
    <path
       id="path33"
       d="m 291,231 h 220 v 60 H 291 Z"
       style="fill:#d5e8d4;fill-opacity:1;fill-rule:nonzero;stroke:#82b366;stroke-width:1;stroke-linecap:butt;stroke-linejoin:miter;stroke-miterlimit:10;stroke-dasharray:none;stroke-opacity:1"
       transform="matrix(0.95719836,0,0,0.95719836,0.47859919,0.47859919)"
       clip-path="url(#clipPath34)" />
    <text
       id="text34"
       xml:space="preserve"
       transform="matrix(0.95720799,0,0,0.95720799,295.17901,246.95966)"
       clip-path="url(#clipPath35)"><tspan
         style="font-variant:normal;font-weight:normal;font-size:14px;font-family:Helvetica;writing-mode:lr-tb;fill:#000000;fill-opacity:1;fill-rule:nonzero;stroke:none"
         x="0 10.110352 17.896484 25.682617 29.572266 37.358398 45.144531 48.254883 55.254883 59.144531 66.930664 74.716797 82.50293 85.613281 92.613281 96.50293 104.28906 112.0752 122.18555 126.0752 133.0752 140.86133 143.97168 147.08203 154.86816 162.6543 166.54395 169.6543 177.44043"
         y="0"
         sodipodi:role="line"
         id="tspan34">Can only apply new validation</tspan></text>
    <text
       id="text35"
       xml:space="preserve"
       transform="matrix(0.95720799,0,0,0.95720799,288.88239,263.2322)"
       clip-path="url(#clipPath36)"><tspan
         style="font-variant:normal;font-weight:normal;font-size:14px;font-family:Helvetica;writing-mode:lr-tb;fill:#000000;fill-opacity:1;fill-rule:nonzero;stroke:none"
         x="0 4.6621094 12.448242 15.558594 23.344727 30.344727 34.234375 37.344727 41.234375 45.124023 52.910156 56.020508 59.130859 63.020508 70.806641 77.806641 80.916992 87.916992 91.806641 94.916992 102.70312 110.48926 114.37891 119.04102 126.82715 136.9375 143.9375 147.82715 154.82715 162.61328 166.50293 169.61328 176.61328 180.50293 187.50293 191.39258 194.50293"
         y="0"
         sodipodi:role="line"
         id="tspan35">rules if all existing rows satisfy it</tspan></text>
  </g>
</svg>
